G04 #@! TF.GenerationSoftware,KiCad,Pcbnew,(5.0.1)-rc2*
G04 #@! TF.CreationDate,2018-11-18T21:30:58-07:00*
G04 #@! TF.ProjectId,RPI_zeroW_reset,5250495F7A65726F575F72657365742E,rev?*
G04 #@! TF.SameCoordinates,Original*
G04 #@! TF.FileFunction,Copper,L1,Top,Signal*
G04 #@! TF.FilePolarity,Positive*
%FSLAX46Y46*%
G04 Gerber Fmt 4.6, Leading zero omitted, Abs format (unit mm)*
G04 Created by KiCad (PCBNEW (5.0.1)-rc2) date 11/18/2018 9:30:58 PM*
%MOMM*%
%LPD*%
G01*
G04 APERTURE LIST*
G04 #@! TA.AperFunction,ComponentPad*
%ADD10O,1.700000X1.700000*%
G04 #@! TD*
G04 #@! TA.AperFunction,ComponentPad*
%ADD11R,1.700000X1.700000*%
G04 #@! TD*
G04 #@! TA.AperFunction,SMDPad,CuDef*
%ADD12R,0.599440X1.300480*%
G04 #@! TD*
G04 #@! TA.AperFunction,SMDPad,CuDef*
%ADD13R,1.500000X1.000000*%
G04 #@! TD*
G04 #@! TA.AperFunction,ViaPad*
%ADD14C,0.800000*%
G04 #@! TD*
G04 #@! TA.AperFunction,Conductor*
%ADD15C,0.250000*%
G04 #@! TD*
G04 #@! TA.AperFunction,Conductor*
%ADD16C,0.254000*%
G04 #@! TD*
G04 APERTURE END LIST*
D10*
G04 #@! TO.P,J1,2*
G04 #@! TO.N,Net-(J1-Pad2)*
X112268000Y-74676000D03*
D11*
G04 #@! TO.P,J1,1*
G04 #@! TO.N,Net-(J1-Pad1)*
X109728000Y-74676000D03*
G04 #@! TD*
D12*
G04 #@! TO.P,U1,5*
G04 #@! TO.N,Net-(J1-Pad1)*
X110302040Y-78232000D03*
G04 #@! TO.P,U1,6*
X109352080Y-78232000D03*
G04 #@! TO.P,U1,4*
G04 #@! TO.N,N/C*
X111252000Y-78232000D03*
G04 #@! TO.P,U1,3*
G04 #@! TO.N,Net-(R1-Pad2)*
X111252000Y-80929480D03*
G04 #@! TO.P,U1,2*
G04 #@! TO.N,Net-(J1-Pad2)*
X110302040Y-80929480D03*
G04 #@! TO.P,U1,1*
G04 #@! TO.N,Net-(J1-Pad1)*
X109352080Y-80929480D03*
G04 #@! TD*
D13*
G04 #@! TO.P,SW1,2*
G04 #@! TO.N,Net-(J1-Pad1)*
X113816000Y-76804000D03*
G04 #@! TO.P,SW1,1*
G04 #@! TO.N,Net-(R1-Pad2)*
X113816000Y-82804000D03*
G04 #@! TD*
D14*
G04 #@! TO.N,Net-(J1-Pad2)*
X110484920Y-79482242D03*
G04 #@! TO.N,Net-(R1-Pad2)*
X113284000Y-79248000D03*
G04 #@! TD*
D15*
G04 #@! TO.N,Net-(J1-Pad1)*
X109728000Y-77856080D02*
X109352080Y-78232000D01*
X109728000Y-74676000D02*
X109728000Y-77856080D01*
X110302040Y-78232000D02*
X109352080Y-78232000D01*
X109352080Y-80929480D02*
X109352080Y-78232000D01*
X112816000Y-76804000D02*
X113816000Y-76804000D01*
X110829800Y-76804000D02*
X112816000Y-76804000D01*
X110302040Y-77331760D02*
X110829800Y-76804000D01*
X110302040Y-78232000D02*
X110302040Y-77331760D01*
G04 #@! TO.N,Net-(J1-Pad2)*
X110302040Y-80929480D02*
X110302040Y-79665122D01*
X110302040Y-79665122D02*
X110484920Y-79482242D01*
G04 #@! TO.N,Net-(R1-Pad2)*
X111691480Y-80929480D02*
X111252000Y-80929480D01*
X113566000Y-82804000D02*
X111691480Y-80929480D01*
X113816000Y-82804000D02*
X113566000Y-82804000D01*
X112582960Y-79248000D02*
X113284000Y-79248000D01*
X111252000Y-80578960D02*
X112582960Y-79248000D01*
X111252000Y-80929480D02*
X111252000Y-80578960D01*
G04 #@! TD*
D16*
G04 #@! TO.N,Net-(J1-Pad2)*
G36*
X110952280Y-79529680D02*
X111226479Y-79529680D01*
X111124359Y-79631800D01*
X110952280Y-79631800D01*
X110704515Y-79681083D01*
X110494471Y-79821431D01*
X110354123Y-80031475D01*
X110304840Y-80279240D01*
X110304840Y-81579720D01*
X110354123Y-81827485D01*
X110494471Y-82037529D01*
X110704515Y-82177877D01*
X110952280Y-82227160D01*
X111551720Y-82227160D01*
X111799485Y-82177877D01*
X111838804Y-82151605D01*
X112418560Y-82731362D01*
X112418560Y-83085000D01*
X108939000Y-83085000D01*
X108939000Y-82204612D01*
X109052360Y-82227160D01*
X109651800Y-82227160D01*
X109899565Y-82177877D01*
X110109609Y-82037529D01*
X110249957Y-81827485D01*
X110299240Y-81579720D01*
X110299240Y-80279240D01*
X110249957Y-80031475D01*
X110112080Y-79825129D01*
X110112080Y-79529680D01*
X110601760Y-79529680D01*
X110777020Y-79494819D01*
X110952280Y-79529680D01*
X110952280Y-79529680D01*
G37*
X110952280Y-79529680D02*
X111226479Y-79529680D01*
X111124359Y-79631800D01*
X110952280Y-79631800D01*
X110704515Y-79681083D01*
X110494471Y-79821431D01*
X110354123Y-80031475D01*
X110304840Y-80279240D01*
X110304840Y-81579720D01*
X110354123Y-81827485D01*
X110494471Y-82037529D01*
X110704515Y-82177877D01*
X110952280Y-82227160D01*
X111551720Y-82227160D01*
X111799485Y-82177877D01*
X111838804Y-82151605D01*
X112418560Y-82731362D01*
X112418560Y-83085000D01*
X108939000Y-83085000D01*
X108939000Y-82204612D01*
X109052360Y-82227160D01*
X109651800Y-82227160D01*
X109899565Y-82177877D01*
X110109609Y-82037529D01*
X110249957Y-81827485D01*
X110299240Y-81579720D01*
X110299240Y-80279240D01*
X110249957Y-80031475D01*
X110112080Y-79825129D01*
X110112080Y-79529680D01*
X110601760Y-79529680D01*
X110777020Y-79494819D01*
X110952280Y-79529680D01*
G36*
X112803000Y-75619611D02*
X112788601Y-75692000D01*
X112794508Y-75721697D01*
X112608191Y-75846191D01*
X112476018Y-76044000D01*
X110945727Y-76044000D01*
X111035809Y-75983809D01*
X111176157Y-75773765D01*
X111225440Y-75526000D01*
X111225440Y-73887000D01*
X112803001Y-73887000D01*
X112803000Y-75619611D01*
X112803000Y-75619611D01*
G37*
X112803000Y-75619611D02*
X112788601Y-75692000D01*
X112794508Y-75721697D01*
X112608191Y-75846191D01*
X112476018Y-76044000D01*
X110945727Y-76044000D01*
X111035809Y-75983809D01*
X111176157Y-75773765D01*
X111225440Y-75526000D01*
X111225440Y-73887000D01*
X112803001Y-73887000D01*
X112803000Y-75619611D01*
G04 #@! TD*
M02*
