G04 #@! TF.GenerationSoftware,KiCad,Pcbnew,(5.0.1)-rc2*
G04 #@! TF.CreationDate,2018-11-18T21:30:58-07:00*
G04 #@! TF.ProjectId,RPI_zeroW_reset,5250495F7A65726F575F72657365742E,rev?*
G04 #@! TF.SameCoordinates,Original*
G04 #@! TF.FileFunction,Soldermask,Top*
G04 #@! TF.FilePolarity,Negative*
%FSLAX46Y46*%
G04 Gerber Fmt 4.6, Leading zero omitted, Abs format (unit mm)*
G04 Created by KiCad (PCBNEW (5.0.1)-rc2) date 11/18/2018 9:30:58 PM*
%MOMM*%
%LPD*%
G01*
G04 APERTURE LIST*
%ADD10C,0.100000*%
G04 APERTURE END LIST*
D10*
G36*
X114617000Y-83355000D02*
X113015000Y-83355000D01*
X113015000Y-82253000D01*
X114617000Y-82253000D01*
X114617000Y-83355000D01*
X114617000Y-83355000D01*
G37*
G36*
X111602720Y-81630720D02*
X109001360Y-81630720D01*
X109001360Y-80228240D01*
X111602720Y-80228240D01*
X111602720Y-81630720D01*
X111602720Y-81630720D01*
G37*
G36*
X111602720Y-78933240D02*
X109001360Y-78933240D01*
X109001360Y-77530760D01*
X111602720Y-77530760D01*
X111602720Y-78933240D01*
X111602720Y-78933240D01*
G37*
G36*
X114617000Y-77355000D02*
X113015000Y-77355000D01*
X113015000Y-76253000D01*
X114617000Y-76253000D01*
X114617000Y-77355000D01*
X114617000Y-77355000D01*
G37*
G36*
X112378443Y-73781519D02*
X112444627Y-73788037D01*
X112557853Y-73822384D01*
X112614467Y-73839557D01*
X112753087Y-73913652D01*
X112770991Y-73923222D01*
X112806729Y-73952552D01*
X112908186Y-74035814D01*
X112991448Y-74137271D01*
X113020778Y-74173009D01*
X113020779Y-74173011D01*
X113104443Y-74329533D01*
X113104443Y-74329534D01*
X113155963Y-74499373D01*
X113173359Y-74676000D01*
X113155963Y-74852627D01*
X113121616Y-74965853D01*
X113104443Y-75022467D01*
X113030348Y-75161087D01*
X113020778Y-75178991D01*
X112991448Y-75214729D01*
X112908186Y-75316186D01*
X112806729Y-75399448D01*
X112770991Y-75428778D01*
X112770989Y-75428779D01*
X112614467Y-75512443D01*
X112557853Y-75529616D01*
X112444627Y-75563963D01*
X112378443Y-75570481D01*
X112312260Y-75577000D01*
X112223740Y-75577000D01*
X112157557Y-75570481D01*
X112091373Y-75563963D01*
X111978147Y-75529616D01*
X111921533Y-75512443D01*
X111765011Y-75428779D01*
X111765009Y-75428778D01*
X111729271Y-75399448D01*
X111627814Y-75316186D01*
X111544552Y-75214729D01*
X111515222Y-75178991D01*
X111505652Y-75161087D01*
X111431557Y-75022467D01*
X111414384Y-74965853D01*
X111380037Y-74852627D01*
X111362641Y-74676000D01*
X111380037Y-74499373D01*
X111431557Y-74329534D01*
X111431557Y-74329533D01*
X111515221Y-74173011D01*
X111515222Y-74173009D01*
X111544552Y-74137271D01*
X111627814Y-74035814D01*
X111729271Y-73952552D01*
X111765009Y-73923222D01*
X111782913Y-73913652D01*
X111921533Y-73839557D01*
X111978147Y-73822384D01*
X112091373Y-73788037D01*
X112157557Y-73781519D01*
X112223740Y-73775000D01*
X112312260Y-73775000D01*
X112378443Y-73781519D01*
X112378443Y-73781519D01*
G37*
G36*
X110629000Y-75577000D02*
X108827000Y-75577000D01*
X108827000Y-73775000D01*
X110629000Y-73775000D01*
X110629000Y-75577000D01*
X110629000Y-75577000D01*
G37*
M02*
