G04 #@! TF.GenerationSoftware,KiCad,Pcbnew,(5.0.1)-rc2*
G04 #@! TF.CreationDate,2018-11-18T21:30:58-07:00*
G04 #@! TF.ProjectId,RPI_zeroW_reset,5250495F7A65726F575F72657365742E,rev?*
G04 #@! TF.SameCoordinates,Original*
G04 #@! TF.FileFunction,Copper,L2,Bot,Signal*
G04 #@! TF.FilePolarity,Positive*
%FSLAX46Y46*%
G04 Gerber Fmt 4.6, Leading zero omitted, Abs format (unit mm)*
G04 Created by KiCad (PCBNEW (5.0.1)-rc2) date 11/18/2018 9:30:58 PM*
%MOMM*%
%LPD*%
G01*
G04 APERTURE LIST*
G04 #@! TA.AperFunction,ComponentPad*
%ADD10O,1.700000X1.700000*%
G04 #@! TD*
G04 #@! TA.AperFunction,ComponentPad*
%ADD11R,1.700000X1.700000*%
G04 #@! TD*
G04 #@! TA.AperFunction,SMDPad,CuDef*
%ADD12R,1.597660X1.798320*%
G04 #@! TD*
G04 #@! TA.AperFunction,ViaPad*
%ADD13C,0.800000*%
G04 #@! TD*
G04 #@! TA.AperFunction,Conductor*
%ADD14C,0.250000*%
G04 #@! TD*
G04 #@! TA.AperFunction,Conductor*
%ADD15C,0.254000*%
G04 #@! TD*
G04 APERTURE END LIST*
D10*
G04 #@! TO.P,J1,2*
G04 #@! TO.N,Net-(J1-Pad2)*
X112268000Y-74676000D03*
D11*
G04 #@! TO.P,J1,1*
G04 #@! TO.N,Net-(J1-Pad1)*
X109728000Y-74676000D03*
G04 #@! TD*
D12*
G04 #@! TO.P,R1,1*
G04 #@! TO.N,Net-(J1-Pad2)*
X110484920Y-79248000D03*
G04 #@! TO.P,R1,2*
G04 #@! TO.N,Net-(R1-Pad2)*
X113284000Y-79248000D03*
G04 #@! TD*
D13*
G04 #@! TO.N,Net-(J1-Pad2)*
X110484920Y-79482242D03*
G04 #@! TO.N,Net-(R1-Pad2)*
X113284000Y-79248000D03*
G04 #@! TD*
D14*
G04 #@! TO.N,Net-(J1-Pad2)*
X110484920Y-76459080D02*
X112268000Y-74676000D01*
X110484920Y-79248000D02*
X110484920Y-76459080D01*
G04 #@! TD*
D15*
G04 #@! TO.N,Net-(J1-Pad2)*
G36*
X112803000Y-75619611D02*
X112788601Y-75692000D01*
X112845646Y-75978783D01*
X112942782Y-76124157D01*
X113008095Y-76221905D01*
X113251217Y-76384354D01*
X113538000Y-76441399D01*
X113610388Y-76427000D01*
X115089001Y-76427000D01*
X115089000Y-83085000D01*
X108939000Y-83085000D01*
X108939000Y-78348840D01*
X111837730Y-78348840D01*
X111837730Y-80147160D01*
X111887013Y-80394925D01*
X112027361Y-80604969D01*
X112237405Y-80745317D01*
X112485170Y-80794600D01*
X114082830Y-80794600D01*
X114330595Y-80745317D01*
X114540639Y-80604969D01*
X114680987Y-80394925D01*
X114730270Y-80147160D01*
X114730270Y-78348840D01*
X114680987Y-78101075D01*
X114540639Y-77891031D01*
X114330595Y-77750683D01*
X114082830Y-77701400D01*
X112485170Y-77701400D01*
X112237405Y-77750683D01*
X112027361Y-77891031D01*
X111887013Y-78101075D01*
X111837730Y-78348840D01*
X108939000Y-78348840D01*
X108939000Y-76173440D01*
X110578000Y-76173440D01*
X110825765Y-76124157D01*
X111035809Y-75983809D01*
X111176157Y-75773765D01*
X111225440Y-75526000D01*
X111225440Y-73887000D01*
X112803001Y-73887000D01*
X112803000Y-75619611D01*
X112803000Y-75619611D01*
G37*
X112803000Y-75619611D02*
X112788601Y-75692000D01*
X112845646Y-75978783D01*
X112942782Y-76124157D01*
X113008095Y-76221905D01*
X113251217Y-76384354D01*
X113538000Y-76441399D01*
X113610388Y-76427000D01*
X115089001Y-76427000D01*
X115089000Y-83085000D01*
X108939000Y-83085000D01*
X108939000Y-78348840D01*
X111837730Y-78348840D01*
X111837730Y-80147160D01*
X111887013Y-80394925D01*
X112027361Y-80604969D01*
X112237405Y-80745317D01*
X112485170Y-80794600D01*
X114082830Y-80794600D01*
X114330595Y-80745317D01*
X114540639Y-80604969D01*
X114680987Y-80394925D01*
X114730270Y-80147160D01*
X114730270Y-78348840D01*
X114680987Y-78101075D01*
X114540639Y-77891031D01*
X114330595Y-77750683D01*
X114082830Y-77701400D01*
X112485170Y-77701400D01*
X112237405Y-77750683D01*
X112027361Y-77891031D01*
X111887013Y-78101075D01*
X111837730Y-78348840D01*
X108939000Y-78348840D01*
X108939000Y-76173440D01*
X110578000Y-76173440D01*
X110825765Y-76124157D01*
X111035809Y-75983809D01*
X111176157Y-75773765D01*
X111225440Y-75526000D01*
X111225440Y-73887000D01*
X112803001Y-73887000D01*
X112803000Y-75619611D01*
G04 #@! TD*
M02*
