M48
INCH,TZ
T1C0.016
T2C0.059
%
G90
G05
T1
X62600Y-33700
X62700Y-34700
X62700Y-37400
X62900Y-35800
X62900Y-43800
X63200Y-37300
X63400Y-40100
X63500Y-31400
X63500Y-34000
X63600Y-38400
X63700Y-35500
X63900Y-32200
X64000Y-40200
X64200Y-36500
X64200Y-41900
X64200Y-42700
X64590Y-36740
X64660Y-39360
X65000Y-31500
X65300Y-42100
X65500Y-41000
T2
X62917Y-45990
X62967Y-32210
X65083Y-45202
T0
M30
