G04 #@! TF.FileFunction,Copper,L1,Top,Signal*
%FSLAX46Y46*%
G04 Gerber Fmt 4.6, Leading zero omitted, Abs format (unit mm)*
G04 Created by KiCad (PCBNEW 4.0.7) date 02/04/18 11:48:37*
%MOMM*%
%LPD*%
G01*
G04 APERTURE LIST*
%ADD10C,0.100000*%
%ADD11R,1.500000X1.250000*%
%ADD12R,1.500000X1.300000*%
%ADD13R,1.270000X0.635000*%
%ADD14R,0.635000X1.270000*%
%ADD15R,1.300000X1.500000*%
%ADD16R,0.650000X1.560000*%
%ADD17R,0.600000X1.200000*%
%ADD18R,1.200000X0.600000*%
%ADD19C,2.247900*%
%ADD20R,0.900000X0.800000*%
%ADD21C,0.600000*%
%ADD22C,0.250000*%
%ADD23C,0.254000*%
G04 APERTURE END LIST*
D10*
D11*
X159278000Y-84328000D03*
X161778000Y-84328000D03*
D12*
X161210000Y-78486000D03*
X163910000Y-78486000D03*
D13*
X159258000Y-87274400D03*
X159258000Y-86461600D03*
D14*
X159105600Y-97282000D03*
X159918400Y-97282000D03*
D13*
X159258000Y-89001600D03*
X159258000Y-89814400D03*
D15*
X164084000Y-81454000D03*
X164084000Y-84154000D03*
X166370000Y-83740000D03*
X166370000Y-86440000D03*
X164084000Y-88820000D03*
X164084000Y-91520000D03*
X166370000Y-91520000D03*
X166370000Y-88820000D03*
X159512000Y-101266000D03*
X159512000Y-103966000D03*
X164338000Y-112094000D03*
X164338000Y-109394000D03*
X161798000Y-88820000D03*
X161798000Y-91520000D03*
X166370000Y-81360000D03*
X166370000Y-78660000D03*
D16*
X165796000Y-102790000D03*
X164846000Y-102790000D03*
X163896000Y-102790000D03*
X163896000Y-105490000D03*
X165796000Y-105490000D03*
X164846000Y-105490000D03*
D17*
X160358000Y-106236000D03*
X158158000Y-106236000D03*
X160358000Y-114136000D03*
D18*
X161358000Y-112436000D03*
X161358000Y-110936000D03*
D17*
X158158000Y-114136000D03*
D18*
X161358000Y-108036000D03*
D19*
X159935000Y-81814000D03*
X159810000Y-116814000D03*
X165310000Y-114814000D03*
D20*
X166100000Y-98740000D03*
X166100000Y-96840000D03*
X164100000Y-97790000D03*
D21*
X160528000Y-94742000D03*
X161036000Y-101854000D03*
X161290000Y-79756000D03*
X165100000Y-80010000D03*
X162306000Y-81788000D03*
X161544000Y-97536000D03*
X165862000Y-106934000D03*
X159258000Y-88138000D03*
X161798000Y-90170000D03*
X159766000Y-90932000D03*
X164058600Y-93319600D03*
X164236400Y-99974400D03*
X161290000Y-86360000D03*
X163068000Y-92710000D03*
X162560000Y-102108000D03*
X163068000Y-106426000D03*
X163068000Y-108458000D03*
X159258000Y-94996000D03*
X159004000Y-85598000D03*
X166370000Y-104140000D03*
X159766000Y-111252000D03*
D22*
X163322000Y-104140000D02*
X164592000Y-104140000D01*
X160528000Y-85598000D02*
X160528000Y-94742000D01*
X161036000Y-101854000D02*
X161290000Y-101854000D01*
X161290000Y-101854000D02*
X161290000Y-102108000D01*
X161290000Y-102108000D02*
X163322000Y-104140000D01*
X160518000Y-85588000D02*
X160528000Y-85598000D01*
X164592000Y-104140000D02*
X164592000Y-105236000D01*
X164592000Y-105236000D02*
X164846000Y-105490000D01*
X161778000Y-84328000D02*
X160518000Y-85588000D01*
X160518000Y-85588000D02*
X159644400Y-86461600D01*
X159644400Y-86461600D02*
X159258000Y-86461600D01*
X166370000Y-81360000D02*
X166276000Y-81454000D01*
X166276000Y-81454000D02*
X164084000Y-81454000D01*
X161778000Y-84328000D02*
X162306000Y-83800000D01*
X162306000Y-83800000D02*
X162306000Y-83232000D01*
X162306000Y-83232000D02*
X164084000Y-81454000D01*
X164338000Y-112094000D02*
X163496000Y-111252000D01*
X161290000Y-108966000D02*
X161290000Y-108104000D01*
X163242000Y-110918000D02*
X161290000Y-108966000D01*
X163496000Y-110918000D02*
X163242000Y-110918000D01*
X163496000Y-111252000D02*
X163496000Y-110918000D01*
X161290000Y-108104000D02*
X161358000Y-108036000D01*
X161358000Y-108036000D02*
X161952000Y-107442000D01*
X164592000Y-107442000D02*
X164592000Y-105744000D01*
X161952000Y-107442000D02*
X164592000Y-107442000D01*
X164592000Y-105744000D02*
X164846000Y-105490000D01*
X166370000Y-78660000D02*
X165100000Y-79930000D01*
X161290000Y-79756000D02*
X161290000Y-78566000D01*
X165100000Y-79930000D02*
X165100000Y-80010000D01*
X161290000Y-78566000D02*
X161210000Y-78486000D01*
X164100000Y-97790000D02*
X161594800Y-97586800D01*
X161594800Y-97586800D02*
X161578300Y-97603300D01*
X163910000Y-78486000D02*
X163830000Y-78566000D01*
X163830000Y-78566000D02*
X163830000Y-79756000D01*
X163830000Y-79756000D02*
X162560000Y-79756000D01*
X162560000Y-79756000D02*
X162560000Y-81534000D01*
X162560000Y-81534000D02*
X162306000Y-81788000D01*
X161544000Y-97536000D02*
X161578300Y-97603300D01*
X161578300Y-97603300D02*
X161518600Y-97637600D01*
X161518600Y-97637600D02*
X159987000Y-97282000D01*
X159987000Y-97282000D02*
X159918400Y-97282000D01*
X159258000Y-88138000D02*
X159258000Y-87274400D01*
X165796000Y-105490000D02*
X165862000Y-105556000D01*
X165862000Y-105556000D02*
X165862000Y-106934000D01*
X159258000Y-88138000D02*
X159258000Y-89001600D01*
X159258000Y-89814400D02*
X159766000Y-90322400D01*
X161798000Y-90170000D02*
X161798000Y-88820000D01*
X159766000Y-90322400D02*
X159766000Y-90932000D01*
X166100000Y-98740000D02*
X165470800Y-98740000D01*
X161798000Y-93548200D02*
X161798000Y-91520000D01*
X163830000Y-93548200D02*
X161798000Y-93548200D01*
X164058600Y-93319600D02*
X163830000Y-93548200D01*
X165470800Y-98740000D02*
X164236400Y-99974400D01*
X166370000Y-83740000D02*
X165956000Y-84154000D01*
X165956000Y-84154000D02*
X164084000Y-84154000D01*
X166370000Y-86440000D02*
X161370000Y-86440000D01*
X161370000Y-86440000D02*
X161290000Y-86360000D01*
X166370000Y-88820000D02*
X164084000Y-88820000D01*
X163896000Y-102790000D02*
X163214000Y-102108000D01*
X163068000Y-92536000D02*
X164084000Y-91520000D01*
X163068000Y-92710000D02*
X163068000Y-92536000D01*
X163214000Y-102108000D02*
X162560000Y-102108000D01*
X163068000Y-106426000D02*
X160608000Y-103966000D01*
X160608000Y-103966000D02*
X159512000Y-103966000D01*
X164338000Y-109394000D02*
X163402000Y-108458000D01*
X163068000Y-106318000D02*
X163896000Y-105490000D01*
X163068000Y-106426000D02*
X163068000Y-106318000D01*
X163402000Y-108458000D02*
X163068000Y-108458000D01*
X165310000Y-114814000D02*
X167132000Y-112992000D01*
X166130000Y-103124000D02*
X165796000Y-102790000D01*
X167132000Y-103124000D02*
X166130000Y-103124000D01*
X167132000Y-112992000D02*
X167132000Y-103124000D01*
X166100000Y-96840000D02*
X166395400Y-94259400D01*
X166395400Y-94259400D02*
X166370000Y-92710000D01*
X159278000Y-84328000D02*
X159004000Y-84602000D01*
X159004000Y-84602000D02*
X159004000Y-85598000D01*
X159258000Y-94996000D02*
X159258000Y-95504000D01*
X159105600Y-97282000D02*
X159258000Y-97129600D01*
X159258000Y-97129600D02*
X159258000Y-95504000D01*
X163576000Y-95504000D02*
X163576000Y-94201000D01*
X159258000Y-95504000D02*
X163576000Y-95504000D01*
X163576000Y-94201000D02*
X163525200Y-94157800D01*
X159512000Y-101266000D02*
X159105600Y-100859600D01*
X159105600Y-100859600D02*
X159105600Y-97282000D01*
X163525200Y-94157800D02*
X166395400Y-94132400D01*
X166395400Y-94132400D02*
X166370000Y-93693000D01*
X166370000Y-93693000D02*
X166370000Y-92710000D01*
X166370000Y-92710000D02*
X166370000Y-91520000D01*
X159512000Y-101266000D02*
X159686000Y-101092000D01*
X159686000Y-101092000D02*
X164846000Y-101092000D01*
X164846000Y-101092000D02*
X164846000Y-102790000D01*
X165100000Y-104140000D02*
X164846000Y-102790000D01*
X166370000Y-104140000D02*
X165100000Y-104140000D01*
X161042000Y-111252000D02*
X161358000Y-110936000D01*
X159766000Y-111252000D02*
X161042000Y-111252000D01*
D23*
G36*
X159461569Y-105384110D02*
X159410560Y-105636000D01*
X159410560Y-106836000D01*
X159454838Y-107071317D01*
X159593910Y-107287441D01*
X159806110Y-107432431D01*
X160058000Y-107483440D01*
X160162027Y-107483440D01*
X160161569Y-107484110D01*
X160110560Y-107736000D01*
X160110560Y-108336000D01*
X160154838Y-108571317D01*
X160293910Y-108787441D01*
X160506110Y-108932431D01*
X160530000Y-108937269D01*
X160530000Y-108966000D01*
X160587852Y-109256839D01*
X160752599Y-109503401D01*
X161237758Y-109988560D01*
X160758000Y-109988560D01*
X160522683Y-110032838D01*
X160306559Y-110171910D01*
X160161569Y-110384110D01*
X160157881Y-110402320D01*
X159952799Y-110317162D01*
X159580833Y-110316838D01*
X159237057Y-110458883D01*
X158973808Y-110721673D01*
X158831162Y-111065201D01*
X158830838Y-111437167D01*
X158972883Y-111780943D01*
X159235673Y-112044192D01*
X159579201Y-112186838D01*
X159951167Y-112187162D01*
X160113808Y-112119960D01*
X160110560Y-112136000D01*
X160110560Y-112736000D01*
X160139266Y-112888560D01*
X160058000Y-112888560D01*
X159822683Y-112932838D01*
X159606559Y-113071910D01*
X159461569Y-113284110D01*
X159410560Y-113536000D01*
X159410560Y-114736000D01*
X159454838Y-114971317D01*
X159514172Y-115063525D01*
X159404717Y-115066985D01*
X158861251Y-115292095D01*
X158747417Y-115571812D01*
X159810000Y-116634395D01*
X160872583Y-115571812D01*
X160786113Y-115359334D01*
X160893317Y-115339162D01*
X161109441Y-115200090D01*
X161254431Y-114987890D01*
X161305440Y-114736000D01*
X161305440Y-113536000D01*
X161276734Y-113383440D01*
X161958000Y-113383440D01*
X162193317Y-113339162D01*
X162409441Y-113200090D01*
X162554431Y-112987890D01*
X162605440Y-112736000D01*
X162605440Y-112136000D01*
X162561162Y-111900683D01*
X162422090Y-111684559D01*
X162420701Y-111683610D01*
X162554431Y-111487890D01*
X162585191Y-111335993D01*
X162704599Y-111455401D01*
X162787474Y-111510776D01*
X162793852Y-111542839D01*
X162958599Y-111789401D01*
X163040560Y-111871362D01*
X163040560Y-112844000D01*
X163084838Y-113079317D01*
X163223910Y-113295441D01*
X163436110Y-113440431D01*
X163688000Y-113491440D01*
X164145165Y-113491440D01*
X163819704Y-113816334D01*
X163551356Y-114462588D01*
X163550745Y-115162342D01*
X163817965Y-115809064D01*
X164312334Y-116304296D01*
X164958588Y-116572644D01*
X165658342Y-116573255D01*
X166305064Y-116306035D01*
X166800296Y-115811666D01*
X166930000Y-115499304D01*
X166930000Y-119940000D01*
X158444000Y-119940000D01*
X158444000Y-118056188D01*
X158747417Y-118056188D01*
X158861251Y-118335905D01*
X159515879Y-118583127D01*
X160215283Y-118561015D01*
X160758749Y-118335905D01*
X160872583Y-118056188D01*
X159810000Y-116993605D01*
X158747417Y-118056188D01*
X158444000Y-118056188D01*
X158444000Y-117826196D01*
X158567812Y-117876583D01*
X159630395Y-116814000D01*
X159989605Y-116814000D01*
X161052188Y-117876583D01*
X161331905Y-117762749D01*
X161579127Y-117108121D01*
X161557015Y-116408717D01*
X161331905Y-115865251D01*
X161052188Y-115751417D01*
X159989605Y-116814000D01*
X159630395Y-116814000D01*
X158567812Y-115751417D01*
X158444000Y-115801804D01*
X158444000Y-115383440D01*
X158458000Y-115383440D01*
X158693317Y-115339162D01*
X158909441Y-115200090D01*
X159054431Y-114987890D01*
X159105440Y-114736000D01*
X159105440Y-113536000D01*
X159061162Y-113300683D01*
X158922090Y-113084559D01*
X158709890Y-112939569D01*
X158458000Y-112888560D01*
X158444000Y-112888560D01*
X158444000Y-107483440D01*
X158458000Y-107483440D01*
X158693317Y-107439162D01*
X158909441Y-107300090D01*
X159054431Y-107087890D01*
X159105440Y-106836000D01*
X159105440Y-105636000D01*
X159061162Y-105400683D01*
X159037197Y-105363440D01*
X159475692Y-105363440D01*
X159461569Y-105384110D01*
X159461569Y-105384110D01*
G37*
X159461569Y-105384110D02*
X159410560Y-105636000D01*
X159410560Y-106836000D01*
X159454838Y-107071317D01*
X159593910Y-107287441D01*
X159806110Y-107432431D01*
X160058000Y-107483440D01*
X160162027Y-107483440D01*
X160161569Y-107484110D01*
X160110560Y-107736000D01*
X160110560Y-108336000D01*
X160154838Y-108571317D01*
X160293910Y-108787441D01*
X160506110Y-108932431D01*
X160530000Y-108937269D01*
X160530000Y-108966000D01*
X160587852Y-109256839D01*
X160752599Y-109503401D01*
X161237758Y-109988560D01*
X160758000Y-109988560D01*
X160522683Y-110032838D01*
X160306559Y-110171910D01*
X160161569Y-110384110D01*
X160157881Y-110402320D01*
X159952799Y-110317162D01*
X159580833Y-110316838D01*
X159237057Y-110458883D01*
X158973808Y-110721673D01*
X158831162Y-111065201D01*
X158830838Y-111437167D01*
X158972883Y-111780943D01*
X159235673Y-112044192D01*
X159579201Y-112186838D01*
X159951167Y-112187162D01*
X160113808Y-112119960D01*
X160110560Y-112136000D01*
X160110560Y-112736000D01*
X160139266Y-112888560D01*
X160058000Y-112888560D01*
X159822683Y-112932838D01*
X159606559Y-113071910D01*
X159461569Y-113284110D01*
X159410560Y-113536000D01*
X159410560Y-114736000D01*
X159454838Y-114971317D01*
X159514172Y-115063525D01*
X159404717Y-115066985D01*
X158861251Y-115292095D01*
X158747417Y-115571812D01*
X159810000Y-116634395D01*
X160872583Y-115571812D01*
X160786113Y-115359334D01*
X160893317Y-115339162D01*
X161109441Y-115200090D01*
X161254431Y-114987890D01*
X161305440Y-114736000D01*
X161305440Y-113536000D01*
X161276734Y-113383440D01*
X161958000Y-113383440D01*
X162193317Y-113339162D01*
X162409441Y-113200090D01*
X162554431Y-112987890D01*
X162605440Y-112736000D01*
X162605440Y-112136000D01*
X162561162Y-111900683D01*
X162422090Y-111684559D01*
X162420701Y-111683610D01*
X162554431Y-111487890D01*
X162585191Y-111335993D01*
X162704599Y-111455401D01*
X162787474Y-111510776D01*
X162793852Y-111542839D01*
X162958599Y-111789401D01*
X163040560Y-111871362D01*
X163040560Y-112844000D01*
X163084838Y-113079317D01*
X163223910Y-113295441D01*
X163436110Y-113440431D01*
X163688000Y-113491440D01*
X164145165Y-113491440D01*
X163819704Y-113816334D01*
X163551356Y-114462588D01*
X163550745Y-115162342D01*
X163817965Y-115809064D01*
X164312334Y-116304296D01*
X164958588Y-116572644D01*
X165658342Y-116573255D01*
X166305064Y-116306035D01*
X166800296Y-115811666D01*
X166930000Y-115499304D01*
X166930000Y-119940000D01*
X158444000Y-119940000D01*
X158444000Y-118056188D01*
X158747417Y-118056188D01*
X158861251Y-118335905D01*
X159515879Y-118583127D01*
X160215283Y-118561015D01*
X160758749Y-118335905D01*
X160872583Y-118056188D01*
X159810000Y-116993605D01*
X158747417Y-118056188D01*
X158444000Y-118056188D01*
X158444000Y-117826196D01*
X158567812Y-117876583D01*
X159630395Y-116814000D01*
X159989605Y-116814000D01*
X161052188Y-117876583D01*
X161331905Y-117762749D01*
X161579127Y-117108121D01*
X161557015Y-116408717D01*
X161331905Y-115865251D01*
X161052188Y-115751417D01*
X159989605Y-116814000D01*
X159630395Y-116814000D01*
X158567812Y-115751417D01*
X158444000Y-115801804D01*
X158444000Y-115383440D01*
X158458000Y-115383440D01*
X158693317Y-115339162D01*
X158909441Y-115200090D01*
X159054431Y-114987890D01*
X159105440Y-114736000D01*
X159105440Y-113536000D01*
X159061162Y-113300683D01*
X158922090Y-113084559D01*
X158709890Y-112939569D01*
X158458000Y-112888560D01*
X158444000Y-112888560D01*
X158444000Y-107483440D01*
X158458000Y-107483440D01*
X158693317Y-107439162D01*
X158909441Y-107300090D01*
X159054431Y-107087890D01*
X159105440Y-106836000D01*
X159105440Y-105636000D01*
X159061162Y-105400683D01*
X159037197Y-105363440D01*
X159475692Y-105363440D01*
X159461569Y-105384110D01*
G36*
X158997738Y-98152317D02*
X159136810Y-98368441D01*
X159349010Y-98513431D01*
X159353739Y-98514389D01*
X159391350Y-98552000D01*
X159539469Y-98552000D01*
X159600900Y-98564440D01*
X160235900Y-98564440D01*
X160471217Y-98520162D01*
X160687341Y-98381090D01*
X160779498Y-98246214D01*
X160977799Y-98292255D01*
X161013673Y-98328192D01*
X161357201Y-98470838D01*
X161729167Y-98471162D01*
X161953661Y-98378403D01*
X163075186Y-98469372D01*
X163185910Y-98641441D01*
X163398110Y-98786431D01*
X163650000Y-98837440D01*
X164298558Y-98837440D01*
X164096720Y-99039278D01*
X164051233Y-99039238D01*
X163707457Y-99181283D01*
X163444208Y-99444073D01*
X163301562Y-99787601D01*
X163301238Y-100159567D01*
X163443283Y-100503343D01*
X163706073Y-100766592D01*
X164049601Y-100909238D01*
X164421567Y-100909562D01*
X164765343Y-100767517D01*
X165028592Y-100504727D01*
X165171238Y-100161199D01*
X165171279Y-100114323D01*
X165523732Y-99761870D01*
X165650000Y-99787440D01*
X166550000Y-99787440D01*
X166785317Y-99743162D01*
X166930000Y-99650061D01*
X166930000Y-102364000D01*
X166768440Y-102364000D01*
X166768440Y-102010000D01*
X166724162Y-101774683D01*
X166585090Y-101558559D01*
X166372890Y-101413569D01*
X166121000Y-101362560D01*
X165471000Y-101362560D01*
X165330914Y-101388919D01*
X165297310Y-101375000D01*
X165131750Y-101375000D01*
X164973000Y-101533750D01*
X164973000Y-101614051D01*
X164874569Y-101758110D01*
X164846824Y-101895120D01*
X164824162Y-101774683D01*
X164719000Y-101611257D01*
X164719000Y-101533750D01*
X164560250Y-101375000D01*
X164394690Y-101375000D01*
X164357829Y-101390268D01*
X164221000Y-101362560D01*
X163571000Y-101362560D01*
X163425157Y-101390002D01*
X163214000Y-101348000D01*
X163122463Y-101348000D01*
X163090327Y-101315808D01*
X162746799Y-101173162D01*
X162374833Y-101172838D01*
X162031057Y-101314883D01*
X161908201Y-101437525D01*
X161827401Y-101316599D01*
X161807198Y-101303100D01*
X161566327Y-101061808D01*
X161222799Y-100919162D01*
X160850833Y-100918838D01*
X160797000Y-100941081D01*
X160797000Y-100389691D01*
X160700327Y-100156302D01*
X160521699Y-99977673D01*
X160288310Y-99881000D01*
X159797750Y-99881000D01*
X159639000Y-100039750D01*
X159639000Y-101139000D01*
X159659000Y-101139000D01*
X159659000Y-101393000D01*
X159639000Y-101393000D01*
X159639000Y-101413000D01*
X159385000Y-101413000D01*
X159385000Y-101393000D01*
X159365000Y-101393000D01*
X159365000Y-101139000D01*
X159385000Y-101139000D01*
X159385000Y-100039750D01*
X159226250Y-99881000D01*
X158735690Y-99881000D01*
X158502301Y-99977673D01*
X158444000Y-100035974D01*
X158444000Y-98461788D01*
X158661791Y-98552000D01*
X158819850Y-98552000D01*
X158978600Y-98393250D01*
X158978600Y-98050607D01*
X158997738Y-98152317D01*
X158997738Y-98152317D01*
G37*
X158997738Y-98152317D02*
X159136810Y-98368441D01*
X159349010Y-98513431D01*
X159353739Y-98514389D01*
X159391350Y-98552000D01*
X159539469Y-98552000D01*
X159600900Y-98564440D01*
X160235900Y-98564440D01*
X160471217Y-98520162D01*
X160687341Y-98381090D01*
X160779498Y-98246214D01*
X160977799Y-98292255D01*
X161013673Y-98328192D01*
X161357201Y-98470838D01*
X161729167Y-98471162D01*
X161953661Y-98378403D01*
X163075186Y-98469372D01*
X163185910Y-98641441D01*
X163398110Y-98786431D01*
X163650000Y-98837440D01*
X164298558Y-98837440D01*
X164096720Y-99039278D01*
X164051233Y-99039238D01*
X163707457Y-99181283D01*
X163444208Y-99444073D01*
X163301562Y-99787601D01*
X163301238Y-100159567D01*
X163443283Y-100503343D01*
X163706073Y-100766592D01*
X164049601Y-100909238D01*
X164421567Y-100909562D01*
X164765343Y-100767517D01*
X165028592Y-100504727D01*
X165171238Y-100161199D01*
X165171279Y-100114323D01*
X165523732Y-99761870D01*
X165650000Y-99787440D01*
X166550000Y-99787440D01*
X166785317Y-99743162D01*
X166930000Y-99650061D01*
X166930000Y-102364000D01*
X166768440Y-102364000D01*
X166768440Y-102010000D01*
X166724162Y-101774683D01*
X166585090Y-101558559D01*
X166372890Y-101413569D01*
X166121000Y-101362560D01*
X165471000Y-101362560D01*
X165330914Y-101388919D01*
X165297310Y-101375000D01*
X165131750Y-101375000D01*
X164973000Y-101533750D01*
X164973000Y-101614051D01*
X164874569Y-101758110D01*
X164846824Y-101895120D01*
X164824162Y-101774683D01*
X164719000Y-101611257D01*
X164719000Y-101533750D01*
X164560250Y-101375000D01*
X164394690Y-101375000D01*
X164357829Y-101390268D01*
X164221000Y-101362560D01*
X163571000Y-101362560D01*
X163425157Y-101390002D01*
X163214000Y-101348000D01*
X163122463Y-101348000D01*
X163090327Y-101315808D01*
X162746799Y-101173162D01*
X162374833Y-101172838D01*
X162031057Y-101314883D01*
X161908201Y-101437525D01*
X161827401Y-101316599D01*
X161807198Y-101303100D01*
X161566327Y-101061808D01*
X161222799Y-100919162D01*
X160850833Y-100918838D01*
X160797000Y-100941081D01*
X160797000Y-100389691D01*
X160700327Y-100156302D01*
X160521699Y-99977673D01*
X160288310Y-99881000D01*
X159797750Y-99881000D01*
X159639000Y-100039750D01*
X159639000Y-101139000D01*
X159659000Y-101139000D01*
X159659000Y-101393000D01*
X159639000Y-101393000D01*
X159639000Y-101413000D01*
X159385000Y-101413000D01*
X159385000Y-101393000D01*
X159365000Y-101393000D01*
X159365000Y-101139000D01*
X159385000Y-101139000D01*
X159385000Y-100039750D01*
X159226250Y-99881000D01*
X158735690Y-99881000D01*
X158502301Y-99977673D01*
X158444000Y-100035974D01*
X158444000Y-98461788D01*
X158661791Y-98552000D01*
X158819850Y-98552000D01*
X158978600Y-98393250D01*
X158978600Y-98050607D01*
X158997738Y-98152317D01*
G36*
X158623000Y-90779340D02*
X158831132Y-90779340D01*
X158830838Y-91117167D01*
X158972883Y-91460943D01*
X159235673Y-91724192D01*
X159579201Y-91866838D01*
X159768000Y-91867002D01*
X159768000Y-94179537D01*
X159735808Y-94211673D01*
X159593162Y-94555201D01*
X159592838Y-94927167D01*
X159734883Y-95270943D01*
X159997673Y-95534192D01*
X160341201Y-95676838D01*
X160713167Y-95677162D01*
X161056943Y-95535117D01*
X161320192Y-95272327D01*
X161462838Y-94928799D01*
X161463162Y-94556833D01*
X161321117Y-94213057D01*
X161288000Y-94179882D01*
X161288000Y-94103910D01*
X161507161Y-94250348D01*
X161798000Y-94308200D01*
X163830000Y-94308200D01*
X164099281Y-94254636D01*
X164243767Y-94254762D01*
X164587543Y-94112717D01*
X164850792Y-93849927D01*
X164993438Y-93506399D01*
X164993762Y-93134433D01*
X164891832Y-92887742D01*
X164969317Y-92873162D01*
X165185441Y-92734090D01*
X165226286Y-92674311D01*
X165360301Y-92808327D01*
X165593690Y-92905000D01*
X166084250Y-92905000D01*
X166243000Y-92746250D01*
X166243000Y-91647000D01*
X166223000Y-91647000D01*
X166223000Y-91393000D01*
X166243000Y-91393000D01*
X166243000Y-91373000D01*
X166497000Y-91373000D01*
X166497000Y-91393000D01*
X166517000Y-91393000D01*
X166517000Y-91647000D01*
X166497000Y-91647000D01*
X166497000Y-92746250D01*
X166655750Y-92905000D01*
X166930000Y-92905000D01*
X166930000Y-95921975D01*
X166909698Y-95901673D01*
X166676309Y-95805000D01*
X166385750Y-95805000D01*
X166227000Y-95963750D01*
X166227000Y-96713000D01*
X166247000Y-96713000D01*
X166247000Y-96967000D01*
X166227000Y-96967000D01*
X166227000Y-96987000D01*
X165973000Y-96987000D01*
X165973000Y-96967000D01*
X165173750Y-96967000D01*
X165087738Y-97053012D01*
X165014090Y-96938559D01*
X164801890Y-96793569D01*
X164550000Y-96742560D01*
X163650000Y-96742560D01*
X163414683Y-96786838D01*
X163198559Y-96925910D01*
X163180123Y-96952892D01*
X162204011Y-96873718D01*
X162074327Y-96743808D01*
X161730799Y-96601162D01*
X161358833Y-96600838D01*
X161018790Y-96741341D01*
X160883340Y-96709892D01*
X160883340Y-96647000D01*
X160839062Y-96411683D01*
X160776006Y-96313690D01*
X165015000Y-96313690D01*
X165015000Y-96554250D01*
X165173750Y-96713000D01*
X165973000Y-96713000D01*
X165973000Y-95963750D01*
X165814250Y-95805000D01*
X165523691Y-95805000D01*
X165290302Y-95901673D01*
X165111673Y-96080301D01*
X165015000Y-96313690D01*
X160776006Y-96313690D01*
X160699990Y-96195559D01*
X160487790Y-96050569D01*
X160235900Y-95999560D01*
X159600900Y-95999560D01*
X159534787Y-96012000D01*
X159391350Y-96012000D01*
X159348554Y-96054796D01*
X159149459Y-96182910D01*
X159004469Y-96395110D01*
X158978600Y-96522855D01*
X158978600Y-96170750D01*
X158819850Y-96012000D01*
X158661791Y-96012000D01*
X158444000Y-96102212D01*
X158444000Y-90743092D01*
X158623000Y-90779340D01*
X158623000Y-90779340D01*
G37*
X158623000Y-90779340D02*
X158831132Y-90779340D01*
X158830838Y-91117167D01*
X158972883Y-91460943D01*
X159235673Y-91724192D01*
X159579201Y-91866838D01*
X159768000Y-91867002D01*
X159768000Y-94179537D01*
X159735808Y-94211673D01*
X159593162Y-94555201D01*
X159592838Y-94927167D01*
X159734883Y-95270943D01*
X159997673Y-95534192D01*
X160341201Y-95676838D01*
X160713167Y-95677162D01*
X161056943Y-95535117D01*
X161320192Y-95272327D01*
X161462838Y-94928799D01*
X161463162Y-94556833D01*
X161321117Y-94213057D01*
X161288000Y-94179882D01*
X161288000Y-94103910D01*
X161507161Y-94250348D01*
X161798000Y-94308200D01*
X163830000Y-94308200D01*
X164099281Y-94254636D01*
X164243767Y-94254762D01*
X164587543Y-94112717D01*
X164850792Y-93849927D01*
X164993438Y-93506399D01*
X164993762Y-93134433D01*
X164891832Y-92887742D01*
X164969317Y-92873162D01*
X165185441Y-92734090D01*
X165226286Y-92674311D01*
X165360301Y-92808327D01*
X165593690Y-92905000D01*
X166084250Y-92905000D01*
X166243000Y-92746250D01*
X166243000Y-91647000D01*
X166223000Y-91647000D01*
X166223000Y-91393000D01*
X166243000Y-91393000D01*
X166243000Y-91373000D01*
X166497000Y-91373000D01*
X166497000Y-91393000D01*
X166517000Y-91393000D01*
X166517000Y-91647000D01*
X166497000Y-91647000D01*
X166497000Y-92746250D01*
X166655750Y-92905000D01*
X166930000Y-92905000D01*
X166930000Y-95921975D01*
X166909698Y-95901673D01*
X166676309Y-95805000D01*
X166385750Y-95805000D01*
X166227000Y-95963750D01*
X166227000Y-96713000D01*
X166247000Y-96713000D01*
X166247000Y-96967000D01*
X166227000Y-96967000D01*
X166227000Y-96987000D01*
X165973000Y-96987000D01*
X165973000Y-96967000D01*
X165173750Y-96967000D01*
X165087738Y-97053012D01*
X165014090Y-96938559D01*
X164801890Y-96793569D01*
X164550000Y-96742560D01*
X163650000Y-96742560D01*
X163414683Y-96786838D01*
X163198559Y-96925910D01*
X163180123Y-96952892D01*
X162204011Y-96873718D01*
X162074327Y-96743808D01*
X161730799Y-96601162D01*
X161358833Y-96600838D01*
X161018790Y-96741341D01*
X160883340Y-96709892D01*
X160883340Y-96647000D01*
X160839062Y-96411683D01*
X160776006Y-96313690D01*
X165015000Y-96313690D01*
X165015000Y-96554250D01*
X165173750Y-96713000D01*
X165973000Y-96713000D01*
X165973000Y-95963750D01*
X165814250Y-95805000D01*
X165523691Y-95805000D01*
X165290302Y-95901673D01*
X165111673Y-96080301D01*
X165015000Y-96313690D01*
X160776006Y-96313690D01*
X160699990Y-96195559D01*
X160487790Y-96050569D01*
X160235900Y-95999560D01*
X159600900Y-95999560D01*
X159534787Y-96012000D01*
X159391350Y-96012000D01*
X159348554Y-96054796D01*
X159149459Y-96182910D01*
X159004469Y-96395110D01*
X158978600Y-96522855D01*
X158978600Y-96170750D01*
X158819850Y-96012000D01*
X158661791Y-96012000D01*
X158444000Y-96102212D01*
X158444000Y-90743092D01*
X158623000Y-90779340D01*
G36*
X159405000Y-84201000D02*
X159425000Y-84201000D01*
X159425000Y-84455000D01*
X159405000Y-84455000D01*
X159405000Y-84475000D01*
X159151000Y-84475000D01*
X159151000Y-84455000D01*
X159131000Y-84455000D01*
X159131000Y-84201000D01*
X159151000Y-84201000D01*
X159151000Y-84181000D01*
X159405000Y-84181000D01*
X159405000Y-84201000D01*
X159405000Y-84201000D01*
G37*
X159405000Y-84201000D02*
X159425000Y-84201000D01*
X159425000Y-84455000D01*
X159405000Y-84455000D01*
X159405000Y-84475000D01*
X159151000Y-84475000D01*
X159151000Y-84455000D01*
X159131000Y-84455000D01*
X159131000Y-84201000D01*
X159151000Y-84201000D01*
X159151000Y-84181000D01*
X159405000Y-84181000D01*
X159405000Y-84201000D01*
M02*
