M48
;DRILL file {KiCad (5.0.1)-rc2} date 11/23/2018 6:31:20 PM
;FORMAT={-:-/ absolute / metric / decimal}
FMAT,2
METRIC,TZ
T1C0.400
T2C0.800
T3C1.016
T4C1.400
T5C2.200
%
G90
G05
M71
T1
X202.2Y-126.1
X203.1Y-101.3
X203.3Y-99.375
X205.5Y-107.3
X208.Y-118.5
X208.2Y-91.047
X208.6Y-96.3
X208.778Y-144.018
X209.3Y-108.752
X210.2Y-90.6
X211.5Y-106.6
X212.8Y-106.8
X213.25Y-120.9
X213.441Y-139.314
X214.2Y-90.3
X215.2Y-122.1
X215.515Y-107.6
X217.113Y-99.113
X217.2Y-128.
X217.7Y-92.8
X218.1Y-118.1
X218.2Y-122.9
X219.5Y-120.
X219.583Y-140.025
X220.401Y-128.1
X220.575Y-90.327
X220.8Y-110.8
X222.199Y-128.1
X223.1Y-106.
X223.7Y-116.5
X226.7Y-124.2
X228.816Y-115.148
X230.241Y-127.676
X238.547Y-118.227
X203.328Y-90.932
X203.811Y-89.765
X203.811Y-92.099
X204.978Y-89.282
X204.978Y-92.582
X206.145Y-89.765
X206.145Y-92.099
X206.628Y-90.932
X224.65Y-110.
X225.133Y-108.833
X225.133Y-111.167
X226.3Y-108.35
X226.3Y-111.65
X227.467Y-108.833
X227.467Y-111.167
X227.95Y-110.
X203.35Y-115.
X203.833Y-113.833
X203.833Y-116.167
X205.Y-113.35
X205.Y-116.65
X206.167Y-113.833
X206.167Y-116.167
X206.65Y-115.
X203.35Y-105.
X203.833Y-103.833
X203.833Y-106.167
X205.Y-103.35
X205.Y-106.65
X206.167Y-103.833
X206.167Y-106.167
X206.65Y-105.
T2
X191.22Y-131.08
X191.22Y-146.32
X193.76Y-131.08
X196.3Y-131.08
X198.84Y-131.08
X198.84Y-146.32
X201.38Y-131.08
X203.92Y-131.08
X206.46Y-131.08
X209.Y-131.08
X211.54Y-131.08
X214.08Y-131.08
X216.62Y-131.08
X219.16Y-131.08
X224.24Y-131.08
X226.78Y-131.08
X226.78Y-146.32
T3
X246.Y-107.66
X246.Y-110.2
X235.102Y-144.902
X237.642Y-144.902
X240.182Y-144.902
X242.722Y-144.902
T4
X235.57Y-91.232
X235.57Y-95.432
X235.57Y-99.632
X235.57Y-103.832
X235.57Y-108.032
X235.57Y-112.232
X235.57Y-116.432
X235.57Y-120.632
X235.57Y-124.832
X235.57Y-129.032
X235.57Y-133.232
X235.57Y-137.432
X241.07Y-91.232
X241.07Y-95.432
X241.07Y-99.632
X241.07Y-103.832
X241.07Y-108.032
X241.07Y-112.232
X241.07Y-116.432
X241.07Y-120.632
X241.07Y-124.832
X241.07Y-129.032
X241.07Y-133.232
X241.07Y-137.432
T5
X204.978Y-90.932
X226.3Y-110.
X205.Y-115.
X205.Y-105.
T0
M30
