G04 #@! TF.GenerationSoftware,KiCad,Pcbnew,(5.0.1)-rc2*
G04 #@! TF.CreationDate,2018-11-23T18:31:16-07:00*
G04 #@! TF.ProjectId,PowerSupply,506F776572537570706C792E6B696361,rev?*
G04 #@! TF.SameCoordinates,Original*
G04 #@! TF.FileFunction,Copper,L1,Top,Signal*
G04 #@! TF.FilePolarity,Positive*
%FSLAX46Y46*%
G04 Gerber Fmt 4.6, Leading zero omitted, Abs format (unit mm)*
G04 Created by KiCad (PCBNEW (5.0.1)-rc2) date 11/23/2018 6:31:16 PM*
%MOMM*%
%LPD*%
G01*
G04 APERTURE LIST*
G04 #@! TA.AperFunction,ComponentPad*
%ADD10C,1.574800*%
G04 #@! TD*
G04 #@! TA.AperFunction,SMDPad,CuDef*
%ADD11R,1.270000X0.610000*%
G04 #@! TD*
G04 #@! TA.AperFunction,SMDPad,CuDef*
%ADD12R,1.020000X0.610000*%
G04 #@! TD*
G04 #@! TA.AperFunction,SMDPad,CuDef*
%ADD13R,3.810000X3.910000*%
G04 #@! TD*
G04 #@! TA.AperFunction,SMDPad,CuDef*
%ADD14R,0.797560X1.198880*%
G04 #@! TD*
G04 #@! TA.AperFunction,ComponentPad*
%ADD15C,1.879600*%
G04 #@! TD*
G04 #@! TA.AperFunction,SMDPad,CuDef*
%ADD16R,0.706120X0.403860*%
G04 #@! TD*
G04 #@! TA.AperFunction,SMDPad,CuDef*
%ADD17R,1.300480X0.403860*%
G04 #@! TD*
G04 #@! TA.AperFunction,SMDPad,CuDef*
%ADD18R,1.724660X2.235200*%
G04 #@! TD*
G04 #@! TA.AperFunction,SMDPad,CuDef*
%ADD19R,1.300000X0.700000*%
G04 #@! TD*
G04 #@! TA.AperFunction,SMDPad,CuDef*
%ADD20R,0.700000X1.300000*%
G04 #@! TD*
G04 #@! TA.AperFunction,SMDPad,CuDef*
%ADD21R,0.400000X1.300000*%
G04 #@! TD*
G04 #@! TA.AperFunction,SMDPad,CuDef*
%ADD22R,0.850000X0.300000*%
G04 #@! TD*
G04 #@! TA.AperFunction,SMDPad,CuDef*
%ADD23R,0.300000X0.850000*%
G04 #@! TD*
G04 #@! TA.AperFunction,SMDPad,CuDef*
%ADD24R,1.000760X0.800100*%
G04 #@! TD*
G04 #@! TA.AperFunction,SMDPad,CuDef*
%ADD25R,1.010000X2.287000*%
G04 #@! TD*
G04 #@! TA.AperFunction,SMDPad,CuDef*
%ADD26R,1.010000X0.762000*%
G04 #@! TD*
G04 #@! TA.AperFunction,BGAPad,CuDef*
%ADD27C,2.500000*%
G04 #@! TD*
G04 #@! TA.AperFunction,Conductor*
%ADD28C,0.100000*%
G04 #@! TD*
G04 #@! TA.AperFunction,SMDPad,CuDef*
%ADD29C,1.250000*%
G04 #@! TD*
G04 #@! TA.AperFunction,ComponentPad*
%ADD30C,4.400000*%
G04 #@! TD*
G04 #@! TA.AperFunction,ComponentPad*
%ADD31C,0.700000*%
G04 #@! TD*
G04 #@! TA.AperFunction,SMDPad,CuDef*
%ADD32R,1.905000X0.248920*%
G04 #@! TD*
G04 #@! TA.AperFunction,ComponentPad*
%ADD33C,2.700000*%
G04 #@! TD*
G04 #@! TA.AperFunction,ComponentPad*
%ADD34O,3.300000X2.700000*%
G04 #@! TD*
G04 #@! TA.AperFunction,ViaPad*
%ADD35C,0.800000*%
G04 #@! TD*
G04 #@! TA.AperFunction,Conductor*
%ADD36C,0.250000*%
G04 #@! TD*
G04 #@! TA.AperFunction,Conductor*
%ADD37C,1.750000*%
G04 #@! TD*
G04 #@! TA.AperFunction,Conductor*
%ADD38C,0.254000*%
G04 #@! TD*
G04 APERTURE END LIST*
D10*
G04 #@! TO.P,A1,9*
G04 #@! TO.N,5V_EN*
X206460000Y-131080000D03*
G04 #@! TO.P,A1,15*
G04 #@! TO.N,SPI_MISO_PINX*
X191220000Y-131080000D03*
G04 #@! TO.P,A1,16*
G04 #@! TO.N,SPI_Clk_PINX*
X191220000Y-146320000D03*
G04 #@! TO.P,A1,14*
G04 #@! TO.N,SPI_MOSI_PINX*
X193760000Y-131080000D03*
G04 #@! TO.P,A1,13*
G04 #@! TO.N,SPI_ADC_CS_PINX*
X196300000Y-131080000D03*
G04 #@! TO.P,A1,12*
G04 #@! TO.N,SPI_3V3_CS_PINX*
X198840000Y-131080000D03*
G04 #@! TO.P,A1,19*
G04 #@! TO.N,POK*
X198840000Y-146320000D03*
G04 #@! TO.P,A1,11*
G04 #@! TO.N,3V3_FINE_EN*
X201380000Y-131080000D03*
G04 #@! TO.P,A1,10*
G04 #@! TO.N,3V3_COURSE_EN*
X203920000Y-131080000D03*
G04 #@! TO.P,A1,8*
G04 #@! TO.N,12V_EN*
X209000000Y-131080000D03*
G04 #@! TO.P,A1,7*
G04 #@! TO.N,CNVST_PINX*
X211540000Y-131080000D03*
G04 #@! TO.P,A1,6*
G04 #@! TO.N,EOC_PINX*
X214080000Y-131080000D03*
G04 #@! TO.P,A1,5*
G04 #@! TO.N,N/C*
X216620000Y-131080000D03*
G04 #@! TO.P,A1,4*
G04 #@! TO.N,GND*
X219160000Y-131080000D03*
G04 #@! TO.P,A1,2*
G04 #@! TO.N,Net-(A1-Pad2)*
X224240000Y-131080000D03*
G04 #@! TO.P,A1,1*
G04 #@! TO.N,Net-(A1-Pad1)*
X226780000Y-131080000D03*
G04 #@! TO.P,A1,30*
G04 #@! TO.N,+3V3*
X226780000Y-146320000D03*
G04 #@! TD*
D11*
G04 #@! TO.P,Q1,1*
G04 #@! TO.N,/12VA_S*
X214670000Y-116905000D03*
G04 #@! TO.P,Q1,2*
X214670000Y-115635000D03*
G04 #@! TO.P,Q1,3*
X214670000Y-114365000D03*
G04 #@! TO.P,Q1,4*
G04 #@! TO.N,Net-(Q1-Pad4)*
X214670000Y-113095000D03*
D12*
G04 #@! TO.P,Q1,5*
G04 #@! TO.N,12V_Out*
X209205000Y-113095000D03*
X209205000Y-114365000D03*
X209205000Y-115635000D03*
X209205000Y-116905000D03*
D13*
X211310000Y-115000000D03*
G04 #@! TD*
D14*
G04 #@! TO.P,C3,2*
G04 #@! TO.N,Net-(C3-Pad2)*
X220401680Y-128100000D03*
G04 #@! TO.P,C3,1*
G04 #@! TO.N,GND*
X222200000Y-128100000D03*
G04 #@! TD*
D15*
G04 #@! TO.P,J1,1*
G04 #@! TO.N,Net-(A1-Pad1)*
X242722400Y-144901920D03*
G04 #@! TO.P,J1,2*
G04 #@! TO.N,Net-(A1-Pad2)*
X240182400Y-144901920D03*
G04 #@! TO.P,J1,3*
G04 #@! TO.N,GND*
X237642400Y-144901920D03*
G04 #@! TO.P,J1,4*
G04 #@! TO.N,+3V3*
X235102400Y-144901920D03*
G04 #@! TD*
G04 #@! TO.P,J3,1*
G04 #@! TO.N,Net-(J2-Pad16)*
X246000000Y-107660000D03*
G04 #@! TO.P,J3,2*
G04 #@! TO.N,Net-(J2-Pad17)*
X246000000Y-110200000D03*
G04 #@! TD*
D16*
G04 #@! TO.P,Q2,3*
G04 #@! TO.N,/3.3VA_D1*
X213464140Y-95966280D03*
X213464140Y-95316040D03*
X213464140Y-94665800D03*
X213464140Y-94015560D03*
D17*
G04 #@! TO.P,Q2,1*
G04 #@! TO.N,Net-(Q2-Pad1)*
X210202780Y-95966280D03*
G04 #@! TO.P,Q2,2*
G04 #@! TO.N,3V3_Out*
X210202780Y-95316040D03*
X210202780Y-94665800D03*
X210202780Y-94015560D03*
D18*
G04 #@! TO.P,Q2,3*
G04 #@! TO.N,/3.3VA_D1*
X212344000Y-94996000D03*
G04 #@! TD*
G04 #@! TO.P,Q3,3*
G04 #@! TO.N,/3.3VA_D2*
X212181660Y-88600000D03*
D17*
G04 #@! TO.P,Q3,2*
G04 #@! TO.N,3V3_Out*
X210040440Y-87619560D03*
X210040440Y-88269800D03*
X210040440Y-88920040D03*
G04 #@! TO.P,Q3,1*
G04 #@! TO.N,Net-(Q3-Pad1)*
X210040440Y-89570280D03*
D16*
G04 #@! TO.P,Q3,3*
G04 #@! TO.N,/3.3VA_D2*
X213301800Y-87619560D03*
X213301800Y-88269800D03*
X213301800Y-88920040D03*
X213301800Y-89570280D03*
G04 #@! TD*
G04 #@! TO.P,Q4,3*
G04 #@! TO.N,/5VA_D*
X214720140Y-105470280D03*
X214720140Y-104820040D03*
X214720140Y-104169800D03*
X214720140Y-103519560D03*
D17*
G04 #@! TO.P,Q4,1*
G04 #@! TO.N,Net-(Q4-Pad1)*
X211458780Y-105470280D03*
G04 #@! TO.P,Q4,2*
G04 #@! TO.N,5V_Out*
X211458780Y-104820040D03*
X211458780Y-104169800D03*
X211458780Y-103519560D03*
D18*
G04 #@! TO.P,Q4,3*
G04 #@! TO.N,/5VA_D*
X213600000Y-104500000D03*
G04 #@! TD*
D19*
G04 #@! TO.P,R7,1*
G04 #@! TO.N,+12V*
X217200000Y-110700000D03*
G04 #@! TO.P,R7,2*
G04 #@! TO.N,Net-(Q1-Pad4)*
X217200000Y-112600000D03*
G04 #@! TD*
D20*
G04 #@! TO.P,R11,2*
G04 #@! TO.N,5V_EN*
X205700000Y-108700000D03*
G04 #@! TO.P,R11,1*
G04 #@! TO.N,Net-(Q6-Pad1)*
X207600000Y-108700000D03*
G04 #@! TD*
G04 #@! TO.P,R12,2*
G04 #@! TO.N,12V_EN*
X205700000Y-110900000D03*
G04 #@! TO.P,R12,1*
G04 #@! TO.N,Net-(Q7-Pad1)*
X207600000Y-110900000D03*
G04 #@! TD*
G04 #@! TO.P,R14,1*
G04 #@! TO.N,POK*
X202600000Y-142800000D03*
G04 #@! TO.P,R14,2*
G04 #@! TO.N,GND*
X204500000Y-142800000D03*
G04 #@! TD*
G04 #@! TO.P,R15,2*
G04 #@! TO.N,Net-(J2-Pad8)*
X204500000Y-146100000D03*
G04 #@! TO.P,R15,1*
G04 #@! TO.N,POK*
X202600000Y-146100000D03*
G04 #@! TD*
D21*
G04 #@! TO.P,U1,1*
G04 #@! TO.N,/3.3V_A*
X217616000Y-88820000D03*
G04 #@! TO.P,U1,3*
G04 #@! TO.N,/3.3VA_D2*
X216616000Y-88820000D03*
D22*
G04 #@! TO.P,U1,5*
G04 #@! TO.N,GND*
X215466000Y-90320000D03*
G04 #@! TO.P,U1,6*
G04 #@! TO.N,N/C*
X215466000Y-90820000D03*
D23*
G04 #@! TO.P,U1,7*
X216166000Y-91520000D03*
G04 #@! TO.P,U1,8*
X216666000Y-91520000D03*
G04 #@! TO.P,U1,9*
X217166000Y-91520000D03*
G04 #@! TO.P,U1,10*
G04 #@! TO.N,Net-(U1-Pad10)*
X217666000Y-91520000D03*
D22*
G04 #@! TO.P,U1,11*
G04 #@! TO.N,N/C*
X218366000Y-90820000D03*
G04 #@! TO.P,U1,12*
G04 #@! TO.N,+3V3*
X218366000Y-90320000D03*
D21*
G04 #@! TO.P,U1,2*
G04 #@! TO.N,/3.3V_A*
X217216000Y-88820000D03*
G04 #@! TO.P,U1,4*
G04 #@! TO.N,/3.3VA_D2*
X216216000Y-88820000D03*
G04 #@! TD*
G04 #@! TO.P,U2,4*
G04 #@! TO.N,/5VA_D*
X219300000Y-104500000D03*
G04 #@! TO.P,U2,2*
G04 #@! TO.N,/5V_A*
X220300000Y-104500000D03*
D22*
G04 #@! TO.P,U2,12*
G04 #@! TO.N,+3V3*
X221450000Y-106000000D03*
G04 #@! TO.P,U2,11*
G04 #@! TO.N,N/C*
X221450000Y-106500000D03*
D23*
G04 #@! TO.P,U2,10*
G04 #@! TO.N,Net-(U2-Pad10)*
X220750000Y-107200000D03*
G04 #@! TO.P,U2,9*
G04 #@! TO.N,N/C*
X220250000Y-107200000D03*
G04 #@! TO.P,U2,8*
X219750000Y-107200000D03*
G04 #@! TO.P,U2,7*
X219250000Y-107200000D03*
D22*
G04 #@! TO.P,U2,6*
X218550000Y-106500000D03*
G04 #@! TO.P,U2,5*
G04 #@! TO.N,GND*
X218550000Y-106000000D03*
D21*
G04 #@! TO.P,U2,3*
G04 #@! TO.N,/5VA_D*
X219700000Y-104500000D03*
G04 #@! TO.P,U2,1*
G04 #@! TO.N,/5V_A*
X220700000Y-104500000D03*
G04 #@! TD*
D24*
G04 #@! TO.P,Q7,3*
G04 #@! TO.N,Net-(Q1-Pad4)*
X214600000Y-110000000D03*
G04 #@! TO.P,Q7,2*
G04 #@! TO.N,GND*
X212400360Y-110952500D03*
G04 #@! TO.P,Q7,1*
G04 #@! TO.N,Net-(Q7-Pad1)*
X212400360Y-109047500D03*
G04 #@! TD*
D25*
G04 #@! TO.P,U6,1*
G04 #@! TO.N,/3.3V_A*
X217416000Y-94995500D03*
G04 #@! TO.P,U6,4*
G04 #@! TO.N,/3.3VA_D1*
X215646000Y-94996000D03*
D26*
G04 #@! TO.P,U6,3*
G04 #@! TO.N,Net-(P1-Pad5)*
X215646000Y-96901500D03*
G04 #@! TO.P,U6,2*
G04 #@! TO.N,Net-(P1-Pad4)*
X217416000Y-96901500D03*
G04 #@! TD*
D27*
G04 #@! TO.P,H1,1*
G04 #@! TO.N,Net-(H1-Pad1)*
X246200000Y-131300000D03*
G04 #@! TD*
G04 #@! TO.P,H2,1*
G04 #@! TO.N,GND*
X245900000Y-121500000D03*
G04 #@! TD*
D21*
G04 #@! TO.P,U3,1*
G04 #@! TO.N,/12V_A*
X221616000Y-114998000D03*
G04 #@! TO.P,U3,3*
G04 #@! TO.N,/12VA_S*
X220616000Y-114998000D03*
D22*
G04 #@! TO.P,U3,5*
G04 #@! TO.N,GND*
X219466000Y-116498000D03*
G04 #@! TO.P,U3,6*
G04 #@! TO.N,N/C*
X219466000Y-116998000D03*
D23*
G04 #@! TO.P,U3,7*
X220166000Y-117698000D03*
G04 #@! TO.P,U3,8*
X220666000Y-117698000D03*
G04 #@! TO.P,U3,9*
X221166000Y-117698000D03*
G04 #@! TO.P,U3,10*
G04 #@! TO.N,Net-(U3-Pad10)*
X221666000Y-117698000D03*
D22*
G04 #@! TO.P,U3,11*
G04 #@! TO.N,N/C*
X222366000Y-116998000D03*
G04 #@! TO.P,U3,12*
G04 #@! TO.N,+3V3*
X222366000Y-116498000D03*
D21*
G04 #@! TO.P,U3,2*
G04 #@! TO.N,/12V_A*
X221216000Y-114998000D03*
G04 #@! TO.P,U3,4*
G04 #@! TO.N,/12VA_S*
X220216000Y-114998000D03*
G04 #@! TD*
D28*
G04 #@! TO.N,+3V3*
G04 #@! TO.C,F1*
G36*
X227148504Y-90626204D02*
X227172773Y-90629804D01*
X227196571Y-90635765D01*
X227219671Y-90644030D01*
X227241849Y-90654520D01*
X227262893Y-90667133D01*
X227282598Y-90681747D01*
X227300777Y-90698223D01*
X227317253Y-90716402D01*
X227331867Y-90736107D01*
X227344480Y-90757151D01*
X227354970Y-90779329D01*
X227363235Y-90802429D01*
X227369196Y-90826227D01*
X227372796Y-90850496D01*
X227374000Y-90875000D01*
X227374000Y-92125000D01*
X227372796Y-92149504D01*
X227369196Y-92173773D01*
X227363235Y-92197571D01*
X227354970Y-92220671D01*
X227344480Y-92242849D01*
X227331867Y-92263893D01*
X227317253Y-92283598D01*
X227300777Y-92301777D01*
X227282598Y-92318253D01*
X227262893Y-92332867D01*
X227241849Y-92345480D01*
X227219671Y-92355970D01*
X227196571Y-92364235D01*
X227172773Y-92370196D01*
X227148504Y-92373796D01*
X227124000Y-92375000D01*
X226374000Y-92375000D01*
X226349496Y-92373796D01*
X226325227Y-92370196D01*
X226301429Y-92364235D01*
X226278329Y-92355970D01*
X226256151Y-92345480D01*
X226235107Y-92332867D01*
X226215402Y-92318253D01*
X226197223Y-92301777D01*
X226180747Y-92283598D01*
X226166133Y-92263893D01*
X226153520Y-92242849D01*
X226143030Y-92220671D01*
X226134765Y-92197571D01*
X226128804Y-92173773D01*
X226125204Y-92149504D01*
X226124000Y-92125000D01*
X226124000Y-90875000D01*
X226125204Y-90850496D01*
X226128804Y-90826227D01*
X226134765Y-90802429D01*
X226143030Y-90779329D01*
X226153520Y-90757151D01*
X226166133Y-90736107D01*
X226180747Y-90716402D01*
X226197223Y-90698223D01*
X226215402Y-90681747D01*
X226235107Y-90667133D01*
X226256151Y-90654520D01*
X226278329Y-90644030D01*
X226301429Y-90635765D01*
X226325227Y-90629804D01*
X226349496Y-90626204D01*
X226374000Y-90625000D01*
X227124000Y-90625000D01*
X227148504Y-90626204D01*
X227148504Y-90626204D01*
G37*
D29*
G04 #@! TD*
G04 #@! TO.P,F1,1*
G04 #@! TO.N,+3V3*
X226749000Y-91500000D03*
D28*
G04 #@! TO.N,/3.3V_A*
G04 #@! TO.C,F1*
G36*
X224348504Y-90626204D02*
X224372773Y-90629804D01*
X224396571Y-90635765D01*
X224419671Y-90644030D01*
X224441849Y-90654520D01*
X224462893Y-90667133D01*
X224482598Y-90681747D01*
X224500777Y-90698223D01*
X224517253Y-90716402D01*
X224531867Y-90736107D01*
X224544480Y-90757151D01*
X224554970Y-90779329D01*
X224563235Y-90802429D01*
X224569196Y-90826227D01*
X224572796Y-90850496D01*
X224574000Y-90875000D01*
X224574000Y-92125000D01*
X224572796Y-92149504D01*
X224569196Y-92173773D01*
X224563235Y-92197571D01*
X224554970Y-92220671D01*
X224544480Y-92242849D01*
X224531867Y-92263893D01*
X224517253Y-92283598D01*
X224500777Y-92301777D01*
X224482598Y-92318253D01*
X224462893Y-92332867D01*
X224441849Y-92345480D01*
X224419671Y-92355970D01*
X224396571Y-92364235D01*
X224372773Y-92370196D01*
X224348504Y-92373796D01*
X224324000Y-92375000D01*
X223574000Y-92375000D01*
X223549496Y-92373796D01*
X223525227Y-92370196D01*
X223501429Y-92364235D01*
X223478329Y-92355970D01*
X223456151Y-92345480D01*
X223435107Y-92332867D01*
X223415402Y-92318253D01*
X223397223Y-92301777D01*
X223380747Y-92283598D01*
X223366133Y-92263893D01*
X223353520Y-92242849D01*
X223343030Y-92220671D01*
X223334765Y-92197571D01*
X223328804Y-92173773D01*
X223325204Y-92149504D01*
X223324000Y-92125000D01*
X223324000Y-90875000D01*
X223325204Y-90850496D01*
X223328804Y-90826227D01*
X223334765Y-90802429D01*
X223343030Y-90779329D01*
X223353520Y-90757151D01*
X223366133Y-90736107D01*
X223380747Y-90716402D01*
X223397223Y-90698223D01*
X223415402Y-90681747D01*
X223435107Y-90667133D01*
X223456151Y-90654520D01*
X223478329Y-90644030D01*
X223501429Y-90635765D01*
X223525227Y-90629804D01*
X223549496Y-90626204D01*
X223574000Y-90625000D01*
X224324000Y-90625000D01*
X224348504Y-90626204D01*
X224348504Y-90626204D01*
G37*
D29*
G04 #@! TD*
G04 #@! TO.P,F1,2*
G04 #@! TO.N,/3.3V_A*
X223949000Y-91500000D03*
D28*
G04 #@! TO.N,/5V_A*
G04 #@! TO.C,F2*
G36*
X226348504Y-103626204D02*
X226372773Y-103629804D01*
X226396571Y-103635765D01*
X226419671Y-103644030D01*
X226441849Y-103654520D01*
X226462893Y-103667133D01*
X226482598Y-103681747D01*
X226500777Y-103698223D01*
X226517253Y-103716402D01*
X226531867Y-103736107D01*
X226544480Y-103757151D01*
X226554970Y-103779329D01*
X226563235Y-103802429D01*
X226569196Y-103826227D01*
X226572796Y-103850496D01*
X226574000Y-103875000D01*
X226574000Y-105125000D01*
X226572796Y-105149504D01*
X226569196Y-105173773D01*
X226563235Y-105197571D01*
X226554970Y-105220671D01*
X226544480Y-105242849D01*
X226531867Y-105263893D01*
X226517253Y-105283598D01*
X226500777Y-105301777D01*
X226482598Y-105318253D01*
X226462893Y-105332867D01*
X226441849Y-105345480D01*
X226419671Y-105355970D01*
X226396571Y-105364235D01*
X226372773Y-105370196D01*
X226348504Y-105373796D01*
X226324000Y-105375000D01*
X225574000Y-105375000D01*
X225549496Y-105373796D01*
X225525227Y-105370196D01*
X225501429Y-105364235D01*
X225478329Y-105355970D01*
X225456151Y-105345480D01*
X225435107Y-105332867D01*
X225415402Y-105318253D01*
X225397223Y-105301777D01*
X225380747Y-105283598D01*
X225366133Y-105263893D01*
X225353520Y-105242849D01*
X225343030Y-105220671D01*
X225334765Y-105197571D01*
X225328804Y-105173773D01*
X225325204Y-105149504D01*
X225324000Y-105125000D01*
X225324000Y-103875000D01*
X225325204Y-103850496D01*
X225328804Y-103826227D01*
X225334765Y-103802429D01*
X225343030Y-103779329D01*
X225353520Y-103757151D01*
X225366133Y-103736107D01*
X225380747Y-103716402D01*
X225397223Y-103698223D01*
X225415402Y-103681747D01*
X225435107Y-103667133D01*
X225456151Y-103654520D01*
X225478329Y-103644030D01*
X225501429Y-103635765D01*
X225525227Y-103629804D01*
X225549496Y-103626204D01*
X225574000Y-103625000D01*
X226324000Y-103625000D01*
X226348504Y-103626204D01*
X226348504Y-103626204D01*
G37*
D29*
G04 #@! TD*
G04 #@! TO.P,F2,2*
G04 #@! TO.N,/5V_A*
X225949000Y-104500000D03*
D28*
G04 #@! TO.N,/5VA*
G04 #@! TO.C,F2*
G36*
X229148504Y-103626204D02*
X229172773Y-103629804D01*
X229196571Y-103635765D01*
X229219671Y-103644030D01*
X229241849Y-103654520D01*
X229262893Y-103667133D01*
X229282598Y-103681747D01*
X229300777Y-103698223D01*
X229317253Y-103716402D01*
X229331867Y-103736107D01*
X229344480Y-103757151D01*
X229354970Y-103779329D01*
X229363235Y-103802429D01*
X229369196Y-103826227D01*
X229372796Y-103850496D01*
X229374000Y-103875000D01*
X229374000Y-105125000D01*
X229372796Y-105149504D01*
X229369196Y-105173773D01*
X229363235Y-105197571D01*
X229354970Y-105220671D01*
X229344480Y-105242849D01*
X229331867Y-105263893D01*
X229317253Y-105283598D01*
X229300777Y-105301777D01*
X229282598Y-105318253D01*
X229262893Y-105332867D01*
X229241849Y-105345480D01*
X229219671Y-105355970D01*
X229196571Y-105364235D01*
X229172773Y-105370196D01*
X229148504Y-105373796D01*
X229124000Y-105375000D01*
X228374000Y-105375000D01*
X228349496Y-105373796D01*
X228325227Y-105370196D01*
X228301429Y-105364235D01*
X228278329Y-105355970D01*
X228256151Y-105345480D01*
X228235107Y-105332867D01*
X228215402Y-105318253D01*
X228197223Y-105301777D01*
X228180747Y-105283598D01*
X228166133Y-105263893D01*
X228153520Y-105242849D01*
X228143030Y-105220671D01*
X228134765Y-105197571D01*
X228128804Y-105173773D01*
X228125204Y-105149504D01*
X228124000Y-105125000D01*
X228124000Y-103875000D01*
X228125204Y-103850496D01*
X228128804Y-103826227D01*
X228134765Y-103802429D01*
X228143030Y-103779329D01*
X228153520Y-103757151D01*
X228166133Y-103736107D01*
X228180747Y-103716402D01*
X228197223Y-103698223D01*
X228215402Y-103681747D01*
X228235107Y-103667133D01*
X228256151Y-103654520D01*
X228278329Y-103644030D01*
X228301429Y-103635765D01*
X228325227Y-103629804D01*
X228349496Y-103626204D01*
X228374000Y-103625000D01*
X229124000Y-103625000D01*
X229148504Y-103626204D01*
X229148504Y-103626204D01*
G37*
D29*
G04 #@! TD*
G04 #@! TO.P,F2,1*
G04 #@! TO.N,/5VA*
X228749000Y-104500000D03*
D28*
G04 #@! TO.N,+12V*
G04 #@! TO.C,F3*
G36*
X229215504Y-114274204D02*
X229239773Y-114277804D01*
X229263571Y-114283765D01*
X229286671Y-114292030D01*
X229308849Y-114302520D01*
X229329893Y-114315133D01*
X229349598Y-114329747D01*
X229367777Y-114346223D01*
X229384253Y-114364402D01*
X229398867Y-114384107D01*
X229411480Y-114405151D01*
X229421970Y-114427329D01*
X229430235Y-114450429D01*
X229436196Y-114474227D01*
X229439796Y-114498496D01*
X229441000Y-114523000D01*
X229441000Y-115773000D01*
X229439796Y-115797504D01*
X229436196Y-115821773D01*
X229430235Y-115845571D01*
X229421970Y-115868671D01*
X229411480Y-115890849D01*
X229398867Y-115911893D01*
X229384253Y-115931598D01*
X229367777Y-115949777D01*
X229349598Y-115966253D01*
X229329893Y-115980867D01*
X229308849Y-115993480D01*
X229286671Y-116003970D01*
X229263571Y-116012235D01*
X229239773Y-116018196D01*
X229215504Y-116021796D01*
X229191000Y-116023000D01*
X228441000Y-116023000D01*
X228416496Y-116021796D01*
X228392227Y-116018196D01*
X228368429Y-116012235D01*
X228345329Y-116003970D01*
X228323151Y-115993480D01*
X228302107Y-115980867D01*
X228282402Y-115966253D01*
X228264223Y-115949777D01*
X228247747Y-115931598D01*
X228233133Y-115911893D01*
X228220520Y-115890849D01*
X228210030Y-115868671D01*
X228201765Y-115845571D01*
X228195804Y-115821773D01*
X228192204Y-115797504D01*
X228191000Y-115773000D01*
X228191000Y-114523000D01*
X228192204Y-114498496D01*
X228195804Y-114474227D01*
X228201765Y-114450429D01*
X228210030Y-114427329D01*
X228220520Y-114405151D01*
X228233133Y-114384107D01*
X228247747Y-114364402D01*
X228264223Y-114346223D01*
X228282402Y-114329747D01*
X228302107Y-114315133D01*
X228323151Y-114302520D01*
X228345329Y-114292030D01*
X228368429Y-114283765D01*
X228392227Y-114277804D01*
X228416496Y-114274204D01*
X228441000Y-114273000D01*
X229191000Y-114273000D01*
X229215504Y-114274204D01*
X229215504Y-114274204D01*
G37*
D29*
G04 #@! TD*
G04 #@! TO.P,F3,1*
G04 #@! TO.N,+12V*
X228816000Y-115148000D03*
D28*
G04 #@! TO.N,/12V_A*
G04 #@! TO.C,F3*
G36*
X226415504Y-114274204D02*
X226439773Y-114277804D01*
X226463571Y-114283765D01*
X226486671Y-114292030D01*
X226508849Y-114302520D01*
X226529893Y-114315133D01*
X226549598Y-114329747D01*
X226567777Y-114346223D01*
X226584253Y-114364402D01*
X226598867Y-114384107D01*
X226611480Y-114405151D01*
X226621970Y-114427329D01*
X226630235Y-114450429D01*
X226636196Y-114474227D01*
X226639796Y-114498496D01*
X226641000Y-114523000D01*
X226641000Y-115773000D01*
X226639796Y-115797504D01*
X226636196Y-115821773D01*
X226630235Y-115845571D01*
X226621970Y-115868671D01*
X226611480Y-115890849D01*
X226598867Y-115911893D01*
X226584253Y-115931598D01*
X226567777Y-115949777D01*
X226549598Y-115966253D01*
X226529893Y-115980867D01*
X226508849Y-115993480D01*
X226486671Y-116003970D01*
X226463571Y-116012235D01*
X226439773Y-116018196D01*
X226415504Y-116021796D01*
X226391000Y-116023000D01*
X225641000Y-116023000D01*
X225616496Y-116021796D01*
X225592227Y-116018196D01*
X225568429Y-116012235D01*
X225545329Y-116003970D01*
X225523151Y-115993480D01*
X225502107Y-115980867D01*
X225482402Y-115966253D01*
X225464223Y-115949777D01*
X225447747Y-115931598D01*
X225433133Y-115911893D01*
X225420520Y-115890849D01*
X225410030Y-115868671D01*
X225401765Y-115845571D01*
X225395804Y-115821773D01*
X225392204Y-115797504D01*
X225391000Y-115773000D01*
X225391000Y-114523000D01*
X225392204Y-114498496D01*
X225395804Y-114474227D01*
X225401765Y-114450429D01*
X225410030Y-114427329D01*
X225420520Y-114405151D01*
X225433133Y-114384107D01*
X225447747Y-114364402D01*
X225464223Y-114346223D01*
X225482402Y-114329747D01*
X225502107Y-114315133D01*
X225523151Y-114302520D01*
X225545329Y-114292030D01*
X225568429Y-114283765D01*
X225592227Y-114277804D01*
X225616496Y-114274204D01*
X225641000Y-114273000D01*
X226391000Y-114273000D01*
X226415504Y-114274204D01*
X226415504Y-114274204D01*
G37*
D29*
G04 #@! TD*
G04 #@! TO.P,F3,2*
G04 #@! TO.N,/12V_A*
X226016000Y-115148000D03*
D30*
G04 #@! TO.P,H4,1*
G04 #@! TO.N,5V_Out*
X205000000Y-105000000D03*
D31*
X206650000Y-105000000D03*
X206166726Y-106166726D03*
X205000000Y-106650000D03*
X203833274Y-106166726D03*
X203350000Y-105000000D03*
X203833274Y-103833274D03*
X205000000Y-103350000D03*
X206166726Y-103833274D03*
G04 #@! TD*
D30*
G04 #@! TO.P,H5,1*
G04 #@! TO.N,12V_Out*
X205000000Y-115000000D03*
D31*
X206650000Y-115000000D03*
X206166726Y-116166726D03*
X205000000Y-116650000D03*
X203833274Y-116166726D03*
X203350000Y-115000000D03*
X203833274Y-113833274D03*
X205000000Y-113350000D03*
X206166726Y-113833274D03*
G04 #@! TD*
G04 #@! TO.P,H6,1*
G04 #@! TO.N,3V3_Out*
X206144726Y-89765274D03*
X204978000Y-89282000D03*
X203811274Y-89765274D03*
X203328000Y-90932000D03*
X203811274Y-92098726D03*
X204978000Y-92582000D03*
X206144726Y-92098726D03*
X206628000Y-90932000D03*
D30*
X204978000Y-90932000D03*
G04 #@! TD*
D32*
G04 #@! TO.P,P1,1*
G04 #@! TO.N,SPI_Clk_PINX*
X214200000Y-100101140D03*
G04 #@! TO.P,P1,2*
G04 #@! TO.N,SPI_MOSI_PINX*
X214200000Y-99600760D03*
G04 #@! TO.P,P1,3*
G04 #@! TO.N,GND*
X214200000Y-99100380D03*
G04 #@! TO.P,P1,4*
G04 #@! TO.N,Net-(P1-Pad4)*
X214200000Y-98600000D03*
G04 #@! TO.P,P1,5*
G04 #@! TO.N,Net-(P1-Pad5)*
X214200000Y-98099620D03*
G04 #@! TO.P,P1,8*
G04 #@! TO.N,3V3_Fine_Out*
X209998840Y-99100380D03*
G04 #@! TO.P,P1,9*
G04 #@! TO.N,+3V3*
X209998840Y-99600760D03*
G04 #@! TO.P,P1,10*
G04 #@! TO.N,SPI_3V3_CS_PINX*
X209998840Y-100101140D03*
G04 #@! TD*
D30*
G04 #@! TO.P,H7,1*
G04 #@! TO.N,GND*
X226300000Y-110000000D03*
D31*
X227950000Y-110000000D03*
X227466726Y-111166726D03*
X226300000Y-111650000D03*
X225133274Y-111166726D03*
X224650000Y-110000000D03*
X225133274Y-108833274D03*
X226300000Y-108350000D03*
X227466726Y-108833274D03*
G04 #@! TD*
D28*
G04 #@! TO.N,+3V3*
G04 #@! TO.C,J2*
G36*
X236994263Y-89882924D02*
X237018532Y-89886524D01*
X237042330Y-89892485D01*
X237065430Y-89900750D01*
X237087609Y-89911240D01*
X237108652Y-89923853D01*
X237128358Y-89938468D01*
X237146536Y-89954944D01*
X237163012Y-89973122D01*
X237177627Y-89992828D01*
X237190240Y-90013871D01*
X237200730Y-90036050D01*
X237208995Y-90059150D01*
X237214956Y-90082948D01*
X237218556Y-90107217D01*
X237219760Y-90131721D01*
X237219760Y-92331719D01*
X237218556Y-92356223D01*
X237214956Y-92380492D01*
X237208995Y-92404290D01*
X237200730Y-92427390D01*
X237190240Y-92449569D01*
X237177627Y-92470612D01*
X237163012Y-92490318D01*
X237146536Y-92508496D01*
X237128358Y-92524972D01*
X237108652Y-92539587D01*
X237087609Y-92552200D01*
X237065430Y-92562690D01*
X237042330Y-92570955D01*
X237018532Y-92576916D01*
X236994263Y-92580516D01*
X236969759Y-92581720D01*
X234169761Y-92581720D01*
X234145257Y-92580516D01*
X234120988Y-92576916D01*
X234097190Y-92570955D01*
X234074090Y-92562690D01*
X234051911Y-92552200D01*
X234030868Y-92539587D01*
X234011162Y-92524972D01*
X233992984Y-92508496D01*
X233976508Y-92490318D01*
X233961893Y-92470612D01*
X233949280Y-92449569D01*
X233938790Y-92427390D01*
X233930525Y-92404290D01*
X233924564Y-92380492D01*
X233920964Y-92356223D01*
X233919760Y-92331719D01*
X233919760Y-90131721D01*
X233920964Y-90107217D01*
X233924564Y-90082948D01*
X233930525Y-90059150D01*
X233938790Y-90036050D01*
X233949280Y-90013871D01*
X233961893Y-89992828D01*
X233976508Y-89973122D01*
X233992984Y-89954944D01*
X234011162Y-89938468D01*
X234030868Y-89923853D01*
X234051911Y-89911240D01*
X234074090Y-89900750D01*
X234097190Y-89892485D01*
X234120988Y-89886524D01*
X234145257Y-89882924D01*
X234169761Y-89881720D01*
X236969759Y-89881720D01*
X236994263Y-89882924D01*
X236994263Y-89882924D01*
G37*
D33*
G04 #@! TD*
G04 #@! TO.P,J2,1*
G04 #@! TO.N,+3V3*
X235569760Y-91231720D03*
D34*
G04 #@! TO.P,J2,2*
G04 #@! TO.N,+3V3*
X235569760Y-95431720D03*
G04 #@! TO.P,J2,3*
G04 #@! TO.N,N/C*
X235569760Y-99631720D03*
G04 #@! TO.P,J2,4*
G04 #@! TO.N,/5VA*
X235569760Y-103831720D03*
G04 #@! TO.P,J2,5*
G04 #@! TO.N,N/C*
X235569760Y-108031720D03*
G04 #@! TO.P,J2,6*
G04 #@! TO.N,/5VA*
X235569760Y-112231720D03*
G04 #@! TO.P,J2,7*
G04 #@! TO.N,GND*
X235569760Y-116431720D03*
G04 #@! TO.P,J2,8*
G04 #@! TO.N,Net-(J2-Pad8)*
X235569760Y-120631720D03*
G04 #@! TO.P,J2,9*
G04 #@! TO.N,5V_USB*
X235569760Y-124831720D03*
G04 #@! TO.P,J2,10*
G04 #@! TO.N,+12V*
X235569760Y-129031720D03*
G04 #@! TO.P,J2,11*
X235569760Y-133231720D03*
G04 #@! TO.P,J2,12*
G04 #@! TO.N,+3V3*
X235569760Y-137431720D03*
G04 #@! TO.P,J2,13*
X241069760Y-91231720D03*
G04 #@! TO.P,J2,14*
G04 #@! TO.N,N/C*
X241069760Y-95431720D03*
G04 #@! TO.P,J2,15*
G04 #@! TO.N,GND*
X241069760Y-99631720D03*
G04 #@! TO.P,J2,16*
G04 #@! TO.N,Net-(J2-Pad16)*
X241069760Y-103831720D03*
G04 #@! TO.P,J2,17*
G04 #@! TO.N,Net-(J2-Pad17)*
X241069760Y-108031720D03*
G04 #@! TO.P,J2,18*
G04 #@! TO.N,N/C*
X241069760Y-112231720D03*
G04 #@! TO.P,J2,19*
G04 #@! TO.N,GND*
X241069760Y-116431720D03*
G04 #@! TO.P,J2,20*
G04 #@! TO.N,N/C*
X241069760Y-120631720D03*
G04 #@! TO.P,J2,21*
G04 #@! TO.N,Net-(H1-Pad1)*
X241069760Y-124831720D03*
G04 #@! TO.P,J2,22*
G04 #@! TO.N,N/C*
X241069760Y-129031720D03*
G04 #@! TO.P,J2,23*
X241069760Y-133231720D03*
G04 #@! TO.P,J2,24*
X241069760Y-137431720D03*
G04 #@! TD*
D35*
G04 #@! TO.N,GND*
X219583000Y-140025120D03*
X218200000Y-122900000D03*
X222199160Y-128100000D03*
X214200000Y-90300000D03*
X208200180Y-91047500D03*
X217112653Y-99112653D03*
X213250000Y-120900000D03*
X215514568Y-107600000D03*
X212800000Y-106800000D03*
X218100000Y-118100000D03*
G04 #@! TO.N,Net-(C3-Pad2)*
X220400840Y-128100000D03*
G04 #@! TO.N,+3V3*
X220575221Y-90326622D03*
X223700000Y-116500000D03*
X226700000Y-124200000D03*
X223100000Y-106000000D03*
X238546640Y-118226840D03*
G04 #@! TO.N,+12V*
X228816000Y-115148000D03*
G04 #@! TO.N,Net-(J2-Pad8)*
X208777840Y-144018000D03*
X213441280Y-139313920D03*
X230240840Y-127675640D03*
G04 #@! TO.N,12V_Out*
X208000000Y-118500000D03*
G04 #@! TO.N,5V_Out*
X205500000Y-107300000D03*
G04 #@! TO.N,3V3_COURSE_EN*
X202200000Y-126100000D03*
G04 #@! TO.N,Net-(Q6-Pad1)*
X209300180Y-108752500D03*
G04 #@! TO.N,3V3_FINE_EN*
X203100000Y-101300000D03*
G04 #@! TO.N,Net-(U1-Pad10)*
X217700000Y-92800000D03*
G04 #@! TO.N,Net-(U2-Pad10)*
X220800000Y-110800000D03*
G04 #@! TO.N,Net-(U3-Pad10)*
X215200000Y-122100000D03*
G04 #@! TO.N,CNVST_PINX*
X219500000Y-120000000D03*
G04 #@! TO.N,EOC_PINX*
X217200000Y-128000000D03*
G04 #@! TO.N,Net-(Q2-Pad1)*
X208600000Y-96300000D03*
G04 #@! TO.N,Net-(Q3-Pad1)*
X210200000Y-90600000D03*
G04 #@! TO.N,Net-(Q4-Pad1)*
X211500000Y-106600000D03*
G04 #@! TO.N,3V3_Fine_Out*
X203300000Y-99375370D03*
G04 #@! TD*
D36*
G04 #@! TO.N,GND*
X219419820Y-131080000D02*
X219160000Y-131080000D01*
X222199160Y-128300660D02*
X219419820Y-131080000D01*
X222199160Y-128100000D02*
X222199160Y-128300660D01*
X218047599Y-132192401D02*
X219160000Y-131080000D01*
X215707599Y-132192401D02*
X218047599Y-132192401D01*
X205100000Y-142800000D02*
X215707599Y-132192401D01*
X215466000Y-90320000D02*
X214220000Y-90320000D01*
X214220000Y-90320000D02*
X214200000Y-90300000D01*
X212500690Y-110952500D02*
X213400000Y-110053190D01*
X212400360Y-110952500D02*
X212500690Y-110952500D01*
X217114568Y-106000000D02*
X218550000Y-106000000D01*
X213400000Y-110053190D02*
X213400000Y-109714568D01*
X215402500Y-99100380D02*
X215402880Y-99100000D01*
X214200000Y-99100380D02*
X215402500Y-99100380D01*
X215402880Y-99100000D02*
X217100000Y-99100000D01*
X217100000Y-99100000D02*
X217112653Y-99112653D01*
X213487070Y-120900000D02*
X213250000Y-120900000D01*
X211251906Y-142800000D02*
X205100000Y-142800000D01*
X213400000Y-109714568D02*
X215514568Y-107600000D01*
X215514568Y-107600000D02*
X217114568Y-106000000D01*
X213600000Y-107600000D02*
X215514568Y-107600000D01*
X212800000Y-106800000D02*
X213600000Y-107600000D01*
X218791000Y-116498000D02*
X219466000Y-116498000D01*
X218100000Y-117189000D02*
X218791000Y-116498000D01*
X218100000Y-118100000D02*
X218100000Y-117189000D01*
X225820998Y-111679002D02*
X225700000Y-111558004D01*
X232731720Y-116431720D02*
X235569760Y-116431720D01*
X226300000Y-110000000D02*
X232731720Y-116431720D01*
X237469760Y-116431720D02*
X241069760Y-116431720D01*
X235569760Y-116431720D02*
X237469760Y-116431720D01*
X244650001Y-120250001D02*
X245900000Y-121500000D01*
X243356710Y-118956710D02*
X244650001Y-120250001D01*
X241994750Y-118956710D02*
X243356710Y-118956710D01*
X241069760Y-118031720D02*
X241994750Y-118956710D01*
X241069760Y-116431720D02*
X241069760Y-118031720D01*
X205100000Y-142800000D02*
X204500000Y-142800000D01*
X205145378Y-142845378D02*
X205100000Y-142800000D01*
X235585858Y-142845378D02*
X205145378Y-142845378D01*
X237642400Y-144901920D02*
X235585858Y-142845378D01*
G04 #@! TO.N,Net-(C3-Pad2)*
X220401680Y-128100000D02*
X220400840Y-128100000D01*
G04 #@! TO.N,+3V3*
X208786888Y-99651130D02*
X208500000Y-99938018D01*
X209998840Y-99600760D02*
X209998840Y-99651130D01*
X209998840Y-99651130D02*
X208786888Y-99651130D01*
X208721339Y-100485601D02*
X209635738Y-101400000D01*
X208721339Y-100121339D02*
X208721339Y-100485601D01*
X208500000Y-99938018D02*
X208538018Y-99938018D01*
X208538018Y-99938018D02*
X208721339Y-100121339D01*
X227500000Y-102500000D02*
X228600000Y-101400000D01*
X227500000Y-104762190D02*
X227500000Y-102500000D01*
X226262190Y-106000000D02*
X227500000Y-104762190D01*
X209635738Y-101400000D02*
X228600000Y-101400000D01*
X218366000Y-90320000D02*
X220568599Y-90320000D01*
X220568599Y-90320000D02*
X220575221Y-90326622D01*
X222366000Y-116498000D02*
X223698000Y-116498000D01*
X223698000Y-116498000D02*
X223700000Y-116500000D01*
X223100000Y-106000000D02*
X226262190Y-106000000D01*
X227099999Y-119899999D02*
X223700000Y-116500000D01*
X227099999Y-123800001D02*
X227099999Y-119899999D01*
X226700000Y-124200000D02*
X227099999Y-123800001D01*
X221450000Y-106000000D02*
X223100000Y-106000000D01*
X235301480Y-91500000D02*
X235569760Y-91231720D01*
D37*
X226749000Y-91500000D02*
X235301480Y-91500000D01*
X241069760Y-91231720D02*
X235569760Y-91231720D01*
D36*
X235569760Y-91231720D02*
X235569760Y-92681720D01*
X235269760Y-95431720D02*
X235569760Y-95431720D01*
X229301480Y-101400000D02*
X235269760Y-95431720D01*
X228600000Y-101400000D02*
X229301480Y-101400000D01*
X235569760Y-137530240D02*
X235569760Y-137431720D01*
X238546640Y-134754840D02*
X238546640Y-118226840D01*
X235569760Y-137431720D02*
X235869760Y-137431720D01*
X235869760Y-137431720D02*
X238546640Y-134754840D01*
X228198080Y-144901920D02*
X226780000Y-146320000D01*
X235102400Y-144901920D02*
X228198080Y-144901920D01*
G04 #@! TO.N,+12V*
X227465990Y-113797990D02*
X228816000Y-115148000D01*
X222724988Y-113797990D02*
X227465990Y-113797990D01*
X219626998Y-110700000D02*
X222724988Y-113797990D01*
X217200000Y-110700000D02*
X219626998Y-110700000D01*
X235269760Y-129031720D02*
X235569760Y-129031720D01*
D37*
X235569760Y-131631720D02*
X235569760Y-129031720D01*
D36*
X235569760Y-133231720D02*
X235569760Y-131631720D01*
D37*
X232404920Y-126408396D02*
X235269760Y-129031720D01*
X232404920Y-118736920D02*
X228816000Y-115148000D01*
X232404920Y-126408396D02*
X232404920Y-118736920D01*
D36*
G04 #@! TO.N,Net-(H1-Pad1)*
X246000000Y-131500000D02*
X246200000Y-131300000D01*
X241069760Y-126169760D02*
X241069760Y-124831720D01*
X246200000Y-131300000D02*
X241069760Y-126169760D01*
G04 #@! TO.N,Net-(A1-Pad1)*
X242722400Y-143572843D02*
X241094917Y-141945360D01*
X242722400Y-144901920D02*
X242722400Y-143572843D01*
X241094917Y-141945360D02*
X234315000Y-141945360D01*
X226780000Y-134410360D02*
X226780000Y-131080000D01*
X234315000Y-141945360D02*
X226780000Y-134410360D01*
G04 #@! TO.N,Net-(A1-Pad2)*
X224240000Y-132193551D02*
X224240000Y-131080000D01*
X224240000Y-132506770D02*
X224240000Y-132193551D01*
X234128599Y-142395369D02*
X224240000Y-132506770D01*
X239004927Y-142395370D02*
X234128599Y-142395369D01*
X240182400Y-143572843D02*
X239004927Y-142395370D01*
X240182400Y-144901920D02*
X240182400Y-143572843D01*
G04 #@! TO.N,Net-(J2-Pad8)*
X204500000Y-146100000D02*
X206695840Y-146100000D01*
X206695840Y-146100000D02*
X208777840Y-144018000D01*
X225998006Y-127675640D02*
X230240840Y-127675640D01*
X213441280Y-139313920D02*
X214359726Y-139313920D01*
X214359726Y-139313920D02*
X225998006Y-127675640D01*
G04 #@! TO.N,Net-(J2-Pad16)*
X245198040Y-107660000D02*
X246000000Y-107660000D01*
X241369760Y-103831720D02*
X245198040Y-107660000D01*
X241069760Y-103831720D02*
X241369760Y-103831720D01*
G04 #@! TO.N,Net-(J2-Pad17)*
X243831720Y-108031720D02*
X246000000Y-110200000D01*
X241069760Y-108031720D02*
X243831720Y-108031720D01*
G04 #@! TO.N,SPI_Clk_PINX*
X214200000Y-100101140D02*
X212301140Y-100101140D01*
X212301140Y-100101140D02*
X211900000Y-99700000D01*
X211900000Y-99700000D02*
X211900000Y-97650010D01*
X211900000Y-97650010D02*
X199949990Y-97650010D01*
X199949990Y-97650010D02*
X199400000Y-98200000D01*
X199400000Y-98200000D02*
X199300000Y-98300000D01*
X194872401Y-142667599D02*
X191220000Y-146320000D01*
X194872401Y-103872401D02*
X194872401Y-142667599D01*
X199400000Y-98200000D02*
X194900000Y-103100000D01*
X194900000Y-103100000D02*
X194872401Y-103872401D01*
G04 #@! TO.N,SPI_MOSI_PINX*
X193760000Y-102940000D02*
X193760000Y-131080000D01*
X214200000Y-99600760D02*
X213000760Y-99600760D01*
X213000760Y-99600760D02*
X212600000Y-99200000D01*
X212600000Y-99200000D02*
X212600000Y-97300000D01*
X212600000Y-97300000D02*
X212500000Y-97200000D01*
X212500000Y-97200000D02*
X199600000Y-97100000D01*
X199600000Y-97100000D02*
X193760000Y-102940000D01*
G04 #@! TO.N,Net-(P1-Pad4)*
X217416000Y-96901500D02*
X217416000Y-97284000D01*
X215000000Y-98600000D02*
X216600000Y-98600000D01*
X217416000Y-97784000D02*
X217416000Y-96901500D01*
X216600000Y-98600000D02*
X217416000Y-97784000D01*
G04 #@! TO.N,SPI_3V3_CS_PINX*
X211160422Y-100101140D02*
X211300000Y-99961562D01*
X209998840Y-100101140D02*
X211160422Y-100101140D01*
X211210792Y-98650370D02*
X202849630Y-98650370D01*
X211300000Y-99961562D02*
X211300000Y-98739578D01*
X211300000Y-98739578D02*
X211210792Y-98650370D01*
X198049991Y-130289991D02*
X198840000Y-131080000D01*
X198049991Y-103450009D02*
X198049991Y-130289991D01*
X202849630Y-98650370D02*
X198049991Y-103450009D01*
G04 #@! TO.N,12V_Out*
X205635000Y-114365000D02*
X205000000Y-115000000D01*
X209205000Y-113095000D02*
X209205000Y-113195000D01*
X209205000Y-113195000D02*
X208900000Y-113500000D01*
X209815000Y-113500000D02*
X209205000Y-113500000D01*
X211310000Y-114995000D02*
X209815000Y-113500000D01*
X211310000Y-115000000D02*
X211310000Y-114995000D01*
X209205000Y-113095000D02*
X209205000Y-113500000D01*
X209205000Y-113500000D02*
X209205000Y-114365000D01*
X209205000Y-115395000D02*
X209205000Y-115635000D01*
X209110000Y-115300000D02*
X209205000Y-115395000D01*
X211105000Y-115205000D02*
X211310000Y-115000000D01*
X209205000Y-115205000D02*
X211105000Y-115205000D01*
X209110000Y-115300000D02*
X209205000Y-115205000D01*
X208435000Y-115300000D02*
X207500000Y-114365000D01*
X209110000Y-115300000D02*
X208435000Y-115300000D01*
D37*
X207500000Y-114365000D02*
X205635000Y-114365000D01*
D36*
X209205000Y-113095000D02*
X209005000Y-113095000D01*
X209005000Y-113095000D02*
X208700000Y-113400000D01*
X208700000Y-114165000D02*
X208500000Y-114365000D01*
X208700000Y-113400000D02*
X208700000Y-114165000D01*
D37*
X209205000Y-114365000D02*
X208500000Y-114365000D01*
X208500000Y-114365000D02*
X207500000Y-114365000D01*
X208400000Y-116000000D02*
X205000000Y-115000000D01*
X209205000Y-116905000D02*
X208400000Y-116000000D01*
D36*
X209000000Y-115635000D02*
X209205000Y-115635000D01*
X208000000Y-116635000D02*
X209000000Y-115635000D01*
X208000000Y-118500000D02*
X208000000Y-116635000D01*
G04 #@! TO.N,Net-(Q1-Pad4)*
X214800180Y-112964820D02*
X214670000Y-113095000D01*
X214600000Y-113025000D02*
X214670000Y-113095000D01*
X214600000Y-110000000D02*
X214600000Y-113025000D01*
X216705000Y-113095000D02*
X217200000Y-112600000D01*
X214670000Y-113095000D02*
X216705000Y-113095000D01*
D37*
G04 #@! TO.N,3V3_Out*
X208711800Y-94665800D02*
X204978000Y-90932000D01*
X210202780Y-94665800D02*
X208711800Y-94665800D01*
D36*
X210040440Y-87619560D02*
X210040440Y-88920040D01*
X207640200Y-88269800D02*
X204978000Y-90932000D01*
X210040440Y-88269800D02*
X207640200Y-88269800D01*
G04 #@! TO.N,5V_Out*
X205830200Y-104169800D02*
X205000000Y-105000000D01*
D37*
X211458780Y-104169800D02*
X205830200Y-104169800D01*
D36*
X205000000Y-106234315D02*
X205000000Y-105000000D01*
X205500000Y-106734315D02*
X205000000Y-106234315D01*
X205500000Y-107300000D02*
X205500000Y-106734315D01*
G04 #@! TO.N,3V3_COURSE_EN*
X202200000Y-129360000D02*
X203920000Y-131080000D01*
X202200000Y-126100000D02*
X202200000Y-129360000D01*
G04 #@! TO.N,5V_EN*
X205100000Y-108700000D02*
X201700000Y-112100000D01*
X205700000Y-108700000D02*
X205100000Y-108700000D01*
X201700000Y-112100000D02*
X201700000Y-123400000D01*
X206460000Y-128160000D02*
X206460000Y-131080000D01*
X206300000Y-128000000D02*
X206460000Y-128160000D01*
X206300000Y-128000000D02*
X206400000Y-128100000D01*
X201700000Y-123400000D02*
X206300000Y-128000000D01*
G04 #@! TO.N,Net-(Q6-Pad1)*
X207600000Y-108700000D02*
X209247680Y-108700000D01*
X209247680Y-108700000D02*
X209300180Y-108752500D01*
G04 #@! TO.N,12V_EN*
X204700000Y-110900000D02*
X202150010Y-113449990D01*
X205700000Y-110900000D02*
X204700000Y-110900000D01*
X206910010Y-128990010D02*
X209000000Y-131080000D01*
X206910010Y-127973600D02*
X206910010Y-128990010D01*
X202150010Y-123213600D02*
X206910010Y-127973600D01*
X202150010Y-113449990D02*
X202150010Y-123213600D01*
G04 #@! TO.N,Net-(Q7-Pad1)*
X212300030Y-109047500D02*
X212400360Y-109047500D01*
X211649980Y-109697550D02*
X212300030Y-109047500D01*
X211649980Y-109797880D02*
X211649980Y-109697550D01*
X210547860Y-110900000D02*
X211649980Y-109797880D01*
X207600000Y-110900000D02*
X210547860Y-110900000D01*
G04 #@! TO.N,3V3_FINE_EN*
X203100000Y-101300000D02*
X200100000Y-104300000D01*
X200100000Y-129800000D02*
X201380000Y-131080000D01*
X200100000Y-104300000D02*
X200100000Y-129800000D01*
G04 #@! TO.N,POK*
X199060000Y-146100000D02*
X198840000Y-146320000D01*
X202600000Y-146100000D02*
X199060000Y-146100000D01*
X202600000Y-146100000D02*
X202600000Y-142800000D01*
G04 #@! TO.N,Net-(U1-Pad10)*
X217700000Y-91554000D02*
X217666000Y-91520000D01*
X217700000Y-92800000D02*
X217700000Y-91554000D01*
G04 #@! TO.N,Net-(U2-Pad10)*
X220800000Y-110800000D02*
X220750000Y-108250000D01*
X220750000Y-108250000D02*
X220750000Y-107200000D01*
G04 #@! TO.N,Net-(U3-Pad10)*
X221666000Y-118358002D02*
X220824002Y-119200000D01*
X221666000Y-117698000D02*
X221666000Y-118358002D01*
X220824002Y-119200000D02*
X216800000Y-119200000D01*
X216800000Y-119200000D02*
X215200000Y-120800000D01*
X215200000Y-120800000D02*
X215200000Y-122100000D01*
G04 #@! TO.N,CNVST_PINX*
X219400000Y-124400000D02*
X219500000Y-120000000D01*
X211540000Y-131080000D02*
X219400000Y-124400000D01*
G04 #@! TO.N,EOC_PINX*
X214120000Y-131080000D02*
X214080000Y-131080000D01*
X217200000Y-128000000D02*
X214120000Y-131080000D01*
G04 #@! TO.N,Net-(Q2-Pad1)*
X210200000Y-95969060D02*
X210202780Y-95966280D01*
X209869060Y-96300000D02*
X210202780Y-95966280D01*
X208600000Y-96300000D02*
X209869060Y-96300000D01*
G04 #@! TO.N,Net-(Q3-Pad1)*
X210200000Y-89729840D02*
X210040440Y-89570280D01*
X210200000Y-90600000D02*
X210200000Y-89729840D01*
G04 #@! TO.N,Net-(Q4-Pad1)*
X211500000Y-105511500D02*
X211458780Y-105470280D01*
X211500000Y-106600000D02*
X211500000Y-105511500D01*
G04 #@! TO.N,Net-(P1-Pad5)*
X214200000Y-98099620D02*
X215300380Y-98099620D01*
X215646000Y-97754000D02*
X215646000Y-96901500D01*
X215300380Y-98099620D02*
X215646000Y-97754000D01*
D37*
G04 #@! TO.N,/5VA*
X234901480Y-104500000D02*
X235569760Y-103831720D01*
X228749000Y-104500000D02*
X234901480Y-104500000D01*
X228749000Y-105410960D02*
X228749000Y-104500000D01*
X235569760Y-112231720D02*
X228749000Y-105410960D01*
G04 #@! TO.N,/3.3V_A*
X220453500Y-94995500D02*
X223949000Y-91500000D01*
X218300000Y-94995500D02*
X220453500Y-94995500D01*
D36*
X217416000Y-94995500D02*
X218300000Y-94995500D01*
D37*
X217994240Y-88820000D02*
X217891008Y-88820000D01*
X218025861Y-88851621D02*
X217994240Y-88820000D01*
X221300621Y-88851621D02*
X218025861Y-88851621D01*
X223949000Y-91500000D02*
X221300621Y-88851621D01*
G04 #@! TO.N,/5V_A*
X225224000Y-104500000D02*
X220975009Y-104500000D01*
X225949000Y-104500000D02*
X225224000Y-104500000D01*
G04 #@! TO.N,/12V_A*
X225291000Y-115148000D02*
X225141000Y-114998000D01*
X226016000Y-115148000D02*
X225291000Y-115148000D01*
X224381002Y-114998000D02*
X221891009Y-114998000D01*
X224531002Y-115148000D02*
X224381002Y-114998000D01*
X226016000Y-115148000D02*
X224531002Y-115148000D01*
G04 #@! TO.N,/12VA_S*
X215785000Y-116905000D02*
X217692000Y-114998000D01*
X214670000Y-116905000D02*
X215785000Y-116905000D01*
X215975001Y-114475001D02*
X214670000Y-114475001D01*
X216498000Y-114998000D02*
X215975001Y-114475001D01*
X217692000Y-114998000D02*
X216498000Y-114998000D01*
X214670000Y-115635000D02*
X214670000Y-116905000D01*
X215861000Y-115635000D02*
X216498000Y-114998000D01*
X214670000Y-115635000D02*
X215861000Y-115635000D01*
X217692000Y-114998000D02*
X219940999Y-114998000D01*
G04 #@! TO.N,/3.3VA_D1*
X212344000Y-94996000D02*
X215465990Y-94996000D01*
D36*
X213464140Y-94015560D02*
X213464140Y-94665800D01*
X213464140Y-95316040D02*
X213464140Y-95966280D01*
G04 #@! TO.N,/3.3VA_D2*
X213301800Y-87619560D02*
X213301800Y-88269800D01*
X213301800Y-88920040D02*
X213301800Y-89570280D01*
D37*
X215404860Y-88269800D02*
X215940999Y-88805939D01*
X213301800Y-88269800D02*
X215404860Y-88269800D01*
X212501700Y-88920040D02*
X212181660Y-88600000D01*
X213301800Y-88920040D02*
X212501700Y-88920040D01*
D36*
G04 #@! TO.N,/5VA_D*
X214720140Y-103519560D02*
X214720140Y-104169800D01*
X214720140Y-104520140D02*
X214720140Y-105470280D01*
X214700000Y-104500000D02*
X214720140Y-104520140D01*
D37*
X213600000Y-104500000D02*
X214700000Y-104500000D01*
X214700000Y-104500000D02*
X219024999Y-104500000D01*
D36*
G04 #@! TO.N,3V3_Fine_Out*
X204140675Y-99100380D02*
X209998840Y-99100380D01*
X203865685Y-99375370D02*
X204140675Y-99100380D01*
X203300000Y-99375370D02*
X203865685Y-99375370D01*
G04 #@! TD*
D38*
G04 #@! TO.N,GND*
G36*
X227596973Y-116041522D02*
X227611874Y-116116435D01*
X227806414Y-116407586D01*
X228097565Y-116602126D01*
X228143877Y-116611338D01*
X230894921Y-119362383D01*
X230894920Y-126293139D01*
X230866827Y-126476082D01*
X230930413Y-126735548D01*
X230971620Y-126942709D01*
X230827120Y-126798209D01*
X230446714Y-126640640D01*
X230034966Y-126640640D01*
X229654560Y-126798209D01*
X229537129Y-126915640D01*
X226072852Y-126915640D01*
X225998005Y-126900752D01*
X225923158Y-126915640D01*
X225923154Y-126915640D01*
X225701469Y-126959736D01*
X225644848Y-126997569D01*
X225513532Y-127085311D01*
X225513530Y-127085313D01*
X225450077Y-127127711D01*
X225407679Y-127191164D01*
X214094958Y-138503887D01*
X214027560Y-138436489D01*
X213647154Y-138278920D01*
X213235406Y-138278920D01*
X212855000Y-138436489D01*
X212563849Y-138727640D01*
X212406280Y-139108046D01*
X212406280Y-139519794D01*
X212563849Y-139900200D01*
X212855000Y-140191351D01*
X213235406Y-140348920D01*
X213647154Y-140348920D01*
X214027560Y-140191351D01*
X214144991Y-140073920D01*
X214284879Y-140073920D01*
X214359726Y-140088808D01*
X214434573Y-140073920D01*
X214434578Y-140073920D01*
X214656263Y-140029824D01*
X214907655Y-139861849D01*
X214950057Y-139798390D01*
X222983939Y-131764510D01*
X223034148Y-131885725D01*
X223434275Y-132285852D01*
X223480000Y-132304792D01*
X223480000Y-132431923D01*
X223465112Y-132506770D01*
X223480000Y-132581617D01*
X223480000Y-132581621D01*
X223524096Y-132803306D01*
X223692071Y-133054699D01*
X223755530Y-133097101D01*
X233538272Y-142879844D01*
X233580670Y-142943297D01*
X233644123Y-142985695D01*
X233644126Y-142985698D01*
X233832061Y-143111273D01*
X234128599Y-143170257D01*
X234203452Y-143155368D01*
X238690126Y-143155370D01*
X239195986Y-143661231D01*
X238847349Y-144009868D01*
X238607600Y-144588673D01*
X238607600Y-145215167D01*
X238847349Y-145793972D01*
X239290348Y-146236971D01*
X239869153Y-146476720D01*
X240495647Y-146476720D01*
X241074452Y-146236971D01*
X241452400Y-145859023D01*
X241830348Y-146236971D01*
X242409153Y-146476720D01*
X243035647Y-146476720D01*
X243614452Y-146236971D01*
X244057451Y-145793972D01*
X244297200Y-145215167D01*
X244297200Y-144588673D01*
X244057451Y-144009868D01*
X243614452Y-143566869D01*
X243485473Y-143513444D01*
X243482400Y-143497995D01*
X243482400Y-143497991D01*
X243438304Y-143276306D01*
X243270329Y-143024914D01*
X243206873Y-142982514D01*
X241685248Y-141460890D01*
X241642846Y-141397431D01*
X241391454Y-141229456D01*
X241169769Y-141185360D01*
X241169764Y-141185360D01*
X241094917Y-141170472D01*
X241020070Y-141185360D01*
X234629802Y-141185360D01*
X227540000Y-134095559D01*
X227540000Y-132304792D01*
X227585725Y-132285852D01*
X227985852Y-131885725D01*
X228202400Y-131362933D01*
X228202400Y-130797067D01*
X227985852Y-130274275D01*
X227585725Y-129874148D01*
X227062933Y-129657600D01*
X226497067Y-129657600D01*
X225974275Y-129874148D01*
X225574148Y-130274275D01*
X225510000Y-130429142D01*
X225445852Y-130274275D01*
X225045725Y-129874148D01*
X224924510Y-129823939D01*
X226312809Y-128435640D01*
X229537129Y-128435640D01*
X229654560Y-128553071D01*
X230034966Y-128710640D01*
X230446714Y-128710640D01*
X230827120Y-128553071D01*
X231118271Y-128261920D01*
X231275840Y-127881514D01*
X231275840Y-127469766D01*
X231239626Y-127382337D01*
X231316271Y-127497045D01*
X231470169Y-127599877D01*
X233293094Y-129269122D01*
X233399931Y-129806228D01*
X233838655Y-130462825D01*
X234059760Y-130610563D01*
X234059760Y-131652877D01*
X233838655Y-131800615D01*
X233399931Y-132457212D01*
X233245872Y-133231720D01*
X233399931Y-134006228D01*
X233838655Y-134662825D01*
X234495252Y-135101549D01*
X235074257Y-135216720D01*
X236065263Y-135216720D01*
X236644268Y-135101549D01*
X237300865Y-134662825D01*
X237739589Y-134006228D01*
X237786640Y-133769686D01*
X237786640Y-134440038D01*
X236656569Y-135570110D01*
X236644268Y-135561891D01*
X236065263Y-135446720D01*
X235074257Y-135446720D01*
X234495252Y-135561891D01*
X233838655Y-136000615D01*
X233399931Y-136657212D01*
X233245872Y-137431720D01*
X233399931Y-138206228D01*
X233838655Y-138862825D01*
X234495252Y-139301549D01*
X235074257Y-139416720D01*
X236065263Y-139416720D01*
X236644268Y-139301549D01*
X237300865Y-138862825D01*
X237739589Y-138206228D01*
X237893648Y-137431720D01*
X238745872Y-137431720D01*
X238899931Y-138206228D01*
X239338655Y-138862825D01*
X239995252Y-139301549D01*
X240574257Y-139416720D01*
X241565263Y-139416720D01*
X242144268Y-139301549D01*
X242800865Y-138862825D01*
X243239589Y-138206228D01*
X243393648Y-137431720D01*
X243239589Y-136657212D01*
X242800865Y-136000615D01*
X242144268Y-135561891D01*
X241565263Y-135446720D01*
X240574257Y-135446720D01*
X239995252Y-135561891D01*
X239338655Y-136000615D01*
X238899931Y-136657212D01*
X238745872Y-137431720D01*
X237893648Y-137431720D01*
X237739589Y-136657212D01*
X237731370Y-136644911D01*
X239031113Y-135345169D01*
X239094569Y-135302769D01*
X239262544Y-135051377D01*
X239306640Y-134829692D01*
X239306640Y-134829688D01*
X239321528Y-134754841D01*
X239306640Y-134679994D01*
X239306640Y-134614911D01*
X239338655Y-134662825D01*
X239995252Y-135101549D01*
X240574257Y-135216720D01*
X241565263Y-135216720D01*
X242144268Y-135101549D01*
X242800865Y-134662825D01*
X243239589Y-134006228D01*
X243393648Y-133231720D01*
X243239589Y-132457212D01*
X242800865Y-131800615D01*
X242144268Y-131361891D01*
X241565263Y-131246720D01*
X240574257Y-131246720D01*
X239995252Y-131361891D01*
X239338655Y-131800615D01*
X239306640Y-131848529D01*
X239306640Y-130414911D01*
X239338655Y-130462825D01*
X239995252Y-130901549D01*
X240574257Y-131016720D01*
X241565263Y-131016720D01*
X242144268Y-130901549D01*
X242800865Y-130462825D01*
X243239589Y-129806228D01*
X243304599Y-129479400D01*
X244442481Y-130617283D01*
X244315000Y-130925050D01*
X244315000Y-131674950D01*
X244601974Y-132367767D01*
X245132233Y-132898026D01*
X245825050Y-133185000D01*
X246574950Y-133185000D01*
X247267767Y-132898026D01*
X247430798Y-132734995D01*
X247389058Y-147102106D01*
X228003003Y-147084319D01*
X228202400Y-146602933D01*
X228202400Y-146037067D01*
X228183460Y-145991342D01*
X228512882Y-145661920D01*
X233712651Y-145661920D01*
X233767349Y-145793972D01*
X234210348Y-146236971D01*
X234789153Y-146476720D01*
X235415647Y-146476720D01*
X235994452Y-146236971D01*
X236437451Y-145793972D01*
X236677200Y-145215167D01*
X236677200Y-144588673D01*
X236437451Y-144009868D01*
X235994452Y-143566869D01*
X235415647Y-143327120D01*
X234789153Y-143327120D01*
X234210348Y-143566869D01*
X233767349Y-144009868D01*
X233712651Y-144141920D01*
X228272927Y-144141920D01*
X228198080Y-144127032D01*
X228123233Y-144141920D01*
X228123228Y-144141920D01*
X227901543Y-144186016D01*
X227650151Y-144353991D01*
X227607751Y-144417447D01*
X227108658Y-144916540D01*
X227062933Y-144897600D01*
X226497067Y-144897600D01*
X225974275Y-145114148D01*
X225574148Y-145514275D01*
X225357600Y-146037067D01*
X225357600Y-146602933D01*
X225556067Y-147082074D01*
X205404177Y-147063585D01*
X205448157Y-146997765D01*
X205475560Y-146860000D01*
X206620993Y-146860000D01*
X206695840Y-146874888D01*
X206770687Y-146860000D01*
X206770692Y-146860000D01*
X206992377Y-146815904D01*
X207243769Y-146647929D01*
X207286171Y-146584470D01*
X208817642Y-145053000D01*
X208983714Y-145053000D01*
X209364120Y-144895431D01*
X209655271Y-144604280D01*
X209812840Y-144223874D01*
X209812840Y-143812126D01*
X209655271Y-143431720D01*
X209364120Y-143140569D01*
X208983714Y-142983000D01*
X208571966Y-142983000D01*
X208191560Y-143140569D01*
X207900409Y-143431720D01*
X207742840Y-143812126D01*
X207742840Y-143978198D01*
X206381039Y-145340000D01*
X205475560Y-145340000D01*
X205448157Y-145202235D01*
X205307809Y-144992191D01*
X205097765Y-144851843D01*
X204850000Y-144802560D01*
X204150000Y-144802560D01*
X203902235Y-144851843D01*
X203692191Y-144992191D01*
X203551843Y-145202235D01*
X203550000Y-145211500D01*
X203548157Y-145202235D01*
X203407809Y-144992191D01*
X203360000Y-144960246D01*
X203360000Y-143939754D01*
X203407809Y-143907809D01*
X203548157Y-143697765D01*
X203597440Y-143450000D01*
X203597440Y-142150000D01*
X203548157Y-141902235D01*
X203407809Y-141692191D01*
X203197765Y-141551843D01*
X202950000Y-141502560D01*
X202250000Y-141502560D01*
X202002235Y-141551843D01*
X201792191Y-141692191D01*
X201651843Y-141902235D01*
X201602560Y-142150000D01*
X201602560Y-143450000D01*
X201651843Y-143697765D01*
X201792191Y-143907809D01*
X201840001Y-143939755D01*
X201840000Y-144960246D01*
X201792191Y-144992191D01*
X201651843Y-145202235D01*
X201624440Y-145340000D01*
X199871577Y-145340000D01*
X199645725Y-145114148D01*
X199122933Y-144897600D01*
X198557067Y-144897600D01*
X198034275Y-145114148D01*
X197634148Y-145514275D01*
X197417600Y-146037067D01*
X197417600Y-146602933D01*
X197605445Y-147056429D01*
X192456512Y-147051705D01*
X192642400Y-146602933D01*
X192642400Y-146037067D01*
X192623460Y-145991341D01*
X195356874Y-143257928D01*
X195420330Y-143215528D01*
X195588305Y-142964136D01*
X195632401Y-142742451D01*
X195632401Y-142742447D01*
X195647289Y-142667600D01*
X195632401Y-142592753D01*
X195632401Y-132343066D01*
X196017067Y-132502400D01*
X196582933Y-132502400D01*
X197105725Y-132285852D01*
X197505852Y-131885725D01*
X197570000Y-131730858D01*
X197634148Y-131885725D01*
X198034275Y-132285852D01*
X198557067Y-132502400D01*
X199122933Y-132502400D01*
X199645725Y-132285852D01*
X200045852Y-131885725D01*
X200110000Y-131730858D01*
X200174148Y-131885725D01*
X200574275Y-132285852D01*
X201097067Y-132502400D01*
X201662933Y-132502400D01*
X202185725Y-132285852D01*
X202585852Y-131885725D01*
X202650000Y-131730858D01*
X202714148Y-131885725D01*
X203114275Y-132285852D01*
X203637067Y-132502400D01*
X204202933Y-132502400D01*
X204725725Y-132285852D01*
X205125852Y-131885725D01*
X205190000Y-131730858D01*
X205254148Y-131885725D01*
X205654275Y-132285852D01*
X206177067Y-132502400D01*
X206742933Y-132502400D01*
X207265725Y-132285852D01*
X207665852Y-131885725D01*
X207730000Y-131730858D01*
X207794148Y-131885725D01*
X208194275Y-132285852D01*
X208717067Y-132502400D01*
X209282933Y-132502400D01*
X209805725Y-132285852D01*
X210205852Y-131885725D01*
X210270000Y-131730858D01*
X210334148Y-131885725D01*
X210734275Y-132285852D01*
X211257067Y-132502400D01*
X211822933Y-132502400D01*
X212345725Y-132285852D01*
X212745852Y-131885725D01*
X212810000Y-131730858D01*
X212874148Y-131885725D01*
X213274275Y-132285852D01*
X213797067Y-132502400D01*
X214362933Y-132502400D01*
X214885725Y-132285852D01*
X215285852Y-131885725D01*
X215350000Y-131730858D01*
X215414148Y-131885725D01*
X215814275Y-132285852D01*
X216337067Y-132502400D01*
X216902933Y-132502400D01*
X217425725Y-132285852D01*
X217825852Y-131885725D01*
X218042400Y-131362933D01*
X218042400Y-130797067D01*
X217825852Y-130274275D01*
X217425725Y-129874148D01*
X216902933Y-129657600D01*
X216617202Y-129657600D01*
X217239802Y-129035000D01*
X217405874Y-129035000D01*
X217786280Y-128877431D01*
X218077431Y-128586280D01*
X218235000Y-128205874D01*
X218235000Y-127794126D01*
X218113402Y-127500560D01*
X219355460Y-127500560D01*
X219355460Y-128699440D01*
X219404743Y-128947205D01*
X219545091Y-129157249D01*
X219755135Y-129297597D01*
X220002900Y-129346880D01*
X220800460Y-129346880D01*
X221048225Y-129297597D01*
X221258269Y-129157249D01*
X221398617Y-128947205D01*
X221447900Y-128699440D01*
X221447900Y-127500560D01*
X221398617Y-127252795D01*
X221258269Y-127042751D01*
X221048225Y-126902403D01*
X220800460Y-126853120D01*
X220002900Y-126853120D01*
X219755135Y-126902403D01*
X219545091Y-127042751D01*
X219404743Y-127252795D01*
X219355460Y-127500560D01*
X218113402Y-127500560D01*
X218077431Y-127413720D01*
X217786280Y-127122569D01*
X217506457Y-127006663D01*
X219852128Y-125013141D01*
X219935337Y-124960237D01*
X220009431Y-124854624D01*
X220089571Y-124753475D01*
X220095838Y-124731460D01*
X220108981Y-124712726D01*
X220137022Y-124586781D01*
X220172349Y-124462681D01*
X220160998Y-124364727D01*
X220243835Y-120719876D01*
X220377431Y-120586280D01*
X220535000Y-120205874D01*
X220535000Y-119960000D01*
X220749155Y-119960000D01*
X220824002Y-119974888D01*
X220898849Y-119960000D01*
X220898854Y-119960000D01*
X221120539Y-119915904D01*
X221371931Y-119747929D01*
X221414333Y-119684470D01*
X222150473Y-118948331D01*
X222213929Y-118905931D01*
X222381904Y-118654539D01*
X222426000Y-118432854D01*
X222426000Y-118432849D01*
X222440888Y-118358002D01*
X222428792Y-118297190D01*
X222463440Y-118123000D01*
X222463440Y-117795440D01*
X222791000Y-117795440D01*
X223038765Y-117746157D01*
X223248809Y-117605809D01*
X223339044Y-117470763D01*
X223494126Y-117535000D01*
X223660199Y-117535000D01*
X226340000Y-120214802D01*
X226339999Y-123228841D01*
X226113720Y-123322569D01*
X225822569Y-123613720D01*
X225665000Y-123994126D01*
X225665000Y-124405874D01*
X225822569Y-124786280D01*
X226113720Y-125077431D01*
X226494126Y-125235000D01*
X226905874Y-125235000D01*
X227286280Y-125077431D01*
X227577431Y-124786280D01*
X227735000Y-124405874D01*
X227735000Y-124217618D01*
X227815903Y-124096538D01*
X227859999Y-123874853D01*
X227859999Y-123874849D01*
X227874887Y-123800002D01*
X227859999Y-123725155D01*
X227859999Y-119974847D01*
X227874887Y-119899999D01*
X227859999Y-119825151D01*
X227859999Y-119825147D01*
X227815903Y-119603462D01*
X227815903Y-119603461D01*
X227690328Y-119415526D01*
X227647928Y-119352070D01*
X227584472Y-119309670D01*
X224932801Y-116658000D01*
X225142281Y-116658000D01*
X225290999Y-116687582D01*
X225439717Y-116658000D01*
X225578460Y-116658000D01*
X225641000Y-116670440D01*
X226391000Y-116670440D01*
X226734435Y-116602126D01*
X227025586Y-116407586D01*
X227220126Y-116116435D01*
X227235027Y-116041525D01*
X227416001Y-115770678D01*
X227596973Y-116041522D01*
X227596973Y-116041522D01*
G37*
X227596973Y-116041522D02*
X227611874Y-116116435D01*
X227806414Y-116407586D01*
X228097565Y-116602126D01*
X228143877Y-116611338D01*
X230894921Y-119362383D01*
X230894920Y-126293139D01*
X230866827Y-126476082D01*
X230930413Y-126735548D01*
X230971620Y-126942709D01*
X230827120Y-126798209D01*
X230446714Y-126640640D01*
X230034966Y-126640640D01*
X229654560Y-126798209D01*
X229537129Y-126915640D01*
X226072852Y-126915640D01*
X225998005Y-126900752D01*
X225923158Y-126915640D01*
X225923154Y-126915640D01*
X225701469Y-126959736D01*
X225644848Y-126997569D01*
X225513532Y-127085311D01*
X225513530Y-127085313D01*
X225450077Y-127127711D01*
X225407679Y-127191164D01*
X214094958Y-138503887D01*
X214027560Y-138436489D01*
X213647154Y-138278920D01*
X213235406Y-138278920D01*
X212855000Y-138436489D01*
X212563849Y-138727640D01*
X212406280Y-139108046D01*
X212406280Y-139519794D01*
X212563849Y-139900200D01*
X212855000Y-140191351D01*
X213235406Y-140348920D01*
X213647154Y-140348920D01*
X214027560Y-140191351D01*
X214144991Y-140073920D01*
X214284879Y-140073920D01*
X214359726Y-140088808D01*
X214434573Y-140073920D01*
X214434578Y-140073920D01*
X214656263Y-140029824D01*
X214907655Y-139861849D01*
X214950057Y-139798390D01*
X222983939Y-131764510D01*
X223034148Y-131885725D01*
X223434275Y-132285852D01*
X223480000Y-132304792D01*
X223480000Y-132431923D01*
X223465112Y-132506770D01*
X223480000Y-132581617D01*
X223480000Y-132581621D01*
X223524096Y-132803306D01*
X223692071Y-133054699D01*
X223755530Y-133097101D01*
X233538272Y-142879844D01*
X233580670Y-142943297D01*
X233644123Y-142985695D01*
X233644126Y-142985698D01*
X233832061Y-143111273D01*
X234128599Y-143170257D01*
X234203452Y-143155368D01*
X238690126Y-143155370D01*
X239195986Y-143661231D01*
X238847349Y-144009868D01*
X238607600Y-144588673D01*
X238607600Y-145215167D01*
X238847349Y-145793972D01*
X239290348Y-146236971D01*
X239869153Y-146476720D01*
X240495647Y-146476720D01*
X241074452Y-146236971D01*
X241452400Y-145859023D01*
X241830348Y-146236971D01*
X242409153Y-146476720D01*
X243035647Y-146476720D01*
X243614452Y-146236971D01*
X244057451Y-145793972D01*
X244297200Y-145215167D01*
X244297200Y-144588673D01*
X244057451Y-144009868D01*
X243614452Y-143566869D01*
X243485473Y-143513444D01*
X243482400Y-143497995D01*
X243482400Y-143497991D01*
X243438304Y-143276306D01*
X243270329Y-143024914D01*
X243206873Y-142982514D01*
X241685248Y-141460890D01*
X241642846Y-141397431D01*
X241391454Y-141229456D01*
X241169769Y-141185360D01*
X241169764Y-141185360D01*
X241094917Y-141170472D01*
X241020070Y-141185360D01*
X234629802Y-141185360D01*
X227540000Y-134095559D01*
X227540000Y-132304792D01*
X227585725Y-132285852D01*
X227985852Y-131885725D01*
X228202400Y-131362933D01*
X228202400Y-130797067D01*
X227985852Y-130274275D01*
X227585725Y-129874148D01*
X227062933Y-129657600D01*
X226497067Y-129657600D01*
X225974275Y-129874148D01*
X225574148Y-130274275D01*
X225510000Y-130429142D01*
X225445852Y-130274275D01*
X225045725Y-129874148D01*
X224924510Y-129823939D01*
X226312809Y-128435640D01*
X229537129Y-128435640D01*
X229654560Y-128553071D01*
X230034966Y-128710640D01*
X230446714Y-128710640D01*
X230827120Y-128553071D01*
X231118271Y-128261920D01*
X231275840Y-127881514D01*
X231275840Y-127469766D01*
X231239626Y-127382337D01*
X231316271Y-127497045D01*
X231470169Y-127599877D01*
X233293094Y-129269122D01*
X233399931Y-129806228D01*
X233838655Y-130462825D01*
X234059760Y-130610563D01*
X234059760Y-131652877D01*
X233838655Y-131800615D01*
X233399931Y-132457212D01*
X233245872Y-133231720D01*
X233399931Y-134006228D01*
X233838655Y-134662825D01*
X234495252Y-135101549D01*
X235074257Y-135216720D01*
X236065263Y-135216720D01*
X236644268Y-135101549D01*
X237300865Y-134662825D01*
X237739589Y-134006228D01*
X237786640Y-133769686D01*
X237786640Y-134440038D01*
X236656569Y-135570110D01*
X236644268Y-135561891D01*
X236065263Y-135446720D01*
X235074257Y-135446720D01*
X234495252Y-135561891D01*
X233838655Y-136000615D01*
X233399931Y-136657212D01*
X233245872Y-137431720D01*
X233399931Y-138206228D01*
X233838655Y-138862825D01*
X234495252Y-139301549D01*
X235074257Y-139416720D01*
X236065263Y-139416720D01*
X236644268Y-139301549D01*
X237300865Y-138862825D01*
X237739589Y-138206228D01*
X237893648Y-137431720D01*
X238745872Y-137431720D01*
X238899931Y-138206228D01*
X239338655Y-138862825D01*
X239995252Y-139301549D01*
X240574257Y-139416720D01*
X241565263Y-139416720D01*
X242144268Y-139301549D01*
X242800865Y-138862825D01*
X243239589Y-138206228D01*
X243393648Y-137431720D01*
X243239589Y-136657212D01*
X242800865Y-136000615D01*
X242144268Y-135561891D01*
X241565263Y-135446720D01*
X240574257Y-135446720D01*
X239995252Y-135561891D01*
X239338655Y-136000615D01*
X238899931Y-136657212D01*
X238745872Y-137431720D01*
X237893648Y-137431720D01*
X237739589Y-136657212D01*
X237731370Y-136644911D01*
X239031113Y-135345169D01*
X239094569Y-135302769D01*
X239262544Y-135051377D01*
X239306640Y-134829692D01*
X239306640Y-134829688D01*
X239321528Y-134754841D01*
X239306640Y-134679994D01*
X239306640Y-134614911D01*
X239338655Y-134662825D01*
X239995252Y-135101549D01*
X240574257Y-135216720D01*
X241565263Y-135216720D01*
X242144268Y-135101549D01*
X242800865Y-134662825D01*
X243239589Y-134006228D01*
X243393648Y-133231720D01*
X243239589Y-132457212D01*
X242800865Y-131800615D01*
X242144268Y-131361891D01*
X241565263Y-131246720D01*
X240574257Y-131246720D01*
X239995252Y-131361891D01*
X239338655Y-131800615D01*
X239306640Y-131848529D01*
X239306640Y-130414911D01*
X239338655Y-130462825D01*
X239995252Y-130901549D01*
X240574257Y-131016720D01*
X241565263Y-131016720D01*
X242144268Y-130901549D01*
X242800865Y-130462825D01*
X243239589Y-129806228D01*
X243304599Y-129479400D01*
X244442481Y-130617283D01*
X244315000Y-130925050D01*
X244315000Y-131674950D01*
X244601974Y-132367767D01*
X245132233Y-132898026D01*
X245825050Y-133185000D01*
X246574950Y-133185000D01*
X247267767Y-132898026D01*
X247430798Y-132734995D01*
X247389058Y-147102106D01*
X228003003Y-147084319D01*
X228202400Y-146602933D01*
X228202400Y-146037067D01*
X228183460Y-145991342D01*
X228512882Y-145661920D01*
X233712651Y-145661920D01*
X233767349Y-145793972D01*
X234210348Y-146236971D01*
X234789153Y-146476720D01*
X235415647Y-146476720D01*
X235994452Y-146236971D01*
X236437451Y-145793972D01*
X236677200Y-145215167D01*
X236677200Y-144588673D01*
X236437451Y-144009868D01*
X235994452Y-143566869D01*
X235415647Y-143327120D01*
X234789153Y-143327120D01*
X234210348Y-143566869D01*
X233767349Y-144009868D01*
X233712651Y-144141920D01*
X228272927Y-144141920D01*
X228198080Y-144127032D01*
X228123233Y-144141920D01*
X228123228Y-144141920D01*
X227901543Y-144186016D01*
X227650151Y-144353991D01*
X227607751Y-144417447D01*
X227108658Y-144916540D01*
X227062933Y-144897600D01*
X226497067Y-144897600D01*
X225974275Y-145114148D01*
X225574148Y-145514275D01*
X225357600Y-146037067D01*
X225357600Y-146602933D01*
X225556067Y-147082074D01*
X205404177Y-147063585D01*
X205448157Y-146997765D01*
X205475560Y-146860000D01*
X206620993Y-146860000D01*
X206695840Y-146874888D01*
X206770687Y-146860000D01*
X206770692Y-146860000D01*
X206992377Y-146815904D01*
X207243769Y-146647929D01*
X207286171Y-146584470D01*
X208817642Y-145053000D01*
X208983714Y-145053000D01*
X209364120Y-144895431D01*
X209655271Y-144604280D01*
X209812840Y-144223874D01*
X209812840Y-143812126D01*
X209655271Y-143431720D01*
X209364120Y-143140569D01*
X208983714Y-142983000D01*
X208571966Y-142983000D01*
X208191560Y-143140569D01*
X207900409Y-143431720D01*
X207742840Y-143812126D01*
X207742840Y-143978198D01*
X206381039Y-145340000D01*
X205475560Y-145340000D01*
X205448157Y-145202235D01*
X205307809Y-144992191D01*
X205097765Y-144851843D01*
X204850000Y-144802560D01*
X204150000Y-144802560D01*
X203902235Y-144851843D01*
X203692191Y-144992191D01*
X203551843Y-145202235D01*
X203550000Y-145211500D01*
X203548157Y-145202235D01*
X203407809Y-144992191D01*
X203360000Y-144960246D01*
X203360000Y-143939754D01*
X203407809Y-143907809D01*
X203548157Y-143697765D01*
X203597440Y-143450000D01*
X203597440Y-142150000D01*
X203548157Y-141902235D01*
X203407809Y-141692191D01*
X203197765Y-141551843D01*
X202950000Y-141502560D01*
X202250000Y-141502560D01*
X202002235Y-141551843D01*
X201792191Y-141692191D01*
X201651843Y-141902235D01*
X201602560Y-142150000D01*
X201602560Y-143450000D01*
X201651843Y-143697765D01*
X201792191Y-143907809D01*
X201840001Y-143939755D01*
X201840000Y-144960246D01*
X201792191Y-144992191D01*
X201651843Y-145202235D01*
X201624440Y-145340000D01*
X199871577Y-145340000D01*
X199645725Y-145114148D01*
X199122933Y-144897600D01*
X198557067Y-144897600D01*
X198034275Y-145114148D01*
X197634148Y-145514275D01*
X197417600Y-146037067D01*
X197417600Y-146602933D01*
X197605445Y-147056429D01*
X192456512Y-147051705D01*
X192642400Y-146602933D01*
X192642400Y-146037067D01*
X192623460Y-145991341D01*
X195356874Y-143257928D01*
X195420330Y-143215528D01*
X195588305Y-142964136D01*
X195632401Y-142742451D01*
X195632401Y-142742447D01*
X195647289Y-142667600D01*
X195632401Y-142592753D01*
X195632401Y-132343066D01*
X196017067Y-132502400D01*
X196582933Y-132502400D01*
X197105725Y-132285852D01*
X197505852Y-131885725D01*
X197570000Y-131730858D01*
X197634148Y-131885725D01*
X198034275Y-132285852D01*
X198557067Y-132502400D01*
X199122933Y-132502400D01*
X199645725Y-132285852D01*
X200045852Y-131885725D01*
X200110000Y-131730858D01*
X200174148Y-131885725D01*
X200574275Y-132285852D01*
X201097067Y-132502400D01*
X201662933Y-132502400D01*
X202185725Y-132285852D01*
X202585852Y-131885725D01*
X202650000Y-131730858D01*
X202714148Y-131885725D01*
X203114275Y-132285852D01*
X203637067Y-132502400D01*
X204202933Y-132502400D01*
X204725725Y-132285852D01*
X205125852Y-131885725D01*
X205190000Y-131730858D01*
X205254148Y-131885725D01*
X205654275Y-132285852D01*
X206177067Y-132502400D01*
X206742933Y-132502400D01*
X207265725Y-132285852D01*
X207665852Y-131885725D01*
X207730000Y-131730858D01*
X207794148Y-131885725D01*
X208194275Y-132285852D01*
X208717067Y-132502400D01*
X209282933Y-132502400D01*
X209805725Y-132285852D01*
X210205852Y-131885725D01*
X210270000Y-131730858D01*
X210334148Y-131885725D01*
X210734275Y-132285852D01*
X211257067Y-132502400D01*
X211822933Y-132502400D01*
X212345725Y-132285852D01*
X212745852Y-131885725D01*
X212810000Y-131730858D01*
X212874148Y-131885725D01*
X213274275Y-132285852D01*
X213797067Y-132502400D01*
X214362933Y-132502400D01*
X214885725Y-132285852D01*
X215285852Y-131885725D01*
X215350000Y-131730858D01*
X215414148Y-131885725D01*
X215814275Y-132285852D01*
X216337067Y-132502400D01*
X216902933Y-132502400D01*
X217425725Y-132285852D01*
X217825852Y-131885725D01*
X218042400Y-131362933D01*
X218042400Y-130797067D01*
X217825852Y-130274275D01*
X217425725Y-129874148D01*
X216902933Y-129657600D01*
X216617202Y-129657600D01*
X217239802Y-129035000D01*
X217405874Y-129035000D01*
X217786280Y-128877431D01*
X218077431Y-128586280D01*
X218235000Y-128205874D01*
X218235000Y-127794126D01*
X218113402Y-127500560D01*
X219355460Y-127500560D01*
X219355460Y-128699440D01*
X219404743Y-128947205D01*
X219545091Y-129157249D01*
X219755135Y-129297597D01*
X220002900Y-129346880D01*
X220800460Y-129346880D01*
X221048225Y-129297597D01*
X221258269Y-129157249D01*
X221398617Y-128947205D01*
X221447900Y-128699440D01*
X221447900Y-127500560D01*
X221398617Y-127252795D01*
X221258269Y-127042751D01*
X221048225Y-126902403D01*
X220800460Y-126853120D01*
X220002900Y-126853120D01*
X219755135Y-126902403D01*
X219545091Y-127042751D01*
X219404743Y-127252795D01*
X219355460Y-127500560D01*
X218113402Y-127500560D01*
X218077431Y-127413720D01*
X217786280Y-127122569D01*
X217506457Y-127006663D01*
X219852128Y-125013141D01*
X219935337Y-124960237D01*
X220009431Y-124854624D01*
X220089571Y-124753475D01*
X220095838Y-124731460D01*
X220108981Y-124712726D01*
X220137022Y-124586781D01*
X220172349Y-124462681D01*
X220160998Y-124364727D01*
X220243835Y-120719876D01*
X220377431Y-120586280D01*
X220535000Y-120205874D01*
X220535000Y-119960000D01*
X220749155Y-119960000D01*
X220824002Y-119974888D01*
X220898849Y-119960000D01*
X220898854Y-119960000D01*
X221120539Y-119915904D01*
X221371931Y-119747929D01*
X221414333Y-119684470D01*
X222150473Y-118948331D01*
X222213929Y-118905931D01*
X222381904Y-118654539D01*
X222426000Y-118432854D01*
X222426000Y-118432849D01*
X222440888Y-118358002D01*
X222428792Y-118297190D01*
X222463440Y-118123000D01*
X222463440Y-117795440D01*
X222791000Y-117795440D01*
X223038765Y-117746157D01*
X223248809Y-117605809D01*
X223339044Y-117470763D01*
X223494126Y-117535000D01*
X223660199Y-117535000D01*
X226340000Y-120214802D01*
X226339999Y-123228841D01*
X226113720Y-123322569D01*
X225822569Y-123613720D01*
X225665000Y-123994126D01*
X225665000Y-124405874D01*
X225822569Y-124786280D01*
X226113720Y-125077431D01*
X226494126Y-125235000D01*
X226905874Y-125235000D01*
X227286280Y-125077431D01*
X227577431Y-124786280D01*
X227735000Y-124405874D01*
X227735000Y-124217618D01*
X227815903Y-124096538D01*
X227859999Y-123874853D01*
X227859999Y-123874849D01*
X227874887Y-123800002D01*
X227859999Y-123725155D01*
X227859999Y-119974847D01*
X227874887Y-119899999D01*
X227859999Y-119825151D01*
X227859999Y-119825147D01*
X227815903Y-119603462D01*
X227815903Y-119603461D01*
X227690328Y-119415526D01*
X227647928Y-119352070D01*
X227584472Y-119309670D01*
X224932801Y-116658000D01*
X225142281Y-116658000D01*
X225290999Y-116687582D01*
X225439717Y-116658000D01*
X225578460Y-116658000D01*
X225641000Y-116670440D01*
X226391000Y-116670440D01*
X226734435Y-116602126D01*
X227025586Y-116407586D01*
X227220126Y-116116435D01*
X227235027Y-116041525D01*
X227416001Y-115770678D01*
X227596973Y-116041522D01*
G36*
X218442843Y-116600235D02*
X218393560Y-116848000D01*
X218393560Y-117148000D01*
X218442843Y-117395765D01*
X218583191Y-117605809D01*
X218793235Y-117746157D01*
X219041000Y-117795440D01*
X219368560Y-117795440D01*
X219368560Y-118123000D01*
X219417843Y-118370765D01*
X219464105Y-118440000D01*
X216874848Y-118440000D01*
X216800000Y-118425112D01*
X216725152Y-118440000D01*
X216725148Y-118440000D01*
X216551605Y-118474520D01*
X216503462Y-118484096D01*
X216316418Y-118609076D01*
X216252071Y-118652071D01*
X216209671Y-118715527D01*
X214715530Y-120209669D01*
X214652071Y-120252071D01*
X214484096Y-120503464D01*
X214440000Y-120725149D01*
X214440000Y-120725153D01*
X214425112Y-120800000D01*
X214440000Y-120874847D01*
X214440000Y-121396289D01*
X214322569Y-121513720D01*
X214165000Y-121894126D01*
X214165000Y-122305874D01*
X214322569Y-122686280D01*
X214613720Y-122977431D01*
X214994126Y-123135000D01*
X215405874Y-123135000D01*
X215786280Y-122977431D01*
X216077431Y-122686280D01*
X216235000Y-122305874D01*
X216235000Y-121894126D01*
X216077431Y-121513720D01*
X215960000Y-121396289D01*
X215960000Y-121114801D01*
X217114802Y-119960000D01*
X218465000Y-119960000D01*
X218465000Y-120205874D01*
X218622569Y-120586280D01*
X218724170Y-120687881D01*
X218647946Y-124041758D01*
X211968929Y-129718074D01*
X211822933Y-129657600D01*
X211257067Y-129657600D01*
X210734275Y-129874148D01*
X210334148Y-130274275D01*
X210270000Y-130429142D01*
X210205852Y-130274275D01*
X209805725Y-129874148D01*
X209282933Y-129657600D01*
X208717067Y-129657600D01*
X208671342Y-129676540D01*
X207670010Y-128675209D01*
X207670010Y-128048448D01*
X207684898Y-127973600D01*
X207670010Y-127898752D01*
X207670010Y-127898748D01*
X207625914Y-127677063D01*
X207457939Y-127425671D01*
X207394483Y-127383271D01*
X202910010Y-122898799D01*
X202910010Y-116919306D01*
X203394101Y-117403397D01*
X204436083Y-117835000D01*
X205563917Y-117835000D01*
X206605899Y-117403397D01*
X206881853Y-117127443D01*
X207240001Y-117232781D01*
X207240000Y-117796289D01*
X207122569Y-117913720D01*
X206965000Y-118294126D01*
X206965000Y-118705874D01*
X207122569Y-119086280D01*
X207413720Y-119377431D01*
X207794126Y-119535000D01*
X208205874Y-119535000D01*
X208586280Y-119377431D01*
X208877431Y-119086280D01*
X209035000Y-118705874D01*
X209035000Y-118421091D01*
X209115119Y-118441956D01*
X209710128Y-118359357D01*
X210228236Y-118055346D01*
X210570727Y-117602440D01*
X213215000Y-117602440D01*
X213307641Y-117584013D01*
X213581351Y-117993649D01*
X214080827Y-118327388D01*
X214521282Y-118415000D01*
X214670000Y-118444582D01*
X214818718Y-118415000D01*
X215636282Y-118415000D01*
X215785000Y-118444582D01*
X215933718Y-118415000D01*
X216374173Y-118327388D01*
X216873649Y-117993649D01*
X216957895Y-117867567D01*
X218317462Y-116508000D01*
X218504473Y-116508000D01*
X218442843Y-116600235D01*
X218442843Y-116600235D01*
G37*
X218442843Y-116600235D02*
X218393560Y-116848000D01*
X218393560Y-117148000D01*
X218442843Y-117395765D01*
X218583191Y-117605809D01*
X218793235Y-117746157D01*
X219041000Y-117795440D01*
X219368560Y-117795440D01*
X219368560Y-118123000D01*
X219417843Y-118370765D01*
X219464105Y-118440000D01*
X216874848Y-118440000D01*
X216800000Y-118425112D01*
X216725152Y-118440000D01*
X216725148Y-118440000D01*
X216551605Y-118474520D01*
X216503462Y-118484096D01*
X216316418Y-118609076D01*
X216252071Y-118652071D01*
X216209671Y-118715527D01*
X214715530Y-120209669D01*
X214652071Y-120252071D01*
X214484096Y-120503464D01*
X214440000Y-120725149D01*
X214440000Y-120725153D01*
X214425112Y-120800000D01*
X214440000Y-120874847D01*
X214440000Y-121396289D01*
X214322569Y-121513720D01*
X214165000Y-121894126D01*
X214165000Y-122305874D01*
X214322569Y-122686280D01*
X214613720Y-122977431D01*
X214994126Y-123135000D01*
X215405874Y-123135000D01*
X215786280Y-122977431D01*
X216077431Y-122686280D01*
X216235000Y-122305874D01*
X216235000Y-121894126D01*
X216077431Y-121513720D01*
X215960000Y-121396289D01*
X215960000Y-121114801D01*
X217114802Y-119960000D01*
X218465000Y-119960000D01*
X218465000Y-120205874D01*
X218622569Y-120586280D01*
X218724170Y-120687881D01*
X218647946Y-124041758D01*
X211968929Y-129718074D01*
X211822933Y-129657600D01*
X211257067Y-129657600D01*
X210734275Y-129874148D01*
X210334148Y-130274275D01*
X210270000Y-130429142D01*
X210205852Y-130274275D01*
X209805725Y-129874148D01*
X209282933Y-129657600D01*
X208717067Y-129657600D01*
X208671342Y-129676540D01*
X207670010Y-128675209D01*
X207670010Y-128048448D01*
X207684898Y-127973600D01*
X207670010Y-127898752D01*
X207670010Y-127898748D01*
X207625914Y-127677063D01*
X207457939Y-127425671D01*
X207394483Y-127383271D01*
X202910010Y-122898799D01*
X202910010Y-116919306D01*
X203394101Y-117403397D01*
X204436083Y-117835000D01*
X205563917Y-117835000D01*
X206605899Y-117403397D01*
X206881853Y-117127443D01*
X207240001Y-117232781D01*
X207240000Y-117796289D01*
X207122569Y-117913720D01*
X206965000Y-118294126D01*
X206965000Y-118705874D01*
X207122569Y-119086280D01*
X207413720Y-119377431D01*
X207794126Y-119535000D01*
X208205874Y-119535000D01*
X208586280Y-119377431D01*
X208877431Y-119086280D01*
X209035000Y-118705874D01*
X209035000Y-118421091D01*
X209115119Y-118441956D01*
X209710128Y-118359357D01*
X210228236Y-118055346D01*
X210570727Y-117602440D01*
X213215000Y-117602440D01*
X213307641Y-117584013D01*
X213581351Y-117993649D01*
X214080827Y-118327388D01*
X214521282Y-118415000D01*
X214670000Y-118444582D01*
X214818718Y-118415000D01*
X215636282Y-118415000D01*
X215785000Y-118444582D01*
X215933718Y-118415000D01*
X216374173Y-118327388D01*
X216873649Y-117993649D01*
X216957895Y-117867567D01*
X218317462Y-116508000D01*
X218504473Y-116508000D01*
X218442843Y-116600235D01*
G36*
X247562793Y-87302719D02*
X247505048Y-107178357D01*
X247335051Y-106767948D01*
X246892052Y-106324949D01*
X246313247Y-106085200D01*
X245686753Y-106085200D01*
X245107948Y-106324949D01*
X245022870Y-106410027D01*
X243231370Y-104618528D01*
X243239589Y-104606228D01*
X243393648Y-103831720D01*
X243239589Y-103057212D01*
X242800865Y-102400615D01*
X242144268Y-101961891D01*
X241565263Y-101846720D01*
X240574257Y-101846720D01*
X239995252Y-101961891D01*
X239338655Y-102400615D01*
X238899931Y-103057212D01*
X238745872Y-103831720D01*
X238899931Y-104606228D01*
X239338655Y-105262825D01*
X239995252Y-105701549D01*
X240574257Y-105816720D01*
X241565263Y-105816720D01*
X242144268Y-105701549D01*
X242156568Y-105693330D01*
X243734957Y-107271720D01*
X243242475Y-107271720D01*
X243239589Y-107257212D01*
X242800865Y-106600615D01*
X242144268Y-106161891D01*
X241565263Y-106046720D01*
X240574257Y-106046720D01*
X239995252Y-106161891D01*
X239338655Y-106600615D01*
X238899931Y-107257212D01*
X238745872Y-108031720D01*
X238899931Y-108806228D01*
X239338655Y-109462825D01*
X239995252Y-109901549D01*
X240574257Y-110016720D01*
X241565263Y-110016720D01*
X242144268Y-109901549D01*
X242800865Y-109462825D01*
X243239589Y-108806228D01*
X243242475Y-108791720D01*
X243516919Y-108791720D01*
X244479898Y-109754700D01*
X244425200Y-109886753D01*
X244425200Y-110513247D01*
X244664949Y-111092052D01*
X245107948Y-111535051D01*
X245686753Y-111774800D01*
X246313247Y-111774800D01*
X246892052Y-111535051D01*
X247335051Y-111092052D01*
X247494798Y-110706389D01*
X247439112Y-129873319D01*
X247267767Y-129701974D01*
X246574950Y-129415000D01*
X245825050Y-129415000D01*
X245517283Y-129542481D01*
X242463228Y-126488427D01*
X242800865Y-126262825D01*
X243239589Y-125606228D01*
X243393648Y-124831720D01*
X243239589Y-124057212D01*
X242800865Y-123400615D01*
X242144268Y-122961891D01*
X241565263Y-122846720D01*
X240574257Y-122846720D01*
X239995252Y-122961891D01*
X239338655Y-123400615D01*
X239306640Y-123448529D01*
X239306640Y-122014911D01*
X239338655Y-122062825D01*
X239995252Y-122501549D01*
X240574257Y-122616720D01*
X241565263Y-122616720D01*
X242144268Y-122501549D01*
X242800865Y-122062825D01*
X243239589Y-121406228D01*
X243393648Y-120631720D01*
X243239589Y-119857212D01*
X242800865Y-119200615D01*
X242144268Y-118761891D01*
X241565263Y-118646720D01*
X240574257Y-118646720D01*
X239995252Y-118761891D01*
X239338655Y-119200615D01*
X239306640Y-119248529D01*
X239306640Y-118930551D01*
X239424071Y-118813120D01*
X239581640Y-118432714D01*
X239581640Y-118020966D01*
X239424071Y-117640560D01*
X239132920Y-117349409D01*
X238752514Y-117191840D01*
X238340766Y-117191840D01*
X237960360Y-117349409D01*
X237669209Y-117640560D01*
X237511640Y-118020966D01*
X237511640Y-118432714D01*
X237669209Y-118813120D01*
X237786641Y-118930552D01*
X237786641Y-120093758D01*
X237739589Y-119857212D01*
X237300865Y-119200615D01*
X236644268Y-118761891D01*
X236065263Y-118646720D01*
X235074257Y-118646720D01*
X234495252Y-118761891D01*
X233914920Y-119149656D01*
X233914920Y-118885633D01*
X233944501Y-118736919D01*
X233912265Y-118574852D01*
X233827308Y-118147747D01*
X233493569Y-117648271D01*
X233367489Y-117564027D01*
X230029338Y-114225877D01*
X230020126Y-114179565D01*
X229825586Y-113888414D01*
X229534435Y-113693874D01*
X229191000Y-113625560D01*
X228902178Y-113625560D01*
X228816000Y-113608418D01*
X228729822Y-113625560D01*
X228441000Y-113625560D01*
X228380413Y-113637612D01*
X228056321Y-113313520D01*
X228013919Y-113250061D01*
X227762527Y-113082086D01*
X227540842Y-113037990D01*
X227540837Y-113037990D01*
X227465990Y-113023102D01*
X227391143Y-113037990D01*
X223039791Y-113037990D01*
X221532755Y-111530956D01*
X221677431Y-111386280D01*
X221835000Y-111005874D01*
X221835000Y-110594126D01*
X221677431Y-110213720D01*
X221546074Y-110082363D01*
X221510000Y-108242578D01*
X221510000Y-107813226D01*
X221547440Y-107625000D01*
X221547440Y-107297440D01*
X221875000Y-107297440D01*
X222122765Y-107248157D01*
X222332809Y-107107809D01*
X222473157Y-106897765D01*
X222483260Y-106846971D01*
X222513720Y-106877431D01*
X222894126Y-107035000D01*
X223305874Y-107035000D01*
X223686280Y-106877431D01*
X223803711Y-106760000D01*
X226187343Y-106760000D01*
X226262190Y-106774888D01*
X226337037Y-106760000D01*
X226337042Y-106760000D01*
X226558727Y-106715904D01*
X226810119Y-106547929D01*
X226852521Y-106484470D01*
X227330717Y-106006275D01*
X227660351Y-106499609D01*
X227786434Y-106583855D01*
X233277134Y-112074556D01*
X233245872Y-112231720D01*
X233399931Y-113006228D01*
X233838655Y-113662825D01*
X234495252Y-114101549D01*
X235074257Y-114216720D01*
X236065263Y-114216720D01*
X236644268Y-114101549D01*
X237300865Y-113662825D01*
X237739589Y-113006228D01*
X237893648Y-112231720D01*
X238745872Y-112231720D01*
X238899931Y-113006228D01*
X239338655Y-113662825D01*
X239995252Y-114101549D01*
X240574257Y-114216720D01*
X241565263Y-114216720D01*
X242144268Y-114101549D01*
X242800865Y-113662825D01*
X243239589Y-113006228D01*
X243393648Y-112231720D01*
X243239589Y-111457212D01*
X242800865Y-110800615D01*
X242144268Y-110361891D01*
X241565263Y-110246720D01*
X240574257Y-110246720D01*
X239995252Y-110361891D01*
X239338655Y-110800615D01*
X238899931Y-111457212D01*
X238745872Y-112231720D01*
X237893648Y-112231720D01*
X237739589Y-111457212D01*
X237300865Y-110800615D01*
X236644268Y-110361891D01*
X236065263Y-110246720D01*
X235720222Y-110246720D01*
X235490222Y-110016720D01*
X236065263Y-110016720D01*
X236644268Y-109901549D01*
X237300865Y-109462825D01*
X237739589Y-108806228D01*
X237893648Y-108031720D01*
X237739589Y-107257212D01*
X237300865Y-106600615D01*
X236644268Y-106161891D01*
X236065263Y-106046720D01*
X235074257Y-106046720D01*
X234495252Y-106161891D01*
X233838655Y-106600615D01*
X233399931Y-107257212D01*
X233288901Y-107815399D01*
X231483501Y-106010000D01*
X234752762Y-106010000D01*
X234901480Y-106039582D01*
X235050198Y-106010000D01*
X235490653Y-105922388D01*
X235648796Y-105816720D01*
X236065263Y-105816720D01*
X236644268Y-105701549D01*
X237300865Y-105262825D01*
X237739589Y-104606228D01*
X237893648Y-103831720D01*
X237739589Y-103057212D01*
X237300865Y-102400615D01*
X236644268Y-101961891D01*
X236065263Y-101846720D01*
X235074257Y-101846720D01*
X234495252Y-101961891D01*
X233838655Y-102400615D01*
X233444841Y-102990000D01*
X229186540Y-102990000D01*
X229124000Y-102977560D01*
X228835179Y-102977560D01*
X228749000Y-102960418D01*
X228662822Y-102977560D01*
X228374000Y-102977560D01*
X228260000Y-103000236D01*
X228260000Y-102814801D01*
X228914802Y-102160000D01*
X229226633Y-102160000D01*
X229301480Y-102174888D01*
X229376327Y-102160000D01*
X229376332Y-102160000D01*
X229598017Y-102115904D01*
X229849409Y-101947929D01*
X229891811Y-101884470D01*
X232144561Y-99631720D01*
X233245872Y-99631720D01*
X233399931Y-100406228D01*
X233838655Y-101062825D01*
X234495252Y-101501549D01*
X235074257Y-101616720D01*
X236065263Y-101616720D01*
X236644268Y-101501549D01*
X237300865Y-101062825D01*
X237739589Y-100406228D01*
X237893648Y-99631720D01*
X237739589Y-98857212D01*
X237300865Y-98200615D01*
X236644268Y-97761891D01*
X236065263Y-97646720D01*
X235074257Y-97646720D01*
X234495252Y-97761891D01*
X233838655Y-98200615D01*
X233399931Y-98857212D01*
X233245872Y-99631720D01*
X232144561Y-99631720D01*
X234482952Y-97293330D01*
X234495252Y-97301549D01*
X235074257Y-97416720D01*
X236065263Y-97416720D01*
X236644268Y-97301549D01*
X237300865Y-96862825D01*
X237739589Y-96206228D01*
X237893648Y-95431720D01*
X238745872Y-95431720D01*
X238899931Y-96206228D01*
X239338655Y-96862825D01*
X239995252Y-97301549D01*
X240574257Y-97416720D01*
X241565263Y-97416720D01*
X242144268Y-97301549D01*
X242800865Y-96862825D01*
X243239589Y-96206228D01*
X243393648Y-95431720D01*
X243239589Y-94657212D01*
X242800865Y-94000615D01*
X242144268Y-93561891D01*
X241565263Y-93446720D01*
X240574257Y-93446720D01*
X239995252Y-93561891D01*
X239338655Y-94000615D01*
X238899931Y-94657212D01*
X238745872Y-95431720D01*
X237893648Y-95431720D01*
X237739589Y-94657212D01*
X237300865Y-94000615D01*
X236644268Y-93561891D01*
X236065263Y-93446720D01*
X235619475Y-93446720D01*
X235866297Y-93397624D01*
X236117689Y-93229649D01*
X236118016Y-93229160D01*
X236969759Y-93229160D01*
X237313195Y-93160846D01*
X237604346Y-92966306D01*
X237754409Y-92741720D01*
X239456730Y-92741720D01*
X239995252Y-93101549D01*
X240574257Y-93216720D01*
X241565263Y-93216720D01*
X242144268Y-93101549D01*
X242800865Y-92662825D01*
X243239589Y-92006228D01*
X243393648Y-91231720D01*
X243239589Y-90457212D01*
X242800865Y-89800615D01*
X242144268Y-89361891D01*
X241565263Y-89246720D01*
X240574257Y-89246720D01*
X239995252Y-89361891D01*
X239456730Y-89721720D01*
X237754409Y-89721720D01*
X237604346Y-89497134D01*
X237313195Y-89302594D01*
X236969759Y-89234280D01*
X234169761Y-89234280D01*
X233826325Y-89302594D01*
X233535174Y-89497134D01*
X233340634Y-89788285D01*
X233300510Y-89990000D01*
X227186540Y-89990000D01*
X227124000Y-89977560D01*
X226374000Y-89977560D01*
X226030565Y-90045874D01*
X225739414Y-90240414D01*
X225544874Y-90531565D01*
X225529973Y-90606475D01*
X225349000Y-90877321D01*
X225168027Y-90606475D01*
X225153126Y-90531565D01*
X224958586Y-90240414D01*
X224667435Y-90045874D01*
X224621125Y-90036662D01*
X222473515Y-87889054D01*
X222389270Y-87762972D01*
X221889794Y-87429233D01*
X221449339Y-87341621D01*
X221300621Y-87312039D01*
X221151903Y-87341621D01*
X218301927Y-87341621D01*
X218142958Y-87310000D01*
X217994240Y-87280418D01*
X217845522Y-87310000D01*
X217742290Y-87310000D01*
X217301835Y-87397612D01*
X217114837Y-87522560D01*
X217016000Y-87522560D01*
X216916000Y-87542451D01*
X216816000Y-87522560D01*
X216793081Y-87522560D01*
X216577755Y-87307234D01*
X216547152Y-87261434D01*
X247562793Y-87302719D01*
X247562793Y-87302719D01*
G37*
X247562793Y-87302719D02*
X247505048Y-107178357D01*
X247335051Y-106767948D01*
X246892052Y-106324949D01*
X246313247Y-106085200D01*
X245686753Y-106085200D01*
X245107948Y-106324949D01*
X245022870Y-106410027D01*
X243231370Y-104618528D01*
X243239589Y-104606228D01*
X243393648Y-103831720D01*
X243239589Y-103057212D01*
X242800865Y-102400615D01*
X242144268Y-101961891D01*
X241565263Y-101846720D01*
X240574257Y-101846720D01*
X239995252Y-101961891D01*
X239338655Y-102400615D01*
X238899931Y-103057212D01*
X238745872Y-103831720D01*
X238899931Y-104606228D01*
X239338655Y-105262825D01*
X239995252Y-105701549D01*
X240574257Y-105816720D01*
X241565263Y-105816720D01*
X242144268Y-105701549D01*
X242156568Y-105693330D01*
X243734957Y-107271720D01*
X243242475Y-107271720D01*
X243239589Y-107257212D01*
X242800865Y-106600615D01*
X242144268Y-106161891D01*
X241565263Y-106046720D01*
X240574257Y-106046720D01*
X239995252Y-106161891D01*
X239338655Y-106600615D01*
X238899931Y-107257212D01*
X238745872Y-108031720D01*
X238899931Y-108806228D01*
X239338655Y-109462825D01*
X239995252Y-109901549D01*
X240574257Y-110016720D01*
X241565263Y-110016720D01*
X242144268Y-109901549D01*
X242800865Y-109462825D01*
X243239589Y-108806228D01*
X243242475Y-108791720D01*
X243516919Y-108791720D01*
X244479898Y-109754700D01*
X244425200Y-109886753D01*
X244425200Y-110513247D01*
X244664949Y-111092052D01*
X245107948Y-111535051D01*
X245686753Y-111774800D01*
X246313247Y-111774800D01*
X246892052Y-111535051D01*
X247335051Y-111092052D01*
X247494798Y-110706389D01*
X247439112Y-129873319D01*
X247267767Y-129701974D01*
X246574950Y-129415000D01*
X245825050Y-129415000D01*
X245517283Y-129542481D01*
X242463228Y-126488427D01*
X242800865Y-126262825D01*
X243239589Y-125606228D01*
X243393648Y-124831720D01*
X243239589Y-124057212D01*
X242800865Y-123400615D01*
X242144268Y-122961891D01*
X241565263Y-122846720D01*
X240574257Y-122846720D01*
X239995252Y-122961891D01*
X239338655Y-123400615D01*
X239306640Y-123448529D01*
X239306640Y-122014911D01*
X239338655Y-122062825D01*
X239995252Y-122501549D01*
X240574257Y-122616720D01*
X241565263Y-122616720D01*
X242144268Y-122501549D01*
X242800865Y-122062825D01*
X243239589Y-121406228D01*
X243393648Y-120631720D01*
X243239589Y-119857212D01*
X242800865Y-119200615D01*
X242144268Y-118761891D01*
X241565263Y-118646720D01*
X240574257Y-118646720D01*
X239995252Y-118761891D01*
X239338655Y-119200615D01*
X239306640Y-119248529D01*
X239306640Y-118930551D01*
X239424071Y-118813120D01*
X239581640Y-118432714D01*
X239581640Y-118020966D01*
X239424071Y-117640560D01*
X239132920Y-117349409D01*
X238752514Y-117191840D01*
X238340766Y-117191840D01*
X237960360Y-117349409D01*
X237669209Y-117640560D01*
X237511640Y-118020966D01*
X237511640Y-118432714D01*
X237669209Y-118813120D01*
X237786641Y-118930552D01*
X237786641Y-120093758D01*
X237739589Y-119857212D01*
X237300865Y-119200615D01*
X236644268Y-118761891D01*
X236065263Y-118646720D01*
X235074257Y-118646720D01*
X234495252Y-118761891D01*
X233914920Y-119149656D01*
X233914920Y-118885633D01*
X233944501Y-118736919D01*
X233912265Y-118574852D01*
X233827308Y-118147747D01*
X233493569Y-117648271D01*
X233367489Y-117564027D01*
X230029338Y-114225877D01*
X230020126Y-114179565D01*
X229825586Y-113888414D01*
X229534435Y-113693874D01*
X229191000Y-113625560D01*
X228902178Y-113625560D01*
X228816000Y-113608418D01*
X228729822Y-113625560D01*
X228441000Y-113625560D01*
X228380413Y-113637612D01*
X228056321Y-113313520D01*
X228013919Y-113250061D01*
X227762527Y-113082086D01*
X227540842Y-113037990D01*
X227540837Y-113037990D01*
X227465990Y-113023102D01*
X227391143Y-113037990D01*
X223039791Y-113037990D01*
X221532755Y-111530956D01*
X221677431Y-111386280D01*
X221835000Y-111005874D01*
X221835000Y-110594126D01*
X221677431Y-110213720D01*
X221546074Y-110082363D01*
X221510000Y-108242578D01*
X221510000Y-107813226D01*
X221547440Y-107625000D01*
X221547440Y-107297440D01*
X221875000Y-107297440D01*
X222122765Y-107248157D01*
X222332809Y-107107809D01*
X222473157Y-106897765D01*
X222483260Y-106846971D01*
X222513720Y-106877431D01*
X222894126Y-107035000D01*
X223305874Y-107035000D01*
X223686280Y-106877431D01*
X223803711Y-106760000D01*
X226187343Y-106760000D01*
X226262190Y-106774888D01*
X226337037Y-106760000D01*
X226337042Y-106760000D01*
X226558727Y-106715904D01*
X226810119Y-106547929D01*
X226852521Y-106484470D01*
X227330717Y-106006275D01*
X227660351Y-106499609D01*
X227786434Y-106583855D01*
X233277134Y-112074556D01*
X233245872Y-112231720D01*
X233399931Y-113006228D01*
X233838655Y-113662825D01*
X234495252Y-114101549D01*
X235074257Y-114216720D01*
X236065263Y-114216720D01*
X236644268Y-114101549D01*
X237300865Y-113662825D01*
X237739589Y-113006228D01*
X237893648Y-112231720D01*
X238745872Y-112231720D01*
X238899931Y-113006228D01*
X239338655Y-113662825D01*
X239995252Y-114101549D01*
X240574257Y-114216720D01*
X241565263Y-114216720D01*
X242144268Y-114101549D01*
X242800865Y-113662825D01*
X243239589Y-113006228D01*
X243393648Y-112231720D01*
X243239589Y-111457212D01*
X242800865Y-110800615D01*
X242144268Y-110361891D01*
X241565263Y-110246720D01*
X240574257Y-110246720D01*
X239995252Y-110361891D01*
X239338655Y-110800615D01*
X238899931Y-111457212D01*
X238745872Y-112231720D01*
X237893648Y-112231720D01*
X237739589Y-111457212D01*
X237300865Y-110800615D01*
X236644268Y-110361891D01*
X236065263Y-110246720D01*
X235720222Y-110246720D01*
X235490222Y-110016720D01*
X236065263Y-110016720D01*
X236644268Y-109901549D01*
X237300865Y-109462825D01*
X237739589Y-108806228D01*
X237893648Y-108031720D01*
X237739589Y-107257212D01*
X237300865Y-106600615D01*
X236644268Y-106161891D01*
X236065263Y-106046720D01*
X235074257Y-106046720D01*
X234495252Y-106161891D01*
X233838655Y-106600615D01*
X233399931Y-107257212D01*
X233288901Y-107815399D01*
X231483501Y-106010000D01*
X234752762Y-106010000D01*
X234901480Y-106039582D01*
X235050198Y-106010000D01*
X235490653Y-105922388D01*
X235648796Y-105816720D01*
X236065263Y-105816720D01*
X236644268Y-105701549D01*
X237300865Y-105262825D01*
X237739589Y-104606228D01*
X237893648Y-103831720D01*
X237739589Y-103057212D01*
X237300865Y-102400615D01*
X236644268Y-101961891D01*
X236065263Y-101846720D01*
X235074257Y-101846720D01*
X234495252Y-101961891D01*
X233838655Y-102400615D01*
X233444841Y-102990000D01*
X229186540Y-102990000D01*
X229124000Y-102977560D01*
X228835179Y-102977560D01*
X228749000Y-102960418D01*
X228662822Y-102977560D01*
X228374000Y-102977560D01*
X228260000Y-103000236D01*
X228260000Y-102814801D01*
X228914802Y-102160000D01*
X229226633Y-102160000D01*
X229301480Y-102174888D01*
X229376327Y-102160000D01*
X229376332Y-102160000D01*
X229598017Y-102115904D01*
X229849409Y-101947929D01*
X229891811Y-101884470D01*
X232144561Y-99631720D01*
X233245872Y-99631720D01*
X233399931Y-100406228D01*
X233838655Y-101062825D01*
X234495252Y-101501549D01*
X235074257Y-101616720D01*
X236065263Y-101616720D01*
X236644268Y-101501549D01*
X237300865Y-101062825D01*
X237739589Y-100406228D01*
X237893648Y-99631720D01*
X237739589Y-98857212D01*
X237300865Y-98200615D01*
X236644268Y-97761891D01*
X236065263Y-97646720D01*
X235074257Y-97646720D01*
X234495252Y-97761891D01*
X233838655Y-98200615D01*
X233399931Y-98857212D01*
X233245872Y-99631720D01*
X232144561Y-99631720D01*
X234482952Y-97293330D01*
X234495252Y-97301549D01*
X235074257Y-97416720D01*
X236065263Y-97416720D01*
X236644268Y-97301549D01*
X237300865Y-96862825D01*
X237739589Y-96206228D01*
X237893648Y-95431720D01*
X238745872Y-95431720D01*
X238899931Y-96206228D01*
X239338655Y-96862825D01*
X239995252Y-97301549D01*
X240574257Y-97416720D01*
X241565263Y-97416720D01*
X242144268Y-97301549D01*
X242800865Y-96862825D01*
X243239589Y-96206228D01*
X243393648Y-95431720D01*
X243239589Y-94657212D01*
X242800865Y-94000615D01*
X242144268Y-93561891D01*
X241565263Y-93446720D01*
X240574257Y-93446720D01*
X239995252Y-93561891D01*
X239338655Y-94000615D01*
X238899931Y-94657212D01*
X238745872Y-95431720D01*
X237893648Y-95431720D01*
X237739589Y-94657212D01*
X237300865Y-94000615D01*
X236644268Y-93561891D01*
X236065263Y-93446720D01*
X235619475Y-93446720D01*
X235866297Y-93397624D01*
X236117689Y-93229649D01*
X236118016Y-93229160D01*
X236969759Y-93229160D01*
X237313195Y-93160846D01*
X237604346Y-92966306D01*
X237754409Y-92741720D01*
X239456730Y-92741720D01*
X239995252Y-93101549D01*
X240574257Y-93216720D01*
X241565263Y-93216720D01*
X242144268Y-93101549D01*
X242800865Y-92662825D01*
X243239589Y-92006228D01*
X243393648Y-91231720D01*
X243239589Y-90457212D01*
X242800865Y-89800615D01*
X242144268Y-89361891D01*
X241565263Y-89246720D01*
X240574257Y-89246720D01*
X239995252Y-89361891D01*
X239456730Y-89721720D01*
X237754409Y-89721720D01*
X237604346Y-89497134D01*
X237313195Y-89302594D01*
X236969759Y-89234280D01*
X234169761Y-89234280D01*
X233826325Y-89302594D01*
X233535174Y-89497134D01*
X233340634Y-89788285D01*
X233300510Y-89990000D01*
X227186540Y-89990000D01*
X227124000Y-89977560D01*
X226374000Y-89977560D01*
X226030565Y-90045874D01*
X225739414Y-90240414D01*
X225544874Y-90531565D01*
X225529973Y-90606475D01*
X225349000Y-90877321D01*
X225168027Y-90606475D01*
X225153126Y-90531565D01*
X224958586Y-90240414D01*
X224667435Y-90045874D01*
X224621125Y-90036662D01*
X222473515Y-87889054D01*
X222389270Y-87762972D01*
X221889794Y-87429233D01*
X221449339Y-87341621D01*
X221300621Y-87312039D01*
X221151903Y-87341621D01*
X218301927Y-87341621D01*
X218142958Y-87310000D01*
X217994240Y-87280418D01*
X217845522Y-87310000D01*
X217742290Y-87310000D01*
X217301835Y-87397612D01*
X217114837Y-87522560D01*
X217016000Y-87522560D01*
X216916000Y-87542451D01*
X216816000Y-87522560D01*
X216793081Y-87522560D01*
X216577755Y-87307234D01*
X216547152Y-87261434D01*
X247562793Y-87302719D01*
G36*
X213452180Y-110400050D02*
X213501463Y-110647815D01*
X213641811Y-110857859D01*
X213840000Y-110990286D01*
X213840001Y-112181347D01*
X213787235Y-112191843D01*
X213577191Y-112332191D01*
X213488910Y-112464312D01*
X213462765Y-112446843D01*
X213215000Y-112397560D01*
X210216488Y-112397560D01*
X210172809Y-112332191D01*
X209962765Y-112191843D01*
X209715000Y-112142560D01*
X208695000Y-112142560D01*
X208447235Y-112191843D01*
X208237191Y-112332191D01*
X208096843Y-112542235D01*
X208047560Y-112790000D01*
X208047560Y-112855000D01*
X206864296Y-112855000D01*
X206605899Y-112596603D01*
X205642234Y-112197440D01*
X206050000Y-112197440D01*
X206297765Y-112148157D01*
X206507809Y-112007809D01*
X206648157Y-111797765D01*
X206650000Y-111788500D01*
X206651843Y-111797765D01*
X206792191Y-112007809D01*
X207002235Y-112148157D01*
X207250000Y-112197440D01*
X207950000Y-112197440D01*
X208197765Y-112148157D01*
X208407809Y-112007809D01*
X208548157Y-111797765D01*
X208575560Y-111660000D01*
X210473013Y-111660000D01*
X210547860Y-111674888D01*
X210622707Y-111660000D01*
X210622712Y-111660000D01*
X210844397Y-111615904D01*
X211095789Y-111447929D01*
X211138191Y-111384470D01*
X212134453Y-110388209D01*
X212197909Y-110345809D01*
X212365501Y-110094990D01*
X212900740Y-110094990D01*
X213148505Y-110045707D01*
X213358549Y-109905359D01*
X213452180Y-109765231D01*
X213452180Y-110400050D01*
X213452180Y-110400050D01*
G37*
X213452180Y-110400050D02*
X213501463Y-110647815D01*
X213641811Y-110857859D01*
X213840000Y-110990286D01*
X213840001Y-112181347D01*
X213787235Y-112191843D01*
X213577191Y-112332191D01*
X213488910Y-112464312D01*
X213462765Y-112446843D01*
X213215000Y-112397560D01*
X210216488Y-112397560D01*
X210172809Y-112332191D01*
X209962765Y-112191843D01*
X209715000Y-112142560D01*
X208695000Y-112142560D01*
X208447235Y-112191843D01*
X208237191Y-112332191D01*
X208096843Y-112542235D01*
X208047560Y-112790000D01*
X208047560Y-112855000D01*
X206864296Y-112855000D01*
X206605899Y-112596603D01*
X205642234Y-112197440D01*
X206050000Y-112197440D01*
X206297765Y-112148157D01*
X206507809Y-112007809D01*
X206648157Y-111797765D01*
X206650000Y-111788500D01*
X206651843Y-111797765D01*
X206792191Y-112007809D01*
X207002235Y-112148157D01*
X207250000Y-112197440D01*
X207950000Y-112197440D01*
X208197765Y-112148157D01*
X208407809Y-112007809D01*
X208548157Y-111797765D01*
X208575560Y-111660000D01*
X210473013Y-111660000D01*
X210547860Y-111674888D01*
X210622707Y-111660000D01*
X210622712Y-111660000D01*
X210844397Y-111615904D01*
X211095789Y-111447929D01*
X211138191Y-111384470D01*
X212134453Y-110388209D01*
X212197909Y-110345809D01*
X212365501Y-110094990D01*
X212900740Y-110094990D01*
X213148505Y-110045707D01*
X213358549Y-109905359D01*
X213452180Y-109765231D01*
X213452180Y-110400050D01*
G36*
X210210383Y-105919975D02*
X210350731Y-106130019D01*
X210525912Y-106247072D01*
X210465000Y-106394126D01*
X210465000Y-106805874D01*
X210622569Y-107186280D01*
X210913720Y-107477431D01*
X211294126Y-107635000D01*
X211705874Y-107635000D01*
X212086280Y-107477431D01*
X212377431Y-107186280D01*
X212535000Y-106805874D01*
X212535000Y-106394126D01*
X212456217Y-106203928D01*
X212464210Y-106198588D01*
X212489905Y-106215757D01*
X212737670Y-106265040D01*
X214111343Y-106265040D01*
X214119315Y-106270367D01*
X214367080Y-106319650D01*
X215073200Y-106319650D01*
X215320965Y-106270367D01*
X215531009Y-106130019D01*
X215611204Y-106010000D01*
X217588473Y-106010000D01*
X217526843Y-106102235D01*
X217477560Y-106350000D01*
X217477560Y-106650000D01*
X217526843Y-106897765D01*
X217667191Y-107107809D01*
X217877235Y-107248157D01*
X218125000Y-107297440D01*
X218452560Y-107297440D01*
X218452560Y-107625000D01*
X218501843Y-107872765D01*
X218642191Y-108082809D01*
X218852235Y-108223157D01*
X219100000Y-108272440D01*
X219400000Y-108272440D01*
X219500000Y-108252549D01*
X219600000Y-108272440D01*
X219900000Y-108272440D01*
X219989943Y-108254549D01*
X219990000Y-108257436D01*
X219990000Y-108324851D01*
X219991466Y-108332224D01*
X220025188Y-110052019D01*
X219923535Y-109984096D01*
X219701850Y-109940000D01*
X219701845Y-109940000D01*
X219626998Y-109925112D01*
X219552151Y-109940000D01*
X218339754Y-109940000D01*
X218307809Y-109892191D01*
X218097765Y-109751843D01*
X217850000Y-109702560D01*
X216550000Y-109702560D01*
X216302235Y-109751843D01*
X216092191Y-109892191D01*
X215951843Y-110102235D01*
X215902560Y-110350000D01*
X215902560Y-111050000D01*
X215951843Y-111297765D01*
X216092191Y-111507809D01*
X216302235Y-111648157D01*
X216311500Y-111650000D01*
X216302235Y-111651843D01*
X216092191Y-111792191D01*
X215951843Y-112002235D01*
X215902560Y-112250000D01*
X215902560Y-112335000D01*
X215764686Y-112335000D01*
X215762809Y-112332191D01*
X215552765Y-112191843D01*
X215360000Y-112153500D01*
X215360000Y-110990286D01*
X215558189Y-110857859D01*
X215698537Y-110647815D01*
X215747820Y-110400050D01*
X215747820Y-109599950D01*
X215698537Y-109352185D01*
X215558189Y-109142141D01*
X215348145Y-109001793D01*
X215100380Y-108952510D01*
X214099620Y-108952510D01*
X213851855Y-109001793D01*
X213641811Y-109142141D01*
X213548180Y-109282269D01*
X213548180Y-108647450D01*
X213498897Y-108399685D01*
X213358549Y-108189641D01*
X213148505Y-108049293D01*
X212900740Y-108000010D01*
X211899980Y-108000010D01*
X211652215Y-108049293D01*
X211442171Y-108189641D01*
X211301823Y-108399685D01*
X211252540Y-108647450D01*
X211252540Y-109020189D01*
X211165509Y-109107220D01*
X211102051Y-109149621D01*
X210934076Y-109401013D01*
X210924648Y-109448410D01*
X210233059Y-110140000D01*
X208575560Y-110140000D01*
X208548157Y-110002235D01*
X208413027Y-109800000D01*
X208548157Y-109597765D01*
X208570319Y-109486350D01*
X208713900Y-109629931D01*
X209094306Y-109787500D01*
X209506054Y-109787500D01*
X209886460Y-109629931D01*
X210177611Y-109338780D01*
X210335180Y-108958374D01*
X210335180Y-108546626D01*
X210177611Y-108166220D01*
X209886460Y-107875069D01*
X209506054Y-107717500D01*
X209094306Y-107717500D01*
X208713900Y-107875069D01*
X208648969Y-107940000D01*
X208575560Y-107940000D01*
X208548157Y-107802235D01*
X208407809Y-107592191D01*
X208197765Y-107451843D01*
X207950000Y-107402560D01*
X207250000Y-107402560D01*
X207002235Y-107451843D01*
X206792191Y-107592191D01*
X206651843Y-107802235D01*
X206650000Y-107811500D01*
X206648157Y-107802235D01*
X206507809Y-107592191D01*
X206501103Y-107587710D01*
X206535000Y-107505874D01*
X206535000Y-107432764D01*
X206605899Y-107403397D01*
X207403397Y-106605899D01*
X207787000Y-105679800D01*
X210162610Y-105679800D01*
X210210383Y-105919975D01*
X210210383Y-105919975D01*
G37*
X210210383Y-105919975D02*
X210350731Y-106130019D01*
X210525912Y-106247072D01*
X210465000Y-106394126D01*
X210465000Y-106805874D01*
X210622569Y-107186280D01*
X210913720Y-107477431D01*
X211294126Y-107635000D01*
X211705874Y-107635000D01*
X212086280Y-107477431D01*
X212377431Y-107186280D01*
X212535000Y-106805874D01*
X212535000Y-106394126D01*
X212456217Y-106203928D01*
X212464210Y-106198588D01*
X212489905Y-106215757D01*
X212737670Y-106265040D01*
X214111343Y-106265040D01*
X214119315Y-106270367D01*
X214367080Y-106319650D01*
X215073200Y-106319650D01*
X215320965Y-106270367D01*
X215531009Y-106130019D01*
X215611204Y-106010000D01*
X217588473Y-106010000D01*
X217526843Y-106102235D01*
X217477560Y-106350000D01*
X217477560Y-106650000D01*
X217526843Y-106897765D01*
X217667191Y-107107809D01*
X217877235Y-107248157D01*
X218125000Y-107297440D01*
X218452560Y-107297440D01*
X218452560Y-107625000D01*
X218501843Y-107872765D01*
X218642191Y-108082809D01*
X218852235Y-108223157D01*
X219100000Y-108272440D01*
X219400000Y-108272440D01*
X219500000Y-108252549D01*
X219600000Y-108272440D01*
X219900000Y-108272440D01*
X219989943Y-108254549D01*
X219990000Y-108257436D01*
X219990000Y-108324851D01*
X219991466Y-108332224D01*
X220025188Y-110052019D01*
X219923535Y-109984096D01*
X219701850Y-109940000D01*
X219701845Y-109940000D01*
X219626998Y-109925112D01*
X219552151Y-109940000D01*
X218339754Y-109940000D01*
X218307809Y-109892191D01*
X218097765Y-109751843D01*
X217850000Y-109702560D01*
X216550000Y-109702560D01*
X216302235Y-109751843D01*
X216092191Y-109892191D01*
X215951843Y-110102235D01*
X215902560Y-110350000D01*
X215902560Y-111050000D01*
X215951843Y-111297765D01*
X216092191Y-111507809D01*
X216302235Y-111648157D01*
X216311500Y-111650000D01*
X216302235Y-111651843D01*
X216092191Y-111792191D01*
X215951843Y-112002235D01*
X215902560Y-112250000D01*
X215902560Y-112335000D01*
X215764686Y-112335000D01*
X215762809Y-112332191D01*
X215552765Y-112191843D01*
X215360000Y-112153500D01*
X215360000Y-110990286D01*
X215558189Y-110857859D01*
X215698537Y-110647815D01*
X215747820Y-110400050D01*
X215747820Y-109599950D01*
X215698537Y-109352185D01*
X215558189Y-109142141D01*
X215348145Y-109001793D01*
X215100380Y-108952510D01*
X214099620Y-108952510D01*
X213851855Y-109001793D01*
X213641811Y-109142141D01*
X213548180Y-109282269D01*
X213548180Y-108647450D01*
X213498897Y-108399685D01*
X213358549Y-108189641D01*
X213148505Y-108049293D01*
X212900740Y-108000010D01*
X211899980Y-108000010D01*
X211652215Y-108049293D01*
X211442171Y-108189641D01*
X211301823Y-108399685D01*
X211252540Y-108647450D01*
X211252540Y-109020189D01*
X211165509Y-109107220D01*
X211102051Y-109149621D01*
X210934076Y-109401013D01*
X210924648Y-109448410D01*
X210233059Y-110140000D01*
X208575560Y-110140000D01*
X208548157Y-110002235D01*
X208413027Y-109800000D01*
X208548157Y-109597765D01*
X208570319Y-109486350D01*
X208713900Y-109629931D01*
X209094306Y-109787500D01*
X209506054Y-109787500D01*
X209886460Y-109629931D01*
X210177611Y-109338780D01*
X210335180Y-108958374D01*
X210335180Y-108546626D01*
X210177611Y-108166220D01*
X209886460Y-107875069D01*
X209506054Y-107717500D01*
X209094306Y-107717500D01*
X208713900Y-107875069D01*
X208648969Y-107940000D01*
X208575560Y-107940000D01*
X208548157Y-107802235D01*
X208407809Y-107592191D01*
X208197765Y-107451843D01*
X207950000Y-107402560D01*
X207250000Y-107402560D01*
X207002235Y-107451843D01*
X206792191Y-107592191D01*
X206651843Y-107802235D01*
X206650000Y-107811500D01*
X206648157Y-107802235D01*
X206507809Y-107592191D01*
X206501103Y-107587710D01*
X206535000Y-107505874D01*
X206535000Y-107432764D01*
X206605899Y-107403397D01*
X207403397Y-106605899D01*
X207787000Y-105679800D01*
X210162610Y-105679800D01*
X210210383Y-105919975D01*
G36*
X225529973Y-92393525D02*
X225544874Y-92468435D01*
X225739414Y-92759586D01*
X226030565Y-92954126D01*
X226374000Y-93022440D01*
X227124000Y-93022440D01*
X227186540Y-93010000D01*
X233600567Y-93010000D01*
X233826325Y-93160846D01*
X234169761Y-93229160D01*
X235021505Y-93229160D01*
X235021832Y-93229649D01*
X235273224Y-93397624D01*
X235520045Y-93446720D01*
X235074257Y-93446720D01*
X234495252Y-93561891D01*
X233838655Y-94000615D01*
X233399931Y-94657212D01*
X233245872Y-95431720D01*
X233399931Y-96206228D01*
X233408150Y-96218528D01*
X228986679Y-100640000D01*
X228674847Y-100640000D01*
X228600000Y-100625112D01*
X228525153Y-100640000D01*
X215639314Y-100640000D01*
X215750657Y-100473365D01*
X215799940Y-100225600D01*
X215799940Y-99976680D01*
X215774931Y-99850950D01*
X215799940Y-99725220D01*
X215799940Y-99476300D01*
X215776807Y-99360000D01*
X216525153Y-99360000D01*
X216600000Y-99374888D01*
X216674847Y-99360000D01*
X216674852Y-99360000D01*
X216896537Y-99315904D01*
X217147929Y-99147929D01*
X217190331Y-99084470D01*
X217900473Y-98374329D01*
X217963929Y-98331929D01*
X218131904Y-98080537D01*
X218172107Y-97878424D01*
X218378809Y-97740309D01*
X218519157Y-97530265D01*
X218568440Y-97282500D01*
X218568440Y-96520500D01*
X218565456Y-96505500D01*
X220304782Y-96505500D01*
X220453500Y-96535082D01*
X220602218Y-96505500D01*
X221042673Y-96417888D01*
X221542149Y-96084149D01*
X221626395Y-95958067D01*
X224621125Y-92963338D01*
X224667435Y-92954126D01*
X224958586Y-92759586D01*
X225153126Y-92468435D01*
X225168027Y-92393524D01*
X225349000Y-92122679D01*
X225529973Y-92393525D01*
X225529973Y-92393525D01*
G37*
X225529973Y-92393525D02*
X225544874Y-92468435D01*
X225739414Y-92759586D01*
X226030565Y-92954126D01*
X226374000Y-93022440D01*
X227124000Y-93022440D01*
X227186540Y-93010000D01*
X233600567Y-93010000D01*
X233826325Y-93160846D01*
X234169761Y-93229160D01*
X235021505Y-93229160D01*
X235021832Y-93229649D01*
X235273224Y-93397624D01*
X235520045Y-93446720D01*
X235074257Y-93446720D01*
X234495252Y-93561891D01*
X233838655Y-94000615D01*
X233399931Y-94657212D01*
X233245872Y-95431720D01*
X233399931Y-96206228D01*
X233408150Y-96218528D01*
X228986679Y-100640000D01*
X228674847Y-100640000D01*
X228600000Y-100625112D01*
X228525153Y-100640000D01*
X215639314Y-100640000D01*
X215750657Y-100473365D01*
X215799940Y-100225600D01*
X215799940Y-99976680D01*
X215774931Y-99850950D01*
X215799940Y-99725220D01*
X215799940Y-99476300D01*
X215776807Y-99360000D01*
X216525153Y-99360000D01*
X216600000Y-99374888D01*
X216674847Y-99360000D01*
X216674852Y-99360000D01*
X216896537Y-99315904D01*
X217147929Y-99147929D01*
X217190331Y-99084470D01*
X217900473Y-98374329D01*
X217963929Y-98331929D01*
X218131904Y-98080537D01*
X218172107Y-97878424D01*
X218378809Y-97740309D01*
X218519157Y-97530265D01*
X218568440Y-97282500D01*
X218568440Y-96520500D01*
X218565456Y-96505500D01*
X220304782Y-96505500D01*
X220453500Y-96535082D01*
X220602218Y-96505500D01*
X221042673Y-96417888D01*
X221542149Y-96084149D01*
X221626395Y-95958067D01*
X224621125Y-92963338D01*
X224667435Y-92954126D01*
X224958586Y-92759586D01*
X225153126Y-92468435D01*
X225168027Y-92393524D01*
X225349000Y-92122679D01*
X225529973Y-92393525D01*
G36*
X208742760Y-89121970D02*
X208767264Y-89245160D01*
X208742760Y-89368350D01*
X208742760Y-89772210D01*
X208792043Y-90019975D01*
X208932391Y-90230019D01*
X209142435Y-90370367D01*
X209172375Y-90376322D01*
X209165000Y-90394126D01*
X209165000Y-90805874D01*
X209322569Y-91186280D01*
X209613720Y-91477431D01*
X209994126Y-91635000D01*
X210405874Y-91635000D01*
X210786280Y-91477431D01*
X211077431Y-91186280D01*
X211235000Y-90805874D01*
X211235000Y-90394126D01*
X211214299Y-90344148D01*
X211319330Y-90365040D01*
X212026205Y-90365040D01*
X212352982Y-90430040D01*
X212501700Y-90459622D01*
X212650418Y-90430040D01*
X213450518Y-90430040D01*
X213502752Y-90419650D01*
X213654860Y-90419650D01*
X213902625Y-90370367D01*
X214112669Y-90230019D01*
X214155792Y-90165482D01*
X214390449Y-90008689D01*
X214543388Y-89779800D01*
X214779399Y-89779800D01*
X214978428Y-89978829D01*
X215043876Y-90022560D01*
X215041000Y-90022560D01*
X214793235Y-90071843D01*
X214583191Y-90212191D01*
X214442843Y-90422235D01*
X214393560Y-90670000D01*
X214393560Y-90970000D01*
X214442843Y-91217765D01*
X214583191Y-91427809D01*
X214793235Y-91568157D01*
X215041000Y-91617440D01*
X215368560Y-91617440D01*
X215368560Y-91945000D01*
X215417843Y-92192765D01*
X215558191Y-92402809D01*
X215768235Y-92543157D01*
X216016000Y-92592440D01*
X216316000Y-92592440D01*
X216416000Y-92572549D01*
X216516000Y-92592440D01*
X216665698Y-92592440D01*
X216665000Y-92594126D01*
X216665000Y-93005874D01*
X216759759Y-93234643D01*
X216663235Y-93253843D01*
X216530626Y-93342450D01*
X216398765Y-93254343D01*
X216151000Y-93205060D01*
X215141000Y-93205060D01*
X214893235Y-93254343D01*
X214683191Y-93394691D01*
X214622180Y-93486000D01*
X214361993Y-93486000D01*
X214275009Y-93355821D01*
X214064965Y-93215473D01*
X213817200Y-93166190D01*
X213111080Y-93166190D01*
X212863315Y-93215473D01*
X212840137Y-93230960D01*
X211481670Y-93230960D01*
X211233905Y-93280243D01*
X211215812Y-93292332D01*
X211100785Y-93215473D01*
X210853020Y-93166190D01*
X210403732Y-93166190D01*
X210351498Y-93155800D01*
X209337263Y-93155800D01*
X207773278Y-91591816D01*
X207813000Y-91495917D01*
X207813000Y-90368083D01*
X207462618Y-89522185D01*
X207955003Y-89029800D01*
X208742760Y-89029800D01*
X208742760Y-89121970D01*
X208742760Y-89121970D01*
G37*
X208742760Y-89121970D02*
X208767264Y-89245160D01*
X208742760Y-89368350D01*
X208742760Y-89772210D01*
X208792043Y-90019975D01*
X208932391Y-90230019D01*
X209142435Y-90370367D01*
X209172375Y-90376322D01*
X209165000Y-90394126D01*
X209165000Y-90805874D01*
X209322569Y-91186280D01*
X209613720Y-91477431D01*
X209994126Y-91635000D01*
X210405874Y-91635000D01*
X210786280Y-91477431D01*
X211077431Y-91186280D01*
X211235000Y-90805874D01*
X211235000Y-90394126D01*
X211214299Y-90344148D01*
X211319330Y-90365040D01*
X212026205Y-90365040D01*
X212352982Y-90430040D01*
X212501700Y-90459622D01*
X212650418Y-90430040D01*
X213450518Y-90430040D01*
X213502752Y-90419650D01*
X213654860Y-90419650D01*
X213902625Y-90370367D01*
X214112669Y-90230019D01*
X214155792Y-90165482D01*
X214390449Y-90008689D01*
X214543388Y-89779800D01*
X214779399Y-89779800D01*
X214978428Y-89978829D01*
X215043876Y-90022560D01*
X215041000Y-90022560D01*
X214793235Y-90071843D01*
X214583191Y-90212191D01*
X214442843Y-90422235D01*
X214393560Y-90670000D01*
X214393560Y-90970000D01*
X214442843Y-91217765D01*
X214583191Y-91427809D01*
X214793235Y-91568157D01*
X215041000Y-91617440D01*
X215368560Y-91617440D01*
X215368560Y-91945000D01*
X215417843Y-92192765D01*
X215558191Y-92402809D01*
X215768235Y-92543157D01*
X216016000Y-92592440D01*
X216316000Y-92592440D01*
X216416000Y-92572549D01*
X216516000Y-92592440D01*
X216665698Y-92592440D01*
X216665000Y-92594126D01*
X216665000Y-93005874D01*
X216759759Y-93234643D01*
X216663235Y-93253843D01*
X216530626Y-93342450D01*
X216398765Y-93254343D01*
X216151000Y-93205060D01*
X215141000Y-93205060D01*
X214893235Y-93254343D01*
X214683191Y-93394691D01*
X214622180Y-93486000D01*
X214361993Y-93486000D01*
X214275009Y-93355821D01*
X214064965Y-93215473D01*
X213817200Y-93166190D01*
X213111080Y-93166190D01*
X212863315Y-93215473D01*
X212840137Y-93230960D01*
X211481670Y-93230960D01*
X211233905Y-93280243D01*
X211215812Y-93292332D01*
X211100785Y-93215473D01*
X210853020Y-93166190D01*
X210403732Y-93166190D01*
X210351498Y-93155800D01*
X209337263Y-93155800D01*
X207773278Y-91591816D01*
X207813000Y-91495917D01*
X207813000Y-90368083D01*
X207462618Y-89522185D01*
X207955003Y-89029800D01*
X208742760Y-89029800D01*
X208742760Y-89121970D01*
G04 #@! TD*
M02*
