G04 #@! TF.GenerationSoftware,KiCad,Pcbnew,(5.0.1)-rc2*
G04 #@! TF.CreationDate,2018-11-23T18:31:16-07:00*
G04 #@! TF.ProjectId,PowerSupply,506F776572537570706C792E6B696361,rev?*
G04 #@! TF.SameCoordinates,Original*
G04 #@! TF.FileFunction,Soldermask,Bot*
G04 #@! TF.FilePolarity,Negative*
%FSLAX46Y46*%
G04 Gerber Fmt 4.6, Leading zero omitted, Abs format (unit mm)*
G04 Created by KiCad (PCBNEW (5.0.1)-rc2) date 11/23/2018 6:31:16 PM*
%MOMM*%
%LPD*%
G01*
G04 APERTURE LIST*
%ADD10C,0.100000*%
G04 APERTURE END LIST*
D10*
G36*
X191410560Y-145503079D02*
X191464552Y-145513819D01*
X191617131Y-145577019D01*
X191754449Y-145668772D01*
X191871228Y-145785551D01*
X191962981Y-145922869D01*
X192026181Y-146075448D01*
X192058400Y-146237425D01*
X192058400Y-146402575D01*
X192026181Y-146564552D01*
X191962981Y-146717131D01*
X191871228Y-146854449D01*
X191754449Y-146971228D01*
X191617131Y-147062981D01*
X191464552Y-147126181D01*
X191410560Y-147136921D01*
X191302577Y-147158400D01*
X191137423Y-147158400D01*
X191029440Y-147136921D01*
X190975448Y-147126181D01*
X190822869Y-147062981D01*
X190685551Y-146971228D01*
X190568772Y-146854449D01*
X190477019Y-146717131D01*
X190413819Y-146564552D01*
X190381600Y-146402575D01*
X190381600Y-146237425D01*
X190413819Y-146075448D01*
X190477019Y-145922869D01*
X190568772Y-145785551D01*
X190685551Y-145668772D01*
X190822869Y-145577019D01*
X190975448Y-145513819D01*
X191029440Y-145503079D01*
X191137423Y-145481600D01*
X191302577Y-145481600D01*
X191410560Y-145503079D01*
X191410560Y-145503079D01*
G37*
G36*
X199030560Y-145503079D02*
X199084552Y-145513819D01*
X199237131Y-145577019D01*
X199374449Y-145668772D01*
X199491228Y-145785551D01*
X199582981Y-145922869D01*
X199646181Y-146075448D01*
X199678400Y-146237425D01*
X199678400Y-146402575D01*
X199646181Y-146564552D01*
X199582981Y-146717131D01*
X199491228Y-146854449D01*
X199374449Y-146971228D01*
X199237131Y-147062981D01*
X199084552Y-147126181D01*
X199030560Y-147136921D01*
X198922577Y-147158400D01*
X198757423Y-147158400D01*
X198649440Y-147136921D01*
X198595448Y-147126181D01*
X198442869Y-147062981D01*
X198305551Y-146971228D01*
X198188772Y-146854449D01*
X198097019Y-146717131D01*
X198033819Y-146564552D01*
X198001600Y-146402575D01*
X198001600Y-146237425D01*
X198033819Y-146075448D01*
X198097019Y-145922869D01*
X198188772Y-145785551D01*
X198305551Y-145668772D01*
X198442869Y-145577019D01*
X198595448Y-145513819D01*
X198649440Y-145503079D01*
X198757423Y-145481600D01*
X198922577Y-145481600D01*
X199030560Y-145503079D01*
X199030560Y-145503079D01*
G37*
G36*
X226970560Y-145503079D02*
X227024552Y-145513819D01*
X227177131Y-145577019D01*
X227314449Y-145668772D01*
X227431228Y-145785551D01*
X227522981Y-145922869D01*
X227586181Y-146075448D01*
X227618400Y-146237425D01*
X227618400Y-146402575D01*
X227586181Y-146564552D01*
X227522981Y-146717131D01*
X227431228Y-146854449D01*
X227314449Y-146971228D01*
X227177131Y-147062981D01*
X227024552Y-147126181D01*
X226970560Y-147136921D01*
X226862577Y-147158400D01*
X226697423Y-147158400D01*
X226589440Y-147136921D01*
X226535448Y-147126181D01*
X226382869Y-147062981D01*
X226245551Y-146971228D01*
X226128772Y-146854449D01*
X226037019Y-146717131D01*
X225973819Y-146564552D01*
X225941600Y-146402575D01*
X225941600Y-146237425D01*
X225973819Y-146075448D01*
X226037019Y-145922869D01*
X226128772Y-145785551D01*
X226245551Y-145668772D01*
X226382869Y-145577019D01*
X226535448Y-145513819D01*
X226589440Y-145503079D01*
X226697423Y-145481600D01*
X226862577Y-145481600D01*
X226970560Y-145503079D01*
X226970560Y-145503079D01*
G37*
G36*
X243026165Y-143900540D02*
X243215689Y-143979043D01*
X243386255Y-144093012D01*
X243531308Y-144238065D01*
X243645277Y-144408631D01*
X243723780Y-144598155D01*
X243763800Y-144799350D01*
X243763800Y-145004490D01*
X243723780Y-145205685D01*
X243645277Y-145395209D01*
X243531308Y-145565775D01*
X243386255Y-145710828D01*
X243215689Y-145824797D01*
X243026165Y-145903300D01*
X242824970Y-145943320D01*
X242619830Y-145943320D01*
X242418635Y-145903300D01*
X242229111Y-145824797D01*
X242058545Y-145710828D01*
X241913492Y-145565775D01*
X241799523Y-145395209D01*
X241721020Y-145205685D01*
X241681000Y-145004490D01*
X241681000Y-144799350D01*
X241721020Y-144598155D01*
X241799523Y-144408631D01*
X241913492Y-144238065D01*
X242058545Y-144093012D01*
X242229111Y-143979043D01*
X242418635Y-143900540D01*
X242619830Y-143860520D01*
X242824970Y-143860520D01*
X243026165Y-143900540D01*
X243026165Y-143900540D01*
G37*
G36*
X240486165Y-143900540D02*
X240675689Y-143979043D01*
X240846255Y-144093012D01*
X240991308Y-144238065D01*
X241105277Y-144408631D01*
X241183780Y-144598155D01*
X241223800Y-144799350D01*
X241223800Y-145004490D01*
X241183780Y-145205685D01*
X241105277Y-145395209D01*
X240991308Y-145565775D01*
X240846255Y-145710828D01*
X240675689Y-145824797D01*
X240486165Y-145903300D01*
X240284970Y-145943320D01*
X240079830Y-145943320D01*
X239878635Y-145903300D01*
X239689111Y-145824797D01*
X239518545Y-145710828D01*
X239373492Y-145565775D01*
X239259523Y-145395209D01*
X239181020Y-145205685D01*
X239141000Y-145004490D01*
X239141000Y-144799350D01*
X239181020Y-144598155D01*
X239259523Y-144408631D01*
X239373492Y-144238065D01*
X239518545Y-144093012D01*
X239689111Y-143979043D01*
X239878635Y-143900540D01*
X240079830Y-143860520D01*
X240284970Y-143860520D01*
X240486165Y-143900540D01*
X240486165Y-143900540D01*
G37*
G36*
X237946165Y-143900540D02*
X238135689Y-143979043D01*
X238306255Y-144093012D01*
X238451308Y-144238065D01*
X238565277Y-144408631D01*
X238643780Y-144598155D01*
X238683800Y-144799350D01*
X238683800Y-145004490D01*
X238643780Y-145205685D01*
X238565277Y-145395209D01*
X238451308Y-145565775D01*
X238306255Y-145710828D01*
X238135689Y-145824797D01*
X237946165Y-145903300D01*
X237744970Y-145943320D01*
X237539830Y-145943320D01*
X237338635Y-145903300D01*
X237149111Y-145824797D01*
X236978545Y-145710828D01*
X236833492Y-145565775D01*
X236719523Y-145395209D01*
X236641020Y-145205685D01*
X236601000Y-145004490D01*
X236601000Y-144799350D01*
X236641020Y-144598155D01*
X236719523Y-144408631D01*
X236833492Y-144238065D01*
X236978545Y-144093012D01*
X237149111Y-143979043D01*
X237338635Y-143900540D01*
X237539830Y-143860520D01*
X237744970Y-143860520D01*
X237946165Y-143900540D01*
X237946165Y-143900540D01*
G37*
G36*
X235406165Y-143900540D02*
X235595689Y-143979043D01*
X235766255Y-144093012D01*
X235911308Y-144238065D01*
X236025277Y-144408631D01*
X236103780Y-144598155D01*
X236143800Y-144799350D01*
X236143800Y-145004490D01*
X236103780Y-145205685D01*
X236025277Y-145395209D01*
X235911308Y-145565775D01*
X235766255Y-145710828D01*
X235595689Y-145824797D01*
X235406165Y-145903300D01*
X235204970Y-145943320D01*
X234999830Y-145943320D01*
X234798635Y-145903300D01*
X234609111Y-145824797D01*
X234438545Y-145710828D01*
X234293492Y-145565775D01*
X234179523Y-145395209D01*
X234101020Y-145205685D01*
X234061000Y-145004490D01*
X234061000Y-144799350D01*
X234101020Y-144598155D01*
X234179523Y-144408631D01*
X234293492Y-144238065D01*
X234438545Y-144093012D01*
X234609111Y-143979043D01*
X234798635Y-143900540D01*
X234999830Y-143860520D01*
X235204970Y-143860520D01*
X235406165Y-143900540D01*
X235406165Y-143900540D01*
G37*
G36*
X241541491Y-136040856D02*
X241644404Y-136050992D01*
X241820463Y-136104399D01*
X241908494Y-136131103D01*
X241989622Y-136174467D01*
X242151880Y-136261195D01*
X242253019Y-136344199D01*
X242365210Y-136436270D01*
X242457281Y-136548461D01*
X242540285Y-136649600D01*
X242627013Y-136811858D01*
X242670377Y-136892986D01*
X242670377Y-136892987D01*
X242750488Y-137157076D01*
X242777538Y-137431720D01*
X242750488Y-137706364D01*
X242697081Y-137882423D01*
X242670377Y-137970454D01*
X242627013Y-138051582D01*
X242540285Y-138213840D01*
X242457281Y-138314979D01*
X242365210Y-138427170D01*
X242253019Y-138519241D01*
X242151880Y-138602245D01*
X241989622Y-138688973D01*
X241908494Y-138732337D01*
X241820463Y-138759041D01*
X241644404Y-138812448D01*
X241541491Y-138822584D01*
X241438580Y-138832720D01*
X240700940Y-138832720D01*
X240598029Y-138822584D01*
X240495116Y-138812448D01*
X240319057Y-138759041D01*
X240231026Y-138732337D01*
X240149898Y-138688973D01*
X239987640Y-138602245D01*
X239886501Y-138519241D01*
X239774310Y-138427170D01*
X239682239Y-138314979D01*
X239599235Y-138213840D01*
X239512507Y-138051582D01*
X239469143Y-137970454D01*
X239442439Y-137882423D01*
X239389032Y-137706364D01*
X239361982Y-137431720D01*
X239389032Y-137157076D01*
X239469143Y-136892987D01*
X239469143Y-136892986D01*
X239512507Y-136811858D01*
X239599235Y-136649600D01*
X239682239Y-136548461D01*
X239774310Y-136436270D01*
X239886501Y-136344199D01*
X239987640Y-136261195D01*
X240149898Y-136174467D01*
X240231026Y-136131103D01*
X240319057Y-136104399D01*
X240495116Y-136050992D01*
X240598029Y-136040856D01*
X240700940Y-136030720D01*
X241438580Y-136030720D01*
X241541491Y-136040856D01*
X241541491Y-136040856D01*
G37*
G36*
X236041491Y-136040856D02*
X236144404Y-136050992D01*
X236320463Y-136104399D01*
X236408494Y-136131103D01*
X236489622Y-136174467D01*
X236651880Y-136261195D01*
X236753019Y-136344199D01*
X236865210Y-136436270D01*
X236957281Y-136548461D01*
X237040285Y-136649600D01*
X237127013Y-136811858D01*
X237170377Y-136892986D01*
X237170377Y-136892987D01*
X237250488Y-137157076D01*
X237277538Y-137431720D01*
X237250488Y-137706364D01*
X237197081Y-137882423D01*
X237170377Y-137970454D01*
X237127013Y-138051582D01*
X237040285Y-138213840D01*
X236957281Y-138314979D01*
X236865210Y-138427170D01*
X236753019Y-138519241D01*
X236651880Y-138602245D01*
X236489622Y-138688973D01*
X236408494Y-138732337D01*
X236320463Y-138759041D01*
X236144404Y-138812448D01*
X236041491Y-138822584D01*
X235938580Y-138832720D01*
X235200940Y-138832720D01*
X235098029Y-138822584D01*
X234995116Y-138812448D01*
X234819057Y-138759041D01*
X234731026Y-138732337D01*
X234649898Y-138688973D01*
X234487640Y-138602245D01*
X234386501Y-138519241D01*
X234274310Y-138427170D01*
X234182239Y-138314979D01*
X234099235Y-138213840D01*
X234012507Y-138051582D01*
X233969143Y-137970454D01*
X233942439Y-137882423D01*
X233889032Y-137706364D01*
X233861982Y-137431720D01*
X233889032Y-137157076D01*
X233969143Y-136892987D01*
X233969143Y-136892986D01*
X234012507Y-136811858D01*
X234099235Y-136649600D01*
X234182239Y-136548461D01*
X234274310Y-136436270D01*
X234386501Y-136344199D01*
X234487640Y-136261195D01*
X234649898Y-136174467D01*
X234731026Y-136131103D01*
X234819057Y-136104399D01*
X234995116Y-136050992D01*
X235098029Y-136040856D01*
X235200940Y-136030720D01*
X235938580Y-136030720D01*
X236041491Y-136040856D01*
X236041491Y-136040856D01*
G37*
G36*
X241541491Y-131840856D02*
X241644404Y-131850992D01*
X241820463Y-131904399D01*
X241908494Y-131931103D01*
X241989622Y-131974467D01*
X242151880Y-132061195D01*
X242253019Y-132144199D01*
X242365210Y-132236270D01*
X242457281Y-132348461D01*
X242540285Y-132449600D01*
X242627013Y-132611858D01*
X242670377Y-132692986D01*
X242670377Y-132692987D01*
X242750488Y-132957076D01*
X242777538Y-133231720D01*
X242750488Y-133506364D01*
X242697081Y-133682423D01*
X242670377Y-133770454D01*
X242627013Y-133851582D01*
X242540285Y-134013840D01*
X242457281Y-134114979D01*
X242365210Y-134227170D01*
X242253019Y-134319241D01*
X242151880Y-134402245D01*
X241989622Y-134488973D01*
X241908494Y-134532337D01*
X241820463Y-134559041D01*
X241644404Y-134612448D01*
X241541491Y-134622584D01*
X241438580Y-134632720D01*
X240700940Y-134632720D01*
X240598029Y-134622584D01*
X240495116Y-134612448D01*
X240319057Y-134559041D01*
X240231026Y-134532337D01*
X240149898Y-134488973D01*
X239987640Y-134402245D01*
X239886501Y-134319241D01*
X239774310Y-134227170D01*
X239682239Y-134114979D01*
X239599235Y-134013840D01*
X239512507Y-133851582D01*
X239469143Y-133770454D01*
X239442439Y-133682423D01*
X239389032Y-133506364D01*
X239361982Y-133231720D01*
X239389032Y-132957076D01*
X239469143Y-132692987D01*
X239469143Y-132692986D01*
X239512507Y-132611858D01*
X239599235Y-132449600D01*
X239682239Y-132348461D01*
X239774310Y-132236270D01*
X239886501Y-132144199D01*
X239987640Y-132061195D01*
X240149898Y-131974467D01*
X240231026Y-131931103D01*
X240319057Y-131904399D01*
X240495116Y-131850992D01*
X240598029Y-131840856D01*
X240700940Y-131830720D01*
X241438580Y-131830720D01*
X241541491Y-131840856D01*
X241541491Y-131840856D01*
G37*
G36*
X236041491Y-131840856D02*
X236144404Y-131850992D01*
X236320463Y-131904399D01*
X236408494Y-131931103D01*
X236489622Y-131974467D01*
X236651880Y-132061195D01*
X236753019Y-132144199D01*
X236865210Y-132236270D01*
X236957281Y-132348461D01*
X237040285Y-132449600D01*
X237127013Y-132611858D01*
X237170377Y-132692986D01*
X237170377Y-132692987D01*
X237250488Y-132957076D01*
X237277538Y-133231720D01*
X237250488Y-133506364D01*
X237197081Y-133682423D01*
X237170377Y-133770454D01*
X237127013Y-133851582D01*
X237040285Y-134013840D01*
X236957281Y-134114979D01*
X236865210Y-134227170D01*
X236753019Y-134319241D01*
X236651880Y-134402245D01*
X236489622Y-134488973D01*
X236408494Y-134532337D01*
X236320463Y-134559041D01*
X236144404Y-134612448D01*
X236041491Y-134622584D01*
X235938580Y-134632720D01*
X235200940Y-134632720D01*
X235098029Y-134622584D01*
X234995116Y-134612448D01*
X234819057Y-134559041D01*
X234731026Y-134532337D01*
X234649898Y-134488973D01*
X234487640Y-134402245D01*
X234386501Y-134319241D01*
X234274310Y-134227170D01*
X234182239Y-134114979D01*
X234099235Y-134013840D01*
X234012507Y-133851582D01*
X233969143Y-133770454D01*
X233942439Y-133682423D01*
X233889032Y-133506364D01*
X233861982Y-133231720D01*
X233889032Y-132957076D01*
X233969143Y-132692987D01*
X233969143Y-132692986D01*
X234012507Y-132611858D01*
X234099235Y-132449600D01*
X234182239Y-132348461D01*
X234274310Y-132236270D01*
X234386501Y-132144199D01*
X234487640Y-132061195D01*
X234649898Y-131974467D01*
X234731026Y-131931103D01*
X234819057Y-131904399D01*
X234995116Y-131850992D01*
X235098029Y-131840856D01*
X235200940Y-131830720D01*
X235938580Y-131830720D01*
X236041491Y-131840856D01*
X236041491Y-131840856D01*
G37*
G36*
X224430560Y-130263079D02*
X224484552Y-130273819D01*
X224637131Y-130337019D01*
X224774449Y-130428772D01*
X224891228Y-130545551D01*
X224982981Y-130682869D01*
X225046181Y-130835448D01*
X225078400Y-130997425D01*
X225078400Y-131162575D01*
X225046181Y-131324552D01*
X224982981Y-131477131D01*
X224891228Y-131614449D01*
X224774449Y-131731228D01*
X224637131Y-131822981D01*
X224484552Y-131886181D01*
X224430560Y-131896921D01*
X224322577Y-131918400D01*
X224157423Y-131918400D01*
X224049440Y-131896921D01*
X223995448Y-131886181D01*
X223842869Y-131822981D01*
X223705551Y-131731228D01*
X223588772Y-131614449D01*
X223497019Y-131477131D01*
X223433819Y-131324552D01*
X223401600Y-131162575D01*
X223401600Y-130997425D01*
X223433819Y-130835448D01*
X223497019Y-130682869D01*
X223588772Y-130545551D01*
X223705551Y-130428772D01*
X223842869Y-130337019D01*
X223995448Y-130273819D01*
X224049440Y-130263079D01*
X224157423Y-130241600D01*
X224322577Y-130241600D01*
X224430560Y-130263079D01*
X224430560Y-130263079D01*
G37*
G36*
X226970560Y-130263079D02*
X227024552Y-130273819D01*
X227177131Y-130337019D01*
X227314449Y-130428772D01*
X227431228Y-130545551D01*
X227522981Y-130682869D01*
X227586181Y-130835448D01*
X227618400Y-130997425D01*
X227618400Y-131162575D01*
X227586181Y-131324552D01*
X227522981Y-131477131D01*
X227431228Y-131614449D01*
X227314449Y-131731228D01*
X227177131Y-131822981D01*
X227024552Y-131886181D01*
X226970560Y-131896921D01*
X226862577Y-131918400D01*
X226697423Y-131918400D01*
X226589440Y-131896921D01*
X226535448Y-131886181D01*
X226382869Y-131822981D01*
X226245551Y-131731228D01*
X226128772Y-131614449D01*
X226037019Y-131477131D01*
X225973819Y-131324552D01*
X225941600Y-131162575D01*
X225941600Y-130997425D01*
X225973819Y-130835448D01*
X226037019Y-130682869D01*
X226128772Y-130545551D01*
X226245551Y-130428772D01*
X226382869Y-130337019D01*
X226535448Y-130273819D01*
X226589440Y-130263079D01*
X226697423Y-130241600D01*
X226862577Y-130241600D01*
X226970560Y-130263079D01*
X226970560Y-130263079D01*
G37*
G36*
X219350560Y-130263079D02*
X219404552Y-130273819D01*
X219557131Y-130337019D01*
X219694449Y-130428772D01*
X219811228Y-130545551D01*
X219902981Y-130682869D01*
X219966181Y-130835448D01*
X219998400Y-130997425D01*
X219998400Y-131162575D01*
X219966181Y-131324552D01*
X219902981Y-131477131D01*
X219811228Y-131614449D01*
X219694449Y-131731228D01*
X219557131Y-131822981D01*
X219404552Y-131886181D01*
X219350560Y-131896921D01*
X219242577Y-131918400D01*
X219077423Y-131918400D01*
X218969440Y-131896921D01*
X218915448Y-131886181D01*
X218762869Y-131822981D01*
X218625551Y-131731228D01*
X218508772Y-131614449D01*
X218417019Y-131477131D01*
X218353819Y-131324552D01*
X218321600Y-131162575D01*
X218321600Y-130997425D01*
X218353819Y-130835448D01*
X218417019Y-130682869D01*
X218508772Y-130545551D01*
X218625551Y-130428772D01*
X218762869Y-130337019D01*
X218915448Y-130273819D01*
X218969440Y-130263079D01*
X219077423Y-130241600D01*
X219242577Y-130241600D01*
X219350560Y-130263079D01*
X219350560Y-130263079D01*
G37*
G36*
X211730560Y-130263079D02*
X211784552Y-130273819D01*
X211937131Y-130337019D01*
X212074449Y-130428772D01*
X212191228Y-130545551D01*
X212282981Y-130682869D01*
X212346181Y-130835448D01*
X212378400Y-130997425D01*
X212378400Y-131162575D01*
X212346181Y-131324552D01*
X212282981Y-131477131D01*
X212191228Y-131614449D01*
X212074449Y-131731228D01*
X211937131Y-131822981D01*
X211784552Y-131886181D01*
X211730560Y-131896921D01*
X211622577Y-131918400D01*
X211457423Y-131918400D01*
X211349440Y-131896921D01*
X211295448Y-131886181D01*
X211142869Y-131822981D01*
X211005551Y-131731228D01*
X210888772Y-131614449D01*
X210797019Y-131477131D01*
X210733819Y-131324552D01*
X210701600Y-131162575D01*
X210701600Y-130997425D01*
X210733819Y-130835448D01*
X210797019Y-130682869D01*
X210888772Y-130545551D01*
X211005551Y-130428772D01*
X211142869Y-130337019D01*
X211295448Y-130273819D01*
X211349440Y-130263079D01*
X211457423Y-130241600D01*
X211622577Y-130241600D01*
X211730560Y-130263079D01*
X211730560Y-130263079D01*
G37*
G36*
X204110560Y-130263079D02*
X204164552Y-130273819D01*
X204317131Y-130337019D01*
X204454449Y-130428772D01*
X204571228Y-130545551D01*
X204662981Y-130682869D01*
X204726181Y-130835448D01*
X204758400Y-130997425D01*
X204758400Y-131162575D01*
X204726181Y-131324552D01*
X204662981Y-131477131D01*
X204571228Y-131614449D01*
X204454449Y-131731228D01*
X204317131Y-131822981D01*
X204164552Y-131886181D01*
X204110560Y-131896921D01*
X204002577Y-131918400D01*
X203837423Y-131918400D01*
X203729440Y-131896921D01*
X203675448Y-131886181D01*
X203522869Y-131822981D01*
X203385551Y-131731228D01*
X203268772Y-131614449D01*
X203177019Y-131477131D01*
X203113819Y-131324552D01*
X203081600Y-131162575D01*
X203081600Y-130997425D01*
X203113819Y-130835448D01*
X203177019Y-130682869D01*
X203268772Y-130545551D01*
X203385551Y-130428772D01*
X203522869Y-130337019D01*
X203675448Y-130273819D01*
X203729440Y-130263079D01*
X203837423Y-130241600D01*
X204002577Y-130241600D01*
X204110560Y-130263079D01*
X204110560Y-130263079D01*
G37*
G36*
X201570560Y-130263079D02*
X201624552Y-130273819D01*
X201777131Y-130337019D01*
X201914449Y-130428772D01*
X202031228Y-130545551D01*
X202122981Y-130682869D01*
X202186181Y-130835448D01*
X202218400Y-130997425D01*
X202218400Y-131162575D01*
X202186181Y-131324552D01*
X202122981Y-131477131D01*
X202031228Y-131614449D01*
X201914449Y-131731228D01*
X201777131Y-131822981D01*
X201624552Y-131886181D01*
X201570560Y-131896921D01*
X201462577Y-131918400D01*
X201297423Y-131918400D01*
X201189440Y-131896921D01*
X201135448Y-131886181D01*
X200982869Y-131822981D01*
X200845551Y-131731228D01*
X200728772Y-131614449D01*
X200637019Y-131477131D01*
X200573819Y-131324552D01*
X200541600Y-131162575D01*
X200541600Y-130997425D01*
X200573819Y-130835448D01*
X200637019Y-130682869D01*
X200728772Y-130545551D01*
X200845551Y-130428772D01*
X200982869Y-130337019D01*
X201135448Y-130273819D01*
X201189440Y-130263079D01*
X201297423Y-130241600D01*
X201462577Y-130241600D01*
X201570560Y-130263079D01*
X201570560Y-130263079D01*
G37*
G36*
X216810560Y-130263079D02*
X216864552Y-130273819D01*
X217017131Y-130337019D01*
X217154449Y-130428772D01*
X217271228Y-130545551D01*
X217362981Y-130682869D01*
X217426181Y-130835448D01*
X217458400Y-130997425D01*
X217458400Y-131162575D01*
X217426181Y-131324552D01*
X217362981Y-131477131D01*
X217271228Y-131614449D01*
X217154449Y-131731228D01*
X217017131Y-131822981D01*
X216864552Y-131886181D01*
X216810560Y-131896921D01*
X216702577Y-131918400D01*
X216537423Y-131918400D01*
X216429440Y-131896921D01*
X216375448Y-131886181D01*
X216222869Y-131822981D01*
X216085551Y-131731228D01*
X215968772Y-131614449D01*
X215877019Y-131477131D01*
X215813819Y-131324552D01*
X215781600Y-131162575D01*
X215781600Y-130997425D01*
X215813819Y-130835448D01*
X215877019Y-130682869D01*
X215968772Y-130545551D01*
X216085551Y-130428772D01*
X216222869Y-130337019D01*
X216375448Y-130273819D01*
X216429440Y-130263079D01*
X216537423Y-130241600D01*
X216702577Y-130241600D01*
X216810560Y-130263079D01*
X216810560Y-130263079D01*
G37*
G36*
X196490560Y-130263079D02*
X196544552Y-130273819D01*
X196697131Y-130337019D01*
X196834449Y-130428772D01*
X196951228Y-130545551D01*
X197042981Y-130682869D01*
X197106181Y-130835448D01*
X197138400Y-130997425D01*
X197138400Y-131162575D01*
X197106181Y-131324552D01*
X197042981Y-131477131D01*
X196951228Y-131614449D01*
X196834449Y-131731228D01*
X196697131Y-131822981D01*
X196544552Y-131886181D01*
X196490560Y-131896921D01*
X196382577Y-131918400D01*
X196217423Y-131918400D01*
X196109440Y-131896921D01*
X196055448Y-131886181D01*
X195902869Y-131822981D01*
X195765551Y-131731228D01*
X195648772Y-131614449D01*
X195557019Y-131477131D01*
X195493819Y-131324552D01*
X195461600Y-131162575D01*
X195461600Y-130997425D01*
X195493819Y-130835448D01*
X195557019Y-130682869D01*
X195648772Y-130545551D01*
X195765551Y-130428772D01*
X195902869Y-130337019D01*
X196055448Y-130273819D01*
X196109440Y-130263079D01*
X196217423Y-130241600D01*
X196382577Y-130241600D01*
X196490560Y-130263079D01*
X196490560Y-130263079D01*
G37*
G36*
X193950560Y-130263079D02*
X194004552Y-130273819D01*
X194157131Y-130337019D01*
X194294449Y-130428772D01*
X194411228Y-130545551D01*
X194502981Y-130682869D01*
X194566181Y-130835448D01*
X194598400Y-130997425D01*
X194598400Y-131162575D01*
X194566181Y-131324552D01*
X194502981Y-131477131D01*
X194411228Y-131614449D01*
X194294449Y-131731228D01*
X194157131Y-131822981D01*
X194004552Y-131886181D01*
X193950560Y-131896921D01*
X193842577Y-131918400D01*
X193677423Y-131918400D01*
X193569440Y-131896921D01*
X193515448Y-131886181D01*
X193362869Y-131822981D01*
X193225551Y-131731228D01*
X193108772Y-131614449D01*
X193017019Y-131477131D01*
X192953819Y-131324552D01*
X192921600Y-131162575D01*
X192921600Y-130997425D01*
X192953819Y-130835448D01*
X193017019Y-130682869D01*
X193108772Y-130545551D01*
X193225551Y-130428772D01*
X193362869Y-130337019D01*
X193515448Y-130273819D01*
X193569440Y-130263079D01*
X193677423Y-130241600D01*
X193842577Y-130241600D01*
X193950560Y-130263079D01*
X193950560Y-130263079D01*
G37*
G36*
X214270560Y-130263079D02*
X214324552Y-130273819D01*
X214477131Y-130337019D01*
X214614449Y-130428772D01*
X214731228Y-130545551D01*
X214822981Y-130682869D01*
X214886181Y-130835448D01*
X214918400Y-130997425D01*
X214918400Y-131162575D01*
X214886181Y-131324552D01*
X214822981Y-131477131D01*
X214731228Y-131614449D01*
X214614449Y-131731228D01*
X214477131Y-131822981D01*
X214324552Y-131886181D01*
X214270560Y-131896921D01*
X214162577Y-131918400D01*
X213997423Y-131918400D01*
X213889440Y-131896921D01*
X213835448Y-131886181D01*
X213682869Y-131822981D01*
X213545551Y-131731228D01*
X213428772Y-131614449D01*
X213337019Y-131477131D01*
X213273819Y-131324552D01*
X213241600Y-131162575D01*
X213241600Y-130997425D01*
X213273819Y-130835448D01*
X213337019Y-130682869D01*
X213428772Y-130545551D01*
X213545551Y-130428772D01*
X213682869Y-130337019D01*
X213835448Y-130273819D01*
X213889440Y-130263079D01*
X213997423Y-130241600D01*
X214162577Y-130241600D01*
X214270560Y-130263079D01*
X214270560Y-130263079D01*
G37*
G36*
X191410560Y-130263079D02*
X191464552Y-130273819D01*
X191617131Y-130337019D01*
X191754449Y-130428772D01*
X191871228Y-130545551D01*
X191962981Y-130682869D01*
X192026181Y-130835448D01*
X192058400Y-130997425D01*
X192058400Y-131162575D01*
X192026181Y-131324552D01*
X191962981Y-131477131D01*
X191871228Y-131614449D01*
X191754449Y-131731228D01*
X191617131Y-131822981D01*
X191464552Y-131886181D01*
X191410560Y-131896921D01*
X191302577Y-131918400D01*
X191137423Y-131918400D01*
X191029440Y-131896921D01*
X190975448Y-131886181D01*
X190822869Y-131822981D01*
X190685551Y-131731228D01*
X190568772Y-131614449D01*
X190477019Y-131477131D01*
X190413819Y-131324552D01*
X190381600Y-131162575D01*
X190381600Y-130997425D01*
X190413819Y-130835448D01*
X190477019Y-130682869D01*
X190568772Y-130545551D01*
X190685551Y-130428772D01*
X190822869Y-130337019D01*
X190975448Y-130273819D01*
X191029440Y-130263079D01*
X191137423Y-130241600D01*
X191302577Y-130241600D01*
X191410560Y-130263079D01*
X191410560Y-130263079D01*
G37*
G36*
X209190560Y-130263079D02*
X209244552Y-130273819D01*
X209397131Y-130337019D01*
X209534449Y-130428772D01*
X209651228Y-130545551D01*
X209742981Y-130682869D01*
X209806181Y-130835448D01*
X209838400Y-130997425D01*
X209838400Y-131162575D01*
X209806181Y-131324552D01*
X209742981Y-131477131D01*
X209651228Y-131614449D01*
X209534449Y-131731228D01*
X209397131Y-131822981D01*
X209244552Y-131886181D01*
X209190560Y-131896921D01*
X209082577Y-131918400D01*
X208917423Y-131918400D01*
X208809440Y-131896921D01*
X208755448Y-131886181D01*
X208602869Y-131822981D01*
X208465551Y-131731228D01*
X208348772Y-131614449D01*
X208257019Y-131477131D01*
X208193819Y-131324552D01*
X208161600Y-131162575D01*
X208161600Y-130997425D01*
X208193819Y-130835448D01*
X208257019Y-130682869D01*
X208348772Y-130545551D01*
X208465551Y-130428772D01*
X208602869Y-130337019D01*
X208755448Y-130273819D01*
X208809440Y-130263079D01*
X208917423Y-130241600D01*
X209082577Y-130241600D01*
X209190560Y-130263079D01*
X209190560Y-130263079D01*
G37*
G36*
X206650560Y-130263079D02*
X206704552Y-130273819D01*
X206857131Y-130337019D01*
X206994449Y-130428772D01*
X207111228Y-130545551D01*
X207202981Y-130682869D01*
X207266181Y-130835448D01*
X207298400Y-130997425D01*
X207298400Y-131162575D01*
X207266181Y-131324552D01*
X207202981Y-131477131D01*
X207111228Y-131614449D01*
X206994449Y-131731228D01*
X206857131Y-131822981D01*
X206704552Y-131886181D01*
X206650560Y-131896921D01*
X206542577Y-131918400D01*
X206377423Y-131918400D01*
X206269440Y-131896921D01*
X206215448Y-131886181D01*
X206062869Y-131822981D01*
X205925551Y-131731228D01*
X205808772Y-131614449D01*
X205717019Y-131477131D01*
X205653819Y-131324552D01*
X205621600Y-131162575D01*
X205621600Y-130997425D01*
X205653819Y-130835448D01*
X205717019Y-130682869D01*
X205808772Y-130545551D01*
X205925551Y-130428772D01*
X206062869Y-130337019D01*
X206215448Y-130273819D01*
X206269440Y-130263079D01*
X206377423Y-130241600D01*
X206542577Y-130241600D01*
X206650560Y-130263079D01*
X206650560Y-130263079D01*
G37*
G36*
X199030560Y-130263079D02*
X199084552Y-130273819D01*
X199237131Y-130337019D01*
X199374449Y-130428772D01*
X199491228Y-130545551D01*
X199582981Y-130682869D01*
X199646181Y-130835448D01*
X199678400Y-130997425D01*
X199678400Y-131162575D01*
X199646181Y-131324552D01*
X199582981Y-131477131D01*
X199491228Y-131614449D01*
X199374449Y-131731228D01*
X199237131Y-131822981D01*
X199084552Y-131886181D01*
X199030560Y-131896921D01*
X198922577Y-131918400D01*
X198757423Y-131918400D01*
X198649440Y-131896921D01*
X198595448Y-131886181D01*
X198442869Y-131822981D01*
X198305551Y-131731228D01*
X198188772Y-131614449D01*
X198097019Y-131477131D01*
X198033819Y-131324552D01*
X198001600Y-131162575D01*
X198001600Y-130997425D01*
X198033819Y-130835448D01*
X198097019Y-130682869D01*
X198188772Y-130545551D01*
X198305551Y-130428772D01*
X198442869Y-130337019D01*
X198595448Y-130273819D01*
X198649440Y-130263079D01*
X198757423Y-130241600D01*
X198922577Y-130241600D01*
X199030560Y-130263079D01*
X199030560Y-130263079D01*
G37*
G36*
X241541491Y-127640856D02*
X241644404Y-127650992D01*
X241820463Y-127704399D01*
X241908494Y-127731103D01*
X241989622Y-127774467D01*
X242151880Y-127861195D01*
X242253019Y-127944199D01*
X242365210Y-128036270D01*
X242457281Y-128148461D01*
X242540285Y-128249600D01*
X242627013Y-128411858D01*
X242670377Y-128492986D01*
X242670377Y-128492987D01*
X242750488Y-128757076D01*
X242777538Y-129031720D01*
X242750488Y-129306364D01*
X242697081Y-129482423D01*
X242670377Y-129570454D01*
X242627013Y-129651582D01*
X242540285Y-129813840D01*
X242457281Y-129914979D01*
X242365210Y-130027170D01*
X242253019Y-130119241D01*
X242151880Y-130202245D01*
X242017973Y-130273819D01*
X241908494Y-130332337D01*
X241820463Y-130359041D01*
X241644404Y-130412448D01*
X241541491Y-130422584D01*
X241438580Y-130432720D01*
X240700940Y-130432720D01*
X240598029Y-130422584D01*
X240495116Y-130412448D01*
X240319057Y-130359041D01*
X240231026Y-130332337D01*
X240121547Y-130273819D01*
X239987640Y-130202245D01*
X239886501Y-130119241D01*
X239774310Y-130027170D01*
X239682239Y-129914979D01*
X239599235Y-129813840D01*
X239512507Y-129651582D01*
X239469143Y-129570454D01*
X239442439Y-129482423D01*
X239389032Y-129306364D01*
X239361982Y-129031720D01*
X239389032Y-128757076D01*
X239469143Y-128492987D01*
X239469143Y-128492986D01*
X239512507Y-128411858D01*
X239599235Y-128249600D01*
X239682239Y-128148461D01*
X239774310Y-128036270D01*
X239886501Y-127944199D01*
X239987640Y-127861195D01*
X240149898Y-127774467D01*
X240231026Y-127731103D01*
X240319057Y-127704399D01*
X240495116Y-127650992D01*
X240598029Y-127640856D01*
X240700940Y-127630720D01*
X241438580Y-127630720D01*
X241541491Y-127640856D01*
X241541491Y-127640856D01*
G37*
G36*
X236041491Y-127640856D02*
X236144404Y-127650992D01*
X236320463Y-127704399D01*
X236408494Y-127731103D01*
X236489622Y-127774467D01*
X236651880Y-127861195D01*
X236753019Y-127944199D01*
X236865210Y-128036270D01*
X236957281Y-128148461D01*
X237040285Y-128249600D01*
X237127013Y-128411858D01*
X237170377Y-128492986D01*
X237170377Y-128492987D01*
X237250488Y-128757076D01*
X237277538Y-129031720D01*
X237250488Y-129306364D01*
X237197081Y-129482423D01*
X237170377Y-129570454D01*
X237127013Y-129651582D01*
X237040285Y-129813840D01*
X236957281Y-129914979D01*
X236865210Y-130027170D01*
X236753019Y-130119241D01*
X236651880Y-130202245D01*
X236517973Y-130273819D01*
X236408494Y-130332337D01*
X236320463Y-130359041D01*
X236144404Y-130412448D01*
X236041491Y-130422584D01*
X235938580Y-130432720D01*
X235200940Y-130432720D01*
X235098029Y-130422584D01*
X234995116Y-130412448D01*
X234819057Y-130359041D01*
X234731026Y-130332337D01*
X234621547Y-130273819D01*
X234487640Y-130202245D01*
X234386501Y-130119241D01*
X234274310Y-130027170D01*
X234182239Y-129914979D01*
X234099235Y-129813840D01*
X234012507Y-129651582D01*
X233969143Y-129570454D01*
X233942439Y-129482423D01*
X233889032Y-129306364D01*
X233861982Y-129031720D01*
X233889032Y-128757076D01*
X233969143Y-128492987D01*
X233969143Y-128492986D01*
X234012507Y-128411858D01*
X234099235Y-128249600D01*
X234182239Y-128148461D01*
X234274310Y-128036270D01*
X234386501Y-127944199D01*
X234487640Y-127861195D01*
X234649898Y-127774467D01*
X234731026Y-127731103D01*
X234819057Y-127704399D01*
X234995116Y-127650992D01*
X235098029Y-127640856D01*
X235200940Y-127630720D01*
X235938580Y-127630720D01*
X236041491Y-127640856D01*
X236041491Y-127640856D01*
G37*
G36*
X220901220Y-128801040D02*
X219900460Y-128801040D01*
X219900460Y-127398960D01*
X220901220Y-127398960D01*
X220901220Y-128801040D01*
X220901220Y-128801040D01*
G37*
G36*
X222699540Y-128801040D02*
X221698780Y-128801040D01*
X221698780Y-127398960D01*
X222699540Y-127398960D01*
X222699540Y-128801040D01*
X222699540Y-128801040D01*
G37*
G36*
X246579485Y-124748996D02*
X246579487Y-124748997D01*
X246579488Y-124748997D01*
X246779199Y-124831720D01*
X246816255Y-124847069D01*
X247029342Y-124989449D01*
X247210551Y-125170658D01*
X247210553Y-125170661D01*
X247352931Y-125383745D01*
X247448239Y-125613838D01*
X247451004Y-125620515D01*
X247501000Y-125871861D01*
X247501000Y-126128139D01*
X247451004Y-126379485D01*
X247352931Y-126616255D01*
X247210551Y-126829342D01*
X247029342Y-127010551D01*
X247029339Y-127010553D01*
X246816255Y-127152931D01*
X246579488Y-127251003D01*
X246579487Y-127251003D01*
X246579485Y-127251004D01*
X246328139Y-127301000D01*
X246071861Y-127301000D01*
X245820515Y-127251004D01*
X245820513Y-127251003D01*
X245820512Y-127251003D01*
X245583745Y-127152931D01*
X245370661Y-127010553D01*
X245370658Y-127010551D01*
X245189449Y-126829342D01*
X245047069Y-126616255D01*
X244948996Y-126379485D01*
X244899000Y-126128139D01*
X244899000Y-125871861D01*
X244948996Y-125620515D01*
X244951762Y-125613838D01*
X245047069Y-125383745D01*
X245189447Y-125170661D01*
X245189449Y-125170658D01*
X245370658Y-124989449D01*
X245583745Y-124847069D01*
X245620801Y-124831720D01*
X245820512Y-124748997D01*
X245820513Y-124748997D01*
X245820515Y-124748996D01*
X246071861Y-124699000D01*
X246328139Y-124699000D01*
X246579485Y-124748996D01*
X246579485Y-124748996D01*
G37*
G36*
X220803400Y-121947600D02*
X220805802Y-121971986D01*
X220812915Y-121995435D01*
X220824466Y-122017046D01*
X220840012Y-122035988D01*
X220853194Y-122046806D01*
X220864012Y-122059988D01*
X220882954Y-122075534D01*
X220904565Y-122087085D01*
X220928014Y-122094198D01*
X220952400Y-122096600D01*
X222008500Y-122096600D01*
X222008500Y-125503400D01*
X220952400Y-125503400D01*
X220928014Y-125505802D01*
X220904565Y-125512915D01*
X220882954Y-125524466D01*
X220864012Y-125540012D01*
X220853194Y-125553194D01*
X220840012Y-125564012D01*
X220824466Y-125582954D01*
X220812915Y-125604565D01*
X220805802Y-125628014D01*
X220803400Y-125652400D01*
X220803400Y-126708500D01*
X217396600Y-126708500D01*
X217396600Y-125652400D01*
X217394198Y-125628014D01*
X217387085Y-125604565D01*
X217375534Y-125582954D01*
X217359988Y-125564012D01*
X217346806Y-125553194D01*
X217335988Y-125540012D01*
X217317046Y-125524466D01*
X217295435Y-125512915D01*
X217271986Y-125505802D01*
X217247600Y-125503400D01*
X216191500Y-125503400D01*
X216191500Y-122096600D01*
X217247600Y-122096600D01*
X217271986Y-122094198D01*
X217295435Y-122087085D01*
X217317046Y-122075534D01*
X217335988Y-122059988D01*
X217346806Y-122046806D01*
X217359988Y-122035988D01*
X217375534Y-122017046D01*
X217387085Y-121995435D01*
X217394198Y-121971986D01*
X217396600Y-121947600D01*
X217396600Y-120891500D01*
X220803400Y-120891500D01*
X220803400Y-121947600D01*
X220803400Y-121947600D01*
G37*
G36*
X241541491Y-123440856D02*
X241644404Y-123450992D01*
X241817172Y-123503401D01*
X241908494Y-123531103D01*
X241989622Y-123574467D01*
X242151880Y-123661195D01*
X242253019Y-123744199D01*
X242365210Y-123836270D01*
X242457281Y-123948461D01*
X242540285Y-124049600D01*
X242565406Y-124096599D01*
X242670377Y-124292986D01*
X242670377Y-124292987D01*
X242750488Y-124557076D01*
X242777538Y-124831720D01*
X242750488Y-125106364D01*
X242697081Y-125282423D01*
X242670377Y-125370454D01*
X242627013Y-125451582D01*
X242540285Y-125613840D01*
X242457281Y-125714979D01*
X242365210Y-125827170D01*
X242253019Y-125919241D01*
X242151880Y-126002245D01*
X241989622Y-126088973D01*
X241908494Y-126132337D01*
X241820463Y-126159041D01*
X241644404Y-126212448D01*
X241541491Y-126222584D01*
X241438580Y-126232720D01*
X240700940Y-126232720D01*
X240598029Y-126222584D01*
X240495116Y-126212448D01*
X240319057Y-126159041D01*
X240231026Y-126132337D01*
X240149898Y-126088973D01*
X239987640Y-126002245D01*
X239886501Y-125919241D01*
X239774310Y-125827170D01*
X239682239Y-125714979D01*
X239599235Y-125613840D01*
X239512507Y-125451582D01*
X239469143Y-125370454D01*
X239442439Y-125282423D01*
X239389032Y-125106364D01*
X239361982Y-124831720D01*
X239389032Y-124557076D01*
X239469143Y-124292987D01*
X239469143Y-124292986D01*
X239574114Y-124096599D01*
X239599235Y-124049600D01*
X239682239Y-123948461D01*
X239774310Y-123836270D01*
X239886501Y-123744199D01*
X239987640Y-123661195D01*
X240149898Y-123574467D01*
X240231026Y-123531103D01*
X240322348Y-123503401D01*
X240495116Y-123450992D01*
X240598029Y-123440856D01*
X240700940Y-123430720D01*
X241438580Y-123430720D01*
X241541491Y-123440856D01*
X241541491Y-123440856D01*
G37*
G36*
X236041491Y-123440856D02*
X236144404Y-123450992D01*
X236317172Y-123503401D01*
X236408494Y-123531103D01*
X236489622Y-123574467D01*
X236651880Y-123661195D01*
X236753019Y-123744199D01*
X236865210Y-123836270D01*
X236957281Y-123948461D01*
X237040285Y-124049600D01*
X237065406Y-124096599D01*
X237170377Y-124292986D01*
X237170377Y-124292987D01*
X237250488Y-124557076D01*
X237277538Y-124831720D01*
X237250488Y-125106364D01*
X237197081Y-125282423D01*
X237170377Y-125370454D01*
X237127013Y-125451582D01*
X237040285Y-125613840D01*
X236957281Y-125714979D01*
X236865210Y-125827170D01*
X236753019Y-125919241D01*
X236651880Y-126002245D01*
X236489622Y-126088973D01*
X236408494Y-126132337D01*
X236320463Y-126159041D01*
X236144404Y-126212448D01*
X236041491Y-126222584D01*
X235938580Y-126232720D01*
X235200940Y-126232720D01*
X235098029Y-126222584D01*
X234995116Y-126212448D01*
X234819057Y-126159041D01*
X234731026Y-126132337D01*
X234649898Y-126088973D01*
X234487640Y-126002245D01*
X234386501Y-125919241D01*
X234274310Y-125827170D01*
X234182239Y-125714979D01*
X234099235Y-125613840D01*
X234012507Y-125451582D01*
X233969143Y-125370454D01*
X233942439Y-125282423D01*
X233889032Y-125106364D01*
X233861982Y-124831720D01*
X233889032Y-124557076D01*
X233969143Y-124292987D01*
X233969143Y-124292986D01*
X234074114Y-124096599D01*
X234099235Y-124049600D01*
X234182239Y-123948461D01*
X234274310Y-123836270D01*
X234386501Y-123744199D01*
X234487640Y-123661195D01*
X234649898Y-123574467D01*
X234731026Y-123531103D01*
X234822348Y-123503401D01*
X234995116Y-123450992D01*
X235098029Y-123440856D01*
X235200940Y-123430720D01*
X235938580Y-123430720D01*
X236041491Y-123440856D01*
X236041491Y-123440856D01*
G37*
G36*
X225968000Y-123104198D02*
X224494400Y-123104198D01*
X224494400Y-120645800D01*
X225968000Y-120645800D01*
X225968000Y-123104198D01*
X225968000Y-123104198D01*
G37*
G36*
X230336800Y-123104198D02*
X228863200Y-123104198D01*
X228863200Y-120645800D01*
X230336800Y-120645800D01*
X230336800Y-123104198D01*
X230336800Y-123104198D01*
G37*
G36*
X232701040Y-122899540D02*
X231298960Y-122899540D01*
X231298960Y-121898780D01*
X232701040Y-121898780D01*
X232701040Y-122899540D01*
X232701040Y-122899540D01*
G37*
G36*
X236041491Y-119240856D02*
X236144404Y-119250992D01*
X236320463Y-119304399D01*
X236408494Y-119331103D01*
X236489622Y-119374467D01*
X236651880Y-119461195D01*
X236753019Y-119544199D01*
X236865210Y-119636270D01*
X236957281Y-119748461D01*
X237040285Y-119849600D01*
X237127013Y-120011858D01*
X237170377Y-120092986D01*
X237170377Y-120092987D01*
X237250488Y-120357076D01*
X237277538Y-120631720D01*
X237250488Y-120906364D01*
X237197081Y-121082423D01*
X237170377Y-121170454D01*
X237127013Y-121251582D01*
X237040285Y-121413840D01*
X236957281Y-121514979D01*
X236865210Y-121627170D01*
X236753019Y-121719241D01*
X236651880Y-121802245D01*
X236489622Y-121888973D01*
X236408494Y-121932337D01*
X236364112Y-121945800D01*
X236144404Y-122012448D01*
X236041491Y-122022584D01*
X235938580Y-122032720D01*
X235200940Y-122032720D01*
X235098029Y-122022584D01*
X234995116Y-122012448D01*
X234775408Y-121945800D01*
X234731026Y-121932337D01*
X234649898Y-121888973D01*
X234487640Y-121802245D01*
X234386501Y-121719241D01*
X234274310Y-121627170D01*
X234182239Y-121514979D01*
X234099235Y-121413840D01*
X234012507Y-121251582D01*
X233969143Y-121170454D01*
X233942439Y-121082423D01*
X233889032Y-120906364D01*
X233861982Y-120631720D01*
X233889032Y-120357076D01*
X233969143Y-120092987D01*
X233969143Y-120092986D01*
X234012507Y-120011858D01*
X234099235Y-119849600D01*
X234182239Y-119748461D01*
X234274310Y-119636270D01*
X234386501Y-119544199D01*
X234487640Y-119461195D01*
X234649898Y-119374467D01*
X234731026Y-119331103D01*
X234819057Y-119304399D01*
X234995116Y-119250992D01*
X235098029Y-119240856D01*
X235200940Y-119230720D01*
X235938580Y-119230720D01*
X236041491Y-119240856D01*
X236041491Y-119240856D01*
G37*
G36*
X241541491Y-119240856D02*
X241644404Y-119250992D01*
X241820463Y-119304399D01*
X241908494Y-119331103D01*
X241989622Y-119374467D01*
X242151880Y-119461195D01*
X242253019Y-119544199D01*
X242365210Y-119636270D01*
X242457281Y-119748461D01*
X242540285Y-119849600D01*
X242627013Y-120011858D01*
X242670377Y-120092986D01*
X242670377Y-120092987D01*
X242750488Y-120357076D01*
X242777538Y-120631720D01*
X242750488Y-120906364D01*
X242697081Y-121082423D01*
X242670377Y-121170454D01*
X242627013Y-121251582D01*
X242540285Y-121413840D01*
X242457281Y-121514979D01*
X242365210Y-121627170D01*
X242253019Y-121719241D01*
X242151880Y-121802245D01*
X241989622Y-121888973D01*
X241908494Y-121932337D01*
X241864112Y-121945800D01*
X241644404Y-122012448D01*
X241541491Y-122022584D01*
X241438580Y-122032720D01*
X240700940Y-122032720D01*
X240598029Y-122022584D01*
X240495116Y-122012448D01*
X240275408Y-121945800D01*
X240231026Y-121932337D01*
X240149898Y-121888973D01*
X239987640Y-121802245D01*
X239886501Y-121719241D01*
X239774310Y-121627170D01*
X239682239Y-121514979D01*
X239599235Y-121413840D01*
X239512507Y-121251582D01*
X239469143Y-121170454D01*
X239442439Y-121082423D01*
X239389032Y-120906364D01*
X239361982Y-120631720D01*
X239389032Y-120357076D01*
X239469143Y-120092987D01*
X239469143Y-120092986D01*
X239512507Y-120011858D01*
X239599235Y-119849600D01*
X239682239Y-119748461D01*
X239774310Y-119636270D01*
X239886501Y-119544199D01*
X239987640Y-119461195D01*
X240149898Y-119374467D01*
X240231026Y-119331103D01*
X240319057Y-119304399D01*
X240495116Y-119250992D01*
X240598029Y-119240856D01*
X240700940Y-119230720D01*
X241438580Y-119230720D01*
X241541491Y-119240856D01*
X241541491Y-119240856D01*
G37*
G36*
X213651000Y-121601000D02*
X212849000Y-121601000D01*
X212849000Y-120199000D01*
X213651000Y-120199000D01*
X213651000Y-121601000D01*
X213651000Y-121601000D01*
G37*
G36*
X211751000Y-121601000D02*
X210949000Y-121601000D01*
X210949000Y-120199000D01*
X211751000Y-120199000D01*
X211751000Y-121601000D01*
X211751000Y-121601000D01*
G37*
G36*
X210301000Y-121601000D02*
X209499000Y-121601000D01*
X209499000Y-120199000D01*
X210301000Y-120199000D01*
X210301000Y-121601000D01*
X210301000Y-121601000D01*
G37*
G36*
X208401000Y-121601000D02*
X207599000Y-121601000D01*
X207599000Y-120199000D01*
X208401000Y-120199000D01*
X208401000Y-121601000D01*
X208401000Y-121601000D01*
G37*
G36*
X232701040Y-121101220D02*
X231298960Y-121101220D01*
X231298960Y-120100460D01*
X232701040Y-120100460D01*
X232701040Y-121101220D01*
X232701040Y-121101220D01*
G37*
G36*
X226402060Y-119501040D02*
X225401300Y-119501040D01*
X225401300Y-118098960D01*
X226402060Y-118098960D01*
X226402060Y-119501040D01*
X226402060Y-119501040D01*
G37*
G36*
X228200380Y-119501040D02*
X227199620Y-119501040D01*
X227199620Y-118098960D01*
X228200380Y-118098960D01*
X228200380Y-119501040D01*
X228200380Y-119501040D01*
G37*
G36*
X236041491Y-115040856D02*
X236144404Y-115050992D01*
X236320463Y-115104399D01*
X236408494Y-115131103D01*
X236489622Y-115174467D01*
X236651880Y-115261195D01*
X236713148Y-115311477D01*
X236865210Y-115436270D01*
X236957281Y-115548461D01*
X237040285Y-115649600D01*
X237102355Y-115765726D01*
X237170377Y-115892986D01*
X237170377Y-115892987D01*
X237250488Y-116157076D01*
X237277538Y-116431720D01*
X237250488Y-116706364D01*
X237237717Y-116748463D01*
X237170377Y-116970454D01*
X237135561Y-117035590D01*
X237040285Y-117213840D01*
X236957281Y-117314979D01*
X236865210Y-117427170D01*
X236753019Y-117519241D01*
X236651880Y-117602245D01*
X236489622Y-117688973D01*
X236408494Y-117732337D01*
X236320463Y-117759041D01*
X236144404Y-117812448D01*
X236041491Y-117822584D01*
X235938580Y-117832720D01*
X235200940Y-117832720D01*
X235098029Y-117822584D01*
X234995116Y-117812448D01*
X234819057Y-117759041D01*
X234731026Y-117732337D01*
X234649898Y-117688973D01*
X234487640Y-117602245D01*
X234386501Y-117519241D01*
X234274310Y-117427170D01*
X234182239Y-117314979D01*
X234099235Y-117213840D01*
X234003959Y-117035590D01*
X233969143Y-116970454D01*
X233901803Y-116748463D01*
X233889032Y-116706364D01*
X233861982Y-116431720D01*
X233889032Y-116157076D01*
X233969143Y-115892987D01*
X233969143Y-115892986D01*
X234037165Y-115765726D01*
X234099235Y-115649600D01*
X234182239Y-115548461D01*
X234274310Y-115436270D01*
X234426372Y-115311477D01*
X234487640Y-115261195D01*
X234649898Y-115174467D01*
X234731026Y-115131103D01*
X234819057Y-115104399D01*
X234995116Y-115050992D01*
X235098029Y-115040856D01*
X235200940Y-115030720D01*
X235938580Y-115030720D01*
X236041491Y-115040856D01*
X236041491Y-115040856D01*
G37*
G36*
X241541491Y-115040856D02*
X241644404Y-115050992D01*
X241820463Y-115104399D01*
X241908494Y-115131103D01*
X241989622Y-115174467D01*
X242151880Y-115261195D01*
X242213148Y-115311477D01*
X242365210Y-115436270D01*
X242457281Y-115548461D01*
X242540285Y-115649600D01*
X242602355Y-115765726D01*
X242670377Y-115892986D01*
X242670377Y-115892987D01*
X242750488Y-116157076D01*
X242777538Y-116431720D01*
X242750488Y-116706364D01*
X242737717Y-116748463D01*
X242670377Y-116970454D01*
X242635561Y-117035590D01*
X242540285Y-117213840D01*
X242457281Y-117314979D01*
X242365210Y-117427170D01*
X242253019Y-117519241D01*
X242151880Y-117602245D01*
X241989622Y-117688973D01*
X241908494Y-117732337D01*
X241820463Y-117759041D01*
X241644404Y-117812448D01*
X241541491Y-117822584D01*
X241438580Y-117832720D01*
X240700940Y-117832720D01*
X240598029Y-117822584D01*
X240495116Y-117812448D01*
X240319057Y-117759041D01*
X240231026Y-117732337D01*
X240149898Y-117688973D01*
X239987640Y-117602245D01*
X239886501Y-117519241D01*
X239774310Y-117427170D01*
X239682239Y-117314979D01*
X239599235Y-117213840D01*
X239503959Y-117035590D01*
X239469143Y-116970454D01*
X239401803Y-116748463D01*
X239389032Y-116706364D01*
X239361982Y-116431720D01*
X239389032Y-116157076D01*
X239469143Y-115892987D01*
X239469143Y-115892986D01*
X239537165Y-115765726D01*
X239599235Y-115649600D01*
X239682239Y-115548461D01*
X239774310Y-115436270D01*
X239926372Y-115311477D01*
X239987640Y-115261195D01*
X240149898Y-115174467D01*
X240231026Y-115131103D01*
X240319057Y-115104399D01*
X240495116Y-115050992D01*
X240598029Y-115040856D01*
X240700940Y-115030720D01*
X241438580Y-115030720D01*
X241541491Y-115040856D01*
X241541491Y-115040856D01*
G37*
G36*
X205308445Y-112766254D02*
X205656593Y-112835504D01*
X206066249Y-113005189D01*
X206434929Y-113251534D01*
X206748466Y-113565071D01*
X206994811Y-113933751D01*
X207164496Y-114343407D01*
X207215336Y-114599000D01*
X207251000Y-114778294D01*
X207251000Y-115221706D01*
X207243145Y-115261195D01*
X207164496Y-115656593D01*
X206994811Y-116066249D01*
X206748466Y-116434929D01*
X206434929Y-116748466D01*
X206066249Y-116994811D01*
X205656593Y-117164496D01*
X205308445Y-117233746D01*
X205221706Y-117251000D01*
X204778294Y-117251000D01*
X204691555Y-117233746D01*
X204343407Y-117164496D01*
X203933751Y-116994811D01*
X203565071Y-116748466D01*
X203251534Y-116434929D01*
X203005189Y-116066249D01*
X202835504Y-115656593D01*
X202756855Y-115261195D01*
X202749000Y-115221706D01*
X202749000Y-114778294D01*
X202784664Y-114599000D01*
X202835504Y-114343407D01*
X203005189Y-113933751D01*
X203251534Y-113565071D01*
X203565071Y-113251534D01*
X203933751Y-113005189D01*
X204343407Y-112835504D01*
X204691555Y-112766254D01*
X204778294Y-112749000D01*
X205221706Y-112749000D01*
X205308445Y-112766254D01*
X205308445Y-112766254D01*
G37*
G36*
X241541491Y-110840856D02*
X241644404Y-110850992D01*
X241820463Y-110904399D01*
X241908494Y-110931103D01*
X241989622Y-110974467D01*
X242151880Y-111061195D01*
X242227039Y-111122877D01*
X242365210Y-111236270D01*
X242449126Y-111338523D01*
X242540285Y-111449600D01*
X242595187Y-111552316D01*
X242670377Y-111692986D01*
X242692819Y-111766967D01*
X242750488Y-111957076D01*
X242777538Y-112231720D01*
X242750488Y-112506364D01*
X242697081Y-112682423D01*
X242670377Y-112770454D01*
X242635607Y-112835504D01*
X242540285Y-113013840D01*
X242457281Y-113114979D01*
X242365210Y-113227170D01*
X242263665Y-113310505D01*
X242151880Y-113402245D01*
X242010314Y-113477913D01*
X241908494Y-113532337D01*
X241820463Y-113559041D01*
X241644404Y-113612448D01*
X241541491Y-113622584D01*
X241438580Y-113632720D01*
X240700940Y-113632720D01*
X240598029Y-113622584D01*
X240495116Y-113612448D01*
X240319057Y-113559041D01*
X240231026Y-113532337D01*
X240129206Y-113477913D01*
X239987640Y-113402245D01*
X239875855Y-113310505D01*
X239774310Y-113227170D01*
X239682239Y-113114979D01*
X239599235Y-113013840D01*
X239503913Y-112835504D01*
X239469143Y-112770454D01*
X239442439Y-112682423D01*
X239389032Y-112506364D01*
X239361982Y-112231720D01*
X239389032Y-111957076D01*
X239446701Y-111766967D01*
X239469143Y-111692986D01*
X239544333Y-111552316D01*
X239599235Y-111449600D01*
X239690394Y-111338523D01*
X239774310Y-111236270D01*
X239912481Y-111122877D01*
X239987640Y-111061195D01*
X240149898Y-110974467D01*
X240231026Y-110931103D01*
X240319057Y-110904399D01*
X240495116Y-110850992D01*
X240598029Y-110840856D01*
X240700940Y-110830720D01*
X241438580Y-110830720D01*
X241541491Y-110840856D01*
X241541491Y-110840856D01*
G37*
G36*
X236041491Y-110840856D02*
X236144404Y-110850992D01*
X236320463Y-110904399D01*
X236408494Y-110931103D01*
X236489622Y-110974467D01*
X236651880Y-111061195D01*
X236727039Y-111122877D01*
X236865210Y-111236270D01*
X236949126Y-111338523D01*
X237040285Y-111449600D01*
X237095187Y-111552316D01*
X237170377Y-111692986D01*
X237192819Y-111766967D01*
X237250488Y-111957076D01*
X237277538Y-112231720D01*
X237250488Y-112506364D01*
X237197081Y-112682423D01*
X237170377Y-112770454D01*
X237135607Y-112835504D01*
X237040285Y-113013840D01*
X236957281Y-113114979D01*
X236865210Y-113227170D01*
X236763665Y-113310505D01*
X236651880Y-113402245D01*
X236510314Y-113477913D01*
X236408494Y-113532337D01*
X236320463Y-113559041D01*
X236144404Y-113612448D01*
X236041491Y-113622584D01*
X235938580Y-113632720D01*
X235200940Y-113632720D01*
X235098029Y-113622584D01*
X234995116Y-113612448D01*
X234819057Y-113559041D01*
X234731026Y-113532337D01*
X234629206Y-113477913D01*
X234487640Y-113402245D01*
X234375855Y-113310505D01*
X234274310Y-113227170D01*
X234182239Y-113114979D01*
X234099235Y-113013840D01*
X234003913Y-112835504D01*
X233969143Y-112770454D01*
X233942439Y-112682423D01*
X233889032Y-112506364D01*
X233861982Y-112231720D01*
X233889032Y-111957076D01*
X233946701Y-111766967D01*
X233969143Y-111692986D01*
X234044333Y-111552316D01*
X234099235Y-111449600D01*
X234190394Y-111338523D01*
X234274310Y-111236270D01*
X234412481Y-111122877D01*
X234487640Y-111061195D01*
X234649898Y-110974467D01*
X234731026Y-110931103D01*
X234819057Y-110904399D01*
X234995116Y-110850992D01*
X235098029Y-110840856D01*
X235200940Y-110830720D01*
X235938580Y-110830720D01*
X236041491Y-110840856D01*
X236041491Y-110840856D01*
G37*
G36*
X212201000Y-112301000D02*
X210799000Y-112301000D01*
X210799000Y-111499000D01*
X212201000Y-111499000D01*
X212201000Y-112301000D01*
X212201000Y-112301000D01*
G37*
G36*
X226589921Y-107762569D02*
X226956593Y-107835504D01*
X227366249Y-108005189D01*
X227734929Y-108251534D01*
X228048466Y-108565071D01*
X228294811Y-108933751D01*
X228464496Y-109343407D01*
X228515336Y-109599000D01*
X228551000Y-109778294D01*
X228551000Y-110221706D01*
X228534915Y-110302569D01*
X228464496Y-110656593D01*
X228294811Y-111066249D01*
X228048466Y-111434929D01*
X227734929Y-111748466D01*
X227366249Y-111994811D01*
X226956593Y-112164496D01*
X226618632Y-112231720D01*
X226521706Y-112251000D01*
X226078294Y-112251000D01*
X225981368Y-112231720D01*
X225643407Y-112164496D01*
X225233751Y-111994811D01*
X224865071Y-111748466D01*
X224551534Y-111434929D01*
X224305189Y-111066249D01*
X224135504Y-110656593D01*
X224065085Y-110302569D01*
X224049000Y-110221706D01*
X224049000Y-109778294D01*
X224084664Y-109599000D01*
X224135504Y-109343407D01*
X224305189Y-108933751D01*
X224551534Y-108565071D01*
X224865071Y-108251534D01*
X225233751Y-108005189D01*
X225643407Y-107835504D01*
X226010079Y-107762569D01*
X226078294Y-107749000D01*
X226521706Y-107749000D01*
X226589921Y-107762569D01*
X226589921Y-107762569D01*
G37*
G36*
X246303765Y-109198620D02*
X246493289Y-109277123D01*
X246663855Y-109391092D01*
X246808908Y-109536145D01*
X246922877Y-109706711D01*
X247001380Y-109896235D01*
X247041400Y-110097430D01*
X247041400Y-110302570D01*
X247001380Y-110503765D01*
X246922877Y-110693289D01*
X246808908Y-110863855D01*
X246663855Y-111008908D01*
X246493289Y-111122877D01*
X246303765Y-111201380D01*
X246102570Y-111241400D01*
X245897430Y-111241400D01*
X245696235Y-111201380D01*
X245506711Y-111122877D01*
X245336145Y-111008908D01*
X245191092Y-110863855D01*
X245077123Y-110693289D01*
X244998620Y-110503765D01*
X244958600Y-110302570D01*
X244958600Y-110097430D01*
X244998620Y-109896235D01*
X245077123Y-109706711D01*
X245191092Y-109536145D01*
X245336145Y-109391092D01*
X245506711Y-109277123D01*
X245696235Y-109198620D01*
X245897430Y-109158600D01*
X246102570Y-109158600D01*
X246303765Y-109198620D01*
X246303765Y-109198620D01*
G37*
G36*
X207483000Y-110717000D02*
X206081000Y-110717000D01*
X206081000Y-109915000D01*
X207483000Y-109915000D01*
X207483000Y-110717000D01*
X207483000Y-110717000D01*
G37*
G36*
X205197000Y-110717000D02*
X203795000Y-110717000D01*
X203795000Y-109915000D01*
X205197000Y-109915000D01*
X205197000Y-110717000D01*
X205197000Y-110717000D01*
G37*
G36*
X212201000Y-110401000D02*
X210799000Y-110401000D01*
X210799000Y-109599000D01*
X212201000Y-109599000D01*
X212201000Y-110401000D01*
X212201000Y-110401000D01*
G37*
G36*
X236041491Y-106640856D02*
X236144404Y-106650992D01*
X236320463Y-106704399D01*
X236408494Y-106731103D01*
X236489622Y-106774467D01*
X236651880Y-106861195D01*
X236753019Y-106944199D01*
X236865210Y-107036270D01*
X236957281Y-107148461D01*
X237040285Y-107249600D01*
X237093388Y-107348950D01*
X237170377Y-107492986D01*
X237170377Y-107492987D01*
X237250488Y-107757076D01*
X237277538Y-108031720D01*
X237250488Y-108306364D01*
X237198449Y-108477913D01*
X237170377Y-108570454D01*
X237151579Y-108605622D01*
X237040285Y-108813840D01*
X236957281Y-108914979D01*
X236865210Y-109027170D01*
X236753019Y-109119241D01*
X236651880Y-109202245D01*
X236511792Y-109277123D01*
X236408494Y-109332337D01*
X236320463Y-109359041D01*
X236144404Y-109412448D01*
X236041491Y-109422584D01*
X235938580Y-109432720D01*
X235200940Y-109432720D01*
X235098029Y-109422584D01*
X234995116Y-109412448D01*
X234819057Y-109359041D01*
X234731026Y-109332337D01*
X234627728Y-109277123D01*
X234487640Y-109202245D01*
X234386501Y-109119241D01*
X234274310Y-109027170D01*
X234182239Y-108914979D01*
X234099235Y-108813840D01*
X233987941Y-108605622D01*
X233969143Y-108570454D01*
X233941071Y-108477913D01*
X233889032Y-108306364D01*
X233861982Y-108031720D01*
X233889032Y-107757076D01*
X233969143Y-107492987D01*
X233969143Y-107492986D01*
X234046132Y-107348950D01*
X234099235Y-107249600D01*
X234182239Y-107148461D01*
X234274310Y-107036270D01*
X234386501Y-106944199D01*
X234487640Y-106861195D01*
X234649898Y-106774467D01*
X234731026Y-106731103D01*
X234819057Y-106704399D01*
X234995116Y-106650992D01*
X235098029Y-106640856D01*
X235200940Y-106630720D01*
X235938580Y-106630720D01*
X236041491Y-106640856D01*
X236041491Y-106640856D01*
G37*
G36*
X241541491Y-106640856D02*
X241644404Y-106650992D01*
X241820463Y-106704399D01*
X241908494Y-106731103D01*
X241989622Y-106774467D01*
X242151880Y-106861195D01*
X242253019Y-106944199D01*
X242365210Y-107036270D01*
X242457281Y-107148461D01*
X242540285Y-107249600D01*
X242593388Y-107348950D01*
X242670377Y-107492986D01*
X242670377Y-107492987D01*
X242750488Y-107757076D01*
X242777538Y-108031720D01*
X242750488Y-108306364D01*
X242698449Y-108477913D01*
X242670377Y-108570454D01*
X242651579Y-108605622D01*
X242540285Y-108813840D01*
X242457281Y-108914979D01*
X242365210Y-109027170D01*
X242253019Y-109119241D01*
X242151880Y-109202245D01*
X242011792Y-109277123D01*
X241908494Y-109332337D01*
X241820463Y-109359041D01*
X241644404Y-109412448D01*
X241541491Y-109422584D01*
X241438580Y-109432720D01*
X240700940Y-109432720D01*
X240598029Y-109422584D01*
X240495116Y-109412448D01*
X240319057Y-109359041D01*
X240231026Y-109332337D01*
X240127728Y-109277123D01*
X239987640Y-109202245D01*
X239886501Y-109119241D01*
X239774310Y-109027170D01*
X239682239Y-108914979D01*
X239599235Y-108813840D01*
X239487941Y-108605622D01*
X239469143Y-108570454D01*
X239441071Y-108477913D01*
X239389032Y-108306364D01*
X239361982Y-108031720D01*
X239389032Y-107757076D01*
X239469143Y-107492987D01*
X239469143Y-107492986D01*
X239546132Y-107348950D01*
X239599235Y-107249600D01*
X239682239Y-107148461D01*
X239774310Y-107036270D01*
X239886501Y-106944199D01*
X239987640Y-106861195D01*
X240149898Y-106774467D01*
X240231026Y-106731103D01*
X240319057Y-106704399D01*
X240495116Y-106650992D01*
X240598029Y-106640856D01*
X240700940Y-106630720D01*
X241438580Y-106630720D01*
X241541491Y-106640856D01*
X241541491Y-106640856D01*
G37*
G36*
X209851560Y-109203550D02*
X208748800Y-109203550D01*
X208748800Y-108301450D01*
X209851560Y-108301450D01*
X209851560Y-109203550D01*
X209851560Y-109203550D01*
G37*
G36*
X207483000Y-108817000D02*
X206081000Y-108817000D01*
X206081000Y-108015000D01*
X207483000Y-108015000D01*
X207483000Y-108817000D01*
X207483000Y-108817000D01*
G37*
G36*
X205197000Y-108817000D02*
X203795000Y-108817000D01*
X203795000Y-108015000D01*
X205197000Y-108015000D01*
X205197000Y-108817000D01*
X205197000Y-108817000D01*
G37*
G36*
X246303765Y-106658620D02*
X246493289Y-106737123D01*
X246663855Y-106851092D01*
X246808908Y-106996145D01*
X246922877Y-107166711D01*
X247001380Y-107356235D01*
X247041400Y-107557430D01*
X247041400Y-107762570D01*
X247001380Y-107963765D01*
X246922877Y-108153289D01*
X246808908Y-108323855D01*
X246663855Y-108468908D01*
X246493289Y-108582877D01*
X246303765Y-108661380D01*
X246102570Y-108701400D01*
X245897430Y-108701400D01*
X245696235Y-108661380D01*
X245506711Y-108582877D01*
X245336145Y-108468908D01*
X245191092Y-108323855D01*
X245077123Y-108153289D01*
X244998620Y-107963765D01*
X244958600Y-107762570D01*
X244958600Y-107557430D01*
X244998620Y-107356235D01*
X245077123Y-107166711D01*
X245191092Y-106996145D01*
X245336145Y-106851092D01*
X245506711Y-106737123D01*
X245696235Y-106658620D01*
X245897430Y-106618600D01*
X246102570Y-106618600D01*
X246303765Y-106658620D01*
X246303765Y-106658620D01*
G37*
G36*
X212051200Y-108251050D02*
X210948440Y-108251050D01*
X210948440Y-107348950D01*
X212051200Y-107348950D01*
X212051200Y-108251050D01*
X212051200Y-108251050D01*
G37*
G36*
X209851560Y-107298550D02*
X208748800Y-107298550D01*
X208748800Y-106396450D01*
X209851560Y-106396450D01*
X209851560Y-107298550D01*
X209851560Y-107298550D01*
G37*
G36*
X205308445Y-102766254D02*
X205656593Y-102835504D01*
X206066249Y-103005189D01*
X206434929Y-103251534D01*
X206748466Y-103565071D01*
X206994811Y-103933751D01*
X207164496Y-104343407D01*
X207218288Y-104613840D01*
X207251000Y-104778294D01*
X207251000Y-105221706D01*
X207233746Y-105308445D01*
X207164496Y-105656593D01*
X206994811Y-106066249D01*
X206748466Y-106434929D01*
X206434929Y-106748466D01*
X206066249Y-106994811D01*
X205656593Y-107164496D01*
X205308445Y-107233746D01*
X205221706Y-107251000D01*
X204778294Y-107251000D01*
X204691555Y-107233746D01*
X204343407Y-107164496D01*
X203933751Y-106994811D01*
X203565071Y-106748466D01*
X203251534Y-106434929D01*
X203005189Y-106066249D01*
X202835504Y-105656593D01*
X202766254Y-105308445D01*
X202749000Y-105221706D01*
X202749000Y-104778294D01*
X202781712Y-104613840D01*
X202835504Y-104343407D01*
X203005189Y-103933751D01*
X203251534Y-103565071D01*
X203565071Y-103251534D01*
X203933751Y-103005189D01*
X204343407Y-102835504D01*
X204691555Y-102766254D01*
X204778294Y-102749000D01*
X205221706Y-102749000D01*
X205308445Y-102766254D01*
X205308445Y-102766254D01*
G37*
G36*
X241541491Y-102440856D02*
X241644404Y-102450992D01*
X241820463Y-102504399D01*
X241908494Y-102531103D01*
X241989622Y-102574467D01*
X242151880Y-102661195D01*
X242253019Y-102744199D01*
X242365210Y-102836270D01*
X242457281Y-102948461D01*
X242540285Y-103049600D01*
X242599324Y-103160055D01*
X242670377Y-103292986D01*
X242670377Y-103292987D01*
X242750488Y-103557076D01*
X242777538Y-103831720D01*
X242750488Y-104106364D01*
X242738843Y-104144751D01*
X242670377Y-104370454D01*
X242627013Y-104451582D01*
X242540285Y-104613840D01*
X242457281Y-104714979D01*
X242365210Y-104827170D01*
X242253019Y-104919241D01*
X242151880Y-105002245D01*
X241989622Y-105088973D01*
X241908494Y-105132337D01*
X241820463Y-105159041D01*
X241644404Y-105212448D01*
X241541491Y-105222584D01*
X241438580Y-105232720D01*
X240700940Y-105232720D01*
X240598029Y-105222584D01*
X240495116Y-105212448D01*
X240319057Y-105159041D01*
X240231026Y-105132337D01*
X240149898Y-105088973D01*
X239987640Y-105002245D01*
X239886501Y-104919241D01*
X239774310Y-104827170D01*
X239682239Y-104714979D01*
X239599235Y-104613840D01*
X239512507Y-104451582D01*
X239469143Y-104370454D01*
X239400677Y-104144751D01*
X239389032Y-104106364D01*
X239361982Y-103831720D01*
X239389032Y-103557076D01*
X239469143Y-103292987D01*
X239469143Y-103292986D01*
X239540196Y-103160055D01*
X239599235Y-103049600D01*
X239682239Y-102948461D01*
X239774310Y-102836270D01*
X239886501Y-102744199D01*
X239987640Y-102661195D01*
X240149898Y-102574467D01*
X240231026Y-102531103D01*
X240319057Y-102504399D01*
X240495116Y-102450992D01*
X240598029Y-102440856D01*
X240700940Y-102430720D01*
X241438580Y-102430720D01*
X241541491Y-102440856D01*
X241541491Y-102440856D01*
G37*
G36*
X236041491Y-102440856D02*
X236144404Y-102450992D01*
X236320463Y-102504399D01*
X236408494Y-102531103D01*
X236489622Y-102574467D01*
X236651880Y-102661195D01*
X236753019Y-102744199D01*
X236865210Y-102836270D01*
X236957281Y-102948461D01*
X237040285Y-103049600D01*
X237099324Y-103160055D01*
X237170377Y-103292986D01*
X237170377Y-103292987D01*
X237250488Y-103557076D01*
X237277538Y-103831720D01*
X237250488Y-104106364D01*
X237238843Y-104144751D01*
X237170377Y-104370454D01*
X237127013Y-104451582D01*
X237040285Y-104613840D01*
X236957281Y-104714979D01*
X236865210Y-104827170D01*
X236753019Y-104919241D01*
X236651880Y-105002245D01*
X236489622Y-105088973D01*
X236408494Y-105132337D01*
X236320463Y-105159041D01*
X236144404Y-105212448D01*
X236041491Y-105222584D01*
X235938580Y-105232720D01*
X235200940Y-105232720D01*
X235098029Y-105222584D01*
X234995116Y-105212448D01*
X234819057Y-105159041D01*
X234731026Y-105132337D01*
X234649898Y-105088973D01*
X234487640Y-105002245D01*
X234386501Y-104919241D01*
X234274310Y-104827170D01*
X234182239Y-104714979D01*
X234099235Y-104613840D01*
X234012507Y-104451582D01*
X233969143Y-104370454D01*
X233900677Y-104144751D01*
X233889032Y-104106364D01*
X233861982Y-103831720D01*
X233889032Y-103557076D01*
X233969143Y-103292987D01*
X233969143Y-103292986D01*
X234040196Y-103160055D01*
X234099235Y-103049600D01*
X234182239Y-102948461D01*
X234274310Y-102836270D01*
X234386501Y-102744199D01*
X234487640Y-102661195D01*
X234649898Y-102574467D01*
X234731026Y-102531103D01*
X234819057Y-102504399D01*
X234995116Y-102450992D01*
X235098029Y-102440856D01*
X235200940Y-102430720D01*
X235938580Y-102430720D01*
X236041491Y-102440856D01*
X236041491Y-102440856D01*
G37*
G36*
X210401000Y-102301000D02*
X209599000Y-102301000D01*
X209599000Y-100899000D01*
X210401000Y-100899000D01*
X210401000Y-102301000D01*
X210401000Y-102301000D01*
G37*
G36*
X212301000Y-102301000D02*
X211499000Y-102301000D01*
X211499000Y-100899000D01*
X212301000Y-100899000D01*
X212301000Y-102301000D01*
X212301000Y-102301000D01*
G37*
G36*
X204901000Y-101201000D02*
X204099000Y-101201000D01*
X204099000Y-99799000D01*
X204901000Y-99799000D01*
X204901000Y-101201000D01*
X204901000Y-101201000D01*
G37*
G36*
X206801000Y-101201000D02*
X205999000Y-101201000D01*
X205999000Y-99799000D01*
X206801000Y-99799000D01*
X206801000Y-101201000D01*
X206801000Y-101201000D01*
G37*
G36*
X241541491Y-98240856D02*
X241644404Y-98250992D01*
X241820463Y-98304399D01*
X241908494Y-98331103D01*
X241989622Y-98374467D01*
X242151880Y-98461195D01*
X242253019Y-98544199D01*
X242365210Y-98636270D01*
X242457281Y-98748461D01*
X242540285Y-98849600D01*
X242627013Y-99011858D01*
X242670377Y-99092986D01*
X242688870Y-99153950D01*
X242750488Y-99357076D01*
X242777538Y-99631720D01*
X242750488Y-99906364D01*
X242705081Y-100056050D01*
X242670377Y-100170454D01*
X242627013Y-100251582D01*
X242540285Y-100413840D01*
X242457281Y-100514979D01*
X242365210Y-100627170D01*
X242253019Y-100719241D01*
X242151880Y-100802245D01*
X241989622Y-100888973D01*
X241908494Y-100932337D01*
X241820463Y-100959041D01*
X241644404Y-101012448D01*
X241541491Y-101022584D01*
X241438580Y-101032720D01*
X240700940Y-101032720D01*
X240598029Y-101022584D01*
X240495116Y-101012448D01*
X240319057Y-100959041D01*
X240231026Y-100932337D01*
X240149898Y-100888973D01*
X239987640Y-100802245D01*
X239886501Y-100719241D01*
X239774310Y-100627170D01*
X239682239Y-100514979D01*
X239599235Y-100413840D01*
X239512507Y-100251582D01*
X239469143Y-100170454D01*
X239434439Y-100056050D01*
X239389032Y-99906364D01*
X239361982Y-99631720D01*
X239389032Y-99357076D01*
X239450650Y-99153950D01*
X239469143Y-99092986D01*
X239512507Y-99011858D01*
X239599235Y-98849600D01*
X239682239Y-98748461D01*
X239774310Y-98636270D01*
X239886501Y-98544199D01*
X239987640Y-98461195D01*
X240149898Y-98374467D01*
X240231026Y-98331103D01*
X240319057Y-98304399D01*
X240495116Y-98250992D01*
X240598029Y-98240856D01*
X240700940Y-98230720D01*
X241438580Y-98230720D01*
X241541491Y-98240856D01*
X241541491Y-98240856D01*
G37*
G36*
X236041491Y-98240856D02*
X236144404Y-98250992D01*
X236320463Y-98304399D01*
X236408494Y-98331103D01*
X236489622Y-98374467D01*
X236651880Y-98461195D01*
X236753019Y-98544199D01*
X236865210Y-98636270D01*
X236957281Y-98748461D01*
X237040285Y-98849600D01*
X237127013Y-99011858D01*
X237170377Y-99092986D01*
X237188870Y-99153950D01*
X237250488Y-99357076D01*
X237277538Y-99631720D01*
X237250488Y-99906364D01*
X237205081Y-100056050D01*
X237170377Y-100170454D01*
X237127013Y-100251582D01*
X237040285Y-100413840D01*
X236957281Y-100514979D01*
X236865210Y-100627170D01*
X236753019Y-100719241D01*
X236651880Y-100802245D01*
X236489622Y-100888973D01*
X236408494Y-100932337D01*
X236320463Y-100959041D01*
X236144404Y-101012448D01*
X236041491Y-101022584D01*
X235938580Y-101032720D01*
X235200940Y-101032720D01*
X235098029Y-101022584D01*
X234995116Y-101012448D01*
X234819057Y-100959041D01*
X234731026Y-100932337D01*
X234649898Y-100888973D01*
X234487640Y-100802245D01*
X234386501Y-100719241D01*
X234274310Y-100627170D01*
X234182239Y-100514979D01*
X234099235Y-100413840D01*
X234012507Y-100251582D01*
X233969143Y-100170454D01*
X233934439Y-100056050D01*
X233889032Y-99906364D01*
X233861982Y-99631720D01*
X233889032Y-99357076D01*
X233950650Y-99153950D01*
X233969143Y-99092986D01*
X234012507Y-99011858D01*
X234099235Y-98849600D01*
X234182239Y-98748461D01*
X234274310Y-98636270D01*
X234386501Y-98544199D01*
X234487640Y-98461195D01*
X234649898Y-98374467D01*
X234731026Y-98331103D01*
X234819057Y-98304399D01*
X234995116Y-98250992D01*
X235098029Y-98240856D01*
X235200940Y-98230720D01*
X235938580Y-98230720D01*
X236041491Y-98240856D01*
X236041491Y-98240856D01*
G37*
G36*
X208351380Y-100056050D02*
X207248620Y-100056050D01*
X207248620Y-99153950D01*
X208351380Y-99153950D01*
X208351380Y-100056050D01*
X208351380Y-100056050D01*
G37*
G36*
X210551020Y-99103550D02*
X209448260Y-99103550D01*
X209448260Y-98201450D01*
X210551020Y-98201450D01*
X210551020Y-99103550D01*
X210551020Y-99103550D01*
G37*
G36*
X208351380Y-98151050D02*
X207248620Y-98151050D01*
X207248620Y-97248950D01*
X208351380Y-97248950D01*
X208351380Y-98151050D01*
X208351380Y-98151050D01*
G37*
G36*
X236041491Y-94040856D02*
X236144404Y-94050992D01*
X236320463Y-94104399D01*
X236408494Y-94131103D01*
X236489622Y-94174467D01*
X236651880Y-94261195D01*
X236753019Y-94344199D01*
X236865210Y-94436270D01*
X236957281Y-94548461D01*
X237040285Y-94649600D01*
X237127013Y-94811858D01*
X237170377Y-94892986D01*
X237170377Y-94892987D01*
X237250488Y-95157076D01*
X237277538Y-95431720D01*
X237250488Y-95706364D01*
X237197081Y-95882423D01*
X237170377Y-95970454D01*
X237127013Y-96051582D01*
X237040285Y-96213840D01*
X236957281Y-96314979D01*
X236865210Y-96427170D01*
X236753019Y-96519241D01*
X236651880Y-96602245D01*
X236489622Y-96688973D01*
X236408494Y-96732337D01*
X236320463Y-96759041D01*
X236144404Y-96812448D01*
X236041491Y-96822584D01*
X235938580Y-96832720D01*
X235200940Y-96832720D01*
X235098029Y-96822584D01*
X234995116Y-96812448D01*
X234819057Y-96759041D01*
X234731026Y-96732337D01*
X234649898Y-96688973D01*
X234487640Y-96602245D01*
X234386501Y-96519241D01*
X234274310Y-96427170D01*
X234182239Y-96314979D01*
X234099235Y-96213840D01*
X234012507Y-96051582D01*
X233969143Y-95970454D01*
X233942439Y-95882423D01*
X233889032Y-95706364D01*
X233861982Y-95431720D01*
X233889032Y-95157076D01*
X233969143Y-94892987D01*
X233969143Y-94892986D01*
X234012507Y-94811858D01*
X234099235Y-94649600D01*
X234182239Y-94548461D01*
X234274310Y-94436270D01*
X234386501Y-94344199D01*
X234487640Y-94261195D01*
X234649898Y-94174467D01*
X234731026Y-94131103D01*
X234819057Y-94104399D01*
X234995116Y-94050992D01*
X235098029Y-94040856D01*
X235200940Y-94030720D01*
X235938580Y-94030720D01*
X236041491Y-94040856D01*
X236041491Y-94040856D01*
G37*
G36*
X241541491Y-94040856D02*
X241644404Y-94050992D01*
X241820463Y-94104399D01*
X241908494Y-94131103D01*
X241989622Y-94174467D01*
X242151880Y-94261195D01*
X242253019Y-94344199D01*
X242365210Y-94436270D01*
X242457281Y-94548461D01*
X242540285Y-94649600D01*
X242627013Y-94811858D01*
X242670377Y-94892986D01*
X242670377Y-94892987D01*
X242750488Y-95157076D01*
X242777538Y-95431720D01*
X242750488Y-95706364D01*
X242697081Y-95882423D01*
X242670377Y-95970454D01*
X242627013Y-96051582D01*
X242540285Y-96213840D01*
X242457281Y-96314979D01*
X242365210Y-96427170D01*
X242253019Y-96519241D01*
X242151880Y-96602245D01*
X241989622Y-96688973D01*
X241908494Y-96732337D01*
X241820463Y-96759041D01*
X241644404Y-96812448D01*
X241541491Y-96822584D01*
X241438580Y-96832720D01*
X240700940Y-96832720D01*
X240598029Y-96822584D01*
X240495116Y-96812448D01*
X240319057Y-96759041D01*
X240231026Y-96732337D01*
X240149898Y-96688973D01*
X239987640Y-96602245D01*
X239886501Y-96519241D01*
X239774310Y-96427170D01*
X239682239Y-96314979D01*
X239599235Y-96213840D01*
X239512507Y-96051582D01*
X239469143Y-95970454D01*
X239442439Y-95882423D01*
X239389032Y-95706364D01*
X239361982Y-95431720D01*
X239389032Y-95157076D01*
X239469143Y-94892987D01*
X239469143Y-94892986D01*
X239512507Y-94811858D01*
X239599235Y-94649600D01*
X239682239Y-94548461D01*
X239774310Y-94436270D01*
X239886501Y-94344199D01*
X239987640Y-94261195D01*
X240149898Y-94174467D01*
X240231026Y-94131103D01*
X240319057Y-94104399D01*
X240495116Y-94050992D01*
X240598029Y-94040856D01*
X240700940Y-94030720D01*
X241438580Y-94030720D01*
X241541491Y-94040856D01*
X241541491Y-94040856D01*
G37*
G36*
X206401000Y-95701000D02*
X205599000Y-95701000D01*
X205599000Y-94299000D01*
X206401000Y-94299000D01*
X206401000Y-95701000D01*
X206401000Y-95701000D01*
G37*
G36*
X204501000Y-95701000D02*
X203699000Y-95701000D01*
X203699000Y-94299000D01*
X204501000Y-94299000D01*
X204501000Y-95701000D01*
X204501000Y-95701000D01*
G37*
G36*
X214301000Y-94301000D02*
X212899000Y-94301000D01*
X212899000Y-93499000D01*
X214301000Y-93499000D01*
X214301000Y-94301000D01*
X214301000Y-94301000D01*
G37*
G36*
X208751560Y-93403550D02*
X207648800Y-93403550D01*
X207648800Y-92501450D01*
X208751560Y-92501450D01*
X208751560Y-93403550D01*
X208751560Y-93403550D01*
G37*
G36*
X205286445Y-88698254D02*
X205634593Y-88767504D01*
X206044249Y-88937189D01*
X206412929Y-89183534D01*
X206726466Y-89497071D01*
X206972811Y-89865751D01*
X207142496Y-90275407D01*
X207193336Y-90531000D01*
X207229000Y-90710294D01*
X207229000Y-91153706D01*
X207213482Y-91231720D01*
X207142496Y-91588593D01*
X206972811Y-91998249D01*
X206726466Y-92366929D01*
X206412929Y-92680466D01*
X206044249Y-92926811D01*
X205634593Y-93096496D01*
X205286445Y-93165746D01*
X205199706Y-93183000D01*
X204756294Y-93183000D01*
X204669555Y-93165746D01*
X204321407Y-93096496D01*
X203911751Y-92926811D01*
X203543071Y-92680466D01*
X203229534Y-92366929D01*
X202983189Y-91998249D01*
X202813504Y-91588593D01*
X202742518Y-91231720D01*
X202727000Y-91153706D01*
X202727000Y-90710294D01*
X202762664Y-90531000D01*
X202813504Y-90275407D01*
X202983189Y-89865751D01*
X203229534Y-89497071D01*
X203543071Y-89183534D01*
X203911751Y-88937189D01*
X204321407Y-88767504D01*
X204669555Y-88698254D01*
X204756294Y-88681000D01*
X205199706Y-88681000D01*
X205286445Y-88698254D01*
X205286445Y-88698254D01*
G37*
G36*
X237143792Y-89834341D02*
X237173247Y-89843276D01*
X237200384Y-89857782D01*
X237224174Y-89877306D01*
X237243698Y-89901096D01*
X237258204Y-89928233D01*
X237267139Y-89957688D01*
X237270760Y-89994453D01*
X237270760Y-92468987D01*
X237267139Y-92505752D01*
X237258204Y-92535207D01*
X237243698Y-92562344D01*
X237224174Y-92586134D01*
X237200384Y-92605658D01*
X237173247Y-92620164D01*
X237143792Y-92629099D01*
X237107027Y-92632720D01*
X234032493Y-92632720D01*
X233995728Y-92629099D01*
X233966273Y-92620164D01*
X233939136Y-92605658D01*
X233915346Y-92586134D01*
X233895822Y-92562344D01*
X233881316Y-92535207D01*
X233872381Y-92505752D01*
X233868760Y-92468987D01*
X233868760Y-89994453D01*
X233872381Y-89957688D01*
X233881316Y-89928233D01*
X233895822Y-89901096D01*
X233915346Y-89877306D01*
X233939136Y-89857782D01*
X233966273Y-89843276D01*
X233995728Y-89834341D01*
X234032493Y-89830720D01*
X237107027Y-89830720D01*
X237143792Y-89834341D01*
X237143792Y-89834341D01*
G37*
G36*
X241541491Y-89840856D02*
X241644404Y-89850992D01*
X241809574Y-89901096D01*
X241908494Y-89931103D01*
X241989622Y-89974467D01*
X242151880Y-90061195D01*
X242224307Y-90120635D01*
X242365210Y-90236270D01*
X242457281Y-90348461D01*
X242540285Y-90449600D01*
X242608188Y-90576639D01*
X242670377Y-90692986D01*
X242670377Y-90692987D01*
X242750488Y-90957076D01*
X242777538Y-91231720D01*
X242750488Y-91506364D01*
X242725545Y-91588590D01*
X242670377Y-91770454D01*
X242631545Y-91843104D01*
X242540285Y-92013840D01*
X242457281Y-92114979D01*
X242365210Y-92227170D01*
X242253019Y-92319241D01*
X242151880Y-92402245D01*
X241998335Y-92484316D01*
X241908494Y-92532337D01*
X241874974Y-92542505D01*
X241644404Y-92612448D01*
X241552548Y-92621495D01*
X241438580Y-92632720D01*
X240700940Y-92632720D01*
X240586972Y-92621495D01*
X240495116Y-92612448D01*
X240264546Y-92542505D01*
X240231026Y-92532337D01*
X240141185Y-92484316D01*
X239987640Y-92402245D01*
X239886501Y-92319241D01*
X239774310Y-92227170D01*
X239682239Y-92114979D01*
X239599235Y-92013840D01*
X239507975Y-91843104D01*
X239469143Y-91770454D01*
X239413975Y-91588590D01*
X239389032Y-91506364D01*
X239361982Y-91231720D01*
X239389032Y-90957076D01*
X239469143Y-90692987D01*
X239469143Y-90692986D01*
X239531332Y-90576639D01*
X239599235Y-90449600D01*
X239682239Y-90348461D01*
X239774310Y-90236270D01*
X239915213Y-90120635D01*
X239987640Y-90061195D01*
X240149898Y-89974467D01*
X240231026Y-89931103D01*
X240329946Y-89901096D01*
X240495116Y-89850992D01*
X240598029Y-89840856D01*
X240700940Y-89830720D01*
X241438580Y-89830720D01*
X241541491Y-89840856D01*
X241541491Y-89840856D01*
G37*
G36*
X210951200Y-92451050D02*
X209848440Y-92451050D01*
X209848440Y-91548950D01*
X210951200Y-91548950D01*
X210951200Y-92451050D01*
X210951200Y-92451050D01*
G37*
G36*
X214301000Y-92401000D02*
X212899000Y-92401000D01*
X212899000Y-91599000D01*
X214301000Y-91599000D01*
X214301000Y-92401000D01*
X214301000Y-92401000D01*
G37*
G36*
X208751560Y-91498550D02*
X207648800Y-91498550D01*
X207648800Y-90596450D01*
X208751560Y-90596450D01*
X208751560Y-91498550D01*
X208751560Y-91498550D01*
G37*
M02*
