G04 #@! TF.GenerationSoftware,KiCad,Pcbnew,(5.0.1)-rc2*
G04 #@! TF.CreationDate,2018-11-23T18:31:16-07:00*
G04 #@! TF.ProjectId,PowerSupply,506F776572537570706C792E6B696361,rev?*
G04 #@! TF.SameCoordinates,Original*
G04 #@! TF.FileFunction,Legend,Top*
G04 #@! TF.FilePolarity,Positive*
%FSLAX46Y46*%
G04 Gerber Fmt 4.6, Leading zero omitted, Abs format (unit mm)*
G04 Created by KiCad (PCBNEW (5.0.1)-rc2) date 11/23/2018 6:31:16 PM*
%MOMM*%
%LPD*%
G01*
G04 APERTURE LIST*
%ADD10C,0.150000*%
%ADD11C,0.203200*%
%ADD12C,0.120000*%
%ADD13C,0.152400*%
%ADD14C,0.078740*%
%ADD15C,0.127000*%
%ADD16C,0.250190*%
%ADD17C,0.251460*%
%ADD18C,0.050000*%
%ADD19C,0.119380*%
%ADD20C,0.099060*%
G04 APERTURE END LIST*
D10*
G04 #@! TO.C,A1*
X187410000Y-147590000D02*
X230590000Y-147590000D01*
X230590000Y-129810000D02*
X187410000Y-129810000D01*
X230590000Y-147590000D02*
X230590000Y-129810000D01*
X225510000Y-134890000D02*
X225510000Y-142510000D01*
X230590000Y-134890000D02*
X225510000Y-134890000D01*
X225510000Y-142510000D02*
X230590000Y-142510000D01*
X228050000Y-139970000D02*
X230590000Y-139970000D01*
X228050000Y-142510000D02*
X228050000Y-139970000D01*
X229955000Y-146320000D02*
G75*
G03X229955000Y-146320000I-635000J0D01*
G01*
X229955000Y-131080000D02*
G75*
G03X229955000Y-131080000I-635000J0D01*
G01*
X189315000Y-146320000D02*
G75*
G03X189315000Y-146320000I-635000J0D01*
G01*
X189315000Y-131080000D02*
G75*
G03X189315000Y-131080000I-635000J0D01*
G01*
X229955000Y-141240000D02*
G75*
G03X229955000Y-141240000I-635000J0D01*
G01*
X227415000Y-141240000D02*
G75*
G03X227415000Y-141240000I-635000J0D01*
G01*
X227415000Y-138700000D02*
G75*
G03X227415000Y-138700000I-635000J0D01*
G01*
X227415000Y-136160000D02*
G75*
G03X227415000Y-136160000I-635000J0D01*
G01*
X229955000Y-136160000D02*
G75*
G03X229955000Y-136160000I-635000J0D01*
G01*
X229955000Y-138700000D02*
G75*
G03X229955000Y-138700000I-635000J0D01*
G01*
X193760000Y-142510000D02*
X185505000Y-142510000D01*
X193760000Y-134890000D02*
X193760000Y-142510000D01*
X185505000Y-134890000D02*
X193760000Y-134890000D01*
X185505000Y-142510000D02*
X185505000Y-134890000D01*
X187410000Y-147590000D02*
X187410000Y-142510000D01*
X187410000Y-134890000D02*
X187410000Y-129810000D01*
G04 #@! TO.C,Q1*
X215450000Y-117600000D02*
X209250000Y-117600000D01*
X214750000Y-112400000D02*
X209250000Y-112400000D01*
D11*
G04 #@! TO.C,J1*
X235737400Y-146171920D02*
X234467400Y-146171920D01*
X234467400Y-146171920D02*
X233832400Y-145536920D01*
X233832400Y-144266920D02*
X234467400Y-143631920D01*
X238912400Y-145536920D02*
X238277400Y-146171920D01*
X238277400Y-146171920D02*
X237007400Y-146171920D01*
X237007400Y-146171920D02*
X236372400Y-145536920D01*
X236372400Y-144266920D02*
X237007400Y-143631920D01*
X237007400Y-143631920D02*
X238277400Y-143631920D01*
X238277400Y-143631920D02*
X238912400Y-144266920D01*
X235737400Y-146171920D02*
X236372400Y-145536920D01*
X236372400Y-144266920D02*
X235737400Y-143631920D01*
X234467400Y-143631920D02*
X235737400Y-143631920D01*
X243357400Y-146171920D02*
X242087400Y-146171920D01*
X242087400Y-146171920D02*
X241452400Y-145536920D01*
X241452400Y-144266920D02*
X242087400Y-143631920D01*
X241452400Y-145536920D02*
X240817400Y-146171920D01*
X240817400Y-146171920D02*
X239547400Y-146171920D01*
X239547400Y-146171920D02*
X238912400Y-145536920D01*
X238912400Y-144266920D02*
X239547400Y-143631920D01*
X239547400Y-143631920D02*
X240817400Y-143631920D01*
X240817400Y-143631920D02*
X241452400Y-144266920D01*
X243992400Y-145536920D02*
X243992400Y-144266920D01*
X243357400Y-146171920D02*
X243992400Y-145536920D01*
X243992400Y-144266920D02*
X243357400Y-143631920D01*
X242087400Y-143631920D02*
X243357400Y-143631920D01*
X233832400Y-145536920D02*
X233832400Y-144266920D01*
G04 #@! TO.C,J3*
X247270000Y-107025000D02*
X247270000Y-108295000D01*
X247270000Y-108295000D02*
X246635000Y-108930000D01*
X245365000Y-108930000D02*
X244730000Y-108295000D01*
X246635000Y-108930000D02*
X247270000Y-109565000D01*
X247270000Y-109565000D02*
X247270000Y-110835000D01*
X247270000Y-110835000D02*
X246635000Y-111470000D01*
X245365000Y-111470000D02*
X244730000Y-110835000D01*
X244730000Y-110835000D02*
X244730000Y-109565000D01*
X244730000Y-109565000D02*
X245365000Y-108930000D01*
X246635000Y-106390000D02*
X245365000Y-106390000D01*
X247270000Y-107025000D02*
X246635000Y-106390000D01*
X245365000Y-106390000D02*
X244730000Y-107025000D01*
X244730000Y-108295000D02*
X244730000Y-107025000D01*
X246635000Y-111470000D02*
X245365000Y-111470000D01*
D12*
G04 #@! TO.C,R7*
X216320000Y-112250000D02*
X216320000Y-111050000D01*
X218080000Y-111050000D02*
X218080000Y-112250000D01*
G04 #@! TO.C,R11*
X207250000Y-109580000D02*
X206050000Y-109580000D01*
X206050000Y-107820000D02*
X207250000Y-107820000D01*
G04 #@! TO.C,R12*
X207250000Y-111780000D02*
X206050000Y-111780000D01*
X206050000Y-110020000D02*
X207250000Y-110020000D01*
G04 #@! TO.C,R14*
X204150000Y-143680000D02*
X202950000Y-143680000D01*
X202950000Y-141920000D02*
X204150000Y-141920000D01*
G04 #@! TO.C,R15*
X202950000Y-145220000D02*
X204150000Y-145220000D01*
X204150000Y-146980000D02*
X202950000Y-146980000D01*
D13*
G04 #@! TO.C,U1*
X218116000Y-88670000D02*
X218416000Y-88670000D01*
X218416000Y-88670000D02*
X218416000Y-89870000D01*
X218416000Y-91270000D02*
X218416000Y-91670000D01*
X218416000Y-91670000D02*
X218116000Y-91670000D01*
X215716000Y-88670000D02*
X215416000Y-88670000D01*
X215416000Y-88670000D02*
X215416000Y-89870000D01*
X215416000Y-91270000D02*
X215416000Y-91670000D01*
X215416000Y-91670000D02*
X215716000Y-91670000D01*
D10*
X217691000Y-87670000D02*
G75*
G03X217691000Y-87670000I-75000J0D01*
G01*
G04 #@! TO.C,U2*
X220775000Y-103350000D02*
G75*
G03X220775000Y-103350000I-75000J0D01*
G01*
D13*
X218500000Y-107350000D02*
X218800000Y-107350000D01*
X218500000Y-106950000D02*
X218500000Y-107350000D01*
X218500000Y-104350000D02*
X218500000Y-105550000D01*
X218800000Y-104350000D02*
X218500000Y-104350000D01*
X221500000Y-107350000D02*
X221200000Y-107350000D01*
X221500000Y-106950000D02*
X221500000Y-107350000D01*
X221500000Y-104350000D02*
X221500000Y-105550000D01*
X221200000Y-104350000D02*
X221500000Y-104350000D01*
D14*
G04 #@! TO.C,Q7*
X213308730Y-108823980D02*
G75*
G03X213308730Y-108823980I-159070J0D01*
G01*
X214008180Y-111270000D02*
X212992180Y-111270000D01*
X214008180Y-108666500D02*
X212992180Y-108666500D01*
X212992180Y-111270000D02*
X212992180Y-108666500D01*
X214008180Y-108666500D02*
X214008180Y-111270000D01*
D12*
G04 #@! TO.C,U6*
X217381000Y-96217500D02*
X217381000Y-96442500D01*
X215681000Y-96217500D02*
X215681000Y-96442500D01*
X216231000Y-97192500D02*
X216831000Y-97192500D01*
X216231000Y-93942500D02*
X216831000Y-93942500D01*
G04 #@! TO.C,H1*
X247650000Y-131300000D02*
G75*
G03X247650000Y-131300000I-1450000J0D01*
G01*
G04 #@! TO.C,H2*
X247350000Y-121500000D02*
G75*
G03X247350000Y-121500000I-1450000J0D01*
G01*
D13*
G04 #@! TO.C,U3*
X222116000Y-114848000D02*
X222416000Y-114848000D01*
X222416000Y-114848000D02*
X222416000Y-116048000D01*
X222416000Y-117448000D02*
X222416000Y-117848000D01*
X222416000Y-117848000D02*
X222116000Y-117848000D01*
X219716000Y-114848000D02*
X219416000Y-114848000D01*
X219416000Y-114848000D02*
X219416000Y-116048000D01*
X219416000Y-117448000D02*
X219416000Y-117848000D01*
X219416000Y-117848000D02*
X219716000Y-117848000D01*
D10*
X221691000Y-113848000D02*
G75*
G03X221691000Y-113848000I-75000J0D01*
G01*
D12*
G04 #@! TO.C,F1*
X225951064Y-92410000D02*
X224746936Y-92410000D01*
X225951064Y-90590000D02*
X224746936Y-90590000D01*
G04 #@! TO.C,F2*
X227951064Y-103590000D02*
X226746936Y-103590000D01*
X227951064Y-105410000D02*
X226746936Y-105410000D01*
G04 #@! TO.C,F3*
X228018064Y-116058000D02*
X226813936Y-116058000D01*
X228018064Y-114238000D02*
X226813936Y-114238000D01*
D15*
G04 #@! TO.C,P1*
X211464420Y-100497380D02*
X211464420Y-99862380D01*
X211464420Y-99862380D02*
X212734420Y-99862380D01*
X212734420Y-99862380D02*
X212734420Y-100497380D01*
X208797420Y-100497380D02*
X208797420Y-97703380D01*
X208797420Y-97703380D02*
X215528420Y-97703380D01*
X215528420Y-97703380D02*
X215528420Y-100497380D01*
X215528420Y-100497380D02*
X208797420Y-100497380D01*
G04 #@! TO.C,A1*
D10*
X232060000Y-139557142D02*
X232060000Y-138985714D01*
X232402857Y-139671428D02*
X231202857Y-139271428D01*
X232402857Y-138871428D01*
X232402857Y-137842857D02*
X232402857Y-138528571D01*
X232402857Y-138185714D02*
X231202857Y-138185714D01*
X231374285Y-138300000D01*
X231488571Y-138414285D01*
X231545714Y-138528571D01*
G04 #@! TO.C,Q1*
X211904761Y-119047619D02*
X211809523Y-119000000D01*
X211714285Y-118904761D01*
X211571428Y-118761904D01*
X211476190Y-118714285D01*
X211380952Y-118714285D01*
X211428571Y-118952380D02*
X211333333Y-118904761D01*
X211238095Y-118809523D01*
X211190476Y-118619047D01*
X211190476Y-118285714D01*
X211238095Y-118095238D01*
X211333333Y-118000000D01*
X211428571Y-117952380D01*
X211619047Y-117952380D01*
X211714285Y-118000000D01*
X211809523Y-118095238D01*
X211857142Y-118285714D01*
X211857142Y-118619047D01*
X211809523Y-118809523D01*
X211714285Y-118904761D01*
X211619047Y-118952380D01*
X211428571Y-118952380D01*
X212809523Y-118952380D02*
X212238095Y-118952380D01*
X212523809Y-118952380D02*
X212523809Y-117952380D01*
X212428571Y-118095238D01*
X212333333Y-118190476D01*
X212238095Y-118238095D01*
G04 #@! TO.C,C3*
D15*
X221199240Y-129587714D02*
X221170211Y-129616742D01*
X221083125Y-129645771D01*
X221025068Y-129645771D01*
X220937982Y-129616742D01*
X220879925Y-129558685D01*
X220850897Y-129500628D01*
X220821868Y-129384514D01*
X220821868Y-129297428D01*
X220850897Y-129181314D01*
X220879925Y-129123257D01*
X220937982Y-129065200D01*
X221025068Y-129036171D01*
X221083125Y-129036171D01*
X221170211Y-129065200D01*
X221199240Y-129094228D01*
X221402440Y-129036171D02*
X221779811Y-129036171D01*
X221576611Y-129268400D01*
X221663697Y-129268400D01*
X221721754Y-129297428D01*
X221750782Y-129326457D01*
X221779811Y-129384514D01*
X221779811Y-129529657D01*
X221750782Y-129587714D01*
X221721754Y-129616742D01*
X221663697Y-129645771D01*
X221489525Y-129645771D01*
X221431468Y-129616742D01*
X221402440Y-129587714D01*
X221489525Y-127047714D02*
X221460497Y-127076742D01*
X221373411Y-127105771D01*
X221315354Y-127105771D01*
X221228268Y-127076742D01*
X221170211Y-127018685D01*
X221141182Y-126960628D01*
X221112154Y-126844514D01*
X221112154Y-126757428D01*
X221141182Y-126641314D01*
X221170211Y-126583257D01*
X221228268Y-126525200D01*
X221315354Y-126496171D01*
X221373411Y-126496171D01*
X221460497Y-126525200D01*
X221489525Y-126554228D01*
G04 #@! TO.C,J1*
X242519200Y-146473091D02*
X242519200Y-146908520D01*
X242490171Y-146995605D01*
X242432114Y-147053662D01*
X242345028Y-147082691D01*
X242286971Y-147082691D01*
X243128800Y-147082691D02*
X242780457Y-147082691D01*
X242954628Y-147082691D02*
X242954628Y-146473091D01*
X242896571Y-146560177D01*
X242838514Y-146618234D01*
X242780457Y-146647262D01*
X238585828Y-143214634D02*
X238556800Y-143243662D01*
X238469714Y-143272691D01*
X238411657Y-143272691D01*
X238324571Y-143243662D01*
X238266514Y-143185605D01*
X238237485Y-143127548D01*
X238208457Y-143011434D01*
X238208457Y-142924348D01*
X238237485Y-142808234D01*
X238266514Y-142750177D01*
X238324571Y-142692120D01*
X238411657Y-142663091D01*
X238469714Y-142663091D01*
X238556800Y-142692120D01*
X238585828Y-142721148D01*
X238934171Y-143272691D02*
X238876114Y-143243662D01*
X238847085Y-143214634D01*
X238818057Y-143156577D01*
X238818057Y-142982405D01*
X238847085Y-142924348D01*
X238876114Y-142895320D01*
X238934171Y-142866291D01*
X239021257Y-142866291D01*
X239079314Y-142895320D01*
X239108342Y-142924348D01*
X239137371Y-142982405D01*
X239137371Y-143156577D01*
X239108342Y-143214634D01*
X239079314Y-143243662D01*
X239021257Y-143272691D01*
X238934171Y-143272691D01*
X239398628Y-142866291D02*
X239398628Y-143272691D01*
X239398628Y-142924348D02*
X239427657Y-142895320D01*
X239485714Y-142866291D01*
X239572800Y-142866291D01*
X239630857Y-142895320D01*
X239659885Y-142953377D01*
X239659885Y-143272691D01*
X239950171Y-142866291D02*
X239950171Y-143272691D01*
X239950171Y-142924348D02*
X239979200Y-142895320D01*
X240037257Y-142866291D01*
X240124342Y-142866291D01*
X240182400Y-142895320D01*
X240211428Y-142953377D01*
X240211428Y-143272691D01*
X240356571Y-143330748D02*
X240821028Y-143330748D01*
X241082285Y-142663091D02*
X241140342Y-142663091D01*
X241198400Y-142692120D01*
X241227428Y-142721148D01*
X241256457Y-142779205D01*
X241285485Y-142895320D01*
X241285485Y-143040462D01*
X241256457Y-143156577D01*
X241227428Y-143214634D01*
X241198400Y-143243662D01*
X241140342Y-143272691D01*
X241082285Y-143272691D01*
X241024228Y-143243662D01*
X240995200Y-143214634D01*
X240966171Y-143156577D01*
X240937142Y-143040462D01*
X240937142Y-142895320D01*
X240966171Y-142779205D01*
X240995200Y-142721148D01*
X241024228Y-142692120D01*
X241082285Y-142663091D01*
X241866057Y-143272691D02*
X241517714Y-143272691D01*
X241691885Y-143272691D02*
X241691885Y-142663091D01*
X241633828Y-142750177D01*
X241575771Y-142808234D01*
X241517714Y-142837262D01*
X242069257Y-143272691D02*
X242388571Y-142866291D01*
X242069257Y-142866291D02*
X242388571Y-143272691D01*
X242736914Y-142663091D02*
X242794971Y-142663091D01*
X242853028Y-142692120D01*
X242882057Y-142721148D01*
X242911085Y-142779205D01*
X242940114Y-142895320D01*
X242940114Y-143040462D01*
X242911085Y-143156577D01*
X242882057Y-143214634D01*
X242853028Y-143243662D01*
X242794971Y-143272691D01*
X242736914Y-143272691D01*
X242678857Y-143243662D01*
X242649828Y-143214634D01*
X242620800Y-143156577D01*
X242591771Y-143040462D01*
X242591771Y-142895320D01*
X242620800Y-142779205D01*
X242649828Y-142721148D01*
X242678857Y-142692120D01*
X242736914Y-142663091D01*
X243462628Y-142866291D02*
X243462628Y-143272691D01*
X243317485Y-142634062D02*
X243172342Y-143069491D01*
X243549714Y-143069491D01*
X243636800Y-143330748D02*
X244101257Y-143330748D01*
X244449600Y-142953377D02*
X244246400Y-142953377D01*
X244246400Y-143272691D02*
X244246400Y-142663091D01*
X244536685Y-142663091D01*
X245001142Y-143243662D02*
X244943085Y-143272691D01*
X244826971Y-143272691D01*
X244768914Y-143243662D01*
X244739885Y-143185605D01*
X244739885Y-142953377D01*
X244768914Y-142895320D01*
X244826971Y-142866291D01*
X244943085Y-142866291D01*
X245001142Y-142895320D01*
X245030171Y-142953377D01*
X245030171Y-143011434D01*
X244739885Y-143069491D01*
X245291428Y-143272691D02*
X245291428Y-142866291D01*
X245291428Y-142924348D02*
X245320457Y-142895320D01*
X245378514Y-142866291D01*
X245465600Y-142866291D01*
X245523657Y-142895320D01*
X245552685Y-142953377D01*
X245552685Y-143272691D01*
X245552685Y-142953377D02*
X245581714Y-142895320D01*
X245639771Y-142866291D01*
X245726857Y-142866291D01*
X245784914Y-142895320D01*
X245813942Y-142953377D01*
X245813942Y-143272691D01*
X246365485Y-143272691D02*
X246365485Y-142953377D01*
X246336457Y-142895320D01*
X246278400Y-142866291D01*
X246162285Y-142866291D01*
X246104228Y-142895320D01*
X246365485Y-143243662D02*
X246307428Y-143272691D01*
X246162285Y-143272691D01*
X246104228Y-143243662D01*
X246075200Y-143185605D01*
X246075200Y-143127548D01*
X246104228Y-143069491D01*
X246162285Y-143040462D01*
X246307428Y-143040462D01*
X246365485Y-143011434D01*
X246742857Y-143272691D02*
X246684800Y-143243662D01*
X246655771Y-143185605D01*
X246655771Y-142663091D01*
X247207314Y-143243662D02*
X247149257Y-143272691D01*
X247033142Y-143272691D01*
X246975085Y-143243662D01*
X246946057Y-143185605D01*
X246946057Y-142953377D01*
X246975085Y-142895320D01*
X247033142Y-142866291D01*
X247149257Y-142866291D01*
X247207314Y-142895320D01*
X247236342Y-142953377D01*
X247236342Y-143011434D01*
X246946057Y-143069491D01*
G04 #@! TO.C,J3*
X247571171Y-107863200D02*
X248006600Y-107863200D01*
X248093685Y-107892228D01*
X248151742Y-107950285D01*
X248180771Y-108037371D01*
X248180771Y-108095428D01*
X247571171Y-107630971D02*
X247571171Y-107253600D01*
X247803400Y-107456800D01*
X247803400Y-107369714D01*
X247832428Y-107311657D01*
X247861457Y-107282628D01*
X247919514Y-107253600D01*
X248064657Y-107253600D01*
X248122714Y-107282628D01*
X248151742Y-107311657D01*
X248180771Y-107369714D01*
X248180771Y-107543885D01*
X248151742Y-107601942D01*
X248122714Y-107630971D01*
X244370771Y-108980800D02*
X243761171Y-108980800D01*
X243761171Y-108748571D01*
X243790200Y-108690514D01*
X243819228Y-108661485D01*
X243877285Y-108632457D01*
X243964371Y-108632457D01*
X244022428Y-108661485D01*
X244051457Y-108690514D01*
X244080485Y-108748571D01*
X244080485Y-108980800D01*
X244341742Y-108400228D02*
X244370771Y-108313142D01*
X244370771Y-108168000D01*
X244341742Y-108109942D01*
X244312714Y-108080914D01*
X244254657Y-108051885D01*
X244196600Y-108051885D01*
X244138542Y-108080914D01*
X244109514Y-108109942D01*
X244080485Y-108168000D01*
X244051457Y-108284114D01*
X244022428Y-108342171D01*
X243993400Y-108371200D01*
X243935342Y-108400228D01*
X243877285Y-108400228D01*
X243819228Y-108371200D01*
X243790200Y-108342171D01*
X243761171Y-108284114D01*
X243761171Y-108138971D01*
X243790200Y-108051885D01*
X244428828Y-107935771D02*
X244428828Y-107471314D01*
X243761171Y-107210057D02*
X243761171Y-107093942D01*
X243790200Y-107035885D01*
X243848257Y-106977828D01*
X243964371Y-106948800D01*
X244167571Y-106948800D01*
X244283685Y-106977828D01*
X244341742Y-107035885D01*
X244370771Y-107093942D01*
X244370771Y-107210057D01*
X244341742Y-107268114D01*
X244283685Y-107326171D01*
X244167571Y-107355200D01*
X243964371Y-107355200D01*
X243848257Y-107326171D01*
X243790200Y-107268114D01*
X243761171Y-107210057D01*
X244370771Y-106687542D02*
X243761171Y-106687542D01*
X244370771Y-106339200D01*
X243761171Y-106339200D01*
G04 #@! TO.C,Q2*
D16*
X211667029Y-93252955D02*
X211571719Y-93205300D01*
X211476408Y-93109989D01*
X211333442Y-92967023D01*
X211238132Y-92919368D01*
X211142821Y-92919368D01*
X211190477Y-93157644D02*
X211095166Y-93109989D01*
X210999856Y-93014679D01*
X210952200Y-92824058D01*
X210952200Y-92490471D01*
X210999856Y-92299850D01*
X211095166Y-92204540D01*
X211190477Y-92156884D01*
X211381098Y-92156884D01*
X211476408Y-92204540D01*
X211571719Y-92299850D01*
X211619374Y-92490471D01*
X211619374Y-92824058D01*
X211571719Y-93014679D01*
X211476408Y-93109989D01*
X211381098Y-93157644D01*
X211190477Y-93157644D01*
X212000616Y-92252195D02*
X212048271Y-92204540D01*
X212143581Y-92156884D01*
X212381858Y-92156884D01*
X212477168Y-92204540D01*
X212524823Y-92252195D01*
X212572479Y-92347505D01*
X212572479Y-92442816D01*
X212524823Y-92585781D01*
X211952960Y-93157644D01*
X212572479Y-93157644D01*
D17*
D16*
X208354990Y-97910589D02*
X208497956Y-97958244D01*
X208736232Y-97958244D01*
X208831542Y-97910589D01*
X208879198Y-97862934D01*
X208926853Y-97767623D01*
X208926853Y-97672313D01*
X208879198Y-97577002D01*
X208831542Y-97529347D01*
X208736232Y-97481692D01*
X208545611Y-97434037D01*
X208450300Y-97386381D01*
X208402645Y-97338726D01*
X208354990Y-97243416D01*
X208354990Y-97148105D01*
X208402645Y-97052795D01*
X208450300Y-97005140D01*
X208545611Y-96957484D01*
X208783887Y-96957484D01*
X208926853Y-97005140D01*
X209355750Y-97958244D02*
X209355750Y-96957484D01*
X210404165Y-97958244D02*
X210070579Y-97481692D01*
X209832302Y-97958244D02*
X209832302Y-96957484D01*
X210213544Y-96957484D01*
X210308855Y-97005140D01*
X210356510Y-97052795D01*
X210404165Y-97148105D01*
X210404165Y-97291071D01*
X210356510Y-97386381D01*
X210308855Y-97434037D01*
X210213544Y-97481692D01*
X209832302Y-97481692D01*
X210785407Y-97672313D02*
X211261960Y-97672313D01*
X210690097Y-97958244D02*
X211023683Y-96957484D01*
X211357270Y-97958244D01*
X211595546Y-96957484D02*
X212215064Y-96957484D01*
X211881478Y-97338726D01*
X212024443Y-97338726D01*
X212119754Y-97386381D01*
X212167409Y-97434037D01*
X212215064Y-97529347D01*
X212215064Y-97767623D01*
X212167409Y-97862934D01*
X212119754Y-97910589D01*
X212024443Y-97958244D01*
X211738512Y-97958244D01*
X211643201Y-97910589D01*
X211595546Y-97862934D01*
X212596306Y-97052795D02*
X212643961Y-97005140D01*
X212739272Y-96957484D01*
X212977548Y-96957484D01*
X213072859Y-97005140D01*
X213120514Y-97052795D01*
X213168169Y-97148105D01*
X213168169Y-97243416D01*
X213120514Y-97386381D01*
X212548651Y-97958244D01*
X213168169Y-97958244D01*
X213597066Y-97958244D02*
X213597066Y-96957484D01*
X213835342Y-96957484D01*
X213978308Y-97005140D01*
X214073619Y-97100450D01*
X214121274Y-97195760D01*
X214168929Y-97386381D01*
X214168929Y-97529347D01*
X214121274Y-97719968D01*
X214073619Y-97815279D01*
X213978308Y-97910589D01*
X213835342Y-97958244D01*
X213597066Y-97958244D01*
X214597826Y-97958244D02*
X214597826Y-96957484D01*
X214979068Y-96957484D01*
X215074379Y-97005140D01*
X215122034Y-97052795D01*
X215169689Y-97148105D01*
X215169689Y-97291071D01*
X215122034Y-97386381D01*
X215074379Y-97434037D01*
X214979068Y-97481692D01*
X214597826Y-97481692D01*
D17*
G04 #@! TO.C,Q3*
D16*
X207920529Y-88655555D02*
X207825219Y-88607900D01*
X207729908Y-88512589D01*
X207586942Y-88369623D01*
X207491632Y-88321968D01*
X207396321Y-88321968D01*
X207443977Y-88560244D02*
X207348666Y-88512589D01*
X207253356Y-88417279D01*
X207205700Y-88226658D01*
X207205700Y-87893071D01*
X207253356Y-87702450D01*
X207348666Y-87607140D01*
X207443977Y-87559484D01*
X207634598Y-87559484D01*
X207729908Y-87607140D01*
X207825219Y-87702450D01*
X207872874Y-87893071D01*
X207872874Y-88226658D01*
X207825219Y-88417279D01*
X207729908Y-88512589D01*
X207634598Y-88560244D01*
X207443977Y-88560244D01*
X208206460Y-87559484D02*
X208825979Y-87559484D01*
X208492392Y-87940726D01*
X208635358Y-87940726D01*
X208730668Y-87988381D01*
X208778323Y-88036037D01*
X208825979Y-88131347D01*
X208825979Y-88369623D01*
X208778323Y-88464934D01*
X208730668Y-88512589D01*
X208635358Y-88560244D01*
X208349426Y-88560244D01*
X208254116Y-88512589D01*
X208206460Y-88464934D01*
D17*
D16*
X208192650Y-91514589D02*
X208335616Y-91562244D01*
X208573892Y-91562244D01*
X208669202Y-91514589D01*
X208716858Y-91466934D01*
X208764513Y-91371623D01*
X208764513Y-91276313D01*
X208716858Y-91181002D01*
X208669202Y-91133347D01*
X208573892Y-91085692D01*
X208383271Y-91038037D01*
X208287960Y-90990381D01*
X208240305Y-90942726D01*
X208192650Y-90847416D01*
X208192650Y-90752105D01*
X208240305Y-90656795D01*
X208287960Y-90609140D01*
X208383271Y-90561484D01*
X208621547Y-90561484D01*
X208764513Y-90609140D01*
X209193410Y-91562244D02*
X209193410Y-90561484D01*
X210241825Y-91562244D02*
X209908239Y-91085692D01*
X209669962Y-91562244D02*
X209669962Y-90561484D01*
X210051204Y-90561484D01*
X210146515Y-90609140D01*
X210194170Y-90656795D01*
X210241825Y-90752105D01*
X210241825Y-90895071D01*
X210194170Y-90990381D01*
X210146515Y-91038037D01*
X210051204Y-91085692D01*
X209669962Y-91085692D01*
X210623067Y-91276313D02*
X211099620Y-91276313D01*
X210527757Y-91562244D02*
X210861343Y-90561484D01*
X211194930Y-91562244D01*
X211433206Y-90561484D02*
X212052724Y-90561484D01*
X211719138Y-90942726D01*
X211862103Y-90942726D01*
X211957414Y-90990381D01*
X212005069Y-91038037D01*
X212052724Y-91133347D01*
X212052724Y-91371623D01*
X212005069Y-91466934D01*
X211957414Y-91514589D01*
X211862103Y-91562244D01*
X211576172Y-91562244D01*
X211480861Y-91514589D01*
X211433206Y-91466934D01*
X212433966Y-90656795D02*
X212481621Y-90609140D01*
X212576932Y-90561484D01*
X212815208Y-90561484D01*
X212910519Y-90609140D01*
X212958174Y-90656795D01*
X213005829Y-90752105D01*
X213005829Y-90847416D01*
X212958174Y-90990381D01*
X212386311Y-91562244D01*
X213005829Y-91562244D01*
X213434726Y-91562244D02*
X213434726Y-90561484D01*
X213673002Y-90561484D01*
X213815968Y-90609140D01*
X213911279Y-90704450D01*
X213958934Y-90799760D01*
X214006589Y-90990381D01*
X214006589Y-91133347D01*
X213958934Y-91323968D01*
X213911279Y-91419279D01*
X213815968Y-91514589D01*
X213673002Y-91562244D01*
X213434726Y-91562244D01*
X214435486Y-91562244D02*
X214435486Y-90561484D01*
X214816728Y-90561484D01*
X214912039Y-90609140D01*
X214959694Y-90656795D01*
X215007349Y-90752105D01*
X215007349Y-90895071D01*
X214959694Y-90990381D01*
X214912039Y-91038037D01*
X214816728Y-91085692D01*
X214435486Y-91085692D01*
D17*
G04 #@! TO.C,Q4*
D16*
X212923029Y-102756955D02*
X212827719Y-102709300D01*
X212732408Y-102613989D01*
X212589442Y-102471023D01*
X212494132Y-102423368D01*
X212398821Y-102423368D01*
X212446477Y-102661644D02*
X212351166Y-102613989D01*
X212255856Y-102518679D01*
X212208200Y-102328058D01*
X212208200Y-101994471D01*
X212255856Y-101803850D01*
X212351166Y-101708540D01*
X212446477Y-101660884D01*
X212637098Y-101660884D01*
X212732408Y-101708540D01*
X212827719Y-101803850D01*
X212875374Y-101994471D01*
X212875374Y-102328058D01*
X212827719Y-102518679D01*
X212732408Y-102613989D01*
X212637098Y-102661644D01*
X212446477Y-102661644D01*
X213733168Y-101994471D02*
X213733168Y-102661644D01*
X213494892Y-101613229D02*
X213256616Y-102328058D01*
X213876134Y-102328058D01*
D17*
D16*
X209610990Y-107414589D02*
X209753956Y-107462244D01*
X209992232Y-107462244D01*
X210087542Y-107414589D01*
X210135198Y-107366934D01*
X210182853Y-107271623D01*
X210182853Y-107176313D01*
X210135198Y-107081002D01*
X210087542Y-107033347D01*
X209992232Y-106985692D01*
X209801611Y-106938037D01*
X209706300Y-106890381D01*
X209658645Y-106842726D01*
X209610990Y-106747416D01*
X209610990Y-106652105D01*
X209658645Y-106556795D01*
X209706300Y-106509140D01*
X209801611Y-106461484D01*
X210039887Y-106461484D01*
X210182853Y-106509140D01*
X210611750Y-107462244D02*
X210611750Y-106461484D01*
X211660165Y-107462244D02*
X211326579Y-106985692D01*
X211088302Y-107462244D02*
X211088302Y-106461484D01*
X211469544Y-106461484D01*
X211564855Y-106509140D01*
X211612510Y-106556795D01*
X211660165Y-106652105D01*
X211660165Y-106795071D01*
X211612510Y-106890381D01*
X211564855Y-106938037D01*
X211469544Y-106985692D01*
X211088302Y-106985692D01*
X212041407Y-107176313D02*
X212517960Y-107176313D01*
X211946097Y-107462244D02*
X212279683Y-106461484D01*
X212613270Y-107462244D01*
X212851546Y-106461484D02*
X213471064Y-106461484D01*
X213137478Y-106842726D01*
X213280443Y-106842726D01*
X213375754Y-106890381D01*
X213423409Y-106938037D01*
X213471064Y-107033347D01*
X213471064Y-107271623D01*
X213423409Y-107366934D01*
X213375754Y-107414589D01*
X213280443Y-107462244D01*
X212994512Y-107462244D01*
X212899201Y-107414589D01*
X212851546Y-107366934D01*
X213852306Y-106556795D02*
X213899961Y-106509140D01*
X213995272Y-106461484D01*
X214233548Y-106461484D01*
X214328859Y-106509140D01*
X214376514Y-106556795D01*
X214424169Y-106652105D01*
X214424169Y-106747416D01*
X214376514Y-106890381D01*
X213804651Y-107462244D01*
X214424169Y-107462244D01*
X214853066Y-107462244D02*
X214853066Y-106461484D01*
X215091342Y-106461484D01*
X215234308Y-106509140D01*
X215329619Y-106604450D01*
X215377274Y-106699760D01*
X215424929Y-106890381D01*
X215424929Y-107033347D01*
X215377274Y-107223968D01*
X215329619Y-107319279D01*
X215234308Y-107414589D01*
X215091342Y-107462244D01*
X214853066Y-107462244D01*
X215853826Y-107462244D02*
X215853826Y-106461484D01*
X216235068Y-106461484D01*
X216330379Y-106509140D01*
X216378034Y-106556795D01*
X216425689Y-106652105D01*
X216425689Y-106795071D01*
X216378034Y-106890381D01*
X216330379Y-106938037D01*
X216235068Y-106985692D01*
X215853826Y-106985692D01*
D17*
G04 #@! TO.C,R7*
D10*
X215620380Y-111816666D02*
X215144190Y-112150000D01*
X215620380Y-112388095D02*
X214620380Y-112388095D01*
X214620380Y-112007142D01*
X214668000Y-111911904D01*
X214715619Y-111864285D01*
X214810857Y-111816666D01*
X214953714Y-111816666D01*
X215048952Y-111864285D01*
X215096571Y-111911904D01*
X215144190Y-112007142D01*
X215144190Y-112388095D01*
X214620380Y-111483333D02*
X214620380Y-110816666D01*
X215620380Y-111245238D01*
G04 #@! TO.C,R11*
X208657142Y-107628380D02*
X208323809Y-107152190D01*
X208085714Y-107628380D02*
X208085714Y-106628380D01*
X208466666Y-106628380D01*
X208561904Y-106676000D01*
X208609523Y-106723619D01*
X208657142Y-106818857D01*
X208657142Y-106961714D01*
X208609523Y-107056952D01*
X208561904Y-107104571D01*
X208466666Y-107152190D01*
X208085714Y-107152190D01*
X209609523Y-107628380D02*
X209038095Y-107628380D01*
X209323809Y-107628380D02*
X209323809Y-106628380D01*
X209228571Y-106771238D01*
X209133333Y-106866476D01*
X209038095Y-106914095D01*
X210561904Y-107628380D02*
X209990476Y-107628380D01*
X210276190Y-107628380D02*
X210276190Y-106628380D01*
X210180952Y-106771238D01*
X210085714Y-106866476D01*
X209990476Y-106914095D01*
G04 #@! TO.C,R12*
X205842143Y-112842381D02*
X205508810Y-112366191D01*
X205270715Y-112842381D02*
X205270715Y-111842381D01*
X205651667Y-111842381D01*
X205746905Y-111890001D01*
X205794524Y-111937620D01*
X205842143Y-112032858D01*
X205842143Y-112175715D01*
X205794524Y-112270953D01*
X205746905Y-112318572D01*
X205651667Y-112366191D01*
X205270715Y-112366191D01*
X206794524Y-112842381D02*
X206223096Y-112842381D01*
X206508810Y-112842381D02*
X206508810Y-111842381D01*
X206413572Y-111985239D01*
X206318334Y-112080477D01*
X206223096Y-112128096D01*
X207175477Y-111937620D02*
X207223096Y-111890001D01*
X207318334Y-111842381D01*
X207556429Y-111842381D01*
X207651667Y-111890001D01*
X207699286Y-111937620D01*
X207746905Y-112032858D01*
X207746905Y-112128096D01*
X207699286Y-112270953D01*
X207127858Y-112842381D01*
X207746905Y-112842381D01*
G04 #@! TO.C,R14*
X202907142Y-141602380D02*
X202573809Y-141126190D01*
X202335714Y-141602380D02*
X202335714Y-140602380D01*
X202716666Y-140602380D01*
X202811904Y-140650000D01*
X202859523Y-140697619D01*
X202907142Y-140792857D01*
X202907142Y-140935714D01*
X202859523Y-141030952D01*
X202811904Y-141078571D01*
X202716666Y-141126190D01*
X202335714Y-141126190D01*
X203859523Y-141602380D02*
X203288095Y-141602380D01*
X203573809Y-141602380D02*
X203573809Y-140602380D01*
X203478571Y-140745238D01*
X203383333Y-140840476D01*
X203288095Y-140888095D01*
X204716666Y-140935714D02*
X204716666Y-141602380D01*
X204478571Y-140554761D02*
X204240476Y-141269047D01*
X204859523Y-141269047D01*
G04 #@! TO.C,R15*
X202907142Y-144902380D02*
X202573809Y-144426190D01*
X202335714Y-144902380D02*
X202335714Y-143902380D01*
X202716666Y-143902380D01*
X202811904Y-143950000D01*
X202859523Y-143997619D01*
X202907142Y-144092857D01*
X202907142Y-144235714D01*
X202859523Y-144330952D01*
X202811904Y-144378571D01*
X202716666Y-144426190D01*
X202335714Y-144426190D01*
X203859523Y-144902380D02*
X203288095Y-144902380D01*
X203573809Y-144902380D02*
X203573809Y-143902380D01*
X203478571Y-144045238D01*
X203383333Y-144140476D01*
X203288095Y-144188095D01*
X204764285Y-143902380D02*
X204288095Y-143902380D01*
X204240476Y-144378571D01*
X204288095Y-144330952D01*
X204383333Y-144283333D01*
X204621428Y-144283333D01*
X204716666Y-144330952D01*
X204764285Y-144378571D01*
X204811904Y-144473809D01*
X204811904Y-144711904D01*
X204764285Y-144807142D01*
X204716666Y-144854761D01*
X204621428Y-144902380D01*
X204383333Y-144902380D01*
X204288095Y-144854761D01*
X204240476Y-144807142D01*
G04 #@! TO.C,U1*
D18*
X220008851Y-90472443D02*
X220819808Y-90472443D01*
X220915215Y-90424740D01*
X220962918Y-90377036D01*
X221010621Y-90281630D01*
X221010621Y-90090816D01*
X220962918Y-89995410D01*
X220915215Y-89947706D01*
X220819808Y-89900003D01*
X220008851Y-89900003D01*
X221010621Y-88898233D02*
X221010621Y-89470673D01*
X221010621Y-89184453D02*
X220008851Y-89184453D01*
X220151961Y-89279860D01*
X220247368Y-89375266D01*
X220295071Y-89470673D01*
X213441111Y-93947363D02*
X213441111Y-93470272D01*
X213727365Y-94042781D02*
X212725475Y-93708817D01*
X213727365Y-93374854D01*
X213631947Y-92468382D02*
X213679656Y-92516091D01*
X213727365Y-92659218D01*
X213727365Y-92754636D01*
X213679656Y-92897764D01*
X213584238Y-92993182D01*
X213488820Y-93040891D01*
X213297984Y-93088600D01*
X213154857Y-93088600D01*
X212964021Y-93040891D01*
X212868603Y-92993182D01*
X212773185Y-92897764D01*
X212725475Y-92754636D01*
X212725475Y-92659218D01*
X212773185Y-92516091D01*
X212820894Y-92468382D01*
X213679656Y-92086710D02*
X213727365Y-91943583D01*
X213727365Y-91705037D01*
X213679656Y-91609619D01*
X213631947Y-91561910D01*
X213536529Y-91514201D01*
X213441111Y-91514201D01*
X213345693Y-91561910D01*
X213297984Y-91609619D01*
X213250275Y-91705037D01*
X213202566Y-91895874D01*
X213154857Y-91991292D01*
X213107148Y-92039001D01*
X213011730Y-92086710D01*
X212916312Y-92086710D01*
X212820894Y-92039001D01*
X212773185Y-91991292D01*
X212725475Y-91895874D01*
X212725475Y-91657328D01*
X212773185Y-91514201D01*
X212725475Y-91180238D02*
X212725475Y-90512311D01*
X213727365Y-90941693D01*
X212725475Y-89939803D02*
X212725475Y-89844385D01*
X212773185Y-89748966D01*
X212820894Y-89701257D01*
X212916312Y-89653548D01*
X213107148Y-89605839D01*
X213345693Y-89605839D01*
X213536529Y-89653548D01*
X213631947Y-89701257D01*
X213679656Y-89748966D01*
X213727365Y-89844385D01*
X213727365Y-89939803D01*
X213679656Y-90035221D01*
X213631947Y-90082930D01*
X213536529Y-90130639D01*
X213345693Y-90178348D01*
X213107148Y-90178348D01*
X212916312Y-90130639D01*
X212820894Y-90082930D01*
X212773185Y-90035221D01*
X212725475Y-89939803D01*
X212725475Y-89271876D02*
X212725475Y-88651658D01*
X213107148Y-88985622D01*
X213107148Y-88842495D01*
X213154857Y-88747076D01*
X213202566Y-88699367D01*
X213297984Y-88651658D01*
X213536529Y-88651658D01*
X213631947Y-88699367D01*
X213679656Y-88747076D01*
X213727365Y-88842495D01*
X213727365Y-89128749D01*
X213679656Y-89224167D01*
X213631947Y-89271876D01*
X212725475Y-88317695D02*
X212725475Y-87697477D01*
X213107148Y-88031441D01*
X213107148Y-87888314D01*
X213154857Y-87792895D01*
X213202566Y-87745186D01*
X213297984Y-87697477D01*
X213536529Y-87697477D01*
X213631947Y-87745186D01*
X213679656Y-87792895D01*
X213727365Y-87888314D01*
X213727365Y-88174568D01*
X213679656Y-88269986D01*
X213631947Y-88317695D01*
X213727365Y-86743296D02*
X213727365Y-87315805D01*
X213727365Y-87029551D02*
X212725475Y-87029551D01*
X212868603Y-87124969D01*
X212964021Y-87220387D01*
X213011730Y-87315805D01*
G04 #@! TO.C,U2*
X223092851Y-106152443D02*
X223903808Y-106152443D01*
X223999215Y-106104740D01*
X224046918Y-106057036D01*
X224094621Y-105961630D01*
X224094621Y-105770816D01*
X224046918Y-105675410D01*
X223999215Y-105627706D01*
X223903808Y-105580003D01*
X223092851Y-105580003D01*
X223188258Y-105150673D02*
X223140555Y-105102970D01*
X223092851Y-105007563D01*
X223092851Y-104769046D01*
X223140555Y-104673640D01*
X223188258Y-104625936D01*
X223283665Y-104578233D01*
X223379071Y-104578233D01*
X223522181Y-104625936D01*
X224094621Y-105198376D01*
X224094621Y-104578233D01*
X216525111Y-109627363D02*
X216525111Y-109150272D01*
X216811365Y-109722781D02*
X215809475Y-109388817D01*
X216811365Y-109054854D01*
X216715947Y-108148382D02*
X216763656Y-108196091D01*
X216811365Y-108339218D01*
X216811365Y-108434636D01*
X216763656Y-108577764D01*
X216668238Y-108673182D01*
X216572820Y-108720891D01*
X216381984Y-108768600D01*
X216238857Y-108768600D01*
X216048021Y-108720891D01*
X215952603Y-108673182D01*
X215857185Y-108577764D01*
X215809475Y-108434636D01*
X215809475Y-108339218D01*
X215857185Y-108196091D01*
X215904894Y-108148382D01*
X216763656Y-107766710D02*
X216811365Y-107623583D01*
X216811365Y-107385037D01*
X216763656Y-107289619D01*
X216715947Y-107241910D01*
X216620529Y-107194201D01*
X216525111Y-107194201D01*
X216429693Y-107241910D01*
X216381984Y-107289619D01*
X216334275Y-107385037D01*
X216286566Y-107575874D01*
X216238857Y-107671292D01*
X216191148Y-107719001D01*
X216095730Y-107766710D01*
X216000312Y-107766710D01*
X215904894Y-107719001D01*
X215857185Y-107671292D01*
X215809475Y-107575874D01*
X215809475Y-107337328D01*
X215857185Y-107194201D01*
X215809475Y-106860238D02*
X215809475Y-106192311D01*
X216811365Y-106621693D01*
X215809475Y-105619803D02*
X215809475Y-105524385D01*
X215857185Y-105428966D01*
X215904894Y-105381257D01*
X216000312Y-105333548D01*
X216191148Y-105285839D01*
X216429693Y-105285839D01*
X216620529Y-105333548D01*
X216715947Y-105381257D01*
X216763656Y-105428966D01*
X216811365Y-105524385D01*
X216811365Y-105619803D01*
X216763656Y-105715221D01*
X216715947Y-105762930D01*
X216620529Y-105810639D01*
X216429693Y-105858348D01*
X216191148Y-105858348D01*
X216000312Y-105810639D01*
X215904894Y-105762930D01*
X215857185Y-105715221D01*
X215809475Y-105619803D01*
X215809475Y-104951876D02*
X215809475Y-104331658D01*
X216191148Y-104665622D01*
X216191148Y-104522495D01*
X216238857Y-104427076D01*
X216286566Y-104379367D01*
X216381984Y-104331658D01*
X216620529Y-104331658D01*
X216715947Y-104379367D01*
X216763656Y-104427076D01*
X216811365Y-104522495D01*
X216811365Y-104808749D01*
X216763656Y-104904167D01*
X216715947Y-104951876D01*
X215809475Y-103997695D02*
X215809475Y-103377477D01*
X216191148Y-103711441D01*
X216191148Y-103568314D01*
X216238857Y-103472895D01*
X216286566Y-103425186D01*
X216381984Y-103377477D01*
X216620529Y-103377477D01*
X216715947Y-103425186D01*
X216763656Y-103472895D01*
X216811365Y-103568314D01*
X216811365Y-103854568D01*
X216763656Y-103949986D01*
X216715947Y-103997695D01*
X216811365Y-102423296D02*
X216811365Y-102995805D01*
X216811365Y-102709551D02*
X215809475Y-102709551D01*
X215952603Y-102804969D01*
X216048021Y-102900387D01*
X216095730Y-102995805D01*
G04 #@! TO.C,Q7*
D19*
X213526668Y-112416265D02*
X213454097Y-112379980D01*
X213381525Y-112307408D01*
X213272668Y-112198551D01*
X213200097Y-112162265D01*
X213127525Y-112162265D01*
X213163811Y-112343694D02*
X213091240Y-112307408D01*
X213018668Y-112234837D01*
X212982382Y-112089694D01*
X212982382Y-111835694D01*
X213018668Y-111690551D01*
X213091240Y-111617980D01*
X213163811Y-111581694D01*
X213308954Y-111581694D01*
X213381525Y-111617980D01*
X213454097Y-111690551D01*
X213490382Y-111835694D01*
X213490382Y-112089694D01*
X213454097Y-112234837D01*
X213381525Y-112307408D01*
X213308954Y-112343694D01*
X213163811Y-112343694D01*
X213744382Y-111581694D02*
X214252382Y-111581694D01*
X213925811Y-112343694D01*
D20*
X213726542Y-111910140D02*
X213226162Y-111910140D01*
X213583576Y-111743347D01*
X213226162Y-111576553D01*
X213726542Y-111576553D01*
X213726542Y-111338277D02*
X213226162Y-111338277D01*
X213583576Y-111171484D01*
X213226162Y-111004690D01*
X213726542Y-111004690D01*
X213464438Y-110599621D02*
X213488266Y-110528138D01*
X213512093Y-110504310D01*
X213559749Y-110480483D01*
X213631231Y-110480483D01*
X213678887Y-110504310D01*
X213702714Y-110528138D01*
X213726542Y-110575793D01*
X213726542Y-110766414D01*
X213226162Y-110766414D01*
X213226162Y-110599621D01*
X213249990Y-110551966D01*
X213273817Y-110528138D01*
X213321472Y-110504310D01*
X213369128Y-110504310D01*
X213416783Y-110528138D01*
X213440610Y-110551966D01*
X213464438Y-110599621D01*
X213464438Y-110766414D01*
X213226162Y-110337517D02*
X213226162Y-110051586D01*
X213726542Y-110194551D02*
X213226162Y-110194551D01*
X213226162Y-109932448D02*
X213226162Y-109622689D01*
X213416783Y-109789482D01*
X213416783Y-109717999D01*
X213440610Y-109670344D01*
X213464438Y-109646516D01*
X213512093Y-109622689D01*
X213631231Y-109622689D01*
X213678887Y-109646516D01*
X213702714Y-109670344D01*
X213726542Y-109717999D01*
X213726542Y-109860965D01*
X213702714Y-109908620D01*
X213678887Y-109932448D01*
X213726542Y-109384412D02*
X213726542Y-109289102D01*
X213702714Y-109241447D01*
X213678887Y-109217619D01*
X213607404Y-109169964D01*
X213512093Y-109146136D01*
X213321472Y-109146136D01*
X213273817Y-109169964D01*
X213249990Y-109193791D01*
X213226162Y-109241447D01*
X213226162Y-109336757D01*
X213249990Y-109384412D01*
X213273817Y-109408240D01*
X213321472Y-109432068D01*
X213440610Y-109432068D01*
X213488266Y-109408240D01*
X213512093Y-109384412D01*
X213535921Y-109336757D01*
X213535921Y-109241447D01*
X213512093Y-109193791D01*
X213488266Y-109169964D01*
X213440610Y-109146136D01*
X213226162Y-108836377D02*
X213226162Y-108788722D01*
X213249990Y-108741067D01*
X213273817Y-108717239D01*
X213321472Y-108693411D01*
X213416783Y-108669584D01*
X213535921Y-108669584D01*
X213631231Y-108693411D01*
X213678887Y-108717239D01*
X213702714Y-108741067D01*
X213726542Y-108788722D01*
X213726542Y-108836377D01*
X213702714Y-108884032D01*
X213678887Y-108907860D01*
X213631231Y-108931688D01*
X213535921Y-108955515D01*
X213416783Y-108955515D01*
X213321472Y-108931688D01*
X213273817Y-108907860D01*
X213249990Y-108884032D01*
X213226162Y-108836377D01*
X213392955Y-108240687D02*
X213726542Y-108240687D01*
X213202334Y-108359825D02*
X213559749Y-108478963D01*
X213559749Y-108169204D01*
G04 #@! TO.C,U6*
D10*
X218283380Y-96329404D02*
X219092904Y-96329404D01*
X219188142Y-96281785D01*
X219235761Y-96234166D01*
X219283380Y-96138928D01*
X219283380Y-95948452D01*
X219235761Y-95853214D01*
X219188142Y-95805595D01*
X219092904Y-95757976D01*
X218283380Y-95757976D01*
X218283380Y-94853214D02*
X218283380Y-95043690D01*
X218331000Y-95138928D01*
X218378619Y-95186547D01*
X218521476Y-95281785D01*
X218711952Y-95329404D01*
X219092904Y-95329404D01*
X219188142Y-95281785D01*
X219235761Y-95234166D01*
X219283380Y-95138928D01*
X219283380Y-94948452D01*
X219235761Y-94853214D01*
X219188142Y-94805595D01*
X219092904Y-94757976D01*
X218854809Y-94757976D01*
X218759571Y-94805595D01*
X218711952Y-94853214D01*
X218664333Y-94948452D01*
X218664333Y-95138928D01*
X218711952Y-95234166D01*
X218759571Y-95281785D01*
X218854809Y-95329404D01*
G04 #@! TO.C,H1*
X245438095Y-129604380D02*
X245438095Y-128604380D01*
X245438095Y-129080571D02*
X246009523Y-129080571D01*
X246009523Y-129604380D02*
X246009523Y-128604380D01*
X247009523Y-129604380D02*
X246438095Y-129604380D01*
X246723809Y-129604380D02*
X246723809Y-128604380D01*
X246628571Y-128747238D01*
X246533333Y-128842476D01*
X246438095Y-128890095D01*
G04 #@! TO.C,H2*
X245138095Y-119804380D02*
X245138095Y-118804380D01*
X245138095Y-119280571D02*
X245709523Y-119280571D01*
X245709523Y-119804380D02*
X245709523Y-118804380D01*
X246138095Y-118899619D02*
X246185714Y-118852000D01*
X246280952Y-118804380D01*
X246519047Y-118804380D01*
X246614285Y-118852000D01*
X246661904Y-118899619D01*
X246709523Y-118994857D01*
X246709523Y-119090095D01*
X246661904Y-119232952D01*
X246090476Y-119804380D01*
X246709523Y-119804380D01*
G04 #@! TO.C,U3*
D18*
X224008851Y-116650443D02*
X224819808Y-116650443D01*
X224915215Y-116602740D01*
X224962918Y-116555036D01*
X225010621Y-116459630D01*
X225010621Y-116268816D01*
X224962918Y-116173410D01*
X224915215Y-116125706D01*
X224819808Y-116078003D01*
X224008851Y-116078003D01*
X224008851Y-115696376D02*
X224008851Y-115076233D01*
X224390478Y-115410156D01*
X224390478Y-115267046D01*
X224438181Y-115171640D01*
X224485885Y-115123936D01*
X224581291Y-115076233D01*
X224819808Y-115076233D01*
X224915215Y-115123936D01*
X224962918Y-115171640D01*
X225010621Y-115267046D01*
X225010621Y-115553266D01*
X224962918Y-115648673D01*
X224915215Y-115696376D01*
X219682981Y-126150033D02*
X219682981Y-125672942D01*
X219969235Y-126245451D02*
X218967345Y-125911487D01*
X219969235Y-125577524D01*
X219873817Y-124671052D02*
X219921526Y-124718761D01*
X219969235Y-124861888D01*
X219969235Y-124957306D01*
X219921526Y-125100434D01*
X219826108Y-125195852D01*
X219730690Y-125243561D01*
X219539854Y-125291270D01*
X219396727Y-125291270D01*
X219205891Y-125243561D01*
X219110473Y-125195852D01*
X219015055Y-125100434D01*
X218967345Y-124957306D01*
X218967345Y-124861888D01*
X219015055Y-124718761D01*
X219062764Y-124671052D01*
X219921526Y-124289380D02*
X219969235Y-124146253D01*
X219969235Y-123907707D01*
X219921526Y-123812289D01*
X219873817Y-123764580D01*
X219778399Y-123716871D01*
X219682981Y-123716871D01*
X219587563Y-123764580D01*
X219539854Y-123812289D01*
X219492145Y-123907707D01*
X219444436Y-124098544D01*
X219396727Y-124193962D01*
X219349018Y-124241671D01*
X219253600Y-124289380D01*
X219158182Y-124289380D01*
X219062764Y-124241671D01*
X219015055Y-124193962D01*
X218967345Y-124098544D01*
X218967345Y-123859998D01*
X219015055Y-123716871D01*
X218967345Y-123382908D02*
X218967345Y-122714981D01*
X219969235Y-123144363D01*
X218967345Y-122142473D02*
X218967345Y-122047055D01*
X219015055Y-121951636D01*
X219062764Y-121903927D01*
X219158182Y-121856218D01*
X219349018Y-121808509D01*
X219587563Y-121808509D01*
X219778399Y-121856218D01*
X219873817Y-121903927D01*
X219921526Y-121951636D01*
X219969235Y-122047055D01*
X219969235Y-122142473D01*
X219921526Y-122237891D01*
X219873817Y-122285600D01*
X219778399Y-122333309D01*
X219587563Y-122381018D01*
X219349018Y-122381018D01*
X219158182Y-122333309D01*
X219062764Y-122285600D01*
X219015055Y-122237891D01*
X218967345Y-122142473D01*
X218967345Y-121474546D02*
X218967345Y-120854328D01*
X219349018Y-121188292D01*
X219349018Y-121045165D01*
X219396727Y-120949746D01*
X219444436Y-120902037D01*
X219539854Y-120854328D01*
X219778399Y-120854328D01*
X219873817Y-120902037D01*
X219921526Y-120949746D01*
X219969235Y-121045165D01*
X219969235Y-121331419D01*
X219921526Y-121426837D01*
X219873817Y-121474546D01*
X218967345Y-120520365D02*
X218967345Y-119900147D01*
X219349018Y-120234111D01*
X219349018Y-120090984D01*
X219396727Y-119995565D01*
X219444436Y-119947856D01*
X219539854Y-119900147D01*
X219778399Y-119900147D01*
X219873817Y-119947856D01*
X219921526Y-119995565D01*
X219969235Y-120090984D01*
X219969235Y-120377238D01*
X219921526Y-120472656D01*
X219873817Y-120520365D01*
X219969235Y-118945966D02*
X219969235Y-119518475D01*
X219969235Y-119232221D02*
X218967345Y-119232221D01*
X219110473Y-119327639D01*
X219205891Y-119423057D01*
X219253600Y-119518475D01*
G04 #@! TO.C,F1*
D10*
X225015666Y-93248571D02*
X224682333Y-93248571D01*
X224682333Y-93772380D02*
X224682333Y-92772380D01*
X225158523Y-92772380D01*
X226063285Y-93772380D02*
X225491857Y-93772380D01*
X225777571Y-93772380D02*
X225777571Y-92772380D01*
X225682333Y-92915238D01*
X225587095Y-93010476D01*
X225491857Y-93058095D01*
G04 #@! TO.C,F2*
X227015666Y-106248571D02*
X226682333Y-106248571D01*
X226682333Y-106772380D02*
X226682333Y-105772380D01*
X227158523Y-105772380D01*
X227491857Y-105867619D02*
X227539476Y-105820000D01*
X227634714Y-105772380D01*
X227872809Y-105772380D01*
X227968047Y-105820000D01*
X228015666Y-105867619D01*
X228063285Y-105962857D01*
X228063285Y-106058095D01*
X228015666Y-106200952D01*
X227444238Y-106772380D01*
X228063285Y-106772380D01*
G04 #@! TO.C,F3*
X227082666Y-116896571D02*
X226749333Y-116896571D01*
X226749333Y-117420380D02*
X226749333Y-116420380D01*
X227225523Y-116420380D01*
X227511238Y-116420380D02*
X228130285Y-116420380D01*
X227796952Y-116801333D01*
X227939809Y-116801333D01*
X228035047Y-116848952D01*
X228082666Y-116896571D01*
X228130285Y-116991809D01*
X228130285Y-117229904D01*
X228082666Y-117325142D01*
X228035047Y-117372761D01*
X227939809Y-117420380D01*
X227654095Y-117420380D01*
X227558857Y-117372761D01*
X227511238Y-117325142D01*
G04 #@! TO.C,H4*
X204238095Y-102252380D02*
X204238095Y-101252380D01*
X204238095Y-101728571D02*
X204809523Y-101728571D01*
X204809523Y-102252380D02*
X204809523Y-101252380D01*
X205714285Y-101585714D02*
X205714285Y-102252380D01*
X205476190Y-101204761D02*
X205238095Y-101919047D01*
X205857142Y-101919047D01*
G04 #@! TO.C,H5*
X204238095Y-112252380D02*
X204238095Y-111252380D01*
X204238095Y-111728571D02*
X204809523Y-111728571D01*
X204809523Y-112252380D02*
X204809523Y-111252380D01*
X205761904Y-111252380D02*
X205285714Y-111252380D01*
X205238095Y-111728571D01*
X205285714Y-111680952D01*
X205380952Y-111633333D01*
X205619047Y-111633333D01*
X205714285Y-111680952D01*
X205761904Y-111728571D01*
X205809523Y-111823809D01*
X205809523Y-112061904D01*
X205761904Y-112157142D01*
X205714285Y-112204761D01*
X205619047Y-112252380D01*
X205380952Y-112252380D01*
X205285714Y-112204761D01*
X205238095Y-112157142D01*
G04 #@! TO.C,H6*
X204216095Y-88184380D02*
X204216095Y-87184380D01*
X204216095Y-87660571D02*
X204787523Y-87660571D01*
X204787523Y-88184380D02*
X204787523Y-87184380D01*
X205692285Y-87184380D02*
X205501809Y-87184380D01*
X205406571Y-87232000D01*
X205358952Y-87279619D01*
X205263714Y-87422476D01*
X205216095Y-87612952D01*
X205216095Y-87993904D01*
X205263714Y-88089142D01*
X205311333Y-88136761D01*
X205406571Y-88184380D01*
X205597047Y-88184380D01*
X205692285Y-88136761D01*
X205739904Y-88089142D01*
X205787523Y-87993904D01*
X205787523Y-87755809D01*
X205739904Y-87660571D01*
X205692285Y-87612952D01*
X205597047Y-87565333D01*
X205406571Y-87565333D01*
X205311333Y-87612952D01*
X205263714Y-87660571D01*
X205216095Y-87755809D01*
G04 #@! TO.C,P1*
D15*
X211282991Y-102157451D02*
X211282991Y-101014451D01*
X211573277Y-101014451D01*
X211645848Y-101068880D01*
X211682134Y-101123308D01*
X211718420Y-101232165D01*
X211718420Y-101395451D01*
X211682134Y-101504308D01*
X211645848Y-101558737D01*
X211573277Y-101613165D01*
X211282991Y-101613165D01*
X212444134Y-102157451D02*
X212008705Y-102157451D01*
X212226420Y-102157451D02*
X212226420Y-101014451D01*
X212153848Y-101177737D01*
X212081277Y-101286594D01*
X212008705Y-101341022D01*
G04 #@! TO.C,H7*
D10*
X225538095Y-107252380D02*
X225538095Y-106252380D01*
X225538095Y-106728571D02*
X226109523Y-106728571D01*
X226109523Y-107252380D02*
X226109523Y-106252380D01*
X226490476Y-106252380D02*
X227157142Y-106252380D01*
X226728571Y-107252380D01*
G04 #@! TD*
M02*
