G04 #@! TF.GenerationSoftware,KiCad,Pcbnew,(5.0.1)-rc2*
G04 #@! TF.CreationDate,2018-11-23T18:31:16-07:00*
G04 #@! TF.ProjectId,PowerSupply,506F776572537570706C792E6B696361,rev?*
G04 #@! TF.SameCoordinates,Original*
G04 #@! TF.FileFunction,Legend,Bot*
G04 #@! TF.FilePolarity,Positive*
%FSLAX46Y46*%
G04 Gerber Fmt 4.6, Leading zero omitted, Abs format (unit mm)*
G04 Created by KiCad (PCBNEW (5.0.1)-rc2) date 11/23/2018 6:31:16 PM*
%MOMM*%
%LPD*%
G01*
G04 APERTURE LIST*
%ADD10C,0.120000*%
%ADD11C,0.152400*%
%ADD12C,0.078740*%
%ADD13C,0.150000*%
%ADD14C,0.127000*%
%ADD15C,0.119380*%
%ADD16C,0.099060*%
G04 APERTURE END LIST*
D10*
G04 #@! TO.C,R5*
X214480000Y-93550000D02*
X214480000Y-92350000D01*
X212720000Y-92350000D02*
X212720000Y-93550000D01*
G04 #@! TO.C,R1*
X203616000Y-108766000D02*
X203616000Y-109966000D01*
X205376000Y-109966000D02*
X205376000Y-108766000D01*
G04 #@! TO.C,R2*
X205902000Y-108766000D02*
X205902000Y-109966000D01*
X207662000Y-109966000D02*
X207662000Y-108766000D01*
G04 #@! TO.C,R3*
X209550000Y-120020000D02*
X208350000Y-120020000D01*
X208350000Y-121780000D02*
X209550000Y-121780000D01*
G04 #@! TO.C,R4*
X211700000Y-121780000D02*
X212900000Y-121780000D01*
X212900000Y-120020000D02*
X211700000Y-120020000D01*
G04 #@! TO.C,R6*
X210620000Y-110350000D02*
X210620000Y-111550000D01*
X212380000Y-111550000D02*
X212380000Y-110350000D01*
G04 #@! TO.C,R9*
X211550000Y-100720000D02*
X210350000Y-100720000D01*
X210350000Y-102480000D02*
X211550000Y-102480000D01*
G04 #@! TO.C,R10*
X204450000Y-95880000D02*
X205650000Y-95880000D01*
X205650000Y-94120000D02*
X204450000Y-94120000D01*
G04 #@! TO.C,R13*
X204850000Y-101380000D02*
X206050000Y-101380000D01*
X206050000Y-99620000D02*
X204850000Y-99620000D01*
D11*
G04 #@! TO.C,U4*
X216420300Y-121120300D02*
X217114860Y-121120300D01*
X221779700Y-121120300D02*
X221779700Y-121814860D01*
X221779700Y-126479700D02*
X221085140Y-126479700D01*
X216420300Y-126479700D02*
X216420300Y-125785140D01*
X216420300Y-121814860D02*
X216420300Y-121120300D01*
X221085140Y-121120300D02*
X221779700Y-121120300D01*
X221779700Y-125785140D02*
X221779700Y-126479700D01*
X217114860Y-126479700D02*
X216420300Y-126479700D01*
X218409501Y-120688500D02*
X218409501Y-120434500D01*
X218409501Y-120434500D02*
X218790501Y-120434500D01*
X218790501Y-120434500D02*
X218790501Y-120688500D01*
X218790501Y-120688500D02*
X218409501Y-120688500D01*
X222465500Y-124990501D02*
X222465500Y-124609501D01*
X222465500Y-124609501D02*
X222211500Y-124609501D01*
X222211500Y-124609501D02*
X222211500Y-124990501D01*
X222211500Y-124990501D02*
X222465500Y-124990501D01*
G04 #@! TO.C,U5*
X229092000Y-123551399D02*
X225739200Y-123551399D01*
X225739200Y-123551399D02*
X225739200Y-123385938D01*
X225739200Y-120198599D02*
X229092000Y-120198599D01*
X229092000Y-120198599D02*
X229092000Y-120364060D01*
X229092000Y-123385938D02*
X229092000Y-123551399D01*
X225739200Y-120364060D02*
X225739200Y-120198599D01*
D12*
G04 #@! TO.C,Q5*
X209108550Y-93176020D02*
G75*
G03X209108550Y-93176020I-159070J0D01*
G01*
X209808000Y-90730000D02*
X208792000Y-90730000D01*
X209808000Y-93333500D02*
X208792000Y-93333500D01*
X208792000Y-90730000D02*
X208792000Y-93333500D01*
X209808000Y-93333500D02*
X209808000Y-90730000D01*
G04 #@! TO.C,Q6*
X210908000Y-109133500D02*
X210908000Y-106530000D01*
X209892000Y-106530000D02*
X209892000Y-109133500D01*
X210908000Y-109133500D02*
X209892000Y-109133500D01*
X210908000Y-106530000D02*
X209892000Y-106530000D01*
X210208550Y-108976020D02*
G75*
G03X210208550Y-108976020I-159070J0D01*
G01*
G04 #@! TO.C,Q8*
X209407820Y-99986000D02*
X209407820Y-97382500D01*
X208391820Y-97382500D02*
X208391820Y-99986000D01*
X209407820Y-99986000D02*
X208391820Y-99986000D01*
X209407820Y-97382500D02*
X208391820Y-97382500D01*
X208708370Y-99828520D02*
G75*
G03X208708370Y-99828520I-159070J0D01*
G01*
D10*
G04 #@! TO.C,H3*
X247650000Y-126000000D02*
G75*
G03X247650000Y-126000000I-1450000J0D01*
G01*
G04 #@! TO.C,J2*
X233209760Y-114331720D02*
X233209760Y-88421720D01*
X233209760Y-88421720D02*
X243029760Y-88421720D01*
X243029760Y-88421720D02*
X243029760Y-112521720D01*
X243029760Y-112521720D02*
X244429760Y-112521720D01*
X244429760Y-112521720D02*
X244429760Y-114331720D01*
X233209760Y-114331720D02*
X233209760Y-140241720D01*
X233209760Y-140241720D02*
X243029760Y-140241720D01*
X243029760Y-140241720D02*
X243029760Y-116141720D01*
X243029760Y-116141720D02*
X244429760Y-116141720D01*
X244429760Y-116141720D02*
X244429760Y-114331720D01*
X232969760Y-91031720D02*
X232969760Y-88181720D01*
X232969760Y-88181720D02*
X235819760Y-88181720D01*
G04 #@! TO.C,R5*
D13*
X215416666Y-93402380D02*
X215750000Y-92926190D01*
X215988095Y-93402380D02*
X215988095Y-92402380D01*
X215607142Y-92402380D01*
X215511904Y-92450000D01*
X215464285Y-92497619D01*
X215416666Y-92592857D01*
X215416666Y-92735714D01*
X215464285Y-92830952D01*
X215511904Y-92878571D01*
X215607142Y-92926190D01*
X215988095Y-92926190D01*
X214511904Y-92402380D02*
X214988095Y-92402380D01*
X215035714Y-92878571D01*
X214988095Y-92830952D01*
X214892857Y-92783333D01*
X214654761Y-92783333D01*
X214559523Y-92830952D01*
X214511904Y-92878571D01*
X214464285Y-92973809D01*
X214464285Y-93211904D01*
X214511904Y-93307142D01*
X214559523Y-93354761D01*
X214654761Y-93402380D01*
X214892857Y-93402380D01*
X214988095Y-93354761D01*
X215035714Y-93307142D01*
G04 #@! TO.C,C1*
D14*
X233487714Y-121398400D02*
X233516742Y-121369371D01*
X233545771Y-121282285D01*
X233545771Y-121224228D01*
X233516742Y-121137142D01*
X233458685Y-121079085D01*
X233400628Y-121050057D01*
X233284514Y-121021028D01*
X233197428Y-121021028D01*
X233081314Y-121050057D01*
X233023257Y-121079085D01*
X232965200Y-121137142D01*
X232936171Y-121224228D01*
X232936171Y-121282285D01*
X232965200Y-121369371D01*
X232994228Y-121398400D01*
X233545771Y-121978971D02*
X233545771Y-121630628D01*
X233545771Y-121804800D02*
X232936171Y-121804800D01*
X233023257Y-121746742D01*
X233081314Y-121688685D01*
X233110342Y-121630628D01*
X230947714Y-121688685D02*
X230976742Y-121659657D01*
X231005771Y-121572571D01*
X231005771Y-121514514D01*
X230976742Y-121427428D01*
X230918685Y-121369371D01*
X230860628Y-121340342D01*
X230744514Y-121311314D01*
X230657428Y-121311314D01*
X230541314Y-121340342D01*
X230483257Y-121369371D01*
X230425200Y-121427428D01*
X230396171Y-121514514D01*
X230396171Y-121572571D01*
X230425200Y-121659657D01*
X230454228Y-121688685D01*
G04 #@! TO.C,C2*
X226902440Y-120287714D02*
X226931468Y-120316742D01*
X227018554Y-120345771D01*
X227076611Y-120345771D01*
X227163697Y-120316742D01*
X227221754Y-120258685D01*
X227250782Y-120200628D01*
X227279811Y-120084514D01*
X227279811Y-119997428D01*
X227250782Y-119881314D01*
X227221754Y-119823257D01*
X227163697Y-119765200D01*
X227076611Y-119736171D01*
X227018554Y-119736171D01*
X226931468Y-119765200D01*
X226902440Y-119794228D01*
X226670211Y-119794228D02*
X226641182Y-119765200D01*
X226583125Y-119736171D01*
X226437982Y-119736171D01*
X226379925Y-119765200D01*
X226350897Y-119794228D01*
X226321868Y-119852285D01*
X226321868Y-119910342D01*
X226350897Y-119997428D01*
X226699240Y-120345771D01*
X226321868Y-120345771D01*
X226612154Y-120287714D02*
X226641182Y-120316742D01*
X226728268Y-120345771D01*
X226786325Y-120345771D01*
X226873411Y-120316742D01*
X226931468Y-120258685D01*
X226960497Y-120200628D01*
X226989525Y-120084514D01*
X226989525Y-119997428D01*
X226960497Y-119881314D01*
X226931468Y-119823257D01*
X226873411Y-119765200D01*
X226786325Y-119736171D01*
X226728268Y-119736171D01*
X226641182Y-119765200D01*
X226612154Y-119794228D01*
G04 #@! TO.C,C4*
X221401600Y-129587714D02*
X221430628Y-129616742D01*
X221517714Y-129645771D01*
X221575771Y-129645771D01*
X221662857Y-129616742D01*
X221720914Y-129558685D01*
X221749942Y-129500628D01*
X221778971Y-129384514D01*
X221778971Y-129297428D01*
X221749942Y-129181314D01*
X221720914Y-129123257D01*
X221662857Y-129065200D01*
X221575771Y-129036171D01*
X221517714Y-129036171D01*
X221430628Y-129065200D01*
X221401600Y-129094228D01*
X220879085Y-129239371D02*
X220879085Y-129645771D01*
X221024228Y-129007142D02*
X221169371Y-129442571D01*
X220792000Y-129442571D01*
X221111314Y-129587714D02*
X221140342Y-129616742D01*
X221227428Y-129645771D01*
X221285485Y-129645771D01*
X221372571Y-129616742D01*
X221430628Y-129558685D01*
X221459657Y-129500628D01*
X221488685Y-129384514D01*
X221488685Y-129297428D01*
X221459657Y-129181314D01*
X221430628Y-129123257D01*
X221372571Y-129065200D01*
X221285485Y-129036171D01*
X221227428Y-129036171D01*
X221140342Y-129065200D01*
X221111314Y-129094228D01*
G04 #@! TO.C,R1*
D13*
X206726380Y-109133333D02*
X206250190Y-108800000D01*
X206726380Y-108561904D02*
X205726380Y-108561904D01*
X205726380Y-108942857D01*
X205774000Y-109038095D01*
X205821619Y-109085714D01*
X205916857Y-109133333D01*
X206059714Y-109133333D01*
X206154952Y-109085714D01*
X206202571Y-109038095D01*
X206250190Y-108942857D01*
X206250190Y-108561904D01*
X206726380Y-110085714D02*
X206726380Y-109514285D01*
X206726380Y-109800000D02*
X205726380Y-109800000D01*
X205869238Y-109704761D01*
X205964476Y-109609523D01*
X206012095Y-109514285D01*
G04 #@! TO.C,R2*
X205710380Y-109011333D02*
X205234190Y-108678000D01*
X205710380Y-108439904D02*
X204710380Y-108439904D01*
X204710380Y-108820857D01*
X204758000Y-108916095D01*
X204805619Y-108963714D01*
X204900857Y-109011333D01*
X205043714Y-109011333D01*
X205138952Y-108963714D01*
X205186571Y-108916095D01*
X205234190Y-108820857D01*
X205234190Y-108439904D01*
X204805619Y-109392285D02*
X204758000Y-109439904D01*
X204710380Y-109535142D01*
X204710380Y-109773238D01*
X204758000Y-109868476D01*
X204805619Y-109916095D01*
X204900857Y-109963714D01*
X204996095Y-109963714D01*
X205138952Y-109916095D01*
X205710380Y-109344666D01*
X205710380Y-109963714D01*
G04 #@! TO.C,R3*
X209166666Y-122952380D02*
X209500000Y-122476190D01*
X209738095Y-122952380D02*
X209738095Y-121952380D01*
X209357142Y-121952380D01*
X209261904Y-122000000D01*
X209214285Y-122047619D01*
X209166666Y-122142857D01*
X209166666Y-122285714D01*
X209214285Y-122380952D01*
X209261904Y-122428571D01*
X209357142Y-122476190D01*
X209738095Y-122476190D01*
X208833333Y-121952380D02*
X208214285Y-121952380D01*
X208547619Y-122333333D01*
X208404761Y-122333333D01*
X208309523Y-122380952D01*
X208261904Y-122428571D01*
X208214285Y-122523809D01*
X208214285Y-122761904D01*
X208261904Y-122857142D01*
X208309523Y-122904761D01*
X208404761Y-122952380D01*
X208690476Y-122952380D01*
X208785714Y-122904761D01*
X208833333Y-122857142D01*
G04 #@! TO.C,R4*
X212466666Y-123002380D02*
X212800000Y-122526190D01*
X213038095Y-123002380D02*
X213038095Y-122002380D01*
X212657142Y-122002380D01*
X212561904Y-122050000D01*
X212514285Y-122097619D01*
X212466666Y-122192857D01*
X212466666Y-122335714D01*
X212514285Y-122430952D01*
X212561904Y-122478571D01*
X212657142Y-122526190D01*
X213038095Y-122526190D01*
X211609523Y-122335714D02*
X211609523Y-123002380D01*
X211847619Y-121954761D02*
X212085714Y-122669047D01*
X211466666Y-122669047D01*
G04 #@! TO.C,R6*
X213602380Y-110783333D02*
X213126190Y-110450000D01*
X213602380Y-110211904D02*
X212602380Y-110211904D01*
X212602380Y-110592857D01*
X212650000Y-110688095D01*
X212697619Y-110735714D01*
X212792857Y-110783333D01*
X212935714Y-110783333D01*
X213030952Y-110735714D01*
X213078571Y-110688095D01*
X213126190Y-110592857D01*
X213126190Y-110211904D01*
X212602380Y-111640476D02*
X212602380Y-111450000D01*
X212650000Y-111354761D01*
X212697619Y-111307142D01*
X212840476Y-111211904D01*
X213030952Y-111164285D01*
X213411904Y-111164285D01*
X213507142Y-111211904D01*
X213554761Y-111259523D01*
X213602380Y-111354761D01*
X213602380Y-111545238D01*
X213554761Y-111640476D01*
X213507142Y-111688095D01*
X213411904Y-111735714D01*
X213173809Y-111735714D01*
X213078571Y-111688095D01*
X213030952Y-111640476D01*
X212983333Y-111545238D01*
X212983333Y-111354761D01*
X213030952Y-111259523D01*
X213078571Y-111211904D01*
X213173809Y-111164285D01*
G04 #@! TO.C,R9*
X211116666Y-100402380D02*
X211450000Y-99926190D01*
X211688095Y-100402380D02*
X211688095Y-99402380D01*
X211307142Y-99402380D01*
X211211904Y-99450000D01*
X211164285Y-99497619D01*
X211116666Y-99592857D01*
X211116666Y-99735714D01*
X211164285Y-99830952D01*
X211211904Y-99878571D01*
X211307142Y-99926190D01*
X211688095Y-99926190D01*
X210640476Y-100402380D02*
X210450000Y-100402380D01*
X210354761Y-100354761D01*
X210307142Y-100307142D01*
X210211904Y-100164285D01*
X210164285Y-99973809D01*
X210164285Y-99592857D01*
X210211904Y-99497619D01*
X210259523Y-99450000D01*
X210354761Y-99402380D01*
X210545238Y-99402380D01*
X210640476Y-99450000D01*
X210688095Y-99497619D01*
X210735714Y-99592857D01*
X210735714Y-99830952D01*
X210688095Y-99926190D01*
X210640476Y-99973809D01*
X210545238Y-100021428D01*
X210354761Y-100021428D01*
X210259523Y-99973809D01*
X210211904Y-99926190D01*
X210164285Y-99830952D01*
G04 #@! TO.C,R10*
X202542857Y-94252380D02*
X202876190Y-93776190D01*
X203114285Y-94252380D02*
X203114285Y-93252380D01*
X202733333Y-93252380D01*
X202638095Y-93300000D01*
X202590476Y-93347619D01*
X202542857Y-93442857D01*
X202542857Y-93585714D01*
X202590476Y-93680952D01*
X202638095Y-93728571D01*
X202733333Y-93776190D01*
X203114285Y-93776190D01*
X201590476Y-94252380D02*
X202161904Y-94252380D01*
X201876190Y-94252380D02*
X201876190Y-93252380D01*
X201971428Y-93395238D01*
X202066666Y-93490476D01*
X202161904Y-93538095D01*
X200971428Y-93252380D02*
X200876190Y-93252380D01*
X200780952Y-93300000D01*
X200733333Y-93347619D01*
X200685714Y-93442857D01*
X200638095Y-93633333D01*
X200638095Y-93871428D01*
X200685714Y-94061904D01*
X200733333Y-94157142D01*
X200780952Y-94204761D01*
X200876190Y-94252380D01*
X200971428Y-94252380D01*
X201066666Y-94204761D01*
X201114285Y-94157142D01*
X201161904Y-94061904D01*
X201209523Y-93871428D01*
X201209523Y-93633333D01*
X201161904Y-93442857D01*
X201114285Y-93347619D01*
X201066666Y-93300000D01*
X200971428Y-93252380D01*
G04 #@! TO.C,R13*
X206092857Y-99302380D02*
X206426190Y-98826190D01*
X206664285Y-99302380D02*
X206664285Y-98302380D01*
X206283333Y-98302380D01*
X206188095Y-98350000D01*
X206140476Y-98397619D01*
X206092857Y-98492857D01*
X206092857Y-98635714D01*
X206140476Y-98730952D01*
X206188095Y-98778571D01*
X206283333Y-98826190D01*
X206664285Y-98826190D01*
X205140476Y-99302380D02*
X205711904Y-99302380D01*
X205426190Y-99302380D02*
X205426190Y-98302380D01*
X205521428Y-98445238D01*
X205616666Y-98540476D01*
X205711904Y-98588095D01*
X204807142Y-98302380D02*
X204188095Y-98302380D01*
X204521428Y-98683333D01*
X204378571Y-98683333D01*
X204283333Y-98730952D01*
X204235714Y-98778571D01*
X204188095Y-98873809D01*
X204188095Y-99111904D01*
X204235714Y-99207142D01*
X204283333Y-99254761D01*
X204378571Y-99302380D01*
X204664285Y-99302380D01*
X204759523Y-99254761D01*
X204807142Y-99207142D01*
G04 #@! TO.C,U4*
X219861904Y-123252380D02*
X219861904Y-124061904D01*
X219814285Y-124157142D01*
X219766666Y-124204761D01*
X219671428Y-124252380D01*
X219480952Y-124252380D01*
X219385714Y-124204761D01*
X219338095Y-124157142D01*
X219290476Y-124061904D01*
X219290476Y-123252380D01*
X218385714Y-123585714D02*
X218385714Y-124252380D01*
X218623809Y-123204761D02*
X218861904Y-123919047D01*
X218242857Y-123919047D01*
X224385714Y-124252380D02*
X224385714Y-123252380D01*
X224052380Y-123966666D01*
X223719047Y-123252380D01*
X223719047Y-124252380D01*
X223290476Y-123966666D02*
X222814285Y-123966666D01*
X223385714Y-124252380D02*
X223052380Y-123252380D01*
X222719047Y-124252380D01*
X222480952Y-123252380D02*
X221814285Y-124252380D01*
X221814285Y-123252380D02*
X222480952Y-124252380D01*
X220909523Y-124252380D02*
X221480952Y-124252380D01*
X221195238Y-124252380D02*
X221195238Y-123252380D01*
X221290476Y-123395238D01*
X221385714Y-123490476D01*
X221480952Y-123538095D01*
X219957142Y-124252380D02*
X220528571Y-124252380D01*
X220242857Y-124252380D02*
X220242857Y-123252380D01*
X220338095Y-123395238D01*
X220433333Y-123490476D01*
X220528571Y-123538095D01*
X219004761Y-124252380D02*
X219576190Y-124252380D01*
X219290476Y-124252380D02*
X219290476Y-123252380D01*
X219385714Y-123395238D01*
X219480952Y-123490476D01*
X219576190Y-123538095D01*
X218671428Y-123252380D02*
X218052380Y-123252380D01*
X218385714Y-123633333D01*
X218242857Y-123633333D01*
X218147619Y-123680952D01*
X218100000Y-123728571D01*
X218052380Y-123823809D01*
X218052380Y-124061904D01*
X218100000Y-124157142D01*
X218147619Y-124204761D01*
X218242857Y-124252380D01*
X218528571Y-124252380D01*
X218623809Y-124204761D01*
X218671428Y-124157142D01*
X217195238Y-123252380D02*
X217385714Y-123252380D01*
X217480952Y-123300000D01*
X217528571Y-123347619D01*
X217623809Y-123490476D01*
X217671428Y-123680952D01*
X217671428Y-124061904D01*
X217623809Y-124157142D01*
X217576190Y-124204761D01*
X217480952Y-124252380D01*
X217290476Y-124252380D01*
X217195238Y-124204761D01*
X217147619Y-124157142D01*
X217100000Y-124061904D01*
X217100000Y-123823809D01*
X217147619Y-123728571D01*
X217195238Y-123680952D01*
X217290476Y-123633333D01*
X217480952Y-123633333D01*
X217576190Y-123680952D01*
X217623809Y-123728571D01*
X217671428Y-123823809D01*
X216719047Y-123966666D02*
X216242857Y-123966666D01*
X216814285Y-124252380D02*
X216480952Y-123252380D01*
X216147619Y-124252380D01*
X215957142Y-123252380D02*
X215385714Y-123252380D01*
X215671428Y-124252380D02*
X215671428Y-123252380D01*
X215052380Y-124252380D02*
X215052380Y-123252380D01*
X214576190Y-123871428D02*
X213814285Y-123871428D01*
X214195238Y-124252380D02*
X214195238Y-123490476D01*
X215607500Y-125002380D02*
X215607500Y-125240476D01*
X215845595Y-125145238D02*
X215607500Y-125240476D01*
X215369404Y-125145238D01*
X215750357Y-125430952D02*
X215607500Y-125240476D01*
X215464642Y-125430952D01*
G04 #@! TO.C,U5*
X228177504Y-121327379D02*
X228177504Y-122136903D01*
X228129885Y-122232141D01*
X228082266Y-122279760D01*
X227987028Y-122327379D01*
X227796552Y-122327379D01*
X227701314Y-122279760D01*
X227653695Y-122232141D01*
X227606076Y-122136903D01*
X227606076Y-121327379D01*
X226653695Y-121327379D02*
X227129885Y-121327379D01*
X227177504Y-121803570D01*
X227129885Y-121755951D01*
X227034647Y-121708332D01*
X226796552Y-121708332D01*
X226701314Y-121755951D01*
X226653695Y-121803570D01*
X226606076Y-121898808D01*
X226606076Y-122136903D01*
X226653695Y-122232141D01*
X226701314Y-122279760D01*
X226796552Y-122327379D01*
X227034647Y-122327379D01*
X227129885Y-122279760D01*
X227177504Y-122232141D01*
X232629885Y-122327379D02*
X232629885Y-121327379D01*
X232296552Y-122041665D01*
X231963219Y-121327379D01*
X231963219Y-122327379D01*
X231534647Y-122041665D02*
X231058457Y-122041665D01*
X231629885Y-122327379D02*
X231296552Y-121327379D01*
X230963219Y-122327379D01*
X230725123Y-121327379D02*
X230058457Y-122327379D01*
X230058457Y-121327379D02*
X230725123Y-122327379D01*
X229248933Y-121327379D02*
X229439409Y-121327379D01*
X229534647Y-121374999D01*
X229582266Y-121422618D01*
X229677504Y-121565475D01*
X229725123Y-121755951D01*
X229725123Y-122136903D01*
X229677504Y-122232141D01*
X229629885Y-122279760D01*
X229534647Y-122327379D01*
X229344171Y-122327379D01*
X229248933Y-122279760D01*
X229201314Y-122232141D01*
X229153695Y-122136903D01*
X229153695Y-121898808D01*
X229201314Y-121803570D01*
X229248933Y-121755951D01*
X229344171Y-121708332D01*
X229534647Y-121708332D01*
X229629885Y-121755951D01*
X229677504Y-121803570D01*
X229725123Y-121898808D01*
X228201314Y-122327379D02*
X228772742Y-122327379D01*
X228487028Y-122327379D02*
X228487028Y-121327379D01*
X228582266Y-121470237D01*
X228677504Y-121565475D01*
X228772742Y-121613094D01*
X227820361Y-121422618D02*
X227772742Y-121374999D01*
X227677504Y-121327379D01*
X227439409Y-121327379D01*
X227344171Y-121374999D01*
X227296552Y-121422618D01*
X227248933Y-121517856D01*
X227248933Y-121613094D01*
X227296552Y-121755951D01*
X227867980Y-122327379D01*
X227248933Y-122327379D01*
X226391790Y-121327379D02*
X226582266Y-121327379D01*
X226677504Y-121374999D01*
X226725123Y-121422618D01*
X226820361Y-121565475D01*
X226867980Y-121755951D01*
X226867980Y-122136903D01*
X226820361Y-122232141D01*
X226772742Y-122279760D01*
X226677504Y-122327379D01*
X226487028Y-122327379D01*
X226391790Y-122279760D01*
X226344171Y-122232141D01*
X226296552Y-122136903D01*
X226296552Y-121898808D01*
X226344171Y-121803570D01*
X226391790Y-121755951D01*
X226487028Y-121708332D01*
X226677504Y-121708332D01*
X226772742Y-121755951D01*
X226820361Y-121803570D01*
X226867980Y-121898808D01*
X225534647Y-121803570D02*
X225391790Y-121851189D01*
X225344171Y-121898808D01*
X225296552Y-121994046D01*
X225296552Y-122136903D01*
X225344171Y-122232141D01*
X225391790Y-122279760D01*
X225487028Y-122327379D01*
X225867980Y-122327379D01*
X225867980Y-121327379D01*
X225534647Y-121327379D01*
X225439409Y-121374999D01*
X225391790Y-121422618D01*
X225344171Y-121517856D01*
X225344171Y-121613094D01*
X225391790Y-121708332D01*
X225439409Y-121755951D01*
X225534647Y-121803570D01*
X225867980Y-121803570D01*
X224963219Y-121327379D02*
X224344171Y-121327379D01*
X224677504Y-121708332D01*
X224534647Y-121708332D01*
X224439409Y-121755951D01*
X224391790Y-121803570D01*
X224344171Y-121898808D01*
X224344171Y-122136903D01*
X224391790Y-122232141D01*
X224439409Y-122279760D01*
X224534647Y-122327379D01*
X224820361Y-122327379D01*
X224915600Y-122279760D01*
X224963219Y-122232141D01*
X223725123Y-121327379D02*
X223629885Y-121327379D01*
X223534647Y-121374999D01*
X223487028Y-121422618D01*
X223439409Y-121517856D01*
X223391790Y-121708332D01*
X223391790Y-121946427D01*
X223439409Y-122136903D01*
X223487028Y-122232141D01*
X223534647Y-122279760D01*
X223629885Y-122327379D01*
X223725123Y-122327379D01*
X223820361Y-122279760D01*
X223867980Y-122232141D01*
X223915600Y-122136903D01*
X223963219Y-121946427D01*
X223963219Y-121708332D01*
X223915600Y-121517856D01*
X223867980Y-121422618D01*
X223820361Y-121374999D01*
X223725123Y-121327379D01*
X222963219Y-121946427D02*
X222201314Y-121946427D01*
X222582266Y-122327379D02*
X222582266Y-121565475D01*
X229854000Y-118802979D02*
X229854000Y-119041075D01*
X230092095Y-118945837D02*
X229854000Y-119041075D01*
X229615904Y-118945837D01*
X229996857Y-119231551D02*
X229854000Y-119041075D01*
X229711142Y-119231551D01*
G04 #@! TO.C,Q5*
D15*
X209471631Y-90418305D02*
X209544202Y-90382020D01*
X209616774Y-90309448D01*
X209725631Y-90200591D01*
X209798202Y-90164305D01*
X209870774Y-90164305D01*
X209834488Y-90345734D02*
X209907060Y-90309448D01*
X209979631Y-90236877D01*
X210015917Y-90091734D01*
X210015917Y-89837734D01*
X209979631Y-89692591D01*
X209907060Y-89620020D01*
X209834488Y-89583734D01*
X209689345Y-89583734D01*
X209616774Y-89620020D01*
X209544202Y-89692591D01*
X209507917Y-89837734D01*
X209507917Y-90091734D01*
X209544202Y-90236877D01*
X209616774Y-90309448D01*
X209689345Y-90345734D01*
X209834488Y-90345734D01*
X208818488Y-89583734D02*
X209181345Y-89583734D01*
X209217631Y-89946591D01*
X209181345Y-89910305D01*
X209108774Y-89874020D01*
X208927345Y-89874020D01*
X208854774Y-89910305D01*
X208818488Y-89946591D01*
X208782202Y-90019162D01*
X208782202Y-90200591D01*
X208818488Y-90273162D01*
X208854774Y-90309448D01*
X208927345Y-90345734D01*
X209108774Y-90345734D01*
X209181345Y-90309448D01*
X209217631Y-90273162D01*
D16*
X209526362Y-90089859D02*
X209025982Y-90089859D01*
X209383396Y-90256652D01*
X209025982Y-90423446D01*
X209526362Y-90423446D01*
X209526362Y-90661722D02*
X209025982Y-90661722D01*
X209383396Y-90828515D01*
X209025982Y-90995309D01*
X209526362Y-90995309D01*
X209264258Y-91400378D02*
X209288086Y-91471861D01*
X209311913Y-91495689D01*
X209359569Y-91519516D01*
X209431051Y-91519516D01*
X209478707Y-91495689D01*
X209502534Y-91471861D01*
X209526362Y-91424206D01*
X209526362Y-91233585D01*
X209025982Y-91233585D01*
X209025982Y-91400378D01*
X209049810Y-91448033D01*
X209073637Y-91471861D01*
X209121292Y-91495689D01*
X209168948Y-91495689D01*
X209216603Y-91471861D01*
X209240430Y-91448033D01*
X209264258Y-91400378D01*
X209264258Y-91233585D01*
X209025982Y-91662482D02*
X209025982Y-91948413D01*
X209526362Y-91805448D02*
X209025982Y-91805448D01*
X209025982Y-92067551D02*
X209025982Y-92377310D01*
X209216603Y-92210517D01*
X209216603Y-92282000D01*
X209240430Y-92329655D01*
X209264258Y-92353483D01*
X209311913Y-92377310D01*
X209431051Y-92377310D01*
X209478707Y-92353483D01*
X209502534Y-92329655D01*
X209526362Y-92282000D01*
X209526362Y-92139034D01*
X209502534Y-92091379D01*
X209478707Y-92067551D01*
X209526362Y-92615587D02*
X209526362Y-92710897D01*
X209502534Y-92758552D01*
X209478707Y-92782380D01*
X209407224Y-92830035D01*
X209311913Y-92853863D01*
X209121292Y-92853863D01*
X209073637Y-92830035D01*
X209049810Y-92806208D01*
X209025982Y-92758552D01*
X209025982Y-92663242D01*
X209049810Y-92615587D01*
X209073637Y-92591759D01*
X209121292Y-92567931D01*
X209240430Y-92567931D01*
X209288086Y-92591759D01*
X209311913Y-92615587D01*
X209335741Y-92663242D01*
X209335741Y-92758552D01*
X209311913Y-92806208D01*
X209288086Y-92830035D01*
X209240430Y-92853863D01*
X209025982Y-93163622D02*
X209025982Y-93211277D01*
X209049810Y-93258932D01*
X209073637Y-93282760D01*
X209121292Y-93306588D01*
X209216603Y-93330415D01*
X209335741Y-93330415D01*
X209431051Y-93306588D01*
X209478707Y-93282760D01*
X209502534Y-93258932D01*
X209526362Y-93211277D01*
X209526362Y-93163622D01*
X209502534Y-93115967D01*
X209478707Y-93092139D01*
X209431051Y-93068311D01*
X209335741Y-93044484D01*
X209216603Y-93044484D01*
X209121292Y-93068311D01*
X209073637Y-93092139D01*
X209049810Y-93115967D01*
X209025982Y-93163622D01*
X209192775Y-93759312D02*
X209526362Y-93759312D01*
X209002154Y-93640174D02*
X209359569Y-93521036D01*
X209359569Y-93830795D01*
G04 #@! TO.C,Q6*
D15*
X210472751Y-106264785D02*
X210545322Y-106228500D01*
X210617894Y-106155928D01*
X210726751Y-106047071D01*
X210799322Y-106010785D01*
X210871894Y-106010785D01*
X210835608Y-106192214D02*
X210908180Y-106155928D01*
X210980751Y-106083357D01*
X211017037Y-105938214D01*
X211017037Y-105684214D01*
X210980751Y-105539071D01*
X210908180Y-105466500D01*
X210835608Y-105430214D01*
X210690465Y-105430214D01*
X210617894Y-105466500D01*
X210545322Y-105539071D01*
X210509037Y-105684214D01*
X210509037Y-105938214D01*
X210545322Y-106083357D01*
X210617894Y-106155928D01*
X210690465Y-106192214D01*
X210835608Y-106192214D01*
X209855894Y-105430214D02*
X210001037Y-105430214D01*
X210073608Y-105466500D01*
X210109894Y-105502785D01*
X210182465Y-105611642D01*
X210218751Y-105756785D01*
X210218751Y-106047071D01*
X210182465Y-106119642D01*
X210146180Y-106155928D01*
X210073608Y-106192214D01*
X209928465Y-106192214D01*
X209855894Y-106155928D01*
X209819608Y-106119642D01*
X209783322Y-106047071D01*
X209783322Y-105865642D01*
X209819608Y-105793071D01*
X209855894Y-105756785D01*
X209928465Y-105720500D01*
X210073608Y-105720500D01*
X210146180Y-105756785D01*
X210182465Y-105793071D01*
X210218751Y-105865642D01*
D16*
X210626362Y-105889859D02*
X210125982Y-105889859D01*
X210483396Y-106056652D01*
X210125982Y-106223446D01*
X210626362Y-106223446D01*
X210626362Y-106461722D02*
X210125982Y-106461722D01*
X210483396Y-106628515D01*
X210125982Y-106795309D01*
X210626362Y-106795309D01*
X210364258Y-107200378D02*
X210388086Y-107271861D01*
X210411913Y-107295689D01*
X210459569Y-107319516D01*
X210531051Y-107319516D01*
X210578707Y-107295689D01*
X210602534Y-107271861D01*
X210626362Y-107224206D01*
X210626362Y-107033585D01*
X210125982Y-107033585D01*
X210125982Y-107200378D01*
X210149810Y-107248033D01*
X210173637Y-107271861D01*
X210221292Y-107295689D01*
X210268948Y-107295689D01*
X210316603Y-107271861D01*
X210340430Y-107248033D01*
X210364258Y-107200378D01*
X210364258Y-107033585D01*
X210125982Y-107462482D02*
X210125982Y-107748413D01*
X210626362Y-107605448D02*
X210125982Y-107605448D01*
X210125982Y-107867551D02*
X210125982Y-108177310D01*
X210316603Y-108010517D01*
X210316603Y-108082000D01*
X210340430Y-108129655D01*
X210364258Y-108153483D01*
X210411913Y-108177310D01*
X210531051Y-108177310D01*
X210578707Y-108153483D01*
X210602534Y-108129655D01*
X210626362Y-108082000D01*
X210626362Y-107939034D01*
X210602534Y-107891379D01*
X210578707Y-107867551D01*
X210626362Y-108415587D02*
X210626362Y-108510897D01*
X210602534Y-108558552D01*
X210578707Y-108582380D01*
X210507224Y-108630035D01*
X210411913Y-108653863D01*
X210221292Y-108653863D01*
X210173637Y-108630035D01*
X210149810Y-108606208D01*
X210125982Y-108558552D01*
X210125982Y-108463242D01*
X210149810Y-108415587D01*
X210173637Y-108391759D01*
X210221292Y-108367931D01*
X210340430Y-108367931D01*
X210388086Y-108391759D01*
X210411913Y-108415587D01*
X210435741Y-108463242D01*
X210435741Y-108558552D01*
X210411913Y-108606208D01*
X210388086Y-108630035D01*
X210340430Y-108653863D01*
X210125982Y-108963622D02*
X210125982Y-109011277D01*
X210149810Y-109058932D01*
X210173637Y-109082760D01*
X210221292Y-109106588D01*
X210316603Y-109130415D01*
X210435741Y-109130415D01*
X210531051Y-109106588D01*
X210578707Y-109082760D01*
X210602534Y-109058932D01*
X210626362Y-109011277D01*
X210626362Y-108963622D01*
X210602534Y-108915967D01*
X210578707Y-108892139D01*
X210531051Y-108868311D01*
X210435741Y-108844484D01*
X210316603Y-108844484D01*
X210221292Y-108868311D01*
X210173637Y-108892139D01*
X210149810Y-108915967D01*
X210125982Y-108963622D01*
X210292775Y-109559312D02*
X210626362Y-109559312D01*
X210102154Y-109440174D02*
X210459569Y-109321036D01*
X210459569Y-109630795D01*
G04 #@! TO.C,Q8*
D15*
X209071451Y-97070805D02*
X209144022Y-97034520D01*
X209216594Y-96961948D01*
X209325451Y-96853091D01*
X209398022Y-96816805D01*
X209470594Y-96816805D01*
X209434308Y-96998234D02*
X209506880Y-96961948D01*
X209579451Y-96889377D01*
X209615737Y-96744234D01*
X209615737Y-96490234D01*
X209579451Y-96345091D01*
X209506880Y-96272520D01*
X209434308Y-96236234D01*
X209289165Y-96236234D01*
X209216594Y-96272520D01*
X209144022Y-96345091D01*
X209107737Y-96490234D01*
X209107737Y-96744234D01*
X209144022Y-96889377D01*
X209216594Y-96961948D01*
X209289165Y-96998234D01*
X209434308Y-96998234D01*
X208672308Y-96562805D02*
X208744880Y-96526520D01*
X208781165Y-96490234D01*
X208817451Y-96417662D01*
X208817451Y-96381377D01*
X208781165Y-96308805D01*
X208744880Y-96272520D01*
X208672308Y-96236234D01*
X208527165Y-96236234D01*
X208454594Y-96272520D01*
X208418308Y-96308805D01*
X208382022Y-96381377D01*
X208382022Y-96417662D01*
X208418308Y-96490234D01*
X208454594Y-96526520D01*
X208527165Y-96562805D01*
X208672308Y-96562805D01*
X208744880Y-96599091D01*
X208781165Y-96635377D01*
X208817451Y-96707948D01*
X208817451Y-96853091D01*
X208781165Y-96925662D01*
X208744880Y-96961948D01*
X208672308Y-96998234D01*
X208527165Y-96998234D01*
X208454594Y-96961948D01*
X208418308Y-96925662D01*
X208382022Y-96853091D01*
X208382022Y-96707948D01*
X208418308Y-96635377D01*
X208454594Y-96599091D01*
X208527165Y-96562805D01*
D16*
X211726382Y-97120320D02*
X211226002Y-97120320D01*
X211583416Y-97287113D01*
X211226002Y-97453907D01*
X211726382Y-97453907D01*
X211726382Y-97692183D02*
X211226002Y-97692183D01*
X211583416Y-97858976D01*
X211226002Y-98025770D01*
X211726382Y-98025770D01*
X211464278Y-98430839D02*
X211488106Y-98502322D01*
X211511933Y-98526150D01*
X211559589Y-98549977D01*
X211631071Y-98549977D01*
X211678727Y-98526150D01*
X211702554Y-98502322D01*
X211726382Y-98454667D01*
X211726382Y-98264046D01*
X211226002Y-98264046D01*
X211226002Y-98430839D01*
X211249830Y-98478494D01*
X211273657Y-98502322D01*
X211321312Y-98526150D01*
X211368968Y-98526150D01*
X211416623Y-98502322D01*
X211440450Y-98478494D01*
X211464278Y-98430839D01*
X211464278Y-98264046D01*
X211226002Y-98692943D02*
X211226002Y-98978874D01*
X211726382Y-98835909D02*
X211226002Y-98835909D01*
X211226002Y-99098012D02*
X211226002Y-99407771D01*
X211416623Y-99240978D01*
X211416623Y-99312461D01*
X211440450Y-99360116D01*
X211464278Y-99383944D01*
X211511933Y-99407771D01*
X211631071Y-99407771D01*
X211678727Y-99383944D01*
X211702554Y-99360116D01*
X211726382Y-99312461D01*
X211726382Y-99169495D01*
X211702554Y-99121840D01*
X211678727Y-99098012D01*
X211726382Y-99646048D02*
X211726382Y-99741358D01*
X211702554Y-99789013D01*
X211678727Y-99812841D01*
X211607244Y-99860496D01*
X211511933Y-99884324D01*
X211321312Y-99884324D01*
X211273657Y-99860496D01*
X211249830Y-99836669D01*
X211226002Y-99789013D01*
X211226002Y-99693703D01*
X211249830Y-99646048D01*
X211273657Y-99622220D01*
X211321312Y-99598392D01*
X211440450Y-99598392D01*
X211488106Y-99622220D01*
X211511933Y-99646048D01*
X211535761Y-99693703D01*
X211535761Y-99789013D01*
X211511933Y-99836669D01*
X211488106Y-99860496D01*
X211440450Y-99884324D01*
X211226002Y-100194083D02*
X211226002Y-100241738D01*
X211249830Y-100289393D01*
X211273657Y-100313221D01*
X211321312Y-100337049D01*
X211416623Y-100360876D01*
X211535761Y-100360876D01*
X211631071Y-100337049D01*
X211678727Y-100313221D01*
X211702554Y-100289393D01*
X211726382Y-100241738D01*
X211726382Y-100194083D01*
X211702554Y-100146428D01*
X211678727Y-100122600D01*
X211631071Y-100098772D01*
X211535761Y-100074945D01*
X211416623Y-100074945D01*
X211321312Y-100098772D01*
X211273657Y-100122600D01*
X211249830Y-100146428D01*
X211226002Y-100194083D01*
X211392795Y-100789773D02*
X211726382Y-100789773D01*
X211202174Y-100670635D02*
X211559589Y-100551497D01*
X211559589Y-100861256D01*
G04 #@! TO.C,H3*
D13*
X246961904Y-128600380D02*
X246961904Y-127600380D01*
X246961904Y-128076571D02*
X246390476Y-128076571D01*
X246390476Y-128600380D02*
X246390476Y-127600380D01*
X246009523Y-127600380D02*
X245390476Y-127600380D01*
X245723809Y-127981333D01*
X245580952Y-127981333D01*
X245485714Y-128028952D01*
X245438095Y-128076571D01*
X245390476Y-128171809D01*
X245390476Y-128409904D01*
X245438095Y-128505142D01*
X245485714Y-128552761D01*
X245580952Y-128600380D01*
X245866666Y-128600380D01*
X245961904Y-128552761D01*
X246009523Y-128505142D01*
G04 #@! TO.C,J2*
X231572140Y-113998386D02*
X232286426Y-113998386D01*
X232429283Y-113950767D01*
X232524521Y-113855529D01*
X232572140Y-113712672D01*
X232572140Y-113617434D01*
X231667379Y-114426958D02*
X231619760Y-114474577D01*
X231572140Y-114569815D01*
X231572140Y-114807910D01*
X231619760Y-114903148D01*
X231667379Y-114950767D01*
X231762617Y-114998386D01*
X231857855Y-114998386D01*
X232000712Y-114950767D01*
X232572140Y-114379339D01*
X232572140Y-114998386D01*
G04 #@! TD*
M02*
