G04 #@! TF.GenerationSoftware,KiCad,Pcbnew,(5.0.1)-rc2*
G04 #@! TF.CreationDate,2018-11-18T21:30:58-07:00*
G04 #@! TF.ProjectId,RPI_zeroW_reset,5250495F7A65726F575F72657365742E,rev?*
G04 #@! TF.SameCoordinates,Original*
G04 #@! TF.FileFunction,Legend,Top*
G04 #@! TF.FilePolarity,Positive*
%FSLAX46Y46*%
G04 Gerber Fmt 4.6, Leading zero omitted, Abs format (unit mm)*
G04 Created by KiCad (PCBNEW (5.0.1)-rc2) date 11/18/2018 9:30:58 PM*
%MOMM*%
%LPD*%
G01*
G04 APERTURE LIST*
%ADD10C,0.120000*%
%ADD11C,0.200660*%
%ADD12C,0.150000*%
%ADD13C,0.124460*%
G04 APERTURE END LIST*
D10*
G04 #@! TO.C,J1*
X108458000Y-75946000D02*
X108458000Y-74676000D01*
X109728000Y-75946000D02*
X108458000Y-75946000D01*
D11*
G04 #@! TO.C,U1*
X109318887Y-79829660D02*
G75*
G03X109318887Y-79829660I-55707J0D01*
G01*
X111701580Y-78981300D02*
X111701580Y-80180180D01*
X108902500Y-78981300D02*
X108902500Y-80180180D01*
X108902500Y-78981300D02*
X111701580Y-78981300D01*
X111701580Y-80180180D02*
X108902500Y-80180180D01*
D12*
G04 #@! TO.C,SW1*
X115316000Y-82804000D02*
X115316000Y-76804000D01*
X115316000Y-76804000D02*
X112316000Y-76804000D01*
X112316000Y-76804000D02*
X112316000Y-82804000D01*
X112316000Y-82804000D02*
X115316000Y-82804000D01*
G04 #@! TO.C,J1*
X106910380Y-70624333D02*
X107624666Y-70624333D01*
X107767523Y-70671952D01*
X107862761Y-70767190D01*
X107910380Y-70910047D01*
X107910380Y-71005285D01*
X107910380Y-69624333D02*
X107910380Y-70195761D01*
X107910380Y-69910047D02*
X106910380Y-69910047D01*
X107053238Y-70005285D01*
X107148476Y-70100523D01*
X107196095Y-70195761D01*
G04 #@! TO.C,U1*
D13*
X109920798Y-76586382D02*
X109920798Y-76991451D01*
X109944625Y-77039107D01*
X109968453Y-77062934D01*
X110016108Y-77086762D01*
X110111419Y-77086762D01*
X110159074Y-77062934D01*
X110182901Y-77039107D01*
X110206729Y-76991451D01*
X110206729Y-76586382D01*
X110707109Y-77086762D02*
X110421178Y-77086762D01*
X110564143Y-77086762D02*
X110564143Y-76586382D01*
X110516488Y-76657865D01*
X110468833Y-76705520D01*
X110421178Y-76729348D01*
X108753244Y-82085482D02*
X109039176Y-82085482D01*
X108896210Y-82585862D02*
X108896210Y-82085482D01*
X109205969Y-82585862D02*
X109205969Y-82085482D01*
X109396590Y-82085482D01*
X109444245Y-82109310D01*
X109468073Y-82133137D01*
X109491900Y-82180792D01*
X109491900Y-82252275D01*
X109468073Y-82299930D01*
X109444245Y-82323758D01*
X109396590Y-82347586D01*
X109205969Y-82347586D01*
X109944625Y-82585862D02*
X109706349Y-82585862D01*
X109706349Y-82085482D01*
X110349695Y-82085482D02*
X110111419Y-82085482D01*
X110087591Y-82323758D01*
X110111419Y-82299930D01*
X110159074Y-82276103D01*
X110278212Y-82276103D01*
X110325867Y-82299930D01*
X110349695Y-82323758D01*
X110373522Y-82371413D01*
X110373522Y-82490551D01*
X110349695Y-82538207D01*
X110325867Y-82562034D01*
X110278212Y-82585862D01*
X110159074Y-82585862D01*
X110111419Y-82562034D01*
X110087591Y-82538207D01*
X110850075Y-82585862D02*
X110564143Y-82585862D01*
X110707109Y-82585862D02*
X110707109Y-82085482D01*
X110659454Y-82156965D01*
X110611799Y-82204620D01*
X110564143Y-82228448D01*
X111326627Y-82585862D02*
X111040696Y-82585862D01*
X111183661Y-82585862D02*
X111183661Y-82085482D01*
X111136006Y-82156965D01*
X111088351Y-82204620D01*
X111040696Y-82228448D01*
X111803180Y-82585862D02*
X111517248Y-82585862D01*
X111660214Y-82585862D02*
X111660214Y-82085482D01*
X111612559Y-82156965D01*
X111564903Y-82204620D01*
X111517248Y-82228448D01*
G04 #@! TO.C,SW1*
D12*
X116720761Y-81137333D02*
X116768380Y-80994476D01*
X116768380Y-80756380D01*
X116720761Y-80661142D01*
X116673142Y-80613523D01*
X116577904Y-80565904D01*
X116482666Y-80565904D01*
X116387428Y-80613523D01*
X116339809Y-80661142D01*
X116292190Y-80756380D01*
X116244571Y-80946857D01*
X116196952Y-81042095D01*
X116149333Y-81089714D01*
X116054095Y-81137333D01*
X115958857Y-81137333D01*
X115863619Y-81089714D01*
X115816000Y-81042095D01*
X115768380Y-80946857D01*
X115768380Y-80708761D01*
X115816000Y-80565904D01*
X115768380Y-80232571D02*
X116768380Y-79994476D01*
X116054095Y-79804000D01*
X116768380Y-79613523D01*
X115768380Y-79375428D01*
X116768380Y-78470666D02*
X116768380Y-79042095D01*
X116768380Y-78756380D02*
X115768380Y-78756380D01*
X115911238Y-78851619D01*
X116006476Y-78946857D01*
X116054095Y-79042095D01*
G04 #@! TD*
M02*
