G04 #@! TF.GenerationSoftware,KiCad,Pcbnew,(5.0.1)-rc2*
G04 #@! TF.CreationDate,2018-11-18T14:41:54-07:00*
G04 #@! TF.ProjectId,PowerSupply,506F776572537570706C792E6B696361,rev?*
G04 #@! TF.SameCoordinates,Original*
G04 #@! TF.FileFunction,Copper,L2,Bot,Signal*
G04 #@! TF.FilePolarity,Positive*
%FSLAX46Y46*%
G04 Gerber Fmt 4.6, Leading zero omitted, Abs format (unit mm)*
G04 Created by KiCad (PCBNEW (5.0.1)-rc2) date 11/18/2018 2:41:54 PM*
%MOMM*%
%LPD*%
G01*
G04 APERTURE LIST*
G04 #@! TA.AperFunction,ComponentPad*
%ADD10C,2.700000*%
G04 #@! TD*
G04 #@! TA.AperFunction,ComponentPad*
%ADD11C,1.574800*%
G04 #@! TD*
G04 #@! TA.AperFunction,SMDPad,CuDef*
%ADD12R,1.300000X0.700000*%
G04 #@! TD*
G04 #@! TA.AperFunction,SMDPad,CuDef*
%ADD13R,1.198880X0.797560*%
G04 #@! TD*
G04 #@! TA.AperFunction,SMDPad,CuDef*
%ADD14R,0.797560X1.198880*%
G04 #@! TD*
G04 #@! TA.AperFunction,ComponentPad*
%ADD15C,1.879600*%
G04 #@! TD*
G04 #@! TA.AperFunction,SMDPad,CuDef*
%ADD16R,0.700000X1.300000*%
G04 #@! TD*
G04 #@! TA.AperFunction,SMDPad,CuDef*
%ADD17R,0.965200X0.304800*%
G04 #@! TD*
G04 #@! TA.AperFunction,SMDPad,CuDef*
%ADD18R,0.304800X0.965200*%
G04 #@! TD*
G04 #@! TA.AperFunction,SMDPad,CuDef*
%ADD19R,3.352800X3.352800*%
G04 #@! TD*
G04 #@! TA.AperFunction,SMDPad,CuDef*
%ADD20R,1.371600X0.406400*%
G04 #@! TD*
G04 #@! TA.AperFunction,SMDPad,CuDef*
%ADD21R,1.000760X0.800100*%
G04 #@! TD*
G04 #@! TA.AperFunction,BGAPad,CuDef*
%ADD22C,2.500000*%
G04 #@! TD*
G04 #@! TA.AperFunction,ComponentPad*
%ADD23C,4.400000*%
G04 #@! TD*
G04 #@! TA.AperFunction,ComponentPad*
%ADD24C,0.700000*%
G04 #@! TD*
G04 #@! TA.AperFunction,ViaPad*
%ADD25C,0.800000*%
G04 #@! TD*
G04 #@! TA.AperFunction,Conductor*
%ADD26C,0.250000*%
G04 #@! TD*
G04 #@! TA.AperFunction,Conductor*
%ADD27C,0.254000*%
G04 #@! TD*
G04 APERTURE END LIST*
D10*
G04 #@! TO.P,J2,1*
G04 #@! TO.N,+3V3*
X236000000Y-91500000D03*
G04 #@! TO.P,J2,2*
X236000000Y-96500000D03*
G04 #@! TO.P,J2,3*
G04 #@! TO.N,N/C*
X236000000Y-101500000D03*
G04 #@! TO.P,J2,4*
G04 #@! TO.N,/5VA*
X236000000Y-106500000D03*
G04 #@! TO.P,J2,5*
G04 #@! TO.N,N/C*
X236000000Y-111500000D03*
G04 #@! TO.P,J2,6*
G04 #@! TO.N,/5VA*
X236000000Y-116500000D03*
G04 #@! TO.P,J2,7*
G04 #@! TO.N,GND*
X236000000Y-121500000D03*
G04 #@! TO.P,J2,8*
G04 #@! TO.N,Net-(J2-Pad8)*
X236000000Y-126500000D03*
G04 #@! TO.P,J2,9*
G04 #@! TO.N,5V_USB*
X236000000Y-131500000D03*
G04 #@! TO.P,J2,10*
G04 #@! TO.N,+12V*
X236000000Y-136500000D03*
G04 #@! TO.P,J2,11*
X236000000Y-141500000D03*
G04 #@! TO.P,J2,12*
G04 #@! TO.N,+3V3*
X236000000Y-146500000D03*
G04 #@! TO.P,J2,13*
X241000000Y-91500000D03*
G04 #@! TO.P,J2,14*
G04 #@! TO.N,N/C*
X241000000Y-96500000D03*
G04 #@! TO.P,J2,15*
G04 #@! TO.N,GND*
X241000000Y-101500000D03*
G04 #@! TO.P,J2,16*
G04 #@! TO.N,Net-(J2-Pad16)*
X241000000Y-106500000D03*
G04 #@! TO.P,J2,17*
G04 #@! TO.N,Net-(J2-Pad17)*
X241000000Y-111500000D03*
G04 #@! TO.P,J2,18*
G04 #@! TO.N,N/C*
X241000000Y-116500000D03*
G04 #@! TO.P,J2,19*
G04 #@! TO.N,GND*
X241000000Y-121500000D03*
G04 #@! TO.P,J2,20*
G04 #@! TO.N,N/C*
X241000000Y-126500000D03*
G04 #@! TO.P,J2,21*
G04 #@! TO.N,Net-(H1-Pad1)*
X241000000Y-131500000D03*
G04 #@! TO.P,J2,22*
G04 #@! TO.N,N/C*
X241000000Y-136500000D03*
G04 #@! TO.P,J2,23*
X241000000Y-141500000D03*
G04 #@! TO.P,J2,24*
X241000000Y-146500000D03*
G04 #@! TD*
D11*
G04 #@! TO.P,A1,9*
G04 #@! TO.N,5V_EN*
X206460000Y-131080000D03*
G04 #@! TO.P,A1,15*
G04 #@! TO.N,SPI_MISO_PINX*
X191220000Y-131080000D03*
G04 #@! TO.P,A1,16*
G04 #@! TO.N,SPI_Clk_PINX*
X191220000Y-146320000D03*
G04 #@! TO.P,A1,14*
G04 #@! TO.N,SPI_MOSI_PINX*
X193760000Y-131080000D03*
G04 #@! TO.P,A1,13*
G04 #@! TO.N,SPI_ADC_CS_PINX*
X196300000Y-131080000D03*
G04 #@! TO.P,A1,12*
G04 #@! TO.N,SPI_3V3_CS_PINX*
X198840000Y-131080000D03*
G04 #@! TO.P,A1,19*
G04 #@! TO.N,POK*
X198840000Y-146320000D03*
G04 #@! TO.P,A1,11*
G04 #@! TO.N,3V3_FINE_EN*
X201380000Y-131080000D03*
G04 #@! TO.P,A1,10*
G04 #@! TO.N,3V3_COURSE_EN*
X203920000Y-131080000D03*
G04 #@! TO.P,A1,8*
G04 #@! TO.N,12V_EN*
X209000000Y-131080000D03*
G04 #@! TO.P,A1,7*
G04 #@! TO.N,CNVST_PINX*
X211540000Y-131080000D03*
G04 #@! TO.P,A1,6*
G04 #@! TO.N,EOC_PINX*
X214080000Y-131080000D03*
G04 #@! TO.P,A1,5*
G04 #@! TO.N,N/C*
X216620000Y-131080000D03*
G04 #@! TO.P,A1,4*
G04 #@! TO.N,GND*
X219160000Y-131080000D03*
G04 #@! TO.P,A1,2*
G04 #@! TO.N,Net-(A1-Pad2)*
X224240000Y-131080000D03*
G04 #@! TO.P,A1,1*
G04 #@! TO.N,Net-(A1-Pad1)*
X226780000Y-131080000D03*
G04 #@! TO.P,A1,30*
G04 #@! TO.N,+3V3*
X226780000Y-146320000D03*
G04 #@! TD*
D12*
G04 #@! TO.P,R5,2*
G04 #@! TO.N,Net-(Q3-Pad1)*
X213600000Y-92000000D03*
G04 #@! TO.P,R5,1*
G04 #@! TO.N,+12V*
X213600000Y-93900000D03*
G04 #@! TD*
D13*
G04 #@! TO.P,C1,2*
G04 #@! TO.N,Net-(C1-Pad2)*
X232000000Y-120600840D03*
G04 #@! TO.P,C1,1*
G04 #@! TO.N,GND*
X232000000Y-122399160D03*
G04 #@! TD*
D14*
G04 #@! TO.P,C2,1*
G04 #@! TO.N,Net-(C2-Pad1)*
X227700000Y-118800000D03*
G04 #@! TO.P,C2,2*
G04 #@! TO.N,Net-(C2-Pad2)*
X225901680Y-118800000D03*
G04 #@! TD*
G04 #@! TO.P,C4,1*
G04 #@! TO.N,GND*
X222199160Y-128100000D03*
G04 #@! TO.P,C4,2*
G04 #@! TO.N,Net-(C3-Pad2)*
X220400840Y-128100000D03*
G04 #@! TD*
D15*
G04 #@! TO.P,J1,1*
G04 #@! TO.N,Net-(A1-Pad1)*
X223500000Y-149300000D03*
G04 #@! TO.P,J1,2*
G04 #@! TO.N,Net-(A1-Pad2)*
X220960000Y-149300000D03*
G04 #@! TO.P,J1,3*
G04 #@! TO.N,GND*
X218420000Y-149300000D03*
G04 #@! TO.P,J1,4*
G04 #@! TO.N,+3V3*
X215880000Y-149300000D03*
G04 #@! TD*
G04 #@! TO.P,J3,1*
G04 #@! TO.N,Net-(J2-Pad16)*
X246000000Y-107660000D03*
G04 #@! TO.P,J3,2*
G04 #@! TO.N,Net-(J2-Pad17)*
X246000000Y-110200000D03*
G04 #@! TD*
D12*
G04 #@! TO.P,R1,2*
G04 #@! TO.N,5V_DIV_OUT*
X204496000Y-110316000D03*
G04 #@! TO.P,R1,1*
G04 #@! TO.N,5V_Out*
X204496000Y-108416000D03*
G04 #@! TD*
G04 #@! TO.P,R2,1*
G04 #@! TO.N,5V_DIV_OUT*
X206782000Y-110316000D03*
G04 #@! TO.P,R2,2*
G04 #@! TO.N,GND*
X206782000Y-108416000D03*
G04 #@! TD*
D16*
G04 #@! TO.P,R3,1*
G04 #@! TO.N,12V_Out*
X208000000Y-120900000D03*
G04 #@! TO.P,R3,2*
G04 #@! TO.N,12V_DIV_Out*
X209900000Y-120900000D03*
G04 #@! TD*
G04 #@! TO.P,R4,2*
G04 #@! TO.N,GND*
X213250000Y-120900000D03*
G04 #@! TO.P,R4,1*
G04 #@! TO.N,12V_DIV_Out*
X211350000Y-120900000D03*
G04 #@! TD*
D12*
G04 #@! TO.P,R6,1*
G04 #@! TO.N,+12V*
X211500000Y-111900000D03*
G04 #@! TO.P,R6,2*
G04 #@! TO.N,Net-(Q4-Pad1)*
X211500000Y-110000000D03*
G04 #@! TD*
D16*
G04 #@! TO.P,R9,2*
G04 #@! TO.N,Net-(Q2-Pad1)*
X210000000Y-101600000D03*
G04 #@! TO.P,R9,1*
G04 #@! TO.N,+12V*
X211900000Y-101600000D03*
G04 #@! TD*
G04 #@! TO.P,R10,1*
G04 #@! TO.N,Net-(Q5-Pad1)*
X206000000Y-95000000D03*
G04 #@! TO.P,R10,2*
G04 #@! TO.N,3V3_COURSE_EN*
X204100000Y-95000000D03*
G04 #@! TD*
G04 #@! TO.P,R13,1*
G04 #@! TO.N,Net-(Q8-Pad1)*
X206400000Y-100500000D03*
G04 #@! TO.P,R13,2*
G04 #@! TO.N,3V3_FINE_EN*
X204500000Y-100500000D03*
G04 #@! TD*
D17*
G04 #@! TO.P,U4,1*
G04 #@! TO.N,3V3_Fine_Out*
X216725100Y-125300000D03*
G04 #@! TO.P,U4,2*
G04 #@! TO.N,5V_DIV_OUT*
X216725100Y-124800001D03*
G04 #@! TO.P,U4,3*
G04 #@! TO.N,12V_DIV_Out*
X216725100Y-124299999D03*
G04 #@! TO.P,U4,4*
G04 #@! TO.N,Net-(U2-Pad10)*
X216725100Y-123800000D03*
G04 #@! TO.P,U4,5*
G04 #@! TO.N,Net-(U3-Pad10)*
X216725100Y-123300001D03*
G04 #@! TO.P,U4,6*
G04 #@! TO.N,GND*
X216725100Y-122799999D03*
G04 #@! TO.P,U4,7*
X216725100Y-122300000D03*
D18*
G04 #@! TO.P,U4,8*
X217600000Y-121425100D03*
G04 #@! TO.P,U4,9*
X218099999Y-121425100D03*
G04 #@! TO.P,U4,10*
X218600001Y-121425100D03*
G04 #@! TO.P,U4,11*
X219100000Y-121425100D03*
G04 #@! TO.P,U4,12*
G04 #@! TO.N,CNVST_PINX*
X219599999Y-121425100D03*
G04 #@! TO.P,U4,13*
G04 #@! TO.N,GND*
X220100001Y-121425100D03*
G04 #@! TO.P,U4,14*
X220600000Y-121425100D03*
D17*
G04 #@! TO.P,U4,15*
G04 #@! TO.N,Net-(C2-Pad2)*
X221474900Y-122300000D03*
G04 #@! TO.P,U4,16*
G04 #@! TO.N,Net-(C2-Pad1)*
X221474900Y-122799999D03*
G04 #@! TO.P,U4,17*
G04 #@! TO.N,+3V3*
X221474900Y-123300001D03*
G04 #@! TO.P,U4,18*
X221474900Y-123800000D03*
G04 #@! TO.P,U4,19*
G04 #@! TO.N,SPI_Clk_PINX*
X221474900Y-124299999D03*
G04 #@! TO.P,U4,20*
G04 #@! TO.N,SPI_ADC_CS_PINX*
X221474900Y-124800001D03*
G04 #@! TO.P,U4,21*
G04 #@! TO.N,SPI_MOSI_PINX*
X221474900Y-125300000D03*
D18*
G04 #@! TO.P,U4,22*
G04 #@! TO.N,GND*
X220600000Y-126174900D03*
G04 #@! TO.P,U4,23*
G04 #@! TO.N,Net-(C3-Pad2)*
X220100001Y-126174900D03*
G04 #@! TO.P,U4,24*
G04 #@! TO.N,SPI_MISO_PINX*
X219599999Y-126174900D03*
G04 #@! TO.P,U4,25*
G04 #@! TO.N,EOC_PINX*
X219100000Y-126174900D03*
G04 #@! TO.P,U4,26*
G04 #@! TO.N,3V3_Out*
X218600001Y-126174900D03*
G04 #@! TO.P,U4,27*
G04 #@! TO.N,N/C*
X218099999Y-126174900D03*
G04 #@! TO.P,U4,28*
G04 #@! TO.N,Net-(U1-Pad10)*
X217600000Y-126174900D03*
D19*
G04 #@! TO.P,U4,29*
G04 #@! TO.N,GND*
X219100000Y-123800000D03*
G04 #@! TD*
D20*
G04 #@! TO.P,U5,1*
G04 #@! TO.N,Net-(C1-Pad2)*
X229600000Y-120900000D03*
G04 #@! TO.P,U5,2*
G04 #@! TO.N,+3V3*
X229600000Y-121549998D03*
G04 #@! TO.P,U5,3*
G04 #@! TO.N,GND*
X229600000Y-122200000D03*
G04 #@! TO.P,U5,4*
G04 #@! TO.N,Net-(C2-Pad1)*
X229600000Y-122849998D03*
G04 #@! TO.P,U5,5*
G04 #@! TO.N,N/C*
X225231200Y-122849998D03*
G04 #@! TO.P,U5,6*
G04 #@! TO.N,Net-(C2-Pad2)*
X225231200Y-122200000D03*
G04 #@! TO.P,U5,7*
X225231200Y-121549998D03*
G04 #@! TO.P,U5,8*
G04 #@! TO.N,N/C*
X225231200Y-120900000D03*
G04 #@! TD*
D21*
G04 #@! TO.P,Q5,3*
G04 #@! TO.N,Net-(Q3-Pad1)*
X210399820Y-92000000D03*
G04 #@! TO.P,Q5,2*
G04 #@! TO.N,GND*
X208200180Y-91047500D03*
G04 #@! TO.P,Q5,1*
G04 #@! TO.N,Net-(Q5-Pad1)*
X208200180Y-92952500D03*
G04 #@! TD*
G04 #@! TO.P,Q6,1*
G04 #@! TO.N,Net-(Q6-Pad1)*
X209300180Y-108752500D03*
G04 #@! TO.P,Q6,2*
G04 #@! TO.N,GND*
X209300180Y-106847500D03*
G04 #@! TO.P,Q6,3*
G04 #@! TO.N,Net-(Q4-Pad1)*
X211499820Y-107800000D03*
G04 #@! TD*
G04 #@! TO.P,Q8,1*
G04 #@! TO.N,Net-(Q8-Pad1)*
X207800000Y-99605000D03*
G04 #@! TO.P,Q8,2*
G04 #@! TO.N,GND*
X207800000Y-97700000D03*
G04 #@! TO.P,Q8,3*
G04 #@! TO.N,Net-(Q2-Pad1)*
X209999640Y-98652500D03*
G04 #@! TD*
D22*
G04 #@! TO.P,H3,1*
G04 #@! TO.N,5V_USB*
X246200000Y-126000000D03*
G04 #@! TD*
D23*
G04 #@! TO.P,H4,1*
G04 #@! TO.N,5V_Out*
X205000000Y-105000000D03*
D24*
X206650000Y-105000000D03*
X206166726Y-106166726D03*
X205000000Y-106650000D03*
X203833274Y-106166726D03*
X203350000Y-105000000D03*
X203833274Y-103833274D03*
X205000000Y-103350000D03*
X206166726Y-103833274D03*
G04 #@! TD*
D23*
G04 #@! TO.P,H5,1*
G04 #@! TO.N,12V_Out*
X205000000Y-115000000D03*
D24*
X206650000Y-115000000D03*
X206166726Y-116166726D03*
X205000000Y-116650000D03*
X203833274Y-116166726D03*
X203350000Y-115000000D03*
X203833274Y-113833274D03*
X205000000Y-113350000D03*
X206166726Y-113833274D03*
G04 #@! TD*
G04 #@! TO.P,H6,1*
G04 #@! TO.N,3V3_Out*
X206144726Y-89765274D03*
X204978000Y-89282000D03*
X203811274Y-89765274D03*
X203328000Y-90932000D03*
X203811274Y-92098726D03*
X204978000Y-92582000D03*
X206144726Y-92098726D03*
X206628000Y-90932000D03*
D23*
X204978000Y-90932000D03*
G04 #@! TD*
G04 #@! TO.P,H7,1*
G04 #@! TO.N,GND*
X226300000Y-110000000D03*
D24*
X227950000Y-110000000D03*
X227466726Y-111166726D03*
X226300000Y-111650000D03*
X225133274Y-111166726D03*
X224650000Y-110000000D03*
X225133274Y-108833274D03*
X226300000Y-108350000D03*
X227466726Y-108833274D03*
G04 #@! TD*
D25*
G04 #@! TO.N,GND*
X218200000Y-122900000D03*
X222199160Y-128100000D03*
X214200000Y-90300000D03*
X208200180Y-91047500D03*
X217112653Y-99112653D03*
X213250000Y-120900000D03*
X215514568Y-107600000D03*
X212800000Y-106800000D03*
X223200000Y-120400000D03*
X218100000Y-118100000D03*
X228600000Y-124925001D03*
G04 #@! TO.N,Net-(C3-Pad2)*
X220400840Y-128100000D03*
G04 #@! TO.N,+3V3*
X220575221Y-90326622D03*
X223700000Y-116500000D03*
X226700000Y-124200000D03*
G04 #@! TO.N,+12V*
X228816000Y-115148000D03*
G04 #@! TO.N,12V_Out*
X208000000Y-118500000D03*
G04 #@! TO.N,5V_Out*
X205500000Y-107300000D03*
G04 #@! TO.N,Net-(Q6-Pad1)*
X209300180Y-108752500D03*
G04 #@! TO.N,3V3_COURSE_EN*
X202200000Y-126100000D03*
G04 #@! TO.N,3V3_FINE_EN*
X203100000Y-101300000D03*
G04 #@! TO.N,Net-(U2-Pad10)*
X220800000Y-110800000D03*
G04 #@! TO.N,Net-(U3-Pad10)*
X215200000Y-122100000D03*
G04 #@! TO.N,CNVST_PINX*
X219500000Y-120000000D03*
G04 #@! TO.N,EOC_PINX*
X217200000Y-128000000D03*
G04 #@! TO.N,Net-(Q2-Pad1)*
X208600000Y-96300000D03*
G04 #@! TO.N,Net-(Q3-Pad1)*
X210200000Y-90600000D03*
G04 #@! TO.N,Net-(Q4-Pad1)*
X211500000Y-106600000D03*
G04 #@! TO.N,+3V3*
X238600000Y-132400000D03*
X238600000Y-122225000D03*
X238600000Y-101200000D03*
X223100000Y-106000000D03*
G04 #@! TO.N,Net-(U1-Pad10)*
X217700000Y-92800000D03*
G04 #@! TO.N,3V3_Fine_Out*
X203300000Y-99375370D03*
G04 #@! TD*
D26*
G04 #@! TO.N,Net-(C1-Pad2)*
X231700840Y-120900000D02*
X232000000Y-120600840D01*
X229600000Y-120900000D02*
X231700840Y-120900000D01*
G04 #@! TO.N,GND*
X216725100Y-121897600D02*
X216725100Y-122300000D01*
X208549800Y-106847500D02*
X209300180Y-106847500D01*
X207750500Y-106847500D02*
X208549800Y-106847500D01*
X206782000Y-107816000D02*
X207750500Y-106847500D01*
X206782000Y-108416000D02*
X206782000Y-107816000D01*
X231800840Y-122200000D02*
X232000000Y-122399160D01*
X229600000Y-122200000D02*
X231800840Y-122200000D01*
X217197600Y-121425100D02*
X216725100Y-121897600D01*
X217600000Y-121425100D02*
X217197600Y-121425100D01*
X216725100Y-122300000D02*
X216725100Y-122799999D01*
X217600000Y-121425100D02*
X218099999Y-121425100D01*
X218099999Y-121425100D02*
X218600001Y-121425100D01*
X219100000Y-121425100D02*
X218600001Y-121425100D01*
X220100001Y-121425100D02*
X220600000Y-121425100D01*
X220600000Y-122300000D02*
X219100000Y-123800000D01*
X220600000Y-121425100D02*
X220600000Y-122300000D01*
X220100001Y-122799999D02*
X219100000Y-123800000D01*
X220100001Y-121425100D02*
X220100001Y-122799999D01*
X218600001Y-123300001D02*
X219100000Y-123800000D01*
X218600001Y-121425100D02*
X218600001Y-123300001D01*
X218099999Y-121425100D02*
X218099999Y-122799999D01*
X219100000Y-123657700D02*
X219100000Y-123800000D01*
X217600000Y-122157700D02*
X219100000Y-123657700D01*
X217600000Y-121425100D02*
X217600000Y-122157700D01*
X217600000Y-122300000D02*
X219100000Y-123800000D01*
X216725100Y-122300000D02*
X217600000Y-122300000D01*
X218099999Y-122799999D02*
X219100000Y-123800000D01*
X216725100Y-122799999D02*
X218099999Y-122799999D01*
X219100000Y-121425100D02*
X219100000Y-123800000D01*
X220577402Y-125277402D02*
X219100000Y-123800000D01*
X220577402Y-125777402D02*
X220577402Y-125277402D01*
X220600000Y-125800000D02*
X220577402Y-125777402D01*
X220600000Y-126174900D02*
X220600000Y-125800000D01*
X220600000Y-126300180D02*
X220600000Y-126174900D01*
X222199160Y-127899340D02*
X220600000Y-126300180D01*
X222199160Y-128100000D02*
X222199160Y-127899340D01*
X232000000Y-121750380D02*
X232000000Y-122399160D01*
X232250380Y-121500000D02*
X232000000Y-121750380D01*
X236000000Y-121500000D02*
X232250380Y-121500000D01*
X213850000Y-120900000D02*
X213250000Y-120900000D01*
X215073002Y-120900000D02*
X213850000Y-120900000D01*
X216070602Y-121897600D02*
X215073002Y-120900000D01*
X216725100Y-121897600D02*
X216070602Y-121897600D01*
X207049620Y-97700000D02*
X205400000Y-99349620D01*
X207800000Y-97700000D02*
X207049620Y-97700000D01*
X205400000Y-101662998D02*
X205837002Y-102100000D01*
X205400000Y-99349620D02*
X205400000Y-101662998D01*
X205837002Y-102100000D02*
X207900000Y-102100000D01*
X209300180Y-103500180D02*
X209300180Y-106847500D01*
X207900000Y-102100000D02*
X209300180Y-103500180D01*
X213209314Y-89874999D02*
X208525001Y-89874999D01*
X214200000Y-90300000D02*
X213634315Y-90300000D01*
X213634315Y-90300000D02*
X213209314Y-89874999D01*
X208200180Y-90199820D02*
X208200180Y-91047500D01*
X208525001Y-89874999D02*
X208200180Y-90199820D01*
X238612653Y-99112653D02*
X241000000Y-101500000D01*
X217112653Y-99112653D02*
X238612653Y-99112653D01*
X213850000Y-120900000D02*
X222100000Y-112650000D01*
X218673002Y-107600000D02*
X215514568Y-107600000D01*
X222100000Y-111026998D02*
X218673002Y-107600000D01*
X222100000Y-112650000D02*
X222100000Y-111026998D01*
X211023061Y-105874999D02*
X211874999Y-105874999D01*
X209300180Y-106847500D02*
X210050560Y-106847500D01*
X210050560Y-106847500D02*
X211023061Y-105874999D01*
X211874999Y-105874999D02*
X212800000Y-106800000D01*
X214200000Y-90300000D02*
X214200000Y-88000000D01*
X242349999Y-100150001D02*
X241000000Y-101500000D01*
X242675001Y-99824999D02*
X242349999Y-100150001D01*
X242675001Y-90695999D02*
X242675001Y-99824999D01*
X241353991Y-89374989D02*
X242675001Y-90695999D01*
X215574989Y-89374989D02*
X241353991Y-89374989D01*
X214200000Y-88000000D02*
X215574989Y-89374989D01*
X217112653Y-98546968D02*
X217112653Y-99112653D01*
X217112653Y-95827651D02*
X217112653Y-98546968D01*
X214510001Y-93224999D02*
X217112653Y-95827651D01*
X210601999Y-93224999D02*
X214510001Y-93224999D01*
X207800000Y-96026998D02*
X210601999Y-93224999D01*
X207800000Y-97700000D02*
X207800000Y-96026998D01*
X220600000Y-121094900D02*
X221594900Y-120100000D01*
X220600000Y-121425100D02*
X220600000Y-121094900D01*
X221594900Y-120100000D02*
X222900000Y-120100000D01*
X222900000Y-120100000D02*
X223200000Y-120400000D01*
X218673002Y-118100000D02*
X218100000Y-118100000D01*
X220225001Y-119651999D02*
X218673002Y-118100000D01*
X221594900Y-120100000D02*
X220225001Y-120100000D01*
X220225001Y-120100000D02*
X220225001Y-119651999D01*
X231799340Y-122399160D02*
X232000000Y-122399160D01*
X230700000Y-123498500D02*
X231799340Y-122399160D01*
X228600000Y-124925001D02*
X230700000Y-123498500D01*
G04 #@! TO.N,Net-(C2-Pad1)*
X228135999Y-123378199D02*
X228664200Y-122849998D01*
X222785700Y-123378199D02*
X228135999Y-123378199D01*
X222207500Y-122799999D02*
X222785700Y-123378199D01*
X221474900Y-122799999D02*
X222207500Y-122799999D01*
X228664200Y-122849998D02*
X229600000Y-122849998D01*
X228139189Y-122324987D02*
X228664200Y-122849998D01*
X228139189Y-120088629D02*
X228139189Y-122324987D01*
X227700000Y-119649440D02*
X228139189Y-120088629D01*
X227700000Y-118800000D02*
X227700000Y-119649440D01*
G04 #@! TO.N,Net-(C2-Pad2)*
X225131200Y-122300000D02*
X225231200Y-122200000D01*
X221474900Y-122300000D02*
X225131200Y-122300000D01*
X225231200Y-121549998D02*
X225231200Y-122200000D01*
X225901680Y-119649440D02*
X225901680Y-118800000D01*
X226242001Y-119989761D02*
X225901680Y-119649440D01*
X226242001Y-121363201D02*
X226242001Y-119989761D01*
X226055204Y-121549998D02*
X226242001Y-121363201D01*
X225231200Y-121549998D02*
X226055204Y-121549998D01*
G04 #@! TO.N,Net-(C3-Pad2)*
X220100001Y-127799161D02*
X220100001Y-126174900D01*
X220400840Y-128100000D02*
X220100001Y-127799161D01*
G04 #@! TO.N,+3V3*
X239650001Y-90150001D02*
X241000000Y-91500000D01*
X239324999Y-89824999D02*
X239650001Y-90150001D01*
X221076844Y-89824999D02*
X239324999Y-89824999D01*
X220575221Y-90326622D02*
X221076844Y-89824999D01*
X229600000Y-121549998D02*
X228775996Y-121549998D01*
X228654199Y-120371799D02*
X229400000Y-120371799D01*
X228589199Y-120436799D02*
X228654199Y-120371799D01*
X228589199Y-121363201D02*
X228589199Y-120436799D01*
X228654199Y-121428201D02*
X228589199Y-121363201D01*
X228775996Y-121549998D02*
X228897793Y-121428201D01*
X228897793Y-121428201D02*
X228654199Y-121428201D01*
X229400000Y-120371799D02*
X229400000Y-117700000D01*
X224900000Y-117700000D02*
X223700000Y-116500000D01*
X229400000Y-117700000D02*
X224900000Y-117700000D01*
X221474900Y-123300001D02*
X221474900Y-123800000D01*
X222235709Y-123828209D02*
X226328209Y-123828209D01*
X221474900Y-123800000D02*
X222207500Y-123800000D01*
X222207500Y-123800000D02*
X222235709Y-123828209D01*
X226328209Y-123828209D02*
X226700000Y-124200000D01*
X225666449Y-146320000D02*
X226780000Y-146320000D01*
X217530923Y-146320000D02*
X225666449Y-146320000D01*
X215880000Y-147970923D02*
X217530923Y-146320000D01*
X215880000Y-149300000D02*
X215880000Y-147970923D01*
X227099999Y-124599999D02*
X226700000Y-124200000D01*
X227892401Y-125392401D02*
X227099999Y-124599999D01*
X227892401Y-145207599D02*
X227892401Y-125392401D01*
X226780000Y-146320000D02*
X227892401Y-145207599D01*
G04 #@! TO.N,+12V*
X211500000Y-112500000D02*
X211500000Y-111900000D01*
X212500000Y-101600000D02*
X211900000Y-101600000D01*
X213600000Y-100500000D02*
X212500000Y-101600000D01*
X212400000Y-111900000D02*
X213600000Y-110700000D01*
X211500000Y-111900000D02*
X212400000Y-111900000D01*
X213600000Y-93900000D02*
X213600000Y-100300000D01*
X213600000Y-100300000D02*
X213600000Y-100500000D01*
X213600000Y-101700000D02*
X213600000Y-100300000D01*
X213600000Y-110700000D02*
X213600000Y-101700000D01*
G04 #@! TO.N,5V_USB*
X244020998Y-126000000D02*
X246200000Y-126000000D01*
X236000000Y-131500000D02*
X238520998Y-131500000D01*
X238520998Y-131500000D02*
X244020998Y-126000000D01*
G04 #@! TO.N,SPI_Clk_PINX*
X199540000Y-138000000D02*
X191220000Y-146320000D01*
X214400000Y-138000000D02*
X199540000Y-138000000D01*
X221474900Y-124299999D02*
X222899999Y-124299999D01*
X224300000Y-125400000D02*
X224300000Y-129300000D01*
X222899999Y-124299999D02*
X224300000Y-125400000D01*
X222600000Y-131000000D02*
X221400000Y-131000000D01*
X224300000Y-129300000D02*
X222600000Y-131000000D01*
X221400000Y-131000000D02*
X214400000Y-138000000D01*
G04 #@! TO.N,SPI_MOSI_PINX*
X195440000Y-129400000D02*
X193760000Y-131080000D01*
X222500000Y-129400000D02*
X195440000Y-129400000D01*
X223100000Y-128900000D02*
X222500000Y-129400000D01*
X223100000Y-126500000D02*
X223100000Y-128900000D01*
X221474900Y-125300000D02*
X221474900Y-125374900D01*
X221474900Y-125374900D02*
X223100000Y-126500000D01*
G04 #@! TO.N,12V_Out*
X208000000Y-118500000D02*
X208000000Y-120900000D01*
G04 #@! TO.N,3V3_Out*
X218600000Y-126174901D02*
X218600001Y-126174900D01*
G04 #@! TO.N,5V_Out*
X204496000Y-108416000D02*
X204496000Y-108304000D01*
X204496000Y-108304000D02*
X205500000Y-107300000D01*
G04 #@! TO.N,5V_DIV_OUT*
X204496000Y-110316000D02*
X206782000Y-110316000D01*
G04 #@! TO.N,3V3_Fine_Out*
X215600000Y-125300000D02*
X216725100Y-125300000D01*
G04 #@! TO.N,12V_DIV_Out*
X209900000Y-120900000D02*
X211350000Y-120900000D01*
G04 #@! TO.N,Net-(Q5-Pad1)*
X207747500Y-92952500D02*
X208200180Y-92952500D01*
X206000000Y-94700000D02*
X207747500Y-92952500D01*
X206000000Y-95000000D02*
X206000000Y-94700000D01*
G04 #@! TO.N,Net-(Q8-Pad1)*
X207295000Y-99605000D02*
X206400000Y-100500000D01*
X207800000Y-99605000D02*
X207295000Y-99605000D01*
G04 #@! TO.N,3V3_Out*
X218600001Y-126907500D02*
X218600001Y-126174900D01*
X209000000Y-127000000D02*
X218407501Y-127100000D01*
X204978000Y-94043269D02*
X205000000Y-94065269D01*
X204978000Y-90932000D02*
X204978000Y-94043269D01*
X205000000Y-94065269D02*
X205000000Y-96100000D01*
X218407501Y-127100000D02*
X218600001Y-126907500D01*
X205000000Y-96100000D02*
X200000000Y-100000000D01*
X200000000Y-100000000D02*
X200100000Y-118100000D01*
X200100000Y-118100000D02*
X209000000Y-127000000D01*
G04 #@! TO.N,5V_DIV_OUT*
X209300000Y-124800000D02*
X216725100Y-124800001D01*
X203100000Y-118600000D02*
X209300000Y-124800000D01*
X202474999Y-118038589D02*
X203100000Y-118600000D01*
X202474999Y-112937001D02*
X202474999Y-118038589D01*
X204496000Y-110316000D02*
X204496000Y-110916000D01*
X204496000Y-110916000D02*
X202474999Y-112937001D01*
G04 #@! TO.N,12V_DIV_Out*
X214449999Y-124299999D02*
X216725100Y-124299999D01*
X211350000Y-121200000D02*
X214449999Y-124299999D01*
X211350000Y-120900000D02*
X211350000Y-121200000D01*
G04 #@! TO.N,3V3_COURSE_EN*
X204100000Y-95900000D02*
X204100000Y-95000000D01*
X199000000Y-99800000D02*
X204100000Y-95900000D01*
X202200000Y-126100000D02*
X199000000Y-124300000D01*
X199000000Y-124300000D02*
X199000000Y-99800000D01*
G04 #@! TO.N,3V3_FINE_EN*
X204500000Y-100500000D02*
X203900000Y-100500000D01*
X203900000Y-100500000D02*
X203100000Y-101300000D01*
G04 #@! TO.N,Net-(U2-Pad10)*
X214586410Y-123800000D02*
X215700000Y-123800000D01*
X212800000Y-122000000D02*
X212800000Y-122013590D01*
X215700000Y-123800000D02*
X216725100Y-123800000D01*
X220800000Y-110800000D02*
X220800000Y-111185002D01*
X220800000Y-111185002D02*
X212400000Y-120000000D01*
X212400000Y-120000000D02*
X212400000Y-121600000D01*
X212800000Y-122013590D02*
X214586410Y-123800000D01*
X212400000Y-121600000D02*
X212800000Y-122000000D01*
G04 #@! TO.N,Net-(U3-Pad10)*
X215992500Y-123300001D02*
X216725100Y-123300001D01*
X215834316Y-123300001D02*
X215992500Y-123300001D01*
X215200000Y-122665685D02*
X215834316Y-123300001D01*
X215200000Y-122100000D02*
X215200000Y-122665685D01*
G04 #@! TO.N,CNVST_PINX*
X219599999Y-120099999D02*
X219599999Y-121425100D01*
X219500000Y-120000000D02*
X219599999Y-120099999D01*
G04 #@! TO.N,SPI_ADC_CS_PINX*
X197480000Y-129900000D02*
X196300000Y-131080000D01*
X223000000Y-129900000D02*
X197480000Y-129900000D01*
X223700000Y-129100000D02*
X223000000Y-129900000D01*
X223700000Y-125900000D02*
X223700000Y-129100000D01*
X221474900Y-124800001D02*
X222300000Y-124800000D01*
X222300000Y-124800000D02*
X223700000Y-125900000D01*
G04 #@! TO.N,SPI_MISO_PINX*
X219599999Y-126174900D02*
X219599999Y-128800001D01*
X219599999Y-128800001D02*
X219500000Y-128900000D01*
X193400000Y-128900000D02*
X191220000Y-131080000D01*
X219500000Y-128900000D02*
X193400000Y-128900000D01*
G04 #@! TO.N,EOC_PINX*
X219100000Y-126174900D02*
X219100000Y-126907500D01*
X219100000Y-126907500D02*
X219100000Y-127274999D01*
X219100000Y-127274999D02*
X219100000Y-127500000D01*
X219100000Y-127500000D02*
X218600000Y-128000000D01*
X218600000Y-128000000D02*
X217200000Y-128000000D01*
G04 #@! TO.N,Net-(Q2-Pad1)*
X209999640Y-98652500D02*
X209999640Y-97699640D01*
X209999640Y-97699640D02*
X208600000Y-96300000D01*
X209999640Y-101599640D02*
X210000000Y-101600000D01*
X209999640Y-98652500D02*
X209999640Y-101599640D01*
G04 #@! TO.N,Net-(Q3-Pad1)*
X210399820Y-91349950D02*
X210200000Y-91150130D01*
X210399820Y-92000000D02*
X210399820Y-91349950D01*
X210200000Y-91150130D02*
X210200000Y-90600000D01*
X211150200Y-92000000D02*
X213600000Y-92000000D01*
X210399820Y-92000000D02*
X211150200Y-92000000D01*
G04 #@! TO.N,Net-(Q4-Pad1)*
X211499820Y-107800000D02*
X211499820Y-106600180D01*
X211499820Y-106600180D02*
X211500000Y-106600000D01*
X211500000Y-107800180D02*
X211499820Y-107800000D01*
X211500000Y-110000000D02*
X211500000Y-107800180D01*
G04 #@! TO.N,+3V3*
X236000000Y-146500000D02*
X238600000Y-143900000D01*
X238600000Y-143900000D02*
X238600000Y-132400000D01*
X238600000Y-122225000D02*
X238600000Y-101200000D01*
X223100000Y-115900000D02*
X223100000Y-106000000D01*
X223700000Y-116500000D02*
X223100000Y-115900000D01*
G04 #@! TO.N,+12V*
X229200000Y-108100000D02*
X228816000Y-115148000D01*
X213600000Y-101700000D02*
X220173002Y-101700000D01*
X220173002Y-101700000D02*
X229200000Y-108100000D01*
G04 #@! TO.N,Net-(U1-Pad10)*
X209700000Y-92800000D02*
X205038112Y-97600000D01*
X205038112Y-97600000D02*
X203808608Y-97600000D01*
X200800000Y-117600000D02*
X200800000Y-117700000D01*
X203808608Y-97600000D02*
X202405848Y-98694152D01*
X209245066Y-126145066D02*
X209310983Y-126174900D01*
X202405848Y-98694152D02*
X200700000Y-100400000D01*
X200700000Y-100400000D02*
X200800000Y-117600000D01*
X200800000Y-117700000D02*
X209245066Y-126145066D01*
X209310983Y-126174900D02*
X217197600Y-126174900D01*
X217197600Y-126174900D02*
X217600000Y-126174900D01*
X217674989Y-92774989D02*
X217700000Y-92800000D01*
X210415599Y-92774989D02*
X217674989Y-92774989D01*
X209700000Y-92800000D02*
X210390588Y-92800000D01*
X210390588Y-92800000D02*
X210415599Y-92774989D01*
G04 #@! TO.N,3V3_Fine_Out*
X209050009Y-125250009D02*
X201400000Y-117600000D01*
X215600000Y-125300000D02*
X215600000Y-125250011D01*
X215600000Y-125250011D02*
X209050009Y-125250009D01*
X201400000Y-117600000D02*
X201400000Y-101275370D01*
X201400000Y-101275370D02*
X203300000Y-99375370D01*
G04 #@! TD*
D27*
G04 #@! TO.N,GND*
G36*
X247729722Y-124863929D02*
X247267767Y-124401974D01*
X246574950Y-124115000D01*
X245825050Y-124115000D01*
X245132233Y-124401974D01*
X244601974Y-124932233D01*
X244474493Y-125240000D01*
X244095846Y-125240000D01*
X244020998Y-125225112D01*
X243946150Y-125240000D01*
X243946146Y-125240000D01*
X243724461Y-125284096D01*
X243473069Y-125452071D01*
X243430669Y-125515527D01*
X242942834Y-126003362D01*
X242682801Y-125375588D01*
X242124412Y-124817199D01*
X241394841Y-124515000D01*
X240605159Y-124515000D01*
X239875588Y-124817199D01*
X239317199Y-125375588D01*
X239015000Y-126105159D01*
X239015000Y-126894841D01*
X239317199Y-127624412D01*
X239875588Y-128182801D01*
X240503362Y-128442834D01*
X238206197Y-130740000D01*
X237833746Y-130740000D01*
X237682801Y-130375588D01*
X237124412Y-129817199D01*
X236394841Y-129515000D01*
X235605159Y-129515000D01*
X234875588Y-129817199D01*
X234317199Y-130375588D01*
X234015000Y-131105159D01*
X234015000Y-131894841D01*
X234317199Y-132624412D01*
X234875588Y-133182801D01*
X235605159Y-133485000D01*
X236394841Y-133485000D01*
X237124412Y-133182801D01*
X237604933Y-132702280D01*
X237722569Y-132986280D01*
X237840001Y-133103712D01*
X237840001Y-135755101D01*
X237682801Y-135375588D01*
X237124412Y-134817199D01*
X236394841Y-134515000D01*
X235605159Y-134515000D01*
X234875588Y-134817199D01*
X234317199Y-135375588D01*
X234015000Y-136105159D01*
X234015000Y-136894841D01*
X234317199Y-137624412D01*
X234875588Y-138182801D01*
X235605159Y-138485000D01*
X236394841Y-138485000D01*
X237124412Y-138182801D01*
X237682801Y-137624412D01*
X237840001Y-137244900D01*
X237840000Y-140755100D01*
X237682801Y-140375588D01*
X237124412Y-139817199D01*
X236394841Y-139515000D01*
X235605159Y-139515000D01*
X234875588Y-139817199D01*
X234317199Y-140375588D01*
X234015000Y-141105159D01*
X234015000Y-141894841D01*
X234317199Y-142624412D01*
X234875588Y-143182801D01*
X235605159Y-143485000D01*
X236394841Y-143485000D01*
X237124412Y-143182801D01*
X237682801Y-142624412D01*
X237840000Y-142244901D01*
X237840000Y-143585198D01*
X236759254Y-144665945D01*
X236394841Y-144515000D01*
X235605159Y-144515000D01*
X234875588Y-144817199D01*
X234317199Y-145375588D01*
X234015000Y-146105159D01*
X234015000Y-146894841D01*
X234317199Y-147624412D01*
X234875588Y-148182801D01*
X235605159Y-148485000D01*
X236394841Y-148485000D01*
X237124412Y-148182801D01*
X237682801Y-147624412D01*
X237985000Y-146894841D01*
X237985000Y-146105159D01*
X239015000Y-146105159D01*
X239015000Y-146894841D01*
X239317199Y-147624412D01*
X239875588Y-148182801D01*
X240605159Y-148485000D01*
X241394841Y-148485000D01*
X242124412Y-148182801D01*
X242682801Y-147624412D01*
X242985000Y-146894841D01*
X242985000Y-146105159D01*
X242682801Y-145375588D01*
X242124412Y-144817199D01*
X241394841Y-144515000D01*
X240605159Y-144515000D01*
X239875588Y-144817199D01*
X239317199Y-145375588D01*
X239015000Y-146105159D01*
X237985000Y-146105159D01*
X237834055Y-145740746D01*
X239084473Y-144490329D01*
X239147929Y-144447929D01*
X239315904Y-144196537D01*
X239360000Y-143974852D01*
X239360000Y-143974848D01*
X239374888Y-143900001D01*
X239360000Y-143825154D01*
X239360000Y-142667213D01*
X239875588Y-143182801D01*
X240605159Y-143485000D01*
X241394841Y-143485000D01*
X242124412Y-143182801D01*
X242682801Y-142624412D01*
X242985000Y-141894841D01*
X242985000Y-141105159D01*
X242682801Y-140375588D01*
X242124412Y-139817199D01*
X241394841Y-139515000D01*
X240605159Y-139515000D01*
X239875588Y-139817199D01*
X239360000Y-140332787D01*
X239360000Y-137667213D01*
X239875588Y-138182801D01*
X240605159Y-138485000D01*
X241394841Y-138485000D01*
X242124412Y-138182801D01*
X242682801Y-137624412D01*
X242985000Y-136894841D01*
X242985000Y-136105159D01*
X242682801Y-135375588D01*
X242124412Y-134817199D01*
X241394841Y-134515000D01*
X240605159Y-134515000D01*
X239875588Y-134817199D01*
X239360000Y-135332787D01*
X239360000Y-133103711D01*
X239477431Y-132986280D01*
X239536489Y-132843702D01*
X239875588Y-133182801D01*
X240605159Y-133485000D01*
X241394841Y-133485000D01*
X242124412Y-133182801D01*
X242682801Y-132624412D01*
X242985000Y-131894841D01*
X242985000Y-131105159D01*
X242682801Y-130375588D01*
X242124412Y-129817199D01*
X241526333Y-129569466D01*
X244335800Y-126760000D01*
X244474493Y-126760000D01*
X244601974Y-127067767D01*
X245132233Y-127598026D01*
X245825050Y-127885000D01*
X246574950Y-127885000D01*
X247267767Y-127598026D01*
X247726290Y-127139503D01*
X247690920Y-150590000D01*
X224437103Y-150590000D01*
X224835051Y-150192052D01*
X225074800Y-149613247D01*
X225074800Y-148986753D01*
X224835051Y-148407948D01*
X224392052Y-147964949D01*
X223813247Y-147725200D01*
X223186753Y-147725200D01*
X222607948Y-147964949D01*
X222230000Y-148342897D01*
X221852052Y-147964949D01*
X221273247Y-147725200D01*
X220646753Y-147725200D01*
X220067948Y-147964949D01*
X219624949Y-148407948D01*
X219385200Y-148986753D01*
X219385200Y-149613247D01*
X219624949Y-150192052D01*
X220022897Y-150590000D01*
X216817103Y-150590000D01*
X217215051Y-150192052D01*
X217454800Y-149613247D01*
X217454800Y-148986753D01*
X217215051Y-148407948D01*
X216866414Y-148059311D01*
X217845725Y-147080000D01*
X225555208Y-147080000D01*
X225574148Y-147125725D01*
X225974275Y-147525852D01*
X226497067Y-147742400D01*
X227062933Y-147742400D01*
X227585725Y-147525852D01*
X227985852Y-147125725D01*
X228202400Y-146602933D01*
X228202400Y-146037067D01*
X228183460Y-145991342D01*
X228376874Y-145797928D01*
X228440330Y-145755528D01*
X228608305Y-145504136D01*
X228652401Y-145282451D01*
X228652401Y-145282447D01*
X228667289Y-145207599D01*
X228652401Y-145132751D01*
X228652401Y-126105159D01*
X234015000Y-126105159D01*
X234015000Y-126894841D01*
X234317199Y-127624412D01*
X234875588Y-128182801D01*
X235605159Y-128485000D01*
X236394841Y-128485000D01*
X237124412Y-128182801D01*
X237682801Y-127624412D01*
X237985000Y-126894841D01*
X237985000Y-126105159D01*
X237682801Y-125375588D01*
X237124412Y-124817199D01*
X236394841Y-124515000D01*
X235605159Y-124515000D01*
X234875588Y-124817199D01*
X234317199Y-125375588D01*
X234015000Y-126105159D01*
X228652401Y-126105159D01*
X228652401Y-125467249D01*
X228667289Y-125392401D01*
X228652401Y-125317553D01*
X228652401Y-125317549D01*
X228608305Y-125095864D01*
X228608305Y-125095863D01*
X228482730Y-124907928D01*
X228440330Y-124844472D01*
X228376874Y-124802072D01*
X227735000Y-124160199D01*
X227735000Y-124138199D01*
X228061152Y-124138199D01*
X228135999Y-124153087D01*
X228210846Y-124138199D01*
X228210851Y-124138199D01*
X228432536Y-124094103D01*
X228683928Y-123926128D01*
X228726330Y-123862669D01*
X228892648Y-123696351D01*
X228914200Y-123700638D01*
X230285800Y-123700638D01*
X230533565Y-123651355D01*
X230743609Y-123511007D01*
X230883957Y-123300963D01*
X230933240Y-123053198D01*
X230933240Y-122646798D01*
X230883957Y-122399033D01*
X230750965Y-122199998D01*
X230883957Y-122000963D01*
X230933240Y-121753198D01*
X230933240Y-121660000D01*
X231625993Y-121660000D01*
X231700840Y-121674888D01*
X231775687Y-121660000D01*
X231775692Y-121660000D01*
X231840746Y-121647060D01*
X232599440Y-121647060D01*
X232847205Y-121597777D01*
X233057249Y-121457429D01*
X233197597Y-121247385D01*
X233246880Y-120999620D01*
X233246880Y-120202060D01*
X233197597Y-119954295D01*
X233057249Y-119744251D01*
X232847205Y-119603903D01*
X232599440Y-119554620D01*
X231400560Y-119554620D01*
X231152795Y-119603903D01*
X230942751Y-119744251D01*
X230802403Y-119954295D01*
X230765464Y-120140000D01*
X230595460Y-120140000D01*
X230533565Y-120098643D01*
X230285800Y-120049360D01*
X230160000Y-120049360D01*
X230160000Y-117774851D01*
X230174889Y-117700000D01*
X230128145Y-117465000D01*
X230115904Y-117403463D01*
X229947929Y-117152071D01*
X229696537Y-116984096D01*
X229400000Y-116925111D01*
X229325148Y-116940000D01*
X225214802Y-116940000D01*
X224735000Y-116460199D01*
X224735000Y-116294126D01*
X224577431Y-115913720D01*
X224286280Y-115622569D01*
X223905874Y-115465000D01*
X223860000Y-115465000D01*
X223860000Y-106703711D01*
X223977431Y-106586280D01*
X224135000Y-106205874D01*
X224135000Y-105794126D01*
X223977431Y-105413720D01*
X223686280Y-105122569D01*
X223305874Y-104965000D01*
X222894126Y-104965000D01*
X222513720Y-105122569D01*
X222222569Y-105413720D01*
X222065000Y-105794126D01*
X222065000Y-106205874D01*
X222222569Y-106586280D01*
X222340001Y-106703712D01*
X222340000Y-115825153D01*
X222325112Y-115900000D01*
X222340000Y-115974847D01*
X222340000Y-115974851D01*
X222384096Y-116196536D01*
X222552071Y-116447929D01*
X222615530Y-116490331D01*
X222665000Y-116539801D01*
X222665000Y-116705874D01*
X222822569Y-117086280D01*
X223113720Y-117377431D01*
X223494126Y-117535000D01*
X223660199Y-117535000D01*
X224309670Y-118184472D01*
X224352071Y-118247929D01*
X224603463Y-118415904D01*
X224825148Y-118460000D01*
X224825152Y-118460000D01*
X224855460Y-118466029D01*
X224855460Y-119399440D01*
X224904743Y-119647205D01*
X225045091Y-119857249D01*
X225192145Y-119955508D01*
X225254855Y-120049360D01*
X224545400Y-120049360D01*
X224297635Y-120098643D01*
X224087591Y-120238991D01*
X223947243Y-120449035D01*
X223897960Y-120696800D01*
X223897960Y-121103200D01*
X223922187Y-121224999D01*
X223897960Y-121346798D01*
X223897960Y-121540000D01*
X222157791Y-121540000D01*
X221957500Y-121500160D01*
X220992300Y-121500160D01*
X220744535Y-121549443D01*
X220534491Y-121689791D01*
X220399839Y-121891310D01*
X220399839Y-120942500D01*
X220359999Y-120742209D01*
X220359999Y-120603712D01*
X220377431Y-120586280D01*
X220535000Y-120205874D01*
X220535000Y-119794126D01*
X220377431Y-119413720D01*
X220086280Y-119122569D01*
X219705874Y-118965000D01*
X219294126Y-118965000D01*
X218913720Y-119122569D01*
X218622569Y-119413720D01*
X218465000Y-119794126D01*
X218465000Y-120205874D01*
X218622569Y-120586280D01*
X218829795Y-120793506D01*
X218800159Y-120942500D01*
X218800159Y-121907700D01*
X218849442Y-122155465D01*
X218989790Y-122365509D01*
X219199834Y-122505857D01*
X219447599Y-122555140D01*
X219752399Y-122555140D01*
X220000164Y-122505857D01*
X220210208Y-122365509D01*
X220344860Y-122163990D01*
X220344860Y-122452400D01*
X220364274Y-122549999D01*
X220344860Y-122647599D01*
X220344860Y-122952399D01*
X220364274Y-123050000D01*
X220344860Y-123147601D01*
X220344860Y-123452401D01*
X220364274Y-123550001D01*
X220344860Y-123647600D01*
X220344860Y-123952400D01*
X220364274Y-124049999D01*
X220344860Y-124147599D01*
X220344860Y-124452399D01*
X220364274Y-124550000D01*
X220344860Y-124647601D01*
X220344860Y-124952401D01*
X220364274Y-125050001D01*
X220360999Y-125066461D01*
X220252401Y-125044860D01*
X219947601Y-125044860D01*
X219850000Y-125064274D01*
X219752399Y-125044860D01*
X219447599Y-125044860D01*
X219350000Y-125064274D01*
X219252400Y-125044860D01*
X218947600Y-125044860D01*
X218850001Y-125064274D01*
X218752401Y-125044860D01*
X218447601Y-125044860D01*
X218350000Y-125064274D01*
X218252399Y-125044860D01*
X217947599Y-125044860D01*
X217850000Y-125064274D01*
X217838094Y-125061906D01*
X217835726Y-125050001D01*
X217855140Y-124952401D01*
X217855140Y-124647601D01*
X217835726Y-124550000D01*
X217855140Y-124452399D01*
X217855140Y-124147599D01*
X217835726Y-124049999D01*
X217855140Y-123952400D01*
X217855140Y-123647600D01*
X217835726Y-123550001D01*
X217855140Y-123452401D01*
X217855140Y-123147601D01*
X217805857Y-122899836D01*
X217665509Y-122689792D01*
X217455465Y-122549444D01*
X217207700Y-122500161D01*
X216242500Y-122500161D01*
X216146625Y-122519232D01*
X216235000Y-122305874D01*
X216235000Y-121894126D01*
X216077431Y-121513720D01*
X215786280Y-121222569D01*
X215405874Y-121065000D01*
X214994126Y-121065000D01*
X214613720Y-121222569D01*
X214322569Y-121513720D01*
X214165000Y-121894126D01*
X214165000Y-122303789D01*
X213417697Y-121556486D01*
X213347929Y-121452071D01*
X213284473Y-121409671D01*
X213160000Y-121285198D01*
X213160000Y-120304124D01*
X221292172Y-111770187D01*
X221347929Y-111732931D01*
X221384528Y-111678157D01*
X221386280Y-111677431D01*
X221677431Y-111386280D01*
X221835000Y-111005874D01*
X221835000Y-110594126D01*
X221677431Y-110213720D01*
X221386280Y-109922569D01*
X221005874Y-109765000D01*
X220594126Y-109765000D01*
X220213720Y-109922569D01*
X219922569Y-110213720D01*
X219765000Y-110594126D01*
X219765000Y-111005874D01*
X219812231Y-111119899D01*
X211907830Y-119414814D01*
X211852071Y-119452071D01*
X211804538Y-119523209D01*
X211798167Y-119529895D01*
X211762998Y-119585378D01*
X211745474Y-119611605D01*
X211700000Y-119602560D01*
X211000000Y-119602560D01*
X210752235Y-119651843D01*
X210625000Y-119736859D01*
X210497765Y-119651843D01*
X210250000Y-119602560D01*
X209550000Y-119602560D01*
X209302235Y-119651843D01*
X209092191Y-119792191D01*
X208951843Y-120002235D01*
X208950000Y-120011500D01*
X208948157Y-120002235D01*
X208807809Y-119792191D01*
X208760000Y-119760246D01*
X208760000Y-119203711D01*
X208877431Y-119086280D01*
X209035000Y-118705874D01*
X209035000Y-118294126D01*
X208877431Y-117913720D01*
X208586280Y-117622569D01*
X208205874Y-117465000D01*
X207794126Y-117465000D01*
X207413720Y-117622569D01*
X207122569Y-117913720D01*
X206965000Y-118294126D01*
X206965000Y-118705874D01*
X207122569Y-119086280D01*
X207240000Y-119203711D01*
X207240001Y-119760245D01*
X207192191Y-119792191D01*
X207051843Y-120002235D01*
X207002560Y-120250000D01*
X207002560Y-121427758D01*
X203675838Y-118101037D01*
X203663553Y-118084626D01*
X203623001Y-118048200D01*
X203584472Y-118009671D01*
X203567434Y-117998287D01*
X203234999Y-117699675D01*
X203234999Y-117244295D01*
X203394101Y-117403397D01*
X204436083Y-117835000D01*
X205563917Y-117835000D01*
X206605899Y-117403397D01*
X207403397Y-116605899D01*
X207835000Y-115563917D01*
X207835000Y-114436083D01*
X207403397Y-113394101D01*
X206605899Y-112596603D01*
X205563917Y-112165000D01*
X204436083Y-112165000D01*
X204240992Y-112245809D01*
X204980473Y-111506329D01*
X205043929Y-111463929D01*
X205144483Y-111313440D01*
X205146000Y-111313440D01*
X205393765Y-111264157D01*
X205603809Y-111123809D01*
X205635754Y-111076000D01*
X205642246Y-111076000D01*
X205674191Y-111123809D01*
X205884235Y-111264157D01*
X206132000Y-111313440D01*
X207432000Y-111313440D01*
X207679765Y-111264157D01*
X207889809Y-111123809D01*
X208030157Y-110913765D01*
X208079440Y-110666000D01*
X208079440Y-109966000D01*
X208030157Y-109718235D01*
X207889809Y-109508191D01*
X207679765Y-109367843D01*
X207432000Y-109318560D01*
X206132000Y-109318560D01*
X205884235Y-109367843D01*
X205674191Y-109508191D01*
X205642246Y-109556000D01*
X205635754Y-109556000D01*
X205603809Y-109508191D01*
X205393765Y-109367843D01*
X205384500Y-109366000D01*
X205393765Y-109364157D01*
X205603809Y-109223809D01*
X205744157Y-109013765D01*
X205793440Y-108766000D01*
X205793440Y-108298729D01*
X206086280Y-108177431D01*
X206377431Y-107886280D01*
X206535000Y-107505874D01*
X206535000Y-107432764D01*
X206605899Y-107403397D01*
X207403397Y-106605899D01*
X207835000Y-105563917D01*
X207835000Y-104436083D01*
X207403397Y-103394101D01*
X206605899Y-102596603D01*
X205563917Y-102165000D01*
X204436083Y-102165000D01*
X203394101Y-102596603D01*
X202596603Y-103394101D01*
X202165000Y-104436083D01*
X202165000Y-105563917D01*
X202596603Y-106605899D01*
X203394101Y-107403397D01*
X203579657Y-107480257D01*
X203388191Y-107608191D01*
X203247843Y-107818235D01*
X203198560Y-108066000D01*
X203198560Y-108766000D01*
X203247843Y-109013765D01*
X203388191Y-109223809D01*
X203598235Y-109364157D01*
X203607500Y-109366000D01*
X203598235Y-109367843D01*
X203388191Y-109508191D01*
X203247843Y-109718235D01*
X203198560Y-109966000D01*
X203198560Y-110666000D01*
X203247843Y-110913765D01*
X203318175Y-111019023D01*
X202160000Y-112177199D01*
X202160000Y-101735225D01*
X202222569Y-101886280D01*
X202513720Y-102177431D01*
X202894126Y-102335000D01*
X203305874Y-102335000D01*
X203686280Y-102177431D01*
X203977431Y-101886280D01*
X204024564Y-101772490D01*
X204150000Y-101797440D01*
X204850000Y-101797440D01*
X205097765Y-101748157D01*
X205307809Y-101607809D01*
X205448157Y-101397765D01*
X205450000Y-101388500D01*
X205451843Y-101397765D01*
X205592191Y-101607809D01*
X205802235Y-101748157D01*
X206050000Y-101797440D01*
X206750000Y-101797440D01*
X206997765Y-101748157D01*
X207207809Y-101607809D01*
X207348157Y-101397765D01*
X207397440Y-101150000D01*
X207397440Y-100652490D01*
X208300380Y-100652490D01*
X208548145Y-100603207D01*
X208758189Y-100462859D01*
X208898537Y-100252815D01*
X208947820Y-100005050D01*
X208947820Y-99370231D01*
X209041451Y-99510359D01*
X209239640Y-99642786D01*
X209239641Y-100460486D01*
X209192191Y-100492191D01*
X209051843Y-100702235D01*
X209002560Y-100950000D01*
X209002560Y-102250000D01*
X209051843Y-102497765D01*
X209192191Y-102707809D01*
X209402235Y-102848157D01*
X209650000Y-102897440D01*
X210350000Y-102897440D01*
X210597765Y-102848157D01*
X210807809Y-102707809D01*
X210948157Y-102497765D01*
X210950000Y-102488500D01*
X210951843Y-102497765D01*
X211092191Y-102707809D01*
X211302235Y-102848157D01*
X211550000Y-102897440D01*
X212250000Y-102897440D01*
X212497765Y-102848157D01*
X212707809Y-102707809D01*
X212840001Y-102509971D01*
X212840000Y-110385198D01*
X212778133Y-110447066D01*
X212797440Y-110350000D01*
X212797440Y-109650000D01*
X212748157Y-109402235D01*
X212607809Y-109192191D01*
X212397765Y-109051843D01*
X212260000Y-109024440D01*
X212260000Y-108790165D01*
X212458009Y-108657859D01*
X212598357Y-108447815D01*
X212647640Y-108200050D01*
X212647640Y-107399950D01*
X212598357Y-107152185D01*
X212470693Y-106961124D01*
X212535000Y-106805874D01*
X212535000Y-106394126D01*
X212377431Y-106013720D01*
X212086280Y-105722569D01*
X211705874Y-105565000D01*
X211294126Y-105565000D01*
X210913720Y-105722569D01*
X210622569Y-106013720D01*
X210465000Y-106394126D01*
X210465000Y-106805874D01*
X210529169Y-106960792D01*
X210401283Y-107152185D01*
X210352000Y-107399950D01*
X210352000Y-108034769D01*
X210258369Y-107894641D01*
X210048325Y-107754293D01*
X209800560Y-107705010D01*
X208799800Y-107705010D01*
X208552035Y-107754293D01*
X208341991Y-107894641D01*
X208201643Y-108104685D01*
X208152360Y-108352450D01*
X208152360Y-109152550D01*
X208201643Y-109400315D01*
X208341991Y-109610359D01*
X208552035Y-109750707D01*
X208799800Y-109799990D01*
X209800560Y-109799990D01*
X210048325Y-109750707D01*
X210203099Y-109647289D01*
X210202560Y-109650000D01*
X210202560Y-110350000D01*
X210251843Y-110597765D01*
X210392191Y-110807809D01*
X210602235Y-110948157D01*
X210611500Y-110950000D01*
X210602235Y-110951843D01*
X210392191Y-111092191D01*
X210251843Y-111302235D01*
X210202560Y-111550000D01*
X210202560Y-112250000D01*
X210251843Y-112497765D01*
X210392191Y-112707809D01*
X210602235Y-112848157D01*
X210850000Y-112897440D01*
X210851518Y-112897440D01*
X210952071Y-113047929D01*
X211203463Y-113215904D01*
X211500000Y-113274889D01*
X211796536Y-113215904D01*
X212047929Y-113047929D01*
X212148483Y-112897440D01*
X212150000Y-112897440D01*
X212397765Y-112848157D01*
X212607809Y-112707809D01*
X212665031Y-112622171D01*
X212696537Y-112615904D01*
X212947929Y-112447929D01*
X212990331Y-112384470D01*
X214084473Y-111290329D01*
X214147929Y-111247929D01*
X214315904Y-110996537D01*
X214360000Y-110774852D01*
X214360000Y-110774848D01*
X214374888Y-110700001D01*
X214360000Y-110625154D01*
X214360000Y-102460000D01*
X219930924Y-102460000D01*
X228418310Y-108477424D01*
X228095358Y-114404931D01*
X227938569Y-114561720D01*
X227781000Y-114942126D01*
X227781000Y-115353874D01*
X227938569Y-115734280D01*
X228229720Y-116025431D01*
X228610126Y-116183000D01*
X229021874Y-116183000D01*
X229402280Y-116025431D01*
X229693431Y-115734280D01*
X229851000Y-115353874D01*
X229851000Y-114942126D01*
X229693431Y-114561720D01*
X229613428Y-114481717D01*
X229951223Y-108281769D01*
X229955523Y-108272150D01*
X229959425Y-108131225D01*
X229962946Y-108066606D01*
X229961496Y-108056456D01*
X229963892Y-107969919D01*
X229940317Y-107908228D01*
X229930976Y-107842850D01*
X229886867Y-107768359D01*
X229855964Y-107687492D01*
X229810574Y-107639517D01*
X229776926Y-107582692D01*
X229707673Y-107530754D01*
X229700623Y-107523303D01*
X229647817Y-107485864D01*
X229535045Y-107401289D01*
X229524838Y-107398674D01*
X220726990Y-101161139D01*
X220720931Y-101152071D01*
X220650723Y-101105159D01*
X234015000Y-101105159D01*
X234015000Y-101894841D01*
X234317199Y-102624412D01*
X234875588Y-103182801D01*
X235605159Y-103485000D01*
X236394841Y-103485000D01*
X237124412Y-103182801D01*
X237682801Y-102624412D01*
X237840001Y-102244899D01*
X237840001Y-105755101D01*
X237682801Y-105375588D01*
X237124412Y-104817199D01*
X236394841Y-104515000D01*
X235605159Y-104515000D01*
X234875588Y-104817199D01*
X234317199Y-105375588D01*
X234015000Y-106105159D01*
X234015000Y-106894841D01*
X234317199Y-107624412D01*
X234875588Y-108182801D01*
X235605159Y-108485000D01*
X236394841Y-108485000D01*
X237124412Y-108182801D01*
X237682801Y-107624412D01*
X237840001Y-107244899D01*
X237840001Y-110755100D01*
X237682801Y-110375588D01*
X237124412Y-109817199D01*
X236394841Y-109515000D01*
X235605159Y-109515000D01*
X234875588Y-109817199D01*
X234317199Y-110375588D01*
X234015000Y-111105159D01*
X234015000Y-111894841D01*
X234317199Y-112624412D01*
X234875588Y-113182801D01*
X235605159Y-113485000D01*
X236394841Y-113485000D01*
X237124412Y-113182801D01*
X237682801Y-112624412D01*
X237840000Y-112244900D01*
X237840000Y-115755100D01*
X237682801Y-115375588D01*
X237124412Y-114817199D01*
X236394841Y-114515000D01*
X235605159Y-114515000D01*
X234875588Y-114817199D01*
X234317199Y-115375588D01*
X234015000Y-116105159D01*
X234015000Y-116894841D01*
X234317199Y-117624412D01*
X234875588Y-118182801D01*
X235605159Y-118485000D01*
X236394841Y-118485000D01*
X237124412Y-118182801D01*
X237682801Y-117624412D01*
X237840000Y-117244900D01*
X237840000Y-121521289D01*
X237722569Y-121638720D01*
X237565000Y-122019126D01*
X237565000Y-122430874D01*
X237722569Y-122811280D01*
X238013720Y-123102431D01*
X238394126Y-123260000D01*
X238805874Y-123260000D01*
X239186280Y-123102431D01*
X239477431Y-122811280D01*
X239635000Y-122430874D01*
X239635000Y-122019126D01*
X239477431Y-121638720D01*
X239360000Y-121521289D01*
X239360000Y-117667213D01*
X239875588Y-118182801D01*
X240605159Y-118485000D01*
X241394841Y-118485000D01*
X242124412Y-118182801D01*
X242682801Y-117624412D01*
X242985000Y-116894841D01*
X242985000Y-116105159D01*
X242682801Y-115375588D01*
X242124412Y-114817199D01*
X241394841Y-114515000D01*
X240605159Y-114515000D01*
X239875588Y-114817199D01*
X239360000Y-115332787D01*
X239360000Y-112667213D01*
X239875588Y-113182801D01*
X240605159Y-113485000D01*
X241394841Y-113485000D01*
X242124412Y-113182801D01*
X242682801Y-112624412D01*
X242985000Y-111894841D01*
X242985000Y-111105159D01*
X242682801Y-110375588D01*
X242124412Y-109817199D01*
X241394841Y-109515000D01*
X240605159Y-109515000D01*
X239875588Y-109817199D01*
X239360000Y-110332787D01*
X239360000Y-107667213D01*
X239875588Y-108182801D01*
X240605159Y-108485000D01*
X241394841Y-108485000D01*
X242124412Y-108182801D01*
X242682801Y-107624412D01*
X242797811Y-107346753D01*
X244425200Y-107346753D01*
X244425200Y-107973247D01*
X244664949Y-108552052D01*
X245042897Y-108930000D01*
X244664949Y-109307948D01*
X244425200Y-109886753D01*
X244425200Y-110513247D01*
X244664949Y-111092052D01*
X245107948Y-111535051D01*
X245686753Y-111774800D01*
X246313247Y-111774800D01*
X246892052Y-111535051D01*
X247335051Y-111092052D01*
X247574800Y-110513247D01*
X247574800Y-109886753D01*
X247335051Y-109307948D01*
X246957103Y-108930000D01*
X247335051Y-108552052D01*
X247574800Y-107973247D01*
X247574800Y-107346753D01*
X247335051Y-106767948D01*
X246892052Y-106324949D01*
X246313247Y-106085200D01*
X245686753Y-106085200D01*
X245107948Y-106324949D01*
X244664949Y-106767948D01*
X244425200Y-107346753D01*
X242797811Y-107346753D01*
X242985000Y-106894841D01*
X242985000Y-106105159D01*
X242682801Y-105375588D01*
X242124412Y-104817199D01*
X241394841Y-104515000D01*
X240605159Y-104515000D01*
X239875588Y-104817199D01*
X239360000Y-105332787D01*
X239360000Y-101903711D01*
X239477431Y-101786280D01*
X239635000Y-101405874D01*
X239635000Y-100994126D01*
X239477431Y-100613720D01*
X239186280Y-100322569D01*
X238805874Y-100165000D01*
X238394126Y-100165000D01*
X238013720Y-100322569D01*
X237764196Y-100572093D01*
X237682801Y-100375588D01*
X237124412Y-99817199D01*
X236394841Y-99515000D01*
X235605159Y-99515000D01*
X234875588Y-99817199D01*
X234317199Y-100375588D01*
X234015000Y-101105159D01*
X220650723Y-101105159D01*
X220603979Y-101073926D01*
X220551501Y-101036720D01*
X220541818Y-101032392D01*
X220469539Y-100984096D01*
X220405115Y-100971281D01*
X220345152Y-100944476D01*
X220258262Y-100942070D01*
X220247854Y-100940000D01*
X220183491Y-100940000D01*
X220042923Y-100936108D01*
X220032738Y-100940000D01*
X214360000Y-100940000D01*
X214360000Y-100574847D01*
X214374888Y-100500000D01*
X214360000Y-100425153D01*
X214360000Y-96105159D01*
X234015000Y-96105159D01*
X234015000Y-96894841D01*
X234317199Y-97624412D01*
X234875588Y-98182801D01*
X235605159Y-98485000D01*
X236394841Y-98485000D01*
X237124412Y-98182801D01*
X237682801Y-97624412D01*
X237985000Y-96894841D01*
X237985000Y-96105159D01*
X239015000Y-96105159D01*
X239015000Y-96894841D01*
X239317199Y-97624412D01*
X239875588Y-98182801D01*
X240605159Y-98485000D01*
X241394841Y-98485000D01*
X242124412Y-98182801D01*
X242682801Y-97624412D01*
X242985000Y-96894841D01*
X242985000Y-96105159D01*
X242682801Y-95375588D01*
X242124412Y-94817199D01*
X241394841Y-94515000D01*
X240605159Y-94515000D01*
X239875588Y-94817199D01*
X239317199Y-95375588D01*
X239015000Y-96105159D01*
X237985000Y-96105159D01*
X237682801Y-95375588D01*
X237124412Y-94817199D01*
X236394841Y-94515000D01*
X235605159Y-94515000D01*
X234875588Y-94817199D01*
X234317199Y-95375588D01*
X234015000Y-96105159D01*
X214360000Y-96105159D01*
X214360000Y-94875560D01*
X214497765Y-94848157D01*
X214707809Y-94707809D01*
X214848157Y-94497765D01*
X214897440Y-94250000D01*
X214897440Y-93550000D01*
X214894454Y-93534989D01*
X216971278Y-93534989D01*
X217113720Y-93677431D01*
X217494126Y-93835000D01*
X217905874Y-93835000D01*
X218286280Y-93677431D01*
X218577431Y-93386280D01*
X218735000Y-93005874D01*
X218735000Y-92594126D01*
X218577431Y-92213720D01*
X218286280Y-91922569D01*
X217905874Y-91765000D01*
X217494126Y-91765000D01*
X217113720Y-91922569D01*
X217021300Y-92014989D01*
X214897440Y-92014989D01*
X214897440Y-91650000D01*
X214848157Y-91402235D01*
X214707809Y-91192191D01*
X214497765Y-91051843D01*
X214250000Y-91002560D01*
X212950000Y-91002560D01*
X212702235Y-91051843D01*
X212492191Y-91192191D01*
X212460246Y-91240000D01*
X211423397Y-91240000D01*
X211358009Y-91142141D01*
X211152573Y-91004872D01*
X211235000Y-90805874D01*
X211235000Y-90394126D01*
X211121764Y-90120748D01*
X219540221Y-90120748D01*
X219540221Y-90532496D01*
X219697790Y-90912902D01*
X219988941Y-91204053D01*
X220369347Y-91361622D01*
X220781095Y-91361622D01*
X221161501Y-91204053D01*
X221452652Y-90912902D01*
X221588474Y-90584999D01*
X234230458Y-90584999D01*
X234015000Y-91105159D01*
X234015000Y-91894841D01*
X234317199Y-92624412D01*
X234875588Y-93182801D01*
X235605159Y-93485000D01*
X236394841Y-93485000D01*
X237124412Y-93182801D01*
X237682801Y-92624412D01*
X237985000Y-91894841D01*
X237985000Y-91105159D01*
X237769542Y-90584999D01*
X239010198Y-90584999D01*
X239165945Y-90740746D01*
X239015000Y-91105159D01*
X239015000Y-91894841D01*
X239317199Y-92624412D01*
X239875588Y-93182801D01*
X240605159Y-93485000D01*
X241394841Y-93485000D01*
X242124412Y-93182801D01*
X242682801Y-92624412D01*
X242985000Y-91894841D01*
X242985000Y-91105159D01*
X242682801Y-90375588D01*
X242124412Y-89817199D01*
X241394841Y-89515000D01*
X240605159Y-89515000D01*
X240240746Y-89665945D01*
X239915330Y-89340529D01*
X239872928Y-89277070D01*
X239621536Y-89109095D01*
X239399851Y-89064999D01*
X239399846Y-89064999D01*
X239324999Y-89050111D01*
X239250152Y-89064999D01*
X221151690Y-89064999D01*
X221076843Y-89050111D01*
X221001996Y-89064999D01*
X221001992Y-89064999D01*
X220780307Y-89109095D01*
X220528915Y-89277070D01*
X220519192Y-89291622D01*
X220369347Y-89291622D01*
X219988941Y-89449191D01*
X219697790Y-89740342D01*
X219540221Y-90120748D01*
X211121764Y-90120748D01*
X211077431Y-90013720D01*
X210786280Y-89722569D01*
X210405874Y-89565000D01*
X209994126Y-89565000D01*
X209613720Y-89722569D01*
X209322569Y-90013720D01*
X209165000Y-90394126D01*
X209165000Y-90805874D01*
X209322569Y-91186280D01*
X209376262Y-91239973D01*
X209301283Y-91352185D01*
X209252000Y-91599950D01*
X209252000Y-92185300D01*
X209229149Y-92200569D01*
X209158369Y-92094641D01*
X208948325Y-91954293D01*
X208700560Y-91905010D01*
X207699800Y-91905010D01*
X207638497Y-91917204D01*
X207813000Y-91495917D01*
X207813000Y-90368083D01*
X207381397Y-89326101D01*
X206583899Y-88528603D01*
X205541917Y-88097000D01*
X204414083Y-88097000D01*
X203372101Y-88528603D01*
X202574603Y-89326101D01*
X202143000Y-90368083D01*
X202143000Y-91495917D01*
X202574603Y-92537899D01*
X203372101Y-93335397D01*
X204218001Y-93685780D01*
X204218001Y-93702560D01*
X203750000Y-93702560D01*
X203502235Y-93751843D01*
X203292191Y-93892191D01*
X203151843Y-94102235D01*
X203102560Y-94350000D01*
X203102560Y-95650000D01*
X203112228Y-95698607D01*
X198557592Y-99181565D01*
X198452072Y-99252071D01*
X198396111Y-99335822D01*
X198329568Y-99411448D01*
X198312850Y-99460431D01*
X198284097Y-99503463D01*
X198264446Y-99602255D01*
X198231909Y-99697588D01*
X198240001Y-99824254D01*
X198240000Y-124178897D01*
X198230655Y-124207475D01*
X198240000Y-124329134D01*
X198240000Y-124374851D01*
X198245721Y-124403612D01*
X198253811Y-124508933D01*
X198274969Y-124550652D01*
X198284096Y-124596536D01*
X198342787Y-124684373D01*
X198390566Y-124778583D01*
X198426080Y-124809031D01*
X198452071Y-124847929D01*
X198539908Y-124906620D01*
X198562163Y-124925700D01*
X198601998Y-124948107D01*
X198703463Y-125015904D01*
X198732954Y-125021770D01*
X201210321Y-126415290D01*
X201322569Y-126686280D01*
X201613720Y-126977431D01*
X201994126Y-127135000D01*
X202405874Y-127135000D01*
X202786280Y-126977431D01*
X203077431Y-126686280D01*
X203235000Y-126305874D01*
X203235000Y-125894126D01*
X203077431Y-125513720D01*
X202786280Y-125222569D01*
X202405874Y-125065000D01*
X201994126Y-125065000D01*
X201945789Y-125085022D01*
X199760000Y-123855516D01*
X199760000Y-118834801D01*
X208406788Y-127481590D01*
X208446278Y-127542073D01*
X208512641Y-127587443D01*
X208515527Y-127590329D01*
X208574492Y-127629728D01*
X208695871Y-127712711D01*
X208699972Y-127713572D01*
X208703462Y-127715904D01*
X208847796Y-127744613D01*
X208917075Y-127759161D01*
X208921151Y-127759204D01*
X209000000Y-127774888D01*
X209070848Y-127760796D01*
X216165000Y-127836205D01*
X216165000Y-128140000D01*
X193474848Y-128140000D01*
X193400000Y-128125112D01*
X193325152Y-128140000D01*
X193325148Y-128140000D01*
X193103463Y-128184096D01*
X192852071Y-128352071D01*
X192809671Y-128415527D01*
X191548658Y-129676540D01*
X191502933Y-129657600D01*
X190937067Y-129657600D01*
X190414275Y-129874148D01*
X190014148Y-130274275D01*
X189797600Y-130797067D01*
X189797600Y-131362933D01*
X190014148Y-131885725D01*
X190414275Y-132285852D01*
X190937067Y-132502400D01*
X191502933Y-132502400D01*
X192025725Y-132285852D01*
X192425852Y-131885725D01*
X192490000Y-131730858D01*
X192554148Y-131885725D01*
X192954275Y-132285852D01*
X193477067Y-132502400D01*
X194042933Y-132502400D01*
X194565725Y-132285852D01*
X194965852Y-131885725D01*
X195030000Y-131730858D01*
X195094148Y-131885725D01*
X195494275Y-132285852D01*
X196017067Y-132502400D01*
X196582933Y-132502400D01*
X197105725Y-132285852D01*
X197505852Y-131885725D01*
X197570000Y-131730858D01*
X197634148Y-131885725D01*
X198034275Y-132285852D01*
X198557067Y-132502400D01*
X199122933Y-132502400D01*
X199645725Y-132285852D01*
X200045852Y-131885725D01*
X200110000Y-131730858D01*
X200174148Y-131885725D01*
X200574275Y-132285852D01*
X201097067Y-132502400D01*
X201662933Y-132502400D01*
X202185725Y-132285852D01*
X202585852Y-131885725D01*
X202650000Y-131730858D01*
X202714148Y-131885725D01*
X203114275Y-132285852D01*
X203637067Y-132502400D01*
X204202933Y-132502400D01*
X204725725Y-132285852D01*
X205125852Y-131885725D01*
X205190000Y-131730858D01*
X205254148Y-131885725D01*
X205654275Y-132285852D01*
X206177067Y-132502400D01*
X206742933Y-132502400D01*
X207265725Y-132285852D01*
X207665852Y-131885725D01*
X207730000Y-131730858D01*
X207794148Y-131885725D01*
X208194275Y-132285852D01*
X208717067Y-132502400D01*
X209282933Y-132502400D01*
X209805725Y-132285852D01*
X210205852Y-131885725D01*
X210270000Y-131730858D01*
X210334148Y-131885725D01*
X210734275Y-132285852D01*
X211257067Y-132502400D01*
X211822933Y-132502400D01*
X212345725Y-132285852D01*
X212745852Y-131885725D01*
X212810000Y-131730858D01*
X212874148Y-131885725D01*
X213274275Y-132285852D01*
X213797067Y-132502400D01*
X214362933Y-132502400D01*
X214885725Y-132285852D01*
X215285852Y-131885725D01*
X215350000Y-131730858D01*
X215414148Y-131885725D01*
X215814275Y-132285852D01*
X216337067Y-132502400D01*
X216902933Y-132502400D01*
X217425725Y-132285852D01*
X217825852Y-131885725D01*
X218042400Y-131362933D01*
X218042400Y-130797067D01*
X217985625Y-130660000D01*
X220665198Y-130660000D01*
X214085199Y-137240000D01*
X199614848Y-137240000D01*
X199540000Y-137225112D01*
X199465152Y-137240000D01*
X199465148Y-137240000D01*
X199291605Y-137274520D01*
X199243462Y-137284096D01*
X199056418Y-137409076D01*
X198992071Y-137452071D01*
X198949671Y-137515527D01*
X191548659Y-144916540D01*
X191502933Y-144897600D01*
X190937067Y-144897600D01*
X190414275Y-145114148D01*
X190014148Y-145514275D01*
X189797600Y-146037067D01*
X189797600Y-146602933D01*
X190014148Y-147125725D01*
X190414275Y-147525852D01*
X190937067Y-147742400D01*
X191502933Y-147742400D01*
X192025725Y-147525852D01*
X192425852Y-147125725D01*
X192642400Y-146602933D01*
X192642400Y-146037067D01*
X197417600Y-146037067D01*
X197417600Y-146602933D01*
X197634148Y-147125725D01*
X198034275Y-147525852D01*
X198557067Y-147742400D01*
X199122933Y-147742400D01*
X199645725Y-147525852D01*
X200045852Y-147125725D01*
X200262400Y-146602933D01*
X200262400Y-146037067D01*
X200045852Y-145514275D01*
X199645725Y-145114148D01*
X199122933Y-144897600D01*
X198557067Y-144897600D01*
X198034275Y-145114148D01*
X197634148Y-145514275D01*
X197417600Y-146037067D01*
X192642400Y-146037067D01*
X192623460Y-145991341D01*
X199854802Y-138760000D01*
X214325153Y-138760000D01*
X214400000Y-138774888D01*
X214474847Y-138760000D01*
X214474852Y-138760000D01*
X214696537Y-138715904D01*
X214947929Y-138547929D01*
X214990331Y-138484470D01*
X221714802Y-131760000D01*
X222525153Y-131760000D01*
X222600000Y-131774888D01*
X222674847Y-131760000D01*
X222674852Y-131760000D01*
X222896537Y-131715904D01*
X222949224Y-131680700D01*
X223034148Y-131885725D01*
X223434275Y-132285852D01*
X223957067Y-132502400D01*
X224522933Y-132502400D01*
X225045725Y-132285852D01*
X225445852Y-131885725D01*
X225510000Y-131730858D01*
X225574148Y-131885725D01*
X225974275Y-132285852D01*
X226497067Y-132502400D01*
X227062933Y-132502400D01*
X227132402Y-132473625D01*
X227132401Y-144892797D01*
X227108658Y-144916540D01*
X227062933Y-144897600D01*
X226497067Y-144897600D01*
X225974275Y-145114148D01*
X225574148Y-145514275D01*
X225555208Y-145560000D01*
X217605771Y-145560000D01*
X217530923Y-145545112D01*
X217456075Y-145560000D01*
X217456071Y-145560000D01*
X217282528Y-145594520D01*
X217234385Y-145604096D01*
X217102721Y-145692072D01*
X216982994Y-145772071D01*
X216940594Y-145835527D01*
X215395528Y-147380594D01*
X215332072Y-147422994D01*
X215289672Y-147486450D01*
X215289671Y-147486451D01*
X215164097Y-147674386D01*
X215116927Y-147911524D01*
X214987948Y-147964949D01*
X214544949Y-148407948D01*
X214305200Y-148986753D01*
X214305200Y-149613247D01*
X214544949Y-150192052D01*
X214942897Y-150590000D01*
X185310000Y-150590000D01*
X185310000Y-85610000D01*
X247788929Y-85610000D01*
X247729722Y-124863929D01*
X247729722Y-124863929D01*
G37*
X247729722Y-124863929D02*
X247267767Y-124401974D01*
X246574950Y-124115000D01*
X245825050Y-124115000D01*
X245132233Y-124401974D01*
X244601974Y-124932233D01*
X244474493Y-125240000D01*
X244095846Y-125240000D01*
X244020998Y-125225112D01*
X243946150Y-125240000D01*
X243946146Y-125240000D01*
X243724461Y-125284096D01*
X243473069Y-125452071D01*
X243430669Y-125515527D01*
X242942834Y-126003362D01*
X242682801Y-125375588D01*
X242124412Y-124817199D01*
X241394841Y-124515000D01*
X240605159Y-124515000D01*
X239875588Y-124817199D01*
X239317199Y-125375588D01*
X239015000Y-126105159D01*
X239015000Y-126894841D01*
X239317199Y-127624412D01*
X239875588Y-128182801D01*
X240503362Y-128442834D01*
X238206197Y-130740000D01*
X237833746Y-130740000D01*
X237682801Y-130375588D01*
X237124412Y-129817199D01*
X236394841Y-129515000D01*
X235605159Y-129515000D01*
X234875588Y-129817199D01*
X234317199Y-130375588D01*
X234015000Y-131105159D01*
X234015000Y-131894841D01*
X234317199Y-132624412D01*
X234875588Y-133182801D01*
X235605159Y-133485000D01*
X236394841Y-133485000D01*
X237124412Y-133182801D01*
X237604933Y-132702280D01*
X237722569Y-132986280D01*
X237840001Y-133103712D01*
X237840001Y-135755101D01*
X237682801Y-135375588D01*
X237124412Y-134817199D01*
X236394841Y-134515000D01*
X235605159Y-134515000D01*
X234875588Y-134817199D01*
X234317199Y-135375588D01*
X234015000Y-136105159D01*
X234015000Y-136894841D01*
X234317199Y-137624412D01*
X234875588Y-138182801D01*
X235605159Y-138485000D01*
X236394841Y-138485000D01*
X237124412Y-138182801D01*
X237682801Y-137624412D01*
X237840001Y-137244900D01*
X237840000Y-140755100D01*
X237682801Y-140375588D01*
X237124412Y-139817199D01*
X236394841Y-139515000D01*
X235605159Y-139515000D01*
X234875588Y-139817199D01*
X234317199Y-140375588D01*
X234015000Y-141105159D01*
X234015000Y-141894841D01*
X234317199Y-142624412D01*
X234875588Y-143182801D01*
X235605159Y-143485000D01*
X236394841Y-143485000D01*
X237124412Y-143182801D01*
X237682801Y-142624412D01*
X237840000Y-142244901D01*
X237840000Y-143585198D01*
X236759254Y-144665945D01*
X236394841Y-144515000D01*
X235605159Y-144515000D01*
X234875588Y-144817199D01*
X234317199Y-145375588D01*
X234015000Y-146105159D01*
X234015000Y-146894841D01*
X234317199Y-147624412D01*
X234875588Y-148182801D01*
X235605159Y-148485000D01*
X236394841Y-148485000D01*
X237124412Y-148182801D01*
X237682801Y-147624412D01*
X237985000Y-146894841D01*
X237985000Y-146105159D01*
X239015000Y-146105159D01*
X239015000Y-146894841D01*
X239317199Y-147624412D01*
X239875588Y-148182801D01*
X240605159Y-148485000D01*
X241394841Y-148485000D01*
X242124412Y-148182801D01*
X242682801Y-147624412D01*
X242985000Y-146894841D01*
X242985000Y-146105159D01*
X242682801Y-145375588D01*
X242124412Y-144817199D01*
X241394841Y-144515000D01*
X240605159Y-144515000D01*
X239875588Y-144817199D01*
X239317199Y-145375588D01*
X239015000Y-146105159D01*
X237985000Y-146105159D01*
X237834055Y-145740746D01*
X239084473Y-144490329D01*
X239147929Y-144447929D01*
X239315904Y-144196537D01*
X239360000Y-143974852D01*
X239360000Y-143974848D01*
X239374888Y-143900001D01*
X239360000Y-143825154D01*
X239360000Y-142667213D01*
X239875588Y-143182801D01*
X240605159Y-143485000D01*
X241394841Y-143485000D01*
X242124412Y-143182801D01*
X242682801Y-142624412D01*
X242985000Y-141894841D01*
X242985000Y-141105159D01*
X242682801Y-140375588D01*
X242124412Y-139817199D01*
X241394841Y-139515000D01*
X240605159Y-139515000D01*
X239875588Y-139817199D01*
X239360000Y-140332787D01*
X239360000Y-137667213D01*
X239875588Y-138182801D01*
X240605159Y-138485000D01*
X241394841Y-138485000D01*
X242124412Y-138182801D01*
X242682801Y-137624412D01*
X242985000Y-136894841D01*
X242985000Y-136105159D01*
X242682801Y-135375588D01*
X242124412Y-134817199D01*
X241394841Y-134515000D01*
X240605159Y-134515000D01*
X239875588Y-134817199D01*
X239360000Y-135332787D01*
X239360000Y-133103711D01*
X239477431Y-132986280D01*
X239536489Y-132843702D01*
X239875588Y-133182801D01*
X240605159Y-133485000D01*
X241394841Y-133485000D01*
X242124412Y-133182801D01*
X242682801Y-132624412D01*
X242985000Y-131894841D01*
X242985000Y-131105159D01*
X242682801Y-130375588D01*
X242124412Y-129817199D01*
X241526333Y-129569466D01*
X244335800Y-126760000D01*
X244474493Y-126760000D01*
X244601974Y-127067767D01*
X245132233Y-127598026D01*
X245825050Y-127885000D01*
X246574950Y-127885000D01*
X247267767Y-127598026D01*
X247726290Y-127139503D01*
X247690920Y-150590000D01*
X224437103Y-150590000D01*
X224835051Y-150192052D01*
X225074800Y-149613247D01*
X225074800Y-148986753D01*
X224835051Y-148407948D01*
X224392052Y-147964949D01*
X223813247Y-147725200D01*
X223186753Y-147725200D01*
X222607948Y-147964949D01*
X222230000Y-148342897D01*
X221852052Y-147964949D01*
X221273247Y-147725200D01*
X220646753Y-147725200D01*
X220067948Y-147964949D01*
X219624949Y-148407948D01*
X219385200Y-148986753D01*
X219385200Y-149613247D01*
X219624949Y-150192052D01*
X220022897Y-150590000D01*
X216817103Y-150590000D01*
X217215051Y-150192052D01*
X217454800Y-149613247D01*
X217454800Y-148986753D01*
X217215051Y-148407948D01*
X216866414Y-148059311D01*
X217845725Y-147080000D01*
X225555208Y-147080000D01*
X225574148Y-147125725D01*
X225974275Y-147525852D01*
X226497067Y-147742400D01*
X227062933Y-147742400D01*
X227585725Y-147525852D01*
X227985852Y-147125725D01*
X228202400Y-146602933D01*
X228202400Y-146037067D01*
X228183460Y-145991342D01*
X228376874Y-145797928D01*
X228440330Y-145755528D01*
X228608305Y-145504136D01*
X228652401Y-145282451D01*
X228652401Y-145282447D01*
X228667289Y-145207599D01*
X228652401Y-145132751D01*
X228652401Y-126105159D01*
X234015000Y-126105159D01*
X234015000Y-126894841D01*
X234317199Y-127624412D01*
X234875588Y-128182801D01*
X235605159Y-128485000D01*
X236394841Y-128485000D01*
X237124412Y-128182801D01*
X237682801Y-127624412D01*
X237985000Y-126894841D01*
X237985000Y-126105159D01*
X237682801Y-125375588D01*
X237124412Y-124817199D01*
X236394841Y-124515000D01*
X235605159Y-124515000D01*
X234875588Y-124817199D01*
X234317199Y-125375588D01*
X234015000Y-126105159D01*
X228652401Y-126105159D01*
X228652401Y-125467249D01*
X228667289Y-125392401D01*
X228652401Y-125317553D01*
X228652401Y-125317549D01*
X228608305Y-125095864D01*
X228608305Y-125095863D01*
X228482730Y-124907928D01*
X228440330Y-124844472D01*
X228376874Y-124802072D01*
X227735000Y-124160199D01*
X227735000Y-124138199D01*
X228061152Y-124138199D01*
X228135999Y-124153087D01*
X228210846Y-124138199D01*
X228210851Y-124138199D01*
X228432536Y-124094103D01*
X228683928Y-123926128D01*
X228726330Y-123862669D01*
X228892648Y-123696351D01*
X228914200Y-123700638D01*
X230285800Y-123700638D01*
X230533565Y-123651355D01*
X230743609Y-123511007D01*
X230883957Y-123300963D01*
X230933240Y-123053198D01*
X230933240Y-122646798D01*
X230883957Y-122399033D01*
X230750965Y-122199998D01*
X230883957Y-122000963D01*
X230933240Y-121753198D01*
X230933240Y-121660000D01*
X231625993Y-121660000D01*
X231700840Y-121674888D01*
X231775687Y-121660000D01*
X231775692Y-121660000D01*
X231840746Y-121647060D01*
X232599440Y-121647060D01*
X232847205Y-121597777D01*
X233057249Y-121457429D01*
X233197597Y-121247385D01*
X233246880Y-120999620D01*
X233246880Y-120202060D01*
X233197597Y-119954295D01*
X233057249Y-119744251D01*
X232847205Y-119603903D01*
X232599440Y-119554620D01*
X231400560Y-119554620D01*
X231152795Y-119603903D01*
X230942751Y-119744251D01*
X230802403Y-119954295D01*
X230765464Y-120140000D01*
X230595460Y-120140000D01*
X230533565Y-120098643D01*
X230285800Y-120049360D01*
X230160000Y-120049360D01*
X230160000Y-117774851D01*
X230174889Y-117700000D01*
X230128145Y-117465000D01*
X230115904Y-117403463D01*
X229947929Y-117152071D01*
X229696537Y-116984096D01*
X229400000Y-116925111D01*
X229325148Y-116940000D01*
X225214802Y-116940000D01*
X224735000Y-116460199D01*
X224735000Y-116294126D01*
X224577431Y-115913720D01*
X224286280Y-115622569D01*
X223905874Y-115465000D01*
X223860000Y-115465000D01*
X223860000Y-106703711D01*
X223977431Y-106586280D01*
X224135000Y-106205874D01*
X224135000Y-105794126D01*
X223977431Y-105413720D01*
X223686280Y-105122569D01*
X223305874Y-104965000D01*
X222894126Y-104965000D01*
X222513720Y-105122569D01*
X222222569Y-105413720D01*
X222065000Y-105794126D01*
X222065000Y-106205874D01*
X222222569Y-106586280D01*
X222340001Y-106703712D01*
X222340000Y-115825153D01*
X222325112Y-115900000D01*
X222340000Y-115974847D01*
X222340000Y-115974851D01*
X222384096Y-116196536D01*
X222552071Y-116447929D01*
X222615530Y-116490331D01*
X222665000Y-116539801D01*
X222665000Y-116705874D01*
X222822569Y-117086280D01*
X223113720Y-117377431D01*
X223494126Y-117535000D01*
X223660199Y-117535000D01*
X224309670Y-118184472D01*
X224352071Y-118247929D01*
X224603463Y-118415904D01*
X224825148Y-118460000D01*
X224825152Y-118460000D01*
X224855460Y-118466029D01*
X224855460Y-119399440D01*
X224904743Y-119647205D01*
X225045091Y-119857249D01*
X225192145Y-119955508D01*
X225254855Y-120049360D01*
X224545400Y-120049360D01*
X224297635Y-120098643D01*
X224087591Y-120238991D01*
X223947243Y-120449035D01*
X223897960Y-120696800D01*
X223897960Y-121103200D01*
X223922187Y-121224999D01*
X223897960Y-121346798D01*
X223897960Y-121540000D01*
X222157791Y-121540000D01*
X221957500Y-121500160D01*
X220992300Y-121500160D01*
X220744535Y-121549443D01*
X220534491Y-121689791D01*
X220399839Y-121891310D01*
X220399839Y-120942500D01*
X220359999Y-120742209D01*
X220359999Y-120603712D01*
X220377431Y-120586280D01*
X220535000Y-120205874D01*
X220535000Y-119794126D01*
X220377431Y-119413720D01*
X220086280Y-119122569D01*
X219705874Y-118965000D01*
X219294126Y-118965000D01*
X218913720Y-119122569D01*
X218622569Y-119413720D01*
X218465000Y-119794126D01*
X218465000Y-120205874D01*
X218622569Y-120586280D01*
X218829795Y-120793506D01*
X218800159Y-120942500D01*
X218800159Y-121907700D01*
X218849442Y-122155465D01*
X218989790Y-122365509D01*
X219199834Y-122505857D01*
X219447599Y-122555140D01*
X219752399Y-122555140D01*
X220000164Y-122505857D01*
X220210208Y-122365509D01*
X220344860Y-122163990D01*
X220344860Y-122452400D01*
X220364274Y-122549999D01*
X220344860Y-122647599D01*
X220344860Y-122952399D01*
X220364274Y-123050000D01*
X220344860Y-123147601D01*
X220344860Y-123452401D01*
X220364274Y-123550001D01*
X220344860Y-123647600D01*
X220344860Y-123952400D01*
X220364274Y-124049999D01*
X220344860Y-124147599D01*
X220344860Y-124452399D01*
X220364274Y-124550000D01*
X220344860Y-124647601D01*
X220344860Y-124952401D01*
X220364274Y-125050001D01*
X220360999Y-125066461D01*
X220252401Y-125044860D01*
X219947601Y-125044860D01*
X219850000Y-125064274D01*
X219752399Y-125044860D01*
X219447599Y-125044860D01*
X219350000Y-125064274D01*
X219252400Y-125044860D01*
X218947600Y-125044860D01*
X218850001Y-125064274D01*
X218752401Y-125044860D01*
X218447601Y-125044860D01*
X218350000Y-125064274D01*
X218252399Y-125044860D01*
X217947599Y-125044860D01*
X217850000Y-125064274D01*
X217838094Y-125061906D01*
X217835726Y-125050001D01*
X217855140Y-124952401D01*
X217855140Y-124647601D01*
X217835726Y-124550000D01*
X217855140Y-124452399D01*
X217855140Y-124147599D01*
X217835726Y-124049999D01*
X217855140Y-123952400D01*
X217855140Y-123647600D01*
X217835726Y-123550001D01*
X217855140Y-123452401D01*
X217855140Y-123147601D01*
X217805857Y-122899836D01*
X217665509Y-122689792D01*
X217455465Y-122549444D01*
X217207700Y-122500161D01*
X216242500Y-122500161D01*
X216146625Y-122519232D01*
X216235000Y-122305874D01*
X216235000Y-121894126D01*
X216077431Y-121513720D01*
X215786280Y-121222569D01*
X215405874Y-121065000D01*
X214994126Y-121065000D01*
X214613720Y-121222569D01*
X214322569Y-121513720D01*
X214165000Y-121894126D01*
X214165000Y-122303789D01*
X213417697Y-121556486D01*
X213347929Y-121452071D01*
X213284473Y-121409671D01*
X213160000Y-121285198D01*
X213160000Y-120304124D01*
X221292172Y-111770187D01*
X221347929Y-111732931D01*
X221384528Y-111678157D01*
X221386280Y-111677431D01*
X221677431Y-111386280D01*
X221835000Y-111005874D01*
X221835000Y-110594126D01*
X221677431Y-110213720D01*
X221386280Y-109922569D01*
X221005874Y-109765000D01*
X220594126Y-109765000D01*
X220213720Y-109922569D01*
X219922569Y-110213720D01*
X219765000Y-110594126D01*
X219765000Y-111005874D01*
X219812231Y-111119899D01*
X211907830Y-119414814D01*
X211852071Y-119452071D01*
X211804538Y-119523209D01*
X211798167Y-119529895D01*
X211762998Y-119585378D01*
X211745474Y-119611605D01*
X211700000Y-119602560D01*
X211000000Y-119602560D01*
X210752235Y-119651843D01*
X210625000Y-119736859D01*
X210497765Y-119651843D01*
X210250000Y-119602560D01*
X209550000Y-119602560D01*
X209302235Y-119651843D01*
X209092191Y-119792191D01*
X208951843Y-120002235D01*
X208950000Y-120011500D01*
X208948157Y-120002235D01*
X208807809Y-119792191D01*
X208760000Y-119760246D01*
X208760000Y-119203711D01*
X208877431Y-119086280D01*
X209035000Y-118705874D01*
X209035000Y-118294126D01*
X208877431Y-117913720D01*
X208586280Y-117622569D01*
X208205874Y-117465000D01*
X207794126Y-117465000D01*
X207413720Y-117622569D01*
X207122569Y-117913720D01*
X206965000Y-118294126D01*
X206965000Y-118705874D01*
X207122569Y-119086280D01*
X207240000Y-119203711D01*
X207240001Y-119760245D01*
X207192191Y-119792191D01*
X207051843Y-120002235D01*
X207002560Y-120250000D01*
X207002560Y-121427758D01*
X203675838Y-118101037D01*
X203663553Y-118084626D01*
X203623001Y-118048200D01*
X203584472Y-118009671D01*
X203567434Y-117998287D01*
X203234999Y-117699675D01*
X203234999Y-117244295D01*
X203394101Y-117403397D01*
X204436083Y-117835000D01*
X205563917Y-117835000D01*
X206605899Y-117403397D01*
X207403397Y-116605899D01*
X207835000Y-115563917D01*
X207835000Y-114436083D01*
X207403397Y-113394101D01*
X206605899Y-112596603D01*
X205563917Y-112165000D01*
X204436083Y-112165000D01*
X204240992Y-112245809D01*
X204980473Y-111506329D01*
X205043929Y-111463929D01*
X205144483Y-111313440D01*
X205146000Y-111313440D01*
X205393765Y-111264157D01*
X205603809Y-111123809D01*
X205635754Y-111076000D01*
X205642246Y-111076000D01*
X205674191Y-111123809D01*
X205884235Y-111264157D01*
X206132000Y-111313440D01*
X207432000Y-111313440D01*
X207679765Y-111264157D01*
X207889809Y-111123809D01*
X208030157Y-110913765D01*
X208079440Y-110666000D01*
X208079440Y-109966000D01*
X208030157Y-109718235D01*
X207889809Y-109508191D01*
X207679765Y-109367843D01*
X207432000Y-109318560D01*
X206132000Y-109318560D01*
X205884235Y-109367843D01*
X205674191Y-109508191D01*
X205642246Y-109556000D01*
X205635754Y-109556000D01*
X205603809Y-109508191D01*
X205393765Y-109367843D01*
X205384500Y-109366000D01*
X205393765Y-109364157D01*
X205603809Y-109223809D01*
X205744157Y-109013765D01*
X205793440Y-108766000D01*
X205793440Y-108298729D01*
X206086280Y-108177431D01*
X206377431Y-107886280D01*
X206535000Y-107505874D01*
X206535000Y-107432764D01*
X206605899Y-107403397D01*
X207403397Y-106605899D01*
X207835000Y-105563917D01*
X207835000Y-104436083D01*
X207403397Y-103394101D01*
X206605899Y-102596603D01*
X205563917Y-102165000D01*
X204436083Y-102165000D01*
X203394101Y-102596603D01*
X202596603Y-103394101D01*
X202165000Y-104436083D01*
X202165000Y-105563917D01*
X202596603Y-106605899D01*
X203394101Y-107403397D01*
X203579657Y-107480257D01*
X203388191Y-107608191D01*
X203247843Y-107818235D01*
X203198560Y-108066000D01*
X203198560Y-108766000D01*
X203247843Y-109013765D01*
X203388191Y-109223809D01*
X203598235Y-109364157D01*
X203607500Y-109366000D01*
X203598235Y-109367843D01*
X203388191Y-109508191D01*
X203247843Y-109718235D01*
X203198560Y-109966000D01*
X203198560Y-110666000D01*
X203247843Y-110913765D01*
X203318175Y-111019023D01*
X202160000Y-112177199D01*
X202160000Y-101735225D01*
X202222569Y-101886280D01*
X202513720Y-102177431D01*
X202894126Y-102335000D01*
X203305874Y-102335000D01*
X203686280Y-102177431D01*
X203977431Y-101886280D01*
X204024564Y-101772490D01*
X204150000Y-101797440D01*
X204850000Y-101797440D01*
X205097765Y-101748157D01*
X205307809Y-101607809D01*
X205448157Y-101397765D01*
X205450000Y-101388500D01*
X205451843Y-101397765D01*
X205592191Y-101607809D01*
X205802235Y-101748157D01*
X206050000Y-101797440D01*
X206750000Y-101797440D01*
X206997765Y-101748157D01*
X207207809Y-101607809D01*
X207348157Y-101397765D01*
X207397440Y-101150000D01*
X207397440Y-100652490D01*
X208300380Y-100652490D01*
X208548145Y-100603207D01*
X208758189Y-100462859D01*
X208898537Y-100252815D01*
X208947820Y-100005050D01*
X208947820Y-99370231D01*
X209041451Y-99510359D01*
X209239640Y-99642786D01*
X209239641Y-100460486D01*
X209192191Y-100492191D01*
X209051843Y-100702235D01*
X209002560Y-100950000D01*
X209002560Y-102250000D01*
X209051843Y-102497765D01*
X209192191Y-102707809D01*
X209402235Y-102848157D01*
X209650000Y-102897440D01*
X210350000Y-102897440D01*
X210597765Y-102848157D01*
X210807809Y-102707809D01*
X210948157Y-102497765D01*
X210950000Y-102488500D01*
X210951843Y-102497765D01*
X211092191Y-102707809D01*
X211302235Y-102848157D01*
X211550000Y-102897440D01*
X212250000Y-102897440D01*
X212497765Y-102848157D01*
X212707809Y-102707809D01*
X212840001Y-102509971D01*
X212840000Y-110385198D01*
X212778133Y-110447066D01*
X212797440Y-110350000D01*
X212797440Y-109650000D01*
X212748157Y-109402235D01*
X212607809Y-109192191D01*
X212397765Y-109051843D01*
X212260000Y-109024440D01*
X212260000Y-108790165D01*
X212458009Y-108657859D01*
X212598357Y-108447815D01*
X212647640Y-108200050D01*
X212647640Y-107399950D01*
X212598357Y-107152185D01*
X212470693Y-106961124D01*
X212535000Y-106805874D01*
X212535000Y-106394126D01*
X212377431Y-106013720D01*
X212086280Y-105722569D01*
X211705874Y-105565000D01*
X211294126Y-105565000D01*
X210913720Y-105722569D01*
X210622569Y-106013720D01*
X210465000Y-106394126D01*
X210465000Y-106805874D01*
X210529169Y-106960792D01*
X210401283Y-107152185D01*
X210352000Y-107399950D01*
X210352000Y-108034769D01*
X210258369Y-107894641D01*
X210048325Y-107754293D01*
X209800560Y-107705010D01*
X208799800Y-107705010D01*
X208552035Y-107754293D01*
X208341991Y-107894641D01*
X208201643Y-108104685D01*
X208152360Y-108352450D01*
X208152360Y-109152550D01*
X208201643Y-109400315D01*
X208341991Y-109610359D01*
X208552035Y-109750707D01*
X208799800Y-109799990D01*
X209800560Y-109799990D01*
X210048325Y-109750707D01*
X210203099Y-109647289D01*
X210202560Y-109650000D01*
X210202560Y-110350000D01*
X210251843Y-110597765D01*
X210392191Y-110807809D01*
X210602235Y-110948157D01*
X210611500Y-110950000D01*
X210602235Y-110951843D01*
X210392191Y-111092191D01*
X210251843Y-111302235D01*
X210202560Y-111550000D01*
X210202560Y-112250000D01*
X210251843Y-112497765D01*
X210392191Y-112707809D01*
X210602235Y-112848157D01*
X210850000Y-112897440D01*
X210851518Y-112897440D01*
X210952071Y-113047929D01*
X211203463Y-113215904D01*
X211500000Y-113274889D01*
X211796536Y-113215904D01*
X212047929Y-113047929D01*
X212148483Y-112897440D01*
X212150000Y-112897440D01*
X212397765Y-112848157D01*
X212607809Y-112707809D01*
X212665031Y-112622171D01*
X212696537Y-112615904D01*
X212947929Y-112447929D01*
X212990331Y-112384470D01*
X214084473Y-111290329D01*
X214147929Y-111247929D01*
X214315904Y-110996537D01*
X214360000Y-110774852D01*
X214360000Y-110774848D01*
X214374888Y-110700001D01*
X214360000Y-110625154D01*
X214360000Y-102460000D01*
X219930924Y-102460000D01*
X228418310Y-108477424D01*
X228095358Y-114404931D01*
X227938569Y-114561720D01*
X227781000Y-114942126D01*
X227781000Y-115353874D01*
X227938569Y-115734280D01*
X228229720Y-116025431D01*
X228610126Y-116183000D01*
X229021874Y-116183000D01*
X229402280Y-116025431D01*
X229693431Y-115734280D01*
X229851000Y-115353874D01*
X229851000Y-114942126D01*
X229693431Y-114561720D01*
X229613428Y-114481717D01*
X229951223Y-108281769D01*
X229955523Y-108272150D01*
X229959425Y-108131225D01*
X229962946Y-108066606D01*
X229961496Y-108056456D01*
X229963892Y-107969919D01*
X229940317Y-107908228D01*
X229930976Y-107842850D01*
X229886867Y-107768359D01*
X229855964Y-107687492D01*
X229810574Y-107639517D01*
X229776926Y-107582692D01*
X229707673Y-107530754D01*
X229700623Y-107523303D01*
X229647817Y-107485864D01*
X229535045Y-107401289D01*
X229524838Y-107398674D01*
X220726990Y-101161139D01*
X220720931Y-101152071D01*
X220650723Y-101105159D01*
X234015000Y-101105159D01*
X234015000Y-101894841D01*
X234317199Y-102624412D01*
X234875588Y-103182801D01*
X235605159Y-103485000D01*
X236394841Y-103485000D01*
X237124412Y-103182801D01*
X237682801Y-102624412D01*
X237840001Y-102244899D01*
X237840001Y-105755101D01*
X237682801Y-105375588D01*
X237124412Y-104817199D01*
X236394841Y-104515000D01*
X235605159Y-104515000D01*
X234875588Y-104817199D01*
X234317199Y-105375588D01*
X234015000Y-106105159D01*
X234015000Y-106894841D01*
X234317199Y-107624412D01*
X234875588Y-108182801D01*
X235605159Y-108485000D01*
X236394841Y-108485000D01*
X237124412Y-108182801D01*
X237682801Y-107624412D01*
X237840001Y-107244899D01*
X237840001Y-110755100D01*
X237682801Y-110375588D01*
X237124412Y-109817199D01*
X236394841Y-109515000D01*
X235605159Y-109515000D01*
X234875588Y-109817199D01*
X234317199Y-110375588D01*
X234015000Y-111105159D01*
X234015000Y-111894841D01*
X234317199Y-112624412D01*
X234875588Y-113182801D01*
X235605159Y-113485000D01*
X236394841Y-113485000D01*
X237124412Y-113182801D01*
X237682801Y-112624412D01*
X237840000Y-112244900D01*
X237840000Y-115755100D01*
X237682801Y-115375588D01*
X237124412Y-114817199D01*
X236394841Y-114515000D01*
X235605159Y-114515000D01*
X234875588Y-114817199D01*
X234317199Y-115375588D01*
X234015000Y-116105159D01*
X234015000Y-116894841D01*
X234317199Y-117624412D01*
X234875588Y-118182801D01*
X235605159Y-118485000D01*
X236394841Y-118485000D01*
X237124412Y-118182801D01*
X237682801Y-117624412D01*
X237840000Y-117244900D01*
X237840000Y-121521289D01*
X237722569Y-121638720D01*
X237565000Y-122019126D01*
X237565000Y-122430874D01*
X237722569Y-122811280D01*
X238013720Y-123102431D01*
X238394126Y-123260000D01*
X238805874Y-123260000D01*
X239186280Y-123102431D01*
X239477431Y-122811280D01*
X239635000Y-122430874D01*
X239635000Y-122019126D01*
X239477431Y-121638720D01*
X239360000Y-121521289D01*
X239360000Y-117667213D01*
X239875588Y-118182801D01*
X240605159Y-118485000D01*
X241394841Y-118485000D01*
X242124412Y-118182801D01*
X242682801Y-117624412D01*
X242985000Y-116894841D01*
X242985000Y-116105159D01*
X242682801Y-115375588D01*
X242124412Y-114817199D01*
X241394841Y-114515000D01*
X240605159Y-114515000D01*
X239875588Y-114817199D01*
X239360000Y-115332787D01*
X239360000Y-112667213D01*
X239875588Y-113182801D01*
X240605159Y-113485000D01*
X241394841Y-113485000D01*
X242124412Y-113182801D01*
X242682801Y-112624412D01*
X242985000Y-111894841D01*
X242985000Y-111105159D01*
X242682801Y-110375588D01*
X242124412Y-109817199D01*
X241394841Y-109515000D01*
X240605159Y-109515000D01*
X239875588Y-109817199D01*
X239360000Y-110332787D01*
X239360000Y-107667213D01*
X239875588Y-108182801D01*
X240605159Y-108485000D01*
X241394841Y-108485000D01*
X242124412Y-108182801D01*
X242682801Y-107624412D01*
X242797811Y-107346753D01*
X244425200Y-107346753D01*
X244425200Y-107973247D01*
X244664949Y-108552052D01*
X245042897Y-108930000D01*
X244664949Y-109307948D01*
X244425200Y-109886753D01*
X244425200Y-110513247D01*
X244664949Y-111092052D01*
X245107948Y-111535051D01*
X245686753Y-111774800D01*
X246313247Y-111774800D01*
X246892052Y-111535051D01*
X247335051Y-111092052D01*
X247574800Y-110513247D01*
X247574800Y-109886753D01*
X247335051Y-109307948D01*
X246957103Y-108930000D01*
X247335051Y-108552052D01*
X247574800Y-107973247D01*
X247574800Y-107346753D01*
X247335051Y-106767948D01*
X246892052Y-106324949D01*
X246313247Y-106085200D01*
X245686753Y-106085200D01*
X245107948Y-106324949D01*
X244664949Y-106767948D01*
X244425200Y-107346753D01*
X242797811Y-107346753D01*
X242985000Y-106894841D01*
X242985000Y-106105159D01*
X242682801Y-105375588D01*
X242124412Y-104817199D01*
X241394841Y-104515000D01*
X240605159Y-104515000D01*
X239875588Y-104817199D01*
X239360000Y-105332787D01*
X239360000Y-101903711D01*
X239477431Y-101786280D01*
X239635000Y-101405874D01*
X239635000Y-100994126D01*
X239477431Y-100613720D01*
X239186280Y-100322569D01*
X238805874Y-100165000D01*
X238394126Y-100165000D01*
X238013720Y-100322569D01*
X237764196Y-100572093D01*
X237682801Y-100375588D01*
X237124412Y-99817199D01*
X236394841Y-99515000D01*
X235605159Y-99515000D01*
X234875588Y-99817199D01*
X234317199Y-100375588D01*
X234015000Y-101105159D01*
X220650723Y-101105159D01*
X220603979Y-101073926D01*
X220551501Y-101036720D01*
X220541818Y-101032392D01*
X220469539Y-100984096D01*
X220405115Y-100971281D01*
X220345152Y-100944476D01*
X220258262Y-100942070D01*
X220247854Y-100940000D01*
X220183491Y-100940000D01*
X220042923Y-100936108D01*
X220032738Y-100940000D01*
X214360000Y-100940000D01*
X214360000Y-100574847D01*
X214374888Y-100500000D01*
X214360000Y-100425153D01*
X214360000Y-96105159D01*
X234015000Y-96105159D01*
X234015000Y-96894841D01*
X234317199Y-97624412D01*
X234875588Y-98182801D01*
X235605159Y-98485000D01*
X236394841Y-98485000D01*
X237124412Y-98182801D01*
X237682801Y-97624412D01*
X237985000Y-96894841D01*
X237985000Y-96105159D01*
X239015000Y-96105159D01*
X239015000Y-96894841D01*
X239317199Y-97624412D01*
X239875588Y-98182801D01*
X240605159Y-98485000D01*
X241394841Y-98485000D01*
X242124412Y-98182801D01*
X242682801Y-97624412D01*
X242985000Y-96894841D01*
X242985000Y-96105159D01*
X242682801Y-95375588D01*
X242124412Y-94817199D01*
X241394841Y-94515000D01*
X240605159Y-94515000D01*
X239875588Y-94817199D01*
X239317199Y-95375588D01*
X239015000Y-96105159D01*
X237985000Y-96105159D01*
X237682801Y-95375588D01*
X237124412Y-94817199D01*
X236394841Y-94515000D01*
X235605159Y-94515000D01*
X234875588Y-94817199D01*
X234317199Y-95375588D01*
X234015000Y-96105159D01*
X214360000Y-96105159D01*
X214360000Y-94875560D01*
X214497765Y-94848157D01*
X214707809Y-94707809D01*
X214848157Y-94497765D01*
X214897440Y-94250000D01*
X214897440Y-93550000D01*
X214894454Y-93534989D01*
X216971278Y-93534989D01*
X217113720Y-93677431D01*
X217494126Y-93835000D01*
X217905874Y-93835000D01*
X218286280Y-93677431D01*
X218577431Y-93386280D01*
X218735000Y-93005874D01*
X218735000Y-92594126D01*
X218577431Y-92213720D01*
X218286280Y-91922569D01*
X217905874Y-91765000D01*
X217494126Y-91765000D01*
X217113720Y-91922569D01*
X217021300Y-92014989D01*
X214897440Y-92014989D01*
X214897440Y-91650000D01*
X214848157Y-91402235D01*
X214707809Y-91192191D01*
X214497765Y-91051843D01*
X214250000Y-91002560D01*
X212950000Y-91002560D01*
X212702235Y-91051843D01*
X212492191Y-91192191D01*
X212460246Y-91240000D01*
X211423397Y-91240000D01*
X211358009Y-91142141D01*
X211152573Y-91004872D01*
X211235000Y-90805874D01*
X211235000Y-90394126D01*
X211121764Y-90120748D01*
X219540221Y-90120748D01*
X219540221Y-90532496D01*
X219697790Y-90912902D01*
X219988941Y-91204053D01*
X220369347Y-91361622D01*
X220781095Y-91361622D01*
X221161501Y-91204053D01*
X221452652Y-90912902D01*
X221588474Y-90584999D01*
X234230458Y-90584999D01*
X234015000Y-91105159D01*
X234015000Y-91894841D01*
X234317199Y-92624412D01*
X234875588Y-93182801D01*
X235605159Y-93485000D01*
X236394841Y-93485000D01*
X237124412Y-93182801D01*
X237682801Y-92624412D01*
X237985000Y-91894841D01*
X237985000Y-91105159D01*
X237769542Y-90584999D01*
X239010198Y-90584999D01*
X239165945Y-90740746D01*
X239015000Y-91105159D01*
X239015000Y-91894841D01*
X239317199Y-92624412D01*
X239875588Y-93182801D01*
X240605159Y-93485000D01*
X241394841Y-93485000D01*
X242124412Y-93182801D01*
X242682801Y-92624412D01*
X242985000Y-91894841D01*
X242985000Y-91105159D01*
X242682801Y-90375588D01*
X242124412Y-89817199D01*
X241394841Y-89515000D01*
X240605159Y-89515000D01*
X240240746Y-89665945D01*
X239915330Y-89340529D01*
X239872928Y-89277070D01*
X239621536Y-89109095D01*
X239399851Y-89064999D01*
X239399846Y-89064999D01*
X239324999Y-89050111D01*
X239250152Y-89064999D01*
X221151690Y-89064999D01*
X221076843Y-89050111D01*
X221001996Y-89064999D01*
X221001992Y-89064999D01*
X220780307Y-89109095D01*
X220528915Y-89277070D01*
X220519192Y-89291622D01*
X220369347Y-89291622D01*
X219988941Y-89449191D01*
X219697790Y-89740342D01*
X219540221Y-90120748D01*
X211121764Y-90120748D01*
X211077431Y-90013720D01*
X210786280Y-89722569D01*
X210405874Y-89565000D01*
X209994126Y-89565000D01*
X209613720Y-89722569D01*
X209322569Y-90013720D01*
X209165000Y-90394126D01*
X209165000Y-90805874D01*
X209322569Y-91186280D01*
X209376262Y-91239973D01*
X209301283Y-91352185D01*
X209252000Y-91599950D01*
X209252000Y-92185300D01*
X209229149Y-92200569D01*
X209158369Y-92094641D01*
X208948325Y-91954293D01*
X208700560Y-91905010D01*
X207699800Y-91905010D01*
X207638497Y-91917204D01*
X207813000Y-91495917D01*
X207813000Y-90368083D01*
X207381397Y-89326101D01*
X206583899Y-88528603D01*
X205541917Y-88097000D01*
X204414083Y-88097000D01*
X203372101Y-88528603D01*
X202574603Y-89326101D01*
X202143000Y-90368083D01*
X202143000Y-91495917D01*
X202574603Y-92537899D01*
X203372101Y-93335397D01*
X204218001Y-93685780D01*
X204218001Y-93702560D01*
X203750000Y-93702560D01*
X203502235Y-93751843D01*
X203292191Y-93892191D01*
X203151843Y-94102235D01*
X203102560Y-94350000D01*
X203102560Y-95650000D01*
X203112228Y-95698607D01*
X198557592Y-99181565D01*
X198452072Y-99252071D01*
X198396111Y-99335822D01*
X198329568Y-99411448D01*
X198312850Y-99460431D01*
X198284097Y-99503463D01*
X198264446Y-99602255D01*
X198231909Y-99697588D01*
X198240001Y-99824254D01*
X198240000Y-124178897D01*
X198230655Y-124207475D01*
X198240000Y-124329134D01*
X198240000Y-124374851D01*
X198245721Y-124403612D01*
X198253811Y-124508933D01*
X198274969Y-124550652D01*
X198284096Y-124596536D01*
X198342787Y-124684373D01*
X198390566Y-124778583D01*
X198426080Y-124809031D01*
X198452071Y-124847929D01*
X198539908Y-124906620D01*
X198562163Y-124925700D01*
X198601998Y-124948107D01*
X198703463Y-125015904D01*
X198732954Y-125021770D01*
X201210321Y-126415290D01*
X201322569Y-126686280D01*
X201613720Y-126977431D01*
X201994126Y-127135000D01*
X202405874Y-127135000D01*
X202786280Y-126977431D01*
X203077431Y-126686280D01*
X203235000Y-126305874D01*
X203235000Y-125894126D01*
X203077431Y-125513720D01*
X202786280Y-125222569D01*
X202405874Y-125065000D01*
X201994126Y-125065000D01*
X201945789Y-125085022D01*
X199760000Y-123855516D01*
X199760000Y-118834801D01*
X208406788Y-127481590D01*
X208446278Y-127542073D01*
X208512641Y-127587443D01*
X208515527Y-127590329D01*
X208574492Y-127629728D01*
X208695871Y-127712711D01*
X208699972Y-127713572D01*
X208703462Y-127715904D01*
X208847796Y-127744613D01*
X208917075Y-127759161D01*
X208921151Y-127759204D01*
X209000000Y-127774888D01*
X209070848Y-127760796D01*
X216165000Y-127836205D01*
X216165000Y-128140000D01*
X193474848Y-128140000D01*
X193400000Y-128125112D01*
X193325152Y-128140000D01*
X193325148Y-128140000D01*
X193103463Y-128184096D01*
X192852071Y-128352071D01*
X192809671Y-128415527D01*
X191548658Y-129676540D01*
X191502933Y-129657600D01*
X190937067Y-129657600D01*
X190414275Y-129874148D01*
X190014148Y-130274275D01*
X189797600Y-130797067D01*
X189797600Y-131362933D01*
X190014148Y-131885725D01*
X190414275Y-132285852D01*
X190937067Y-132502400D01*
X191502933Y-132502400D01*
X192025725Y-132285852D01*
X192425852Y-131885725D01*
X192490000Y-131730858D01*
X192554148Y-131885725D01*
X192954275Y-132285852D01*
X193477067Y-132502400D01*
X194042933Y-132502400D01*
X194565725Y-132285852D01*
X194965852Y-131885725D01*
X195030000Y-131730858D01*
X195094148Y-131885725D01*
X195494275Y-132285852D01*
X196017067Y-132502400D01*
X196582933Y-132502400D01*
X197105725Y-132285852D01*
X197505852Y-131885725D01*
X197570000Y-131730858D01*
X197634148Y-131885725D01*
X198034275Y-132285852D01*
X198557067Y-132502400D01*
X199122933Y-132502400D01*
X199645725Y-132285852D01*
X200045852Y-131885725D01*
X200110000Y-131730858D01*
X200174148Y-131885725D01*
X200574275Y-132285852D01*
X201097067Y-132502400D01*
X201662933Y-132502400D01*
X202185725Y-132285852D01*
X202585852Y-131885725D01*
X202650000Y-131730858D01*
X202714148Y-131885725D01*
X203114275Y-132285852D01*
X203637067Y-132502400D01*
X204202933Y-132502400D01*
X204725725Y-132285852D01*
X205125852Y-131885725D01*
X205190000Y-131730858D01*
X205254148Y-131885725D01*
X205654275Y-132285852D01*
X206177067Y-132502400D01*
X206742933Y-132502400D01*
X207265725Y-132285852D01*
X207665852Y-131885725D01*
X207730000Y-131730858D01*
X207794148Y-131885725D01*
X208194275Y-132285852D01*
X208717067Y-132502400D01*
X209282933Y-132502400D01*
X209805725Y-132285852D01*
X210205852Y-131885725D01*
X210270000Y-131730858D01*
X210334148Y-131885725D01*
X210734275Y-132285852D01*
X211257067Y-132502400D01*
X211822933Y-132502400D01*
X212345725Y-132285852D01*
X212745852Y-131885725D01*
X212810000Y-131730858D01*
X212874148Y-131885725D01*
X213274275Y-132285852D01*
X213797067Y-132502400D01*
X214362933Y-132502400D01*
X214885725Y-132285852D01*
X215285852Y-131885725D01*
X215350000Y-131730858D01*
X215414148Y-131885725D01*
X215814275Y-132285852D01*
X216337067Y-132502400D01*
X216902933Y-132502400D01*
X217425725Y-132285852D01*
X217825852Y-131885725D01*
X218042400Y-131362933D01*
X218042400Y-130797067D01*
X217985625Y-130660000D01*
X220665198Y-130660000D01*
X214085199Y-137240000D01*
X199614848Y-137240000D01*
X199540000Y-137225112D01*
X199465152Y-137240000D01*
X199465148Y-137240000D01*
X199291605Y-137274520D01*
X199243462Y-137284096D01*
X199056418Y-137409076D01*
X198992071Y-137452071D01*
X198949671Y-137515527D01*
X191548659Y-144916540D01*
X191502933Y-144897600D01*
X190937067Y-144897600D01*
X190414275Y-145114148D01*
X190014148Y-145514275D01*
X189797600Y-146037067D01*
X189797600Y-146602933D01*
X190014148Y-147125725D01*
X190414275Y-147525852D01*
X190937067Y-147742400D01*
X191502933Y-147742400D01*
X192025725Y-147525852D01*
X192425852Y-147125725D01*
X192642400Y-146602933D01*
X192642400Y-146037067D01*
X197417600Y-146037067D01*
X197417600Y-146602933D01*
X197634148Y-147125725D01*
X198034275Y-147525852D01*
X198557067Y-147742400D01*
X199122933Y-147742400D01*
X199645725Y-147525852D01*
X200045852Y-147125725D01*
X200262400Y-146602933D01*
X200262400Y-146037067D01*
X200045852Y-145514275D01*
X199645725Y-145114148D01*
X199122933Y-144897600D01*
X198557067Y-144897600D01*
X198034275Y-145114148D01*
X197634148Y-145514275D01*
X197417600Y-146037067D01*
X192642400Y-146037067D01*
X192623460Y-145991341D01*
X199854802Y-138760000D01*
X214325153Y-138760000D01*
X214400000Y-138774888D01*
X214474847Y-138760000D01*
X214474852Y-138760000D01*
X214696537Y-138715904D01*
X214947929Y-138547929D01*
X214990331Y-138484470D01*
X221714802Y-131760000D01*
X222525153Y-131760000D01*
X222600000Y-131774888D01*
X222674847Y-131760000D01*
X222674852Y-131760000D01*
X222896537Y-131715904D01*
X222949224Y-131680700D01*
X223034148Y-131885725D01*
X223434275Y-132285852D01*
X223957067Y-132502400D01*
X224522933Y-132502400D01*
X225045725Y-132285852D01*
X225445852Y-131885725D01*
X225510000Y-131730858D01*
X225574148Y-131885725D01*
X225974275Y-132285852D01*
X226497067Y-132502400D01*
X227062933Y-132502400D01*
X227132402Y-132473625D01*
X227132401Y-144892797D01*
X227108658Y-144916540D01*
X227062933Y-144897600D01*
X226497067Y-144897600D01*
X225974275Y-145114148D01*
X225574148Y-145514275D01*
X225555208Y-145560000D01*
X217605771Y-145560000D01*
X217530923Y-145545112D01*
X217456075Y-145560000D01*
X217456071Y-145560000D01*
X217282528Y-145594520D01*
X217234385Y-145604096D01*
X217102721Y-145692072D01*
X216982994Y-145772071D01*
X216940594Y-145835527D01*
X215395528Y-147380594D01*
X215332072Y-147422994D01*
X215289672Y-147486450D01*
X215289671Y-147486451D01*
X215164097Y-147674386D01*
X215116927Y-147911524D01*
X214987948Y-147964949D01*
X214544949Y-148407948D01*
X214305200Y-148986753D01*
X214305200Y-149613247D01*
X214544949Y-150192052D01*
X214942897Y-150590000D01*
X185310000Y-150590000D01*
X185310000Y-85610000D01*
X247788929Y-85610000D01*
X247729722Y-124863929D01*
G36*
X220992300Y-126099840D02*
X221186849Y-126099840D01*
X222340000Y-126898198D01*
X222340001Y-128544034D01*
X222224842Y-128640000D01*
X221447060Y-128640000D01*
X221447060Y-127500560D01*
X221397777Y-127252795D01*
X221257429Y-127042751D01*
X221047385Y-126902403D01*
X220860001Y-126865130D01*
X220860001Y-126857791D01*
X220899841Y-126657500D01*
X220899841Y-126081449D01*
X220992300Y-126099840D01*
X220992300Y-126099840D01*
G37*
X220992300Y-126099840D02*
X221186849Y-126099840D01*
X222340000Y-126898198D01*
X222340001Y-128544034D01*
X222224842Y-128640000D01*
X221447060Y-128640000D01*
X221447060Y-127500560D01*
X221397777Y-127252795D01*
X221257429Y-127042751D01*
X221047385Y-126902403D01*
X220860001Y-126865130D01*
X220860001Y-126857791D01*
X220899841Y-126657500D01*
X220899841Y-126081449D01*
X220992300Y-126099840D01*
G36*
X207565000Y-96094126D02*
X207565000Y-96505874D01*
X207722569Y-96886280D01*
X208013720Y-97177431D01*
X208394126Y-97335000D01*
X208560199Y-97335000D01*
X209032795Y-97807596D01*
X208901103Y-98004685D01*
X208851820Y-98252450D01*
X208851820Y-98887269D01*
X208758189Y-98747141D01*
X208548145Y-98606793D01*
X208300380Y-98557510D01*
X207299620Y-98557510D01*
X207051855Y-98606793D01*
X206841811Y-98747141D01*
X206701463Y-98957185D01*
X206660109Y-99165089D01*
X206622638Y-99202560D01*
X206050000Y-99202560D01*
X205802235Y-99251843D01*
X205592191Y-99392191D01*
X205451843Y-99602235D01*
X205450000Y-99611500D01*
X205448157Y-99602235D01*
X205307809Y-99392191D01*
X205097765Y-99251843D01*
X204850000Y-99202560D01*
X204335000Y-99202560D01*
X204335000Y-99169496D01*
X204177431Y-98789090D01*
X203889274Y-98500933D01*
X204069958Y-98360000D01*
X204968859Y-98360000D01*
X205049421Y-98374806D01*
X205191775Y-98344323D01*
X205334649Y-98315904D01*
X205339438Y-98312704D01*
X205345066Y-98311499D01*
X205464931Y-98228852D01*
X205586041Y-98147929D01*
X205631551Y-98079818D01*
X207568637Y-96085345D01*
X207565000Y-96094126D01*
X207565000Y-96094126D01*
G37*
X207565000Y-96094126D02*
X207565000Y-96505874D01*
X207722569Y-96886280D01*
X208013720Y-97177431D01*
X208394126Y-97335000D01*
X208560199Y-97335000D01*
X209032795Y-97807596D01*
X208901103Y-98004685D01*
X208851820Y-98252450D01*
X208851820Y-98887269D01*
X208758189Y-98747141D01*
X208548145Y-98606793D01*
X208300380Y-98557510D01*
X207299620Y-98557510D01*
X207051855Y-98606793D01*
X206841811Y-98747141D01*
X206701463Y-98957185D01*
X206660109Y-99165089D01*
X206622638Y-99202560D01*
X206050000Y-99202560D01*
X205802235Y-99251843D01*
X205592191Y-99392191D01*
X205451843Y-99602235D01*
X205450000Y-99611500D01*
X205448157Y-99602235D01*
X205307809Y-99392191D01*
X205097765Y-99251843D01*
X204850000Y-99202560D01*
X204335000Y-99202560D01*
X204335000Y-99169496D01*
X204177431Y-98789090D01*
X203889274Y-98500933D01*
X204069958Y-98360000D01*
X204968859Y-98360000D01*
X205049421Y-98374806D01*
X205191775Y-98344323D01*
X205334649Y-98315904D01*
X205339438Y-98312704D01*
X205345066Y-98311499D01*
X205464931Y-98228852D01*
X205586041Y-98147929D01*
X205631551Y-98079818D01*
X207568637Y-96085345D01*
X207565000Y-96094126D01*
G04 #@! TD*
M02*
