M48
;DRILL file {KiCad (5.0.1)-rc2} date 11/18/2018 2:42:05 PM
;FORMAT={-:-/ absolute / inch / decimal}
FMAT,2
INCH,TZ
T1C0.0157
T2C0.0315
T3C0.0400
T4C0.0512
T5C0.0866
%
G90
G05
M72
T1
X7.9606Y-4.9646
X7.9961Y-3.9882
X8.0039Y-3.9124
X8.0906Y-4.2244
X8.189Y-4.6654
X8.1969Y-3.5845
X8.2126Y-3.7913
X8.2402Y-4.2816
X8.2756Y-3.5669
X8.3268Y-4.1969
X8.378Y-4.2047
X8.3957Y-4.7598
X8.4331Y-3.5551
X8.4724Y-4.8071
X8.4848Y-4.2362
X8.5477Y-3.9021
X8.5512Y-5.0394
X8.5709Y-3.6535
X8.5866Y-4.6496
X8.5906Y-4.8386
X8.6417Y-4.7244
X8.6772Y-5.0433
X8.6841Y-3.5562
X8.6929Y-4.3622
X8.748Y-5.0433
X8.7835Y-4.1732
X8.7874Y-4.7402
X8.8071Y-4.5866
X8.9252Y-4.8898
X9.Y-4.9183
X9.0085Y-4.5334
X9.3937Y-3.9843
X9.3937Y-4.812
X9.3937Y-5.2126
X8.0059Y-4.5276
X8.0249Y-4.4816
X8.0249Y-4.5735
X8.0709Y-4.4626
X8.0709Y-4.5925
X8.1168Y-4.4816
X8.1168Y-4.5735
X8.1358Y-4.5276
X8.0059Y-4.1339
X8.0249Y-4.0879
X8.0249Y-4.1798
X8.0709Y-4.0689
X8.0709Y-4.1988
X8.1168Y-4.0879
X8.1168Y-4.1798
X8.1358Y-4.1339
X8.8445Y-4.3307
X8.8635Y-4.2848
X8.8635Y-4.3766
X8.9094Y-4.2657
X8.9094Y-4.3957
X8.9554Y-4.2848
X8.9554Y-4.3766
X8.9744Y-4.3307
X8.005Y-3.58
X8.0241Y-3.5341
X8.0241Y-3.6259
X8.07Y-3.515
X8.07Y-3.645
X8.1159Y-3.5341
X8.1159Y-3.6259
X8.135Y-3.58
T2
X7.5283Y-5.1606
X7.5283Y-5.7606
X7.6283Y-5.1606
X7.7283Y-5.1606
X7.8283Y-5.1606
X7.8283Y-5.7606
X7.9283Y-5.1606
X8.0283Y-5.1606
X8.1283Y-5.1606
X8.2283Y-5.1606
X8.3283Y-5.1606
X8.4283Y-5.1606
X8.5283Y-5.1606
X8.6283Y-5.1606
X8.8283Y-5.1606
X8.9283Y-5.1606
X8.9283Y-5.7606
T3
X9.685Y-4.2386
X9.685Y-4.3386
X8.4992Y-5.878
X8.5992Y-5.878
X8.6992Y-5.878
X8.7992Y-5.878
T4
X9.2913Y-3.6024
X9.2913Y-3.7992
X9.2913Y-3.9961
X9.2913Y-4.1929
X9.2913Y-4.3898
X9.2913Y-4.5866
X9.2913Y-4.7835
X9.2913Y-4.9803
X9.2913Y-5.1772
X9.2913Y-5.374
X9.2913Y-5.5709
X9.2913Y-5.7677
X9.4882Y-3.6024
X9.4882Y-3.7992
X9.4882Y-3.9961
X9.4882Y-4.1929
X9.4882Y-4.3898
X9.4882Y-4.5866
X9.4882Y-4.7835
X9.4882Y-4.9803
X9.4882Y-5.1772
X9.4882Y-5.374
X9.4882Y-5.5709
X9.4882Y-5.7677
T5
X8.9094Y-4.3307
X8.07Y-3.58
X8.0709Y-4.5276
X8.0709Y-4.1339
T0
M30
