G04 #@! TF.GenerationSoftware,KiCad,Pcbnew,(5.0.1)-rc2*
G04 #@! TF.CreationDate,2018-11-18T14:41:54-07:00*
G04 #@! TF.ProjectId,PowerSupply,506F776572537570706C792E6B696361,rev?*
G04 #@! TF.SameCoordinates,Original*
G04 #@! TF.FileFunction,Copper,L1,Top,Signal*
G04 #@! TF.FilePolarity,Positive*
%FSLAX46Y46*%
G04 Gerber Fmt 4.6, Leading zero omitted, Abs format (unit mm)*
G04 Created by KiCad (PCBNEW (5.0.1)-rc2) date 11/18/2018 2:41:54 PM*
%MOMM*%
%LPD*%
G01*
G04 APERTURE LIST*
G04 #@! TA.AperFunction,ComponentPad*
%ADD10C,2.700000*%
G04 #@! TD*
G04 #@! TA.AperFunction,ComponentPad*
%ADD11C,1.574800*%
G04 #@! TD*
G04 #@! TA.AperFunction,SMDPad,CuDef*
%ADD12R,1.270000X0.610000*%
G04 #@! TD*
G04 #@! TA.AperFunction,SMDPad,CuDef*
%ADD13R,1.020000X0.610000*%
G04 #@! TD*
G04 #@! TA.AperFunction,SMDPad,CuDef*
%ADD14R,3.810000X3.910000*%
G04 #@! TD*
G04 #@! TA.AperFunction,SMDPad,CuDef*
%ADD15R,0.797560X1.198880*%
G04 #@! TD*
G04 #@! TA.AperFunction,ComponentPad*
%ADD16C,1.879600*%
G04 #@! TD*
G04 #@! TA.AperFunction,SMDPad,CuDef*
%ADD17R,0.706120X0.403860*%
G04 #@! TD*
G04 #@! TA.AperFunction,SMDPad,CuDef*
%ADD18R,1.300480X0.403860*%
G04 #@! TD*
G04 #@! TA.AperFunction,SMDPad,CuDef*
%ADD19R,1.724660X2.235200*%
G04 #@! TD*
G04 #@! TA.AperFunction,SMDPad,CuDef*
%ADD20R,1.300000X0.700000*%
G04 #@! TD*
G04 #@! TA.AperFunction,SMDPad,CuDef*
%ADD21R,0.700000X1.300000*%
G04 #@! TD*
G04 #@! TA.AperFunction,SMDPad,CuDef*
%ADD22R,0.400000X1.300000*%
G04 #@! TD*
G04 #@! TA.AperFunction,SMDPad,CuDef*
%ADD23R,0.850000X0.300000*%
G04 #@! TD*
G04 #@! TA.AperFunction,SMDPad,CuDef*
%ADD24R,0.300000X0.850000*%
G04 #@! TD*
G04 #@! TA.AperFunction,SMDPad,CuDef*
%ADD25R,1.000760X0.800100*%
G04 #@! TD*
G04 #@! TA.AperFunction,SMDPad,CuDef*
%ADD26R,1.010000X2.287000*%
G04 #@! TD*
G04 #@! TA.AperFunction,SMDPad,CuDef*
%ADD27R,1.010000X0.762000*%
G04 #@! TD*
G04 #@! TA.AperFunction,BGAPad,CuDef*
%ADD28C,2.500000*%
G04 #@! TD*
G04 #@! TA.AperFunction,Conductor*
%ADD29C,0.100000*%
G04 #@! TD*
G04 #@! TA.AperFunction,SMDPad,CuDef*
%ADD30C,1.250000*%
G04 #@! TD*
G04 #@! TA.AperFunction,ComponentPad*
%ADD31C,4.400000*%
G04 #@! TD*
G04 #@! TA.AperFunction,ComponentPad*
%ADD32C,0.700000*%
G04 #@! TD*
G04 #@! TA.AperFunction,SMDPad,CuDef*
%ADD33R,1.905000X0.248920*%
G04 #@! TD*
G04 #@! TA.AperFunction,ViaPad*
%ADD34C,0.800000*%
G04 #@! TD*
G04 #@! TA.AperFunction,Conductor*
%ADD35C,0.250000*%
G04 #@! TD*
G04 #@! TA.AperFunction,Conductor*
%ADD36C,1.750000*%
G04 #@! TD*
G04 #@! TA.AperFunction,Conductor*
%ADD37C,1.740000*%
G04 #@! TD*
G04 #@! TA.AperFunction,Conductor*
%ADD38C,0.254000*%
G04 #@! TD*
G04 APERTURE END LIST*
D10*
G04 #@! TO.P,J2,1*
G04 #@! TO.N,+3V3*
X236000000Y-91500000D03*
G04 #@! TO.P,J2,2*
X236000000Y-96500000D03*
G04 #@! TO.P,J2,3*
G04 #@! TO.N,N/C*
X236000000Y-101500000D03*
G04 #@! TO.P,J2,4*
G04 #@! TO.N,/5VA*
X236000000Y-106500000D03*
G04 #@! TO.P,J2,5*
G04 #@! TO.N,N/C*
X236000000Y-111500000D03*
G04 #@! TO.P,J2,6*
G04 #@! TO.N,/5VA*
X236000000Y-116500000D03*
G04 #@! TO.P,J2,7*
G04 #@! TO.N,GND*
X236000000Y-121500000D03*
G04 #@! TO.P,J2,8*
G04 #@! TO.N,Net-(J2-Pad8)*
X236000000Y-126500000D03*
G04 #@! TO.P,J2,9*
G04 #@! TO.N,5V_USB*
X236000000Y-131500000D03*
G04 #@! TO.P,J2,10*
G04 #@! TO.N,+12V*
X236000000Y-136500000D03*
G04 #@! TO.P,J2,11*
X236000000Y-141500000D03*
G04 #@! TO.P,J2,12*
G04 #@! TO.N,+3V3*
X236000000Y-146500000D03*
G04 #@! TO.P,J2,13*
X241000000Y-91500000D03*
G04 #@! TO.P,J2,14*
G04 #@! TO.N,N/C*
X241000000Y-96500000D03*
G04 #@! TO.P,J2,15*
G04 #@! TO.N,GND*
X241000000Y-101500000D03*
G04 #@! TO.P,J2,16*
G04 #@! TO.N,Net-(J2-Pad16)*
X241000000Y-106500000D03*
G04 #@! TO.P,J2,17*
G04 #@! TO.N,Net-(J2-Pad17)*
X241000000Y-111500000D03*
G04 #@! TO.P,J2,18*
G04 #@! TO.N,N/C*
X241000000Y-116500000D03*
G04 #@! TO.P,J2,19*
G04 #@! TO.N,GND*
X241000000Y-121500000D03*
G04 #@! TO.P,J2,20*
G04 #@! TO.N,N/C*
X241000000Y-126500000D03*
G04 #@! TO.P,J2,21*
G04 #@! TO.N,Net-(H1-Pad1)*
X241000000Y-131500000D03*
G04 #@! TO.P,J2,22*
G04 #@! TO.N,N/C*
X241000000Y-136500000D03*
G04 #@! TO.P,J2,23*
X241000000Y-141500000D03*
G04 #@! TO.P,J2,24*
X241000000Y-146500000D03*
G04 #@! TD*
D11*
G04 #@! TO.P,A1,9*
G04 #@! TO.N,5V_EN*
X206460000Y-131080000D03*
G04 #@! TO.P,A1,15*
G04 #@! TO.N,SPI_MISO_PINX*
X191220000Y-131080000D03*
G04 #@! TO.P,A1,16*
G04 #@! TO.N,SPI_Clk_PINX*
X191220000Y-146320000D03*
G04 #@! TO.P,A1,14*
G04 #@! TO.N,SPI_MOSI_PINX*
X193760000Y-131080000D03*
G04 #@! TO.P,A1,13*
G04 #@! TO.N,SPI_ADC_CS_PINX*
X196300000Y-131080000D03*
G04 #@! TO.P,A1,12*
G04 #@! TO.N,SPI_3V3_CS_PINX*
X198840000Y-131080000D03*
G04 #@! TO.P,A1,19*
G04 #@! TO.N,POK*
X198840000Y-146320000D03*
G04 #@! TO.P,A1,11*
G04 #@! TO.N,3V3_FINE_EN*
X201380000Y-131080000D03*
G04 #@! TO.P,A1,10*
G04 #@! TO.N,3V3_COURSE_EN*
X203920000Y-131080000D03*
G04 #@! TO.P,A1,8*
G04 #@! TO.N,12V_EN*
X209000000Y-131080000D03*
G04 #@! TO.P,A1,7*
G04 #@! TO.N,CNVST_PINX*
X211540000Y-131080000D03*
G04 #@! TO.P,A1,6*
G04 #@! TO.N,EOC_PINX*
X214080000Y-131080000D03*
G04 #@! TO.P,A1,5*
G04 #@! TO.N,N/C*
X216620000Y-131080000D03*
G04 #@! TO.P,A1,4*
G04 #@! TO.N,GND*
X219160000Y-131080000D03*
G04 #@! TO.P,A1,2*
G04 #@! TO.N,Net-(A1-Pad2)*
X224240000Y-131080000D03*
G04 #@! TO.P,A1,1*
G04 #@! TO.N,Net-(A1-Pad1)*
X226780000Y-131080000D03*
G04 #@! TO.P,A1,30*
G04 #@! TO.N,+3V3*
X226780000Y-146320000D03*
G04 #@! TD*
D12*
G04 #@! TO.P,Q1,1*
G04 #@! TO.N,/12VA_S*
X214670000Y-116905000D03*
G04 #@! TO.P,Q1,2*
X214670000Y-115635000D03*
G04 #@! TO.P,Q1,3*
X214670000Y-114365000D03*
G04 #@! TO.P,Q1,4*
G04 #@! TO.N,Net-(Q1-Pad4)*
X214670000Y-113095000D03*
D13*
G04 #@! TO.P,Q1,5*
G04 #@! TO.N,12V_Out*
X209205000Y-113095000D03*
X209205000Y-114365000D03*
X209205000Y-115635000D03*
X209205000Y-116905000D03*
D14*
X211310000Y-115000000D03*
G04 #@! TD*
D15*
G04 #@! TO.P,C3,2*
G04 #@! TO.N,Net-(C3-Pad2)*
X220401680Y-128100000D03*
G04 #@! TO.P,C3,1*
G04 #@! TO.N,GND*
X222200000Y-128100000D03*
G04 #@! TD*
D16*
G04 #@! TO.P,J1,1*
G04 #@! TO.N,Net-(A1-Pad1)*
X223500000Y-149300000D03*
G04 #@! TO.P,J1,2*
G04 #@! TO.N,Net-(A1-Pad2)*
X220960000Y-149300000D03*
G04 #@! TO.P,J1,3*
G04 #@! TO.N,GND*
X218420000Y-149300000D03*
G04 #@! TO.P,J1,4*
G04 #@! TO.N,+3V3*
X215880000Y-149300000D03*
G04 #@! TD*
G04 #@! TO.P,J3,1*
G04 #@! TO.N,Net-(J2-Pad16)*
X246000000Y-107660000D03*
G04 #@! TO.P,J3,2*
G04 #@! TO.N,Net-(J2-Pad17)*
X246000000Y-110200000D03*
G04 #@! TD*
D17*
G04 #@! TO.P,Q2,3*
G04 #@! TO.N,/3.3VA_D1*
X213464140Y-95966280D03*
X213464140Y-95316040D03*
X213464140Y-94665800D03*
X213464140Y-94015560D03*
D18*
G04 #@! TO.P,Q2,1*
G04 #@! TO.N,Net-(Q2-Pad1)*
X210202780Y-95966280D03*
G04 #@! TO.P,Q2,2*
G04 #@! TO.N,3V3_Out*
X210202780Y-95316040D03*
X210202780Y-94665800D03*
X210202780Y-94015560D03*
D19*
G04 #@! TO.P,Q2,3*
G04 #@! TO.N,/3.3VA_D1*
X212344000Y-94996000D03*
G04 #@! TD*
G04 #@! TO.P,Q3,3*
G04 #@! TO.N,/3.3VA_D2*
X212181660Y-88600000D03*
D18*
G04 #@! TO.P,Q3,2*
G04 #@! TO.N,3V3_Out*
X210040440Y-87619560D03*
X210040440Y-88269800D03*
X210040440Y-88920040D03*
G04 #@! TO.P,Q3,1*
G04 #@! TO.N,Net-(Q3-Pad1)*
X210040440Y-89570280D03*
D17*
G04 #@! TO.P,Q3,3*
G04 #@! TO.N,/3.3VA_D2*
X213301800Y-87619560D03*
X213301800Y-88269800D03*
X213301800Y-88920040D03*
X213301800Y-89570280D03*
G04 #@! TD*
G04 #@! TO.P,Q4,3*
G04 #@! TO.N,/5VA_D*
X214720140Y-105470280D03*
X214720140Y-104820040D03*
X214720140Y-104169800D03*
X214720140Y-103519560D03*
D18*
G04 #@! TO.P,Q4,1*
G04 #@! TO.N,Net-(Q4-Pad1)*
X211458780Y-105470280D03*
G04 #@! TO.P,Q4,2*
G04 #@! TO.N,5V_Out*
X211458780Y-104820040D03*
X211458780Y-104169800D03*
X211458780Y-103519560D03*
D19*
G04 #@! TO.P,Q4,3*
G04 #@! TO.N,/5VA_D*
X213600000Y-104500000D03*
G04 #@! TD*
D20*
G04 #@! TO.P,R7,1*
G04 #@! TO.N,+12V*
X217200000Y-110700000D03*
G04 #@! TO.P,R7,2*
G04 #@! TO.N,Net-(Q1-Pad4)*
X217200000Y-112600000D03*
G04 #@! TD*
D21*
G04 #@! TO.P,R11,2*
G04 #@! TO.N,5V_EN*
X205700000Y-108700000D03*
G04 #@! TO.P,R11,1*
G04 #@! TO.N,Net-(Q6-Pad1)*
X207600000Y-108700000D03*
G04 #@! TD*
G04 #@! TO.P,R12,2*
G04 #@! TO.N,12V_EN*
X205700000Y-110900000D03*
G04 #@! TO.P,R12,1*
G04 #@! TO.N,Net-(Q7-Pad1)*
X207600000Y-110900000D03*
G04 #@! TD*
G04 #@! TO.P,R14,1*
G04 #@! TO.N,POK*
X202600000Y-142800000D03*
G04 #@! TO.P,R14,2*
G04 #@! TO.N,GND*
X204500000Y-142800000D03*
G04 #@! TD*
G04 #@! TO.P,R15,2*
G04 #@! TO.N,Net-(J2-Pad8)*
X204500000Y-146100000D03*
G04 #@! TO.P,R15,1*
G04 #@! TO.N,POK*
X202600000Y-146100000D03*
G04 #@! TD*
D22*
G04 #@! TO.P,U1,1*
G04 #@! TO.N,/3.3V_A*
X217616000Y-88820000D03*
G04 #@! TO.P,U1,3*
G04 #@! TO.N,/3.3VA_D2*
X216616000Y-88820000D03*
D23*
G04 #@! TO.P,U1,5*
G04 #@! TO.N,GND*
X215466000Y-90320000D03*
G04 #@! TO.P,U1,6*
G04 #@! TO.N,N/C*
X215466000Y-90820000D03*
D24*
G04 #@! TO.P,U1,7*
X216166000Y-91520000D03*
G04 #@! TO.P,U1,8*
X216666000Y-91520000D03*
G04 #@! TO.P,U1,9*
X217166000Y-91520000D03*
G04 #@! TO.P,U1,10*
G04 #@! TO.N,Net-(U1-Pad10)*
X217666000Y-91520000D03*
D23*
G04 #@! TO.P,U1,11*
G04 #@! TO.N,N/C*
X218366000Y-90820000D03*
G04 #@! TO.P,U1,12*
G04 #@! TO.N,+3V3*
X218366000Y-90320000D03*
D22*
G04 #@! TO.P,U1,2*
G04 #@! TO.N,/3.3V_A*
X217216000Y-88820000D03*
G04 #@! TO.P,U1,4*
G04 #@! TO.N,/3.3VA_D2*
X216216000Y-88820000D03*
G04 #@! TD*
G04 #@! TO.P,U2,4*
G04 #@! TO.N,/5VA_D*
X219300000Y-104500000D03*
G04 #@! TO.P,U2,2*
G04 #@! TO.N,/5V_A*
X220300000Y-104500000D03*
D23*
G04 #@! TO.P,U2,12*
G04 #@! TO.N,+3V3*
X221450000Y-106000000D03*
G04 #@! TO.P,U2,11*
G04 #@! TO.N,N/C*
X221450000Y-106500000D03*
D24*
G04 #@! TO.P,U2,10*
G04 #@! TO.N,Net-(U2-Pad10)*
X220750000Y-107200000D03*
G04 #@! TO.P,U2,9*
G04 #@! TO.N,N/C*
X220250000Y-107200000D03*
G04 #@! TO.P,U2,8*
X219750000Y-107200000D03*
G04 #@! TO.P,U2,7*
X219250000Y-107200000D03*
D23*
G04 #@! TO.P,U2,6*
X218550000Y-106500000D03*
G04 #@! TO.P,U2,5*
G04 #@! TO.N,GND*
X218550000Y-106000000D03*
D22*
G04 #@! TO.P,U2,3*
G04 #@! TO.N,/5VA_D*
X219700000Y-104500000D03*
G04 #@! TO.P,U2,1*
G04 #@! TO.N,/5V_A*
X220700000Y-104500000D03*
G04 #@! TD*
D25*
G04 #@! TO.P,Q7,3*
G04 #@! TO.N,Net-(Q1-Pad4)*
X214600000Y-110000000D03*
G04 #@! TO.P,Q7,2*
G04 #@! TO.N,GND*
X212400360Y-110952500D03*
G04 #@! TO.P,Q7,1*
G04 #@! TO.N,Net-(Q7-Pad1)*
X212400360Y-109047500D03*
G04 #@! TD*
D26*
G04 #@! TO.P,U6,1*
G04 #@! TO.N,/3.3V_A*
X217416000Y-94995500D03*
G04 #@! TO.P,U6,4*
G04 #@! TO.N,/3.3VA_D1*
X215646000Y-94996000D03*
D27*
G04 #@! TO.P,U6,3*
G04 #@! TO.N,Net-(P1-Pad5)*
X215646000Y-96901500D03*
G04 #@! TO.P,U6,2*
G04 #@! TO.N,Net-(P1-Pad4)*
X217416000Y-96901500D03*
G04 #@! TD*
D28*
G04 #@! TO.P,H1,1*
G04 #@! TO.N,Net-(H1-Pad1)*
X246200000Y-131300000D03*
G04 #@! TD*
G04 #@! TO.P,H2,1*
G04 #@! TO.N,GND*
X245900000Y-121500000D03*
G04 #@! TD*
D22*
G04 #@! TO.P,U3,1*
G04 #@! TO.N,/12V_A*
X221616000Y-114998000D03*
G04 #@! TO.P,U3,3*
G04 #@! TO.N,/12VA_S*
X220616000Y-114998000D03*
D23*
G04 #@! TO.P,U3,5*
G04 #@! TO.N,GND*
X219466000Y-116498000D03*
G04 #@! TO.P,U3,6*
G04 #@! TO.N,N/C*
X219466000Y-116998000D03*
D24*
G04 #@! TO.P,U3,7*
X220166000Y-117698000D03*
G04 #@! TO.P,U3,8*
X220666000Y-117698000D03*
G04 #@! TO.P,U3,9*
X221166000Y-117698000D03*
G04 #@! TO.P,U3,10*
G04 #@! TO.N,Net-(U3-Pad10)*
X221666000Y-117698000D03*
D23*
G04 #@! TO.P,U3,11*
G04 #@! TO.N,N/C*
X222366000Y-116998000D03*
G04 #@! TO.P,U3,12*
G04 #@! TO.N,+3V3*
X222366000Y-116498000D03*
D22*
G04 #@! TO.P,U3,2*
G04 #@! TO.N,/12V_A*
X221216000Y-114998000D03*
G04 #@! TO.P,U3,4*
G04 #@! TO.N,/12VA_S*
X220216000Y-114998000D03*
G04 #@! TD*
D29*
G04 #@! TO.N,+3V3*
G04 #@! TO.C,F1*
G36*
X227148504Y-90626204D02*
X227172773Y-90629804D01*
X227196571Y-90635765D01*
X227219671Y-90644030D01*
X227241849Y-90654520D01*
X227262893Y-90667133D01*
X227282598Y-90681747D01*
X227300777Y-90698223D01*
X227317253Y-90716402D01*
X227331867Y-90736107D01*
X227344480Y-90757151D01*
X227354970Y-90779329D01*
X227363235Y-90802429D01*
X227369196Y-90826227D01*
X227372796Y-90850496D01*
X227374000Y-90875000D01*
X227374000Y-92125000D01*
X227372796Y-92149504D01*
X227369196Y-92173773D01*
X227363235Y-92197571D01*
X227354970Y-92220671D01*
X227344480Y-92242849D01*
X227331867Y-92263893D01*
X227317253Y-92283598D01*
X227300777Y-92301777D01*
X227282598Y-92318253D01*
X227262893Y-92332867D01*
X227241849Y-92345480D01*
X227219671Y-92355970D01*
X227196571Y-92364235D01*
X227172773Y-92370196D01*
X227148504Y-92373796D01*
X227124000Y-92375000D01*
X226374000Y-92375000D01*
X226349496Y-92373796D01*
X226325227Y-92370196D01*
X226301429Y-92364235D01*
X226278329Y-92355970D01*
X226256151Y-92345480D01*
X226235107Y-92332867D01*
X226215402Y-92318253D01*
X226197223Y-92301777D01*
X226180747Y-92283598D01*
X226166133Y-92263893D01*
X226153520Y-92242849D01*
X226143030Y-92220671D01*
X226134765Y-92197571D01*
X226128804Y-92173773D01*
X226125204Y-92149504D01*
X226124000Y-92125000D01*
X226124000Y-90875000D01*
X226125204Y-90850496D01*
X226128804Y-90826227D01*
X226134765Y-90802429D01*
X226143030Y-90779329D01*
X226153520Y-90757151D01*
X226166133Y-90736107D01*
X226180747Y-90716402D01*
X226197223Y-90698223D01*
X226215402Y-90681747D01*
X226235107Y-90667133D01*
X226256151Y-90654520D01*
X226278329Y-90644030D01*
X226301429Y-90635765D01*
X226325227Y-90629804D01*
X226349496Y-90626204D01*
X226374000Y-90625000D01*
X227124000Y-90625000D01*
X227148504Y-90626204D01*
X227148504Y-90626204D01*
G37*
D30*
G04 #@! TD*
G04 #@! TO.P,F1,1*
G04 #@! TO.N,+3V3*
X226749000Y-91500000D03*
D29*
G04 #@! TO.N,/3.3V_A*
G04 #@! TO.C,F1*
G36*
X224348504Y-90626204D02*
X224372773Y-90629804D01*
X224396571Y-90635765D01*
X224419671Y-90644030D01*
X224441849Y-90654520D01*
X224462893Y-90667133D01*
X224482598Y-90681747D01*
X224500777Y-90698223D01*
X224517253Y-90716402D01*
X224531867Y-90736107D01*
X224544480Y-90757151D01*
X224554970Y-90779329D01*
X224563235Y-90802429D01*
X224569196Y-90826227D01*
X224572796Y-90850496D01*
X224574000Y-90875000D01*
X224574000Y-92125000D01*
X224572796Y-92149504D01*
X224569196Y-92173773D01*
X224563235Y-92197571D01*
X224554970Y-92220671D01*
X224544480Y-92242849D01*
X224531867Y-92263893D01*
X224517253Y-92283598D01*
X224500777Y-92301777D01*
X224482598Y-92318253D01*
X224462893Y-92332867D01*
X224441849Y-92345480D01*
X224419671Y-92355970D01*
X224396571Y-92364235D01*
X224372773Y-92370196D01*
X224348504Y-92373796D01*
X224324000Y-92375000D01*
X223574000Y-92375000D01*
X223549496Y-92373796D01*
X223525227Y-92370196D01*
X223501429Y-92364235D01*
X223478329Y-92355970D01*
X223456151Y-92345480D01*
X223435107Y-92332867D01*
X223415402Y-92318253D01*
X223397223Y-92301777D01*
X223380747Y-92283598D01*
X223366133Y-92263893D01*
X223353520Y-92242849D01*
X223343030Y-92220671D01*
X223334765Y-92197571D01*
X223328804Y-92173773D01*
X223325204Y-92149504D01*
X223324000Y-92125000D01*
X223324000Y-90875000D01*
X223325204Y-90850496D01*
X223328804Y-90826227D01*
X223334765Y-90802429D01*
X223343030Y-90779329D01*
X223353520Y-90757151D01*
X223366133Y-90736107D01*
X223380747Y-90716402D01*
X223397223Y-90698223D01*
X223415402Y-90681747D01*
X223435107Y-90667133D01*
X223456151Y-90654520D01*
X223478329Y-90644030D01*
X223501429Y-90635765D01*
X223525227Y-90629804D01*
X223549496Y-90626204D01*
X223574000Y-90625000D01*
X224324000Y-90625000D01*
X224348504Y-90626204D01*
X224348504Y-90626204D01*
G37*
D30*
G04 #@! TD*
G04 #@! TO.P,F1,2*
G04 #@! TO.N,/3.3V_A*
X223949000Y-91500000D03*
D29*
G04 #@! TO.N,/5V_A*
G04 #@! TO.C,F2*
G36*
X226348504Y-103626204D02*
X226372773Y-103629804D01*
X226396571Y-103635765D01*
X226419671Y-103644030D01*
X226441849Y-103654520D01*
X226462893Y-103667133D01*
X226482598Y-103681747D01*
X226500777Y-103698223D01*
X226517253Y-103716402D01*
X226531867Y-103736107D01*
X226544480Y-103757151D01*
X226554970Y-103779329D01*
X226563235Y-103802429D01*
X226569196Y-103826227D01*
X226572796Y-103850496D01*
X226574000Y-103875000D01*
X226574000Y-105125000D01*
X226572796Y-105149504D01*
X226569196Y-105173773D01*
X226563235Y-105197571D01*
X226554970Y-105220671D01*
X226544480Y-105242849D01*
X226531867Y-105263893D01*
X226517253Y-105283598D01*
X226500777Y-105301777D01*
X226482598Y-105318253D01*
X226462893Y-105332867D01*
X226441849Y-105345480D01*
X226419671Y-105355970D01*
X226396571Y-105364235D01*
X226372773Y-105370196D01*
X226348504Y-105373796D01*
X226324000Y-105375000D01*
X225574000Y-105375000D01*
X225549496Y-105373796D01*
X225525227Y-105370196D01*
X225501429Y-105364235D01*
X225478329Y-105355970D01*
X225456151Y-105345480D01*
X225435107Y-105332867D01*
X225415402Y-105318253D01*
X225397223Y-105301777D01*
X225380747Y-105283598D01*
X225366133Y-105263893D01*
X225353520Y-105242849D01*
X225343030Y-105220671D01*
X225334765Y-105197571D01*
X225328804Y-105173773D01*
X225325204Y-105149504D01*
X225324000Y-105125000D01*
X225324000Y-103875000D01*
X225325204Y-103850496D01*
X225328804Y-103826227D01*
X225334765Y-103802429D01*
X225343030Y-103779329D01*
X225353520Y-103757151D01*
X225366133Y-103736107D01*
X225380747Y-103716402D01*
X225397223Y-103698223D01*
X225415402Y-103681747D01*
X225435107Y-103667133D01*
X225456151Y-103654520D01*
X225478329Y-103644030D01*
X225501429Y-103635765D01*
X225525227Y-103629804D01*
X225549496Y-103626204D01*
X225574000Y-103625000D01*
X226324000Y-103625000D01*
X226348504Y-103626204D01*
X226348504Y-103626204D01*
G37*
D30*
G04 #@! TD*
G04 #@! TO.P,F2,2*
G04 #@! TO.N,/5V_A*
X225949000Y-104500000D03*
D29*
G04 #@! TO.N,/5VA*
G04 #@! TO.C,F2*
G36*
X229148504Y-103626204D02*
X229172773Y-103629804D01*
X229196571Y-103635765D01*
X229219671Y-103644030D01*
X229241849Y-103654520D01*
X229262893Y-103667133D01*
X229282598Y-103681747D01*
X229300777Y-103698223D01*
X229317253Y-103716402D01*
X229331867Y-103736107D01*
X229344480Y-103757151D01*
X229354970Y-103779329D01*
X229363235Y-103802429D01*
X229369196Y-103826227D01*
X229372796Y-103850496D01*
X229374000Y-103875000D01*
X229374000Y-105125000D01*
X229372796Y-105149504D01*
X229369196Y-105173773D01*
X229363235Y-105197571D01*
X229354970Y-105220671D01*
X229344480Y-105242849D01*
X229331867Y-105263893D01*
X229317253Y-105283598D01*
X229300777Y-105301777D01*
X229282598Y-105318253D01*
X229262893Y-105332867D01*
X229241849Y-105345480D01*
X229219671Y-105355970D01*
X229196571Y-105364235D01*
X229172773Y-105370196D01*
X229148504Y-105373796D01*
X229124000Y-105375000D01*
X228374000Y-105375000D01*
X228349496Y-105373796D01*
X228325227Y-105370196D01*
X228301429Y-105364235D01*
X228278329Y-105355970D01*
X228256151Y-105345480D01*
X228235107Y-105332867D01*
X228215402Y-105318253D01*
X228197223Y-105301777D01*
X228180747Y-105283598D01*
X228166133Y-105263893D01*
X228153520Y-105242849D01*
X228143030Y-105220671D01*
X228134765Y-105197571D01*
X228128804Y-105173773D01*
X228125204Y-105149504D01*
X228124000Y-105125000D01*
X228124000Y-103875000D01*
X228125204Y-103850496D01*
X228128804Y-103826227D01*
X228134765Y-103802429D01*
X228143030Y-103779329D01*
X228153520Y-103757151D01*
X228166133Y-103736107D01*
X228180747Y-103716402D01*
X228197223Y-103698223D01*
X228215402Y-103681747D01*
X228235107Y-103667133D01*
X228256151Y-103654520D01*
X228278329Y-103644030D01*
X228301429Y-103635765D01*
X228325227Y-103629804D01*
X228349496Y-103626204D01*
X228374000Y-103625000D01*
X229124000Y-103625000D01*
X229148504Y-103626204D01*
X229148504Y-103626204D01*
G37*
D30*
G04 #@! TD*
G04 #@! TO.P,F2,1*
G04 #@! TO.N,/5VA*
X228749000Y-104500000D03*
D29*
G04 #@! TO.N,+12V*
G04 #@! TO.C,F3*
G36*
X229215504Y-114274204D02*
X229239773Y-114277804D01*
X229263571Y-114283765D01*
X229286671Y-114292030D01*
X229308849Y-114302520D01*
X229329893Y-114315133D01*
X229349598Y-114329747D01*
X229367777Y-114346223D01*
X229384253Y-114364402D01*
X229398867Y-114384107D01*
X229411480Y-114405151D01*
X229421970Y-114427329D01*
X229430235Y-114450429D01*
X229436196Y-114474227D01*
X229439796Y-114498496D01*
X229441000Y-114523000D01*
X229441000Y-115773000D01*
X229439796Y-115797504D01*
X229436196Y-115821773D01*
X229430235Y-115845571D01*
X229421970Y-115868671D01*
X229411480Y-115890849D01*
X229398867Y-115911893D01*
X229384253Y-115931598D01*
X229367777Y-115949777D01*
X229349598Y-115966253D01*
X229329893Y-115980867D01*
X229308849Y-115993480D01*
X229286671Y-116003970D01*
X229263571Y-116012235D01*
X229239773Y-116018196D01*
X229215504Y-116021796D01*
X229191000Y-116023000D01*
X228441000Y-116023000D01*
X228416496Y-116021796D01*
X228392227Y-116018196D01*
X228368429Y-116012235D01*
X228345329Y-116003970D01*
X228323151Y-115993480D01*
X228302107Y-115980867D01*
X228282402Y-115966253D01*
X228264223Y-115949777D01*
X228247747Y-115931598D01*
X228233133Y-115911893D01*
X228220520Y-115890849D01*
X228210030Y-115868671D01*
X228201765Y-115845571D01*
X228195804Y-115821773D01*
X228192204Y-115797504D01*
X228191000Y-115773000D01*
X228191000Y-114523000D01*
X228192204Y-114498496D01*
X228195804Y-114474227D01*
X228201765Y-114450429D01*
X228210030Y-114427329D01*
X228220520Y-114405151D01*
X228233133Y-114384107D01*
X228247747Y-114364402D01*
X228264223Y-114346223D01*
X228282402Y-114329747D01*
X228302107Y-114315133D01*
X228323151Y-114302520D01*
X228345329Y-114292030D01*
X228368429Y-114283765D01*
X228392227Y-114277804D01*
X228416496Y-114274204D01*
X228441000Y-114273000D01*
X229191000Y-114273000D01*
X229215504Y-114274204D01*
X229215504Y-114274204D01*
G37*
D30*
G04 #@! TD*
G04 #@! TO.P,F3,1*
G04 #@! TO.N,+12V*
X228816000Y-115148000D03*
D29*
G04 #@! TO.N,/12V_A*
G04 #@! TO.C,F3*
G36*
X226415504Y-114274204D02*
X226439773Y-114277804D01*
X226463571Y-114283765D01*
X226486671Y-114292030D01*
X226508849Y-114302520D01*
X226529893Y-114315133D01*
X226549598Y-114329747D01*
X226567777Y-114346223D01*
X226584253Y-114364402D01*
X226598867Y-114384107D01*
X226611480Y-114405151D01*
X226621970Y-114427329D01*
X226630235Y-114450429D01*
X226636196Y-114474227D01*
X226639796Y-114498496D01*
X226641000Y-114523000D01*
X226641000Y-115773000D01*
X226639796Y-115797504D01*
X226636196Y-115821773D01*
X226630235Y-115845571D01*
X226621970Y-115868671D01*
X226611480Y-115890849D01*
X226598867Y-115911893D01*
X226584253Y-115931598D01*
X226567777Y-115949777D01*
X226549598Y-115966253D01*
X226529893Y-115980867D01*
X226508849Y-115993480D01*
X226486671Y-116003970D01*
X226463571Y-116012235D01*
X226439773Y-116018196D01*
X226415504Y-116021796D01*
X226391000Y-116023000D01*
X225641000Y-116023000D01*
X225616496Y-116021796D01*
X225592227Y-116018196D01*
X225568429Y-116012235D01*
X225545329Y-116003970D01*
X225523151Y-115993480D01*
X225502107Y-115980867D01*
X225482402Y-115966253D01*
X225464223Y-115949777D01*
X225447747Y-115931598D01*
X225433133Y-115911893D01*
X225420520Y-115890849D01*
X225410030Y-115868671D01*
X225401765Y-115845571D01*
X225395804Y-115821773D01*
X225392204Y-115797504D01*
X225391000Y-115773000D01*
X225391000Y-114523000D01*
X225392204Y-114498496D01*
X225395804Y-114474227D01*
X225401765Y-114450429D01*
X225410030Y-114427329D01*
X225420520Y-114405151D01*
X225433133Y-114384107D01*
X225447747Y-114364402D01*
X225464223Y-114346223D01*
X225482402Y-114329747D01*
X225502107Y-114315133D01*
X225523151Y-114302520D01*
X225545329Y-114292030D01*
X225568429Y-114283765D01*
X225592227Y-114277804D01*
X225616496Y-114274204D01*
X225641000Y-114273000D01*
X226391000Y-114273000D01*
X226415504Y-114274204D01*
X226415504Y-114274204D01*
G37*
D30*
G04 #@! TD*
G04 #@! TO.P,F3,2*
G04 #@! TO.N,/12V_A*
X226016000Y-115148000D03*
D31*
G04 #@! TO.P,H4,1*
G04 #@! TO.N,5V_Out*
X205000000Y-105000000D03*
D32*
X206650000Y-105000000D03*
X206166726Y-106166726D03*
X205000000Y-106650000D03*
X203833274Y-106166726D03*
X203350000Y-105000000D03*
X203833274Y-103833274D03*
X205000000Y-103350000D03*
X206166726Y-103833274D03*
G04 #@! TD*
D31*
G04 #@! TO.P,H5,1*
G04 #@! TO.N,12V_Out*
X205000000Y-115000000D03*
D32*
X206650000Y-115000000D03*
X206166726Y-116166726D03*
X205000000Y-116650000D03*
X203833274Y-116166726D03*
X203350000Y-115000000D03*
X203833274Y-113833274D03*
X205000000Y-113350000D03*
X206166726Y-113833274D03*
G04 #@! TD*
G04 #@! TO.P,H6,1*
G04 #@! TO.N,3V3_Out*
X206144726Y-89765274D03*
X204978000Y-89282000D03*
X203811274Y-89765274D03*
X203328000Y-90932000D03*
X203811274Y-92098726D03*
X204978000Y-92582000D03*
X206144726Y-92098726D03*
X206628000Y-90932000D03*
D31*
X204978000Y-90932000D03*
G04 #@! TD*
D33*
G04 #@! TO.P,P1,1*
G04 #@! TO.N,SPI_Clk_PINX*
X214200000Y-100101140D03*
G04 #@! TO.P,P1,2*
G04 #@! TO.N,SPI_MOSI_PINX*
X214200000Y-99600760D03*
G04 #@! TO.P,P1,3*
G04 #@! TO.N,GND*
X214200000Y-99100380D03*
G04 #@! TO.P,P1,4*
G04 #@! TO.N,Net-(P1-Pad4)*
X214200000Y-98600000D03*
G04 #@! TO.P,P1,5*
G04 #@! TO.N,Net-(P1-Pad5)*
X214200000Y-98099620D03*
G04 #@! TO.P,P1,8*
G04 #@! TO.N,3V3_Fine_Out*
X209998840Y-99100380D03*
G04 #@! TO.P,P1,9*
G04 #@! TO.N,+3V3*
X209998840Y-99600760D03*
G04 #@! TO.P,P1,10*
G04 #@! TO.N,SPI_3V3_CS_PINX*
X209998840Y-100101140D03*
G04 #@! TD*
D31*
G04 #@! TO.P,H7,1*
G04 #@! TO.N,GND*
X226300000Y-110000000D03*
D32*
X227950000Y-110000000D03*
X227466726Y-111166726D03*
X226300000Y-111650000D03*
X225133274Y-111166726D03*
X224650000Y-110000000D03*
X225133274Y-108833274D03*
X226300000Y-108350000D03*
X227466726Y-108833274D03*
G04 #@! TD*
D34*
G04 #@! TO.N,GND*
X218200000Y-122900000D03*
X222199160Y-128100000D03*
X214200000Y-90300000D03*
X208200180Y-91047500D03*
X217112653Y-99112653D03*
X213250000Y-120900000D03*
X215514568Y-107600000D03*
X212800000Y-106800000D03*
X223200000Y-120400000D03*
X218100000Y-118100000D03*
X228600000Y-124925001D03*
G04 #@! TO.N,Net-(C3-Pad2)*
X220400840Y-128100000D03*
G04 #@! TO.N,+3V3*
X220575221Y-90326622D03*
X223700000Y-116500000D03*
X226700000Y-124200000D03*
G04 #@! TO.N,+12V*
X228816000Y-115148000D03*
G04 #@! TO.N,12V_Out*
X208000000Y-118500000D03*
G04 #@! TO.N,5V_Out*
X205500000Y-107300000D03*
G04 #@! TO.N,Net-(Q6-Pad1)*
X209300180Y-108752500D03*
G04 #@! TO.N,3V3_COURSE_EN*
X202200000Y-126100000D03*
G04 #@! TO.N,3V3_FINE_EN*
X203100000Y-101300000D03*
G04 #@! TO.N,Net-(U2-Pad10)*
X220800000Y-110800000D03*
G04 #@! TO.N,Net-(U3-Pad10)*
X215200000Y-122100000D03*
G04 #@! TO.N,CNVST_PINX*
X219500000Y-120000000D03*
G04 #@! TO.N,EOC_PINX*
X217200000Y-128000000D03*
G04 #@! TO.N,Net-(Q2-Pad1)*
X208600000Y-96300000D03*
G04 #@! TO.N,Net-(Q3-Pad1)*
X210200000Y-90600000D03*
G04 #@! TO.N,Net-(Q4-Pad1)*
X211500000Y-106600000D03*
G04 #@! TO.N,+3V3*
X238600000Y-132400000D03*
X238600000Y-122225000D03*
X238600000Y-101200000D03*
X223100000Y-106000000D03*
G04 #@! TO.N,Net-(U1-Pad10)*
X217700000Y-92800000D03*
G04 #@! TO.N,3V3_Fine_Out*
X203300000Y-99375370D03*
G04 #@! TD*
D35*
G04 #@! TO.N,GND*
X219419820Y-131080000D02*
X219160000Y-131080000D01*
X222199160Y-128300660D02*
X219419820Y-131080000D01*
X222199160Y-128100000D02*
X222199160Y-128300660D01*
X218372601Y-131867399D02*
X219160000Y-131080000D01*
X218047599Y-132192401D02*
X218372601Y-131867399D01*
X215707599Y-132192401D02*
X218047599Y-132192401D01*
X205100000Y-142800000D02*
X215707599Y-132192401D01*
X244132234Y-121500000D02*
X241000000Y-121500000D01*
X245900000Y-121500000D02*
X244132234Y-121500000D01*
X239090812Y-121500000D02*
X236000000Y-121500000D01*
X241000000Y-121500000D02*
X239090812Y-121500000D01*
X215466000Y-90320000D02*
X214220000Y-90320000D01*
X214220000Y-90320000D02*
X214200000Y-90300000D01*
X212500690Y-110952500D02*
X213400000Y-110053190D01*
X212400360Y-110952500D02*
X212500690Y-110952500D01*
X217875000Y-106000000D02*
X218550000Y-106000000D01*
X217114568Y-106000000D02*
X217875000Y-106000000D01*
X213400000Y-110053190D02*
X213400000Y-109714568D01*
X215402500Y-99100380D02*
X215402880Y-99100000D01*
X214200000Y-99100380D02*
X215402500Y-99100380D01*
X215402880Y-99100000D02*
X217100000Y-99100000D01*
X217100000Y-99100000D02*
X217112653Y-99112653D01*
X213487070Y-120900000D02*
X213250000Y-120900000D01*
X205100000Y-142800000D02*
X204500000Y-142800000D01*
X211251906Y-142800000D02*
X205100000Y-142800000D01*
X217751906Y-149300000D02*
X211251906Y-142800000D01*
X218420000Y-149300000D02*
X217751906Y-149300000D01*
X213400000Y-109714568D02*
X215514568Y-107600000D01*
X215514568Y-107600000D02*
X217114568Y-106000000D01*
X213600000Y-107600000D02*
X215514568Y-107600000D01*
X212800000Y-106800000D02*
X213600000Y-107600000D01*
X218791000Y-116498000D02*
X219466000Y-116498000D01*
X218100000Y-117189000D02*
X218791000Y-116498000D01*
X218100000Y-118100000D02*
X218100000Y-117189000D01*
X228600000Y-124925001D02*
X226351999Y-124925001D01*
X226351999Y-124925001D02*
X225974999Y-124548001D01*
X225974999Y-124548001D02*
X225974999Y-123851999D01*
X225974999Y-123851999D02*
X226313499Y-123513499D01*
X226313499Y-123513499D02*
X223200000Y-120400000D01*
X225820998Y-111679002D02*
X225700000Y-111558004D01*
D36*
X229800000Y-111700000D02*
X226300000Y-110000000D01*
X233300000Y-117000000D02*
X229800000Y-111700000D01*
X236000000Y-121500000D02*
X234650001Y-120150001D01*
X234650001Y-120150001D02*
X233300000Y-117000000D01*
D35*
G04 #@! TO.N,Net-(C3-Pad2)*
X220401680Y-128100000D02*
X220400840Y-128100000D01*
G04 #@! TO.N,+3V3*
X208786888Y-99651130D02*
X208500000Y-99938018D01*
X209998840Y-99600760D02*
X209998840Y-99651130D01*
X209998840Y-99651130D02*
X208786888Y-99651130D01*
X208721339Y-100485601D02*
X209635738Y-101400000D01*
X208721339Y-100121339D02*
X208721339Y-100485601D01*
X208500000Y-99938018D02*
X208538018Y-99938018D01*
X208538018Y-99938018D02*
X208721339Y-100121339D01*
X229600000Y-101400000D02*
X232000000Y-99000000D01*
X241000000Y-93409188D02*
X241000000Y-91500000D01*
X241000000Y-93979002D02*
X241000000Y-93409188D01*
X235979002Y-99000000D02*
X241000000Y-93979002D01*
X232000000Y-99000000D02*
X235979002Y-99000000D01*
X227500000Y-102500000D02*
X228600000Y-101400000D01*
X227500000Y-104762190D02*
X227500000Y-102500000D01*
X226262190Y-106000000D02*
X227500000Y-104762190D01*
X209635738Y-101400000D02*
X228600000Y-101400000D01*
X228600000Y-101400000D02*
X229600000Y-101400000D01*
X218366000Y-90320000D02*
X220568599Y-90320000D01*
X220568599Y-90320000D02*
X220575221Y-90326622D01*
X222366000Y-116498000D02*
X223698000Y-116498000D01*
X223698000Y-116498000D02*
X223700000Y-116500000D01*
X223400000Y-106000000D02*
X226262190Y-106000000D01*
X224099999Y-116899999D02*
X223700000Y-116500000D01*
X227099999Y-119899999D02*
X224099999Y-116899999D01*
X227099999Y-123800001D02*
X227099999Y-119899999D01*
X226700000Y-124200000D02*
X227099999Y-123800001D01*
G04 #@! TO.N,+12V*
X228816000Y-116123000D02*
X228816000Y-115148000D01*
D36*
X236000000Y-136500000D02*
X232700000Y-133200000D01*
X232700000Y-136290812D02*
X232700000Y-133200000D01*
X236000000Y-139590812D02*
X232700000Y-136290812D01*
X236000000Y-141500000D02*
X236000000Y-139590812D01*
D35*
G04 #@! TO.N,Net-(H1-Pad1)*
X246000000Y-131500000D02*
X246200000Y-131300000D01*
X241000000Y-131500000D02*
X246000000Y-131500000D01*
G04 #@! TO.N,Net-(A1-Pad1)*
X223500000Y-134360000D02*
X223500000Y-149300000D01*
X226780000Y-131080000D02*
X223500000Y-134360000D01*
G04 #@! TO.N,Net-(A1-Pad2)*
X220960000Y-134360000D02*
X220960000Y-149300000D01*
X224240000Y-131080000D02*
X220960000Y-134360000D01*
G04 #@! TO.N,Net-(J2-Pad8)*
X204500000Y-147000000D02*
X208300000Y-150800000D01*
X204500000Y-146100000D02*
X204500000Y-147000000D01*
X237349999Y-127849999D02*
X236000000Y-126500000D01*
X237675001Y-128175001D02*
X237349999Y-127849999D01*
X237600000Y-132379002D02*
X237675001Y-132304001D01*
X237600000Y-135620998D02*
X237600000Y-132379002D01*
X237675001Y-135695999D02*
X237600000Y-135620998D01*
X237600000Y-137379002D02*
X237675001Y-137304001D01*
X237675001Y-132304001D02*
X237675001Y-128175001D01*
X237600000Y-140620998D02*
X237600000Y-137379002D01*
X237675001Y-140695999D02*
X237600000Y-140620998D01*
X237675001Y-142304001D02*
X237675001Y-140695999D01*
X237600000Y-142379002D02*
X237675001Y-142304001D01*
X237675001Y-145695999D02*
X237600000Y-145620998D01*
X237600000Y-145620998D02*
X237600000Y-142379002D01*
X237675001Y-147304001D02*
X237675001Y-145695999D01*
X237675001Y-137304001D02*
X237675001Y-135695999D01*
X234179002Y-150800000D02*
X237675001Y-147304001D01*
X208300000Y-150800000D02*
X234179002Y-150800000D01*
G04 #@! TO.N,Net-(J2-Pad16)*
X244840000Y-106500000D02*
X246000000Y-107660000D01*
X241000000Y-106500000D02*
X244840000Y-106500000D01*
G04 #@! TO.N,Net-(J2-Pad17)*
X244700000Y-111500000D02*
X246000000Y-110200000D01*
X241000000Y-111500000D02*
X244700000Y-111500000D01*
G04 #@! TO.N,SPI_Clk_PINX*
X214200000Y-100101140D02*
X212301140Y-100101140D01*
X212301140Y-100101140D02*
X211900000Y-99700000D01*
X211900000Y-99700000D02*
X211900000Y-97650010D01*
X211900000Y-97650010D02*
X199949990Y-97650010D01*
X199949990Y-97650010D02*
X199400000Y-98200000D01*
X199400000Y-98200000D02*
X199300000Y-98300000D01*
X192007399Y-145532601D02*
X191220000Y-146320000D01*
X194872401Y-142667599D02*
X192007399Y-145532601D01*
X194872401Y-103872401D02*
X194872401Y-142667599D01*
X199400000Y-98200000D02*
X194900000Y-103100000D01*
X194900000Y-103100000D02*
X194872401Y-103872401D01*
G04 #@! TO.N,SPI_MOSI_PINX*
X193760000Y-102940000D02*
X193760000Y-131080000D01*
X214200000Y-99600760D02*
X213000760Y-99600760D01*
X213000760Y-99600760D02*
X212600000Y-99200000D01*
X212600000Y-99200000D02*
X212600000Y-97300000D01*
X212600000Y-97300000D02*
X212500000Y-97200000D01*
X212500000Y-97200000D02*
X199600000Y-97100000D01*
X199600000Y-97100000D02*
X193760000Y-102940000D01*
G04 #@! TO.N,Net-(P1-Pad4)*
X217416000Y-96901500D02*
X217416000Y-97284000D01*
X215000000Y-98600000D02*
X216600000Y-98600000D01*
X217416000Y-97784000D02*
X217416000Y-96901500D01*
X216600000Y-98600000D02*
X217416000Y-97784000D01*
G04 #@! TO.N,12V_Out*
X205635000Y-114365000D02*
X205000000Y-115000000D01*
X209205000Y-113095000D02*
X209205000Y-113195000D01*
X209205000Y-113195000D02*
X208900000Y-113500000D01*
X209815000Y-113500000D02*
X209205000Y-113500000D01*
X211310000Y-114995000D02*
X209815000Y-113500000D01*
X211310000Y-115000000D02*
X211310000Y-114995000D01*
X209205000Y-113095000D02*
X209205000Y-113500000D01*
X209205000Y-113500000D02*
X209205000Y-114365000D01*
X209205000Y-115395000D02*
X209205000Y-115635000D01*
X209110000Y-115300000D02*
X209205000Y-115395000D01*
X211105000Y-115205000D02*
X211310000Y-115000000D01*
X209205000Y-115205000D02*
X211105000Y-115205000D01*
X209110000Y-115300000D02*
X209205000Y-115205000D01*
X208435000Y-115300000D02*
X207500000Y-114365000D01*
X209110000Y-115300000D02*
X208435000Y-115300000D01*
D36*
X207500000Y-114365000D02*
X205635000Y-114365000D01*
D35*
X209205000Y-113095000D02*
X209005000Y-113095000D01*
X209005000Y-113095000D02*
X208700000Y-113400000D01*
X208700000Y-114165000D02*
X208500000Y-114365000D01*
X208700000Y-113400000D02*
X208700000Y-114165000D01*
D36*
X209205000Y-114365000D02*
X208500000Y-114365000D01*
X208500000Y-114365000D02*
X207500000Y-114365000D01*
X208400000Y-116000000D02*
X205000000Y-115000000D01*
X209205000Y-116905000D02*
X208400000Y-116000000D01*
D35*
X209000000Y-115635000D02*
X209205000Y-115635000D01*
X208000000Y-116635000D02*
X209000000Y-115635000D01*
X208000000Y-118500000D02*
X208000000Y-116635000D01*
G04 #@! TO.N,Net-(Q1-Pad4)*
X214800180Y-112964820D02*
X214670000Y-113095000D01*
X214600000Y-113025000D02*
X214670000Y-113095000D01*
X214600000Y-110000000D02*
X214600000Y-113025000D01*
D37*
G04 #@! TO.N,3V3_Out*
X207848200Y-88061800D02*
X204978000Y-90932000D01*
D36*
X210022440Y-88061800D02*
X207848200Y-88061800D01*
X208711800Y-94665800D02*
X204978000Y-90932000D01*
X210202780Y-94665800D02*
X208711800Y-94665800D01*
D35*
G04 #@! TO.N,5V_Out*
X205830200Y-104169800D02*
X205000000Y-105000000D01*
D36*
X211458780Y-104169800D02*
X205830200Y-104169800D01*
D35*
X205000000Y-106234315D02*
X205000000Y-105000000D01*
X205500000Y-106734315D02*
X205000000Y-106234315D01*
X205500000Y-107300000D02*
X205500000Y-106734315D01*
G04 #@! TO.N,Net-(Q6-Pad1)*
X207600000Y-108700000D02*
X209247680Y-108700000D01*
X209247680Y-108700000D02*
X209300180Y-108752500D01*
G04 #@! TO.N,Net-(Q7-Pad1)*
X212300030Y-109047500D02*
X212400360Y-109047500D01*
X211649980Y-109697550D02*
X212300030Y-109047500D01*
X211649980Y-109797880D02*
X211649980Y-109697550D01*
X210547860Y-110900000D02*
X211649980Y-109797880D01*
X207600000Y-110900000D02*
X210547860Y-110900000D01*
G04 #@! TO.N,SPI_3V3_CS_PINX*
X211160422Y-100101140D02*
X211300000Y-99961562D01*
X209998840Y-100101140D02*
X211160422Y-100101140D01*
X211210792Y-98650370D02*
X202849630Y-98650370D01*
X211300000Y-99961562D02*
X211300000Y-98739578D01*
X211300000Y-98739578D02*
X211210792Y-98650370D01*
X198052601Y-130292601D02*
X198840000Y-131080000D01*
X198049991Y-130289991D02*
X198052601Y-130292601D01*
X198049991Y-103450009D02*
X198049991Y-130289991D01*
X202849630Y-98650370D02*
X198049991Y-103450009D01*
G04 #@! TO.N,3V3_COURSE_EN*
X202200000Y-129360000D02*
X203920000Y-131080000D01*
X202200000Y-126100000D02*
X202200000Y-129360000D01*
G04 #@! TO.N,5V_EN*
X205100000Y-108700000D02*
X201700000Y-112100000D01*
X205700000Y-108700000D02*
X205100000Y-108700000D01*
X201700000Y-112100000D02*
X201700000Y-123400000D01*
X206460000Y-128160000D02*
X206460000Y-131080000D01*
X206300000Y-128000000D02*
X206460000Y-128160000D01*
X206300000Y-128000000D02*
X206400000Y-128100000D01*
X201700000Y-123400000D02*
X206300000Y-128000000D01*
G04 #@! TO.N,12V_EN*
X204700000Y-110900000D02*
X202150010Y-113449990D01*
X205700000Y-110900000D02*
X204700000Y-110900000D01*
X208212601Y-130292601D02*
X209000000Y-131080000D01*
X206910010Y-128990010D02*
X208212601Y-130292601D01*
X206910010Y-127973600D02*
X206910010Y-128990010D01*
X202150010Y-123213600D02*
X206910010Y-127973600D01*
X202150010Y-113449990D02*
X202150010Y-123213600D01*
G04 #@! TO.N,3V3_FINE_EN*
X203100000Y-101300000D02*
X200100000Y-104300000D01*
X200100000Y-129800000D02*
X201380000Y-131080000D01*
X200100000Y-104300000D02*
X200100000Y-129800000D01*
G04 #@! TO.N,POK*
X199060000Y-146100000D02*
X198840000Y-146320000D01*
X202600000Y-146100000D02*
X199060000Y-146100000D01*
X202600000Y-146100000D02*
X202600000Y-142800000D01*
G04 #@! TO.N,Net-(U2-Pad10)*
X220800000Y-110800000D02*
X220750000Y-108250000D01*
X220750000Y-108250000D02*
X220750000Y-107200000D01*
G04 #@! TO.N,Net-(U3-Pad10)*
X221666000Y-118358002D02*
X220824002Y-119200000D01*
X221666000Y-117698000D02*
X221666000Y-118358002D01*
X220824002Y-119200000D02*
X216800000Y-119200000D01*
X216800000Y-119200000D02*
X215200000Y-120800000D01*
X215200000Y-120800000D02*
X215200000Y-122100000D01*
G04 #@! TO.N,CNVST_PINX*
X219400000Y-124400000D02*
X219500000Y-120000000D01*
X211540000Y-131080000D02*
X219400000Y-124400000D01*
G04 #@! TO.N,EOC_PINX*
X214120000Y-131080000D02*
X214080000Y-131080000D01*
X217200000Y-128000000D02*
X214120000Y-131080000D01*
G04 #@! TO.N,Net-(Q2-Pad1)*
X210200000Y-95969060D02*
X210202780Y-95966280D01*
X209869060Y-96300000D02*
X210202780Y-95966280D01*
X208600000Y-96300000D02*
X209869060Y-96300000D01*
G04 #@! TO.N,Net-(Q3-Pad1)*
X210200000Y-89729840D02*
X210040440Y-89570280D01*
X210200000Y-90600000D02*
X210200000Y-89729840D01*
G04 #@! TO.N,Net-(Q4-Pad1)*
X211500000Y-105511500D02*
X211458780Y-105470280D01*
X211500000Y-106600000D02*
X211500000Y-105511500D01*
G04 #@! TO.N,Net-(P1-Pad5)*
X214200000Y-98099620D02*
X215300380Y-98099620D01*
X215646000Y-97754000D02*
X215646000Y-96901500D01*
X215300380Y-98099620D02*
X215646000Y-97754000D01*
D36*
G04 #@! TO.N,+3V3*
X231000000Y-91500000D02*
X229700000Y-91500000D01*
X236000000Y-96500000D02*
X231000000Y-91500000D01*
X236000000Y-91500000D02*
X229700000Y-91500000D01*
X229700000Y-91500000D02*
X226749000Y-91500000D01*
D35*
X238600000Y-132400000D02*
X238600000Y-122225000D01*
X238600000Y-101200000D02*
X238600000Y-97900000D01*
X237400000Y-97900000D02*
X236000000Y-96500000D01*
X238600000Y-97900000D02*
X237400000Y-97900000D01*
X239090812Y-91500000D02*
X236000000Y-91500000D01*
X241000000Y-91500000D02*
X239090812Y-91500000D01*
X221450000Y-106000000D02*
X223100000Y-106000000D01*
X223100000Y-106000000D02*
X223400000Y-106000000D01*
G04 #@! TO.N,+12V*
X228120290Y-114452290D02*
X228816000Y-115148000D01*
X227465990Y-113797990D02*
X228120290Y-114452290D01*
X222724988Y-113797990D02*
X227465990Y-113797990D01*
X219626998Y-110700000D02*
X222724988Y-113797990D01*
X217200000Y-110700000D02*
X219626998Y-110700000D01*
D36*
X231100000Y-119000000D02*
X228816000Y-115148000D01*
X232700000Y-133200000D02*
X231100000Y-119000000D01*
D35*
G04 #@! TO.N,Net-(Q1-Pad4)*
X216705000Y-113095000D02*
X217200000Y-112600000D01*
X214670000Y-113095000D02*
X216705000Y-113095000D01*
G04 #@! TO.N,Net-(U1-Pad10)*
X217700000Y-91554000D02*
X217666000Y-91520000D01*
X217700000Y-92800000D02*
X217700000Y-91554000D01*
D36*
G04 #@! TO.N,/5VA*
X234000000Y-104500000D02*
X236000000Y-106500000D01*
X228749000Y-104500000D02*
X234000000Y-104500000D01*
X233100000Y-108851000D02*
X228749000Y-104500000D01*
X236000000Y-116500000D02*
X233100000Y-112100000D01*
X233100000Y-112100000D02*
X233100000Y-108851000D01*
G04 #@! TO.N,/3.3V_A*
X220453500Y-94995500D02*
X223949000Y-91500000D01*
X218300000Y-94995500D02*
X220453500Y-94995500D01*
X221100000Y-88800000D02*
X217891001Y-88820000D01*
X223949000Y-91500000D02*
X223253290Y-90804290D01*
X223253290Y-90804290D02*
X221100000Y-88800000D01*
D35*
X217416000Y-94995500D02*
X218300000Y-94995500D01*
D36*
G04 #@! TO.N,/5V_A*
X225224000Y-104500000D02*
X220975001Y-104500000D01*
X225949000Y-104500000D02*
X225224000Y-104500000D01*
G04 #@! TO.N,/12V_A*
X225141000Y-114998000D02*
X221891001Y-114998000D01*
X225291000Y-115148000D02*
X225141000Y-114998000D01*
X226016000Y-115148000D02*
X225291000Y-115148000D01*
G04 #@! TO.N,/12VA_S*
X217692000Y-114998000D02*
X219940991Y-114998000D01*
X217055000Y-115635000D02*
X217692000Y-114998000D01*
X215785000Y-116905000D02*
X217055000Y-115635000D01*
X214670000Y-116905000D02*
X215785000Y-116905000D01*
X215975001Y-114475001D02*
X214670000Y-114475001D01*
X216498000Y-114998000D02*
X215975001Y-114475001D01*
X217692000Y-114998000D02*
X216498000Y-114998000D01*
X214670000Y-115635000D02*
X214670000Y-116905000D01*
X215861000Y-115635000D02*
X216498000Y-114998000D01*
X214670000Y-115635000D02*
X215861000Y-115635000D01*
G04 #@! TO.N,/3.3VA_D1*
X212344000Y-94996000D02*
X215465990Y-94996000D01*
D35*
X213464140Y-94015560D02*
X213464140Y-94665800D01*
X213464140Y-95316040D02*
X213464140Y-95966280D01*
D36*
G04 #@! TO.N,/3.3VA_D2*
X212181660Y-88600000D02*
X215939582Y-88600000D01*
D35*
X213301800Y-87619560D02*
X213301800Y-88269800D01*
X213301800Y-88920040D02*
X213301800Y-89570280D01*
D36*
G04 #@! TO.N,/5VA_D*
X216212330Y-104500000D02*
X219024991Y-104500000D01*
D35*
X214720140Y-103519560D02*
X214720140Y-104169800D01*
X214720140Y-104520140D02*
X214720140Y-105470280D01*
X214700000Y-104500000D02*
X214720140Y-104520140D01*
D36*
X214700000Y-104500000D02*
X216212330Y-104500000D01*
X213600000Y-104500000D02*
X214700000Y-104500000D01*
D35*
G04 #@! TO.N,3V3_Fine_Out*
X208796340Y-99100380D02*
X209998840Y-99100380D01*
X204140675Y-99100380D02*
X208796340Y-99100380D01*
X203865685Y-99375370D02*
X204140675Y-99100380D01*
X203300000Y-99375370D02*
X203865685Y-99375370D01*
G04 #@! TD*
D38*
G04 #@! TO.N,GND*
G36*
X247721741Y-130155948D02*
X247267767Y-129701974D01*
X246574950Y-129415000D01*
X245825050Y-129415000D01*
X245132233Y-129701974D01*
X244601974Y-130232233D01*
X244391650Y-130740000D01*
X242833746Y-130740000D01*
X242682801Y-130375588D01*
X242124412Y-129817199D01*
X241394841Y-129515000D01*
X240605159Y-129515000D01*
X239875588Y-129817199D01*
X239360000Y-130332787D01*
X239360000Y-127667213D01*
X239875588Y-128182801D01*
X240605159Y-128485000D01*
X241394841Y-128485000D01*
X242124412Y-128182801D01*
X242682801Y-127624412D01*
X242985000Y-126894841D01*
X242985000Y-126105159D01*
X242682801Y-125375588D01*
X242124412Y-124817199D01*
X241394841Y-124515000D01*
X240605159Y-124515000D01*
X239875588Y-124817199D01*
X239360000Y-125332787D01*
X239360000Y-122928711D01*
X239477431Y-122811280D01*
X239635000Y-122430874D01*
X239635000Y-122019126D01*
X239477431Y-121638720D01*
X239186280Y-121347569D01*
X238805874Y-121190000D01*
X238394126Y-121190000D01*
X238013720Y-121347569D01*
X237722569Y-121638720D01*
X237565000Y-122019126D01*
X237565000Y-122430874D01*
X237722569Y-122811280D01*
X237840001Y-122928712D01*
X237840001Y-125755101D01*
X237682801Y-125375588D01*
X237124412Y-124817199D01*
X236394841Y-124515000D01*
X235605159Y-124515000D01*
X234875588Y-124817199D01*
X234317199Y-125375588D01*
X234015000Y-126105159D01*
X234015000Y-126894841D01*
X234317199Y-127624412D01*
X234875588Y-128182801D01*
X235605159Y-128485000D01*
X236394841Y-128485000D01*
X236759253Y-128334055D01*
X236865526Y-128440328D01*
X236865529Y-128440330D01*
X236915002Y-128489803D01*
X236915002Y-129730458D01*
X236394841Y-129515000D01*
X235605159Y-129515000D01*
X234875588Y-129817199D01*
X234317199Y-130375588D01*
X234015000Y-131105159D01*
X234015000Y-131384577D01*
X232614573Y-118955786D01*
X232623974Y-118781333D01*
X232531735Y-118519631D01*
X232447475Y-118255271D01*
X232334761Y-118121792D01*
X230038993Y-114249945D01*
X230032740Y-114242980D01*
X230020126Y-114179565D01*
X229825586Y-113888414D01*
X229534435Y-113693874D01*
X229191000Y-113625560D01*
X228625800Y-113625560D01*
X228597334Y-113624026D01*
X228592982Y-113625560D01*
X228441000Y-113625560D01*
X228380413Y-113637612D01*
X228056321Y-113313520D01*
X228013919Y-113250061D01*
X227762527Y-113082086D01*
X227540842Y-113037990D01*
X227540837Y-113037990D01*
X227465990Y-113023102D01*
X227391143Y-113037990D01*
X223039791Y-113037990D01*
X221532755Y-111530956D01*
X221677431Y-111386280D01*
X221835000Y-111005874D01*
X221835000Y-110594126D01*
X221677431Y-110213720D01*
X221546074Y-110082363D01*
X221510000Y-108242578D01*
X221510000Y-107813226D01*
X221547440Y-107625000D01*
X221547440Y-107297440D01*
X221875000Y-107297440D01*
X222122765Y-107248157D01*
X222332809Y-107107809D01*
X222473157Y-106897765D01*
X222483260Y-106846971D01*
X222513720Y-106877431D01*
X222894126Y-107035000D01*
X223305874Y-107035000D01*
X223686280Y-106877431D01*
X223803711Y-106760000D01*
X226187343Y-106760000D01*
X226262190Y-106774888D01*
X226337037Y-106760000D01*
X226337042Y-106760000D01*
X226558727Y-106715904D01*
X226810119Y-106547929D01*
X226852521Y-106484470D01*
X227674523Y-105662469D01*
X227739414Y-105759586D01*
X228030565Y-105954126D01*
X228076877Y-105963338D01*
X231590001Y-109476463D01*
X231590000Y-112095380D01*
X231588136Y-112390824D01*
X231647091Y-112535733D01*
X231677612Y-112689172D01*
X231841831Y-112934943D01*
X234015000Y-116232167D01*
X234015000Y-116894841D01*
X234317199Y-117624412D01*
X234875588Y-118182801D01*
X235605159Y-118485000D01*
X236394841Y-118485000D01*
X237124412Y-118182801D01*
X237682801Y-117624412D01*
X237985000Y-116894841D01*
X237985000Y-116105159D01*
X239015000Y-116105159D01*
X239015000Y-116894841D01*
X239317199Y-117624412D01*
X239875588Y-118182801D01*
X240605159Y-118485000D01*
X241394841Y-118485000D01*
X242124412Y-118182801D01*
X242682801Y-117624412D01*
X242985000Y-116894841D01*
X242985000Y-116105159D01*
X242682801Y-115375588D01*
X242124412Y-114817199D01*
X241394841Y-114515000D01*
X240605159Y-114515000D01*
X239875588Y-114817199D01*
X239317199Y-115375588D01*
X239015000Y-116105159D01*
X237985000Y-116105159D01*
X237682801Y-115375588D01*
X237124412Y-114817199D01*
X236539735Y-114575017D01*
X235821314Y-113485000D01*
X236394841Y-113485000D01*
X237124412Y-113182801D01*
X237682801Y-112624412D01*
X237985000Y-111894841D01*
X237985000Y-111105159D01*
X237682801Y-110375588D01*
X237124412Y-109817199D01*
X236394841Y-109515000D01*
X235605159Y-109515000D01*
X234875588Y-109817199D01*
X234610000Y-110082787D01*
X234610000Y-108999717D01*
X234639582Y-108850999D01*
X234522388Y-108261827D01*
X234514705Y-108250329D01*
X234188649Y-107762351D01*
X234062569Y-107678107D01*
X232394462Y-106010000D01*
X233374539Y-106010000D01*
X234015000Y-106650462D01*
X234015000Y-106894841D01*
X234317199Y-107624412D01*
X234875588Y-108182801D01*
X235605159Y-108485000D01*
X236394841Y-108485000D01*
X237124412Y-108182801D01*
X237682801Y-107624412D01*
X237985000Y-106894841D01*
X237985000Y-106105159D01*
X239015000Y-106105159D01*
X239015000Y-106894841D01*
X239317199Y-107624412D01*
X239875588Y-108182801D01*
X240605159Y-108485000D01*
X241394841Y-108485000D01*
X242124412Y-108182801D01*
X242682801Y-107624412D01*
X242833746Y-107260000D01*
X244461134Y-107260000D01*
X244425200Y-107346753D01*
X244425200Y-107973247D01*
X244664949Y-108552052D01*
X245042897Y-108930000D01*
X244664949Y-109307948D01*
X244425200Y-109886753D01*
X244425200Y-110513247D01*
X244479898Y-110645300D01*
X244385199Y-110740000D01*
X242833746Y-110740000D01*
X242682801Y-110375588D01*
X242124412Y-109817199D01*
X241394841Y-109515000D01*
X240605159Y-109515000D01*
X239875588Y-109817199D01*
X239317199Y-110375588D01*
X239015000Y-111105159D01*
X239015000Y-111894841D01*
X239317199Y-112624412D01*
X239875588Y-113182801D01*
X240605159Y-113485000D01*
X241394841Y-113485000D01*
X242124412Y-113182801D01*
X242682801Y-112624412D01*
X242833746Y-112260000D01*
X244625153Y-112260000D01*
X244700000Y-112274888D01*
X244774847Y-112260000D01*
X244774852Y-112260000D01*
X244996537Y-112215904D01*
X245247929Y-112047929D01*
X245290331Y-111984470D01*
X245554700Y-111720102D01*
X245686753Y-111774800D01*
X246313247Y-111774800D01*
X246892052Y-111535051D01*
X247335051Y-111092052D01*
X247574800Y-110513247D01*
X247574800Y-109886753D01*
X247335051Y-109307948D01*
X246957103Y-108930000D01*
X247335051Y-108552052D01*
X247574800Y-107973247D01*
X247574800Y-107346753D01*
X247335051Y-106767948D01*
X246892052Y-106324949D01*
X246313247Y-106085200D01*
X245686753Y-106085200D01*
X245554700Y-106139898D01*
X245430331Y-106015530D01*
X245387929Y-105952071D01*
X245136537Y-105784096D01*
X244914852Y-105740000D01*
X244914847Y-105740000D01*
X244840000Y-105725112D01*
X244765153Y-105740000D01*
X242833746Y-105740000D01*
X242682801Y-105375588D01*
X242124412Y-104817199D01*
X241394841Y-104515000D01*
X240605159Y-104515000D01*
X239875588Y-104817199D01*
X239317199Y-105375588D01*
X239015000Y-106105159D01*
X237985000Y-106105159D01*
X237682801Y-105375588D01*
X237124412Y-104817199D01*
X236394841Y-104515000D01*
X236150462Y-104515000D01*
X235172895Y-103537433D01*
X235088649Y-103411351D01*
X234589173Y-103077612D01*
X234148718Y-102990000D01*
X234000000Y-102960418D01*
X233851282Y-102990000D01*
X229186540Y-102990000D01*
X229124000Y-102977560D01*
X228835178Y-102977560D01*
X228749000Y-102960418D01*
X228662822Y-102977560D01*
X228374000Y-102977560D01*
X228260000Y-103000236D01*
X228260000Y-102814801D01*
X228914802Y-102160000D01*
X229525153Y-102160000D01*
X229600000Y-102174888D01*
X229674847Y-102160000D01*
X229674852Y-102160000D01*
X229896537Y-102115904D01*
X230147929Y-101947929D01*
X230190331Y-101884470D01*
X232314802Y-99760000D01*
X235013678Y-99760000D01*
X234875588Y-99817199D01*
X234317199Y-100375588D01*
X234015000Y-101105159D01*
X234015000Y-101894841D01*
X234317199Y-102624412D01*
X234875588Y-103182801D01*
X235605159Y-103485000D01*
X236394841Y-103485000D01*
X237124412Y-103182801D01*
X237682801Y-102624412D01*
X237939932Y-102003643D01*
X238013720Y-102077431D01*
X238394126Y-102235000D01*
X238805874Y-102235000D01*
X239186280Y-102077431D01*
X239477431Y-101786280D01*
X239635000Y-101405874D01*
X239635000Y-100994126D01*
X239477431Y-100613720D01*
X239360000Y-100496289D01*
X239360000Y-97974852D01*
X239374889Y-97900000D01*
X239320784Y-97627997D01*
X239875588Y-98182801D01*
X240605159Y-98485000D01*
X241394841Y-98485000D01*
X242124412Y-98182801D01*
X242682801Y-97624412D01*
X242985000Y-96894841D01*
X242985000Y-96105159D01*
X242682801Y-95375588D01*
X242124412Y-94817199D01*
X241500367Y-94558711D01*
X241547929Y-94526931D01*
X241590327Y-94463478D01*
X241590329Y-94463476D01*
X241715903Y-94275540D01*
X241715904Y-94275539D01*
X241760000Y-94053854D01*
X241760000Y-94053850D01*
X241774888Y-93979003D01*
X241760000Y-93904156D01*
X241760000Y-93333746D01*
X242124412Y-93182801D01*
X242682801Y-92624412D01*
X242985000Y-91894841D01*
X242985000Y-91105159D01*
X242682801Y-90375588D01*
X242124412Y-89817199D01*
X241394841Y-89515000D01*
X240605159Y-89515000D01*
X239875588Y-89817199D01*
X239317199Y-90375588D01*
X239166254Y-90740000D01*
X237833746Y-90740000D01*
X237682801Y-90375588D01*
X237124412Y-89817199D01*
X236394841Y-89515000D01*
X235605159Y-89515000D01*
X234875588Y-89817199D01*
X234702787Y-89990000D01*
X231148718Y-89990000D01*
X231000000Y-89960418D01*
X230851282Y-89990000D01*
X227186540Y-89990000D01*
X227124000Y-89977560D01*
X226374000Y-89977560D01*
X226030565Y-90045874D01*
X225739414Y-90240414D01*
X225544874Y-90531565D01*
X225529973Y-90606475D01*
X225349000Y-90877321D01*
X225168027Y-90606476D01*
X225153126Y-90531565D01*
X224958586Y-90240414D01*
X224667435Y-90045874D01*
X224621123Y-90036662D01*
X224406905Y-89822443D01*
X224390953Y-89800328D01*
X224301876Y-89717415D01*
X224215861Y-89631400D01*
X224193198Y-89616257D01*
X222254201Y-87811433D01*
X222181842Y-87704588D01*
X222036433Y-87608734D01*
X222019946Y-87593388D01*
X221912428Y-87526990D01*
X221680296Y-87373968D01*
X221657555Y-87369592D01*
X221637850Y-87357423D01*
X221363391Y-87312983D01*
X221239303Y-87289103D01*
X221216780Y-87289243D01*
X221044860Y-87261406D01*
X220919281Y-87291098D01*
X217732876Y-87310957D01*
X217292975Y-87401312D01*
X217113940Y-87522560D01*
X217035721Y-87522560D01*
X217028231Y-87511351D01*
X216528755Y-87177612D01*
X216088300Y-87090000D01*
X214199653Y-87090000D01*
X214112669Y-86959821D01*
X213902625Y-86819473D01*
X213654860Y-86770190D01*
X212948740Y-86770190D01*
X212700975Y-86819473D01*
X212677797Y-86834960D01*
X211319330Y-86834960D01*
X211071565Y-86884243D01*
X211053472Y-86896332D01*
X210938445Y-86819473D01*
X210856784Y-86803230D01*
X210611613Y-86639412D01*
X210171158Y-86551800D01*
X207971289Y-86551800D01*
X207848200Y-86527316D01*
X207725111Y-86551800D01*
X207699482Y-86551800D01*
X207259027Y-86639412D01*
X206759551Y-86973151D01*
X206661069Y-87120540D01*
X205642815Y-88138794D01*
X205541917Y-88097000D01*
X204414083Y-88097000D01*
X203372101Y-88528603D01*
X202574603Y-89326101D01*
X202143000Y-90368083D01*
X202143000Y-91495917D01*
X202574603Y-92537899D01*
X203372101Y-93335397D01*
X204414083Y-93767000D01*
X205541917Y-93767000D01*
X205637816Y-93727278D01*
X207538909Y-95628372D01*
X207623151Y-95754449D01*
X207687805Y-95797649D01*
X207565000Y-96094126D01*
X207565000Y-96401722D01*
X199677764Y-96340580D01*
X199599999Y-96325112D01*
X199454670Y-96354020D01*
X199309022Y-96381819D01*
X199306464Y-96383500D01*
X199303462Y-96384097D01*
X199180155Y-96466488D01*
X199056335Y-96547841D01*
X199011776Y-96613422D01*
X193275530Y-102349669D01*
X193212071Y-102392071D01*
X193044096Y-102643464D01*
X193000000Y-102865149D01*
X193000000Y-102865153D01*
X192985112Y-102940000D01*
X193000000Y-103014847D01*
X193000001Y-129855208D01*
X192954275Y-129874148D01*
X192554148Y-130274275D01*
X192490000Y-130429142D01*
X192425852Y-130274275D01*
X192025725Y-129874148D01*
X191502933Y-129657600D01*
X190937067Y-129657600D01*
X190414275Y-129874148D01*
X190014148Y-130274275D01*
X189797600Y-130797067D01*
X189797600Y-131362933D01*
X190014148Y-131885725D01*
X190414275Y-132285852D01*
X190937067Y-132502400D01*
X191502933Y-132502400D01*
X192025725Y-132285852D01*
X192425852Y-131885725D01*
X192490000Y-131730858D01*
X192554148Y-131885725D01*
X192954275Y-132285852D01*
X193477067Y-132502400D01*
X194042933Y-132502400D01*
X194112402Y-132473625D01*
X194112402Y-142352796D01*
X191548659Y-144916540D01*
X191502933Y-144897600D01*
X190937067Y-144897600D01*
X190414275Y-145114148D01*
X190014148Y-145514275D01*
X189797600Y-146037067D01*
X189797600Y-146602933D01*
X190014148Y-147125725D01*
X190414275Y-147525852D01*
X190937067Y-147742400D01*
X191502933Y-147742400D01*
X192025725Y-147525852D01*
X192425852Y-147125725D01*
X192642400Y-146602933D01*
X192642400Y-146037067D01*
X192623460Y-145991341D01*
X195356874Y-143257928D01*
X195420330Y-143215528D01*
X195537894Y-143039582D01*
X195588305Y-142964137D01*
X195623246Y-142788474D01*
X195632401Y-142742451D01*
X195632401Y-142742447D01*
X195647289Y-142667599D01*
X195632401Y-142592751D01*
X195632401Y-132343066D01*
X196017067Y-132502400D01*
X196582933Y-132502400D01*
X197105725Y-132285852D01*
X197505852Y-131885725D01*
X197570000Y-131730858D01*
X197634148Y-131885725D01*
X198034275Y-132285852D01*
X198557067Y-132502400D01*
X199122933Y-132502400D01*
X199645725Y-132285852D01*
X200045852Y-131885725D01*
X200110000Y-131730858D01*
X200174148Y-131885725D01*
X200574275Y-132285852D01*
X201097067Y-132502400D01*
X201662933Y-132502400D01*
X202185725Y-132285852D01*
X202585852Y-131885725D01*
X202650000Y-131730858D01*
X202714148Y-131885725D01*
X203114275Y-132285852D01*
X203637067Y-132502400D01*
X204202933Y-132502400D01*
X204725725Y-132285852D01*
X205125852Y-131885725D01*
X205190000Y-131730858D01*
X205254148Y-131885725D01*
X205654275Y-132285852D01*
X206177067Y-132502400D01*
X206742933Y-132502400D01*
X207265725Y-132285852D01*
X207665852Y-131885725D01*
X207730000Y-131730858D01*
X207794148Y-131885725D01*
X208194275Y-132285852D01*
X208717067Y-132502400D01*
X209282933Y-132502400D01*
X209805725Y-132285852D01*
X210205852Y-131885725D01*
X210270000Y-131730858D01*
X210334148Y-131885725D01*
X210734275Y-132285852D01*
X211257067Y-132502400D01*
X211822933Y-132502400D01*
X212345725Y-132285852D01*
X212745852Y-131885725D01*
X212810000Y-131730858D01*
X212874148Y-131885725D01*
X213274275Y-132285852D01*
X213797067Y-132502400D01*
X214362933Y-132502400D01*
X214885725Y-132285852D01*
X215285852Y-131885725D01*
X215350000Y-131730858D01*
X215414148Y-131885725D01*
X215814275Y-132285852D01*
X216337067Y-132502400D01*
X216902933Y-132502400D01*
X217425725Y-132285852D01*
X217825852Y-131885725D01*
X218042400Y-131362933D01*
X218042400Y-130797067D01*
X217825852Y-130274275D01*
X217425725Y-129874148D01*
X216902933Y-129657600D01*
X216617202Y-129657600D01*
X217239802Y-129035000D01*
X217405874Y-129035000D01*
X217786280Y-128877431D01*
X218077431Y-128586280D01*
X218235000Y-128205874D01*
X218235000Y-127794126D01*
X218113402Y-127500560D01*
X219355460Y-127500560D01*
X219355460Y-128699440D01*
X219404743Y-128947205D01*
X219545091Y-129157249D01*
X219755135Y-129297597D01*
X220002900Y-129346880D01*
X220800460Y-129346880D01*
X221048225Y-129297597D01*
X221258269Y-129157249D01*
X221398617Y-128947205D01*
X221447900Y-128699440D01*
X221447900Y-127500560D01*
X221398617Y-127252795D01*
X221258269Y-127042751D01*
X221048225Y-126902403D01*
X220800460Y-126853120D01*
X220002900Y-126853120D01*
X219755135Y-126902403D01*
X219545091Y-127042751D01*
X219404743Y-127252795D01*
X219355460Y-127500560D01*
X218113402Y-127500560D01*
X218077431Y-127413720D01*
X217786280Y-127122569D01*
X217506457Y-127006663D01*
X219852128Y-125013141D01*
X219935337Y-124960237D01*
X220009431Y-124854624D01*
X220089571Y-124753475D01*
X220095838Y-124731460D01*
X220108981Y-124712726D01*
X220137022Y-124586781D01*
X220172349Y-124462681D01*
X220160998Y-124364727D01*
X220243835Y-120719876D01*
X220377431Y-120586280D01*
X220535000Y-120205874D01*
X220535000Y-119960000D01*
X220749155Y-119960000D01*
X220824002Y-119974888D01*
X220898849Y-119960000D01*
X220898854Y-119960000D01*
X221120539Y-119915904D01*
X221371931Y-119747929D01*
X221414333Y-119684470D01*
X222150473Y-118948331D01*
X222213929Y-118905931D01*
X222381904Y-118654539D01*
X222426000Y-118432854D01*
X222426000Y-118432849D01*
X222440888Y-118358002D01*
X222428792Y-118297190D01*
X222463440Y-118123000D01*
X222463440Y-117795440D01*
X222791000Y-117795440D01*
X223038765Y-117746157D01*
X223248809Y-117605809D01*
X223339044Y-117470763D01*
X223494126Y-117535000D01*
X223660199Y-117535000D01*
X226340000Y-120214802D01*
X226339999Y-123228841D01*
X226113720Y-123322569D01*
X225822569Y-123613720D01*
X225665000Y-123994126D01*
X225665000Y-124405874D01*
X225822569Y-124786280D01*
X226113720Y-125077431D01*
X226494126Y-125235000D01*
X226905874Y-125235000D01*
X227286280Y-125077431D01*
X227577431Y-124786280D01*
X227735000Y-124405874D01*
X227735000Y-124217618D01*
X227815903Y-124096538D01*
X227859999Y-123874853D01*
X227859999Y-123874849D01*
X227874887Y-123800002D01*
X227859999Y-123725155D01*
X227859999Y-119974847D01*
X227874887Y-119899999D01*
X227859999Y-119825151D01*
X227859999Y-119825147D01*
X227815903Y-119603462D01*
X227815903Y-119603461D01*
X227690328Y-119415526D01*
X227647928Y-119352070D01*
X227584472Y-119309670D01*
X224880786Y-116605985D01*
X225290999Y-116687582D01*
X225439717Y-116658000D01*
X225578460Y-116658000D01*
X225641000Y-116670440D01*
X226391000Y-116670440D01*
X226734435Y-116602126D01*
X227025586Y-116407586D01*
X227220126Y-116116435D01*
X227235027Y-116041525D01*
X227428061Y-115752628D01*
X227441308Y-115790212D01*
X227600332Y-116058408D01*
X227611874Y-116116435D01*
X227806414Y-116407586D01*
X227808002Y-116408647D01*
X229635798Y-119491254D01*
X231173202Y-133135729D01*
X231160418Y-133200000D01*
X231190001Y-133348723D01*
X231190000Y-136142094D01*
X231160418Y-136290812D01*
X231190000Y-136439529D01*
X231277612Y-136879984D01*
X231611351Y-137379461D01*
X231737434Y-137463707D01*
X234483257Y-140209530D01*
X234317199Y-140375588D01*
X234015000Y-141105159D01*
X234015000Y-141894841D01*
X234317199Y-142624412D01*
X234875588Y-143182801D01*
X235605159Y-143485000D01*
X236394841Y-143485000D01*
X236840001Y-143300608D01*
X236840000Y-144699392D01*
X236394841Y-144515000D01*
X235605159Y-144515000D01*
X234875588Y-144817199D01*
X234317199Y-145375588D01*
X234015000Y-146105159D01*
X234015000Y-146894841D01*
X234317199Y-147624412D01*
X234875588Y-148182801D01*
X235473667Y-148430534D01*
X233864201Y-150040000D01*
X224898033Y-150040000D01*
X225074800Y-149613247D01*
X225074800Y-148986753D01*
X224835051Y-148407948D01*
X224392052Y-147964949D01*
X224260000Y-147910251D01*
X224260000Y-146037067D01*
X225357600Y-146037067D01*
X225357600Y-146602933D01*
X225574148Y-147125725D01*
X225974275Y-147525852D01*
X226497067Y-147742400D01*
X227062933Y-147742400D01*
X227585725Y-147525852D01*
X227985852Y-147125725D01*
X228202400Y-146602933D01*
X228202400Y-146037067D01*
X227985852Y-145514275D01*
X227585725Y-145114148D01*
X227062933Y-144897600D01*
X226497067Y-144897600D01*
X225974275Y-145114148D01*
X225574148Y-145514275D01*
X225357600Y-146037067D01*
X224260000Y-146037067D01*
X224260000Y-134674801D01*
X226451342Y-132483460D01*
X226497067Y-132502400D01*
X227062933Y-132502400D01*
X227585725Y-132285852D01*
X227985852Y-131885725D01*
X228202400Y-131362933D01*
X228202400Y-130797067D01*
X227985852Y-130274275D01*
X227585725Y-129874148D01*
X227062933Y-129657600D01*
X226497067Y-129657600D01*
X225974275Y-129874148D01*
X225574148Y-130274275D01*
X225510000Y-130429142D01*
X225445852Y-130274275D01*
X225045725Y-129874148D01*
X224522933Y-129657600D01*
X223957067Y-129657600D01*
X223434275Y-129874148D01*
X223034148Y-130274275D01*
X222817600Y-130797067D01*
X222817600Y-131362933D01*
X222836540Y-131408658D01*
X220475530Y-133769669D01*
X220412071Y-133812071D01*
X220244096Y-134063464D01*
X220200000Y-134285149D01*
X220200000Y-134285153D01*
X220185112Y-134360000D01*
X220200000Y-134434847D01*
X220200001Y-147910251D01*
X220067948Y-147964949D01*
X219624949Y-148407948D01*
X219385200Y-148986753D01*
X219385200Y-149613247D01*
X219561967Y-150040000D01*
X217278033Y-150040000D01*
X217454800Y-149613247D01*
X217454800Y-148986753D01*
X217215051Y-148407948D01*
X216772052Y-147964949D01*
X216193247Y-147725200D01*
X215566753Y-147725200D01*
X214987948Y-147964949D01*
X214544949Y-148407948D01*
X214305200Y-148986753D01*
X214305200Y-149613247D01*
X214481967Y-150040000D01*
X208614802Y-150040000D01*
X205468798Y-146893996D01*
X205497440Y-146750000D01*
X205497440Y-145450000D01*
X205448157Y-145202235D01*
X205307809Y-144992191D01*
X205097765Y-144851843D01*
X204850000Y-144802560D01*
X204150000Y-144802560D01*
X203902235Y-144851843D01*
X203692191Y-144992191D01*
X203551843Y-145202235D01*
X203550000Y-145211500D01*
X203548157Y-145202235D01*
X203407809Y-144992191D01*
X203360000Y-144960246D01*
X203360000Y-143939754D01*
X203407809Y-143907809D01*
X203548157Y-143697765D01*
X203597440Y-143450000D01*
X203597440Y-142150000D01*
X203548157Y-141902235D01*
X203407809Y-141692191D01*
X203197765Y-141551843D01*
X202950000Y-141502560D01*
X202250000Y-141502560D01*
X202002235Y-141551843D01*
X201792191Y-141692191D01*
X201651843Y-141902235D01*
X201602560Y-142150000D01*
X201602560Y-143450000D01*
X201651843Y-143697765D01*
X201792191Y-143907809D01*
X201840001Y-143939755D01*
X201840000Y-144960246D01*
X201792191Y-144992191D01*
X201651843Y-145202235D01*
X201624440Y-145340000D01*
X199871577Y-145340000D01*
X199645725Y-145114148D01*
X199122933Y-144897600D01*
X198557067Y-144897600D01*
X198034275Y-145114148D01*
X197634148Y-145514275D01*
X197417600Y-146037067D01*
X197417600Y-146602933D01*
X197634148Y-147125725D01*
X198034275Y-147525852D01*
X198557067Y-147742400D01*
X199122933Y-147742400D01*
X199645725Y-147525852D01*
X200045852Y-147125725D01*
X200155919Y-146860000D01*
X201624440Y-146860000D01*
X201651843Y-146997765D01*
X201792191Y-147207809D01*
X202002235Y-147348157D01*
X202250000Y-147397440D01*
X202950000Y-147397440D01*
X203197765Y-147348157D01*
X203407809Y-147207809D01*
X203548157Y-146997765D01*
X203550000Y-146988500D01*
X203551843Y-146997765D01*
X203692191Y-147207809D01*
X203777830Y-147265032D01*
X203784097Y-147296537D01*
X203952072Y-147547929D01*
X204015528Y-147590329D01*
X207015198Y-150590000D01*
X185310000Y-150590000D01*
X185310000Y-85610000D01*
X247788929Y-85610000D01*
X247721741Y-130155948D01*
X247721741Y-130155948D01*
G37*
X247721741Y-130155948D02*
X247267767Y-129701974D01*
X246574950Y-129415000D01*
X245825050Y-129415000D01*
X245132233Y-129701974D01*
X244601974Y-130232233D01*
X244391650Y-130740000D01*
X242833746Y-130740000D01*
X242682801Y-130375588D01*
X242124412Y-129817199D01*
X241394841Y-129515000D01*
X240605159Y-129515000D01*
X239875588Y-129817199D01*
X239360000Y-130332787D01*
X239360000Y-127667213D01*
X239875588Y-128182801D01*
X240605159Y-128485000D01*
X241394841Y-128485000D01*
X242124412Y-128182801D01*
X242682801Y-127624412D01*
X242985000Y-126894841D01*
X242985000Y-126105159D01*
X242682801Y-125375588D01*
X242124412Y-124817199D01*
X241394841Y-124515000D01*
X240605159Y-124515000D01*
X239875588Y-124817199D01*
X239360000Y-125332787D01*
X239360000Y-122928711D01*
X239477431Y-122811280D01*
X239635000Y-122430874D01*
X239635000Y-122019126D01*
X239477431Y-121638720D01*
X239186280Y-121347569D01*
X238805874Y-121190000D01*
X238394126Y-121190000D01*
X238013720Y-121347569D01*
X237722569Y-121638720D01*
X237565000Y-122019126D01*
X237565000Y-122430874D01*
X237722569Y-122811280D01*
X237840001Y-122928712D01*
X237840001Y-125755101D01*
X237682801Y-125375588D01*
X237124412Y-124817199D01*
X236394841Y-124515000D01*
X235605159Y-124515000D01*
X234875588Y-124817199D01*
X234317199Y-125375588D01*
X234015000Y-126105159D01*
X234015000Y-126894841D01*
X234317199Y-127624412D01*
X234875588Y-128182801D01*
X235605159Y-128485000D01*
X236394841Y-128485000D01*
X236759253Y-128334055D01*
X236865526Y-128440328D01*
X236865529Y-128440330D01*
X236915002Y-128489803D01*
X236915002Y-129730458D01*
X236394841Y-129515000D01*
X235605159Y-129515000D01*
X234875588Y-129817199D01*
X234317199Y-130375588D01*
X234015000Y-131105159D01*
X234015000Y-131384577D01*
X232614573Y-118955786D01*
X232623974Y-118781333D01*
X232531735Y-118519631D01*
X232447475Y-118255271D01*
X232334761Y-118121792D01*
X230038993Y-114249945D01*
X230032740Y-114242980D01*
X230020126Y-114179565D01*
X229825586Y-113888414D01*
X229534435Y-113693874D01*
X229191000Y-113625560D01*
X228625800Y-113625560D01*
X228597334Y-113624026D01*
X228592982Y-113625560D01*
X228441000Y-113625560D01*
X228380413Y-113637612D01*
X228056321Y-113313520D01*
X228013919Y-113250061D01*
X227762527Y-113082086D01*
X227540842Y-113037990D01*
X227540837Y-113037990D01*
X227465990Y-113023102D01*
X227391143Y-113037990D01*
X223039791Y-113037990D01*
X221532755Y-111530956D01*
X221677431Y-111386280D01*
X221835000Y-111005874D01*
X221835000Y-110594126D01*
X221677431Y-110213720D01*
X221546074Y-110082363D01*
X221510000Y-108242578D01*
X221510000Y-107813226D01*
X221547440Y-107625000D01*
X221547440Y-107297440D01*
X221875000Y-107297440D01*
X222122765Y-107248157D01*
X222332809Y-107107809D01*
X222473157Y-106897765D01*
X222483260Y-106846971D01*
X222513720Y-106877431D01*
X222894126Y-107035000D01*
X223305874Y-107035000D01*
X223686280Y-106877431D01*
X223803711Y-106760000D01*
X226187343Y-106760000D01*
X226262190Y-106774888D01*
X226337037Y-106760000D01*
X226337042Y-106760000D01*
X226558727Y-106715904D01*
X226810119Y-106547929D01*
X226852521Y-106484470D01*
X227674523Y-105662469D01*
X227739414Y-105759586D01*
X228030565Y-105954126D01*
X228076877Y-105963338D01*
X231590001Y-109476463D01*
X231590000Y-112095380D01*
X231588136Y-112390824D01*
X231647091Y-112535733D01*
X231677612Y-112689172D01*
X231841831Y-112934943D01*
X234015000Y-116232167D01*
X234015000Y-116894841D01*
X234317199Y-117624412D01*
X234875588Y-118182801D01*
X235605159Y-118485000D01*
X236394841Y-118485000D01*
X237124412Y-118182801D01*
X237682801Y-117624412D01*
X237985000Y-116894841D01*
X237985000Y-116105159D01*
X239015000Y-116105159D01*
X239015000Y-116894841D01*
X239317199Y-117624412D01*
X239875588Y-118182801D01*
X240605159Y-118485000D01*
X241394841Y-118485000D01*
X242124412Y-118182801D01*
X242682801Y-117624412D01*
X242985000Y-116894841D01*
X242985000Y-116105159D01*
X242682801Y-115375588D01*
X242124412Y-114817199D01*
X241394841Y-114515000D01*
X240605159Y-114515000D01*
X239875588Y-114817199D01*
X239317199Y-115375588D01*
X239015000Y-116105159D01*
X237985000Y-116105159D01*
X237682801Y-115375588D01*
X237124412Y-114817199D01*
X236539735Y-114575017D01*
X235821314Y-113485000D01*
X236394841Y-113485000D01*
X237124412Y-113182801D01*
X237682801Y-112624412D01*
X237985000Y-111894841D01*
X237985000Y-111105159D01*
X237682801Y-110375588D01*
X237124412Y-109817199D01*
X236394841Y-109515000D01*
X235605159Y-109515000D01*
X234875588Y-109817199D01*
X234610000Y-110082787D01*
X234610000Y-108999717D01*
X234639582Y-108850999D01*
X234522388Y-108261827D01*
X234514705Y-108250329D01*
X234188649Y-107762351D01*
X234062569Y-107678107D01*
X232394462Y-106010000D01*
X233374539Y-106010000D01*
X234015000Y-106650462D01*
X234015000Y-106894841D01*
X234317199Y-107624412D01*
X234875588Y-108182801D01*
X235605159Y-108485000D01*
X236394841Y-108485000D01*
X237124412Y-108182801D01*
X237682801Y-107624412D01*
X237985000Y-106894841D01*
X237985000Y-106105159D01*
X239015000Y-106105159D01*
X239015000Y-106894841D01*
X239317199Y-107624412D01*
X239875588Y-108182801D01*
X240605159Y-108485000D01*
X241394841Y-108485000D01*
X242124412Y-108182801D01*
X242682801Y-107624412D01*
X242833746Y-107260000D01*
X244461134Y-107260000D01*
X244425200Y-107346753D01*
X244425200Y-107973247D01*
X244664949Y-108552052D01*
X245042897Y-108930000D01*
X244664949Y-109307948D01*
X244425200Y-109886753D01*
X244425200Y-110513247D01*
X244479898Y-110645300D01*
X244385199Y-110740000D01*
X242833746Y-110740000D01*
X242682801Y-110375588D01*
X242124412Y-109817199D01*
X241394841Y-109515000D01*
X240605159Y-109515000D01*
X239875588Y-109817199D01*
X239317199Y-110375588D01*
X239015000Y-111105159D01*
X239015000Y-111894841D01*
X239317199Y-112624412D01*
X239875588Y-113182801D01*
X240605159Y-113485000D01*
X241394841Y-113485000D01*
X242124412Y-113182801D01*
X242682801Y-112624412D01*
X242833746Y-112260000D01*
X244625153Y-112260000D01*
X244700000Y-112274888D01*
X244774847Y-112260000D01*
X244774852Y-112260000D01*
X244996537Y-112215904D01*
X245247929Y-112047929D01*
X245290331Y-111984470D01*
X245554700Y-111720102D01*
X245686753Y-111774800D01*
X246313247Y-111774800D01*
X246892052Y-111535051D01*
X247335051Y-111092052D01*
X247574800Y-110513247D01*
X247574800Y-109886753D01*
X247335051Y-109307948D01*
X246957103Y-108930000D01*
X247335051Y-108552052D01*
X247574800Y-107973247D01*
X247574800Y-107346753D01*
X247335051Y-106767948D01*
X246892052Y-106324949D01*
X246313247Y-106085200D01*
X245686753Y-106085200D01*
X245554700Y-106139898D01*
X245430331Y-106015530D01*
X245387929Y-105952071D01*
X245136537Y-105784096D01*
X244914852Y-105740000D01*
X244914847Y-105740000D01*
X244840000Y-105725112D01*
X244765153Y-105740000D01*
X242833746Y-105740000D01*
X242682801Y-105375588D01*
X242124412Y-104817199D01*
X241394841Y-104515000D01*
X240605159Y-104515000D01*
X239875588Y-104817199D01*
X239317199Y-105375588D01*
X239015000Y-106105159D01*
X237985000Y-106105159D01*
X237682801Y-105375588D01*
X237124412Y-104817199D01*
X236394841Y-104515000D01*
X236150462Y-104515000D01*
X235172895Y-103537433D01*
X235088649Y-103411351D01*
X234589173Y-103077612D01*
X234148718Y-102990000D01*
X234000000Y-102960418D01*
X233851282Y-102990000D01*
X229186540Y-102990000D01*
X229124000Y-102977560D01*
X228835178Y-102977560D01*
X228749000Y-102960418D01*
X228662822Y-102977560D01*
X228374000Y-102977560D01*
X228260000Y-103000236D01*
X228260000Y-102814801D01*
X228914802Y-102160000D01*
X229525153Y-102160000D01*
X229600000Y-102174888D01*
X229674847Y-102160000D01*
X229674852Y-102160000D01*
X229896537Y-102115904D01*
X230147929Y-101947929D01*
X230190331Y-101884470D01*
X232314802Y-99760000D01*
X235013678Y-99760000D01*
X234875588Y-99817199D01*
X234317199Y-100375588D01*
X234015000Y-101105159D01*
X234015000Y-101894841D01*
X234317199Y-102624412D01*
X234875588Y-103182801D01*
X235605159Y-103485000D01*
X236394841Y-103485000D01*
X237124412Y-103182801D01*
X237682801Y-102624412D01*
X237939932Y-102003643D01*
X238013720Y-102077431D01*
X238394126Y-102235000D01*
X238805874Y-102235000D01*
X239186280Y-102077431D01*
X239477431Y-101786280D01*
X239635000Y-101405874D01*
X239635000Y-100994126D01*
X239477431Y-100613720D01*
X239360000Y-100496289D01*
X239360000Y-97974852D01*
X239374889Y-97900000D01*
X239320784Y-97627997D01*
X239875588Y-98182801D01*
X240605159Y-98485000D01*
X241394841Y-98485000D01*
X242124412Y-98182801D01*
X242682801Y-97624412D01*
X242985000Y-96894841D01*
X242985000Y-96105159D01*
X242682801Y-95375588D01*
X242124412Y-94817199D01*
X241500367Y-94558711D01*
X241547929Y-94526931D01*
X241590327Y-94463478D01*
X241590329Y-94463476D01*
X241715903Y-94275540D01*
X241715904Y-94275539D01*
X241760000Y-94053854D01*
X241760000Y-94053850D01*
X241774888Y-93979003D01*
X241760000Y-93904156D01*
X241760000Y-93333746D01*
X242124412Y-93182801D01*
X242682801Y-92624412D01*
X242985000Y-91894841D01*
X242985000Y-91105159D01*
X242682801Y-90375588D01*
X242124412Y-89817199D01*
X241394841Y-89515000D01*
X240605159Y-89515000D01*
X239875588Y-89817199D01*
X239317199Y-90375588D01*
X239166254Y-90740000D01*
X237833746Y-90740000D01*
X237682801Y-90375588D01*
X237124412Y-89817199D01*
X236394841Y-89515000D01*
X235605159Y-89515000D01*
X234875588Y-89817199D01*
X234702787Y-89990000D01*
X231148718Y-89990000D01*
X231000000Y-89960418D01*
X230851282Y-89990000D01*
X227186540Y-89990000D01*
X227124000Y-89977560D01*
X226374000Y-89977560D01*
X226030565Y-90045874D01*
X225739414Y-90240414D01*
X225544874Y-90531565D01*
X225529973Y-90606475D01*
X225349000Y-90877321D01*
X225168027Y-90606476D01*
X225153126Y-90531565D01*
X224958586Y-90240414D01*
X224667435Y-90045874D01*
X224621123Y-90036662D01*
X224406905Y-89822443D01*
X224390953Y-89800328D01*
X224301876Y-89717415D01*
X224215861Y-89631400D01*
X224193198Y-89616257D01*
X222254201Y-87811433D01*
X222181842Y-87704588D01*
X222036433Y-87608734D01*
X222019946Y-87593388D01*
X221912428Y-87526990D01*
X221680296Y-87373968D01*
X221657555Y-87369592D01*
X221637850Y-87357423D01*
X221363391Y-87312983D01*
X221239303Y-87289103D01*
X221216780Y-87289243D01*
X221044860Y-87261406D01*
X220919281Y-87291098D01*
X217732876Y-87310957D01*
X217292975Y-87401312D01*
X217113940Y-87522560D01*
X217035721Y-87522560D01*
X217028231Y-87511351D01*
X216528755Y-87177612D01*
X216088300Y-87090000D01*
X214199653Y-87090000D01*
X214112669Y-86959821D01*
X213902625Y-86819473D01*
X213654860Y-86770190D01*
X212948740Y-86770190D01*
X212700975Y-86819473D01*
X212677797Y-86834960D01*
X211319330Y-86834960D01*
X211071565Y-86884243D01*
X211053472Y-86896332D01*
X210938445Y-86819473D01*
X210856784Y-86803230D01*
X210611613Y-86639412D01*
X210171158Y-86551800D01*
X207971289Y-86551800D01*
X207848200Y-86527316D01*
X207725111Y-86551800D01*
X207699482Y-86551800D01*
X207259027Y-86639412D01*
X206759551Y-86973151D01*
X206661069Y-87120540D01*
X205642815Y-88138794D01*
X205541917Y-88097000D01*
X204414083Y-88097000D01*
X203372101Y-88528603D01*
X202574603Y-89326101D01*
X202143000Y-90368083D01*
X202143000Y-91495917D01*
X202574603Y-92537899D01*
X203372101Y-93335397D01*
X204414083Y-93767000D01*
X205541917Y-93767000D01*
X205637816Y-93727278D01*
X207538909Y-95628372D01*
X207623151Y-95754449D01*
X207687805Y-95797649D01*
X207565000Y-96094126D01*
X207565000Y-96401722D01*
X199677764Y-96340580D01*
X199599999Y-96325112D01*
X199454670Y-96354020D01*
X199309022Y-96381819D01*
X199306464Y-96383500D01*
X199303462Y-96384097D01*
X199180155Y-96466488D01*
X199056335Y-96547841D01*
X199011776Y-96613422D01*
X193275530Y-102349669D01*
X193212071Y-102392071D01*
X193044096Y-102643464D01*
X193000000Y-102865149D01*
X193000000Y-102865153D01*
X192985112Y-102940000D01*
X193000000Y-103014847D01*
X193000001Y-129855208D01*
X192954275Y-129874148D01*
X192554148Y-130274275D01*
X192490000Y-130429142D01*
X192425852Y-130274275D01*
X192025725Y-129874148D01*
X191502933Y-129657600D01*
X190937067Y-129657600D01*
X190414275Y-129874148D01*
X190014148Y-130274275D01*
X189797600Y-130797067D01*
X189797600Y-131362933D01*
X190014148Y-131885725D01*
X190414275Y-132285852D01*
X190937067Y-132502400D01*
X191502933Y-132502400D01*
X192025725Y-132285852D01*
X192425852Y-131885725D01*
X192490000Y-131730858D01*
X192554148Y-131885725D01*
X192954275Y-132285852D01*
X193477067Y-132502400D01*
X194042933Y-132502400D01*
X194112402Y-132473625D01*
X194112402Y-142352796D01*
X191548659Y-144916540D01*
X191502933Y-144897600D01*
X190937067Y-144897600D01*
X190414275Y-145114148D01*
X190014148Y-145514275D01*
X189797600Y-146037067D01*
X189797600Y-146602933D01*
X190014148Y-147125725D01*
X190414275Y-147525852D01*
X190937067Y-147742400D01*
X191502933Y-147742400D01*
X192025725Y-147525852D01*
X192425852Y-147125725D01*
X192642400Y-146602933D01*
X192642400Y-146037067D01*
X192623460Y-145991341D01*
X195356874Y-143257928D01*
X195420330Y-143215528D01*
X195537894Y-143039582D01*
X195588305Y-142964137D01*
X195623246Y-142788474D01*
X195632401Y-142742451D01*
X195632401Y-142742447D01*
X195647289Y-142667599D01*
X195632401Y-142592751D01*
X195632401Y-132343066D01*
X196017067Y-132502400D01*
X196582933Y-132502400D01*
X197105725Y-132285852D01*
X197505852Y-131885725D01*
X197570000Y-131730858D01*
X197634148Y-131885725D01*
X198034275Y-132285852D01*
X198557067Y-132502400D01*
X199122933Y-132502400D01*
X199645725Y-132285852D01*
X200045852Y-131885725D01*
X200110000Y-131730858D01*
X200174148Y-131885725D01*
X200574275Y-132285852D01*
X201097067Y-132502400D01*
X201662933Y-132502400D01*
X202185725Y-132285852D01*
X202585852Y-131885725D01*
X202650000Y-131730858D01*
X202714148Y-131885725D01*
X203114275Y-132285852D01*
X203637067Y-132502400D01*
X204202933Y-132502400D01*
X204725725Y-132285852D01*
X205125852Y-131885725D01*
X205190000Y-131730858D01*
X205254148Y-131885725D01*
X205654275Y-132285852D01*
X206177067Y-132502400D01*
X206742933Y-132502400D01*
X207265725Y-132285852D01*
X207665852Y-131885725D01*
X207730000Y-131730858D01*
X207794148Y-131885725D01*
X208194275Y-132285852D01*
X208717067Y-132502400D01*
X209282933Y-132502400D01*
X209805725Y-132285852D01*
X210205852Y-131885725D01*
X210270000Y-131730858D01*
X210334148Y-131885725D01*
X210734275Y-132285852D01*
X211257067Y-132502400D01*
X211822933Y-132502400D01*
X212345725Y-132285852D01*
X212745852Y-131885725D01*
X212810000Y-131730858D01*
X212874148Y-131885725D01*
X213274275Y-132285852D01*
X213797067Y-132502400D01*
X214362933Y-132502400D01*
X214885725Y-132285852D01*
X215285852Y-131885725D01*
X215350000Y-131730858D01*
X215414148Y-131885725D01*
X215814275Y-132285852D01*
X216337067Y-132502400D01*
X216902933Y-132502400D01*
X217425725Y-132285852D01*
X217825852Y-131885725D01*
X218042400Y-131362933D01*
X218042400Y-130797067D01*
X217825852Y-130274275D01*
X217425725Y-129874148D01*
X216902933Y-129657600D01*
X216617202Y-129657600D01*
X217239802Y-129035000D01*
X217405874Y-129035000D01*
X217786280Y-128877431D01*
X218077431Y-128586280D01*
X218235000Y-128205874D01*
X218235000Y-127794126D01*
X218113402Y-127500560D01*
X219355460Y-127500560D01*
X219355460Y-128699440D01*
X219404743Y-128947205D01*
X219545091Y-129157249D01*
X219755135Y-129297597D01*
X220002900Y-129346880D01*
X220800460Y-129346880D01*
X221048225Y-129297597D01*
X221258269Y-129157249D01*
X221398617Y-128947205D01*
X221447900Y-128699440D01*
X221447900Y-127500560D01*
X221398617Y-127252795D01*
X221258269Y-127042751D01*
X221048225Y-126902403D01*
X220800460Y-126853120D01*
X220002900Y-126853120D01*
X219755135Y-126902403D01*
X219545091Y-127042751D01*
X219404743Y-127252795D01*
X219355460Y-127500560D01*
X218113402Y-127500560D01*
X218077431Y-127413720D01*
X217786280Y-127122569D01*
X217506457Y-127006663D01*
X219852128Y-125013141D01*
X219935337Y-124960237D01*
X220009431Y-124854624D01*
X220089571Y-124753475D01*
X220095838Y-124731460D01*
X220108981Y-124712726D01*
X220137022Y-124586781D01*
X220172349Y-124462681D01*
X220160998Y-124364727D01*
X220243835Y-120719876D01*
X220377431Y-120586280D01*
X220535000Y-120205874D01*
X220535000Y-119960000D01*
X220749155Y-119960000D01*
X220824002Y-119974888D01*
X220898849Y-119960000D01*
X220898854Y-119960000D01*
X221120539Y-119915904D01*
X221371931Y-119747929D01*
X221414333Y-119684470D01*
X222150473Y-118948331D01*
X222213929Y-118905931D01*
X222381904Y-118654539D01*
X222426000Y-118432854D01*
X222426000Y-118432849D01*
X222440888Y-118358002D01*
X222428792Y-118297190D01*
X222463440Y-118123000D01*
X222463440Y-117795440D01*
X222791000Y-117795440D01*
X223038765Y-117746157D01*
X223248809Y-117605809D01*
X223339044Y-117470763D01*
X223494126Y-117535000D01*
X223660199Y-117535000D01*
X226340000Y-120214802D01*
X226339999Y-123228841D01*
X226113720Y-123322569D01*
X225822569Y-123613720D01*
X225665000Y-123994126D01*
X225665000Y-124405874D01*
X225822569Y-124786280D01*
X226113720Y-125077431D01*
X226494126Y-125235000D01*
X226905874Y-125235000D01*
X227286280Y-125077431D01*
X227577431Y-124786280D01*
X227735000Y-124405874D01*
X227735000Y-124217618D01*
X227815903Y-124096538D01*
X227859999Y-123874853D01*
X227859999Y-123874849D01*
X227874887Y-123800002D01*
X227859999Y-123725155D01*
X227859999Y-119974847D01*
X227874887Y-119899999D01*
X227859999Y-119825151D01*
X227859999Y-119825147D01*
X227815903Y-119603462D01*
X227815903Y-119603461D01*
X227690328Y-119415526D01*
X227647928Y-119352070D01*
X227584472Y-119309670D01*
X224880786Y-116605985D01*
X225290999Y-116687582D01*
X225439717Y-116658000D01*
X225578460Y-116658000D01*
X225641000Y-116670440D01*
X226391000Y-116670440D01*
X226734435Y-116602126D01*
X227025586Y-116407586D01*
X227220126Y-116116435D01*
X227235027Y-116041525D01*
X227428061Y-115752628D01*
X227441308Y-115790212D01*
X227600332Y-116058408D01*
X227611874Y-116116435D01*
X227806414Y-116407586D01*
X227808002Y-116408647D01*
X229635798Y-119491254D01*
X231173202Y-133135729D01*
X231160418Y-133200000D01*
X231190001Y-133348723D01*
X231190000Y-136142094D01*
X231160418Y-136290812D01*
X231190000Y-136439529D01*
X231277612Y-136879984D01*
X231611351Y-137379461D01*
X231737434Y-137463707D01*
X234483257Y-140209530D01*
X234317199Y-140375588D01*
X234015000Y-141105159D01*
X234015000Y-141894841D01*
X234317199Y-142624412D01*
X234875588Y-143182801D01*
X235605159Y-143485000D01*
X236394841Y-143485000D01*
X236840001Y-143300608D01*
X236840000Y-144699392D01*
X236394841Y-144515000D01*
X235605159Y-144515000D01*
X234875588Y-144817199D01*
X234317199Y-145375588D01*
X234015000Y-146105159D01*
X234015000Y-146894841D01*
X234317199Y-147624412D01*
X234875588Y-148182801D01*
X235473667Y-148430534D01*
X233864201Y-150040000D01*
X224898033Y-150040000D01*
X225074800Y-149613247D01*
X225074800Y-148986753D01*
X224835051Y-148407948D01*
X224392052Y-147964949D01*
X224260000Y-147910251D01*
X224260000Y-146037067D01*
X225357600Y-146037067D01*
X225357600Y-146602933D01*
X225574148Y-147125725D01*
X225974275Y-147525852D01*
X226497067Y-147742400D01*
X227062933Y-147742400D01*
X227585725Y-147525852D01*
X227985852Y-147125725D01*
X228202400Y-146602933D01*
X228202400Y-146037067D01*
X227985852Y-145514275D01*
X227585725Y-145114148D01*
X227062933Y-144897600D01*
X226497067Y-144897600D01*
X225974275Y-145114148D01*
X225574148Y-145514275D01*
X225357600Y-146037067D01*
X224260000Y-146037067D01*
X224260000Y-134674801D01*
X226451342Y-132483460D01*
X226497067Y-132502400D01*
X227062933Y-132502400D01*
X227585725Y-132285852D01*
X227985852Y-131885725D01*
X228202400Y-131362933D01*
X228202400Y-130797067D01*
X227985852Y-130274275D01*
X227585725Y-129874148D01*
X227062933Y-129657600D01*
X226497067Y-129657600D01*
X225974275Y-129874148D01*
X225574148Y-130274275D01*
X225510000Y-130429142D01*
X225445852Y-130274275D01*
X225045725Y-129874148D01*
X224522933Y-129657600D01*
X223957067Y-129657600D01*
X223434275Y-129874148D01*
X223034148Y-130274275D01*
X222817600Y-130797067D01*
X222817600Y-131362933D01*
X222836540Y-131408658D01*
X220475530Y-133769669D01*
X220412071Y-133812071D01*
X220244096Y-134063464D01*
X220200000Y-134285149D01*
X220200000Y-134285153D01*
X220185112Y-134360000D01*
X220200000Y-134434847D01*
X220200001Y-147910251D01*
X220067948Y-147964949D01*
X219624949Y-148407948D01*
X219385200Y-148986753D01*
X219385200Y-149613247D01*
X219561967Y-150040000D01*
X217278033Y-150040000D01*
X217454800Y-149613247D01*
X217454800Y-148986753D01*
X217215051Y-148407948D01*
X216772052Y-147964949D01*
X216193247Y-147725200D01*
X215566753Y-147725200D01*
X214987948Y-147964949D01*
X214544949Y-148407948D01*
X214305200Y-148986753D01*
X214305200Y-149613247D01*
X214481967Y-150040000D01*
X208614802Y-150040000D01*
X205468798Y-146893996D01*
X205497440Y-146750000D01*
X205497440Y-145450000D01*
X205448157Y-145202235D01*
X205307809Y-144992191D01*
X205097765Y-144851843D01*
X204850000Y-144802560D01*
X204150000Y-144802560D01*
X203902235Y-144851843D01*
X203692191Y-144992191D01*
X203551843Y-145202235D01*
X203550000Y-145211500D01*
X203548157Y-145202235D01*
X203407809Y-144992191D01*
X203360000Y-144960246D01*
X203360000Y-143939754D01*
X203407809Y-143907809D01*
X203548157Y-143697765D01*
X203597440Y-143450000D01*
X203597440Y-142150000D01*
X203548157Y-141902235D01*
X203407809Y-141692191D01*
X203197765Y-141551843D01*
X202950000Y-141502560D01*
X202250000Y-141502560D01*
X202002235Y-141551843D01*
X201792191Y-141692191D01*
X201651843Y-141902235D01*
X201602560Y-142150000D01*
X201602560Y-143450000D01*
X201651843Y-143697765D01*
X201792191Y-143907809D01*
X201840001Y-143939755D01*
X201840000Y-144960246D01*
X201792191Y-144992191D01*
X201651843Y-145202235D01*
X201624440Y-145340000D01*
X199871577Y-145340000D01*
X199645725Y-145114148D01*
X199122933Y-144897600D01*
X198557067Y-144897600D01*
X198034275Y-145114148D01*
X197634148Y-145514275D01*
X197417600Y-146037067D01*
X197417600Y-146602933D01*
X197634148Y-147125725D01*
X198034275Y-147525852D01*
X198557067Y-147742400D01*
X199122933Y-147742400D01*
X199645725Y-147525852D01*
X200045852Y-147125725D01*
X200155919Y-146860000D01*
X201624440Y-146860000D01*
X201651843Y-146997765D01*
X201792191Y-147207809D01*
X202002235Y-147348157D01*
X202250000Y-147397440D01*
X202950000Y-147397440D01*
X203197765Y-147348157D01*
X203407809Y-147207809D01*
X203548157Y-146997765D01*
X203550000Y-146988500D01*
X203551843Y-146997765D01*
X203692191Y-147207809D01*
X203777830Y-147265032D01*
X203784097Y-147296537D01*
X203952072Y-147547929D01*
X204015528Y-147590329D01*
X207015198Y-150590000D01*
X185310000Y-150590000D01*
X185310000Y-85610000D01*
X247788929Y-85610000D01*
X247721741Y-130155948D01*
G36*
X218442843Y-116600235D02*
X218393560Y-116848000D01*
X218393560Y-117148000D01*
X218442843Y-117395765D01*
X218583191Y-117605809D01*
X218793235Y-117746157D01*
X219041000Y-117795440D01*
X219368560Y-117795440D01*
X219368560Y-118123000D01*
X219417843Y-118370765D01*
X219464105Y-118440000D01*
X216874848Y-118440000D01*
X216800000Y-118425112D01*
X216725152Y-118440000D01*
X216725148Y-118440000D01*
X216551605Y-118474520D01*
X216503462Y-118484096D01*
X216367637Y-118574852D01*
X216252071Y-118652071D01*
X216209671Y-118715527D01*
X214715530Y-120209669D01*
X214652071Y-120252071D01*
X214484096Y-120503464D01*
X214440000Y-120725149D01*
X214440000Y-120725153D01*
X214425112Y-120800000D01*
X214440000Y-120874847D01*
X214440000Y-121396289D01*
X214322569Y-121513720D01*
X214165000Y-121894126D01*
X214165000Y-122305874D01*
X214322569Y-122686280D01*
X214613720Y-122977431D01*
X214994126Y-123135000D01*
X215405874Y-123135000D01*
X215786280Y-122977431D01*
X216077431Y-122686280D01*
X216235000Y-122305874D01*
X216235000Y-121894126D01*
X216077431Y-121513720D01*
X215960000Y-121396289D01*
X215960000Y-121114801D01*
X217114802Y-119960000D01*
X218465000Y-119960000D01*
X218465000Y-120205874D01*
X218622569Y-120586280D01*
X218724170Y-120687881D01*
X218647946Y-124041758D01*
X211968929Y-129718074D01*
X211822933Y-129657600D01*
X211257067Y-129657600D01*
X210734275Y-129874148D01*
X210334148Y-130274275D01*
X210270000Y-130429142D01*
X210205852Y-130274275D01*
X209805725Y-129874148D01*
X209282933Y-129657600D01*
X208717067Y-129657600D01*
X208671342Y-129676540D01*
X207670010Y-128675209D01*
X207670010Y-128048448D01*
X207684898Y-127973600D01*
X207670010Y-127898752D01*
X207670010Y-127898748D01*
X207625914Y-127677063D01*
X207457939Y-127425671D01*
X207394483Y-127383271D01*
X202910010Y-122898799D01*
X202910010Y-116919306D01*
X203394101Y-117403397D01*
X204436083Y-117835000D01*
X205563917Y-117835000D01*
X206605899Y-117403397D01*
X206881853Y-117127443D01*
X207240001Y-117232781D01*
X207240000Y-117796289D01*
X207122569Y-117913720D01*
X206965000Y-118294126D01*
X206965000Y-118705874D01*
X207122569Y-119086280D01*
X207413720Y-119377431D01*
X207794126Y-119535000D01*
X208205874Y-119535000D01*
X208586280Y-119377431D01*
X208877431Y-119086280D01*
X209035000Y-118705874D01*
X209035000Y-118421091D01*
X209115119Y-118441956D01*
X209710128Y-118359357D01*
X210228236Y-118055346D01*
X210570727Y-117602440D01*
X213215000Y-117602440D01*
X213307641Y-117584013D01*
X213581351Y-117993649D01*
X214080827Y-118327388D01*
X214521282Y-118415000D01*
X214670000Y-118444582D01*
X214818718Y-118415000D01*
X215636282Y-118415000D01*
X215785000Y-118444582D01*
X215933718Y-118415000D01*
X216374173Y-118327388D01*
X216873649Y-117993649D01*
X216957894Y-117867567D01*
X218227890Y-116597572D01*
X218227892Y-116597569D01*
X218317461Y-116508000D01*
X218504473Y-116508000D01*
X218442843Y-116600235D01*
X218442843Y-116600235D01*
G37*
X218442843Y-116600235D02*
X218393560Y-116848000D01*
X218393560Y-117148000D01*
X218442843Y-117395765D01*
X218583191Y-117605809D01*
X218793235Y-117746157D01*
X219041000Y-117795440D01*
X219368560Y-117795440D01*
X219368560Y-118123000D01*
X219417843Y-118370765D01*
X219464105Y-118440000D01*
X216874848Y-118440000D01*
X216800000Y-118425112D01*
X216725152Y-118440000D01*
X216725148Y-118440000D01*
X216551605Y-118474520D01*
X216503462Y-118484096D01*
X216367637Y-118574852D01*
X216252071Y-118652071D01*
X216209671Y-118715527D01*
X214715530Y-120209669D01*
X214652071Y-120252071D01*
X214484096Y-120503464D01*
X214440000Y-120725149D01*
X214440000Y-120725153D01*
X214425112Y-120800000D01*
X214440000Y-120874847D01*
X214440000Y-121396289D01*
X214322569Y-121513720D01*
X214165000Y-121894126D01*
X214165000Y-122305874D01*
X214322569Y-122686280D01*
X214613720Y-122977431D01*
X214994126Y-123135000D01*
X215405874Y-123135000D01*
X215786280Y-122977431D01*
X216077431Y-122686280D01*
X216235000Y-122305874D01*
X216235000Y-121894126D01*
X216077431Y-121513720D01*
X215960000Y-121396289D01*
X215960000Y-121114801D01*
X217114802Y-119960000D01*
X218465000Y-119960000D01*
X218465000Y-120205874D01*
X218622569Y-120586280D01*
X218724170Y-120687881D01*
X218647946Y-124041758D01*
X211968929Y-129718074D01*
X211822933Y-129657600D01*
X211257067Y-129657600D01*
X210734275Y-129874148D01*
X210334148Y-130274275D01*
X210270000Y-130429142D01*
X210205852Y-130274275D01*
X209805725Y-129874148D01*
X209282933Y-129657600D01*
X208717067Y-129657600D01*
X208671342Y-129676540D01*
X207670010Y-128675209D01*
X207670010Y-128048448D01*
X207684898Y-127973600D01*
X207670010Y-127898752D01*
X207670010Y-127898748D01*
X207625914Y-127677063D01*
X207457939Y-127425671D01*
X207394483Y-127383271D01*
X202910010Y-122898799D01*
X202910010Y-116919306D01*
X203394101Y-117403397D01*
X204436083Y-117835000D01*
X205563917Y-117835000D01*
X206605899Y-117403397D01*
X206881853Y-117127443D01*
X207240001Y-117232781D01*
X207240000Y-117796289D01*
X207122569Y-117913720D01*
X206965000Y-118294126D01*
X206965000Y-118705874D01*
X207122569Y-119086280D01*
X207413720Y-119377431D01*
X207794126Y-119535000D01*
X208205874Y-119535000D01*
X208586280Y-119377431D01*
X208877431Y-119086280D01*
X209035000Y-118705874D01*
X209035000Y-118421091D01*
X209115119Y-118441956D01*
X209710128Y-118359357D01*
X210228236Y-118055346D01*
X210570727Y-117602440D01*
X213215000Y-117602440D01*
X213307641Y-117584013D01*
X213581351Y-117993649D01*
X214080827Y-118327388D01*
X214521282Y-118415000D01*
X214670000Y-118444582D01*
X214818718Y-118415000D01*
X215636282Y-118415000D01*
X215785000Y-118444582D01*
X215933718Y-118415000D01*
X216374173Y-118327388D01*
X216873649Y-117993649D01*
X216957894Y-117867567D01*
X218227890Y-116597572D01*
X218227892Y-116597569D01*
X218317461Y-116508000D01*
X218504473Y-116508000D01*
X218442843Y-116600235D01*
G36*
X213452180Y-110400050D02*
X213501463Y-110647815D01*
X213641811Y-110857859D01*
X213840000Y-110990286D01*
X213840001Y-112181347D01*
X213787235Y-112191843D01*
X213577191Y-112332191D01*
X213488910Y-112464312D01*
X213462765Y-112446843D01*
X213215000Y-112397560D01*
X210216488Y-112397560D01*
X210172809Y-112332191D01*
X209962765Y-112191843D01*
X209715000Y-112142560D01*
X208695000Y-112142560D01*
X208447235Y-112191843D01*
X208237191Y-112332191D01*
X208096843Y-112542235D01*
X208047560Y-112790000D01*
X208047560Y-112855000D01*
X206864296Y-112855000D01*
X206605899Y-112596603D01*
X205642234Y-112197440D01*
X206050000Y-112197440D01*
X206297765Y-112148157D01*
X206507809Y-112007809D01*
X206648157Y-111797765D01*
X206650000Y-111788500D01*
X206651843Y-111797765D01*
X206792191Y-112007809D01*
X207002235Y-112148157D01*
X207250000Y-112197440D01*
X207950000Y-112197440D01*
X208197765Y-112148157D01*
X208407809Y-112007809D01*
X208548157Y-111797765D01*
X208575560Y-111660000D01*
X210473013Y-111660000D01*
X210547860Y-111674888D01*
X210622707Y-111660000D01*
X210622712Y-111660000D01*
X210844397Y-111615904D01*
X211095789Y-111447929D01*
X211138191Y-111384470D01*
X212134453Y-110388209D01*
X212197909Y-110345809D01*
X212365501Y-110094990D01*
X212900740Y-110094990D01*
X213148505Y-110045707D01*
X213358549Y-109905359D01*
X213452180Y-109765231D01*
X213452180Y-110400050D01*
X213452180Y-110400050D01*
G37*
X213452180Y-110400050D02*
X213501463Y-110647815D01*
X213641811Y-110857859D01*
X213840000Y-110990286D01*
X213840001Y-112181347D01*
X213787235Y-112191843D01*
X213577191Y-112332191D01*
X213488910Y-112464312D01*
X213462765Y-112446843D01*
X213215000Y-112397560D01*
X210216488Y-112397560D01*
X210172809Y-112332191D01*
X209962765Y-112191843D01*
X209715000Y-112142560D01*
X208695000Y-112142560D01*
X208447235Y-112191843D01*
X208237191Y-112332191D01*
X208096843Y-112542235D01*
X208047560Y-112790000D01*
X208047560Y-112855000D01*
X206864296Y-112855000D01*
X206605899Y-112596603D01*
X205642234Y-112197440D01*
X206050000Y-112197440D01*
X206297765Y-112148157D01*
X206507809Y-112007809D01*
X206648157Y-111797765D01*
X206650000Y-111788500D01*
X206651843Y-111797765D01*
X206792191Y-112007809D01*
X207002235Y-112148157D01*
X207250000Y-112197440D01*
X207950000Y-112197440D01*
X208197765Y-112148157D01*
X208407809Y-112007809D01*
X208548157Y-111797765D01*
X208575560Y-111660000D01*
X210473013Y-111660000D01*
X210547860Y-111674888D01*
X210622707Y-111660000D01*
X210622712Y-111660000D01*
X210844397Y-111615904D01*
X211095789Y-111447929D01*
X211138191Y-111384470D01*
X212134453Y-110388209D01*
X212197909Y-110345809D01*
X212365501Y-110094990D01*
X212900740Y-110094990D01*
X213148505Y-110045707D01*
X213358549Y-109905359D01*
X213452180Y-109765231D01*
X213452180Y-110400050D01*
G36*
X210210383Y-105919975D02*
X210350731Y-106130019D01*
X210525912Y-106247072D01*
X210465000Y-106394126D01*
X210465000Y-106805874D01*
X210622569Y-107186280D01*
X210913720Y-107477431D01*
X211294126Y-107635000D01*
X211705874Y-107635000D01*
X212086280Y-107477431D01*
X212377431Y-107186280D01*
X212535000Y-106805874D01*
X212535000Y-106394126D01*
X212456217Y-106203928D01*
X212464210Y-106198588D01*
X212489905Y-106215757D01*
X212737670Y-106265040D01*
X214111343Y-106265040D01*
X214119315Y-106270367D01*
X214367080Y-106319650D01*
X215073200Y-106319650D01*
X215320965Y-106270367D01*
X215531009Y-106130019D01*
X215611204Y-106010000D01*
X217588473Y-106010000D01*
X217526843Y-106102235D01*
X217477560Y-106350000D01*
X217477560Y-106650000D01*
X217526843Y-106897765D01*
X217667191Y-107107809D01*
X217877235Y-107248157D01*
X218125000Y-107297440D01*
X218452560Y-107297440D01*
X218452560Y-107625000D01*
X218501843Y-107872765D01*
X218642191Y-108082809D01*
X218852235Y-108223157D01*
X219100000Y-108272440D01*
X219400000Y-108272440D01*
X219500000Y-108252549D01*
X219600000Y-108272440D01*
X219900000Y-108272440D01*
X219989943Y-108254549D01*
X219990000Y-108257436D01*
X219990000Y-108324851D01*
X219991466Y-108332224D01*
X220025188Y-110052019D01*
X219923535Y-109984096D01*
X219701850Y-109940000D01*
X219701845Y-109940000D01*
X219626998Y-109925112D01*
X219552151Y-109940000D01*
X218339754Y-109940000D01*
X218307809Y-109892191D01*
X218097765Y-109751843D01*
X217850000Y-109702560D01*
X216550000Y-109702560D01*
X216302235Y-109751843D01*
X216092191Y-109892191D01*
X215951843Y-110102235D01*
X215902560Y-110350000D01*
X215902560Y-111050000D01*
X215951843Y-111297765D01*
X216092191Y-111507809D01*
X216302235Y-111648157D01*
X216311500Y-111650000D01*
X216302235Y-111651843D01*
X216092191Y-111792191D01*
X215951843Y-112002235D01*
X215902560Y-112250000D01*
X215902560Y-112335000D01*
X215764686Y-112335000D01*
X215762809Y-112332191D01*
X215552765Y-112191843D01*
X215360000Y-112153500D01*
X215360000Y-110990286D01*
X215558189Y-110857859D01*
X215698537Y-110647815D01*
X215747820Y-110400050D01*
X215747820Y-109599950D01*
X215698537Y-109352185D01*
X215558189Y-109142141D01*
X215348145Y-109001793D01*
X215100380Y-108952510D01*
X214099620Y-108952510D01*
X213851855Y-109001793D01*
X213641811Y-109142141D01*
X213548180Y-109282269D01*
X213548180Y-108647450D01*
X213498897Y-108399685D01*
X213358549Y-108189641D01*
X213148505Y-108049293D01*
X212900740Y-108000010D01*
X211899980Y-108000010D01*
X211652215Y-108049293D01*
X211442171Y-108189641D01*
X211301823Y-108399685D01*
X211252540Y-108647450D01*
X211252540Y-109020189D01*
X211165509Y-109107220D01*
X211102051Y-109149621D01*
X210934076Y-109401013D01*
X210924648Y-109448410D01*
X210233059Y-110140000D01*
X208575560Y-110140000D01*
X208548157Y-110002235D01*
X208413027Y-109800000D01*
X208548157Y-109597765D01*
X208570319Y-109486350D01*
X208713900Y-109629931D01*
X209094306Y-109787500D01*
X209506054Y-109787500D01*
X209886460Y-109629931D01*
X210177611Y-109338780D01*
X210335180Y-108958374D01*
X210335180Y-108546626D01*
X210177611Y-108166220D01*
X209886460Y-107875069D01*
X209506054Y-107717500D01*
X209094306Y-107717500D01*
X208713900Y-107875069D01*
X208648969Y-107940000D01*
X208575560Y-107940000D01*
X208548157Y-107802235D01*
X208407809Y-107592191D01*
X208197765Y-107451843D01*
X207950000Y-107402560D01*
X207250000Y-107402560D01*
X207002235Y-107451843D01*
X206792191Y-107592191D01*
X206651843Y-107802235D01*
X206650000Y-107811500D01*
X206648157Y-107802235D01*
X206507809Y-107592191D01*
X206501103Y-107587710D01*
X206535000Y-107505874D01*
X206535000Y-107432764D01*
X206605899Y-107403397D01*
X207403397Y-106605899D01*
X207787000Y-105679800D01*
X210162610Y-105679800D01*
X210210383Y-105919975D01*
X210210383Y-105919975D01*
G37*
X210210383Y-105919975D02*
X210350731Y-106130019D01*
X210525912Y-106247072D01*
X210465000Y-106394126D01*
X210465000Y-106805874D01*
X210622569Y-107186280D01*
X210913720Y-107477431D01*
X211294126Y-107635000D01*
X211705874Y-107635000D01*
X212086280Y-107477431D01*
X212377431Y-107186280D01*
X212535000Y-106805874D01*
X212535000Y-106394126D01*
X212456217Y-106203928D01*
X212464210Y-106198588D01*
X212489905Y-106215757D01*
X212737670Y-106265040D01*
X214111343Y-106265040D01*
X214119315Y-106270367D01*
X214367080Y-106319650D01*
X215073200Y-106319650D01*
X215320965Y-106270367D01*
X215531009Y-106130019D01*
X215611204Y-106010000D01*
X217588473Y-106010000D01*
X217526843Y-106102235D01*
X217477560Y-106350000D01*
X217477560Y-106650000D01*
X217526843Y-106897765D01*
X217667191Y-107107809D01*
X217877235Y-107248157D01*
X218125000Y-107297440D01*
X218452560Y-107297440D01*
X218452560Y-107625000D01*
X218501843Y-107872765D01*
X218642191Y-108082809D01*
X218852235Y-108223157D01*
X219100000Y-108272440D01*
X219400000Y-108272440D01*
X219500000Y-108252549D01*
X219600000Y-108272440D01*
X219900000Y-108272440D01*
X219989943Y-108254549D01*
X219990000Y-108257436D01*
X219990000Y-108324851D01*
X219991466Y-108332224D01*
X220025188Y-110052019D01*
X219923535Y-109984096D01*
X219701850Y-109940000D01*
X219701845Y-109940000D01*
X219626998Y-109925112D01*
X219552151Y-109940000D01*
X218339754Y-109940000D01*
X218307809Y-109892191D01*
X218097765Y-109751843D01*
X217850000Y-109702560D01*
X216550000Y-109702560D01*
X216302235Y-109751843D01*
X216092191Y-109892191D01*
X215951843Y-110102235D01*
X215902560Y-110350000D01*
X215902560Y-111050000D01*
X215951843Y-111297765D01*
X216092191Y-111507809D01*
X216302235Y-111648157D01*
X216311500Y-111650000D01*
X216302235Y-111651843D01*
X216092191Y-111792191D01*
X215951843Y-112002235D01*
X215902560Y-112250000D01*
X215902560Y-112335000D01*
X215764686Y-112335000D01*
X215762809Y-112332191D01*
X215552765Y-112191843D01*
X215360000Y-112153500D01*
X215360000Y-110990286D01*
X215558189Y-110857859D01*
X215698537Y-110647815D01*
X215747820Y-110400050D01*
X215747820Y-109599950D01*
X215698537Y-109352185D01*
X215558189Y-109142141D01*
X215348145Y-109001793D01*
X215100380Y-108952510D01*
X214099620Y-108952510D01*
X213851855Y-109001793D01*
X213641811Y-109142141D01*
X213548180Y-109282269D01*
X213548180Y-108647450D01*
X213498897Y-108399685D01*
X213358549Y-108189641D01*
X213148505Y-108049293D01*
X212900740Y-108000010D01*
X211899980Y-108000010D01*
X211652215Y-108049293D01*
X211442171Y-108189641D01*
X211301823Y-108399685D01*
X211252540Y-108647450D01*
X211252540Y-109020189D01*
X211165509Y-109107220D01*
X211102051Y-109149621D01*
X210934076Y-109401013D01*
X210924648Y-109448410D01*
X210233059Y-110140000D01*
X208575560Y-110140000D01*
X208548157Y-110002235D01*
X208413027Y-109800000D01*
X208548157Y-109597765D01*
X208570319Y-109486350D01*
X208713900Y-109629931D01*
X209094306Y-109787500D01*
X209506054Y-109787500D01*
X209886460Y-109629931D01*
X210177611Y-109338780D01*
X210335180Y-108958374D01*
X210335180Y-108546626D01*
X210177611Y-108166220D01*
X209886460Y-107875069D01*
X209506054Y-107717500D01*
X209094306Y-107717500D01*
X208713900Y-107875069D01*
X208648969Y-107940000D01*
X208575560Y-107940000D01*
X208548157Y-107802235D01*
X208407809Y-107592191D01*
X208197765Y-107451843D01*
X207950000Y-107402560D01*
X207250000Y-107402560D01*
X207002235Y-107451843D01*
X206792191Y-107592191D01*
X206651843Y-107802235D01*
X206650000Y-107811500D01*
X206648157Y-107802235D01*
X206507809Y-107592191D01*
X206501103Y-107587710D01*
X206535000Y-107505874D01*
X206535000Y-107432764D01*
X206605899Y-107403397D01*
X207403397Y-106605899D01*
X207787000Y-105679800D01*
X210162610Y-105679800D01*
X210210383Y-105919975D01*
G36*
X225529973Y-92393525D02*
X225544874Y-92468435D01*
X225739414Y-92759586D01*
X226030565Y-92954126D01*
X226374000Y-93022440D01*
X227124000Y-93022440D01*
X227186540Y-93010000D01*
X230374539Y-93010000D01*
X234015000Y-96650462D01*
X234015000Y-96894841D01*
X234317199Y-97624412D01*
X234875588Y-98182801D01*
X235013678Y-98240000D01*
X232074848Y-98240000D01*
X232000000Y-98225112D01*
X231925152Y-98240000D01*
X231925148Y-98240000D01*
X231703463Y-98284096D01*
X231452071Y-98452071D01*
X231409671Y-98515527D01*
X229285199Y-100640000D01*
X228674847Y-100640000D01*
X228600000Y-100625112D01*
X228525153Y-100640000D01*
X215639314Y-100640000D01*
X215750657Y-100473365D01*
X215799940Y-100225600D01*
X215799940Y-99976680D01*
X215774931Y-99850950D01*
X215799940Y-99725220D01*
X215799940Y-99476300D01*
X215776807Y-99360000D01*
X216525153Y-99360000D01*
X216600000Y-99374888D01*
X216674847Y-99360000D01*
X216674852Y-99360000D01*
X216896537Y-99315904D01*
X217147929Y-99147929D01*
X217190331Y-99084470D01*
X217900473Y-98374329D01*
X217963929Y-98331929D01*
X218131904Y-98080537D01*
X218172107Y-97878424D01*
X218378809Y-97740309D01*
X218519157Y-97530265D01*
X218568440Y-97282500D01*
X218568440Y-96520500D01*
X218565456Y-96505500D01*
X220304782Y-96505500D01*
X220453500Y-96535082D01*
X220602218Y-96505500D01*
X221042673Y-96417888D01*
X221542149Y-96084149D01*
X221626395Y-95958067D01*
X224621125Y-92963338D01*
X224667435Y-92954126D01*
X224958586Y-92759586D01*
X225153126Y-92468435D01*
X225168027Y-92393525D01*
X225349000Y-92122679D01*
X225529973Y-92393525D01*
X225529973Y-92393525D01*
G37*
X225529973Y-92393525D02*
X225544874Y-92468435D01*
X225739414Y-92759586D01*
X226030565Y-92954126D01*
X226374000Y-93022440D01*
X227124000Y-93022440D01*
X227186540Y-93010000D01*
X230374539Y-93010000D01*
X234015000Y-96650462D01*
X234015000Y-96894841D01*
X234317199Y-97624412D01*
X234875588Y-98182801D01*
X235013678Y-98240000D01*
X232074848Y-98240000D01*
X232000000Y-98225112D01*
X231925152Y-98240000D01*
X231925148Y-98240000D01*
X231703463Y-98284096D01*
X231452071Y-98452071D01*
X231409671Y-98515527D01*
X229285199Y-100640000D01*
X228674847Y-100640000D01*
X228600000Y-100625112D01*
X228525153Y-100640000D01*
X215639314Y-100640000D01*
X215750657Y-100473365D01*
X215799940Y-100225600D01*
X215799940Y-99976680D01*
X215774931Y-99850950D01*
X215799940Y-99725220D01*
X215799940Y-99476300D01*
X215776807Y-99360000D01*
X216525153Y-99360000D01*
X216600000Y-99374888D01*
X216674847Y-99360000D01*
X216674852Y-99360000D01*
X216896537Y-99315904D01*
X217147929Y-99147929D01*
X217190331Y-99084470D01*
X217900473Y-98374329D01*
X217963929Y-98331929D01*
X218131904Y-98080537D01*
X218172107Y-97878424D01*
X218378809Y-97740309D01*
X218519157Y-97530265D01*
X218568440Y-97282500D01*
X218568440Y-96520500D01*
X218565456Y-96505500D01*
X220304782Y-96505500D01*
X220453500Y-96535082D01*
X220602218Y-96505500D01*
X221042673Y-96417888D01*
X221542149Y-96084149D01*
X221626395Y-95958067D01*
X224621125Y-92963338D01*
X224667435Y-92954126D01*
X224958586Y-92759586D01*
X225153126Y-92468435D01*
X225168027Y-92393525D01*
X225349000Y-92122679D01*
X225529973Y-92393525D01*
G36*
X208742760Y-89772210D02*
X208792043Y-90019975D01*
X208932391Y-90230019D01*
X209142435Y-90370367D01*
X209172375Y-90376322D01*
X209165000Y-90394126D01*
X209165000Y-90805874D01*
X209322569Y-91186280D01*
X209613720Y-91477431D01*
X209994126Y-91635000D01*
X210405874Y-91635000D01*
X210786280Y-91477431D01*
X211077431Y-91186280D01*
X211235000Y-90805874D01*
X211235000Y-90394126D01*
X211214299Y-90344148D01*
X211319330Y-90365040D01*
X212693003Y-90365040D01*
X212700975Y-90370367D01*
X212948740Y-90419650D01*
X213654860Y-90419650D01*
X213902625Y-90370367D01*
X214112669Y-90230019D01*
X214192864Y-90110000D01*
X214736129Y-90110000D01*
X214583191Y-90212191D01*
X214442843Y-90422235D01*
X214393560Y-90670000D01*
X214393560Y-90970000D01*
X214442843Y-91217765D01*
X214583191Y-91427809D01*
X214793235Y-91568157D01*
X215041000Y-91617440D01*
X215368560Y-91617440D01*
X215368560Y-91945000D01*
X215417843Y-92192765D01*
X215558191Y-92402809D01*
X215768235Y-92543157D01*
X216016000Y-92592440D01*
X216316000Y-92592440D01*
X216416000Y-92572549D01*
X216516000Y-92592440D01*
X216665698Y-92592440D01*
X216665000Y-92594126D01*
X216665000Y-93005874D01*
X216759759Y-93234643D01*
X216663235Y-93253843D01*
X216530626Y-93342450D01*
X216398765Y-93254343D01*
X216151000Y-93205060D01*
X215141000Y-93205060D01*
X214893235Y-93254343D01*
X214683191Y-93394691D01*
X214622180Y-93486000D01*
X214361993Y-93486000D01*
X214275009Y-93355821D01*
X214064965Y-93215473D01*
X213817200Y-93166190D01*
X213111080Y-93166190D01*
X212863315Y-93215473D01*
X212840137Y-93230960D01*
X211481670Y-93230960D01*
X211233905Y-93280243D01*
X211215812Y-93292332D01*
X211100785Y-93215473D01*
X210853020Y-93166190D01*
X210403732Y-93166190D01*
X210351498Y-93155800D01*
X209337263Y-93155800D01*
X207773278Y-91591816D01*
X207813000Y-91495917D01*
X207813000Y-90368083D01*
X207771206Y-90267185D01*
X208466591Y-89571800D01*
X208742760Y-89571800D01*
X208742760Y-89772210D01*
X208742760Y-89772210D01*
G37*
X208742760Y-89772210D02*
X208792043Y-90019975D01*
X208932391Y-90230019D01*
X209142435Y-90370367D01*
X209172375Y-90376322D01*
X209165000Y-90394126D01*
X209165000Y-90805874D01*
X209322569Y-91186280D01*
X209613720Y-91477431D01*
X209994126Y-91635000D01*
X210405874Y-91635000D01*
X210786280Y-91477431D01*
X211077431Y-91186280D01*
X211235000Y-90805874D01*
X211235000Y-90394126D01*
X211214299Y-90344148D01*
X211319330Y-90365040D01*
X212693003Y-90365040D01*
X212700975Y-90370367D01*
X212948740Y-90419650D01*
X213654860Y-90419650D01*
X213902625Y-90370367D01*
X214112669Y-90230019D01*
X214192864Y-90110000D01*
X214736129Y-90110000D01*
X214583191Y-90212191D01*
X214442843Y-90422235D01*
X214393560Y-90670000D01*
X214393560Y-90970000D01*
X214442843Y-91217765D01*
X214583191Y-91427809D01*
X214793235Y-91568157D01*
X215041000Y-91617440D01*
X215368560Y-91617440D01*
X215368560Y-91945000D01*
X215417843Y-92192765D01*
X215558191Y-92402809D01*
X215768235Y-92543157D01*
X216016000Y-92592440D01*
X216316000Y-92592440D01*
X216416000Y-92572549D01*
X216516000Y-92592440D01*
X216665698Y-92592440D01*
X216665000Y-92594126D01*
X216665000Y-93005874D01*
X216759759Y-93234643D01*
X216663235Y-93253843D01*
X216530626Y-93342450D01*
X216398765Y-93254343D01*
X216151000Y-93205060D01*
X215141000Y-93205060D01*
X214893235Y-93254343D01*
X214683191Y-93394691D01*
X214622180Y-93486000D01*
X214361993Y-93486000D01*
X214275009Y-93355821D01*
X214064965Y-93215473D01*
X213817200Y-93166190D01*
X213111080Y-93166190D01*
X212863315Y-93215473D01*
X212840137Y-93230960D01*
X211481670Y-93230960D01*
X211233905Y-93280243D01*
X211215812Y-93292332D01*
X211100785Y-93215473D01*
X210853020Y-93166190D01*
X210403732Y-93166190D01*
X210351498Y-93155800D01*
X209337263Y-93155800D01*
X207773278Y-91591816D01*
X207813000Y-91495917D01*
X207813000Y-90368083D01*
X207771206Y-90267185D01*
X208466591Y-89571800D01*
X208742760Y-89571800D01*
X208742760Y-89772210D01*
G04 #@! TD*
M02*
