G04 #@! TF.GenerationSoftware,KiCad,Pcbnew,(5.0.1)-rc2*
G04 #@! TF.CreationDate,2018-11-18T14:41:54-07:00*
G04 #@! TF.ProjectId,PowerSupply,506F776572537570706C792E6B696361,rev?*
G04 #@! TF.SameCoordinates,Original*
G04 #@! TF.FileFunction,Soldermask,Bot*
G04 #@! TF.FilePolarity,Negative*
%FSLAX46Y46*%
G04 Gerber Fmt 4.6, Leading zero omitted, Abs format (unit mm)*
G04 Created by KiCad (PCBNEW (5.0.1)-rc2) date 11/18/2018 2:41:54 PM*
%MOMM*%
%LPD*%
G01*
G04 APERTURE LIST*
%ADD10C,0.100000*%
G04 APERTURE END LIST*
D10*
G36*
X218723765Y-148298620D02*
X218913289Y-148377123D01*
X219083855Y-148491092D01*
X219228908Y-148636145D01*
X219342877Y-148806711D01*
X219421380Y-148996235D01*
X219461400Y-149197430D01*
X219461400Y-149402570D01*
X219421380Y-149603765D01*
X219342877Y-149793289D01*
X219228908Y-149963855D01*
X219083855Y-150108908D01*
X218913289Y-150222877D01*
X218723765Y-150301380D01*
X218522570Y-150341400D01*
X218317430Y-150341400D01*
X218116235Y-150301380D01*
X217926711Y-150222877D01*
X217756145Y-150108908D01*
X217611092Y-149963855D01*
X217497123Y-149793289D01*
X217418620Y-149603765D01*
X217378600Y-149402570D01*
X217378600Y-149197430D01*
X217418620Y-148996235D01*
X217497123Y-148806711D01*
X217611092Y-148636145D01*
X217756145Y-148491092D01*
X217926711Y-148377123D01*
X218116235Y-148298620D01*
X218317430Y-148258600D01*
X218522570Y-148258600D01*
X218723765Y-148298620D01*
X218723765Y-148298620D01*
G37*
G36*
X221263765Y-148298620D02*
X221453289Y-148377123D01*
X221623855Y-148491092D01*
X221768908Y-148636145D01*
X221882877Y-148806711D01*
X221961380Y-148996235D01*
X222001400Y-149197430D01*
X222001400Y-149402570D01*
X221961380Y-149603765D01*
X221882877Y-149793289D01*
X221768908Y-149963855D01*
X221623855Y-150108908D01*
X221453289Y-150222877D01*
X221263765Y-150301380D01*
X221062570Y-150341400D01*
X220857430Y-150341400D01*
X220656235Y-150301380D01*
X220466711Y-150222877D01*
X220296145Y-150108908D01*
X220151092Y-149963855D01*
X220037123Y-149793289D01*
X219958620Y-149603765D01*
X219918600Y-149402570D01*
X219918600Y-149197430D01*
X219958620Y-148996235D01*
X220037123Y-148806711D01*
X220151092Y-148636145D01*
X220296145Y-148491092D01*
X220466711Y-148377123D01*
X220656235Y-148298620D01*
X220857430Y-148258600D01*
X221062570Y-148258600D01*
X221263765Y-148298620D01*
X221263765Y-148298620D01*
G37*
G36*
X223803765Y-148298620D02*
X223993289Y-148377123D01*
X224163855Y-148491092D01*
X224308908Y-148636145D01*
X224422877Y-148806711D01*
X224501380Y-148996235D01*
X224541400Y-149197430D01*
X224541400Y-149402570D01*
X224501380Y-149603765D01*
X224422877Y-149793289D01*
X224308908Y-149963855D01*
X224163855Y-150108908D01*
X223993289Y-150222877D01*
X223803765Y-150301380D01*
X223602570Y-150341400D01*
X223397430Y-150341400D01*
X223196235Y-150301380D01*
X223006711Y-150222877D01*
X222836145Y-150108908D01*
X222691092Y-149963855D01*
X222577123Y-149793289D01*
X222498620Y-149603765D01*
X222458600Y-149402570D01*
X222458600Y-149197430D01*
X222498620Y-148996235D01*
X222577123Y-148806711D01*
X222691092Y-148636145D01*
X222836145Y-148491092D01*
X223006711Y-148377123D01*
X223196235Y-148298620D01*
X223397430Y-148258600D01*
X223602570Y-148258600D01*
X223803765Y-148298620D01*
X223803765Y-148298620D01*
G37*
G36*
X216183765Y-148298620D02*
X216373289Y-148377123D01*
X216543855Y-148491092D01*
X216688908Y-148636145D01*
X216802877Y-148806711D01*
X216881380Y-148996235D01*
X216921400Y-149197430D01*
X216921400Y-149402570D01*
X216881380Y-149603765D01*
X216802877Y-149793289D01*
X216688908Y-149963855D01*
X216543855Y-150108908D01*
X216373289Y-150222877D01*
X216183765Y-150301380D01*
X215982570Y-150341400D01*
X215777430Y-150341400D01*
X215576235Y-150301380D01*
X215386711Y-150222877D01*
X215216145Y-150108908D01*
X215071092Y-149963855D01*
X214957123Y-149793289D01*
X214878620Y-149603765D01*
X214838600Y-149402570D01*
X214838600Y-149197430D01*
X214878620Y-148996235D01*
X214957123Y-148806711D01*
X215071092Y-148636145D01*
X215216145Y-148491092D01*
X215386711Y-148377123D01*
X215576235Y-148298620D01*
X215777430Y-148258600D01*
X215982570Y-148258600D01*
X216183765Y-148298620D01*
X216183765Y-148298620D01*
G37*
G36*
X241318433Y-145134893D02*
X241408657Y-145152839D01*
X241514267Y-145196585D01*
X241663621Y-145258449D01*
X241893089Y-145411774D01*
X242088226Y-145606911D01*
X242241551Y-145836379D01*
X242347161Y-146091344D01*
X242401000Y-146362012D01*
X242401000Y-146637988D01*
X242347161Y-146908656D01*
X242241551Y-147163621D01*
X242088226Y-147393089D01*
X241893089Y-147588226D01*
X241663621Y-147741551D01*
X241514267Y-147803415D01*
X241408657Y-147847161D01*
X241318433Y-147865107D01*
X241137988Y-147901000D01*
X240862012Y-147901000D01*
X240681567Y-147865107D01*
X240591343Y-147847161D01*
X240485733Y-147803415D01*
X240336379Y-147741551D01*
X240106911Y-147588226D01*
X239911774Y-147393089D01*
X239758449Y-147163621D01*
X239652839Y-146908656D01*
X239599000Y-146637988D01*
X239599000Y-146362012D01*
X239652839Y-146091344D01*
X239758449Y-145836379D01*
X239911774Y-145606911D01*
X240106911Y-145411774D01*
X240336379Y-145258449D01*
X240485733Y-145196585D01*
X240591343Y-145152839D01*
X240681567Y-145134893D01*
X240862012Y-145099000D01*
X241137988Y-145099000D01*
X241318433Y-145134893D01*
X241318433Y-145134893D01*
G37*
G36*
X236318433Y-145134893D02*
X236408657Y-145152839D01*
X236514267Y-145196585D01*
X236663621Y-145258449D01*
X236893089Y-145411774D01*
X237088226Y-145606911D01*
X237241551Y-145836379D01*
X237347161Y-146091344D01*
X237401000Y-146362012D01*
X237401000Y-146637988D01*
X237347161Y-146908656D01*
X237241551Y-147163621D01*
X237088226Y-147393089D01*
X236893089Y-147588226D01*
X236663621Y-147741551D01*
X236514267Y-147803415D01*
X236408657Y-147847161D01*
X236318433Y-147865107D01*
X236137988Y-147901000D01*
X235862012Y-147901000D01*
X235681567Y-147865107D01*
X235591343Y-147847161D01*
X235485733Y-147803415D01*
X235336379Y-147741551D01*
X235106911Y-147588226D01*
X234911774Y-147393089D01*
X234758449Y-147163621D01*
X234652839Y-146908656D01*
X234599000Y-146637988D01*
X234599000Y-146362012D01*
X234652839Y-146091344D01*
X234758449Y-145836379D01*
X234911774Y-145606911D01*
X235106911Y-145411774D01*
X235336379Y-145258449D01*
X235485733Y-145196585D01*
X235591343Y-145152839D01*
X235681567Y-145134893D01*
X235862012Y-145099000D01*
X236137988Y-145099000D01*
X236318433Y-145134893D01*
X236318433Y-145134893D01*
G37*
G36*
X199030560Y-145503079D02*
X199084552Y-145513819D01*
X199237131Y-145577019D01*
X199374449Y-145668772D01*
X199491228Y-145785551D01*
X199582981Y-145922869D01*
X199646181Y-146075448D01*
X199678400Y-146237425D01*
X199678400Y-146402575D01*
X199646181Y-146564552D01*
X199582981Y-146717131D01*
X199491228Y-146854449D01*
X199374449Y-146971228D01*
X199237131Y-147062981D01*
X199084552Y-147126181D01*
X199030560Y-147136921D01*
X198922577Y-147158400D01*
X198757423Y-147158400D01*
X198649440Y-147136921D01*
X198595448Y-147126181D01*
X198442869Y-147062981D01*
X198305551Y-146971228D01*
X198188772Y-146854449D01*
X198097019Y-146717131D01*
X198033819Y-146564552D01*
X198001600Y-146402575D01*
X198001600Y-146237425D01*
X198033819Y-146075448D01*
X198097019Y-145922869D01*
X198188772Y-145785551D01*
X198305551Y-145668772D01*
X198442869Y-145577019D01*
X198595448Y-145513819D01*
X198649440Y-145503079D01*
X198757423Y-145481600D01*
X198922577Y-145481600D01*
X199030560Y-145503079D01*
X199030560Y-145503079D01*
G37*
G36*
X191410560Y-145503079D02*
X191464552Y-145513819D01*
X191617131Y-145577019D01*
X191754449Y-145668772D01*
X191871228Y-145785551D01*
X191962981Y-145922869D01*
X192026181Y-146075448D01*
X192058400Y-146237425D01*
X192058400Y-146402575D01*
X192026181Y-146564552D01*
X191962981Y-146717131D01*
X191871228Y-146854449D01*
X191754449Y-146971228D01*
X191617131Y-147062981D01*
X191464552Y-147126181D01*
X191410560Y-147136921D01*
X191302577Y-147158400D01*
X191137423Y-147158400D01*
X191029440Y-147136921D01*
X190975448Y-147126181D01*
X190822869Y-147062981D01*
X190685551Y-146971228D01*
X190568772Y-146854449D01*
X190477019Y-146717131D01*
X190413819Y-146564552D01*
X190381600Y-146402575D01*
X190381600Y-146237425D01*
X190413819Y-146075448D01*
X190477019Y-145922869D01*
X190568772Y-145785551D01*
X190685551Y-145668772D01*
X190822869Y-145577019D01*
X190975448Y-145513819D01*
X191029440Y-145503079D01*
X191137423Y-145481600D01*
X191302577Y-145481600D01*
X191410560Y-145503079D01*
X191410560Y-145503079D01*
G37*
G36*
X226970560Y-145503079D02*
X227024552Y-145513819D01*
X227177131Y-145577019D01*
X227314449Y-145668772D01*
X227431228Y-145785551D01*
X227522981Y-145922869D01*
X227586181Y-146075448D01*
X227618400Y-146237425D01*
X227618400Y-146402575D01*
X227586181Y-146564552D01*
X227522981Y-146717131D01*
X227431228Y-146854449D01*
X227314449Y-146971228D01*
X227177131Y-147062981D01*
X227024552Y-147126181D01*
X226970560Y-147136921D01*
X226862577Y-147158400D01*
X226697423Y-147158400D01*
X226589440Y-147136921D01*
X226535448Y-147126181D01*
X226382869Y-147062981D01*
X226245551Y-146971228D01*
X226128772Y-146854449D01*
X226037019Y-146717131D01*
X225973819Y-146564552D01*
X225941600Y-146402575D01*
X225941600Y-146237425D01*
X225973819Y-146075448D01*
X226037019Y-145922869D01*
X226128772Y-145785551D01*
X226245551Y-145668772D01*
X226382869Y-145577019D01*
X226535448Y-145513819D01*
X226589440Y-145503079D01*
X226697423Y-145481600D01*
X226862577Y-145481600D01*
X226970560Y-145503079D01*
X226970560Y-145503079D01*
G37*
G36*
X236318433Y-140134893D02*
X236408657Y-140152839D01*
X236514267Y-140196585D01*
X236663621Y-140258449D01*
X236893089Y-140411774D01*
X237088226Y-140606911D01*
X237241551Y-140836379D01*
X237347161Y-141091344D01*
X237401000Y-141362012D01*
X237401000Y-141637988D01*
X237347161Y-141908656D01*
X237241551Y-142163621D01*
X237088226Y-142393089D01*
X236893089Y-142588226D01*
X236663621Y-142741551D01*
X236514267Y-142803415D01*
X236408657Y-142847161D01*
X236318433Y-142865107D01*
X236137988Y-142901000D01*
X235862012Y-142901000D01*
X235681567Y-142865107D01*
X235591343Y-142847161D01*
X235485733Y-142803415D01*
X235336379Y-142741551D01*
X235106911Y-142588226D01*
X234911774Y-142393089D01*
X234758449Y-142163621D01*
X234652839Y-141908656D01*
X234599000Y-141637988D01*
X234599000Y-141362012D01*
X234652839Y-141091344D01*
X234758449Y-140836379D01*
X234911774Y-140606911D01*
X235106911Y-140411774D01*
X235336379Y-140258449D01*
X235485733Y-140196585D01*
X235591343Y-140152839D01*
X235681567Y-140134893D01*
X235862012Y-140099000D01*
X236137988Y-140099000D01*
X236318433Y-140134893D01*
X236318433Y-140134893D01*
G37*
G36*
X241318433Y-140134893D02*
X241408657Y-140152839D01*
X241514267Y-140196585D01*
X241663621Y-140258449D01*
X241893089Y-140411774D01*
X242088226Y-140606911D01*
X242241551Y-140836379D01*
X242347161Y-141091344D01*
X242401000Y-141362012D01*
X242401000Y-141637988D01*
X242347161Y-141908656D01*
X242241551Y-142163621D01*
X242088226Y-142393089D01*
X241893089Y-142588226D01*
X241663621Y-142741551D01*
X241514267Y-142803415D01*
X241408657Y-142847161D01*
X241318433Y-142865107D01*
X241137988Y-142901000D01*
X240862012Y-142901000D01*
X240681567Y-142865107D01*
X240591343Y-142847161D01*
X240485733Y-142803415D01*
X240336379Y-142741551D01*
X240106911Y-142588226D01*
X239911774Y-142393089D01*
X239758449Y-142163621D01*
X239652839Y-141908656D01*
X239599000Y-141637988D01*
X239599000Y-141362012D01*
X239652839Y-141091344D01*
X239758449Y-140836379D01*
X239911774Y-140606911D01*
X240106911Y-140411774D01*
X240336379Y-140258449D01*
X240485733Y-140196585D01*
X240591343Y-140152839D01*
X240681567Y-140134893D01*
X240862012Y-140099000D01*
X241137988Y-140099000D01*
X241318433Y-140134893D01*
X241318433Y-140134893D01*
G37*
G36*
X241318433Y-135134893D02*
X241408657Y-135152839D01*
X241514267Y-135196585D01*
X241663621Y-135258449D01*
X241893089Y-135411774D01*
X242088226Y-135606911D01*
X242241551Y-135836379D01*
X242347161Y-136091344D01*
X242401000Y-136362012D01*
X242401000Y-136637988D01*
X242347161Y-136908656D01*
X242241551Y-137163621D01*
X242088226Y-137393089D01*
X241893089Y-137588226D01*
X241663621Y-137741551D01*
X241514267Y-137803415D01*
X241408657Y-137847161D01*
X241318433Y-137865107D01*
X241137988Y-137901000D01*
X240862012Y-137901000D01*
X240681567Y-137865107D01*
X240591343Y-137847161D01*
X240485733Y-137803415D01*
X240336379Y-137741551D01*
X240106911Y-137588226D01*
X239911774Y-137393089D01*
X239758449Y-137163621D01*
X239652839Y-136908656D01*
X239599000Y-136637988D01*
X239599000Y-136362012D01*
X239652839Y-136091344D01*
X239758449Y-135836379D01*
X239911774Y-135606911D01*
X240106911Y-135411774D01*
X240336379Y-135258449D01*
X240485733Y-135196585D01*
X240591343Y-135152839D01*
X240681567Y-135134893D01*
X240862012Y-135099000D01*
X241137988Y-135099000D01*
X241318433Y-135134893D01*
X241318433Y-135134893D01*
G37*
G36*
X236318433Y-135134893D02*
X236408657Y-135152839D01*
X236514267Y-135196585D01*
X236663621Y-135258449D01*
X236893089Y-135411774D01*
X237088226Y-135606911D01*
X237241551Y-135836379D01*
X237347161Y-136091344D01*
X237401000Y-136362012D01*
X237401000Y-136637988D01*
X237347161Y-136908656D01*
X237241551Y-137163621D01*
X237088226Y-137393089D01*
X236893089Y-137588226D01*
X236663621Y-137741551D01*
X236514267Y-137803415D01*
X236408657Y-137847161D01*
X236318433Y-137865107D01*
X236137988Y-137901000D01*
X235862012Y-137901000D01*
X235681567Y-137865107D01*
X235591343Y-137847161D01*
X235485733Y-137803415D01*
X235336379Y-137741551D01*
X235106911Y-137588226D01*
X234911774Y-137393089D01*
X234758449Y-137163621D01*
X234652839Y-136908656D01*
X234599000Y-136637988D01*
X234599000Y-136362012D01*
X234652839Y-136091344D01*
X234758449Y-135836379D01*
X234911774Y-135606911D01*
X235106911Y-135411774D01*
X235336379Y-135258449D01*
X235485733Y-135196585D01*
X235591343Y-135152839D01*
X235681567Y-135134893D01*
X235862012Y-135099000D01*
X236137988Y-135099000D01*
X236318433Y-135134893D01*
X236318433Y-135134893D01*
G37*
G36*
X241318433Y-130134893D02*
X241408657Y-130152839D01*
X241514267Y-130196585D01*
X241663621Y-130258449D01*
X241893089Y-130411774D01*
X242088226Y-130606911D01*
X242241551Y-130836379D01*
X242303415Y-130985733D01*
X242308259Y-130997425D01*
X242347161Y-131091344D01*
X242401000Y-131362012D01*
X242401000Y-131637988D01*
X242347161Y-131908656D01*
X242241551Y-132163621D01*
X242088226Y-132393089D01*
X241893089Y-132588226D01*
X241663621Y-132741551D01*
X241514267Y-132803415D01*
X241408657Y-132847161D01*
X241318433Y-132865107D01*
X241137988Y-132901000D01*
X240862012Y-132901000D01*
X240681567Y-132865107D01*
X240591343Y-132847161D01*
X240485733Y-132803415D01*
X240336379Y-132741551D01*
X240106911Y-132588226D01*
X239911774Y-132393089D01*
X239758449Y-132163621D01*
X239652839Y-131908656D01*
X239599000Y-131637988D01*
X239599000Y-131362012D01*
X239652839Y-131091344D01*
X239691742Y-130997425D01*
X239696585Y-130985733D01*
X239758449Y-130836379D01*
X239911774Y-130606911D01*
X240106911Y-130411774D01*
X240336379Y-130258449D01*
X240485733Y-130196585D01*
X240591343Y-130152839D01*
X240681567Y-130134893D01*
X240862012Y-130099000D01*
X241137988Y-130099000D01*
X241318433Y-130134893D01*
X241318433Y-130134893D01*
G37*
G36*
X236318433Y-130134893D02*
X236408657Y-130152839D01*
X236514267Y-130196585D01*
X236663621Y-130258449D01*
X236893089Y-130411774D01*
X237088226Y-130606911D01*
X237241551Y-130836379D01*
X237303415Y-130985733D01*
X237308259Y-130997425D01*
X237347161Y-131091344D01*
X237401000Y-131362012D01*
X237401000Y-131637988D01*
X237347161Y-131908656D01*
X237241551Y-132163621D01*
X237088226Y-132393089D01*
X236893089Y-132588226D01*
X236663621Y-132741551D01*
X236514267Y-132803415D01*
X236408657Y-132847161D01*
X236318433Y-132865107D01*
X236137988Y-132901000D01*
X235862012Y-132901000D01*
X235681567Y-132865107D01*
X235591343Y-132847161D01*
X235485733Y-132803415D01*
X235336379Y-132741551D01*
X235106911Y-132588226D01*
X234911774Y-132393089D01*
X234758449Y-132163621D01*
X234652839Y-131908656D01*
X234599000Y-131637988D01*
X234599000Y-131362012D01*
X234652839Y-131091344D01*
X234691742Y-130997425D01*
X234696585Y-130985733D01*
X234758449Y-130836379D01*
X234911774Y-130606911D01*
X235106911Y-130411774D01*
X235336379Y-130258449D01*
X235485733Y-130196585D01*
X235591343Y-130152839D01*
X235681567Y-130134893D01*
X235862012Y-130099000D01*
X236137988Y-130099000D01*
X236318433Y-130134893D01*
X236318433Y-130134893D01*
G37*
G36*
X216810560Y-130263079D02*
X216864552Y-130273819D01*
X217017131Y-130337019D01*
X217154449Y-130428772D01*
X217271228Y-130545551D01*
X217362981Y-130682869D01*
X217426181Y-130835448D01*
X217458400Y-130997425D01*
X217458400Y-131162575D01*
X217426181Y-131324552D01*
X217362981Y-131477131D01*
X217271228Y-131614449D01*
X217154449Y-131731228D01*
X217017131Y-131822981D01*
X216864552Y-131886181D01*
X216810560Y-131896921D01*
X216702577Y-131918400D01*
X216537423Y-131918400D01*
X216429440Y-131896921D01*
X216375448Y-131886181D01*
X216222869Y-131822981D01*
X216085551Y-131731228D01*
X215968772Y-131614449D01*
X215877019Y-131477131D01*
X215813819Y-131324552D01*
X215781600Y-131162575D01*
X215781600Y-130997425D01*
X215813819Y-130835448D01*
X215877019Y-130682869D01*
X215968772Y-130545551D01*
X216085551Y-130428772D01*
X216222869Y-130337019D01*
X216375448Y-130273819D01*
X216429440Y-130263079D01*
X216537423Y-130241600D01*
X216702577Y-130241600D01*
X216810560Y-130263079D01*
X216810560Y-130263079D01*
G37*
G36*
X209190560Y-130263079D02*
X209244552Y-130273819D01*
X209397131Y-130337019D01*
X209534449Y-130428772D01*
X209651228Y-130545551D01*
X209742981Y-130682869D01*
X209806181Y-130835448D01*
X209838400Y-130997425D01*
X209838400Y-131162575D01*
X209806181Y-131324552D01*
X209742981Y-131477131D01*
X209651228Y-131614449D01*
X209534449Y-131731228D01*
X209397131Y-131822981D01*
X209244552Y-131886181D01*
X209190560Y-131896921D01*
X209082577Y-131918400D01*
X208917423Y-131918400D01*
X208809440Y-131896921D01*
X208755448Y-131886181D01*
X208602869Y-131822981D01*
X208465551Y-131731228D01*
X208348772Y-131614449D01*
X208257019Y-131477131D01*
X208193819Y-131324552D01*
X208161600Y-131162575D01*
X208161600Y-130997425D01*
X208193819Y-130835448D01*
X208257019Y-130682869D01*
X208348772Y-130545551D01*
X208465551Y-130428772D01*
X208602869Y-130337019D01*
X208755448Y-130273819D01*
X208809440Y-130263079D01*
X208917423Y-130241600D01*
X209082577Y-130241600D01*
X209190560Y-130263079D01*
X209190560Y-130263079D01*
G37*
G36*
X226970560Y-130263079D02*
X227024552Y-130273819D01*
X227177131Y-130337019D01*
X227314449Y-130428772D01*
X227431228Y-130545551D01*
X227522981Y-130682869D01*
X227586181Y-130835448D01*
X227618400Y-130997425D01*
X227618400Y-131162575D01*
X227586181Y-131324552D01*
X227522981Y-131477131D01*
X227431228Y-131614449D01*
X227314449Y-131731228D01*
X227177131Y-131822981D01*
X227024552Y-131886181D01*
X226970560Y-131896921D01*
X226862577Y-131918400D01*
X226697423Y-131918400D01*
X226589440Y-131896921D01*
X226535448Y-131886181D01*
X226382869Y-131822981D01*
X226245551Y-131731228D01*
X226128772Y-131614449D01*
X226037019Y-131477131D01*
X225973819Y-131324552D01*
X225941600Y-131162575D01*
X225941600Y-130997425D01*
X225973819Y-130835448D01*
X226037019Y-130682869D01*
X226128772Y-130545551D01*
X226245551Y-130428772D01*
X226382869Y-130337019D01*
X226535448Y-130273819D01*
X226589440Y-130263079D01*
X226697423Y-130241600D01*
X226862577Y-130241600D01*
X226970560Y-130263079D01*
X226970560Y-130263079D01*
G37*
G36*
X224430560Y-130263079D02*
X224484552Y-130273819D01*
X224637131Y-130337019D01*
X224774449Y-130428772D01*
X224891228Y-130545551D01*
X224982981Y-130682869D01*
X225046181Y-130835448D01*
X225078400Y-130997425D01*
X225078400Y-131162575D01*
X225046181Y-131324552D01*
X224982981Y-131477131D01*
X224891228Y-131614449D01*
X224774449Y-131731228D01*
X224637131Y-131822981D01*
X224484552Y-131886181D01*
X224430560Y-131896921D01*
X224322577Y-131918400D01*
X224157423Y-131918400D01*
X224049440Y-131896921D01*
X223995448Y-131886181D01*
X223842869Y-131822981D01*
X223705551Y-131731228D01*
X223588772Y-131614449D01*
X223497019Y-131477131D01*
X223433819Y-131324552D01*
X223401600Y-131162575D01*
X223401600Y-130997425D01*
X223433819Y-130835448D01*
X223497019Y-130682869D01*
X223588772Y-130545551D01*
X223705551Y-130428772D01*
X223842869Y-130337019D01*
X223995448Y-130273819D01*
X224049440Y-130263079D01*
X224157423Y-130241600D01*
X224322577Y-130241600D01*
X224430560Y-130263079D01*
X224430560Y-130263079D01*
G37*
G36*
X219350560Y-130263079D02*
X219404552Y-130273819D01*
X219557131Y-130337019D01*
X219694449Y-130428772D01*
X219811228Y-130545551D01*
X219902981Y-130682869D01*
X219966181Y-130835448D01*
X219998400Y-130997425D01*
X219998400Y-131162575D01*
X219966181Y-131324552D01*
X219902981Y-131477131D01*
X219811228Y-131614449D01*
X219694449Y-131731228D01*
X219557131Y-131822981D01*
X219404552Y-131886181D01*
X219350560Y-131896921D01*
X219242577Y-131918400D01*
X219077423Y-131918400D01*
X218969440Y-131896921D01*
X218915448Y-131886181D01*
X218762869Y-131822981D01*
X218625551Y-131731228D01*
X218508772Y-131614449D01*
X218417019Y-131477131D01*
X218353819Y-131324552D01*
X218321600Y-131162575D01*
X218321600Y-130997425D01*
X218353819Y-130835448D01*
X218417019Y-130682869D01*
X218508772Y-130545551D01*
X218625551Y-130428772D01*
X218762869Y-130337019D01*
X218915448Y-130273819D01*
X218969440Y-130263079D01*
X219077423Y-130241600D01*
X219242577Y-130241600D01*
X219350560Y-130263079D01*
X219350560Y-130263079D01*
G37*
G36*
X214270560Y-130263079D02*
X214324552Y-130273819D01*
X214477131Y-130337019D01*
X214614449Y-130428772D01*
X214731228Y-130545551D01*
X214822981Y-130682869D01*
X214886181Y-130835448D01*
X214918400Y-130997425D01*
X214918400Y-131162575D01*
X214886181Y-131324552D01*
X214822981Y-131477131D01*
X214731228Y-131614449D01*
X214614449Y-131731228D01*
X214477131Y-131822981D01*
X214324552Y-131886181D01*
X214270560Y-131896921D01*
X214162577Y-131918400D01*
X213997423Y-131918400D01*
X213889440Y-131896921D01*
X213835448Y-131886181D01*
X213682869Y-131822981D01*
X213545551Y-131731228D01*
X213428772Y-131614449D01*
X213337019Y-131477131D01*
X213273819Y-131324552D01*
X213241600Y-131162575D01*
X213241600Y-130997425D01*
X213273819Y-130835448D01*
X213337019Y-130682869D01*
X213428772Y-130545551D01*
X213545551Y-130428772D01*
X213682869Y-130337019D01*
X213835448Y-130273819D01*
X213889440Y-130263079D01*
X213997423Y-130241600D01*
X214162577Y-130241600D01*
X214270560Y-130263079D01*
X214270560Y-130263079D01*
G37*
G36*
X206650560Y-130263079D02*
X206704552Y-130273819D01*
X206857131Y-130337019D01*
X206994449Y-130428772D01*
X207111228Y-130545551D01*
X207202981Y-130682869D01*
X207266181Y-130835448D01*
X207298400Y-130997425D01*
X207298400Y-131162575D01*
X207266181Y-131324552D01*
X207202981Y-131477131D01*
X207111228Y-131614449D01*
X206994449Y-131731228D01*
X206857131Y-131822981D01*
X206704552Y-131886181D01*
X206650560Y-131896921D01*
X206542577Y-131918400D01*
X206377423Y-131918400D01*
X206269440Y-131896921D01*
X206215448Y-131886181D01*
X206062869Y-131822981D01*
X205925551Y-131731228D01*
X205808772Y-131614449D01*
X205717019Y-131477131D01*
X205653819Y-131324552D01*
X205621600Y-131162575D01*
X205621600Y-130997425D01*
X205653819Y-130835448D01*
X205717019Y-130682869D01*
X205808772Y-130545551D01*
X205925551Y-130428772D01*
X206062869Y-130337019D01*
X206215448Y-130273819D01*
X206269440Y-130263079D01*
X206377423Y-130241600D01*
X206542577Y-130241600D01*
X206650560Y-130263079D01*
X206650560Y-130263079D01*
G37*
G36*
X211730560Y-130263079D02*
X211784552Y-130273819D01*
X211937131Y-130337019D01*
X212074449Y-130428772D01*
X212191228Y-130545551D01*
X212282981Y-130682869D01*
X212346181Y-130835448D01*
X212378400Y-130997425D01*
X212378400Y-131162575D01*
X212346181Y-131324552D01*
X212282981Y-131477131D01*
X212191228Y-131614449D01*
X212074449Y-131731228D01*
X211937131Y-131822981D01*
X211784552Y-131886181D01*
X211730560Y-131896921D01*
X211622577Y-131918400D01*
X211457423Y-131918400D01*
X211349440Y-131896921D01*
X211295448Y-131886181D01*
X211142869Y-131822981D01*
X211005551Y-131731228D01*
X210888772Y-131614449D01*
X210797019Y-131477131D01*
X210733819Y-131324552D01*
X210701600Y-131162575D01*
X210701600Y-130997425D01*
X210733819Y-130835448D01*
X210797019Y-130682869D01*
X210888772Y-130545551D01*
X211005551Y-130428772D01*
X211142869Y-130337019D01*
X211295448Y-130273819D01*
X211349440Y-130263079D01*
X211457423Y-130241600D01*
X211622577Y-130241600D01*
X211730560Y-130263079D01*
X211730560Y-130263079D01*
G37*
G36*
X193950560Y-130263079D02*
X194004552Y-130273819D01*
X194157131Y-130337019D01*
X194294449Y-130428772D01*
X194411228Y-130545551D01*
X194502981Y-130682869D01*
X194566181Y-130835448D01*
X194598400Y-130997425D01*
X194598400Y-131162575D01*
X194566181Y-131324552D01*
X194502981Y-131477131D01*
X194411228Y-131614449D01*
X194294449Y-131731228D01*
X194157131Y-131822981D01*
X194004552Y-131886181D01*
X193950560Y-131896921D01*
X193842577Y-131918400D01*
X193677423Y-131918400D01*
X193569440Y-131896921D01*
X193515448Y-131886181D01*
X193362869Y-131822981D01*
X193225551Y-131731228D01*
X193108772Y-131614449D01*
X193017019Y-131477131D01*
X192953819Y-131324552D01*
X192921600Y-131162575D01*
X192921600Y-130997425D01*
X192953819Y-130835448D01*
X193017019Y-130682869D01*
X193108772Y-130545551D01*
X193225551Y-130428772D01*
X193362869Y-130337019D01*
X193515448Y-130273819D01*
X193569440Y-130263079D01*
X193677423Y-130241600D01*
X193842577Y-130241600D01*
X193950560Y-130263079D01*
X193950560Y-130263079D01*
G37*
G36*
X196490560Y-130263079D02*
X196544552Y-130273819D01*
X196697131Y-130337019D01*
X196834449Y-130428772D01*
X196951228Y-130545551D01*
X197042981Y-130682869D01*
X197106181Y-130835448D01*
X197138400Y-130997425D01*
X197138400Y-131162575D01*
X197106181Y-131324552D01*
X197042981Y-131477131D01*
X196951228Y-131614449D01*
X196834449Y-131731228D01*
X196697131Y-131822981D01*
X196544552Y-131886181D01*
X196490560Y-131896921D01*
X196382577Y-131918400D01*
X196217423Y-131918400D01*
X196109440Y-131896921D01*
X196055448Y-131886181D01*
X195902869Y-131822981D01*
X195765551Y-131731228D01*
X195648772Y-131614449D01*
X195557019Y-131477131D01*
X195493819Y-131324552D01*
X195461600Y-131162575D01*
X195461600Y-130997425D01*
X195493819Y-130835448D01*
X195557019Y-130682869D01*
X195648772Y-130545551D01*
X195765551Y-130428772D01*
X195902869Y-130337019D01*
X196055448Y-130273819D01*
X196109440Y-130263079D01*
X196217423Y-130241600D01*
X196382577Y-130241600D01*
X196490560Y-130263079D01*
X196490560Y-130263079D01*
G37*
G36*
X199030560Y-130263079D02*
X199084552Y-130273819D01*
X199237131Y-130337019D01*
X199374449Y-130428772D01*
X199491228Y-130545551D01*
X199582981Y-130682869D01*
X199646181Y-130835448D01*
X199678400Y-130997425D01*
X199678400Y-131162575D01*
X199646181Y-131324552D01*
X199582981Y-131477131D01*
X199491228Y-131614449D01*
X199374449Y-131731228D01*
X199237131Y-131822981D01*
X199084552Y-131886181D01*
X199030560Y-131896921D01*
X198922577Y-131918400D01*
X198757423Y-131918400D01*
X198649440Y-131896921D01*
X198595448Y-131886181D01*
X198442869Y-131822981D01*
X198305551Y-131731228D01*
X198188772Y-131614449D01*
X198097019Y-131477131D01*
X198033819Y-131324552D01*
X198001600Y-131162575D01*
X198001600Y-130997425D01*
X198033819Y-130835448D01*
X198097019Y-130682869D01*
X198188772Y-130545551D01*
X198305551Y-130428772D01*
X198442869Y-130337019D01*
X198595448Y-130273819D01*
X198649440Y-130263079D01*
X198757423Y-130241600D01*
X198922577Y-130241600D01*
X199030560Y-130263079D01*
X199030560Y-130263079D01*
G37*
G36*
X204110560Y-130263079D02*
X204164552Y-130273819D01*
X204317131Y-130337019D01*
X204454449Y-130428772D01*
X204571228Y-130545551D01*
X204662981Y-130682869D01*
X204726181Y-130835448D01*
X204758400Y-130997425D01*
X204758400Y-131162575D01*
X204726181Y-131324552D01*
X204662981Y-131477131D01*
X204571228Y-131614449D01*
X204454449Y-131731228D01*
X204317131Y-131822981D01*
X204164552Y-131886181D01*
X204110560Y-131896921D01*
X204002577Y-131918400D01*
X203837423Y-131918400D01*
X203729440Y-131896921D01*
X203675448Y-131886181D01*
X203522869Y-131822981D01*
X203385551Y-131731228D01*
X203268772Y-131614449D01*
X203177019Y-131477131D01*
X203113819Y-131324552D01*
X203081600Y-131162575D01*
X203081600Y-130997425D01*
X203113819Y-130835448D01*
X203177019Y-130682869D01*
X203268772Y-130545551D01*
X203385551Y-130428772D01*
X203522869Y-130337019D01*
X203675448Y-130273819D01*
X203729440Y-130263079D01*
X203837423Y-130241600D01*
X204002577Y-130241600D01*
X204110560Y-130263079D01*
X204110560Y-130263079D01*
G37*
G36*
X201570560Y-130263079D02*
X201624552Y-130273819D01*
X201777131Y-130337019D01*
X201914449Y-130428772D01*
X202031228Y-130545551D01*
X202122981Y-130682869D01*
X202186181Y-130835448D01*
X202218400Y-130997425D01*
X202218400Y-131162575D01*
X202186181Y-131324552D01*
X202122981Y-131477131D01*
X202031228Y-131614449D01*
X201914449Y-131731228D01*
X201777131Y-131822981D01*
X201624552Y-131886181D01*
X201570560Y-131896921D01*
X201462577Y-131918400D01*
X201297423Y-131918400D01*
X201189440Y-131896921D01*
X201135448Y-131886181D01*
X200982869Y-131822981D01*
X200845551Y-131731228D01*
X200728772Y-131614449D01*
X200637019Y-131477131D01*
X200573819Y-131324552D01*
X200541600Y-131162575D01*
X200541600Y-130997425D01*
X200573819Y-130835448D01*
X200637019Y-130682869D01*
X200728772Y-130545551D01*
X200845551Y-130428772D01*
X200982869Y-130337019D01*
X201135448Y-130273819D01*
X201189440Y-130263079D01*
X201297423Y-130241600D01*
X201462577Y-130241600D01*
X201570560Y-130263079D01*
X201570560Y-130263079D01*
G37*
G36*
X191410560Y-130263079D02*
X191464552Y-130273819D01*
X191617131Y-130337019D01*
X191754449Y-130428772D01*
X191871228Y-130545551D01*
X191962981Y-130682869D01*
X192026181Y-130835448D01*
X192058400Y-130997425D01*
X192058400Y-131162575D01*
X192026181Y-131324552D01*
X191962981Y-131477131D01*
X191871228Y-131614449D01*
X191754449Y-131731228D01*
X191617131Y-131822981D01*
X191464552Y-131886181D01*
X191410560Y-131896921D01*
X191302577Y-131918400D01*
X191137423Y-131918400D01*
X191029440Y-131896921D01*
X190975448Y-131886181D01*
X190822869Y-131822981D01*
X190685551Y-131731228D01*
X190568772Y-131614449D01*
X190477019Y-131477131D01*
X190413819Y-131324552D01*
X190381600Y-131162575D01*
X190381600Y-130997425D01*
X190413819Y-130835448D01*
X190477019Y-130682869D01*
X190568772Y-130545551D01*
X190685551Y-130428772D01*
X190822869Y-130337019D01*
X190975448Y-130273819D01*
X191029440Y-130263079D01*
X191137423Y-130241600D01*
X191302577Y-130241600D01*
X191410560Y-130263079D01*
X191410560Y-130263079D01*
G37*
G36*
X222699540Y-128801040D02*
X221698780Y-128801040D01*
X221698780Y-127398960D01*
X222699540Y-127398960D01*
X222699540Y-128801040D01*
X222699540Y-128801040D01*
G37*
G36*
X220901220Y-128801040D02*
X219900460Y-128801040D01*
X219900460Y-127398960D01*
X220901220Y-127398960D01*
X220901220Y-128801040D01*
X220901220Y-128801040D01*
G37*
G36*
X241318433Y-125134893D02*
X241408657Y-125152839D01*
X241514267Y-125196585D01*
X241663621Y-125258449D01*
X241893089Y-125411774D01*
X242088226Y-125606911D01*
X242241551Y-125836379D01*
X242347161Y-126091344D01*
X242401000Y-126362012D01*
X242401000Y-126637988D01*
X242347161Y-126908656D01*
X242241551Y-127163621D01*
X242088226Y-127393089D01*
X241893089Y-127588226D01*
X241663621Y-127741551D01*
X241514267Y-127803415D01*
X241408657Y-127847161D01*
X241318433Y-127865107D01*
X241137988Y-127901000D01*
X240862012Y-127901000D01*
X240681567Y-127865107D01*
X240591343Y-127847161D01*
X240485733Y-127803415D01*
X240336379Y-127741551D01*
X240106911Y-127588226D01*
X239911774Y-127393089D01*
X239758449Y-127163621D01*
X239652839Y-126908656D01*
X239599000Y-126637988D01*
X239599000Y-126362012D01*
X239652839Y-126091344D01*
X239758449Y-125836379D01*
X239911774Y-125606911D01*
X240106911Y-125411774D01*
X240336379Y-125258449D01*
X240485733Y-125196585D01*
X240591343Y-125152839D01*
X240681567Y-125134893D01*
X240862012Y-125099000D01*
X241137988Y-125099000D01*
X241318433Y-125134893D01*
X241318433Y-125134893D01*
G37*
G36*
X236318433Y-125134893D02*
X236408657Y-125152839D01*
X236514267Y-125196585D01*
X236663621Y-125258449D01*
X236893089Y-125411774D01*
X237088226Y-125606911D01*
X237241551Y-125836379D01*
X237347161Y-126091344D01*
X237401000Y-126362012D01*
X237401000Y-126637988D01*
X237347161Y-126908656D01*
X237241551Y-127163621D01*
X237088226Y-127393089D01*
X236893089Y-127588226D01*
X236663621Y-127741551D01*
X236514267Y-127803415D01*
X236408657Y-127847161D01*
X236318433Y-127865107D01*
X236137988Y-127901000D01*
X235862012Y-127901000D01*
X235681567Y-127865107D01*
X235591343Y-127847161D01*
X235485733Y-127803415D01*
X235336379Y-127741551D01*
X235106911Y-127588226D01*
X234911774Y-127393089D01*
X234758449Y-127163621D01*
X234652839Y-126908656D01*
X234599000Y-126637988D01*
X234599000Y-126362012D01*
X234652839Y-126091344D01*
X234758449Y-125836379D01*
X234911774Y-125606911D01*
X235106911Y-125411774D01*
X235336379Y-125258449D01*
X235485733Y-125196585D01*
X235591343Y-125152839D01*
X235681567Y-125134893D01*
X235862012Y-125099000D01*
X236137988Y-125099000D01*
X236318433Y-125134893D01*
X236318433Y-125134893D01*
G37*
G36*
X246579485Y-124748996D02*
X246579487Y-124748997D01*
X246579488Y-124748997D01*
X246816255Y-124847069D01*
X247029342Y-124989449D01*
X247210551Y-125170658D01*
X247210553Y-125170661D01*
X247352931Y-125383745D01*
X247445371Y-125606914D01*
X247451004Y-125620515D01*
X247501000Y-125871861D01*
X247501000Y-126128139D01*
X247451004Y-126379485D01*
X247352931Y-126616255D01*
X247210551Y-126829342D01*
X247029342Y-127010551D01*
X247029339Y-127010553D01*
X246816255Y-127152931D01*
X246579488Y-127251003D01*
X246579487Y-127251003D01*
X246579485Y-127251004D01*
X246328139Y-127301000D01*
X246071861Y-127301000D01*
X245820515Y-127251004D01*
X245820513Y-127251003D01*
X245820512Y-127251003D01*
X245583745Y-127152931D01*
X245370661Y-127010553D01*
X245370658Y-127010551D01*
X245189449Y-126829342D01*
X245047069Y-126616255D01*
X244948996Y-126379485D01*
X244899000Y-126128139D01*
X244899000Y-125871861D01*
X244948996Y-125620515D01*
X244954630Y-125606914D01*
X245047069Y-125383745D01*
X245189447Y-125170661D01*
X245189449Y-125170658D01*
X245370658Y-124989449D01*
X245583745Y-124847069D01*
X245820512Y-124748997D01*
X245820513Y-124748997D01*
X245820515Y-124748996D01*
X246071861Y-124699000D01*
X246328139Y-124699000D01*
X246579485Y-124748996D01*
X246579485Y-124748996D01*
G37*
G36*
X220803400Y-121947600D02*
X220805802Y-121971986D01*
X220812915Y-121995435D01*
X220824466Y-122017046D01*
X220840012Y-122035988D01*
X220853194Y-122046806D01*
X220864012Y-122059988D01*
X220882954Y-122075534D01*
X220904565Y-122087085D01*
X220928014Y-122094198D01*
X220952400Y-122096600D01*
X222008500Y-122096600D01*
X222008500Y-125503400D01*
X220952400Y-125503400D01*
X220928014Y-125505802D01*
X220904565Y-125512915D01*
X220882954Y-125524466D01*
X220864012Y-125540012D01*
X220853194Y-125553194D01*
X220840012Y-125564012D01*
X220824466Y-125582954D01*
X220812915Y-125604565D01*
X220805802Y-125628014D01*
X220803400Y-125652400D01*
X220803400Y-126708500D01*
X217396600Y-126708500D01*
X217396600Y-125652400D01*
X217394198Y-125628014D01*
X217387085Y-125604565D01*
X217375534Y-125582954D01*
X217359988Y-125564012D01*
X217346806Y-125553194D01*
X217335988Y-125540012D01*
X217317046Y-125524466D01*
X217295435Y-125512915D01*
X217271986Y-125505802D01*
X217247600Y-125503400D01*
X216191500Y-125503400D01*
X216191500Y-122096600D01*
X217247600Y-122096600D01*
X217271986Y-122094198D01*
X217295435Y-122087085D01*
X217317046Y-122075534D01*
X217335988Y-122059988D01*
X217346806Y-122046806D01*
X217359988Y-122035988D01*
X217375534Y-122017046D01*
X217387085Y-121995435D01*
X217394198Y-121971986D01*
X217396600Y-121947600D01*
X217396600Y-120891500D01*
X220803400Y-120891500D01*
X220803400Y-121947600D01*
X220803400Y-121947600D01*
G37*
G36*
X230336800Y-123104198D02*
X228863200Y-123104198D01*
X228863200Y-120645800D01*
X230336800Y-120645800D01*
X230336800Y-123104198D01*
X230336800Y-123104198D01*
G37*
G36*
X225968000Y-123104198D02*
X224494400Y-123104198D01*
X224494400Y-120645800D01*
X225968000Y-120645800D01*
X225968000Y-123104198D01*
X225968000Y-123104198D01*
G37*
G36*
X241318433Y-120134893D02*
X241408657Y-120152839D01*
X241514267Y-120196585D01*
X241663621Y-120258449D01*
X241893089Y-120411774D01*
X242088226Y-120606911D01*
X242241551Y-120836379D01*
X242264383Y-120891500D01*
X242347161Y-121091343D01*
X242401000Y-121362014D01*
X242401000Y-121637986D01*
X242347161Y-121908657D01*
X242331030Y-121947600D01*
X242241551Y-122163621D01*
X242088226Y-122393089D01*
X241893089Y-122588226D01*
X241663621Y-122741551D01*
X241514267Y-122803415D01*
X241408657Y-122847161D01*
X241318433Y-122865107D01*
X241137988Y-122901000D01*
X240862012Y-122901000D01*
X240681567Y-122865107D01*
X240591343Y-122847161D01*
X240485733Y-122803415D01*
X240336379Y-122741551D01*
X240106911Y-122588226D01*
X239911774Y-122393089D01*
X239758449Y-122163621D01*
X239668970Y-121947600D01*
X239652839Y-121908657D01*
X239599000Y-121637986D01*
X239599000Y-121362014D01*
X239652839Y-121091343D01*
X239735617Y-120891500D01*
X239758449Y-120836379D01*
X239911774Y-120606911D01*
X240106911Y-120411774D01*
X240336379Y-120258449D01*
X240485733Y-120196585D01*
X240591343Y-120152839D01*
X240681567Y-120134893D01*
X240862012Y-120099000D01*
X241137988Y-120099000D01*
X241318433Y-120134893D01*
X241318433Y-120134893D01*
G37*
G36*
X236318433Y-120134893D02*
X236408657Y-120152839D01*
X236514267Y-120196585D01*
X236663621Y-120258449D01*
X236893089Y-120411774D01*
X237088226Y-120606911D01*
X237241551Y-120836379D01*
X237264383Y-120891500D01*
X237347161Y-121091343D01*
X237401000Y-121362014D01*
X237401000Y-121637986D01*
X237347161Y-121908657D01*
X237331030Y-121947600D01*
X237241551Y-122163621D01*
X237088226Y-122393089D01*
X236893089Y-122588226D01*
X236663621Y-122741551D01*
X236514267Y-122803415D01*
X236408657Y-122847161D01*
X236318433Y-122865107D01*
X236137988Y-122901000D01*
X235862012Y-122901000D01*
X235681567Y-122865107D01*
X235591343Y-122847161D01*
X235485733Y-122803415D01*
X235336379Y-122741551D01*
X235106911Y-122588226D01*
X234911774Y-122393089D01*
X234758449Y-122163621D01*
X234668970Y-121947600D01*
X234652839Y-121908657D01*
X234599000Y-121637986D01*
X234599000Y-121362014D01*
X234652839Y-121091343D01*
X234735617Y-120891500D01*
X234758449Y-120836379D01*
X234911774Y-120606911D01*
X235106911Y-120411774D01*
X235336379Y-120258449D01*
X235485733Y-120196585D01*
X235591343Y-120152839D01*
X235681567Y-120134893D01*
X235862012Y-120099000D01*
X236137988Y-120099000D01*
X236318433Y-120134893D01*
X236318433Y-120134893D01*
G37*
G36*
X232701040Y-122899540D02*
X231298960Y-122899540D01*
X231298960Y-121898780D01*
X232701040Y-121898780D01*
X232701040Y-122899540D01*
X232701040Y-122899540D01*
G37*
G36*
X210301000Y-121601000D02*
X209499000Y-121601000D01*
X209499000Y-120199000D01*
X210301000Y-120199000D01*
X210301000Y-121601000D01*
X210301000Y-121601000D01*
G37*
G36*
X208401000Y-121601000D02*
X207599000Y-121601000D01*
X207599000Y-120199000D01*
X208401000Y-120199000D01*
X208401000Y-121601000D01*
X208401000Y-121601000D01*
G37*
G36*
X213651000Y-121601000D02*
X212849000Y-121601000D01*
X212849000Y-120199000D01*
X213651000Y-120199000D01*
X213651000Y-121601000D01*
X213651000Y-121601000D01*
G37*
G36*
X211751000Y-121601000D02*
X210949000Y-121601000D01*
X210949000Y-120199000D01*
X211751000Y-120199000D01*
X211751000Y-121601000D01*
X211751000Y-121601000D01*
G37*
G36*
X232701040Y-121101220D02*
X231298960Y-121101220D01*
X231298960Y-120100460D01*
X232701040Y-120100460D01*
X232701040Y-121101220D01*
X232701040Y-121101220D01*
G37*
G36*
X228200380Y-119501040D02*
X227199620Y-119501040D01*
X227199620Y-118098960D01*
X228200380Y-118098960D01*
X228200380Y-119501040D01*
X228200380Y-119501040D01*
G37*
G36*
X226402060Y-119501040D02*
X225401300Y-119501040D01*
X225401300Y-118098960D01*
X226402060Y-118098960D01*
X226402060Y-119501040D01*
X226402060Y-119501040D01*
G37*
G36*
X236318433Y-115134893D02*
X236408657Y-115152839D01*
X236498238Y-115189945D01*
X236663621Y-115258449D01*
X236893089Y-115411774D01*
X237088226Y-115606911D01*
X237241551Y-115836379D01*
X237249367Y-115855249D01*
X237336767Y-116066249D01*
X237347161Y-116091344D01*
X237401000Y-116362012D01*
X237401000Y-116637988D01*
X237365107Y-116818433D01*
X237347765Y-116905622D01*
X237347161Y-116908656D01*
X237241551Y-117163621D01*
X237088226Y-117393089D01*
X236893089Y-117588226D01*
X236663621Y-117741551D01*
X236514267Y-117803415D01*
X236408657Y-117847161D01*
X236318433Y-117865107D01*
X236137988Y-117901000D01*
X235862012Y-117901000D01*
X235681567Y-117865107D01*
X235591343Y-117847161D01*
X235485733Y-117803415D01*
X235336379Y-117741551D01*
X235106911Y-117588226D01*
X234911774Y-117393089D01*
X234758449Y-117163621D01*
X234652839Y-116908656D01*
X234652236Y-116905622D01*
X234634893Y-116818433D01*
X234599000Y-116637988D01*
X234599000Y-116362012D01*
X234652839Y-116091344D01*
X234663234Y-116066249D01*
X234750633Y-115855249D01*
X234758449Y-115836379D01*
X234911774Y-115606911D01*
X235106911Y-115411774D01*
X235336379Y-115258449D01*
X235501762Y-115189945D01*
X235591343Y-115152839D01*
X235681567Y-115134893D01*
X235862012Y-115099000D01*
X236137988Y-115099000D01*
X236318433Y-115134893D01*
X236318433Y-115134893D01*
G37*
G36*
X241318433Y-115134893D02*
X241408657Y-115152839D01*
X241498238Y-115189945D01*
X241663621Y-115258449D01*
X241893089Y-115411774D01*
X242088226Y-115606911D01*
X242241551Y-115836379D01*
X242249367Y-115855249D01*
X242336767Y-116066249D01*
X242347161Y-116091344D01*
X242401000Y-116362012D01*
X242401000Y-116637988D01*
X242365107Y-116818433D01*
X242347765Y-116905622D01*
X242347161Y-116908656D01*
X242241551Y-117163621D01*
X242088226Y-117393089D01*
X241893089Y-117588226D01*
X241663621Y-117741551D01*
X241514267Y-117803415D01*
X241408657Y-117847161D01*
X241318433Y-117865107D01*
X241137988Y-117901000D01*
X240862012Y-117901000D01*
X240681567Y-117865107D01*
X240591343Y-117847161D01*
X240485733Y-117803415D01*
X240336379Y-117741551D01*
X240106911Y-117588226D01*
X239911774Y-117393089D01*
X239758449Y-117163621D01*
X239652839Y-116908656D01*
X239652236Y-116905622D01*
X239634893Y-116818433D01*
X239599000Y-116637988D01*
X239599000Y-116362012D01*
X239652839Y-116091344D01*
X239663234Y-116066249D01*
X239750633Y-115855249D01*
X239758449Y-115836379D01*
X239911774Y-115606911D01*
X240106911Y-115411774D01*
X240336379Y-115258449D01*
X240501762Y-115189945D01*
X240591343Y-115152839D01*
X240681567Y-115134893D01*
X240862012Y-115099000D01*
X241137988Y-115099000D01*
X241318433Y-115134893D01*
X241318433Y-115134893D01*
G37*
G36*
X205308445Y-112766254D02*
X205656593Y-112835504D01*
X206066249Y-113005189D01*
X206434929Y-113251534D01*
X206748466Y-113565071D01*
X206994811Y-113933751D01*
X207164496Y-114343407D01*
X207215336Y-114599000D01*
X207251000Y-114778294D01*
X207251000Y-115221706D01*
X207243691Y-115258449D01*
X207164496Y-115656593D01*
X206994811Y-116066249D01*
X206748466Y-116434929D01*
X206434929Y-116748466D01*
X206066249Y-116994811D01*
X205656593Y-117164496D01*
X205308445Y-117233746D01*
X205221706Y-117251000D01*
X204778294Y-117251000D01*
X204691555Y-117233746D01*
X204343407Y-117164496D01*
X203933751Y-116994811D01*
X203565071Y-116748466D01*
X203251534Y-116434929D01*
X203005189Y-116066249D01*
X202835504Y-115656593D01*
X202756309Y-115258449D01*
X202749000Y-115221706D01*
X202749000Y-114778294D01*
X202784664Y-114599000D01*
X202835504Y-114343407D01*
X203005189Y-113933751D01*
X203251534Y-113565071D01*
X203565071Y-113251534D01*
X203933751Y-113005189D01*
X204343407Y-112835504D01*
X204691555Y-112766254D01*
X204778294Y-112749000D01*
X205221706Y-112749000D01*
X205308445Y-112766254D01*
X205308445Y-112766254D01*
G37*
G36*
X236318433Y-110134893D02*
X236408657Y-110152839D01*
X236498238Y-110189945D01*
X236663621Y-110258449D01*
X236893089Y-110411774D01*
X237088226Y-110606911D01*
X237241551Y-110836379D01*
X237272503Y-110911104D01*
X237336767Y-111066249D01*
X237347161Y-111091344D01*
X237401000Y-111362012D01*
X237401000Y-111637988D01*
X237365107Y-111818433D01*
X237347765Y-111905622D01*
X237347161Y-111908656D01*
X237241551Y-112163621D01*
X237088226Y-112393089D01*
X236893089Y-112588226D01*
X236663621Y-112741551D01*
X236514267Y-112803415D01*
X236408657Y-112847161D01*
X236318433Y-112865107D01*
X236137988Y-112901000D01*
X235862012Y-112901000D01*
X235681567Y-112865107D01*
X235591343Y-112847161D01*
X235485733Y-112803415D01*
X235336379Y-112741551D01*
X235106911Y-112588226D01*
X234911774Y-112393089D01*
X234758449Y-112163621D01*
X234652839Y-111908656D01*
X234652236Y-111905622D01*
X234634893Y-111818433D01*
X234599000Y-111637988D01*
X234599000Y-111362012D01*
X234652839Y-111091344D01*
X234663234Y-111066249D01*
X234727497Y-110911104D01*
X234758449Y-110836379D01*
X234911774Y-110606911D01*
X235106911Y-110411774D01*
X235336379Y-110258449D01*
X235501762Y-110189945D01*
X235591343Y-110152839D01*
X235681567Y-110134893D01*
X235862012Y-110099000D01*
X236137988Y-110099000D01*
X236318433Y-110134893D01*
X236318433Y-110134893D01*
G37*
G36*
X241318433Y-110134893D02*
X241408657Y-110152839D01*
X241498238Y-110189945D01*
X241663621Y-110258449D01*
X241893089Y-110411774D01*
X242088226Y-110606911D01*
X242241551Y-110836379D01*
X242272503Y-110911104D01*
X242336767Y-111066249D01*
X242347161Y-111091344D01*
X242401000Y-111362012D01*
X242401000Y-111637988D01*
X242365107Y-111818433D01*
X242347765Y-111905622D01*
X242347161Y-111908656D01*
X242241551Y-112163621D01*
X242088226Y-112393089D01*
X241893089Y-112588226D01*
X241663621Y-112741551D01*
X241514267Y-112803415D01*
X241408657Y-112847161D01*
X241318433Y-112865107D01*
X241137988Y-112901000D01*
X240862012Y-112901000D01*
X240681567Y-112865107D01*
X240591343Y-112847161D01*
X240485733Y-112803415D01*
X240336379Y-112741551D01*
X240106911Y-112588226D01*
X239911774Y-112393089D01*
X239758449Y-112163621D01*
X239652839Y-111908656D01*
X239652236Y-111905622D01*
X239634893Y-111818433D01*
X239599000Y-111637988D01*
X239599000Y-111362012D01*
X239652839Y-111091344D01*
X239663234Y-111066249D01*
X239727497Y-110911104D01*
X239758449Y-110836379D01*
X239911774Y-110606911D01*
X240106911Y-110411774D01*
X240336379Y-110258449D01*
X240501762Y-110189945D01*
X240591343Y-110152839D01*
X240681567Y-110134893D01*
X240862012Y-110099000D01*
X241137988Y-110099000D01*
X241318433Y-110134893D01*
X241318433Y-110134893D01*
G37*
G36*
X212201000Y-112301000D02*
X210799000Y-112301000D01*
X210799000Y-111499000D01*
X212201000Y-111499000D01*
X212201000Y-112301000D01*
X212201000Y-112301000D01*
G37*
G36*
X226589921Y-107762569D02*
X226956593Y-107835504D01*
X227366249Y-108005189D01*
X227734929Y-108251534D01*
X228048466Y-108565071D01*
X228294811Y-108933751D01*
X228464496Y-109343407D01*
X228515336Y-109599000D01*
X228551000Y-109778294D01*
X228551000Y-110221706D01*
X228543691Y-110258449D01*
X228464496Y-110656593D01*
X228294811Y-111066249D01*
X228048466Y-111434929D01*
X227734929Y-111748466D01*
X227366249Y-111994811D01*
X226956593Y-112164496D01*
X226608445Y-112233746D01*
X226521706Y-112251000D01*
X226078294Y-112251000D01*
X225991555Y-112233746D01*
X225643407Y-112164496D01*
X225233751Y-111994811D01*
X224865071Y-111748466D01*
X224551534Y-111434929D01*
X224305189Y-111066249D01*
X224135504Y-110656593D01*
X224056309Y-110258449D01*
X224049000Y-110221706D01*
X224049000Y-109778294D01*
X224084664Y-109599000D01*
X224135504Y-109343407D01*
X224305189Y-108933751D01*
X224551534Y-108565071D01*
X224865071Y-108251534D01*
X225233751Y-108005189D01*
X225643407Y-107835504D01*
X226010079Y-107762569D01*
X226078294Y-107749000D01*
X226521706Y-107749000D01*
X226589921Y-107762569D01*
X226589921Y-107762569D01*
G37*
G36*
X246303765Y-109198620D02*
X246493289Y-109277123D01*
X246663855Y-109391092D01*
X246808908Y-109536145D01*
X246922877Y-109706711D01*
X247001380Y-109896235D01*
X247041400Y-110097430D01*
X247041400Y-110302570D01*
X247001380Y-110503765D01*
X246922877Y-110693289D01*
X246808908Y-110863855D01*
X246663855Y-111008908D01*
X246493289Y-111122877D01*
X246303765Y-111201380D01*
X246102570Y-111241400D01*
X245897430Y-111241400D01*
X245696235Y-111201380D01*
X245506711Y-111122877D01*
X245336145Y-111008908D01*
X245191092Y-110863855D01*
X245077123Y-110693289D01*
X244998620Y-110503765D01*
X244958600Y-110302570D01*
X244958600Y-110097430D01*
X244998620Y-109896235D01*
X245077123Y-109706711D01*
X245191092Y-109536145D01*
X245336145Y-109391092D01*
X245506711Y-109277123D01*
X245696235Y-109198620D01*
X245897430Y-109158600D01*
X246102570Y-109158600D01*
X246303765Y-109198620D01*
X246303765Y-109198620D01*
G37*
G36*
X205197000Y-110717000D02*
X203795000Y-110717000D01*
X203795000Y-109915000D01*
X205197000Y-109915000D01*
X205197000Y-110717000D01*
X205197000Y-110717000D01*
G37*
G36*
X207483000Y-110717000D02*
X206081000Y-110717000D01*
X206081000Y-109915000D01*
X207483000Y-109915000D01*
X207483000Y-110717000D01*
X207483000Y-110717000D01*
G37*
G36*
X212201000Y-110401000D02*
X210799000Y-110401000D01*
X210799000Y-109599000D01*
X212201000Y-109599000D01*
X212201000Y-110401000D01*
X212201000Y-110401000D01*
G37*
G36*
X209851560Y-109203550D02*
X208748800Y-109203550D01*
X208748800Y-108301450D01*
X209851560Y-108301450D01*
X209851560Y-109203550D01*
X209851560Y-109203550D01*
G37*
G36*
X205197000Y-108817000D02*
X203795000Y-108817000D01*
X203795000Y-108015000D01*
X205197000Y-108015000D01*
X205197000Y-108817000D01*
X205197000Y-108817000D01*
G37*
G36*
X207483000Y-108817000D02*
X206081000Y-108817000D01*
X206081000Y-108015000D01*
X207483000Y-108015000D01*
X207483000Y-108817000D01*
X207483000Y-108817000D01*
G37*
G36*
X246303765Y-106658620D02*
X246493289Y-106737123D01*
X246663855Y-106851092D01*
X246808908Y-106996145D01*
X246922877Y-107166711D01*
X247001380Y-107356235D01*
X247041400Y-107557430D01*
X247041400Y-107762570D01*
X247001380Y-107963765D01*
X246922877Y-108153289D01*
X246808908Y-108323855D01*
X246663855Y-108468908D01*
X246493289Y-108582877D01*
X246303765Y-108661380D01*
X246102570Y-108701400D01*
X245897430Y-108701400D01*
X245696235Y-108661380D01*
X245506711Y-108582877D01*
X245336145Y-108468908D01*
X245191092Y-108323855D01*
X245077123Y-108153289D01*
X244998620Y-107963765D01*
X244958600Y-107762570D01*
X244958600Y-107557430D01*
X244998620Y-107356235D01*
X245077123Y-107166711D01*
X245191092Y-106996145D01*
X245336145Y-106851092D01*
X245506711Y-106737123D01*
X245696235Y-106658620D01*
X245897430Y-106618600D01*
X246102570Y-106618600D01*
X246303765Y-106658620D01*
X246303765Y-106658620D01*
G37*
G36*
X212051200Y-108251050D02*
X210948440Y-108251050D01*
X210948440Y-107348950D01*
X212051200Y-107348950D01*
X212051200Y-108251050D01*
X212051200Y-108251050D01*
G37*
G36*
X236318433Y-105134893D02*
X236408657Y-105152839D01*
X236498238Y-105189945D01*
X236663621Y-105258449D01*
X236893089Y-105411774D01*
X237088226Y-105606911D01*
X237241551Y-105836379D01*
X237249367Y-105855249D01*
X237336767Y-106066249D01*
X237347161Y-106091344D01*
X237401000Y-106362012D01*
X237401000Y-106637988D01*
X237365107Y-106818433D01*
X237347161Y-106908657D01*
X237307104Y-107005361D01*
X237241551Y-107163621D01*
X237088226Y-107393089D01*
X236893089Y-107588226D01*
X236663621Y-107741551D01*
X236514267Y-107803415D01*
X236408657Y-107847161D01*
X236318433Y-107865107D01*
X236137988Y-107901000D01*
X235862012Y-107901000D01*
X235681567Y-107865107D01*
X235591343Y-107847161D01*
X235485733Y-107803415D01*
X235336379Y-107741551D01*
X235106911Y-107588226D01*
X234911774Y-107393089D01*
X234758449Y-107163621D01*
X234692896Y-107005361D01*
X234652839Y-106908657D01*
X234634893Y-106818433D01*
X234599000Y-106637988D01*
X234599000Y-106362012D01*
X234652839Y-106091344D01*
X234663234Y-106066249D01*
X234750633Y-105855249D01*
X234758449Y-105836379D01*
X234911774Y-105606911D01*
X235106911Y-105411774D01*
X235336379Y-105258449D01*
X235501762Y-105189945D01*
X235591343Y-105152839D01*
X235681567Y-105134893D01*
X235862012Y-105099000D01*
X236137988Y-105099000D01*
X236318433Y-105134893D01*
X236318433Y-105134893D01*
G37*
G36*
X241318433Y-105134893D02*
X241408657Y-105152839D01*
X241498238Y-105189945D01*
X241663621Y-105258449D01*
X241893089Y-105411774D01*
X242088226Y-105606911D01*
X242241551Y-105836379D01*
X242249367Y-105855249D01*
X242336767Y-106066249D01*
X242347161Y-106091344D01*
X242401000Y-106362012D01*
X242401000Y-106637988D01*
X242365107Y-106818433D01*
X242347161Y-106908657D01*
X242307104Y-107005361D01*
X242241551Y-107163621D01*
X242088226Y-107393089D01*
X241893089Y-107588226D01*
X241663621Y-107741551D01*
X241514267Y-107803415D01*
X241408657Y-107847161D01*
X241318433Y-107865107D01*
X241137988Y-107901000D01*
X240862012Y-107901000D01*
X240681567Y-107865107D01*
X240591343Y-107847161D01*
X240485733Y-107803415D01*
X240336379Y-107741551D01*
X240106911Y-107588226D01*
X239911774Y-107393089D01*
X239758449Y-107163621D01*
X239692896Y-107005361D01*
X239652839Y-106908657D01*
X239634893Y-106818433D01*
X239599000Y-106637988D01*
X239599000Y-106362012D01*
X239652839Y-106091344D01*
X239663234Y-106066249D01*
X239750633Y-105855249D01*
X239758449Y-105836379D01*
X239911774Y-105606911D01*
X240106911Y-105411774D01*
X240336379Y-105258449D01*
X240501762Y-105189945D01*
X240591343Y-105152839D01*
X240681567Y-105134893D01*
X240862012Y-105099000D01*
X241137988Y-105099000D01*
X241318433Y-105134893D01*
X241318433Y-105134893D01*
G37*
G36*
X209851560Y-107298550D02*
X208748800Y-107298550D01*
X208748800Y-106396450D01*
X209851560Y-106396450D01*
X209851560Y-107298550D01*
X209851560Y-107298550D01*
G37*
G36*
X205308445Y-102766254D02*
X205656593Y-102835504D01*
X206066249Y-103005189D01*
X206434929Y-103251534D01*
X206748466Y-103565071D01*
X206994811Y-103933751D01*
X207164496Y-104343407D01*
X207215336Y-104599000D01*
X207251000Y-104778294D01*
X207251000Y-105221706D01*
X207243691Y-105258449D01*
X207164496Y-105656593D01*
X206994811Y-106066249D01*
X206748466Y-106434929D01*
X206434929Y-106748466D01*
X206066249Y-106994811D01*
X205656593Y-107164496D01*
X205308445Y-107233746D01*
X205221706Y-107251000D01*
X204778294Y-107251000D01*
X204691555Y-107233746D01*
X204343407Y-107164496D01*
X203933751Y-106994811D01*
X203565071Y-106748466D01*
X203251534Y-106434929D01*
X203005189Y-106066249D01*
X202835504Y-105656593D01*
X202756309Y-105258449D01*
X202749000Y-105221706D01*
X202749000Y-104778294D01*
X202784664Y-104599000D01*
X202835504Y-104343407D01*
X203005189Y-103933751D01*
X203251534Y-103565071D01*
X203565071Y-103251534D01*
X203933751Y-103005189D01*
X204343407Y-102835504D01*
X204691555Y-102766254D01*
X204778294Y-102749000D01*
X205221706Y-102749000D01*
X205308445Y-102766254D01*
X205308445Y-102766254D01*
G37*
G36*
X241318433Y-100134893D02*
X241408657Y-100152839D01*
X241514267Y-100196585D01*
X241663621Y-100258449D01*
X241893089Y-100411774D01*
X242088226Y-100606911D01*
X242241551Y-100836379D01*
X242347161Y-101091344D01*
X242401000Y-101362012D01*
X242401000Y-101637988D01*
X242347161Y-101908656D01*
X242241551Y-102163621D01*
X242088226Y-102393089D01*
X241893089Y-102588226D01*
X241663621Y-102741551D01*
X241514267Y-102803415D01*
X241408657Y-102847161D01*
X241318433Y-102865107D01*
X241137988Y-102901000D01*
X240862012Y-102901000D01*
X240681567Y-102865107D01*
X240591343Y-102847161D01*
X240485733Y-102803415D01*
X240336379Y-102741551D01*
X240106911Y-102588226D01*
X239911774Y-102393089D01*
X239758449Y-102163621D01*
X239652839Y-101908656D01*
X239599000Y-101637988D01*
X239599000Y-101362012D01*
X239652839Y-101091344D01*
X239758449Y-100836379D01*
X239911774Y-100606911D01*
X240106911Y-100411774D01*
X240336379Y-100258449D01*
X240485733Y-100196585D01*
X240591343Y-100152839D01*
X240681567Y-100134893D01*
X240862012Y-100099000D01*
X241137988Y-100099000D01*
X241318433Y-100134893D01*
X241318433Y-100134893D01*
G37*
G36*
X236318433Y-100134893D02*
X236408657Y-100152839D01*
X236514267Y-100196585D01*
X236663621Y-100258449D01*
X236893089Y-100411774D01*
X237088226Y-100606911D01*
X237241551Y-100836379D01*
X237347161Y-101091344D01*
X237401000Y-101362012D01*
X237401000Y-101637988D01*
X237347161Y-101908656D01*
X237241551Y-102163621D01*
X237088226Y-102393089D01*
X236893089Y-102588226D01*
X236663621Y-102741551D01*
X236514267Y-102803415D01*
X236408657Y-102847161D01*
X236318433Y-102865107D01*
X236137988Y-102901000D01*
X235862012Y-102901000D01*
X235681567Y-102865107D01*
X235591343Y-102847161D01*
X235485733Y-102803415D01*
X235336379Y-102741551D01*
X235106911Y-102588226D01*
X234911774Y-102393089D01*
X234758449Y-102163621D01*
X234652839Y-101908656D01*
X234599000Y-101637988D01*
X234599000Y-101362012D01*
X234652839Y-101091344D01*
X234758449Y-100836379D01*
X234911774Y-100606911D01*
X235106911Y-100411774D01*
X235336379Y-100258449D01*
X235485733Y-100196585D01*
X235591343Y-100152839D01*
X235681567Y-100134893D01*
X235862012Y-100099000D01*
X236137988Y-100099000D01*
X236318433Y-100134893D01*
X236318433Y-100134893D01*
G37*
G36*
X212301000Y-102301000D02*
X211499000Y-102301000D01*
X211499000Y-100899000D01*
X212301000Y-100899000D01*
X212301000Y-102301000D01*
X212301000Y-102301000D01*
G37*
G36*
X210401000Y-102301000D02*
X209599000Y-102301000D01*
X209599000Y-100899000D01*
X210401000Y-100899000D01*
X210401000Y-102301000D01*
X210401000Y-102301000D01*
G37*
G36*
X206801000Y-101201000D02*
X205999000Y-101201000D01*
X205999000Y-99799000D01*
X206801000Y-99799000D01*
X206801000Y-101201000D01*
X206801000Y-101201000D01*
G37*
G36*
X204901000Y-101201000D02*
X204099000Y-101201000D01*
X204099000Y-99799000D01*
X204901000Y-99799000D01*
X204901000Y-101201000D01*
X204901000Y-101201000D01*
G37*
G36*
X208351380Y-100056050D02*
X207248620Y-100056050D01*
X207248620Y-99153950D01*
X208351380Y-99153950D01*
X208351380Y-100056050D01*
X208351380Y-100056050D01*
G37*
G36*
X210551020Y-99103550D02*
X209448260Y-99103550D01*
X209448260Y-98201450D01*
X210551020Y-98201450D01*
X210551020Y-99103550D01*
X210551020Y-99103550D01*
G37*
G36*
X208351380Y-98151050D02*
X207248620Y-98151050D01*
X207248620Y-97248950D01*
X208351380Y-97248950D01*
X208351380Y-98151050D01*
X208351380Y-98151050D01*
G37*
G36*
X241318433Y-95134893D02*
X241408657Y-95152839D01*
X241514267Y-95196585D01*
X241663621Y-95258449D01*
X241893089Y-95411774D01*
X242088226Y-95606911D01*
X242241551Y-95836379D01*
X242347161Y-96091344D01*
X242401000Y-96362012D01*
X242401000Y-96637988D01*
X242347161Y-96908656D01*
X242241551Y-97163621D01*
X242088226Y-97393089D01*
X241893089Y-97588226D01*
X241663621Y-97741551D01*
X241514267Y-97803415D01*
X241408657Y-97847161D01*
X241318433Y-97865107D01*
X241137988Y-97901000D01*
X240862012Y-97901000D01*
X240681567Y-97865107D01*
X240591343Y-97847161D01*
X240485733Y-97803415D01*
X240336379Y-97741551D01*
X240106911Y-97588226D01*
X239911774Y-97393089D01*
X239758449Y-97163621D01*
X239652839Y-96908656D01*
X239599000Y-96637988D01*
X239599000Y-96362012D01*
X239652839Y-96091344D01*
X239758449Y-95836379D01*
X239911774Y-95606911D01*
X240106911Y-95411774D01*
X240336379Y-95258449D01*
X240485733Y-95196585D01*
X240591343Y-95152839D01*
X240681567Y-95134893D01*
X240862012Y-95099000D01*
X241137988Y-95099000D01*
X241318433Y-95134893D01*
X241318433Y-95134893D01*
G37*
G36*
X236318433Y-95134893D02*
X236408657Y-95152839D01*
X236514267Y-95196585D01*
X236663621Y-95258449D01*
X236893089Y-95411774D01*
X237088226Y-95606911D01*
X237241551Y-95836379D01*
X237347161Y-96091344D01*
X237401000Y-96362012D01*
X237401000Y-96637988D01*
X237347161Y-96908656D01*
X237241551Y-97163621D01*
X237088226Y-97393089D01*
X236893089Y-97588226D01*
X236663621Y-97741551D01*
X236514267Y-97803415D01*
X236408657Y-97847161D01*
X236318433Y-97865107D01*
X236137988Y-97901000D01*
X235862012Y-97901000D01*
X235681567Y-97865107D01*
X235591343Y-97847161D01*
X235485733Y-97803415D01*
X235336379Y-97741551D01*
X235106911Y-97588226D01*
X234911774Y-97393089D01*
X234758449Y-97163621D01*
X234652839Y-96908656D01*
X234599000Y-96637988D01*
X234599000Y-96362012D01*
X234652839Y-96091344D01*
X234758449Y-95836379D01*
X234911774Y-95606911D01*
X235106911Y-95411774D01*
X235336379Y-95258449D01*
X235485733Y-95196585D01*
X235591343Y-95152839D01*
X235681567Y-95134893D01*
X235862012Y-95099000D01*
X236137988Y-95099000D01*
X236318433Y-95134893D01*
X236318433Y-95134893D01*
G37*
G36*
X204501000Y-95701000D02*
X203699000Y-95701000D01*
X203699000Y-94299000D01*
X204501000Y-94299000D01*
X204501000Y-95701000D01*
X204501000Y-95701000D01*
G37*
G36*
X206401000Y-95701000D02*
X205599000Y-95701000D01*
X205599000Y-94299000D01*
X206401000Y-94299000D01*
X206401000Y-95701000D01*
X206401000Y-95701000D01*
G37*
G36*
X214301000Y-94301000D02*
X212899000Y-94301000D01*
X212899000Y-93499000D01*
X214301000Y-93499000D01*
X214301000Y-94301000D01*
X214301000Y-94301000D01*
G37*
G36*
X208751560Y-93403550D02*
X207648800Y-93403550D01*
X207648800Y-92501450D01*
X208751560Y-92501450D01*
X208751560Y-93403550D01*
X208751560Y-93403550D01*
G37*
G36*
X205286445Y-88698254D02*
X205634593Y-88767504D01*
X206044249Y-88937189D01*
X206412929Y-89183534D01*
X206726466Y-89497071D01*
X206972811Y-89865751D01*
X207142496Y-90275407D01*
X207193336Y-90531000D01*
X207229000Y-90710294D01*
X207229000Y-91153706D01*
X207211746Y-91240445D01*
X207142496Y-91588593D01*
X206972811Y-91998249D01*
X206726466Y-92366929D01*
X206412929Y-92680466D01*
X206044249Y-92926811D01*
X205634593Y-93096496D01*
X205286445Y-93165746D01*
X205199706Y-93183000D01*
X204756294Y-93183000D01*
X204669555Y-93165746D01*
X204321407Y-93096496D01*
X203911751Y-92926811D01*
X203543071Y-92680466D01*
X203229534Y-92366929D01*
X202983189Y-91998249D01*
X202813504Y-91588593D01*
X202744254Y-91240445D01*
X202727000Y-91153706D01*
X202727000Y-90710294D01*
X202762664Y-90531000D01*
X202813504Y-90275407D01*
X202983189Y-89865751D01*
X203229534Y-89497071D01*
X203543071Y-89183534D01*
X203911751Y-88937189D01*
X204321407Y-88767504D01*
X204669555Y-88698254D01*
X204756294Y-88681000D01*
X205199706Y-88681000D01*
X205286445Y-88698254D01*
X205286445Y-88698254D01*
G37*
G36*
X241318433Y-90134893D02*
X241408657Y-90152839D01*
X241514267Y-90196585D01*
X241663621Y-90258449D01*
X241893089Y-90411774D01*
X242088226Y-90606911D01*
X242241551Y-90836379D01*
X242264799Y-90892505D01*
X242347161Y-91091343D01*
X242401000Y-91362014D01*
X242401000Y-91637986D01*
X242347161Y-91908657D01*
X242316881Y-91981759D01*
X242241551Y-92163621D01*
X242088226Y-92393089D01*
X241893089Y-92588226D01*
X241663621Y-92741551D01*
X241590243Y-92771945D01*
X241408657Y-92847161D01*
X241318433Y-92865107D01*
X241137988Y-92901000D01*
X240862012Y-92901000D01*
X240681567Y-92865107D01*
X240591343Y-92847161D01*
X240409757Y-92771945D01*
X240336379Y-92741551D01*
X240106911Y-92588226D01*
X239911774Y-92393089D01*
X239758449Y-92163621D01*
X239683119Y-91981759D01*
X239652839Y-91908657D01*
X239599000Y-91637986D01*
X239599000Y-91362014D01*
X239652839Y-91091343D01*
X239735201Y-90892505D01*
X239758449Y-90836379D01*
X239911774Y-90606911D01*
X240106911Y-90411774D01*
X240336379Y-90258449D01*
X240485733Y-90196585D01*
X240591343Y-90152839D01*
X240681567Y-90134893D01*
X240862012Y-90099000D01*
X241137988Y-90099000D01*
X241318433Y-90134893D01*
X241318433Y-90134893D01*
G37*
G36*
X236318433Y-90134893D02*
X236408657Y-90152839D01*
X236514267Y-90196585D01*
X236663621Y-90258449D01*
X236893089Y-90411774D01*
X237088226Y-90606911D01*
X237241551Y-90836379D01*
X237264799Y-90892505D01*
X237347161Y-91091343D01*
X237401000Y-91362014D01*
X237401000Y-91637986D01*
X237347161Y-91908657D01*
X237316881Y-91981759D01*
X237241551Y-92163621D01*
X237088226Y-92393089D01*
X236893089Y-92588226D01*
X236663621Y-92741551D01*
X236590243Y-92771945D01*
X236408657Y-92847161D01*
X236318433Y-92865107D01*
X236137988Y-92901000D01*
X235862012Y-92901000D01*
X235681567Y-92865107D01*
X235591343Y-92847161D01*
X235409757Y-92771945D01*
X235336379Y-92741551D01*
X235106911Y-92588226D01*
X234911774Y-92393089D01*
X234758449Y-92163621D01*
X234683119Y-91981759D01*
X234652839Y-91908657D01*
X234599000Y-91637986D01*
X234599000Y-91362014D01*
X234652839Y-91091343D01*
X234735201Y-90892505D01*
X234758449Y-90836379D01*
X234911774Y-90606911D01*
X235106911Y-90411774D01*
X235336379Y-90258449D01*
X235485733Y-90196585D01*
X235591343Y-90152839D01*
X235681567Y-90134893D01*
X235862012Y-90099000D01*
X236137988Y-90099000D01*
X236318433Y-90134893D01*
X236318433Y-90134893D01*
G37*
G36*
X210951200Y-92451050D02*
X209848440Y-92451050D01*
X209848440Y-91548950D01*
X210951200Y-91548950D01*
X210951200Y-92451050D01*
X210951200Y-92451050D01*
G37*
G36*
X214301000Y-92401000D02*
X212899000Y-92401000D01*
X212899000Y-91599000D01*
X214301000Y-91599000D01*
X214301000Y-92401000D01*
X214301000Y-92401000D01*
G37*
G36*
X208751560Y-91498550D02*
X207648800Y-91498550D01*
X207648800Y-90596450D01*
X208751560Y-90596450D01*
X208751560Y-91498550D01*
X208751560Y-91498550D01*
G37*
M02*
