G04 #@! TF.GenerationSoftware,KiCad,Pcbnew,(5.0.1)-rc2*
G04 #@! TF.CreationDate,2019-05-10T17:24:36-07:00*
G04 #@! TF.ProjectId,SAMD21E,53414D443231452E6B696361645F7063,rev?*
G04 #@! TF.SameCoordinates,Original*
G04 #@! TF.FileFunction,Copper,L2,Bot,Signal*
G04 #@! TF.FilePolarity,Positive*
%FSLAX46Y46*%
G04 Gerber Fmt 4.6, Leading zero omitted, Abs format (unit mm)*
G04 Created by KiCad (PCBNEW (5.0.1)-rc2) date 5/10/2019 5:24:36 PM*
%MOMM*%
%LPD*%
G01*
G04 APERTURE LIST*
G04 #@! TA.AperFunction,Conductor*
%ADD10C,0.100000*%
G04 #@! TD*
G04 #@! TA.AperFunction,SMDPad,CuDef*
%ADD11C,0.975000*%
G04 #@! TD*
G04 #@! TA.AperFunction,SMDPad,CuDef*
%ADD12C,0.875000*%
G04 #@! TD*
G04 #@! TA.AperFunction,ComponentPad*
%ADD13R,1.700000X1.700000*%
G04 #@! TD*
G04 #@! TA.AperFunction,ComponentPad*
%ADD14O,1.700000X1.700000*%
G04 #@! TD*
G04 #@! TA.AperFunction,SMDPad,CuDef*
%ADD15R,1.060000X0.650000*%
G04 #@! TD*
G04 #@! TA.AperFunction,ViaPad*
%ADD16C,0.800000*%
G04 #@! TD*
G04 #@! TA.AperFunction,Conductor*
%ADD17C,0.250000*%
G04 #@! TD*
G04 #@! TA.AperFunction,Conductor*
%ADD18C,0.254000*%
G04 #@! TD*
G04 APERTURE END LIST*
D10*
G04 #@! TO.N,Vdd*
G04 #@! TO.C,C3*
G36*
X159271642Y-101917174D02*
X159295303Y-101920684D01*
X159318507Y-101926496D01*
X159341029Y-101934554D01*
X159362653Y-101944782D01*
X159383170Y-101957079D01*
X159402383Y-101971329D01*
X159420107Y-101987393D01*
X159436171Y-102005117D01*
X159450421Y-102024330D01*
X159462718Y-102044847D01*
X159472946Y-102066471D01*
X159481004Y-102088993D01*
X159486816Y-102112197D01*
X159490326Y-102135858D01*
X159491500Y-102159750D01*
X159491500Y-103072250D01*
X159490326Y-103096142D01*
X159486816Y-103119803D01*
X159481004Y-103143007D01*
X159472946Y-103165529D01*
X159462718Y-103187153D01*
X159450421Y-103207670D01*
X159436171Y-103226883D01*
X159420107Y-103244607D01*
X159402383Y-103260671D01*
X159383170Y-103274921D01*
X159362653Y-103287218D01*
X159341029Y-103297446D01*
X159318507Y-103305504D01*
X159295303Y-103311316D01*
X159271642Y-103314826D01*
X159247750Y-103316000D01*
X158760250Y-103316000D01*
X158736358Y-103314826D01*
X158712697Y-103311316D01*
X158689493Y-103305504D01*
X158666971Y-103297446D01*
X158645347Y-103287218D01*
X158624830Y-103274921D01*
X158605617Y-103260671D01*
X158587893Y-103244607D01*
X158571829Y-103226883D01*
X158557579Y-103207670D01*
X158545282Y-103187153D01*
X158535054Y-103165529D01*
X158526996Y-103143007D01*
X158521184Y-103119803D01*
X158517674Y-103096142D01*
X158516500Y-103072250D01*
X158516500Y-102159750D01*
X158517674Y-102135858D01*
X158521184Y-102112197D01*
X158526996Y-102088993D01*
X158535054Y-102066471D01*
X158545282Y-102044847D01*
X158557579Y-102024330D01*
X158571829Y-102005117D01*
X158587893Y-101987393D01*
X158605617Y-101971329D01*
X158624830Y-101957079D01*
X158645347Y-101944782D01*
X158666971Y-101934554D01*
X158689493Y-101926496D01*
X158712697Y-101920684D01*
X158736358Y-101917174D01*
X158760250Y-101916000D01*
X159247750Y-101916000D01*
X159271642Y-101917174D01*
X159271642Y-101917174D01*
G37*
D11*
G04 #@! TD*
G04 #@! TO.P,C3,1*
G04 #@! TO.N,Vdd*
X159004000Y-102616000D03*
D10*
G04 #@! TO.N,GND*
G04 #@! TO.C,C3*
G36*
X161146642Y-101917174D02*
X161170303Y-101920684D01*
X161193507Y-101926496D01*
X161216029Y-101934554D01*
X161237653Y-101944782D01*
X161258170Y-101957079D01*
X161277383Y-101971329D01*
X161295107Y-101987393D01*
X161311171Y-102005117D01*
X161325421Y-102024330D01*
X161337718Y-102044847D01*
X161347946Y-102066471D01*
X161356004Y-102088993D01*
X161361816Y-102112197D01*
X161365326Y-102135858D01*
X161366500Y-102159750D01*
X161366500Y-103072250D01*
X161365326Y-103096142D01*
X161361816Y-103119803D01*
X161356004Y-103143007D01*
X161347946Y-103165529D01*
X161337718Y-103187153D01*
X161325421Y-103207670D01*
X161311171Y-103226883D01*
X161295107Y-103244607D01*
X161277383Y-103260671D01*
X161258170Y-103274921D01*
X161237653Y-103287218D01*
X161216029Y-103297446D01*
X161193507Y-103305504D01*
X161170303Y-103311316D01*
X161146642Y-103314826D01*
X161122750Y-103316000D01*
X160635250Y-103316000D01*
X160611358Y-103314826D01*
X160587697Y-103311316D01*
X160564493Y-103305504D01*
X160541971Y-103297446D01*
X160520347Y-103287218D01*
X160499830Y-103274921D01*
X160480617Y-103260671D01*
X160462893Y-103244607D01*
X160446829Y-103226883D01*
X160432579Y-103207670D01*
X160420282Y-103187153D01*
X160410054Y-103165529D01*
X160401996Y-103143007D01*
X160396184Y-103119803D01*
X160392674Y-103096142D01*
X160391500Y-103072250D01*
X160391500Y-102159750D01*
X160392674Y-102135858D01*
X160396184Y-102112197D01*
X160401996Y-102088993D01*
X160410054Y-102066471D01*
X160420282Y-102044847D01*
X160432579Y-102024330D01*
X160446829Y-102005117D01*
X160462893Y-101987393D01*
X160480617Y-101971329D01*
X160499830Y-101957079D01*
X160520347Y-101944782D01*
X160541971Y-101934554D01*
X160564493Y-101926496D01*
X160587697Y-101920684D01*
X160611358Y-101917174D01*
X160635250Y-101916000D01*
X161122750Y-101916000D01*
X161146642Y-101917174D01*
X161146642Y-101917174D01*
G37*
D11*
G04 #@! TD*
G04 #@! TO.P,C3,2*
G04 #@! TO.N,GND*
X160879000Y-102616000D03*
D10*
G04 #@! TO.N,GND*
G04 #@! TO.C,C4*
G36*
X155540142Y-101917174D02*
X155563803Y-101920684D01*
X155587007Y-101926496D01*
X155609529Y-101934554D01*
X155631153Y-101944782D01*
X155651670Y-101957079D01*
X155670883Y-101971329D01*
X155688607Y-101987393D01*
X155704671Y-102005117D01*
X155718921Y-102024330D01*
X155731218Y-102044847D01*
X155741446Y-102066471D01*
X155749504Y-102088993D01*
X155755316Y-102112197D01*
X155758826Y-102135858D01*
X155760000Y-102159750D01*
X155760000Y-103072250D01*
X155758826Y-103096142D01*
X155755316Y-103119803D01*
X155749504Y-103143007D01*
X155741446Y-103165529D01*
X155731218Y-103187153D01*
X155718921Y-103207670D01*
X155704671Y-103226883D01*
X155688607Y-103244607D01*
X155670883Y-103260671D01*
X155651670Y-103274921D01*
X155631153Y-103287218D01*
X155609529Y-103297446D01*
X155587007Y-103305504D01*
X155563803Y-103311316D01*
X155540142Y-103314826D01*
X155516250Y-103316000D01*
X155028750Y-103316000D01*
X155004858Y-103314826D01*
X154981197Y-103311316D01*
X154957993Y-103305504D01*
X154935471Y-103297446D01*
X154913847Y-103287218D01*
X154893330Y-103274921D01*
X154874117Y-103260671D01*
X154856393Y-103244607D01*
X154840329Y-103226883D01*
X154826079Y-103207670D01*
X154813782Y-103187153D01*
X154803554Y-103165529D01*
X154795496Y-103143007D01*
X154789684Y-103119803D01*
X154786174Y-103096142D01*
X154785000Y-103072250D01*
X154785000Y-102159750D01*
X154786174Y-102135858D01*
X154789684Y-102112197D01*
X154795496Y-102088993D01*
X154803554Y-102066471D01*
X154813782Y-102044847D01*
X154826079Y-102024330D01*
X154840329Y-102005117D01*
X154856393Y-101987393D01*
X154874117Y-101971329D01*
X154893330Y-101957079D01*
X154913847Y-101944782D01*
X154935471Y-101934554D01*
X154957993Y-101926496D01*
X154981197Y-101920684D01*
X155004858Y-101917174D01*
X155028750Y-101916000D01*
X155516250Y-101916000D01*
X155540142Y-101917174D01*
X155540142Y-101917174D01*
G37*
D11*
G04 #@! TD*
G04 #@! TO.P,C4,2*
G04 #@! TO.N,GND*
X155272500Y-102616000D03*
D10*
G04 #@! TO.N,Vdd*
G04 #@! TO.C,C4*
G36*
X157415142Y-101917174D02*
X157438803Y-101920684D01*
X157462007Y-101926496D01*
X157484529Y-101934554D01*
X157506153Y-101944782D01*
X157526670Y-101957079D01*
X157545883Y-101971329D01*
X157563607Y-101987393D01*
X157579671Y-102005117D01*
X157593921Y-102024330D01*
X157606218Y-102044847D01*
X157616446Y-102066471D01*
X157624504Y-102088993D01*
X157630316Y-102112197D01*
X157633826Y-102135858D01*
X157635000Y-102159750D01*
X157635000Y-103072250D01*
X157633826Y-103096142D01*
X157630316Y-103119803D01*
X157624504Y-103143007D01*
X157616446Y-103165529D01*
X157606218Y-103187153D01*
X157593921Y-103207670D01*
X157579671Y-103226883D01*
X157563607Y-103244607D01*
X157545883Y-103260671D01*
X157526670Y-103274921D01*
X157506153Y-103287218D01*
X157484529Y-103297446D01*
X157462007Y-103305504D01*
X157438803Y-103311316D01*
X157415142Y-103314826D01*
X157391250Y-103316000D01*
X156903750Y-103316000D01*
X156879858Y-103314826D01*
X156856197Y-103311316D01*
X156832993Y-103305504D01*
X156810471Y-103297446D01*
X156788847Y-103287218D01*
X156768330Y-103274921D01*
X156749117Y-103260671D01*
X156731393Y-103244607D01*
X156715329Y-103226883D01*
X156701079Y-103207670D01*
X156688782Y-103187153D01*
X156678554Y-103165529D01*
X156670496Y-103143007D01*
X156664684Y-103119803D01*
X156661174Y-103096142D01*
X156660000Y-103072250D01*
X156660000Y-102159750D01*
X156661174Y-102135858D01*
X156664684Y-102112197D01*
X156670496Y-102088993D01*
X156678554Y-102066471D01*
X156688782Y-102044847D01*
X156701079Y-102024330D01*
X156715329Y-102005117D01*
X156731393Y-101987393D01*
X156749117Y-101971329D01*
X156768330Y-101957079D01*
X156788847Y-101944782D01*
X156810471Y-101934554D01*
X156832993Y-101926496D01*
X156856197Y-101920684D01*
X156879858Y-101917174D01*
X156903750Y-101916000D01*
X157391250Y-101916000D01*
X157415142Y-101917174D01*
X157415142Y-101917174D01*
G37*
D11*
G04 #@! TD*
G04 #@! TO.P,C4,1*
G04 #@! TO.N,Vdd*
X157147500Y-102616000D03*
D10*
G04 #@! TO.N,Vin*
G04 #@! TO.C,C5*
G36*
X156741691Y-96591553D02*
X156762926Y-96594703D01*
X156783750Y-96599919D01*
X156803962Y-96607151D01*
X156823368Y-96616330D01*
X156841781Y-96627366D01*
X156859024Y-96640154D01*
X156874930Y-96654570D01*
X156889346Y-96670476D01*
X156902134Y-96687719D01*
X156913170Y-96706132D01*
X156922349Y-96725538D01*
X156929581Y-96745750D01*
X156934797Y-96766574D01*
X156937947Y-96787809D01*
X156939000Y-96809250D01*
X156939000Y-97246750D01*
X156937947Y-97268191D01*
X156934797Y-97289426D01*
X156929581Y-97310250D01*
X156922349Y-97330462D01*
X156913170Y-97349868D01*
X156902134Y-97368281D01*
X156889346Y-97385524D01*
X156874930Y-97401430D01*
X156859024Y-97415846D01*
X156841781Y-97428634D01*
X156823368Y-97439670D01*
X156803962Y-97448849D01*
X156783750Y-97456081D01*
X156762926Y-97461297D01*
X156741691Y-97464447D01*
X156720250Y-97465500D01*
X156207750Y-97465500D01*
X156186309Y-97464447D01*
X156165074Y-97461297D01*
X156144250Y-97456081D01*
X156124038Y-97448849D01*
X156104632Y-97439670D01*
X156086219Y-97428634D01*
X156068976Y-97415846D01*
X156053070Y-97401430D01*
X156038654Y-97385524D01*
X156025866Y-97368281D01*
X156014830Y-97349868D01*
X156005651Y-97330462D01*
X155998419Y-97310250D01*
X155993203Y-97289426D01*
X155990053Y-97268191D01*
X155989000Y-97246750D01*
X155989000Y-96809250D01*
X155990053Y-96787809D01*
X155993203Y-96766574D01*
X155998419Y-96745750D01*
X156005651Y-96725538D01*
X156014830Y-96706132D01*
X156025866Y-96687719D01*
X156038654Y-96670476D01*
X156053070Y-96654570D01*
X156068976Y-96640154D01*
X156086219Y-96627366D01*
X156104632Y-96616330D01*
X156124038Y-96607151D01*
X156144250Y-96599919D01*
X156165074Y-96594703D01*
X156186309Y-96591553D01*
X156207750Y-96590500D01*
X156720250Y-96590500D01*
X156741691Y-96591553D01*
X156741691Y-96591553D01*
G37*
D12*
G04 #@! TD*
G04 #@! TO.P,C5,1*
G04 #@! TO.N,Vin*
X156464000Y-97028000D03*
D10*
G04 #@! TO.N,GND*
G04 #@! TO.C,C5*
G36*
X156741691Y-98166553D02*
X156762926Y-98169703D01*
X156783750Y-98174919D01*
X156803962Y-98182151D01*
X156823368Y-98191330D01*
X156841781Y-98202366D01*
X156859024Y-98215154D01*
X156874930Y-98229570D01*
X156889346Y-98245476D01*
X156902134Y-98262719D01*
X156913170Y-98281132D01*
X156922349Y-98300538D01*
X156929581Y-98320750D01*
X156934797Y-98341574D01*
X156937947Y-98362809D01*
X156939000Y-98384250D01*
X156939000Y-98821750D01*
X156937947Y-98843191D01*
X156934797Y-98864426D01*
X156929581Y-98885250D01*
X156922349Y-98905462D01*
X156913170Y-98924868D01*
X156902134Y-98943281D01*
X156889346Y-98960524D01*
X156874930Y-98976430D01*
X156859024Y-98990846D01*
X156841781Y-99003634D01*
X156823368Y-99014670D01*
X156803962Y-99023849D01*
X156783750Y-99031081D01*
X156762926Y-99036297D01*
X156741691Y-99039447D01*
X156720250Y-99040500D01*
X156207750Y-99040500D01*
X156186309Y-99039447D01*
X156165074Y-99036297D01*
X156144250Y-99031081D01*
X156124038Y-99023849D01*
X156104632Y-99014670D01*
X156086219Y-99003634D01*
X156068976Y-98990846D01*
X156053070Y-98976430D01*
X156038654Y-98960524D01*
X156025866Y-98943281D01*
X156014830Y-98924868D01*
X156005651Y-98905462D01*
X155998419Y-98885250D01*
X155993203Y-98864426D01*
X155990053Y-98843191D01*
X155989000Y-98821750D01*
X155989000Y-98384250D01*
X155990053Y-98362809D01*
X155993203Y-98341574D01*
X155998419Y-98320750D01*
X156005651Y-98300538D01*
X156014830Y-98281132D01*
X156025866Y-98262719D01*
X156038654Y-98245476D01*
X156053070Y-98229570D01*
X156068976Y-98215154D01*
X156086219Y-98202366D01*
X156104632Y-98191330D01*
X156124038Y-98182151D01*
X156144250Y-98174919D01*
X156165074Y-98169703D01*
X156186309Y-98166553D01*
X156207750Y-98165500D01*
X156720250Y-98165500D01*
X156741691Y-98166553D01*
X156741691Y-98166553D01*
G37*
D12*
G04 #@! TD*
G04 #@! TO.P,C5,2*
G04 #@! TO.N,GND*
X156464000Y-98603000D03*
D10*
G04 #@! TO.N,Vdd*
G04 #@! TO.C,C6*
G36*
X161460642Y-104965174D02*
X161484303Y-104968684D01*
X161507507Y-104974496D01*
X161530029Y-104982554D01*
X161551653Y-104992782D01*
X161572170Y-105005079D01*
X161591383Y-105019329D01*
X161609107Y-105035393D01*
X161625171Y-105053117D01*
X161639421Y-105072330D01*
X161651718Y-105092847D01*
X161661946Y-105114471D01*
X161670004Y-105136993D01*
X161675816Y-105160197D01*
X161679326Y-105183858D01*
X161680500Y-105207750D01*
X161680500Y-106120250D01*
X161679326Y-106144142D01*
X161675816Y-106167803D01*
X161670004Y-106191007D01*
X161661946Y-106213529D01*
X161651718Y-106235153D01*
X161639421Y-106255670D01*
X161625171Y-106274883D01*
X161609107Y-106292607D01*
X161591383Y-106308671D01*
X161572170Y-106322921D01*
X161551653Y-106335218D01*
X161530029Y-106345446D01*
X161507507Y-106353504D01*
X161484303Y-106359316D01*
X161460642Y-106362826D01*
X161436750Y-106364000D01*
X160949250Y-106364000D01*
X160925358Y-106362826D01*
X160901697Y-106359316D01*
X160878493Y-106353504D01*
X160855971Y-106345446D01*
X160834347Y-106335218D01*
X160813830Y-106322921D01*
X160794617Y-106308671D01*
X160776893Y-106292607D01*
X160760829Y-106274883D01*
X160746579Y-106255670D01*
X160734282Y-106235153D01*
X160724054Y-106213529D01*
X160715996Y-106191007D01*
X160710184Y-106167803D01*
X160706674Y-106144142D01*
X160705500Y-106120250D01*
X160705500Y-105207750D01*
X160706674Y-105183858D01*
X160710184Y-105160197D01*
X160715996Y-105136993D01*
X160724054Y-105114471D01*
X160734282Y-105092847D01*
X160746579Y-105072330D01*
X160760829Y-105053117D01*
X160776893Y-105035393D01*
X160794617Y-105019329D01*
X160813830Y-105005079D01*
X160834347Y-104992782D01*
X160855971Y-104982554D01*
X160878493Y-104974496D01*
X160901697Y-104968684D01*
X160925358Y-104965174D01*
X160949250Y-104964000D01*
X161436750Y-104964000D01*
X161460642Y-104965174D01*
X161460642Y-104965174D01*
G37*
D11*
G04 #@! TD*
G04 #@! TO.P,C6,1*
G04 #@! TO.N,Vdd*
X161193000Y-105664000D03*
D10*
G04 #@! TO.N,GND*
G04 #@! TO.C,C6*
G36*
X163335642Y-104965174D02*
X163359303Y-104968684D01*
X163382507Y-104974496D01*
X163405029Y-104982554D01*
X163426653Y-104992782D01*
X163447170Y-105005079D01*
X163466383Y-105019329D01*
X163484107Y-105035393D01*
X163500171Y-105053117D01*
X163514421Y-105072330D01*
X163526718Y-105092847D01*
X163536946Y-105114471D01*
X163545004Y-105136993D01*
X163550816Y-105160197D01*
X163554326Y-105183858D01*
X163555500Y-105207750D01*
X163555500Y-106120250D01*
X163554326Y-106144142D01*
X163550816Y-106167803D01*
X163545004Y-106191007D01*
X163536946Y-106213529D01*
X163526718Y-106235153D01*
X163514421Y-106255670D01*
X163500171Y-106274883D01*
X163484107Y-106292607D01*
X163466383Y-106308671D01*
X163447170Y-106322921D01*
X163426653Y-106335218D01*
X163405029Y-106345446D01*
X163382507Y-106353504D01*
X163359303Y-106359316D01*
X163335642Y-106362826D01*
X163311750Y-106364000D01*
X162824250Y-106364000D01*
X162800358Y-106362826D01*
X162776697Y-106359316D01*
X162753493Y-106353504D01*
X162730971Y-106345446D01*
X162709347Y-106335218D01*
X162688830Y-106322921D01*
X162669617Y-106308671D01*
X162651893Y-106292607D01*
X162635829Y-106274883D01*
X162621579Y-106255670D01*
X162609282Y-106235153D01*
X162599054Y-106213529D01*
X162590996Y-106191007D01*
X162585184Y-106167803D01*
X162581674Y-106144142D01*
X162580500Y-106120250D01*
X162580500Y-105207750D01*
X162581674Y-105183858D01*
X162585184Y-105160197D01*
X162590996Y-105136993D01*
X162599054Y-105114471D01*
X162609282Y-105092847D01*
X162621579Y-105072330D01*
X162635829Y-105053117D01*
X162651893Y-105035393D01*
X162669617Y-105019329D01*
X162688830Y-105005079D01*
X162709347Y-104992782D01*
X162730971Y-104982554D01*
X162753493Y-104974496D01*
X162776697Y-104968684D01*
X162800358Y-104965174D01*
X162824250Y-104964000D01*
X163311750Y-104964000D01*
X163335642Y-104965174D01*
X163335642Y-104965174D01*
G37*
D11*
G04 #@! TD*
G04 #@! TO.P,C6,2*
G04 #@! TO.N,GND*
X163068000Y-105664000D03*
D10*
G04 #@! TO.N,GND*
G04 #@! TO.C,C7*
G36*
X154191642Y-108013174D02*
X154215303Y-108016684D01*
X154238507Y-108022496D01*
X154261029Y-108030554D01*
X154282653Y-108040782D01*
X154303170Y-108053079D01*
X154322383Y-108067329D01*
X154340107Y-108083393D01*
X154356171Y-108101117D01*
X154370421Y-108120330D01*
X154382718Y-108140847D01*
X154392946Y-108162471D01*
X154401004Y-108184993D01*
X154406816Y-108208197D01*
X154410326Y-108231858D01*
X154411500Y-108255750D01*
X154411500Y-109168250D01*
X154410326Y-109192142D01*
X154406816Y-109215803D01*
X154401004Y-109239007D01*
X154392946Y-109261529D01*
X154382718Y-109283153D01*
X154370421Y-109303670D01*
X154356171Y-109322883D01*
X154340107Y-109340607D01*
X154322383Y-109356671D01*
X154303170Y-109370921D01*
X154282653Y-109383218D01*
X154261029Y-109393446D01*
X154238507Y-109401504D01*
X154215303Y-109407316D01*
X154191642Y-109410826D01*
X154167750Y-109412000D01*
X153680250Y-109412000D01*
X153656358Y-109410826D01*
X153632697Y-109407316D01*
X153609493Y-109401504D01*
X153586971Y-109393446D01*
X153565347Y-109383218D01*
X153544830Y-109370921D01*
X153525617Y-109356671D01*
X153507893Y-109340607D01*
X153491829Y-109322883D01*
X153477579Y-109303670D01*
X153465282Y-109283153D01*
X153455054Y-109261529D01*
X153446996Y-109239007D01*
X153441184Y-109215803D01*
X153437674Y-109192142D01*
X153436500Y-109168250D01*
X153436500Y-108255750D01*
X153437674Y-108231858D01*
X153441184Y-108208197D01*
X153446996Y-108184993D01*
X153455054Y-108162471D01*
X153465282Y-108140847D01*
X153477579Y-108120330D01*
X153491829Y-108101117D01*
X153507893Y-108083393D01*
X153525617Y-108067329D01*
X153544830Y-108053079D01*
X153565347Y-108040782D01*
X153586971Y-108030554D01*
X153609493Y-108022496D01*
X153632697Y-108016684D01*
X153656358Y-108013174D01*
X153680250Y-108012000D01*
X154167750Y-108012000D01*
X154191642Y-108013174D01*
X154191642Y-108013174D01*
G37*
D11*
G04 #@! TD*
G04 #@! TO.P,C7,2*
G04 #@! TO.N,GND*
X153924000Y-108712000D03*
D10*
G04 #@! TO.N,/VDDANA*
G04 #@! TO.C,C7*
G36*
X156066642Y-108013174D02*
X156090303Y-108016684D01*
X156113507Y-108022496D01*
X156136029Y-108030554D01*
X156157653Y-108040782D01*
X156178170Y-108053079D01*
X156197383Y-108067329D01*
X156215107Y-108083393D01*
X156231171Y-108101117D01*
X156245421Y-108120330D01*
X156257718Y-108140847D01*
X156267946Y-108162471D01*
X156276004Y-108184993D01*
X156281816Y-108208197D01*
X156285326Y-108231858D01*
X156286500Y-108255750D01*
X156286500Y-109168250D01*
X156285326Y-109192142D01*
X156281816Y-109215803D01*
X156276004Y-109239007D01*
X156267946Y-109261529D01*
X156257718Y-109283153D01*
X156245421Y-109303670D01*
X156231171Y-109322883D01*
X156215107Y-109340607D01*
X156197383Y-109356671D01*
X156178170Y-109370921D01*
X156157653Y-109383218D01*
X156136029Y-109393446D01*
X156113507Y-109401504D01*
X156090303Y-109407316D01*
X156066642Y-109410826D01*
X156042750Y-109412000D01*
X155555250Y-109412000D01*
X155531358Y-109410826D01*
X155507697Y-109407316D01*
X155484493Y-109401504D01*
X155461971Y-109393446D01*
X155440347Y-109383218D01*
X155419830Y-109370921D01*
X155400617Y-109356671D01*
X155382893Y-109340607D01*
X155366829Y-109322883D01*
X155352579Y-109303670D01*
X155340282Y-109283153D01*
X155330054Y-109261529D01*
X155321996Y-109239007D01*
X155316184Y-109215803D01*
X155312674Y-109192142D01*
X155311500Y-109168250D01*
X155311500Y-108255750D01*
X155312674Y-108231858D01*
X155316184Y-108208197D01*
X155321996Y-108184993D01*
X155330054Y-108162471D01*
X155340282Y-108140847D01*
X155352579Y-108120330D01*
X155366829Y-108101117D01*
X155382893Y-108083393D01*
X155400617Y-108067329D01*
X155419830Y-108053079D01*
X155440347Y-108040782D01*
X155461971Y-108030554D01*
X155484493Y-108022496D01*
X155507697Y-108016684D01*
X155531358Y-108013174D01*
X155555250Y-108012000D01*
X156042750Y-108012000D01*
X156066642Y-108013174D01*
X156066642Y-108013174D01*
G37*
D11*
G04 #@! TD*
G04 #@! TO.P,C7,1*
G04 #@! TO.N,/VDDANA*
X155799000Y-108712000D03*
D10*
G04 #@! TO.N,GND*
G04 #@! TO.C,C9*
G36*
X164361691Y-96540553D02*
X164382926Y-96543703D01*
X164403750Y-96548919D01*
X164423962Y-96556151D01*
X164443368Y-96565330D01*
X164461781Y-96576366D01*
X164479024Y-96589154D01*
X164494930Y-96603570D01*
X164509346Y-96619476D01*
X164522134Y-96636719D01*
X164533170Y-96655132D01*
X164542349Y-96674538D01*
X164549581Y-96694750D01*
X164554797Y-96715574D01*
X164557947Y-96736809D01*
X164559000Y-96758250D01*
X164559000Y-97195750D01*
X164557947Y-97217191D01*
X164554797Y-97238426D01*
X164549581Y-97259250D01*
X164542349Y-97279462D01*
X164533170Y-97298868D01*
X164522134Y-97317281D01*
X164509346Y-97334524D01*
X164494930Y-97350430D01*
X164479024Y-97364846D01*
X164461781Y-97377634D01*
X164443368Y-97388670D01*
X164423962Y-97397849D01*
X164403750Y-97405081D01*
X164382926Y-97410297D01*
X164361691Y-97413447D01*
X164340250Y-97414500D01*
X163827750Y-97414500D01*
X163806309Y-97413447D01*
X163785074Y-97410297D01*
X163764250Y-97405081D01*
X163744038Y-97397849D01*
X163724632Y-97388670D01*
X163706219Y-97377634D01*
X163688976Y-97364846D01*
X163673070Y-97350430D01*
X163658654Y-97334524D01*
X163645866Y-97317281D01*
X163634830Y-97298868D01*
X163625651Y-97279462D01*
X163618419Y-97259250D01*
X163613203Y-97238426D01*
X163610053Y-97217191D01*
X163609000Y-97195750D01*
X163609000Y-96758250D01*
X163610053Y-96736809D01*
X163613203Y-96715574D01*
X163618419Y-96694750D01*
X163625651Y-96674538D01*
X163634830Y-96655132D01*
X163645866Y-96636719D01*
X163658654Y-96619476D01*
X163673070Y-96603570D01*
X163688976Y-96589154D01*
X163706219Y-96576366D01*
X163724632Y-96565330D01*
X163744038Y-96556151D01*
X163764250Y-96548919D01*
X163785074Y-96543703D01*
X163806309Y-96540553D01*
X163827750Y-96539500D01*
X164340250Y-96539500D01*
X164361691Y-96540553D01*
X164361691Y-96540553D01*
G37*
D12*
G04 #@! TD*
G04 #@! TO.P,C9,2*
G04 #@! TO.N,GND*
X164084000Y-96977000D03*
D10*
G04 #@! TO.N,Vdd*
G04 #@! TO.C,C9*
G36*
X164361691Y-98115553D02*
X164382926Y-98118703D01*
X164403750Y-98123919D01*
X164423962Y-98131151D01*
X164443368Y-98140330D01*
X164461781Y-98151366D01*
X164479024Y-98164154D01*
X164494930Y-98178570D01*
X164509346Y-98194476D01*
X164522134Y-98211719D01*
X164533170Y-98230132D01*
X164542349Y-98249538D01*
X164549581Y-98269750D01*
X164554797Y-98290574D01*
X164557947Y-98311809D01*
X164559000Y-98333250D01*
X164559000Y-98770750D01*
X164557947Y-98792191D01*
X164554797Y-98813426D01*
X164549581Y-98834250D01*
X164542349Y-98854462D01*
X164533170Y-98873868D01*
X164522134Y-98892281D01*
X164509346Y-98909524D01*
X164494930Y-98925430D01*
X164479024Y-98939846D01*
X164461781Y-98952634D01*
X164443368Y-98963670D01*
X164423962Y-98972849D01*
X164403750Y-98980081D01*
X164382926Y-98985297D01*
X164361691Y-98988447D01*
X164340250Y-98989500D01*
X163827750Y-98989500D01*
X163806309Y-98988447D01*
X163785074Y-98985297D01*
X163764250Y-98980081D01*
X163744038Y-98972849D01*
X163724632Y-98963670D01*
X163706219Y-98952634D01*
X163688976Y-98939846D01*
X163673070Y-98925430D01*
X163658654Y-98909524D01*
X163645866Y-98892281D01*
X163634830Y-98873868D01*
X163625651Y-98854462D01*
X163618419Y-98834250D01*
X163613203Y-98813426D01*
X163610053Y-98792191D01*
X163609000Y-98770750D01*
X163609000Y-98333250D01*
X163610053Y-98311809D01*
X163613203Y-98290574D01*
X163618419Y-98269750D01*
X163625651Y-98249538D01*
X163634830Y-98230132D01*
X163645866Y-98211719D01*
X163658654Y-98194476D01*
X163673070Y-98178570D01*
X163688976Y-98164154D01*
X163706219Y-98151366D01*
X163724632Y-98140330D01*
X163744038Y-98131151D01*
X163764250Y-98123919D01*
X163785074Y-98118703D01*
X163806309Y-98115553D01*
X163827750Y-98114500D01*
X164340250Y-98114500D01*
X164361691Y-98115553D01*
X164361691Y-98115553D01*
G37*
D12*
G04 #@! TD*
G04 #@! TO.P,C9,1*
G04 #@! TO.N,Vdd*
X164084000Y-98552000D03*
D10*
G04 #@! TO.N,Vin*
G04 #@! TO.C,C10*
G36*
X166189742Y-94555874D02*
X166213403Y-94559384D01*
X166236607Y-94565196D01*
X166259129Y-94573254D01*
X166280753Y-94583482D01*
X166301270Y-94595779D01*
X166320483Y-94610029D01*
X166338207Y-94626093D01*
X166354271Y-94643817D01*
X166368521Y-94663030D01*
X166380818Y-94683547D01*
X166391046Y-94705171D01*
X166399104Y-94727693D01*
X166404916Y-94750897D01*
X166408426Y-94774558D01*
X166409600Y-94798450D01*
X166409600Y-95285950D01*
X166408426Y-95309842D01*
X166404916Y-95333503D01*
X166399104Y-95356707D01*
X166391046Y-95379229D01*
X166380818Y-95400853D01*
X166368521Y-95421370D01*
X166354271Y-95440583D01*
X166338207Y-95458307D01*
X166320483Y-95474371D01*
X166301270Y-95488621D01*
X166280753Y-95500918D01*
X166259129Y-95511146D01*
X166236607Y-95519204D01*
X166213403Y-95525016D01*
X166189742Y-95528526D01*
X166165850Y-95529700D01*
X165253350Y-95529700D01*
X165229458Y-95528526D01*
X165205797Y-95525016D01*
X165182593Y-95519204D01*
X165160071Y-95511146D01*
X165138447Y-95500918D01*
X165117930Y-95488621D01*
X165098717Y-95474371D01*
X165080993Y-95458307D01*
X165064929Y-95440583D01*
X165050679Y-95421370D01*
X165038382Y-95400853D01*
X165028154Y-95379229D01*
X165020096Y-95356707D01*
X165014284Y-95333503D01*
X165010774Y-95309842D01*
X165009600Y-95285950D01*
X165009600Y-94798450D01*
X165010774Y-94774558D01*
X165014284Y-94750897D01*
X165020096Y-94727693D01*
X165028154Y-94705171D01*
X165038382Y-94683547D01*
X165050679Y-94663030D01*
X165064929Y-94643817D01*
X165080993Y-94626093D01*
X165098717Y-94610029D01*
X165117930Y-94595779D01*
X165138447Y-94583482D01*
X165160071Y-94573254D01*
X165182593Y-94565196D01*
X165205797Y-94559384D01*
X165229458Y-94555874D01*
X165253350Y-94554700D01*
X166165850Y-94554700D01*
X166189742Y-94555874D01*
X166189742Y-94555874D01*
G37*
D11*
G04 #@! TD*
G04 #@! TO.P,C10,2*
G04 #@! TO.N,Vin*
X165709600Y-95042200D03*
D10*
G04 #@! TO.N,GND*
G04 #@! TO.C,C10*
G36*
X166189742Y-92680874D02*
X166213403Y-92684384D01*
X166236607Y-92690196D01*
X166259129Y-92698254D01*
X166280753Y-92708482D01*
X166301270Y-92720779D01*
X166320483Y-92735029D01*
X166338207Y-92751093D01*
X166354271Y-92768817D01*
X166368521Y-92788030D01*
X166380818Y-92808547D01*
X166391046Y-92830171D01*
X166399104Y-92852693D01*
X166404916Y-92875897D01*
X166408426Y-92899558D01*
X166409600Y-92923450D01*
X166409600Y-93410950D01*
X166408426Y-93434842D01*
X166404916Y-93458503D01*
X166399104Y-93481707D01*
X166391046Y-93504229D01*
X166380818Y-93525853D01*
X166368521Y-93546370D01*
X166354271Y-93565583D01*
X166338207Y-93583307D01*
X166320483Y-93599371D01*
X166301270Y-93613621D01*
X166280753Y-93625918D01*
X166259129Y-93636146D01*
X166236607Y-93644204D01*
X166213403Y-93650016D01*
X166189742Y-93653526D01*
X166165850Y-93654700D01*
X165253350Y-93654700D01*
X165229458Y-93653526D01*
X165205797Y-93650016D01*
X165182593Y-93644204D01*
X165160071Y-93636146D01*
X165138447Y-93625918D01*
X165117930Y-93613621D01*
X165098717Y-93599371D01*
X165080993Y-93583307D01*
X165064929Y-93565583D01*
X165050679Y-93546370D01*
X165038382Y-93525853D01*
X165028154Y-93504229D01*
X165020096Y-93481707D01*
X165014284Y-93458503D01*
X165010774Y-93434842D01*
X165009600Y-93410950D01*
X165009600Y-92923450D01*
X165010774Y-92899558D01*
X165014284Y-92875897D01*
X165020096Y-92852693D01*
X165028154Y-92830171D01*
X165038382Y-92808547D01*
X165050679Y-92788030D01*
X165064929Y-92768817D01*
X165080993Y-92751093D01*
X165098717Y-92735029D01*
X165117930Y-92720779D01*
X165138447Y-92708482D01*
X165160071Y-92698254D01*
X165182593Y-92690196D01*
X165205797Y-92684384D01*
X165229458Y-92680874D01*
X165253350Y-92679700D01*
X166165850Y-92679700D01*
X166189742Y-92680874D01*
X166189742Y-92680874D01*
G37*
D11*
G04 #@! TD*
G04 #@! TO.P,C10,1*
G04 #@! TO.N,GND*
X165709600Y-93167200D03*
D13*
G04 #@! TO.P,J2,1*
G04 #@! TO.N,/PA15*
X165100000Y-111887000D03*
D14*
G04 #@! TO.P,J2,2*
G04 #@! TO.N,/PA12*
X162560000Y-111887000D03*
G04 #@! TO.P,J2,3*
G04 #@! TO.N,/PA11*
X160020000Y-111887000D03*
G04 #@! TO.P,J2,4*
G04 #@! TO.N,/PA10*
X157480000Y-111887000D03*
G04 #@! TO.P,J2,5*
G04 #@! TO.N,/PA09*
X154940000Y-111887000D03*
G04 #@! TO.P,J2,6*
G04 #@! TO.N,/PA08*
X152400000Y-111887000D03*
G04 #@! TD*
D10*
G04 #@! TO.N,/VDDANA*
G04 #@! TO.C,L1*
G36*
X157318142Y-104965174D02*
X157341803Y-104968684D01*
X157365007Y-104974496D01*
X157387529Y-104982554D01*
X157409153Y-104992782D01*
X157429670Y-105005079D01*
X157448883Y-105019329D01*
X157466607Y-105035393D01*
X157482671Y-105053117D01*
X157496921Y-105072330D01*
X157509218Y-105092847D01*
X157519446Y-105114471D01*
X157527504Y-105136993D01*
X157533316Y-105160197D01*
X157536826Y-105183858D01*
X157538000Y-105207750D01*
X157538000Y-106120250D01*
X157536826Y-106144142D01*
X157533316Y-106167803D01*
X157527504Y-106191007D01*
X157519446Y-106213529D01*
X157509218Y-106235153D01*
X157496921Y-106255670D01*
X157482671Y-106274883D01*
X157466607Y-106292607D01*
X157448883Y-106308671D01*
X157429670Y-106322921D01*
X157409153Y-106335218D01*
X157387529Y-106345446D01*
X157365007Y-106353504D01*
X157341803Y-106359316D01*
X157318142Y-106362826D01*
X157294250Y-106364000D01*
X156806750Y-106364000D01*
X156782858Y-106362826D01*
X156759197Y-106359316D01*
X156735993Y-106353504D01*
X156713471Y-106345446D01*
X156691847Y-106335218D01*
X156671330Y-106322921D01*
X156652117Y-106308671D01*
X156634393Y-106292607D01*
X156618329Y-106274883D01*
X156604079Y-106255670D01*
X156591782Y-106235153D01*
X156581554Y-106213529D01*
X156573496Y-106191007D01*
X156567684Y-106167803D01*
X156564174Y-106144142D01*
X156563000Y-106120250D01*
X156563000Y-105207750D01*
X156564174Y-105183858D01*
X156567684Y-105160197D01*
X156573496Y-105136993D01*
X156581554Y-105114471D01*
X156591782Y-105092847D01*
X156604079Y-105072330D01*
X156618329Y-105053117D01*
X156634393Y-105035393D01*
X156652117Y-105019329D01*
X156671330Y-105005079D01*
X156691847Y-104992782D01*
X156713471Y-104982554D01*
X156735993Y-104974496D01*
X156759197Y-104968684D01*
X156782858Y-104965174D01*
X156806750Y-104964000D01*
X157294250Y-104964000D01*
X157318142Y-104965174D01*
X157318142Y-104965174D01*
G37*
D11*
G04 #@! TD*
G04 #@! TO.P,L1,1*
G04 #@! TO.N,/VDDANA*
X157050500Y-105664000D03*
D10*
G04 #@! TO.N,Vdd*
G04 #@! TO.C,L1*
G36*
X159193142Y-104965174D02*
X159216803Y-104968684D01*
X159240007Y-104974496D01*
X159262529Y-104982554D01*
X159284153Y-104992782D01*
X159304670Y-105005079D01*
X159323883Y-105019329D01*
X159341607Y-105035393D01*
X159357671Y-105053117D01*
X159371921Y-105072330D01*
X159384218Y-105092847D01*
X159394446Y-105114471D01*
X159402504Y-105136993D01*
X159408316Y-105160197D01*
X159411826Y-105183858D01*
X159413000Y-105207750D01*
X159413000Y-106120250D01*
X159411826Y-106144142D01*
X159408316Y-106167803D01*
X159402504Y-106191007D01*
X159394446Y-106213529D01*
X159384218Y-106235153D01*
X159371921Y-106255670D01*
X159357671Y-106274883D01*
X159341607Y-106292607D01*
X159323883Y-106308671D01*
X159304670Y-106322921D01*
X159284153Y-106335218D01*
X159262529Y-106345446D01*
X159240007Y-106353504D01*
X159216803Y-106359316D01*
X159193142Y-106362826D01*
X159169250Y-106364000D01*
X158681750Y-106364000D01*
X158657858Y-106362826D01*
X158634197Y-106359316D01*
X158610993Y-106353504D01*
X158588471Y-106345446D01*
X158566847Y-106335218D01*
X158546330Y-106322921D01*
X158527117Y-106308671D01*
X158509393Y-106292607D01*
X158493329Y-106274883D01*
X158479079Y-106255670D01*
X158466782Y-106235153D01*
X158456554Y-106213529D01*
X158448496Y-106191007D01*
X158442684Y-106167803D01*
X158439174Y-106144142D01*
X158438000Y-106120250D01*
X158438000Y-105207750D01*
X158439174Y-105183858D01*
X158442684Y-105160197D01*
X158448496Y-105136993D01*
X158456554Y-105114471D01*
X158466782Y-105092847D01*
X158479079Y-105072330D01*
X158493329Y-105053117D01*
X158509393Y-105035393D01*
X158527117Y-105019329D01*
X158546330Y-105005079D01*
X158566847Y-104992782D01*
X158588471Y-104982554D01*
X158610993Y-104974496D01*
X158634197Y-104968684D01*
X158657858Y-104965174D01*
X158681750Y-104964000D01*
X159169250Y-104964000D01*
X159193142Y-104965174D01*
X159193142Y-104965174D01*
G37*
D11*
G04 #@! TD*
G04 #@! TO.P,L1,2*
G04 #@! TO.N,Vdd*
X158925500Y-105664000D03*
D10*
G04 #@! TO.N,/RESET*
G04 #@! TO.C,R1*
G36*
X152970191Y-97125553D02*
X152991426Y-97128703D01*
X153012250Y-97133919D01*
X153032462Y-97141151D01*
X153051868Y-97150330D01*
X153070281Y-97161366D01*
X153087524Y-97174154D01*
X153103430Y-97188570D01*
X153117846Y-97204476D01*
X153130634Y-97221719D01*
X153141670Y-97240132D01*
X153150849Y-97259538D01*
X153158081Y-97279750D01*
X153163297Y-97300574D01*
X153166447Y-97321809D01*
X153167500Y-97343250D01*
X153167500Y-97855750D01*
X153166447Y-97877191D01*
X153163297Y-97898426D01*
X153158081Y-97919250D01*
X153150849Y-97939462D01*
X153141670Y-97958868D01*
X153130634Y-97977281D01*
X153117846Y-97994524D01*
X153103430Y-98010430D01*
X153087524Y-98024846D01*
X153070281Y-98037634D01*
X153051868Y-98048670D01*
X153032462Y-98057849D01*
X153012250Y-98065081D01*
X152991426Y-98070297D01*
X152970191Y-98073447D01*
X152948750Y-98074500D01*
X152511250Y-98074500D01*
X152489809Y-98073447D01*
X152468574Y-98070297D01*
X152447750Y-98065081D01*
X152427538Y-98057849D01*
X152408132Y-98048670D01*
X152389719Y-98037634D01*
X152372476Y-98024846D01*
X152356570Y-98010430D01*
X152342154Y-97994524D01*
X152329366Y-97977281D01*
X152318330Y-97958868D01*
X152309151Y-97939462D01*
X152301919Y-97919250D01*
X152296703Y-97898426D01*
X152293553Y-97877191D01*
X152292500Y-97855750D01*
X152292500Y-97343250D01*
X152293553Y-97321809D01*
X152296703Y-97300574D01*
X152301919Y-97279750D01*
X152309151Y-97259538D01*
X152318330Y-97240132D01*
X152329366Y-97221719D01*
X152342154Y-97204476D01*
X152356570Y-97188570D01*
X152372476Y-97174154D01*
X152389719Y-97161366D01*
X152408132Y-97150330D01*
X152427538Y-97141151D01*
X152447750Y-97133919D01*
X152468574Y-97128703D01*
X152489809Y-97125553D01*
X152511250Y-97124500D01*
X152948750Y-97124500D01*
X152970191Y-97125553D01*
X152970191Y-97125553D01*
G37*
D12*
G04 #@! TD*
G04 #@! TO.P,R1,1*
G04 #@! TO.N,/RESET*
X152730000Y-97599500D03*
D10*
G04 #@! TO.N,Vdd*
G04 #@! TO.C,R1*
G36*
X154545191Y-97125553D02*
X154566426Y-97128703D01*
X154587250Y-97133919D01*
X154607462Y-97141151D01*
X154626868Y-97150330D01*
X154645281Y-97161366D01*
X154662524Y-97174154D01*
X154678430Y-97188570D01*
X154692846Y-97204476D01*
X154705634Y-97221719D01*
X154716670Y-97240132D01*
X154725849Y-97259538D01*
X154733081Y-97279750D01*
X154738297Y-97300574D01*
X154741447Y-97321809D01*
X154742500Y-97343250D01*
X154742500Y-97855750D01*
X154741447Y-97877191D01*
X154738297Y-97898426D01*
X154733081Y-97919250D01*
X154725849Y-97939462D01*
X154716670Y-97958868D01*
X154705634Y-97977281D01*
X154692846Y-97994524D01*
X154678430Y-98010430D01*
X154662524Y-98024846D01*
X154645281Y-98037634D01*
X154626868Y-98048670D01*
X154607462Y-98057849D01*
X154587250Y-98065081D01*
X154566426Y-98070297D01*
X154545191Y-98073447D01*
X154523750Y-98074500D01*
X154086250Y-98074500D01*
X154064809Y-98073447D01*
X154043574Y-98070297D01*
X154022750Y-98065081D01*
X154002538Y-98057849D01*
X153983132Y-98048670D01*
X153964719Y-98037634D01*
X153947476Y-98024846D01*
X153931570Y-98010430D01*
X153917154Y-97994524D01*
X153904366Y-97977281D01*
X153893330Y-97958868D01*
X153884151Y-97939462D01*
X153876919Y-97919250D01*
X153871703Y-97898426D01*
X153868553Y-97877191D01*
X153867500Y-97855750D01*
X153867500Y-97343250D01*
X153868553Y-97321809D01*
X153871703Y-97300574D01*
X153876919Y-97279750D01*
X153884151Y-97259538D01*
X153893330Y-97240132D01*
X153904366Y-97221719D01*
X153917154Y-97204476D01*
X153931570Y-97188570D01*
X153947476Y-97174154D01*
X153964719Y-97161366D01*
X153983132Y-97150330D01*
X154002538Y-97141151D01*
X154022750Y-97133919D01*
X154043574Y-97128703D01*
X154064809Y-97125553D01*
X154086250Y-97124500D01*
X154523750Y-97124500D01*
X154545191Y-97125553D01*
X154545191Y-97125553D01*
G37*
D12*
G04 #@! TD*
G04 #@! TO.P,R1,2*
G04 #@! TO.N,Vdd*
X154305000Y-97599500D03*
D14*
G04 #@! TO.P,J1,8*
G04 #@! TO.N,Vin*
X145034000Y-91440000D03*
G04 #@! TO.P,J1,7*
G04 #@! TO.N,GND*
X145034000Y-93980000D03*
G04 #@! TO.P,J1,6*
G04 #@! TO.N,/PA02*
X145034000Y-96520000D03*
G04 #@! TO.P,J1,5*
G04 #@! TO.N,/PA03*
X145034000Y-99060000D03*
G04 #@! TO.P,J1,4*
G04 #@! TO.N,/PA04*
X145034000Y-101600000D03*
G04 #@! TO.P,J1,3*
G04 #@! TO.N,/PA05*
X145034000Y-104140000D03*
G04 #@! TO.P,J1,2*
G04 #@! TO.N,/PA06*
X145034000Y-106680000D03*
D13*
G04 #@! TO.P,J1,1*
G04 #@! TO.N,/PA07*
X145034000Y-109220000D03*
G04 #@! TD*
G04 #@! TO.P,J3,1*
G04 #@! TO.N,/PA27*
X170434000Y-91440000D03*
D14*
G04 #@! TO.P,J3,2*
G04 #@! TO.N,/PA28*
X170434000Y-93980000D03*
G04 #@! TO.P,J3,3*
G04 #@! TO.N,/PA23*
X170434000Y-96520000D03*
G04 #@! TO.P,J3,4*
G04 #@! TO.N,/PA22*
X170434000Y-99060000D03*
G04 #@! TO.P,J3,5*
G04 #@! TO.N,/PA19*
X170434000Y-101600000D03*
G04 #@! TO.P,J3,6*
G04 #@! TO.N,/PA18*
X170434000Y-104140000D03*
G04 #@! TO.P,J3,7*
G04 #@! TO.N,/PA17*
X170434000Y-106680000D03*
G04 #@! TO.P,J3,8*
G04 #@! TO.N,/PA16*
X170434000Y-109220000D03*
G04 #@! TD*
D15*
G04 #@! TO.P,U2,1*
G04 #@! TO.N,Vin*
X159428000Y-98994000D03*
G04 #@! TO.P,U2,2*
G04 #@! TO.N,GND*
X159428000Y-98044000D03*
G04 #@! TO.P,U2,3*
G04 #@! TO.N,Vin*
X159428000Y-97094000D03*
G04 #@! TO.P,U2,4*
G04 #@! TO.N,Net-(U2-Pad4)*
X161628000Y-97094000D03*
G04 #@! TO.P,U2,5*
G04 #@! TO.N,Vdd*
X161628000Y-98994000D03*
G04 #@! TD*
D16*
G04 #@! TO.N,GND*
X160528000Y-101092000D03*
X164338000Y-95758000D03*
X158162503Y-107124500D03*
X165227000Y-108966000D03*
X168719500Y-112141000D03*
X167576500Y-108775500D03*
X165544500Y-91821000D03*
X159512000Y-92456000D03*
X146939000Y-93980000D03*
X147637500Y-97409000D03*
X148971000Y-99885500D03*
X151320500Y-100076000D03*
X158051500Y-98044000D03*
X147807680Y-108712000D03*
X148097240Y-111643160D03*
G04 #@! TO.N,Vdd*
X159004000Y-101092000D03*
X162872847Y-98366153D03*
X155892500Y-93916500D03*
X150073360Y-109570520D03*
G04 #@! TO.N,Vin*
X163322000Y-95504000D03*
G04 #@! TO.N,/VDDANA*
X157162500Y-107124500D03*
G04 #@! TO.N,/RESET*
X151511000Y-97345500D03*
G04 #@! TO.N,/PA28*
X161544000Y-101346000D03*
G04 #@! TO.N,/PA27*
X163534260Y-99822000D03*
G04 #@! TD*
D17*
G04 #@! TO.N,GND*
X160528000Y-102265000D02*
X160879000Y-102616000D01*
X160528000Y-101092000D02*
X160528000Y-102265000D01*
X164084000Y-96977000D02*
X164084000Y-96012000D01*
X164084000Y-96012000D02*
X164338000Y-95758000D01*
X156925612Y-98141388D02*
X157763612Y-98141388D01*
X156464000Y-98603000D02*
X156925612Y-98141388D01*
X157861000Y-98044000D02*
X158051500Y-98044000D01*
X157763612Y-98141388D02*
X157861000Y-98044000D01*
X159428000Y-98044000D02*
X158051500Y-98044000D01*
X165709600Y-91986100D02*
X165544500Y-91821000D01*
X165709600Y-93167200D02*
X165709600Y-91986100D01*
G04 #@! TO.N,Vdd*
X159004000Y-101092000D02*
X159004000Y-102616000D01*
X163642000Y-98994000D02*
X164084000Y-98552000D01*
X161628000Y-98994000D02*
X163642000Y-98994000D01*
X157147500Y-102616000D02*
X159004000Y-102616000D01*
X158925500Y-105664000D02*
X160591500Y-105664000D01*
X160591500Y-105664000D02*
X161193000Y-105664000D01*
X158925500Y-105664000D02*
X158925500Y-102186500D01*
X159004000Y-102265000D02*
X159004000Y-102616000D01*
X158925500Y-102186500D02*
X159004000Y-102265000D01*
X161308000Y-99314000D02*
X161628000Y-98994000D01*
X161232998Y-99314000D02*
X161308000Y-99314000D01*
X159454998Y-101092000D02*
X161232998Y-99314000D01*
X159004000Y-101092000D02*
X159454998Y-101092000D01*
X163898153Y-98366153D02*
X164084000Y-98552000D01*
X162872847Y-98366153D02*
X163898153Y-98366153D01*
X156591263Y-102059763D02*
X157147500Y-102616000D01*
X155765500Y-97573494D02*
X155765500Y-98057506D01*
X155765500Y-98057506D02*
X155663990Y-98159016D01*
X155663990Y-97471984D02*
X155765500Y-97573494D01*
X155663990Y-101132490D02*
X156591263Y-102059763D01*
X155663990Y-98159016D02*
X155663990Y-101132490D01*
X155663990Y-94710695D02*
X155663990Y-96710500D01*
X155892500Y-94482185D02*
X155663990Y-94710695D01*
X155892500Y-93916500D02*
X155892500Y-94482185D01*
X155663990Y-96451704D02*
X155663990Y-96710500D01*
X155663990Y-96710500D02*
X155663990Y-97471984D01*
X155536474Y-97599500D02*
X155663990Y-97471984D01*
X154305000Y-97599500D02*
X155536474Y-97599500D01*
X152429148Y-107334352D02*
X157147500Y-102616000D01*
X150073360Y-109570520D02*
X152429148Y-107334352D01*
G04 #@! TO.N,Vin*
X161223000Y-95504000D02*
X163322000Y-95504000D01*
X159428000Y-97094000D02*
X159633000Y-97094000D01*
X159362000Y-97028000D02*
X159428000Y-97094000D01*
X156464000Y-97028000D02*
X159362000Y-97028000D01*
X160283001Y-96462001D02*
X160274000Y-96453000D01*
X160283001Y-98918999D02*
X160283001Y-96462001D01*
X160208000Y-98994000D02*
X160283001Y-98918999D01*
X159428000Y-98994000D02*
X160208000Y-98994000D01*
X159633000Y-97094000D02*
X160274000Y-96453000D01*
X160274000Y-96453000D02*
X161223000Y-95504000D01*
X145034000Y-91440000D02*
X162560000Y-91440000D01*
X163322000Y-92202000D02*
X163322000Y-95504000D01*
X162560000Y-91440000D02*
X163322000Y-92202000D01*
X163721999Y-95104001D02*
X163322000Y-95504000D01*
X164340037Y-94485963D02*
X163721999Y-95104001D01*
X165153363Y-94485963D02*
X164340037Y-94485963D01*
X165709600Y-95042200D02*
X165153363Y-94485963D01*
G04 #@! TO.N,/VDDANA*
X157162500Y-105776000D02*
X157050500Y-105664000D01*
X157162500Y-107124500D02*
X157162500Y-105776000D01*
X155799000Y-108488000D02*
X157162500Y-107124500D01*
X155799000Y-108712000D02*
X155799000Y-108488000D01*
G04 #@! TO.N,/RESET*
X152730000Y-97599500D02*
X151765000Y-97599500D01*
X151765000Y-97599500D02*
X151511000Y-97345500D01*
G04 #@! TO.N,/PA28*
X167450205Y-96709795D02*
X170180000Y-93980000D01*
X167450205Y-97346205D02*
X167450205Y-96709795D01*
X161544000Y-101346000D02*
X163450410Y-101346000D01*
X163450410Y-101346000D02*
X167450205Y-97346205D01*
G04 #@! TO.N,/PA27*
X164041750Y-99314510D02*
X164845490Y-99314510D01*
X163534260Y-99822000D02*
X164041750Y-99314510D01*
X169080000Y-91440000D02*
X170180000Y-91440000D01*
X167000195Y-93519805D02*
X169080000Y-91440000D01*
X167000195Y-96879799D02*
X167000195Y-93519805D01*
X164845490Y-99034504D02*
X167000195Y-96879799D01*
X164845490Y-99314510D02*
X164845490Y-99034504D01*
G04 #@! TD*
D18*
G04 #@! TO.N,GND*
G36*
X162562000Y-92516802D02*
X162562001Y-94744000D01*
X161297848Y-94744000D01*
X161223000Y-94729112D01*
X161148152Y-94744000D01*
X161148148Y-94744000D01*
X160974605Y-94778520D01*
X160926462Y-94788096D01*
X160739418Y-94913076D01*
X160675071Y-94956071D01*
X160632671Y-95019527D01*
X159789530Y-95862669D01*
X159789527Y-95862671D01*
X159726071Y-95905071D01*
X159683671Y-95968527D01*
X159530638Y-96121560D01*
X158898000Y-96121560D01*
X158650235Y-96170843D01*
X158504830Y-96268000D01*
X157380339Y-96268000D01*
X157332739Y-96196761D01*
X157051727Y-96008995D01*
X156720250Y-95943060D01*
X156423990Y-95943060D01*
X156423990Y-95041098D01*
X156440429Y-95030114D01*
X156608404Y-94778722D01*
X156636814Y-94635897D01*
X156763822Y-94508889D01*
X156816058Y-94561125D01*
X157205653Y-94722500D01*
X157627347Y-94722500D01*
X158016942Y-94561125D01*
X158315125Y-94262942D01*
X158476500Y-93873347D01*
X158476500Y-93451653D01*
X160356500Y-93451653D01*
X160356500Y-93873347D01*
X160517875Y-94262942D01*
X160816058Y-94561125D01*
X161205653Y-94722500D01*
X161627347Y-94722500D01*
X162016942Y-94561125D01*
X162315125Y-94262942D01*
X162476500Y-93873347D01*
X162476500Y-93451653D01*
X162315125Y-93062058D01*
X162016942Y-92763875D01*
X161627347Y-92602500D01*
X161205653Y-92602500D01*
X160816058Y-92763875D01*
X160517875Y-93062058D01*
X160356500Y-93451653D01*
X158476500Y-93451653D01*
X158315125Y-93062058D01*
X158016942Y-92763875D01*
X157627347Y-92602500D01*
X157205653Y-92602500D01*
X156816058Y-92763875D01*
X156517875Y-93062058D01*
X156513158Y-93073447D01*
X156478780Y-93039069D01*
X156098374Y-92881500D01*
X155686626Y-92881500D01*
X155306220Y-93039069D01*
X155015069Y-93330220D01*
X154857500Y-93710626D01*
X154857500Y-94122374D01*
X154966775Y-94386188D01*
X154948086Y-94414159D01*
X154903990Y-94635844D01*
X154903990Y-94635848D01*
X154889102Y-94710695D01*
X154903990Y-94785542D01*
X154903991Y-96376849D01*
X154903990Y-96376853D01*
X154903990Y-96575577D01*
X154855227Y-96542995D01*
X154523750Y-96477060D01*
X154086250Y-96477060D01*
X153754773Y-96542995D01*
X153517500Y-96701536D01*
X153280227Y-96542995D01*
X152948750Y-96477060D01*
X152511250Y-96477060D01*
X152179773Y-96542995D01*
X152175237Y-96546026D01*
X152097280Y-96468069D01*
X151716874Y-96310500D01*
X151305126Y-96310500D01*
X150924720Y-96468069D01*
X150633569Y-96759220D01*
X150476000Y-97139626D01*
X150476000Y-97551374D01*
X150633569Y-97931780D01*
X150924720Y-98222931D01*
X151305126Y-98380500D01*
X151716874Y-98380500D01*
X151742456Y-98369904D01*
X151764999Y-98374388D01*
X151827716Y-98361913D01*
X151898761Y-98468239D01*
X152179773Y-98656005D01*
X152511250Y-98721940D01*
X152948750Y-98721940D01*
X153280227Y-98656005D01*
X153517500Y-98497464D01*
X153754773Y-98656005D01*
X154086250Y-98721940D01*
X154523750Y-98721940D01*
X154855227Y-98656005D01*
X154903990Y-98623423D01*
X154903991Y-101057638D01*
X154889102Y-101132490D01*
X154918643Y-101281000D01*
X154658691Y-101281000D01*
X154425302Y-101377673D01*
X154246673Y-101556301D01*
X154150000Y-101789690D01*
X154150000Y-102330250D01*
X154308750Y-102489000D01*
X155145500Y-102489000D01*
X155145500Y-102469000D01*
X155399500Y-102469000D01*
X155399500Y-102489000D01*
X155419500Y-102489000D01*
X155419500Y-102743000D01*
X155399500Y-102743000D01*
X155399500Y-102763000D01*
X155145500Y-102763000D01*
X155145500Y-102743000D01*
X154308750Y-102743000D01*
X154150000Y-102901750D01*
X154150000Y-103442310D01*
X154246673Y-103675699D01*
X154425302Y-103854327D01*
X154658691Y-103951000D01*
X154737698Y-103951000D01*
X151898766Y-106789933D01*
X150059802Y-108535520D01*
X149867486Y-108535520D01*
X149487080Y-108693089D01*
X149195929Y-108984240D01*
X149038360Y-109364646D01*
X149038360Y-109776394D01*
X149195929Y-110156800D01*
X149487080Y-110447951D01*
X149867486Y-110605520D01*
X150279234Y-110605520D01*
X150659640Y-110447951D01*
X150950791Y-110156800D01*
X151108360Y-109776394D01*
X151108360Y-109635944D01*
X151780693Y-108997750D01*
X152801500Y-108997750D01*
X152801500Y-109538310D01*
X152898173Y-109771699D01*
X153076802Y-109950327D01*
X153310191Y-110047000D01*
X153638250Y-110047000D01*
X153797000Y-109888250D01*
X153797000Y-108839000D01*
X152960250Y-108839000D01*
X152801500Y-108997750D01*
X151780693Y-108997750D01*
X152801500Y-108028777D01*
X152801500Y-108426250D01*
X152960250Y-108585000D01*
X153797000Y-108585000D01*
X153797000Y-107535750D01*
X153638250Y-107377000D01*
X153461301Y-107377000D01*
X156007163Y-104831139D01*
X155983398Y-104866706D01*
X155915560Y-105207750D01*
X155915560Y-106120250D01*
X155983398Y-106461294D01*
X156176584Y-106750416D01*
X156192711Y-106761192D01*
X156127500Y-106918626D01*
X156127500Y-107084698D01*
X155847639Y-107364560D01*
X155555250Y-107364560D01*
X155214206Y-107432398D01*
X154925084Y-107625584D01*
X154924293Y-107626767D01*
X154771198Y-107473673D01*
X154537809Y-107377000D01*
X154209750Y-107377000D01*
X154051000Y-107535750D01*
X154051000Y-108585000D01*
X154071000Y-108585000D01*
X154071000Y-108839000D01*
X154051000Y-108839000D01*
X154051000Y-109888250D01*
X154209750Y-110047000D01*
X154537809Y-110047000D01*
X154771198Y-109950327D01*
X154924293Y-109797233D01*
X154925084Y-109798416D01*
X155214206Y-109991602D01*
X155555250Y-110059440D01*
X156042750Y-110059440D01*
X156383794Y-109991602D01*
X156672916Y-109798416D01*
X156866102Y-109509294D01*
X156933940Y-109168250D01*
X156933940Y-108427861D01*
X157202302Y-108159500D01*
X157368374Y-108159500D01*
X157748780Y-108001931D01*
X158039931Y-107710780D01*
X158197500Y-107330374D01*
X158197500Y-106918626D01*
X158157002Y-106820854D01*
X158340706Y-106943602D01*
X158681750Y-107011440D01*
X159169250Y-107011440D01*
X159510294Y-106943602D01*
X159799416Y-106750416D01*
X159992602Y-106461294D01*
X160000020Y-106424000D01*
X160118480Y-106424000D01*
X160125898Y-106461294D01*
X160319084Y-106750416D01*
X160608206Y-106943602D01*
X160949250Y-107011440D01*
X161436750Y-107011440D01*
X161777794Y-106943602D01*
X162066916Y-106750416D01*
X162067707Y-106749233D01*
X162220802Y-106902327D01*
X162454191Y-106999000D01*
X162782250Y-106999000D01*
X162941000Y-106840250D01*
X162941000Y-105791000D01*
X163195000Y-105791000D01*
X163195000Y-106840250D01*
X163353750Y-106999000D01*
X163681809Y-106999000D01*
X163915198Y-106902327D01*
X164093827Y-106723699D01*
X164190500Y-106490310D01*
X164190500Y-105949750D01*
X164031750Y-105791000D01*
X163195000Y-105791000D01*
X162941000Y-105791000D01*
X162921000Y-105791000D01*
X162921000Y-105537000D01*
X162941000Y-105537000D01*
X162941000Y-104487750D01*
X163195000Y-104487750D01*
X163195000Y-105537000D01*
X164031750Y-105537000D01*
X164190500Y-105378250D01*
X164190500Y-104837690D01*
X164093827Y-104604301D01*
X163915198Y-104425673D01*
X163681809Y-104329000D01*
X163353750Y-104329000D01*
X163195000Y-104487750D01*
X162941000Y-104487750D01*
X162782250Y-104329000D01*
X162454191Y-104329000D01*
X162220802Y-104425673D01*
X162067707Y-104578767D01*
X162066916Y-104577584D01*
X161777794Y-104384398D01*
X161436750Y-104316560D01*
X160949250Y-104316560D01*
X160608206Y-104384398D01*
X160319084Y-104577584D01*
X160125898Y-104866706D01*
X160118480Y-104904000D01*
X160000020Y-104904000D01*
X159992602Y-104866706D01*
X159799416Y-104577584D01*
X159685500Y-104501467D01*
X159685500Y-103830985D01*
X159877916Y-103702416D01*
X159878707Y-103701233D01*
X160031802Y-103854327D01*
X160265191Y-103951000D01*
X160593250Y-103951000D01*
X160752000Y-103792250D01*
X160752000Y-102743000D01*
X161006000Y-102743000D01*
X161006000Y-103792250D01*
X161164750Y-103951000D01*
X161492809Y-103951000D01*
X161726198Y-103854327D01*
X161904827Y-103675699D01*
X162001500Y-103442310D01*
X162001500Y-102901750D01*
X161842750Y-102743000D01*
X161006000Y-102743000D01*
X160752000Y-102743000D01*
X160732000Y-102743000D01*
X160732000Y-102489000D01*
X160752000Y-102489000D01*
X160752000Y-102469000D01*
X161006000Y-102469000D01*
X161006000Y-102489000D01*
X161842750Y-102489000D01*
X162001500Y-102330250D01*
X162001500Y-102276773D01*
X162130280Y-102223431D01*
X162247711Y-102106000D01*
X163375563Y-102106000D01*
X163450410Y-102120888D01*
X163525257Y-102106000D01*
X163525262Y-102106000D01*
X163746947Y-102061904D01*
X163998339Y-101893929D01*
X164040741Y-101830470D01*
X167934681Y-97936532D01*
X167998134Y-97894134D01*
X168040532Y-97830681D01*
X168040534Y-97830679D01*
X168138321Y-97684329D01*
X168166109Y-97642742D01*
X168210205Y-97421057D01*
X168210205Y-97421053D01*
X168225093Y-97346206D01*
X168210205Y-97271359D01*
X168210205Y-97024596D01*
X168970836Y-96263965D01*
X168919908Y-96520000D01*
X169035161Y-97099418D01*
X169363375Y-97590625D01*
X169661761Y-97790000D01*
X169363375Y-97989375D01*
X169035161Y-98480582D01*
X168919908Y-99060000D01*
X169035161Y-99639418D01*
X169363375Y-100130625D01*
X169661761Y-100330000D01*
X169363375Y-100529375D01*
X169035161Y-101020582D01*
X168919908Y-101600000D01*
X169035161Y-102179418D01*
X169363375Y-102670625D01*
X169661761Y-102870000D01*
X169363375Y-103069375D01*
X169035161Y-103560582D01*
X168919908Y-104140000D01*
X169035161Y-104719418D01*
X169363375Y-105210625D01*
X169661761Y-105410000D01*
X169363375Y-105609375D01*
X169035161Y-106100582D01*
X168919908Y-106680000D01*
X169035161Y-107259418D01*
X169363375Y-107750625D01*
X169661761Y-107950000D01*
X169363375Y-108149375D01*
X169035161Y-108640582D01*
X168919908Y-109220000D01*
X169035161Y-109799418D01*
X169363375Y-110290625D01*
X169854582Y-110618839D01*
X170287744Y-110705000D01*
X170580256Y-110705000D01*
X171013418Y-110618839D01*
X171248001Y-110462096D01*
X171248001Y-112955000D01*
X166554078Y-112955000D01*
X166597440Y-112737000D01*
X166597440Y-111037000D01*
X166548157Y-110789235D01*
X166407809Y-110579191D01*
X166197765Y-110438843D01*
X165950000Y-110389560D01*
X164250000Y-110389560D01*
X164002235Y-110438843D01*
X163792191Y-110579191D01*
X163651843Y-110789235D01*
X163642816Y-110834619D01*
X163630625Y-110816375D01*
X163139418Y-110488161D01*
X162706256Y-110402000D01*
X162413744Y-110402000D01*
X161980582Y-110488161D01*
X161489375Y-110816375D01*
X161290000Y-111114761D01*
X161090625Y-110816375D01*
X160599418Y-110488161D01*
X160166256Y-110402000D01*
X159873744Y-110402000D01*
X159440582Y-110488161D01*
X158949375Y-110816375D01*
X158750000Y-111114761D01*
X158550625Y-110816375D01*
X158059418Y-110488161D01*
X157626256Y-110402000D01*
X157333744Y-110402000D01*
X156900582Y-110488161D01*
X156409375Y-110816375D01*
X156210000Y-111114761D01*
X156010625Y-110816375D01*
X155519418Y-110488161D01*
X155086256Y-110402000D01*
X154793744Y-110402000D01*
X154360582Y-110488161D01*
X153869375Y-110816375D01*
X153670000Y-111114761D01*
X153470625Y-110816375D01*
X152979418Y-110488161D01*
X152546256Y-110402000D01*
X152253744Y-110402000D01*
X151820582Y-110488161D01*
X151329375Y-110816375D01*
X151001161Y-111307582D01*
X150885908Y-111887000D01*
X151001161Y-112466418D01*
X151327621Y-112955000D01*
X143962192Y-112955000D01*
X143949912Y-110670878D01*
X144184000Y-110717440D01*
X145884000Y-110717440D01*
X146131765Y-110668157D01*
X146341809Y-110527809D01*
X146482157Y-110317765D01*
X146531440Y-110070000D01*
X146531440Y-108370000D01*
X146482157Y-108122235D01*
X146341809Y-107912191D01*
X146131765Y-107771843D01*
X146086381Y-107762816D01*
X146104625Y-107750625D01*
X146432839Y-107259418D01*
X146548092Y-106680000D01*
X146432839Y-106100582D01*
X146104625Y-105609375D01*
X145806239Y-105410000D01*
X146104625Y-105210625D01*
X146432839Y-104719418D01*
X146548092Y-104140000D01*
X146432839Y-103560582D01*
X146104625Y-103069375D01*
X145806239Y-102870000D01*
X146104625Y-102670625D01*
X146432839Y-102179418D01*
X146548092Y-101600000D01*
X146432839Y-101020582D01*
X146104625Y-100529375D01*
X145806239Y-100330000D01*
X146104625Y-100130625D01*
X146432839Y-99639418D01*
X146548092Y-99060000D01*
X146432839Y-98480582D01*
X146104625Y-97989375D01*
X145806239Y-97790000D01*
X146104625Y-97590625D01*
X146432839Y-97099418D01*
X146548092Y-96520000D01*
X146432839Y-95940582D01*
X146104625Y-95449375D01*
X145785522Y-95236157D01*
X145915358Y-95175183D01*
X146305645Y-94746924D01*
X146475476Y-94336890D01*
X146354155Y-94107000D01*
X145161000Y-94107000D01*
X145161000Y-94127000D01*
X144907000Y-94127000D01*
X144907000Y-94107000D01*
X144887000Y-94107000D01*
X144887000Y-93853000D01*
X144907000Y-93853000D01*
X144907000Y-93833000D01*
X145161000Y-93833000D01*
X145161000Y-93853000D01*
X146354155Y-93853000D01*
X146475476Y-93623110D01*
X146305645Y-93213076D01*
X145915358Y-92784817D01*
X145785522Y-92723843D01*
X146104625Y-92510625D01*
X146312178Y-92200000D01*
X162245199Y-92200000D01*
X162562000Y-92516802D01*
X162562000Y-92516802D01*
G37*
X162562000Y-92516802D02*
X162562001Y-94744000D01*
X161297848Y-94744000D01*
X161223000Y-94729112D01*
X161148152Y-94744000D01*
X161148148Y-94744000D01*
X160974605Y-94778520D01*
X160926462Y-94788096D01*
X160739418Y-94913076D01*
X160675071Y-94956071D01*
X160632671Y-95019527D01*
X159789530Y-95862669D01*
X159789527Y-95862671D01*
X159726071Y-95905071D01*
X159683671Y-95968527D01*
X159530638Y-96121560D01*
X158898000Y-96121560D01*
X158650235Y-96170843D01*
X158504830Y-96268000D01*
X157380339Y-96268000D01*
X157332739Y-96196761D01*
X157051727Y-96008995D01*
X156720250Y-95943060D01*
X156423990Y-95943060D01*
X156423990Y-95041098D01*
X156440429Y-95030114D01*
X156608404Y-94778722D01*
X156636814Y-94635897D01*
X156763822Y-94508889D01*
X156816058Y-94561125D01*
X157205653Y-94722500D01*
X157627347Y-94722500D01*
X158016942Y-94561125D01*
X158315125Y-94262942D01*
X158476500Y-93873347D01*
X158476500Y-93451653D01*
X160356500Y-93451653D01*
X160356500Y-93873347D01*
X160517875Y-94262942D01*
X160816058Y-94561125D01*
X161205653Y-94722500D01*
X161627347Y-94722500D01*
X162016942Y-94561125D01*
X162315125Y-94262942D01*
X162476500Y-93873347D01*
X162476500Y-93451653D01*
X162315125Y-93062058D01*
X162016942Y-92763875D01*
X161627347Y-92602500D01*
X161205653Y-92602500D01*
X160816058Y-92763875D01*
X160517875Y-93062058D01*
X160356500Y-93451653D01*
X158476500Y-93451653D01*
X158315125Y-93062058D01*
X158016942Y-92763875D01*
X157627347Y-92602500D01*
X157205653Y-92602500D01*
X156816058Y-92763875D01*
X156517875Y-93062058D01*
X156513158Y-93073447D01*
X156478780Y-93039069D01*
X156098374Y-92881500D01*
X155686626Y-92881500D01*
X155306220Y-93039069D01*
X155015069Y-93330220D01*
X154857500Y-93710626D01*
X154857500Y-94122374D01*
X154966775Y-94386188D01*
X154948086Y-94414159D01*
X154903990Y-94635844D01*
X154903990Y-94635848D01*
X154889102Y-94710695D01*
X154903990Y-94785542D01*
X154903991Y-96376849D01*
X154903990Y-96376853D01*
X154903990Y-96575577D01*
X154855227Y-96542995D01*
X154523750Y-96477060D01*
X154086250Y-96477060D01*
X153754773Y-96542995D01*
X153517500Y-96701536D01*
X153280227Y-96542995D01*
X152948750Y-96477060D01*
X152511250Y-96477060D01*
X152179773Y-96542995D01*
X152175237Y-96546026D01*
X152097280Y-96468069D01*
X151716874Y-96310500D01*
X151305126Y-96310500D01*
X150924720Y-96468069D01*
X150633569Y-96759220D01*
X150476000Y-97139626D01*
X150476000Y-97551374D01*
X150633569Y-97931780D01*
X150924720Y-98222931D01*
X151305126Y-98380500D01*
X151716874Y-98380500D01*
X151742456Y-98369904D01*
X151764999Y-98374388D01*
X151827716Y-98361913D01*
X151898761Y-98468239D01*
X152179773Y-98656005D01*
X152511250Y-98721940D01*
X152948750Y-98721940D01*
X153280227Y-98656005D01*
X153517500Y-98497464D01*
X153754773Y-98656005D01*
X154086250Y-98721940D01*
X154523750Y-98721940D01*
X154855227Y-98656005D01*
X154903990Y-98623423D01*
X154903991Y-101057638D01*
X154889102Y-101132490D01*
X154918643Y-101281000D01*
X154658691Y-101281000D01*
X154425302Y-101377673D01*
X154246673Y-101556301D01*
X154150000Y-101789690D01*
X154150000Y-102330250D01*
X154308750Y-102489000D01*
X155145500Y-102489000D01*
X155145500Y-102469000D01*
X155399500Y-102469000D01*
X155399500Y-102489000D01*
X155419500Y-102489000D01*
X155419500Y-102743000D01*
X155399500Y-102743000D01*
X155399500Y-102763000D01*
X155145500Y-102763000D01*
X155145500Y-102743000D01*
X154308750Y-102743000D01*
X154150000Y-102901750D01*
X154150000Y-103442310D01*
X154246673Y-103675699D01*
X154425302Y-103854327D01*
X154658691Y-103951000D01*
X154737698Y-103951000D01*
X151898766Y-106789933D01*
X150059802Y-108535520D01*
X149867486Y-108535520D01*
X149487080Y-108693089D01*
X149195929Y-108984240D01*
X149038360Y-109364646D01*
X149038360Y-109776394D01*
X149195929Y-110156800D01*
X149487080Y-110447951D01*
X149867486Y-110605520D01*
X150279234Y-110605520D01*
X150659640Y-110447951D01*
X150950791Y-110156800D01*
X151108360Y-109776394D01*
X151108360Y-109635944D01*
X151780693Y-108997750D01*
X152801500Y-108997750D01*
X152801500Y-109538310D01*
X152898173Y-109771699D01*
X153076802Y-109950327D01*
X153310191Y-110047000D01*
X153638250Y-110047000D01*
X153797000Y-109888250D01*
X153797000Y-108839000D01*
X152960250Y-108839000D01*
X152801500Y-108997750D01*
X151780693Y-108997750D01*
X152801500Y-108028777D01*
X152801500Y-108426250D01*
X152960250Y-108585000D01*
X153797000Y-108585000D01*
X153797000Y-107535750D01*
X153638250Y-107377000D01*
X153461301Y-107377000D01*
X156007163Y-104831139D01*
X155983398Y-104866706D01*
X155915560Y-105207750D01*
X155915560Y-106120250D01*
X155983398Y-106461294D01*
X156176584Y-106750416D01*
X156192711Y-106761192D01*
X156127500Y-106918626D01*
X156127500Y-107084698D01*
X155847639Y-107364560D01*
X155555250Y-107364560D01*
X155214206Y-107432398D01*
X154925084Y-107625584D01*
X154924293Y-107626767D01*
X154771198Y-107473673D01*
X154537809Y-107377000D01*
X154209750Y-107377000D01*
X154051000Y-107535750D01*
X154051000Y-108585000D01*
X154071000Y-108585000D01*
X154071000Y-108839000D01*
X154051000Y-108839000D01*
X154051000Y-109888250D01*
X154209750Y-110047000D01*
X154537809Y-110047000D01*
X154771198Y-109950327D01*
X154924293Y-109797233D01*
X154925084Y-109798416D01*
X155214206Y-109991602D01*
X155555250Y-110059440D01*
X156042750Y-110059440D01*
X156383794Y-109991602D01*
X156672916Y-109798416D01*
X156866102Y-109509294D01*
X156933940Y-109168250D01*
X156933940Y-108427861D01*
X157202302Y-108159500D01*
X157368374Y-108159500D01*
X157748780Y-108001931D01*
X158039931Y-107710780D01*
X158197500Y-107330374D01*
X158197500Y-106918626D01*
X158157002Y-106820854D01*
X158340706Y-106943602D01*
X158681750Y-107011440D01*
X159169250Y-107011440D01*
X159510294Y-106943602D01*
X159799416Y-106750416D01*
X159992602Y-106461294D01*
X160000020Y-106424000D01*
X160118480Y-106424000D01*
X160125898Y-106461294D01*
X160319084Y-106750416D01*
X160608206Y-106943602D01*
X160949250Y-107011440D01*
X161436750Y-107011440D01*
X161777794Y-106943602D01*
X162066916Y-106750416D01*
X162067707Y-106749233D01*
X162220802Y-106902327D01*
X162454191Y-106999000D01*
X162782250Y-106999000D01*
X162941000Y-106840250D01*
X162941000Y-105791000D01*
X163195000Y-105791000D01*
X163195000Y-106840250D01*
X163353750Y-106999000D01*
X163681809Y-106999000D01*
X163915198Y-106902327D01*
X164093827Y-106723699D01*
X164190500Y-106490310D01*
X164190500Y-105949750D01*
X164031750Y-105791000D01*
X163195000Y-105791000D01*
X162941000Y-105791000D01*
X162921000Y-105791000D01*
X162921000Y-105537000D01*
X162941000Y-105537000D01*
X162941000Y-104487750D01*
X163195000Y-104487750D01*
X163195000Y-105537000D01*
X164031750Y-105537000D01*
X164190500Y-105378250D01*
X164190500Y-104837690D01*
X164093827Y-104604301D01*
X163915198Y-104425673D01*
X163681809Y-104329000D01*
X163353750Y-104329000D01*
X163195000Y-104487750D01*
X162941000Y-104487750D01*
X162782250Y-104329000D01*
X162454191Y-104329000D01*
X162220802Y-104425673D01*
X162067707Y-104578767D01*
X162066916Y-104577584D01*
X161777794Y-104384398D01*
X161436750Y-104316560D01*
X160949250Y-104316560D01*
X160608206Y-104384398D01*
X160319084Y-104577584D01*
X160125898Y-104866706D01*
X160118480Y-104904000D01*
X160000020Y-104904000D01*
X159992602Y-104866706D01*
X159799416Y-104577584D01*
X159685500Y-104501467D01*
X159685500Y-103830985D01*
X159877916Y-103702416D01*
X159878707Y-103701233D01*
X160031802Y-103854327D01*
X160265191Y-103951000D01*
X160593250Y-103951000D01*
X160752000Y-103792250D01*
X160752000Y-102743000D01*
X161006000Y-102743000D01*
X161006000Y-103792250D01*
X161164750Y-103951000D01*
X161492809Y-103951000D01*
X161726198Y-103854327D01*
X161904827Y-103675699D01*
X162001500Y-103442310D01*
X162001500Y-102901750D01*
X161842750Y-102743000D01*
X161006000Y-102743000D01*
X160752000Y-102743000D01*
X160732000Y-102743000D01*
X160732000Y-102489000D01*
X160752000Y-102489000D01*
X160752000Y-102469000D01*
X161006000Y-102469000D01*
X161006000Y-102489000D01*
X161842750Y-102489000D01*
X162001500Y-102330250D01*
X162001500Y-102276773D01*
X162130280Y-102223431D01*
X162247711Y-102106000D01*
X163375563Y-102106000D01*
X163450410Y-102120888D01*
X163525257Y-102106000D01*
X163525262Y-102106000D01*
X163746947Y-102061904D01*
X163998339Y-101893929D01*
X164040741Y-101830470D01*
X167934681Y-97936532D01*
X167998134Y-97894134D01*
X168040532Y-97830681D01*
X168040534Y-97830679D01*
X168138321Y-97684329D01*
X168166109Y-97642742D01*
X168210205Y-97421057D01*
X168210205Y-97421053D01*
X168225093Y-97346206D01*
X168210205Y-97271359D01*
X168210205Y-97024596D01*
X168970836Y-96263965D01*
X168919908Y-96520000D01*
X169035161Y-97099418D01*
X169363375Y-97590625D01*
X169661761Y-97790000D01*
X169363375Y-97989375D01*
X169035161Y-98480582D01*
X168919908Y-99060000D01*
X169035161Y-99639418D01*
X169363375Y-100130625D01*
X169661761Y-100330000D01*
X169363375Y-100529375D01*
X169035161Y-101020582D01*
X168919908Y-101600000D01*
X169035161Y-102179418D01*
X169363375Y-102670625D01*
X169661761Y-102870000D01*
X169363375Y-103069375D01*
X169035161Y-103560582D01*
X168919908Y-104140000D01*
X169035161Y-104719418D01*
X169363375Y-105210625D01*
X169661761Y-105410000D01*
X169363375Y-105609375D01*
X169035161Y-106100582D01*
X168919908Y-106680000D01*
X169035161Y-107259418D01*
X169363375Y-107750625D01*
X169661761Y-107950000D01*
X169363375Y-108149375D01*
X169035161Y-108640582D01*
X168919908Y-109220000D01*
X169035161Y-109799418D01*
X169363375Y-110290625D01*
X169854582Y-110618839D01*
X170287744Y-110705000D01*
X170580256Y-110705000D01*
X171013418Y-110618839D01*
X171248001Y-110462096D01*
X171248001Y-112955000D01*
X166554078Y-112955000D01*
X166597440Y-112737000D01*
X166597440Y-111037000D01*
X166548157Y-110789235D01*
X166407809Y-110579191D01*
X166197765Y-110438843D01*
X165950000Y-110389560D01*
X164250000Y-110389560D01*
X164002235Y-110438843D01*
X163792191Y-110579191D01*
X163651843Y-110789235D01*
X163642816Y-110834619D01*
X163630625Y-110816375D01*
X163139418Y-110488161D01*
X162706256Y-110402000D01*
X162413744Y-110402000D01*
X161980582Y-110488161D01*
X161489375Y-110816375D01*
X161290000Y-111114761D01*
X161090625Y-110816375D01*
X160599418Y-110488161D01*
X160166256Y-110402000D01*
X159873744Y-110402000D01*
X159440582Y-110488161D01*
X158949375Y-110816375D01*
X158750000Y-111114761D01*
X158550625Y-110816375D01*
X158059418Y-110488161D01*
X157626256Y-110402000D01*
X157333744Y-110402000D01*
X156900582Y-110488161D01*
X156409375Y-110816375D01*
X156210000Y-111114761D01*
X156010625Y-110816375D01*
X155519418Y-110488161D01*
X155086256Y-110402000D01*
X154793744Y-110402000D01*
X154360582Y-110488161D01*
X153869375Y-110816375D01*
X153670000Y-111114761D01*
X153470625Y-110816375D01*
X152979418Y-110488161D01*
X152546256Y-110402000D01*
X152253744Y-110402000D01*
X151820582Y-110488161D01*
X151329375Y-110816375D01*
X151001161Y-111307582D01*
X150885908Y-111887000D01*
X151001161Y-112466418D01*
X151327621Y-112955000D01*
X143962192Y-112955000D01*
X143949912Y-110670878D01*
X144184000Y-110717440D01*
X145884000Y-110717440D01*
X146131765Y-110668157D01*
X146341809Y-110527809D01*
X146482157Y-110317765D01*
X146531440Y-110070000D01*
X146531440Y-108370000D01*
X146482157Y-108122235D01*
X146341809Y-107912191D01*
X146131765Y-107771843D01*
X146086381Y-107762816D01*
X146104625Y-107750625D01*
X146432839Y-107259418D01*
X146548092Y-106680000D01*
X146432839Y-106100582D01*
X146104625Y-105609375D01*
X145806239Y-105410000D01*
X146104625Y-105210625D01*
X146432839Y-104719418D01*
X146548092Y-104140000D01*
X146432839Y-103560582D01*
X146104625Y-103069375D01*
X145806239Y-102870000D01*
X146104625Y-102670625D01*
X146432839Y-102179418D01*
X146548092Y-101600000D01*
X146432839Y-101020582D01*
X146104625Y-100529375D01*
X145806239Y-100330000D01*
X146104625Y-100130625D01*
X146432839Y-99639418D01*
X146548092Y-99060000D01*
X146432839Y-98480582D01*
X146104625Y-97989375D01*
X145806239Y-97790000D01*
X146104625Y-97590625D01*
X146432839Y-97099418D01*
X146548092Y-96520000D01*
X146432839Y-95940582D01*
X146104625Y-95449375D01*
X145785522Y-95236157D01*
X145915358Y-95175183D01*
X146305645Y-94746924D01*
X146475476Y-94336890D01*
X146354155Y-94107000D01*
X145161000Y-94107000D01*
X145161000Y-94127000D01*
X144907000Y-94127000D01*
X144907000Y-94107000D01*
X144887000Y-94107000D01*
X144887000Y-93853000D01*
X144907000Y-93853000D01*
X144907000Y-93833000D01*
X145161000Y-93833000D01*
X145161000Y-93853000D01*
X146354155Y-93853000D01*
X146475476Y-93623110D01*
X146305645Y-93213076D01*
X145915358Y-92784817D01*
X145785522Y-92723843D01*
X146104625Y-92510625D01*
X146312178Y-92200000D01*
X162245199Y-92200000D01*
X162562000Y-92516802D01*
G36*
X158421750Y-97917000D02*
X158500341Y-97917000D01*
X158650235Y-98017157D01*
X158785185Y-98044000D01*
X158650235Y-98070843D01*
X158500341Y-98171000D01*
X158421750Y-98171000D01*
X158263000Y-98329750D01*
X158263000Y-98495310D01*
X158277936Y-98531369D01*
X158250560Y-98669000D01*
X158250560Y-99319000D01*
X158299843Y-99566765D01*
X158440191Y-99776809D01*
X158650235Y-99917157D01*
X158898000Y-99966440D01*
X159505757Y-99966440D01*
X159355059Y-100117138D01*
X159209874Y-100057000D01*
X158798126Y-100057000D01*
X158417720Y-100214569D01*
X158126569Y-100505720D01*
X157969000Y-100886126D01*
X157969000Y-101297874D01*
X158089892Y-101589735D01*
X158075750Y-101610900D01*
X158021416Y-101529584D01*
X157732294Y-101336398D01*
X157391250Y-101268560D01*
X156903750Y-101268560D01*
X156879655Y-101273353D01*
X156423990Y-100817689D01*
X156423990Y-98730000D01*
X156591000Y-98730000D01*
X156591000Y-99516750D01*
X156749750Y-99675500D01*
X157065310Y-99675500D01*
X157298699Y-99578827D01*
X157477327Y-99400198D01*
X157574000Y-99166809D01*
X157574000Y-98888750D01*
X157415250Y-98730000D01*
X156591000Y-98730000D01*
X156423990Y-98730000D01*
X156423990Y-98456000D01*
X156591000Y-98456000D01*
X156591000Y-98476000D01*
X157415250Y-98476000D01*
X157574000Y-98317250D01*
X157574000Y-98039191D01*
X157477327Y-97805802D01*
X157459525Y-97788000D01*
X158292750Y-97788000D01*
X158421750Y-97917000D01*
X158421750Y-97917000D01*
G37*
X158421750Y-97917000D02*
X158500341Y-97917000D01*
X158650235Y-98017157D01*
X158785185Y-98044000D01*
X158650235Y-98070843D01*
X158500341Y-98171000D01*
X158421750Y-98171000D01*
X158263000Y-98329750D01*
X158263000Y-98495310D01*
X158277936Y-98531369D01*
X158250560Y-98669000D01*
X158250560Y-99319000D01*
X158299843Y-99566765D01*
X158440191Y-99776809D01*
X158650235Y-99917157D01*
X158898000Y-99966440D01*
X159505757Y-99966440D01*
X159355059Y-100117138D01*
X159209874Y-100057000D01*
X158798126Y-100057000D01*
X158417720Y-100214569D01*
X158126569Y-100505720D01*
X157969000Y-100886126D01*
X157969000Y-101297874D01*
X158089892Y-101589735D01*
X158075750Y-101610900D01*
X158021416Y-101529584D01*
X157732294Y-101336398D01*
X157391250Y-101268560D01*
X156903750Y-101268560D01*
X156879655Y-101273353D01*
X156423990Y-100817689D01*
X156423990Y-98730000D01*
X156591000Y-98730000D01*
X156591000Y-99516750D01*
X156749750Y-99675500D01*
X157065310Y-99675500D01*
X157298699Y-99578827D01*
X157477327Y-99400198D01*
X157574000Y-99166809D01*
X157574000Y-98888750D01*
X157415250Y-98730000D01*
X156591000Y-98730000D01*
X156423990Y-98730000D01*
X156423990Y-98456000D01*
X156591000Y-98456000D01*
X156591000Y-98476000D01*
X157415250Y-98476000D01*
X157574000Y-98317250D01*
X157574000Y-98039191D01*
X157477327Y-97805802D01*
X157459525Y-97788000D01*
X158292750Y-97788000D01*
X158421750Y-97917000D01*
G36*
X160509000Y-101140126D02*
X160509000Y-101281000D01*
X160340799Y-101281000D01*
X160528323Y-101093476D01*
X160509000Y-101140126D01*
X160509000Y-101140126D01*
G37*
X160509000Y-101140126D02*
X160509000Y-101281000D01*
X160340799Y-101281000D01*
X160528323Y-101093476D01*
X160509000Y-101140126D01*
G36*
X165253350Y-96177140D02*
X166165850Y-96177140D01*
X166240195Y-96162352D01*
X166240195Y-96564997D01*
X165144231Y-97660961D01*
X165194000Y-97540809D01*
X165194000Y-97262750D01*
X165035250Y-97104000D01*
X164211000Y-97104000D01*
X164211000Y-97124000D01*
X163957000Y-97124000D01*
X163957000Y-97104000D01*
X163132750Y-97104000D01*
X162974000Y-97262750D01*
X162974000Y-97331153D01*
X162805440Y-97331153D01*
X162805440Y-96769000D01*
X162756157Y-96521235D01*
X162615809Y-96311191D01*
X162545183Y-96264000D01*
X162618289Y-96264000D01*
X162735720Y-96381431D01*
X162974000Y-96480130D01*
X162974000Y-96691250D01*
X163132750Y-96850000D01*
X163957000Y-96850000D01*
X163957000Y-96830000D01*
X164211000Y-96830000D01*
X164211000Y-96850000D01*
X165035250Y-96850000D01*
X165194000Y-96691250D01*
X165194000Y-96413191D01*
X165097327Y-96179802D01*
X165055263Y-96137738D01*
X165253350Y-96177140D01*
X165253350Y-96177140D01*
G37*
X165253350Y-96177140D02*
X166165850Y-96177140D01*
X166240195Y-96162352D01*
X166240195Y-96564997D01*
X165144231Y-97660961D01*
X165194000Y-97540809D01*
X165194000Y-97262750D01*
X165035250Y-97104000D01*
X164211000Y-97104000D01*
X164211000Y-97124000D01*
X163957000Y-97124000D01*
X163957000Y-97104000D01*
X163132750Y-97104000D01*
X162974000Y-97262750D01*
X162974000Y-97331153D01*
X162805440Y-97331153D01*
X162805440Y-96769000D01*
X162756157Y-96521235D01*
X162615809Y-96311191D01*
X162545183Y-96264000D01*
X162618289Y-96264000D01*
X162735720Y-96381431D01*
X162974000Y-96480130D01*
X162974000Y-96691250D01*
X163132750Y-96850000D01*
X163957000Y-96850000D01*
X163957000Y-96830000D01*
X164211000Y-96830000D01*
X164211000Y-96850000D01*
X165035250Y-96850000D01*
X165194000Y-96691250D01*
X165194000Y-96413191D01*
X165097327Y-96179802D01*
X165055263Y-96137738D01*
X165253350Y-96177140D01*
G36*
X164429998Y-95626994D02*
X164615422Y-95904500D01*
X164369750Y-95904500D01*
X164211002Y-96063248D01*
X164211002Y-96062345D01*
X164357000Y-95709874D01*
X164357000Y-95543801D01*
X164404084Y-95496717D01*
X164429998Y-95626994D01*
X164429998Y-95626994D01*
G37*
X164429998Y-95626994D02*
X164615422Y-95904500D01*
X164369750Y-95904500D01*
X164211002Y-96063248D01*
X164211002Y-96062345D01*
X164357000Y-95709874D01*
X164357000Y-95543801D01*
X164404084Y-95496717D01*
X164429998Y-95626994D01*
G36*
X168595526Y-90849671D02*
X168595524Y-90849673D01*
X168532071Y-90892071D01*
X168489673Y-90955524D01*
X166999848Y-92445350D01*
X166947927Y-92320002D01*
X166769299Y-92141373D01*
X166535910Y-92044700D01*
X165995350Y-92044700D01*
X165836600Y-92203450D01*
X165836600Y-93040200D01*
X165856600Y-93040200D01*
X165856600Y-93294200D01*
X165836600Y-93294200D01*
X165836600Y-93314200D01*
X165582600Y-93314200D01*
X165582600Y-93294200D01*
X164533350Y-93294200D01*
X164374600Y-93452950D01*
X164374600Y-93717950D01*
X164340037Y-93711075D01*
X164265189Y-93725963D01*
X164265185Y-93725963D01*
X164091642Y-93760483D01*
X164082000Y-93762401D01*
X164082000Y-92553391D01*
X164374600Y-92553391D01*
X164374600Y-92881450D01*
X164533350Y-93040200D01*
X165582600Y-93040200D01*
X165582600Y-92203450D01*
X165423850Y-92044700D01*
X164883290Y-92044700D01*
X164649901Y-92141373D01*
X164471273Y-92320002D01*
X164374600Y-92553391D01*
X164082000Y-92553391D01*
X164082000Y-92276848D01*
X164096888Y-92202000D01*
X164082000Y-92127152D01*
X164082000Y-92127148D01*
X164037904Y-91905463D01*
X164037904Y-91905462D01*
X163912329Y-91717527D01*
X163869929Y-91654071D01*
X163806473Y-91611671D01*
X163150331Y-90955530D01*
X163107929Y-90892071D01*
X162899795Y-90753000D01*
X168740205Y-90753000D01*
X168595526Y-90849671D01*
X168595526Y-90849671D01*
G37*
X168595526Y-90849671D02*
X168595524Y-90849673D01*
X168532071Y-90892071D01*
X168489673Y-90955524D01*
X166999848Y-92445350D01*
X166947927Y-92320002D01*
X166769299Y-92141373D01*
X166535910Y-92044700D01*
X165995350Y-92044700D01*
X165836600Y-92203450D01*
X165836600Y-93040200D01*
X165856600Y-93040200D01*
X165856600Y-93294200D01*
X165836600Y-93294200D01*
X165836600Y-93314200D01*
X165582600Y-93314200D01*
X165582600Y-93294200D01*
X164533350Y-93294200D01*
X164374600Y-93452950D01*
X164374600Y-93717950D01*
X164340037Y-93711075D01*
X164265189Y-93725963D01*
X164265185Y-93725963D01*
X164091642Y-93760483D01*
X164082000Y-93762401D01*
X164082000Y-92553391D01*
X164374600Y-92553391D01*
X164374600Y-92881450D01*
X164533350Y-93040200D01*
X165582600Y-93040200D01*
X165582600Y-92203450D01*
X165423850Y-92044700D01*
X164883290Y-92044700D01*
X164649901Y-92141373D01*
X164471273Y-92320002D01*
X164374600Y-92553391D01*
X164082000Y-92553391D01*
X164082000Y-92276848D01*
X164096888Y-92202000D01*
X164082000Y-92127152D01*
X164082000Y-92127148D01*
X164037904Y-91905463D01*
X164037904Y-91905462D01*
X163912329Y-91717527D01*
X163869929Y-91654071D01*
X163806473Y-91611671D01*
X163150331Y-90955530D01*
X163107929Y-90892071D01*
X162899795Y-90753000D01*
X168740205Y-90753000D01*
X168595526Y-90849671D01*
G04 #@! TD*
M02*
