G04 #@! TF.GenerationSoftware,KiCad,Pcbnew,(5.0.1)-rc2*
G04 #@! TF.CreationDate,2019-05-10T17:24:36-07:00*
G04 #@! TF.ProjectId,SAMD21E,53414D443231452E6B696361645F7063,rev?*
G04 #@! TF.SameCoordinates,Original*
G04 #@! TF.FileFunction,Legend,Bot*
G04 #@! TF.FilePolarity,Positive*
%FSLAX46Y46*%
G04 Gerber Fmt 4.6, Leading zero omitted, Abs format (unit mm)*
G04 Created by KiCad (PCBNEW (5.0.1)-rc2) date 5/10/2019 5:24:36 PM*
%MOMM*%
%LPD*%
G01*
G04 APERTURE LIST*
%ADD10C,0.120000*%
%ADD11C,0.150000*%
G04 APERTURE END LIST*
D10*
G04 #@! TO.C,C3*
X159682922Y-103326000D02*
X160200078Y-103326000D01*
X159682922Y-101906000D02*
X160200078Y-101906000D01*
G04 #@! TO.C,C4*
X156468578Y-103326000D02*
X155951422Y-103326000D01*
X156468578Y-101906000D02*
X155951422Y-101906000D01*
G04 #@! TO.C,C5*
X155954000Y-97652721D02*
X155954000Y-97978279D01*
X156974000Y-97652721D02*
X156974000Y-97978279D01*
G04 #@! TO.C,C6*
X161871922Y-106374000D02*
X162389078Y-106374000D01*
X161871922Y-104954000D02*
X162389078Y-104954000D01*
G04 #@! TO.C,C7*
X155120078Y-109422000D02*
X154602922Y-109422000D01*
X155120078Y-108002000D02*
X154602922Y-108002000D01*
G04 #@! TO.C,C9*
X163574000Y-97927279D02*
X163574000Y-97601721D01*
X164594000Y-97927279D02*
X164594000Y-97601721D01*
G04 #@! TO.C,C10*
X166419600Y-93846122D02*
X166419600Y-94363278D01*
X164999600Y-93846122D02*
X164999600Y-94363278D01*
G04 #@! TO.C,L1*
X157729422Y-106374000D02*
X158246578Y-106374000D01*
X157729422Y-104954000D02*
X158246578Y-104954000D01*
G04 #@! TO.C,R1*
X153354721Y-98109500D02*
X153680279Y-98109500D01*
X153354721Y-97089500D02*
X153680279Y-97089500D01*
G04 #@! TO.C,U2*
X159628000Y-96434000D02*
X161428000Y-96434000D01*
X161428000Y-99654000D02*
X158978000Y-99654000D01*
D11*
X158761992Y-99568000D02*
G75*
G03X158761992Y-99568000I-113592J0D01*
G01*
G04 #@! TO.C,C3*
X160108166Y-104623142D02*
X160155785Y-104670761D01*
X160298642Y-104718380D01*
X160393880Y-104718380D01*
X160536738Y-104670761D01*
X160631976Y-104575523D01*
X160679595Y-104480285D01*
X160727214Y-104289809D01*
X160727214Y-104146952D01*
X160679595Y-103956476D01*
X160631976Y-103861238D01*
X160536738Y-103766000D01*
X160393880Y-103718380D01*
X160298642Y-103718380D01*
X160155785Y-103766000D01*
X160108166Y-103813619D01*
X159774833Y-103718380D02*
X159155785Y-103718380D01*
X159489119Y-104099333D01*
X159346261Y-104099333D01*
X159251023Y-104146952D01*
X159203404Y-104194571D01*
X159155785Y-104289809D01*
X159155785Y-104527904D01*
X159203404Y-104623142D01*
X159251023Y-104670761D01*
X159346261Y-104718380D01*
X159631976Y-104718380D01*
X159727214Y-104670761D01*
X159774833Y-104623142D01*
G04 #@! TO.C,C4*
X156376666Y-101323142D02*
X156424285Y-101370761D01*
X156567142Y-101418380D01*
X156662380Y-101418380D01*
X156805238Y-101370761D01*
X156900476Y-101275523D01*
X156948095Y-101180285D01*
X156995714Y-100989809D01*
X156995714Y-100846952D01*
X156948095Y-100656476D01*
X156900476Y-100561238D01*
X156805238Y-100466000D01*
X156662380Y-100418380D01*
X156567142Y-100418380D01*
X156424285Y-100466000D01*
X156376666Y-100513619D01*
X155519523Y-100751714D02*
X155519523Y-101418380D01*
X155757619Y-100370761D02*
X155995714Y-101085047D01*
X155376666Y-101085047D01*
G04 #@! TO.C,C5*
X156440166Y-96115142D02*
X156487785Y-96162761D01*
X156630642Y-96210380D01*
X156725880Y-96210380D01*
X156868738Y-96162761D01*
X156963976Y-96067523D01*
X157011595Y-95972285D01*
X157059214Y-95781809D01*
X157059214Y-95638952D01*
X157011595Y-95448476D01*
X156963976Y-95353238D01*
X156868738Y-95258000D01*
X156725880Y-95210380D01*
X156630642Y-95210380D01*
X156487785Y-95258000D01*
X156440166Y-95305619D01*
X155535404Y-95210380D02*
X156011595Y-95210380D01*
X156059214Y-95686571D01*
X156011595Y-95638952D01*
X155916357Y-95591333D01*
X155678261Y-95591333D01*
X155583023Y-95638952D01*
X155535404Y-95686571D01*
X155487785Y-95781809D01*
X155487785Y-96019904D01*
X155535404Y-96115142D01*
X155583023Y-96162761D01*
X155678261Y-96210380D01*
X155916357Y-96210380D01*
X156011595Y-96162761D01*
X156059214Y-96115142D01*
G04 #@! TO.C,C6*
X162297166Y-107671142D02*
X162344785Y-107718761D01*
X162487642Y-107766380D01*
X162582880Y-107766380D01*
X162725738Y-107718761D01*
X162820976Y-107623523D01*
X162868595Y-107528285D01*
X162916214Y-107337809D01*
X162916214Y-107194952D01*
X162868595Y-107004476D01*
X162820976Y-106909238D01*
X162725738Y-106814000D01*
X162582880Y-106766380D01*
X162487642Y-106766380D01*
X162344785Y-106814000D01*
X162297166Y-106861619D01*
X161440023Y-106766380D02*
X161630500Y-106766380D01*
X161725738Y-106814000D01*
X161773357Y-106861619D01*
X161868595Y-107004476D01*
X161916214Y-107194952D01*
X161916214Y-107575904D01*
X161868595Y-107671142D01*
X161820976Y-107718761D01*
X161725738Y-107766380D01*
X161535261Y-107766380D01*
X161440023Y-107718761D01*
X161392404Y-107671142D01*
X161344785Y-107575904D01*
X161344785Y-107337809D01*
X161392404Y-107242571D01*
X161440023Y-107194952D01*
X161535261Y-107147333D01*
X161725738Y-107147333D01*
X161820976Y-107194952D01*
X161868595Y-107242571D01*
X161916214Y-107337809D01*
G04 #@! TO.C,C7*
X153773166Y-110974142D02*
X153820785Y-111021761D01*
X153963642Y-111069380D01*
X154058880Y-111069380D01*
X154201738Y-111021761D01*
X154296976Y-110926523D01*
X154344595Y-110831285D01*
X154392214Y-110640809D01*
X154392214Y-110497952D01*
X154344595Y-110307476D01*
X154296976Y-110212238D01*
X154201738Y-110117000D01*
X154058880Y-110069380D01*
X153963642Y-110069380D01*
X153820785Y-110117000D01*
X153773166Y-110164619D01*
X153439833Y-110069380D02*
X152773166Y-110069380D01*
X153201738Y-111069380D01*
G04 #@! TO.C,C9*
X165871142Y-97597833D02*
X165918761Y-97550214D01*
X165966380Y-97407357D01*
X165966380Y-97312119D01*
X165918761Y-97169261D01*
X165823523Y-97074023D01*
X165728285Y-97026404D01*
X165537809Y-96978785D01*
X165394952Y-96978785D01*
X165204476Y-97026404D01*
X165109238Y-97074023D01*
X165014000Y-97169261D01*
X164966380Y-97312119D01*
X164966380Y-97407357D01*
X165014000Y-97550214D01*
X165061619Y-97597833D01*
X165966380Y-98074023D02*
X165966380Y-98264500D01*
X165918761Y-98359738D01*
X165871142Y-98407357D01*
X165728285Y-98502595D01*
X165537809Y-98550214D01*
X165156857Y-98550214D01*
X165061619Y-98502595D01*
X165014000Y-98454976D01*
X164966380Y-98359738D01*
X164966380Y-98169261D01*
X165014000Y-98074023D01*
X165061619Y-98026404D01*
X165156857Y-97978785D01*
X165394952Y-97978785D01*
X165490190Y-98026404D01*
X165537809Y-98074023D01*
X165585428Y-98169261D01*
X165585428Y-98359738D01*
X165537809Y-98454976D01*
X165490190Y-98502595D01*
X165394952Y-98550214D01*
G04 #@! TO.C,C10*
X163939457Y-93176842D02*
X163987076Y-93224461D01*
X164129933Y-93272080D01*
X164225171Y-93272080D01*
X164368028Y-93224461D01*
X164463266Y-93129223D01*
X164510885Y-93033985D01*
X164558504Y-92843509D01*
X164558504Y-92700652D01*
X164510885Y-92510176D01*
X164463266Y-92414938D01*
X164368028Y-92319700D01*
X164225171Y-92272080D01*
X164129933Y-92272080D01*
X163987076Y-92319700D01*
X163939457Y-92367319D01*
X162987076Y-93272080D02*
X163558504Y-93272080D01*
X163272790Y-93272080D02*
X163272790Y-92272080D01*
X163368028Y-92414938D01*
X163463266Y-92510176D01*
X163558504Y-92557795D01*
X162368028Y-92272080D02*
X162272790Y-92272080D01*
X162177552Y-92319700D01*
X162129933Y-92367319D01*
X162082314Y-92462557D01*
X162034695Y-92653033D01*
X162034695Y-92891128D01*
X162082314Y-93081604D01*
X162129933Y-93176842D01*
X162177552Y-93224461D01*
X162272790Y-93272080D01*
X162368028Y-93272080D01*
X162463266Y-93224461D01*
X162510885Y-93176842D01*
X162558504Y-93081604D01*
X162606123Y-92891128D01*
X162606123Y-92653033D01*
X162558504Y-92462557D01*
X162510885Y-92367319D01*
X162463266Y-92319700D01*
X162368028Y-92272080D01*
G04 #@! TO.C,L1*
X158154666Y-107766380D02*
X158630857Y-107766380D01*
X158630857Y-106766380D01*
X157297523Y-107766380D02*
X157868952Y-107766380D01*
X157583238Y-107766380D02*
X157583238Y-106766380D01*
X157678476Y-106909238D01*
X157773714Y-107004476D01*
X157868952Y-107052095D01*
G04 #@! TO.C,R1*
X153684166Y-99481880D02*
X154017500Y-99005690D01*
X154255595Y-99481880D02*
X154255595Y-98481880D01*
X153874642Y-98481880D01*
X153779404Y-98529500D01*
X153731785Y-98577119D01*
X153684166Y-98672357D01*
X153684166Y-98815214D01*
X153731785Y-98910452D01*
X153779404Y-98958071D01*
X153874642Y-99005690D01*
X154255595Y-99005690D01*
X152731785Y-99481880D02*
X153303214Y-99481880D01*
X153017500Y-99481880D02*
X153017500Y-98481880D01*
X153112738Y-98624738D01*
X153207976Y-98719976D01*
X153303214Y-98767595D01*
G04 #@! TO.C,U2*
X161289904Y-100396380D02*
X161289904Y-101205904D01*
X161242285Y-101301142D01*
X161194666Y-101348761D01*
X161099428Y-101396380D01*
X160908952Y-101396380D01*
X160813714Y-101348761D01*
X160766095Y-101301142D01*
X160718476Y-101205904D01*
X160718476Y-100396380D01*
X160289904Y-100491619D02*
X160242285Y-100444000D01*
X160147047Y-100396380D01*
X159908952Y-100396380D01*
X159813714Y-100444000D01*
X159766095Y-100491619D01*
X159718476Y-100586857D01*
X159718476Y-100682095D01*
X159766095Y-100824952D01*
X160337523Y-101396380D01*
X159718476Y-101396380D01*
G04 #@! TD*
M02*
