G04 #@! TF.GenerationSoftware,KiCad,Pcbnew,(5.0.1)-rc2*
G04 #@! TF.CreationDate,2019-05-10T17:24:36-07:00*
G04 #@! TF.ProjectId,SAMD21E,53414D443231452E6B696361645F7063,rev?*
G04 #@! TF.SameCoordinates,Original*
G04 #@! TF.FileFunction,Soldermask,Top*
G04 #@! TF.FilePolarity,Negative*
%FSLAX46Y46*%
G04 Gerber Fmt 4.6, Leading zero omitted, Abs format (unit mm)*
G04 Created by KiCad (PCBNEW (5.0.1)-rc2) date 5/10/2019 5:24:36 PM*
%MOMM*%
%LPD*%
G01*
G04 APERTURE LIST*
%ADD10C,0.100000*%
G04 APERTURE END LIST*
D10*
G36*
X152510443Y-110992519D02*
X152576627Y-110999037D01*
X152689853Y-111033384D01*
X152746467Y-111050557D01*
X152885087Y-111124652D01*
X152902991Y-111134222D01*
X152938729Y-111163552D01*
X153040186Y-111246814D01*
X153123448Y-111348271D01*
X153152778Y-111384009D01*
X153152779Y-111384011D01*
X153236443Y-111540533D01*
X153236443Y-111540534D01*
X153287963Y-111710373D01*
X153305359Y-111887000D01*
X153287963Y-112063627D01*
X153253616Y-112176853D01*
X153236443Y-112233467D01*
X153162348Y-112372087D01*
X153152778Y-112389991D01*
X153123448Y-112425729D01*
X153040186Y-112527186D01*
X152938729Y-112610448D01*
X152902991Y-112639778D01*
X152902989Y-112639779D01*
X152746467Y-112723443D01*
X152689853Y-112740616D01*
X152576627Y-112774963D01*
X152510443Y-112781481D01*
X152444260Y-112788000D01*
X152355740Y-112788000D01*
X152289557Y-112781481D01*
X152223373Y-112774963D01*
X152110147Y-112740616D01*
X152053533Y-112723443D01*
X151897011Y-112639779D01*
X151897009Y-112639778D01*
X151861271Y-112610448D01*
X151759814Y-112527186D01*
X151676552Y-112425729D01*
X151647222Y-112389991D01*
X151637652Y-112372087D01*
X151563557Y-112233467D01*
X151546384Y-112176853D01*
X151512037Y-112063627D01*
X151494641Y-111887000D01*
X151512037Y-111710373D01*
X151563557Y-111540534D01*
X151563557Y-111540533D01*
X151647221Y-111384011D01*
X151647222Y-111384009D01*
X151676552Y-111348271D01*
X151759814Y-111246814D01*
X151861271Y-111163552D01*
X151897009Y-111134222D01*
X151914913Y-111124652D01*
X152053533Y-111050557D01*
X152110147Y-111033384D01*
X152223373Y-110999037D01*
X152289557Y-110992519D01*
X152355740Y-110986000D01*
X152444260Y-110986000D01*
X152510443Y-110992519D01*
X152510443Y-110992519D01*
G37*
G36*
X162670443Y-110992519D02*
X162736627Y-110999037D01*
X162849853Y-111033384D01*
X162906467Y-111050557D01*
X163045087Y-111124652D01*
X163062991Y-111134222D01*
X163098729Y-111163552D01*
X163200186Y-111246814D01*
X163283448Y-111348271D01*
X163312778Y-111384009D01*
X163312779Y-111384011D01*
X163396443Y-111540533D01*
X163396443Y-111540534D01*
X163447963Y-111710373D01*
X163465359Y-111887000D01*
X163447963Y-112063627D01*
X163413616Y-112176853D01*
X163396443Y-112233467D01*
X163322348Y-112372087D01*
X163312778Y-112389991D01*
X163283448Y-112425729D01*
X163200186Y-112527186D01*
X163098729Y-112610448D01*
X163062991Y-112639778D01*
X163062989Y-112639779D01*
X162906467Y-112723443D01*
X162849853Y-112740616D01*
X162736627Y-112774963D01*
X162670443Y-112781481D01*
X162604260Y-112788000D01*
X162515740Y-112788000D01*
X162449557Y-112781481D01*
X162383373Y-112774963D01*
X162270147Y-112740616D01*
X162213533Y-112723443D01*
X162057011Y-112639779D01*
X162057009Y-112639778D01*
X162021271Y-112610448D01*
X161919814Y-112527186D01*
X161836552Y-112425729D01*
X161807222Y-112389991D01*
X161797652Y-112372087D01*
X161723557Y-112233467D01*
X161706384Y-112176853D01*
X161672037Y-112063627D01*
X161654641Y-111887000D01*
X161672037Y-111710373D01*
X161723557Y-111540534D01*
X161723557Y-111540533D01*
X161807221Y-111384011D01*
X161807222Y-111384009D01*
X161836552Y-111348271D01*
X161919814Y-111246814D01*
X162021271Y-111163552D01*
X162057009Y-111134222D01*
X162074913Y-111124652D01*
X162213533Y-111050557D01*
X162270147Y-111033384D01*
X162383373Y-110999037D01*
X162449557Y-110992519D01*
X162515740Y-110986000D01*
X162604260Y-110986000D01*
X162670443Y-110992519D01*
X162670443Y-110992519D01*
G37*
G36*
X166001000Y-112788000D02*
X164199000Y-112788000D01*
X164199000Y-110986000D01*
X166001000Y-110986000D01*
X166001000Y-112788000D01*
X166001000Y-112788000D01*
G37*
G36*
X160130443Y-110992519D02*
X160196627Y-110999037D01*
X160309853Y-111033384D01*
X160366467Y-111050557D01*
X160505087Y-111124652D01*
X160522991Y-111134222D01*
X160558729Y-111163552D01*
X160660186Y-111246814D01*
X160743448Y-111348271D01*
X160772778Y-111384009D01*
X160772779Y-111384011D01*
X160856443Y-111540533D01*
X160856443Y-111540534D01*
X160907963Y-111710373D01*
X160925359Y-111887000D01*
X160907963Y-112063627D01*
X160873616Y-112176853D01*
X160856443Y-112233467D01*
X160782348Y-112372087D01*
X160772778Y-112389991D01*
X160743448Y-112425729D01*
X160660186Y-112527186D01*
X160558729Y-112610448D01*
X160522991Y-112639778D01*
X160522989Y-112639779D01*
X160366467Y-112723443D01*
X160309853Y-112740616D01*
X160196627Y-112774963D01*
X160130443Y-112781481D01*
X160064260Y-112788000D01*
X159975740Y-112788000D01*
X159909557Y-112781481D01*
X159843373Y-112774963D01*
X159730147Y-112740616D01*
X159673533Y-112723443D01*
X159517011Y-112639779D01*
X159517009Y-112639778D01*
X159481271Y-112610448D01*
X159379814Y-112527186D01*
X159296552Y-112425729D01*
X159267222Y-112389991D01*
X159257652Y-112372087D01*
X159183557Y-112233467D01*
X159166384Y-112176853D01*
X159132037Y-112063627D01*
X159114641Y-111887000D01*
X159132037Y-111710373D01*
X159183557Y-111540534D01*
X159183557Y-111540533D01*
X159267221Y-111384011D01*
X159267222Y-111384009D01*
X159296552Y-111348271D01*
X159379814Y-111246814D01*
X159481271Y-111163552D01*
X159517009Y-111134222D01*
X159534913Y-111124652D01*
X159673533Y-111050557D01*
X159730147Y-111033384D01*
X159843373Y-110999037D01*
X159909557Y-110992519D01*
X159975740Y-110986000D01*
X160064260Y-110986000D01*
X160130443Y-110992519D01*
X160130443Y-110992519D01*
G37*
G36*
X155050443Y-110992519D02*
X155116627Y-110999037D01*
X155229853Y-111033384D01*
X155286467Y-111050557D01*
X155425087Y-111124652D01*
X155442991Y-111134222D01*
X155478729Y-111163552D01*
X155580186Y-111246814D01*
X155663448Y-111348271D01*
X155692778Y-111384009D01*
X155692779Y-111384011D01*
X155776443Y-111540533D01*
X155776443Y-111540534D01*
X155827963Y-111710373D01*
X155845359Y-111887000D01*
X155827963Y-112063627D01*
X155793616Y-112176853D01*
X155776443Y-112233467D01*
X155702348Y-112372087D01*
X155692778Y-112389991D01*
X155663448Y-112425729D01*
X155580186Y-112527186D01*
X155478729Y-112610448D01*
X155442991Y-112639778D01*
X155442989Y-112639779D01*
X155286467Y-112723443D01*
X155229853Y-112740616D01*
X155116627Y-112774963D01*
X155050443Y-112781481D01*
X154984260Y-112788000D01*
X154895740Y-112788000D01*
X154829557Y-112781481D01*
X154763373Y-112774963D01*
X154650147Y-112740616D01*
X154593533Y-112723443D01*
X154437011Y-112639779D01*
X154437009Y-112639778D01*
X154401271Y-112610448D01*
X154299814Y-112527186D01*
X154216552Y-112425729D01*
X154187222Y-112389991D01*
X154177652Y-112372087D01*
X154103557Y-112233467D01*
X154086384Y-112176853D01*
X154052037Y-112063627D01*
X154034641Y-111887000D01*
X154052037Y-111710373D01*
X154103557Y-111540534D01*
X154103557Y-111540533D01*
X154187221Y-111384011D01*
X154187222Y-111384009D01*
X154216552Y-111348271D01*
X154299814Y-111246814D01*
X154401271Y-111163552D01*
X154437009Y-111134222D01*
X154454913Y-111124652D01*
X154593533Y-111050557D01*
X154650147Y-111033384D01*
X154763373Y-110999037D01*
X154829557Y-110992519D01*
X154895740Y-110986000D01*
X154984260Y-110986000D01*
X155050443Y-110992519D01*
X155050443Y-110992519D01*
G37*
G36*
X157590443Y-110992519D02*
X157656627Y-110999037D01*
X157769853Y-111033384D01*
X157826467Y-111050557D01*
X157965087Y-111124652D01*
X157982991Y-111134222D01*
X158018729Y-111163552D01*
X158120186Y-111246814D01*
X158203448Y-111348271D01*
X158232778Y-111384009D01*
X158232779Y-111384011D01*
X158316443Y-111540533D01*
X158316443Y-111540534D01*
X158367963Y-111710373D01*
X158385359Y-111887000D01*
X158367963Y-112063627D01*
X158333616Y-112176853D01*
X158316443Y-112233467D01*
X158242348Y-112372087D01*
X158232778Y-112389991D01*
X158203448Y-112425729D01*
X158120186Y-112527186D01*
X158018729Y-112610448D01*
X157982991Y-112639778D01*
X157982989Y-112639779D01*
X157826467Y-112723443D01*
X157769853Y-112740616D01*
X157656627Y-112774963D01*
X157590443Y-112781481D01*
X157524260Y-112788000D01*
X157435740Y-112788000D01*
X157369557Y-112781481D01*
X157303373Y-112774963D01*
X157190147Y-112740616D01*
X157133533Y-112723443D01*
X156977011Y-112639779D01*
X156977009Y-112639778D01*
X156941271Y-112610448D01*
X156839814Y-112527186D01*
X156756552Y-112425729D01*
X156727222Y-112389991D01*
X156717652Y-112372087D01*
X156643557Y-112233467D01*
X156626384Y-112176853D01*
X156592037Y-112063627D01*
X156574641Y-111887000D01*
X156592037Y-111710373D01*
X156643557Y-111540534D01*
X156643557Y-111540533D01*
X156727221Y-111384011D01*
X156727222Y-111384009D01*
X156756552Y-111348271D01*
X156839814Y-111246814D01*
X156941271Y-111163552D01*
X156977009Y-111134222D01*
X156994913Y-111124652D01*
X157133533Y-111050557D01*
X157190147Y-111033384D01*
X157303373Y-110999037D01*
X157369557Y-110992519D01*
X157435740Y-110986000D01*
X157524260Y-110986000D01*
X157590443Y-110992519D01*
X157590443Y-110992519D01*
G37*
G36*
X170544443Y-108325519D02*
X170610627Y-108332037D01*
X170723853Y-108366384D01*
X170780467Y-108383557D01*
X170919087Y-108457652D01*
X170936991Y-108467222D01*
X170972729Y-108496552D01*
X171074186Y-108579814D01*
X171136152Y-108655321D01*
X171186778Y-108717009D01*
X171186779Y-108717011D01*
X171270443Y-108873533D01*
X171287515Y-108929812D01*
X171321963Y-109043373D01*
X171339359Y-109220000D01*
X171321963Y-109396627D01*
X171287616Y-109509853D01*
X171270443Y-109566467D01*
X171196348Y-109705087D01*
X171186778Y-109722991D01*
X171157448Y-109758729D01*
X171074186Y-109860186D01*
X170972729Y-109943448D01*
X170936991Y-109972778D01*
X170936989Y-109972779D01*
X170780467Y-110056443D01*
X170723853Y-110073616D01*
X170610627Y-110107963D01*
X170544443Y-110114481D01*
X170478260Y-110121000D01*
X170389740Y-110121000D01*
X170323557Y-110114481D01*
X170257373Y-110107963D01*
X170144147Y-110073616D01*
X170087533Y-110056443D01*
X169931011Y-109972779D01*
X169931009Y-109972778D01*
X169895271Y-109943448D01*
X169793814Y-109860186D01*
X169710552Y-109758729D01*
X169681222Y-109722991D01*
X169671652Y-109705087D01*
X169597557Y-109566467D01*
X169580384Y-109509853D01*
X169546037Y-109396627D01*
X169528641Y-109220000D01*
X169546037Y-109043373D01*
X169580485Y-108929812D01*
X169597557Y-108873533D01*
X169681221Y-108717011D01*
X169681222Y-108717009D01*
X169731848Y-108655321D01*
X169793814Y-108579814D01*
X169895271Y-108496552D01*
X169931009Y-108467222D01*
X169948913Y-108457652D01*
X170087533Y-108383557D01*
X170144147Y-108366384D01*
X170257373Y-108332037D01*
X170323557Y-108325519D01*
X170389740Y-108319000D01*
X170478260Y-108319000D01*
X170544443Y-108325519D01*
X170544443Y-108325519D01*
G37*
G36*
X145935000Y-110121000D02*
X144133000Y-110121000D01*
X144133000Y-108319000D01*
X145935000Y-108319000D01*
X145935000Y-110121000D01*
X145935000Y-110121000D01*
G37*
G36*
X161492130Y-109060180D02*
X158547870Y-109060180D01*
X158547870Y-107657700D01*
X161492130Y-107657700D01*
X161492130Y-109060180D01*
X161492130Y-109060180D01*
G37*
G36*
X158296810Y-109060180D02*
X156947670Y-109060180D01*
X156947670Y-107657700D01*
X158296810Y-107657700D01*
X158296810Y-109060180D01*
X158296810Y-109060180D01*
G37*
G36*
X163092330Y-109060180D02*
X161743190Y-109060180D01*
X161743190Y-107657700D01*
X163092330Y-107657700D01*
X163092330Y-109060180D01*
X163092330Y-109060180D01*
G37*
G36*
X151227166Y-107467725D02*
X151265837Y-107479456D01*
X151301479Y-107498508D01*
X151332717Y-107524143D01*
X151358352Y-107555381D01*
X151377404Y-107591023D01*
X151389135Y-107629694D01*
X151393700Y-107676048D01*
X151393700Y-108752272D01*
X151389135Y-108798626D01*
X151377404Y-108837297D01*
X151358352Y-108872939D01*
X151332717Y-108904177D01*
X151301479Y-108929812D01*
X151265837Y-108948864D01*
X151227166Y-108960595D01*
X151180812Y-108965160D01*
X150529588Y-108965160D01*
X150483234Y-108960595D01*
X150444563Y-108948864D01*
X150408921Y-108929812D01*
X150377683Y-108904177D01*
X150352048Y-108872939D01*
X150332996Y-108837297D01*
X150321265Y-108798626D01*
X150316700Y-108752272D01*
X150316700Y-107676048D01*
X150321265Y-107629694D01*
X150332996Y-107591023D01*
X150352048Y-107555381D01*
X150377683Y-107524143D01*
X150408921Y-107498508D01*
X150444563Y-107479456D01*
X150483234Y-107467725D01*
X150529588Y-107463160D01*
X151180812Y-107463160D01*
X151227166Y-107467725D01*
X151227166Y-107467725D01*
G37*
G36*
X153102166Y-107467725D02*
X153140837Y-107479456D01*
X153176479Y-107498508D01*
X153207717Y-107524143D01*
X153233352Y-107555381D01*
X153252404Y-107591023D01*
X153264135Y-107629694D01*
X153268700Y-107676048D01*
X153268700Y-108752272D01*
X153264135Y-108798626D01*
X153252404Y-108837297D01*
X153233352Y-108872939D01*
X153207717Y-108904177D01*
X153176479Y-108929812D01*
X153140837Y-108948864D01*
X153102166Y-108960595D01*
X153055812Y-108965160D01*
X152404588Y-108965160D01*
X152358234Y-108960595D01*
X152319563Y-108948864D01*
X152283921Y-108929812D01*
X152252683Y-108904177D01*
X152227048Y-108872939D01*
X152207996Y-108837297D01*
X152196265Y-108798626D01*
X152191700Y-108752272D01*
X152191700Y-107676048D01*
X152196265Y-107629694D01*
X152207996Y-107591023D01*
X152227048Y-107555381D01*
X152252683Y-107524143D01*
X152283921Y-107498508D01*
X152319563Y-107479456D01*
X152358234Y-107467725D01*
X152404588Y-107463160D01*
X153055812Y-107463160D01*
X153102166Y-107467725D01*
X153102166Y-107467725D01*
G37*
G36*
X154748491Y-107804005D02*
X154782469Y-107814313D01*
X154813787Y-107831053D01*
X154841239Y-107853581D01*
X154863767Y-107881033D01*
X154880507Y-107912351D01*
X154890815Y-107946329D01*
X154894900Y-107987810D01*
X154894900Y-108664030D01*
X154890815Y-108705511D01*
X154880507Y-108739489D01*
X154863767Y-108770807D01*
X154841239Y-108798259D01*
X154813787Y-108820787D01*
X154782469Y-108837527D01*
X154748491Y-108847835D01*
X154707010Y-108851920D01*
X154105790Y-108851920D01*
X154064309Y-108847835D01*
X154030331Y-108837527D01*
X153999013Y-108820787D01*
X153971561Y-108798259D01*
X153949033Y-108770807D01*
X153932293Y-108739489D01*
X153921985Y-108705511D01*
X153917900Y-108664030D01*
X153917900Y-107987810D01*
X153921985Y-107946329D01*
X153932293Y-107912351D01*
X153949033Y-107881033D01*
X153971561Y-107853581D01*
X153999013Y-107831053D01*
X154030331Y-107814313D01*
X154064309Y-107804005D01*
X154105790Y-107799920D01*
X154707010Y-107799920D01*
X154748491Y-107804005D01*
X154748491Y-107804005D01*
G37*
G36*
X156323491Y-107804005D02*
X156357469Y-107814313D01*
X156388787Y-107831053D01*
X156416239Y-107853581D01*
X156438767Y-107881033D01*
X156455507Y-107912351D01*
X156465815Y-107946329D01*
X156469900Y-107987810D01*
X156469900Y-108664030D01*
X156465815Y-108705511D01*
X156455507Y-108739489D01*
X156438767Y-108770807D01*
X156416239Y-108798259D01*
X156388787Y-108820787D01*
X156357469Y-108837527D01*
X156323491Y-108847835D01*
X156282010Y-108851920D01*
X155680790Y-108851920D01*
X155639309Y-108847835D01*
X155605331Y-108837527D01*
X155574013Y-108820787D01*
X155546561Y-108798259D01*
X155524033Y-108770807D01*
X155507293Y-108739489D01*
X155496985Y-108705511D01*
X155492900Y-108664030D01*
X155492900Y-107987810D01*
X155496985Y-107946329D01*
X155507293Y-107912351D01*
X155524033Y-107881033D01*
X155546561Y-107853581D01*
X155574013Y-107831053D01*
X155605331Y-107814313D01*
X155639309Y-107804005D01*
X155680790Y-107799920D01*
X156282010Y-107799920D01*
X156323491Y-107804005D01*
X156323491Y-107804005D01*
G37*
G36*
X170544443Y-105785519D02*
X170610627Y-105792037D01*
X170723853Y-105826384D01*
X170780467Y-105843557D01*
X170919087Y-105917652D01*
X170936991Y-105927222D01*
X170972729Y-105956552D01*
X171074186Y-106039814D01*
X171157448Y-106141271D01*
X171186778Y-106177009D01*
X171186779Y-106177011D01*
X171270443Y-106333533D01*
X171270443Y-106333534D01*
X171321963Y-106503373D01*
X171339359Y-106680000D01*
X171321963Y-106856627D01*
X171287616Y-106969853D01*
X171270443Y-107026467D01*
X171196348Y-107165087D01*
X171186778Y-107182991D01*
X171162700Y-107212330D01*
X171074186Y-107320186D01*
X170972729Y-107403448D01*
X170936991Y-107432778D01*
X170936989Y-107432779D01*
X170780467Y-107516443D01*
X170723853Y-107533616D01*
X170610627Y-107567963D01*
X170544443Y-107574481D01*
X170478260Y-107581000D01*
X170389740Y-107581000D01*
X170323557Y-107574481D01*
X170257373Y-107567963D01*
X170144147Y-107533616D01*
X170087533Y-107516443D01*
X169931011Y-107432779D01*
X169931009Y-107432778D01*
X169895271Y-107403448D01*
X169793814Y-107320186D01*
X169705300Y-107212330D01*
X169681222Y-107182991D01*
X169671652Y-107165087D01*
X169597557Y-107026467D01*
X169580384Y-106969853D01*
X169546037Y-106856627D01*
X169528641Y-106680000D01*
X169546037Y-106503373D01*
X169597557Y-106333534D01*
X169597557Y-106333533D01*
X169681221Y-106177011D01*
X169681222Y-106177009D01*
X169710552Y-106141271D01*
X169793814Y-106039814D01*
X169895271Y-105956552D01*
X169931009Y-105927222D01*
X169948913Y-105917652D01*
X170087533Y-105843557D01*
X170144147Y-105826384D01*
X170257373Y-105792037D01*
X170323557Y-105785519D01*
X170389740Y-105779000D01*
X170478260Y-105779000D01*
X170544443Y-105785519D01*
X170544443Y-105785519D01*
G37*
G36*
X145144443Y-105785519D02*
X145210627Y-105792037D01*
X145323853Y-105826384D01*
X145380467Y-105843557D01*
X145519087Y-105917652D01*
X145536991Y-105927222D01*
X145572729Y-105956552D01*
X145674186Y-106039814D01*
X145757448Y-106141271D01*
X145786778Y-106177009D01*
X145786779Y-106177011D01*
X145870443Y-106333533D01*
X145870443Y-106333534D01*
X145921963Y-106503373D01*
X145939359Y-106680000D01*
X145921963Y-106856627D01*
X145887616Y-106969853D01*
X145870443Y-107026467D01*
X145796348Y-107165087D01*
X145786778Y-107182991D01*
X145762700Y-107212330D01*
X145674186Y-107320186D01*
X145572729Y-107403448D01*
X145536991Y-107432778D01*
X145536989Y-107432779D01*
X145380467Y-107516443D01*
X145323853Y-107533616D01*
X145210627Y-107567963D01*
X145144443Y-107574481D01*
X145078260Y-107581000D01*
X144989740Y-107581000D01*
X144923557Y-107574481D01*
X144857373Y-107567963D01*
X144744147Y-107533616D01*
X144687533Y-107516443D01*
X144531011Y-107432779D01*
X144531009Y-107432778D01*
X144495271Y-107403448D01*
X144393814Y-107320186D01*
X144305300Y-107212330D01*
X144281222Y-107182991D01*
X144271652Y-107165087D01*
X144197557Y-107026467D01*
X144180384Y-106969853D01*
X144146037Y-106856627D01*
X144128641Y-106680000D01*
X144146037Y-106503373D01*
X144197557Y-106333534D01*
X144197557Y-106333533D01*
X144281221Y-106177011D01*
X144281222Y-106177009D01*
X144310552Y-106141271D01*
X144393814Y-106039814D01*
X144495271Y-105956552D01*
X144531009Y-105927222D01*
X144548913Y-105917652D01*
X144687533Y-105843557D01*
X144744147Y-105826384D01*
X144857373Y-105792037D01*
X144923557Y-105785519D01*
X144989740Y-105779000D01*
X145078260Y-105779000D01*
X145144443Y-105785519D01*
X145144443Y-105785519D01*
G37*
G36*
X156507380Y-107212330D02*
X155104900Y-107212330D01*
X155104900Y-105863190D01*
X156507380Y-105863190D01*
X156507380Y-107212330D01*
X156507380Y-107212330D01*
G37*
G36*
X164960500Y-107212330D02*
X163558020Y-107212330D01*
X163558020Y-105863190D01*
X164960500Y-105863190D01*
X164960500Y-107212330D01*
X164960500Y-107212330D01*
G37*
G36*
X156507380Y-105612130D02*
X155104900Y-105612130D01*
X155104900Y-102667870D01*
X156507380Y-102667870D01*
X156507380Y-105612130D01*
X156507380Y-105612130D01*
G37*
G36*
X164960500Y-105612130D02*
X163558020Y-105612130D01*
X163558020Y-102667870D01*
X164960500Y-102667870D01*
X164960500Y-105612130D01*
X164960500Y-105612130D01*
G37*
G36*
X170544443Y-103245519D02*
X170610627Y-103252037D01*
X170723853Y-103286384D01*
X170780467Y-103303557D01*
X170919087Y-103377652D01*
X170936991Y-103387222D01*
X170972729Y-103416552D01*
X171074186Y-103499814D01*
X171157448Y-103601271D01*
X171186778Y-103637009D01*
X171186779Y-103637011D01*
X171270443Y-103793533D01*
X171270443Y-103793534D01*
X171321963Y-103963373D01*
X171339359Y-104140000D01*
X171321963Y-104316627D01*
X171287616Y-104429853D01*
X171270443Y-104486467D01*
X171196348Y-104625087D01*
X171186778Y-104642991D01*
X171157448Y-104678729D01*
X171074186Y-104780186D01*
X170972729Y-104863448D01*
X170936991Y-104892778D01*
X170936989Y-104892779D01*
X170780467Y-104976443D01*
X170723853Y-104993616D01*
X170610627Y-105027963D01*
X170544442Y-105034482D01*
X170478260Y-105041000D01*
X170389740Y-105041000D01*
X170323557Y-105034481D01*
X170257373Y-105027963D01*
X170144147Y-104993616D01*
X170087533Y-104976443D01*
X169931011Y-104892779D01*
X169931009Y-104892778D01*
X169895271Y-104863448D01*
X169793814Y-104780186D01*
X169710552Y-104678729D01*
X169681222Y-104642991D01*
X169671652Y-104625087D01*
X169597557Y-104486467D01*
X169580384Y-104429853D01*
X169546037Y-104316627D01*
X169528641Y-104140000D01*
X169546037Y-103963373D01*
X169597557Y-103793534D01*
X169597557Y-103793533D01*
X169681221Y-103637011D01*
X169681222Y-103637009D01*
X169710552Y-103601271D01*
X169793814Y-103499814D01*
X169895271Y-103416552D01*
X169931009Y-103387222D01*
X169948913Y-103377652D01*
X170087533Y-103303557D01*
X170144147Y-103286384D01*
X170257373Y-103252037D01*
X170323558Y-103245518D01*
X170389740Y-103239000D01*
X170478260Y-103239000D01*
X170544443Y-103245519D01*
X170544443Y-103245519D01*
G37*
G36*
X145144443Y-103245519D02*
X145210627Y-103252037D01*
X145323853Y-103286384D01*
X145380467Y-103303557D01*
X145519087Y-103377652D01*
X145536991Y-103387222D01*
X145572729Y-103416552D01*
X145674186Y-103499814D01*
X145757448Y-103601271D01*
X145786778Y-103637009D01*
X145786779Y-103637011D01*
X145870443Y-103793533D01*
X145870443Y-103793534D01*
X145921963Y-103963373D01*
X145939359Y-104140000D01*
X145921963Y-104316627D01*
X145887616Y-104429853D01*
X145870443Y-104486467D01*
X145796348Y-104625087D01*
X145786778Y-104642991D01*
X145757448Y-104678729D01*
X145674186Y-104780186D01*
X145572729Y-104863448D01*
X145536991Y-104892778D01*
X145536989Y-104892779D01*
X145380467Y-104976443D01*
X145323853Y-104993616D01*
X145210627Y-105027963D01*
X145144442Y-105034482D01*
X145078260Y-105041000D01*
X144989740Y-105041000D01*
X144923557Y-105034481D01*
X144857373Y-105027963D01*
X144744147Y-104993616D01*
X144687533Y-104976443D01*
X144531011Y-104892779D01*
X144531009Y-104892778D01*
X144495271Y-104863448D01*
X144393814Y-104780186D01*
X144310552Y-104678729D01*
X144281222Y-104642991D01*
X144271652Y-104625087D01*
X144197557Y-104486467D01*
X144180384Y-104429853D01*
X144146037Y-104316627D01*
X144128641Y-104140000D01*
X144146037Y-103963373D01*
X144197557Y-103793534D01*
X144197557Y-103793533D01*
X144281221Y-103637011D01*
X144281222Y-103637009D01*
X144310552Y-103601271D01*
X144393814Y-103499814D01*
X144495271Y-103416552D01*
X144531009Y-103387222D01*
X144548913Y-103377652D01*
X144687533Y-103303557D01*
X144744147Y-103286384D01*
X144857373Y-103252037D01*
X144923558Y-103245518D01*
X144989740Y-103239000D01*
X145078260Y-103239000D01*
X145144443Y-103245519D01*
X145144443Y-103245519D01*
G37*
G36*
X145144443Y-100705519D02*
X145210627Y-100712037D01*
X145323853Y-100746384D01*
X145380467Y-100763557D01*
X145519087Y-100837652D01*
X145536991Y-100847222D01*
X145572729Y-100876552D01*
X145674186Y-100959814D01*
X145757448Y-101061271D01*
X145786778Y-101097009D01*
X145786779Y-101097011D01*
X145870443Y-101253533D01*
X145870443Y-101253534D01*
X145921963Y-101423373D01*
X145939359Y-101600000D01*
X145921963Y-101776627D01*
X145890074Y-101881750D01*
X145870443Y-101946467D01*
X145812718Y-102054461D01*
X145786778Y-102102991D01*
X145771746Y-102121307D01*
X145674186Y-102240186D01*
X145572729Y-102323448D01*
X145536991Y-102352778D01*
X145536989Y-102352779D01*
X145380467Y-102436443D01*
X145323853Y-102453616D01*
X145210627Y-102487963D01*
X145144442Y-102494482D01*
X145078260Y-102501000D01*
X144989740Y-102501000D01*
X144923558Y-102494482D01*
X144857373Y-102487963D01*
X144744147Y-102453616D01*
X144687533Y-102436443D01*
X144531011Y-102352779D01*
X144531009Y-102352778D01*
X144495271Y-102323448D01*
X144393814Y-102240186D01*
X144296254Y-102121307D01*
X144281222Y-102102991D01*
X144255282Y-102054461D01*
X144197557Y-101946467D01*
X144177926Y-101881750D01*
X144146037Y-101776627D01*
X144128641Y-101600000D01*
X144146037Y-101423373D01*
X144197557Y-101253534D01*
X144197557Y-101253533D01*
X144281221Y-101097011D01*
X144281222Y-101097009D01*
X144310552Y-101061271D01*
X144393814Y-100959814D01*
X144495271Y-100876552D01*
X144531009Y-100847222D01*
X144548913Y-100837652D01*
X144687533Y-100763557D01*
X144744147Y-100746384D01*
X144857373Y-100712037D01*
X144923557Y-100705519D01*
X144989740Y-100699000D01*
X145078260Y-100699000D01*
X145144443Y-100705519D01*
X145144443Y-100705519D01*
G37*
G36*
X170544443Y-100705519D02*
X170610627Y-100712037D01*
X170723853Y-100746384D01*
X170780467Y-100763557D01*
X170919087Y-100837652D01*
X170936991Y-100847222D01*
X170972729Y-100876552D01*
X171074186Y-100959814D01*
X171157448Y-101061271D01*
X171186778Y-101097009D01*
X171186779Y-101097011D01*
X171270443Y-101253533D01*
X171270443Y-101253534D01*
X171321963Y-101423373D01*
X171339359Y-101600000D01*
X171321963Y-101776627D01*
X171290074Y-101881750D01*
X171270443Y-101946467D01*
X171212718Y-102054461D01*
X171186778Y-102102991D01*
X171171746Y-102121307D01*
X171074186Y-102240186D01*
X170972729Y-102323448D01*
X170936991Y-102352778D01*
X170936989Y-102352779D01*
X170780467Y-102436443D01*
X170723853Y-102453616D01*
X170610627Y-102487963D01*
X170544442Y-102494482D01*
X170478260Y-102501000D01*
X170389740Y-102501000D01*
X170323558Y-102494482D01*
X170257373Y-102487963D01*
X170144147Y-102453616D01*
X170087533Y-102436443D01*
X169931011Y-102352779D01*
X169931009Y-102352778D01*
X169895271Y-102323448D01*
X169793814Y-102240186D01*
X169696254Y-102121307D01*
X169681222Y-102102991D01*
X169655282Y-102054461D01*
X169597557Y-101946467D01*
X169577926Y-101881750D01*
X169546037Y-101776627D01*
X169528641Y-101600000D01*
X169546037Y-101423373D01*
X169597557Y-101253534D01*
X169597557Y-101253533D01*
X169681221Y-101097011D01*
X169681222Y-101097009D01*
X169710552Y-101061271D01*
X169793814Y-100959814D01*
X169895271Y-100876552D01*
X169931009Y-100847222D01*
X169948913Y-100837652D01*
X170087533Y-100763557D01*
X170144147Y-100746384D01*
X170257373Y-100712037D01*
X170323557Y-100705519D01*
X170389740Y-100699000D01*
X170478260Y-100699000D01*
X170544443Y-100705519D01*
X170544443Y-100705519D01*
G37*
G36*
X156507380Y-102416810D02*
X155104900Y-102416810D01*
X155104900Y-101067670D01*
X156507380Y-101067670D01*
X156507380Y-102416810D01*
X156507380Y-102416810D01*
G37*
G36*
X164960500Y-102416810D02*
X163558020Y-102416810D01*
X163558020Y-101067670D01*
X164960500Y-101067670D01*
X164960500Y-102416810D01*
X164960500Y-102416810D01*
G37*
G36*
X153859000Y-102301000D02*
X151957000Y-102301000D01*
X151957000Y-100899000D01*
X153859000Y-100899000D01*
X153859000Y-102301000D01*
X153859000Y-102301000D01*
G37*
G36*
X149135091Y-101078085D02*
X149169069Y-101088393D01*
X149200387Y-101105133D01*
X149227839Y-101127661D01*
X149250367Y-101155113D01*
X149267107Y-101186431D01*
X149277415Y-101220409D01*
X149281500Y-101261890D01*
X149281500Y-101938110D01*
X149277415Y-101979591D01*
X149267107Y-102013569D01*
X149250367Y-102044887D01*
X149227839Y-102072339D01*
X149200387Y-102094867D01*
X149169069Y-102111607D01*
X149135091Y-102121915D01*
X149093610Y-102126000D01*
X148492390Y-102126000D01*
X148450909Y-102121915D01*
X148416931Y-102111607D01*
X148385613Y-102094867D01*
X148358161Y-102072339D01*
X148335633Y-102044887D01*
X148318893Y-102013569D01*
X148308585Y-101979591D01*
X148304500Y-101938110D01*
X148304500Y-101261890D01*
X148308585Y-101220409D01*
X148318893Y-101186431D01*
X148335633Y-101155113D01*
X148358161Y-101127661D01*
X148385613Y-101105133D01*
X148416931Y-101088393D01*
X148450909Y-101078085D01*
X148492390Y-101074000D01*
X149093610Y-101074000D01*
X149135091Y-101078085D01*
X149135091Y-101078085D01*
G37*
G36*
X150710091Y-101078085D02*
X150744069Y-101088393D01*
X150775387Y-101105133D01*
X150802839Y-101127661D01*
X150825367Y-101155113D01*
X150842107Y-101186431D01*
X150852415Y-101220409D01*
X150856500Y-101261890D01*
X150856500Y-101938110D01*
X150852415Y-101979591D01*
X150842107Y-102013569D01*
X150825367Y-102044887D01*
X150802839Y-102072339D01*
X150775387Y-102094867D01*
X150744069Y-102111607D01*
X150710091Y-102121915D01*
X150668610Y-102126000D01*
X150067390Y-102126000D01*
X150025909Y-102121915D01*
X149991931Y-102111607D01*
X149960613Y-102094867D01*
X149933161Y-102072339D01*
X149910633Y-102044887D01*
X149893893Y-102013569D01*
X149883585Y-101979591D01*
X149879500Y-101938110D01*
X149879500Y-101261890D01*
X149883585Y-101220409D01*
X149893893Y-101186431D01*
X149910633Y-101155113D01*
X149933161Y-101127661D01*
X149960613Y-101105133D01*
X149991931Y-101088393D01*
X150025909Y-101078085D01*
X150067390Y-101074000D01*
X150668610Y-101074000D01*
X150710091Y-101078085D01*
X150710091Y-101078085D01*
G37*
G36*
X158296810Y-100612140D02*
X156947670Y-100612140D01*
X156947670Y-99209660D01*
X158296810Y-99209660D01*
X158296810Y-100612140D01*
X158296810Y-100612140D01*
G37*
G36*
X161492130Y-100612140D02*
X158547870Y-100612140D01*
X158547870Y-99209660D01*
X161492130Y-99209660D01*
X161492130Y-100612140D01*
X161492130Y-100612140D01*
G37*
G36*
X163092330Y-100612140D02*
X161743190Y-100612140D01*
X161743190Y-99209660D01*
X163092330Y-99209660D01*
X163092330Y-100612140D01*
X163092330Y-100612140D01*
G37*
G36*
X170544443Y-98165519D02*
X170610627Y-98172037D01*
X170723853Y-98206384D01*
X170780467Y-98223557D01*
X170867822Y-98270250D01*
X170936991Y-98307222D01*
X170972729Y-98336552D01*
X171074186Y-98419814D01*
X171157448Y-98521271D01*
X171186778Y-98557009D01*
X171186779Y-98557011D01*
X171270443Y-98713533D01*
X171270443Y-98713534D01*
X171321963Y-98883373D01*
X171339359Y-99060000D01*
X171321963Y-99236627D01*
X171287616Y-99349853D01*
X171270443Y-99406467D01*
X171219913Y-99501000D01*
X171186778Y-99562991D01*
X171157448Y-99598729D01*
X171074186Y-99700186D01*
X170972729Y-99783448D01*
X170936991Y-99812778D01*
X170936989Y-99812779D01*
X170780467Y-99896443D01*
X170723853Y-99913616D01*
X170610627Y-99947963D01*
X170544443Y-99954481D01*
X170478260Y-99961000D01*
X170389740Y-99961000D01*
X170323557Y-99954481D01*
X170257373Y-99947963D01*
X170144147Y-99913616D01*
X170087533Y-99896443D01*
X169931011Y-99812779D01*
X169931009Y-99812778D01*
X169895271Y-99783448D01*
X169793814Y-99700186D01*
X169710552Y-99598729D01*
X169681222Y-99562991D01*
X169648087Y-99501000D01*
X169597557Y-99406467D01*
X169580384Y-99349853D01*
X169546037Y-99236627D01*
X169528641Y-99060000D01*
X169546037Y-98883373D01*
X169597557Y-98713534D01*
X169597557Y-98713533D01*
X169681221Y-98557011D01*
X169681222Y-98557009D01*
X169710552Y-98521271D01*
X169793814Y-98419814D01*
X169895271Y-98336552D01*
X169931009Y-98307222D01*
X170000178Y-98270250D01*
X170087533Y-98223557D01*
X170144147Y-98206384D01*
X170257373Y-98172037D01*
X170323557Y-98165519D01*
X170389740Y-98159000D01*
X170478260Y-98159000D01*
X170544443Y-98165519D01*
X170544443Y-98165519D01*
G37*
G36*
X145144443Y-98165519D02*
X145210627Y-98172037D01*
X145323853Y-98206384D01*
X145380467Y-98223557D01*
X145467822Y-98270250D01*
X145536991Y-98307222D01*
X145572729Y-98336552D01*
X145674186Y-98419814D01*
X145757448Y-98521271D01*
X145786778Y-98557009D01*
X145786779Y-98557011D01*
X145870443Y-98713533D01*
X145870443Y-98713534D01*
X145921963Y-98883373D01*
X145939359Y-99060000D01*
X145921963Y-99236627D01*
X145887616Y-99349853D01*
X145870443Y-99406467D01*
X145819913Y-99501000D01*
X145786778Y-99562991D01*
X145757448Y-99598729D01*
X145674186Y-99700186D01*
X145572729Y-99783448D01*
X145536991Y-99812778D01*
X145536989Y-99812779D01*
X145380467Y-99896443D01*
X145323853Y-99913616D01*
X145210627Y-99947963D01*
X145144443Y-99954481D01*
X145078260Y-99961000D01*
X144989740Y-99961000D01*
X144923557Y-99954481D01*
X144857373Y-99947963D01*
X144744147Y-99913616D01*
X144687533Y-99896443D01*
X144531011Y-99812779D01*
X144531009Y-99812778D01*
X144495271Y-99783448D01*
X144393814Y-99700186D01*
X144310552Y-99598729D01*
X144281222Y-99562991D01*
X144248087Y-99501000D01*
X144197557Y-99406467D01*
X144180384Y-99349853D01*
X144146037Y-99236627D01*
X144128641Y-99060000D01*
X144146037Y-98883373D01*
X144197557Y-98713534D01*
X144197557Y-98713533D01*
X144281221Y-98557011D01*
X144281222Y-98557009D01*
X144310552Y-98521271D01*
X144393814Y-98419814D01*
X144495271Y-98336552D01*
X144531009Y-98307222D01*
X144600178Y-98270250D01*
X144687533Y-98223557D01*
X144744147Y-98206384D01*
X144857373Y-98172037D01*
X144923557Y-98165519D01*
X144989740Y-98159000D01*
X145078260Y-98159000D01*
X145144443Y-98165519D01*
X145144443Y-98165519D01*
G37*
G36*
X153859000Y-99501000D02*
X151957000Y-99501000D01*
X151957000Y-98099000D01*
X153859000Y-98099000D01*
X153859000Y-99501000D01*
X153859000Y-99501000D01*
G37*
G36*
X150710091Y-98030085D02*
X150744069Y-98040393D01*
X150775387Y-98057133D01*
X150802839Y-98079661D01*
X150825367Y-98107113D01*
X150842107Y-98138431D01*
X150852415Y-98172409D01*
X150856500Y-98213890D01*
X150856500Y-98890110D01*
X150852415Y-98931591D01*
X150842107Y-98965569D01*
X150825367Y-98996887D01*
X150802839Y-99024339D01*
X150775387Y-99046867D01*
X150744069Y-99063607D01*
X150710091Y-99073915D01*
X150668610Y-99078000D01*
X150067390Y-99078000D01*
X150025909Y-99073915D01*
X149991931Y-99063607D01*
X149960613Y-99046867D01*
X149933161Y-99024339D01*
X149910633Y-98996887D01*
X149893893Y-98965569D01*
X149883585Y-98931591D01*
X149879500Y-98890110D01*
X149879500Y-98213890D01*
X149883585Y-98172409D01*
X149893893Y-98138431D01*
X149910633Y-98107113D01*
X149933161Y-98079661D01*
X149960613Y-98057133D01*
X149991931Y-98040393D01*
X150025909Y-98030085D01*
X150067390Y-98026000D01*
X150668610Y-98026000D01*
X150710091Y-98030085D01*
X150710091Y-98030085D01*
G37*
G36*
X149135091Y-98030085D02*
X149169069Y-98040393D01*
X149200387Y-98057133D01*
X149227839Y-98079661D01*
X149250367Y-98107113D01*
X149267107Y-98138431D01*
X149277415Y-98172409D01*
X149281500Y-98213890D01*
X149281500Y-98890110D01*
X149277415Y-98931591D01*
X149267107Y-98965569D01*
X149250367Y-98996887D01*
X149227839Y-99024339D01*
X149200387Y-99046867D01*
X149169069Y-99063607D01*
X149135091Y-99073915D01*
X149093610Y-99078000D01*
X148492390Y-99078000D01*
X148450909Y-99073915D01*
X148416931Y-99063607D01*
X148385613Y-99046867D01*
X148358161Y-99024339D01*
X148335633Y-98996887D01*
X148318893Y-98965569D01*
X148308585Y-98931591D01*
X148304500Y-98890110D01*
X148304500Y-98213890D01*
X148308585Y-98172409D01*
X148318893Y-98138431D01*
X148335633Y-98107113D01*
X148358161Y-98079661D01*
X148385613Y-98057133D01*
X148416931Y-98040393D01*
X148450909Y-98030085D01*
X148492390Y-98026000D01*
X149093610Y-98026000D01*
X149135091Y-98030085D01*
X149135091Y-98030085D01*
G37*
G36*
X159502966Y-96535565D02*
X159541637Y-96547296D01*
X159577279Y-96566348D01*
X159608517Y-96591983D01*
X159634152Y-96623221D01*
X159653204Y-96658863D01*
X159664935Y-96697534D01*
X159669500Y-96743888D01*
X159669500Y-97820112D01*
X159664935Y-97866466D01*
X159653204Y-97905137D01*
X159634152Y-97940779D01*
X159608517Y-97972017D01*
X159577279Y-97997652D01*
X159541637Y-98016704D01*
X159502966Y-98028435D01*
X159456612Y-98033000D01*
X158805388Y-98033000D01*
X158759034Y-98028435D01*
X158720363Y-98016704D01*
X158684721Y-97997652D01*
X158653483Y-97972017D01*
X158627848Y-97940779D01*
X158608796Y-97905137D01*
X158597065Y-97866466D01*
X158592500Y-97820112D01*
X158592500Y-96743888D01*
X158597065Y-96697534D01*
X158608796Y-96658863D01*
X158627848Y-96623221D01*
X158653483Y-96591983D01*
X158684721Y-96566348D01*
X158720363Y-96547296D01*
X158759034Y-96535565D01*
X158805388Y-96531000D01*
X159456612Y-96531000D01*
X159502966Y-96535565D01*
X159502966Y-96535565D01*
G37*
G36*
X157627966Y-96535565D02*
X157666637Y-96547296D01*
X157702279Y-96566348D01*
X157733517Y-96591983D01*
X157759152Y-96623221D01*
X157778204Y-96658863D01*
X157789935Y-96697534D01*
X157794500Y-96743888D01*
X157794500Y-97820112D01*
X157789935Y-97866466D01*
X157778204Y-97905137D01*
X157759152Y-97940779D01*
X157733517Y-97972017D01*
X157702279Y-97997652D01*
X157666637Y-98016704D01*
X157627966Y-98028435D01*
X157581612Y-98033000D01*
X156930388Y-98033000D01*
X156884034Y-98028435D01*
X156845363Y-98016704D01*
X156809721Y-97997652D01*
X156778483Y-97972017D01*
X156752848Y-97940779D01*
X156733796Y-97905137D01*
X156722065Y-97866466D01*
X156717500Y-97820112D01*
X156717500Y-96743888D01*
X156722065Y-96697534D01*
X156733796Y-96658863D01*
X156752848Y-96623221D01*
X156778483Y-96591983D01*
X156809721Y-96566348D01*
X156845363Y-96547296D01*
X156884034Y-96535565D01*
X156930388Y-96531000D01*
X157581612Y-96531000D01*
X157627966Y-96535565D01*
X157627966Y-96535565D01*
G37*
G36*
X145144442Y-95625518D02*
X145210627Y-95632037D01*
X145314347Y-95663500D01*
X145380467Y-95683557D01*
X145519087Y-95757652D01*
X145536991Y-95767222D01*
X145572729Y-95796552D01*
X145674186Y-95879814D01*
X145757448Y-95981271D01*
X145786778Y-96017009D01*
X145786779Y-96017011D01*
X145870443Y-96173533D01*
X145870443Y-96173534D01*
X145921963Y-96343373D01*
X145939359Y-96520000D01*
X145921963Y-96696627D01*
X145890529Y-96800250D01*
X145870443Y-96866467D01*
X145796348Y-97005087D01*
X145786778Y-97022991D01*
X145757448Y-97058729D01*
X145674186Y-97160186D01*
X145572729Y-97243448D01*
X145536991Y-97272778D01*
X145536989Y-97272779D01*
X145380467Y-97356443D01*
X145323853Y-97373616D01*
X145210627Y-97407963D01*
X145144442Y-97414482D01*
X145078260Y-97421000D01*
X144989740Y-97421000D01*
X144923558Y-97414482D01*
X144857373Y-97407963D01*
X144744147Y-97373616D01*
X144687533Y-97356443D01*
X144531011Y-97272779D01*
X144531009Y-97272778D01*
X144495271Y-97243448D01*
X144393814Y-97160186D01*
X144310552Y-97058729D01*
X144281222Y-97022991D01*
X144271652Y-97005087D01*
X144197557Y-96866467D01*
X144177471Y-96800250D01*
X144146037Y-96696627D01*
X144128641Y-96520000D01*
X144146037Y-96343373D01*
X144197557Y-96173534D01*
X144197557Y-96173533D01*
X144281221Y-96017011D01*
X144281222Y-96017009D01*
X144310552Y-95981271D01*
X144393814Y-95879814D01*
X144495271Y-95796552D01*
X144531009Y-95767222D01*
X144548913Y-95757652D01*
X144687533Y-95683557D01*
X144753653Y-95663500D01*
X144857373Y-95632037D01*
X144923558Y-95625518D01*
X144989740Y-95619000D01*
X145078260Y-95619000D01*
X145144442Y-95625518D01*
X145144442Y-95625518D01*
G37*
G36*
X170544442Y-95625518D02*
X170610627Y-95632037D01*
X170714347Y-95663500D01*
X170780467Y-95683557D01*
X170919087Y-95757652D01*
X170936991Y-95767222D01*
X170972729Y-95796552D01*
X171074186Y-95879814D01*
X171157448Y-95981271D01*
X171186778Y-96017009D01*
X171186779Y-96017011D01*
X171270443Y-96173533D01*
X171270443Y-96173534D01*
X171321963Y-96343373D01*
X171339359Y-96520000D01*
X171321963Y-96696627D01*
X171290529Y-96800250D01*
X171270443Y-96866467D01*
X171196348Y-97005087D01*
X171186778Y-97022991D01*
X171157448Y-97058729D01*
X171074186Y-97160186D01*
X170972729Y-97243448D01*
X170936991Y-97272778D01*
X170936989Y-97272779D01*
X170780467Y-97356443D01*
X170723853Y-97373616D01*
X170610627Y-97407963D01*
X170544442Y-97414482D01*
X170478260Y-97421000D01*
X170389740Y-97421000D01*
X170323558Y-97414482D01*
X170257373Y-97407963D01*
X170144147Y-97373616D01*
X170087533Y-97356443D01*
X169931011Y-97272779D01*
X169931009Y-97272778D01*
X169895271Y-97243448D01*
X169793814Y-97160186D01*
X169710552Y-97058729D01*
X169681222Y-97022991D01*
X169671652Y-97005087D01*
X169597557Y-96866467D01*
X169577471Y-96800250D01*
X169546037Y-96696627D01*
X169528641Y-96520000D01*
X169546037Y-96343373D01*
X169597557Y-96173534D01*
X169597557Y-96173533D01*
X169681221Y-96017011D01*
X169681222Y-96017009D01*
X169710552Y-95981271D01*
X169793814Y-95879814D01*
X169895271Y-95796552D01*
X169931009Y-95767222D01*
X169948913Y-95757652D01*
X170087533Y-95683557D01*
X170153653Y-95663500D01*
X170257373Y-95632037D01*
X170323558Y-95625518D01*
X170389740Y-95619000D01*
X170478260Y-95619000D01*
X170544442Y-95625518D01*
X170544442Y-95625518D01*
G37*
G36*
X153837000Y-96591000D02*
X152995000Y-96591000D01*
X152995000Y-94089000D01*
X153837000Y-94089000D01*
X153837000Y-96591000D01*
X153837000Y-96591000D01*
G37*
G36*
X152567000Y-96591000D02*
X151725000Y-96591000D01*
X151725000Y-94089000D01*
X152567000Y-94089000D01*
X152567000Y-96591000D01*
X152567000Y-96591000D01*
G37*
G36*
X148757000Y-96591000D02*
X147915000Y-96591000D01*
X147915000Y-94089000D01*
X148757000Y-94089000D01*
X148757000Y-96591000D01*
X148757000Y-96591000D01*
G37*
G36*
X150027000Y-96591000D02*
X149185000Y-96591000D01*
X149185000Y-94089000D01*
X150027000Y-94089000D01*
X150027000Y-96591000D01*
X150027000Y-96591000D01*
G37*
G36*
X151297000Y-96591000D02*
X150455000Y-96591000D01*
X150455000Y-94089000D01*
X151297000Y-94089000D01*
X151297000Y-96591000D01*
X151297000Y-96591000D01*
G37*
G36*
X157555341Y-93204792D02*
X157555343Y-93204793D01*
X157555344Y-93204793D01*
X157641970Y-93240674D01*
X157641971Y-93240675D01*
X157719935Y-93292769D01*
X157786231Y-93359065D01*
X157786233Y-93359068D01*
X157838326Y-93437030D01*
X157854886Y-93477011D01*
X157857920Y-93484335D01*
X157869471Y-93505946D01*
X157885017Y-93524888D01*
X157903959Y-93540434D01*
X157925569Y-93551985D01*
X157949019Y-93559098D01*
X157973405Y-93561500D01*
X160859595Y-93561500D01*
X160883981Y-93559098D01*
X160907430Y-93551985D01*
X160929041Y-93540434D01*
X160947983Y-93524888D01*
X160963529Y-93505946D01*
X160975080Y-93484335D01*
X160978114Y-93477011D01*
X160994674Y-93437030D01*
X161046767Y-93359068D01*
X161046769Y-93359065D01*
X161113065Y-93292769D01*
X161191029Y-93240675D01*
X161191030Y-93240674D01*
X161277656Y-93204793D01*
X161277657Y-93204793D01*
X161277659Y-93204792D01*
X161369617Y-93186500D01*
X161463383Y-93186500D01*
X161555341Y-93204792D01*
X161555343Y-93204793D01*
X161555344Y-93204793D01*
X161641970Y-93240674D01*
X161641971Y-93240675D01*
X161719935Y-93292769D01*
X161786231Y-93359065D01*
X161786233Y-93359068D01*
X161838326Y-93437030D01*
X161854886Y-93477011D01*
X161874208Y-93523659D01*
X161881257Y-93559098D01*
X161892500Y-93615618D01*
X161892500Y-93709382D01*
X161874207Y-93801344D01*
X161838326Y-93887970D01*
X161838325Y-93887971D01*
X161786231Y-93965935D01*
X161719935Y-94032231D01*
X161719932Y-94032233D01*
X161641970Y-94084326D01*
X161555344Y-94120207D01*
X161555343Y-94120207D01*
X161555341Y-94120208D01*
X161463383Y-94138500D01*
X161369617Y-94138500D01*
X161277659Y-94120208D01*
X161277657Y-94120207D01*
X161277656Y-94120207D01*
X161191030Y-94084326D01*
X161191029Y-94084326D01*
X161191028Y-94084325D01*
X161161947Y-94064893D01*
X161140336Y-94053341D01*
X161116887Y-94046228D01*
X161092500Y-94043826D01*
X161068114Y-94046228D01*
X161044665Y-94053341D01*
X161023054Y-94064892D01*
X161004112Y-94080437D01*
X160988567Y-94099379D01*
X160977015Y-94120990D01*
X160969902Y-94144439D01*
X160967500Y-94168826D01*
X160967500Y-95663500D01*
X157865500Y-95663500D01*
X157865500Y-94168826D01*
X157863098Y-94144440D01*
X157855985Y-94120991D01*
X157844434Y-94099380D01*
X157828888Y-94080438D01*
X157809946Y-94064892D01*
X157788335Y-94053341D01*
X157764886Y-94046228D01*
X157740500Y-94043826D01*
X157716114Y-94046228D01*
X157692665Y-94053341D01*
X157671053Y-94064893D01*
X157641972Y-94084325D01*
X157641971Y-94084326D01*
X157641970Y-94084326D01*
X157555344Y-94120207D01*
X157555343Y-94120207D01*
X157555341Y-94120208D01*
X157463383Y-94138500D01*
X157369617Y-94138500D01*
X157277659Y-94120208D01*
X157277657Y-94120207D01*
X157277656Y-94120207D01*
X157191030Y-94084326D01*
X157113068Y-94032233D01*
X157113065Y-94032231D01*
X157046769Y-93965935D01*
X156994675Y-93887971D01*
X156994674Y-93887970D01*
X156958793Y-93801344D01*
X156940500Y-93709382D01*
X156940500Y-93615618D01*
X156951743Y-93559098D01*
X156958792Y-93523659D01*
X156978114Y-93477011D01*
X156994674Y-93437030D01*
X157046767Y-93359068D01*
X157046769Y-93359065D01*
X157113065Y-93292769D01*
X157191029Y-93240675D01*
X157191030Y-93240674D01*
X157277656Y-93204793D01*
X157277657Y-93204793D01*
X157277659Y-93204792D01*
X157369617Y-93186500D01*
X157463383Y-93186500D01*
X157555341Y-93204792D01*
X157555341Y-93204792D01*
G37*
G36*
X145144443Y-93085519D02*
X145210627Y-93092037D01*
X145323853Y-93126384D01*
X145380467Y-93143557D01*
X145495028Y-93204792D01*
X145536991Y-93227222D01*
X145553382Y-93240674D01*
X145674186Y-93339814D01*
X145753967Y-93437029D01*
X145786778Y-93477009D01*
X145786779Y-93477011D01*
X145870443Y-93633533D01*
X145870443Y-93633534D01*
X145921963Y-93803373D01*
X145939359Y-93980000D01*
X145921963Y-94156627D01*
X145918262Y-94168826D01*
X145870443Y-94326467D01*
X145796348Y-94465087D01*
X145786778Y-94482991D01*
X145757448Y-94518729D01*
X145674186Y-94620186D01*
X145572729Y-94703448D01*
X145536991Y-94732778D01*
X145536989Y-94732779D01*
X145380467Y-94816443D01*
X145323853Y-94833616D01*
X145210627Y-94867963D01*
X145144443Y-94874481D01*
X145078260Y-94881000D01*
X144989740Y-94881000D01*
X144923557Y-94874481D01*
X144857373Y-94867963D01*
X144744147Y-94833616D01*
X144687533Y-94816443D01*
X144531011Y-94732779D01*
X144531009Y-94732778D01*
X144495271Y-94703448D01*
X144393814Y-94620186D01*
X144310552Y-94518729D01*
X144281222Y-94482991D01*
X144271652Y-94465087D01*
X144197557Y-94326467D01*
X144149738Y-94168826D01*
X144146037Y-94156627D01*
X144128641Y-93980000D01*
X144146037Y-93803373D01*
X144197557Y-93633534D01*
X144197557Y-93633533D01*
X144281221Y-93477011D01*
X144281222Y-93477009D01*
X144314033Y-93437029D01*
X144393814Y-93339814D01*
X144514618Y-93240674D01*
X144531009Y-93227222D01*
X144572972Y-93204792D01*
X144687533Y-93143557D01*
X144744147Y-93126384D01*
X144857373Y-93092037D01*
X144923557Y-93085519D01*
X144989740Y-93079000D01*
X145078260Y-93079000D01*
X145144443Y-93085519D01*
X145144443Y-93085519D01*
G37*
G36*
X170544443Y-93085519D02*
X170610627Y-93092037D01*
X170723853Y-93126384D01*
X170780467Y-93143557D01*
X170895028Y-93204792D01*
X170936991Y-93227222D01*
X170953382Y-93240674D01*
X171074186Y-93339814D01*
X171153967Y-93437029D01*
X171186778Y-93477009D01*
X171186779Y-93477011D01*
X171270443Y-93633533D01*
X171270443Y-93633534D01*
X171321963Y-93803373D01*
X171339359Y-93980000D01*
X171321963Y-94156627D01*
X171318262Y-94168826D01*
X171270443Y-94326467D01*
X171196348Y-94465087D01*
X171186778Y-94482991D01*
X171157448Y-94518729D01*
X171074186Y-94620186D01*
X170972729Y-94703448D01*
X170936991Y-94732778D01*
X170936989Y-94732779D01*
X170780467Y-94816443D01*
X170723853Y-94833616D01*
X170610627Y-94867963D01*
X170544443Y-94874481D01*
X170478260Y-94881000D01*
X170389740Y-94881000D01*
X170323557Y-94874481D01*
X170257373Y-94867963D01*
X170144147Y-94833616D01*
X170087533Y-94816443D01*
X169931011Y-94732779D01*
X169931009Y-94732778D01*
X169895271Y-94703448D01*
X169793814Y-94620186D01*
X169710552Y-94518729D01*
X169681222Y-94482991D01*
X169671652Y-94465087D01*
X169597557Y-94326467D01*
X169549738Y-94168826D01*
X169546037Y-94156627D01*
X169528641Y-93980000D01*
X169546037Y-93803373D01*
X169597557Y-93633534D01*
X169597557Y-93633533D01*
X169681221Y-93477011D01*
X169681222Y-93477009D01*
X169714033Y-93437029D01*
X169793814Y-93339814D01*
X169914618Y-93240674D01*
X169931009Y-93227222D01*
X169972972Y-93204792D01*
X170087533Y-93143557D01*
X170144147Y-93126384D01*
X170257373Y-93092037D01*
X170323557Y-93085519D01*
X170389740Y-93079000D01*
X170478260Y-93079000D01*
X170544443Y-93085519D01*
X170544443Y-93085519D01*
G37*
G36*
X153837000Y-92691000D02*
X152995000Y-92691000D01*
X152995000Y-90189000D01*
X153837000Y-90189000D01*
X153837000Y-92691000D01*
X153837000Y-92691000D01*
G37*
G36*
X148757000Y-92691000D02*
X147915000Y-92691000D01*
X147915000Y-90189000D01*
X148757000Y-90189000D01*
X148757000Y-92691000D01*
X148757000Y-92691000D01*
G37*
G36*
X150027000Y-92691000D02*
X149185000Y-92691000D01*
X149185000Y-90189000D01*
X150027000Y-90189000D01*
X150027000Y-92691000D01*
X150027000Y-92691000D01*
G37*
G36*
X151297000Y-92691000D02*
X150455000Y-92691000D01*
X150455000Y-90189000D01*
X151297000Y-90189000D01*
X151297000Y-92691000D01*
X151297000Y-92691000D01*
G37*
G36*
X152567000Y-92691000D02*
X151725000Y-92691000D01*
X151725000Y-90189000D01*
X152567000Y-90189000D01*
X152567000Y-92691000D01*
X152567000Y-92691000D01*
G37*
G36*
X163967500Y-92513500D02*
X162465500Y-92513500D01*
X162465500Y-90511500D01*
X163967500Y-90511500D01*
X163967500Y-92513500D01*
X163967500Y-92513500D01*
G37*
G36*
X156367500Y-92513500D02*
X154865500Y-92513500D01*
X154865500Y-90511500D01*
X156367500Y-90511500D01*
X156367500Y-92513500D01*
X156367500Y-92513500D01*
G37*
G36*
X171335000Y-92341000D02*
X169533000Y-92341000D01*
X169533000Y-90539000D01*
X171335000Y-90539000D01*
X171335000Y-92341000D01*
X171335000Y-92341000D01*
G37*
G36*
X145144443Y-90545519D02*
X145210627Y-90552037D01*
X145323853Y-90586384D01*
X145380467Y-90603557D01*
X145519087Y-90677652D01*
X145536991Y-90687222D01*
X145572729Y-90716552D01*
X145674186Y-90799814D01*
X145757448Y-90901271D01*
X145786778Y-90937009D01*
X145786779Y-90937011D01*
X145870443Y-91093533D01*
X145870443Y-91093534D01*
X145921963Y-91263373D01*
X145939359Y-91440000D01*
X145921963Y-91616627D01*
X145887616Y-91729853D01*
X145870443Y-91786467D01*
X145796348Y-91925087D01*
X145786778Y-91942991D01*
X145757448Y-91978729D01*
X145674186Y-92080186D01*
X145572729Y-92163448D01*
X145536991Y-92192778D01*
X145536989Y-92192779D01*
X145380467Y-92276443D01*
X145323853Y-92293616D01*
X145210627Y-92327963D01*
X145144443Y-92334481D01*
X145078260Y-92341000D01*
X144989740Y-92341000D01*
X144923557Y-92334481D01*
X144857373Y-92327963D01*
X144744147Y-92293616D01*
X144687533Y-92276443D01*
X144531011Y-92192779D01*
X144531009Y-92192778D01*
X144495271Y-92163448D01*
X144393814Y-92080186D01*
X144310552Y-91978729D01*
X144281222Y-91942991D01*
X144271652Y-91925087D01*
X144197557Y-91786467D01*
X144180384Y-91729853D01*
X144146037Y-91616627D01*
X144128641Y-91440000D01*
X144146037Y-91263373D01*
X144197557Y-91093534D01*
X144197557Y-91093533D01*
X144281221Y-90937011D01*
X144281222Y-90937009D01*
X144310552Y-90901271D01*
X144393814Y-90799814D01*
X144495271Y-90716552D01*
X144531009Y-90687222D01*
X144548913Y-90677652D01*
X144687533Y-90603557D01*
X144744147Y-90586384D01*
X144857373Y-90552037D01*
X144923557Y-90545519D01*
X144989740Y-90539000D01*
X145078260Y-90539000D01*
X145144443Y-90545519D01*
X145144443Y-90545519D01*
G37*
M02*
