M48
;DRILL file {KiCad (5.0.1)-rc2} date 5/10/2019 5:24:38 PM
;FORMAT={-:-/ absolute / inch / decimal}
FMAT,2
INCH,TZ
T1C0.0157
T2C0.0394
%
G90
G05
M72
T1
X5.785Y-3.7
X5.8125Y-3.835
X5.8192Y-4.28
X5.8306Y-4.3954
X5.865Y-3.9325
X5.9084Y-4.3138
X5.9575Y-3.94
X5.965Y-3.8325
X6.1375Y-3.6975
X6.1875Y-4.2175
X6.2225Y-3.86
X6.2269Y-4.2175
X6.26Y-3.98
X6.28Y-3.64
X6.32Y-3.98
X6.36Y-3.99
X6.4123Y-3.8727
X6.43Y-3.76
X6.4384Y-3.93
X6.47Y-3.77
X6.505Y-4.29
X6.5175Y-3.615
X6.5975Y-4.2825
X6.6425Y-4.415
T2
X6.Y-4.405
X6.1Y-4.405
X6.2Y-4.405
X6.3Y-4.405
X6.4Y-4.405
X6.5Y-4.405
X6.71Y-3.6
X6.71Y-3.7
X6.71Y-3.8
X6.71Y-3.9
X6.71Y-4.
X6.71Y-4.1
X6.71Y-4.2
X6.71Y-4.3
X5.71Y-3.6
X5.71Y-3.7
X5.71Y-3.8
X5.71Y-3.9
X5.71Y-4.
X5.71Y-4.1
X5.71Y-4.2
X5.71Y-4.3
T0
M30
