G04 #@! TF.GenerationSoftware,KiCad,Pcbnew,(5.0.1)-rc2*
G04 #@! TF.CreationDate,2019-05-10T17:24:36-07:00*
G04 #@! TF.ProjectId,SAMD21E,53414D443231452E6B696361645F7063,rev?*
G04 #@! TF.SameCoordinates,Original*
G04 #@! TF.FileFunction,Paste,Bot*
G04 #@! TF.FilePolarity,Positive*
%FSLAX46Y46*%
G04 Gerber Fmt 4.6, Leading zero omitted, Abs format (unit mm)*
G04 Created by KiCad (PCBNEW (5.0.1)-rc2) date 5/10/2019 5:24:36 PM*
%MOMM*%
%LPD*%
G01*
G04 APERTURE LIST*
%ADD10C,0.100000*%
%ADD11C,0.975000*%
%ADD12C,0.875000*%
%ADD13R,1.060000X0.650000*%
G04 APERTURE END LIST*
D10*
G04 #@! TO.C,C3*
G36*
X159271642Y-101917174D02*
X159295303Y-101920684D01*
X159318507Y-101926496D01*
X159341029Y-101934554D01*
X159362653Y-101944782D01*
X159383170Y-101957079D01*
X159402383Y-101971329D01*
X159420107Y-101987393D01*
X159436171Y-102005117D01*
X159450421Y-102024330D01*
X159462718Y-102044847D01*
X159472946Y-102066471D01*
X159481004Y-102088993D01*
X159486816Y-102112197D01*
X159490326Y-102135858D01*
X159491500Y-102159750D01*
X159491500Y-103072250D01*
X159490326Y-103096142D01*
X159486816Y-103119803D01*
X159481004Y-103143007D01*
X159472946Y-103165529D01*
X159462718Y-103187153D01*
X159450421Y-103207670D01*
X159436171Y-103226883D01*
X159420107Y-103244607D01*
X159402383Y-103260671D01*
X159383170Y-103274921D01*
X159362653Y-103287218D01*
X159341029Y-103297446D01*
X159318507Y-103305504D01*
X159295303Y-103311316D01*
X159271642Y-103314826D01*
X159247750Y-103316000D01*
X158760250Y-103316000D01*
X158736358Y-103314826D01*
X158712697Y-103311316D01*
X158689493Y-103305504D01*
X158666971Y-103297446D01*
X158645347Y-103287218D01*
X158624830Y-103274921D01*
X158605617Y-103260671D01*
X158587893Y-103244607D01*
X158571829Y-103226883D01*
X158557579Y-103207670D01*
X158545282Y-103187153D01*
X158535054Y-103165529D01*
X158526996Y-103143007D01*
X158521184Y-103119803D01*
X158517674Y-103096142D01*
X158516500Y-103072250D01*
X158516500Y-102159750D01*
X158517674Y-102135858D01*
X158521184Y-102112197D01*
X158526996Y-102088993D01*
X158535054Y-102066471D01*
X158545282Y-102044847D01*
X158557579Y-102024330D01*
X158571829Y-102005117D01*
X158587893Y-101987393D01*
X158605617Y-101971329D01*
X158624830Y-101957079D01*
X158645347Y-101944782D01*
X158666971Y-101934554D01*
X158689493Y-101926496D01*
X158712697Y-101920684D01*
X158736358Y-101917174D01*
X158760250Y-101916000D01*
X159247750Y-101916000D01*
X159271642Y-101917174D01*
X159271642Y-101917174D01*
G37*
D11*
X159004000Y-102616000D03*
D10*
G36*
X161146642Y-101917174D02*
X161170303Y-101920684D01*
X161193507Y-101926496D01*
X161216029Y-101934554D01*
X161237653Y-101944782D01*
X161258170Y-101957079D01*
X161277383Y-101971329D01*
X161295107Y-101987393D01*
X161311171Y-102005117D01*
X161325421Y-102024330D01*
X161337718Y-102044847D01*
X161347946Y-102066471D01*
X161356004Y-102088993D01*
X161361816Y-102112197D01*
X161365326Y-102135858D01*
X161366500Y-102159750D01*
X161366500Y-103072250D01*
X161365326Y-103096142D01*
X161361816Y-103119803D01*
X161356004Y-103143007D01*
X161347946Y-103165529D01*
X161337718Y-103187153D01*
X161325421Y-103207670D01*
X161311171Y-103226883D01*
X161295107Y-103244607D01*
X161277383Y-103260671D01*
X161258170Y-103274921D01*
X161237653Y-103287218D01*
X161216029Y-103297446D01*
X161193507Y-103305504D01*
X161170303Y-103311316D01*
X161146642Y-103314826D01*
X161122750Y-103316000D01*
X160635250Y-103316000D01*
X160611358Y-103314826D01*
X160587697Y-103311316D01*
X160564493Y-103305504D01*
X160541971Y-103297446D01*
X160520347Y-103287218D01*
X160499830Y-103274921D01*
X160480617Y-103260671D01*
X160462893Y-103244607D01*
X160446829Y-103226883D01*
X160432579Y-103207670D01*
X160420282Y-103187153D01*
X160410054Y-103165529D01*
X160401996Y-103143007D01*
X160396184Y-103119803D01*
X160392674Y-103096142D01*
X160391500Y-103072250D01*
X160391500Y-102159750D01*
X160392674Y-102135858D01*
X160396184Y-102112197D01*
X160401996Y-102088993D01*
X160410054Y-102066471D01*
X160420282Y-102044847D01*
X160432579Y-102024330D01*
X160446829Y-102005117D01*
X160462893Y-101987393D01*
X160480617Y-101971329D01*
X160499830Y-101957079D01*
X160520347Y-101944782D01*
X160541971Y-101934554D01*
X160564493Y-101926496D01*
X160587697Y-101920684D01*
X160611358Y-101917174D01*
X160635250Y-101916000D01*
X161122750Y-101916000D01*
X161146642Y-101917174D01*
X161146642Y-101917174D01*
G37*
D11*
X160879000Y-102616000D03*
G04 #@! TD*
D10*
G04 #@! TO.C,C4*
G36*
X155540142Y-101917174D02*
X155563803Y-101920684D01*
X155587007Y-101926496D01*
X155609529Y-101934554D01*
X155631153Y-101944782D01*
X155651670Y-101957079D01*
X155670883Y-101971329D01*
X155688607Y-101987393D01*
X155704671Y-102005117D01*
X155718921Y-102024330D01*
X155731218Y-102044847D01*
X155741446Y-102066471D01*
X155749504Y-102088993D01*
X155755316Y-102112197D01*
X155758826Y-102135858D01*
X155760000Y-102159750D01*
X155760000Y-103072250D01*
X155758826Y-103096142D01*
X155755316Y-103119803D01*
X155749504Y-103143007D01*
X155741446Y-103165529D01*
X155731218Y-103187153D01*
X155718921Y-103207670D01*
X155704671Y-103226883D01*
X155688607Y-103244607D01*
X155670883Y-103260671D01*
X155651670Y-103274921D01*
X155631153Y-103287218D01*
X155609529Y-103297446D01*
X155587007Y-103305504D01*
X155563803Y-103311316D01*
X155540142Y-103314826D01*
X155516250Y-103316000D01*
X155028750Y-103316000D01*
X155004858Y-103314826D01*
X154981197Y-103311316D01*
X154957993Y-103305504D01*
X154935471Y-103297446D01*
X154913847Y-103287218D01*
X154893330Y-103274921D01*
X154874117Y-103260671D01*
X154856393Y-103244607D01*
X154840329Y-103226883D01*
X154826079Y-103207670D01*
X154813782Y-103187153D01*
X154803554Y-103165529D01*
X154795496Y-103143007D01*
X154789684Y-103119803D01*
X154786174Y-103096142D01*
X154785000Y-103072250D01*
X154785000Y-102159750D01*
X154786174Y-102135858D01*
X154789684Y-102112197D01*
X154795496Y-102088993D01*
X154803554Y-102066471D01*
X154813782Y-102044847D01*
X154826079Y-102024330D01*
X154840329Y-102005117D01*
X154856393Y-101987393D01*
X154874117Y-101971329D01*
X154893330Y-101957079D01*
X154913847Y-101944782D01*
X154935471Y-101934554D01*
X154957993Y-101926496D01*
X154981197Y-101920684D01*
X155004858Y-101917174D01*
X155028750Y-101916000D01*
X155516250Y-101916000D01*
X155540142Y-101917174D01*
X155540142Y-101917174D01*
G37*
D11*
X155272500Y-102616000D03*
D10*
G36*
X157415142Y-101917174D02*
X157438803Y-101920684D01*
X157462007Y-101926496D01*
X157484529Y-101934554D01*
X157506153Y-101944782D01*
X157526670Y-101957079D01*
X157545883Y-101971329D01*
X157563607Y-101987393D01*
X157579671Y-102005117D01*
X157593921Y-102024330D01*
X157606218Y-102044847D01*
X157616446Y-102066471D01*
X157624504Y-102088993D01*
X157630316Y-102112197D01*
X157633826Y-102135858D01*
X157635000Y-102159750D01*
X157635000Y-103072250D01*
X157633826Y-103096142D01*
X157630316Y-103119803D01*
X157624504Y-103143007D01*
X157616446Y-103165529D01*
X157606218Y-103187153D01*
X157593921Y-103207670D01*
X157579671Y-103226883D01*
X157563607Y-103244607D01*
X157545883Y-103260671D01*
X157526670Y-103274921D01*
X157506153Y-103287218D01*
X157484529Y-103297446D01*
X157462007Y-103305504D01*
X157438803Y-103311316D01*
X157415142Y-103314826D01*
X157391250Y-103316000D01*
X156903750Y-103316000D01*
X156879858Y-103314826D01*
X156856197Y-103311316D01*
X156832993Y-103305504D01*
X156810471Y-103297446D01*
X156788847Y-103287218D01*
X156768330Y-103274921D01*
X156749117Y-103260671D01*
X156731393Y-103244607D01*
X156715329Y-103226883D01*
X156701079Y-103207670D01*
X156688782Y-103187153D01*
X156678554Y-103165529D01*
X156670496Y-103143007D01*
X156664684Y-103119803D01*
X156661174Y-103096142D01*
X156660000Y-103072250D01*
X156660000Y-102159750D01*
X156661174Y-102135858D01*
X156664684Y-102112197D01*
X156670496Y-102088993D01*
X156678554Y-102066471D01*
X156688782Y-102044847D01*
X156701079Y-102024330D01*
X156715329Y-102005117D01*
X156731393Y-101987393D01*
X156749117Y-101971329D01*
X156768330Y-101957079D01*
X156788847Y-101944782D01*
X156810471Y-101934554D01*
X156832993Y-101926496D01*
X156856197Y-101920684D01*
X156879858Y-101917174D01*
X156903750Y-101916000D01*
X157391250Y-101916000D01*
X157415142Y-101917174D01*
X157415142Y-101917174D01*
G37*
D11*
X157147500Y-102616000D03*
G04 #@! TD*
D10*
G04 #@! TO.C,C5*
G36*
X156741691Y-96591553D02*
X156762926Y-96594703D01*
X156783750Y-96599919D01*
X156803962Y-96607151D01*
X156823368Y-96616330D01*
X156841781Y-96627366D01*
X156859024Y-96640154D01*
X156874930Y-96654570D01*
X156889346Y-96670476D01*
X156902134Y-96687719D01*
X156913170Y-96706132D01*
X156922349Y-96725538D01*
X156929581Y-96745750D01*
X156934797Y-96766574D01*
X156937947Y-96787809D01*
X156939000Y-96809250D01*
X156939000Y-97246750D01*
X156937947Y-97268191D01*
X156934797Y-97289426D01*
X156929581Y-97310250D01*
X156922349Y-97330462D01*
X156913170Y-97349868D01*
X156902134Y-97368281D01*
X156889346Y-97385524D01*
X156874930Y-97401430D01*
X156859024Y-97415846D01*
X156841781Y-97428634D01*
X156823368Y-97439670D01*
X156803962Y-97448849D01*
X156783750Y-97456081D01*
X156762926Y-97461297D01*
X156741691Y-97464447D01*
X156720250Y-97465500D01*
X156207750Y-97465500D01*
X156186309Y-97464447D01*
X156165074Y-97461297D01*
X156144250Y-97456081D01*
X156124038Y-97448849D01*
X156104632Y-97439670D01*
X156086219Y-97428634D01*
X156068976Y-97415846D01*
X156053070Y-97401430D01*
X156038654Y-97385524D01*
X156025866Y-97368281D01*
X156014830Y-97349868D01*
X156005651Y-97330462D01*
X155998419Y-97310250D01*
X155993203Y-97289426D01*
X155990053Y-97268191D01*
X155989000Y-97246750D01*
X155989000Y-96809250D01*
X155990053Y-96787809D01*
X155993203Y-96766574D01*
X155998419Y-96745750D01*
X156005651Y-96725538D01*
X156014830Y-96706132D01*
X156025866Y-96687719D01*
X156038654Y-96670476D01*
X156053070Y-96654570D01*
X156068976Y-96640154D01*
X156086219Y-96627366D01*
X156104632Y-96616330D01*
X156124038Y-96607151D01*
X156144250Y-96599919D01*
X156165074Y-96594703D01*
X156186309Y-96591553D01*
X156207750Y-96590500D01*
X156720250Y-96590500D01*
X156741691Y-96591553D01*
X156741691Y-96591553D01*
G37*
D12*
X156464000Y-97028000D03*
D10*
G36*
X156741691Y-98166553D02*
X156762926Y-98169703D01*
X156783750Y-98174919D01*
X156803962Y-98182151D01*
X156823368Y-98191330D01*
X156841781Y-98202366D01*
X156859024Y-98215154D01*
X156874930Y-98229570D01*
X156889346Y-98245476D01*
X156902134Y-98262719D01*
X156913170Y-98281132D01*
X156922349Y-98300538D01*
X156929581Y-98320750D01*
X156934797Y-98341574D01*
X156937947Y-98362809D01*
X156939000Y-98384250D01*
X156939000Y-98821750D01*
X156937947Y-98843191D01*
X156934797Y-98864426D01*
X156929581Y-98885250D01*
X156922349Y-98905462D01*
X156913170Y-98924868D01*
X156902134Y-98943281D01*
X156889346Y-98960524D01*
X156874930Y-98976430D01*
X156859024Y-98990846D01*
X156841781Y-99003634D01*
X156823368Y-99014670D01*
X156803962Y-99023849D01*
X156783750Y-99031081D01*
X156762926Y-99036297D01*
X156741691Y-99039447D01*
X156720250Y-99040500D01*
X156207750Y-99040500D01*
X156186309Y-99039447D01*
X156165074Y-99036297D01*
X156144250Y-99031081D01*
X156124038Y-99023849D01*
X156104632Y-99014670D01*
X156086219Y-99003634D01*
X156068976Y-98990846D01*
X156053070Y-98976430D01*
X156038654Y-98960524D01*
X156025866Y-98943281D01*
X156014830Y-98924868D01*
X156005651Y-98905462D01*
X155998419Y-98885250D01*
X155993203Y-98864426D01*
X155990053Y-98843191D01*
X155989000Y-98821750D01*
X155989000Y-98384250D01*
X155990053Y-98362809D01*
X155993203Y-98341574D01*
X155998419Y-98320750D01*
X156005651Y-98300538D01*
X156014830Y-98281132D01*
X156025866Y-98262719D01*
X156038654Y-98245476D01*
X156053070Y-98229570D01*
X156068976Y-98215154D01*
X156086219Y-98202366D01*
X156104632Y-98191330D01*
X156124038Y-98182151D01*
X156144250Y-98174919D01*
X156165074Y-98169703D01*
X156186309Y-98166553D01*
X156207750Y-98165500D01*
X156720250Y-98165500D01*
X156741691Y-98166553D01*
X156741691Y-98166553D01*
G37*
D12*
X156464000Y-98603000D03*
G04 #@! TD*
D10*
G04 #@! TO.C,C6*
G36*
X161460642Y-104965174D02*
X161484303Y-104968684D01*
X161507507Y-104974496D01*
X161530029Y-104982554D01*
X161551653Y-104992782D01*
X161572170Y-105005079D01*
X161591383Y-105019329D01*
X161609107Y-105035393D01*
X161625171Y-105053117D01*
X161639421Y-105072330D01*
X161651718Y-105092847D01*
X161661946Y-105114471D01*
X161670004Y-105136993D01*
X161675816Y-105160197D01*
X161679326Y-105183858D01*
X161680500Y-105207750D01*
X161680500Y-106120250D01*
X161679326Y-106144142D01*
X161675816Y-106167803D01*
X161670004Y-106191007D01*
X161661946Y-106213529D01*
X161651718Y-106235153D01*
X161639421Y-106255670D01*
X161625171Y-106274883D01*
X161609107Y-106292607D01*
X161591383Y-106308671D01*
X161572170Y-106322921D01*
X161551653Y-106335218D01*
X161530029Y-106345446D01*
X161507507Y-106353504D01*
X161484303Y-106359316D01*
X161460642Y-106362826D01*
X161436750Y-106364000D01*
X160949250Y-106364000D01*
X160925358Y-106362826D01*
X160901697Y-106359316D01*
X160878493Y-106353504D01*
X160855971Y-106345446D01*
X160834347Y-106335218D01*
X160813830Y-106322921D01*
X160794617Y-106308671D01*
X160776893Y-106292607D01*
X160760829Y-106274883D01*
X160746579Y-106255670D01*
X160734282Y-106235153D01*
X160724054Y-106213529D01*
X160715996Y-106191007D01*
X160710184Y-106167803D01*
X160706674Y-106144142D01*
X160705500Y-106120250D01*
X160705500Y-105207750D01*
X160706674Y-105183858D01*
X160710184Y-105160197D01*
X160715996Y-105136993D01*
X160724054Y-105114471D01*
X160734282Y-105092847D01*
X160746579Y-105072330D01*
X160760829Y-105053117D01*
X160776893Y-105035393D01*
X160794617Y-105019329D01*
X160813830Y-105005079D01*
X160834347Y-104992782D01*
X160855971Y-104982554D01*
X160878493Y-104974496D01*
X160901697Y-104968684D01*
X160925358Y-104965174D01*
X160949250Y-104964000D01*
X161436750Y-104964000D01*
X161460642Y-104965174D01*
X161460642Y-104965174D01*
G37*
D11*
X161193000Y-105664000D03*
D10*
G36*
X163335642Y-104965174D02*
X163359303Y-104968684D01*
X163382507Y-104974496D01*
X163405029Y-104982554D01*
X163426653Y-104992782D01*
X163447170Y-105005079D01*
X163466383Y-105019329D01*
X163484107Y-105035393D01*
X163500171Y-105053117D01*
X163514421Y-105072330D01*
X163526718Y-105092847D01*
X163536946Y-105114471D01*
X163545004Y-105136993D01*
X163550816Y-105160197D01*
X163554326Y-105183858D01*
X163555500Y-105207750D01*
X163555500Y-106120250D01*
X163554326Y-106144142D01*
X163550816Y-106167803D01*
X163545004Y-106191007D01*
X163536946Y-106213529D01*
X163526718Y-106235153D01*
X163514421Y-106255670D01*
X163500171Y-106274883D01*
X163484107Y-106292607D01*
X163466383Y-106308671D01*
X163447170Y-106322921D01*
X163426653Y-106335218D01*
X163405029Y-106345446D01*
X163382507Y-106353504D01*
X163359303Y-106359316D01*
X163335642Y-106362826D01*
X163311750Y-106364000D01*
X162824250Y-106364000D01*
X162800358Y-106362826D01*
X162776697Y-106359316D01*
X162753493Y-106353504D01*
X162730971Y-106345446D01*
X162709347Y-106335218D01*
X162688830Y-106322921D01*
X162669617Y-106308671D01*
X162651893Y-106292607D01*
X162635829Y-106274883D01*
X162621579Y-106255670D01*
X162609282Y-106235153D01*
X162599054Y-106213529D01*
X162590996Y-106191007D01*
X162585184Y-106167803D01*
X162581674Y-106144142D01*
X162580500Y-106120250D01*
X162580500Y-105207750D01*
X162581674Y-105183858D01*
X162585184Y-105160197D01*
X162590996Y-105136993D01*
X162599054Y-105114471D01*
X162609282Y-105092847D01*
X162621579Y-105072330D01*
X162635829Y-105053117D01*
X162651893Y-105035393D01*
X162669617Y-105019329D01*
X162688830Y-105005079D01*
X162709347Y-104992782D01*
X162730971Y-104982554D01*
X162753493Y-104974496D01*
X162776697Y-104968684D01*
X162800358Y-104965174D01*
X162824250Y-104964000D01*
X163311750Y-104964000D01*
X163335642Y-104965174D01*
X163335642Y-104965174D01*
G37*
D11*
X163068000Y-105664000D03*
G04 #@! TD*
D10*
G04 #@! TO.C,C7*
G36*
X154191642Y-108013174D02*
X154215303Y-108016684D01*
X154238507Y-108022496D01*
X154261029Y-108030554D01*
X154282653Y-108040782D01*
X154303170Y-108053079D01*
X154322383Y-108067329D01*
X154340107Y-108083393D01*
X154356171Y-108101117D01*
X154370421Y-108120330D01*
X154382718Y-108140847D01*
X154392946Y-108162471D01*
X154401004Y-108184993D01*
X154406816Y-108208197D01*
X154410326Y-108231858D01*
X154411500Y-108255750D01*
X154411500Y-109168250D01*
X154410326Y-109192142D01*
X154406816Y-109215803D01*
X154401004Y-109239007D01*
X154392946Y-109261529D01*
X154382718Y-109283153D01*
X154370421Y-109303670D01*
X154356171Y-109322883D01*
X154340107Y-109340607D01*
X154322383Y-109356671D01*
X154303170Y-109370921D01*
X154282653Y-109383218D01*
X154261029Y-109393446D01*
X154238507Y-109401504D01*
X154215303Y-109407316D01*
X154191642Y-109410826D01*
X154167750Y-109412000D01*
X153680250Y-109412000D01*
X153656358Y-109410826D01*
X153632697Y-109407316D01*
X153609493Y-109401504D01*
X153586971Y-109393446D01*
X153565347Y-109383218D01*
X153544830Y-109370921D01*
X153525617Y-109356671D01*
X153507893Y-109340607D01*
X153491829Y-109322883D01*
X153477579Y-109303670D01*
X153465282Y-109283153D01*
X153455054Y-109261529D01*
X153446996Y-109239007D01*
X153441184Y-109215803D01*
X153437674Y-109192142D01*
X153436500Y-109168250D01*
X153436500Y-108255750D01*
X153437674Y-108231858D01*
X153441184Y-108208197D01*
X153446996Y-108184993D01*
X153455054Y-108162471D01*
X153465282Y-108140847D01*
X153477579Y-108120330D01*
X153491829Y-108101117D01*
X153507893Y-108083393D01*
X153525617Y-108067329D01*
X153544830Y-108053079D01*
X153565347Y-108040782D01*
X153586971Y-108030554D01*
X153609493Y-108022496D01*
X153632697Y-108016684D01*
X153656358Y-108013174D01*
X153680250Y-108012000D01*
X154167750Y-108012000D01*
X154191642Y-108013174D01*
X154191642Y-108013174D01*
G37*
D11*
X153924000Y-108712000D03*
D10*
G36*
X156066642Y-108013174D02*
X156090303Y-108016684D01*
X156113507Y-108022496D01*
X156136029Y-108030554D01*
X156157653Y-108040782D01*
X156178170Y-108053079D01*
X156197383Y-108067329D01*
X156215107Y-108083393D01*
X156231171Y-108101117D01*
X156245421Y-108120330D01*
X156257718Y-108140847D01*
X156267946Y-108162471D01*
X156276004Y-108184993D01*
X156281816Y-108208197D01*
X156285326Y-108231858D01*
X156286500Y-108255750D01*
X156286500Y-109168250D01*
X156285326Y-109192142D01*
X156281816Y-109215803D01*
X156276004Y-109239007D01*
X156267946Y-109261529D01*
X156257718Y-109283153D01*
X156245421Y-109303670D01*
X156231171Y-109322883D01*
X156215107Y-109340607D01*
X156197383Y-109356671D01*
X156178170Y-109370921D01*
X156157653Y-109383218D01*
X156136029Y-109393446D01*
X156113507Y-109401504D01*
X156090303Y-109407316D01*
X156066642Y-109410826D01*
X156042750Y-109412000D01*
X155555250Y-109412000D01*
X155531358Y-109410826D01*
X155507697Y-109407316D01*
X155484493Y-109401504D01*
X155461971Y-109393446D01*
X155440347Y-109383218D01*
X155419830Y-109370921D01*
X155400617Y-109356671D01*
X155382893Y-109340607D01*
X155366829Y-109322883D01*
X155352579Y-109303670D01*
X155340282Y-109283153D01*
X155330054Y-109261529D01*
X155321996Y-109239007D01*
X155316184Y-109215803D01*
X155312674Y-109192142D01*
X155311500Y-109168250D01*
X155311500Y-108255750D01*
X155312674Y-108231858D01*
X155316184Y-108208197D01*
X155321996Y-108184993D01*
X155330054Y-108162471D01*
X155340282Y-108140847D01*
X155352579Y-108120330D01*
X155366829Y-108101117D01*
X155382893Y-108083393D01*
X155400617Y-108067329D01*
X155419830Y-108053079D01*
X155440347Y-108040782D01*
X155461971Y-108030554D01*
X155484493Y-108022496D01*
X155507697Y-108016684D01*
X155531358Y-108013174D01*
X155555250Y-108012000D01*
X156042750Y-108012000D01*
X156066642Y-108013174D01*
X156066642Y-108013174D01*
G37*
D11*
X155799000Y-108712000D03*
G04 #@! TD*
D10*
G04 #@! TO.C,C9*
G36*
X164361691Y-96540553D02*
X164382926Y-96543703D01*
X164403750Y-96548919D01*
X164423962Y-96556151D01*
X164443368Y-96565330D01*
X164461781Y-96576366D01*
X164479024Y-96589154D01*
X164494930Y-96603570D01*
X164509346Y-96619476D01*
X164522134Y-96636719D01*
X164533170Y-96655132D01*
X164542349Y-96674538D01*
X164549581Y-96694750D01*
X164554797Y-96715574D01*
X164557947Y-96736809D01*
X164559000Y-96758250D01*
X164559000Y-97195750D01*
X164557947Y-97217191D01*
X164554797Y-97238426D01*
X164549581Y-97259250D01*
X164542349Y-97279462D01*
X164533170Y-97298868D01*
X164522134Y-97317281D01*
X164509346Y-97334524D01*
X164494930Y-97350430D01*
X164479024Y-97364846D01*
X164461781Y-97377634D01*
X164443368Y-97388670D01*
X164423962Y-97397849D01*
X164403750Y-97405081D01*
X164382926Y-97410297D01*
X164361691Y-97413447D01*
X164340250Y-97414500D01*
X163827750Y-97414500D01*
X163806309Y-97413447D01*
X163785074Y-97410297D01*
X163764250Y-97405081D01*
X163744038Y-97397849D01*
X163724632Y-97388670D01*
X163706219Y-97377634D01*
X163688976Y-97364846D01*
X163673070Y-97350430D01*
X163658654Y-97334524D01*
X163645866Y-97317281D01*
X163634830Y-97298868D01*
X163625651Y-97279462D01*
X163618419Y-97259250D01*
X163613203Y-97238426D01*
X163610053Y-97217191D01*
X163609000Y-97195750D01*
X163609000Y-96758250D01*
X163610053Y-96736809D01*
X163613203Y-96715574D01*
X163618419Y-96694750D01*
X163625651Y-96674538D01*
X163634830Y-96655132D01*
X163645866Y-96636719D01*
X163658654Y-96619476D01*
X163673070Y-96603570D01*
X163688976Y-96589154D01*
X163706219Y-96576366D01*
X163724632Y-96565330D01*
X163744038Y-96556151D01*
X163764250Y-96548919D01*
X163785074Y-96543703D01*
X163806309Y-96540553D01*
X163827750Y-96539500D01*
X164340250Y-96539500D01*
X164361691Y-96540553D01*
X164361691Y-96540553D01*
G37*
D12*
X164084000Y-96977000D03*
D10*
G36*
X164361691Y-98115553D02*
X164382926Y-98118703D01*
X164403750Y-98123919D01*
X164423962Y-98131151D01*
X164443368Y-98140330D01*
X164461781Y-98151366D01*
X164479024Y-98164154D01*
X164494930Y-98178570D01*
X164509346Y-98194476D01*
X164522134Y-98211719D01*
X164533170Y-98230132D01*
X164542349Y-98249538D01*
X164549581Y-98269750D01*
X164554797Y-98290574D01*
X164557947Y-98311809D01*
X164559000Y-98333250D01*
X164559000Y-98770750D01*
X164557947Y-98792191D01*
X164554797Y-98813426D01*
X164549581Y-98834250D01*
X164542349Y-98854462D01*
X164533170Y-98873868D01*
X164522134Y-98892281D01*
X164509346Y-98909524D01*
X164494930Y-98925430D01*
X164479024Y-98939846D01*
X164461781Y-98952634D01*
X164443368Y-98963670D01*
X164423962Y-98972849D01*
X164403750Y-98980081D01*
X164382926Y-98985297D01*
X164361691Y-98988447D01*
X164340250Y-98989500D01*
X163827750Y-98989500D01*
X163806309Y-98988447D01*
X163785074Y-98985297D01*
X163764250Y-98980081D01*
X163744038Y-98972849D01*
X163724632Y-98963670D01*
X163706219Y-98952634D01*
X163688976Y-98939846D01*
X163673070Y-98925430D01*
X163658654Y-98909524D01*
X163645866Y-98892281D01*
X163634830Y-98873868D01*
X163625651Y-98854462D01*
X163618419Y-98834250D01*
X163613203Y-98813426D01*
X163610053Y-98792191D01*
X163609000Y-98770750D01*
X163609000Y-98333250D01*
X163610053Y-98311809D01*
X163613203Y-98290574D01*
X163618419Y-98269750D01*
X163625651Y-98249538D01*
X163634830Y-98230132D01*
X163645866Y-98211719D01*
X163658654Y-98194476D01*
X163673070Y-98178570D01*
X163688976Y-98164154D01*
X163706219Y-98151366D01*
X163724632Y-98140330D01*
X163744038Y-98131151D01*
X163764250Y-98123919D01*
X163785074Y-98118703D01*
X163806309Y-98115553D01*
X163827750Y-98114500D01*
X164340250Y-98114500D01*
X164361691Y-98115553D01*
X164361691Y-98115553D01*
G37*
D12*
X164084000Y-98552000D03*
G04 #@! TD*
D10*
G04 #@! TO.C,C10*
G36*
X166189742Y-94555874D02*
X166213403Y-94559384D01*
X166236607Y-94565196D01*
X166259129Y-94573254D01*
X166280753Y-94583482D01*
X166301270Y-94595779D01*
X166320483Y-94610029D01*
X166338207Y-94626093D01*
X166354271Y-94643817D01*
X166368521Y-94663030D01*
X166380818Y-94683547D01*
X166391046Y-94705171D01*
X166399104Y-94727693D01*
X166404916Y-94750897D01*
X166408426Y-94774558D01*
X166409600Y-94798450D01*
X166409600Y-95285950D01*
X166408426Y-95309842D01*
X166404916Y-95333503D01*
X166399104Y-95356707D01*
X166391046Y-95379229D01*
X166380818Y-95400853D01*
X166368521Y-95421370D01*
X166354271Y-95440583D01*
X166338207Y-95458307D01*
X166320483Y-95474371D01*
X166301270Y-95488621D01*
X166280753Y-95500918D01*
X166259129Y-95511146D01*
X166236607Y-95519204D01*
X166213403Y-95525016D01*
X166189742Y-95528526D01*
X166165850Y-95529700D01*
X165253350Y-95529700D01*
X165229458Y-95528526D01*
X165205797Y-95525016D01*
X165182593Y-95519204D01*
X165160071Y-95511146D01*
X165138447Y-95500918D01*
X165117930Y-95488621D01*
X165098717Y-95474371D01*
X165080993Y-95458307D01*
X165064929Y-95440583D01*
X165050679Y-95421370D01*
X165038382Y-95400853D01*
X165028154Y-95379229D01*
X165020096Y-95356707D01*
X165014284Y-95333503D01*
X165010774Y-95309842D01*
X165009600Y-95285950D01*
X165009600Y-94798450D01*
X165010774Y-94774558D01*
X165014284Y-94750897D01*
X165020096Y-94727693D01*
X165028154Y-94705171D01*
X165038382Y-94683547D01*
X165050679Y-94663030D01*
X165064929Y-94643817D01*
X165080993Y-94626093D01*
X165098717Y-94610029D01*
X165117930Y-94595779D01*
X165138447Y-94583482D01*
X165160071Y-94573254D01*
X165182593Y-94565196D01*
X165205797Y-94559384D01*
X165229458Y-94555874D01*
X165253350Y-94554700D01*
X166165850Y-94554700D01*
X166189742Y-94555874D01*
X166189742Y-94555874D01*
G37*
D11*
X165709600Y-95042200D03*
D10*
G36*
X166189742Y-92680874D02*
X166213403Y-92684384D01*
X166236607Y-92690196D01*
X166259129Y-92698254D01*
X166280753Y-92708482D01*
X166301270Y-92720779D01*
X166320483Y-92735029D01*
X166338207Y-92751093D01*
X166354271Y-92768817D01*
X166368521Y-92788030D01*
X166380818Y-92808547D01*
X166391046Y-92830171D01*
X166399104Y-92852693D01*
X166404916Y-92875897D01*
X166408426Y-92899558D01*
X166409600Y-92923450D01*
X166409600Y-93410950D01*
X166408426Y-93434842D01*
X166404916Y-93458503D01*
X166399104Y-93481707D01*
X166391046Y-93504229D01*
X166380818Y-93525853D01*
X166368521Y-93546370D01*
X166354271Y-93565583D01*
X166338207Y-93583307D01*
X166320483Y-93599371D01*
X166301270Y-93613621D01*
X166280753Y-93625918D01*
X166259129Y-93636146D01*
X166236607Y-93644204D01*
X166213403Y-93650016D01*
X166189742Y-93653526D01*
X166165850Y-93654700D01*
X165253350Y-93654700D01*
X165229458Y-93653526D01*
X165205797Y-93650016D01*
X165182593Y-93644204D01*
X165160071Y-93636146D01*
X165138447Y-93625918D01*
X165117930Y-93613621D01*
X165098717Y-93599371D01*
X165080993Y-93583307D01*
X165064929Y-93565583D01*
X165050679Y-93546370D01*
X165038382Y-93525853D01*
X165028154Y-93504229D01*
X165020096Y-93481707D01*
X165014284Y-93458503D01*
X165010774Y-93434842D01*
X165009600Y-93410950D01*
X165009600Y-92923450D01*
X165010774Y-92899558D01*
X165014284Y-92875897D01*
X165020096Y-92852693D01*
X165028154Y-92830171D01*
X165038382Y-92808547D01*
X165050679Y-92788030D01*
X165064929Y-92768817D01*
X165080993Y-92751093D01*
X165098717Y-92735029D01*
X165117930Y-92720779D01*
X165138447Y-92708482D01*
X165160071Y-92698254D01*
X165182593Y-92690196D01*
X165205797Y-92684384D01*
X165229458Y-92680874D01*
X165253350Y-92679700D01*
X166165850Y-92679700D01*
X166189742Y-92680874D01*
X166189742Y-92680874D01*
G37*
D11*
X165709600Y-93167200D03*
G04 #@! TD*
D10*
G04 #@! TO.C,L1*
G36*
X157318142Y-104965174D02*
X157341803Y-104968684D01*
X157365007Y-104974496D01*
X157387529Y-104982554D01*
X157409153Y-104992782D01*
X157429670Y-105005079D01*
X157448883Y-105019329D01*
X157466607Y-105035393D01*
X157482671Y-105053117D01*
X157496921Y-105072330D01*
X157509218Y-105092847D01*
X157519446Y-105114471D01*
X157527504Y-105136993D01*
X157533316Y-105160197D01*
X157536826Y-105183858D01*
X157538000Y-105207750D01*
X157538000Y-106120250D01*
X157536826Y-106144142D01*
X157533316Y-106167803D01*
X157527504Y-106191007D01*
X157519446Y-106213529D01*
X157509218Y-106235153D01*
X157496921Y-106255670D01*
X157482671Y-106274883D01*
X157466607Y-106292607D01*
X157448883Y-106308671D01*
X157429670Y-106322921D01*
X157409153Y-106335218D01*
X157387529Y-106345446D01*
X157365007Y-106353504D01*
X157341803Y-106359316D01*
X157318142Y-106362826D01*
X157294250Y-106364000D01*
X156806750Y-106364000D01*
X156782858Y-106362826D01*
X156759197Y-106359316D01*
X156735993Y-106353504D01*
X156713471Y-106345446D01*
X156691847Y-106335218D01*
X156671330Y-106322921D01*
X156652117Y-106308671D01*
X156634393Y-106292607D01*
X156618329Y-106274883D01*
X156604079Y-106255670D01*
X156591782Y-106235153D01*
X156581554Y-106213529D01*
X156573496Y-106191007D01*
X156567684Y-106167803D01*
X156564174Y-106144142D01*
X156563000Y-106120250D01*
X156563000Y-105207750D01*
X156564174Y-105183858D01*
X156567684Y-105160197D01*
X156573496Y-105136993D01*
X156581554Y-105114471D01*
X156591782Y-105092847D01*
X156604079Y-105072330D01*
X156618329Y-105053117D01*
X156634393Y-105035393D01*
X156652117Y-105019329D01*
X156671330Y-105005079D01*
X156691847Y-104992782D01*
X156713471Y-104982554D01*
X156735993Y-104974496D01*
X156759197Y-104968684D01*
X156782858Y-104965174D01*
X156806750Y-104964000D01*
X157294250Y-104964000D01*
X157318142Y-104965174D01*
X157318142Y-104965174D01*
G37*
D11*
X157050500Y-105664000D03*
D10*
G36*
X159193142Y-104965174D02*
X159216803Y-104968684D01*
X159240007Y-104974496D01*
X159262529Y-104982554D01*
X159284153Y-104992782D01*
X159304670Y-105005079D01*
X159323883Y-105019329D01*
X159341607Y-105035393D01*
X159357671Y-105053117D01*
X159371921Y-105072330D01*
X159384218Y-105092847D01*
X159394446Y-105114471D01*
X159402504Y-105136993D01*
X159408316Y-105160197D01*
X159411826Y-105183858D01*
X159413000Y-105207750D01*
X159413000Y-106120250D01*
X159411826Y-106144142D01*
X159408316Y-106167803D01*
X159402504Y-106191007D01*
X159394446Y-106213529D01*
X159384218Y-106235153D01*
X159371921Y-106255670D01*
X159357671Y-106274883D01*
X159341607Y-106292607D01*
X159323883Y-106308671D01*
X159304670Y-106322921D01*
X159284153Y-106335218D01*
X159262529Y-106345446D01*
X159240007Y-106353504D01*
X159216803Y-106359316D01*
X159193142Y-106362826D01*
X159169250Y-106364000D01*
X158681750Y-106364000D01*
X158657858Y-106362826D01*
X158634197Y-106359316D01*
X158610993Y-106353504D01*
X158588471Y-106345446D01*
X158566847Y-106335218D01*
X158546330Y-106322921D01*
X158527117Y-106308671D01*
X158509393Y-106292607D01*
X158493329Y-106274883D01*
X158479079Y-106255670D01*
X158466782Y-106235153D01*
X158456554Y-106213529D01*
X158448496Y-106191007D01*
X158442684Y-106167803D01*
X158439174Y-106144142D01*
X158438000Y-106120250D01*
X158438000Y-105207750D01*
X158439174Y-105183858D01*
X158442684Y-105160197D01*
X158448496Y-105136993D01*
X158456554Y-105114471D01*
X158466782Y-105092847D01*
X158479079Y-105072330D01*
X158493329Y-105053117D01*
X158509393Y-105035393D01*
X158527117Y-105019329D01*
X158546330Y-105005079D01*
X158566847Y-104992782D01*
X158588471Y-104982554D01*
X158610993Y-104974496D01*
X158634197Y-104968684D01*
X158657858Y-104965174D01*
X158681750Y-104964000D01*
X159169250Y-104964000D01*
X159193142Y-104965174D01*
X159193142Y-104965174D01*
G37*
D11*
X158925500Y-105664000D03*
G04 #@! TD*
D10*
G04 #@! TO.C,R1*
G36*
X152970191Y-97125553D02*
X152991426Y-97128703D01*
X153012250Y-97133919D01*
X153032462Y-97141151D01*
X153051868Y-97150330D01*
X153070281Y-97161366D01*
X153087524Y-97174154D01*
X153103430Y-97188570D01*
X153117846Y-97204476D01*
X153130634Y-97221719D01*
X153141670Y-97240132D01*
X153150849Y-97259538D01*
X153158081Y-97279750D01*
X153163297Y-97300574D01*
X153166447Y-97321809D01*
X153167500Y-97343250D01*
X153167500Y-97855750D01*
X153166447Y-97877191D01*
X153163297Y-97898426D01*
X153158081Y-97919250D01*
X153150849Y-97939462D01*
X153141670Y-97958868D01*
X153130634Y-97977281D01*
X153117846Y-97994524D01*
X153103430Y-98010430D01*
X153087524Y-98024846D01*
X153070281Y-98037634D01*
X153051868Y-98048670D01*
X153032462Y-98057849D01*
X153012250Y-98065081D01*
X152991426Y-98070297D01*
X152970191Y-98073447D01*
X152948750Y-98074500D01*
X152511250Y-98074500D01*
X152489809Y-98073447D01*
X152468574Y-98070297D01*
X152447750Y-98065081D01*
X152427538Y-98057849D01*
X152408132Y-98048670D01*
X152389719Y-98037634D01*
X152372476Y-98024846D01*
X152356570Y-98010430D01*
X152342154Y-97994524D01*
X152329366Y-97977281D01*
X152318330Y-97958868D01*
X152309151Y-97939462D01*
X152301919Y-97919250D01*
X152296703Y-97898426D01*
X152293553Y-97877191D01*
X152292500Y-97855750D01*
X152292500Y-97343250D01*
X152293553Y-97321809D01*
X152296703Y-97300574D01*
X152301919Y-97279750D01*
X152309151Y-97259538D01*
X152318330Y-97240132D01*
X152329366Y-97221719D01*
X152342154Y-97204476D01*
X152356570Y-97188570D01*
X152372476Y-97174154D01*
X152389719Y-97161366D01*
X152408132Y-97150330D01*
X152427538Y-97141151D01*
X152447750Y-97133919D01*
X152468574Y-97128703D01*
X152489809Y-97125553D01*
X152511250Y-97124500D01*
X152948750Y-97124500D01*
X152970191Y-97125553D01*
X152970191Y-97125553D01*
G37*
D12*
X152730000Y-97599500D03*
D10*
G36*
X154545191Y-97125553D02*
X154566426Y-97128703D01*
X154587250Y-97133919D01*
X154607462Y-97141151D01*
X154626868Y-97150330D01*
X154645281Y-97161366D01*
X154662524Y-97174154D01*
X154678430Y-97188570D01*
X154692846Y-97204476D01*
X154705634Y-97221719D01*
X154716670Y-97240132D01*
X154725849Y-97259538D01*
X154733081Y-97279750D01*
X154738297Y-97300574D01*
X154741447Y-97321809D01*
X154742500Y-97343250D01*
X154742500Y-97855750D01*
X154741447Y-97877191D01*
X154738297Y-97898426D01*
X154733081Y-97919250D01*
X154725849Y-97939462D01*
X154716670Y-97958868D01*
X154705634Y-97977281D01*
X154692846Y-97994524D01*
X154678430Y-98010430D01*
X154662524Y-98024846D01*
X154645281Y-98037634D01*
X154626868Y-98048670D01*
X154607462Y-98057849D01*
X154587250Y-98065081D01*
X154566426Y-98070297D01*
X154545191Y-98073447D01*
X154523750Y-98074500D01*
X154086250Y-98074500D01*
X154064809Y-98073447D01*
X154043574Y-98070297D01*
X154022750Y-98065081D01*
X154002538Y-98057849D01*
X153983132Y-98048670D01*
X153964719Y-98037634D01*
X153947476Y-98024846D01*
X153931570Y-98010430D01*
X153917154Y-97994524D01*
X153904366Y-97977281D01*
X153893330Y-97958868D01*
X153884151Y-97939462D01*
X153876919Y-97919250D01*
X153871703Y-97898426D01*
X153868553Y-97877191D01*
X153867500Y-97855750D01*
X153867500Y-97343250D01*
X153868553Y-97321809D01*
X153871703Y-97300574D01*
X153876919Y-97279750D01*
X153884151Y-97259538D01*
X153893330Y-97240132D01*
X153904366Y-97221719D01*
X153917154Y-97204476D01*
X153931570Y-97188570D01*
X153947476Y-97174154D01*
X153964719Y-97161366D01*
X153983132Y-97150330D01*
X154002538Y-97141151D01*
X154022750Y-97133919D01*
X154043574Y-97128703D01*
X154064809Y-97125553D01*
X154086250Y-97124500D01*
X154523750Y-97124500D01*
X154545191Y-97125553D01*
X154545191Y-97125553D01*
G37*
D12*
X154305000Y-97599500D03*
G04 #@! TD*
D13*
G04 #@! TO.C,U2*
X159428000Y-98994000D03*
X159428000Y-98044000D03*
X159428000Y-97094000D03*
X161628000Y-97094000D03*
X161628000Y-98994000D03*
G04 #@! TD*
M02*
