G04 #@! TF.GenerationSoftware,KiCad,Pcbnew,(5.0.1)-rc2*
G04 #@! TF.CreationDate,2019-01-10T23:34:48-07:00*
G04 #@! TF.ProjectId,GPSLogger,4750534C6F676765722E6B696361645F,rev?*
G04 #@! TF.SameCoordinates,Original*
G04 #@! TF.FileFunction,Legend,Top*
G04 #@! TF.FilePolarity,Positive*
%FSLAX46Y46*%
G04 Gerber Fmt 4.6, Leading zero omitted, Abs format (unit mm)*
G04 Created by KiCad (PCBNEW (5.0.1)-rc2) date 1/10/2019 11:34:48 PM*
%MOMM*%
%LPD*%
G01*
G04 APERTURE LIST*
%ADD10C,0.250000*%
%ADD11C,0.120000*%
%ADD12C,0.150000*%
%ADD13C,0.203200*%
%ADD14C,0.127000*%
G04 APERTURE END LIST*
D10*
X157154761Y-77547619D02*
X157202380Y-77404761D01*
X157202380Y-77166666D01*
X157154761Y-77071428D01*
X157107142Y-77023809D01*
X157011904Y-76976190D01*
X156916666Y-76976190D01*
X156821428Y-77023809D01*
X156773809Y-77071428D01*
X156726190Y-77166666D01*
X156678571Y-77357142D01*
X156630952Y-77452380D01*
X156583333Y-77500000D01*
X156488095Y-77547619D01*
X156392857Y-77547619D01*
X156297619Y-77500000D01*
X156250000Y-77452380D01*
X156202380Y-77357142D01*
X156202380Y-77119047D01*
X156250000Y-76976190D01*
X157154761Y-76119047D02*
X157202380Y-76214285D01*
X157202380Y-76404761D01*
X157154761Y-76500000D01*
X157107142Y-76547619D01*
X157011904Y-76595238D01*
X156726190Y-76595238D01*
X156630952Y-76547619D01*
X156583333Y-76500000D01*
X156535714Y-76404761D01*
X156535714Y-76214285D01*
X156583333Y-76119047D01*
X157202380Y-75547619D02*
X157154761Y-75642857D01*
X157107142Y-75690476D01*
X157011904Y-75738095D01*
X156726190Y-75738095D01*
X156630952Y-75690476D01*
X156583333Y-75642857D01*
X156535714Y-75547619D01*
X156535714Y-75404761D01*
X156583333Y-75309523D01*
X156630952Y-75261904D01*
X156726190Y-75214285D01*
X157011904Y-75214285D01*
X157107142Y-75261904D01*
X157154761Y-75309523D01*
X157202380Y-75404761D01*
X157202380Y-75547619D01*
X156535714Y-74928571D02*
X156535714Y-74547619D01*
X156202380Y-74785714D02*
X157059523Y-74785714D01*
X157154761Y-74738095D01*
X157202380Y-74642857D01*
X157202380Y-74547619D01*
X156535714Y-74357142D02*
X156535714Y-73976190D01*
X156202380Y-74214285D02*
X157059523Y-74214285D01*
X157154761Y-74166666D01*
X157202380Y-74071428D01*
X157202380Y-73976190D01*
X156202380Y-73595238D02*
X156392857Y-73690476D01*
X157154761Y-73214285D02*
X157202380Y-73119047D01*
X157202380Y-72928571D01*
X157154761Y-72833333D01*
X157059523Y-72785714D01*
X157011904Y-72785714D01*
X156916666Y-72833333D01*
X156869047Y-72928571D01*
X156869047Y-73071428D01*
X156821428Y-73166666D01*
X156726190Y-73214285D01*
X156678571Y-73214285D01*
X156583333Y-73166666D01*
X156535714Y-73071428D01*
X156535714Y-72928571D01*
X156583333Y-72833333D01*
X157107142Y-71023809D02*
X157154761Y-71071428D01*
X157202380Y-71214285D01*
X157202380Y-71309523D01*
X157154761Y-71452380D01*
X157059523Y-71547619D01*
X156964285Y-71595238D01*
X156773809Y-71642857D01*
X156630952Y-71642857D01*
X156440476Y-71595238D01*
X156345238Y-71547619D01*
X156250000Y-71452380D01*
X156202380Y-71309523D01*
X156202380Y-71214285D01*
X156250000Y-71071428D01*
X156297619Y-71023809D01*
X157202380Y-70595238D02*
X156535714Y-70595238D01*
X156726190Y-70595238D02*
X156630952Y-70547619D01*
X156583333Y-70500000D01*
X156535714Y-70404761D01*
X156535714Y-70309523D01*
X157154761Y-69595238D02*
X157202380Y-69690476D01*
X157202380Y-69880952D01*
X157154761Y-69976190D01*
X157059523Y-70023809D01*
X156678571Y-70023809D01*
X156583333Y-69976190D01*
X156535714Y-69880952D01*
X156535714Y-69690476D01*
X156583333Y-69595238D01*
X156678571Y-69547619D01*
X156773809Y-69547619D01*
X156869047Y-70023809D01*
X157202380Y-68690476D02*
X156678571Y-68690476D01*
X156583333Y-68738095D01*
X156535714Y-68833333D01*
X156535714Y-69023809D01*
X156583333Y-69119047D01*
X157154761Y-68690476D02*
X157202380Y-68785714D01*
X157202380Y-69023809D01*
X157154761Y-69119047D01*
X157059523Y-69166666D01*
X156964285Y-69166666D01*
X156869047Y-69119047D01*
X156821428Y-69023809D01*
X156821428Y-68785714D01*
X156773809Y-68690476D01*
X156535714Y-68357142D02*
X156535714Y-67976190D01*
X156202380Y-68214285D02*
X157059523Y-68214285D01*
X157154761Y-68166666D01*
X157202380Y-68071428D01*
X157202380Y-67976190D01*
X157202380Y-67642857D02*
X156535714Y-67642857D01*
X156202380Y-67642857D02*
X156250000Y-67690476D01*
X156297619Y-67642857D01*
X156250000Y-67595238D01*
X156202380Y-67642857D01*
X156297619Y-67642857D01*
X156535714Y-67261904D02*
X157202380Y-67023809D01*
X156535714Y-66785714D01*
X157154761Y-66023809D02*
X157202380Y-66119047D01*
X157202380Y-66309523D01*
X157154761Y-66404761D01*
X157059523Y-66452380D01*
X156678571Y-66452380D01*
X156583333Y-66404761D01*
X156535714Y-66309523D01*
X156535714Y-66119047D01*
X156583333Y-66023809D01*
X156678571Y-65976190D01*
X156773809Y-65976190D01*
X156869047Y-66452380D01*
X157202380Y-64785714D02*
X156202380Y-64785714D01*
X156202380Y-64547619D01*
X156250000Y-64404761D01*
X156345238Y-64309523D01*
X156440476Y-64261904D01*
X156630952Y-64214285D01*
X156773809Y-64214285D01*
X156964285Y-64261904D01*
X157059523Y-64309523D01*
X157154761Y-64404761D01*
X157202380Y-64547619D01*
X157202380Y-64785714D01*
X157154761Y-63404761D02*
X157202380Y-63500000D01*
X157202380Y-63690476D01*
X157154761Y-63785714D01*
X157059523Y-63833333D01*
X156678571Y-63833333D01*
X156583333Y-63785714D01*
X156535714Y-63690476D01*
X156535714Y-63500000D01*
X156583333Y-63404761D01*
X156678571Y-63357142D01*
X156773809Y-63357142D01*
X156869047Y-63833333D01*
X157154761Y-62976190D02*
X157202380Y-62880952D01*
X157202380Y-62690476D01*
X157154761Y-62595238D01*
X157059523Y-62547619D01*
X157011904Y-62547619D01*
X156916666Y-62595238D01*
X156869047Y-62690476D01*
X156869047Y-62833333D01*
X156821428Y-62928571D01*
X156726190Y-62976190D01*
X156678571Y-62976190D01*
X156583333Y-62928571D01*
X156535714Y-62833333D01*
X156535714Y-62690476D01*
X156583333Y-62595238D01*
X157202380Y-62119047D02*
X156535714Y-62119047D01*
X156202380Y-62119047D02*
X156250000Y-62166666D01*
X156297619Y-62119047D01*
X156250000Y-62071428D01*
X156202380Y-62119047D01*
X156297619Y-62119047D01*
X156535714Y-61214285D02*
X157345238Y-61214285D01*
X157440476Y-61261904D01*
X157488095Y-61309523D01*
X157535714Y-61404761D01*
X157535714Y-61547619D01*
X157488095Y-61642857D01*
X157154761Y-61214285D02*
X157202380Y-61309523D01*
X157202380Y-61500000D01*
X157154761Y-61595238D01*
X157107142Y-61642857D01*
X157011904Y-61690476D01*
X156726190Y-61690476D01*
X156630952Y-61642857D01*
X156583333Y-61595238D01*
X156535714Y-61500000D01*
X156535714Y-61309523D01*
X156583333Y-61214285D01*
X156535714Y-60738095D02*
X157202380Y-60738095D01*
X156630952Y-60738095D02*
X156583333Y-60690476D01*
X156535714Y-60595238D01*
X156535714Y-60452380D01*
X156583333Y-60357142D01*
X156678571Y-60309523D01*
X157202380Y-60309523D01*
X157154761Y-59880952D02*
X157202380Y-59785714D01*
X157202380Y-59595238D01*
X157154761Y-59500000D01*
X157059523Y-59452380D01*
X157011904Y-59452380D01*
X156916666Y-59500000D01*
X156869047Y-59595238D01*
X156869047Y-59738095D01*
X156821428Y-59833333D01*
X156726190Y-59880952D01*
X156678571Y-59880952D01*
X156583333Y-59833333D01*
X156535714Y-59738095D01*
X156535714Y-59595238D01*
X156583333Y-59500000D01*
X158000000Y-73380952D02*
X157952380Y-73476190D01*
X157952380Y-73619047D01*
X158000000Y-73761904D01*
X158095238Y-73857142D01*
X158190476Y-73904761D01*
X158380952Y-73952380D01*
X158523809Y-73952380D01*
X158714285Y-73904761D01*
X158809523Y-73857142D01*
X158904761Y-73761904D01*
X158952380Y-73619047D01*
X158952380Y-73523809D01*
X158904761Y-73380952D01*
X158857142Y-73333333D01*
X158523809Y-73333333D01*
X158523809Y-73523809D01*
X158952380Y-72904761D02*
X157952380Y-72904761D01*
X157952380Y-72523809D01*
X158000000Y-72428571D01*
X158047619Y-72380952D01*
X158142857Y-72333333D01*
X158285714Y-72333333D01*
X158380952Y-72380952D01*
X158428571Y-72428571D01*
X158476190Y-72523809D01*
X158476190Y-72904761D01*
X158904761Y-71952380D02*
X158952380Y-71809523D01*
X158952380Y-71571428D01*
X158904761Y-71476190D01*
X158857142Y-71428571D01*
X158761904Y-71380952D01*
X158666666Y-71380952D01*
X158571428Y-71428571D01*
X158523809Y-71476190D01*
X158476190Y-71571428D01*
X158428571Y-71761904D01*
X158380952Y-71857142D01*
X158333333Y-71904761D01*
X158238095Y-71952380D01*
X158142857Y-71952380D01*
X158047619Y-71904761D01*
X158000000Y-71857142D01*
X157952380Y-71761904D01*
X157952380Y-71523809D01*
X158000000Y-71380952D01*
X158952380Y-69714285D02*
X158952380Y-70190476D01*
X157952380Y-70190476D01*
X158952380Y-69238095D02*
X158904761Y-69333333D01*
X158857142Y-69380952D01*
X158761904Y-69428571D01*
X158476190Y-69428571D01*
X158380952Y-69380952D01*
X158333333Y-69333333D01*
X158285714Y-69238095D01*
X158285714Y-69095238D01*
X158333333Y-69000000D01*
X158380952Y-68952380D01*
X158476190Y-68904761D01*
X158761904Y-68904761D01*
X158857142Y-68952380D01*
X158904761Y-69000000D01*
X158952380Y-69095238D01*
X158952380Y-69238095D01*
X158285714Y-68047619D02*
X159095238Y-68047619D01*
X159190476Y-68095238D01*
X159238095Y-68142857D01*
X159285714Y-68238095D01*
X159285714Y-68380952D01*
X159238095Y-68476190D01*
X158904761Y-68047619D02*
X158952380Y-68142857D01*
X158952380Y-68333333D01*
X158904761Y-68428571D01*
X158857142Y-68476190D01*
X158761904Y-68523809D01*
X158476190Y-68523809D01*
X158380952Y-68476190D01*
X158333333Y-68428571D01*
X158285714Y-68333333D01*
X158285714Y-68142857D01*
X158333333Y-68047619D01*
X158285714Y-67142857D02*
X159095238Y-67142857D01*
X159190476Y-67190476D01*
X159238095Y-67238095D01*
X159285714Y-67333333D01*
X159285714Y-67476190D01*
X159238095Y-67571428D01*
X158904761Y-67142857D02*
X158952380Y-67238095D01*
X158952380Y-67428571D01*
X158904761Y-67523809D01*
X158857142Y-67571428D01*
X158761904Y-67619047D01*
X158476190Y-67619047D01*
X158380952Y-67571428D01*
X158333333Y-67523809D01*
X158285714Y-67428571D01*
X158285714Y-67238095D01*
X158333333Y-67142857D01*
X158904761Y-66285714D02*
X158952380Y-66380952D01*
X158952380Y-66571428D01*
X158904761Y-66666666D01*
X158809523Y-66714285D01*
X158428571Y-66714285D01*
X158333333Y-66666666D01*
X158285714Y-66571428D01*
X158285714Y-66380952D01*
X158333333Y-66285714D01*
X158428571Y-66238095D01*
X158523809Y-66238095D01*
X158619047Y-66714285D01*
X158952380Y-65809523D02*
X158285714Y-65809523D01*
X158476190Y-65809523D02*
X158380952Y-65761904D01*
X158333333Y-65714285D01*
X158285714Y-65619047D01*
X158285714Y-65523809D01*
X157952380Y-64571428D02*
X158952380Y-64238095D01*
X157952380Y-63904761D01*
X157952380Y-63142857D02*
X157952380Y-63333333D01*
X158000000Y-63428571D01*
X158047619Y-63476190D01*
X158190476Y-63571428D01*
X158380952Y-63619047D01*
X158761904Y-63619047D01*
X158857142Y-63571428D01*
X158904761Y-63523809D01*
X158952380Y-63428571D01*
X158952380Y-63238095D01*
X158904761Y-63142857D01*
X158857142Y-63095238D01*
X158761904Y-63047619D01*
X158523809Y-63047619D01*
X158428571Y-63095238D01*
X158380952Y-63142857D01*
X158333333Y-63238095D01*
X158333333Y-63428571D01*
X158380952Y-63523809D01*
X158428571Y-63571428D01*
X158523809Y-63619047D01*
D11*
G04 #@! TO.C,D3*
X148066000Y-88956000D02*
X145381000Y-88956000D01*
X145381000Y-88956000D02*
X145381000Y-90876000D01*
X145381000Y-90876000D02*
X148066000Y-90876000D01*
D12*
G04 #@! TO.C,J8*
X139325000Y-82650000D02*
X139325000Y-79650000D01*
X133325000Y-82650000D02*
X139325000Y-82650000D01*
X133325000Y-79650000D02*
X133325000Y-82650000D01*
X139325000Y-79650000D02*
X133325000Y-79650000D01*
D11*
G04 #@! TO.C,C2*
X138200500Y-73001000D02*
X138200500Y-72001000D01*
X136500500Y-72001000D02*
X136500500Y-73001000D01*
D13*
G04 #@! TO.C,J1*
X139636500Y-29718000D02*
X139001500Y-29083000D01*
X139001500Y-29083000D02*
X139001500Y-27813000D01*
X139001500Y-27813000D02*
X139636500Y-27178000D01*
X140906500Y-27178000D02*
X141541500Y-27813000D01*
X141541500Y-27813000D02*
X141541500Y-29083000D01*
X141541500Y-29083000D02*
X140906500Y-29718000D01*
X139001500Y-34163000D02*
X139001500Y-32893000D01*
X139001500Y-32893000D02*
X139636500Y-32258000D01*
X140906500Y-32258000D02*
X141541500Y-32893000D01*
X139636500Y-32258000D02*
X139001500Y-31623000D01*
X139001500Y-31623000D02*
X139001500Y-30353000D01*
X139001500Y-30353000D02*
X139636500Y-29718000D01*
X140906500Y-29718000D02*
X141541500Y-30353000D01*
X141541500Y-30353000D02*
X141541500Y-31623000D01*
X141541500Y-31623000D02*
X140906500Y-32258000D01*
X139636500Y-34798000D02*
X140906500Y-34798000D01*
X139001500Y-34163000D02*
X139636500Y-34798000D01*
X140906500Y-34798000D02*
X141541500Y-34163000D01*
X141541500Y-32893000D02*
X141541500Y-34163000D01*
X139636500Y-27178000D02*
X140906500Y-27178000D01*
G04 #@! TO.C,J3*
X160401000Y-30734000D02*
X161671000Y-30734000D01*
X162306000Y-36449000D02*
X162306000Y-37719000D01*
X161671000Y-38354000D02*
X162306000Y-37719000D01*
X159766000Y-37719000D02*
X160401000Y-38354000D01*
X160401000Y-38354000D02*
X161671000Y-38354000D01*
X162306000Y-35179000D02*
X161671000Y-35814000D01*
X162306000Y-33909000D02*
X162306000Y-35179000D01*
X161671000Y-33274000D02*
X162306000Y-33909000D01*
X159766000Y-33909000D02*
X160401000Y-33274000D01*
X159766000Y-35179000D02*
X159766000Y-33909000D01*
X160401000Y-35814000D02*
X159766000Y-35179000D01*
X161671000Y-35814000D02*
X162306000Y-36449000D01*
X159766000Y-36449000D02*
X160401000Y-35814000D01*
X159766000Y-37719000D02*
X159766000Y-36449000D01*
X162306000Y-32639000D02*
X161671000Y-33274000D01*
X162306000Y-31369000D02*
X162306000Y-32639000D01*
X161671000Y-30734000D02*
X162306000Y-31369000D01*
X159766000Y-31369000D02*
X160401000Y-30734000D01*
X159766000Y-32639000D02*
X159766000Y-31369000D01*
X160401000Y-33274000D02*
X159766000Y-32639000D01*
G04 #@! TO.C,J4*
X152146000Y-50927000D02*
X152146000Y-49657000D01*
X152781000Y-49022000D02*
X152146000Y-49657000D01*
X154686000Y-49657000D02*
X154051000Y-49022000D01*
X152781000Y-51562000D02*
X152146000Y-50927000D01*
X154051000Y-51562000D02*
X152781000Y-51562000D01*
X154686000Y-50927000D02*
X154051000Y-51562000D01*
X154686000Y-49657000D02*
X154686000Y-50927000D01*
X152146000Y-33147000D02*
X152146000Y-31877000D01*
X152781000Y-31242000D02*
X152146000Y-31877000D01*
X154686000Y-31877000D02*
X154051000Y-31242000D01*
X154051000Y-31242000D02*
X152781000Y-31242000D01*
X152146000Y-34417000D02*
X152781000Y-33782000D01*
X152146000Y-35687000D02*
X152146000Y-34417000D01*
X152781000Y-36322000D02*
X152146000Y-35687000D01*
X154686000Y-35687000D02*
X154051000Y-36322000D01*
X154686000Y-34417000D02*
X154686000Y-35687000D01*
X154051000Y-33782000D02*
X154686000Y-34417000D01*
X152781000Y-33782000D02*
X152146000Y-33147000D01*
X154686000Y-33147000D02*
X154051000Y-33782000D01*
X154686000Y-31877000D02*
X154686000Y-33147000D01*
X152146000Y-40767000D02*
X152146000Y-39497000D01*
X152781000Y-38862000D02*
X152146000Y-39497000D01*
X154686000Y-39497000D02*
X154051000Y-38862000D01*
X152146000Y-36957000D02*
X152781000Y-36322000D01*
X152146000Y-38227000D02*
X152146000Y-36957000D01*
X152781000Y-38862000D02*
X152146000Y-38227000D01*
X154686000Y-38227000D02*
X154051000Y-38862000D01*
X154686000Y-36957000D02*
X154686000Y-38227000D01*
X154051000Y-36322000D02*
X154686000Y-36957000D01*
X152146000Y-42037000D02*
X152781000Y-41402000D01*
X152146000Y-43307000D02*
X152146000Y-42037000D01*
X152781000Y-43942000D02*
X152146000Y-43307000D01*
X154686000Y-43307000D02*
X154051000Y-43942000D01*
X154686000Y-42037000D02*
X154686000Y-43307000D01*
X154051000Y-41402000D02*
X154686000Y-42037000D01*
X152781000Y-41402000D02*
X152146000Y-40767000D01*
X154686000Y-40767000D02*
X154051000Y-41402000D01*
X154686000Y-39497000D02*
X154686000Y-40767000D01*
X152146000Y-48387000D02*
X152146000Y-47117000D01*
X152781000Y-46482000D02*
X152146000Y-47117000D01*
X154686000Y-47117000D02*
X154051000Y-46482000D01*
X152146000Y-44577000D02*
X152781000Y-43942000D01*
X152146000Y-45847000D02*
X152146000Y-44577000D01*
X152781000Y-46482000D02*
X152146000Y-45847000D01*
X154686000Y-45847000D02*
X154051000Y-46482000D01*
X154686000Y-44577000D02*
X154686000Y-45847000D01*
X154051000Y-43942000D02*
X154686000Y-44577000D01*
X152781000Y-49022000D02*
X152146000Y-48387000D01*
X154686000Y-48387000D02*
X154051000Y-49022000D01*
X154686000Y-47117000D02*
X154686000Y-48387000D01*
G04 #@! TO.C,J9*
X160909000Y-59182000D02*
X160274000Y-58547000D01*
X160274000Y-58547000D02*
X160274000Y-57277000D01*
X160274000Y-57277000D02*
X160909000Y-56642000D01*
X162179000Y-56642000D02*
X162814000Y-57277000D01*
X162814000Y-57277000D02*
X162814000Y-58547000D01*
X162814000Y-58547000D02*
X162179000Y-59182000D01*
X160274000Y-63627000D02*
X160274000Y-62357000D01*
X160274000Y-62357000D02*
X160909000Y-61722000D01*
X162179000Y-61722000D02*
X162814000Y-62357000D01*
X160909000Y-61722000D02*
X160274000Y-61087000D01*
X160274000Y-61087000D02*
X160274000Y-59817000D01*
X160274000Y-59817000D02*
X160909000Y-59182000D01*
X162179000Y-59182000D02*
X162814000Y-59817000D01*
X162814000Y-59817000D02*
X162814000Y-61087000D01*
X162814000Y-61087000D02*
X162179000Y-61722000D01*
X160909000Y-64262000D02*
X162179000Y-64262000D01*
X160274000Y-63627000D02*
X160909000Y-64262000D01*
X162179000Y-64262000D02*
X162814000Y-63627000D01*
X162814000Y-62357000D02*
X162814000Y-63627000D01*
X160909000Y-56642000D02*
X162179000Y-56642000D01*
G04 #@! TO.C,U4*
X136144000Y-35306000D02*
X136144000Y-36576000D01*
X136144000Y-36576000D02*
X135509000Y-37211000D01*
X134239000Y-37211000D02*
X133604000Y-36576000D01*
X135509000Y-32131000D02*
X136144000Y-32766000D01*
X136144000Y-32766000D02*
X136144000Y-34036000D01*
X136144000Y-34036000D02*
X135509000Y-34671000D01*
X134239000Y-34671000D02*
X133604000Y-34036000D01*
X133604000Y-34036000D02*
X133604000Y-32766000D01*
X133604000Y-32766000D02*
X134239000Y-32131000D01*
X136144000Y-35306000D02*
X135509000Y-34671000D01*
X134239000Y-34671000D02*
X133604000Y-35306000D01*
X133604000Y-36576000D02*
X133604000Y-35306000D01*
X136144000Y-27686000D02*
X136144000Y-28956000D01*
X136144000Y-28956000D02*
X135509000Y-29591000D01*
X134239000Y-29591000D02*
X133604000Y-28956000D01*
X135509000Y-29591000D02*
X136144000Y-30226000D01*
X136144000Y-30226000D02*
X136144000Y-31496000D01*
X136144000Y-31496000D02*
X135509000Y-32131000D01*
X134239000Y-32131000D02*
X133604000Y-31496000D01*
X133604000Y-31496000D02*
X133604000Y-30226000D01*
X133604000Y-30226000D02*
X134239000Y-29591000D01*
X135509000Y-27051000D02*
X134239000Y-27051000D01*
X136144000Y-27686000D02*
X135509000Y-27051000D01*
X134239000Y-27051000D02*
X133604000Y-27686000D01*
X133604000Y-28956000D02*
X133604000Y-27686000D01*
X135509000Y-37211000D02*
X134239000Y-37211000D01*
D12*
G04 #@! TO.C,U3*
X133350000Y-62484000D02*
X133350000Y-41484000D01*
X133350000Y-41402000D02*
X149606000Y-41402000D01*
X149606000Y-41484000D02*
X149606000Y-62484000D01*
X149550000Y-62484000D02*
X133350000Y-62484000D01*
G04 #@! TO.C,U5*
X153543000Y-71628000D02*
X154051000Y-71628000D01*
X153543000Y-72898000D02*
X153543000Y-71628000D01*
X154051000Y-72898000D02*
X153543000Y-72898000D01*
X154051000Y-69850000D02*
X154051000Y-74422000D01*
X148971000Y-69850000D02*
X154051000Y-69850000D01*
X148971000Y-74422000D02*
X148971000Y-69850000D01*
X154051000Y-74422000D02*
X148971000Y-74422000D01*
X153797000Y-70358000D02*
G75*
G03X153797000Y-70358000I-254000J0D01*
G01*
G04 #@! TO.C,U1*
X160528000Y-80996000D02*
X150928000Y-80996000D01*
X150928000Y-80996000D02*
X150928000Y-94996000D01*
X160528000Y-94996000D02*
X160528000Y-80996000D01*
X160528000Y-94996000D02*
X150928000Y-94996000D01*
D11*
G04 #@! TO.C,D1*
X148109000Y-91877000D02*
X145424000Y-91877000D01*
X145424000Y-91877000D02*
X145424000Y-93797000D01*
X145424000Y-93797000D02*
X148109000Y-93797000D01*
G04 #@! TO.C,D2*
X141377500Y-93960000D02*
X144062500Y-93960000D01*
X141377500Y-92040000D02*
X141377500Y-93960000D01*
X144062500Y-92040000D02*
X141377500Y-92040000D01*
G04 #@! TO.C,D4*
X144000000Y-89040000D02*
X141315000Y-89040000D01*
X141315000Y-89040000D02*
X141315000Y-90960000D01*
X141315000Y-90960000D02*
X144000000Y-90960000D01*
G04 #@! TO.C,D5*
X162250000Y-49612500D02*
X162250000Y-46927500D01*
X160330000Y-49612500D02*
X162250000Y-49612500D01*
X160330000Y-46927500D02*
X160330000Y-49612500D01*
G04 #@! TO.C,R1*
X142800000Y-39296078D02*
X142800000Y-38778922D01*
X144220000Y-39296078D02*
X144220000Y-38778922D01*
G04 #@! TO.C,R10*
X143458000Y-62303922D02*
X143458000Y-62821078D01*
X142038000Y-62303922D02*
X142038000Y-62821078D01*
G04 #@! TO.C,R11*
X148770078Y-63806000D02*
X148252922Y-63806000D01*
X148770078Y-65226000D02*
X148252922Y-65226000D01*
G04 #@! TO.C,R13*
X157807922Y-46176000D02*
X158325078Y-46176000D01*
X157807922Y-44756000D02*
X158325078Y-44756000D01*
D12*
G04 #@! TO.C,J5*
X133000000Y-95500000D02*
X139000000Y-95500000D01*
X139000000Y-95500000D02*
X139000000Y-92500000D01*
X139000000Y-92500000D02*
X133000000Y-92500000D01*
X133000000Y-92500000D02*
X133000000Y-95500000D01*
G04 #@! TO.C,J6*
X138950000Y-87250000D02*
X138950000Y-84250000D01*
X132950000Y-87250000D02*
X138950000Y-87250000D01*
X132950000Y-84250000D02*
X132950000Y-87250000D01*
X138950000Y-84250000D02*
X132950000Y-84250000D01*
G04 #@! TO.C,J7*
X138925000Y-88350000D02*
X132925000Y-88350000D01*
X132925000Y-88350000D02*
X132925000Y-91350000D01*
X132925000Y-91350000D02*
X138925000Y-91350000D01*
X138925000Y-91350000D02*
X138925000Y-88350000D01*
G04 #@! TO.C,D3*
X146327904Y-88718380D02*
X146327904Y-87718380D01*
X146566000Y-87718380D01*
X146708857Y-87766000D01*
X146804095Y-87861238D01*
X146851714Y-87956476D01*
X146899333Y-88146952D01*
X146899333Y-88289809D01*
X146851714Y-88480285D01*
X146804095Y-88575523D01*
X146708857Y-88670761D01*
X146566000Y-88718380D01*
X146327904Y-88718380D01*
X147232666Y-87718380D02*
X147851714Y-87718380D01*
X147518380Y-88099333D01*
X147661238Y-88099333D01*
X147756476Y-88146952D01*
X147804095Y-88194571D01*
X147851714Y-88289809D01*
X147851714Y-88527904D01*
X147804095Y-88623142D01*
X147756476Y-88670761D01*
X147661238Y-88718380D01*
X147375523Y-88718380D01*
X147280285Y-88670761D01*
X147232666Y-88623142D01*
G04 #@! TO.C,J8*
X140388666Y-80372380D02*
X140388666Y-81086666D01*
X140341047Y-81229523D01*
X140245809Y-81324761D01*
X140102952Y-81372380D01*
X140007714Y-81372380D01*
X141007714Y-80800952D02*
X140912476Y-80753333D01*
X140864857Y-80705714D01*
X140817238Y-80610476D01*
X140817238Y-80562857D01*
X140864857Y-80467619D01*
X140912476Y-80420000D01*
X141007714Y-80372380D01*
X141198190Y-80372380D01*
X141293428Y-80420000D01*
X141341047Y-80467619D01*
X141388666Y-80562857D01*
X141388666Y-80610476D01*
X141341047Y-80705714D01*
X141293428Y-80753333D01*
X141198190Y-80800952D01*
X141007714Y-80800952D01*
X140912476Y-80848571D01*
X140864857Y-80896190D01*
X140817238Y-80991428D01*
X140817238Y-81181904D01*
X140864857Y-81277142D01*
X140912476Y-81324761D01*
X141007714Y-81372380D01*
X141198190Y-81372380D01*
X141293428Y-81324761D01*
X141341047Y-81277142D01*
X141388666Y-81181904D01*
X141388666Y-80991428D01*
X141341047Y-80896190D01*
X141293428Y-80848571D01*
X141198190Y-80800952D01*
G04 #@! TO.C,C2*
X136207642Y-72667666D02*
X136255261Y-72715285D01*
X136302880Y-72858142D01*
X136302880Y-72953380D01*
X136255261Y-73096238D01*
X136160023Y-73191476D01*
X136064785Y-73239095D01*
X135874309Y-73286714D01*
X135731452Y-73286714D01*
X135540976Y-73239095D01*
X135445738Y-73191476D01*
X135350500Y-73096238D01*
X135302880Y-72953380D01*
X135302880Y-72858142D01*
X135350500Y-72715285D01*
X135398119Y-72667666D01*
X135398119Y-72286714D02*
X135350500Y-72239095D01*
X135302880Y-72143857D01*
X135302880Y-71905761D01*
X135350500Y-71810523D01*
X135398119Y-71762904D01*
X135493357Y-71715285D01*
X135588595Y-71715285D01*
X135731452Y-71762904D01*
X136302880Y-72334333D01*
X136302880Y-71715285D01*
G04 #@! TO.C,J1*
D14*
X138032671Y-33731200D02*
X138468100Y-33731200D01*
X138555185Y-33760228D01*
X138613242Y-33818285D01*
X138642271Y-33905371D01*
X138642271Y-33963428D01*
X138642271Y-33121600D02*
X138642271Y-33469942D01*
X138642271Y-33295771D02*
X138032671Y-33295771D01*
X138119757Y-33353828D01*
X138177814Y-33411885D01*
X138206842Y-33469942D01*
X142452271Y-35806742D02*
X141842671Y-35806742D01*
X142423242Y-35806742D02*
X142452271Y-35864800D01*
X142452271Y-35980914D01*
X142423242Y-36038971D01*
X142394214Y-36068000D01*
X142336157Y-36097028D01*
X142161985Y-36097028D01*
X142103928Y-36068000D01*
X142074900Y-36038971D01*
X142045871Y-35980914D01*
X142045871Y-35864800D01*
X142074900Y-35806742D01*
X142423242Y-35284228D02*
X142452271Y-35342285D01*
X142452271Y-35458400D01*
X142423242Y-35516457D01*
X142365185Y-35545485D01*
X142132957Y-35545485D01*
X142074900Y-35516457D01*
X142045871Y-35458400D01*
X142045871Y-35342285D01*
X142074900Y-35284228D01*
X142132957Y-35255200D01*
X142191014Y-35255200D01*
X142249071Y-35545485D01*
X142452271Y-34993942D02*
X141842671Y-34993942D01*
X142074900Y-34993942D02*
X142045871Y-34935885D01*
X142045871Y-34819771D01*
X142074900Y-34761714D01*
X142103928Y-34732685D01*
X142161985Y-34703657D01*
X142336157Y-34703657D01*
X142394214Y-34732685D01*
X142423242Y-34761714D01*
X142452271Y-34819771D01*
X142452271Y-34935885D01*
X142423242Y-34993942D01*
X142045871Y-34181142D02*
X142452271Y-34181142D01*
X142045871Y-34442400D02*
X142365185Y-34442400D01*
X142423242Y-34413371D01*
X142452271Y-34355314D01*
X142452271Y-34268228D01*
X142423242Y-34210171D01*
X142394214Y-34181142D01*
X142045871Y-33629600D02*
X142539357Y-33629600D01*
X142597414Y-33658628D01*
X142626442Y-33687657D01*
X142655471Y-33745714D01*
X142655471Y-33832800D01*
X142626442Y-33890857D01*
X142423242Y-33629600D02*
X142452271Y-33687657D01*
X142452271Y-33803771D01*
X142423242Y-33861828D01*
X142394214Y-33890857D01*
X142336157Y-33919885D01*
X142161985Y-33919885D01*
X142103928Y-33890857D01*
X142074900Y-33861828D01*
X142045871Y-33803771D01*
X142045871Y-33687657D01*
X142074900Y-33629600D01*
X142510328Y-33484457D02*
X142510328Y-33020000D01*
X142423242Y-32613600D02*
X142452271Y-32671657D01*
X142452271Y-32787771D01*
X142423242Y-32845828D01*
X142394214Y-32874857D01*
X142336157Y-32903885D01*
X142161985Y-32903885D01*
X142103928Y-32874857D01*
X142074900Y-32845828D01*
X142045871Y-32787771D01*
X142045871Y-32671657D01*
X142074900Y-32613600D01*
X142452271Y-32265257D02*
X142423242Y-32323314D01*
X142394214Y-32352342D01*
X142336157Y-32381371D01*
X142161985Y-32381371D01*
X142103928Y-32352342D01*
X142074900Y-32323314D01*
X142045871Y-32265257D01*
X142045871Y-32178171D01*
X142074900Y-32120114D01*
X142103928Y-32091085D01*
X142161985Y-32062057D01*
X142336157Y-32062057D01*
X142394214Y-32091085D01*
X142423242Y-32120114D01*
X142452271Y-32178171D01*
X142452271Y-32265257D01*
X142045871Y-31800800D02*
X142452271Y-31800800D01*
X142103928Y-31800800D02*
X142074900Y-31771771D01*
X142045871Y-31713714D01*
X142045871Y-31626628D01*
X142074900Y-31568571D01*
X142132957Y-31539542D01*
X142452271Y-31539542D01*
X142045871Y-31249257D02*
X142452271Y-31249257D01*
X142103928Y-31249257D02*
X142074900Y-31220228D01*
X142045871Y-31162171D01*
X142045871Y-31075085D01*
X142074900Y-31017028D01*
X142132957Y-30988000D01*
X142452271Y-30988000D01*
G04 #@! TO.C,J3*
X159813171Y-39065200D02*
X160248600Y-39065200D01*
X160335685Y-39094228D01*
X160393742Y-39152285D01*
X160422771Y-39239371D01*
X160422771Y-39297428D01*
X159813171Y-38832971D02*
X159813171Y-38455600D01*
X160045400Y-38658800D01*
X160045400Y-38571714D01*
X160074428Y-38513657D01*
X160103457Y-38484628D01*
X160161514Y-38455600D01*
X160306657Y-38455600D01*
X160364714Y-38484628D01*
X160393742Y-38513657D01*
X160422771Y-38571714D01*
X160422771Y-38745885D01*
X160393742Y-38803942D01*
X160364714Y-38832971D01*
X158960457Y-37403314D02*
X158989485Y-37316228D01*
X159018514Y-37287200D01*
X159076571Y-37258171D01*
X159163657Y-37258171D01*
X159221714Y-37287200D01*
X159250742Y-37316228D01*
X159279771Y-37374285D01*
X159279771Y-37606514D01*
X158670171Y-37606514D01*
X158670171Y-37403314D01*
X158699200Y-37345257D01*
X158728228Y-37316228D01*
X158786285Y-37287200D01*
X158844342Y-37287200D01*
X158902400Y-37316228D01*
X158931428Y-37345257D01*
X158960457Y-37403314D01*
X158960457Y-37606514D01*
X159279771Y-36706628D02*
X159279771Y-36996914D01*
X158670171Y-36996914D01*
X158960457Y-36503428D02*
X158960457Y-36300228D01*
X159279771Y-36213142D02*
X159279771Y-36503428D01*
X158670171Y-36503428D01*
X158670171Y-36213142D01*
X159337828Y-36097028D02*
X159337828Y-35632571D01*
X159279771Y-35487428D02*
X158670171Y-35487428D01*
X158670171Y-35255200D01*
X158699200Y-35197142D01*
X158728228Y-35168114D01*
X158786285Y-35139085D01*
X158873371Y-35139085D01*
X158931428Y-35168114D01*
X158960457Y-35197142D01*
X158989485Y-35255200D01*
X158989485Y-35487428D01*
X158670171Y-34935885D02*
X159279771Y-34790742D01*
X158844342Y-34674628D01*
X159279771Y-34558514D01*
X158670171Y-34413371D01*
X159279771Y-33832800D02*
X158989485Y-34036000D01*
X159279771Y-34181142D02*
X158670171Y-34181142D01*
X158670171Y-33948914D01*
X158699200Y-33890857D01*
X158728228Y-33861828D01*
X158786285Y-33832800D01*
X158873371Y-33832800D01*
X158931428Y-33861828D01*
X158960457Y-33890857D01*
X158989485Y-33948914D01*
X158989485Y-34181142D01*
X159337828Y-33716685D02*
X159337828Y-33252228D01*
X159250742Y-33136114D02*
X159279771Y-33049028D01*
X159279771Y-32903885D01*
X159250742Y-32845828D01*
X159221714Y-32816800D01*
X159163657Y-32787771D01*
X159105600Y-32787771D01*
X159047542Y-32816800D01*
X159018514Y-32845828D01*
X158989485Y-32903885D01*
X158960457Y-33020000D01*
X158931428Y-33078057D01*
X158902400Y-33107085D01*
X158844342Y-33136114D01*
X158786285Y-33136114D01*
X158728228Y-33107085D01*
X158699200Y-33078057D01*
X158670171Y-33020000D01*
X158670171Y-32874857D01*
X158699200Y-32787771D01*
X158873371Y-32584571D02*
X159279771Y-32468457D01*
X158989485Y-32352342D01*
X159279771Y-32236228D01*
X158873371Y-32120114D01*
X159279771Y-31887885D02*
X158873371Y-31887885D01*
X158670171Y-31887885D02*
X158699200Y-31916914D01*
X158728228Y-31887885D01*
X158699200Y-31858857D01*
X158670171Y-31887885D01*
X158728228Y-31887885D01*
X158873371Y-31684685D02*
X158873371Y-31452457D01*
X158670171Y-31597600D02*
X159192685Y-31597600D01*
X159250742Y-31568571D01*
X159279771Y-31510514D01*
X159279771Y-31452457D01*
X159250742Y-30988000D02*
X159279771Y-31046057D01*
X159279771Y-31162171D01*
X159250742Y-31220228D01*
X159221714Y-31249257D01*
X159163657Y-31278285D01*
X158989485Y-31278285D01*
X158931428Y-31249257D01*
X158902400Y-31220228D01*
X158873371Y-31162171D01*
X158873371Y-31046057D01*
X158902400Y-30988000D01*
X159279771Y-30726742D02*
X158670171Y-30726742D01*
X159279771Y-30465485D02*
X158960457Y-30465485D01*
X158902400Y-30494514D01*
X158873371Y-30552571D01*
X158873371Y-30639657D01*
X158902400Y-30697714D01*
X158931428Y-30726742D01*
G04 #@! TO.C,J4*
X154987171Y-32715200D02*
X155422600Y-32715200D01*
X155509685Y-32744228D01*
X155567742Y-32802285D01*
X155596771Y-32889371D01*
X155596771Y-32947428D01*
X155190371Y-32163657D02*
X155596771Y-32163657D01*
X154958142Y-32308800D02*
X155393571Y-32453942D01*
X155393571Y-32076571D01*
G04 #@! TO.C,J9*
X159305171Y-63195200D02*
X159740600Y-63195200D01*
X159827685Y-63224228D01*
X159885742Y-63282285D01*
X159914771Y-63369371D01*
X159914771Y-63427428D01*
X159914771Y-62875885D02*
X159914771Y-62759771D01*
X159885742Y-62701714D01*
X159856714Y-62672685D01*
X159769628Y-62614628D01*
X159653514Y-62585600D01*
X159421285Y-62585600D01*
X159363228Y-62614628D01*
X159334200Y-62643657D01*
X159305171Y-62701714D01*
X159305171Y-62817828D01*
X159334200Y-62875885D01*
X159363228Y-62904914D01*
X159421285Y-62933942D01*
X159566428Y-62933942D01*
X159624485Y-62904914D01*
X159653514Y-62875885D01*
X159682542Y-62817828D01*
X159682542Y-62701714D01*
X159653514Y-62643657D01*
X159624485Y-62614628D01*
X159566428Y-62585600D01*
X163405457Y-65952914D02*
X163434485Y-65865828D01*
X163463514Y-65836800D01*
X163521571Y-65807771D01*
X163608657Y-65807771D01*
X163666714Y-65836800D01*
X163695742Y-65865828D01*
X163724771Y-65923885D01*
X163724771Y-66156114D01*
X163115171Y-66156114D01*
X163115171Y-65952914D01*
X163144200Y-65894857D01*
X163173228Y-65865828D01*
X163231285Y-65836800D01*
X163289342Y-65836800D01*
X163347400Y-65865828D01*
X163376428Y-65894857D01*
X163405457Y-65952914D01*
X163405457Y-66156114D01*
X163724771Y-65285257D02*
X163405457Y-65285257D01*
X163347400Y-65314285D01*
X163318371Y-65372342D01*
X163318371Y-65488457D01*
X163347400Y-65546514D01*
X163695742Y-65285257D02*
X163724771Y-65343314D01*
X163724771Y-65488457D01*
X163695742Y-65546514D01*
X163637685Y-65575542D01*
X163579628Y-65575542D01*
X163521571Y-65546514D01*
X163492542Y-65488457D01*
X163492542Y-65343314D01*
X163463514Y-65285257D01*
X163318371Y-65082057D02*
X163318371Y-64849828D01*
X163115171Y-64994971D02*
X163637685Y-64994971D01*
X163695742Y-64965942D01*
X163724771Y-64907885D01*
X163724771Y-64849828D01*
X163318371Y-64733714D02*
X163318371Y-64501485D01*
X163115171Y-64646628D02*
X163637685Y-64646628D01*
X163695742Y-64617600D01*
X163724771Y-64559542D01*
X163724771Y-64501485D01*
X163695742Y-64066057D02*
X163724771Y-64124114D01*
X163724771Y-64240228D01*
X163695742Y-64298285D01*
X163637685Y-64327314D01*
X163405457Y-64327314D01*
X163347400Y-64298285D01*
X163318371Y-64240228D01*
X163318371Y-64124114D01*
X163347400Y-64066057D01*
X163405457Y-64037028D01*
X163463514Y-64037028D01*
X163521571Y-64327314D01*
X163724771Y-63775771D02*
X163318371Y-63775771D01*
X163434485Y-63775771D02*
X163376428Y-63746742D01*
X163347400Y-63717714D01*
X163318371Y-63659657D01*
X163318371Y-63601600D01*
X163318371Y-63456457D02*
X163724771Y-63311314D01*
X163318371Y-63166171D02*
X163724771Y-63311314D01*
X163869914Y-63369371D01*
X163898942Y-63398400D01*
X163927971Y-63456457D01*
X163695742Y-62498514D02*
X163724771Y-62411428D01*
X163724771Y-62266285D01*
X163695742Y-62208228D01*
X163666714Y-62179200D01*
X163608657Y-62150171D01*
X163550600Y-62150171D01*
X163492542Y-62179200D01*
X163463514Y-62208228D01*
X163434485Y-62266285D01*
X163405457Y-62382400D01*
X163376428Y-62440457D01*
X163347400Y-62469485D01*
X163289342Y-62498514D01*
X163231285Y-62498514D01*
X163173228Y-62469485D01*
X163144200Y-62440457D01*
X163115171Y-62382400D01*
X163115171Y-62237257D01*
X163144200Y-62150171D01*
X163318371Y-61946971D02*
X163724771Y-61830857D01*
X163434485Y-61714742D01*
X163724771Y-61598628D01*
X163318371Y-61482514D01*
X163724771Y-61250285D02*
X163318371Y-61250285D01*
X163115171Y-61250285D02*
X163144200Y-61279314D01*
X163173228Y-61250285D01*
X163144200Y-61221257D01*
X163115171Y-61250285D01*
X163173228Y-61250285D01*
X163318371Y-61047085D02*
X163318371Y-60814857D01*
X163115171Y-60960000D02*
X163637685Y-60960000D01*
X163695742Y-60930971D01*
X163724771Y-60872914D01*
X163724771Y-60814857D01*
X163695742Y-60350400D02*
X163724771Y-60408457D01*
X163724771Y-60524571D01*
X163695742Y-60582628D01*
X163666714Y-60611657D01*
X163608657Y-60640685D01*
X163434485Y-60640685D01*
X163376428Y-60611657D01*
X163347400Y-60582628D01*
X163318371Y-60524571D01*
X163318371Y-60408457D01*
X163347400Y-60350400D01*
X163724771Y-60089142D02*
X163115171Y-60089142D01*
X163724771Y-59827885D02*
X163405457Y-59827885D01*
X163347400Y-59856914D01*
X163318371Y-59914971D01*
X163318371Y-60002057D01*
X163347400Y-60060114D01*
X163376428Y-60089142D01*
G04 #@! TO.C,U4*
X136445171Y-28785457D02*
X136938657Y-28785457D01*
X136996714Y-28756428D01*
X137025742Y-28727400D01*
X137054771Y-28669342D01*
X137054771Y-28553228D01*
X137025742Y-28495171D01*
X136996714Y-28466142D01*
X136938657Y-28437114D01*
X136445171Y-28437114D01*
X136648371Y-27885571D02*
X137054771Y-27885571D01*
X136416142Y-28030714D02*
X136851571Y-28175857D01*
X136851571Y-27798485D01*
X132798457Y-31931428D02*
X132827485Y-31844342D01*
X132856514Y-31815314D01*
X132914571Y-31786285D01*
X133001657Y-31786285D01*
X133059714Y-31815314D01*
X133088742Y-31844342D01*
X133117771Y-31902400D01*
X133117771Y-32134628D01*
X132508171Y-32134628D01*
X132508171Y-31931428D01*
X132537200Y-31873371D01*
X132566228Y-31844342D01*
X132624285Y-31815314D01*
X132682342Y-31815314D01*
X132740400Y-31844342D01*
X132769428Y-31873371D01*
X132798457Y-31931428D01*
X132798457Y-32134628D01*
X133117771Y-31525028D02*
X132508171Y-31525028D01*
X132943600Y-31321828D01*
X132508171Y-31118628D01*
X133117771Y-31118628D01*
X132798457Y-30828342D02*
X132798457Y-30625142D01*
X133117771Y-30538057D02*
X133117771Y-30828342D01*
X132508171Y-30828342D01*
X132508171Y-30538057D01*
X132566228Y-30305828D02*
X132537200Y-30276800D01*
X132508171Y-30218742D01*
X132508171Y-30073600D01*
X132537200Y-30015542D01*
X132566228Y-29986514D01*
X132624285Y-29957485D01*
X132682342Y-29957485D01*
X132769428Y-29986514D01*
X133117771Y-30334857D01*
X133117771Y-29957485D01*
X132769428Y-29609142D02*
X132740400Y-29667200D01*
X132711371Y-29696228D01*
X132653314Y-29725257D01*
X132624285Y-29725257D01*
X132566228Y-29696228D01*
X132537200Y-29667200D01*
X132508171Y-29609142D01*
X132508171Y-29493028D01*
X132537200Y-29434971D01*
X132566228Y-29405942D01*
X132624285Y-29376914D01*
X132653314Y-29376914D01*
X132711371Y-29405942D01*
X132740400Y-29434971D01*
X132769428Y-29493028D01*
X132769428Y-29609142D01*
X132798457Y-29667200D01*
X132827485Y-29696228D01*
X132885542Y-29725257D01*
X133001657Y-29725257D01*
X133059714Y-29696228D01*
X133088742Y-29667200D01*
X133117771Y-29609142D01*
X133117771Y-29493028D01*
X133088742Y-29434971D01*
X133059714Y-29405942D01*
X133001657Y-29376914D01*
X132885542Y-29376914D01*
X132827485Y-29405942D01*
X132798457Y-29434971D01*
X132769428Y-29493028D01*
X132508171Y-28999542D02*
X132508171Y-28941485D01*
X132537200Y-28883428D01*
X132566228Y-28854400D01*
X132624285Y-28825371D01*
X132740400Y-28796342D01*
X132885542Y-28796342D01*
X133001657Y-28825371D01*
X133059714Y-28854400D01*
X133088742Y-28883428D01*
X133117771Y-28941485D01*
X133117771Y-28999542D01*
X133088742Y-29057600D01*
X133059714Y-29086628D01*
X133001657Y-29115657D01*
X132885542Y-29144685D01*
X132740400Y-29144685D01*
X132624285Y-29115657D01*
X132566228Y-29086628D01*
X132537200Y-29057600D01*
X132508171Y-28999542D01*
G04 #@! TO.C,U3*
D12*
X141478095Y-38306380D02*
X141478095Y-39115904D01*
X141525714Y-39211142D01*
X141573333Y-39258761D01*
X141668571Y-39306380D01*
X141859047Y-39306380D01*
X141954285Y-39258761D01*
X142001904Y-39211142D01*
X142049523Y-39115904D01*
X142049523Y-38306380D01*
X142430476Y-38306380D02*
X143049523Y-38306380D01*
X142716190Y-38687333D01*
X142859047Y-38687333D01*
X142954285Y-38734952D01*
X143001904Y-38782571D01*
X143049523Y-38877809D01*
X143049523Y-39115904D01*
X143001904Y-39211142D01*
X142954285Y-39258761D01*
X142859047Y-39306380D01*
X142573333Y-39306380D01*
X142478095Y-39258761D01*
X142430476Y-39211142D01*
X136493333Y-61317142D02*
X136445714Y-61364761D01*
X136302857Y-61412380D01*
X136207619Y-61412380D01*
X136064761Y-61364761D01*
X135969523Y-61269523D01*
X135921904Y-61174285D01*
X135874285Y-60983809D01*
X135874285Y-60840952D01*
X135921904Y-60650476D01*
X135969523Y-60555238D01*
X136064761Y-60460000D01*
X136207619Y-60412380D01*
X136302857Y-60412380D01*
X136445714Y-60460000D01*
X136493333Y-60507619D01*
X136874285Y-61364761D02*
X137017142Y-61412380D01*
X137255238Y-61412380D01*
X137350476Y-61364761D01*
X137398095Y-61317142D01*
X137445714Y-61221904D01*
X137445714Y-61126666D01*
X137398095Y-61031428D01*
X137350476Y-60983809D01*
X137255238Y-60936190D01*
X137064761Y-60888571D01*
X136969523Y-60840952D01*
X136921904Y-60793333D01*
X136874285Y-60698095D01*
X136874285Y-60602857D01*
X136921904Y-60507619D01*
X136969523Y-60460000D01*
X137064761Y-60412380D01*
X137302857Y-60412380D01*
X137445714Y-60460000D01*
X138207619Y-60888571D02*
X138350476Y-60936190D01*
X138398095Y-60983809D01*
X138445714Y-61079047D01*
X138445714Y-61221904D01*
X138398095Y-61317142D01*
X138350476Y-61364761D01*
X138255238Y-61412380D01*
X137874285Y-61412380D01*
X137874285Y-60412380D01*
X138207619Y-60412380D01*
X138302857Y-60460000D01*
X138350476Y-60507619D01*
X138398095Y-60602857D01*
X138398095Y-60698095D01*
X138350476Y-60793333D01*
X138302857Y-60840952D01*
X138207619Y-60888571D01*
X137874285Y-60888571D01*
X135898095Y-58872380D02*
X135898095Y-57872380D01*
X136469523Y-58872380D01*
X136469523Y-57872380D01*
X137517142Y-58777142D02*
X137469523Y-58824761D01*
X137326666Y-58872380D01*
X137231428Y-58872380D01*
X137088571Y-58824761D01*
X136993333Y-58729523D01*
X136945714Y-58634285D01*
X136898095Y-58443809D01*
X136898095Y-58300952D01*
X136945714Y-58110476D01*
X136993333Y-58015238D01*
X137088571Y-57920000D01*
X137231428Y-57872380D01*
X137326666Y-57872380D01*
X137469523Y-57920000D01*
X137517142Y-57967619D01*
X137898095Y-58824761D02*
X138040952Y-58872380D01*
X138279047Y-58872380D01*
X138374285Y-58824761D01*
X138421904Y-58777142D01*
X138469523Y-58681904D01*
X138469523Y-58586666D01*
X138421904Y-58491428D01*
X138374285Y-58443809D01*
X138279047Y-58396190D01*
X138088571Y-58348571D01*
X137993333Y-58300952D01*
X137945714Y-58253333D01*
X137898095Y-58158095D01*
X137898095Y-58062857D01*
X137945714Y-57967619D01*
X137993333Y-57920000D01*
X138088571Y-57872380D01*
X138326666Y-57872380D01*
X138469523Y-57920000D01*
X135850476Y-56284761D02*
X135993333Y-56332380D01*
X136231428Y-56332380D01*
X136326666Y-56284761D01*
X136374285Y-56237142D01*
X136421904Y-56141904D01*
X136421904Y-56046666D01*
X136374285Y-55951428D01*
X136326666Y-55903809D01*
X136231428Y-55856190D01*
X136040952Y-55808571D01*
X135945714Y-55760952D01*
X135898095Y-55713333D01*
X135850476Y-55618095D01*
X135850476Y-55522857D01*
X135898095Y-55427619D01*
X135945714Y-55380000D01*
X136040952Y-55332380D01*
X136279047Y-55332380D01*
X136421904Y-55380000D01*
X136850476Y-56332380D02*
X136850476Y-55332380D01*
X137088571Y-55332380D01*
X137231428Y-55380000D01*
X137326666Y-55475238D01*
X137374285Y-55570476D01*
X137421904Y-55760952D01*
X137421904Y-55903809D01*
X137374285Y-56094285D01*
X137326666Y-56189523D01*
X137231428Y-56284761D01*
X137088571Y-56332380D01*
X136850476Y-56332380D01*
X138040952Y-55332380D02*
X138231428Y-55332380D01*
X138326666Y-55380000D01*
X138421904Y-55475238D01*
X138469523Y-55665714D01*
X138469523Y-55999047D01*
X138421904Y-56189523D01*
X138326666Y-56284761D01*
X138231428Y-56332380D01*
X138040952Y-56332380D01*
X137945714Y-56284761D01*
X137850476Y-56189523D01*
X137802857Y-55999047D01*
X137802857Y-55665714D01*
X137850476Y-55475238D01*
X137945714Y-55380000D01*
X138040952Y-55332380D01*
X135945714Y-53744761D02*
X136088571Y-53792380D01*
X136326666Y-53792380D01*
X136421904Y-53744761D01*
X136469523Y-53697142D01*
X136517142Y-53601904D01*
X136517142Y-53506666D01*
X136469523Y-53411428D01*
X136421904Y-53363809D01*
X136326666Y-53316190D01*
X136136190Y-53268571D01*
X136040952Y-53220952D01*
X135993333Y-53173333D01*
X135945714Y-53078095D01*
X135945714Y-52982857D01*
X135993333Y-52887619D01*
X136040952Y-52840000D01*
X136136190Y-52792380D01*
X136374285Y-52792380D01*
X136517142Y-52840000D01*
X136945714Y-53792380D02*
X136945714Y-52792380D01*
X137183809Y-52792380D01*
X137326666Y-52840000D01*
X137421904Y-52935238D01*
X137469523Y-53030476D01*
X137517142Y-53220952D01*
X137517142Y-53363809D01*
X137469523Y-53554285D01*
X137421904Y-53649523D01*
X137326666Y-53744761D01*
X137183809Y-53792380D01*
X136945714Y-53792380D01*
X137898095Y-53506666D02*
X138374285Y-53506666D01*
X137802857Y-53792380D02*
X138136190Y-52792380D01*
X138469523Y-53792380D01*
X135969523Y-51204761D02*
X136112380Y-51252380D01*
X136350476Y-51252380D01*
X136445714Y-51204761D01*
X136493333Y-51157142D01*
X136540952Y-51061904D01*
X136540952Y-50966666D01*
X136493333Y-50871428D01*
X136445714Y-50823809D01*
X136350476Y-50776190D01*
X136160000Y-50728571D01*
X136064761Y-50680952D01*
X136017142Y-50633333D01*
X135969523Y-50538095D01*
X135969523Y-50442857D01*
X136017142Y-50347619D01*
X136064761Y-50300000D01*
X136160000Y-50252380D01*
X136398095Y-50252380D01*
X136540952Y-50300000D01*
X137540952Y-51157142D02*
X137493333Y-51204761D01*
X137350476Y-51252380D01*
X137255238Y-51252380D01*
X137112380Y-51204761D01*
X137017142Y-51109523D01*
X136969523Y-51014285D01*
X136921904Y-50823809D01*
X136921904Y-50680952D01*
X136969523Y-50490476D01*
X137017142Y-50395238D01*
X137112380Y-50300000D01*
X137255238Y-50252380D01*
X137350476Y-50252380D01*
X137493333Y-50300000D01*
X137540952Y-50347619D01*
X138445714Y-51252380D02*
X137969523Y-51252380D01*
X137969523Y-50252380D01*
X136398095Y-47760000D02*
X136302857Y-47712380D01*
X136160000Y-47712380D01*
X136017142Y-47760000D01*
X135921904Y-47855238D01*
X135874285Y-47950476D01*
X135826666Y-48140952D01*
X135826666Y-48283809D01*
X135874285Y-48474285D01*
X135921904Y-48569523D01*
X136017142Y-48664761D01*
X136160000Y-48712380D01*
X136255238Y-48712380D01*
X136398095Y-48664761D01*
X136445714Y-48617142D01*
X136445714Y-48283809D01*
X136255238Y-48283809D01*
X136874285Y-48712380D02*
X136874285Y-47712380D01*
X137445714Y-48712380D01*
X137445714Y-47712380D01*
X137921904Y-48712380D02*
X137921904Y-47712380D01*
X138160000Y-47712380D01*
X138302857Y-47760000D01*
X138398095Y-47855238D01*
X138445714Y-47950476D01*
X138493333Y-48140952D01*
X138493333Y-48283809D01*
X138445714Y-48474285D01*
X138398095Y-48569523D01*
X138302857Y-48664761D01*
X138160000Y-48712380D01*
X137921904Y-48712380D01*
X135921904Y-45172380D02*
X136540952Y-45172380D01*
X136207619Y-45553333D01*
X136350476Y-45553333D01*
X136445714Y-45600952D01*
X136493333Y-45648571D01*
X136540952Y-45743809D01*
X136540952Y-45981904D01*
X136493333Y-46077142D01*
X136445714Y-46124761D01*
X136350476Y-46172380D01*
X136064761Y-46172380D01*
X135969523Y-46124761D01*
X135921904Y-46077142D01*
X136826666Y-45172380D02*
X137160000Y-46172380D01*
X137493333Y-45172380D01*
X137731428Y-45172380D02*
X138350476Y-45172380D01*
X138017142Y-45553333D01*
X138160000Y-45553333D01*
X138255238Y-45600952D01*
X138302857Y-45648571D01*
X138350476Y-45743809D01*
X138350476Y-45981904D01*
X138302857Y-46077142D01*
X138255238Y-46124761D01*
X138160000Y-46172380D01*
X137874285Y-46172380D01*
X137779047Y-46124761D01*
X137731428Y-46077142D01*
X136064761Y-42632380D02*
X136398095Y-43632380D01*
X136731428Y-42632380D01*
X137064761Y-43632380D02*
X137064761Y-42632380D01*
X137540952Y-43632380D02*
X137540952Y-42632380D01*
X138112380Y-43632380D01*
X138112380Y-42632380D01*
G04 #@! TO.C,U5*
X147534380Y-74040904D02*
X148343904Y-74040904D01*
X148439142Y-73993285D01*
X148486761Y-73945666D01*
X148534380Y-73850428D01*
X148534380Y-73659952D01*
X148486761Y-73564714D01*
X148439142Y-73517095D01*
X148343904Y-73469476D01*
X147534380Y-73469476D01*
X147534380Y-72517095D02*
X147534380Y-72993285D01*
X148010571Y-73040904D01*
X147962952Y-72993285D01*
X147915333Y-72898047D01*
X147915333Y-72659952D01*
X147962952Y-72564714D01*
X148010571Y-72517095D01*
X148105809Y-72469476D01*
X148343904Y-72469476D01*
X148439142Y-72517095D01*
X148486761Y-72564714D01*
X148534380Y-72659952D01*
X148534380Y-72898047D01*
X148486761Y-72993285D01*
X148439142Y-73040904D01*
G04 #@! TO.C,U1*
X148166095Y-94321380D02*
X148166095Y-95130904D01*
X148213714Y-95226142D01*
X148261333Y-95273761D01*
X148356571Y-95321380D01*
X148547047Y-95321380D01*
X148642285Y-95273761D01*
X148689904Y-95226142D01*
X148737523Y-95130904D01*
X148737523Y-94321380D01*
X149737523Y-95321380D02*
X149166095Y-95321380D01*
X149451809Y-95321380D02*
X149451809Y-94321380D01*
X149356571Y-94464238D01*
X149261333Y-94559476D01*
X149166095Y-94607095D01*
G04 #@! TO.C,D1*
X146370904Y-91639380D02*
X146370904Y-90639380D01*
X146609000Y-90639380D01*
X146751857Y-90687000D01*
X146847095Y-90782238D01*
X146894714Y-90877476D01*
X146942333Y-91067952D01*
X146942333Y-91210809D01*
X146894714Y-91401285D01*
X146847095Y-91496523D01*
X146751857Y-91591761D01*
X146609000Y-91639380D01*
X146370904Y-91639380D01*
X147894714Y-91639380D02*
X147323285Y-91639380D01*
X147609000Y-91639380D02*
X147609000Y-90639380D01*
X147513761Y-90782238D01*
X147418523Y-90877476D01*
X147323285Y-90925095D01*
G04 #@! TO.C,D2*
X142324404Y-91802380D02*
X142324404Y-90802380D01*
X142562500Y-90802380D01*
X142705357Y-90850000D01*
X142800595Y-90945238D01*
X142848214Y-91040476D01*
X142895833Y-91230952D01*
X142895833Y-91373809D01*
X142848214Y-91564285D01*
X142800595Y-91659523D01*
X142705357Y-91754761D01*
X142562500Y-91802380D01*
X142324404Y-91802380D01*
X143276785Y-90897619D02*
X143324404Y-90850000D01*
X143419642Y-90802380D01*
X143657738Y-90802380D01*
X143752976Y-90850000D01*
X143800595Y-90897619D01*
X143848214Y-90992857D01*
X143848214Y-91088095D01*
X143800595Y-91230952D01*
X143229166Y-91802380D01*
X143848214Y-91802380D01*
G04 #@! TO.C,D4*
X142261904Y-88802380D02*
X142261904Y-87802380D01*
X142500000Y-87802380D01*
X142642857Y-87850000D01*
X142738095Y-87945238D01*
X142785714Y-88040476D01*
X142833333Y-88230952D01*
X142833333Y-88373809D01*
X142785714Y-88564285D01*
X142738095Y-88659523D01*
X142642857Y-88754761D01*
X142500000Y-88802380D01*
X142261904Y-88802380D01*
X143690476Y-88135714D02*
X143690476Y-88802380D01*
X143452380Y-87754761D02*
X143214285Y-88469047D01*
X143833333Y-88469047D01*
G04 #@! TO.C,D5*
X160092380Y-48665595D02*
X159092380Y-48665595D01*
X159092380Y-48427500D01*
X159140000Y-48284642D01*
X159235238Y-48189404D01*
X159330476Y-48141785D01*
X159520952Y-48094166D01*
X159663809Y-48094166D01*
X159854285Y-48141785D01*
X159949523Y-48189404D01*
X160044761Y-48284642D01*
X160092380Y-48427500D01*
X160092380Y-48665595D01*
X159092380Y-47189404D02*
X159092380Y-47665595D01*
X159568571Y-47713214D01*
X159520952Y-47665595D01*
X159473333Y-47570357D01*
X159473333Y-47332261D01*
X159520952Y-47237023D01*
X159568571Y-47189404D01*
X159663809Y-47141785D01*
X159901904Y-47141785D01*
X159997142Y-47189404D01*
X160044761Y-47237023D01*
X160092380Y-47332261D01*
X160092380Y-47570357D01*
X160044761Y-47665595D01*
X159997142Y-47713214D01*
G04 #@! TO.C,R1*
X142312380Y-39204166D02*
X141836190Y-39537500D01*
X142312380Y-39775595D02*
X141312380Y-39775595D01*
X141312380Y-39394642D01*
X141360000Y-39299404D01*
X141407619Y-39251785D01*
X141502857Y-39204166D01*
X141645714Y-39204166D01*
X141740952Y-39251785D01*
X141788571Y-39299404D01*
X141836190Y-39394642D01*
X141836190Y-39775595D01*
X142312380Y-38251785D02*
X142312380Y-38823214D01*
X142312380Y-38537500D02*
X141312380Y-38537500D01*
X141455238Y-38632738D01*
X141550476Y-38727976D01*
X141598095Y-38823214D01*
G04 #@! TO.C,R10*
X144850380Y-63205357D02*
X144374190Y-63538690D01*
X144850380Y-63776785D02*
X143850380Y-63776785D01*
X143850380Y-63395833D01*
X143898000Y-63300595D01*
X143945619Y-63252976D01*
X144040857Y-63205357D01*
X144183714Y-63205357D01*
X144278952Y-63252976D01*
X144326571Y-63300595D01*
X144374190Y-63395833D01*
X144374190Y-63776785D01*
X144850380Y-62252976D02*
X144850380Y-62824404D01*
X144850380Y-62538690D02*
X143850380Y-62538690D01*
X143993238Y-62633928D01*
X144088476Y-62729166D01*
X144136095Y-62824404D01*
X143850380Y-61633928D02*
X143850380Y-61538690D01*
X143898000Y-61443452D01*
X143945619Y-61395833D01*
X144040857Y-61348214D01*
X144231333Y-61300595D01*
X144469428Y-61300595D01*
X144659904Y-61348214D01*
X144755142Y-61395833D01*
X144802761Y-61443452D01*
X144850380Y-61538690D01*
X144850380Y-61633928D01*
X144802761Y-61729166D01*
X144755142Y-61776785D01*
X144659904Y-61824404D01*
X144469428Y-61872023D01*
X144231333Y-61872023D01*
X144040857Y-61824404D01*
X143945619Y-61776785D01*
X143898000Y-61729166D01*
X143850380Y-61633928D01*
G04 #@! TO.C,R11*
X147868642Y-66618380D02*
X147535309Y-66142190D01*
X147297214Y-66618380D02*
X147297214Y-65618380D01*
X147678166Y-65618380D01*
X147773404Y-65666000D01*
X147821023Y-65713619D01*
X147868642Y-65808857D01*
X147868642Y-65951714D01*
X147821023Y-66046952D01*
X147773404Y-66094571D01*
X147678166Y-66142190D01*
X147297214Y-66142190D01*
X148821023Y-66618380D02*
X148249595Y-66618380D01*
X148535309Y-66618380D02*
X148535309Y-65618380D01*
X148440071Y-65761238D01*
X148344833Y-65856476D01*
X148249595Y-65904095D01*
X149773404Y-66618380D02*
X149201976Y-66618380D01*
X149487690Y-66618380D02*
X149487690Y-65618380D01*
X149392452Y-65761238D01*
X149297214Y-65856476D01*
X149201976Y-65904095D01*
G04 #@! TO.C,R13*
X157423642Y-44268380D02*
X157090309Y-43792190D01*
X156852214Y-44268380D02*
X156852214Y-43268380D01*
X157233166Y-43268380D01*
X157328404Y-43316000D01*
X157376023Y-43363619D01*
X157423642Y-43458857D01*
X157423642Y-43601714D01*
X157376023Y-43696952D01*
X157328404Y-43744571D01*
X157233166Y-43792190D01*
X156852214Y-43792190D01*
X158376023Y-44268380D02*
X157804595Y-44268380D01*
X158090309Y-44268380D02*
X158090309Y-43268380D01*
X157995071Y-43411238D01*
X157899833Y-43506476D01*
X157804595Y-43554095D01*
X158709357Y-43268380D02*
X159328404Y-43268380D01*
X158995071Y-43649333D01*
X159137928Y-43649333D01*
X159233166Y-43696952D01*
X159280785Y-43744571D01*
X159328404Y-43839809D01*
X159328404Y-44077904D01*
X159280785Y-44173142D01*
X159233166Y-44220761D01*
X159137928Y-44268380D01*
X158852214Y-44268380D01*
X158756976Y-44220761D01*
X158709357Y-44173142D01*
G04 #@! TO.C,J5*
X135666666Y-95952380D02*
X135666666Y-96666666D01*
X135619047Y-96809523D01*
X135523809Y-96904761D01*
X135380952Y-96952380D01*
X135285714Y-96952380D01*
X136619047Y-95952380D02*
X136142857Y-95952380D01*
X136095238Y-96428571D01*
X136142857Y-96380952D01*
X136238095Y-96333333D01*
X136476190Y-96333333D01*
X136571428Y-96380952D01*
X136619047Y-96428571D01*
X136666666Y-96523809D01*
X136666666Y-96761904D01*
X136619047Y-96857142D01*
X136571428Y-96904761D01*
X136476190Y-96952380D01*
X136238095Y-96952380D01*
X136142857Y-96904761D01*
X136095238Y-96857142D01*
G04 #@! TO.C,J6*
X135616666Y-82702380D02*
X135616666Y-83416666D01*
X135569047Y-83559523D01*
X135473809Y-83654761D01*
X135330952Y-83702380D01*
X135235714Y-83702380D01*
X136521428Y-82702380D02*
X136330952Y-82702380D01*
X136235714Y-82750000D01*
X136188095Y-82797619D01*
X136092857Y-82940476D01*
X136045238Y-83130952D01*
X136045238Y-83511904D01*
X136092857Y-83607142D01*
X136140476Y-83654761D01*
X136235714Y-83702380D01*
X136426190Y-83702380D01*
X136521428Y-83654761D01*
X136569047Y-83607142D01*
X136616666Y-83511904D01*
X136616666Y-83273809D01*
X136569047Y-83178571D01*
X136521428Y-83130952D01*
X136426190Y-83083333D01*
X136235714Y-83083333D01*
X136140476Y-83130952D01*
X136092857Y-83178571D01*
X136045238Y-83273809D01*
G04 #@! TO.C,J7*
X135591666Y-86802380D02*
X135591666Y-87516666D01*
X135544047Y-87659523D01*
X135448809Y-87754761D01*
X135305952Y-87802380D01*
X135210714Y-87802380D01*
X135972619Y-86802380D02*
X136639285Y-86802380D01*
X136210714Y-87802380D01*
G04 #@! TD*
M02*
