M48
;DRILL file {KiCad (5.0.1)-rc2} date 1/10/2019 11:34:53 PM
;FORMAT={-:-/ absolute / metric / decimal}
FMAT,2
METRIC,TZ
T1C0.400
T2C1.016
T3C1.100
%
G90
G05
M71
T1
X132.117Y-48.26
X132.475Y-82.75
X133.775Y-85.3
X134.112Y-72.39
X136.652Y-68.326
X138.4Y-92.525
X138.43Y-38.354
X138.938Y-40.64
X139.827Y-79.566
X140.335Y-61.214
X140.775Y-83.025
X140.775Y-84.225
X140.875Y-92.451
X141.15Y-89.004
X141.732Y-72.136
X143.475Y-87.4
X143.875Y-94.8
X143.95Y-91.325
X145.9Y-91.325
X146.925Y-94.15
X147.15Y-88.4
X147.175Y-91.4
X147.5Y-82.5
X148.717Y-52.514
X148.844Y-43.243
X150.876Y-39.878
X152.146Y-53.594
X152.209Y-80.454
X152.3Y-64.05
X154.178Y-53.594
X155.448Y-60.96
X155.702Y-57.404
X157.Y-83.5
X157.48Y-64.008
X157.988Y-47.244
X158.433Y-83.248
X158.75Y-74.676
X159.512Y-50.292
X159.65Y-56.3
X159.875Y-61.15
X160.782Y-54.864
X160.972Y-72.072
X161.544Y-44.704
T2
X161.036Y-32.004
X161.036Y-34.544
X161.036Y-37.084
X134.874Y-28.321
X134.874Y-30.861
X134.874Y-33.401
X134.874Y-35.941
X140.272Y-28.448
X140.272Y-30.988
X140.272Y-33.528
X161.544Y-57.912
X161.544Y-60.452
X161.544Y-62.992
X153.416Y-32.512
X153.416Y-35.052
X153.416Y-37.592
X153.416Y-40.132
X153.416Y-42.672
X153.416Y-45.212
X153.416Y-47.752
X153.416Y-50.292
T3
X130.048Y-28.194
X130.048Y-30.734
X130.048Y-38.354
X130.048Y-40.894
X130.048Y-45.974
X130.048Y-48.514
X130.048Y-51.054
X130.048Y-53.594
X130.048Y-56.134
X130.048Y-58.674
X130.048Y-61.214
X130.048Y-63.754
X130.048Y-66.294
X130.048Y-68.834
X130.048Y-71.374
X130.048Y-73.914
X130.048Y-76.454
X130.048Y-78.994
X130.048Y-81.534
X130.048Y-84.074
X130.048Y-86.614
X142.748Y-84.074
X145.288Y-28.194
X145.288Y-30.734
X145.288Y-33.274
X145.288Y-51.054
X145.288Y-66.294
X145.288Y-68.834
X145.288Y-71.374
X145.288Y-73.914
X145.288Y-76.454
X145.288Y-78.994
X145.288Y-81.534
X145.288Y-86.614
X134.62Y-43.18
X134.62Y-45.72
X134.62Y-48.26
X134.62Y-50.8
X134.62Y-53.34
X134.62Y-55.88
X134.62Y-58.42
X134.62Y-60.96
X148.59Y-28.702
X151.13Y-28.702
X153.67Y-28.702
X156.21Y-28.702
X158.75Y-28.702
X161.29Y-28.702
T0
M30
