G04 #@! TF.GenerationSoftware,KiCad,Pcbnew,(5.0.0)*
G04 #@! TF.CreationDate,2018-08-08T00:15:05-07:00*
G04 #@! TF.ProjectId,GPSLogger,4750534C6F676765722E6B696361645F,rev?*
G04 #@! TF.SameCoordinates,Original*
G04 #@! TF.FileFunction,Legend,Bot*
G04 #@! TF.FilePolarity,Positive*
%FSLAX46Y46*%
G04 Gerber Fmt 4.6, Leading zero omitted, Abs format (unit mm)*
G04 Created by KiCad (PCBNEW (5.0.0)) date 08/08/18 00:15:05*
%MOMM*%
%LPD*%
G01*
G04 APERTURE LIST*
%ADD10C,0.300000*%
%ADD11C,0.200000*%
%ADD12C,0.150000*%
%ADD13C,0.120000*%
G04 APERTURE END LIST*
D10*
X126573772Y-107229935D02*
X126633296Y-107408506D01*
X126633296Y-107706125D01*
X126573772Y-107825173D01*
X126514248Y-107884697D01*
X126395200Y-107944220D01*
X126276153Y-107944220D01*
X126157105Y-107884697D01*
X126097581Y-107825173D01*
X126038058Y-107706125D01*
X125978534Y-107468030D01*
X125919010Y-107348982D01*
X125859486Y-107289459D01*
X125740439Y-107229935D01*
X125621391Y-107229935D01*
X125502343Y-107289459D01*
X125442820Y-107348982D01*
X125383296Y-107468030D01*
X125383296Y-107765649D01*
X125442820Y-107944220D01*
X126573772Y-109015649D02*
X126633296Y-108896601D01*
X126633296Y-108658506D01*
X126573772Y-108539459D01*
X126514248Y-108479935D01*
X126395200Y-108420411D01*
X126038058Y-108420411D01*
X125919010Y-108479935D01*
X125859486Y-108539459D01*
X125799962Y-108658506D01*
X125799962Y-108896601D01*
X125859486Y-109015649D01*
X126633296Y-109729935D02*
X126573772Y-109610887D01*
X126514248Y-109551363D01*
X126395200Y-109491840D01*
X126038058Y-109491840D01*
X125919010Y-109551363D01*
X125859486Y-109610887D01*
X125799962Y-109729935D01*
X125799962Y-109908506D01*
X125859486Y-110027554D01*
X125919010Y-110087078D01*
X126038058Y-110146601D01*
X126395200Y-110146601D01*
X126514248Y-110087078D01*
X126573772Y-110027554D01*
X126633296Y-109908506D01*
X126633296Y-109729935D01*
X125799962Y-110503744D02*
X125799962Y-110979935D01*
X125383296Y-110682316D02*
X126454724Y-110682316D01*
X126573772Y-110741840D01*
X126633296Y-110860887D01*
X126633296Y-110979935D01*
X125799962Y-111218030D02*
X125799962Y-111694220D01*
X125383296Y-111396601D02*
X126454724Y-111396601D01*
X126573772Y-111456125D01*
X126633296Y-111575173D01*
X126633296Y-111694220D01*
X126514248Y-113777554D02*
X126573772Y-113718030D01*
X126633296Y-113539459D01*
X126633296Y-113420411D01*
X126573772Y-113241840D01*
X126454724Y-113122792D01*
X126335677Y-113063268D01*
X126097581Y-113003744D01*
X125919010Y-113003744D01*
X125680915Y-113063268D01*
X125561867Y-113122792D01*
X125442820Y-113241840D01*
X125383296Y-113420411D01*
X125383296Y-113539459D01*
X125442820Y-113718030D01*
X125502343Y-113777554D01*
X126633296Y-114491840D02*
X126573772Y-114372792D01*
X126514248Y-114313268D01*
X126395200Y-114253744D01*
X126038058Y-114253744D01*
X125919010Y-114313268D01*
X125859486Y-114372792D01*
X125799962Y-114491840D01*
X125799962Y-114670411D01*
X125859486Y-114789459D01*
X125919010Y-114848982D01*
X126038058Y-114908506D01*
X126395200Y-114908506D01*
X126514248Y-114848982D01*
X126573772Y-114789459D01*
X126633296Y-114670411D01*
X126633296Y-114491840D01*
X126514248Y-115444220D02*
X126573772Y-115503744D01*
X126633296Y-115444220D01*
X126573772Y-115384697D01*
X126514248Y-115444220D01*
X126633296Y-115444220D01*
D11*
X123785152Y-104244524D02*
X123732771Y-104139762D01*
X123732771Y-103982619D01*
X123785152Y-103825476D01*
X123889913Y-103720714D01*
X123994675Y-103668333D01*
X124204199Y-103615952D01*
X124361342Y-103615952D01*
X124570866Y-103668333D01*
X124675628Y-103720714D01*
X124780390Y-103825476D01*
X124832771Y-103982619D01*
X124832771Y-104087381D01*
X124780390Y-104244524D01*
X124728009Y-104296905D01*
X124361342Y-104296905D01*
X124361342Y-104087381D01*
X124832771Y-104768333D02*
X123732771Y-104768333D01*
X123732771Y-105187381D01*
X123785152Y-105292143D01*
X123837532Y-105344524D01*
X123942294Y-105396905D01*
X124099437Y-105396905D01*
X124204199Y-105344524D01*
X124256580Y-105292143D01*
X124308961Y-105187381D01*
X124308961Y-104768333D01*
X124780390Y-105815952D02*
X124832771Y-105973095D01*
X124832771Y-106235000D01*
X124780390Y-106339762D01*
X124728009Y-106392143D01*
X124623247Y-106444524D01*
X124518485Y-106444524D01*
X124413723Y-106392143D01*
X124361342Y-106339762D01*
X124308961Y-106235000D01*
X124256580Y-106025476D01*
X124204199Y-105920714D01*
X124151818Y-105868333D01*
X124047056Y-105815952D01*
X123942294Y-105815952D01*
X123837532Y-105868333D01*
X123785152Y-105920714D01*
X123732771Y-106025476D01*
X123732771Y-106287381D01*
X123785152Y-106444524D01*
X124832771Y-108277857D02*
X124832771Y-107754048D01*
X123732771Y-107754048D01*
X124832771Y-108801667D02*
X124780390Y-108696905D01*
X124728009Y-108644524D01*
X124623247Y-108592143D01*
X124308961Y-108592143D01*
X124204199Y-108644524D01*
X124151818Y-108696905D01*
X124099437Y-108801667D01*
X124099437Y-108958810D01*
X124151818Y-109063572D01*
X124204199Y-109115952D01*
X124308961Y-109168333D01*
X124623247Y-109168333D01*
X124728009Y-109115952D01*
X124780390Y-109063572D01*
X124832771Y-108958810D01*
X124832771Y-108801667D01*
X124099437Y-110111191D02*
X124989913Y-110111191D01*
X125094675Y-110058810D01*
X125147056Y-110006429D01*
X125199437Y-109901667D01*
X125199437Y-109744524D01*
X125147056Y-109639762D01*
X124780390Y-110111191D02*
X124832771Y-110006429D01*
X124832771Y-109796905D01*
X124780390Y-109692143D01*
X124728009Y-109639762D01*
X124623247Y-109587381D01*
X124308961Y-109587381D01*
X124204199Y-109639762D01*
X124151818Y-109692143D01*
X124099437Y-109796905D01*
X124099437Y-110006429D01*
X124151818Y-110111191D01*
X124099437Y-111106429D02*
X124989913Y-111106429D01*
X125094675Y-111054048D01*
X125147056Y-111001667D01*
X125199437Y-110896905D01*
X125199437Y-110739762D01*
X125147056Y-110635000D01*
X124780390Y-111106429D02*
X124832771Y-111001667D01*
X124832771Y-110792143D01*
X124780390Y-110687381D01*
X124728009Y-110635000D01*
X124623247Y-110582619D01*
X124308961Y-110582619D01*
X124204199Y-110635000D01*
X124151818Y-110687381D01*
X124099437Y-110792143D01*
X124099437Y-111001667D01*
X124151818Y-111106429D01*
X124780390Y-112049286D02*
X124832771Y-111944524D01*
X124832771Y-111735000D01*
X124780390Y-111630238D01*
X124675628Y-111577857D01*
X124256580Y-111577857D01*
X124151818Y-111630238D01*
X124099437Y-111735000D01*
X124099437Y-111944524D01*
X124151818Y-112049286D01*
X124256580Y-112101667D01*
X124361342Y-112101667D01*
X124466104Y-111577857D01*
X124832771Y-112573095D02*
X124099437Y-112573095D01*
X124308961Y-112573095D02*
X124204199Y-112625476D01*
X124151818Y-112677857D01*
X124099437Y-112782619D01*
X124099437Y-112887381D01*
X123732771Y-113935000D02*
X124832771Y-114301667D01*
X123732771Y-114668333D01*
X123732771Y-115558810D02*
X123732771Y-115035000D01*
X124256580Y-114982619D01*
X124204199Y-115035000D01*
X124151818Y-115139762D01*
X124151818Y-115401667D01*
X124204199Y-115506429D01*
X124256580Y-115558810D01*
X124361342Y-115611191D01*
X124623247Y-115611191D01*
X124728009Y-115558810D01*
X124780390Y-115506429D01*
X124832771Y-115401667D01*
X124832771Y-115139762D01*
X124780390Y-115035000D01*
X124728009Y-114982619D01*
X127245992Y-105440352D02*
X127245992Y-115991512D01*
X127263772Y-116009292D02*
X123369952Y-116009292D01*
X125114932Y-103309292D02*
X127245992Y-105440352D01*
X123369952Y-116009292D02*
X123369952Y-103309292D01*
X123369952Y-103309292D02*
X125114932Y-103309292D01*
D12*
G04 #@! TO.C,U3*
X106810000Y-92970000D02*
X104270000Y-92970000D01*
X104270000Y-92970000D02*
X104270000Y-90430000D01*
X104270000Y-90430000D02*
X106810000Y-90430000D01*
X106810000Y-90430000D02*
X106810000Y-92970000D01*
X97920000Y-85350000D02*
X97920000Y-89160000D01*
X97920000Y-89160000D02*
X100460000Y-89160000D01*
X100460000Y-89160000D02*
X100460000Y-85350000D01*
X100460000Y-85350000D02*
X97920000Y-85350000D01*
X96650000Y-71380000D02*
X109350000Y-71380000D01*
X109350000Y-84080000D02*
X96650000Y-84080000D01*
X96650000Y-84080000D02*
X96650000Y-71380000D01*
X109350000Y-84080000D02*
X109350000Y-71380000D01*
X97920000Y-49790000D02*
X97920000Y-48520000D01*
X99190000Y-49790000D02*
X99190000Y-48520000D01*
X100460000Y-49790000D02*
X100460000Y-48520000D01*
X101730000Y-49790000D02*
X101730000Y-48520000D01*
X103000000Y-49790000D02*
X103000000Y-48520000D01*
X104270000Y-49790000D02*
X104270000Y-48520000D01*
X105540000Y-49790000D02*
X105540000Y-48520000D01*
X106810000Y-49790000D02*
X106810000Y-48520000D01*
X108080000Y-49790000D02*
X108080000Y-48520000D01*
X96650000Y-48520000D02*
X97920000Y-49790000D01*
X97920000Y-49790000D02*
X108080000Y-49790000D01*
X108080000Y-49790000D02*
X109350000Y-48520000D01*
X109350000Y-48520000D02*
X109350000Y-61220000D01*
X109350000Y-61220000D02*
X96650000Y-61220000D01*
X96650000Y-61220000D02*
X96650000Y-48520000D01*
X111890000Y-48520000D02*
X111890000Y-109480000D01*
X94110000Y-109480000D02*
X94110000Y-48520000D01*
X99190000Y-109480000D02*
X99190000Y-110750000D01*
X99190000Y-110750000D02*
X106810000Y-110750000D01*
X106810000Y-110750000D02*
X106810000Y-109480000D01*
X99190000Y-104400000D02*
X106810000Y-104400000D01*
X106810000Y-104400000D02*
X106810000Y-109480000D01*
X99190000Y-104400000D02*
X99190000Y-109480000D01*
X105540000Y-65030000D02*
X100460000Y-65030000D01*
X100460000Y-65030000D02*
X100460000Y-67570000D01*
X100460000Y-67570000D02*
X105540000Y-67570000D01*
X105540000Y-67570000D02*
X105540000Y-65030000D01*
X111890000Y-48520000D02*
X94110000Y-48520000D01*
X94110000Y-109480000D02*
X111890000Y-109480000D01*
D13*
G04 #@! TO.C,LED_R1*
X106100000Y-113420000D02*
X105100000Y-113420000D01*
X105100000Y-114780000D02*
X106100000Y-114780000D01*
G04 #@! TO.C,C5*
X120054000Y-93734000D02*
X120054000Y-92734000D01*
X121754000Y-92734000D02*
X121754000Y-93734000D01*
G04 #@! TO.C,LED_R2*
X109000000Y-111420000D02*
X108000000Y-111420000D01*
X108000000Y-112780000D02*
X109000000Y-112780000D01*
G04 #@! TO.C,LED_R3*
X113700000Y-112220000D02*
X112700000Y-112220000D01*
X112700000Y-113580000D02*
X113700000Y-113580000D01*
G04 #@! TO.C,LED_R4*
X113700000Y-110220000D02*
X112700000Y-110220000D01*
X112700000Y-111580000D02*
X113700000Y-111580000D01*
G04 #@! TO.C,R3*
X98180000Y-102651000D02*
X98180000Y-103851000D01*
X99940000Y-103851000D02*
X99940000Y-102651000D01*
G04 #@! TO.C,R4*
X101450000Y-109320000D02*
X100250000Y-109320000D01*
X100250000Y-111080000D02*
X101450000Y-111080000D01*
G04 #@! TO.C,R5*
X105380000Y-96350000D02*
X105380000Y-95150000D01*
X103620000Y-95150000D02*
X103620000Y-96350000D01*
G04 #@! TO.C,R14*
X120850000Y-83080000D02*
X122050000Y-83080000D01*
X122050000Y-81320000D02*
X120850000Y-81320000D01*
D12*
G04 #@! TO.C,U9*
X121050000Y-83895000D02*
X121050000Y-84550000D01*
X115550000Y-83895000D02*
X115550000Y-84645000D01*
X115550000Y-90305000D02*
X115550000Y-89555000D01*
X121050000Y-90305000D02*
X121050000Y-89555000D01*
X121050000Y-83895000D02*
X115550000Y-83895000D01*
X121050000Y-90305000D02*
X115550000Y-90305000D01*
X121050000Y-84550000D02*
X122800000Y-84550000D01*
G04 #@! TO.C,J2*
X126994480Y-96400620D02*
X126994480Y-91680620D01*
X122494480Y-96400620D02*
X122494480Y-91680620D01*
X126994480Y-91650620D02*
X122494480Y-91680620D01*
X126994480Y-96400620D02*
X122494480Y-96400620D01*
G04 #@! TO.C,U3*
X104354380Y-69596095D02*
X105163904Y-69596095D01*
X105259142Y-69643714D01*
X105306761Y-69691333D01*
X105354380Y-69786571D01*
X105354380Y-69977047D01*
X105306761Y-70072285D01*
X105259142Y-70119904D01*
X105163904Y-70167523D01*
X104354380Y-70167523D01*
X104354380Y-70548476D02*
X104354380Y-71167523D01*
X104735333Y-70834190D01*
X104735333Y-70977047D01*
X104782952Y-71072285D01*
X104830571Y-71119904D01*
X104925809Y-71167523D01*
X105163904Y-71167523D01*
X105259142Y-71119904D01*
X105306761Y-71072285D01*
X105354380Y-70977047D01*
X105354380Y-70691333D01*
X105306761Y-70596095D01*
X105259142Y-70548476D01*
G04 #@! TO.C,LED_R1*
X107600000Y-116002380D02*
X108076190Y-116002380D01*
X108076190Y-115002380D01*
X107266666Y-115478571D02*
X106933333Y-115478571D01*
X106790476Y-116002380D02*
X107266666Y-116002380D01*
X107266666Y-115002380D01*
X106790476Y-115002380D01*
X106361904Y-116002380D02*
X106361904Y-115002380D01*
X106123809Y-115002380D01*
X105980952Y-115050000D01*
X105885714Y-115145238D01*
X105838095Y-115240476D01*
X105790476Y-115430952D01*
X105790476Y-115573809D01*
X105838095Y-115764285D01*
X105885714Y-115859523D01*
X105980952Y-115954761D01*
X106123809Y-116002380D01*
X106361904Y-116002380D01*
X105600000Y-116097619D02*
X104838095Y-116097619D01*
X104028571Y-116002380D02*
X104361904Y-115526190D01*
X104600000Y-116002380D02*
X104600000Y-115002380D01*
X104219047Y-115002380D01*
X104123809Y-115050000D01*
X104076190Y-115097619D01*
X104028571Y-115192857D01*
X104028571Y-115335714D01*
X104076190Y-115430952D01*
X104123809Y-115478571D01*
X104219047Y-115526190D01*
X104600000Y-115526190D01*
X103076190Y-116002380D02*
X103647619Y-116002380D01*
X103361904Y-116002380D02*
X103361904Y-115002380D01*
X103457142Y-115145238D01*
X103552380Y-115240476D01*
X103647619Y-115288095D01*
G04 #@! TO.C,C5*
X119761142Y-93067333D02*
X119808761Y-93019714D01*
X119856380Y-92876857D01*
X119856380Y-92781619D01*
X119808761Y-92638761D01*
X119713523Y-92543523D01*
X119618285Y-92495904D01*
X119427809Y-92448285D01*
X119284952Y-92448285D01*
X119094476Y-92495904D01*
X118999238Y-92543523D01*
X118904000Y-92638761D01*
X118856380Y-92781619D01*
X118856380Y-92876857D01*
X118904000Y-93019714D01*
X118951619Y-93067333D01*
X118856380Y-93972095D02*
X118856380Y-93495904D01*
X119332571Y-93448285D01*
X119284952Y-93495904D01*
X119237333Y-93591142D01*
X119237333Y-93829238D01*
X119284952Y-93924476D01*
X119332571Y-93972095D01*
X119427809Y-94019714D01*
X119665904Y-94019714D01*
X119761142Y-93972095D01*
X119808761Y-93924476D01*
X119856380Y-93829238D01*
X119856380Y-93591142D01*
X119808761Y-93495904D01*
X119761142Y-93448285D01*
G04 #@! TO.C,LED_R2*
X106140000Y-112466380D02*
X106616190Y-112466380D01*
X106616190Y-111466380D01*
X105806666Y-111942571D02*
X105473333Y-111942571D01*
X105330476Y-112466380D02*
X105806666Y-112466380D01*
X105806666Y-111466380D01*
X105330476Y-111466380D01*
X104901904Y-112466380D02*
X104901904Y-111466380D01*
X104663809Y-111466380D01*
X104520952Y-111514000D01*
X104425714Y-111609238D01*
X104378095Y-111704476D01*
X104330476Y-111894952D01*
X104330476Y-112037809D01*
X104378095Y-112228285D01*
X104425714Y-112323523D01*
X104520952Y-112418761D01*
X104663809Y-112466380D01*
X104901904Y-112466380D01*
X104140000Y-112561619D02*
X103378095Y-112561619D01*
X102568571Y-112466380D02*
X102901904Y-111990190D01*
X103140000Y-112466380D02*
X103140000Y-111466380D01*
X102759047Y-111466380D01*
X102663809Y-111514000D01*
X102616190Y-111561619D01*
X102568571Y-111656857D01*
X102568571Y-111799714D01*
X102616190Y-111894952D01*
X102663809Y-111942571D01*
X102759047Y-111990190D01*
X103140000Y-111990190D01*
X102187619Y-111561619D02*
X102140000Y-111514000D01*
X102044761Y-111466380D01*
X101806666Y-111466380D01*
X101711428Y-111514000D01*
X101663809Y-111561619D01*
X101616190Y-111656857D01*
X101616190Y-111752095D01*
X101663809Y-111894952D01*
X102235238Y-112466380D01*
X101616190Y-112466380D01*
G04 #@! TO.C,LED_R3*
X115200000Y-114802380D02*
X115676190Y-114802380D01*
X115676190Y-113802380D01*
X114866666Y-114278571D02*
X114533333Y-114278571D01*
X114390476Y-114802380D02*
X114866666Y-114802380D01*
X114866666Y-113802380D01*
X114390476Y-113802380D01*
X113961904Y-114802380D02*
X113961904Y-113802380D01*
X113723809Y-113802380D01*
X113580952Y-113850000D01*
X113485714Y-113945238D01*
X113438095Y-114040476D01*
X113390476Y-114230952D01*
X113390476Y-114373809D01*
X113438095Y-114564285D01*
X113485714Y-114659523D01*
X113580952Y-114754761D01*
X113723809Y-114802380D01*
X113961904Y-114802380D01*
X113200000Y-114897619D02*
X112438095Y-114897619D01*
X111628571Y-114802380D02*
X111961904Y-114326190D01*
X112200000Y-114802380D02*
X112200000Y-113802380D01*
X111819047Y-113802380D01*
X111723809Y-113850000D01*
X111676190Y-113897619D01*
X111628571Y-113992857D01*
X111628571Y-114135714D01*
X111676190Y-114230952D01*
X111723809Y-114278571D01*
X111819047Y-114326190D01*
X112200000Y-114326190D01*
X111295238Y-113802380D02*
X110676190Y-113802380D01*
X111009523Y-114183333D01*
X110866666Y-114183333D01*
X110771428Y-114230952D01*
X110723809Y-114278571D01*
X110676190Y-114373809D01*
X110676190Y-114611904D01*
X110723809Y-114707142D01*
X110771428Y-114754761D01*
X110866666Y-114802380D01*
X111152380Y-114802380D01*
X111247619Y-114754761D01*
X111295238Y-114707142D01*
G04 #@! TO.C,LED_R4*
X117062000Y-109672380D02*
X117538190Y-109672380D01*
X117538190Y-108672380D01*
X116728666Y-109148571D02*
X116395333Y-109148571D01*
X116252476Y-109672380D02*
X116728666Y-109672380D01*
X116728666Y-108672380D01*
X116252476Y-108672380D01*
X115823904Y-109672380D02*
X115823904Y-108672380D01*
X115585809Y-108672380D01*
X115442952Y-108720000D01*
X115347714Y-108815238D01*
X115300095Y-108910476D01*
X115252476Y-109100952D01*
X115252476Y-109243809D01*
X115300095Y-109434285D01*
X115347714Y-109529523D01*
X115442952Y-109624761D01*
X115585809Y-109672380D01*
X115823904Y-109672380D01*
X115062000Y-109767619D02*
X114300095Y-109767619D01*
X113490571Y-109672380D02*
X113823904Y-109196190D01*
X114062000Y-109672380D02*
X114062000Y-108672380D01*
X113681047Y-108672380D01*
X113585809Y-108720000D01*
X113538190Y-108767619D01*
X113490571Y-108862857D01*
X113490571Y-109005714D01*
X113538190Y-109100952D01*
X113585809Y-109148571D01*
X113681047Y-109196190D01*
X114062000Y-109196190D01*
X112633428Y-109005714D02*
X112633428Y-109672380D01*
X112871523Y-108624761D02*
X113109619Y-109339047D01*
X112490571Y-109339047D01*
G04 #@! TO.C,R3*
X101162380Y-103084333D02*
X100686190Y-102751000D01*
X101162380Y-102512904D02*
X100162380Y-102512904D01*
X100162380Y-102893857D01*
X100210000Y-102989095D01*
X100257619Y-103036714D01*
X100352857Y-103084333D01*
X100495714Y-103084333D01*
X100590952Y-103036714D01*
X100638571Y-102989095D01*
X100686190Y-102893857D01*
X100686190Y-102512904D01*
X100162380Y-103417666D02*
X100162380Y-104036714D01*
X100543333Y-103703380D01*
X100543333Y-103846238D01*
X100590952Y-103941476D01*
X100638571Y-103989095D01*
X100733809Y-104036714D01*
X100971904Y-104036714D01*
X101067142Y-103989095D01*
X101114761Y-103941476D01*
X101162380Y-103846238D01*
X101162380Y-103560523D01*
X101114761Y-103465285D01*
X101067142Y-103417666D01*
G04 #@! TO.C,R4*
X98464666Y-110688380D02*
X98798000Y-110212190D01*
X99036095Y-110688380D02*
X99036095Y-109688380D01*
X98655142Y-109688380D01*
X98559904Y-109736000D01*
X98512285Y-109783619D01*
X98464666Y-109878857D01*
X98464666Y-110021714D01*
X98512285Y-110116952D01*
X98559904Y-110164571D01*
X98655142Y-110212190D01*
X99036095Y-110212190D01*
X97607523Y-110021714D02*
X97607523Y-110688380D01*
X97845619Y-109640761D02*
X98083714Y-110355047D01*
X97464666Y-110355047D01*
G04 #@! TO.C,R5*
X103302380Y-95583333D02*
X102826190Y-95250000D01*
X103302380Y-95011904D02*
X102302380Y-95011904D01*
X102302380Y-95392857D01*
X102350000Y-95488095D01*
X102397619Y-95535714D01*
X102492857Y-95583333D01*
X102635714Y-95583333D01*
X102730952Y-95535714D01*
X102778571Y-95488095D01*
X102826190Y-95392857D01*
X102826190Y-95011904D01*
X102302380Y-96488095D02*
X102302380Y-96011904D01*
X102778571Y-95964285D01*
X102730952Y-96011904D01*
X102683333Y-96107142D01*
X102683333Y-96345238D01*
X102730952Y-96440476D01*
X102778571Y-96488095D01*
X102873809Y-96535714D01*
X103111904Y-96535714D01*
X103207142Y-96488095D01*
X103254761Y-96440476D01*
X103302380Y-96345238D01*
X103302380Y-96107142D01*
X103254761Y-96011904D01*
X103207142Y-95964285D01*
G04 #@! TO.C,R14*
X122092857Y-81002380D02*
X122426190Y-80526190D01*
X122664285Y-81002380D02*
X122664285Y-80002380D01*
X122283333Y-80002380D01*
X122188095Y-80050000D01*
X122140476Y-80097619D01*
X122092857Y-80192857D01*
X122092857Y-80335714D01*
X122140476Y-80430952D01*
X122188095Y-80478571D01*
X122283333Y-80526190D01*
X122664285Y-80526190D01*
X121140476Y-81002380D02*
X121711904Y-81002380D01*
X121426190Y-81002380D02*
X121426190Y-80002380D01*
X121521428Y-80145238D01*
X121616666Y-80240476D01*
X121711904Y-80288095D01*
X120283333Y-80335714D02*
X120283333Y-81002380D01*
X120521428Y-79954761D02*
X120759523Y-80669047D01*
X120140476Y-80669047D01*
G04 #@! TO.C,U9*
X119061904Y-82422380D02*
X119061904Y-83231904D01*
X119014285Y-83327142D01*
X118966666Y-83374761D01*
X118871428Y-83422380D01*
X118680952Y-83422380D01*
X118585714Y-83374761D01*
X118538095Y-83327142D01*
X118490476Y-83231904D01*
X118490476Y-82422380D01*
X117966666Y-83422380D02*
X117776190Y-83422380D01*
X117680952Y-83374761D01*
X117633333Y-83327142D01*
X117538095Y-83184285D01*
X117490476Y-82993809D01*
X117490476Y-82612857D01*
X117538095Y-82517619D01*
X117585714Y-82470000D01*
X117680952Y-82422380D01*
X117871428Y-82422380D01*
X117966666Y-82470000D01*
X118014285Y-82517619D01*
X118061904Y-82612857D01*
X118061904Y-82850952D01*
X118014285Y-82946190D01*
X117966666Y-82993809D01*
X117871428Y-83041428D01*
X117680952Y-83041428D01*
X117585714Y-82993809D01*
X117538095Y-82946190D01*
X117490476Y-82850952D01*
G04 #@! TO.C,J2*
X125327813Y-89853000D02*
X125327813Y-90567286D01*
X125375432Y-90710143D01*
X125470670Y-90805381D01*
X125613527Y-90853000D01*
X125708765Y-90853000D01*
X124899241Y-89948239D02*
X124851622Y-89900620D01*
X124756384Y-89853000D01*
X124518289Y-89853000D01*
X124423051Y-89900620D01*
X124375432Y-89948239D01*
X124327813Y-90043477D01*
X124327813Y-90138715D01*
X124375432Y-90281572D01*
X124946860Y-90853000D01*
X124327813Y-90853000D01*
G04 #@! TD*
M02*
