G04 #@! TF.GenerationSoftware,KiCad,Pcbnew,(5.0.1)-rc2*
G04 #@! TF.CreationDate,2018-11-18T17:10:58-07:00*
G04 #@! TF.ProjectId,RPI_zeroW_shield,5250495F7A65726F575F736869656C64,rev?*
G04 #@! TF.SameCoordinates,Original*
G04 #@! TF.FileFunction,Copper,L1,Top,Signal*
G04 #@! TF.FilePolarity,Positive*
%FSLAX46Y46*%
G04 Gerber Fmt 4.6, Leading zero omitted, Abs format (unit mm)*
G04 Created by KiCad (PCBNEW (5.0.1)-rc2) date 11/18/2018 5:10:58 PM*
%MOMM*%
%LPD*%
G01*
G04 APERTURE LIST*
G04 #@! TA.AperFunction,ComponentPad*
%ADD10C,2.500000*%
G04 #@! TD*
G04 #@! TA.AperFunction,ComponentPad*
%ADD11C,3.000000*%
G04 #@! TD*
G04 #@! TA.AperFunction,ComponentPad*
%ADD12O,1.050000X1.500000*%
G04 #@! TD*
G04 #@! TA.AperFunction,ComponentPad*
%ADD13R,1.050000X1.500000*%
G04 #@! TD*
G04 #@! TA.AperFunction,SMDPad,CuDef*
%ADD14R,1.597660X1.798320*%
G04 #@! TD*
G04 #@! TA.AperFunction,ComponentPad*
%ADD15R,1.700000X1.700000*%
G04 #@! TD*
G04 #@! TA.AperFunction,ComponentPad*
%ADD16O,1.700000X1.700000*%
G04 #@! TD*
G04 #@! TA.AperFunction,ComponentPad*
%ADD17R,1.700000X1.600000*%
G04 #@! TD*
G04 #@! TA.AperFunction,ComponentPad*
%ADD18C,1.600000*%
G04 #@! TD*
G04 #@! TA.AperFunction,Conductor*
%ADD19C,0.250000*%
G04 #@! TD*
G04 #@! TA.AperFunction,Conductor*
%ADD20C,0.500000*%
G04 #@! TD*
G04 APERTURE END LIST*
D10*
G04 #@! TO.P,K1,2*
G04 #@! TO.N,/5v_IN*
X121330000Y-79710000D03*
D11*
G04 #@! TO.P,K1,3*
G04 #@! TO.N,Net-(J3-Pad2)*
X133530000Y-79710000D03*
G04 #@! TO.P,K1,4*
G04 #@! TO.N,GND*
X133580000Y-67660000D03*
D10*
G04 #@! TO.P,K1,5*
G04 #@! TO.N,Net-(D1-Pad1)*
X121330000Y-67710000D03*
D11*
G04 #@! TO.P,K1,1*
G04 #@! TO.N,/5v_IN*
X119380000Y-73660000D03*
G04 #@! TD*
D12*
G04 #@! TO.P,Q1,2*
G04 #@! TO.N,Net-(Q1-Pad2)*
X127000000Y-63500000D03*
G04 #@! TO.P,Q1,3*
G04 #@! TO.N,GND*
X128270000Y-63500000D03*
D13*
G04 #@! TO.P,Q1,1*
G04 #@! TO.N,Net-(D1-Pad1)*
X125730000Y-63500000D03*
G04 #@! TD*
D14*
G04 #@! TO.P,R1,2*
G04 #@! TO.N,/Relay_P3*
X119380000Y-63500000D03*
G04 #@! TO.P,R1,1*
G04 #@! TO.N,Net-(Q1-Pad2)*
X122179080Y-63500000D03*
G04 #@! TD*
D15*
G04 #@! TO.P,J1,1*
G04 #@! TO.N,/5v_IN*
X121920000Y-55880000D03*
D16*
G04 #@! TO.P,J1,2*
G04 #@! TO.N,N/C*
X124460000Y-55880000D03*
G04 #@! TD*
D15*
G04 #@! TO.P,J2,1*
G04 #@! TO.N,/3V3_IN*
X119380000Y-58420000D03*
D16*
G04 #@! TO.P,J2,2*
G04 #@! TO.N,/ServoPWM_P2*
X121920000Y-58420000D03*
G04 #@! TO.P,J2,3*
G04 #@! TO.N,/Relay_P3*
X124460000Y-58420000D03*
G04 #@! TO.P,J2,4*
G04 #@! TO.N,/Button_P4*
X127000000Y-58420000D03*
G04 #@! TO.P,J2,5*
G04 #@! TO.N,GND*
X129540000Y-58420000D03*
G04 #@! TO.P,J2,6*
G04 #@! TO.N,/Reed_P17*
X132080000Y-58420000D03*
G04 #@! TD*
D17*
G04 #@! TO.P,J3,1*
G04 #@! TO.N,GND*
X136144000Y-63500000D03*
D18*
G04 #@! TO.P,J3,2*
G04 #@! TO.N,Net-(J3-Pad2)*
X138684000Y-63500000D03*
G04 #@! TO.P,J3,3*
G04 #@! TO.N,/ServoPWM_P2*
X141224000Y-63500000D03*
G04 #@! TD*
D16*
G04 #@! TO.P,J4,2*
G04 #@! TO.N,/Reed_P17*
X141224000Y-69088000D03*
D15*
G04 #@! TO.P,J4,1*
G04 #@! TO.N,/3V3_IN*
X141224000Y-71628000D03*
G04 #@! TD*
G04 #@! TO.P,J5,1*
G04 #@! TO.N,/3V3_IN*
X141025001Y-80264000D03*
D16*
G04 #@! TO.P,J5,2*
G04 #@! TO.N,/Button_P4*
X141025001Y-77724000D03*
G04 #@! TD*
D19*
G04 #@! TO.N,Net-(D1-Pad1)*
X121745000Y-67710000D02*
X121330000Y-67710000D01*
X125730000Y-63725000D02*
X121745000Y-67710000D01*
X125730000Y-63500000D02*
X125730000Y-63725000D01*
D20*
G04 #@! TO.N,GND*
X134620000Y-63500000D02*
X129540000Y-58420000D01*
X136144000Y-63500000D02*
X134620000Y-63500000D01*
D19*
X128270000Y-59690000D02*
X129540000Y-58420000D01*
X128270000Y-63500000D02*
X128270000Y-59690000D01*
G04 #@! TO.N,/3V3_IN*
X141224000Y-72728000D02*
X141224000Y-71628000D01*
X142200002Y-73704002D02*
X141224000Y-72728000D01*
X142200002Y-78288001D02*
X142200002Y-73704002D01*
X141025001Y-79463002D02*
X142200002Y-78288001D01*
X141025001Y-80264000D02*
X141025001Y-79463002D01*
G04 #@! TO.N,/Relay_P3*
X123610001Y-59269999D02*
X124460000Y-58420000D01*
X123284999Y-59595001D02*
X123610001Y-59269999D01*
X122135839Y-59595001D02*
X123284999Y-59595001D01*
X119380000Y-62350840D02*
X122135839Y-59595001D01*
X119380000Y-63500000D02*
X119380000Y-62350840D01*
D20*
G04 #@! TO.N,Net-(J3-Pad2)*
X135029999Y-78210001D02*
X133530000Y-79710000D01*
X136144000Y-77216000D02*
X135029999Y-78210001D01*
X136144000Y-66548000D02*
X136144000Y-77216000D01*
X138684000Y-63500000D02*
X138684000Y-64702081D01*
X138684000Y-64702081D02*
X136144000Y-66548000D01*
D19*
G04 #@! TO.N,Net-(Q1-Pad2)*
X122179080Y-63399670D02*
X124460000Y-61118750D01*
X122179080Y-63500000D02*
X122179080Y-63399670D01*
X124460000Y-61118750D02*
X126841250Y-61118750D01*
X127000000Y-61277500D02*
X127000000Y-63500000D01*
X126841250Y-61118750D02*
X127000000Y-61277500D01*
G04 #@! TD*
M02*
