M48
;DRILL file {KiCad (5.0.1)-rc2} date 11/18/2018 5:11:07 PM
;FORMAT={-:-/ absolute / metric / decimal}
FMAT,2
METRIC,TZ
T1C0.750
T2C1.000
T3C1.100
T4C1.300
%
G90
G05
M71
T1
X125.73Y-63.5
X127.Y-63.5
X128.27Y-63.5
T2
X141.025Y-77.724
X141.025Y-80.264
X121.33Y-67.71
X121.33Y-79.71
X119.38Y-58.42
X121.92Y-58.42
X124.46Y-58.42
X127.Y-58.42
X129.54Y-58.42
X132.08Y-58.42
X121.92Y-55.88
X124.46Y-55.88
X141.224Y-69.088
X141.224Y-71.628
T3
X136.144Y-63.5
X138.684Y-63.5
X141.224Y-63.5
T4
X119.38Y-73.66
X133.53Y-79.71
X133.58Y-67.66
T0
M30
