M48
;DRILL file {KiCad (5.0.0)} date 08/08/18 00:15:10
;FORMAT={-:-/ absolute / inch / decimal}
FMAT,2
INCH,TZ
T1C0.0118
T2C0.0394
T3C0.0400
T4C0.0433
%
G90
G05
M72
T1
X3.82Y-3.54
X3.82Y-4.07
X3.8268Y-2.5433
X3.8396Y-3.0204
X3.85Y-2.6
X3.85Y-2.85
X3.878Y-3.5906
X3.91Y-3.52
X3.9685Y-4.063
X3.9764Y-4.2717
X3.9843Y-4.189
X4.03Y-2.36
X4.03Y-2.6
X4.05Y-4.35
X4.07Y-2.56
X4.07Y-3.67
X4.1063Y-3.4341
X4.16Y-2.99
X4.18Y-3.53
X4.1811Y-4.2756
X4.26Y-4.46
X4.34Y-2.97
X4.3583Y-4.4528
X4.42Y-2.74
X4.4606Y-4.128
X4.47Y-2.42
X4.47Y-4.324
X4.5Y-3.26
X4.5039Y-4.5591
X4.518Y-4.1962
X4.52Y-2.36
X4.53Y-3.93
X4.5402Y-4.4199
X4.56Y-2.86
X4.5641Y-3.3902
X4.61Y-4.12
X4.6126Y-2.41
X4.66Y-3.34
X4.67Y-4.05
X4.67Y-4.2
X4.68Y-4.34
X4.71Y-3.22
X4.71Y-3.55
X4.748Y-3.4016
X4.7953Y-3.5433
X4.84Y-2.94
X4.8908Y-3.6651
X5.0299Y-3.98
T2
X4.945Y-3.315
X4.945Y-3.415
X4.945Y-3.515
X3.88Y-1.97
X3.88Y-2.07
X3.88Y-2.17
X4.65Y-2.16
X4.65Y-2.26
X4.65Y-2.36
X4.65Y-2.46
X4.65Y-2.56
X4.65Y-2.66
X4.65Y-2.76
X4.65Y-2.86
T3
X4.49Y-1.98
X4.59Y-1.98
X4.69Y-1.98
X4.79Y-1.98
X4.89Y-1.98
X4.99Y-1.98
T4
X4.02Y-1.97
X4.02Y-2.07
X4.02Y-2.17
X4.02Y-2.27
X3.7551Y-1.9602
X3.7551Y-2.0602
X3.7551Y-2.2602
X3.7551Y-2.3602
X3.7551Y-2.4602
X3.7551Y-2.5602
X3.7551Y-2.6602
X3.7551Y-2.8602
X3.7551Y-3.0602
X3.7551Y-3.1602
X3.7551Y-3.2602
X3.7551Y-3.3602
X3.7551Y-3.4602
X3.7551Y-3.5602
X3.7551Y-3.6602
X3.7551Y-3.7602
X3.7551Y-3.8602
X3.7551Y-3.9602
X3.7551Y-4.0602
X3.7551Y-4.1602
X3.7551Y-4.2602
X4.2551Y-4.1602
X4.3551Y-1.9602
X4.3551Y-2.0602
X4.3551Y-2.1602
X4.3551Y-2.3602
X4.3551Y-2.4602
X4.3551Y-2.5602
X4.3551Y-2.8602
X4.3551Y-3.4602
X4.3551Y-3.5602
X4.3551Y-3.6602
X4.3551Y-3.7602
X4.3551Y-3.8602
X4.3551Y-3.9602
X4.3551Y-4.0602
X4.3551Y-4.2602
X3.93Y-2.42
X3.93Y-2.52
X3.93Y-2.62
X3.93Y-2.72
X3.93Y-2.82
X3.93Y-2.92
X3.93Y-3.02
X3.93Y-3.12
X4.971Y-2.224
X4.971Y-2.324
X4.971Y-2.424
T0
M30
