G04 #@! TF.GenerationSoftware,KiCad,Pcbnew,(5.0.1)-rc2*
G04 #@! TF.CreationDate,2018-11-18T21:24:52-07:00*
G04 #@! TF.ProjectId,GPSLogger,4750534C6F676765722E6B696361645F,rev?*
G04 #@! TF.SameCoordinates,Original*
G04 #@! TF.FileFunction,Legend,Top*
G04 #@! TF.FilePolarity,Positive*
%FSLAX46Y46*%
G04 Gerber Fmt 4.6, Leading zero omitted, Abs format (unit mm)*
G04 Created by KiCad (PCBNEW (5.0.1)-rc2) date 11/18/2018 9:24:52 PM*
%MOMM*%
%LPD*%
G01*
G04 APERTURE LIST*
%ADD10C,0.150000*%
%ADD11C,0.120000*%
%ADD12C,0.203200*%
%ADD13C,0.152400*%
%ADD14C,0.127000*%
G04 APERTURE END LIST*
D10*
G04 #@! TO.C,J7*
X139192000Y-87836000D02*
X139192000Y-84836000D01*
X133192000Y-87836000D02*
X139192000Y-87836000D01*
X133192000Y-84836000D02*
X133192000Y-87836000D01*
X139192000Y-84836000D02*
X133192000Y-84836000D01*
D11*
G04 #@! TO.C,C2*
X138200500Y-73001000D02*
X138200500Y-72001000D01*
X136500500Y-72001000D02*
X136500500Y-73001000D01*
G04 #@! TO.C,C3*
X155567000Y-78066000D02*
X156567000Y-78066000D01*
X156567000Y-76366000D02*
X155567000Y-76366000D01*
G04 #@! TO.C,C4*
X155868000Y-62698500D02*
X155868000Y-63698500D01*
X157568000Y-63698500D02*
X157568000Y-62698500D01*
G04 #@! TO.C,C6*
X160409000Y-66572500D02*
X161409000Y-66572500D01*
X161409000Y-64872500D02*
X160409000Y-64872500D01*
G04 #@! TO.C,D1*
X145309000Y-92137000D02*
X148109000Y-92137000D01*
X145309000Y-93537000D02*
X148109000Y-93537000D01*
X145309000Y-92137000D02*
X145309000Y-93537000D01*
G04 #@! TO.C,D2*
X140821000Y-92073500D02*
X143621000Y-92073500D01*
X140821000Y-93473500D02*
X143621000Y-93473500D01*
X140821000Y-92073500D02*
X140821000Y-93473500D01*
G04 #@! TO.C,D3*
X145266000Y-89216000D02*
X148066000Y-89216000D01*
X145266000Y-90616000D02*
X148066000Y-90616000D01*
X145266000Y-89216000D02*
X145266000Y-90616000D01*
G04 #@! TO.C,D4*
X140948000Y-89216000D02*
X140948000Y-90616000D01*
X140948000Y-90616000D02*
X143748000Y-90616000D01*
X140948000Y-89216000D02*
X143748000Y-89216000D01*
G04 #@! TO.C,D5*
X155573500Y-46039000D02*
X156973500Y-46039000D01*
X156973500Y-46039000D02*
X156973500Y-43239000D01*
X155573500Y-46039000D02*
X155573500Y-43239000D01*
D12*
G04 #@! TO.C,J1*
X139636500Y-29718000D02*
X139001500Y-29083000D01*
X139001500Y-29083000D02*
X139001500Y-27813000D01*
X139001500Y-27813000D02*
X139636500Y-27178000D01*
X140906500Y-27178000D02*
X141541500Y-27813000D01*
X141541500Y-27813000D02*
X141541500Y-29083000D01*
X141541500Y-29083000D02*
X140906500Y-29718000D01*
X139001500Y-34163000D02*
X139001500Y-32893000D01*
X139001500Y-32893000D02*
X139636500Y-32258000D01*
X140906500Y-32258000D02*
X141541500Y-32893000D01*
X139636500Y-32258000D02*
X139001500Y-31623000D01*
X139001500Y-31623000D02*
X139001500Y-30353000D01*
X139001500Y-30353000D02*
X139636500Y-29718000D01*
X140906500Y-29718000D02*
X141541500Y-30353000D01*
X141541500Y-30353000D02*
X141541500Y-31623000D01*
X141541500Y-31623000D02*
X140906500Y-32258000D01*
X139636500Y-34798000D02*
X140906500Y-34798000D01*
X139001500Y-34163000D02*
X139636500Y-34798000D01*
X140906500Y-34798000D02*
X141541500Y-34163000D01*
X141541500Y-32893000D02*
X141541500Y-34163000D01*
X139636500Y-27178000D02*
X140906500Y-27178000D01*
G04 #@! TO.C,J3*
X160401000Y-30734000D02*
X161671000Y-30734000D01*
X162306000Y-36449000D02*
X162306000Y-37719000D01*
X161671000Y-38354000D02*
X162306000Y-37719000D01*
X159766000Y-37719000D02*
X160401000Y-38354000D01*
X160401000Y-38354000D02*
X161671000Y-38354000D01*
X162306000Y-35179000D02*
X161671000Y-35814000D01*
X162306000Y-33909000D02*
X162306000Y-35179000D01*
X161671000Y-33274000D02*
X162306000Y-33909000D01*
X159766000Y-33909000D02*
X160401000Y-33274000D01*
X159766000Y-35179000D02*
X159766000Y-33909000D01*
X160401000Y-35814000D02*
X159766000Y-35179000D01*
X161671000Y-35814000D02*
X162306000Y-36449000D01*
X159766000Y-36449000D02*
X160401000Y-35814000D01*
X159766000Y-37719000D02*
X159766000Y-36449000D01*
X162306000Y-32639000D02*
X161671000Y-33274000D01*
X162306000Y-31369000D02*
X162306000Y-32639000D01*
X161671000Y-30734000D02*
X162306000Y-31369000D01*
X159766000Y-31369000D02*
X160401000Y-30734000D01*
X159766000Y-32639000D02*
X159766000Y-31369000D01*
X160401000Y-33274000D02*
X159766000Y-32639000D01*
G04 #@! TO.C,J4*
X152146000Y-50927000D02*
X152146000Y-49657000D01*
X152781000Y-49022000D02*
X152146000Y-49657000D01*
X154686000Y-49657000D02*
X154051000Y-49022000D01*
X152781000Y-51562000D02*
X152146000Y-50927000D01*
X154051000Y-51562000D02*
X152781000Y-51562000D01*
X154686000Y-50927000D02*
X154051000Y-51562000D01*
X154686000Y-49657000D02*
X154686000Y-50927000D01*
X152146000Y-33147000D02*
X152146000Y-31877000D01*
X152781000Y-31242000D02*
X152146000Y-31877000D01*
X154686000Y-31877000D02*
X154051000Y-31242000D01*
X154051000Y-31242000D02*
X152781000Y-31242000D01*
X152146000Y-34417000D02*
X152781000Y-33782000D01*
X152146000Y-35687000D02*
X152146000Y-34417000D01*
X152781000Y-36322000D02*
X152146000Y-35687000D01*
X154686000Y-35687000D02*
X154051000Y-36322000D01*
X154686000Y-34417000D02*
X154686000Y-35687000D01*
X154051000Y-33782000D02*
X154686000Y-34417000D01*
X152781000Y-33782000D02*
X152146000Y-33147000D01*
X154686000Y-33147000D02*
X154051000Y-33782000D01*
X154686000Y-31877000D02*
X154686000Y-33147000D01*
X152146000Y-40767000D02*
X152146000Y-39497000D01*
X152781000Y-38862000D02*
X152146000Y-39497000D01*
X154686000Y-39497000D02*
X154051000Y-38862000D01*
X152146000Y-36957000D02*
X152781000Y-36322000D01*
X152146000Y-38227000D02*
X152146000Y-36957000D01*
X152781000Y-38862000D02*
X152146000Y-38227000D01*
X154686000Y-38227000D02*
X154051000Y-38862000D01*
X154686000Y-36957000D02*
X154686000Y-38227000D01*
X154051000Y-36322000D02*
X154686000Y-36957000D01*
X152146000Y-42037000D02*
X152781000Y-41402000D01*
X152146000Y-43307000D02*
X152146000Y-42037000D01*
X152781000Y-43942000D02*
X152146000Y-43307000D01*
X154686000Y-43307000D02*
X154051000Y-43942000D01*
X154686000Y-42037000D02*
X154686000Y-43307000D01*
X154051000Y-41402000D02*
X154686000Y-42037000D01*
X152781000Y-41402000D02*
X152146000Y-40767000D01*
X154686000Y-40767000D02*
X154051000Y-41402000D01*
X154686000Y-39497000D02*
X154686000Y-40767000D01*
X152146000Y-48387000D02*
X152146000Y-47117000D01*
X152781000Y-46482000D02*
X152146000Y-47117000D01*
X154686000Y-47117000D02*
X154051000Y-46482000D01*
X152146000Y-44577000D02*
X152781000Y-43942000D01*
X152146000Y-45847000D02*
X152146000Y-44577000D01*
X152781000Y-46482000D02*
X152146000Y-45847000D01*
X154686000Y-45847000D02*
X154051000Y-46482000D01*
X154686000Y-44577000D02*
X154686000Y-45847000D01*
X154051000Y-43942000D02*
X154686000Y-44577000D01*
X152781000Y-49022000D02*
X152146000Y-48387000D01*
X154686000Y-48387000D02*
X154051000Y-49022000D01*
X154686000Y-47117000D02*
X154686000Y-48387000D01*
D10*
G04 #@! TO.C,J5*
X133096000Y-94996000D02*
X139096000Y-94996000D01*
X139096000Y-94996000D02*
X139096000Y-91996000D01*
X139096000Y-91996000D02*
X133096000Y-91996000D01*
X133096000Y-91996000D02*
X133096000Y-94996000D01*
G04 #@! TO.C,J6*
X139192000Y-88392000D02*
X133192000Y-88392000D01*
X133192000Y-88392000D02*
X133192000Y-91392000D01*
X133192000Y-91392000D02*
X139192000Y-91392000D01*
X139192000Y-91392000D02*
X139192000Y-88392000D01*
G04 #@! TO.C,J8*
X139192000Y-84280000D02*
X139192000Y-81280000D01*
X133192000Y-84280000D02*
X139192000Y-84280000D01*
X133192000Y-81280000D02*
X133192000Y-84280000D01*
X139192000Y-81280000D02*
X133192000Y-81280000D01*
D12*
G04 #@! TO.C,J9*
X160909000Y-59182000D02*
X160274000Y-58547000D01*
X160274000Y-58547000D02*
X160274000Y-57277000D01*
X160274000Y-57277000D02*
X160909000Y-56642000D01*
X162179000Y-56642000D02*
X162814000Y-57277000D01*
X162814000Y-57277000D02*
X162814000Y-58547000D01*
X162814000Y-58547000D02*
X162179000Y-59182000D01*
X160274000Y-63627000D02*
X160274000Y-62357000D01*
X160274000Y-62357000D02*
X160909000Y-61722000D01*
X162179000Y-61722000D02*
X162814000Y-62357000D01*
X160909000Y-61722000D02*
X160274000Y-61087000D01*
X160274000Y-61087000D02*
X160274000Y-59817000D01*
X160274000Y-59817000D02*
X160909000Y-59182000D01*
X162179000Y-59182000D02*
X162814000Y-59817000D01*
X162814000Y-59817000D02*
X162814000Y-61087000D01*
X162814000Y-61087000D02*
X162179000Y-61722000D01*
X160909000Y-64262000D02*
X162179000Y-64262000D01*
X160274000Y-63627000D02*
X160909000Y-64262000D01*
X162179000Y-64262000D02*
X162814000Y-63627000D01*
X162814000Y-62357000D02*
X162814000Y-63627000D01*
X160909000Y-56642000D02*
X162179000Y-56642000D01*
D13*
G04 #@! TO.C,JP2*
X160401000Y-43116500D02*
X160401000Y-41389300D01*
X160655000Y-43370500D02*
X162179000Y-43370500D01*
X160655000Y-41135300D02*
X162179000Y-41135300D01*
X162433000Y-41389300D02*
X162433000Y-43116500D01*
X162179000Y-43370500D02*
G75*
G03X162433000Y-43116500I0J254000D01*
G01*
X162433000Y-41389300D02*
G75*
G03X162179000Y-41135300I-254000J0D01*
G01*
X160655000Y-41135300D02*
G75*
G03X160401000Y-41389300I0J-254000D01*
G01*
X160401000Y-43116500D02*
G75*
G03X160655000Y-43370500I254000J0D01*
G01*
D11*
G04 #@! TO.C,R1*
X151415000Y-66602500D02*
X150215000Y-66602500D01*
X150215000Y-64842500D02*
X151415000Y-64842500D01*
G04 #@! TO.C,R9*
X154359500Y-53375000D02*
X154359500Y-54575000D01*
X152599500Y-54575000D02*
X152599500Y-53375000D01*
G04 #@! TO.C,R10*
X161027000Y-74899000D02*
X161027000Y-76099000D01*
X159267000Y-76099000D02*
X159267000Y-74899000D01*
G04 #@! TO.C,R12*
X155549000Y-73351500D02*
X156749000Y-73351500D01*
X156749000Y-75111500D02*
X155549000Y-75111500D01*
G04 #@! TO.C,R13*
X158336500Y-40758000D02*
X157136500Y-40758000D01*
X157136500Y-38998000D02*
X158336500Y-38998000D01*
G04 #@! TO.C,R17*
X154296000Y-62707000D02*
X154296000Y-63907000D01*
X152536000Y-63907000D02*
X152536000Y-62707000D01*
G04 #@! TO.C,TH1*
X160116000Y-49602500D02*
X161316000Y-49602500D01*
X161316000Y-51362500D02*
X160116000Y-51362500D01*
D12*
G04 #@! TO.C,U4*
X136144000Y-35306000D02*
X136144000Y-36576000D01*
X136144000Y-36576000D02*
X135509000Y-37211000D01*
X134239000Y-37211000D02*
X133604000Y-36576000D01*
X135509000Y-32131000D02*
X136144000Y-32766000D01*
X136144000Y-32766000D02*
X136144000Y-34036000D01*
X136144000Y-34036000D02*
X135509000Y-34671000D01*
X134239000Y-34671000D02*
X133604000Y-34036000D01*
X133604000Y-34036000D02*
X133604000Y-32766000D01*
X133604000Y-32766000D02*
X134239000Y-32131000D01*
X136144000Y-35306000D02*
X135509000Y-34671000D01*
X134239000Y-34671000D02*
X133604000Y-35306000D01*
X133604000Y-36576000D02*
X133604000Y-35306000D01*
X136144000Y-27686000D02*
X136144000Y-28956000D01*
X136144000Y-28956000D02*
X135509000Y-29591000D01*
X134239000Y-29591000D02*
X133604000Y-28956000D01*
X135509000Y-29591000D02*
X136144000Y-30226000D01*
X136144000Y-30226000D02*
X136144000Y-31496000D01*
X136144000Y-31496000D02*
X135509000Y-32131000D01*
X134239000Y-32131000D02*
X133604000Y-31496000D01*
X133604000Y-31496000D02*
X133604000Y-30226000D01*
X133604000Y-30226000D02*
X134239000Y-29591000D01*
X135509000Y-27051000D02*
X134239000Y-27051000D01*
X136144000Y-27686000D02*
X135509000Y-27051000D01*
X134239000Y-27051000D02*
X133604000Y-27686000D01*
X133604000Y-28956000D02*
X133604000Y-27686000D01*
X135509000Y-37211000D02*
X134239000Y-37211000D01*
D13*
G04 #@! TO.C,U6*
X157213000Y-52298001D02*
X159387999Y-52298001D01*
X158413000Y-55397999D02*
X159387999Y-55397999D01*
G04 #@! TO.C,U7*
X151923999Y-60378000D02*
X152124001Y-60378000D01*
X155723999Y-60378000D02*
X155924001Y-60378000D01*
X155723999Y-57478000D02*
X155924001Y-57478000D01*
X151823999Y-57478000D02*
X152524000Y-57478000D01*
D10*
G04 #@! TO.C,U3*
X133350000Y-62484000D02*
X133350000Y-41484000D01*
X133350000Y-41402000D02*
X149606000Y-41402000D01*
X149606000Y-41484000D02*
X149606000Y-62484000D01*
X149550000Y-62484000D02*
X133350000Y-62484000D01*
G04 #@! TO.C,U5*
X153543000Y-71628000D02*
X154051000Y-71628000D01*
X153543000Y-72898000D02*
X153543000Y-71628000D01*
X154051000Y-72898000D02*
X153543000Y-72898000D01*
X154051000Y-69850000D02*
X154051000Y-74422000D01*
X148971000Y-69850000D02*
X154051000Y-69850000D01*
X148971000Y-74422000D02*
X148971000Y-69850000D01*
X154051000Y-74422000D02*
X148971000Y-74422000D01*
X153797000Y-70358000D02*
G75*
G03X153797000Y-70358000I-254000J0D01*
G01*
G04 #@! TO.C,U1*
X160528000Y-80996000D02*
X150928000Y-80996000D01*
X150928000Y-80996000D02*
X150928000Y-94996000D01*
X160528000Y-94996000D02*
X160528000Y-80996000D01*
X160528000Y-94996000D02*
X150928000Y-94996000D01*
D11*
G04 #@! TO.C,U9*
X159159500Y-71007500D02*
X159159500Y-71232500D01*
X157459500Y-71007500D02*
X157459500Y-71232500D01*
X158009500Y-71982500D02*
X158609500Y-71982500D01*
X158009500Y-68732500D02*
X158609500Y-68732500D01*
G04 #@! TO.C,J7*
D10*
X140636666Y-85812380D02*
X140636666Y-86526666D01*
X140589047Y-86669523D01*
X140493809Y-86764761D01*
X140350952Y-86812380D01*
X140255714Y-86812380D01*
X141017619Y-85812380D02*
X141684285Y-85812380D01*
X141255714Y-86812380D01*
G04 #@! TO.C,C2*
X136207642Y-72667666D02*
X136255261Y-72715285D01*
X136302880Y-72858142D01*
X136302880Y-72953380D01*
X136255261Y-73096238D01*
X136160023Y-73191476D01*
X136064785Y-73239095D01*
X135874309Y-73286714D01*
X135731452Y-73286714D01*
X135540976Y-73239095D01*
X135445738Y-73191476D01*
X135350500Y-73096238D01*
X135302880Y-72953380D01*
X135302880Y-72858142D01*
X135350500Y-72715285D01*
X135398119Y-72667666D01*
X135398119Y-72286714D02*
X135350500Y-72239095D01*
X135302880Y-72143857D01*
X135302880Y-71905761D01*
X135350500Y-71810523D01*
X135398119Y-71762904D01*
X135493357Y-71715285D01*
X135588595Y-71715285D01*
X135731452Y-71762904D01*
X136302880Y-72334333D01*
X136302880Y-71715285D01*
G04 #@! TO.C,C3*
X152868333Y-78208142D02*
X152820714Y-78255761D01*
X152677857Y-78303380D01*
X152582619Y-78303380D01*
X152439761Y-78255761D01*
X152344523Y-78160523D01*
X152296904Y-78065285D01*
X152249285Y-77874809D01*
X152249285Y-77731952D01*
X152296904Y-77541476D01*
X152344523Y-77446238D01*
X152439761Y-77351000D01*
X152582619Y-77303380D01*
X152677857Y-77303380D01*
X152820714Y-77351000D01*
X152868333Y-77398619D01*
X153201666Y-77303380D02*
X153820714Y-77303380D01*
X153487380Y-77684333D01*
X153630238Y-77684333D01*
X153725476Y-77731952D01*
X153773095Y-77779571D01*
X153820714Y-77874809D01*
X153820714Y-78112904D01*
X153773095Y-78208142D01*
X153725476Y-78255761D01*
X153630238Y-78303380D01*
X153344523Y-78303380D01*
X153249285Y-78255761D01*
X153201666Y-78208142D01*
G04 #@! TO.C,C4*
X157075142Y-66841666D02*
X157122761Y-66889285D01*
X157170380Y-67032142D01*
X157170380Y-67127380D01*
X157122761Y-67270238D01*
X157027523Y-67365476D01*
X156932285Y-67413095D01*
X156741809Y-67460714D01*
X156598952Y-67460714D01*
X156408476Y-67413095D01*
X156313238Y-67365476D01*
X156218000Y-67270238D01*
X156170380Y-67127380D01*
X156170380Y-67032142D01*
X156218000Y-66889285D01*
X156265619Y-66841666D01*
X156503714Y-65984523D02*
X157170380Y-65984523D01*
X156122761Y-66222619D02*
X156837047Y-66460714D01*
X156837047Y-65841666D01*
G04 #@! TO.C,C6*
X160742333Y-67579642D02*
X160694714Y-67627261D01*
X160551857Y-67674880D01*
X160456619Y-67674880D01*
X160313761Y-67627261D01*
X160218523Y-67532023D01*
X160170904Y-67436785D01*
X160123285Y-67246309D01*
X160123285Y-67103452D01*
X160170904Y-66912976D01*
X160218523Y-66817738D01*
X160313761Y-66722500D01*
X160456619Y-66674880D01*
X160551857Y-66674880D01*
X160694714Y-66722500D01*
X160742333Y-66770119D01*
X161599476Y-66674880D02*
X161409000Y-66674880D01*
X161313761Y-66722500D01*
X161266142Y-66770119D01*
X161170904Y-66912976D01*
X161123285Y-67103452D01*
X161123285Y-67484404D01*
X161170904Y-67579642D01*
X161218523Y-67627261D01*
X161313761Y-67674880D01*
X161504238Y-67674880D01*
X161599476Y-67627261D01*
X161647095Y-67579642D01*
X161694714Y-67484404D01*
X161694714Y-67246309D01*
X161647095Y-67151071D01*
X161599476Y-67103452D01*
X161504238Y-67055833D01*
X161313761Y-67055833D01*
X161218523Y-67103452D01*
X161170904Y-67151071D01*
X161123285Y-67246309D01*
G04 #@! TO.C,D1*
X146370904Y-91839380D02*
X146370904Y-90839380D01*
X146609000Y-90839380D01*
X146751857Y-90887000D01*
X146847095Y-90982238D01*
X146894714Y-91077476D01*
X146942333Y-91267952D01*
X146942333Y-91410809D01*
X146894714Y-91601285D01*
X146847095Y-91696523D01*
X146751857Y-91791761D01*
X146609000Y-91839380D01*
X146370904Y-91839380D01*
X147894714Y-91839380D02*
X147323285Y-91839380D01*
X147609000Y-91839380D02*
X147609000Y-90839380D01*
X147513761Y-90982238D01*
X147418523Y-91077476D01*
X147323285Y-91125095D01*
G04 #@! TO.C,D2*
X141882904Y-91775880D02*
X141882904Y-90775880D01*
X142121000Y-90775880D01*
X142263857Y-90823500D01*
X142359095Y-90918738D01*
X142406714Y-91013976D01*
X142454333Y-91204452D01*
X142454333Y-91347309D01*
X142406714Y-91537785D01*
X142359095Y-91633023D01*
X142263857Y-91728261D01*
X142121000Y-91775880D01*
X141882904Y-91775880D01*
X142835285Y-90871119D02*
X142882904Y-90823500D01*
X142978142Y-90775880D01*
X143216238Y-90775880D01*
X143311476Y-90823500D01*
X143359095Y-90871119D01*
X143406714Y-90966357D01*
X143406714Y-91061595D01*
X143359095Y-91204452D01*
X142787666Y-91775880D01*
X143406714Y-91775880D01*
G04 #@! TO.C,D3*
X146327904Y-88918380D02*
X146327904Y-87918380D01*
X146566000Y-87918380D01*
X146708857Y-87966000D01*
X146804095Y-88061238D01*
X146851714Y-88156476D01*
X146899333Y-88346952D01*
X146899333Y-88489809D01*
X146851714Y-88680285D01*
X146804095Y-88775523D01*
X146708857Y-88870761D01*
X146566000Y-88918380D01*
X146327904Y-88918380D01*
X147232666Y-87918380D02*
X147851714Y-87918380D01*
X147518380Y-88299333D01*
X147661238Y-88299333D01*
X147756476Y-88346952D01*
X147804095Y-88394571D01*
X147851714Y-88489809D01*
X147851714Y-88727904D01*
X147804095Y-88823142D01*
X147756476Y-88870761D01*
X147661238Y-88918380D01*
X147375523Y-88918380D01*
X147280285Y-88870761D01*
X147232666Y-88823142D01*
G04 #@! TO.C,D4*
X142009904Y-88918380D02*
X142009904Y-87918380D01*
X142248000Y-87918380D01*
X142390857Y-87966000D01*
X142486095Y-88061238D01*
X142533714Y-88156476D01*
X142581333Y-88346952D01*
X142581333Y-88489809D01*
X142533714Y-88680285D01*
X142486095Y-88775523D01*
X142390857Y-88870761D01*
X142248000Y-88918380D01*
X142009904Y-88918380D01*
X143438476Y-88251714D02*
X143438476Y-88918380D01*
X143200380Y-87870761D02*
X142962285Y-88585047D01*
X143581333Y-88585047D01*
G04 #@! TO.C,D5*
X156662380Y-48236095D02*
X155662380Y-48236095D01*
X155662380Y-47998000D01*
X155710000Y-47855142D01*
X155805238Y-47759904D01*
X155900476Y-47712285D01*
X156090952Y-47664666D01*
X156233809Y-47664666D01*
X156424285Y-47712285D01*
X156519523Y-47759904D01*
X156614761Y-47855142D01*
X156662380Y-47998000D01*
X156662380Y-48236095D01*
X155662380Y-46759904D02*
X155662380Y-47236095D01*
X156138571Y-47283714D01*
X156090952Y-47236095D01*
X156043333Y-47140857D01*
X156043333Y-46902761D01*
X156090952Y-46807523D01*
X156138571Y-46759904D01*
X156233809Y-46712285D01*
X156471904Y-46712285D01*
X156567142Y-46759904D01*
X156614761Y-46807523D01*
X156662380Y-46902761D01*
X156662380Y-47140857D01*
X156614761Y-47236095D01*
X156567142Y-47283714D01*
G04 #@! TO.C,J1*
D14*
X138032671Y-33731200D02*
X138468100Y-33731200D01*
X138555185Y-33760228D01*
X138613242Y-33818285D01*
X138642271Y-33905371D01*
X138642271Y-33963428D01*
X138642271Y-33121600D02*
X138642271Y-33469942D01*
X138642271Y-33295771D02*
X138032671Y-33295771D01*
X138119757Y-33353828D01*
X138177814Y-33411885D01*
X138206842Y-33469942D01*
X142452271Y-35806742D02*
X141842671Y-35806742D01*
X142423242Y-35806742D02*
X142452271Y-35864800D01*
X142452271Y-35980914D01*
X142423242Y-36038971D01*
X142394214Y-36068000D01*
X142336157Y-36097028D01*
X142161985Y-36097028D01*
X142103928Y-36068000D01*
X142074900Y-36038971D01*
X142045871Y-35980914D01*
X142045871Y-35864800D01*
X142074900Y-35806742D01*
X142423242Y-35284228D02*
X142452271Y-35342285D01*
X142452271Y-35458400D01*
X142423242Y-35516457D01*
X142365185Y-35545485D01*
X142132957Y-35545485D01*
X142074900Y-35516457D01*
X142045871Y-35458400D01*
X142045871Y-35342285D01*
X142074900Y-35284228D01*
X142132957Y-35255200D01*
X142191014Y-35255200D01*
X142249071Y-35545485D01*
X142452271Y-34993942D02*
X141842671Y-34993942D01*
X142074900Y-34993942D02*
X142045871Y-34935885D01*
X142045871Y-34819771D01*
X142074900Y-34761714D01*
X142103928Y-34732685D01*
X142161985Y-34703657D01*
X142336157Y-34703657D01*
X142394214Y-34732685D01*
X142423242Y-34761714D01*
X142452271Y-34819771D01*
X142452271Y-34935885D01*
X142423242Y-34993942D01*
X142045871Y-34181142D02*
X142452271Y-34181142D01*
X142045871Y-34442400D02*
X142365185Y-34442400D01*
X142423242Y-34413371D01*
X142452271Y-34355314D01*
X142452271Y-34268228D01*
X142423242Y-34210171D01*
X142394214Y-34181142D01*
X142045871Y-33629600D02*
X142539357Y-33629600D01*
X142597414Y-33658628D01*
X142626442Y-33687657D01*
X142655471Y-33745714D01*
X142655471Y-33832800D01*
X142626442Y-33890857D01*
X142423242Y-33629600D02*
X142452271Y-33687657D01*
X142452271Y-33803771D01*
X142423242Y-33861828D01*
X142394214Y-33890857D01*
X142336157Y-33919885D01*
X142161985Y-33919885D01*
X142103928Y-33890857D01*
X142074900Y-33861828D01*
X142045871Y-33803771D01*
X142045871Y-33687657D01*
X142074900Y-33629600D01*
X142510328Y-33484457D02*
X142510328Y-33020000D01*
X142423242Y-32613600D02*
X142452271Y-32671657D01*
X142452271Y-32787771D01*
X142423242Y-32845828D01*
X142394214Y-32874857D01*
X142336157Y-32903885D01*
X142161985Y-32903885D01*
X142103928Y-32874857D01*
X142074900Y-32845828D01*
X142045871Y-32787771D01*
X142045871Y-32671657D01*
X142074900Y-32613600D01*
X142452271Y-32265257D02*
X142423242Y-32323314D01*
X142394214Y-32352342D01*
X142336157Y-32381371D01*
X142161985Y-32381371D01*
X142103928Y-32352342D01*
X142074900Y-32323314D01*
X142045871Y-32265257D01*
X142045871Y-32178171D01*
X142074900Y-32120114D01*
X142103928Y-32091085D01*
X142161985Y-32062057D01*
X142336157Y-32062057D01*
X142394214Y-32091085D01*
X142423242Y-32120114D01*
X142452271Y-32178171D01*
X142452271Y-32265257D01*
X142045871Y-31800800D02*
X142452271Y-31800800D01*
X142103928Y-31800800D02*
X142074900Y-31771771D01*
X142045871Y-31713714D01*
X142045871Y-31626628D01*
X142074900Y-31568571D01*
X142132957Y-31539542D01*
X142452271Y-31539542D01*
X142045871Y-31249257D02*
X142452271Y-31249257D01*
X142103928Y-31249257D02*
X142074900Y-31220228D01*
X142045871Y-31162171D01*
X142045871Y-31075085D01*
X142074900Y-31017028D01*
X142132957Y-30988000D01*
X142452271Y-30988000D01*
G04 #@! TO.C,J3*
X159813171Y-39065200D02*
X160248600Y-39065200D01*
X160335685Y-39094228D01*
X160393742Y-39152285D01*
X160422771Y-39239371D01*
X160422771Y-39297428D01*
X159813171Y-38832971D02*
X159813171Y-38455600D01*
X160045400Y-38658800D01*
X160045400Y-38571714D01*
X160074428Y-38513657D01*
X160103457Y-38484628D01*
X160161514Y-38455600D01*
X160306657Y-38455600D01*
X160364714Y-38484628D01*
X160393742Y-38513657D01*
X160422771Y-38571714D01*
X160422771Y-38745885D01*
X160393742Y-38803942D01*
X160364714Y-38832971D01*
X158960457Y-37403314D02*
X158989485Y-37316228D01*
X159018514Y-37287200D01*
X159076571Y-37258171D01*
X159163657Y-37258171D01*
X159221714Y-37287200D01*
X159250742Y-37316228D01*
X159279771Y-37374285D01*
X159279771Y-37606514D01*
X158670171Y-37606514D01*
X158670171Y-37403314D01*
X158699200Y-37345257D01*
X158728228Y-37316228D01*
X158786285Y-37287200D01*
X158844342Y-37287200D01*
X158902400Y-37316228D01*
X158931428Y-37345257D01*
X158960457Y-37403314D01*
X158960457Y-37606514D01*
X159279771Y-36706628D02*
X159279771Y-36996914D01*
X158670171Y-36996914D01*
X158960457Y-36503428D02*
X158960457Y-36300228D01*
X159279771Y-36213142D02*
X159279771Y-36503428D01*
X158670171Y-36503428D01*
X158670171Y-36213142D01*
X159337828Y-36097028D02*
X159337828Y-35632571D01*
X159279771Y-35487428D02*
X158670171Y-35487428D01*
X158670171Y-35255200D01*
X158699200Y-35197142D01*
X158728228Y-35168114D01*
X158786285Y-35139085D01*
X158873371Y-35139085D01*
X158931428Y-35168114D01*
X158960457Y-35197142D01*
X158989485Y-35255200D01*
X158989485Y-35487428D01*
X158670171Y-34935885D02*
X159279771Y-34790742D01*
X158844342Y-34674628D01*
X159279771Y-34558514D01*
X158670171Y-34413371D01*
X159279771Y-33832800D02*
X158989485Y-34036000D01*
X159279771Y-34181142D02*
X158670171Y-34181142D01*
X158670171Y-33948914D01*
X158699200Y-33890857D01*
X158728228Y-33861828D01*
X158786285Y-33832800D01*
X158873371Y-33832800D01*
X158931428Y-33861828D01*
X158960457Y-33890857D01*
X158989485Y-33948914D01*
X158989485Y-34181142D01*
X159337828Y-33716685D02*
X159337828Y-33252228D01*
X159250742Y-33136114D02*
X159279771Y-33049028D01*
X159279771Y-32903885D01*
X159250742Y-32845828D01*
X159221714Y-32816800D01*
X159163657Y-32787771D01*
X159105600Y-32787771D01*
X159047542Y-32816800D01*
X159018514Y-32845828D01*
X158989485Y-32903885D01*
X158960457Y-33020000D01*
X158931428Y-33078057D01*
X158902400Y-33107085D01*
X158844342Y-33136114D01*
X158786285Y-33136114D01*
X158728228Y-33107085D01*
X158699200Y-33078057D01*
X158670171Y-33020000D01*
X158670171Y-32874857D01*
X158699200Y-32787771D01*
X158873371Y-32584571D02*
X159279771Y-32468457D01*
X158989485Y-32352342D01*
X159279771Y-32236228D01*
X158873371Y-32120114D01*
X159279771Y-31887885D02*
X158873371Y-31887885D01*
X158670171Y-31887885D02*
X158699200Y-31916914D01*
X158728228Y-31887885D01*
X158699200Y-31858857D01*
X158670171Y-31887885D01*
X158728228Y-31887885D01*
X158873371Y-31684685D02*
X158873371Y-31452457D01*
X158670171Y-31597600D02*
X159192685Y-31597600D01*
X159250742Y-31568571D01*
X159279771Y-31510514D01*
X159279771Y-31452457D01*
X159250742Y-30988000D02*
X159279771Y-31046057D01*
X159279771Y-31162171D01*
X159250742Y-31220228D01*
X159221714Y-31249257D01*
X159163657Y-31278285D01*
X158989485Y-31278285D01*
X158931428Y-31249257D01*
X158902400Y-31220228D01*
X158873371Y-31162171D01*
X158873371Y-31046057D01*
X158902400Y-30988000D01*
X159279771Y-30726742D02*
X158670171Y-30726742D01*
X159279771Y-30465485D02*
X158960457Y-30465485D01*
X158902400Y-30494514D01*
X158873371Y-30552571D01*
X158873371Y-30639657D01*
X158902400Y-30697714D01*
X158931428Y-30726742D01*
G04 #@! TO.C,J4*
X154987171Y-32715200D02*
X155422600Y-32715200D01*
X155509685Y-32744228D01*
X155567742Y-32802285D01*
X155596771Y-32889371D01*
X155596771Y-32947428D01*
X155190371Y-32163657D02*
X155596771Y-32163657D01*
X154958142Y-32308800D02*
X155393571Y-32453942D01*
X155393571Y-32076571D01*
G04 #@! TO.C,J5*
D10*
X130095666Y-93051380D02*
X130095666Y-93765666D01*
X130048047Y-93908523D01*
X129952809Y-94003761D01*
X129809952Y-94051380D01*
X129714714Y-94051380D01*
X131048047Y-93051380D02*
X130571857Y-93051380D01*
X130524238Y-93527571D01*
X130571857Y-93479952D01*
X130667095Y-93432333D01*
X130905190Y-93432333D01*
X131000428Y-93479952D01*
X131048047Y-93527571D01*
X131095666Y-93622809D01*
X131095666Y-93860904D01*
X131048047Y-93956142D01*
X131000428Y-94003761D01*
X130905190Y-94051380D01*
X130667095Y-94051380D01*
X130571857Y-94003761D01*
X130524238Y-93956142D01*
G04 #@! TO.C,J6*
X130730666Y-88860380D02*
X130730666Y-89574666D01*
X130683047Y-89717523D01*
X130587809Y-89812761D01*
X130444952Y-89860380D01*
X130349714Y-89860380D01*
X131635428Y-88860380D02*
X131444952Y-88860380D01*
X131349714Y-88908000D01*
X131302095Y-88955619D01*
X131206857Y-89098476D01*
X131159238Y-89288952D01*
X131159238Y-89669904D01*
X131206857Y-89765142D01*
X131254476Y-89812761D01*
X131349714Y-89860380D01*
X131540190Y-89860380D01*
X131635428Y-89812761D01*
X131683047Y-89765142D01*
X131730666Y-89669904D01*
X131730666Y-89431809D01*
X131683047Y-89336571D01*
X131635428Y-89288952D01*
X131540190Y-89241333D01*
X131349714Y-89241333D01*
X131254476Y-89288952D01*
X131206857Y-89336571D01*
X131159238Y-89431809D01*
G04 #@! TO.C,J8*
X140255666Y-82002380D02*
X140255666Y-82716666D01*
X140208047Y-82859523D01*
X140112809Y-82954761D01*
X139969952Y-83002380D01*
X139874714Y-83002380D01*
X140874714Y-82430952D02*
X140779476Y-82383333D01*
X140731857Y-82335714D01*
X140684238Y-82240476D01*
X140684238Y-82192857D01*
X140731857Y-82097619D01*
X140779476Y-82050000D01*
X140874714Y-82002380D01*
X141065190Y-82002380D01*
X141160428Y-82050000D01*
X141208047Y-82097619D01*
X141255666Y-82192857D01*
X141255666Y-82240476D01*
X141208047Y-82335714D01*
X141160428Y-82383333D01*
X141065190Y-82430952D01*
X140874714Y-82430952D01*
X140779476Y-82478571D01*
X140731857Y-82526190D01*
X140684238Y-82621428D01*
X140684238Y-82811904D01*
X140731857Y-82907142D01*
X140779476Y-82954761D01*
X140874714Y-83002380D01*
X141065190Y-83002380D01*
X141160428Y-82954761D01*
X141208047Y-82907142D01*
X141255666Y-82811904D01*
X141255666Y-82621428D01*
X141208047Y-82526190D01*
X141160428Y-82478571D01*
X141065190Y-82430952D01*
G04 #@! TO.C,J9*
D14*
X159305171Y-63195200D02*
X159740600Y-63195200D01*
X159827685Y-63224228D01*
X159885742Y-63282285D01*
X159914771Y-63369371D01*
X159914771Y-63427428D01*
X159914771Y-62875885D02*
X159914771Y-62759771D01*
X159885742Y-62701714D01*
X159856714Y-62672685D01*
X159769628Y-62614628D01*
X159653514Y-62585600D01*
X159421285Y-62585600D01*
X159363228Y-62614628D01*
X159334200Y-62643657D01*
X159305171Y-62701714D01*
X159305171Y-62817828D01*
X159334200Y-62875885D01*
X159363228Y-62904914D01*
X159421285Y-62933942D01*
X159566428Y-62933942D01*
X159624485Y-62904914D01*
X159653514Y-62875885D01*
X159682542Y-62817828D01*
X159682542Y-62701714D01*
X159653514Y-62643657D01*
X159624485Y-62614628D01*
X159566428Y-62585600D01*
X163405457Y-65952914D02*
X163434485Y-65865828D01*
X163463514Y-65836800D01*
X163521571Y-65807771D01*
X163608657Y-65807771D01*
X163666714Y-65836800D01*
X163695742Y-65865828D01*
X163724771Y-65923885D01*
X163724771Y-66156114D01*
X163115171Y-66156114D01*
X163115171Y-65952914D01*
X163144200Y-65894857D01*
X163173228Y-65865828D01*
X163231285Y-65836800D01*
X163289342Y-65836800D01*
X163347400Y-65865828D01*
X163376428Y-65894857D01*
X163405457Y-65952914D01*
X163405457Y-66156114D01*
X163724771Y-65285257D02*
X163405457Y-65285257D01*
X163347400Y-65314285D01*
X163318371Y-65372342D01*
X163318371Y-65488457D01*
X163347400Y-65546514D01*
X163695742Y-65285257D02*
X163724771Y-65343314D01*
X163724771Y-65488457D01*
X163695742Y-65546514D01*
X163637685Y-65575542D01*
X163579628Y-65575542D01*
X163521571Y-65546514D01*
X163492542Y-65488457D01*
X163492542Y-65343314D01*
X163463514Y-65285257D01*
X163318371Y-65082057D02*
X163318371Y-64849828D01*
X163115171Y-64994971D02*
X163637685Y-64994971D01*
X163695742Y-64965942D01*
X163724771Y-64907885D01*
X163724771Y-64849828D01*
X163318371Y-64733714D02*
X163318371Y-64501485D01*
X163115171Y-64646628D02*
X163637685Y-64646628D01*
X163695742Y-64617600D01*
X163724771Y-64559542D01*
X163724771Y-64501485D01*
X163695742Y-64066057D02*
X163724771Y-64124114D01*
X163724771Y-64240228D01*
X163695742Y-64298285D01*
X163637685Y-64327314D01*
X163405457Y-64327314D01*
X163347400Y-64298285D01*
X163318371Y-64240228D01*
X163318371Y-64124114D01*
X163347400Y-64066057D01*
X163405457Y-64037028D01*
X163463514Y-64037028D01*
X163521571Y-64327314D01*
X163724771Y-63775771D02*
X163318371Y-63775771D01*
X163434485Y-63775771D02*
X163376428Y-63746742D01*
X163347400Y-63717714D01*
X163318371Y-63659657D01*
X163318371Y-63601600D01*
X163318371Y-63456457D02*
X163724771Y-63311314D01*
X163318371Y-63166171D02*
X163724771Y-63311314D01*
X163869914Y-63369371D01*
X163898942Y-63398400D01*
X163927971Y-63456457D01*
X163695742Y-62498514D02*
X163724771Y-62411428D01*
X163724771Y-62266285D01*
X163695742Y-62208228D01*
X163666714Y-62179200D01*
X163608657Y-62150171D01*
X163550600Y-62150171D01*
X163492542Y-62179200D01*
X163463514Y-62208228D01*
X163434485Y-62266285D01*
X163405457Y-62382400D01*
X163376428Y-62440457D01*
X163347400Y-62469485D01*
X163289342Y-62498514D01*
X163231285Y-62498514D01*
X163173228Y-62469485D01*
X163144200Y-62440457D01*
X163115171Y-62382400D01*
X163115171Y-62237257D01*
X163144200Y-62150171D01*
X163318371Y-61946971D02*
X163724771Y-61830857D01*
X163434485Y-61714742D01*
X163724771Y-61598628D01*
X163318371Y-61482514D01*
X163724771Y-61250285D02*
X163318371Y-61250285D01*
X163115171Y-61250285D02*
X163144200Y-61279314D01*
X163173228Y-61250285D01*
X163144200Y-61221257D01*
X163115171Y-61250285D01*
X163173228Y-61250285D01*
X163318371Y-61047085D02*
X163318371Y-60814857D01*
X163115171Y-60960000D02*
X163637685Y-60960000D01*
X163695742Y-60930971D01*
X163724771Y-60872914D01*
X163724771Y-60814857D01*
X163695742Y-60350400D02*
X163724771Y-60408457D01*
X163724771Y-60524571D01*
X163695742Y-60582628D01*
X163666714Y-60611657D01*
X163608657Y-60640685D01*
X163434485Y-60640685D01*
X163376428Y-60611657D01*
X163347400Y-60582628D01*
X163318371Y-60524571D01*
X163318371Y-60408457D01*
X163347400Y-60350400D01*
X163724771Y-60089142D02*
X163115171Y-60089142D01*
X163724771Y-59827885D02*
X163405457Y-59827885D01*
X163347400Y-59856914D01*
X163318371Y-59914971D01*
X163318371Y-60002057D01*
X163347400Y-60060114D01*
X163376428Y-60089142D01*
G04 #@! TO.C,JP1*
X159677100Y-45957671D02*
X159677100Y-46393100D01*
X159648071Y-46480185D01*
X159590014Y-46538242D01*
X159502928Y-46567271D01*
X159444871Y-46567271D01*
X159967385Y-46567271D02*
X159967385Y-45957671D01*
X160199614Y-45957671D01*
X160257671Y-45986700D01*
X160286700Y-46015728D01*
X160315728Y-46073785D01*
X160315728Y-46160871D01*
X160286700Y-46218928D01*
X160257671Y-46247957D01*
X160199614Y-46276985D01*
X159967385Y-46276985D01*
X160896300Y-46567271D02*
X160547957Y-46567271D01*
X160722128Y-46567271D02*
X160722128Y-45957671D01*
X160664071Y-46044757D01*
X160606014Y-46102814D01*
X160547957Y-46131842D01*
G04 #@! TO.C,JP2*
X159305171Y-43307000D02*
X159740600Y-43307000D01*
X159827685Y-43336028D01*
X159885742Y-43394085D01*
X159914771Y-43481171D01*
X159914771Y-43539228D01*
X159914771Y-43016714D02*
X159305171Y-43016714D01*
X159305171Y-42784485D01*
X159334200Y-42726428D01*
X159363228Y-42697400D01*
X159421285Y-42668371D01*
X159508371Y-42668371D01*
X159566428Y-42697400D01*
X159595457Y-42726428D01*
X159624485Y-42784485D01*
X159624485Y-43016714D01*
X159363228Y-42436142D02*
X159334200Y-42407114D01*
X159305171Y-42349057D01*
X159305171Y-42203914D01*
X159334200Y-42145857D01*
X159363228Y-42116828D01*
X159421285Y-42087800D01*
X159479342Y-42087800D01*
X159566428Y-42116828D01*
X159914771Y-42465171D01*
X159914771Y-42087800D01*
G04 #@! TO.C,R1*
D10*
X150648333Y-64524880D02*
X150315000Y-64048690D01*
X150076904Y-64524880D02*
X150076904Y-63524880D01*
X150457857Y-63524880D01*
X150553095Y-63572500D01*
X150600714Y-63620119D01*
X150648333Y-63715357D01*
X150648333Y-63858214D01*
X150600714Y-63953452D01*
X150553095Y-64001071D01*
X150457857Y-64048690D01*
X150076904Y-64048690D01*
X151600714Y-64524880D02*
X151029285Y-64524880D01*
X151315000Y-64524880D02*
X151315000Y-63524880D01*
X151219761Y-63667738D01*
X151124523Y-63762976D01*
X151029285Y-63810595D01*
G04 #@! TO.C,R9*
X152281880Y-54141666D02*
X151805690Y-54475000D01*
X152281880Y-54713095D02*
X151281880Y-54713095D01*
X151281880Y-54332142D01*
X151329500Y-54236904D01*
X151377119Y-54189285D01*
X151472357Y-54141666D01*
X151615214Y-54141666D01*
X151710452Y-54189285D01*
X151758071Y-54236904D01*
X151805690Y-54332142D01*
X151805690Y-54713095D01*
X152281880Y-53665476D02*
X152281880Y-53475000D01*
X152234261Y-53379761D01*
X152186642Y-53332142D01*
X152043785Y-53236904D01*
X151853309Y-53189285D01*
X151472357Y-53189285D01*
X151377119Y-53236904D01*
X151329500Y-53284523D01*
X151281880Y-53379761D01*
X151281880Y-53570238D01*
X151329500Y-53665476D01*
X151377119Y-53713095D01*
X151472357Y-53760714D01*
X151710452Y-53760714D01*
X151805690Y-53713095D01*
X151853309Y-53665476D01*
X151900928Y-53570238D01*
X151900928Y-53379761D01*
X151853309Y-53284523D01*
X151805690Y-53236904D01*
X151710452Y-53189285D01*
G04 #@! TO.C,R10*
X158949380Y-76141857D02*
X158473190Y-76475190D01*
X158949380Y-76713285D02*
X157949380Y-76713285D01*
X157949380Y-76332333D01*
X157997000Y-76237095D01*
X158044619Y-76189476D01*
X158139857Y-76141857D01*
X158282714Y-76141857D01*
X158377952Y-76189476D01*
X158425571Y-76237095D01*
X158473190Y-76332333D01*
X158473190Y-76713285D01*
X158949380Y-75189476D02*
X158949380Y-75760904D01*
X158949380Y-75475190D02*
X157949380Y-75475190D01*
X158092238Y-75570428D01*
X158187476Y-75665666D01*
X158235095Y-75760904D01*
X157949380Y-74570428D02*
X157949380Y-74475190D01*
X157997000Y-74379952D01*
X158044619Y-74332333D01*
X158139857Y-74284714D01*
X158330333Y-74237095D01*
X158568428Y-74237095D01*
X158758904Y-74284714D01*
X158854142Y-74332333D01*
X158901761Y-74379952D01*
X158949380Y-74475190D01*
X158949380Y-74570428D01*
X158901761Y-74665666D01*
X158854142Y-74713285D01*
X158758904Y-74760904D01*
X158568428Y-74808523D01*
X158330333Y-74808523D01*
X158139857Y-74760904D01*
X158044619Y-74713285D01*
X157997000Y-74665666D01*
X157949380Y-74570428D01*
G04 #@! TO.C,R12*
X155506142Y-73033880D02*
X155172809Y-72557690D01*
X154934714Y-73033880D02*
X154934714Y-72033880D01*
X155315666Y-72033880D01*
X155410904Y-72081500D01*
X155458523Y-72129119D01*
X155506142Y-72224357D01*
X155506142Y-72367214D01*
X155458523Y-72462452D01*
X155410904Y-72510071D01*
X155315666Y-72557690D01*
X154934714Y-72557690D01*
X156458523Y-73033880D02*
X155887095Y-73033880D01*
X156172809Y-73033880D02*
X156172809Y-72033880D01*
X156077571Y-72176738D01*
X155982333Y-72271976D01*
X155887095Y-72319595D01*
X156839476Y-72129119D02*
X156887095Y-72081500D01*
X156982333Y-72033880D01*
X157220428Y-72033880D01*
X157315666Y-72081500D01*
X157363285Y-72129119D01*
X157410904Y-72224357D01*
X157410904Y-72319595D01*
X157363285Y-72462452D01*
X156791857Y-73033880D01*
X157410904Y-73033880D01*
G04 #@! TO.C,R13*
X157093642Y-41980380D02*
X156760309Y-41504190D01*
X156522214Y-41980380D02*
X156522214Y-40980380D01*
X156903166Y-40980380D01*
X156998404Y-41028000D01*
X157046023Y-41075619D01*
X157093642Y-41170857D01*
X157093642Y-41313714D01*
X157046023Y-41408952D01*
X156998404Y-41456571D01*
X156903166Y-41504190D01*
X156522214Y-41504190D01*
X158046023Y-41980380D02*
X157474595Y-41980380D01*
X157760309Y-41980380D02*
X157760309Y-40980380D01*
X157665071Y-41123238D01*
X157569833Y-41218476D01*
X157474595Y-41266095D01*
X158379357Y-40980380D02*
X158998404Y-40980380D01*
X158665071Y-41361333D01*
X158807928Y-41361333D01*
X158903166Y-41408952D01*
X158950785Y-41456571D01*
X158998404Y-41551809D01*
X158998404Y-41789904D01*
X158950785Y-41885142D01*
X158903166Y-41932761D01*
X158807928Y-41980380D01*
X158522214Y-41980380D01*
X158426976Y-41932761D01*
X158379357Y-41885142D01*
G04 #@! TO.C,R17*
X154249380Y-66936857D02*
X153773190Y-67270190D01*
X154249380Y-67508285D02*
X153249380Y-67508285D01*
X153249380Y-67127333D01*
X153297000Y-67032095D01*
X153344619Y-66984476D01*
X153439857Y-66936857D01*
X153582714Y-66936857D01*
X153677952Y-66984476D01*
X153725571Y-67032095D01*
X153773190Y-67127333D01*
X153773190Y-67508285D01*
X154249380Y-65984476D02*
X154249380Y-66555904D01*
X154249380Y-66270190D02*
X153249380Y-66270190D01*
X153392238Y-66365428D01*
X153487476Y-66460666D01*
X153535095Y-66555904D01*
X153249380Y-65651142D02*
X153249380Y-64984476D01*
X154249380Y-65413047D01*
G04 #@! TO.C,TH1*
X159242285Y-48347380D02*
X159813714Y-48347380D01*
X159528000Y-49347380D02*
X159528000Y-48347380D01*
X160147047Y-49347380D02*
X160147047Y-48347380D01*
X160147047Y-48823571D02*
X160718476Y-48823571D01*
X160718476Y-49347380D02*
X160718476Y-48347380D01*
X161718476Y-49347380D02*
X161147047Y-49347380D01*
X161432761Y-49347380D02*
X161432761Y-48347380D01*
X161337523Y-48490238D01*
X161242285Y-48585476D01*
X161147047Y-48633095D01*
G04 #@! TO.C,U4*
D14*
X136445171Y-28785457D02*
X136938657Y-28785457D01*
X136996714Y-28756428D01*
X137025742Y-28727400D01*
X137054771Y-28669342D01*
X137054771Y-28553228D01*
X137025742Y-28495171D01*
X136996714Y-28466142D01*
X136938657Y-28437114D01*
X136445171Y-28437114D01*
X136648371Y-27885571D02*
X137054771Y-27885571D01*
X136416142Y-28030714D02*
X136851571Y-28175857D01*
X136851571Y-27798485D01*
X132798457Y-31931428D02*
X132827485Y-31844342D01*
X132856514Y-31815314D01*
X132914571Y-31786285D01*
X133001657Y-31786285D01*
X133059714Y-31815314D01*
X133088742Y-31844342D01*
X133117771Y-31902400D01*
X133117771Y-32134628D01*
X132508171Y-32134628D01*
X132508171Y-31931428D01*
X132537200Y-31873371D01*
X132566228Y-31844342D01*
X132624285Y-31815314D01*
X132682342Y-31815314D01*
X132740400Y-31844342D01*
X132769428Y-31873371D01*
X132798457Y-31931428D01*
X132798457Y-32134628D01*
X133117771Y-31525028D02*
X132508171Y-31525028D01*
X132943600Y-31321828D01*
X132508171Y-31118628D01*
X133117771Y-31118628D01*
X132798457Y-30828342D02*
X132798457Y-30625142D01*
X133117771Y-30538057D02*
X133117771Y-30828342D01*
X132508171Y-30828342D01*
X132508171Y-30538057D01*
X132566228Y-30305828D02*
X132537200Y-30276800D01*
X132508171Y-30218742D01*
X132508171Y-30073600D01*
X132537200Y-30015542D01*
X132566228Y-29986514D01*
X132624285Y-29957485D01*
X132682342Y-29957485D01*
X132769428Y-29986514D01*
X133117771Y-30334857D01*
X133117771Y-29957485D01*
X132769428Y-29609142D02*
X132740400Y-29667200D01*
X132711371Y-29696228D01*
X132653314Y-29725257D01*
X132624285Y-29725257D01*
X132566228Y-29696228D01*
X132537200Y-29667200D01*
X132508171Y-29609142D01*
X132508171Y-29493028D01*
X132537200Y-29434971D01*
X132566228Y-29405942D01*
X132624285Y-29376914D01*
X132653314Y-29376914D01*
X132711371Y-29405942D01*
X132740400Y-29434971D01*
X132769428Y-29493028D01*
X132769428Y-29609142D01*
X132798457Y-29667200D01*
X132827485Y-29696228D01*
X132885542Y-29725257D01*
X133001657Y-29725257D01*
X133059714Y-29696228D01*
X133088742Y-29667200D01*
X133117771Y-29609142D01*
X133117771Y-29493028D01*
X133088742Y-29434971D01*
X133059714Y-29405942D01*
X133001657Y-29376914D01*
X132885542Y-29376914D01*
X132827485Y-29405942D01*
X132798457Y-29434971D01*
X132769428Y-29493028D01*
X132508171Y-28999542D02*
X132508171Y-28941485D01*
X132537200Y-28883428D01*
X132566228Y-28854400D01*
X132624285Y-28825371D01*
X132740400Y-28796342D01*
X132885542Y-28796342D01*
X133001657Y-28825371D01*
X133059714Y-28854400D01*
X133088742Y-28883428D01*
X133117771Y-28941485D01*
X133117771Y-28999542D01*
X133088742Y-29057600D01*
X133059714Y-29086628D01*
X133001657Y-29115657D01*
X132885542Y-29144685D01*
X132740400Y-29144685D01*
X132624285Y-29115657D01*
X132566228Y-29086628D01*
X132537200Y-29057600D01*
X132508171Y-28999542D01*
G04 #@! TO.C,U6*
D10*
X158242095Y-55586380D02*
X158242095Y-56395904D01*
X158289714Y-56491142D01*
X158337333Y-56538761D01*
X158432571Y-56586380D01*
X158623047Y-56586380D01*
X158718285Y-56538761D01*
X158765904Y-56491142D01*
X158813523Y-56395904D01*
X158813523Y-55586380D01*
X159718285Y-55586380D02*
X159527809Y-55586380D01*
X159432571Y-55634000D01*
X159384952Y-55681619D01*
X159289714Y-55824476D01*
X159242095Y-56014952D01*
X159242095Y-56395904D01*
X159289714Y-56491142D01*
X159337333Y-56538761D01*
X159432571Y-56586380D01*
X159623047Y-56586380D01*
X159718285Y-56538761D01*
X159765904Y-56491142D01*
X159813523Y-56395904D01*
X159813523Y-56157809D01*
X159765904Y-56062571D01*
X159718285Y-56014952D01*
X159623047Y-55967333D01*
X159432571Y-55967333D01*
X159337333Y-56014952D01*
X159289714Y-56062571D01*
X159242095Y-56157809D01*
X155027666Y-51617571D02*
X155170523Y-51665190D01*
X155218142Y-51712809D01*
X155265761Y-51808047D01*
X155265761Y-51950904D01*
X155218142Y-52046142D01*
X155170523Y-52093761D01*
X155075285Y-52141380D01*
X154694333Y-52141380D01*
X154694333Y-51141380D01*
X155027666Y-51141380D01*
X155122904Y-51189000D01*
X155170523Y-51236619D01*
X155218142Y-51331857D01*
X155218142Y-51427095D01*
X155170523Y-51522333D01*
X155122904Y-51569952D01*
X155027666Y-51617571D01*
X154694333Y-51617571D01*
X156361000Y-52236619D02*
X156265761Y-52189000D01*
X156170523Y-52093761D01*
X156027666Y-51950904D01*
X155932428Y-51903285D01*
X155837190Y-51903285D01*
X155884809Y-52141380D02*
X155789571Y-52093761D01*
X155694333Y-51998523D01*
X155646714Y-51808047D01*
X155646714Y-51474714D01*
X155694333Y-51284238D01*
X155789571Y-51189000D01*
X155884809Y-51141380D01*
X156075285Y-51141380D01*
X156170523Y-51189000D01*
X156265761Y-51284238D01*
X156313380Y-51474714D01*
X156313380Y-51808047D01*
X156265761Y-51998523D01*
X156170523Y-52093761D01*
X156075285Y-52141380D01*
X155884809Y-52141380D01*
X156694333Y-51236619D02*
X156741952Y-51189000D01*
X156837190Y-51141380D01*
X157075285Y-51141380D01*
X157170523Y-51189000D01*
X157218142Y-51236619D01*
X157265761Y-51331857D01*
X157265761Y-51427095D01*
X157218142Y-51569952D01*
X156646714Y-52141380D01*
X157265761Y-52141380D01*
X158218142Y-52141380D02*
X157646714Y-52141380D01*
X157932428Y-52141380D02*
X157932428Y-51141380D01*
X157837190Y-51284238D01*
X157741952Y-51379476D01*
X157646714Y-51427095D01*
X158837190Y-51141380D02*
X158932428Y-51141380D01*
X159027666Y-51189000D01*
X159075285Y-51236619D01*
X159122904Y-51331857D01*
X159170523Y-51522333D01*
X159170523Y-51760428D01*
X159122904Y-51950904D01*
X159075285Y-52046142D01*
X159027666Y-52093761D01*
X158932428Y-52141380D01*
X158837190Y-52141380D01*
X158741952Y-52093761D01*
X158694333Y-52046142D01*
X158646714Y-51950904D01*
X158599095Y-51760428D01*
X158599095Y-51522333D01*
X158646714Y-51331857D01*
X158694333Y-51236619D01*
X158741952Y-51189000D01*
X158837190Y-51141380D01*
X160027666Y-51474714D02*
X160027666Y-52141380D01*
X159789571Y-51093761D02*
X159551476Y-51808047D01*
X160170523Y-51808047D01*
X160741952Y-51141380D02*
X160837190Y-51141380D01*
X160932428Y-51189000D01*
X160980047Y-51236619D01*
X161027666Y-51331857D01*
X161075285Y-51522333D01*
X161075285Y-51760428D01*
X161027666Y-51950904D01*
X160980047Y-52046142D01*
X160932428Y-52093761D01*
X160837190Y-52141380D01*
X160741952Y-52141380D01*
X160646714Y-52093761D01*
X160599095Y-52046142D01*
X160551476Y-51950904D01*
X160503857Y-51760428D01*
X160503857Y-51522333D01*
X160551476Y-51331857D01*
X160599095Y-51236619D01*
X160646714Y-51189000D01*
X160741952Y-51141380D01*
X158888000Y-53300380D02*
X158888000Y-53538476D01*
X158649904Y-53443238D02*
X158888000Y-53538476D01*
X159126095Y-53443238D01*
X158745142Y-53728952D02*
X158888000Y-53538476D01*
X159030857Y-53728952D01*
G04 #@! TO.C,U7*
X153035095Y-60285380D02*
X153035095Y-61094904D01*
X153082714Y-61190142D01*
X153130333Y-61237761D01*
X153225571Y-61285380D01*
X153416047Y-61285380D01*
X153511285Y-61237761D01*
X153558904Y-61190142D01*
X153606523Y-61094904D01*
X153606523Y-60285380D01*
X153987476Y-60285380D02*
X154654142Y-60285380D01*
X154225571Y-61285380D01*
X150963666Y-56697571D02*
X151106523Y-56745190D01*
X151154142Y-56792809D01*
X151201761Y-56888047D01*
X151201761Y-57030904D01*
X151154142Y-57126142D01*
X151106523Y-57173761D01*
X151011285Y-57221380D01*
X150630333Y-57221380D01*
X150630333Y-56221380D01*
X150963666Y-56221380D01*
X151058904Y-56269000D01*
X151106523Y-56316619D01*
X151154142Y-56411857D01*
X151154142Y-56507095D01*
X151106523Y-56602333D01*
X151058904Y-56649952D01*
X150963666Y-56697571D01*
X150630333Y-56697571D01*
X152297000Y-57316619D02*
X152201761Y-57269000D01*
X152106523Y-57173761D01*
X151963666Y-57030904D01*
X151868428Y-56983285D01*
X151773190Y-56983285D01*
X151820809Y-57221380D02*
X151725571Y-57173761D01*
X151630333Y-57078523D01*
X151582714Y-56888047D01*
X151582714Y-56554714D01*
X151630333Y-56364238D01*
X151725571Y-56269000D01*
X151820809Y-56221380D01*
X152011285Y-56221380D01*
X152106523Y-56269000D01*
X152201761Y-56364238D01*
X152249380Y-56554714D01*
X152249380Y-56888047D01*
X152201761Y-57078523D01*
X152106523Y-57173761D01*
X152011285Y-57221380D01*
X151820809Y-57221380D01*
X152630333Y-56316619D02*
X152677952Y-56269000D01*
X152773190Y-56221380D01*
X153011285Y-56221380D01*
X153106523Y-56269000D01*
X153154142Y-56316619D01*
X153201761Y-56411857D01*
X153201761Y-56507095D01*
X153154142Y-56649952D01*
X152582714Y-57221380D01*
X153201761Y-57221380D01*
X153535095Y-56221380D02*
X154201761Y-56221380D01*
X153773190Y-57221380D01*
X154487476Y-56221380D02*
X155154142Y-56221380D01*
X154725571Y-57221380D01*
X156011285Y-56221380D02*
X155535095Y-56221380D01*
X155487476Y-56697571D01*
X155535095Y-56649952D01*
X155630333Y-56602333D01*
X155868428Y-56602333D01*
X155963666Y-56649952D01*
X156011285Y-56697571D01*
X156058904Y-56792809D01*
X156058904Y-57030904D01*
X156011285Y-57126142D01*
X155963666Y-57173761D01*
X155868428Y-57221380D01*
X155630333Y-57221380D01*
X155535095Y-57173761D01*
X155487476Y-57126142D01*
X156677952Y-56221380D02*
X156773190Y-56221380D01*
X156868428Y-56269000D01*
X156916047Y-56316619D01*
X156963666Y-56411857D01*
X157011285Y-56602333D01*
X157011285Y-56840428D01*
X156963666Y-57030904D01*
X156916047Y-57126142D01*
X156868428Y-57173761D01*
X156773190Y-57221380D01*
X156677952Y-57221380D01*
X156582714Y-57173761D01*
X156535095Y-57126142D01*
X156487476Y-57030904D01*
X156439857Y-56840428D01*
X156439857Y-56602333D01*
X156487476Y-56411857D01*
X156535095Y-56316619D01*
X156582714Y-56269000D01*
X156677952Y-56221380D01*
X153924000Y-58380380D02*
X153924000Y-58618476D01*
X153685904Y-58523238D02*
X153924000Y-58618476D01*
X154162095Y-58523238D01*
X153781142Y-58808952D02*
X153924000Y-58618476D01*
X154066857Y-58808952D01*
G04 #@! TO.C,U3*
X141478095Y-38306380D02*
X141478095Y-39115904D01*
X141525714Y-39211142D01*
X141573333Y-39258761D01*
X141668571Y-39306380D01*
X141859047Y-39306380D01*
X141954285Y-39258761D01*
X142001904Y-39211142D01*
X142049523Y-39115904D01*
X142049523Y-38306380D01*
X142430476Y-38306380D02*
X143049523Y-38306380D01*
X142716190Y-38687333D01*
X142859047Y-38687333D01*
X142954285Y-38734952D01*
X143001904Y-38782571D01*
X143049523Y-38877809D01*
X143049523Y-39115904D01*
X143001904Y-39211142D01*
X142954285Y-39258761D01*
X142859047Y-39306380D01*
X142573333Y-39306380D01*
X142478095Y-39258761D01*
X142430476Y-39211142D01*
X136493333Y-61317142D02*
X136445714Y-61364761D01*
X136302857Y-61412380D01*
X136207619Y-61412380D01*
X136064761Y-61364761D01*
X135969523Y-61269523D01*
X135921904Y-61174285D01*
X135874285Y-60983809D01*
X135874285Y-60840952D01*
X135921904Y-60650476D01*
X135969523Y-60555238D01*
X136064761Y-60460000D01*
X136207619Y-60412380D01*
X136302857Y-60412380D01*
X136445714Y-60460000D01*
X136493333Y-60507619D01*
X136874285Y-61364761D02*
X137017142Y-61412380D01*
X137255238Y-61412380D01*
X137350476Y-61364761D01*
X137398095Y-61317142D01*
X137445714Y-61221904D01*
X137445714Y-61126666D01*
X137398095Y-61031428D01*
X137350476Y-60983809D01*
X137255238Y-60936190D01*
X137064761Y-60888571D01*
X136969523Y-60840952D01*
X136921904Y-60793333D01*
X136874285Y-60698095D01*
X136874285Y-60602857D01*
X136921904Y-60507619D01*
X136969523Y-60460000D01*
X137064761Y-60412380D01*
X137302857Y-60412380D01*
X137445714Y-60460000D01*
X138207619Y-60888571D02*
X138350476Y-60936190D01*
X138398095Y-60983809D01*
X138445714Y-61079047D01*
X138445714Y-61221904D01*
X138398095Y-61317142D01*
X138350476Y-61364761D01*
X138255238Y-61412380D01*
X137874285Y-61412380D01*
X137874285Y-60412380D01*
X138207619Y-60412380D01*
X138302857Y-60460000D01*
X138350476Y-60507619D01*
X138398095Y-60602857D01*
X138398095Y-60698095D01*
X138350476Y-60793333D01*
X138302857Y-60840952D01*
X138207619Y-60888571D01*
X137874285Y-60888571D01*
X135898095Y-58872380D02*
X135898095Y-57872380D01*
X136469523Y-58872380D01*
X136469523Y-57872380D01*
X137517142Y-58777142D02*
X137469523Y-58824761D01*
X137326666Y-58872380D01*
X137231428Y-58872380D01*
X137088571Y-58824761D01*
X136993333Y-58729523D01*
X136945714Y-58634285D01*
X136898095Y-58443809D01*
X136898095Y-58300952D01*
X136945714Y-58110476D01*
X136993333Y-58015238D01*
X137088571Y-57920000D01*
X137231428Y-57872380D01*
X137326666Y-57872380D01*
X137469523Y-57920000D01*
X137517142Y-57967619D01*
X137898095Y-58824761D02*
X138040952Y-58872380D01*
X138279047Y-58872380D01*
X138374285Y-58824761D01*
X138421904Y-58777142D01*
X138469523Y-58681904D01*
X138469523Y-58586666D01*
X138421904Y-58491428D01*
X138374285Y-58443809D01*
X138279047Y-58396190D01*
X138088571Y-58348571D01*
X137993333Y-58300952D01*
X137945714Y-58253333D01*
X137898095Y-58158095D01*
X137898095Y-58062857D01*
X137945714Y-57967619D01*
X137993333Y-57920000D01*
X138088571Y-57872380D01*
X138326666Y-57872380D01*
X138469523Y-57920000D01*
X135850476Y-56284761D02*
X135993333Y-56332380D01*
X136231428Y-56332380D01*
X136326666Y-56284761D01*
X136374285Y-56237142D01*
X136421904Y-56141904D01*
X136421904Y-56046666D01*
X136374285Y-55951428D01*
X136326666Y-55903809D01*
X136231428Y-55856190D01*
X136040952Y-55808571D01*
X135945714Y-55760952D01*
X135898095Y-55713333D01*
X135850476Y-55618095D01*
X135850476Y-55522857D01*
X135898095Y-55427619D01*
X135945714Y-55380000D01*
X136040952Y-55332380D01*
X136279047Y-55332380D01*
X136421904Y-55380000D01*
X136850476Y-56332380D02*
X136850476Y-55332380D01*
X137088571Y-55332380D01*
X137231428Y-55380000D01*
X137326666Y-55475238D01*
X137374285Y-55570476D01*
X137421904Y-55760952D01*
X137421904Y-55903809D01*
X137374285Y-56094285D01*
X137326666Y-56189523D01*
X137231428Y-56284761D01*
X137088571Y-56332380D01*
X136850476Y-56332380D01*
X138040952Y-55332380D02*
X138231428Y-55332380D01*
X138326666Y-55380000D01*
X138421904Y-55475238D01*
X138469523Y-55665714D01*
X138469523Y-55999047D01*
X138421904Y-56189523D01*
X138326666Y-56284761D01*
X138231428Y-56332380D01*
X138040952Y-56332380D01*
X137945714Y-56284761D01*
X137850476Y-56189523D01*
X137802857Y-55999047D01*
X137802857Y-55665714D01*
X137850476Y-55475238D01*
X137945714Y-55380000D01*
X138040952Y-55332380D01*
X135945714Y-53744761D02*
X136088571Y-53792380D01*
X136326666Y-53792380D01*
X136421904Y-53744761D01*
X136469523Y-53697142D01*
X136517142Y-53601904D01*
X136517142Y-53506666D01*
X136469523Y-53411428D01*
X136421904Y-53363809D01*
X136326666Y-53316190D01*
X136136190Y-53268571D01*
X136040952Y-53220952D01*
X135993333Y-53173333D01*
X135945714Y-53078095D01*
X135945714Y-52982857D01*
X135993333Y-52887619D01*
X136040952Y-52840000D01*
X136136190Y-52792380D01*
X136374285Y-52792380D01*
X136517142Y-52840000D01*
X136945714Y-53792380D02*
X136945714Y-52792380D01*
X137183809Y-52792380D01*
X137326666Y-52840000D01*
X137421904Y-52935238D01*
X137469523Y-53030476D01*
X137517142Y-53220952D01*
X137517142Y-53363809D01*
X137469523Y-53554285D01*
X137421904Y-53649523D01*
X137326666Y-53744761D01*
X137183809Y-53792380D01*
X136945714Y-53792380D01*
X137898095Y-53506666D02*
X138374285Y-53506666D01*
X137802857Y-53792380D02*
X138136190Y-52792380D01*
X138469523Y-53792380D01*
X135969523Y-51204761D02*
X136112380Y-51252380D01*
X136350476Y-51252380D01*
X136445714Y-51204761D01*
X136493333Y-51157142D01*
X136540952Y-51061904D01*
X136540952Y-50966666D01*
X136493333Y-50871428D01*
X136445714Y-50823809D01*
X136350476Y-50776190D01*
X136160000Y-50728571D01*
X136064761Y-50680952D01*
X136017142Y-50633333D01*
X135969523Y-50538095D01*
X135969523Y-50442857D01*
X136017142Y-50347619D01*
X136064761Y-50300000D01*
X136160000Y-50252380D01*
X136398095Y-50252380D01*
X136540952Y-50300000D01*
X137540952Y-51157142D02*
X137493333Y-51204761D01*
X137350476Y-51252380D01*
X137255238Y-51252380D01*
X137112380Y-51204761D01*
X137017142Y-51109523D01*
X136969523Y-51014285D01*
X136921904Y-50823809D01*
X136921904Y-50680952D01*
X136969523Y-50490476D01*
X137017142Y-50395238D01*
X137112380Y-50300000D01*
X137255238Y-50252380D01*
X137350476Y-50252380D01*
X137493333Y-50300000D01*
X137540952Y-50347619D01*
X138445714Y-51252380D02*
X137969523Y-51252380D01*
X137969523Y-50252380D01*
X136398095Y-47760000D02*
X136302857Y-47712380D01*
X136160000Y-47712380D01*
X136017142Y-47760000D01*
X135921904Y-47855238D01*
X135874285Y-47950476D01*
X135826666Y-48140952D01*
X135826666Y-48283809D01*
X135874285Y-48474285D01*
X135921904Y-48569523D01*
X136017142Y-48664761D01*
X136160000Y-48712380D01*
X136255238Y-48712380D01*
X136398095Y-48664761D01*
X136445714Y-48617142D01*
X136445714Y-48283809D01*
X136255238Y-48283809D01*
X136874285Y-48712380D02*
X136874285Y-47712380D01*
X137445714Y-48712380D01*
X137445714Y-47712380D01*
X137921904Y-48712380D02*
X137921904Y-47712380D01*
X138160000Y-47712380D01*
X138302857Y-47760000D01*
X138398095Y-47855238D01*
X138445714Y-47950476D01*
X138493333Y-48140952D01*
X138493333Y-48283809D01*
X138445714Y-48474285D01*
X138398095Y-48569523D01*
X138302857Y-48664761D01*
X138160000Y-48712380D01*
X137921904Y-48712380D01*
X135921904Y-45172380D02*
X136540952Y-45172380D01*
X136207619Y-45553333D01*
X136350476Y-45553333D01*
X136445714Y-45600952D01*
X136493333Y-45648571D01*
X136540952Y-45743809D01*
X136540952Y-45981904D01*
X136493333Y-46077142D01*
X136445714Y-46124761D01*
X136350476Y-46172380D01*
X136064761Y-46172380D01*
X135969523Y-46124761D01*
X135921904Y-46077142D01*
X136826666Y-45172380D02*
X137160000Y-46172380D01*
X137493333Y-45172380D01*
X137731428Y-45172380D02*
X138350476Y-45172380D01*
X138017142Y-45553333D01*
X138160000Y-45553333D01*
X138255238Y-45600952D01*
X138302857Y-45648571D01*
X138350476Y-45743809D01*
X138350476Y-45981904D01*
X138302857Y-46077142D01*
X138255238Y-46124761D01*
X138160000Y-46172380D01*
X137874285Y-46172380D01*
X137779047Y-46124761D01*
X137731428Y-46077142D01*
X136064761Y-42632380D02*
X136398095Y-43632380D01*
X136731428Y-42632380D01*
X137064761Y-43632380D02*
X137064761Y-42632380D01*
X137540952Y-43632380D02*
X137540952Y-42632380D01*
X138112380Y-43632380D01*
X138112380Y-42632380D01*
G04 #@! TO.C,U5*
X147534380Y-74040904D02*
X148343904Y-74040904D01*
X148439142Y-73993285D01*
X148486761Y-73945666D01*
X148534380Y-73850428D01*
X148534380Y-73659952D01*
X148486761Y-73564714D01*
X148439142Y-73517095D01*
X148343904Y-73469476D01*
X147534380Y-73469476D01*
X147534380Y-72517095D02*
X147534380Y-72993285D01*
X148010571Y-73040904D01*
X147962952Y-72993285D01*
X147915333Y-72898047D01*
X147915333Y-72659952D01*
X147962952Y-72564714D01*
X148010571Y-72517095D01*
X148105809Y-72469476D01*
X148343904Y-72469476D01*
X148439142Y-72517095D01*
X148486761Y-72564714D01*
X148534380Y-72659952D01*
X148534380Y-72898047D01*
X148486761Y-72993285D01*
X148439142Y-73040904D01*
G04 #@! TO.C,U1*
X148166095Y-94321380D02*
X148166095Y-95130904D01*
X148213714Y-95226142D01*
X148261333Y-95273761D01*
X148356571Y-95321380D01*
X148547047Y-95321380D01*
X148642285Y-95273761D01*
X148689904Y-95226142D01*
X148737523Y-95130904D01*
X148737523Y-94321380D01*
X149737523Y-95321380D02*
X149166095Y-95321380D01*
X149451809Y-95321380D02*
X149451809Y-94321380D01*
X149356571Y-94464238D01*
X149261333Y-94559476D01*
X149166095Y-94607095D01*
G04 #@! TO.C,U9*
X160361380Y-70738904D02*
X161170904Y-70738904D01*
X161266142Y-70691285D01*
X161313761Y-70643666D01*
X161361380Y-70548428D01*
X161361380Y-70357952D01*
X161313761Y-70262714D01*
X161266142Y-70215095D01*
X161170904Y-70167476D01*
X160361380Y-70167476D01*
X161361380Y-69643666D02*
X161361380Y-69453190D01*
X161313761Y-69357952D01*
X161266142Y-69310333D01*
X161123285Y-69215095D01*
X160932809Y-69167476D01*
X160551857Y-69167476D01*
X160456619Y-69215095D01*
X160409000Y-69262714D01*
X160361380Y-69357952D01*
X160361380Y-69548428D01*
X160409000Y-69643666D01*
X160456619Y-69691285D01*
X160551857Y-69738904D01*
X160789952Y-69738904D01*
X160885190Y-69691285D01*
X160932809Y-69643666D01*
X160980428Y-69548428D01*
X160980428Y-69357952D01*
X160932809Y-69262714D01*
X160885190Y-69215095D01*
X160789952Y-69167476D01*
G04 #@! TD*
M02*
