G04 #@! TF.GenerationSoftware,KiCad,Pcbnew,(5.0.0)*
G04 #@! TF.CreationDate,2018-08-08T00:15:05-07:00*
G04 #@! TF.ProjectId,GPSLogger,4750534C6F676765722E6B696361645F,rev?*
G04 #@! TF.SameCoordinates,Original*
G04 #@! TF.FileFunction,Soldermask,Top*
G04 #@! TF.FilePolarity,Negative*
%FSLAX46Y46*%
G04 Gerber Fmt 4.6, Leading zero omitted, Abs format (unit mm)*
G04 Created by KiCad (PCBNEW (5.0.0)) date 08/08/18 00:15:05*
%MOMM*%
%LPD*%
G01*
G04 APERTURE LIST*
%ADD10C,1.600000*%
%ADD11R,1.600000X1.600000*%
%ADD12O,1.700000X1.700000*%
%ADD13R,1.700000X1.700000*%
%ADD14R,0.700000X2.300000*%
%ADD15R,2.300000X0.700000*%
%ADD16R,2.300000X1.000000*%
%ADD17R,2.000000X1.600000*%
%ADD18R,1.250000X1.000000*%
%ADD19R,1.000000X1.250000*%
%ADD20R,1.200000X1.200000*%
%ADD21R,0.700000X1.300000*%
%ADD22R,1.300000X0.700000*%
%ADD23R,1.500000X1.250000*%
%ADD24R,0.900000X1.200000*%
%ADD25R,1.600000X1.700000*%
%ADD26R,0.802640X1.402080*%
%ADD27R,1.402080X0.751840*%
%ADD28R,2.000000X1.500000*%
%ADD29R,1.000000X0.150000*%
%ADD30R,1.473200X0.838200*%
%ADD31R,0.838200X1.473200*%
%ADD32C,2.082800*%
%ADD33R,1.000000X2.289000*%
%ADD34R,1.000000X0.762000*%
G04 APERTURE END LIST*
D10*
G04 #@! TO.C,U4*
X99822000Y-79248000D03*
X99822000Y-76708000D03*
X99822000Y-74168000D03*
X99822000Y-71628000D03*
X99822000Y-69088000D03*
X99822000Y-66548000D03*
X99822000Y-64008000D03*
X99822000Y-61468000D03*
G04 #@! TD*
G04 #@! TO.C,U3*
X95380000Y-57410000D03*
X110620000Y-52330000D03*
X110620000Y-49790000D03*
X95380000Y-67570000D03*
X95380000Y-65030000D03*
X95380000Y-62490000D03*
X95380000Y-59950000D03*
X95380000Y-72650000D03*
X95380000Y-52330000D03*
X95380000Y-49790000D03*
X110620000Y-54870000D03*
X110620000Y-59950000D03*
X110620000Y-62490000D03*
X110620000Y-65030000D03*
X95380000Y-77730000D03*
X95380000Y-80270000D03*
X95380000Y-82810000D03*
X95380000Y-85350000D03*
X95380000Y-87890000D03*
X95380000Y-90430000D03*
X95380000Y-92970000D03*
X95380000Y-95510000D03*
X95380000Y-98050000D03*
X95380000Y-100590000D03*
X95380000Y-103130000D03*
X95380000Y-105670000D03*
D11*
X95380000Y-108210000D03*
D10*
X110620000Y-72650000D03*
X110620000Y-87890000D03*
X110620000Y-90430000D03*
X110620000Y-92970000D03*
X110620000Y-95510000D03*
X110620000Y-98050000D03*
X110620000Y-100590000D03*
X110620000Y-103130000D03*
X110620000Y-108210000D03*
X108080000Y-105670000D03*
G04 #@! TD*
D12*
G04 #@! TO.C,DEBUG1*
X98552000Y-55118000D03*
X98552000Y-52578000D03*
D13*
X98552000Y-50038000D03*
G04 #@! TD*
G04 #@! TO.C,J1*
X125603000Y-84201000D03*
D12*
X125603000Y-86741000D03*
X125603000Y-89281000D03*
G04 #@! TD*
D13*
G04 #@! TO.C,EINK1*
X118110000Y-54864000D03*
D12*
X118110000Y-57404000D03*
X118110000Y-59944000D03*
X118110000Y-62484000D03*
X118110000Y-65024000D03*
X118110000Y-67564000D03*
X118110000Y-70104000D03*
X118110000Y-72644000D03*
G04 #@! TD*
D14*
G04 #@! TO.C,U2*
X119692000Y-102870000D03*
X120692000Y-102870000D03*
X121692000Y-102870000D03*
X122692000Y-102870000D03*
X123692000Y-102870000D03*
D15*
X126492000Y-111670000D03*
X126492000Y-112670000D03*
X126492000Y-113670000D03*
X126492000Y-114670000D03*
X126492000Y-109670000D03*
X126492000Y-105670000D03*
D16*
X126492000Y-115770000D03*
D15*
X126492000Y-107670000D03*
X126492000Y-108670000D03*
X126492000Y-110670000D03*
X126492000Y-104670000D03*
X126492000Y-106670000D03*
X126492000Y-103670000D03*
X116892000Y-111670000D03*
X116892000Y-112670000D03*
X116892000Y-113670000D03*
X116892000Y-114670000D03*
D16*
X116892000Y-115820000D03*
D15*
X116892000Y-107670000D03*
X116892000Y-108670000D03*
X116892000Y-109670000D03*
X116892000Y-110670000D03*
X116892000Y-106670000D03*
X116892000Y-103670000D03*
G04 #@! TD*
D17*
G04 #@! TO.C,BTN2*
X98700000Y-104394000D03*
X104100000Y-104394000D03*
G04 #@! TD*
D18*
G04 #@! TO.C,C3*
X110490000Y-84582000D03*
X110490000Y-82582000D03*
G04 #@! TD*
G04 #@! TO.C,C6*
X123698000Y-89440000D03*
X123698000Y-91440000D03*
G04 #@! TD*
D19*
G04 #@! TO.C,C4*
X120700000Y-94000000D03*
X122700000Y-94000000D03*
G04 #@! TD*
D20*
G04 #@! TO.C,D1*
X126000000Y-71000000D03*
X126000000Y-73200000D03*
G04 #@! TD*
D21*
G04 #@! TO.C,R6*
X114432000Y-74168000D03*
X116332000Y-74168000D03*
G04 #@! TD*
D22*
G04 #@! TO.C,R7*
X108204000Y-82108000D03*
X108204000Y-84008000D03*
G04 #@! TD*
D21*
G04 #@! TO.C,R10*
X123500000Y-68800000D03*
X125400000Y-68800000D03*
G04 #@! TD*
D22*
G04 #@! TO.C,R11*
X112600000Y-88300000D03*
X112600000Y-86400000D03*
G04 #@! TD*
D21*
G04 #@! TO.C,R12*
X114500000Y-87500000D03*
X116400000Y-87500000D03*
G04 #@! TD*
D22*
G04 #@! TO.C,R15*
X122682000Y-84704000D03*
X122682000Y-82804000D03*
G04 #@! TD*
G04 #@! TO.C,R9*
X112268000Y-82804000D03*
X112268000Y-84704000D03*
G04 #@! TD*
D21*
G04 #@! TO.C,TH1*
X123500000Y-78300000D03*
X121600000Y-78300000D03*
G04 #@! TD*
G04 #@! TO.C,TH2*
X114432000Y-81534000D03*
X116332000Y-81534000D03*
G04 #@! TD*
D23*
G04 #@! TO.C,C1*
X99000000Y-93500000D03*
X101500000Y-93500000D03*
G04 #@! TD*
G04 #@! TO.C,C2*
X99000000Y-96000000D03*
X101500000Y-96000000D03*
G04 #@! TD*
D20*
G04 #@! TO.C,LED_D2*
X109600000Y-111000000D03*
X107400000Y-111000000D03*
G04 #@! TD*
G04 #@! TO.C,LED_D3*
X114300000Y-114300000D03*
X112100000Y-114300000D03*
G04 #@! TD*
G04 #@! TO.C,LED_D4*
X114400000Y-111100000D03*
X112200000Y-111100000D03*
G04 #@! TD*
D24*
G04 #@! TO.C,R1*
X126500000Y-102000000D03*
X126500000Y-99800000D03*
G04 #@! TD*
D21*
G04 #@! TO.C,R2*
X108100000Y-91200000D03*
X106200000Y-91200000D03*
G04 #@! TD*
D20*
G04 #@! TO.C,LED_D1*
X107500000Y-114400000D03*
X109700000Y-114400000D03*
G04 #@! TD*
D17*
G04 #@! TO.C,BTN1*
X98800000Y-114046000D03*
X104200000Y-114046000D03*
G04 #@! TD*
G04 #@! TO.C,BTN3*
X98900000Y-109220000D03*
X104300000Y-109220000D03*
G04 #@! TD*
G04 #@! TO.C,BTN4*
X98500000Y-99500000D03*
X103900000Y-99500000D03*
G04 #@! TD*
D21*
G04 #@! TO.C,R13*
X120142000Y-91694000D03*
X122042000Y-91694000D03*
G04 #@! TD*
D25*
G04 #@! TO.C,BLE_PWR1*
X126263400Y-56489600D03*
D10*
X126263400Y-59029600D03*
X126263400Y-61569600D03*
G04 #@! TD*
D26*
G04 #@! TO.C,U6*
X118005000Y-98499080D03*
X116735000Y-98499080D03*
X115465000Y-98499080D03*
X114195000Y-98499080D03*
X114195000Y-92900920D03*
X115465000Y-92900920D03*
X116735000Y-92900920D03*
X118005000Y-92900920D03*
G04 #@! TD*
D27*
G04 #@! TO.C,U7*
X124097940Y-74450040D03*
X124097940Y-75400000D03*
X124097940Y-76349960D03*
X121502060Y-76349960D03*
X121502060Y-75400000D03*
X121502060Y-74450040D03*
G04 #@! TD*
D28*
G04 #@! TO.C,U8*
X116900000Y-84900000D03*
D29*
X114400000Y-85950000D03*
X114400000Y-85550000D03*
X114400000Y-85150000D03*
X114400000Y-84750000D03*
X114400000Y-84350000D03*
X114400000Y-83950000D03*
X119300000Y-83950000D03*
X119300000Y-84350000D03*
X119300000Y-84750000D03*
X119300000Y-85150000D03*
X119300000Y-85550000D03*
X119300000Y-85950000D03*
G04 #@! TD*
D30*
G04 #@! TO.C,JP1*
X122605800Y-58242200D03*
X122605800Y-57226200D03*
G04 #@! TD*
D31*
G04 #@! TO.C,JP2*
X118008000Y-100900000D03*
X116992000Y-100900000D03*
G04 #@! TD*
G04 #@! TO.C,JP3*
X96308000Y-70300000D03*
X95292000Y-70300000D03*
G04 #@! TD*
D10*
G04 #@! TO.C,U5*
X102108000Y-55118000D03*
X102108000Y-52578000D03*
D25*
X102108000Y-50038000D03*
D10*
X102108000Y-57658000D03*
G04 #@! TD*
D31*
G04 #@! TO.C,JP4*
X124104400Y-64770000D03*
X123291600Y-64770000D03*
G04 #@! TD*
D30*
G04 #@! TO.C,JP5*
X113300000Y-102898400D03*
X113300000Y-103914400D03*
G04 #@! TD*
D32*
G04 #@! TO.C,BLE1*
X114046000Y-50292000D03*
X116586000Y-50292000D03*
X119126000Y-50292000D03*
X121666000Y-50292000D03*
X124206000Y-50292000D03*
X126746000Y-50292000D03*
G04 #@! TD*
D33*
G04 #@! TO.C,R8*
X109474000Y-78486000D03*
X111494000Y-78486000D03*
D34*
X111494000Y-80407000D03*
X109474000Y-80407000D03*
G04 #@! TD*
M02*
