G04 #@! TF.GenerationSoftware,KiCad,Pcbnew,(5.0.0)*
G04 #@! TF.CreationDate,2018-08-08T00:15:05-07:00*
G04 #@! TF.ProjectId,GPSLogger,4750534C6F676765722E6B696361645F,rev?*
G04 #@! TF.SameCoordinates,Original*
G04 #@! TF.FileFunction,Copper,L2,Bot,Signal*
G04 #@! TF.FilePolarity,Positive*
%FSLAX46Y46*%
G04 Gerber Fmt 4.6, Leading zero omitted, Abs format (unit mm)*
G04 Created by KiCad (PCBNEW (5.0.0)) date 08/08/18 00:15:05*
%MOMM*%
%LPD*%
G01*
G04 APERTURE LIST*
G04 #@! TA.AperFunction,ComponentPad*
%ADD10C,1.600000*%
G04 #@! TD*
G04 #@! TA.AperFunction,ComponentPad*
%ADD11R,1.600000X1.600000*%
G04 #@! TD*
G04 #@! TA.AperFunction,ComponentPad*
%ADD12O,1.700000X1.700000*%
G04 #@! TD*
G04 #@! TA.AperFunction,ComponentPad*
%ADD13R,1.700000X1.700000*%
G04 #@! TD*
G04 #@! TA.AperFunction,SMDPad,CuDef*
%ADD14R,1.200000X0.900000*%
G04 #@! TD*
G04 #@! TA.AperFunction,SMDPad,CuDef*
%ADD15R,1.250000X1.000000*%
G04 #@! TD*
G04 #@! TA.AperFunction,SMDPad,CuDef*
%ADD16R,1.300000X0.700000*%
G04 #@! TD*
G04 #@! TA.AperFunction,SMDPad,CuDef*
%ADD17R,0.700000X1.300000*%
G04 #@! TD*
G04 #@! TA.AperFunction,ComponentPad*
%ADD18R,1.600000X1.700000*%
G04 #@! TD*
G04 #@! TA.AperFunction,SMDPad,CuDef*
%ADD19R,1.750000X0.550000*%
G04 #@! TD*
G04 #@! TA.AperFunction,ComponentPad*
%ADD20C,1.879600*%
G04 #@! TD*
G04 #@! TA.AperFunction,ConnectorPad*
%ADD21R,1.500000X0.800000*%
G04 #@! TD*
G04 #@! TA.AperFunction,ConnectorPad*
%ADD22R,0.800000X1.500000*%
G04 #@! TD*
G04 #@! TA.AperFunction,ViaPad*
%ADD23C,0.600000*%
G04 #@! TD*
G04 #@! TA.AperFunction,Conductor*
%ADD24C,0.200000*%
G04 #@! TD*
G04 #@! TA.AperFunction,Conductor*
%ADD25C,0.254000*%
G04 #@! TD*
G04 APERTURE END LIST*
D10*
G04 #@! TO.P,U4,8*
G04 #@! TO.N,BattRtn*
X99822000Y-79248000D03*
G04 #@! TO.P,U4,7*
G04 #@! TO.N,N/C*
X99822000Y-76708000D03*
G04 #@! TO.P,U4,6*
G04 #@! TO.N,BattRtn*
X99822000Y-74168000D03*
G04 #@! TO.P,U4,5*
G04 #@! TO.N,SDA*
X99822000Y-71628000D03*
G04 #@! TO.P,U4,4*
G04 #@! TO.N,SCL*
X99822000Y-69088000D03*
G04 #@! TO.P,U4,3*
G04 #@! TO.N,BattRtn*
X99822000Y-66548000D03*
G04 #@! TO.P,U4,2*
G04 #@! TO.N,Net-(JP3-Pad2)*
X99822000Y-64008000D03*
G04 #@! TO.P,U4,1*
G04 #@! TO.N,N/C*
X99822000Y-61468000D03*
G04 #@! TD*
G04 #@! TO.P,U3,21*
G04 #@! TO.N,GPS_Pwr_En_P28*
X95380000Y-57410000D03*
G04 #@! TO.P,U3,31*
G04 #@! TO.N,/BLE_Tx_RX5_P34*
X110620000Y-52330000D03*
G04 #@! TO.P,U3,30*
G04 #@! TO.N,/BLE_Rx_TX5_P33*
X110620000Y-49790000D03*
G04 #@! TO.P,U3,17*
G04 #@! TO.N,/Sensor_PWR_P25*
X95380000Y-67570000D03*
G04 #@! TO.P,U3,18*
G04 #@! TO.N,N/C*
X95380000Y-65030000D03*
G04 #@! TO.P,U3,19*
G04 #@! TO.N,/Screen_SCK_P27*
X95380000Y-62490000D03*
G04 #@! TO.P,U3,20*
G04 #@! TO.N,/Screen_DIN_P28*
X95380000Y-59950000D03*
G04 #@! TO.P,U3,15*
G04 #@! TO.N,+3V3*
X95380000Y-72650000D03*
G04 #@! TO.P,U3,23*
G04 #@! TO.N,/Debug_Tx_RX5_P34*
X95380000Y-52330000D03*
G04 #@! TO.P,U3,24*
G04 #@! TO.N,/Debug_Rx_TX5_P33*
X95380000Y-49790000D03*
G04 #@! TO.P,U3,32*
G04 #@! TO.N,N/C*
X110620000Y-54870000D03*
G04 #@! TO.P,U3,34*
G04 #@! TO.N,/GPS_ExtInt_P37*
X110620000Y-59950000D03*
G04 #@! TO.P,U3,35*
G04 #@! TO.N,/GPS_TimePulse_P38*
X110620000Y-62490000D03*
G04 #@! TO.P,U3,36*
G04 #@! TO.N,/GPS_Reset_P39*
X110620000Y-65030000D03*
G04 #@! TO.P,U3,13*
G04 #@! TO.N,N/C*
X95380000Y-77730000D03*
G04 #@! TO.P,U3,12*
X95380000Y-80270000D03*
G04 #@! TO.P,U3,11*
X95380000Y-82810000D03*
G04 #@! TO.P,U3,10*
G04 #@! TO.N,/Screen_DC_P8*
X95380000Y-85350000D03*
G04 #@! TO.P,U3,9*
G04 #@! TO.N,/Screen_BUSY_P7*
X95380000Y-87890000D03*
G04 #@! TO.P,U3,8*
G04 #@! TO.N,/Screen_RST_P6*
X95380000Y-90430000D03*
G04 #@! TO.P,U3,7*
G04 #@! TO.N,LED4_P5*
X95380000Y-92970000D03*
G04 #@! TO.P,U3,6*
G04 #@! TO.N,LED3_P4*
X95380000Y-95510000D03*
G04 #@! TO.P,U3,5*
G04 #@! TO.N,LED2_P3*
X95380000Y-98050000D03*
G04 #@! TO.P,U3,4*
G04 #@! TO.N,LED1_P2*
X95380000Y-100590000D03*
G04 #@! TO.P,U3,3*
G04 #@! TO.N,/GPS_Rx_TX1_P1*
X95380000Y-103130000D03*
G04 #@! TO.P,U3,2*
G04 #@! TO.N,/GPS_Tx_RX1_P0*
X95380000Y-105670000D03*
D11*
G04 #@! TO.P,U3,1*
G04 #@! TO.N,BattRtn*
X95380000Y-108210000D03*
D10*
G04 #@! TO.P,U3,39*
X110620000Y-72650000D03*
G04 #@! TO.P,U3,45*
G04 #@! TO.N,SDA*
X110620000Y-87890000D03*
G04 #@! TO.P,U3,46*
G04 #@! TO.N,SCL*
X110620000Y-90430000D03*
G04 #@! TO.P,U3,47*
G04 #@! TO.N,/Screen_CS_P20*
X110620000Y-92970000D03*
G04 #@! TO.P,U3,48*
G04 #@! TO.N,Fun_Btn_3_P21*
X110620000Y-95510000D03*
G04 #@! TO.P,U3,49*
G04 #@! TO.N,Fun_Btn_2_P22*
X110620000Y-98050000D03*
G04 #@! TO.P,U3,50*
G04 #@! TO.N,Fun_Btn_1_P23*
X110620000Y-100590000D03*
G04 #@! TO.P,U3,51*
G04 #@! TO.N,+3V3*
X110620000Y-103130000D03*
G04 #@! TO.P,U3,53*
G04 #@! TO.N,BattPwr*
X110620000Y-108210000D03*
G04 #@! TO.P,U3,54*
G04 #@! TO.N,USBPwr*
X108080000Y-105670000D03*
G04 #@! TD*
D12*
G04 #@! TO.P,DEBUG1,3*
G04 #@! TO.N,BattRtn*
X98552000Y-55118000D03*
G04 #@! TO.P,DEBUG1,2*
G04 #@! TO.N,/Debug_Tx_RX5_P34*
X98552000Y-52578000D03*
D13*
G04 #@! TO.P,DEBUG1,1*
G04 #@! TO.N,/Debug_Rx_TX5_P33*
X98552000Y-50038000D03*
G04 #@! TD*
G04 #@! TO.P,J1,1*
G04 #@! TO.N,Net-(C6-Pad1)*
X125603000Y-84201000D03*
D12*
G04 #@! TO.P,J1,2*
G04 #@! TO.N,Net-(J1-Pad2)*
X125603000Y-86741000D03*
G04 #@! TO.P,J1,3*
G04 #@! TO.N,N/C*
X125603000Y-89281000D03*
G04 #@! TD*
D13*
G04 #@! TO.P,EINK1,1*
G04 #@! TO.N,/Screen_BUSY_P7*
X118110000Y-54864000D03*
D12*
G04 #@! TO.P,EINK1,2*
G04 #@! TO.N,/Screen_RST_P6*
X118110000Y-57404000D03*
G04 #@! TO.P,EINK1,3*
G04 #@! TO.N,/Screen_DC_P8*
X118110000Y-59944000D03*
G04 #@! TO.P,EINK1,4*
G04 #@! TO.N,/Screen_CS_P20*
X118110000Y-62484000D03*
G04 #@! TO.P,EINK1,5*
G04 #@! TO.N,/Screen_SCK_P27*
X118110000Y-65024000D03*
G04 #@! TO.P,EINK1,6*
G04 #@! TO.N,/Screen_DIN_P28*
X118110000Y-67564000D03*
G04 #@! TO.P,EINK1,7*
G04 #@! TO.N,BattRtn*
X118110000Y-70104000D03*
G04 #@! TO.P,EINK1,8*
G04 #@! TO.N,+3V3*
X118110000Y-72644000D03*
G04 #@! TD*
D14*
G04 #@! TO.P,LED_R1,1*
G04 #@! TO.N,LED1_P2*
X104500000Y-114100000D03*
G04 #@! TO.P,LED_R1,2*
G04 #@! TO.N,Net-(LED_D1-Pad2)*
X106700000Y-114100000D03*
G04 #@! TD*
D15*
G04 #@! TO.P,C5,1*
G04 #@! TO.N,Net-(C5-Pad1)*
X120904000Y-92234000D03*
G04 #@! TO.P,C5,2*
G04 #@! TO.N,Net-(C4-Pad2)*
X120904000Y-94234000D03*
G04 #@! TD*
D14*
G04 #@! TO.P,LED_R2,1*
G04 #@! TO.N,LED2_P3*
X107400000Y-112100000D03*
G04 #@! TO.P,LED_R2,2*
G04 #@! TO.N,Net-(LED_D2-Pad2)*
X109600000Y-112100000D03*
G04 #@! TD*
G04 #@! TO.P,LED_R3,1*
G04 #@! TO.N,LED3_P4*
X112100000Y-112900000D03*
G04 #@! TO.P,LED_R3,2*
G04 #@! TO.N,Net-(LED_D3-Pad2)*
X114300000Y-112900000D03*
G04 #@! TD*
G04 #@! TO.P,LED_R4,1*
G04 #@! TO.N,LED4_P5*
X112100000Y-110900000D03*
G04 #@! TO.P,LED_R4,2*
G04 #@! TO.N,Net-(LED_D4-Pad2)*
X114300000Y-110900000D03*
G04 #@! TD*
D16*
G04 #@! TO.P,R3,1*
G04 #@! TO.N,BattRtn*
X99060000Y-104201000D03*
G04 #@! TO.P,R3,2*
G04 #@! TO.N,Fun_Btn_1_P23*
X99060000Y-102301000D03*
G04 #@! TD*
D17*
G04 #@! TO.P,R4,1*
G04 #@! TO.N,BattRtn*
X99900000Y-110200000D03*
G04 #@! TO.P,R4,2*
G04 #@! TO.N,Fun_Btn_2_P22*
X101800000Y-110200000D03*
G04 #@! TD*
D16*
G04 #@! TO.P,R5,1*
G04 #@! TO.N,BattRtn*
X104500000Y-94800000D03*
G04 #@! TO.P,R5,2*
G04 #@! TO.N,Fun_Btn_3_P21*
X104500000Y-96700000D03*
G04 #@! TD*
D17*
G04 #@! TO.P,R14,1*
G04 #@! TO.N,Net-(C4-Pad1)*
X122400000Y-82200000D03*
G04 #@! TO.P,R14,2*
G04 #@! TO.N,Net-(R14-Pad2)*
X120500000Y-82200000D03*
G04 #@! TD*
D18*
G04 #@! TO.P,BLE_PWR1,1*
G04 #@! TO.N,N/C*
X126263400Y-56489600D03*
D10*
G04 #@! TO.P,BLE_PWR1,2*
G04 #@! TO.N,/BLE_Pwr*
X126263400Y-59029600D03*
G04 #@! TO.P,BLE_PWR1,3*
G04 #@! TO.N,BattPwr*
X126263400Y-61569600D03*
G04 #@! TD*
D19*
G04 #@! TO.P,U9,1*
G04 #@! TO.N,Net-(C4-Pad1)*
X122000000Y-85195000D03*
G04 #@! TO.P,U9,2*
G04 #@! TO.N,Net-(R14-Pad2)*
X122000000Y-86465000D03*
G04 #@! TO.P,U9,3*
G04 #@! TO.N,Net-(C6-Pad1)*
X122000000Y-87735000D03*
G04 #@! TO.P,U9,4*
G04 #@! TO.N,Net-(R15-Pad1)*
X122000000Y-89005000D03*
G04 #@! TO.P,U9,5*
G04 #@! TO.N,Net-(U9-Pad5)*
X114600000Y-89005000D03*
G04 #@! TO.P,U9,6*
X114600000Y-87735000D03*
G04 #@! TO.P,U9,7*
X114600000Y-86465000D03*
G04 #@! TO.P,U9,8*
X114600000Y-85195000D03*
G04 #@! TD*
D10*
G04 #@! TO.P,U5,3*
G04 #@! TO.N,SCL*
X102108000Y-55118000D03*
G04 #@! TO.P,U5,2*
G04 #@! TO.N,BattRtn*
X102108000Y-52578000D03*
D18*
G04 #@! TO.P,U5,1*
G04 #@! TO.N,Net-(JP3-Pad2)*
X102108000Y-50038000D03*
D10*
G04 #@! TO.P,U5,4*
G04 #@! TO.N,SDA*
X102108000Y-57658000D03*
G04 #@! TD*
D20*
G04 #@! TO.P,BLE1,1*
G04 #@! TO.N,N/C*
X114046000Y-50292000D03*
G04 #@! TO.P,BLE1,2*
G04 #@! TO.N,/BLE_Rx_TX5_P33*
X116586000Y-50292000D03*
G04 #@! TO.P,BLE1,3*
G04 #@! TO.N,/BLE_Tx_RX5_P34*
X119126000Y-50292000D03*
G04 #@! TO.P,BLE1,4*
G04 #@! TO.N,BattRtn*
X121666000Y-50292000D03*
G04 #@! TO.P,BLE1,5*
G04 #@! TO.N,Net-(BLE1-Pad5)*
X124206000Y-50292000D03*
G04 #@! TO.P,BLE1,6*
G04 #@! TO.N,N/C*
X126746000Y-50292000D03*
G04 #@! TD*
D21*
G04 #@! TO.P,J2,~*
G04 #@! TO.N,N/C*
X122394480Y-95820620D03*
D22*
G04 #@! TO.P,J2,1*
G04 #@! TO.N,Net-(J1-Pad2)*
X124144480Y-91795620D03*
D21*
G04 #@! TO.P,J2,~*
G04 #@! TO.N,N/C*
X127094480Y-95820620D03*
D22*
G04 #@! TO.P,J2,2*
G04 #@! TO.N,Net-(C4-Pad2)*
X125344480Y-91795620D03*
G04 #@! TD*
D23*
G04 #@! TO.N,BattRtn*
X103378000Y-93218000D03*
X97028000Y-103378000D03*
X97790000Y-72390000D03*
X115824000Y-72644000D03*
X118618000Y-106680000D03*
X115321434Y-112265623D03*
X118618000Y-102870008D03*
X115061984Y-99822000D03*
X106172000Y-89662000D03*
G04 #@! TO.N,+3V3*
X101200000Y-106400000D03*
X101000000Y-108500000D03*
X98500000Y-91200000D03*
X110236000Y-75438000D03*
X99314000Y-89408000D03*
X105664000Y-75945992D03*
G04 #@! TO.N,Net-(C4-Pad2)*
X124226320Y-93093540D03*
G04 #@! TO.N,Net-(C4-Pad1)*
X119634000Y-90170000D03*
X122936000Y-74676000D03*
G04 #@! TO.N,Net-(C5-Pad1)*
X118364000Y-84836000D03*
G04 #@! TO.N,/Screen_CS_P20*
X104300741Y-87226012D03*
G04 #@! TO.N,/Screen_DC_P8*
X114808000Y-59944000D03*
G04 #@! TO.N,Fun_Btn_1_P23*
X100800000Y-103200000D03*
G04 #@! TO.N,Fun_Btn_2_P22*
X106200000Y-108600000D03*
X102870000Y-110490000D03*
G04 #@! TO.N,USBPwr*
X119634000Y-81788000D03*
G04 #@! TO.N,Net-(JP2-Pad1)*
X118872000Y-110236000D03*
X117094000Y-104648000D03*
G04 #@! TO.N,BattPwr*
X113300000Y-104849990D03*
G04 #@! TO.N,Net-(LED_D1-Pad2)*
X108204000Y-113284000D03*
G04 #@! TO.N,Net-(LED_D2-Pad2)*
X110700000Y-113100000D03*
G04 #@! TO.N,Net-(LED_D3-Pad2)*
X114400000Y-115800000D03*
G04 #@! TO.N,Net-(LED_D4-Pad2)*
X113538000Y-109830001D03*
G04 #@! TO.N,GPS_Pwr_En_P28*
X97028000Y-89916000D03*
G04 #@! TO.N,Net-(TH2-Pad1)*
X115927992Y-86110001D03*
X114300000Y-82804000D03*
G04 #@! TO.N,/GPS_ExtInt_P37*
X114755990Y-106584021D03*
X97525335Y-76718665D03*
X97790000Y-66040000D03*
X103378000Y-65024000D03*
G04 #@! TO.N,/GPS_Reset_P39*
X127760000Y-101092000D03*
G04 #@! TO.N,/GPS_TimePulse_P38*
X117160000Y-61214000D03*
X113538000Y-61468000D03*
G04 #@! TO.N,Net-(JP3-Pad2)*
X97200000Y-64600000D03*
G04 #@! TO.N,Net-(R14-Pad2)*
X120600000Y-86400000D03*
G04 #@! TO.N,Net-(R15-Pad1)*
X121800000Y-90000000D03*
G04 #@! TO.N,/Screen_DIN_P28*
X112268000Y-69596000D03*
X102362000Y-66040000D03*
X102362000Y-59944000D03*
G04 #@! TD*
D24*
G04 #@! TO.N,*
X126746000Y-56007000D02*
X126263400Y-56489600D01*
G04 #@! TO.N,BattRtn*
X95380000Y-109210000D02*
X95380000Y-108210000D01*
X96370000Y-110200000D02*
X95380000Y-109210000D01*
X99900000Y-110200000D02*
X96370000Y-110200000D01*
X103468000Y-93218000D02*
X103378000Y-93218000D01*
X104500000Y-94800000D02*
X104500000Y-94250000D01*
X104500000Y-94250000D02*
X103468000Y-93218000D01*
X97426736Y-104201000D02*
X99060000Y-104201000D01*
X97028000Y-103802264D02*
X97426736Y-104201000D01*
X97028000Y-103378000D02*
X97028000Y-103802264D01*
X99822000Y-66548000D02*
X97790000Y-68580000D01*
X97790000Y-68580000D02*
X97790000Y-72390000D01*
X118110000Y-70358000D02*
X118110000Y-69850000D01*
X115824000Y-72644000D02*
X118110000Y-70358000D01*
X98298000Y-55118000D02*
X99568000Y-55118000D01*
X99568000Y-55118000D02*
X102108000Y-52578000D01*
X118618000Y-106680000D02*
X118618000Y-102870008D01*
X95380000Y-107566000D02*
X95380000Y-108210000D01*
X99060000Y-104201000D02*
X98745000Y-104201000D01*
X98745000Y-104201000D02*
X95380000Y-107566000D01*
X99822000Y-79248000D02*
X106172000Y-85598000D01*
X106172000Y-89153992D02*
X106172008Y-89154000D01*
X106172000Y-85598000D02*
X106172000Y-89153992D01*
X104500000Y-94800000D02*
X104800000Y-94800000D01*
X112013984Y-96774000D02*
X114761985Y-99522001D01*
X104500000Y-94800000D02*
X104200000Y-94800000D01*
X104200000Y-94800000D02*
X103589999Y-95410001D01*
X105894002Y-96774000D02*
X112013984Y-96774000D01*
X103589999Y-95410001D02*
X103589999Y-97258001D01*
X103589999Y-97258001D02*
X103641999Y-97310001D01*
X114761985Y-99522001D02*
X115061984Y-99822000D01*
X103641999Y-97310001D02*
X105358001Y-97310001D01*
X105358001Y-97310001D02*
X105894002Y-96774000D01*
X118193736Y-102870008D02*
X118618000Y-102870008D01*
X117939728Y-102870008D02*
X118193736Y-102870008D01*
X115930011Y-104879725D02*
X117939728Y-102870008D01*
X115930011Y-111657046D02*
X115930011Y-104879725D01*
X115321434Y-112265623D02*
X115930011Y-111657046D01*
X106172000Y-89153992D02*
X106172000Y-89662000D01*
G04 #@! TO.N,+3V3*
X101200000Y-106400000D02*
X101200000Y-108300000D01*
X101200000Y-108300000D02*
X101000000Y-108500000D01*
X95380000Y-72650000D02*
X95380000Y-73781370D01*
X95380000Y-73781370D02*
X98401989Y-76803359D01*
X98401989Y-90701989D02*
X98500000Y-90800000D01*
X98500000Y-90800000D02*
X98500000Y-91200000D01*
X98401989Y-89916000D02*
X98401989Y-90701989D01*
X98401989Y-76803359D02*
X98401989Y-89916000D01*
X98401989Y-89895747D02*
X98401989Y-89916000D01*
X98889736Y-89408000D02*
X98401989Y-89895747D01*
X99314000Y-89408000D02*
X98889736Y-89408000D01*
X106088264Y-75945992D02*
X105664000Y-75945992D01*
X110236000Y-75438000D02*
X109728008Y-75945992D01*
X109728008Y-75945992D02*
X106088264Y-75945992D01*
G04 #@! TO.N,Net-(C4-Pad2)*
X123856100Y-94234000D02*
X120904000Y-94234000D01*
X125344480Y-91795620D02*
X125344480Y-92745620D01*
X124526319Y-93427179D02*
X124594620Y-93495480D01*
X124526319Y-93393539D02*
X124526319Y-93427179D01*
X124226320Y-93093540D02*
X124526319Y-93393539D01*
X125344480Y-92745620D02*
X124594620Y-93495480D01*
X124594620Y-93495480D02*
X123856100Y-94234000D01*
G04 #@! TO.N,Net-(C4-Pad1)*
X122400000Y-84795000D02*
X122000000Y-85195000D01*
X122400000Y-82200000D02*
X122400000Y-84795000D01*
X122600000Y-85195000D02*
X122000000Y-85195000D01*
X123135001Y-86948001D02*
X123135001Y-85730001D01*
X123083001Y-87000001D02*
X123135001Y-86948001D01*
X121116997Y-87000001D02*
X123083001Y-87000001D01*
X123135001Y-85730001D02*
X122600000Y-85195000D01*
X119933999Y-88182999D02*
X121116997Y-87000001D01*
X119933999Y-89870001D02*
X119933999Y-88182999D01*
X119634000Y-90170000D02*
X119933999Y-89870001D01*
X122400000Y-82200000D02*
X122400000Y-75212000D01*
X122400000Y-75212000D02*
X122936000Y-74676000D01*
G04 #@! TO.N,Net-(C5-Pad1)*
X118364000Y-89819000D02*
X118364000Y-84836000D01*
X120904000Y-92234000D02*
X120779000Y-92234000D01*
X120779000Y-92234000D02*
X118364000Y-89819000D01*
G04 #@! TO.N,Net-(C6-Pad1)*
X123847000Y-87735000D02*
X122000000Y-87735000D01*
X125603000Y-84963000D02*
X125222000Y-85344000D01*
X125603000Y-84201000D02*
X125603000Y-84963000D01*
X125222000Y-85344000D02*
X125222000Y-85479198D01*
X125222000Y-85479198D02*
X124492999Y-86208199D01*
X124492999Y-86208199D02*
X124492999Y-87089001D01*
X124492999Y-87089001D02*
X123847000Y-87735000D01*
G04 #@! TO.N,/Screen_SCK_P27*
X114300000Y-64770000D02*
X118110000Y-64770000D01*
X114287300Y-64782700D02*
X114300000Y-64770000D01*
X96511370Y-62490000D02*
X95380000Y-62490000D01*
X96549371Y-62528001D02*
X96511370Y-62490000D01*
X99860001Y-62528001D02*
X96549371Y-62528001D01*
X100882001Y-63550001D02*
X99860001Y-62528001D01*
X110708803Y-63550001D02*
X100882001Y-63550001D01*
X111941502Y-64782700D02*
X110708803Y-63550001D01*
X114287300Y-64782700D02*
X111941502Y-64782700D01*
G04 #@! TO.N,/Screen_CS_P20*
X110620000Y-92970000D02*
X107380064Y-92970000D01*
X107380064Y-92970000D02*
X104300741Y-89890677D01*
X104300741Y-89890677D02*
X104300741Y-87226012D01*
G04 #@! TO.N,/Screen_DC_P8*
X117856000Y-59944000D02*
X118110000Y-59690000D01*
X114808000Y-59944000D02*
X117856000Y-59944000D01*
G04 #@! TO.N,Fun_Btn_1_P23*
X99901000Y-102301000D02*
X99060000Y-102301000D01*
X100800000Y-103200000D02*
X99901000Y-102301000D01*
G04 #@! TO.N,Fun_Btn_2_P22*
X106200000Y-102470000D02*
X110620000Y-98050000D01*
X106200000Y-108600000D02*
X106200000Y-102470000D01*
X101800000Y-110200000D02*
X102580000Y-110200000D01*
X102580000Y-110200000D02*
X102870000Y-110490000D01*
G04 #@! TO.N,Fun_Btn_3_P21*
X104500000Y-96150000D02*
X104500000Y-96700000D01*
X105140000Y-95510000D02*
X104500000Y-96150000D01*
X110620000Y-95510000D02*
X105140000Y-95510000D01*
G04 #@! TO.N,USBPwr*
X108080000Y-106801370D02*
X108080000Y-105670000D01*
X108080000Y-107238802D02*
X108080000Y-106801370D01*
X112898812Y-109270001D02*
X110111199Y-109270001D01*
X110111199Y-109270001D02*
X108080000Y-107238802D01*
X115315991Y-106852822D02*
X112898812Y-109270001D01*
X115315991Y-104984615D02*
X115315991Y-106852822D01*
X117803999Y-102496607D02*
X115315991Y-104984615D01*
X117803999Y-83618001D02*
X117803999Y-102496607D01*
X119634000Y-81788000D02*
X117803999Y-83618001D01*
G04 #@! TO.N,Net-(JP2-Pad1)*
X118872000Y-110236000D02*
X117094000Y-108458000D01*
X117094000Y-108458000D02*
X117094000Y-104648000D01*
G04 #@! TO.N,BattPwr*
X113300000Y-105530000D02*
X113300000Y-104849990D01*
X110620000Y-108210000D02*
X113300000Y-105530000D01*
G04 #@! TO.N,Net-(LED_D1-Pad2)*
X106700000Y-114100000D02*
X106850000Y-114100000D01*
X107666000Y-113284000D02*
X108204000Y-113284000D01*
X106850000Y-114100000D02*
X107666000Y-113284000D01*
G04 #@! TO.N,Net-(LED_D2-Pad2)*
X109600000Y-112100000D02*
X109700000Y-112100000D01*
X109700000Y-112100000D02*
X110700000Y-113100000D01*
G04 #@! TO.N,Net-(LED_D3-Pad2)*
X114300000Y-112900000D02*
X114300000Y-115700000D01*
X114300000Y-115700000D02*
X114400000Y-115800000D01*
G04 #@! TO.N,Net-(LED_D4-Pad2)*
X113538000Y-110138000D02*
X114300000Y-110900000D01*
X113538000Y-109830001D02*
X113538000Y-110138000D01*
G04 #@! TO.N,LED1_P2*
X104500000Y-108172998D02*
X104500000Y-114100000D01*
X99795803Y-103468801D02*
X104500000Y-108172998D01*
X98258801Y-103468801D02*
X99795803Y-103468801D01*
X95380000Y-100590000D02*
X98258801Y-103468801D01*
G04 #@! TO.N,LED2_P3*
X96179999Y-98849999D02*
X100049999Y-98849999D01*
X95380000Y-98050000D02*
X96179999Y-98849999D01*
X100049999Y-98849999D02*
X104919979Y-103719979D01*
X104919979Y-103719979D02*
X104919979Y-109319979D01*
X107020020Y-111420020D02*
X107020020Y-111820020D01*
X104919979Y-109319979D02*
X107020020Y-111420020D01*
G04 #@! TO.N,LED3_P4*
X96179999Y-96309999D02*
X98109999Y-96309999D01*
X95380000Y-95510000D02*
X96179999Y-96309999D01*
X105279989Y-103479989D02*
X105279989Y-109079989D01*
X98109999Y-96309999D02*
X105279989Y-103479989D01*
X107260010Y-111060010D02*
X110160010Y-111060010D01*
X105279989Y-109079989D02*
X107260010Y-111060010D01*
X110160010Y-111060010D02*
X111900000Y-112800000D01*
G04 #@! TO.N,LED4_P5*
X96179999Y-93769999D02*
X96179999Y-93779999D01*
X95380000Y-92970000D02*
X96179999Y-93769999D01*
X105639999Y-108868801D02*
X107471198Y-110700000D01*
X96179999Y-93779999D02*
X105639999Y-103239999D01*
X105639999Y-103239999D02*
X105639999Y-108868801D01*
X107471198Y-110700000D02*
X112000000Y-110700000D01*
G04 #@! TO.N,GPS_Pwr_En_P28*
X95291197Y-89369999D02*
X96481999Y-89369999D01*
X95380000Y-57410000D02*
X94290010Y-58499990D01*
X94290010Y-58499990D02*
X94290010Y-88368812D01*
X96728001Y-89616001D02*
X97028000Y-89916000D01*
X96481999Y-89369999D02*
X96728001Y-89616001D01*
X94290010Y-88368812D02*
X95291197Y-89369999D01*
G04 #@! TO.N,SCL*
X105103998Y-87136803D02*
X105103998Y-88885196D01*
X105349196Y-90430000D02*
X110620000Y-90430000D01*
X105103998Y-88885196D02*
X104849998Y-89139196D01*
X98761999Y-80794804D02*
X105103998Y-87136803D01*
X104849998Y-89139196D02*
X104849998Y-89930802D01*
X98761999Y-70148001D02*
X98761999Y-80794804D01*
X104849998Y-89930802D02*
X105349196Y-90430000D01*
X99822000Y-69088000D02*
X98761999Y-70148001D01*
G04 #@! TO.N,SDA*
X107448000Y-87890000D02*
X110620000Y-87890000D01*
X100621999Y-74936803D02*
X100621999Y-75939197D01*
X100882001Y-74676801D02*
X100621999Y-74936803D01*
X100882001Y-73659199D02*
X100882001Y-74676801D01*
X100621999Y-73399197D02*
X100882001Y-73659199D01*
X100860966Y-79777836D02*
X106532010Y-85448879D01*
X99822000Y-71628000D02*
X100621999Y-72427999D01*
X100621999Y-75939197D02*
X100882001Y-76199199D01*
X100621999Y-72427999D02*
X100621999Y-73399197D01*
X100882001Y-76199199D02*
X100882001Y-77216801D01*
X100882001Y-77216801D02*
X100621999Y-77476803D01*
X100621999Y-78479197D02*
X100882001Y-78739199D01*
X100882001Y-78739199D02*
X100882001Y-79756801D01*
X100621999Y-77476803D02*
X100621999Y-78479197D01*
X100882001Y-79756801D02*
X100860966Y-79777836D01*
X106532010Y-85448879D02*
X106532010Y-86974010D01*
X106532010Y-86974010D02*
X107448000Y-87890000D01*
G04 #@! TO.N,Net-(TH2-Pad1)*
X115927992Y-86110001D02*
X115927992Y-84431992D01*
X115927992Y-84431992D02*
X114300000Y-82804000D01*
G04 #@! TO.N,/GPS_ExtInt_P37*
X97790000Y-66040000D02*
X98761999Y-65068001D01*
X98761999Y-65068001D02*
X103333999Y-65068001D01*
X103333999Y-65068001D02*
X103378000Y-65024000D01*
X97825334Y-91475334D02*
X98298000Y-91948000D01*
X98298000Y-91948000D02*
X102936802Y-91948000D01*
X102936802Y-91948000D02*
X105178801Y-94189999D01*
X113852067Y-94189999D02*
X115876001Y-96213933D01*
X114755990Y-101464812D02*
X114755990Y-106159757D01*
X114755990Y-106159757D02*
X114755990Y-106584021D01*
X97525335Y-76718665D02*
X97825334Y-77018664D01*
X115876001Y-100344801D02*
X114755990Y-101464812D01*
X105178801Y-94189999D02*
X113852067Y-94189999D01*
X115876001Y-96213933D02*
X115876001Y-100344801D01*
X97825334Y-77018664D02*
X97825334Y-91475334D01*
G04 #@! TO.N,/GPS_Reset_P39*
X127760000Y-98856800D02*
X127760000Y-101092000D01*
X125996700Y-97093500D02*
X127760000Y-98856800D01*
X110620000Y-65030000D02*
X114264001Y-68674001D01*
X114264001Y-68674001D02*
X118322803Y-68674001D01*
X118322803Y-68674001D02*
X127760000Y-78111198D01*
X127760000Y-78111198D02*
X127760000Y-93024420D01*
X127760000Y-93024420D02*
X125996700Y-94787720D01*
X125996700Y-94787720D02*
X125996700Y-97093500D01*
G04 #@! TO.N,/GPS_TimePulse_P38*
X117160000Y-61214000D02*
X113792000Y-61214000D01*
X113792000Y-61214000D02*
X113538000Y-61468000D01*
G04 #@! TO.N,Net-(JP3-Pad2)*
X99230000Y-64600000D02*
X99822000Y-64008000D01*
X97200000Y-64600000D02*
X99230000Y-64600000D01*
G04 #@! TO.N,Net-(R14-Pad2)*
X120500000Y-85800000D02*
X120500000Y-82200000D01*
X120600000Y-86400000D02*
X121535000Y-86000000D01*
X121535000Y-86000000D02*
X122000000Y-86465000D01*
X120600000Y-86400000D02*
X120500000Y-85800000D01*
G04 #@! TO.N,Net-(R15-Pad1)*
X121800000Y-89205000D02*
X122000000Y-89005000D01*
X121800000Y-90000000D02*
X121800000Y-89205000D01*
G04 #@! TO.N,Net-(J1-Pad2)*
X124144480Y-88199520D02*
X125603000Y-86741000D01*
X124144480Y-91795620D02*
X124144480Y-88199520D01*
G04 #@! TO.N,Net-(U9-Pad5)*
X114600000Y-85195000D02*
X114600000Y-86465000D01*
X114600000Y-87735000D02*
X114600000Y-86465000D01*
X114600000Y-89005000D02*
X114600000Y-87735000D01*
G04 #@! TO.N,/Screen_DIN_P28*
X105918000Y-69596000D02*
X102661999Y-66339999D01*
X102661999Y-66339999D02*
X102362000Y-66040000D01*
X112268000Y-69596000D02*
X105918000Y-69596000D01*
X95386000Y-59944000D02*
X95380000Y-59950000D01*
X102362000Y-59944000D02*
X95386000Y-59944000D01*
G04 #@! TD*
D25*
G04 #@! TO.N,BattRtn*
G36*
X127025001Y-92719972D02*
X125528165Y-94216809D01*
X125466795Y-94257815D01*
X125304346Y-94500938D01*
X125261700Y-94715333D01*
X125261700Y-94715336D01*
X125247302Y-94787720D01*
X125261700Y-94860105D01*
X125261701Y-97021111D01*
X125247302Y-97093500D01*
X125304346Y-97380282D01*
X125350529Y-97449399D01*
X125466796Y-97623405D01*
X125528163Y-97664409D01*
X127025000Y-99161247D01*
X127025001Y-100504709D01*
X126967345Y-100562365D01*
X126825000Y-100906017D01*
X126825000Y-101277983D01*
X126967345Y-101621635D01*
X127230365Y-101884655D01*
X127574017Y-102027000D01*
X127585000Y-102027000D01*
X127585000Y-116155000D01*
X126873000Y-116155000D01*
X126873000Y-111760000D01*
X126863333Y-111711399D01*
X126835803Y-111670197D01*
X126794601Y-111642667D01*
X126746000Y-111633000D01*
X116840000Y-111633000D01*
X116791399Y-111642667D01*
X116750197Y-111670197D01*
X116722667Y-111711399D01*
X116713000Y-111760000D01*
X116713000Y-116155000D01*
X115264991Y-116155000D01*
X115335000Y-115985983D01*
X115335000Y-115614017D01*
X115192655Y-115270365D01*
X115035000Y-115112710D01*
X115035000Y-113970587D01*
X115147765Y-113948157D01*
X115357809Y-113807809D01*
X115498157Y-113597765D01*
X115547440Y-113350000D01*
X115547440Y-112450000D01*
X115498157Y-112202235D01*
X115357809Y-111992191D01*
X115219836Y-111900000D01*
X115357809Y-111807809D01*
X115498157Y-111597765D01*
X115547440Y-111350000D01*
X115547440Y-110450000D01*
X115498157Y-110202235D01*
X115357809Y-109992191D01*
X115147765Y-109851843D01*
X114900000Y-109802560D01*
X114473000Y-109802560D01*
X114473000Y-109644018D01*
X114330655Y-109300366D01*
X114119274Y-109088985D01*
X115784528Y-107423731D01*
X115845896Y-107382727D01*
X116008345Y-107139605D01*
X116050991Y-106925210D01*
X116050991Y-106925207D01*
X116065389Y-106852823D01*
X116050991Y-106780439D01*
X116050991Y-105289061D01*
X116260654Y-105079398D01*
X116301345Y-105177635D01*
X116359001Y-105235291D01*
X116359000Y-108385616D01*
X116344602Y-108458000D01*
X116359000Y-108530384D01*
X116359000Y-108530387D01*
X116401646Y-108744782D01*
X116564095Y-108987905D01*
X116625465Y-109028911D01*
X117937000Y-110340447D01*
X117937000Y-110421983D01*
X118079345Y-110765635D01*
X118342365Y-111028655D01*
X118686017Y-111171000D01*
X119057983Y-111171000D01*
X119401635Y-111028655D01*
X119664655Y-110765635D01*
X119807000Y-110421983D01*
X119807000Y-110050017D01*
X119664655Y-109706365D01*
X119401635Y-109443345D01*
X119057983Y-109301000D01*
X118976447Y-109301000D01*
X117829000Y-108153554D01*
X117829000Y-105235290D01*
X117886655Y-105177635D01*
X118029000Y-104833983D01*
X118029000Y-104462017D01*
X117886655Y-104118365D01*
X117623635Y-103855345D01*
X117525398Y-103814654D01*
X118272536Y-103067516D01*
X118333904Y-103026512D01*
X118496353Y-102783390D01*
X118538999Y-102568995D01*
X118553398Y-102496607D01*
X118538999Y-102424219D01*
X118538999Y-91033445D01*
X119631560Y-92126007D01*
X119631560Y-92734000D01*
X119680843Y-92981765D01*
X119821191Y-93191809D01*
X119884334Y-93234000D01*
X119821191Y-93276191D01*
X119680843Y-93486235D01*
X119631560Y-93734000D01*
X119631560Y-94734000D01*
X119680843Y-94981765D01*
X119821191Y-95191809D01*
X120031235Y-95332157D01*
X120279000Y-95381440D01*
X121004833Y-95381440D01*
X120997040Y-95420620D01*
X120997040Y-96220620D01*
X121046323Y-96468385D01*
X121186671Y-96678429D01*
X121396715Y-96818777D01*
X121644480Y-96868060D01*
X123144480Y-96868060D01*
X123392245Y-96818777D01*
X123602289Y-96678429D01*
X123742637Y-96468385D01*
X123791920Y-96220620D01*
X123791920Y-95420620D01*
X123742637Y-95172855D01*
X123606424Y-94969000D01*
X123783716Y-94969000D01*
X123856100Y-94983398D01*
X123928484Y-94969000D01*
X123928488Y-94969000D01*
X124142883Y-94926354D01*
X124386005Y-94763905D01*
X124427011Y-94702535D01*
X125063162Y-94066385D01*
X125124524Y-94025384D01*
X125165525Y-93964022D01*
X125165529Y-93964018D01*
X125165531Y-93964015D01*
X125813017Y-93316530D01*
X125874385Y-93275525D01*
X125957844Y-93150620D01*
X125992245Y-93143777D01*
X126202289Y-93003429D01*
X126342637Y-92793385D01*
X126391920Y-92545620D01*
X126391920Y-91045620D01*
X126342637Y-90797855D01*
X126238667Y-90642254D01*
X126673625Y-90351625D01*
X127001839Y-89860418D01*
X127025001Y-89743975D01*
X127025001Y-92719972D01*
X127025001Y-92719972D01*
G37*
X127025001Y-92719972D02*
X125528165Y-94216809D01*
X125466795Y-94257815D01*
X125304346Y-94500938D01*
X125261700Y-94715333D01*
X125261700Y-94715336D01*
X125247302Y-94787720D01*
X125261700Y-94860105D01*
X125261701Y-97021111D01*
X125247302Y-97093500D01*
X125304346Y-97380282D01*
X125350529Y-97449399D01*
X125466796Y-97623405D01*
X125528163Y-97664409D01*
X127025000Y-99161247D01*
X127025001Y-100504709D01*
X126967345Y-100562365D01*
X126825000Y-100906017D01*
X126825000Y-101277983D01*
X126967345Y-101621635D01*
X127230365Y-101884655D01*
X127574017Y-102027000D01*
X127585000Y-102027000D01*
X127585000Y-116155000D01*
X126873000Y-116155000D01*
X126873000Y-111760000D01*
X126863333Y-111711399D01*
X126835803Y-111670197D01*
X126794601Y-111642667D01*
X126746000Y-111633000D01*
X116840000Y-111633000D01*
X116791399Y-111642667D01*
X116750197Y-111670197D01*
X116722667Y-111711399D01*
X116713000Y-111760000D01*
X116713000Y-116155000D01*
X115264991Y-116155000D01*
X115335000Y-115985983D01*
X115335000Y-115614017D01*
X115192655Y-115270365D01*
X115035000Y-115112710D01*
X115035000Y-113970587D01*
X115147765Y-113948157D01*
X115357809Y-113807809D01*
X115498157Y-113597765D01*
X115547440Y-113350000D01*
X115547440Y-112450000D01*
X115498157Y-112202235D01*
X115357809Y-111992191D01*
X115219836Y-111900000D01*
X115357809Y-111807809D01*
X115498157Y-111597765D01*
X115547440Y-111350000D01*
X115547440Y-110450000D01*
X115498157Y-110202235D01*
X115357809Y-109992191D01*
X115147765Y-109851843D01*
X114900000Y-109802560D01*
X114473000Y-109802560D01*
X114473000Y-109644018D01*
X114330655Y-109300366D01*
X114119274Y-109088985D01*
X115784528Y-107423731D01*
X115845896Y-107382727D01*
X116008345Y-107139605D01*
X116050991Y-106925210D01*
X116050991Y-106925207D01*
X116065389Y-106852823D01*
X116050991Y-106780439D01*
X116050991Y-105289061D01*
X116260654Y-105079398D01*
X116301345Y-105177635D01*
X116359001Y-105235291D01*
X116359000Y-108385616D01*
X116344602Y-108458000D01*
X116359000Y-108530384D01*
X116359000Y-108530387D01*
X116401646Y-108744782D01*
X116564095Y-108987905D01*
X116625465Y-109028911D01*
X117937000Y-110340447D01*
X117937000Y-110421983D01*
X118079345Y-110765635D01*
X118342365Y-111028655D01*
X118686017Y-111171000D01*
X119057983Y-111171000D01*
X119401635Y-111028655D01*
X119664655Y-110765635D01*
X119807000Y-110421983D01*
X119807000Y-110050017D01*
X119664655Y-109706365D01*
X119401635Y-109443345D01*
X119057983Y-109301000D01*
X118976447Y-109301000D01*
X117829000Y-108153554D01*
X117829000Y-105235290D01*
X117886655Y-105177635D01*
X118029000Y-104833983D01*
X118029000Y-104462017D01*
X117886655Y-104118365D01*
X117623635Y-103855345D01*
X117525398Y-103814654D01*
X118272536Y-103067516D01*
X118333904Y-103026512D01*
X118496353Y-102783390D01*
X118538999Y-102568995D01*
X118553398Y-102496607D01*
X118538999Y-102424219D01*
X118538999Y-91033445D01*
X119631560Y-92126007D01*
X119631560Y-92734000D01*
X119680843Y-92981765D01*
X119821191Y-93191809D01*
X119884334Y-93234000D01*
X119821191Y-93276191D01*
X119680843Y-93486235D01*
X119631560Y-93734000D01*
X119631560Y-94734000D01*
X119680843Y-94981765D01*
X119821191Y-95191809D01*
X120031235Y-95332157D01*
X120279000Y-95381440D01*
X121004833Y-95381440D01*
X120997040Y-95420620D01*
X120997040Y-96220620D01*
X121046323Y-96468385D01*
X121186671Y-96678429D01*
X121396715Y-96818777D01*
X121644480Y-96868060D01*
X123144480Y-96868060D01*
X123392245Y-96818777D01*
X123602289Y-96678429D01*
X123742637Y-96468385D01*
X123791920Y-96220620D01*
X123791920Y-95420620D01*
X123742637Y-95172855D01*
X123606424Y-94969000D01*
X123783716Y-94969000D01*
X123856100Y-94983398D01*
X123928484Y-94969000D01*
X123928488Y-94969000D01*
X124142883Y-94926354D01*
X124386005Y-94763905D01*
X124427011Y-94702535D01*
X125063162Y-94066385D01*
X125124524Y-94025384D01*
X125165525Y-93964022D01*
X125165529Y-93964018D01*
X125165531Y-93964015D01*
X125813017Y-93316530D01*
X125874385Y-93275525D01*
X125957844Y-93150620D01*
X125992245Y-93143777D01*
X126202289Y-93003429D01*
X126342637Y-92793385D01*
X126391920Y-92545620D01*
X126391920Y-91045620D01*
X126342637Y-90797855D01*
X126238667Y-90642254D01*
X126673625Y-90351625D01*
X127001839Y-89860418D01*
X127025001Y-89743975D01*
X127025001Y-92719972D01*
G36*
X97687892Y-103937338D02*
X97728896Y-103998706D01*
X97972018Y-104161155D01*
X98186413Y-104203801D01*
X98186416Y-104203801D01*
X98258800Y-104218199D01*
X98331184Y-104203801D01*
X99207000Y-104203801D01*
X99207000Y-104328000D01*
X99187000Y-104328000D01*
X99187000Y-105027250D01*
X99345750Y-105186000D01*
X99836310Y-105186000D01*
X100069699Y-105089327D01*
X100223290Y-104935735D01*
X100829136Y-105541580D01*
X100670365Y-105607345D01*
X100407345Y-105870365D01*
X100265000Y-106214017D01*
X100265000Y-106585983D01*
X100407345Y-106929635D01*
X100465000Y-106987290D01*
X100465001Y-107712709D01*
X100207345Y-107970365D01*
X100065000Y-108314017D01*
X100065000Y-108685983D01*
X100167444Y-108933306D01*
X100027000Y-109073750D01*
X100027000Y-110073000D01*
X100047000Y-110073000D01*
X100047000Y-110327000D01*
X100027000Y-110327000D01*
X100027000Y-111326250D01*
X100185750Y-111485000D01*
X100376309Y-111485000D01*
X100609698Y-111388327D01*
X100788327Y-111209699D01*
X100846279Y-111069791D01*
X100851843Y-111097765D01*
X100992191Y-111307809D01*
X101202235Y-111448157D01*
X101450000Y-111497440D01*
X102150000Y-111497440D01*
X102397765Y-111448157D01*
X102528702Y-111360667D01*
X102684017Y-111425000D01*
X103055983Y-111425000D01*
X103399635Y-111282655D01*
X103662655Y-111019635D01*
X103765000Y-110772551D01*
X103765001Y-113029413D01*
X103652235Y-113051843D01*
X103442191Y-113192191D01*
X103301843Y-113402235D01*
X103252560Y-113650000D01*
X103252560Y-114550000D01*
X103301843Y-114797765D01*
X103442191Y-115007809D01*
X103652235Y-115148157D01*
X103900000Y-115197440D01*
X105100000Y-115197440D01*
X105347765Y-115148157D01*
X105557809Y-115007809D01*
X105600000Y-114944666D01*
X105642191Y-115007809D01*
X105852235Y-115148157D01*
X106100000Y-115197440D01*
X107300000Y-115197440D01*
X107547765Y-115148157D01*
X107757809Y-115007809D01*
X107898157Y-114797765D01*
X107947440Y-114550000D01*
X107947440Y-114189766D01*
X108018017Y-114219000D01*
X108389983Y-114219000D01*
X108733635Y-114076655D01*
X108996655Y-113813635D01*
X109139000Y-113469983D01*
X109139000Y-113197440D01*
X109757993Y-113197440D01*
X109765000Y-113204447D01*
X109765000Y-113285983D01*
X109907345Y-113629635D01*
X110170365Y-113892655D01*
X110514017Y-114035000D01*
X110885983Y-114035000D01*
X111192309Y-113908116D01*
X111252235Y-113948157D01*
X111500000Y-113997440D01*
X112700000Y-113997440D01*
X112947765Y-113948157D01*
X113157809Y-113807809D01*
X113200000Y-113744666D01*
X113242191Y-113807809D01*
X113452235Y-113948157D01*
X113565000Y-113970587D01*
X113565001Y-115372593D01*
X113465000Y-115614017D01*
X113465000Y-115985983D01*
X113535009Y-116155000D01*
X94665000Y-116155000D01*
X94665000Y-110485750D01*
X98915000Y-110485750D01*
X98915000Y-110976310D01*
X99011673Y-111209699D01*
X99190302Y-111388327D01*
X99423691Y-111485000D01*
X99614250Y-111485000D01*
X99773000Y-111326250D01*
X99773000Y-110327000D01*
X99073750Y-110327000D01*
X98915000Y-110485750D01*
X94665000Y-110485750D01*
X94665000Y-109645000D01*
X95094250Y-109645000D01*
X95253000Y-109486250D01*
X95253000Y-108337000D01*
X95507000Y-108337000D01*
X95507000Y-109486250D01*
X95665750Y-109645000D01*
X96306310Y-109645000D01*
X96539699Y-109548327D01*
X96664335Y-109423690D01*
X98915000Y-109423690D01*
X98915000Y-109914250D01*
X99073750Y-110073000D01*
X99773000Y-110073000D01*
X99773000Y-109073750D01*
X99614250Y-108915000D01*
X99423691Y-108915000D01*
X99190302Y-109011673D01*
X99011673Y-109190301D01*
X98915000Y-109423690D01*
X96664335Y-109423690D01*
X96718327Y-109369698D01*
X96815000Y-109136309D01*
X96815000Y-108495750D01*
X96656250Y-108337000D01*
X95507000Y-108337000D01*
X95253000Y-108337000D01*
X95233000Y-108337000D01*
X95233000Y-108083000D01*
X95253000Y-108083000D01*
X95253000Y-108063000D01*
X95507000Y-108063000D01*
X95507000Y-108083000D01*
X96656250Y-108083000D01*
X96815000Y-107924250D01*
X96815000Y-107283691D01*
X96718327Y-107050302D01*
X96539699Y-106871673D01*
X96306310Y-106775000D01*
X96304396Y-106775000D01*
X96596534Y-106482862D01*
X96815000Y-105955439D01*
X96815000Y-105384561D01*
X96596534Y-104857138D01*
X96226146Y-104486750D01*
X97775000Y-104486750D01*
X97775000Y-104677309D01*
X97871673Y-104910698D01*
X98050301Y-105089327D01*
X98283690Y-105186000D01*
X98774250Y-105186000D01*
X98933000Y-105027250D01*
X98933000Y-104328000D01*
X97933750Y-104328000D01*
X97775000Y-104486750D01*
X96226146Y-104486750D01*
X96192862Y-104453466D01*
X96063784Y-104400000D01*
X96192862Y-104346534D01*
X96596534Y-103942862D01*
X96815000Y-103415439D01*
X96815000Y-103064447D01*
X97687892Y-103937338D01*
X97687892Y-103937338D01*
G37*
X97687892Y-103937338D02*
X97728896Y-103998706D01*
X97972018Y-104161155D01*
X98186413Y-104203801D01*
X98186416Y-104203801D01*
X98258800Y-104218199D01*
X98331184Y-104203801D01*
X99207000Y-104203801D01*
X99207000Y-104328000D01*
X99187000Y-104328000D01*
X99187000Y-105027250D01*
X99345750Y-105186000D01*
X99836310Y-105186000D01*
X100069699Y-105089327D01*
X100223290Y-104935735D01*
X100829136Y-105541580D01*
X100670365Y-105607345D01*
X100407345Y-105870365D01*
X100265000Y-106214017D01*
X100265000Y-106585983D01*
X100407345Y-106929635D01*
X100465000Y-106987290D01*
X100465001Y-107712709D01*
X100207345Y-107970365D01*
X100065000Y-108314017D01*
X100065000Y-108685983D01*
X100167444Y-108933306D01*
X100027000Y-109073750D01*
X100027000Y-110073000D01*
X100047000Y-110073000D01*
X100047000Y-110327000D01*
X100027000Y-110327000D01*
X100027000Y-111326250D01*
X100185750Y-111485000D01*
X100376309Y-111485000D01*
X100609698Y-111388327D01*
X100788327Y-111209699D01*
X100846279Y-111069791D01*
X100851843Y-111097765D01*
X100992191Y-111307809D01*
X101202235Y-111448157D01*
X101450000Y-111497440D01*
X102150000Y-111497440D01*
X102397765Y-111448157D01*
X102528702Y-111360667D01*
X102684017Y-111425000D01*
X103055983Y-111425000D01*
X103399635Y-111282655D01*
X103662655Y-111019635D01*
X103765000Y-110772551D01*
X103765001Y-113029413D01*
X103652235Y-113051843D01*
X103442191Y-113192191D01*
X103301843Y-113402235D01*
X103252560Y-113650000D01*
X103252560Y-114550000D01*
X103301843Y-114797765D01*
X103442191Y-115007809D01*
X103652235Y-115148157D01*
X103900000Y-115197440D01*
X105100000Y-115197440D01*
X105347765Y-115148157D01*
X105557809Y-115007809D01*
X105600000Y-114944666D01*
X105642191Y-115007809D01*
X105852235Y-115148157D01*
X106100000Y-115197440D01*
X107300000Y-115197440D01*
X107547765Y-115148157D01*
X107757809Y-115007809D01*
X107898157Y-114797765D01*
X107947440Y-114550000D01*
X107947440Y-114189766D01*
X108018017Y-114219000D01*
X108389983Y-114219000D01*
X108733635Y-114076655D01*
X108996655Y-113813635D01*
X109139000Y-113469983D01*
X109139000Y-113197440D01*
X109757993Y-113197440D01*
X109765000Y-113204447D01*
X109765000Y-113285983D01*
X109907345Y-113629635D01*
X110170365Y-113892655D01*
X110514017Y-114035000D01*
X110885983Y-114035000D01*
X111192309Y-113908116D01*
X111252235Y-113948157D01*
X111500000Y-113997440D01*
X112700000Y-113997440D01*
X112947765Y-113948157D01*
X113157809Y-113807809D01*
X113200000Y-113744666D01*
X113242191Y-113807809D01*
X113452235Y-113948157D01*
X113565000Y-113970587D01*
X113565001Y-115372593D01*
X113465000Y-115614017D01*
X113465000Y-115985983D01*
X113535009Y-116155000D01*
X94665000Y-116155000D01*
X94665000Y-110485750D01*
X98915000Y-110485750D01*
X98915000Y-110976310D01*
X99011673Y-111209699D01*
X99190302Y-111388327D01*
X99423691Y-111485000D01*
X99614250Y-111485000D01*
X99773000Y-111326250D01*
X99773000Y-110327000D01*
X99073750Y-110327000D01*
X98915000Y-110485750D01*
X94665000Y-110485750D01*
X94665000Y-109645000D01*
X95094250Y-109645000D01*
X95253000Y-109486250D01*
X95253000Y-108337000D01*
X95507000Y-108337000D01*
X95507000Y-109486250D01*
X95665750Y-109645000D01*
X96306310Y-109645000D01*
X96539699Y-109548327D01*
X96664335Y-109423690D01*
X98915000Y-109423690D01*
X98915000Y-109914250D01*
X99073750Y-110073000D01*
X99773000Y-110073000D01*
X99773000Y-109073750D01*
X99614250Y-108915000D01*
X99423691Y-108915000D01*
X99190302Y-109011673D01*
X99011673Y-109190301D01*
X98915000Y-109423690D01*
X96664335Y-109423690D01*
X96718327Y-109369698D01*
X96815000Y-109136309D01*
X96815000Y-108495750D01*
X96656250Y-108337000D01*
X95507000Y-108337000D01*
X95253000Y-108337000D01*
X95233000Y-108337000D01*
X95233000Y-108083000D01*
X95253000Y-108083000D01*
X95253000Y-108063000D01*
X95507000Y-108063000D01*
X95507000Y-108083000D01*
X96656250Y-108083000D01*
X96815000Y-107924250D01*
X96815000Y-107283691D01*
X96718327Y-107050302D01*
X96539699Y-106871673D01*
X96306310Y-106775000D01*
X96304396Y-106775000D01*
X96596534Y-106482862D01*
X96815000Y-105955439D01*
X96815000Y-105384561D01*
X96596534Y-104857138D01*
X96226146Y-104486750D01*
X97775000Y-104486750D01*
X97775000Y-104677309D01*
X97871673Y-104910698D01*
X98050301Y-105089327D01*
X98283690Y-105186000D01*
X98774250Y-105186000D01*
X98933000Y-105027250D01*
X98933000Y-104328000D01*
X97933750Y-104328000D01*
X97775000Y-104486750D01*
X96226146Y-104486750D01*
X96192862Y-104453466D01*
X96063784Y-104400000D01*
X96192862Y-104346534D01*
X96596534Y-103942862D01*
X96815000Y-103415439D01*
X96815000Y-103064447D01*
X97687892Y-103937338D01*
G36*
X115141001Y-96518380D02*
X115141002Y-100040353D01*
X114287455Y-100893901D01*
X114226085Y-100934907D01*
X114063636Y-101178030D01*
X114020990Y-101392425D01*
X114020990Y-101392428D01*
X114006592Y-101464812D01*
X114020990Y-101537196D01*
X114020991Y-104248691D01*
X113829635Y-104057335D01*
X113485983Y-103914990D01*
X113114017Y-103914990D01*
X112770365Y-104057335D01*
X112507345Y-104320355D01*
X112365000Y-104664007D01*
X112365000Y-105035973D01*
X112479105Y-105311448D01*
X110983302Y-106807252D01*
X110905439Y-106775000D01*
X110334561Y-106775000D01*
X109807138Y-106993466D01*
X109403466Y-107397138D01*
X109366654Y-107486010D01*
X108815000Y-106934356D01*
X108815000Y-106918786D01*
X108892862Y-106886534D01*
X109296534Y-106482862D01*
X109515000Y-105955439D01*
X109515000Y-105384561D01*
X109296534Y-104857138D01*
X108892862Y-104453466D01*
X108365439Y-104235000D01*
X107794561Y-104235000D01*
X107267138Y-104453466D01*
X106935000Y-104785604D01*
X106935000Y-102774446D01*
X109185000Y-100524447D01*
X109185000Y-100875439D01*
X109403466Y-101402862D01*
X109807138Y-101806534D01*
X109936216Y-101860000D01*
X109807138Y-101913466D01*
X109403466Y-102317138D01*
X109185000Y-102844561D01*
X109185000Y-103415439D01*
X109403466Y-103942862D01*
X109807138Y-104346534D01*
X110334561Y-104565000D01*
X110905439Y-104565000D01*
X111432862Y-104346534D01*
X111836534Y-103942862D01*
X112055000Y-103415439D01*
X112055000Y-102844561D01*
X111836534Y-102317138D01*
X111432862Y-101913466D01*
X111303784Y-101860000D01*
X111432862Y-101806534D01*
X111836534Y-101402862D01*
X112055000Y-100875439D01*
X112055000Y-100304561D01*
X111836534Y-99777138D01*
X111432862Y-99373466D01*
X111303784Y-99320000D01*
X111432862Y-99266534D01*
X111836534Y-98862862D01*
X112055000Y-98335439D01*
X112055000Y-97764561D01*
X111836534Y-97237138D01*
X111432862Y-96833466D01*
X111303784Y-96780000D01*
X111432862Y-96726534D01*
X111836534Y-96322862D01*
X112055000Y-95795439D01*
X112055000Y-95224561D01*
X111930917Y-94924999D01*
X113547621Y-94924999D01*
X115141001Y-96518380D01*
X115141001Y-96518380D01*
G37*
X115141001Y-96518380D02*
X115141002Y-100040353D01*
X114287455Y-100893901D01*
X114226085Y-100934907D01*
X114063636Y-101178030D01*
X114020990Y-101392425D01*
X114020990Y-101392428D01*
X114006592Y-101464812D01*
X114020990Y-101537196D01*
X114020991Y-104248691D01*
X113829635Y-104057335D01*
X113485983Y-103914990D01*
X113114017Y-103914990D01*
X112770365Y-104057335D01*
X112507345Y-104320355D01*
X112365000Y-104664007D01*
X112365000Y-105035973D01*
X112479105Y-105311448D01*
X110983302Y-106807252D01*
X110905439Y-106775000D01*
X110334561Y-106775000D01*
X109807138Y-106993466D01*
X109403466Y-107397138D01*
X109366654Y-107486010D01*
X108815000Y-106934356D01*
X108815000Y-106918786D01*
X108892862Y-106886534D01*
X109296534Y-106482862D01*
X109515000Y-105955439D01*
X109515000Y-105384561D01*
X109296534Y-104857138D01*
X108892862Y-104453466D01*
X108365439Y-104235000D01*
X107794561Y-104235000D01*
X107267138Y-104453466D01*
X106935000Y-104785604D01*
X106935000Y-102774446D01*
X109185000Y-100524447D01*
X109185000Y-100875439D01*
X109403466Y-101402862D01*
X109807138Y-101806534D01*
X109936216Y-101860000D01*
X109807138Y-101913466D01*
X109403466Y-102317138D01*
X109185000Y-102844561D01*
X109185000Y-103415439D01*
X109403466Y-103942862D01*
X109807138Y-104346534D01*
X110334561Y-104565000D01*
X110905439Y-104565000D01*
X111432862Y-104346534D01*
X111836534Y-103942862D01*
X112055000Y-103415439D01*
X112055000Y-102844561D01*
X111836534Y-102317138D01*
X111432862Y-101913466D01*
X111303784Y-101860000D01*
X111432862Y-101806534D01*
X111836534Y-101402862D01*
X112055000Y-100875439D01*
X112055000Y-100304561D01*
X111836534Y-99777138D01*
X111432862Y-99373466D01*
X111303784Y-99320000D01*
X111432862Y-99266534D01*
X111836534Y-98862862D01*
X112055000Y-98335439D01*
X112055000Y-97764561D01*
X111836534Y-97237138D01*
X111432862Y-96833466D01*
X111303784Y-96780000D01*
X111432862Y-96726534D01*
X111836534Y-96322862D01*
X112055000Y-95795439D01*
X112055000Y-95224561D01*
X111930917Y-94924999D01*
X113547621Y-94924999D01*
X115141001Y-96518380D01*
G36*
X109185000Y-64744561D02*
X109185000Y-65315439D01*
X109403466Y-65842862D01*
X109807138Y-66246534D01*
X110334561Y-66465000D01*
X110905439Y-66465000D01*
X110983302Y-66432748D01*
X113693091Y-69142538D01*
X113734096Y-69203906D01*
X113977218Y-69366355D01*
X114191613Y-69409001D01*
X114264001Y-69423400D01*
X114336389Y-69409001D01*
X116808565Y-69409001D01*
X116668524Y-69747110D01*
X116789845Y-69977000D01*
X117983000Y-69977000D01*
X117983000Y-69957000D01*
X118237000Y-69957000D01*
X118237000Y-69977000D01*
X118257000Y-69977000D01*
X118257000Y-70231000D01*
X118237000Y-70231000D01*
X118237000Y-70251000D01*
X117983000Y-70251000D01*
X117983000Y-70231000D01*
X116789845Y-70231000D01*
X116668524Y-70460890D01*
X116838355Y-70870924D01*
X117228642Y-71299183D01*
X117358478Y-71360157D01*
X117039375Y-71573375D01*
X116711161Y-72064582D01*
X116595908Y-72644000D01*
X116711161Y-73223418D01*
X117039375Y-73714625D01*
X117530582Y-74042839D01*
X117963744Y-74129000D01*
X118256256Y-74129000D01*
X118689418Y-74042839D01*
X119180625Y-73714625D01*
X119508839Y-73223418D01*
X119624092Y-72644000D01*
X119508839Y-72064582D01*
X119180625Y-71573375D01*
X118861522Y-71360157D01*
X118991358Y-71299183D01*
X119381645Y-70870924D01*
X119410533Y-70801177D01*
X122467413Y-73858058D01*
X122406365Y-73883345D01*
X122143345Y-74146365D01*
X122001000Y-74490017D01*
X122001000Y-74571554D01*
X121931463Y-74641091D01*
X121870096Y-74682095D01*
X121829092Y-74743462D01*
X121829091Y-74743463D01*
X121707646Y-74925218D01*
X121650602Y-75212000D01*
X121665001Y-75284389D01*
X121665000Y-81043541D01*
X121592191Y-81092191D01*
X121451843Y-81302235D01*
X121450000Y-81311500D01*
X121448157Y-81302235D01*
X121307809Y-81092191D01*
X121097765Y-80951843D01*
X120850000Y-80902560D01*
X120150000Y-80902560D01*
X120007880Y-80930829D01*
X119819983Y-80853000D01*
X119448017Y-80853000D01*
X119104365Y-80995345D01*
X118841345Y-81258365D01*
X118699000Y-81602017D01*
X118699000Y-81683553D01*
X117335464Y-83047090D01*
X117274094Y-83088096D01*
X117111645Y-83331219D01*
X117068999Y-83545614D01*
X117068999Y-83545617D01*
X117054601Y-83618001D01*
X117068999Y-83690385D01*
X117069000Y-102192159D01*
X115490990Y-103770170D01*
X115490990Y-101769258D01*
X116344538Y-100915711D01*
X116405906Y-100874706D01*
X116568355Y-100631584D01*
X116611001Y-100417189D01*
X116625400Y-100344801D01*
X116611001Y-100272413D01*
X116611001Y-96286317D01*
X116625399Y-96213933D01*
X116611001Y-96141549D01*
X116611001Y-96141545D01*
X116568355Y-95927150D01*
X116405906Y-95684028D01*
X116344539Y-95643024D01*
X114422978Y-93721464D01*
X114381972Y-93660094D01*
X114138850Y-93497645D01*
X113924455Y-93454999D01*
X113924451Y-93454999D01*
X113852067Y-93440601D01*
X113779683Y-93454999D01*
X111972339Y-93454999D01*
X112055000Y-93255439D01*
X112055000Y-92684561D01*
X111836534Y-92157138D01*
X111432862Y-91753466D01*
X111303784Y-91700000D01*
X111432862Y-91646534D01*
X111836534Y-91242862D01*
X112055000Y-90715439D01*
X112055000Y-90144561D01*
X111836534Y-89617138D01*
X111432862Y-89213466D01*
X111303784Y-89160000D01*
X111432862Y-89106534D01*
X111836534Y-88702862D01*
X112055000Y-88175439D01*
X112055000Y-87604561D01*
X111836534Y-87077138D01*
X111432862Y-86673466D01*
X110905439Y-86455000D01*
X110334561Y-86455000D01*
X109807138Y-86673466D01*
X109403466Y-87077138D01*
X109371214Y-87155000D01*
X107752447Y-87155000D01*
X107267010Y-86669564D01*
X107267010Y-85521267D01*
X107281409Y-85448879D01*
X107251549Y-85298765D01*
X107224364Y-85162096D01*
X107062601Y-84920000D01*
X113077560Y-84920000D01*
X113077560Y-85470000D01*
X113126843Y-85717765D01*
X113201837Y-85830000D01*
X113126843Y-85942235D01*
X113077560Y-86190000D01*
X113077560Y-86740000D01*
X113126843Y-86987765D01*
X113201837Y-87100000D01*
X113126843Y-87212235D01*
X113077560Y-87460000D01*
X113077560Y-88010000D01*
X113126843Y-88257765D01*
X113201837Y-88370000D01*
X113126843Y-88482235D01*
X113077560Y-88730000D01*
X113077560Y-89280000D01*
X113126843Y-89527765D01*
X113267191Y-89737809D01*
X113477235Y-89878157D01*
X113725000Y-89927440D01*
X115475000Y-89927440D01*
X115722765Y-89878157D01*
X115932809Y-89737809D01*
X116073157Y-89527765D01*
X116122440Y-89280000D01*
X116122440Y-88730000D01*
X116073157Y-88482235D01*
X115998163Y-88370000D01*
X116073157Y-88257765D01*
X116122440Y-88010000D01*
X116122440Y-87460000D01*
X116073157Y-87212235D01*
X115998163Y-87100000D01*
X116034913Y-87045001D01*
X116113975Y-87045001D01*
X116457627Y-86902656D01*
X116720647Y-86639636D01*
X116862992Y-86295984D01*
X116862992Y-85924018D01*
X116720647Y-85580366D01*
X116662992Y-85522711D01*
X116662992Y-84504375D01*
X116677390Y-84431991D01*
X116662992Y-84359607D01*
X116662992Y-84359604D01*
X116620346Y-84145209D01*
X116457897Y-83902087D01*
X116396529Y-83861082D01*
X115235000Y-82699554D01*
X115235000Y-82618017D01*
X115092655Y-82274365D01*
X114829635Y-82011345D01*
X114485983Y-81869000D01*
X114114017Y-81869000D01*
X113770365Y-82011345D01*
X113507345Y-82274365D01*
X113365000Y-82618017D01*
X113365000Y-82989983D01*
X113507345Y-83333635D01*
X113770365Y-83596655D01*
X114114017Y-83739000D01*
X114195554Y-83739000D01*
X114729113Y-84272560D01*
X113725000Y-84272560D01*
X113477235Y-84321843D01*
X113267191Y-84462191D01*
X113126843Y-84672235D01*
X113077560Y-84920000D01*
X107062601Y-84920000D01*
X107061915Y-84918974D01*
X107000548Y-84877970D01*
X101617001Y-79494425D01*
X101617001Y-78811582D01*
X101631399Y-78739198D01*
X101617001Y-78666812D01*
X101617001Y-78666811D01*
X101574355Y-78452416D01*
X101411906Y-78209294D01*
X101356999Y-78172606D01*
X101356999Y-77783394D01*
X101411906Y-77746706D01*
X101574355Y-77503584D01*
X101617001Y-77289189D01*
X101617001Y-77289186D01*
X101631399Y-77216802D01*
X101617001Y-77144418D01*
X101617001Y-76271582D01*
X101631399Y-76199198D01*
X101617001Y-76126812D01*
X101617001Y-76126811D01*
X101574355Y-75912416D01*
X101472520Y-75760009D01*
X104729000Y-75760009D01*
X104729000Y-76131975D01*
X104871345Y-76475627D01*
X105134365Y-76738647D01*
X105478017Y-76880992D01*
X105849983Y-76880992D01*
X106193635Y-76738647D01*
X106251290Y-76680992D01*
X109655624Y-76680992D01*
X109728008Y-76695390D01*
X109800392Y-76680992D01*
X109800396Y-76680992D01*
X110014791Y-76638346D01*
X110257913Y-76475897D01*
X110298919Y-76414527D01*
X110340446Y-76373000D01*
X110421983Y-76373000D01*
X110765635Y-76230655D01*
X111028655Y-75967635D01*
X111171000Y-75623983D01*
X111171000Y-75252017D01*
X111028655Y-74908365D01*
X110765635Y-74645345D01*
X110421983Y-74503000D01*
X110050017Y-74503000D01*
X109706365Y-74645345D01*
X109443345Y-74908365D01*
X109317993Y-75210992D01*
X106251290Y-75210992D01*
X106193635Y-75153337D01*
X105849983Y-75010992D01*
X105478017Y-75010992D01*
X105134365Y-75153337D01*
X104871345Y-75416357D01*
X104729000Y-75760009D01*
X101472520Y-75760009D01*
X101411906Y-75669294D01*
X101356999Y-75632606D01*
X101356999Y-75243394D01*
X101411906Y-75206706D01*
X101574355Y-74963584D01*
X101617001Y-74749189D01*
X101617001Y-74749186D01*
X101631399Y-74676802D01*
X101617001Y-74604418D01*
X101617001Y-73731582D01*
X101631399Y-73659198D01*
X101631110Y-73657745D01*
X109791861Y-73657745D01*
X109865995Y-73903864D01*
X110403223Y-74096965D01*
X110973454Y-74069778D01*
X111374005Y-73903864D01*
X111448139Y-73657745D01*
X110620000Y-72829605D01*
X109791861Y-73657745D01*
X101631110Y-73657745D01*
X101617001Y-73586812D01*
X101617001Y-73586811D01*
X101574355Y-73372416D01*
X101411906Y-73129294D01*
X101356999Y-73092606D01*
X101356999Y-72500382D01*
X101370357Y-72433223D01*
X109173035Y-72433223D01*
X109200222Y-73003454D01*
X109366136Y-73404005D01*
X109612255Y-73478139D01*
X110440395Y-72650000D01*
X110799605Y-72650000D01*
X111627745Y-73478139D01*
X111873864Y-73404005D01*
X112066965Y-72866777D01*
X112039778Y-72296546D01*
X111873864Y-71895995D01*
X111627745Y-71821861D01*
X110799605Y-72650000D01*
X110440395Y-72650000D01*
X109612255Y-71821861D01*
X109366136Y-71895995D01*
X109173035Y-72433223D01*
X101370357Y-72433223D01*
X101371397Y-72427998D01*
X101356999Y-72355612D01*
X101356999Y-72355611D01*
X101314353Y-72141216D01*
X101220705Y-72001062D01*
X101257000Y-71913439D01*
X101257000Y-71642255D01*
X109791861Y-71642255D01*
X110620000Y-72470395D01*
X111448139Y-71642255D01*
X111374005Y-71396136D01*
X110836777Y-71203035D01*
X110266546Y-71230222D01*
X109865995Y-71396136D01*
X109791861Y-71642255D01*
X101257000Y-71642255D01*
X101257000Y-71342561D01*
X101038534Y-70815138D01*
X100634862Y-70411466D01*
X100505784Y-70358000D01*
X100634862Y-70304534D01*
X101038534Y-69900862D01*
X101257000Y-69373439D01*
X101257000Y-68802561D01*
X101038534Y-68275138D01*
X100634862Y-67871466D01*
X100521417Y-67824475D01*
X100576005Y-67801864D01*
X100650139Y-67555745D01*
X99822000Y-66727605D01*
X98993861Y-67555745D01*
X99067995Y-67801864D01*
X99126448Y-67822874D01*
X99009138Y-67871466D01*
X98605466Y-68275138D01*
X98387000Y-68802561D01*
X98387000Y-69373439D01*
X98419252Y-69451302D01*
X98293464Y-69577090D01*
X98232094Y-69618096D01*
X98069645Y-69861219D01*
X98026999Y-70075614D01*
X98026999Y-70075617D01*
X98012601Y-70148001D01*
X98026999Y-70220385D01*
X98026999Y-75388923D01*
X96348736Y-73710660D01*
X96596534Y-73462862D01*
X96815000Y-72935439D01*
X96815000Y-72364561D01*
X96596534Y-71837138D01*
X96192862Y-71433466D01*
X95665439Y-71215000D01*
X95094561Y-71215000D01*
X95025010Y-71243809D01*
X95025010Y-68976191D01*
X95094561Y-69005000D01*
X95665439Y-69005000D01*
X96192862Y-68786534D01*
X96596534Y-68382862D01*
X96815000Y-67855439D01*
X96815000Y-67284561D01*
X96596534Y-66757138D01*
X96192862Y-66353466D01*
X96063784Y-66300000D01*
X96192862Y-66246534D01*
X96596534Y-65842862D01*
X96766519Y-65432483D01*
X96991077Y-65525498D01*
X96855000Y-65854017D01*
X96855000Y-66225983D01*
X96997345Y-66569635D01*
X97260365Y-66832655D01*
X97604017Y-66975000D01*
X97975983Y-66975000D01*
X98319635Y-66832655D01*
X98395333Y-66756957D01*
X98402222Y-66901454D01*
X98568136Y-67302005D01*
X98814255Y-67376139D01*
X99642395Y-66548000D01*
X99628252Y-66533858D01*
X99807858Y-66354252D01*
X99822000Y-66368395D01*
X99836142Y-66354252D01*
X100015748Y-66533858D01*
X100001605Y-66548000D01*
X100829745Y-67376139D01*
X101075864Y-67302005D01*
X101268965Y-66764777D01*
X101241778Y-66194546D01*
X101079594Y-65803001D01*
X101448131Y-65803001D01*
X101427000Y-65854017D01*
X101427000Y-66225983D01*
X101569345Y-66569635D01*
X101832365Y-66832655D01*
X102176017Y-66975000D01*
X102257554Y-66975000D01*
X105347091Y-70064537D01*
X105388095Y-70125905D01*
X105631217Y-70288354D01*
X105845612Y-70331000D01*
X105845616Y-70331000D01*
X105918000Y-70345398D01*
X105990384Y-70331000D01*
X111680710Y-70331000D01*
X111738365Y-70388655D01*
X112082017Y-70531000D01*
X112453983Y-70531000D01*
X112797635Y-70388655D01*
X113060655Y-70125635D01*
X113203000Y-69781983D01*
X113203000Y-69410017D01*
X113060655Y-69066365D01*
X112797635Y-68803345D01*
X112453983Y-68661000D01*
X112082017Y-68661000D01*
X111738365Y-68803345D01*
X111680710Y-68861000D01*
X106222447Y-68861000D01*
X103320446Y-65959000D01*
X103563983Y-65959000D01*
X103907635Y-65816655D01*
X104170655Y-65553635D01*
X104313000Y-65209983D01*
X104313000Y-64838017D01*
X104170655Y-64494365D01*
X103961291Y-64285001D01*
X109375356Y-64285001D01*
X109185000Y-64744561D01*
X109185000Y-64744561D01*
G37*
X109185000Y-64744561D02*
X109185000Y-65315439D01*
X109403466Y-65842862D01*
X109807138Y-66246534D01*
X110334561Y-66465000D01*
X110905439Y-66465000D01*
X110983302Y-66432748D01*
X113693091Y-69142538D01*
X113734096Y-69203906D01*
X113977218Y-69366355D01*
X114191613Y-69409001D01*
X114264001Y-69423400D01*
X114336389Y-69409001D01*
X116808565Y-69409001D01*
X116668524Y-69747110D01*
X116789845Y-69977000D01*
X117983000Y-69977000D01*
X117983000Y-69957000D01*
X118237000Y-69957000D01*
X118237000Y-69977000D01*
X118257000Y-69977000D01*
X118257000Y-70231000D01*
X118237000Y-70231000D01*
X118237000Y-70251000D01*
X117983000Y-70251000D01*
X117983000Y-70231000D01*
X116789845Y-70231000D01*
X116668524Y-70460890D01*
X116838355Y-70870924D01*
X117228642Y-71299183D01*
X117358478Y-71360157D01*
X117039375Y-71573375D01*
X116711161Y-72064582D01*
X116595908Y-72644000D01*
X116711161Y-73223418D01*
X117039375Y-73714625D01*
X117530582Y-74042839D01*
X117963744Y-74129000D01*
X118256256Y-74129000D01*
X118689418Y-74042839D01*
X119180625Y-73714625D01*
X119508839Y-73223418D01*
X119624092Y-72644000D01*
X119508839Y-72064582D01*
X119180625Y-71573375D01*
X118861522Y-71360157D01*
X118991358Y-71299183D01*
X119381645Y-70870924D01*
X119410533Y-70801177D01*
X122467413Y-73858058D01*
X122406365Y-73883345D01*
X122143345Y-74146365D01*
X122001000Y-74490017D01*
X122001000Y-74571554D01*
X121931463Y-74641091D01*
X121870096Y-74682095D01*
X121829092Y-74743462D01*
X121829091Y-74743463D01*
X121707646Y-74925218D01*
X121650602Y-75212000D01*
X121665001Y-75284389D01*
X121665000Y-81043541D01*
X121592191Y-81092191D01*
X121451843Y-81302235D01*
X121450000Y-81311500D01*
X121448157Y-81302235D01*
X121307809Y-81092191D01*
X121097765Y-80951843D01*
X120850000Y-80902560D01*
X120150000Y-80902560D01*
X120007880Y-80930829D01*
X119819983Y-80853000D01*
X119448017Y-80853000D01*
X119104365Y-80995345D01*
X118841345Y-81258365D01*
X118699000Y-81602017D01*
X118699000Y-81683553D01*
X117335464Y-83047090D01*
X117274094Y-83088096D01*
X117111645Y-83331219D01*
X117068999Y-83545614D01*
X117068999Y-83545617D01*
X117054601Y-83618001D01*
X117068999Y-83690385D01*
X117069000Y-102192159D01*
X115490990Y-103770170D01*
X115490990Y-101769258D01*
X116344538Y-100915711D01*
X116405906Y-100874706D01*
X116568355Y-100631584D01*
X116611001Y-100417189D01*
X116625400Y-100344801D01*
X116611001Y-100272413D01*
X116611001Y-96286317D01*
X116625399Y-96213933D01*
X116611001Y-96141549D01*
X116611001Y-96141545D01*
X116568355Y-95927150D01*
X116405906Y-95684028D01*
X116344539Y-95643024D01*
X114422978Y-93721464D01*
X114381972Y-93660094D01*
X114138850Y-93497645D01*
X113924455Y-93454999D01*
X113924451Y-93454999D01*
X113852067Y-93440601D01*
X113779683Y-93454999D01*
X111972339Y-93454999D01*
X112055000Y-93255439D01*
X112055000Y-92684561D01*
X111836534Y-92157138D01*
X111432862Y-91753466D01*
X111303784Y-91700000D01*
X111432862Y-91646534D01*
X111836534Y-91242862D01*
X112055000Y-90715439D01*
X112055000Y-90144561D01*
X111836534Y-89617138D01*
X111432862Y-89213466D01*
X111303784Y-89160000D01*
X111432862Y-89106534D01*
X111836534Y-88702862D01*
X112055000Y-88175439D01*
X112055000Y-87604561D01*
X111836534Y-87077138D01*
X111432862Y-86673466D01*
X110905439Y-86455000D01*
X110334561Y-86455000D01*
X109807138Y-86673466D01*
X109403466Y-87077138D01*
X109371214Y-87155000D01*
X107752447Y-87155000D01*
X107267010Y-86669564D01*
X107267010Y-85521267D01*
X107281409Y-85448879D01*
X107251549Y-85298765D01*
X107224364Y-85162096D01*
X107062601Y-84920000D01*
X113077560Y-84920000D01*
X113077560Y-85470000D01*
X113126843Y-85717765D01*
X113201837Y-85830000D01*
X113126843Y-85942235D01*
X113077560Y-86190000D01*
X113077560Y-86740000D01*
X113126843Y-86987765D01*
X113201837Y-87100000D01*
X113126843Y-87212235D01*
X113077560Y-87460000D01*
X113077560Y-88010000D01*
X113126843Y-88257765D01*
X113201837Y-88370000D01*
X113126843Y-88482235D01*
X113077560Y-88730000D01*
X113077560Y-89280000D01*
X113126843Y-89527765D01*
X113267191Y-89737809D01*
X113477235Y-89878157D01*
X113725000Y-89927440D01*
X115475000Y-89927440D01*
X115722765Y-89878157D01*
X115932809Y-89737809D01*
X116073157Y-89527765D01*
X116122440Y-89280000D01*
X116122440Y-88730000D01*
X116073157Y-88482235D01*
X115998163Y-88370000D01*
X116073157Y-88257765D01*
X116122440Y-88010000D01*
X116122440Y-87460000D01*
X116073157Y-87212235D01*
X115998163Y-87100000D01*
X116034913Y-87045001D01*
X116113975Y-87045001D01*
X116457627Y-86902656D01*
X116720647Y-86639636D01*
X116862992Y-86295984D01*
X116862992Y-85924018D01*
X116720647Y-85580366D01*
X116662992Y-85522711D01*
X116662992Y-84504375D01*
X116677390Y-84431991D01*
X116662992Y-84359607D01*
X116662992Y-84359604D01*
X116620346Y-84145209D01*
X116457897Y-83902087D01*
X116396529Y-83861082D01*
X115235000Y-82699554D01*
X115235000Y-82618017D01*
X115092655Y-82274365D01*
X114829635Y-82011345D01*
X114485983Y-81869000D01*
X114114017Y-81869000D01*
X113770365Y-82011345D01*
X113507345Y-82274365D01*
X113365000Y-82618017D01*
X113365000Y-82989983D01*
X113507345Y-83333635D01*
X113770365Y-83596655D01*
X114114017Y-83739000D01*
X114195554Y-83739000D01*
X114729113Y-84272560D01*
X113725000Y-84272560D01*
X113477235Y-84321843D01*
X113267191Y-84462191D01*
X113126843Y-84672235D01*
X113077560Y-84920000D01*
X107062601Y-84920000D01*
X107061915Y-84918974D01*
X107000548Y-84877970D01*
X101617001Y-79494425D01*
X101617001Y-78811582D01*
X101631399Y-78739198D01*
X101617001Y-78666812D01*
X101617001Y-78666811D01*
X101574355Y-78452416D01*
X101411906Y-78209294D01*
X101356999Y-78172606D01*
X101356999Y-77783394D01*
X101411906Y-77746706D01*
X101574355Y-77503584D01*
X101617001Y-77289189D01*
X101617001Y-77289186D01*
X101631399Y-77216802D01*
X101617001Y-77144418D01*
X101617001Y-76271582D01*
X101631399Y-76199198D01*
X101617001Y-76126812D01*
X101617001Y-76126811D01*
X101574355Y-75912416D01*
X101472520Y-75760009D01*
X104729000Y-75760009D01*
X104729000Y-76131975D01*
X104871345Y-76475627D01*
X105134365Y-76738647D01*
X105478017Y-76880992D01*
X105849983Y-76880992D01*
X106193635Y-76738647D01*
X106251290Y-76680992D01*
X109655624Y-76680992D01*
X109728008Y-76695390D01*
X109800392Y-76680992D01*
X109800396Y-76680992D01*
X110014791Y-76638346D01*
X110257913Y-76475897D01*
X110298919Y-76414527D01*
X110340446Y-76373000D01*
X110421983Y-76373000D01*
X110765635Y-76230655D01*
X111028655Y-75967635D01*
X111171000Y-75623983D01*
X111171000Y-75252017D01*
X111028655Y-74908365D01*
X110765635Y-74645345D01*
X110421983Y-74503000D01*
X110050017Y-74503000D01*
X109706365Y-74645345D01*
X109443345Y-74908365D01*
X109317993Y-75210992D01*
X106251290Y-75210992D01*
X106193635Y-75153337D01*
X105849983Y-75010992D01*
X105478017Y-75010992D01*
X105134365Y-75153337D01*
X104871345Y-75416357D01*
X104729000Y-75760009D01*
X101472520Y-75760009D01*
X101411906Y-75669294D01*
X101356999Y-75632606D01*
X101356999Y-75243394D01*
X101411906Y-75206706D01*
X101574355Y-74963584D01*
X101617001Y-74749189D01*
X101617001Y-74749186D01*
X101631399Y-74676802D01*
X101617001Y-74604418D01*
X101617001Y-73731582D01*
X101631399Y-73659198D01*
X101631110Y-73657745D01*
X109791861Y-73657745D01*
X109865995Y-73903864D01*
X110403223Y-74096965D01*
X110973454Y-74069778D01*
X111374005Y-73903864D01*
X111448139Y-73657745D01*
X110620000Y-72829605D01*
X109791861Y-73657745D01*
X101631110Y-73657745D01*
X101617001Y-73586812D01*
X101617001Y-73586811D01*
X101574355Y-73372416D01*
X101411906Y-73129294D01*
X101356999Y-73092606D01*
X101356999Y-72500382D01*
X101370357Y-72433223D01*
X109173035Y-72433223D01*
X109200222Y-73003454D01*
X109366136Y-73404005D01*
X109612255Y-73478139D01*
X110440395Y-72650000D01*
X110799605Y-72650000D01*
X111627745Y-73478139D01*
X111873864Y-73404005D01*
X112066965Y-72866777D01*
X112039778Y-72296546D01*
X111873864Y-71895995D01*
X111627745Y-71821861D01*
X110799605Y-72650000D01*
X110440395Y-72650000D01*
X109612255Y-71821861D01*
X109366136Y-71895995D01*
X109173035Y-72433223D01*
X101370357Y-72433223D01*
X101371397Y-72427998D01*
X101356999Y-72355612D01*
X101356999Y-72355611D01*
X101314353Y-72141216D01*
X101220705Y-72001062D01*
X101257000Y-71913439D01*
X101257000Y-71642255D01*
X109791861Y-71642255D01*
X110620000Y-72470395D01*
X111448139Y-71642255D01*
X111374005Y-71396136D01*
X110836777Y-71203035D01*
X110266546Y-71230222D01*
X109865995Y-71396136D01*
X109791861Y-71642255D01*
X101257000Y-71642255D01*
X101257000Y-71342561D01*
X101038534Y-70815138D01*
X100634862Y-70411466D01*
X100505784Y-70358000D01*
X100634862Y-70304534D01*
X101038534Y-69900862D01*
X101257000Y-69373439D01*
X101257000Y-68802561D01*
X101038534Y-68275138D01*
X100634862Y-67871466D01*
X100521417Y-67824475D01*
X100576005Y-67801864D01*
X100650139Y-67555745D01*
X99822000Y-66727605D01*
X98993861Y-67555745D01*
X99067995Y-67801864D01*
X99126448Y-67822874D01*
X99009138Y-67871466D01*
X98605466Y-68275138D01*
X98387000Y-68802561D01*
X98387000Y-69373439D01*
X98419252Y-69451302D01*
X98293464Y-69577090D01*
X98232094Y-69618096D01*
X98069645Y-69861219D01*
X98026999Y-70075614D01*
X98026999Y-70075617D01*
X98012601Y-70148001D01*
X98026999Y-70220385D01*
X98026999Y-75388923D01*
X96348736Y-73710660D01*
X96596534Y-73462862D01*
X96815000Y-72935439D01*
X96815000Y-72364561D01*
X96596534Y-71837138D01*
X96192862Y-71433466D01*
X95665439Y-71215000D01*
X95094561Y-71215000D01*
X95025010Y-71243809D01*
X95025010Y-68976191D01*
X95094561Y-69005000D01*
X95665439Y-69005000D01*
X96192862Y-68786534D01*
X96596534Y-68382862D01*
X96815000Y-67855439D01*
X96815000Y-67284561D01*
X96596534Y-66757138D01*
X96192862Y-66353466D01*
X96063784Y-66300000D01*
X96192862Y-66246534D01*
X96596534Y-65842862D01*
X96766519Y-65432483D01*
X96991077Y-65525498D01*
X96855000Y-65854017D01*
X96855000Y-66225983D01*
X96997345Y-66569635D01*
X97260365Y-66832655D01*
X97604017Y-66975000D01*
X97975983Y-66975000D01*
X98319635Y-66832655D01*
X98395333Y-66756957D01*
X98402222Y-66901454D01*
X98568136Y-67302005D01*
X98814255Y-67376139D01*
X99642395Y-66548000D01*
X99628252Y-66533858D01*
X99807858Y-66354252D01*
X99822000Y-66368395D01*
X99836142Y-66354252D01*
X100015748Y-66533858D01*
X100001605Y-66548000D01*
X100829745Y-67376139D01*
X101075864Y-67302005D01*
X101268965Y-66764777D01*
X101241778Y-66194546D01*
X101079594Y-65803001D01*
X101448131Y-65803001D01*
X101427000Y-65854017D01*
X101427000Y-66225983D01*
X101569345Y-66569635D01*
X101832365Y-66832655D01*
X102176017Y-66975000D01*
X102257554Y-66975000D01*
X105347091Y-70064537D01*
X105388095Y-70125905D01*
X105631217Y-70288354D01*
X105845612Y-70331000D01*
X105845616Y-70331000D01*
X105918000Y-70345398D01*
X105990384Y-70331000D01*
X111680710Y-70331000D01*
X111738365Y-70388655D01*
X112082017Y-70531000D01*
X112453983Y-70531000D01*
X112797635Y-70388655D01*
X113060655Y-70125635D01*
X113203000Y-69781983D01*
X113203000Y-69410017D01*
X113060655Y-69066365D01*
X112797635Y-68803345D01*
X112453983Y-68661000D01*
X112082017Y-68661000D01*
X111738365Y-68803345D01*
X111680710Y-68861000D01*
X106222447Y-68861000D01*
X103320446Y-65959000D01*
X103563983Y-65959000D01*
X103907635Y-65816655D01*
X104170655Y-65553635D01*
X104313000Y-65209983D01*
X104313000Y-64838017D01*
X104170655Y-64494365D01*
X103961291Y-64285001D01*
X109375356Y-64285001D01*
X109185000Y-64744561D01*
G36*
X96842017Y-90851000D02*
X97090335Y-90851000D01*
X97090335Y-91402945D01*
X97075936Y-91475334D01*
X97132980Y-91762116D01*
X97254425Y-91943871D01*
X97295430Y-92005239D01*
X97356797Y-92046243D01*
X97727090Y-92416537D01*
X97768095Y-92477905D01*
X98011217Y-92640354D01*
X98225612Y-92683000D01*
X98298000Y-92697399D01*
X98370388Y-92683000D01*
X102632356Y-92683000D01*
X103764355Y-93815000D01*
X103723690Y-93815000D01*
X103490301Y-93911673D01*
X103311673Y-94090302D01*
X103215000Y-94323691D01*
X103215000Y-94514250D01*
X103373750Y-94673000D01*
X104373000Y-94673000D01*
X104373000Y-94653000D01*
X104602355Y-94653000D01*
X104607891Y-94658536D01*
X104647000Y-94717066D01*
X104647000Y-94927000D01*
X104627000Y-94927000D01*
X104627000Y-94947000D01*
X104373000Y-94947000D01*
X104373000Y-94927000D01*
X103373750Y-94927000D01*
X103215000Y-95085750D01*
X103215000Y-95276309D01*
X103311673Y-95509698D01*
X103490301Y-95688327D01*
X103630209Y-95746279D01*
X103602235Y-95751843D01*
X103392191Y-95892191D01*
X103251843Y-96102235D01*
X103202560Y-96350000D01*
X103202560Y-97050000D01*
X103251843Y-97297765D01*
X103392191Y-97507809D01*
X103602235Y-97648157D01*
X103850000Y-97697440D01*
X105150000Y-97697440D01*
X105397765Y-97648157D01*
X105607809Y-97507809D01*
X105748157Y-97297765D01*
X105797440Y-97050000D01*
X105797440Y-96350000D01*
X105776554Y-96245000D01*
X109371214Y-96245000D01*
X109403466Y-96322862D01*
X109807138Y-96726534D01*
X109936216Y-96780000D01*
X109807138Y-96833466D01*
X109403466Y-97237138D01*
X109185000Y-97764561D01*
X109185000Y-98335439D01*
X109217252Y-98413301D01*
X105731463Y-101899091D01*
X105670096Y-101940095D01*
X105629092Y-102001462D01*
X105629091Y-102001463D01*
X105553716Y-102114269D01*
X96779819Y-93340373D01*
X96815000Y-93255439D01*
X96815000Y-92684561D01*
X96596534Y-92157138D01*
X96192862Y-91753466D01*
X96063784Y-91700000D01*
X96192862Y-91646534D01*
X96596534Y-91242862D01*
X96771028Y-90821596D01*
X96842017Y-90851000D01*
X96842017Y-90851000D01*
G37*
X96842017Y-90851000D02*
X97090335Y-90851000D01*
X97090335Y-91402945D01*
X97075936Y-91475334D01*
X97132980Y-91762116D01*
X97254425Y-91943871D01*
X97295430Y-92005239D01*
X97356797Y-92046243D01*
X97727090Y-92416537D01*
X97768095Y-92477905D01*
X98011217Y-92640354D01*
X98225612Y-92683000D01*
X98298000Y-92697399D01*
X98370388Y-92683000D01*
X102632356Y-92683000D01*
X103764355Y-93815000D01*
X103723690Y-93815000D01*
X103490301Y-93911673D01*
X103311673Y-94090302D01*
X103215000Y-94323691D01*
X103215000Y-94514250D01*
X103373750Y-94673000D01*
X104373000Y-94673000D01*
X104373000Y-94653000D01*
X104602355Y-94653000D01*
X104607891Y-94658536D01*
X104647000Y-94717066D01*
X104647000Y-94927000D01*
X104627000Y-94927000D01*
X104627000Y-94947000D01*
X104373000Y-94947000D01*
X104373000Y-94927000D01*
X103373750Y-94927000D01*
X103215000Y-95085750D01*
X103215000Y-95276309D01*
X103311673Y-95509698D01*
X103490301Y-95688327D01*
X103630209Y-95746279D01*
X103602235Y-95751843D01*
X103392191Y-95892191D01*
X103251843Y-96102235D01*
X103202560Y-96350000D01*
X103202560Y-97050000D01*
X103251843Y-97297765D01*
X103392191Y-97507809D01*
X103602235Y-97648157D01*
X103850000Y-97697440D01*
X105150000Y-97697440D01*
X105397765Y-97648157D01*
X105607809Y-97507809D01*
X105748157Y-97297765D01*
X105797440Y-97050000D01*
X105797440Y-96350000D01*
X105776554Y-96245000D01*
X109371214Y-96245000D01*
X109403466Y-96322862D01*
X109807138Y-96726534D01*
X109936216Y-96780000D01*
X109807138Y-96833466D01*
X109403466Y-97237138D01*
X109185000Y-97764561D01*
X109185000Y-98335439D01*
X109217252Y-98413301D01*
X105731463Y-101899091D01*
X105670096Y-101940095D01*
X105629092Y-102001462D01*
X105629091Y-102001463D01*
X105553716Y-102114269D01*
X96779819Y-93340373D01*
X96815000Y-93255439D01*
X96815000Y-92684561D01*
X96596534Y-92157138D01*
X96192862Y-91753466D01*
X96063784Y-91700000D01*
X96192862Y-91646534D01*
X96596534Y-91242862D01*
X96771028Y-90821596D01*
X96842017Y-90851000D01*
G36*
X105839656Y-87260792D02*
X105948431Y-87423585D01*
X106002106Y-87503915D01*
X106063473Y-87544919D01*
X106877090Y-88358537D01*
X106918095Y-88419905D01*
X107161217Y-88582354D01*
X107375612Y-88625000D01*
X107375615Y-88625000D01*
X107447999Y-88639398D01*
X107520383Y-88625000D01*
X109371214Y-88625000D01*
X109403466Y-88702862D01*
X109807138Y-89106534D01*
X109936216Y-89160000D01*
X109807138Y-89213466D01*
X109403466Y-89617138D01*
X109371214Y-89695000D01*
X105653643Y-89695000D01*
X105584998Y-89626356D01*
X105584998Y-89447778D01*
X105633903Y-89415101D01*
X105796352Y-89171979D01*
X105838998Y-88957584D01*
X105838998Y-88957581D01*
X105853396Y-88885197D01*
X105838998Y-88812813D01*
X105838998Y-87257484D01*
X105839656Y-87260792D01*
X105839656Y-87260792D01*
G37*
X105839656Y-87260792D02*
X105948431Y-87423585D01*
X106002106Y-87503915D01*
X106063473Y-87544919D01*
X106877090Y-88358537D01*
X106918095Y-88419905D01*
X107161217Y-88582354D01*
X107375612Y-88625000D01*
X107375615Y-88625000D01*
X107447999Y-88639398D01*
X107520383Y-88625000D01*
X109371214Y-88625000D01*
X109403466Y-88702862D01*
X109807138Y-89106534D01*
X109936216Y-89160000D01*
X109807138Y-89213466D01*
X109403466Y-89617138D01*
X109371214Y-89695000D01*
X105653643Y-89695000D01*
X105584998Y-89626356D01*
X105584998Y-89447778D01*
X105633903Y-89415101D01*
X105796352Y-89171979D01*
X105838998Y-88957584D01*
X105838998Y-88957581D01*
X105853396Y-88885197D01*
X105838998Y-88812813D01*
X105838998Y-87257484D01*
X105839656Y-87260792D01*
G36*
X100015748Y-79233858D02*
X100001605Y-79248000D01*
X100015748Y-79262142D01*
X99836143Y-79441748D01*
X99822000Y-79427605D01*
X99807858Y-79441748D01*
X99628253Y-79262143D01*
X99642395Y-79248000D01*
X99628253Y-79233858D01*
X99807858Y-79054253D01*
X99822000Y-79068395D01*
X99836142Y-79054252D01*
X100015748Y-79233858D01*
X100015748Y-79233858D01*
G37*
X100015748Y-79233858D02*
X100001605Y-79248000D01*
X100015748Y-79262142D01*
X99836143Y-79441748D01*
X99822000Y-79427605D01*
X99807858Y-79441748D01*
X99628253Y-79262143D01*
X99642395Y-79248000D01*
X99628253Y-79233858D01*
X99807858Y-79054253D01*
X99822000Y-79068395D01*
X99836142Y-79054252D01*
X100015748Y-79233858D01*
G36*
X97054560Y-49188000D02*
X97054560Y-50888000D01*
X97103843Y-51135765D01*
X97244191Y-51345809D01*
X97454235Y-51486157D01*
X97499619Y-51495184D01*
X97481375Y-51507375D01*
X97153161Y-51998582D01*
X97037908Y-52578000D01*
X97153161Y-53157418D01*
X97481375Y-53648625D01*
X97800478Y-53861843D01*
X97670642Y-53922817D01*
X97280355Y-54351076D01*
X97110524Y-54761110D01*
X97231845Y-54991000D01*
X98425000Y-54991000D01*
X98425000Y-54971000D01*
X98679000Y-54971000D01*
X98679000Y-54991000D01*
X99872155Y-54991000D01*
X99993476Y-54761110D01*
X99823645Y-54351076D01*
X99433358Y-53922817D01*
X99303522Y-53861843D01*
X99622625Y-53648625D01*
X99950839Y-53157418D01*
X100066092Y-52578000D01*
X100022973Y-52361223D01*
X100661035Y-52361223D01*
X100688222Y-52931454D01*
X100854136Y-53332005D01*
X101100255Y-53406139D01*
X101928395Y-52578000D01*
X102287605Y-52578000D01*
X103115745Y-53406139D01*
X103361864Y-53332005D01*
X103554965Y-52794777D01*
X103527778Y-52224546D01*
X103361864Y-51823995D01*
X103115745Y-51749861D01*
X102287605Y-52578000D01*
X101928395Y-52578000D01*
X101100255Y-51749861D01*
X100854136Y-51823995D01*
X100661035Y-52361223D01*
X100022973Y-52361223D01*
X99950839Y-51998582D01*
X99622625Y-51507375D01*
X99604381Y-51495184D01*
X99649765Y-51486157D01*
X99859809Y-51345809D01*
X100000157Y-51135765D01*
X100049440Y-50888000D01*
X100049440Y-49188000D01*
X100001105Y-48945000D01*
X100708895Y-48945000D01*
X100660560Y-49188000D01*
X100660560Y-50888000D01*
X100709843Y-51135765D01*
X100850191Y-51345809D01*
X101060235Y-51486157D01*
X101291346Y-51532127D01*
X101279861Y-51570255D01*
X102108000Y-52398395D01*
X102936139Y-51570255D01*
X102924654Y-51532127D01*
X103155765Y-51486157D01*
X103365809Y-51345809D01*
X103506157Y-51135765D01*
X103555440Y-50888000D01*
X103555440Y-49188000D01*
X103507105Y-48945000D01*
X109435604Y-48945000D01*
X109403466Y-48977138D01*
X109185000Y-49504561D01*
X109185000Y-50075439D01*
X109403466Y-50602862D01*
X109807138Y-51006534D01*
X109936216Y-51060000D01*
X109807138Y-51113466D01*
X109403466Y-51517138D01*
X109185000Y-52044561D01*
X109185000Y-52615439D01*
X109403466Y-53142862D01*
X109807138Y-53546534D01*
X109936216Y-53600000D01*
X109807138Y-53653466D01*
X109403466Y-54057138D01*
X109185000Y-54584561D01*
X109185000Y-55155439D01*
X109403466Y-55682862D01*
X109807138Y-56086534D01*
X110334561Y-56305000D01*
X110905439Y-56305000D01*
X111432862Y-56086534D01*
X111836534Y-55682862D01*
X112055000Y-55155439D01*
X112055000Y-54584561D01*
X111836534Y-54057138D01*
X111432862Y-53653466D01*
X111303784Y-53600000D01*
X111432862Y-53546534D01*
X111836534Y-53142862D01*
X112055000Y-52615439D01*
X112055000Y-52044561D01*
X111836534Y-51517138D01*
X111432862Y-51113466D01*
X111303784Y-51060000D01*
X111432862Y-51006534D01*
X111836534Y-50602862D01*
X112055000Y-50075439D01*
X112055000Y-49504561D01*
X111836534Y-48977138D01*
X111804396Y-48945000D01*
X113182795Y-48945000D01*
X113153948Y-48956949D01*
X112710949Y-49399948D01*
X112471200Y-49978753D01*
X112471200Y-50605247D01*
X112710949Y-51184052D01*
X113153948Y-51627051D01*
X113732753Y-51866800D01*
X114359247Y-51866800D01*
X114938052Y-51627051D01*
X115316000Y-51249103D01*
X115693948Y-51627051D01*
X116272753Y-51866800D01*
X116899247Y-51866800D01*
X117478052Y-51627051D01*
X117856000Y-51249103D01*
X118233948Y-51627051D01*
X118812753Y-51866800D01*
X119439247Y-51866800D01*
X120018052Y-51627051D01*
X120244135Y-51400968D01*
X120736637Y-51400968D01*
X120827923Y-51661580D01*
X121415833Y-51878045D01*
X122041828Y-51853049D01*
X122504077Y-51661580D01*
X122595363Y-51400968D01*
X121666000Y-50471605D01*
X120736637Y-51400968D01*
X120244135Y-51400968D01*
X120458317Y-51186786D01*
X120557032Y-51221363D01*
X121486395Y-50292000D01*
X120557032Y-49362637D01*
X120458317Y-49397214D01*
X120018052Y-48956949D01*
X119989205Y-48945000D01*
X120820014Y-48945000D01*
X120736637Y-49183032D01*
X121666000Y-50112395D01*
X122595363Y-49183032D01*
X122511986Y-48945000D01*
X123342795Y-48945000D01*
X123313948Y-48956949D01*
X122873683Y-49397214D01*
X122774968Y-49362637D01*
X121845605Y-50292000D01*
X122774968Y-51221363D01*
X122873683Y-51186786D01*
X123313948Y-51627051D01*
X123892753Y-51866800D01*
X124519247Y-51866800D01*
X125098052Y-51627051D01*
X125476000Y-51249103D01*
X125853948Y-51627051D01*
X126432753Y-51866800D01*
X127059247Y-51866800D01*
X127585001Y-51649025D01*
X127585001Y-55277262D01*
X127521209Y-55181791D01*
X127311165Y-55041443D01*
X127063400Y-54992160D01*
X125463400Y-54992160D01*
X125215635Y-55041443D01*
X125005591Y-55181791D01*
X124865243Y-55391835D01*
X124815960Y-55639600D01*
X124815960Y-57339600D01*
X124865243Y-57587365D01*
X125005591Y-57797409D01*
X125215635Y-57937757D01*
X125307562Y-57956042D01*
X125046866Y-58216738D01*
X124828400Y-58744161D01*
X124828400Y-59315039D01*
X125046866Y-59842462D01*
X125450538Y-60246134D01*
X125579616Y-60299600D01*
X125450538Y-60353066D01*
X125046866Y-60756738D01*
X124828400Y-61284161D01*
X124828400Y-61855039D01*
X125046866Y-62382462D01*
X125450538Y-62786134D01*
X125977961Y-63004600D01*
X126548839Y-63004600D01*
X127076262Y-62786134D01*
X127479934Y-62382462D01*
X127585001Y-62128809D01*
X127585001Y-76896752D01*
X119237602Y-68549354D01*
X119508839Y-68143418D01*
X119624092Y-67564000D01*
X119508839Y-66984582D01*
X119180625Y-66493375D01*
X118882239Y-66294000D01*
X119180625Y-66094625D01*
X119508839Y-65603418D01*
X119624092Y-65024000D01*
X119508839Y-64444582D01*
X119180625Y-63953375D01*
X118882239Y-63754000D01*
X119180625Y-63554625D01*
X119508839Y-63063418D01*
X119624092Y-62484000D01*
X119508839Y-61904582D01*
X119180625Y-61413375D01*
X118882239Y-61214000D01*
X119180625Y-61014625D01*
X119508839Y-60523418D01*
X119624092Y-59944000D01*
X119508839Y-59364582D01*
X119180625Y-58873375D01*
X118882239Y-58674000D01*
X119180625Y-58474625D01*
X119508839Y-57983418D01*
X119624092Y-57404000D01*
X119508839Y-56824582D01*
X119180625Y-56333375D01*
X119162381Y-56321184D01*
X119207765Y-56312157D01*
X119417809Y-56171809D01*
X119558157Y-55961765D01*
X119607440Y-55714000D01*
X119607440Y-54014000D01*
X119558157Y-53766235D01*
X119417809Y-53556191D01*
X119207765Y-53415843D01*
X118960000Y-53366560D01*
X117260000Y-53366560D01*
X117012235Y-53415843D01*
X116802191Y-53556191D01*
X116661843Y-53766235D01*
X116612560Y-54014000D01*
X116612560Y-55714000D01*
X116661843Y-55961765D01*
X116802191Y-56171809D01*
X117012235Y-56312157D01*
X117057619Y-56321184D01*
X117039375Y-56333375D01*
X116711161Y-56824582D01*
X116595908Y-57404000D01*
X116711161Y-57983418D01*
X117039375Y-58474625D01*
X117337761Y-58674000D01*
X117039375Y-58873375D01*
X116815118Y-59209000D01*
X115395290Y-59209000D01*
X115337635Y-59151345D01*
X114993983Y-59009000D01*
X114622017Y-59009000D01*
X114278365Y-59151345D01*
X114015345Y-59414365D01*
X113873000Y-59758017D01*
X113873000Y-60129983D01*
X114015345Y-60473635D01*
X114020710Y-60479000D01*
X113864383Y-60479000D01*
X113791999Y-60464602D01*
X113719615Y-60479000D01*
X113719612Y-60479000D01*
X113505217Y-60521646D01*
X113488225Y-60533000D01*
X113352017Y-60533000D01*
X113008365Y-60675345D01*
X112745345Y-60938365D01*
X112603000Y-61282017D01*
X112603000Y-61653983D01*
X112745345Y-61997635D01*
X113008365Y-62260655D01*
X113352017Y-62403000D01*
X113723983Y-62403000D01*
X114067635Y-62260655D01*
X114330655Y-61997635D01*
X114350800Y-61949000D01*
X116572710Y-61949000D01*
X116630365Y-62006655D01*
X116686253Y-62029804D01*
X116595908Y-62484000D01*
X116711161Y-63063418D01*
X117039375Y-63554625D01*
X117337761Y-63754000D01*
X117039375Y-63953375D01*
X116984835Y-64035000D01*
X114372388Y-64035000D01*
X114300000Y-64020601D01*
X114227612Y-64035000D01*
X114163765Y-64047700D01*
X112245949Y-64047700D01*
X111668822Y-63470574D01*
X111836534Y-63302862D01*
X112055000Y-62775439D01*
X112055000Y-62204561D01*
X111836534Y-61677138D01*
X111432862Y-61273466D01*
X111303784Y-61220000D01*
X111432862Y-61166534D01*
X111836534Y-60762862D01*
X112055000Y-60235439D01*
X112055000Y-59664561D01*
X111836534Y-59137138D01*
X111432862Y-58733466D01*
X110905439Y-58515000D01*
X110334561Y-58515000D01*
X109807138Y-58733466D01*
X109403466Y-59137138D01*
X109185000Y-59664561D01*
X109185000Y-60235439D01*
X109403466Y-60762862D01*
X109807138Y-61166534D01*
X109936216Y-61220000D01*
X109807138Y-61273466D01*
X109403466Y-61677138D01*
X109185000Y-62204561D01*
X109185000Y-62775439D01*
X109201387Y-62815001D01*
X101186448Y-62815001D01*
X100845421Y-62473975D01*
X101038534Y-62280862D01*
X101257000Y-61753439D01*
X101257000Y-61182561D01*
X101048418Y-60679000D01*
X101774710Y-60679000D01*
X101832365Y-60736655D01*
X102176017Y-60879000D01*
X102547983Y-60879000D01*
X102891635Y-60736655D01*
X103154655Y-60473635D01*
X103297000Y-60129983D01*
X103297000Y-59758017D01*
X103154655Y-59414365D01*
X102891635Y-59151345D01*
X102572108Y-59018993D01*
X102920862Y-58874534D01*
X103324534Y-58470862D01*
X103543000Y-57943439D01*
X103543000Y-57372561D01*
X103324534Y-56845138D01*
X102920862Y-56441466D01*
X102791784Y-56388000D01*
X102920862Y-56334534D01*
X103324534Y-55930862D01*
X103543000Y-55403439D01*
X103543000Y-54832561D01*
X103324534Y-54305138D01*
X102920862Y-53901466D01*
X102807417Y-53854475D01*
X102862005Y-53831864D01*
X102936139Y-53585745D01*
X102108000Y-52757605D01*
X101279861Y-53585745D01*
X101353995Y-53831864D01*
X101412448Y-53852874D01*
X101295138Y-53901466D01*
X100891466Y-54305138D01*
X100673000Y-54832561D01*
X100673000Y-55403439D01*
X100891466Y-55930862D01*
X101295138Y-56334534D01*
X101424216Y-56388000D01*
X101295138Y-56441466D01*
X100891466Y-56845138D01*
X100673000Y-57372561D01*
X100673000Y-57943439D01*
X100891466Y-58470862D01*
X101295138Y-58874534D01*
X101822561Y-59093000D01*
X101973223Y-59093000D01*
X101832365Y-59151345D01*
X101774710Y-59209000D01*
X96626300Y-59209000D01*
X96596534Y-59137138D01*
X96192862Y-58733466D01*
X96063784Y-58680000D01*
X96192862Y-58626534D01*
X96596534Y-58222862D01*
X96815000Y-57695439D01*
X96815000Y-57124561D01*
X96596534Y-56597138D01*
X96192862Y-56193466D01*
X95665439Y-55975000D01*
X95094561Y-55975000D01*
X94665000Y-56152930D01*
X94665000Y-55474890D01*
X97110524Y-55474890D01*
X97280355Y-55884924D01*
X97670642Y-56313183D01*
X98195108Y-56559486D01*
X98425000Y-56438819D01*
X98425000Y-55245000D01*
X98679000Y-55245000D01*
X98679000Y-56438819D01*
X98908892Y-56559486D01*
X99433358Y-56313183D01*
X99823645Y-55884924D01*
X99993476Y-55474890D01*
X99872155Y-55245000D01*
X98679000Y-55245000D01*
X98425000Y-55245000D01*
X97231845Y-55245000D01*
X97110524Y-55474890D01*
X94665000Y-55474890D01*
X94665000Y-53587070D01*
X95094561Y-53765000D01*
X95665439Y-53765000D01*
X96192862Y-53546534D01*
X96596534Y-53142862D01*
X96815000Y-52615439D01*
X96815000Y-52044561D01*
X96596534Y-51517138D01*
X96192862Y-51113466D01*
X96063784Y-51060000D01*
X96192862Y-51006534D01*
X96596534Y-50602862D01*
X96815000Y-50075439D01*
X96815000Y-49504561D01*
X96596534Y-48977138D01*
X96564396Y-48945000D01*
X97102895Y-48945000D01*
X97054560Y-49188000D01*
X97054560Y-49188000D01*
G37*
X97054560Y-49188000D02*
X97054560Y-50888000D01*
X97103843Y-51135765D01*
X97244191Y-51345809D01*
X97454235Y-51486157D01*
X97499619Y-51495184D01*
X97481375Y-51507375D01*
X97153161Y-51998582D01*
X97037908Y-52578000D01*
X97153161Y-53157418D01*
X97481375Y-53648625D01*
X97800478Y-53861843D01*
X97670642Y-53922817D01*
X97280355Y-54351076D01*
X97110524Y-54761110D01*
X97231845Y-54991000D01*
X98425000Y-54991000D01*
X98425000Y-54971000D01*
X98679000Y-54971000D01*
X98679000Y-54991000D01*
X99872155Y-54991000D01*
X99993476Y-54761110D01*
X99823645Y-54351076D01*
X99433358Y-53922817D01*
X99303522Y-53861843D01*
X99622625Y-53648625D01*
X99950839Y-53157418D01*
X100066092Y-52578000D01*
X100022973Y-52361223D01*
X100661035Y-52361223D01*
X100688222Y-52931454D01*
X100854136Y-53332005D01*
X101100255Y-53406139D01*
X101928395Y-52578000D01*
X102287605Y-52578000D01*
X103115745Y-53406139D01*
X103361864Y-53332005D01*
X103554965Y-52794777D01*
X103527778Y-52224546D01*
X103361864Y-51823995D01*
X103115745Y-51749861D01*
X102287605Y-52578000D01*
X101928395Y-52578000D01*
X101100255Y-51749861D01*
X100854136Y-51823995D01*
X100661035Y-52361223D01*
X100022973Y-52361223D01*
X99950839Y-51998582D01*
X99622625Y-51507375D01*
X99604381Y-51495184D01*
X99649765Y-51486157D01*
X99859809Y-51345809D01*
X100000157Y-51135765D01*
X100049440Y-50888000D01*
X100049440Y-49188000D01*
X100001105Y-48945000D01*
X100708895Y-48945000D01*
X100660560Y-49188000D01*
X100660560Y-50888000D01*
X100709843Y-51135765D01*
X100850191Y-51345809D01*
X101060235Y-51486157D01*
X101291346Y-51532127D01*
X101279861Y-51570255D01*
X102108000Y-52398395D01*
X102936139Y-51570255D01*
X102924654Y-51532127D01*
X103155765Y-51486157D01*
X103365809Y-51345809D01*
X103506157Y-51135765D01*
X103555440Y-50888000D01*
X103555440Y-49188000D01*
X103507105Y-48945000D01*
X109435604Y-48945000D01*
X109403466Y-48977138D01*
X109185000Y-49504561D01*
X109185000Y-50075439D01*
X109403466Y-50602862D01*
X109807138Y-51006534D01*
X109936216Y-51060000D01*
X109807138Y-51113466D01*
X109403466Y-51517138D01*
X109185000Y-52044561D01*
X109185000Y-52615439D01*
X109403466Y-53142862D01*
X109807138Y-53546534D01*
X109936216Y-53600000D01*
X109807138Y-53653466D01*
X109403466Y-54057138D01*
X109185000Y-54584561D01*
X109185000Y-55155439D01*
X109403466Y-55682862D01*
X109807138Y-56086534D01*
X110334561Y-56305000D01*
X110905439Y-56305000D01*
X111432862Y-56086534D01*
X111836534Y-55682862D01*
X112055000Y-55155439D01*
X112055000Y-54584561D01*
X111836534Y-54057138D01*
X111432862Y-53653466D01*
X111303784Y-53600000D01*
X111432862Y-53546534D01*
X111836534Y-53142862D01*
X112055000Y-52615439D01*
X112055000Y-52044561D01*
X111836534Y-51517138D01*
X111432862Y-51113466D01*
X111303784Y-51060000D01*
X111432862Y-51006534D01*
X111836534Y-50602862D01*
X112055000Y-50075439D01*
X112055000Y-49504561D01*
X111836534Y-48977138D01*
X111804396Y-48945000D01*
X113182795Y-48945000D01*
X113153948Y-48956949D01*
X112710949Y-49399948D01*
X112471200Y-49978753D01*
X112471200Y-50605247D01*
X112710949Y-51184052D01*
X113153948Y-51627051D01*
X113732753Y-51866800D01*
X114359247Y-51866800D01*
X114938052Y-51627051D01*
X115316000Y-51249103D01*
X115693948Y-51627051D01*
X116272753Y-51866800D01*
X116899247Y-51866800D01*
X117478052Y-51627051D01*
X117856000Y-51249103D01*
X118233948Y-51627051D01*
X118812753Y-51866800D01*
X119439247Y-51866800D01*
X120018052Y-51627051D01*
X120244135Y-51400968D01*
X120736637Y-51400968D01*
X120827923Y-51661580D01*
X121415833Y-51878045D01*
X122041828Y-51853049D01*
X122504077Y-51661580D01*
X122595363Y-51400968D01*
X121666000Y-50471605D01*
X120736637Y-51400968D01*
X120244135Y-51400968D01*
X120458317Y-51186786D01*
X120557032Y-51221363D01*
X121486395Y-50292000D01*
X120557032Y-49362637D01*
X120458317Y-49397214D01*
X120018052Y-48956949D01*
X119989205Y-48945000D01*
X120820014Y-48945000D01*
X120736637Y-49183032D01*
X121666000Y-50112395D01*
X122595363Y-49183032D01*
X122511986Y-48945000D01*
X123342795Y-48945000D01*
X123313948Y-48956949D01*
X122873683Y-49397214D01*
X122774968Y-49362637D01*
X121845605Y-50292000D01*
X122774968Y-51221363D01*
X122873683Y-51186786D01*
X123313948Y-51627051D01*
X123892753Y-51866800D01*
X124519247Y-51866800D01*
X125098052Y-51627051D01*
X125476000Y-51249103D01*
X125853948Y-51627051D01*
X126432753Y-51866800D01*
X127059247Y-51866800D01*
X127585001Y-51649025D01*
X127585001Y-55277262D01*
X127521209Y-55181791D01*
X127311165Y-55041443D01*
X127063400Y-54992160D01*
X125463400Y-54992160D01*
X125215635Y-55041443D01*
X125005591Y-55181791D01*
X124865243Y-55391835D01*
X124815960Y-55639600D01*
X124815960Y-57339600D01*
X124865243Y-57587365D01*
X125005591Y-57797409D01*
X125215635Y-57937757D01*
X125307562Y-57956042D01*
X125046866Y-58216738D01*
X124828400Y-58744161D01*
X124828400Y-59315039D01*
X125046866Y-59842462D01*
X125450538Y-60246134D01*
X125579616Y-60299600D01*
X125450538Y-60353066D01*
X125046866Y-60756738D01*
X124828400Y-61284161D01*
X124828400Y-61855039D01*
X125046866Y-62382462D01*
X125450538Y-62786134D01*
X125977961Y-63004600D01*
X126548839Y-63004600D01*
X127076262Y-62786134D01*
X127479934Y-62382462D01*
X127585001Y-62128809D01*
X127585001Y-76896752D01*
X119237602Y-68549354D01*
X119508839Y-68143418D01*
X119624092Y-67564000D01*
X119508839Y-66984582D01*
X119180625Y-66493375D01*
X118882239Y-66294000D01*
X119180625Y-66094625D01*
X119508839Y-65603418D01*
X119624092Y-65024000D01*
X119508839Y-64444582D01*
X119180625Y-63953375D01*
X118882239Y-63754000D01*
X119180625Y-63554625D01*
X119508839Y-63063418D01*
X119624092Y-62484000D01*
X119508839Y-61904582D01*
X119180625Y-61413375D01*
X118882239Y-61214000D01*
X119180625Y-61014625D01*
X119508839Y-60523418D01*
X119624092Y-59944000D01*
X119508839Y-59364582D01*
X119180625Y-58873375D01*
X118882239Y-58674000D01*
X119180625Y-58474625D01*
X119508839Y-57983418D01*
X119624092Y-57404000D01*
X119508839Y-56824582D01*
X119180625Y-56333375D01*
X119162381Y-56321184D01*
X119207765Y-56312157D01*
X119417809Y-56171809D01*
X119558157Y-55961765D01*
X119607440Y-55714000D01*
X119607440Y-54014000D01*
X119558157Y-53766235D01*
X119417809Y-53556191D01*
X119207765Y-53415843D01*
X118960000Y-53366560D01*
X117260000Y-53366560D01*
X117012235Y-53415843D01*
X116802191Y-53556191D01*
X116661843Y-53766235D01*
X116612560Y-54014000D01*
X116612560Y-55714000D01*
X116661843Y-55961765D01*
X116802191Y-56171809D01*
X117012235Y-56312157D01*
X117057619Y-56321184D01*
X117039375Y-56333375D01*
X116711161Y-56824582D01*
X116595908Y-57404000D01*
X116711161Y-57983418D01*
X117039375Y-58474625D01*
X117337761Y-58674000D01*
X117039375Y-58873375D01*
X116815118Y-59209000D01*
X115395290Y-59209000D01*
X115337635Y-59151345D01*
X114993983Y-59009000D01*
X114622017Y-59009000D01*
X114278365Y-59151345D01*
X114015345Y-59414365D01*
X113873000Y-59758017D01*
X113873000Y-60129983D01*
X114015345Y-60473635D01*
X114020710Y-60479000D01*
X113864383Y-60479000D01*
X113791999Y-60464602D01*
X113719615Y-60479000D01*
X113719612Y-60479000D01*
X113505217Y-60521646D01*
X113488225Y-60533000D01*
X113352017Y-60533000D01*
X113008365Y-60675345D01*
X112745345Y-60938365D01*
X112603000Y-61282017D01*
X112603000Y-61653983D01*
X112745345Y-61997635D01*
X113008365Y-62260655D01*
X113352017Y-62403000D01*
X113723983Y-62403000D01*
X114067635Y-62260655D01*
X114330655Y-61997635D01*
X114350800Y-61949000D01*
X116572710Y-61949000D01*
X116630365Y-62006655D01*
X116686253Y-62029804D01*
X116595908Y-62484000D01*
X116711161Y-63063418D01*
X117039375Y-63554625D01*
X117337761Y-63754000D01*
X117039375Y-63953375D01*
X116984835Y-64035000D01*
X114372388Y-64035000D01*
X114300000Y-64020601D01*
X114227612Y-64035000D01*
X114163765Y-64047700D01*
X112245949Y-64047700D01*
X111668822Y-63470574D01*
X111836534Y-63302862D01*
X112055000Y-62775439D01*
X112055000Y-62204561D01*
X111836534Y-61677138D01*
X111432862Y-61273466D01*
X111303784Y-61220000D01*
X111432862Y-61166534D01*
X111836534Y-60762862D01*
X112055000Y-60235439D01*
X112055000Y-59664561D01*
X111836534Y-59137138D01*
X111432862Y-58733466D01*
X110905439Y-58515000D01*
X110334561Y-58515000D01*
X109807138Y-58733466D01*
X109403466Y-59137138D01*
X109185000Y-59664561D01*
X109185000Y-60235439D01*
X109403466Y-60762862D01*
X109807138Y-61166534D01*
X109936216Y-61220000D01*
X109807138Y-61273466D01*
X109403466Y-61677138D01*
X109185000Y-62204561D01*
X109185000Y-62775439D01*
X109201387Y-62815001D01*
X101186448Y-62815001D01*
X100845421Y-62473975D01*
X101038534Y-62280862D01*
X101257000Y-61753439D01*
X101257000Y-61182561D01*
X101048418Y-60679000D01*
X101774710Y-60679000D01*
X101832365Y-60736655D01*
X102176017Y-60879000D01*
X102547983Y-60879000D01*
X102891635Y-60736655D01*
X103154655Y-60473635D01*
X103297000Y-60129983D01*
X103297000Y-59758017D01*
X103154655Y-59414365D01*
X102891635Y-59151345D01*
X102572108Y-59018993D01*
X102920862Y-58874534D01*
X103324534Y-58470862D01*
X103543000Y-57943439D01*
X103543000Y-57372561D01*
X103324534Y-56845138D01*
X102920862Y-56441466D01*
X102791784Y-56388000D01*
X102920862Y-56334534D01*
X103324534Y-55930862D01*
X103543000Y-55403439D01*
X103543000Y-54832561D01*
X103324534Y-54305138D01*
X102920862Y-53901466D01*
X102807417Y-53854475D01*
X102862005Y-53831864D01*
X102936139Y-53585745D01*
X102108000Y-52757605D01*
X101279861Y-53585745D01*
X101353995Y-53831864D01*
X101412448Y-53852874D01*
X101295138Y-53901466D01*
X100891466Y-54305138D01*
X100673000Y-54832561D01*
X100673000Y-55403439D01*
X100891466Y-55930862D01*
X101295138Y-56334534D01*
X101424216Y-56388000D01*
X101295138Y-56441466D01*
X100891466Y-56845138D01*
X100673000Y-57372561D01*
X100673000Y-57943439D01*
X100891466Y-58470862D01*
X101295138Y-58874534D01*
X101822561Y-59093000D01*
X101973223Y-59093000D01*
X101832365Y-59151345D01*
X101774710Y-59209000D01*
X96626300Y-59209000D01*
X96596534Y-59137138D01*
X96192862Y-58733466D01*
X96063784Y-58680000D01*
X96192862Y-58626534D01*
X96596534Y-58222862D01*
X96815000Y-57695439D01*
X96815000Y-57124561D01*
X96596534Y-56597138D01*
X96192862Y-56193466D01*
X95665439Y-55975000D01*
X95094561Y-55975000D01*
X94665000Y-56152930D01*
X94665000Y-55474890D01*
X97110524Y-55474890D01*
X97280355Y-55884924D01*
X97670642Y-56313183D01*
X98195108Y-56559486D01*
X98425000Y-56438819D01*
X98425000Y-55245000D01*
X98679000Y-55245000D01*
X98679000Y-56438819D01*
X98908892Y-56559486D01*
X99433358Y-56313183D01*
X99823645Y-55884924D01*
X99993476Y-55474890D01*
X99872155Y-55245000D01*
X98679000Y-55245000D01*
X98425000Y-55245000D01*
X97231845Y-55245000D01*
X97110524Y-55474890D01*
X94665000Y-55474890D01*
X94665000Y-53587070D01*
X95094561Y-53765000D01*
X95665439Y-53765000D01*
X96192862Y-53546534D01*
X96596534Y-53142862D01*
X96815000Y-52615439D01*
X96815000Y-52044561D01*
X96596534Y-51517138D01*
X96192862Y-51113466D01*
X96063784Y-51060000D01*
X96192862Y-51006534D01*
X96596534Y-50602862D01*
X96815000Y-50075439D01*
X96815000Y-49504561D01*
X96596534Y-48977138D01*
X96564396Y-48945000D01*
X97102895Y-48945000D01*
X97054560Y-49188000D01*
G36*
X100015748Y-74153858D02*
X100001605Y-74168000D01*
X100015748Y-74182142D01*
X99836143Y-74361748D01*
X99822000Y-74347605D01*
X99807858Y-74361748D01*
X99628253Y-74182143D01*
X99642395Y-74168000D01*
X99628253Y-74153858D01*
X99807858Y-73974253D01*
X99822000Y-73988395D01*
X99836142Y-73974252D01*
X100015748Y-74153858D01*
X100015748Y-74153858D01*
G37*
X100015748Y-74153858D02*
X100001605Y-74168000D01*
X100015748Y-74182142D01*
X99836143Y-74361748D01*
X99822000Y-74347605D01*
X99807858Y-74361748D01*
X99628253Y-74182143D01*
X99642395Y-74168000D01*
X99628253Y-74153858D01*
X99807858Y-73974253D01*
X99822000Y-73988395D01*
X99836142Y-73974252D01*
X100015748Y-74153858D01*
G04 #@! TD*
M02*
