G04 #@! TF.GenerationSoftware,KiCad,Pcbnew,(5.0.1)-rc2*
G04 #@! TF.CreationDate,2019-06-29T00:56:30-07:00*
G04 #@! TF.ProjectId,DB9_Switcher,4442395F53776974636865722E6B6963,rev?*
G04 #@! TF.SameCoordinates,Original*
G04 #@! TF.FileFunction,Copper,L1,Top,Signal*
G04 #@! TF.FilePolarity,Positive*
%FSLAX46Y46*%
G04 Gerber Fmt 4.6, Leading zero omitted, Abs format (unit mm)*
G04 Created by KiCad (PCBNEW (5.0.1)-rc2) date 6/29/2019 12:56:30 AM*
%MOMM*%
%LPD*%
G01*
G04 APERTURE LIST*
G04 #@! TA.AperFunction,ComponentPad*
%ADD10R,1.600000X1.600000*%
G04 #@! TD*
G04 #@! TA.AperFunction,ComponentPad*
%ADD11C,1.600000*%
G04 #@! TD*
G04 #@! TA.AperFunction,ComponentPad*
%ADD12C,4.000000*%
G04 #@! TD*
G04 #@! TA.AperFunction,ComponentPad*
%ADD13C,1.524000*%
G04 #@! TD*
G04 #@! TA.AperFunction,ComponentPad*
%ADD14C,2.200000*%
G04 #@! TD*
G04 #@! TA.AperFunction,ViaPad*
%ADD15C,0.800000*%
G04 #@! TD*
G04 #@! TA.AperFunction,Conductor*
%ADD16C,0.250000*%
G04 #@! TD*
G04 #@! TA.AperFunction,Conductor*
%ADD17C,0.254000*%
G04 #@! TD*
G04 APERTURE END LIST*
D10*
G04 #@! TO.P,J2,1*
G04 #@! TO.N,Net-(J2-Pad1)*
X165481000Y-75882500D03*
D11*
G04 #@! TO.P,J2,2*
G04 #@! TO.N,Net-(J2-Pad2)*
X165481000Y-78652500D03*
G04 #@! TO.P,J2,3*
G04 #@! TO.N,Net-(J2-Pad3)*
X165481000Y-81422500D03*
G04 #@! TO.P,J2,4*
G04 #@! TO.N,Net-(J2-Pad4)*
X165481000Y-84192500D03*
G04 #@! TO.P,J2,5*
G04 #@! TO.N,GND*
X165481000Y-86962500D03*
G04 #@! TO.P,J2,6*
G04 #@! TO.N,Net-(J2-Pad6)*
X168321000Y-77267500D03*
G04 #@! TO.P,J2,7*
G04 #@! TO.N,Net-(J2-Pad7)*
X168321000Y-80037500D03*
G04 #@! TO.P,J2,8*
G04 #@! TO.N,Net-(J2-Pad8)*
X168321000Y-82807500D03*
G04 #@! TO.P,J2,9*
G04 #@! TO.N,Net-(J2-Pad9)*
X168321000Y-85577500D03*
D12*
G04 #@! TO.P,J2,0*
G04 #@! TO.N,N/C*
X166901000Y-93922500D03*
X166901000Y-68922500D03*
G04 #@! TD*
D10*
G04 #@! TO.P,J1,1*
G04 #@! TO.N,/1*
X126111000Y-75692000D03*
D11*
G04 #@! TO.P,J1,2*
G04 #@! TO.N,/2*
X126111000Y-78462000D03*
G04 #@! TO.P,J1,3*
G04 #@! TO.N,/3*
X126111000Y-81232000D03*
G04 #@! TO.P,J1,4*
G04 #@! TO.N,/4*
X126111000Y-84002000D03*
G04 #@! TO.P,J1,5*
G04 #@! TO.N,GND*
X126111000Y-86772000D03*
G04 #@! TO.P,J1,6*
G04 #@! TO.N,Net-(J1-Pad6)*
X123271000Y-77077000D03*
G04 #@! TO.P,J1,7*
G04 #@! TO.N,Net-(J1-Pad7)*
X123271000Y-79847000D03*
G04 #@! TO.P,J1,8*
G04 #@! TO.N,Net-(J1-Pad8)*
X123271000Y-82617000D03*
G04 #@! TO.P,J1,9*
G04 #@! TO.N,Net-(J1-Pad9)*
X123271000Y-85387000D03*
D12*
G04 #@! TO.P,J1,0*
G04 #@! TO.N,N/C*
X124691000Y-68732000D03*
X124691000Y-93732000D03*
G04 #@! TD*
D10*
G04 #@! TO.P,SW1,1*
G04 #@! TO.N,/2*
X139890500Y-78486000D03*
D11*
G04 #@! TO.P,SW1,2*
G04 #@! TO.N,/A_int*
X139890500Y-75986000D03*
G04 #@! TO.P,SW1,3*
G04 #@! TO.N,/1*
X139890500Y-73486000D03*
G04 #@! TO.P,SW1,4*
X143090500Y-78486000D03*
G04 #@! TO.P,SW1,5*
G04 #@! TO.N,/B_int*
X143090500Y-75986000D03*
G04 #@! TO.P,SW1,6*
G04 #@! TO.N,/2*
X143090500Y-73486000D03*
G04 #@! TD*
G04 #@! TO.P,SW2,6*
G04 #@! TO.N,/4*
X142963500Y-83773000D03*
G04 #@! TO.P,SW2,5*
G04 #@! TO.N,/D_int*
X142963500Y-86273000D03*
G04 #@! TO.P,SW2,4*
G04 #@! TO.N,/3*
X142963500Y-88773000D03*
G04 #@! TO.P,SW2,3*
X139763500Y-83773000D03*
G04 #@! TO.P,SW2,2*
G04 #@! TO.N,/C_int*
X139763500Y-86273000D03*
D10*
G04 #@! TO.P,SW2,1*
G04 #@! TO.N,/4*
X139763500Y-88773000D03*
G04 #@! TD*
D13*
G04 #@! TO.P,U1,1*
G04 #@! TO.N,/A_int*
X153670000Y-76128500D03*
G04 #@! TO.P,U1,2*
G04 #@! TO.N,Net-(J2-Pad1)*
X153670000Y-78128500D03*
G04 #@! TO.P,U1,3*
G04 #@! TO.N,/C_int*
X153670000Y-80128500D03*
G04 #@! TO.P,U1,4*
G04 #@! TO.N,/B_int*
X153670000Y-82128500D03*
G04 #@! TO.P,U1,5*
G04 #@! TO.N,Net-(J2-Pad2)*
X153670000Y-84128500D03*
G04 #@! TO.P,U1,6*
G04 #@! TO.N,/D_int*
X153670000Y-86128500D03*
G04 #@! TO.P,U1,7*
G04 #@! TO.N,/C_int*
X156170000Y-76128500D03*
G04 #@! TO.P,U1,8*
G04 #@! TO.N,Net-(J2-Pad3)*
X156170000Y-78128500D03*
G04 #@! TO.P,U1,9*
G04 #@! TO.N,/A_int*
X156170000Y-80128500D03*
G04 #@! TO.P,U1,10*
G04 #@! TO.N,/D_int*
X156170000Y-82128500D03*
G04 #@! TO.P,U1,11*
G04 #@! TO.N,Net-(J2-Pad4)*
X156170000Y-84128500D03*
G04 #@! TO.P,U1,12*
G04 #@! TO.N,/B_int*
X156170000Y-86128500D03*
G04 #@! TD*
D14*
G04 #@! TO.P,GND,1*
G04 #@! TO.N,GND*
X131318000Y-95758000D03*
G04 #@! TD*
G04 #@! TO.P,IN 1,1*
G04 #@! TO.N,/1*
X138938000Y-67056000D03*
G04 #@! TD*
G04 #@! TO.P,IN 2,1*
G04 #@! TO.N,/2*
X144018000Y-67056000D03*
G04 #@! TD*
G04 #@! TO.P,IN 3,1*
G04 #@! TO.N,/3*
X149098000Y-67056000D03*
G04 #@! TD*
G04 #@! TO.P,IN 4,1*
G04 #@! TO.N,/4*
X154178000Y-67056000D03*
G04 #@! TD*
G04 #@! TO.P,OUT 1,1*
G04 #@! TO.N,Net-(J2-Pad1)*
X138938000Y-94996000D03*
G04 #@! TD*
G04 #@! TO.P,OUT 2,1*
G04 #@! TO.N,Net-(J2-Pad2)*
X144018000Y-94996000D03*
G04 #@! TD*
G04 #@! TO.P,OUT 3,1*
G04 #@! TO.N,Net-(J2-Pad3)*
X149098000Y-94996000D03*
G04 #@! TD*
G04 #@! TO.P,OUT 4,1*
G04 #@! TO.N,Net-(J2-Pad4)*
X154178000Y-94996000D03*
G04 #@! TD*
D15*
G04 #@! TO.N,GND*
X161290000Y-67310000D03*
X152400000Y-71755000D03*
X132080000Y-71120000D03*
X119380000Y-71120000D03*
X119380000Y-78740000D03*
X119380000Y-86360000D03*
X119380000Y-91440000D03*
X172720000Y-71120000D03*
X172720000Y-86360000D03*
X172720000Y-78740000D03*
X172720000Y-91440000D03*
X147320000Y-76200000D03*
X147320000Y-83820000D03*
X134620000Y-91440000D03*
X149860000Y-91440000D03*
X159385000Y-94615000D03*
X139700000Y-81280000D03*
X130175000Y-76200000D03*
X130175000Y-80010000D03*
X130175000Y-86360000D03*
X159385000Y-76835000D03*
X159385000Y-81915000D03*
X159385000Y-90170000D03*
G04 #@! TO.N,Net-(J2-Pad1)*
X149860000Y-81026000D03*
G04 #@! TD*
D16*
G04 #@! TO.N,/1*
X127267000Y-73486000D02*
X139890500Y-73486000D01*
X126111000Y-75692000D02*
X126111000Y-74642000D01*
X126111000Y-74642000D02*
X127267000Y-73486000D01*
X141959130Y-78486000D02*
X141605000Y-78131870D01*
X143090500Y-78486000D02*
X141959130Y-78486000D01*
X141605000Y-75200500D02*
X139890500Y-73486000D01*
X141605000Y-78131870D02*
X141605000Y-75200500D01*
X139890500Y-68008500D02*
X138938000Y-67056000D01*
X139890500Y-73486000D02*
X139890500Y-67500500D01*
G04 #@! TO.N,/2*
X139866500Y-78462000D02*
X139890500Y-78486000D01*
X126111000Y-78462000D02*
X139866500Y-78462000D01*
X144018000Y-72558500D02*
X143090500Y-73486000D01*
X144018000Y-66548000D02*
X144018000Y-72558500D01*
G04 #@! TO.N,/3*
X137222500Y-81232000D02*
X139763500Y-83773000D01*
X126111000Y-81232000D02*
X137222500Y-81232000D01*
X142163501Y-87973001D02*
X142963500Y-88773000D01*
X140888501Y-86698001D02*
X142163501Y-87973001D01*
X140888501Y-84898001D02*
X140888501Y-86698001D01*
X139763500Y-83773000D02*
X140888501Y-84898001D01*
G04 #@! TO.N,/4*
X130882000Y-88773000D02*
X139763500Y-88773000D01*
X126111000Y-84002000D02*
X130882000Y-88773000D01*
G04 #@! TO.N,GND*
X131318000Y-91979000D02*
X126111000Y-86772000D01*
X131318000Y-95758000D02*
X131318000Y-91979000D01*
X144780000Y-81280000D02*
X147320000Y-83820000D01*
X139700000Y-81280000D02*
X144780000Y-81280000D01*
X138430000Y-80010000D02*
X139700000Y-81280000D01*
X130175000Y-80010000D02*
X138430000Y-80010000D01*
G04 #@! TO.N,Net-(J2-Pad1)*
X152757500Y-78128500D02*
X153670000Y-78128500D01*
X149860000Y-81026000D02*
X152757500Y-78128500D01*
X164431000Y-75882500D02*
X162843500Y-74295000D01*
X165481000Y-75882500D02*
X164431000Y-75882500D01*
X162843500Y-74295000D02*
X152400000Y-74295000D01*
X149860000Y-76835000D02*
X149860000Y-81026000D01*
X152400000Y-74295000D02*
X149860000Y-76835000D01*
G04 #@! TO.N,Net-(J2-Pad3)*
X162187000Y-78128500D02*
X156170000Y-78128500D01*
X165481000Y-81422500D02*
X162187000Y-78128500D01*
G04 #@! TO.N,Net-(J2-Pad4)*
X165417000Y-84128500D02*
X165481000Y-84192500D01*
X156170000Y-84128500D02*
X165417000Y-84128500D01*
X156931999Y-84890499D02*
X156170000Y-84128500D01*
X157257001Y-85215501D02*
X156931999Y-84890499D01*
X157257001Y-91916999D02*
X157257001Y-85215501D01*
X154178000Y-94996000D02*
X157257001Y-91916999D01*
G04 #@! TO.N,/A_int*
X156170000Y-79970000D02*
X156170000Y-80128500D01*
X155082999Y-78882999D02*
X156170000Y-79970000D01*
X155082999Y-77541499D02*
X155082999Y-78882999D01*
X153670000Y-76128500D02*
X155082999Y-77541499D01*
G04 #@! TO.N,/B_int*
X143090500Y-75986000D02*
X149233000Y-82128500D01*
X149233000Y-82128500D02*
X153670000Y-82128500D01*
X154431999Y-82890499D02*
X153670000Y-82128500D01*
X154757001Y-83215501D02*
X154431999Y-82890499D01*
X154757001Y-84715501D02*
X154757001Y-83215501D01*
X156170000Y-86128500D02*
X154757001Y-84715501D01*
G04 #@! TO.N,/D_int*
X152001500Y-86273000D02*
X152146000Y-86128500D01*
X142963500Y-86273000D02*
X152001500Y-86273000D01*
X152146000Y-86128500D02*
X153670000Y-86128500D01*
G04 #@! TD*
D17*
G04 #@! TO.N,GND*
G36*
X148115201Y-65585138D02*
X147627138Y-66073201D01*
X147363000Y-66710887D01*
X147363000Y-67401113D01*
X147627138Y-68038799D01*
X148115201Y-68526862D01*
X148752887Y-68791000D01*
X149443113Y-68791000D01*
X150080799Y-68526862D01*
X150568862Y-68038799D01*
X150833000Y-67401113D01*
X150833000Y-66710887D01*
X150568862Y-66073201D01*
X150080799Y-65585138D01*
X149826973Y-65480000D01*
X153449027Y-65480000D01*
X153195201Y-65585138D01*
X152707138Y-66073201D01*
X152443000Y-66710887D01*
X152443000Y-67401113D01*
X152707138Y-68038799D01*
X153195201Y-68526862D01*
X153832887Y-68791000D01*
X154523113Y-68791000D01*
X155160799Y-68526862D01*
X155289295Y-68398366D01*
X164266000Y-68398366D01*
X164266000Y-69446634D01*
X164667155Y-70415108D01*
X165408392Y-71156345D01*
X166376866Y-71557500D01*
X167425134Y-71557500D01*
X168393608Y-71156345D01*
X169134845Y-70415108D01*
X169536000Y-69446634D01*
X169536000Y-68398366D01*
X169134845Y-67429892D01*
X168393608Y-66688655D01*
X167425134Y-66287500D01*
X166376866Y-66287500D01*
X165408392Y-66688655D01*
X164667155Y-67429892D01*
X164266000Y-68398366D01*
X155289295Y-68398366D01*
X155648862Y-68038799D01*
X155913000Y-67401113D01*
X155913000Y-66710887D01*
X155648862Y-66073201D01*
X155160799Y-65585138D01*
X154906973Y-65480000D01*
X177344000Y-65480000D01*
X177344001Y-96572000D01*
X154906973Y-96572000D01*
X155160799Y-96466862D01*
X155648862Y-95978799D01*
X155913000Y-95341113D01*
X155913000Y-94650887D01*
X155820714Y-94428088D01*
X156850436Y-93398366D01*
X164266000Y-93398366D01*
X164266000Y-94446634D01*
X164667155Y-95415108D01*
X165408392Y-96156345D01*
X166376866Y-96557500D01*
X167425134Y-96557500D01*
X168393608Y-96156345D01*
X169134845Y-95415108D01*
X169536000Y-94446634D01*
X169536000Y-93398366D01*
X169134845Y-92429892D01*
X168393608Y-91688655D01*
X167425134Y-91287500D01*
X166376866Y-91287500D01*
X165408392Y-91688655D01*
X164667155Y-92429892D01*
X164266000Y-93398366D01*
X156850436Y-93398366D01*
X157741474Y-92507328D01*
X157804930Y-92464928D01*
X157972905Y-92213536D01*
X158017001Y-91991851D01*
X158017001Y-91991846D01*
X158031889Y-91916999D01*
X158017001Y-91842152D01*
X158017001Y-87970245D01*
X164652861Y-87970245D01*
X164726995Y-88216364D01*
X165264223Y-88409465D01*
X165834454Y-88382278D01*
X166235005Y-88216364D01*
X166309139Y-87970245D01*
X165481000Y-87142105D01*
X164652861Y-87970245D01*
X158017001Y-87970245D01*
X158017001Y-86745723D01*
X164034035Y-86745723D01*
X164061222Y-87315954D01*
X164227136Y-87716505D01*
X164473255Y-87790639D01*
X165301395Y-86962500D01*
X165660605Y-86962500D01*
X166488745Y-87790639D01*
X166734864Y-87716505D01*
X166927965Y-87179277D01*
X166900778Y-86609046D01*
X166734864Y-86208495D01*
X166488745Y-86134361D01*
X165660605Y-86962500D01*
X165301395Y-86962500D01*
X164473255Y-86134361D01*
X164227136Y-86208495D01*
X164034035Y-86745723D01*
X158017001Y-86745723D01*
X158017001Y-85290347D01*
X158031889Y-85215500D01*
X158017001Y-85140653D01*
X158017001Y-85140649D01*
X157972905Y-84918964D01*
X157952550Y-84888500D01*
X164216060Y-84888500D01*
X164264466Y-85005362D01*
X164668138Y-85409034D01*
X165059218Y-85571025D01*
X164726995Y-85708636D01*
X164652861Y-85954755D01*
X165481000Y-86782895D01*
X166309139Y-85954755D01*
X166235005Y-85708636D01*
X165879261Y-85580768D01*
X166293862Y-85409034D01*
X166697534Y-85005362D01*
X166916000Y-84477939D01*
X166916000Y-83907061D01*
X166697534Y-83379638D01*
X166293862Y-82975966D01*
X165887150Y-82807500D01*
X166293862Y-82639034D01*
X166697534Y-82235362D01*
X166916000Y-81707939D01*
X166916000Y-81137061D01*
X166697534Y-80609638D01*
X166293862Y-80205966D01*
X165887150Y-80037500D01*
X166293862Y-79869034D01*
X166697534Y-79465362D01*
X166916000Y-78937939D01*
X166916000Y-78367061D01*
X166697534Y-77839638D01*
X166293862Y-77435966D01*
X166037893Y-77329940D01*
X166281000Y-77329940D01*
X166528765Y-77280657D01*
X166738809Y-77140309D01*
X166844547Y-76982061D01*
X166886000Y-76982061D01*
X166886000Y-77552939D01*
X167104466Y-78080362D01*
X167508138Y-78484034D01*
X167914850Y-78652500D01*
X167508138Y-78820966D01*
X167104466Y-79224638D01*
X166886000Y-79752061D01*
X166886000Y-80322939D01*
X167104466Y-80850362D01*
X167508138Y-81254034D01*
X167914850Y-81422500D01*
X167508138Y-81590966D01*
X167104466Y-81994638D01*
X166886000Y-82522061D01*
X166886000Y-83092939D01*
X167104466Y-83620362D01*
X167508138Y-84024034D01*
X167914850Y-84192500D01*
X167508138Y-84360966D01*
X167104466Y-84764638D01*
X166886000Y-85292061D01*
X166886000Y-85862939D01*
X167104466Y-86390362D01*
X167508138Y-86794034D01*
X168035561Y-87012500D01*
X168606439Y-87012500D01*
X169133862Y-86794034D01*
X169537534Y-86390362D01*
X169756000Y-85862939D01*
X169756000Y-85292061D01*
X169537534Y-84764638D01*
X169133862Y-84360966D01*
X168727150Y-84192500D01*
X169133862Y-84024034D01*
X169537534Y-83620362D01*
X169756000Y-83092939D01*
X169756000Y-82522061D01*
X169537534Y-81994638D01*
X169133862Y-81590966D01*
X168727150Y-81422500D01*
X169133862Y-81254034D01*
X169537534Y-80850362D01*
X169756000Y-80322939D01*
X169756000Y-79752061D01*
X169537534Y-79224638D01*
X169133862Y-78820966D01*
X168727150Y-78652500D01*
X169133862Y-78484034D01*
X169537534Y-78080362D01*
X169756000Y-77552939D01*
X169756000Y-76982061D01*
X169537534Y-76454638D01*
X169133862Y-76050966D01*
X168606439Y-75832500D01*
X168035561Y-75832500D01*
X167508138Y-76050966D01*
X167104466Y-76454638D01*
X166886000Y-76982061D01*
X166844547Y-76982061D01*
X166879157Y-76930265D01*
X166928440Y-76682500D01*
X166928440Y-75082500D01*
X166879157Y-74834735D01*
X166738809Y-74624691D01*
X166528765Y-74484343D01*
X166281000Y-74435060D01*
X164681000Y-74435060D01*
X164433235Y-74484343D01*
X164238058Y-74614757D01*
X163433831Y-73810530D01*
X163391429Y-73747071D01*
X163140037Y-73579096D01*
X162918352Y-73535000D01*
X162918347Y-73535000D01*
X162843500Y-73520112D01*
X162768653Y-73535000D01*
X152474846Y-73535000D01*
X152399999Y-73520112D01*
X152325152Y-73535000D01*
X152325148Y-73535000D01*
X152103463Y-73579096D01*
X152103461Y-73579097D01*
X152103462Y-73579097D01*
X151915526Y-73704671D01*
X151915524Y-73704673D01*
X151852071Y-73747071D01*
X151809673Y-73810524D01*
X149375530Y-76244669D01*
X149312071Y-76287071D01*
X149144096Y-76538464D01*
X149100000Y-76760149D01*
X149100000Y-76760153D01*
X149085112Y-76835000D01*
X149100000Y-76909847D01*
X149100001Y-80322288D01*
X148982569Y-80439720D01*
X148876089Y-80696787D01*
X144503603Y-76324302D01*
X144525500Y-76271439D01*
X144525500Y-75700561D01*
X144307034Y-75173138D01*
X143903362Y-74769466D01*
X143822568Y-74736000D01*
X143903362Y-74702534D01*
X144307034Y-74298862D01*
X144525500Y-73771439D01*
X144525500Y-73200561D01*
X144503725Y-73147992D01*
X144565929Y-73106429D01*
X144733904Y-72855037D01*
X144778000Y-72633352D01*
X144778000Y-72633348D01*
X144792888Y-72558501D01*
X144778000Y-72483654D01*
X144778000Y-68619148D01*
X145000799Y-68526862D01*
X145488862Y-68038799D01*
X145753000Y-67401113D01*
X145753000Y-66710887D01*
X145488862Y-66073201D01*
X145000799Y-65585138D01*
X144746973Y-65480000D01*
X148369027Y-65480000D01*
X148115201Y-65585138D01*
X148115201Y-65585138D01*
G37*
X148115201Y-65585138D02*
X147627138Y-66073201D01*
X147363000Y-66710887D01*
X147363000Y-67401113D01*
X147627138Y-68038799D01*
X148115201Y-68526862D01*
X148752887Y-68791000D01*
X149443113Y-68791000D01*
X150080799Y-68526862D01*
X150568862Y-68038799D01*
X150833000Y-67401113D01*
X150833000Y-66710887D01*
X150568862Y-66073201D01*
X150080799Y-65585138D01*
X149826973Y-65480000D01*
X153449027Y-65480000D01*
X153195201Y-65585138D01*
X152707138Y-66073201D01*
X152443000Y-66710887D01*
X152443000Y-67401113D01*
X152707138Y-68038799D01*
X153195201Y-68526862D01*
X153832887Y-68791000D01*
X154523113Y-68791000D01*
X155160799Y-68526862D01*
X155289295Y-68398366D01*
X164266000Y-68398366D01*
X164266000Y-69446634D01*
X164667155Y-70415108D01*
X165408392Y-71156345D01*
X166376866Y-71557500D01*
X167425134Y-71557500D01*
X168393608Y-71156345D01*
X169134845Y-70415108D01*
X169536000Y-69446634D01*
X169536000Y-68398366D01*
X169134845Y-67429892D01*
X168393608Y-66688655D01*
X167425134Y-66287500D01*
X166376866Y-66287500D01*
X165408392Y-66688655D01*
X164667155Y-67429892D01*
X164266000Y-68398366D01*
X155289295Y-68398366D01*
X155648862Y-68038799D01*
X155913000Y-67401113D01*
X155913000Y-66710887D01*
X155648862Y-66073201D01*
X155160799Y-65585138D01*
X154906973Y-65480000D01*
X177344000Y-65480000D01*
X177344001Y-96572000D01*
X154906973Y-96572000D01*
X155160799Y-96466862D01*
X155648862Y-95978799D01*
X155913000Y-95341113D01*
X155913000Y-94650887D01*
X155820714Y-94428088D01*
X156850436Y-93398366D01*
X164266000Y-93398366D01*
X164266000Y-94446634D01*
X164667155Y-95415108D01*
X165408392Y-96156345D01*
X166376866Y-96557500D01*
X167425134Y-96557500D01*
X168393608Y-96156345D01*
X169134845Y-95415108D01*
X169536000Y-94446634D01*
X169536000Y-93398366D01*
X169134845Y-92429892D01*
X168393608Y-91688655D01*
X167425134Y-91287500D01*
X166376866Y-91287500D01*
X165408392Y-91688655D01*
X164667155Y-92429892D01*
X164266000Y-93398366D01*
X156850436Y-93398366D01*
X157741474Y-92507328D01*
X157804930Y-92464928D01*
X157972905Y-92213536D01*
X158017001Y-91991851D01*
X158017001Y-91991846D01*
X158031889Y-91916999D01*
X158017001Y-91842152D01*
X158017001Y-87970245D01*
X164652861Y-87970245D01*
X164726995Y-88216364D01*
X165264223Y-88409465D01*
X165834454Y-88382278D01*
X166235005Y-88216364D01*
X166309139Y-87970245D01*
X165481000Y-87142105D01*
X164652861Y-87970245D01*
X158017001Y-87970245D01*
X158017001Y-86745723D01*
X164034035Y-86745723D01*
X164061222Y-87315954D01*
X164227136Y-87716505D01*
X164473255Y-87790639D01*
X165301395Y-86962500D01*
X165660605Y-86962500D01*
X166488745Y-87790639D01*
X166734864Y-87716505D01*
X166927965Y-87179277D01*
X166900778Y-86609046D01*
X166734864Y-86208495D01*
X166488745Y-86134361D01*
X165660605Y-86962500D01*
X165301395Y-86962500D01*
X164473255Y-86134361D01*
X164227136Y-86208495D01*
X164034035Y-86745723D01*
X158017001Y-86745723D01*
X158017001Y-85290347D01*
X158031889Y-85215500D01*
X158017001Y-85140653D01*
X158017001Y-85140649D01*
X157972905Y-84918964D01*
X157952550Y-84888500D01*
X164216060Y-84888500D01*
X164264466Y-85005362D01*
X164668138Y-85409034D01*
X165059218Y-85571025D01*
X164726995Y-85708636D01*
X164652861Y-85954755D01*
X165481000Y-86782895D01*
X166309139Y-85954755D01*
X166235005Y-85708636D01*
X165879261Y-85580768D01*
X166293862Y-85409034D01*
X166697534Y-85005362D01*
X166916000Y-84477939D01*
X166916000Y-83907061D01*
X166697534Y-83379638D01*
X166293862Y-82975966D01*
X165887150Y-82807500D01*
X166293862Y-82639034D01*
X166697534Y-82235362D01*
X166916000Y-81707939D01*
X166916000Y-81137061D01*
X166697534Y-80609638D01*
X166293862Y-80205966D01*
X165887150Y-80037500D01*
X166293862Y-79869034D01*
X166697534Y-79465362D01*
X166916000Y-78937939D01*
X166916000Y-78367061D01*
X166697534Y-77839638D01*
X166293862Y-77435966D01*
X166037893Y-77329940D01*
X166281000Y-77329940D01*
X166528765Y-77280657D01*
X166738809Y-77140309D01*
X166844547Y-76982061D01*
X166886000Y-76982061D01*
X166886000Y-77552939D01*
X167104466Y-78080362D01*
X167508138Y-78484034D01*
X167914850Y-78652500D01*
X167508138Y-78820966D01*
X167104466Y-79224638D01*
X166886000Y-79752061D01*
X166886000Y-80322939D01*
X167104466Y-80850362D01*
X167508138Y-81254034D01*
X167914850Y-81422500D01*
X167508138Y-81590966D01*
X167104466Y-81994638D01*
X166886000Y-82522061D01*
X166886000Y-83092939D01*
X167104466Y-83620362D01*
X167508138Y-84024034D01*
X167914850Y-84192500D01*
X167508138Y-84360966D01*
X167104466Y-84764638D01*
X166886000Y-85292061D01*
X166886000Y-85862939D01*
X167104466Y-86390362D01*
X167508138Y-86794034D01*
X168035561Y-87012500D01*
X168606439Y-87012500D01*
X169133862Y-86794034D01*
X169537534Y-86390362D01*
X169756000Y-85862939D01*
X169756000Y-85292061D01*
X169537534Y-84764638D01*
X169133862Y-84360966D01*
X168727150Y-84192500D01*
X169133862Y-84024034D01*
X169537534Y-83620362D01*
X169756000Y-83092939D01*
X169756000Y-82522061D01*
X169537534Y-81994638D01*
X169133862Y-81590966D01*
X168727150Y-81422500D01*
X169133862Y-81254034D01*
X169537534Y-80850362D01*
X169756000Y-80322939D01*
X169756000Y-79752061D01*
X169537534Y-79224638D01*
X169133862Y-78820966D01*
X168727150Y-78652500D01*
X169133862Y-78484034D01*
X169537534Y-78080362D01*
X169756000Y-77552939D01*
X169756000Y-76982061D01*
X169537534Y-76454638D01*
X169133862Y-76050966D01*
X168606439Y-75832500D01*
X168035561Y-75832500D01*
X167508138Y-76050966D01*
X167104466Y-76454638D01*
X166886000Y-76982061D01*
X166844547Y-76982061D01*
X166879157Y-76930265D01*
X166928440Y-76682500D01*
X166928440Y-75082500D01*
X166879157Y-74834735D01*
X166738809Y-74624691D01*
X166528765Y-74484343D01*
X166281000Y-74435060D01*
X164681000Y-74435060D01*
X164433235Y-74484343D01*
X164238058Y-74614757D01*
X163433831Y-73810530D01*
X163391429Y-73747071D01*
X163140037Y-73579096D01*
X162918352Y-73535000D01*
X162918347Y-73535000D01*
X162843500Y-73520112D01*
X162768653Y-73535000D01*
X152474846Y-73535000D01*
X152399999Y-73520112D01*
X152325152Y-73535000D01*
X152325148Y-73535000D01*
X152103463Y-73579096D01*
X152103461Y-73579097D01*
X152103462Y-73579097D01*
X151915526Y-73704671D01*
X151915524Y-73704673D01*
X151852071Y-73747071D01*
X151809673Y-73810524D01*
X149375530Y-76244669D01*
X149312071Y-76287071D01*
X149144096Y-76538464D01*
X149100000Y-76760149D01*
X149100000Y-76760153D01*
X149085112Y-76835000D01*
X149100000Y-76909847D01*
X149100001Y-80322288D01*
X148982569Y-80439720D01*
X148876089Y-80696787D01*
X144503603Y-76324302D01*
X144525500Y-76271439D01*
X144525500Y-75700561D01*
X144307034Y-75173138D01*
X143903362Y-74769466D01*
X143822568Y-74736000D01*
X143903362Y-74702534D01*
X144307034Y-74298862D01*
X144525500Y-73771439D01*
X144525500Y-73200561D01*
X144503725Y-73147992D01*
X144565929Y-73106429D01*
X144733904Y-72855037D01*
X144778000Y-72633352D01*
X144778000Y-72633348D01*
X144792888Y-72558501D01*
X144778000Y-72483654D01*
X144778000Y-68619148D01*
X145000799Y-68526862D01*
X145488862Y-68038799D01*
X145753000Y-67401113D01*
X145753000Y-66710887D01*
X145488862Y-66073201D01*
X145000799Y-65585138D01*
X144746973Y-65480000D01*
X148369027Y-65480000D01*
X148115201Y-65585138D01*
G36*
X137955201Y-65585138D02*
X137467138Y-66073201D01*
X137203000Y-66710887D01*
X137203000Y-67401113D01*
X137467138Y-68038799D01*
X137955201Y-68526862D01*
X138592887Y-68791000D01*
X139130501Y-68791000D01*
X139130500Y-72247570D01*
X139077638Y-72269466D01*
X138673966Y-72673138D01*
X138652070Y-72726000D01*
X127341847Y-72726000D01*
X127267000Y-72711112D01*
X127192153Y-72726000D01*
X127192148Y-72726000D01*
X126970463Y-72770096D01*
X126719071Y-72938071D01*
X126676671Y-73001527D01*
X125626528Y-74051671D01*
X125563072Y-74094071D01*
X125520672Y-74157527D01*
X125520671Y-74157528D01*
X125462518Y-74244560D01*
X125311000Y-74244560D01*
X125063235Y-74293843D01*
X124853191Y-74434191D01*
X124712843Y-74644235D01*
X124663560Y-74892000D01*
X124663560Y-76492000D01*
X124712843Y-76739765D01*
X124853191Y-76949809D01*
X125063235Y-77090157D01*
X125311000Y-77139440D01*
X125554107Y-77139440D01*
X125298138Y-77245466D01*
X124894466Y-77649138D01*
X124676000Y-78176561D01*
X124676000Y-78747439D01*
X124894466Y-79274862D01*
X125298138Y-79678534D01*
X125704850Y-79847000D01*
X125298138Y-80015466D01*
X124894466Y-80419138D01*
X124676000Y-80946561D01*
X124676000Y-81517439D01*
X124894466Y-82044862D01*
X125298138Y-82448534D01*
X125704850Y-82617000D01*
X125298138Y-82785466D01*
X124894466Y-83189138D01*
X124676000Y-83716561D01*
X124676000Y-84287439D01*
X124894466Y-84814862D01*
X125298138Y-85218534D01*
X125689218Y-85380525D01*
X125356995Y-85518136D01*
X125282861Y-85764255D01*
X126111000Y-86592395D01*
X126125142Y-86578252D01*
X126304748Y-86757858D01*
X126290605Y-86772000D01*
X127118745Y-87600139D01*
X127364864Y-87526005D01*
X127557965Y-86988777D01*
X127534685Y-86500486D01*
X130291671Y-89257473D01*
X130334071Y-89320929D01*
X130585463Y-89488904D01*
X130807148Y-89533000D01*
X130807153Y-89533000D01*
X130882000Y-89547888D01*
X130956847Y-89533000D01*
X138316060Y-89533000D01*
X138316060Y-89573000D01*
X138365343Y-89820765D01*
X138505691Y-90030809D01*
X138715735Y-90171157D01*
X138963500Y-90220440D01*
X140563500Y-90220440D01*
X140811265Y-90171157D01*
X141021309Y-90030809D01*
X141161657Y-89820765D01*
X141210940Y-89573000D01*
X141210940Y-88095242D01*
X141550396Y-88434699D01*
X141528500Y-88487561D01*
X141528500Y-89058439D01*
X141746966Y-89585862D01*
X142150638Y-89989534D01*
X142678061Y-90208000D01*
X143248939Y-90208000D01*
X143776362Y-89989534D01*
X144180034Y-89585862D01*
X144398500Y-89058439D01*
X144398500Y-88487561D01*
X144180034Y-87960138D01*
X143776362Y-87556466D01*
X143695568Y-87523000D01*
X143776362Y-87489534D01*
X144180034Y-87085862D01*
X144201930Y-87033000D01*
X151926653Y-87033000D01*
X152001500Y-87047888D01*
X152076347Y-87033000D01*
X152076352Y-87033000D01*
X152298037Y-86988904D01*
X152448302Y-86888500D01*
X152472700Y-86888500D01*
X152485680Y-86919837D01*
X152878663Y-87312820D01*
X153392119Y-87525500D01*
X153947881Y-87525500D01*
X154461337Y-87312820D01*
X154854320Y-86919837D01*
X154920000Y-86761271D01*
X154985680Y-86919837D01*
X155378663Y-87312820D01*
X155892119Y-87525500D01*
X156447881Y-87525500D01*
X156497002Y-87505154D01*
X156497001Y-91602197D01*
X154745912Y-93353286D01*
X154523113Y-93261000D01*
X153832887Y-93261000D01*
X153195201Y-93525138D01*
X152707138Y-94013201D01*
X152443000Y-94650887D01*
X152443000Y-95341113D01*
X152707138Y-95978799D01*
X153195201Y-96466862D01*
X153449027Y-96572000D01*
X149826973Y-96572000D01*
X150080799Y-96466862D01*
X150568862Y-95978799D01*
X150833000Y-95341113D01*
X150833000Y-94650887D01*
X150568862Y-94013201D01*
X150080799Y-93525138D01*
X149443113Y-93261000D01*
X148752887Y-93261000D01*
X148115201Y-93525138D01*
X147627138Y-94013201D01*
X147363000Y-94650887D01*
X147363000Y-95341113D01*
X147627138Y-95978799D01*
X148115201Y-96466862D01*
X148369027Y-96572000D01*
X144746973Y-96572000D01*
X145000799Y-96466862D01*
X145488862Y-95978799D01*
X145753000Y-95341113D01*
X145753000Y-94650887D01*
X145488862Y-94013201D01*
X145000799Y-93525138D01*
X144363113Y-93261000D01*
X143672887Y-93261000D01*
X143035201Y-93525138D01*
X142547138Y-94013201D01*
X142283000Y-94650887D01*
X142283000Y-95341113D01*
X142547138Y-95978799D01*
X143035201Y-96466862D01*
X143289027Y-96572000D01*
X139666973Y-96572000D01*
X139920799Y-96466862D01*
X140408862Y-95978799D01*
X140673000Y-95341113D01*
X140673000Y-94650887D01*
X140408862Y-94013201D01*
X139920799Y-93525138D01*
X139283113Y-93261000D01*
X138592887Y-93261000D01*
X137955201Y-93525138D01*
X137467138Y-94013201D01*
X137203000Y-94650887D01*
X137203000Y-95341113D01*
X137467138Y-95978799D01*
X137955201Y-96466862D01*
X138209027Y-96572000D01*
X132865418Y-96572000D01*
X133063323Y-96046407D01*
X133040836Y-95356547D01*
X132820099Y-94823641D01*
X132542868Y-94712737D01*
X131497605Y-95758000D01*
X131511748Y-95772143D01*
X131332143Y-95951748D01*
X131318000Y-95937605D01*
X131303858Y-95951748D01*
X131124253Y-95772143D01*
X131138395Y-95758000D01*
X130093132Y-94712737D01*
X129815901Y-94823641D01*
X129572677Y-95469593D01*
X129595164Y-96159453D01*
X129766047Y-96572000D01*
X114248000Y-96572000D01*
X114248000Y-93207866D01*
X122056000Y-93207866D01*
X122056000Y-94256134D01*
X122457155Y-95224608D01*
X123198392Y-95965845D01*
X124166866Y-96367000D01*
X125215134Y-96367000D01*
X126183608Y-95965845D01*
X126924845Y-95224608D01*
X127211263Y-94533132D01*
X130272737Y-94533132D01*
X131318000Y-95578395D01*
X132363263Y-94533132D01*
X132252359Y-94255901D01*
X131606407Y-94012677D01*
X130916547Y-94035164D01*
X130383641Y-94255901D01*
X130272737Y-94533132D01*
X127211263Y-94533132D01*
X127326000Y-94256134D01*
X127326000Y-93207866D01*
X126924845Y-92239392D01*
X126183608Y-91498155D01*
X125215134Y-91097000D01*
X124166866Y-91097000D01*
X123198392Y-91498155D01*
X122457155Y-92239392D01*
X122056000Y-93207866D01*
X114248000Y-93207866D01*
X114248000Y-87779745D01*
X125282861Y-87779745D01*
X125356995Y-88025864D01*
X125894223Y-88218965D01*
X126464454Y-88191778D01*
X126865005Y-88025864D01*
X126939139Y-87779745D01*
X126111000Y-86951605D01*
X125282861Y-87779745D01*
X114248000Y-87779745D01*
X114248000Y-76791561D01*
X121836000Y-76791561D01*
X121836000Y-77362439D01*
X122054466Y-77889862D01*
X122458138Y-78293534D01*
X122864850Y-78462000D01*
X122458138Y-78630466D01*
X122054466Y-79034138D01*
X121836000Y-79561561D01*
X121836000Y-80132439D01*
X122054466Y-80659862D01*
X122458138Y-81063534D01*
X122864850Y-81232000D01*
X122458138Y-81400466D01*
X122054466Y-81804138D01*
X121836000Y-82331561D01*
X121836000Y-82902439D01*
X122054466Y-83429862D01*
X122458138Y-83833534D01*
X122864850Y-84002000D01*
X122458138Y-84170466D01*
X122054466Y-84574138D01*
X121836000Y-85101561D01*
X121836000Y-85672439D01*
X122054466Y-86199862D01*
X122458138Y-86603534D01*
X122985561Y-86822000D01*
X123556439Y-86822000D01*
X124083862Y-86603534D01*
X124132173Y-86555223D01*
X124664035Y-86555223D01*
X124691222Y-87125454D01*
X124857136Y-87526005D01*
X125103255Y-87600139D01*
X125931395Y-86772000D01*
X125103255Y-85943861D01*
X124857136Y-86017995D01*
X124664035Y-86555223D01*
X124132173Y-86555223D01*
X124487534Y-86199862D01*
X124706000Y-85672439D01*
X124706000Y-85101561D01*
X124487534Y-84574138D01*
X124083862Y-84170466D01*
X123677150Y-84002000D01*
X124083862Y-83833534D01*
X124487534Y-83429862D01*
X124706000Y-82902439D01*
X124706000Y-82331561D01*
X124487534Y-81804138D01*
X124083862Y-81400466D01*
X123677150Y-81232000D01*
X124083862Y-81063534D01*
X124487534Y-80659862D01*
X124706000Y-80132439D01*
X124706000Y-79561561D01*
X124487534Y-79034138D01*
X124083862Y-78630466D01*
X123677150Y-78462000D01*
X124083862Y-78293534D01*
X124487534Y-77889862D01*
X124706000Y-77362439D01*
X124706000Y-76791561D01*
X124487534Y-76264138D01*
X124083862Y-75860466D01*
X123556439Y-75642000D01*
X122985561Y-75642000D01*
X122458138Y-75860466D01*
X122054466Y-76264138D01*
X121836000Y-76791561D01*
X114248000Y-76791561D01*
X114248000Y-68207866D01*
X122056000Y-68207866D01*
X122056000Y-69256134D01*
X122457155Y-70224608D01*
X123198392Y-70965845D01*
X124166866Y-71367000D01*
X125215134Y-71367000D01*
X126183608Y-70965845D01*
X126924845Y-70224608D01*
X127326000Y-69256134D01*
X127326000Y-68207866D01*
X126924845Y-67239392D01*
X126183608Y-66498155D01*
X125215134Y-66097000D01*
X124166866Y-66097000D01*
X123198392Y-66498155D01*
X122457155Y-67239392D01*
X122056000Y-68207866D01*
X114248000Y-68207866D01*
X114248000Y-65480000D01*
X138209027Y-65480000D01*
X137955201Y-65585138D01*
X137955201Y-65585138D01*
G37*
X137955201Y-65585138D02*
X137467138Y-66073201D01*
X137203000Y-66710887D01*
X137203000Y-67401113D01*
X137467138Y-68038799D01*
X137955201Y-68526862D01*
X138592887Y-68791000D01*
X139130501Y-68791000D01*
X139130500Y-72247570D01*
X139077638Y-72269466D01*
X138673966Y-72673138D01*
X138652070Y-72726000D01*
X127341847Y-72726000D01*
X127267000Y-72711112D01*
X127192153Y-72726000D01*
X127192148Y-72726000D01*
X126970463Y-72770096D01*
X126719071Y-72938071D01*
X126676671Y-73001527D01*
X125626528Y-74051671D01*
X125563072Y-74094071D01*
X125520672Y-74157527D01*
X125520671Y-74157528D01*
X125462518Y-74244560D01*
X125311000Y-74244560D01*
X125063235Y-74293843D01*
X124853191Y-74434191D01*
X124712843Y-74644235D01*
X124663560Y-74892000D01*
X124663560Y-76492000D01*
X124712843Y-76739765D01*
X124853191Y-76949809D01*
X125063235Y-77090157D01*
X125311000Y-77139440D01*
X125554107Y-77139440D01*
X125298138Y-77245466D01*
X124894466Y-77649138D01*
X124676000Y-78176561D01*
X124676000Y-78747439D01*
X124894466Y-79274862D01*
X125298138Y-79678534D01*
X125704850Y-79847000D01*
X125298138Y-80015466D01*
X124894466Y-80419138D01*
X124676000Y-80946561D01*
X124676000Y-81517439D01*
X124894466Y-82044862D01*
X125298138Y-82448534D01*
X125704850Y-82617000D01*
X125298138Y-82785466D01*
X124894466Y-83189138D01*
X124676000Y-83716561D01*
X124676000Y-84287439D01*
X124894466Y-84814862D01*
X125298138Y-85218534D01*
X125689218Y-85380525D01*
X125356995Y-85518136D01*
X125282861Y-85764255D01*
X126111000Y-86592395D01*
X126125142Y-86578252D01*
X126304748Y-86757858D01*
X126290605Y-86772000D01*
X127118745Y-87600139D01*
X127364864Y-87526005D01*
X127557965Y-86988777D01*
X127534685Y-86500486D01*
X130291671Y-89257473D01*
X130334071Y-89320929D01*
X130585463Y-89488904D01*
X130807148Y-89533000D01*
X130807153Y-89533000D01*
X130882000Y-89547888D01*
X130956847Y-89533000D01*
X138316060Y-89533000D01*
X138316060Y-89573000D01*
X138365343Y-89820765D01*
X138505691Y-90030809D01*
X138715735Y-90171157D01*
X138963500Y-90220440D01*
X140563500Y-90220440D01*
X140811265Y-90171157D01*
X141021309Y-90030809D01*
X141161657Y-89820765D01*
X141210940Y-89573000D01*
X141210940Y-88095242D01*
X141550396Y-88434699D01*
X141528500Y-88487561D01*
X141528500Y-89058439D01*
X141746966Y-89585862D01*
X142150638Y-89989534D01*
X142678061Y-90208000D01*
X143248939Y-90208000D01*
X143776362Y-89989534D01*
X144180034Y-89585862D01*
X144398500Y-89058439D01*
X144398500Y-88487561D01*
X144180034Y-87960138D01*
X143776362Y-87556466D01*
X143695568Y-87523000D01*
X143776362Y-87489534D01*
X144180034Y-87085862D01*
X144201930Y-87033000D01*
X151926653Y-87033000D01*
X152001500Y-87047888D01*
X152076347Y-87033000D01*
X152076352Y-87033000D01*
X152298037Y-86988904D01*
X152448302Y-86888500D01*
X152472700Y-86888500D01*
X152485680Y-86919837D01*
X152878663Y-87312820D01*
X153392119Y-87525500D01*
X153947881Y-87525500D01*
X154461337Y-87312820D01*
X154854320Y-86919837D01*
X154920000Y-86761271D01*
X154985680Y-86919837D01*
X155378663Y-87312820D01*
X155892119Y-87525500D01*
X156447881Y-87525500D01*
X156497002Y-87505154D01*
X156497001Y-91602197D01*
X154745912Y-93353286D01*
X154523113Y-93261000D01*
X153832887Y-93261000D01*
X153195201Y-93525138D01*
X152707138Y-94013201D01*
X152443000Y-94650887D01*
X152443000Y-95341113D01*
X152707138Y-95978799D01*
X153195201Y-96466862D01*
X153449027Y-96572000D01*
X149826973Y-96572000D01*
X150080799Y-96466862D01*
X150568862Y-95978799D01*
X150833000Y-95341113D01*
X150833000Y-94650887D01*
X150568862Y-94013201D01*
X150080799Y-93525138D01*
X149443113Y-93261000D01*
X148752887Y-93261000D01*
X148115201Y-93525138D01*
X147627138Y-94013201D01*
X147363000Y-94650887D01*
X147363000Y-95341113D01*
X147627138Y-95978799D01*
X148115201Y-96466862D01*
X148369027Y-96572000D01*
X144746973Y-96572000D01*
X145000799Y-96466862D01*
X145488862Y-95978799D01*
X145753000Y-95341113D01*
X145753000Y-94650887D01*
X145488862Y-94013201D01*
X145000799Y-93525138D01*
X144363113Y-93261000D01*
X143672887Y-93261000D01*
X143035201Y-93525138D01*
X142547138Y-94013201D01*
X142283000Y-94650887D01*
X142283000Y-95341113D01*
X142547138Y-95978799D01*
X143035201Y-96466862D01*
X143289027Y-96572000D01*
X139666973Y-96572000D01*
X139920799Y-96466862D01*
X140408862Y-95978799D01*
X140673000Y-95341113D01*
X140673000Y-94650887D01*
X140408862Y-94013201D01*
X139920799Y-93525138D01*
X139283113Y-93261000D01*
X138592887Y-93261000D01*
X137955201Y-93525138D01*
X137467138Y-94013201D01*
X137203000Y-94650887D01*
X137203000Y-95341113D01*
X137467138Y-95978799D01*
X137955201Y-96466862D01*
X138209027Y-96572000D01*
X132865418Y-96572000D01*
X133063323Y-96046407D01*
X133040836Y-95356547D01*
X132820099Y-94823641D01*
X132542868Y-94712737D01*
X131497605Y-95758000D01*
X131511748Y-95772143D01*
X131332143Y-95951748D01*
X131318000Y-95937605D01*
X131303858Y-95951748D01*
X131124253Y-95772143D01*
X131138395Y-95758000D01*
X130093132Y-94712737D01*
X129815901Y-94823641D01*
X129572677Y-95469593D01*
X129595164Y-96159453D01*
X129766047Y-96572000D01*
X114248000Y-96572000D01*
X114248000Y-93207866D01*
X122056000Y-93207866D01*
X122056000Y-94256134D01*
X122457155Y-95224608D01*
X123198392Y-95965845D01*
X124166866Y-96367000D01*
X125215134Y-96367000D01*
X126183608Y-95965845D01*
X126924845Y-95224608D01*
X127211263Y-94533132D01*
X130272737Y-94533132D01*
X131318000Y-95578395D01*
X132363263Y-94533132D01*
X132252359Y-94255901D01*
X131606407Y-94012677D01*
X130916547Y-94035164D01*
X130383641Y-94255901D01*
X130272737Y-94533132D01*
X127211263Y-94533132D01*
X127326000Y-94256134D01*
X127326000Y-93207866D01*
X126924845Y-92239392D01*
X126183608Y-91498155D01*
X125215134Y-91097000D01*
X124166866Y-91097000D01*
X123198392Y-91498155D01*
X122457155Y-92239392D01*
X122056000Y-93207866D01*
X114248000Y-93207866D01*
X114248000Y-87779745D01*
X125282861Y-87779745D01*
X125356995Y-88025864D01*
X125894223Y-88218965D01*
X126464454Y-88191778D01*
X126865005Y-88025864D01*
X126939139Y-87779745D01*
X126111000Y-86951605D01*
X125282861Y-87779745D01*
X114248000Y-87779745D01*
X114248000Y-76791561D01*
X121836000Y-76791561D01*
X121836000Y-77362439D01*
X122054466Y-77889862D01*
X122458138Y-78293534D01*
X122864850Y-78462000D01*
X122458138Y-78630466D01*
X122054466Y-79034138D01*
X121836000Y-79561561D01*
X121836000Y-80132439D01*
X122054466Y-80659862D01*
X122458138Y-81063534D01*
X122864850Y-81232000D01*
X122458138Y-81400466D01*
X122054466Y-81804138D01*
X121836000Y-82331561D01*
X121836000Y-82902439D01*
X122054466Y-83429862D01*
X122458138Y-83833534D01*
X122864850Y-84002000D01*
X122458138Y-84170466D01*
X122054466Y-84574138D01*
X121836000Y-85101561D01*
X121836000Y-85672439D01*
X122054466Y-86199862D01*
X122458138Y-86603534D01*
X122985561Y-86822000D01*
X123556439Y-86822000D01*
X124083862Y-86603534D01*
X124132173Y-86555223D01*
X124664035Y-86555223D01*
X124691222Y-87125454D01*
X124857136Y-87526005D01*
X125103255Y-87600139D01*
X125931395Y-86772000D01*
X125103255Y-85943861D01*
X124857136Y-86017995D01*
X124664035Y-86555223D01*
X124132173Y-86555223D01*
X124487534Y-86199862D01*
X124706000Y-85672439D01*
X124706000Y-85101561D01*
X124487534Y-84574138D01*
X124083862Y-84170466D01*
X123677150Y-84002000D01*
X124083862Y-83833534D01*
X124487534Y-83429862D01*
X124706000Y-82902439D01*
X124706000Y-82331561D01*
X124487534Y-81804138D01*
X124083862Y-81400466D01*
X123677150Y-81232000D01*
X124083862Y-81063534D01*
X124487534Y-80659862D01*
X124706000Y-80132439D01*
X124706000Y-79561561D01*
X124487534Y-79034138D01*
X124083862Y-78630466D01*
X123677150Y-78462000D01*
X124083862Y-78293534D01*
X124487534Y-77889862D01*
X124706000Y-77362439D01*
X124706000Y-76791561D01*
X124487534Y-76264138D01*
X124083862Y-75860466D01*
X123556439Y-75642000D01*
X122985561Y-75642000D01*
X122458138Y-75860466D01*
X122054466Y-76264138D01*
X121836000Y-76791561D01*
X114248000Y-76791561D01*
X114248000Y-68207866D01*
X122056000Y-68207866D01*
X122056000Y-69256134D01*
X122457155Y-70224608D01*
X123198392Y-70965845D01*
X124166866Y-71367000D01*
X125215134Y-71367000D01*
X126183608Y-70965845D01*
X126924845Y-70224608D01*
X127326000Y-69256134D01*
X127326000Y-68207866D01*
X126924845Y-67239392D01*
X126183608Y-66498155D01*
X125215134Y-66097000D01*
X124166866Y-66097000D01*
X123198392Y-66498155D01*
X122457155Y-67239392D01*
X122056000Y-68207866D01*
X114248000Y-68207866D01*
X114248000Y-65480000D01*
X138209027Y-65480000D01*
X137955201Y-65585138D01*
G36*
X138350397Y-83434698D02*
X138328500Y-83487561D01*
X138328500Y-84058439D01*
X138546966Y-84585862D01*
X138950638Y-84989534D01*
X139031432Y-85023000D01*
X138950638Y-85056466D01*
X138546966Y-85460138D01*
X138328500Y-85987561D01*
X138328500Y-86558439D01*
X138546966Y-87085862D01*
X138816003Y-87354899D01*
X138715735Y-87374843D01*
X138505691Y-87515191D01*
X138365343Y-87725235D01*
X138316060Y-87973000D01*
X138316060Y-88013000D01*
X131196802Y-88013000D01*
X127524103Y-84340302D01*
X127546000Y-84287439D01*
X127546000Y-83716561D01*
X127327534Y-83189138D01*
X126923862Y-82785466D01*
X126517150Y-82617000D01*
X126923862Y-82448534D01*
X127327534Y-82044862D01*
X127349430Y-81992000D01*
X136907699Y-81992000D01*
X138350397Y-83434698D01*
X138350397Y-83434698D01*
G37*
X138350397Y-83434698D02*
X138328500Y-83487561D01*
X138328500Y-84058439D01*
X138546966Y-84585862D01*
X138950638Y-84989534D01*
X139031432Y-85023000D01*
X138950638Y-85056466D01*
X138546966Y-85460138D01*
X138328500Y-85987561D01*
X138328500Y-86558439D01*
X138546966Y-87085862D01*
X138816003Y-87354899D01*
X138715735Y-87374843D01*
X138505691Y-87515191D01*
X138365343Y-87725235D01*
X138316060Y-87973000D01*
X138316060Y-88013000D01*
X131196802Y-88013000D01*
X127524103Y-84340302D01*
X127546000Y-84287439D01*
X127546000Y-83716561D01*
X127327534Y-83189138D01*
X126923862Y-82785466D01*
X126517150Y-82617000D01*
X126923862Y-82448534D01*
X127327534Y-82044862D01*
X127349430Y-81992000D01*
X136907699Y-81992000D01*
X138350397Y-83434698D01*
G36*
X148642670Y-82612972D02*
X148685071Y-82676429D01*
X148748527Y-82718829D01*
X148936462Y-82844404D01*
X148984605Y-82853980D01*
X149158148Y-82888500D01*
X149158152Y-82888500D01*
X149233000Y-82903388D01*
X149307848Y-82888500D01*
X152472700Y-82888500D01*
X152485680Y-82919837D01*
X152694343Y-83128500D01*
X152485680Y-83337163D01*
X152273000Y-83850619D01*
X152273000Y-84406381D01*
X152485680Y-84919837D01*
X152694343Y-85128500D01*
X152485680Y-85337163D01*
X152472700Y-85368500D01*
X152220847Y-85368500D01*
X152146000Y-85353612D01*
X152071153Y-85368500D01*
X152071148Y-85368500D01*
X151849463Y-85412596D01*
X151699198Y-85513000D01*
X144201930Y-85513000D01*
X144180034Y-85460138D01*
X143776362Y-85056466D01*
X143695568Y-85023000D01*
X143776362Y-84989534D01*
X144180034Y-84585862D01*
X144398500Y-84058439D01*
X144398500Y-83487561D01*
X144180034Y-82960138D01*
X143776362Y-82556466D01*
X143248939Y-82338000D01*
X142678061Y-82338000D01*
X142150638Y-82556466D01*
X141746966Y-82960138D01*
X141528500Y-83487561D01*
X141528500Y-84058439D01*
X141746966Y-84585862D01*
X142150638Y-84989534D01*
X142231432Y-85023000D01*
X142150638Y-85056466D01*
X141746966Y-85460138D01*
X141648501Y-85697853D01*
X141648501Y-84972849D01*
X141663389Y-84898001D01*
X141648501Y-84823153D01*
X141648501Y-84823149D01*
X141604405Y-84601464D01*
X141604405Y-84601463D01*
X141478830Y-84413528D01*
X141436430Y-84350072D01*
X141372974Y-84307672D01*
X141176604Y-84111302D01*
X141198500Y-84058439D01*
X141198500Y-83487561D01*
X140980034Y-82960138D01*
X140576362Y-82556466D01*
X140048939Y-82338000D01*
X139478061Y-82338000D01*
X139425198Y-82359897D01*
X137812831Y-80747530D01*
X137770429Y-80684071D01*
X137519037Y-80516096D01*
X137297352Y-80472000D01*
X137297347Y-80472000D01*
X137222500Y-80457112D01*
X137147653Y-80472000D01*
X127349430Y-80472000D01*
X127327534Y-80419138D01*
X126923862Y-80015466D01*
X126517150Y-79847000D01*
X126923862Y-79678534D01*
X127327534Y-79274862D01*
X127349430Y-79222000D01*
X138443060Y-79222000D01*
X138443060Y-79286000D01*
X138492343Y-79533765D01*
X138632691Y-79743809D01*
X138842735Y-79884157D01*
X139090500Y-79933440D01*
X140690500Y-79933440D01*
X140938265Y-79884157D01*
X141148309Y-79743809D01*
X141288657Y-79533765D01*
X141337940Y-79286000D01*
X141337940Y-78939612D01*
X141368801Y-78970472D01*
X141411201Y-79033929D01*
X141662593Y-79201904D01*
X141849178Y-79239018D01*
X141873966Y-79298862D01*
X142277638Y-79702534D01*
X142805061Y-79921000D01*
X143375939Y-79921000D01*
X143903362Y-79702534D01*
X144307034Y-79298862D01*
X144525500Y-78771439D01*
X144525500Y-78495801D01*
X148642670Y-82612972D01*
X148642670Y-82612972D01*
G37*
X148642670Y-82612972D02*
X148685071Y-82676429D01*
X148748527Y-82718829D01*
X148936462Y-82844404D01*
X148984605Y-82853980D01*
X149158148Y-82888500D01*
X149158152Y-82888500D01*
X149233000Y-82903388D01*
X149307848Y-82888500D01*
X152472700Y-82888500D01*
X152485680Y-82919837D01*
X152694343Y-83128500D01*
X152485680Y-83337163D01*
X152273000Y-83850619D01*
X152273000Y-84406381D01*
X152485680Y-84919837D01*
X152694343Y-85128500D01*
X152485680Y-85337163D01*
X152472700Y-85368500D01*
X152220847Y-85368500D01*
X152146000Y-85353612D01*
X152071153Y-85368500D01*
X152071148Y-85368500D01*
X151849463Y-85412596D01*
X151699198Y-85513000D01*
X144201930Y-85513000D01*
X144180034Y-85460138D01*
X143776362Y-85056466D01*
X143695568Y-85023000D01*
X143776362Y-84989534D01*
X144180034Y-84585862D01*
X144398500Y-84058439D01*
X144398500Y-83487561D01*
X144180034Y-82960138D01*
X143776362Y-82556466D01*
X143248939Y-82338000D01*
X142678061Y-82338000D01*
X142150638Y-82556466D01*
X141746966Y-82960138D01*
X141528500Y-83487561D01*
X141528500Y-84058439D01*
X141746966Y-84585862D01*
X142150638Y-84989534D01*
X142231432Y-85023000D01*
X142150638Y-85056466D01*
X141746966Y-85460138D01*
X141648501Y-85697853D01*
X141648501Y-84972849D01*
X141663389Y-84898001D01*
X141648501Y-84823153D01*
X141648501Y-84823149D01*
X141604405Y-84601464D01*
X141604405Y-84601463D01*
X141478830Y-84413528D01*
X141436430Y-84350072D01*
X141372974Y-84307672D01*
X141176604Y-84111302D01*
X141198500Y-84058439D01*
X141198500Y-83487561D01*
X140980034Y-82960138D01*
X140576362Y-82556466D01*
X140048939Y-82338000D01*
X139478061Y-82338000D01*
X139425198Y-82359897D01*
X137812831Y-80747530D01*
X137770429Y-80684071D01*
X137519037Y-80516096D01*
X137297352Y-80472000D01*
X137297347Y-80472000D01*
X137222500Y-80457112D01*
X137147653Y-80472000D01*
X127349430Y-80472000D01*
X127327534Y-80419138D01*
X126923862Y-80015466D01*
X126517150Y-79847000D01*
X126923862Y-79678534D01*
X127327534Y-79274862D01*
X127349430Y-79222000D01*
X138443060Y-79222000D01*
X138443060Y-79286000D01*
X138492343Y-79533765D01*
X138632691Y-79743809D01*
X138842735Y-79884157D01*
X139090500Y-79933440D01*
X140690500Y-79933440D01*
X140938265Y-79884157D01*
X141148309Y-79743809D01*
X141288657Y-79533765D01*
X141337940Y-79286000D01*
X141337940Y-78939612D01*
X141368801Y-78970472D01*
X141411201Y-79033929D01*
X141662593Y-79201904D01*
X141849178Y-79239018D01*
X141873966Y-79298862D01*
X142277638Y-79702534D01*
X142805061Y-79921000D01*
X143375939Y-79921000D01*
X143903362Y-79702534D01*
X144307034Y-79298862D01*
X144525500Y-78771439D01*
X144525500Y-78495801D01*
X148642670Y-82612972D01*
G36*
X164067896Y-81084199D02*
X164046000Y-81137061D01*
X164046000Y-81707939D01*
X164264466Y-82235362D01*
X164668138Y-82639034D01*
X165074850Y-82807500D01*
X164668138Y-82975966D01*
X164275604Y-83368500D01*
X157367300Y-83368500D01*
X157354320Y-83337163D01*
X157145657Y-83128500D01*
X157354320Y-82919837D01*
X157567000Y-82406381D01*
X157567000Y-81850619D01*
X157354320Y-81337163D01*
X157145657Y-81128500D01*
X157354320Y-80919837D01*
X157567000Y-80406381D01*
X157567000Y-79850619D01*
X157354320Y-79337163D01*
X157145657Y-79128500D01*
X157354320Y-78919837D01*
X157367300Y-78888500D01*
X161872199Y-78888500D01*
X164067896Y-81084199D01*
X164067896Y-81084199D01*
G37*
X164067896Y-81084199D02*
X164046000Y-81137061D01*
X164046000Y-81707939D01*
X164264466Y-82235362D01*
X164668138Y-82639034D01*
X165074850Y-82807500D01*
X164668138Y-82975966D01*
X164275604Y-83368500D01*
X157367300Y-83368500D01*
X157354320Y-83337163D01*
X157145657Y-83128500D01*
X157354320Y-82919837D01*
X157567000Y-82406381D01*
X157567000Y-81850619D01*
X157354320Y-81337163D01*
X157145657Y-81128500D01*
X157354320Y-80919837D01*
X157567000Y-80406381D01*
X157567000Y-79850619D01*
X157354320Y-79337163D01*
X157145657Y-79128500D01*
X157354320Y-78919837D01*
X157367300Y-78888500D01*
X161872199Y-78888500D01*
X164067896Y-81084199D01*
G36*
X163840671Y-76366973D02*
X163883071Y-76430429D01*
X164033560Y-76530983D01*
X164033560Y-76682500D01*
X164082843Y-76930265D01*
X164223191Y-77140309D01*
X164433235Y-77280657D01*
X164681000Y-77329940D01*
X164924107Y-77329940D01*
X164668138Y-77435966D01*
X164264466Y-77839638D01*
X164046000Y-78367061D01*
X164046000Y-78912698D01*
X162777331Y-77644030D01*
X162734929Y-77580571D01*
X162483537Y-77412596D01*
X162261852Y-77368500D01*
X162261847Y-77368500D01*
X162187000Y-77353612D01*
X162112153Y-77368500D01*
X157367300Y-77368500D01*
X157354320Y-77337163D01*
X157145657Y-77128500D01*
X157354320Y-76919837D01*
X157567000Y-76406381D01*
X157567000Y-75850619D01*
X157354320Y-75337163D01*
X157072157Y-75055000D01*
X162528699Y-75055000D01*
X163840671Y-76366973D01*
X163840671Y-76366973D01*
G37*
X163840671Y-76366973D02*
X163883071Y-76430429D01*
X164033560Y-76530983D01*
X164033560Y-76682500D01*
X164082843Y-76930265D01*
X164223191Y-77140309D01*
X164433235Y-77280657D01*
X164681000Y-77329940D01*
X164924107Y-77329940D01*
X164668138Y-77435966D01*
X164264466Y-77839638D01*
X164046000Y-78367061D01*
X164046000Y-78912698D01*
X162777331Y-77644030D01*
X162734929Y-77580571D01*
X162483537Y-77412596D01*
X162261852Y-77368500D01*
X162261847Y-77368500D01*
X162187000Y-77353612D01*
X162112153Y-77368500D01*
X157367300Y-77368500D01*
X157354320Y-77337163D01*
X157145657Y-77128500D01*
X157354320Y-76919837D01*
X157567000Y-76406381D01*
X157567000Y-75850619D01*
X157354320Y-75337163D01*
X157072157Y-75055000D01*
X162528699Y-75055000D01*
X163840671Y-76366973D01*
G36*
X138673966Y-74298862D02*
X139077638Y-74702534D01*
X139158432Y-74736000D01*
X139077638Y-74769466D01*
X138673966Y-75173138D01*
X138455500Y-75700561D01*
X138455500Y-76271439D01*
X138673966Y-76798862D01*
X138943003Y-77067899D01*
X138842735Y-77087843D01*
X138632691Y-77228191D01*
X138492343Y-77438235D01*
X138443060Y-77686000D01*
X138443060Y-77702000D01*
X127349430Y-77702000D01*
X127327534Y-77649138D01*
X126923862Y-77245466D01*
X126667893Y-77139440D01*
X126911000Y-77139440D01*
X127158765Y-77090157D01*
X127368809Y-76949809D01*
X127509157Y-76739765D01*
X127558440Y-76492000D01*
X127558440Y-74892000D01*
X127509157Y-74644235D01*
X127378743Y-74449058D01*
X127581802Y-74246000D01*
X138652070Y-74246000D01*
X138673966Y-74298862D01*
X138673966Y-74298862D01*
G37*
X138673966Y-74298862D02*
X139077638Y-74702534D01*
X139158432Y-74736000D01*
X139077638Y-74769466D01*
X138673966Y-75173138D01*
X138455500Y-75700561D01*
X138455500Y-76271439D01*
X138673966Y-76798862D01*
X138943003Y-77067899D01*
X138842735Y-77087843D01*
X138632691Y-77228191D01*
X138492343Y-77438235D01*
X138443060Y-77686000D01*
X138443060Y-77702000D01*
X127349430Y-77702000D01*
X127327534Y-77649138D01*
X126923862Y-77245466D01*
X126667893Y-77139440D01*
X126911000Y-77139440D01*
X127158765Y-77090157D01*
X127368809Y-76949809D01*
X127509157Y-76739765D01*
X127558440Y-76492000D01*
X127558440Y-74892000D01*
X127509157Y-74644235D01*
X127378743Y-74449058D01*
X127581802Y-74246000D01*
X138652070Y-74246000D01*
X138673966Y-74298862D01*
G04 #@! TD*
M02*
