G04 #@! TF.GenerationSoftware,KiCad,Pcbnew,(5.0.1)-rc2*
G04 #@! TF.CreationDate,2019-06-29T00:56:30-07:00*
G04 #@! TF.ProjectId,DB9_Switcher,4442395F53776974636865722E6B6963,rev?*
G04 #@! TF.SameCoordinates,Original*
G04 #@! TF.FileFunction,Copper,L2,Bot,Signal*
G04 #@! TF.FilePolarity,Positive*
%FSLAX46Y46*%
G04 Gerber Fmt 4.6, Leading zero omitted, Abs format (unit mm)*
G04 Created by KiCad (PCBNEW (5.0.1)-rc2) date 6/29/2019 12:56:30 AM*
%MOMM*%
%LPD*%
G01*
G04 APERTURE LIST*
G04 #@! TA.AperFunction,ComponentPad*
%ADD10R,1.600000X1.600000*%
G04 #@! TD*
G04 #@! TA.AperFunction,ComponentPad*
%ADD11C,1.600000*%
G04 #@! TD*
G04 #@! TA.AperFunction,ComponentPad*
%ADD12C,4.000000*%
G04 #@! TD*
G04 #@! TA.AperFunction,ComponentPad*
%ADD13C,1.524000*%
G04 #@! TD*
G04 #@! TA.AperFunction,ComponentPad*
%ADD14C,2.200000*%
G04 #@! TD*
G04 #@! TA.AperFunction,ViaPad*
%ADD15C,0.800000*%
G04 #@! TD*
G04 #@! TA.AperFunction,Conductor*
%ADD16C,0.250000*%
G04 #@! TD*
G04 #@! TA.AperFunction,Conductor*
%ADD17C,0.254000*%
G04 #@! TD*
G04 APERTURE END LIST*
D10*
G04 #@! TO.P,J2,1*
G04 #@! TO.N,Net-(J2-Pad1)*
X165481000Y-75882500D03*
D11*
G04 #@! TO.P,J2,2*
G04 #@! TO.N,Net-(J2-Pad2)*
X165481000Y-78652500D03*
G04 #@! TO.P,J2,3*
G04 #@! TO.N,Net-(J2-Pad3)*
X165481000Y-81422500D03*
G04 #@! TO.P,J2,4*
G04 #@! TO.N,Net-(J2-Pad4)*
X165481000Y-84192500D03*
G04 #@! TO.P,J2,5*
G04 #@! TO.N,GND*
X165481000Y-86962500D03*
G04 #@! TO.P,J2,6*
G04 #@! TO.N,Net-(J2-Pad6)*
X168321000Y-77267500D03*
G04 #@! TO.P,J2,7*
G04 #@! TO.N,Net-(J2-Pad7)*
X168321000Y-80037500D03*
G04 #@! TO.P,J2,8*
G04 #@! TO.N,Net-(J2-Pad8)*
X168321000Y-82807500D03*
G04 #@! TO.P,J2,9*
G04 #@! TO.N,Net-(J2-Pad9)*
X168321000Y-85577500D03*
D12*
G04 #@! TO.P,J2,0*
G04 #@! TO.N,N/C*
X166901000Y-93922500D03*
X166901000Y-68922500D03*
G04 #@! TD*
D10*
G04 #@! TO.P,J1,1*
G04 #@! TO.N,/1*
X126111000Y-75692000D03*
D11*
G04 #@! TO.P,J1,2*
G04 #@! TO.N,/2*
X126111000Y-78462000D03*
G04 #@! TO.P,J1,3*
G04 #@! TO.N,/3*
X126111000Y-81232000D03*
G04 #@! TO.P,J1,4*
G04 #@! TO.N,/4*
X126111000Y-84002000D03*
G04 #@! TO.P,J1,5*
G04 #@! TO.N,GND*
X126111000Y-86772000D03*
G04 #@! TO.P,J1,6*
G04 #@! TO.N,Net-(J1-Pad6)*
X123271000Y-77077000D03*
G04 #@! TO.P,J1,7*
G04 #@! TO.N,Net-(J1-Pad7)*
X123271000Y-79847000D03*
G04 #@! TO.P,J1,8*
G04 #@! TO.N,Net-(J1-Pad8)*
X123271000Y-82617000D03*
G04 #@! TO.P,J1,9*
G04 #@! TO.N,Net-(J1-Pad9)*
X123271000Y-85387000D03*
D12*
G04 #@! TO.P,J1,0*
G04 #@! TO.N,N/C*
X124691000Y-68732000D03*
X124691000Y-93732000D03*
G04 #@! TD*
D10*
G04 #@! TO.P,SW1,1*
G04 #@! TO.N,/2*
X139890500Y-78486000D03*
D11*
G04 #@! TO.P,SW1,2*
G04 #@! TO.N,/A_int*
X139890500Y-75986000D03*
G04 #@! TO.P,SW1,3*
G04 #@! TO.N,/1*
X139890500Y-73486000D03*
G04 #@! TO.P,SW1,4*
X143090500Y-78486000D03*
G04 #@! TO.P,SW1,5*
G04 #@! TO.N,/B_int*
X143090500Y-75986000D03*
G04 #@! TO.P,SW1,6*
G04 #@! TO.N,/2*
X143090500Y-73486000D03*
G04 #@! TD*
G04 #@! TO.P,SW2,6*
G04 #@! TO.N,/4*
X142963500Y-83773000D03*
G04 #@! TO.P,SW2,5*
G04 #@! TO.N,/D_int*
X142963500Y-86273000D03*
G04 #@! TO.P,SW2,4*
G04 #@! TO.N,/3*
X142963500Y-88773000D03*
G04 #@! TO.P,SW2,3*
X139763500Y-83773000D03*
G04 #@! TO.P,SW2,2*
G04 #@! TO.N,/C_int*
X139763500Y-86273000D03*
D10*
G04 #@! TO.P,SW2,1*
G04 #@! TO.N,/4*
X139763500Y-88773000D03*
G04 #@! TD*
D13*
G04 #@! TO.P,U1,1*
G04 #@! TO.N,/A_int*
X153670000Y-76128500D03*
G04 #@! TO.P,U1,2*
G04 #@! TO.N,Net-(J2-Pad1)*
X153670000Y-78128500D03*
G04 #@! TO.P,U1,3*
G04 #@! TO.N,/C_int*
X153670000Y-80128500D03*
G04 #@! TO.P,U1,4*
G04 #@! TO.N,/B_int*
X153670000Y-82128500D03*
G04 #@! TO.P,U1,5*
G04 #@! TO.N,Net-(J2-Pad2)*
X153670000Y-84128500D03*
G04 #@! TO.P,U1,6*
G04 #@! TO.N,/D_int*
X153670000Y-86128500D03*
G04 #@! TO.P,U1,7*
G04 #@! TO.N,/C_int*
X156170000Y-76128500D03*
G04 #@! TO.P,U1,8*
G04 #@! TO.N,Net-(J2-Pad3)*
X156170000Y-78128500D03*
G04 #@! TO.P,U1,9*
G04 #@! TO.N,/A_int*
X156170000Y-80128500D03*
G04 #@! TO.P,U1,10*
G04 #@! TO.N,/D_int*
X156170000Y-82128500D03*
G04 #@! TO.P,U1,11*
G04 #@! TO.N,Net-(J2-Pad4)*
X156170000Y-84128500D03*
G04 #@! TO.P,U1,12*
G04 #@! TO.N,/B_int*
X156170000Y-86128500D03*
G04 #@! TD*
D14*
G04 #@! TO.P,GND,1*
G04 #@! TO.N,GND*
X131318000Y-95758000D03*
G04 #@! TD*
G04 #@! TO.P,IN 1,1*
G04 #@! TO.N,/1*
X138938000Y-67056000D03*
G04 #@! TD*
G04 #@! TO.P,IN 2,1*
G04 #@! TO.N,/2*
X144018000Y-67056000D03*
G04 #@! TD*
G04 #@! TO.P,IN 3,1*
G04 #@! TO.N,/3*
X149098000Y-67056000D03*
G04 #@! TD*
G04 #@! TO.P,IN 4,1*
G04 #@! TO.N,/4*
X154178000Y-67056000D03*
G04 #@! TD*
G04 #@! TO.P,OUT 1,1*
G04 #@! TO.N,Net-(J2-Pad1)*
X138938000Y-94996000D03*
G04 #@! TD*
G04 #@! TO.P,OUT 2,1*
G04 #@! TO.N,Net-(J2-Pad2)*
X144018000Y-94996000D03*
G04 #@! TD*
G04 #@! TO.P,OUT 3,1*
G04 #@! TO.N,Net-(J2-Pad3)*
X149098000Y-94996000D03*
G04 #@! TD*
G04 #@! TO.P,OUT 4,1*
G04 #@! TO.N,Net-(J2-Pad4)*
X154178000Y-94996000D03*
G04 #@! TD*
D15*
G04 #@! TO.N,GND*
X161290000Y-67310000D03*
X152400000Y-71755000D03*
X132080000Y-71120000D03*
X119380000Y-71120000D03*
X119380000Y-78740000D03*
X119380000Y-86360000D03*
X119380000Y-91440000D03*
X172720000Y-71120000D03*
X172720000Y-86360000D03*
X172720000Y-78740000D03*
X172720000Y-91440000D03*
X147320000Y-76200000D03*
X147320000Y-83820000D03*
X134620000Y-91440000D03*
X149860000Y-91440000D03*
X159385000Y-94615000D03*
X139700000Y-81280000D03*
X130175000Y-76200000D03*
X130175000Y-80010000D03*
X130175000Y-86360000D03*
X159385000Y-76835000D03*
X159385000Y-81915000D03*
X159385000Y-90170000D03*
G04 #@! TO.N,Net-(J2-Pad1)*
X149860000Y-81026000D03*
G04 #@! TD*
D16*
G04 #@! TO.N,/2*
X142290501Y-74285999D02*
X143090500Y-73486000D01*
X142240000Y-74336500D02*
X142290501Y-74285999D01*
X142240000Y-75247500D02*
X142240000Y-74336500D01*
X139890500Y-77597000D02*
X142240000Y-75247500D01*
X139890500Y-78486000D02*
X139890500Y-77597000D01*
G04 #@! TO.N,/3*
X149098000Y-66548000D02*
X145288000Y-70358000D01*
X141353498Y-70358000D02*
X137160000Y-74551498D01*
X145288000Y-70358000D02*
X141353498Y-70358000D01*
X137160000Y-81169500D02*
X139763500Y-83773000D01*
X137160000Y-74551498D02*
X137160000Y-81169500D01*
G04 #@! TO.N,/4*
X140813500Y-88773000D02*
X139763500Y-88773000D01*
X141838499Y-87748001D02*
X140813500Y-88773000D01*
X141838499Y-84898001D02*
X141838499Y-87748001D01*
X142963500Y-83773000D02*
X141838499Y-84898001D01*
X138713500Y-88773000D02*
X139763500Y-88773000D01*
X136709990Y-86769490D02*
X138713500Y-88773000D01*
X136709990Y-72255008D02*
X136709990Y-86769490D01*
X143432998Y-65532000D02*
X136709990Y-72255008D01*
X152654000Y-65532000D02*
X143432998Y-65532000D01*
X154178000Y-67056000D02*
X152654000Y-65532000D01*
G04 #@! TO.N,GND*
X164681001Y-87762499D02*
X165481000Y-86962500D01*
X155585501Y-96857999D02*
X164681001Y-87762499D01*
X132417999Y-96857999D02*
X155585501Y-96857999D01*
X131318000Y-95758000D02*
X132417999Y-96857999D01*
G04 #@! TO.N,Net-(J2-Pad1)*
X149860000Y-84074000D02*
X149860000Y-81026000D01*
X138938000Y-94996000D02*
X149860000Y-84074000D01*
G04 #@! TO.N,Net-(J2-Pad2)*
X144018000Y-94996000D02*
X144018000Y-91567000D01*
X151456500Y-84128500D02*
X153670000Y-84128500D01*
X156277262Y-87630000D02*
X147955000Y-87630000D01*
X164454763Y-79452499D02*
X156277262Y-87630000D01*
X164681001Y-79452499D02*
X164454763Y-79452499D01*
X165481000Y-78652500D02*
X164681001Y-79452499D01*
X144018000Y-91567000D02*
X147955000Y-87630000D01*
X147955000Y-87630000D02*
X151456500Y-84128500D01*
G04 #@! TO.N,Net-(J2-Pad3)*
X151907500Y-94996000D02*
X165481000Y-81422500D01*
X149098000Y-94996000D02*
X151907500Y-94996000D01*
G04 #@! TO.N,Net-(J2-Pad4)*
X165417000Y-84128500D02*
X165481000Y-84192500D01*
G04 #@! TO.N,/A_int*
X139890500Y-75151002D02*
X139890500Y-75986000D01*
X141795500Y-73246002D02*
X139890500Y-75151002D01*
X141795500Y-73115998D02*
X141795500Y-73246002D01*
X142550499Y-72360999D02*
X141795500Y-73115998D01*
X153670000Y-76128500D02*
X149902499Y-72360999D01*
X149902499Y-72360999D02*
X142550499Y-72360999D01*
G04 #@! TO.N,/D_int*
X155408001Y-82890499D02*
X156170000Y-82128500D01*
X154757001Y-83541499D02*
X155408001Y-82890499D01*
X154757001Y-85041499D02*
X154757001Y-83541499D01*
X153670000Y-86128500D02*
X154757001Y-85041499D01*
G04 #@! TO.N,/C_int*
X141838499Y-83363003D02*
X141838499Y-82824501D01*
X139763500Y-86273000D02*
X139763500Y-85438002D01*
X139763500Y-85438002D02*
X141838499Y-83363003D01*
X144534500Y-80128500D02*
X152146000Y-80128500D01*
X141838499Y-82824501D02*
X144534500Y-80128500D01*
X152146000Y-80128500D02*
X153670000Y-80128500D01*
X156170000Y-76240000D02*
X156170000Y-76128500D01*
X155082999Y-77327001D02*
X156170000Y-76240000D01*
X155082999Y-78715501D02*
X155082999Y-77327001D01*
X153670000Y-80128500D02*
X155082999Y-78715501D01*
G04 #@! TD*
D17*
G04 #@! TO.N,GND*
G36*
X177344001Y-96572000D02*
X154906973Y-96572000D01*
X155160799Y-96466862D01*
X155648862Y-95978799D01*
X155913000Y-95341113D01*
X155913000Y-94650887D01*
X155648862Y-94013201D01*
X155160799Y-93525138D01*
X154854745Y-93398366D01*
X164266000Y-93398366D01*
X164266000Y-94446634D01*
X164667155Y-95415108D01*
X165408392Y-96156345D01*
X166376866Y-96557500D01*
X167425134Y-96557500D01*
X168393608Y-96156345D01*
X169134845Y-95415108D01*
X169536000Y-94446634D01*
X169536000Y-93398366D01*
X169134845Y-92429892D01*
X168393608Y-91688655D01*
X167425134Y-91287500D01*
X166376866Y-91287500D01*
X165408392Y-91688655D01*
X164667155Y-92429892D01*
X164266000Y-93398366D01*
X154854745Y-93398366D01*
X154660425Y-93317876D01*
X160008056Y-87970245D01*
X164652861Y-87970245D01*
X164726995Y-88216364D01*
X165264223Y-88409465D01*
X165834454Y-88382278D01*
X166235005Y-88216364D01*
X166309139Y-87970245D01*
X165481000Y-87142105D01*
X164652861Y-87970245D01*
X160008056Y-87970245D01*
X161232578Y-86745723D01*
X164034035Y-86745723D01*
X164061222Y-87315954D01*
X164227136Y-87716505D01*
X164473255Y-87790639D01*
X165301395Y-86962500D01*
X165660605Y-86962500D01*
X166488745Y-87790639D01*
X166734864Y-87716505D01*
X166927965Y-87179277D01*
X166900778Y-86609046D01*
X166734864Y-86208495D01*
X166488745Y-86134361D01*
X165660605Y-86962500D01*
X165301395Y-86962500D01*
X164473255Y-86134361D01*
X164227136Y-86208495D01*
X164034035Y-86745723D01*
X161232578Y-86745723D01*
X164046000Y-83932302D01*
X164046000Y-84477939D01*
X164264466Y-85005362D01*
X164668138Y-85409034D01*
X165059218Y-85571025D01*
X164726995Y-85708636D01*
X164652861Y-85954755D01*
X165481000Y-86782895D01*
X166309139Y-85954755D01*
X166235005Y-85708636D01*
X165879261Y-85580768D01*
X166293862Y-85409034D01*
X166697534Y-85005362D01*
X166916000Y-84477939D01*
X166916000Y-83907061D01*
X166697534Y-83379638D01*
X166293862Y-82975966D01*
X165887150Y-82807500D01*
X166293862Y-82639034D01*
X166697534Y-82235362D01*
X166916000Y-81707939D01*
X166916000Y-81137061D01*
X166697534Y-80609638D01*
X166293862Y-80205966D01*
X165887150Y-80037500D01*
X166293862Y-79869034D01*
X166697534Y-79465362D01*
X166916000Y-78937939D01*
X166916000Y-78367061D01*
X166697534Y-77839638D01*
X166293862Y-77435966D01*
X166037893Y-77329940D01*
X166281000Y-77329940D01*
X166528765Y-77280657D01*
X166738809Y-77140309D01*
X166844547Y-76982061D01*
X166886000Y-76982061D01*
X166886000Y-77552939D01*
X167104466Y-78080362D01*
X167508138Y-78484034D01*
X167914850Y-78652500D01*
X167508138Y-78820966D01*
X167104466Y-79224638D01*
X166886000Y-79752061D01*
X166886000Y-80322939D01*
X167104466Y-80850362D01*
X167508138Y-81254034D01*
X167914850Y-81422500D01*
X167508138Y-81590966D01*
X167104466Y-81994638D01*
X166886000Y-82522061D01*
X166886000Y-83092939D01*
X167104466Y-83620362D01*
X167508138Y-84024034D01*
X167914850Y-84192500D01*
X167508138Y-84360966D01*
X167104466Y-84764638D01*
X166886000Y-85292061D01*
X166886000Y-85862939D01*
X167104466Y-86390362D01*
X167508138Y-86794034D01*
X168035561Y-87012500D01*
X168606439Y-87012500D01*
X169133862Y-86794034D01*
X169537534Y-86390362D01*
X169756000Y-85862939D01*
X169756000Y-85292061D01*
X169537534Y-84764638D01*
X169133862Y-84360966D01*
X168727150Y-84192500D01*
X169133862Y-84024034D01*
X169537534Y-83620362D01*
X169756000Y-83092939D01*
X169756000Y-82522061D01*
X169537534Y-81994638D01*
X169133862Y-81590966D01*
X168727150Y-81422500D01*
X169133862Y-81254034D01*
X169537534Y-80850362D01*
X169756000Y-80322939D01*
X169756000Y-79752061D01*
X169537534Y-79224638D01*
X169133862Y-78820966D01*
X168727150Y-78652500D01*
X169133862Y-78484034D01*
X169537534Y-78080362D01*
X169756000Y-77552939D01*
X169756000Y-76982061D01*
X169537534Y-76454638D01*
X169133862Y-76050966D01*
X168606439Y-75832500D01*
X168035561Y-75832500D01*
X167508138Y-76050966D01*
X167104466Y-76454638D01*
X166886000Y-76982061D01*
X166844547Y-76982061D01*
X166879157Y-76930265D01*
X166928440Y-76682500D01*
X166928440Y-75082500D01*
X166879157Y-74834735D01*
X166738809Y-74624691D01*
X166528765Y-74484343D01*
X166281000Y-74435060D01*
X164681000Y-74435060D01*
X164433235Y-74484343D01*
X164223191Y-74624691D01*
X164082843Y-74834735D01*
X164033560Y-75082500D01*
X164033560Y-76682500D01*
X164082843Y-76930265D01*
X164223191Y-77140309D01*
X164433235Y-77280657D01*
X164681000Y-77329940D01*
X164924107Y-77329940D01*
X164668138Y-77435966D01*
X164264466Y-77839638D01*
X164046000Y-78367061D01*
X164046000Y-78811582D01*
X164031956Y-78820966D01*
X163906834Y-78904570D01*
X163864434Y-78968026D01*
X157395611Y-85436849D01*
X157354320Y-85337163D01*
X157145657Y-85128500D01*
X157354320Y-84919837D01*
X157567000Y-84406381D01*
X157567000Y-83850619D01*
X157354320Y-83337163D01*
X157145657Y-83128500D01*
X157354320Y-82919837D01*
X157567000Y-82406381D01*
X157567000Y-81850619D01*
X157354320Y-81337163D01*
X157145657Y-81128500D01*
X157354320Y-80919837D01*
X157567000Y-80406381D01*
X157567000Y-79850619D01*
X157354320Y-79337163D01*
X157145657Y-79128500D01*
X157354320Y-78919837D01*
X157567000Y-78406381D01*
X157567000Y-77850619D01*
X157354320Y-77337163D01*
X157145657Y-77128500D01*
X157354320Y-76919837D01*
X157567000Y-76406381D01*
X157567000Y-75850619D01*
X157354320Y-75337163D01*
X156961337Y-74944180D01*
X156447881Y-74731500D01*
X155892119Y-74731500D01*
X155378663Y-74944180D01*
X154985680Y-75337163D01*
X154920000Y-75495729D01*
X154854320Y-75337163D01*
X154461337Y-74944180D01*
X153947881Y-74731500D01*
X153392119Y-74731500D01*
X153360782Y-74744480D01*
X150492830Y-71876529D01*
X150450428Y-71813070D01*
X150199036Y-71645095D01*
X149977351Y-71600999D01*
X149977346Y-71600999D01*
X149902499Y-71586111D01*
X149827652Y-71600999D01*
X142625347Y-71600999D01*
X142550499Y-71586111D01*
X142475651Y-71600999D01*
X142475647Y-71600999D01*
X142302104Y-71635519D01*
X142253961Y-71645095D01*
X142066917Y-71770075D01*
X142002570Y-71813070D01*
X141960170Y-71876526D01*
X141311030Y-72525667D01*
X141247571Y-72568069D01*
X141133949Y-72738117D01*
X141107034Y-72673138D01*
X140703362Y-72269466D01*
X140571467Y-72214833D01*
X141668300Y-71118000D01*
X145213153Y-71118000D01*
X145288000Y-71132888D01*
X145362847Y-71118000D01*
X145362852Y-71118000D01*
X145584537Y-71073904D01*
X145835929Y-70905929D01*
X145878331Y-70842470D01*
X148170878Y-68549924D01*
X148752887Y-68791000D01*
X149443113Y-68791000D01*
X150080799Y-68526862D01*
X150568862Y-68038799D01*
X150833000Y-67401113D01*
X150833000Y-66710887D01*
X150659491Y-66292000D01*
X152339199Y-66292000D01*
X152535286Y-66488088D01*
X152443000Y-66710887D01*
X152443000Y-67401113D01*
X152707138Y-68038799D01*
X153195201Y-68526862D01*
X153832887Y-68791000D01*
X154523113Y-68791000D01*
X155160799Y-68526862D01*
X155289295Y-68398366D01*
X164266000Y-68398366D01*
X164266000Y-69446634D01*
X164667155Y-70415108D01*
X165408392Y-71156345D01*
X166376866Y-71557500D01*
X167425134Y-71557500D01*
X168393608Y-71156345D01*
X169134845Y-70415108D01*
X169536000Y-69446634D01*
X169536000Y-68398366D01*
X169134845Y-67429892D01*
X168393608Y-66688655D01*
X167425134Y-66287500D01*
X166376866Y-66287500D01*
X165408392Y-66688655D01*
X164667155Y-67429892D01*
X164266000Y-68398366D01*
X155289295Y-68398366D01*
X155648862Y-68038799D01*
X155913000Y-67401113D01*
X155913000Y-66710887D01*
X155648862Y-66073201D01*
X155160799Y-65585138D01*
X154906973Y-65480000D01*
X177344000Y-65480000D01*
X177344001Y-96572000D01*
X177344001Y-96572000D01*
G37*
X177344001Y-96572000D02*
X154906973Y-96572000D01*
X155160799Y-96466862D01*
X155648862Y-95978799D01*
X155913000Y-95341113D01*
X155913000Y-94650887D01*
X155648862Y-94013201D01*
X155160799Y-93525138D01*
X154854745Y-93398366D01*
X164266000Y-93398366D01*
X164266000Y-94446634D01*
X164667155Y-95415108D01*
X165408392Y-96156345D01*
X166376866Y-96557500D01*
X167425134Y-96557500D01*
X168393608Y-96156345D01*
X169134845Y-95415108D01*
X169536000Y-94446634D01*
X169536000Y-93398366D01*
X169134845Y-92429892D01*
X168393608Y-91688655D01*
X167425134Y-91287500D01*
X166376866Y-91287500D01*
X165408392Y-91688655D01*
X164667155Y-92429892D01*
X164266000Y-93398366D01*
X154854745Y-93398366D01*
X154660425Y-93317876D01*
X160008056Y-87970245D01*
X164652861Y-87970245D01*
X164726995Y-88216364D01*
X165264223Y-88409465D01*
X165834454Y-88382278D01*
X166235005Y-88216364D01*
X166309139Y-87970245D01*
X165481000Y-87142105D01*
X164652861Y-87970245D01*
X160008056Y-87970245D01*
X161232578Y-86745723D01*
X164034035Y-86745723D01*
X164061222Y-87315954D01*
X164227136Y-87716505D01*
X164473255Y-87790639D01*
X165301395Y-86962500D01*
X165660605Y-86962500D01*
X166488745Y-87790639D01*
X166734864Y-87716505D01*
X166927965Y-87179277D01*
X166900778Y-86609046D01*
X166734864Y-86208495D01*
X166488745Y-86134361D01*
X165660605Y-86962500D01*
X165301395Y-86962500D01*
X164473255Y-86134361D01*
X164227136Y-86208495D01*
X164034035Y-86745723D01*
X161232578Y-86745723D01*
X164046000Y-83932302D01*
X164046000Y-84477939D01*
X164264466Y-85005362D01*
X164668138Y-85409034D01*
X165059218Y-85571025D01*
X164726995Y-85708636D01*
X164652861Y-85954755D01*
X165481000Y-86782895D01*
X166309139Y-85954755D01*
X166235005Y-85708636D01*
X165879261Y-85580768D01*
X166293862Y-85409034D01*
X166697534Y-85005362D01*
X166916000Y-84477939D01*
X166916000Y-83907061D01*
X166697534Y-83379638D01*
X166293862Y-82975966D01*
X165887150Y-82807500D01*
X166293862Y-82639034D01*
X166697534Y-82235362D01*
X166916000Y-81707939D01*
X166916000Y-81137061D01*
X166697534Y-80609638D01*
X166293862Y-80205966D01*
X165887150Y-80037500D01*
X166293862Y-79869034D01*
X166697534Y-79465362D01*
X166916000Y-78937939D01*
X166916000Y-78367061D01*
X166697534Y-77839638D01*
X166293862Y-77435966D01*
X166037893Y-77329940D01*
X166281000Y-77329940D01*
X166528765Y-77280657D01*
X166738809Y-77140309D01*
X166844547Y-76982061D01*
X166886000Y-76982061D01*
X166886000Y-77552939D01*
X167104466Y-78080362D01*
X167508138Y-78484034D01*
X167914850Y-78652500D01*
X167508138Y-78820966D01*
X167104466Y-79224638D01*
X166886000Y-79752061D01*
X166886000Y-80322939D01*
X167104466Y-80850362D01*
X167508138Y-81254034D01*
X167914850Y-81422500D01*
X167508138Y-81590966D01*
X167104466Y-81994638D01*
X166886000Y-82522061D01*
X166886000Y-83092939D01*
X167104466Y-83620362D01*
X167508138Y-84024034D01*
X167914850Y-84192500D01*
X167508138Y-84360966D01*
X167104466Y-84764638D01*
X166886000Y-85292061D01*
X166886000Y-85862939D01*
X167104466Y-86390362D01*
X167508138Y-86794034D01*
X168035561Y-87012500D01*
X168606439Y-87012500D01*
X169133862Y-86794034D01*
X169537534Y-86390362D01*
X169756000Y-85862939D01*
X169756000Y-85292061D01*
X169537534Y-84764638D01*
X169133862Y-84360966D01*
X168727150Y-84192500D01*
X169133862Y-84024034D01*
X169537534Y-83620362D01*
X169756000Y-83092939D01*
X169756000Y-82522061D01*
X169537534Y-81994638D01*
X169133862Y-81590966D01*
X168727150Y-81422500D01*
X169133862Y-81254034D01*
X169537534Y-80850362D01*
X169756000Y-80322939D01*
X169756000Y-79752061D01*
X169537534Y-79224638D01*
X169133862Y-78820966D01*
X168727150Y-78652500D01*
X169133862Y-78484034D01*
X169537534Y-78080362D01*
X169756000Y-77552939D01*
X169756000Y-76982061D01*
X169537534Y-76454638D01*
X169133862Y-76050966D01*
X168606439Y-75832500D01*
X168035561Y-75832500D01*
X167508138Y-76050966D01*
X167104466Y-76454638D01*
X166886000Y-76982061D01*
X166844547Y-76982061D01*
X166879157Y-76930265D01*
X166928440Y-76682500D01*
X166928440Y-75082500D01*
X166879157Y-74834735D01*
X166738809Y-74624691D01*
X166528765Y-74484343D01*
X166281000Y-74435060D01*
X164681000Y-74435060D01*
X164433235Y-74484343D01*
X164223191Y-74624691D01*
X164082843Y-74834735D01*
X164033560Y-75082500D01*
X164033560Y-76682500D01*
X164082843Y-76930265D01*
X164223191Y-77140309D01*
X164433235Y-77280657D01*
X164681000Y-77329940D01*
X164924107Y-77329940D01*
X164668138Y-77435966D01*
X164264466Y-77839638D01*
X164046000Y-78367061D01*
X164046000Y-78811582D01*
X164031956Y-78820966D01*
X163906834Y-78904570D01*
X163864434Y-78968026D01*
X157395611Y-85436849D01*
X157354320Y-85337163D01*
X157145657Y-85128500D01*
X157354320Y-84919837D01*
X157567000Y-84406381D01*
X157567000Y-83850619D01*
X157354320Y-83337163D01*
X157145657Y-83128500D01*
X157354320Y-82919837D01*
X157567000Y-82406381D01*
X157567000Y-81850619D01*
X157354320Y-81337163D01*
X157145657Y-81128500D01*
X157354320Y-80919837D01*
X157567000Y-80406381D01*
X157567000Y-79850619D01*
X157354320Y-79337163D01*
X157145657Y-79128500D01*
X157354320Y-78919837D01*
X157567000Y-78406381D01*
X157567000Y-77850619D01*
X157354320Y-77337163D01*
X157145657Y-77128500D01*
X157354320Y-76919837D01*
X157567000Y-76406381D01*
X157567000Y-75850619D01*
X157354320Y-75337163D01*
X156961337Y-74944180D01*
X156447881Y-74731500D01*
X155892119Y-74731500D01*
X155378663Y-74944180D01*
X154985680Y-75337163D01*
X154920000Y-75495729D01*
X154854320Y-75337163D01*
X154461337Y-74944180D01*
X153947881Y-74731500D01*
X153392119Y-74731500D01*
X153360782Y-74744480D01*
X150492830Y-71876529D01*
X150450428Y-71813070D01*
X150199036Y-71645095D01*
X149977351Y-71600999D01*
X149977346Y-71600999D01*
X149902499Y-71586111D01*
X149827652Y-71600999D01*
X142625347Y-71600999D01*
X142550499Y-71586111D01*
X142475651Y-71600999D01*
X142475647Y-71600999D01*
X142302104Y-71635519D01*
X142253961Y-71645095D01*
X142066917Y-71770075D01*
X142002570Y-71813070D01*
X141960170Y-71876526D01*
X141311030Y-72525667D01*
X141247571Y-72568069D01*
X141133949Y-72738117D01*
X141107034Y-72673138D01*
X140703362Y-72269466D01*
X140571467Y-72214833D01*
X141668300Y-71118000D01*
X145213153Y-71118000D01*
X145288000Y-71132888D01*
X145362847Y-71118000D01*
X145362852Y-71118000D01*
X145584537Y-71073904D01*
X145835929Y-70905929D01*
X145878331Y-70842470D01*
X148170878Y-68549924D01*
X148752887Y-68791000D01*
X149443113Y-68791000D01*
X150080799Y-68526862D01*
X150568862Y-68038799D01*
X150833000Y-67401113D01*
X150833000Y-66710887D01*
X150659491Y-66292000D01*
X152339199Y-66292000D01*
X152535286Y-66488088D01*
X152443000Y-66710887D01*
X152443000Y-67401113D01*
X152707138Y-68038799D01*
X153195201Y-68526862D01*
X153832887Y-68791000D01*
X154523113Y-68791000D01*
X155160799Y-68526862D01*
X155289295Y-68398366D01*
X164266000Y-68398366D01*
X164266000Y-69446634D01*
X164667155Y-70415108D01*
X165408392Y-71156345D01*
X166376866Y-71557500D01*
X167425134Y-71557500D01*
X168393608Y-71156345D01*
X169134845Y-70415108D01*
X169536000Y-69446634D01*
X169536000Y-68398366D01*
X169134845Y-67429892D01*
X168393608Y-66688655D01*
X167425134Y-66287500D01*
X166376866Y-66287500D01*
X165408392Y-66688655D01*
X164667155Y-67429892D01*
X164266000Y-68398366D01*
X155289295Y-68398366D01*
X155648862Y-68038799D01*
X155913000Y-67401113D01*
X155913000Y-66710887D01*
X155648862Y-66073201D01*
X155160799Y-65585138D01*
X154906973Y-65480000D01*
X177344000Y-65480000D01*
X177344001Y-96572000D01*
G36*
X137955201Y-65585138D02*
X137467138Y-66073201D01*
X137203000Y-66710887D01*
X137203000Y-67401113D01*
X137467138Y-68038799D01*
X137955201Y-68526862D01*
X138592887Y-68791000D01*
X139099197Y-68791000D01*
X136225520Y-71664677D01*
X136162061Y-71707079D01*
X135994086Y-71958472D01*
X135949990Y-72180157D01*
X135949990Y-72180161D01*
X135935102Y-72255008D01*
X135949990Y-72329855D01*
X135949991Y-86694638D01*
X135935102Y-86769490D01*
X135949991Y-86844342D01*
X135994087Y-87066027D01*
X136162062Y-87317419D01*
X136225518Y-87359819D01*
X138123171Y-89257473D01*
X138165571Y-89320929D01*
X138316060Y-89421483D01*
X138316060Y-89573000D01*
X138365343Y-89820765D01*
X138505691Y-90030809D01*
X138715735Y-90171157D01*
X138963500Y-90220440D01*
X140563500Y-90220440D01*
X140811265Y-90171157D01*
X141021309Y-90030809D01*
X141161657Y-89820765D01*
X141210940Y-89573000D01*
X141210940Y-89421483D01*
X141361429Y-89320929D01*
X141403831Y-89257471D01*
X141550280Y-89111021D01*
X141746966Y-89585862D01*
X142150638Y-89989534D01*
X142659066Y-90200132D01*
X139505912Y-93353286D01*
X139283113Y-93261000D01*
X138592887Y-93261000D01*
X137955201Y-93525138D01*
X137467138Y-94013201D01*
X137203000Y-94650887D01*
X137203000Y-95341113D01*
X137467138Y-95978799D01*
X137955201Y-96466862D01*
X138209027Y-96572000D01*
X132865418Y-96572000D01*
X133063323Y-96046407D01*
X133040836Y-95356547D01*
X132820099Y-94823641D01*
X132542868Y-94712737D01*
X131497605Y-95758000D01*
X131511748Y-95772143D01*
X131332143Y-95951748D01*
X131318000Y-95937605D01*
X131303858Y-95951748D01*
X131124253Y-95772143D01*
X131138395Y-95758000D01*
X130093132Y-94712737D01*
X129815901Y-94823641D01*
X129572677Y-95469593D01*
X129595164Y-96159453D01*
X129766047Y-96572000D01*
X114248000Y-96572000D01*
X114248000Y-93207866D01*
X122056000Y-93207866D01*
X122056000Y-94256134D01*
X122457155Y-95224608D01*
X123198392Y-95965845D01*
X124166866Y-96367000D01*
X125215134Y-96367000D01*
X126183608Y-95965845D01*
X126924845Y-95224608D01*
X127211263Y-94533132D01*
X130272737Y-94533132D01*
X131318000Y-95578395D01*
X132363263Y-94533132D01*
X132252359Y-94255901D01*
X131606407Y-94012677D01*
X130916547Y-94035164D01*
X130383641Y-94255901D01*
X130272737Y-94533132D01*
X127211263Y-94533132D01*
X127326000Y-94256134D01*
X127326000Y-93207866D01*
X126924845Y-92239392D01*
X126183608Y-91498155D01*
X125215134Y-91097000D01*
X124166866Y-91097000D01*
X123198392Y-91498155D01*
X122457155Y-92239392D01*
X122056000Y-93207866D01*
X114248000Y-93207866D01*
X114248000Y-87779745D01*
X125282861Y-87779745D01*
X125356995Y-88025864D01*
X125894223Y-88218965D01*
X126464454Y-88191778D01*
X126865005Y-88025864D01*
X126939139Y-87779745D01*
X126111000Y-86951605D01*
X125282861Y-87779745D01*
X114248000Y-87779745D01*
X114248000Y-76791561D01*
X121836000Y-76791561D01*
X121836000Y-77362439D01*
X122054466Y-77889862D01*
X122458138Y-78293534D01*
X122864850Y-78462000D01*
X122458138Y-78630466D01*
X122054466Y-79034138D01*
X121836000Y-79561561D01*
X121836000Y-80132439D01*
X122054466Y-80659862D01*
X122458138Y-81063534D01*
X122864850Y-81232000D01*
X122458138Y-81400466D01*
X122054466Y-81804138D01*
X121836000Y-82331561D01*
X121836000Y-82902439D01*
X122054466Y-83429862D01*
X122458138Y-83833534D01*
X122864850Y-84002000D01*
X122458138Y-84170466D01*
X122054466Y-84574138D01*
X121836000Y-85101561D01*
X121836000Y-85672439D01*
X122054466Y-86199862D01*
X122458138Y-86603534D01*
X122985561Y-86822000D01*
X123556439Y-86822000D01*
X124083862Y-86603534D01*
X124132173Y-86555223D01*
X124664035Y-86555223D01*
X124691222Y-87125454D01*
X124857136Y-87526005D01*
X125103255Y-87600139D01*
X125931395Y-86772000D01*
X126290605Y-86772000D01*
X127118745Y-87600139D01*
X127364864Y-87526005D01*
X127557965Y-86988777D01*
X127530778Y-86418546D01*
X127364864Y-86017995D01*
X127118745Y-85943861D01*
X126290605Y-86772000D01*
X125931395Y-86772000D01*
X125103255Y-85943861D01*
X124857136Y-86017995D01*
X124664035Y-86555223D01*
X124132173Y-86555223D01*
X124487534Y-86199862D01*
X124706000Y-85672439D01*
X124706000Y-85101561D01*
X124487534Y-84574138D01*
X124083862Y-84170466D01*
X123677150Y-84002000D01*
X124083862Y-83833534D01*
X124487534Y-83429862D01*
X124706000Y-82902439D01*
X124706000Y-82331561D01*
X124487534Y-81804138D01*
X124083862Y-81400466D01*
X123677150Y-81232000D01*
X124083862Y-81063534D01*
X124487534Y-80659862D01*
X124706000Y-80132439D01*
X124706000Y-79561561D01*
X124487534Y-79034138D01*
X124083862Y-78630466D01*
X123677150Y-78462000D01*
X124083862Y-78293534D01*
X124487534Y-77889862D01*
X124706000Y-77362439D01*
X124706000Y-76791561D01*
X124487534Y-76264138D01*
X124083862Y-75860466D01*
X123556439Y-75642000D01*
X122985561Y-75642000D01*
X122458138Y-75860466D01*
X122054466Y-76264138D01*
X121836000Y-76791561D01*
X114248000Y-76791561D01*
X114248000Y-74892000D01*
X124663560Y-74892000D01*
X124663560Y-76492000D01*
X124712843Y-76739765D01*
X124853191Y-76949809D01*
X125063235Y-77090157D01*
X125311000Y-77139440D01*
X125554107Y-77139440D01*
X125298138Y-77245466D01*
X124894466Y-77649138D01*
X124676000Y-78176561D01*
X124676000Y-78747439D01*
X124894466Y-79274862D01*
X125298138Y-79678534D01*
X125704850Y-79847000D01*
X125298138Y-80015466D01*
X124894466Y-80419138D01*
X124676000Y-80946561D01*
X124676000Y-81517439D01*
X124894466Y-82044862D01*
X125298138Y-82448534D01*
X125704850Y-82617000D01*
X125298138Y-82785466D01*
X124894466Y-83189138D01*
X124676000Y-83716561D01*
X124676000Y-84287439D01*
X124894466Y-84814862D01*
X125298138Y-85218534D01*
X125689218Y-85380525D01*
X125356995Y-85518136D01*
X125282861Y-85764255D01*
X126111000Y-86592395D01*
X126939139Y-85764255D01*
X126865005Y-85518136D01*
X126509261Y-85390268D01*
X126923862Y-85218534D01*
X127327534Y-84814862D01*
X127546000Y-84287439D01*
X127546000Y-83716561D01*
X127327534Y-83189138D01*
X126923862Y-82785466D01*
X126517150Y-82617000D01*
X126923862Y-82448534D01*
X127327534Y-82044862D01*
X127546000Y-81517439D01*
X127546000Y-80946561D01*
X127327534Y-80419138D01*
X126923862Y-80015466D01*
X126517150Y-79847000D01*
X126923862Y-79678534D01*
X127327534Y-79274862D01*
X127546000Y-78747439D01*
X127546000Y-78176561D01*
X127327534Y-77649138D01*
X126923862Y-77245466D01*
X126667893Y-77139440D01*
X126911000Y-77139440D01*
X127158765Y-77090157D01*
X127368809Y-76949809D01*
X127509157Y-76739765D01*
X127558440Y-76492000D01*
X127558440Y-74892000D01*
X127509157Y-74644235D01*
X127368809Y-74434191D01*
X127158765Y-74293843D01*
X126911000Y-74244560D01*
X125311000Y-74244560D01*
X125063235Y-74293843D01*
X124853191Y-74434191D01*
X124712843Y-74644235D01*
X124663560Y-74892000D01*
X114248000Y-74892000D01*
X114248000Y-68207866D01*
X122056000Y-68207866D01*
X122056000Y-69256134D01*
X122457155Y-70224608D01*
X123198392Y-70965845D01*
X124166866Y-71367000D01*
X125215134Y-71367000D01*
X126183608Y-70965845D01*
X126924845Y-70224608D01*
X127326000Y-69256134D01*
X127326000Y-68207866D01*
X126924845Y-67239392D01*
X126183608Y-66498155D01*
X125215134Y-66097000D01*
X124166866Y-66097000D01*
X123198392Y-66498155D01*
X122457155Y-67239392D01*
X122056000Y-68207866D01*
X114248000Y-68207866D01*
X114248000Y-65480000D01*
X138209027Y-65480000D01*
X137955201Y-65585138D01*
X137955201Y-65585138D01*
G37*
X137955201Y-65585138D02*
X137467138Y-66073201D01*
X137203000Y-66710887D01*
X137203000Y-67401113D01*
X137467138Y-68038799D01*
X137955201Y-68526862D01*
X138592887Y-68791000D01*
X139099197Y-68791000D01*
X136225520Y-71664677D01*
X136162061Y-71707079D01*
X135994086Y-71958472D01*
X135949990Y-72180157D01*
X135949990Y-72180161D01*
X135935102Y-72255008D01*
X135949990Y-72329855D01*
X135949991Y-86694638D01*
X135935102Y-86769490D01*
X135949991Y-86844342D01*
X135994087Y-87066027D01*
X136162062Y-87317419D01*
X136225518Y-87359819D01*
X138123171Y-89257473D01*
X138165571Y-89320929D01*
X138316060Y-89421483D01*
X138316060Y-89573000D01*
X138365343Y-89820765D01*
X138505691Y-90030809D01*
X138715735Y-90171157D01*
X138963500Y-90220440D01*
X140563500Y-90220440D01*
X140811265Y-90171157D01*
X141021309Y-90030809D01*
X141161657Y-89820765D01*
X141210940Y-89573000D01*
X141210940Y-89421483D01*
X141361429Y-89320929D01*
X141403831Y-89257471D01*
X141550280Y-89111021D01*
X141746966Y-89585862D01*
X142150638Y-89989534D01*
X142659066Y-90200132D01*
X139505912Y-93353286D01*
X139283113Y-93261000D01*
X138592887Y-93261000D01*
X137955201Y-93525138D01*
X137467138Y-94013201D01*
X137203000Y-94650887D01*
X137203000Y-95341113D01*
X137467138Y-95978799D01*
X137955201Y-96466862D01*
X138209027Y-96572000D01*
X132865418Y-96572000D01*
X133063323Y-96046407D01*
X133040836Y-95356547D01*
X132820099Y-94823641D01*
X132542868Y-94712737D01*
X131497605Y-95758000D01*
X131511748Y-95772143D01*
X131332143Y-95951748D01*
X131318000Y-95937605D01*
X131303858Y-95951748D01*
X131124253Y-95772143D01*
X131138395Y-95758000D01*
X130093132Y-94712737D01*
X129815901Y-94823641D01*
X129572677Y-95469593D01*
X129595164Y-96159453D01*
X129766047Y-96572000D01*
X114248000Y-96572000D01*
X114248000Y-93207866D01*
X122056000Y-93207866D01*
X122056000Y-94256134D01*
X122457155Y-95224608D01*
X123198392Y-95965845D01*
X124166866Y-96367000D01*
X125215134Y-96367000D01*
X126183608Y-95965845D01*
X126924845Y-95224608D01*
X127211263Y-94533132D01*
X130272737Y-94533132D01*
X131318000Y-95578395D01*
X132363263Y-94533132D01*
X132252359Y-94255901D01*
X131606407Y-94012677D01*
X130916547Y-94035164D01*
X130383641Y-94255901D01*
X130272737Y-94533132D01*
X127211263Y-94533132D01*
X127326000Y-94256134D01*
X127326000Y-93207866D01*
X126924845Y-92239392D01*
X126183608Y-91498155D01*
X125215134Y-91097000D01*
X124166866Y-91097000D01*
X123198392Y-91498155D01*
X122457155Y-92239392D01*
X122056000Y-93207866D01*
X114248000Y-93207866D01*
X114248000Y-87779745D01*
X125282861Y-87779745D01*
X125356995Y-88025864D01*
X125894223Y-88218965D01*
X126464454Y-88191778D01*
X126865005Y-88025864D01*
X126939139Y-87779745D01*
X126111000Y-86951605D01*
X125282861Y-87779745D01*
X114248000Y-87779745D01*
X114248000Y-76791561D01*
X121836000Y-76791561D01*
X121836000Y-77362439D01*
X122054466Y-77889862D01*
X122458138Y-78293534D01*
X122864850Y-78462000D01*
X122458138Y-78630466D01*
X122054466Y-79034138D01*
X121836000Y-79561561D01*
X121836000Y-80132439D01*
X122054466Y-80659862D01*
X122458138Y-81063534D01*
X122864850Y-81232000D01*
X122458138Y-81400466D01*
X122054466Y-81804138D01*
X121836000Y-82331561D01*
X121836000Y-82902439D01*
X122054466Y-83429862D01*
X122458138Y-83833534D01*
X122864850Y-84002000D01*
X122458138Y-84170466D01*
X122054466Y-84574138D01*
X121836000Y-85101561D01*
X121836000Y-85672439D01*
X122054466Y-86199862D01*
X122458138Y-86603534D01*
X122985561Y-86822000D01*
X123556439Y-86822000D01*
X124083862Y-86603534D01*
X124132173Y-86555223D01*
X124664035Y-86555223D01*
X124691222Y-87125454D01*
X124857136Y-87526005D01*
X125103255Y-87600139D01*
X125931395Y-86772000D01*
X126290605Y-86772000D01*
X127118745Y-87600139D01*
X127364864Y-87526005D01*
X127557965Y-86988777D01*
X127530778Y-86418546D01*
X127364864Y-86017995D01*
X127118745Y-85943861D01*
X126290605Y-86772000D01*
X125931395Y-86772000D01*
X125103255Y-85943861D01*
X124857136Y-86017995D01*
X124664035Y-86555223D01*
X124132173Y-86555223D01*
X124487534Y-86199862D01*
X124706000Y-85672439D01*
X124706000Y-85101561D01*
X124487534Y-84574138D01*
X124083862Y-84170466D01*
X123677150Y-84002000D01*
X124083862Y-83833534D01*
X124487534Y-83429862D01*
X124706000Y-82902439D01*
X124706000Y-82331561D01*
X124487534Y-81804138D01*
X124083862Y-81400466D01*
X123677150Y-81232000D01*
X124083862Y-81063534D01*
X124487534Y-80659862D01*
X124706000Y-80132439D01*
X124706000Y-79561561D01*
X124487534Y-79034138D01*
X124083862Y-78630466D01*
X123677150Y-78462000D01*
X124083862Y-78293534D01*
X124487534Y-77889862D01*
X124706000Y-77362439D01*
X124706000Y-76791561D01*
X124487534Y-76264138D01*
X124083862Y-75860466D01*
X123556439Y-75642000D01*
X122985561Y-75642000D01*
X122458138Y-75860466D01*
X122054466Y-76264138D01*
X121836000Y-76791561D01*
X114248000Y-76791561D01*
X114248000Y-74892000D01*
X124663560Y-74892000D01*
X124663560Y-76492000D01*
X124712843Y-76739765D01*
X124853191Y-76949809D01*
X125063235Y-77090157D01*
X125311000Y-77139440D01*
X125554107Y-77139440D01*
X125298138Y-77245466D01*
X124894466Y-77649138D01*
X124676000Y-78176561D01*
X124676000Y-78747439D01*
X124894466Y-79274862D01*
X125298138Y-79678534D01*
X125704850Y-79847000D01*
X125298138Y-80015466D01*
X124894466Y-80419138D01*
X124676000Y-80946561D01*
X124676000Y-81517439D01*
X124894466Y-82044862D01*
X125298138Y-82448534D01*
X125704850Y-82617000D01*
X125298138Y-82785466D01*
X124894466Y-83189138D01*
X124676000Y-83716561D01*
X124676000Y-84287439D01*
X124894466Y-84814862D01*
X125298138Y-85218534D01*
X125689218Y-85380525D01*
X125356995Y-85518136D01*
X125282861Y-85764255D01*
X126111000Y-86592395D01*
X126939139Y-85764255D01*
X126865005Y-85518136D01*
X126509261Y-85390268D01*
X126923862Y-85218534D01*
X127327534Y-84814862D01*
X127546000Y-84287439D01*
X127546000Y-83716561D01*
X127327534Y-83189138D01*
X126923862Y-82785466D01*
X126517150Y-82617000D01*
X126923862Y-82448534D01*
X127327534Y-82044862D01*
X127546000Y-81517439D01*
X127546000Y-80946561D01*
X127327534Y-80419138D01*
X126923862Y-80015466D01*
X126517150Y-79847000D01*
X126923862Y-79678534D01*
X127327534Y-79274862D01*
X127546000Y-78747439D01*
X127546000Y-78176561D01*
X127327534Y-77649138D01*
X126923862Y-77245466D01*
X126667893Y-77139440D01*
X126911000Y-77139440D01*
X127158765Y-77090157D01*
X127368809Y-76949809D01*
X127509157Y-76739765D01*
X127558440Y-76492000D01*
X127558440Y-74892000D01*
X127509157Y-74644235D01*
X127368809Y-74434191D01*
X127158765Y-74293843D01*
X126911000Y-74244560D01*
X125311000Y-74244560D01*
X125063235Y-74293843D01*
X124853191Y-74434191D01*
X124712843Y-74644235D01*
X124663560Y-74892000D01*
X114248000Y-74892000D01*
X114248000Y-68207866D01*
X122056000Y-68207866D01*
X122056000Y-69256134D01*
X122457155Y-70224608D01*
X123198392Y-70965845D01*
X124166866Y-71367000D01*
X125215134Y-71367000D01*
X126183608Y-70965845D01*
X126924845Y-70224608D01*
X127326000Y-69256134D01*
X127326000Y-68207866D01*
X126924845Y-67239392D01*
X126183608Y-66498155D01*
X125215134Y-66097000D01*
X124166866Y-66097000D01*
X123198392Y-66498155D01*
X122457155Y-67239392D01*
X122056000Y-68207866D01*
X114248000Y-68207866D01*
X114248000Y-65480000D01*
X138209027Y-65480000D01*
X137955201Y-65585138D01*
G36*
X164046000Y-81137061D02*
X164046000Y-81707939D01*
X164067896Y-81760802D01*
X151592699Y-94236000D01*
X150661148Y-94236000D01*
X150568862Y-94013201D01*
X150080799Y-93525138D01*
X149443113Y-93261000D01*
X148752887Y-93261000D01*
X148115201Y-93525138D01*
X147627138Y-94013201D01*
X147363000Y-94650887D01*
X147363000Y-95341113D01*
X147627138Y-95978799D01*
X148115201Y-96466862D01*
X148369027Y-96572000D01*
X144746973Y-96572000D01*
X145000799Y-96466862D01*
X145488862Y-95978799D01*
X145753000Y-95341113D01*
X145753000Y-94650887D01*
X145488862Y-94013201D01*
X145000799Y-93525138D01*
X144778000Y-93432852D01*
X144778000Y-91881801D01*
X148269802Y-88390000D01*
X156202415Y-88390000D01*
X156277262Y-88404888D01*
X156352109Y-88390000D01*
X156352114Y-88390000D01*
X156573799Y-88345904D01*
X156825191Y-88177929D01*
X156867593Y-88114470D01*
X164188127Y-80793937D01*
X164046000Y-81137061D01*
X164046000Y-81137061D01*
G37*
X164046000Y-81137061D02*
X164046000Y-81707939D01*
X164067896Y-81760802D01*
X151592699Y-94236000D01*
X150661148Y-94236000D01*
X150568862Y-94013201D01*
X150080799Y-93525138D01*
X149443113Y-93261000D01*
X148752887Y-93261000D01*
X148115201Y-93525138D01*
X147627138Y-94013201D01*
X147363000Y-94650887D01*
X147363000Y-95341113D01*
X147627138Y-95978799D01*
X148115201Y-96466862D01*
X148369027Y-96572000D01*
X144746973Y-96572000D01*
X145000799Y-96466862D01*
X145488862Y-95978799D01*
X145753000Y-95341113D01*
X145753000Y-94650887D01*
X145488862Y-94013201D01*
X145000799Y-93525138D01*
X144778000Y-93432852D01*
X144778000Y-91881801D01*
X148269802Y-88390000D01*
X156202415Y-88390000D01*
X156277262Y-88404888D01*
X156352109Y-88390000D01*
X156352114Y-88390000D01*
X156573799Y-88345904D01*
X156825191Y-88177929D01*
X156867593Y-88114470D01*
X164188127Y-80793937D01*
X164046000Y-81137061D01*
G36*
X148825000Y-81231874D02*
X148982569Y-81612280D01*
X149100001Y-81729712D01*
X149100000Y-83759198D01*
X144390632Y-88468566D01*
X144180034Y-87960138D01*
X143776362Y-87556466D01*
X143695568Y-87523000D01*
X143776362Y-87489534D01*
X144180034Y-87085862D01*
X144398500Y-86558439D01*
X144398500Y-85987561D01*
X144180034Y-85460138D01*
X143776362Y-85056466D01*
X143695568Y-85023000D01*
X143776362Y-84989534D01*
X144180034Y-84585862D01*
X144398500Y-84058439D01*
X144398500Y-83487561D01*
X144180034Y-82960138D01*
X143776362Y-82556466D01*
X143355615Y-82382187D01*
X144849302Y-80888500D01*
X148825000Y-80888500D01*
X148825000Y-81231874D01*
X148825000Y-81231874D01*
G37*
X148825000Y-81231874D02*
X148982569Y-81612280D01*
X149100001Y-81729712D01*
X149100000Y-83759198D01*
X144390632Y-88468566D01*
X144180034Y-87960138D01*
X143776362Y-87556466D01*
X143695568Y-87523000D01*
X143776362Y-87489534D01*
X144180034Y-87085862D01*
X144398500Y-86558439D01*
X144398500Y-85987561D01*
X144180034Y-85460138D01*
X143776362Y-85056466D01*
X143695568Y-85023000D01*
X143776362Y-84989534D01*
X144180034Y-84585862D01*
X144398500Y-84058439D01*
X144398500Y-83487561D01*
X144180034Y-82960138D01*
X143776362Y-82556466D01*
X143355615Y-82382187D01*
X144849302Y-80888500D01*
X148825000Y-80888500D01*
X148825000Y-81231874D01*
G36*
X138673966Y-74298862D02*
X139077638Y-74702534D01*
X139158432Y-74736000D01*
X139077638Y-74769466D01*
X138673966Y-75173138D01*
X138455500Y-75700561D01*
X138455500Y-76271439D01*
X138673966Y-76798862D01*
X138943003Y-77067899D01*
X138842735Y-77087843D01*
X138632691Y-77228191D01*
X138492343Y-77438235D01*
X138443060Y-77686000D01*
X138443060Y-79286000D01*
X138492343Y-79533765D01*
X138632691Y-79743809D01*
X138842735Y-79884157D01*
X139090500Y-79933440D01*
X140690500Y-79933440D01*
X140938265Y-79884157D01*
X141148309Y-79743809D01*
X141288657Y-79533765D01*
X141337940Y-79286000D01*
X141337940Y-77686000D01*
X141288657Y-77438235D01*
X141222731Y-77339570D01*
X141841594Y-76720708D01*
X141873966Y-76798862D01*
X142277638Y-77202534D01*
X142358432Y-77236000D01*
X142277638Y-77269466D01*
X141873966Y-77673138D01*
X141655500Y-78200561D01*
X141655500Y-78771439D01*
X141873966Y-79298862D01*
X142277638Y-79702534D01*
X142805061Y-79921000D01*
X143375939Y-79921000D01*
X143873150Y-79715048D01*
X141354027Y-82234172D01*
X141290571Y-82276572D01*
X141122595Y-82527964D01*
X141078499Y-82749649D01*
X141078499Y-82749654D01*
X141063611Y-82824501D01*
X141078499Y-82899348D01*
X141078499Y-83048201D01*
X141034667Y-83092033D01*
X140980034Y-82960138D01*
X140576362Y-82556466D01*
X140048939Y-82338000D01*
X139478061Y-82338000D01*
X139425198Y-82359897D01*
X137920000Y-80854699D01*
X137920000Y-74866299D01*
X138619333Y-74166966D01*
X138673966Y-74298862D01*
X138673966Y-74298862D01*
G37*
X138673966Y-74298862D02*
X139077638Y-74702534D01*
X139158432Y-74736000D01*
X139077638Y-74769466D01*
X138673966Y-75173138D01*
X138455500Y-75700561D01*
X138455500Y-76271439D01*
X138673966Y-76798862D01*
X138943003Y-77067899D01*
X138842735Y-77087843D01*
X138632691Y-77228191D01*
X138492343Y-77438235D01*
X138443060Y-77686000D01*
X138443060Y-79286000D01*
X138492343Y-79533765D01*
X138632691Y-79743809D01*
X138842735Y-79884157D01*
X139090500Y-79933440D01*
X140690500Y-79933440D01*
X140938265Y-79884157D01*
X141148309Y-79743809D01*
X141288657Y-79533765D01*
X141337940Y-79286000D01*
X141337940Y-77686000D01*
X141288657Y-77438235D01*
X141222731Y-77339570D01*
X141841594Y-76720708D01*
X141873966Y-76798862D01*
X142277638Y-77202534D01*
X142358432Y-77236000D01*
X142277638Y-77269466D01*
X141873966Y-77673138D01*
X141655500Y-78200561D01*
X141655500Y-78771439D01*
X141873966Y-79298862D01*
X142277638Y-79702534D01*
X142805061Y-79921000D01*
X143375939Y-79921000D01*
X143873150Y-79715048D01*
X141354027Y-82234172D01*
X141290571Y-82276572D01*
X141122595Y-82527964D01*
X141078499Y-82749649D01*
X141078499Y-82749654D01*
X141063611Y-82824501D01*
X141078499Y-82899348D01*
X141078499Y-83048201D01*
X141034667Y-83092033D01*
X140980034Y-82960138D01*
X140576362Y-82556466D01*
X140048939Y-82338000D01*
X139478061Y-82338000D01*
X139425198Y-82359897D01*
X137920000Y-80854699D01*
X137920000Y-74866299D01*
X138619333Y-74166966D01*
X138673966Y-74298862D01*
G36*
X152285980Y-75819282D02*
X152273000Y-75850619D01*
X152273000Y-76406381D01*
X152485680Y-76919837D01*
X152694343Y-77128500D01*
X152485680Y-77337163D01*
X152273000Y-77850619D01*
X152273000Y-78406381D01*
X152485680Y-78919837D01*
X152694343Y-79128500D01*
X152485680Y-79337163D01*
X152472700Y-79368500D01*
X144609346Y-79368500D01*
X144534499Y-79353612D01*
X144459652Y-79368500D01*
X144459648Y-79368500D01*
X144237963Y-79412596D01*
X144103363Y-79502533D01*
X144307034Y-79298862D01*
X144525500Y-78771439D01*
X144525500Y-78200561D01*
X144307034Y-77673138D01*
X143903362Y-77269466D01*
X143822568Y-77236000D01*
X143903362Y-77202534D01*
X144307034Y-76798862D01*
X144525500Y-76271439D01*
X144525500Y-75700561D01*
X144307034Y-75173138D01*
X143903362Y-74769466D01*
X143822568Y-74736000D01*
X143903362Y-74702534D01*
X144307034Y-74298862D01*
X144525500Y-73771439D01*
X144525500Y-73200561D01*
X144492544Y-73120999D01*
X149587698Y-73120999D01*
X152285980Y-75819282D01*
X152285980Y-75819282D01*
G37*
X152285980Y-75819282D02*
X152273000Y-75850619D01*
X152273000Y-76406381D01*
X152485680Y-76919837D01*
X152694343Y-77128500D01*
X152485680Y-77337163D01*
X152273000Y-77850619D01*
X152273000Y-78406381D01*
X152485680Y-78919837D01*
X152694343Y-79128500D01*
X152485680Y-79337163D01*
X152472700Y-79368500D01*
X144609346Y-79368500D01*
X144534499Y-79353612D01*
X144459652Y-79368500D01*
X144459648Y-79368500D01*
X144237963Y-79412596D01*
X144103363Y-79502533D01*
X144307034Y-79298862D01*
X144525500Y-78771439D01*
X144525500Y-78200561D01*
X144307034Y-77673138D01*
X143903362Y-77269466D01*
X143822568Y-77236000D01*
X143903362Y-77202534D01*
X144307034Y-76798862D01*
X144525500Y-76271439D01*
X144525500Y-75700561D01*
X144307034Y-75173138D01*
X143903362Y-74769466D01*
X143822568Y-74736000D01*
X143903362Y-74702534D01*
X144307034Y-74298862D01*
X144525500Y-73771439D01*
X144525500Y-73200561D01*
X144492544Y-73120999D01*
X149587698Y-73120999D01*
X152285980Y-75819282D01*
G04 #@! TD*
M02*
