M48
;DRILL file {KiCad (5.0.1)-rc2} date 6/29/2019 12:56:33 AM
;FORMAT={-:-/ absolute / inch / decimal}
FMAT,2
INCH,TZ
T1C0.0157
T2C0.0315
T3C0.0362
T4C0.0394
T5C0.0433
T6C0.1260
%
G90
G05
M72
T1
X4.7Y-2.8
X4.7Y-3.1
X4.7Y-3.4
X4.7Y-3.6
X5.125Y-3.
X5.125Y-3.15
X5.125Y-3.4
X5.2Y-2.8
X5.3Y-3.6
X5.5Y-3.2
X5.8Y-3.
X5.8Y-3.3
X5.9Y-3.19
X5.9Y-3.6
X6.Y-2.825
X6.275Y-3.025
X6.275Y-3.225
X6.275Y-3.55
X6.275Y-3.725
X6.35Y-2.65
X6.8Y-2.8
X6.8Y-3.1
X6.8Y-3.4
X6.8Y-3.6
T2
X5.5025Y-3.2981
X5.5025Y-3.3966
X5.5025Y-3.495
X5.6285Y-3.2981
X5.6285Y-3.3966
X5.6285Y-3.495
X5.5075Y-2.8931
X5.5075Y-2.9916
X5.5075Y-3.09
X5.6335Y-2.8931
X5.6335Y-2.9916
X5.6335Y-3.09
T3
X6.05Y-2.9972
X6.05Y-3.0759
X6.05Y-3.1547
X6.05Y-3.2334
X6.05Y-3.3121
X6.05Y-3.3909
X6.1484Y-2.9972
X6.1484Y-3.0759
X6.1484Y-3.1547
X6.1484Y-3.2334
X6.1484Y-3.3121
X6.1484Y-3.3909
T4
X6.515Y-2.9875
X6.515Y-3.0966
X6.515Y-3.2056
X6.515Y-3.3147
X6.515Y-3.4237
X6.6268Y-3.042
X6.6268Y-3.1511
X6.6268Y-3.2601
X6.6268Y-3.3692
X4.8532Y-3.0345
X4.8532Y-3.1436
X4.8532Y-3.2526
X4.8532Y-3.3617
X4.965Y-2.98
X4.965Y-3.0891
X4.965Y-3.1981
X4.965Y-3.3072
X4.965Y-3.4162
T5
X5.47Y-2.64
X5.17Y-3.77
X5.67Y-2.64
X5.47Y-3.74
X5.87Y-2.64
X6.07Y-2.64
X5.87Y-3.74
X5.67Y-3.74
X6.07Y-3.74
T6
X6.5709Y-2.7135
X6.5709Y-3.6977
X4.9091Y-2.706
X4.9091Y-3.6902
T0
M30
