G04 #@! TF.GenerationSoftware,KiCad,Pcbnew,(5.0.1)-rc2*
G04 #@! TF.CreationDate,2019-06-29T00:56:30-07:00*
G04 #@! TF.ProjectId,DB9_Switcher,4442395F53776974636865722E6B6963,rev?*
G04 #@! TF.SameCoordinates,Original*
G04 #@! TF.FileFunction,Legend,Bot*
G04 #@! TF.FilePolarity,Positive*
%FSLAX46Y46*%
G04 Gerber Fmt 4.6, Leading zero omitted, Abs format (unit mm)*
G04 Created by KiCad (PCBNEW (5.0.1)-rc2) date 6/29/2019 12:56:30 AM*
%MOMM*%
%LPD*%
G01*
G04 APERTURE LIST*
%ADD10C,0.150000*%
%ADD11C,0.010000*%
G04 APERTURE END LIST*
D10*
X115642380Y-72279809D02*
X114642380Y-72279809D01*
X114642380Y-72517904D01*
X114690000Y-72660761D01*
X114785238Y-72756000D01*
X114880476Y-72803619D01*
X115070952Y-72851238D01*
X115213809Y-72851238D01*
X115404285Y-72803619D01*
X115499523Y-72756000D01*
X115594761Y-72660761D01*
X115642380Y-72517904D01*
X115642380Y-72279809D01*
X115594761Y-73660761D02*
X115642380Y-73565523D01*
X115642380Y-73375047D01*
X115594761Y-73279809D01*
X115499523Y-73232190D01*
X115118571Y-73232190D01*
X115023333Y-73279809D01*
X114975714Y-73375047D01*
X114975714Y-73565523D01*
X115023333Y-73660761D01*
X115118571Y-73708380D01*
X115213809Y-73708380D01*
X115309047Y-73232190D01*
X115642380Y-74565523D02*
X115118571Y-74565523D01*
X115023333Y-74517904D01*
X114975714Y-74422666D01*
X114975714Y-74232190D01*
X115023333Y-74136952D01*
X115594761Y-74565523D02*
X115642380Y-74470285D01*
X115642380Y-74232190D01*
X115594761Y-74136952D01*
X115499523Y-74089333D01*
X115404285Y-74089333D01*
X115309047Y-74136952D01*
X115261428Y-74232190D01*
X115261428Y-74470285D01*
X115213809Y-74565523D01*
X115642380Y-75470285D02*
X114642380Y-75470285D01*
X115594761Y-75470285D02*
X115642380Y-75375047D01*
X115642380Y-75184571D01*
X115594761Y-75089333D01*
X115547142Y-75041714D01*
X115451904Y-74994095D01*
X115166190Y-74994095D01*
X115070952Y-75041714D01*
X115023333Y-75089333D01*
X114975714Y-75184571D01*
X114975714Y-75375047D01*
X115023333Y-75470285D01*
X115642380Y-75946476D02*
X114642380Y-75946476D01*
X115023333Y-75946476D02*
X114975714Y-76041714D01*
X114975714Y-76232190D01*
X115023333Y-76327428D01*
X115070952Y-76375047D01*
X115166190Y-76422666D01*
X115451904Y-76422666D01*
X115547142Y-76375047D01*
X115594761Y-76327428D01*
X115642380Y-76232190D01*
X115642380Y-76041714D01*
X115594761Y-75946476D01*
X114975714Y-77279809D02*
X115642380Y-77279809D01*
X114975714Y-76851238D02*
X115499523Y-76851238D01*
X115594761Y-76898857D01*
X115642380Y-76994095D01*
X115642380Y-77136952D01*
X115594761Y-77232190D01*
X115547142Y-77279809D01*
X114975714Y-78184571D02*
X115785238Y-78184571D01*
X115880476Y-78136952D01*
X115928095Y-78089333D01*
X115975714Y-77994095D01*
X115975714Y-77851238D01*
X115928095Y-77756000D01*
X115594761Y-78184571D02*
X115642380Y-78089333D01*
X115642380Y-77898857D01*
X115594761Y-77803619D01*
X115547142Y-77756000D01*
X115451904Y-77708380D01*
X115166190Y-77708380D01*
X115070952Y-77756000D01*
X115023333Y-77803619D01*
X114975714Y-77898857D01*
X114975714Y-78089333D01*
X115023333Y-78184571D01*
X115118571Y-79422666D02*
X115118571Y-79756000D01*
X115642380Y-79898857D02*
X115642380Y-79422666D01*
X114642380Y-79422666D01*
X114642380Y-79898857D01*
X115642380Y-80470285D02*
X115594761Y-80375047D01*
X115499523Y-80327428D01*
X114642380Y-80327428D01*
X115594761Y-81232190D02*
X115642380Y-81136952D01*
X115642380Y-80946476D01*
X115594761Y-80851238D01*
X115499523Y-80803619D01*
X115118571Y-80803619D01*
X115023333Y-80851238D01*
X114975714Y-80946476D01*
X114975714Y-81136952D01*
X115023333Y-81232190D01*
X115118571Y-81279809D01*
X115213809Y-81279809D01*
X115309047Y-80803619D01*
X115594761Y-82136952D02*
X115642380Y-82041714D01*
X115642380Y-81851238D01*
X115594761Y-81756000D01*
X115547142Y-81708380D01*
X115451904Y-81660761D01*
X115166190Y-81660761D01*
X115070952Y-81708380D01*
X115023333Y-81756000D01*
X114975714Y-81851238D01*
X114975714Y-82041714D01*
X115023333Y-82136952D01*
X114975714Y-82422666D02*
X114975714Y-82803619D01*
X114642380Y-82565523D02*
X115499523Y-82565523D01*
X115594761Y-82613142D01*
X115642380Y-82708380D01*
X115642380Y-82803619D01*
X115642380Y-83136952D02*
X114975714Y-83136952D01*
X115166190Y-83136952D02*
X115070952Y-83184571D01*
X115023333Y-83232190D01*
X114975714Y-83327428D01*
X114975714Y-83422666D01*
X115642380Y-83898857D02*
X115594761Y-83803619D01*
X115547142Y-83756000D01*
X115451904Y-83708380D01*
X115166190Y-83708380D01*
X115070952Y-83756000D01*
X115023333Y-83803619D01*
X114975714Y-83898857D01*
X114975714Y-84041714D01*
X115023333Y-84136952D01*
X115070952Y-84184571D01*
X115166190Y-84232190D01*
X115451904Y-84232190D01*
X115547142Y-84184571D01*
X115594761Y-84136952D01*
X115642380Y-84041714D01*
X115642380Y-83898857D01*
X114975714Y-84660761D02*
X115642380Y-84660761D01*
X115070952Y-84660761D02*
X115023333Y-84708380D01*
X114975714Y-84803619D01*
X114975714Y-84946476D01*
X115023333Y-85041714D01*
X115118571Y-85089333D01*
X115642380Y-85089333D01*
X115642380Y-85565523D02*
X114975714Y-85565523D01*
X114642380Y-85565523D02*
X114690000Y-85517904D01*
X114737619Y-85565523D01*
X114690000Y-85613142D01*
X114642380Y-85565523D01*
X114737619Y-85565523D01*
X115594761Y-86470285D02*
X115642380Y-86375047D01*
X115642380Y-86184571D01*
X115594761Y-86089333D01*
X115547142Y-86041714D01*
X115451904Y-85994095D01*
X115166190Y-85994095D01*
X115070952Y-86041714D01*
X115023333Y-86089333D01*
X114975714Y-86184571D01*
X114975714Y-86375047D01*
X115023333Y-86470285D01*
X115594761Y-86851238D02*
X115642380Y-86946476D01*
X115642380Y-87136952D01*
X115594761Y-87232190D01*
X115499523Y-87279809D01*
X115451904Y-87279809D01*
X115356666Y-87232190D01*
X115309047Y-87136952D01*
X115309047Y-86994095D01*
X115261428Y-86898857D01*
X115166190Y-86851238D01*
X115118571Y-86851238D01*
X115023333Y-86898857D01*
X114975714Y-86994095D01*
X114975714Y-87136952D01*
X115023333Y-87232190D01*
X117292380Y-74232190D02*
X116292380Y-74232190D01*
X116292380Y-74470285D01*
X116340000Y-74613142D01*
X116435238Y-74708380D01*
X116530476Y-74756000D01*
X116720952Y-74803619D01*
X116863809Y-74803619D01*
X117054285Y-74756000D01*
X117149523Y-74708380D01*
X117244761Y-74613142D01*
X117292380Y-74470285D01*
X117292380Y-74232190D01*
X116768571Y-75565523D02*
X116816190Y-75708380D01*
X116863809Y-75756000D01*
X116959047Y-75803619D01*
X117101904Y-75803619D01*
X117197142Y-75756000D01*
X117244761Y-75708380D01*
X117292380Y-75613142D01*
X117292380Y-75232190D01*
X116292380Y-75232190D01*
X116292380Y-75565523D01*
X116340000Y-75660761D01*
X116387619Y-75708380D01*
X116482857Y-75756000D01*
X116578095Y-75756000D01*
X116673333Y-75708380D01*
X116720952Y-75660761D01*
X116768571Y-75565523D01*
X116768571Y-75232190D01*
X117244761Y-76946476D02*
X117292380Y-77089333D01*
X117292380Y-77327428D01*
X117244761Y-77422666D01*
X117197142Y-77470285D01*
X117101904Y-77517904D01*
X117006666Y-77517904D01*
X116911428Y-77470285D01*
X116863809Y-77422666D01*
X116816190Y-77327428D01*
X116768571Y-77136952D01*
X116720952Y-77041714D01*
X116673333Y-76994095D01*
X116578095Y-76946476D01*
X116482857Y-76946476D01*
X116387619Y-76994095D01*
X116340000Y-77041714D01*
X116292380Y-77136952D01*
X116292380Y-77375047D01*
X116340000Y-77517904D01*
X116625714Y-77851238D02*
X117292380Y-78041714D01*
X116816190Y-78232190D01*
X117292380Y-78422666D01*
X116625714Y-78613142D01*
X117292380Y-79422666D02*
X116768571Y-79422666D01*
X116673333Y-79375047D01*
X116625714Y-79279809D01*
X116625714Y-79089333D01*
X116673333Y-78994095D01*
X117244761Y-79422666D02*
X117292380Y-79327428D01*
X117292380Y-79089333D01*
X117244761Y-78994095D01*
X117149523Y-78946476D01*
X117054285Y-78946476D01*
X116959047Y-78994095D01*
X116911428Y-79089333D01*
X116911428Y-79327428D01*
X116863809Y-79422666D01*
X116625714Y-79898857D02*
X117625714Y-79898857D01*
X116673333Y-79898857D02*
X116625714Y-79994095D01*
X116625714Y-80184571D01*
X116673333Y-80279809D01*
X116720952Y-80327428D01*
X116816190Y-80375047D01*
X117101904Y-80375047D01*
X117197142Y-80327428D01*
X117244761Y-80279809D01*
X117292380Y-80184571D01*
X117292380Y-79994095D01*
X117244761Y-79898857D01*
X116625714Y-80803619D02*
X117625714Y-80803619D01*
X116673333Y-80803619D02*
X116625714Y-80898857D01*
X116625714Y-81089333D01*
X116673333Y-81184571D01*
X116720952Y-81232190D01*
X116816190Y-81279809D01*
X117101904Y-81279809D01*
X117197142Y-81232190D01*
X117244761Y-81184571D01*
X117292380Y-81089333D01*
X117292380Y-80898857D01*
X117244761Y-80803619D01*
X117244761Y-82089333D02*
X117292380Y-81994095D01*
X117292380Y-81803619D01*
X117244761Y-81708380D01*
X117149523Y-81660761D01*
X116768571Y-81660761D01*
X116673333Y-81708380D01*
X116625714Y-81803619D01*
X116625714Y-81994095D01*
X116673333Y-82089333D01*
X116768571Y-82136952D01*
X116863809Y-82136952D01*
X116959047Y-81660761D01*
X117292380Y-82565523D02*
X116625714Y-82565523D01*
X116816190Y-82565523D02*
X116720952Y-82613142D01*
X116673333Y-82660761D01*
X116625714Y-82756000D01*
X116625714Y-82851238D01*
X116292380Y-83803619D02*
X117292380Y-84136952D01*
X116292380Y-84470285D01*
X117292380Y-85327428D02*
X117292380Y-84756000D01*
X117292380Y-85041714D02*
X116292380Y-85041714D01*
X116435238Y-84946476D01*
X116530476Y-84851238D01*
X116578095Y-84756000D01*
X118037619Y-78041714D02*
X117990000Y-78089333D01*
X117942380Y-78184571D01*
X117942380Y-78422666D01*
X117990000Y-78517904D01*
X118037619Y-78565523D01*
X118132857Y-78613142D01*
X118228095Y-78613142D01*
X118370952Y-78565523D01*
X118942380Y-77994095D01*
X118942380Y-78613142D01*
X117942380Y-79232190D02*
X117942380Y-79327428D01*
X117990000Y-79422666D01*
X118037619Y-79470285D01*
X118132857Y-79517904D01*
X118323333Y-79565523D01*
X118561428Y-79565523D01*
X118751904Y-79517904D01*
X118847142Y-79470285D01*
X118894761Y-79422666D01*
X118942380Y-79327428D01*
X118942380Y-79232190D01*
X118894761Y-79136952D01*
X118847142Y-79089333D01*
X118751904Y-79041714D01*
X118561428Y-78994095D01*
X118323333Y-78994095D01*
X118132857Y-79041714D01*
X118037619Y-79089333D01*
X117990000Y-79136952D01*
X117942380Y-79232190D01*
X118942380Y-80517904D02*
X118942380Y-79946476D01*
X118942380Y-80232190D02*
X117942380Y-80232190D01*
X118085238Y-80136952D01*
X118180476Y-80041714D01*
X118228095Y-79946476D01*
X118942380Y-80994095D02*
X118942380Y-81184571D01*
X118894761Y-81279809D01*
X118847142Y-81327428D01*
X118704285Y-81422666D01*
X118513809Y-81470285D01*
X118132857Y-81470285D01*
X118037619Y-81422666D01*
X117990000Y-81375047D01*
X117942380Y-81279809D01*
X117942380Y-81089333D01*
X117990000Y-80994095D01*
X118037619Y-80946476D01*
X118132857Y-80898857D01*
X118370952Y-80898857D01*
X118466190Y-80946476D01*
X118513809Y-80994095D01*
X118561428Y-81089333D01*
X118561428Y-81279809D01*
X118513809Y-81375047D01*
X118466190Y-81422666D01*
X118370952Y-81470285D01*
D11*
G04 #@! TO.C,G\002A\002A\002A*
G36*
X173413897Y-71036114D02*
X173348923Y-71049752D01*
X173306180Y-71085513D01*
X173275570Y-71163356D01*
X173246993Y-71303235D01*
X173231227Y-71397091D01*
X173199577Y-71587973D01*
X173170170Y-71761949D01*
X173149129Y-71882824D01*
X173148382Y-71886961D01*
X173137880Y-71985797D01*
X173171726Y-72022602D01*
X173260538Y-72025506D01*
X173366974Y-72003249D01*
X173415718Y-71931621D01*
X173422143Y-71905091D01*
X173449525Y-71756382D01*
X173479189Y-71574165D01*
X173506834Y-71387775D01*
X173528160Y-71226545D01*
X173538866Y-71119809D01*
X173539378Y-71105387D01*
X173517070Y-71045114D01*
X173434829Y-71034040D01*
X173413897Y-71036114D01*
X173413897Y-71036114D01*
G37*
X173413897Y-71036114D02*
X173348923Y-71049752D01*
X173306180Y-71085513D01*
X173275570Y-71163356D01*
X173246993Y-71303235D01*
X173231227Y-71397091D01*
X173199577Y-71587973D01*
X173170170Y-71761949D01*
X173149129Y-71882824D01*
X173148382Y-71886961D01*
X173137880Y-71985797D01*
X173171726Y-72022602D01*
X173260538Y-72025506D01*
X173366974Y-72003249D01*
X173415718Y-71931621D01*
X173422143Y-71905091D01*
X173449525Y-71756382D01*
X173479189Y-71574165D01*
X173506834Y-71387775D01*
X173528160Y-71226545D01*
X173538866Y-71119809D01*
X173539378Y-71105387D01*
X173517070Y-71045114D01*
X173434829Y-71034040D01*
X173413897Y-71036114D01*
G36*
X174240520Y-71373232D02*
X174208919Y-71442667D01*
X174173674Y-71577198D01*
X174139278Y-71749915D01*
X174110226Y-71933910D01*
X174091013Y-72102275D01*
X174086133Y-72228099D01*
X174090967Y-72268612D01*
X174151839Y-72371698D01*
X174218836Y-72404078D01*
X174272987Y-72401004D01*
X174309901Y-72359616D01*
X174339632Y-72260869D01*
X174365139Y-72126987D01*
X174411330Y-71857029D01*
X174441008Y-71664019D01*
X174454320Y-71534057D01*
X174451415Y-71453243D01*
X174432440Y-71407676D01*
X174397542Y-71383455D01*
X174373126Y-71374675D01*
X174281403Y-71361165D01*
X174240520Y-71373232D01*
X174240520Y-71373232D01*
G37*
X174240520Y-71373232D02*
X174208919Y-71442667D01*
X174173674Y-71577198D01*
X174139278Y-71749915D01*
X174110226Y-71933910D01*
X174091013Y-72102275D01*
X174086133Y-72228099D01*
X174090967Y-72268612D01*
X174151839Y-72371698D01*
X174218836Y-72404078D01*
X174272987Y-72401004D01*
X174309901Y-72359616D01*
X174339632Y-72260869D01*
X174365139Y-72126987D01*
X174411330Y-71857029D01*
X174441008Y-71664019D01*
X174454320Y-71534057D01*
X174451415Y-71453243D01*
X174432440Y-71407676D01*
X174397542Y-71383455D01*
X174373126Y-71374675D01*
X174281403Y-71361165D01*
X174240520Y-71373232D01*
G36*
X175219941Y-71729121D02*
X175180371Y-71767646D01*
X175147362Y-71854316D01*
X175111788Y-72007507D01*
X175097434Y-72078273D01*
X175064905Y-72246141D01*
X175042129Y-72373154D01*
X175032983Y-72437378D01*
X175033326Y-72441093D01*
X175078522Y-72452113D01*
X175178049Y-72472102D01*
X175184601Y-72473350D01*
X175328567Y-72500695D01*
X175386582Y-72161536D01*
X175416387Y-71956442D01*
X175418659Y-71825300D01*
X175389528Y-71752778D01*
X175325124Y-71723546D01*
X175275201Y-71720363D01*
X175219941Y-71729121D01*
X175219941Y-71729121D01*
G37*
X175219941Y-71729121D02*
X175180371Y-71767646D01*
X175147362Y-71854316D01*
X175111788Y-72007507D01*
X175097434Y-72078273D01*
X175064905Y-72246141D01*
X175042129Y-72373154D01*
X175032983Y-72437378D01*
X175033326Y-72441093D01*
X175078522Y-72452113D01*
X175178049Y-72472102D01*
X175184601Y-72473350D01*
X175328567Y-72500695D01*
X175386582Y-72161536D01*
X175416387Y-71956442D01*
X175418659Y-71825300D01*
X175389528Y-71752778D01*
X175325124Y-71723546D01*
X175275201Y-71720363D01*
X175219941Y-71729121D01*
G36*
X176243597Y-72094240D02*
X176165429Y-72117492D01*
X176153413Y-72128859D01*
X176131361Y-72196087D01*
X176106057Y-72315638D01*
X176099229Y-72355854D01*
X176085982Y-72479209D01*
X176108251Y-72548925D01*
X176181185Y-72601452D01*
X176206939Y-72615048D01*
X176344704Y-72686289D01*
X176389047Y-72410945D01*
X176409030Y-72261657D01*
X176416026Y-72152759D01*
X176410498Y-72112710D01*
X176342875Y-72091541D01*
X176243597Y-72094240D01*
X176243597Y-72094240D01*
G37*
X176243597Y-72094240D02*
X176165429Y-72117492D01*
X176153413Y-72128859D01*
X176131361Y-72196087D01*
X176106057Y-72315638D01*
X176099229Y-72355854D01*
X176085982Y-72479209D01*
X176108251Y-72548925D01*
X176181185Y-72601452D01*
X176206939Y-72615048D01*
X176344704Y-72686289D01*
X176389047Y-72410945D01*
X176409030Y-72261657D01*
X176416026Y-72152759D01*
X176410498Y-72112710D01*
X176342875Y-72091541D01*
X176243597Y-72094240D01*
G36*
X171756901Y-72402217D02*
X171722450Y-72451735D01*
X171696423Y-72557849D01*
X171675083Y-72705137D01*
X171656813Y-72911437D01*
X171666169Y-73034613D01*
X171684127Y-73069781D01*
X171754410Y-73098579D01*
X171885275Y-73122066D01*
X172008714Y-73132721D01*
X172181336Y-73133918D01*
X172287771Y-73113532D01*
X172351484Y-73068259D01*
X172398825Y-72975018D01*
X172432488Y-72837584D01*
X172450049Y-72685130D01*
X172449086Y-72546832D01*
X172427177Y-72451863D01*
X172404619Y-72428389D01*
X172309561Y-72432576D01*
X172236631Y-72516095D01*
X172195181Y-72666803D01*
X172191389Y-72705324D01*
X172175199Y-72829402D01*
X172138394Y-72888806D01*
X172062450Y-72911201D01*
X172052753Y-72912382D01*
X171982724Y-72915507D01*
X171943986Y-72890334D01*
X171925168Y-72816021D01*
X171914904Y-72671725D01*
X171914207Y-72658382D01*
X171902228Y-72505941D01*
X171880961Y-72424700D01*
X171842028Y-72393502D01*
X171807909Y-72390000D01*
X171756901Y-72402217D01*
X171756901Y-72402217D01*
G37*
X171756901Y-72402217D02*
X171722450Y-72451735D01*
X171696423Y-72557849D01*
X171675083Y-72705137D01*
X171656813Y-72911437D01*
X171666169Y-73034613D01*
X171684127Y-73069781D01*
X171754410Y-73098579D01*
X171885275Y-73122066D01*
X172008714Y-73132721D01*
X172181336Y-73133918D01*
X172287771Y-73113532D01*
X172351484Y-73068259D01*
X172398825Y-72975018D01*
X172432488Y-72837584D01*
X172450049Y-72685130D01*
X172449086Y-72546832D01*
X172427177Y-72451863D01*
X172404619Y-72428389D01*
X172309561Y-72432576D01*
X172236631Y-72516095D01*
X172195181Y-72666803D01*
X172191389Y-72705324D01*
X172175199Y-72829402D01*
X172138394Y-72888806D01*
X172062450Y-72911201D01*
X172052753Y-72912382D01*
X171982724Y-72915507D01*
X171943986Y-72890334D01*
X171925168Y-72816021D01*
X171914904Y-72671725D01*
X171914207Y-72658382D01*
X171902228Y-72505941D01*
X171880961Y-72424700D01*
X171842028Y-72393502D01*
X171807909Y-72390000D01*
X171756901Y-72402217D01*
G36*
X173263253Y-72187363D02*
X173214991Y-72284064D01*
X173201364Y-72335188D01*
X173164944Y-72449065D01*
X173121153Y-72487256D01*
X173084177Y-72480040D01*
X172943298Y-72433016D01*
X172845309Y-72438883D01*
X172754585Y-72501886D01*
X172734151Y-72521741D01*
X172641512Y-72673637D01*
X172614368Y-72855929D01*
X172654696Y-73032705D01*
X172701811Y-73109082D01*
X172795931Y-73175919D01*
X172938498Y-73226117D01*
X173098402Y-73254741D01*
X173244534Y-73256855D01*
X173345784Y-73227523D01*
X173361281Y-73213705D01*
X173382009Y-73145316D01*
X173399796Y-73006489D01*
X173412437Y-72819149D01*
X173412922Y-72802800D01*
X173169038Y-72802800D01*
X173150392Y-72947834D01*
X173098259Y-73041497D01*
X173010114Y-73050124D01*
X172947483Y-73019450D01*
X172906430Y-72944810D01*
X172901301Y-72823884D01*
X172922615Y-72715663D01*
X172972765Y-72672718D01*
X173031095Y-72667091D01*
X173131341Y-72701082D01*
X173169038Y-72802800D01*
X173412922Y-72802800D01*
X173417260Y-72656897D01*
X173419255Y-72437202D01*
X173416023Y-72293726D01*
X173404856Y-72210358D01*
X173383049Y-72170988D01*
X173347896Y-72159506D01*
X173333641Y-72159091D01*
X173263253Y-72187363D01*
X173263253Y-72187363D01*
G37*
X173263253Y-72187363D02*
X173214991Y-72284064D01*
X173201364Y-72335188D01*
X173164944Y-72449065D01*
X173121153Y-72487256D01*
X173084177Y-72480040D01*
X172943298Y-72433016D01*
X172845309Y-72438883D01*
X172754585Y-72501886D01*
X172734151Y-72521741D01*
X172641512Y-72673637D01*
X172614368Y-72855929D01*
X172654696Y-73032705D01*
X172701811Y-73109082D01*
X172795931Y-73175919D01*
X172938498Y-73226117D01*
X173098402Y-73254741D01*
X173244534Y-73256855D01*
X173345784Y-73227523D01*
X173361281Y-73213705D01*
X173382009Y-73145316D01*
X173399796Y-73006489D01*
X173412437Y-72819149D01*
X173412922Y-72802800D01*
X173169038Y-72802800D01*
X173150392Y-72947834D01*
X173098259Y-73041497D01*
X173010114Y-73050124D01*
X172947483Y-73019450D01*
X172906430Y-72944810D01*
X172901301Y-72823884D01*
X172922615Y-72715663D01*
X172972765Y-72672718D01*
X173031095Y-72667091D01*
X173131341Y-72701082D01*
X173169038Y-72802800D01*
X173412922Y-72802800D01*
X173417260Y-72656897D01*
X173419255Y-72437202D01*
X173416023Y-72293726D01*
X173404856Y-72210358D01*
X173383049Y-72170988D01*
X173347896Y-72159506D01*
X173333641Y-72159091D01*
X173263253Y-72187363D01*
G36*
X170812888Y-72298602D02*
X170732273Y-72335031D01*
X170731742Y-72335696D01*
X170706893Y-72406139D01*
X170681425Y-72540821D01*
X170660518Y-72711798D01*
X170659059Y-72727773D01*
X170645430Y-72903421D01*
X170647196Y-73014989D01*
X170670565Y-73090304D01*
X170721746Y-73157191D01*
X170764668Y-73201137D01*
X170893850Y-73300446D01*
X171037356Y-73335514D01*
X171080841Y-73336727D01*
X171203689Y-73329795D01*
X171282500Y-73312599D01*
X171290956Y-73307195D01*
X171303411Y-73251877D01*
X171245052Y-73208831D01*
X171170183Y-73196374D01*
X171114267Y-73190083D01*
X171134568Y-73168261D01*
X171208665Y-73133714D01*
X171215014Y-73128909D01*
X171045909Y-73128909D01*
X171022818Y-73152000D01*
X170999727Y-73128909D01*
X171022818Y-73105818D01*
X171045909Y-73128909D01*
X171215014Y-73128909D01*
X171344944Y-73030589D01*
X171431637Y-72878450D01*
X171463046Y-72705101D01*
X171461647Y-72697209D01*
X171230636Y-72697209D01*
X171198702Y-72786665D01*
X171130457Y-72872278D01*
X171030515Y-72932207D01*
X170957961Y-72908146D01*
X170919121Y-72806035D01*
X170916623Y-72671482D01*
X170938074Y-72540562D01*
X170984612Y-72478376D01*
X171019766Y-72466195D01*
X171117112Y-72488760D01*
X171196321Y-72573910D01*
X171230580Y-72692274D01*
X171230636Y-72697209D01*
X171461647Y-72697209D01*
X171433477Y-72538342D01*
X171354658Y-72421139D01*
X171249262Y-72358901D01*
X171102854Y-72314854D01*
X170946905Y-72293316D01*
X170812888Y-72298602D01*
X170812888Y-72298602D01*
G37*
X170812888Y-72298602D02*
X170732273Y-72335031D01*
X170731742Y-72335696D01*
X170706893Y-72406139D01*
X170681425Y-72540821D01*
X170660518Y-72711798D01*
X170659059Y-72727773D01*
X170645430Y-72903421D01*
X170647196Y-73014989D01*
X170670565Y-73090304D01*
X170721746Y-73157191D01*
X170764668Y-73201137D01*
X170893850Y-73300446D01*
X171037356Y-73335514D01*
X171080841Y-73336727D01*
X171203689Y-73329795D01*
X171282500Y-73312599D01*
X171290956Y-73307195D01*
X171303411Y-73251877D01*
X171245052Y-73208831D01*
X171170183Y-73196374D01*
X171114267Y-73190083D01*
X171134568Y-73168261D01*
X171208665Y-73133714D01*
X171215014Y-73128909D01*
X171045909Y-73128909D01*
X171022818Y-73152000D01*
X170999727Y-73128909D01*
X171022818Y-73105818D01*
X171045909Y-73128909D01*
X171215014Y-73128909D01*
X171344944Y-73030589D01*
X171431637Y-72878450D01*
X171463046Y-72705101D01*
X171461647Y-72697209D01*
X171230636Y-72697209D01*
X171198702Y-72786665D01*
X171130457Y-72872278D01*
X171030515Y-72932207D01*
X170957961Y-72908146D01*
X170919121Y-72806035D01*
X170916623Y-72671482D01*
X170938074Y-72540562D01*
X170984612Y-72478376D01*
X171019766Y-72466195D01*
X171117112Y-72488760D01*
X171196321Y-72573910D01*
X171230580Y-72692274D01*
X171230636Y-72697209D01*
X171461647Y-72697209D01*
X171433477Y-72538342D01*
X171354658Y-72421139D01*
X171249262Y-72358901D01*
X171102854Y-72314854D01*
X170946905Y-72293316D01*
X170812888Y-72298602D01*
G36*
X173758700Y-72195614D02*
X173705188Y-72241794D01*
X173666447Y-72341794D01*
X173637970Y-72507937D01*
X173615251Y-72752551D01*
X173612551Y-72789836D01*
X173600251Y-73020031D01*
X173602516Y-73170015D01*
X173619875Y-73250871D01*
X173635435Y-73269521D01*
X173708727Y-73290706D01*
X173841600Y-73310502D01*
X173961851Y-73321388D01*
X174122715Y-73327193D01*
X174224989Y-73312206D01*
X174301591Y-73268205D01*
X174348578Y-73224802D01*
X174445576Y-73069231D01*
X174459690Y-72892068D01*
X174459017Y-72890303D01*
X174140091Y-72890303D01*
X174128707Y-73024244D01*
X174084887Y-73088957D01*
X173994122Y-73105818D01*
X173993848Y-73105818D01*
X173937827Y-73087183D01*
X173913254Y-73016116D01*
X173909182Y-72921091D01*
X173915483Y-72802074D01*
X173945207Y-72749175D01*
X174014582Y-72736429D01*
X174024636Y-72736363D01*
X174104098Y-72749270D01*
X174135565Y-72806340D01*
X174140091Y-72890303D01*
X174459017Y-72890303D01*
X174391074Y-72712159D01*
X174358105Y-72667091D01*
X173816818Y-72667091D01*
X173793727Y-72690182D01*
X173770636Y-72667091D01*
X173793727Y-72644000D01*
X173816818Y-72667091D01*
X174358105Y-72667091D01*
X174343804Y-72647543D01*
X174211455Y-72534619D01*
X174092730Y-72505454D01*
X174000122Y-72492762D01*
X173959242Y-72435807D01*
X173946744Y-72355363D01*
X173918536Y-72242388D01*
X173852161Y-72194904D01*
X173831488Y-72190925D01*
X173758700Y-72195614D01*
X173758700Y-72195614D01*
G37*
X173758700Y-72195614D02*
X173705188Y-72241794D01*
X173666447Y-72341794D01*
X173637970Y-72507937D01*
X173615251Y-72752551D01*
X173612551Y-72789836D01*
X173600251Y-73020031D01*
X173602516Y-73170015D01*
X173619875Y-73250871D01*
X173635435Y-73269521D01*
X173708727Y-73290706D01*
X173841600Y-73310502D01*
X173961851Y-73321388D01*
X174122715Y-73327193D01*
X174224989Y-73312206D01*
X174301591Y-73268205D01*
X174348578Y-73224802D01*
X174445576Y-73069231D01*
X174459690Y-72892068D01*
X174459017Y-72890303D01*
X174140091Y-72890303D01*
X174128707Y-73024244D01*
X174084887Y-73088957D01*
X173994122Y-73105818D01*
X173993848Y-73105818D01*
X173937827Y-73087183D01*
X173913254Y-73016116D01*
X173909182Y-72921091D01*
X173915483Y-72802074D01*
X173945207Y-72749175D01*
X174014582Y-72736429D01*
X174024636Y-72736363D01*
X174104098Y-72749270D01*
X174135565Y-72806340D01*
X174140091Y-72890303D01*
X174459017Y-72890303D01*
X174391074Y-72712159D01*
X174358105Y-72667091D01*
X173816818Y-72667091D01*
X173793727Y-72690182D01*
X173770636Y-72667091D01*
X173793727Y-72644000D01*
X173816818Y-72667091D01*
X174358105Y-72667091D01*
X174343804Y-72647543D01*
X174211455Y-72534619D01*
X174092730Y-72505454D01*
X174000122Y-72492762D01*
X173959242Y-72435807D01*
X173946744Y-72355363D01*
X173918536Y-72242388D01*
X173852161Y-72194904D01*
X173831488Y-72190925D01*
X173758700Y-72195614D01*
G36*
X174786106Y-72634898D02*
X174672985Y-72745037D01*
X174616421Y-72926585D01*
X174611413Y-73101861D01*
X174625000Y-73357348D01*
X174927779Y-73369840D01*
X175120722Y-73368448D01*
X175248303Y-73347388D01*
X175285688Y-73327202D01*
X175336865Y-73218093D01*
X175318667Y-73089764D01*
X175250174Y-72991920D01*
X175169855Y-72946371D01*
X175089958Y-72936210D01*
X175037462Y-72956952D01*
X175039351Y-73004110D01*
X175056005Y-73024205D01*
X175108047Y-73113639D01*
X175077978Y-73177938D01*
X174993005Y-73198182D01*
X174885963Y-73166932D01*
X174842245Y-73090334D01*
X174875962Y-72994111D01*
X174879000Y-72990363D01*
X174914272Y-72899775D01*
X174908707Y-72852406D01*
X174910436Y-72806278D01*
X174974490Y-72785822D01*
X175062451Y-72782545D01*
X175184511Y-72772285D01*
X175261941Y-72746823D01*
X175270113Y-72738681D01*
X175260273Y-72685466D01*
X175181441Y-72637590D01*
X175056853Y-72605427D01*
X174954661Y-72597818D01*
X174786106Y-72634898D01*
X174786106Y-72634898D01*
G37*
X174786106Y-72634898D02*
X174672985Y-72745037D01*
X174616421Y-72926585D01*
X174611413Y-73101861D01*
X174625000Y-73357348D01*
X174927779Y-73369840D01*
X175120722Y-73368448D01*
X175248303Y-73347388D01*
X175285688Y-73327202D01*
X175336865Y-73218093D01*
X175318667Y-73089764D01*
X175250174Y-72991920D01*
X175169855Y-72946371D01*
X175089958Y-72936210D01*
X175037462Y-72956952D01*
X175039351Y-73004110D01*
X175056005Y-73024205D01*
X175108047Y-73113639D01*
X175077978Y-73177938D01*
X174993005Y-73198182D01*
X174885963Y-73166932D01*
X174842245Y-73090334D01*
X174875962Y-72994111D01*
X174879000Y-72990363D01*
X174914272Y-72899775D01*
X174908707Y-72852406D01*
X174910436Y-72806278D01*
X174974490Y-72785822D01*
X175062451Y-72782545D01*
X175184511Y-72772285D01*
X175261941Y-72746823D01*
X175270113Y-72738681D01*
X175260273Y-72685466D01*
X175181441Y-72637590D01*
X175056853Y-72605427D01*
X174954661Y-72597818D01*
X174786106Y-72634898D01*
G36*
X175693695Y-72719209D02*
X175572185Y-72812748D01*
X175511194Y-72931932D01*
X175521493Y-73016511D01*
X175618323Y-73077161D01*
X175798557Y-73112149D01*
X175842814Y-73115811D01*
X175964358Y-73136097D01*
X176029159Y-73171161D01*
X176033478Y-73183524D01*
X175993055Y-73242906D01*
X175890442Y-73276018D01*
X175753877Y-73275384D01*
X175713631Y-73268192D01*
X175604485Y-73262755D01*
X175548008Y-73294504D01*
X175561148Y-73349983D01*
X175583781Y-73371308D01*
X175724743Y-73432599D01*
X175904993Y-73443787D01*
X176016192Y-73423968D01*
X176167519Y-73356570D01*
X176254734Y-73244846D01*
X176291363Y-73121368D01*
X176293541Y-73004466D01*
X176266666Y-72949814D01*
X176020871Y-72949814D01*
X176018326Y-72954535D01*
X175955794Y-72988956D01*
X175866567Y-72985711D01*
X175795232Y-72951643D01*
X175779545Y-72917896D01*
X175817295Y-72853623D01*
X175848818Y-72840963D01*
X175938808Y-72850115D01*
X176007351Y-72893897D01*
X176020871Y-72949814D01*
X176266666Y-72949814D01*
X176238205Y-72891937D01*
X176195168Y-72837133D01*
X176093778Y-72738064D01*
X175985141Y-72696680D01*
X175874961Y-72690182D01*
X175693695Y-72719209D01*
X175693695Y-72719209D01*
G37*
X175693695Y-72719209D02*
X175572185Y-72812748D01*
X175511194Y-72931932D01*
X175521493Y-73016511D01*
X175618323Y-73077161D01*
X175798557Y-73112149D01*
X175842814Y-73115811D01*
X175964358Y-73136097D01*
X176029159Y-73171161D01*
X176033478Y-73183524D01*
X175993055Y-73242906D01*
X175890442Y-73276018D01*
X175753877Y-73275384D01*
X175713631Y-73268192D01*
X175604485Y-73262755D01*
X175548008Y-73294504D01*
X175561148Y-73349983D01*
X175583781Y-73371308D01*
X175724743Y-73432599D01*
X175904993Y-73443787D01*
X176016192Y-73423968D01*
X176167519Y-73356570D01*
X176254734Y-73244846D01*
X176291363Y-73121368D01*
X176293541Y-73004466D01*
X176266666Y-72949814D01*
X176020871Y-72949814D01*
X176018326Y-72954535D01*
X175955794Y-72988956D01*
X175866567Y-72985711D01*
X175795232Y-72951643D01*
X175779545Y-72917896D01*
X175817295Y-72853623D01*
X175848818Y-72840963D01*
X175938808Y-72850115D01*
X176007351Y-72893897D01*
X176020871Y-72949814D01*
X176266666Y-72949814D01*
X176238205Y-72891937D01*
X176195168Y-72837133D01*
X176093778Y-72738064D01*
X175985141Y-72696680D01*
X175874961Y-72690182D01*
X175693695Y-72719209D01*
G36*
X176825529Y-72520060D02*
X176747246Y-72551207D01*
X176673619Y-72611837D01*
X176645191Y-72639823D01*
X176513805Y-72824692D01*
X176471149Y-73019951D01*
X176517354Y-73213689D01*
X176636950Y-73378845D01*
X176754739Y-73461737D01*
X176909236Y-73525160D01*
X177075772Y-73564877D01*
X177229681Y-73576650D01*
X177346293Y-73556240D01*
X177397988Y-73509599D01*
X177408504Y-73440807D01*
X177418782Y-73302631D01*
X177427354Y-73118043D01*
X177431175Y-72990054D01*
X177433488Y-72892227D01*
X177188091Y-72892227D01*
X177176701Y-73136365D01*
X177140576Y-73294774D01*
X177076788Y-73371475D01*
X176982405Y-73370493D01*
X176880371Y-73314714D01*
X176777598Y-73190913D01*
X176750025Y-73025220D01*
X176792407Y-72852207D01*
X176849576Y-72743623D01*
X176921552Y-72698389D01*
X177024098Y-72690182D01*
X177125864Y-72694748D01*
X177173354Y-72725442D01*
X177187260Y-72807757D01*
X177188091Y-72892227D01*
X177433488Y-72892227D01*
X177442091Y-72528545D01*
X177112738Y-72515087D01*
X176937638Y-72510613D01*
X176825529Y-72520060D01*
X176825529Y-72520060D01*
G37*
X176825529Y-72520060D02*
X176747246Y-72551207D01*
X176673619Y-72611837D01*
X176645191Y-72639823D01*
X176513805Y-72824692D01*
X176471149Y-73019951D01*
X176517354Y-73213689D01*
X176636950Y-73378845D01*
X176754739Y-73461737D01*
X176909236Y-73525160D01*
X177075772Y-73564877D01*
X177229681Y-73576650D01*
X177346293Y-73556240D01*
X177397988Y-73509599D01*
X177408504Y-73440807D01*
X177418782Y-73302631D01*
X177427354Y-73118043D01*
X177431175Y-72990054D01*
X177433488Y-72892227D01*
X177188091Y-72892227D01*
X177176701Y-73136365D01*
X177140576Y-73294774D01*
X177076788Y-73371475D01*
X176982405Y-73370493D01*
X176880371Y-73314714D01*
X176777598Y-73190913D01*
X176750025Y-73025220D01*
X176792407Y-72852207D01*
X176849576Y-72743623D01*
X176921552Y-72698389D01*
X177024098Y-72690182D01*
X177125864Y-72694748D01*
X177173354Y-72725442D01*
X177187260Y-72807757D01*
X177188091Y-72892227D01*
X177433488Y-72892227D01*
X177442091Y-72528545D01*
X177112738Y-72515087D01*
X176937638Y-72510613D01*
X176825529Y-72520060D01*
G36*
X170557748Y-73724130D02*
X170503926Y-73776139D01*
X170503050Y-73810115D01*
X170558506Y-73862245D01*
X170649708Y-73884043D01*
X170727495Y-73866728D01*
X170740861Y-73852601D01*
X170736098Y-73791858D01*
X170674825Y-73738823D01*
X170591427Y-73717618D01*
X170557748Y-73724130D01*
X170557748Y-73724130D01*
G37*
X170557748Y-73724130D02*
X170503926Y-73776139D01*
X170503050Y-73810115D01*
X170558506Y-73862245D01*
X170649708Y-73884043D01*
X170727495Y-73866728D01*
X170740861Y-73852601D01*
X170736098Y-73791858D01*
X170674825Y-73738823D01*
X170591427Y-73717618D01*
X170557748Y-73724130D01*
G36*
X170120155Y-72385424D02*
X170106610Y-72401545D01*
X170105379Y-72457920D01*
X170117248Y-72586871D01*
X170140122Y-72769869D01*
X170171906Y-72988386D01*
X170175802Y-73013454D01*
X170209063Y-73253655D01*
X170232595Y-73479143D01*
X170244204Y-73664383D01*
X170241855Y-73782628D01*
X170235108Y-73917867D01*
X170262003Y-73986311D01*
X170285392Y-74000542D01*
X170330674Y-73996719D01*
X170350472Y-73927858D01*
X170353182Y-73848911D01*
X170375311Y-73696899D01*
X170444783Y-73607905D01*
X170484860Y-73575836D01*
X170507984Y-73534880D01*
X170514877Y-73466660D01*
X170506261Y-73352800D01*
X170482859Y-73174922D01*
X170466330Y-73059636D01*
X170433012Y-72847280D01*
X170398878Y-72660302D01*
X170368681Y-72523315D01*
X170352628Y-72470818D01*
X170288216Y-72397227D01*
X170197506Y-72365040D01*
X170120155Y-72385424D01*
X170120155Y-72385424D01*
G37*
X170120155Y-72385424D02*
X170106610Y-72401545D01*
X170105379Y-72457920D01*
X170117248Y-72586871D01*
X170140122Y-72769869D01*
X170171906Y-72988386D01*
X170175802Y-73013454D01*
X170209063Y-73253655D01*
X170232595Y-73479143D01*
X170244204Y-73664383D01*
X170241855Y-73782628D01*
X170235108Y-73917867D01*
X170262003Y-73986311D01*
X170285392Y-74000542D01*
X170330674Y-73996719D01*
X170350472Y-73927858D01*
X170353182Y-73848911D01*
X170375311Y-73696899D01*
X170444783Y-73607905D01*
X170484860Y-73575836D01*
X170507984Y-73534880D01*
X170514877Y-73466660D01*
X170506261Y-73352800D01*
X170482859Y-73174922D01*
X170466330Y-73059636D01*
X170433012Y-72847280D01*
X170398878Y-72660302D01*
X170368681Y-72523315D01*
X170352628Y-72470818D01*
X170288216Y-72397227D01*
X170197506Y-72365040D01*
X170120155Y-72385424D01*
G36*
X170991222Y-73515563D02*
X170930540Y-73550054D01*
X170898212Y-73612931D01*
X170884938Y-73729809D01*
X170882567Y-73814911D01*
X170880745Y-73955717D01*
X170880435Y-74049593D01*
X170881296Y-74073700D01*
X170918756Y-74052211D01*
X171006735Y-74002041D01*
X171022818Y-73992882D01*
X171118119Y-73922686D01*
X171150098Y-73835951D01*
X171148038Y-73752363D01*
X171130317Y-73597523D01*
X171102570Y-73518566D01*
X171053886Y-73499017D01*
X170991222Y-73515563D01*
X170991222Y-73515563D01*
G37*
X170991222Y-73515563D02*
X170930540Y-73550054D01*
X170898212Y-73612931D01*
X170884938Y-73729809D01*
X170882567Y-73814911D01*
X170880745Y-73955717D01*
X170880435Y-74049593D01*
X170881296Y-74073700D01*
X170918756Y-74052211D01*
X171006735Y-74002041D01*
X171022818Y-73992882D01*
X171118119Y-73922686D01*
X171150098Y-73835951D01*
X171148038Y-73752363D01*
X171130317Y-73597523D01*
X171102570Y-73518566D01*
X171053886Y-73499017D01*
X170991222Y-73515563D01*
G36*
X171446217Y-73323009D02*
X171421225Y-73385947D01*
X171380260Y-73566206D01*
X171370976Y-73754625D01*
X171395465Y-73905518D01*
X171397214Y-73910223D01*
X171454947Y-73961844D01*
X171584541Y-73982464D01*
X171629572Y-73983273D01*
X171784018Y-73998419D01*
X171857028Y-74045064D01*
X171860481Y-74052545D01*
X171902999Y-74114166D01*
X171972055Y-74102258D01*
X172009479Y-74080475D01*
X172040527Y-74038996D01*
X172053700Y-73953888D01*
X172050278Y-73807333D01*
X172039309Y-73665546D01*
X172006114Y-73290545D01*
X171837739Y-73289915D01*
X171694984Y-73282234D01*
X171577066Y-73264444D01*
X171571316Y-73262970D01*
X171496892Y-73262083D01*
X171446217Y-73323009D01*
X171446217Y-73323009D01*
G37*
X171446217Y-73323009D02*
X171421225Y-73385947D01*
X171380260Y-73566206D01*
X171370976Y-73754625D01*
X171395465Y-73905518D01*
X171397214Y-73910223D01*
X171454947Y-73961844D01*
X171584541Y-73982464D01*
X171629572Y-73983273D01*
X171784018Y-73998419D01*
X171857028Y-74045064D01*
X171860481Y-74052545D01*
X171902999Y-74114166D01*
X171972055Y-74102258D01*
X172009479Y-74080475D01*
X172040527Y-74038996D01*
X172053700Y-73953888D01*
X172050278Y-73807333D01*
X172039309Y-73665546D01*
X172006114Y-73290545D01*
X171837739Y-73289915D01*
X171694984Y-73282234D01*
X171577066Y-73264444D01*
X171571316Y-73262970D01*
X171496892Y-73262083D01*
X171446217Y-73323009D01*
G36*
X172443039Y-73210714D02*
X172439756Y-73213677D01*
X172352108Y-73273476D01*
X172297058Y-73290545D01*
X172261494Y-73320271D01*
X172268300Y-73418155D01*
X172273097Y-73440636D01*
X172301060Y-73599643D01*
X172318129Y-73752363D01*
X172327108Y-73878407D01*
X172333822Y-73967357D01*
X172334181Y-73971727D01*
X172376710Y-74020955D01*
X172419818Y-74029739D01*
X172518413Y-74050716D01*
X172626854Y-74095867D01*
X172726238Y-74131164D01*
X172779671Y-74118673D01*
X172841488Y-74085783D01*
X172922536Y-74075636D01*
X173002175Y-74063651D01*
X173030643Y-74009125D01*
X173030586Y-73925545D01*
X173025892Y-73773483D01*
X173038517Y-73693474D01*
X173076544Y-73665673D01*
X173135349Y-73668333D01*
X173204525Y-73696534D01*
X173248438Y-73772276D01*
X173278052Y-73897865D01*
X173311250Y-74034503D01*
X173357221Y-74104824D01*
X173432937Y-74134777D01*
X173433026Y-74134794D01*
X173575467Y-74142795D01*
X173681282Y-74113591D01*
X173724401Y-74054580D01*
X173724454Y-74052100D01*
X173766998Y-73983561D01*
X173886541Y-73944384D01*
X173996086Y-73937091D01*
X174138935Y-73969394D01*
X174219507Y-74059004D01*
X174232454Y-74131054D01*
X174245711Y-74178122D01*
X174299163Y-74203418D01*
X174413332Y-74213176D01*
X174506002Y-74214182D01*
X174681348Y-74222349D01*
X174801450Y-74253546D01*
X174902512Y-74317812D01*
X174914035Y-74327344D01*
X175006626Y-74397493D01*
X175064431Y-74409632D01*
X175118755Y-74370271D01*
X175119043Y-74369983D01*
X175262960Y-74289012D01*
X175458044Y-74273337D01*
X175691158Y-74321951D01*
X175948808Y-74433652D01*
X175984569Y-74410865D01*
X176003355Y-74366815D01*
X176024586Y-74277688D01*
X176054889Y-74133242D01*
X176079727Y-74006363D01*
X176111135Y-73846159D01*
X176138423Y-73716311D01*
X176152383Y-73657622D01*
X176149144Y-73618292D01*
X176099472Y-73597776D01*
X175985668Y-73591834D01*
X175884124Y-73593374D01*
X175595752Y-73600777D01*
X175556042Y-73803570D01*
X175526910Y-73943589D01*
X175501103Y-74010053D01*
X175463817Y-74019973D01*
X175400244Y-73990361D01*
X175395622Y-73987887D01*
X175337914Y-73942299D01*
X175325093Y-73871825D01*
X175344383Y-73764782D01*
X175370940Y-73640423D01*
X175385232Y-73554208D01*
X175385939Y-73544545D01*
X175342903Y-73522348D01*
X175222445Y-73506569D01*
X175039381Y-73498857D01*
X174971492Y-73498363D01*
X174788455Y-73501926D01*
X174646532Y-73511467D01*
X174566334Y-73525271D01*
X174555815Y-73533000D01*
X174523973Y-73566908D01*
X174457208Y-73559096D01*
X174398224Y-73517892D01*
X174388464Y-73500353D01*
X174324278Y-73452583D01*
X174239823Y-73456358D01*
X174129731Y-73461578D01*
X173967291Y-73451684D01*
X173816818Y-73432987D01*
X173614949Y-73407779D01*
X173372708Y-73386308D01*
X173142082Y-73373174D01*
X173139261Y-73373074D01*
X172942230Y-73362555D01*
X172811962Y-73343494D01*
X172722883Y-73309458D01*
X172649417Y-73254015D01*
X172643290Y-73248313D01*
X172559648Y-73177324D01*
X172504702Y-73166800D01*
X172443039Y-73210714D01*
X172443039Y-73210714D01*
G37*
X172443039Y-73210714D02*
X172439756Y-73213677D01*
X172352108Y-73273476D01*
X172297058Y-73290545D01*
X172261494Y-73320271D01*
X172268300Y-73418155D01*
X172273097Y-73440636D01*
X172301060Y-73599643D01*
X172318129Y-73752363D01*
X172327108Y-73878407D01*
X172333822Y-73967357D01*
X172334181Y-73971727D01*
X172376710Y-74020955D01*
X172419818Y-74029739D01*
X172518413Y-74050716D01*
X172626854Y-74095867D01*
X172726238Y-74131164D01*
X172779671Y-74118673D01*
X172841488Y-74085783D01*
X172922536Y-74075636D01*
X173002175Y-74063651D01*
X173030643Y-74009125D01*
X173030586Y-73925545D01*
X173025892Y-73773483D01*
X173038517Y-73693474D01*
X173076544Y-73665673D01*
X173135349Y-73668333D01*
X173204525Y-73696534D01*
X173248438Y-73772276D01*
X173278052Y-73897865D01*
X173311250Y-74034503D01*
X173357221Y-74104824D01*
X173432937Y-74134777D01*
X173433026Y-74134794D01*
X173575467Y-74142795D01*
X173681282Y-74113591D01*
X173724401Y-74054580D01*
X173724454Y-74052100D01*
X173766998Y-73983561D01*
X173886541Y-73944384D01*
X173996086Y-73937091D01*
X174138935Y-73969394D01*
X174219507Y-74059004D01*
X174232454Y-74131054D01*
X174245711Y-74178122D01*
X174299163Y-74203418D01*
X174413332Y-74213176D01*
X174506002Y-74214182D01*
X174681348Y-74222349D01*
X174801450Y-74253546D01*
X174902512Y-74317812D01*
X174914035Y-74327344D01*
X175006626Y-74397493D01*
X175064431Y-74409632D01*
X175118755Y-74370271D01*
X175119043Y-74369983D01*
X175262960Y-74289012D01*
X175458044Y-74273337D01*
X175691158Y-74321951D01*
X175948808Y-74433652D01*
X175984569Y-74410865D01*
X176003355Y-74366815D01*
X176024586Y-74277688D01*
X176054889Y-74133242D01*
X176079727Y-74006363D01*
X176111135Y-73846159D01*
X176138423Y-73716311D01*
X176152383Y-73657622D01*
X176149144Y-73618292D01*
X176099472Y-73597776D01*
X175985668Y-73591834D01*
X175884124Y-73593374D01*
X175595752Y-73600777D01*
X175556042Y-73803570D01*
X175526910Y-73943589D01*
X175501103Y-74010053D01*
X175463817Y-74019973D01*
X175400244Y-73990361D01*
X175395622Y-73987887D01*
X175337914Y-73942299D01*
X175325093Y-73871825D01*
X175344383Y-73764782D01*
X175370940Y-73640423D01*
X175385232Y-73554208D01*
X175385939Y-73544545D01*
X175342903Y-73522348D01*
X175222445Y-73506569D01*
X175039381Y-73498857D01*
X174971492Y-73498363D01*
X174788455Y-73501926D01*
X174646532Y-73511467D01*
X174566334Y-73525271D01*
X174555815Y-73533000D01*
X174523973Y-73566908D01*
X174457208Y-73559096D01*
X174398224Y-73517892D01*
X174388464Y-73500353D01*
X174324278Y-73452583D01*
X174239823Y-73456358D01*
X174129731Y-73461578D01*
X173967291Y-73451684D01*
X173816818Y-73432987D01*
X173614949Y-73407779D01*
X173372708Y-73386308D01*
X173142082Y-73373174D01*
X173139261Y-73373074D01*
X172942230Y-73362555D01*
X172811962Y-73343494D01*
X172722883Y-73309458D01*
X172649417Y-73254015D01*
X172643290Y-73248313D01*
X172559648Y-73177324D01*
X172504702Y-73166800D01*
X172443039Y-73210714D01*
G36*
X169007822Y-73945714D02*
X168871788Y-73971689D01*
X168804277Y-74014982D01*
X168809874Y-74059959D01*
X168893165Y-74090983D01*
X168963649Y-74096353D01*
X169075155Y-74113190D01*
X169138236Y-74151158D01*
X169140680Y-74156454D01*
X169118234Y-74201424D01*
X169037812Y-74214182D01*
X168866883Y-74243704D01*
X168756616Y-74319336D01*
X168711695Y-74421674D01*
X168736806Y-74531314D01*
X168836636Y-74628852D01*
X168927462Y-74671142D01*
X169097680Y-74715216D01*
X169225931Y-74706343D01*
X169303517Y-74671757D01*
X169362445Y-74614804D01*
X169337210Y-74569290D01*
X169235904Y-74542106D01*
X169145880Y-74537454D01*
X169020312Y-74520124D01*
X168976330Y-74480269D01*
X169015735Y-74436089D01*
X169132925Y-74406591D01*
X169267609Y-74366434D01*
X169376221Y-74292007D01*
X169428447Y-74205241D01*
X169429545Y-74191983D01*
X169398519Y-74125295D01*
X169323466Y-74038296D01*
X169319549Y-74034582D01*
X169217805Y-73964926D01*
X169091796Y-73942815D01*
X169007822Y-73945714D01*
X169007822Y-73945714D01*
G37*
X169007822Y-73945714D02*
X168871788Y-73971689D01*
X168804277Y-74014982D01*
X168809874Y-74059959D01*
X168893165Y-74090983D01*
X168963649Y-74096353D01*
X169075155Y-74113190D01*
X169138236Y-74151158D01*
X169140680Y-74156454D01*
X169118234Y-74201424D01*
X169037812Y-74214182D01*
X168866883Y-74243704D01*
X168756616Y-74319336D01*
X168711695Y-74421674D01*
X168736806Y-74531314D01*
X168836636Y-74628852D01*
X168927462Y-74671142D01*
X169097680Y-74715216D01*
X169225931Y-74706343D01*
X169303517Y-74671757D01*
X169362445Y-74614804D01*
X169337210Y-74569290D01*
X169235904Y-74542106D01*
X169145880Y-74537454D01*
X169020312Y-74520124D01*
X168976330Y-74480269D01*
X169015735Y-74436089D01*
X169132925Y-74406591D01*
X169267609Y-74366434D01*
X169376221Y-74292007D01*
X169428447Y-74205241D01*
X169429545Y-74191983D01*
X169398519Y-74125295D01*
X169323466Y-74038296D01*
X169319549Y-74034582D01*
X169217805Y-73964926D01*
X169091796Y-73942815D01*
X169007822Y-73945714D01*
G36*
X173553659Y-74639572D02*
X173539727Y-74678725D01*
X173568785Y-74719383D01*
X173627212Y-74704930D01*
X173657081Y-74672927D01*
X173669552Y-74610734D01*
X173662879Y-74599030D01*
X173608864Y-74595548D01*
X173553659Y-74639572D01*
X173553659Y-74639572D01*
G37*
X173553659Y-74639572D02*
X173539727Y-74678725D01*
X173568785Y-74719383D01*
X173627212Y-74704930D01*
X173657081Y-74672927D01*
X173669552Y-74610734D01*
X173662879Y-74599030D01*
X173608864Y-74595548D01*
X173553659Y-74639572D01*
G36*
X169810131Y-73992305D02*
X169659197Y-74017908D01*
X169588118Y-74061815D01*
X169599376Y-74111281D01*
X169695453Y-74153560D01*
X169775909Y-74168000D01*
X169895561Y-74190114D01*
X169951726Y-74233481D01*
X169973163Y-74324006D01*
X169975608Y-74347884D01*
X169965661Y-74486484D01*
X169897469Y-74557175D01*
X169763527Y-74566230D01*
X169721783Y-74560107D01*
X169600316Y-74559210D01*
X169537885Y-74597901D01*
X169547293Y-74661675D01*
X169592953Y-74706097D01*
X169741337Y-74763943D01*
X169917196Y-74762636D01*
X170080330Y-74705880D01*
X170147463Y-74655008D01*
X170243298Y-74500421D01*
X170259942Y-74325809D01*
X170197519Y-74158481D01*
X170144949Y-74094114D01*
X170053255Y-74020699D01*
X169949977Y-73991276D01*
X169810131Y-73992305D01*
X169810131Y-73992305D01*
G37*
X169810131Y-73992305D02*
X169659197Y-74017908D01*
X169588118Y-74061815D01*
X169599376Y-74111281D01*
X169695453Y-74153560D01*
X169775909Y-74168000D01*
X169895561Y-74190114D01*
X169951726Y-74233481D01*
X169973163Y-74324006D01*
X169975608Y-74347884D01*
X169965661Y-74486484D01*
X169897469Y-74557175D01*
X169763527Y-74566230D01*
X169721783Y-74560107D01*
X169600316Y-74559210D01*
X169537885Y-74597901D01*
X169547293Y-74661675D01*
X169592953Y-74706097D01*
X169741337Y-74763943D01*
X169917196Y-74762636D01*
X170080330Y-74705880D01*
X170147463Y-74655008D01*
X170243298Y-74500421D01*
X170259942Y-74325809D01*
X170197519Y-74158481D01*
X170144949Y-74094114D01*
X170053255Y-74020699D01*
X169949977Y-73991276D01*
X169810131Y-73992305D01*
G36*
X170521628Y-74093045D02*
X170489698Y-74219003D01*
X170475743Y-74426107D01*
X170475188Y-74450978D01*
X170475112Y-74629992D01*
X170486023Y-74736055D01*
X170511709Y-74788298D01*
X170545149Y-74804141D01*
X170623571Y-74798316D01*
X170645214Y-74781550D01*
X170661046Y-74719579D01*
X170680672Y-74592098D01*
X170700062Y-74425632D01*
X170701589Y-74410348D01*
X170716105Y-74234581D01*
X170714948Y-74129345D01*
X170695500Y-74073734D01*
X170656147Y-74047223D01*
X170575716Y-74038896D01*
X170521628Y-74093045D01*
X170521628Y-74093045D01*
G37*
X170521628Y-74093045D02*
X170489698Y-74219003D01*
X170475743Y-74426107D01*
X170475188Y-74450978D01*
X170475112Y-74629992D01*
X170486023Y-74736055D01*
X170511709Y-74788298D01*
X170545149Y-74804141D01*
X170623571Y-74798316D01*
X170645214Y-74781550D01*
X170661046Y-74719579D01*
X170680672Y-74592098D01*
X170700062Y-74425632D01*
X170701589Y-74410348D01*
X170716105Y-74234581D01*
X170714948Y-74129345D01*
X170695500Y-74073734D01*
X170656147Y-74047223D01*
X170575716Y-74038896D01*
X170521628Y-74093045D01*
G36*
X174383603Y-74698471D02*
X174383475Y-74747266D01*
X174444050Y-74786513D01*
X174526032Y-74811440D01*
X174553326Y-74787500D01*
X174555727Y-74745273D01*
X174517226Y-74688857D01*
X174463363Y-74676000D01*
X174383603Y-74698471D01*
X174383603Y-74698471D01*
G37*
X174383603Y-74698471D02*
X174383475Y-74747266D01*
X174444050Y-74786513D01*
X174526032Y-74811440D01*
X174553326Y-74787500D01*
X174555727Y-74745273D01*
X174517226Y-74688857D01*
X174463363Y-74676000D01*
X174383603Y-74698471D01*
G36*
X171042284Y-74170010D02*
X170977245Y-74323624D01*
X170950853Y-74473743D01*
X170938033Y-74653201D01*
X170952643Y-74763704D01*
X170980079Y-74810578D01*
X171056053Y-74847547D01*
X171124072Y-74806912D01*
X171170976Y-74703284D01*
X171184454Y-74583636D01*
X171208720Y-74434383D01*
X171272796Y-74339272D01*
X171363597Y-74315007D01*
X171389309Y-74322109D01*
X171436299Y-74383783D01*
X171464280Y-74528644D01*
X171470716Y-74615463D01*
X171485011Y-74774269D01*
X171511447Y-74861121D01*
X171556819Y-74896277D01*
X171565594Y-74898328D01*
X171647239Y-74877778D01*
X171673816Y-74842687D01*
X171688779Y-74762003D01*
X171701284Y-74620420D01*
X171708312Y-74458274D01*
X171715545Y-74144909D01*
X171553909Y-74140256D01*
X171405378Y-74127497D01*
X171276818Y-74103560D01*
X171141003Y-74097948D01*
X171042284Y-74170010D01*
X171042284Y-74170010D01*
G37*
X171042284Y-74170010D02*
X170977245Y-74323624D01*
X170950853Y-74473743D01*
X170938033Y-74653201D01*
X170952643Y-74763704D01*
X170980079Y-74810578D01*
X171056053Y-74847547D01*
X171124072Y-74806912D01*
X171170976Y-74703284D01*
X171184454Y-74583636D01*
X171208720Y-74434383D01*
X171272796Y-74339272D01*
X171363597Y-74315007D01*
X171389309Y-74322109D01*
X171436299Y-74383783D01*
X171464280Y-74528644D01*
X171470716Y-74615463D01*
X171485011Y-74774269D01*
X171511447Y-74861121D01*
X171556819Y-74896277D01*
X171565594Y-74898328D01*
X171647239Y-74877778D01*
X171673816Y-74842687D01*
X171688779Y-74762003D01*
X171701284Y-74620420D01*
X171708312Y-74458274D01*
X171715545Y-74144909D01*
X171553909Y-74140256D01*
X171405378Y-74127497D01*
X171276818Y-74103560D01*
X171141003Y-74097948D01*
X171042284Y-74170010D01*
G36*
X172208090Y-74198430D02*
X172058080Y-74283042D01*
X171955703Y-74419574D01*
X171923363Y-74566750D01*
X171961913Y-74739256D01*
X172063131Y-74866624D01*
X172205369Y-74941425D01*
X172366981Y-74956229D01*
X172526319Y-74903607D01*
X172635076Y-74811002D01*
X172712977Y-74691859D01*
X172753154Y-74578507D01*
X172754636Y-74559577D01*
X172744869Y-74526374D01*
X172489377Y-74526374D01*
X172473718Y-74662487D01*
X172471879Y-74667555D01*
X172417328Y-74746728D01*
X172318785Y-74761348D01*
X172304705Y-74759918D01*
X172206510Y-74727734D01*
X172166301Y-74642477D01*
X172162481Y-74615480D01*
X172176599Y-74474884D01*
X172245494Y-74383901D01*
X172353023Y-74362044D01*
X172445358Y-74416489D01*
X172489377Y-74526374D01*
X172744869Y-74526374D01*
X172713016Y-74418096D01*
X172605071Y-74291113D01*
X172456177Y-74204183D01*
X172382627Y-74184948D01*
X172208090Y-74198430D01*
X172208090Y-74198430D01*
G37*
X172208090Y-74198430D02*
X172058080Y-74283042D01*
X171955703Y-74419574D01*
X171923363Y-74566750D01*
X171961913Y-74739256D01*
X172063131Y-74866624D01*
X172205369Y-74941425D01*
X172366981Y-74956229D01*
X172526319Y-74903607D01*
X172635076Y-74811002D01*
X172712977Y-74691859D01*
X172753154Y-74578507D01*
X172754636Y-74559577D01*
X172744869Y-74526374D01*
X172489377Y-74526374D01*
X172473718Y-74662487D01*
X172471879Y-74667555D01*
X172417328Y-74746728D01*
X172318785Y-74761348D01*
X172304705Y-74759918D01*
X172206510Y-74727734D01*
X172166301Y-74642477D01*
X172162481Y-74615480D01*
X172176599Y-74474884D01*
X172245494Y-74383901D01*
X172353023Y-74362044D01*
X172445358Y-74416489D01*
X172489377Y-74526374D01*
X172744869Y-74526374D01*
X172713016Y-74418096D01*
X172605071Y-74291113D01*
X172456177Y-74204183D01*
X172382627Y-74184948D01*
X172208090Y-74198430D01*
G36*
X172888204Y-74287916D02*
X172879573Y-74354732D01*
X172904158Y-74387812D01*
X172998336Y-74436752D01*
X173054818Y-74452885D01*
X173111078Y-74478454D01*
X173138789Y-74543169D01*
X173147055Y-74671419D01*
X173147182Y-74700309D01*
X173161464Y-74899320D01*
X173203706Y-75014891D01*
X173259707Y-75045454D01*
X173318858Y-75014023D01*
X173344390Y-74987727D01*
X173370159Y-74914815D01*
X173392870Y-74778815D01*
X173407656Y-74608986D01*
X173407772Y-74606727D01*
X173424273Y-74283454D01*
X173262636Y-74276881D01*
X173130717Y-74263965D01*
X173031341Y-74241617D01*
X173027581Y-74240143D01*
X172945965Y-74239640D01*
X172888204Y-74287916D01*
X172888204Y-74287916D01*
G37*
X172888204Y-74287916D02*
X172879573Y-74354732D01*
X172904158Y-74387812D01*
X172998336Y-74436752D01*
X173054818Y-74452885D01*
X173111078Y-74478454D01*
X173138789Y-74543169D01*
X173147055Y-74671419D01*
X173147182Y-74700309D01*
X173161464Y-74899320D01*
X173203706Y-75014891D01*
X173259707Y-75045454D01*
X173318858Y-75014023D01*
X173344390Y-74987727D01*
X173370159Y-74914815D01*
X173392870Y-74778815D01*
X173407656Y-74608986D01*
X173407772Y-74606727D01*
X173424273Y-74283454D01*
X173262636Y-74276881D01*
X173130717Y-74263965D01*
X173031341Y-74241617D01*
X173027581Y-74240143D01*
X172945965Y-74239640D01*
X172888204Y-74287916D01*
G36*
X173882355Y-74149837D02*
X173876381Y-74168000D01*
X173832404Y-74243014D01*
X173793996Y-74260363D01*
X173718474Y-74292741D01*
X173676333Y-74331974D01*
X173644762Y-74390227D01*
X173691004Y-74422366D01*
X173716860Y-74429723D01*
X173786324Y-74468525D01*
X173813643Y-74554234D01*
X173816111Y-74623659D01*
X173802468Y-74777611D01*
X173753394Y-74869055D01*
X173655182Y-74925121D01*
X173590867Y-74954787D01*
X173602838Y-74987377D01*
X173652463Y-75025662D01*
X173732590Y-75077175D01*
X173797298Y-75080574D01*
X173863000Y-75059587D01*
X173979981Y-74971525D01*
X174040439Y-74816673D01*
X174047727Y-74722182D01*
X174065138Y-74584022D01*
X174107468Y-74473756D01*
X174111607Y-74467747D01*
X174149877Y-74362841D01*
X174138069Y-74308829D01*
X174090425Y-74199200D01*
X174075639Y-74156454D01*
X174019824Y-74087169D01*
X173942505Y-74085711D01*
X173882355Y-74149837D01*
X173882355Y-74149837D01*
G37*
X173882355Y-74149837D02*
X173876381Y-74168000D01*
X173832404Y-74243014D01*
X173793996Y-74260363D01*
X173718474Y-74292741D01*
X173676333Y-74331974D01*
X173644762Y-74390227D01*
X173691004Y-74422366D01*
X173716860Y-74429723D01*
X173786324Y-74468525D01*
X173813643Y-74554234D01*
X173816111Y-74623659D01*
X173802468Y-74777611D01*
X173753394Y-74869055D01*
X173655182Y-74925121D01*
X173590867Y-74954787D01*
X173602838Y-74987377D01*
X173652463Y-75025662D01*
X173732590Y-75077175D01*
X173797298Y-75080574D01*
X173863000Y-75059587D01*
X173979981Y-74971525D01*
X174040439Y-74816673D01*
X174047727Y-74722182D01*
X174065138Y-74584022D01*
X174107468Y-74473756D01*
X174111607Y-74467747D01*
X174149877Y-74362841D01*
X174138069Y-74308829D01*
X174090425Y-74199200D01*
X174075639Y-74156454D01*
X174019824Y-74087169D01*
X173942505Y-74085711D01*
X173882355Y-74149837D01*
G36*
X174479765Y-74361195D02*
X174345690Y-74390655D01*
X174296420Y-74439472D01*
X174331358Y-74491835D01*
X174449901Y-74531934D01*
X174486454Y-74537454D01*
X174607755Y-74561092D01*
X174664970Y-74605751D01*
X174686064Y-74690338D01*
X174673204Y-74838934D01*
X174596135Y-74922142D01*
X174459024Y-74935944D01*
X174435290Y-74932112D01*
X174309705Y-74928859D01*
X174248219Y-74970073D01*
X174262168Y-75045625D01*
X174280315Y-75070568D01*
X174380737Y-75127472D01*
X174527158Y-75140560D01*
X174685798Y-75112564D01*
X174822879Y-75046217D01*
X174849165Y-75024569D01*
X174928039Y-74911712D01*
X174971490Y-74771845D01*
X174972701Y-74640800D01*
X174936727Y-74564394D01*
X174903040Y-74489338D01*
X174902091Y-74475879D01*
X174870734Y-74422156D01*
X174855909Y-74418011D01*
X174776185Y-74397068D01*
X174733765Y-74380298D01*
X174639109Y-74361703D01*
X174504386Y-74359535D01*
X174479765Y-74361195D01*
X174479765Y-74361195D01*
G37*
X174479765Y-74361195D02*
X174345690Y-74390655D01*
X174296420Y-74439472D01*
X174331358Y-74491835D01*
X174449901Y-74531934D01*
X174486454Y-74537454D01*
X174607755Y-74561092D01*
X174664970Y-74605751D01*
X174686064Y-74690338D01*
X174673204Y-74838934D01*
X174596135Y-74922142D01*
X174459024Y-74935944D01*
X174435290Y-74932112D01*
X174309705Y-74928859D01*
X174248219Y-74970073D01*
X174262168Y-75045625D01*
X174280315Y-75070568D01*
X174380737Y-75127472D01*
X174527158Y-75140560D01*
X174685798Y-75112564D01*
X174822879Y-75046217D01*
X174849165Y-75024569D01*
X174928039Y-74911712D01*
X174971490Y-74771845D01*
X174972701Y-74640800D01*
X174936727Y-74564394D01*
X174903040Y-74489338D01*
X174902091Y-74475879D01*
X174870734Y-74422156D01*
X174855909Y-74418011D01*
X174776185Y-74397068D01*
X174733765Y-74380298D01*
X174639109Y-74361703D01*
X174504386Y-74359535D01*
X174479765Y-74361195D01*
G36*
X175340557Y-74440305D02*
X175311753Y-74453488D01*
X175167058Y-74553241D01*
X175109650Y-74657184D01*
X175136287Y-74751200D01*
X175243724Y-74821177D01*
X175403276Y-74851712D01*
X175552446Y-74874265D01*
X175615867Y-74915956D01*
X175617909Y-74927144D01*
X175577231Y-74987592D01*
X175473176Y-75021528D01*
X175332715Y-75021637D01*
X175293371Y-75015183D01*
X175187008Y-75013772D01*
X175132729Y-75049765D01*
X175148114Y-75107575D01*
X175168145Y-75126217D01*
X175309923Y-75187699D01*
X175491752Y-75198238D01*
X175604294Y-75177908D01*
X175767169Y-75094148D01*
X175863791Y-74967153D01*
X175894397Y-74817798D01*
X175859224Y-74666960D01*
X175857304Y-74664454D01*
X175606363Y-74664454D01*
X175583630Y-74709363D01*
X175502454Y-74722182D01*
X175412540Y-74704508D01*
X175398545Y-74664454D01*
X175454825Y-74615491D01*
X175502454Y-74606727D01*
X175583349Y-74633971D01*
X175606363Y-74664454D01*
X175857304Y-74664454D01*
X175758509Y-74535513D01*
X175595986Y-74445476D01*
X175456706Y-74416117D01*
X175340557Y-74440305D01*
X175340557Y-74440305D01*
G37*
X175340557Y-74440305D02*
X175311753Y-74453488D01*
X175167058Y-74553241D01*
X175109650Y-74657184D01*
X175136287Y-74751200D01*
X175243724Y-74821177D01*
X175403276Y-74851712D01*
X175552446Y-74874265D01*
X175615867Y-74915956D01*
X175617909Y-74927144D01*
X175577231Y-74987592D01*
X175473176Y-75021528D01*
X175332715Y-75021637D01*
X175293371Y-75015183D01*
X175187008Y-75013772D01*
X175132729Y-75049765D01*
X175148114Y-75107575D01*
X175168145Y-75126217D01*
X175309923Y-75187699D01*
X175491752Y-75198238D01*
X175604294Y-75177908D01*
X175767169Y-75094148D01*
X175863791Y-74967153D01*
X175894397Y-74817798D01*
X175859224Y-74666960D01*
X175857304Y-74664454D01*
X175606363Y-74664454D01*
X175583630Y-74709363D01*
X175502454Y-74722182D01*
X175412540Y-74704508D01*
X175398545Y-74664454D01*
X175454825Y-74615491D01*
X175502454Y-74606727D01*
X175583349Y-74633971D01*
X175606363Y-74664454D01*
X175857304Y-74664454D01*
X175758509Y-74535513D01*
X175595986Y-74445476D01*
X175456706Y-74416117D01*
X175340557Y-74440305D01*
G36*
X176169974Y-74193641D02*
X176143805Y-74264790D01*
X176116437Y-74402238D01*
X176090499Y-74581246D01*
X176068622Y-74777074D01*
X176053438Y-74964982D01*
X176047577Y-75120229D01*
X176053670Y-75218076D01*
X176059297Y-75234487D01*
X176129404Y-75274564D01*
X176224295Y-75261693D01*
X176298690Y-75203107D01*
X176302986Y-75195545D01*
X176324262Y-75115959D01*
X176346887Y-74969027D01*
X176367399Y-74779645D01*
X176376450Y-74667453D01*
X176389710Y-74459865D01*
X176392524Y-74325344D01*
X176382660Y-74244958D01*
X176357887Y-74199775D01*
X176318052Y-74171969D01*
X176229559Y-74150210D01*
X176169974Y-74193641D01*
X176169974Y-74193641D01*
G37*
X176169974Y-74193641D02*
X176143805Y-74264790D01*
X176116437Y-74402238D01*
X176090499Y-74581246D01*
X176068622Y-74777074D01*
X176053438Y-74964982D01*
X176047577Y-75120229D01*
X176053670Y-75218076D01*
X176059297Y-75234487D01*
X176129404Y-75274564D01*
X176224295Y-75261693D01*
X176298690Y-75203107D01*
X176302986Y-75195545D01*
X176324262Y-75115959D01*
X176346887Y-74969027D01*
X176367399Y-74779645D01*
X176376450Y-74667453D01*
X176389710Y-74459865D01*
X176392524Y-74325344D01*
X176382660Y-74244958D01*
X176357887Y-74199775D01*
X176318052Y-74171969D01*
X176229559Y-74150210D01*
X176169974Y-74193641D01*
G36*
X176887936Y-74271767D02*
X176760418Y-74286061D01*
X176680271Y-74313697D01*
X176668014Y-74329636D01*
X176701538Y-74366458D01*
X176798943Y-74405343D01*
X176853273Y-74419324D01*
X176980178Y-74456669D01*
X177037843Y-74505191D01*
X177049545Y-74566760D01*
X177035366Y-74635556D01*
X176976227Y-74670058D01*
X176864003Y-74684890D01*
X176728958Y-74708479D01*
X176678395Y-74745498D01*
X176714457Y-74785868D01*
X176835511Y-74818904D01*
X176972487Y-74848130D01*
X177035620Y-74889853D01*
X177043215Y-74962907D01*
X177031121Y-75020213D01*
X177000541Y-75094919D01*
X176939478Y-75129088D01*
X176818655Y-75137772D01*
X176802362Y-75137818D01*
X176644127Y-75147314D01*
X176570329Y-75178233D01*
X176574769Y-75234224D01*
X176593783Y-75260569D01*
X176678281Y-75300447D01*
X176843549Y-75320476D01*
X176937579Y-75322545D01*
X177097415Y-75320302D01*
X177191830Y-75305612D01*
X177247764Y-75266531D01*
X177292157Y-75191116D01*
X177307824Y-75158415D01*
X177350309Y-75011386D01*
X177366087Y-74827772D01*
X177357249Y-74636351D01*
X177325889Y-74465904D01*
X177274100Y-74345208D01*
X177246563Y-74316129D01*
X177161823Y-74286081D01*
X177032009Y-74271534D01*
X176887936Y-74271767D01*
X176887936Y-74271767D01*
G37*
X176887936Y-74271767D02*
X176760418Y-74286061D01*
X176680271Y-74313697D01*
X176668014Y-74329636D01*
X176701538Y-74366458D01*
X176798943Y-74405343D01*
X176853273Y-74419324D01*
X176980178Y-74456669D01*
X177037843Y-74505191D01*
X177049545Y-74566760D01*
X177035366Y-74635556D01*
X176976227Y-74670058D01*
X176864003Y-74684890D01*
X176728958Y-74708479D01*
X176678395Y-74745498D01*
X176714457Y-74785868D01*
X176835511Y-74818904D01*
X176972487Y-74848130D01*
X177035620Y-74889853D01*
X177043215Y-74962907D01*
X177031121Y-75020213D01*
X177000541Y-75094919D01*
X176939478Y-75129088D01*
X176818655Y-75137772D01*
X176802362Y-75137818D01*
X176644127Y-75147314D01*
X176570329Y-75178233D01*
X176574769Y-75234224D01*
X176593783Y-75260569D01*
X176678281Y-75300447D01*
X176843549Y-75320476D01*
X176937579Y-75322545D01*
X177097415Y-75320302D01*
X177191830Y-75305612D01*
X177247764Y-75266531D01*
X177292157Y-75191116D01*
X177307824Y-75158415D01*
X177350309Y-75011386D01*
X177366087Y-74827772D01*
X177357249Y-74636351D01*
X177325889Y-74465904D01*
X177274100Y-74345208D01*
X177246563Y-74316129D01*
X177161823Y-74286081D01*
X177032009Y-74271534D01*
X176887936Y-74271767D01*
G36*
X172907847Y-74623289D02*
X172879034Y-74710636D01*
X172826526Y-74843107D01*
X172762483Y-74934594D01*
X172718444Y-74992369D01*
X172693917Y-75063989D01*
X172685860Y-75172370D01*
X172691228Y-75340430D01*
X172696550Y-75431049D01*
X172703463Y-75611801D01*
X172700265Y-75748404D01*
X172687773Y-75820932D01*
X172680328Y-75827536D01*
X172621225Y-75806818D01*
X172504087Y-75755074D01*
X172353233Y-75683095D01*
X172339000Y-75676075D01*
X172038818Y-75527625D01*
X172009121Y-75285677D01*
X171981604Y-75134068D01*
X171944179Y-75014423D01*
X171922223Y-74974807D01*
X171870543Y-74931592D01*
X171822060Y-74963506D01*
X171803298Y-74987215D01*
X171758730Y-75090748D01*
X171740105Y-75218636D01*
X171732467Y-75320874D01*
X171715841Y-75368315D01*
X171714010Y-75368727D01*
X171653401Y-75347806D01*
X171540887Y-75294783D01*
X171404244Y-75224272D01*
X171271247Y-75150885D01*
X171169673Y-75089235D01*
X171136329Y-75064812D01*
X171053330Y-75026878D01*
X170912855Y-74993781D01*
X170789965Y-74977351D01*
X170658137Y-74968800D01*
X170584837Y-74971072D01*
X170584091Y-74982404D01*
X170669493Y-75029261D01*
X170779040Y-75100450D01*
X170781108Y-75101896D01*
X170864214Y-75151302D01*
X171017119Y-75233832D01*
X171226300Y-75342751D01*
X171478235Y-75471325D01*
X171759401Y-75612821D01*
X172056275Y-75760505D01*
X172355335Y-75907643D01*
X172643058Y-76047501D01*
X172905921Y-76173347D01*
X173130401Y-76278445D01*
X173276253Y-76344378D01*
X173489768Y-76429994D01*
X173682154Y-76491796D01*
X173826577Y-76521485D01*
X173853526Y-76522920D01*
X173949732Y-76508761D01*
X174081763Y-76463238D01*
X174261117Y-76381273D01*
X174499289Y-76257788D01*
X174689730Y-76153606D01*
X175056252Y-75946573D01*
X175342150Y-75775876D01*
X175550326Y-75638432D01*
X175683684Y-75531156D01*
X175745129Y-75450962D01*
X175737564Y-75394767D01*
X175663893Y-75359486D01*
X175527018Y-75342035D01*
X175456225Y-75339376D01*
X175229343Y-75319606D01*
X175068958Y-75273310D01*
X175040126Y-75257185D01*
X174929519Y-75208278D01*
X174835383Y-75228809D01*
X174699199Y-75266493D01*
X174519660Y-75273268D01*
X174339977Y-75250440D01*
X174222329Y-75210282D01*
X174101149Y-75169338D01*
X173976753Y-75190325D01*
X173957690Y-75197258D01*
X173806413Y-75226565D01*
X173631933Y-75199914D01*
X173511303Y-75177401D01*
X173432860Y-75180737D01*
X173421417Y-75188620D01*
X173412700Y-75253103D01*
X173416139Y-75376686D01*
X173424479Y-75471124D01*
X173453043Y-75725707D01*
X173475068Y-75901897D01*
X173493638Y-76013162D01*
X173511841Y-76072970D01*
X173532761Y-76094790D01*
X173559485Y-76092089D01*
X173566194Y-76089640D01*
X173623161Y-76087743D01*
X173624098Y-76128463D01*
X173571223Y-76182737D01*
X173558506Y-76190409D01*
X173465419Y-76198122D01*
X173310344Y-76148358D01*
X173242216Y-76118019D01*
X172999511Y-76004450D01*
X172948652Y-75536501D01*
X172927455Y-75296300D01*
X172923064Y-75125820D01*
X172935606Y-75034371D01*
X172941669Y-75024676D01*
X172968304Y-74958298D01*
X172982346Y-74847315D01*
X172983529Y-74725422D01*
X172971588Y-74626316D01*
X172946260Y-74583691D01*
X172945136Y-74583636D01*
X172907847Y-74623289D01*
X172907847Y-74623289D01*
G37*
X172907847Y-74623289D02*
X172879034Y-74710636D01*
X172826526Y-74843107D01*
X172762483Y-74934594D01*
X172718444Y-74992369D01*
X172693917Y-75063989D01*
X172685860Y-75172370D01*
X172691228Y-75340430D01*
X172696550Y-75431049D01*
X172703463Y-75611801D01*
X172700265Y-75748404D01*
X172687773Y-75820932D01*
X172680328Y-75827536D01*
X172621225Y-75806818D01*
X172504087Y-75755074D01*
X172353233Y-75683095D01*
X172339000Y-75676075D01*
X172038818Y-75527625D01*
X172009121Y-75285677D01*
X171981604Y-75134068D01*
X171944179Y-75014423D01*
X171922223Y-74974807D01*
X171870543Y-74931592D01*
X171822060Y-74963506D01*
X171803298Y-74987215D01*
X171758730Y-75090748D01*
X171740105Y-75218636D01*
X171732467Y-75320874D01*
X171715841Y-75368315D01*
X171714010Y-75368727D01*
X171653401Y-75347806D01*
X171540887Y-75294783D01*
X171404244Y-75224272D01*
X171271247Y-75150885D01*
X171169673Y-75089235D01*
X171136329Y-75064812D01*
X171053330Y-75026878D01*
X170912855Y-74993781D01*
X170789965Y-74977351D01*
X170658137Y-74968800D01*
X170584837Y-74971072D01*
X170584091Y-74982404D01*
X170669493Y-75029261D01*
X170779040Y-75100450D01*
X170781108Y-75101896D01*
X170864214Y-75151302D01*
X171017119Y-75233832D01*
X171226300Y-75342751D01*
X171478235Y-75471325D01*
X171759401Y-75612821D01*
X172056275Y-75760505D01*
X172355335Y-75907643D01*
X172643058Y-76047501D01*
X172905921Y-76173347D01*
X173130401Y-76278445D01*
X173276253Y-76344378D01*
X173489768Y-76429994D01*
X173682154Y-76491796D01*
X173826577Y-76521485D01*
X173853526Y-76522920D01*
X173949732Y-76508761D01*
X174081763Y-76463238D01*
X174261117Y-76381273D01*
X174499289Y-76257788D01*
X174689730Y-76153606D01*
X175056252Y-75946573D01*
X175342150Y-75775876D01*
X175550326Y-75638432D01*
X175683684Y-75531156D01*
X175745129Y-75450962D01*
X175737564Y-75394767D01*
X175663893Y-75359486D01*
X175527018Y-75342035D01*
X175456225Y-75339376D01*
X175229343Y-75319606D01*
X175068958Y-75273310D01*
X175040126Y-75257185D01*
X174929519Y-75208278D01*
X174835383Y-75228809D01*
X174699199Y-75266493D01*
X174519660Y-75273268D01*
X174339977Y-75250440D01*
X174222329Y-75210282D01*
X174101149Y-75169338D01*
X173976753Y-75190325D01*
X173957690Y-75197258D01*
X173806413Y-75226565D01*
X173631933Y-75199914D01*
X173511303Y-75177401D01*
X173432860Y-75180737D01*
X173421417Y-75188620D01*
X173412700Y-75253103D01*
X173416139Y-75376686D01*
X173424479Y-75471124D01*
X173453043Y-75725707D01*
X173475068Y-75901897D01*
X173493638Y-76013162D01*
X173511841Y-76072970D01*
X173532761Y-76094790D01*
X173559485Y-76092089D01*
X173566194Y-76089640D01*
X173623161Y-76087743D01*
X173624098Y-76128463D01*
X173571223Y-76182737D01*
X173558506Y-76190409D01*
X173465419Y-76198122D01*
X173310344Y-76148358D01*
X173242216Y-76118019D01*
X172999511Y-76004450D01*
X172948652Y-75536501D01*
X172927455Y-75296300D01*
X172923064Y-75125820D01*
X172935606Y-75034371D01*
X172941669Y-75024676D01*
X172968304Y-74958298D01*
X172982346Y-74847315D01*
X172983529Y-74725422D01*
X172971588Y-74626316D01*
X172946260Y-74583691D01*
X172945136Y-74583636D01*
X172907847Y-74623289D01*
G04 #@! TD*
M02*
