G04 #@! TF.GenerationSoftware,KiCad,Pcbnew,(5.0.1)-rc2*
G04 #@! TF.CreationDate,2019-06-29T00:56:30-07:00*
G04 #@! TF.ProjectId,DB9_Switcher,4442395F53776974636865722E6B6963,rev?*
G04 #@! TF.SameCoordinates,Original*
G04 #@! TF.FileFunction,Soldermask,Bot*
G04 #@! TF.FilePolarity,Negative*
%FSLAX46Y46*%
G04 Gerber Fmt 4.6, Leading zero omitted, Abs format (unit mm)*
G04 Created by KiCad (PCBNEW (5.0.1)-rc2) date 6/29/2019 12:56:30 AM*
%MOMM*%
%LPD*%
G01*
G04 APERTURE LIST*
%ADD10C,0.100000*%
G04 APERTURE END LIST*
D10*
G36*
X131653734Y-94651232D02*
X131863202Y-94737996D01*
X132051723Y-94863962D01*
X132212038Y-95024277D01*
X132338004Y-95212798D01*
X132424768Y-95422266D01*
X132469000Y-95644635D01*
X132469000Y-95871365D01*
X132424768Y-96093734D01*
X132338004Y-96303202D01*
X132212038Y-96491723D01*
X132051723Y-96652038D01*
X131863202Y-96778004D01*
X131653734Y-96864768D01*
X131431365Y-96909000D01*
X131204635Y-96909000D01*
X130982266Y-96864768D01*
X130772798Y-96778004D01*
X130584277Y-96652038D01*
X130423962Y-96491723D01*
X130297996Y-96303202D01*
X130211232Y-96093734D01*
X130167000Y-95871365D01*
X130167000Y-95644635D01*
X130211232Y-95422266D01*
X130297996Y-95212798D01*
X130423962Y-95024277D01*
X130584277Y-94863962D01*
X130772798Y-94737996D01*
X130982266Y-94651232D01*
X131204635Y-94607000D01*
X131431365Y-94607000D01*
X131653734Y-94651232D01*
X131653734Y-94651232D01*
G37*
G36*
X154513734Y-93889232D02*
X154723202Y-93975996D01*
X154911723Y-94101962D01*
X155072038Y-94262277D01*
X155198004Y-94450798D01*
X155284768Y-94660266D01*
X155329000Y-94882635D01*
X155329000Y-95109365D01*
X155284768Y-95331734D01*
X155198004Y-95541202D01*
X155072038Y-95729723D01*
X154911723Y-95890038D01*
X154723202Y-96016004D01*
X154513734Y-96102768D01*
X154291365Y-96147000D01*
X154064635Y-96147000D01*
X153842266Y-96102768D01*
X153632798Y-96016004D01*
X153444277Y-95890038D01*
X153283962Y-95729723D01*
X153157996Y-95541202D01*
X153071232Y-95331734D01*
X153027000Y-95109365D01*
X153027000Y-94882635D01*
X153071232Y-94660266D01*
X153157996Y-94450798D01*
X153283962Y-94262277D01*
X153444277Y-94101962D01*
X153632798Y-93975996D01*
X153842266Y-93889232D01*
X154064635Y-93845000D01*
X154291365Y-93845000D01*
X154513734Y-93889232D01*
X154513734Y-93889232D01*
G37*
G36*
X139273734Y-93889232D02*
X139483202Y-93975996D01*
X139671723Y-94101962D01*
X139832038Y-94262277D01*
X139958004Y-94450798D01*
X140044768Y-94660266D01*
X140089000Y-94882635D01*
X140089000Y-95109365D01*
X140044768Y-95331734D01*
X139958004Y-95541202D01*
X139832038Y-95729723D01*
X139671723Y-95890038D01*
X139483202Y-96016004D01*
X139273734Y-96102768D01*
X139051365Y-96147000D01*
X138824635Y-96147000D01*
X138602266Y-96102768D01*
X138392798Y-96016004D01*
X138204277Y-95890038D01*
X138043962Y-95729723D01*
X137917996Y-95541202D01*
X137831232Y-95331734D01*
X137787000Y-95109365D01*
X137787000Y-94882635D01*
X137831232Y-94660266D01*
X137917996Y-94450798D01*
X138043962Y-94262277D01*
X138204277Y-94101962D01*
X138392798Y-93975996D01*
X138602266Y-93889232D01*
X138824635Y-93845000D01*
X139051365Y-93845000D01*
X139273734Y-93889232D01*
X139273734Y-93889232D01*
G37*
G36*
X149433734Y-93889232D02*
X149643202Y-93975996D01*
X149831723Y-94101962D01*
X149992038Y-94262277D01*
X150118004Y-94450798D01*
X150204768Y-94660266D01*
X150249000Y-94882635D01*
X150249000Y-95109365D01*
X150204768Y-95331734D01*
X150118004Y-95541202D01*
X149992038Y-95729723D01*
X149831723Y-95890038D01*
X149643202Y-96016004D01*
X149433734Y-96102768D01*
X149211365Y-96147000D01*
X148984635Y-96147000D01*
X148762266Y-96102768D01*
X148552798Y-96016004D01*
X148364277Y-95890038D01*
X148203962Y-95729723D01*
X148077996Y-95541202D01*
X147991232Y-95331734D01*
X147947000Y-95109365D01*
X147947000Y-94882635D01*
X147991232Y-94660266D01*
X148077996Y-94450798D01*
X148203962Y-94262277D01*
X148364277Y-94101962D01*
X148552798Y-93975996D01*
X148762266Y-93889232D01*
X148984635Y-93845000D01*
X149211365Y-93845000D01*
X149433734Y-93889232D01*
X149433734Y-93889232D01*
G37*
G36*
X144353734Y-93889232D02*
X144563202Y-93975996D01*
X144751723Y-94101962D01*
X144912038Y-94262277D01*
X145038004Y-94450798D01*
X145124768Y-94660266D01*
X145169000Y-94882635D01*
X145169000Y-95109365D01*
X145124768Y-95331734D01*
X145038004Y-95541202D01*
X144912038Y-95729723D01*
X144751723Y-95890038D01*
X144563202Y-96016004D01*
X144353734Y-96102768D01*
X144131365Y-96147000D01*
X143904635Y-96147000D01*
X143682266Y-96102768D01*
X143472798Y-96016004D01*
X143284277Y-95890038D01*
X143123962Y-95729723D01*
X142997996Y-95541202D01*
X142911232Y-95331734D01*
X142867000Y-95109365D01*
X142867000Y-94882635D01*
X142911232Y-94660266D01*
X142997996Y-94450798D01*
X143123962Y-94262277D01*
X143284277Y-94101962D01*
X143472798Y-93975996D01*
X143682266Y-93889232D01*
X143904635Y-93845000D01*
X144131365Y-93845000D01*
X144353734Y-93889232D01*
X144353734Y-93889232D01*
G37*
G36*
X167499252Y-91950318D02*
X167499254Y-91950319D01*
X167499255Y-91950319D01*
X167872513Y-92104927D01*
X167872514Y-92104928D01*
X168208439Y-92329386D01*
X168494114Y-92615061D01*
X168494116Y-92615064D01*
X168718573Y-92950987D01*
X168873181Y-93324245D01*
X168873182Y-93324248D01*
X168952000Y-93720493D01*
X168952000Y-94124507D01*
X168887097Y-94450798D01*
X168873181Y-94520755D01*
X168718573Y-94894013D01*
X168718572Y-94894014D01*
X168494114Y-95229939D01*
X168208439Y-95515614D01*
X168208436Y-95515616D01*
X167872513Y-95740073D01*
X167499255Y-95894681D01*
X167499254Y-95894681D01*
X167499252Y-95894682D01*
X167103007Y-95973500D01*
X166698993Y-95973500D01*
X166302748Y-95894682D01*
X166302746Y-95894681D01*
X166302745Y-95894681D01*
X165929487Y-95740073D01*
X165593564Y-95515616D01*
X165593561Y-95515614D01*
X165307886Y-95229939D01*
X165083428Y-94894014D01*
X165083427Y-94894013D01*
X164928819Y-94520755D01*
X164914904Y-94450798D01*
X164850000Y-94124507D01*
X164850000Y-93720493D01*
X164928818Y-93324248D01*
X164928819Y-93324245D01*
X165083427Y-92950987D01*
X165307884Y-92615064D01*
X165307886Y-92615061D01*
X165593561Y-92329386D01*
X165929486Y-92104928D01*
X165929487Y-92104927D01*
X166302745Y-91950319D01*
X166302746Y-91950319D01*
X166302748Y-91950318D01*
X166698993Y-91871500D01*
X167103007Y-91871500D01*
X167499252Y-91950318D01*
X167499252Y-91950318D01*
G37*
G36*
X125289252Y-91759818D02*
X125289254Y-91759819D01*
X125289255Y-91759819D01*
X125662513Y-91914427D01*
X125716229Y-91950319D01*
X125998439Y-92138886D01*
X126284114Y-92424561D01*
X126284116Y-92424564D01*
X126508573Y-92760487D01*
X126587480Y-92950986D01*
X126663182Y-93133748D01*
X126742000Y-93529993D01*
X126742000Y-93934007D01*
X126708592Y-94101962D01*
X126663181Y-94330255D01*
X126508573Y-94703513D01*
X126381285Y-94894013D01*
X126284114Y-95039439D01*
X125998439Y-95325114D01*
X125998436Y-95325116D01*
X125662513Y-95549573D01*
X125289255Y-95704181D01*
X125289254Y-95704181D01*
X125289252Y-95704182D01*
X124893007Y-95783000D01*
X124488993Y-95783000D01*
X124092748Y-95704182D01*
X124092746Y-95704181D01*
X124092745Y-95704181D01*
X123719487Y-95549573D01*
X123383564Y-95325116D01*
X123383561Y-95325114D01*
X123097886Y-95039439D01*
X123000715Y-94894013D01*
X122873427Y-94703513D01*
X122718819Y-94330255D01*
X122673409Y-94101962D01*
X122640000Y-93934007D01*
X122640000Y-93529993D01*
X122718818Y-93133748D01*
X122794520Y-92950986D01*
X122873427Y-92760487D01*
X123097884Y-92424564D01*
X123097886Y-92424561D01*
X123383561Y-92138886D01*
X123665771Y-91950319D01*
X123719487Y-91914427D01*
X124092745Y-91759819D01*
X124092746Y-91759819D01*
X124092748Y-91759818D01*
X124488993Y-91681000D01*
X124893007Y-91681000D01*
X125289252Y-91759818D01*
X125289252Y-91759818D01*
G37*
G36*
X140614500Y-89624000D02*
X138912500Y-89624000D01*
X138912500Y-87922000D01*
X140614500Y-87922000D01*
X140614500Y-89624000D01*
X140614500Y-89624000D01*
G37*
G36*
X143211728Y-87954703D02*
X143366600Y-88018853D01*
X143505981Y-88111985D01*
X143624515Y-88230519D01*
X143717647Y-88369900D01*
X143781797Y-88524772D01*
X143814500Y-88689184D01*
X143814500Y-88856816D01*
X143781797Y-89021228D01*
X143717647Y-89176100D01*
X143624515Y-89315481D01*
X143505981Y-89434015D01*
X143366600Y-89527147D01*
X143211728Y-89591297D01*
X143047316Y-89624000D01*
X142879684Y-89624000D01*
X142715272Y-89591297D01*
X142560400Y-89527147D01*
X142421019Y-89434015D01*
X142302485Y-89315481D01*
X142209353Y-89176100D01*
X142145203Y-89021228D01*
X142112500Y-88856816D01*
X142112500Y-88689184D01*
X142145203Y-88524772D01*
X142209353Y-88369900D01*
X142302485Y-88230519D01*
X142421019Y-88111985D01*
X142560400Y-88018853D01*
X142715272Y-87954703D01*
X142879684Y-87922000D01*
X143047316Y-87922000D01*
X143211728Y-87954703D01*
X143211728Y-87954703D01*
G37*
G36*
X165729228Y-86144203D02*
X165884100Y-86208353D01*
X166023481Y-86301485D01*
X166142015Y-86420019D01*
X166235147Y-86559400D01*
X166299297Y-86714272D01*
X166332000Y-86878684D01*
X166332000Y-87046316D01*
X166299297Y-87210728D01*
X166235147Y-87365600D01*
X166142015Y-87504981D01*
X166023481Y-87623515D01*
X165884100Y-87716647D01*
X165729228Y-87780797D01*
X165564816Y-87813500D01*
X165397184Y-87813500D01*
X165232772Y-87780797D01*
X165077900Y-87716647D01*
X164938519Y-87623515D01*
X164819985Y-87504981D01*
X164726853Y-87365600D01*
X164662703Y-87210728D01*
X164630000Y-87046316D01*
X164630000Y-86878684D01*
X164662703Y-86714272D01*
X164726853Y-86559400D01*
X164819985Y-86420019D01*
X164938519Y-86301485D01*
X165077900Y-86208353D01*
X165232772Y-86144203D01*
X165397184Y-86111500D01*
X165564816Y-86111500D01*
X165729228Y-86144203D01*
X165729228Y-86144203D01*
G37*
G36*
X126359228Y-85953703D02*
X126514100Y-86017853D01*
X126653481Y-86110985D01*
X126772015Y-86229519D01*
X126865147Y-86368900D01*
X126929297Y-86523772D01*
X126962000Y-86688184D01*
X126962000Y-86855816D01*
X126929297Y-87020228D01*
X126865147Y-87175100D01*
X126772015Y-87314481D01*
X126653481Y-87433015D01*
X126514100Y-87526147D01*
X126359228Y-87590297D01*
X126194816Y-87623000D01*
X126027184Y-87623000D01*
X125862772Y-87590297D01*
X125707900Y-87526147D01*
X125568519Y-87433015D01*
X125449985Y-87314481D01*
X125356853Y-87175100D01*
X125292703Y-87020228D01*
X125260000Y-86855816D01*
X125260000Y-86688184D01*
X125292703Y-86523772D01*
X125356853Y-86368900D01*
X125449985Y-86229519D01*
X125568519Y-86110985D01*
X125707900Y-86017853D01*
X125862772Y-85953703D01*
X126027184Y-85921000D01*
X126194816Y-85921000D01*
X126359228Y-85953703D01*
X126359228Y-85953703D01*
G37*
G36*
X143211728Y-85454703D02*
X143366600Y-85518853D01*
X143505981Y-85611985D01*
X143624515Y-85730519D01*
X143717647Y-85869900D01*
X143781797Y-86024772D01*
X143814500Y-86189184D01*
X143814500Y-86356816D01*
X143781797Y-86521228D01*
X143717647Y-86676100D01*
X143624515Y-86815481D01*
X143505981Y-86934015D01*
X143366600Y-87027147D01*
X143211728Y-87091297D01*
X143047316Y-87124000D01*
X142879684Y-87124000D01*
X142715272Y-87091297D01*
X142560400Y-87027147D01*
X142421019Y-86934015D01*
X142302485Y-86815481D01*
X142209353Y-86676100D01*
X142145203Y-86521228D01*
X142112500Y-86356816D01*
X142112500Y-86189184D01*
X142145203Y-86024772D01*
X142209353Y-85869900D01*
X142302485Y-85730519D01*
X142421019Y-85611985D01*
X142560400Y-85518853D01*
X142715272Y-85454703D01*
X142879684Y-85422000D01*
X143047316Y-85422000D01*
X143211728Y-85454703D01*
X143211728Y-85454703D01*
G37*
G36*
X140011728Y-85454703D02*
X140166600Y-85518853D01*
X140305981Y-85611985D01*
X140424515Y-85730519D01*
X140517647Y-85869900D01*
X140581797Y-86024772D01*
X140614500Y-86189184D01*
X140614500Y-86356816D01*
X140581797Y-86521228D01*
X140517647Y-86676100D01*
X140424515Y-86815481D01*
X140305981Y-86934015D01*
X140166600Y-87027147D01*
X140011728Y-87091297D01*
X139847316Y-87124000D01*
X139679684Y-87124000D01*
X139515272Y-87091297D01*
X139360400Y-87027147D01*
X139221019Y-86934015D01*
X139102485Y-86815481D01*
X139009353Y-86676100D01*
X138945203Y-86521228D01*
X138912500Y-86356816D01*
X138912500Y-86189184D01*
X138945203Y-86024772D01*
X139009353Y-85869900D01*
X139102485Y-85730519D01*
X139221019Y-85611985D01*
X139360400Y-85518853D01*
X139515272Y-85454703D01*
X139679684Y-85422000D01*
X139847316Y-85422000D01*
X140011728Y-85454703D01*
X140011728Y-85454703D01*
G37*
G36*
X156407142Y-85346742D02*
X156555102Y-85408030D01*
X156622130Y-85452817D01*
X156688257Y-85497001D01*
X156801499Y-85610243D01*
X156818193Y-85635228D01*
X156890470Y-85743398D01*
X156951758Y-85891358D01*
X156983000Y-86048425D01*
X156983000Y-86208575D01*
X156951758Y-86365642D01*
X156890470Y-86513602D01*
X156801498Y-86646758D01*
X156688258Y-86759998D01*
X156555102Y-86848970D01*
X156407142Y-86910258D01*
X156250075Y-86941500D01*
X156089925Y-86941500D01*
X155932858Y-86910258D01*
X155784898Y-86848970D01*
X155651742Y-86759998D01*
X155538502Y-86646758D01*
X155449530Y-86513602D01*
X155388242Y-86365642D01*
X155357000Y-86208575D01*
X155357000Y-86048425D01*
X155388242Y-85891358D01*
X155449530Y-85743398D01*
X155521807Y-85635228D01*
X155538501Y-85610243D01*
X155651743Y-85497001D01*
X155717870Y-85452817D01*
X155784898Y-85408030D01*
X155932858Y-85346742D01*
X156089925Y-85315500D01*
X156250075Y-85315500D01*
X156407142Y-85346742D01*
X156407142Y-85346742D01*
G37*
G36*
X153907142Y-85346742D02*
X154055102Y-85408030D01*
X154122130Y-85452817D01*
X154188257Y-85497001D01*
X154301499Y-85610243D01*
X154318193Y-85635228D01*
X154390470Y-85743398D01*
X154451758Y-85891358D01*
X154483000Y-86048425D01*
X154483000Y-86208575D01*
X154451758Y-86365642D01*
X154390470Y-86513602D01*
X154301498Y-86646758D01*
X154188258Y-86759998D01*
X154055102Y-86848970D01*
X153907142Y-86910258D01*
X153750075Y-86941500D01*
X153589925Y-86941500D01*
X153432858Y-86910258D01*
X153284898Y-86848970D01*
X153151742Y-86759998D01*
X153038502Y-86646758D01*
X152949530Y-86513602D01*
X152888242Y-86365642D01*
X152857000Y-86208575D01*
X152857000Y-86048425D01*
X152888242Y-85891358D01*
X152949530Y-85743398D01*
X153021807Y-85635228D01*
X153038501Y-85610243D01*
X153151743Y-85497001D01*
X153217870Y-85452817D01*
X153284898Y-85408030D01*
X153432858Y-85346742D01*
X153589925Y-85315500D01*
X153750075Y-85315500D01*
X153907142Y-85346742D01*
X153907142Y-85346742D01*
G37*
G36*
X168569228Y-84759203D02*
X168724100Y-84823353D01*
X168863481Y-84916485D01*
X168982015Y-85035019D01*
X169075147Y-85174400D01*
X169139297Y-85329272D01*
X169172000Y-85493684D01*
X169172000Y-85661316D01*
X169139297Y-85825728D01*
X169075147Y-85980600D01*
X168982015Y-86119981D01*
X168863481Y-86238515D01*
X168724100Y-86331647D01*
X168569228Y-86395797D01*
X168404816Y-86428500D01*
X168237184Y-86428500D01*
X168072772Y-86395797D01*
X167917900Y-86331647D01*
X167778519Y-86238515D01*
X167659985Y-86119981D01*
X167566853Y-85980600D01*
X167502703Y-85825728D01*
X167470000Y-85661316D01*
X167470000Y-85493684D01*
X167502703Y-85329272D01*
X167566853Y-85174400D01*
X167659985Y-85035019D01*
X167778519Y-84916485D01*
X167917900Y-84823353D01*
X168072772Y-84759203D01*
X168237184Y-84726500D01*
X168404816Y-84726500D01*
X168569228Y-84759203D01*
X168569228Y-84759203D01*
G37*
G36*
X123519228Y-84568703D02*
X123674100Y-84632853D01*
X123813481Y-84725985D01*
X123932015Y-84844519D01*
X124025147Y-84983900D01*
X124089297Y-85138772D01*
X124122000Y-85303184D01*
X124122000Y-85470816D01*
X124089297Y-85635228D01*
X124025147Y-85790100D01*
X123932015Y-85929481D01*
X123813481Y-86048015D01*
X123674100Y-86141147D01*
X123519228Y-86205297D01*
X123354816Y-86238000D01*
X123187184Y-86238000D01*
X123022772Y-86205297D01*
X122867900Y-86141147D01*
X122728519Y-86048015D01*
X122609985Y-85929481D01*
X122516853Y-85790100D01*
X122452703Y-85635228D01*
X122420000Y-85470816D01*
X122420000Y-85303184D01*
X122452703Y-85138772D01*
X122516853Y-84983900D01*
X122609985Y-84844519D01*
X122728519Y-84725985D01*
X122867900Y-84632853D01*
X123022772Y-84568703D01*
X123187184Y-84536000D01*
X123354816Y-84536000D01*
X123519228Y-84568703D01*
X123519228Y-84568703D01*
G37*
G36*
X165729228Y-83374203D02*
X165884100Y-83438353D01*
X166023481Y-83531485D01*
X166142015Y-83650019D01*
X166235147Y-83789400D01*
X166299297Y-83944272D01*
X166332000Y-84108684D01*
X166332000Y-84276316D01*
X166299297Y-84440728D01*
X166235147Y-84595600D01*
X166142015Y-84734981D01*
X166023481Y-84853515D01*
X165884100Y-84946647D01*
X165729228Y-85010797D01*
X165564816Y-85043500D01*
X165397184Y-85043500D01*
X165232772Y-85010797D01*
X165077900Y-84946647D01*
X164938519Y-84853515D01*
X164819985Y-84734981D01*
X164726853Y-84595600D01*
X164662703Y-84440728D01*
X164630000Y-84276316D01*
X164630000Y-84108684D01*
X164662703Y-83944272D01*
X164726853Y-83789400D01*
X164819985Y-83650019D01*
X164938519Y-83531485D01*
X165077900Y-83438353D01*
X165232772Y-83374203D01*
X165397184Y-83341500D01*
X165564816Y-83341500D01*
X165729228Y-83374203D01*
X165729228Y-83374203D01*
G37*
G36*
X156407142Y-83346742D02*
X156555102Y-83408030D01*
X156600485Y-83438354D01*
X156644854Y-83468000D01*
X156688258Y-83497002D01*
X156801498Y-83610242D01*
X156890470Y-83743398D01*
X156951758Y-83891358D01*
X156983000Y-84048425D01*
X156983000Y-84208575D01*
X156951758Y-84365642D01*
X156890470Y-84513602D01*
X156875504Y-84536000D01*
X156810789Y-84632854D01*
X156801498Y-84646758D01*
X156688258Y-84759998D01*
X156555102Y-84848970D01*
X156407142Y-84910258D01*
X156250075Y-84941500D01*
X156089925Y-84941500D01*
X155932858Y-84910258D01*
X155784898Y-84848970D01*
X155651742Y-84759998D01*
X155538502Y-84646758D01*
X155529212Y-84632854D01*
X155464496Y-84536000D01*
X155449530Y-84513602D01*
X155388242Y-84365642D01*
X155357000Y-84208575D01*
X155357000Y-84048425D01*
X155388242Y-83891358D01*
X155449530Y-83743398D01*
X155538502Y-83610242D01*
X155651742Y-83497002D01*
X155695147Y-83468000D01*
X155739515Y-83438354D01*
X155784898Y-83408030D01*
X155932858Y-83346742D01*
X156089925Y-83315500D01*
X156250075Y-83315500D01*
X156407142Y-83346742D01*
X156407142Y-83346742D01*
G37*
G36*
X153907142Y-83346742D02*
X154055102Y-83408030D01*
X154100485Y-83438354D01*
X154144854Y-83468000D01*
X154188258Y-83497002D01*
X154301498Y-83610242D01*
X154390470Y-83743398D01*
X154451758Y-83891358D01*
X154483000Y-84048425D01*
X154483000Y-84208575D01*
X154451758Y-84365642D01*
X154390470Y-84513602D01*
X154375504Y-84536000D01*
X154310789Y-84632854D01*
X154301498Y-84646758D01*
X154188258Y-84759998D01*
X154055102Y-84848970D01*
X153907142Y-84910258D01*
X153750075Y-84941500D01*
X153589925Y-84941500D01*
X153432858Y-84910258D01*
X153284898Y-84848970D01*
X153151742Y-84759998D01*
X153038502Y-84646758D01*
X153029212Y-84632854D01*
X152964496Y-84536000D01*
X152949530Y-84513602D01*
X152888242Y-84365642D01*
X152857000Y-84208575D01*
X152857000Y-84048425D01*
X152888242Y-83891358D01*
X152949530Y-83743398D01*
X153038502Y-83610242D01*
X153151742Y-83497002D01*
X153195147Y-83468000D01*
X153239515Y-83438354D01*
X153284898Y-83408030D01*
X153432858Y-83346742D01*
X153589925Y-83315500D01*
X153750075Y-83315500D01*
X153907142Y-83346742D01*
X153907142Y-83346742D01*
G37*
G36*
X126359228Y-83183703D02*
X126514100Y-83247853D01*
X126653481Y-83340985D01*
X126772015Y-83459519D01*
X126865147Y-83598900D01*
X126929297Y-83753772D01*
X126962000Y-83918184D01*
X126962000Y-84085816D01*
X126929297Y-84250228D01*
X126865147Y-84405100D01*
X126772015Y-84544481D01*
X126653481Y-84663015D01*
X126514100Y-84756147D01*
X126359228Y-84820297D01*
X126194816Y-84853000D01*
X126027184Y-84853000D01*
X125862772Y-84820297D01*
X125707900Y-84756147D01*
X125568519Y-84663015D01*
X125449985Y-84544481D01*
X125356853Y-84405100D01*
X125292703Y-84250228D01*
X125260000Y-84085816D01*
X125260000Y-83918184D01*
X125292703Y-83753772D01*
X125356853Y-83598900D01*
X125449985Y-83459519D01*
X125568519Y-83340985D01*
X125707900Y-83247853D01*
X125862772Y-83183703D01*
X126027184Y-83151000D01*
X126194816Y-83151000D01*
X126359228Y-83183703D01*
X126359228Y-83183703D01*
G37*
G36*
X140011728Y-82954703D02*
X140166600Y-83018853D01*
X140305981Y-83111985D01*
X140424515Y-83230519D01*
X140517647Y-83369900D01*
X140581797Y-83524772D01*
X140614500Y-83689184D01*
X140614500Y-83856816D01*
X140581797Y-84021228D01*
X140517647Y-84176100D01*
X140424515Y-84315481D01*
X140305981Y-84434015D01*
X140166600Y-84527147D01*
X140011728Y-84591297D01*
X139847316Y-84624000D01*
X139679684Y-84624000D01*
X139515272Y-84591297D01*
X139360400Y-84527147D01*
X139221019Y-84434015D01*
X139102485Y-84315481D01*
X139009353Y-84176100D01*
X138945203Y-84021228D01*
X138912500Y-83856816D01*
X138912500Y-83689184D01*
X138945203Y-83524772D01*
X139009353Y-83369900D01*
X139102485Y-83230519D01*
X139221019Y-83111985D01*
X139360400Y-83018853D01*
X139515272Y-82954703D01*
X139679684Y-82922000D01*
X139847316Y-82922000D01*
X140011728Y-82954703D01*
X140011728Y-82954703D01*
G37*
G36*
X143211728Y-82954703D02*
X143366600Y-83018853D01*
X143505981Y-83111985D01*
X143624515Y-83230519D01*
X143717647Y-83369900D01*
X143781797Y-83524772D01*
X143814500Y-83689184D01*
X143814500Y-83856816D01*
X143781797Y-84021228D01*
X143717647Y-84176100D01*
X143624515Y-84315481D01*
X143505981Y-84434015D01*
X143366600Y-84527147D01*
X143211728Y-84591297D01*
X143047316Y-84624000D01*
X142879684Y-84624000D01*
X142715272Y-84591297D01*
X142560400Y-84527147D01*
X142421019Y-84434015D01*
X142302485Y-84315481D01*
X142209353Y-84176100D01*
X142145203Y-84021228D01*
X142112500Y-83856816D01*
X142112500Y-83689184D01*
X142145203Y-83524772D01*
X142209353Y-83369900D01*
X142302485Y-83230519D01*
X142421019Y-83111985D01*
X142560400Y-83018853D01*
X142715272Y-82954703D01*
X142879684Y-82922000D01*
X143047316Y-82922000D01*
X143211728Y-82954703D01*
X143211728Y-82954703D01*
G37*
G36*
X168569228Y-81989203D02*
X168724100Y-82053353D01*
X168863481Y-82146485D01*
X168982015Y-82265019D01*
X169075147Y-82404400D01*
X169139297Y-82559272D01*
X169172000Y-82723684D01*
X169172000Y-82891316D01*
X169139297Y-83055728D01*
X169075147Y-83210600D01*
X168982015Y-83349981D01*
X168863481Y-83468515D01*
X168724100Y-83561647D01*
X168569228Y-83625797D01*
X168404816Y-83658500D01*
X168237184Y-83658500D01*
X168072772Y-83625797D01*
X167917900Y-83561647D01*
X167778519Y-83468515D01*
X167659985Y-83349981D01*
X167566853Y-83210600D01*
X167502703Y-83055728D01*
X167470000Y-82891316D01*
X167470000Y-82723684D01*
X167502703Y-82559272D01*
X167566853Y-82404400D01*
X167659985Y-82265019D01*
X167778519Y-82146485D01*
X167917900Y-82053353D01*
X168072772Y-81989203D01*
X168237184Y-81956500D01*
X168404816Y-81956500D01*
X168569228Y-81989203D01*
X168569228Y-81989203D01*
G37*
G36*
X123519228Y-81798703D02*
X123674100Y-81862853D01*
X123813481Y-81955985D01*
X123932015Y-82074519D01*
X124025147Y-82213900D01*
X124089297Y-82368772D01*
X124122000Y-82533184D01*
X124122000Y-82700816D01*
X124089297Y-82865228D01*
X124025147Y-83020100D01*
X123932015Y-83159481D01*
X123813481Y-83278015D01*
X123674100Y-83371147D01*
X123519228Y-83435297D01*
X123354816Y-83468000D01*
X123187184Y-83468000D01*
X123022772Y-83435297D01*
X122867900Y-83371147D01*
X122728519Y-83278015D01*
X122609985Y-83159481D01*
X122516853Y-83020100D01*
X122452703Y-82865228D01*
X122420000Y-82700816D01*
X122420000Y-82533184D01*
X122452703Y-82368772D01*
X122516853Y-82213900D01*
X122609985Y-82074519D01*
X122728519Y-81955985D01*
X122867900Y-81862853D01*
X123022772Y-81798703D01*
X123187184Y-81766000D01*
X123354816Y-81766000D01*
X123519228Y-81798703D01*
X123519228Y-81798703D01*
G37*
G36*
X156407142Y-81346742D02*
X156555102Y-81408030D01*
X156688258Y-81497002D01*
X156801498Y-81610242D01*
X156890470Y-81743398D01*
X156951758Y-81891358D01*
X156983000Y-82048425D01*
X156983000Y-82208575D01*
X156951758Y-82365642D01*
X156890470Y-82513602D01*
X156801498Y-82646758D01*
X156688258Y-82759998D01*
X156555102Y-82848970D01*
X156407142Y-82910258D01*
X156250075Y-82941500D01*
X156089925Y-82941500D01*
X155932858Y-82910258D01*
X155784898Y-82848970D01*
X155651742Y-82759998D01*
X155538502Y-82646758D01*
X155449530Y-82513602D01*
X155388242Y-82365642D01*
X155357000Y-82208575D01*
X155357000Y-82048425D01*
X155388242Y-81891358D01*
X155449530Y-81743398D01*
X155538502Y-81610242D01*
X155651742Y-81497002D01*
X155784898Y-81408030D01*
X155932858Y-81346742D01*
X156089925Y-81315500D01*
X156250075Y-81315500D01*
X156407142Y-81346742D01*
X156407142Y-81346742D01*
G37*
G36*
X153907142Y-81346742D02*
X154055102Y-81408030D01*
X154188258Y-81497002D01*
X154301498Y-81610242D01*
X154390470Y-81743398D01*
X154451758Y-81891358D01*
X154483000Y-82048425D01*
X154483000Y-82208575D01*
X154451758Y-82365642D01*
X154390470Y-82513602D01*
X154301498Y-82646758D01*
X154188258Y-82759998D01*
X154055102Y-82848970D01*
X153907142Y-82910258D01*
X153750075Y-82941500D01*
X153589925Y-82941500D01*
X153432858Y-82910258D01*
X153284898Y-82848970D01*
X153151742Y-82759998D01*
X153038502Y-82646758D01*
X152949530Y-82513602D01*
X152888242Y-82365642D01*
X152857000Y-82208575D01*
X152857000Y-82048425D01*
X152888242Y-81891358D01*
X152949530Y-81743398D01*
X153038502Y-81610242D01*
X153151742Y-81497002D01*
X153284898Y-81408030D01*
X153432858Y-81346742D01*
X153589925Y-81315500D01*
X153750075Y-81315500D01*
X153907142Y-81346742D01*
X153907142Y-81346742D01*
G37*
G36*
X165729228Y-80604203D02*
X165884100Y-80668353D01*
X166023481Y-80761485D01*
X166142015Y-80880019D01*
X166235147Y-81019400D01*
X166299297Y-81174272D01*
X166332000Y-81338684D01*
X166332000Y-81506316D01*
X166299297Y-81670728D01*
X166235147Y-81825600D01*
X166142015Y-81964981D01*
X166023481Y-82083515D01*
X165884100Y-82176647D01*
X165729228Y-82240797D01*
X165564816Y-82273500D01*
X165397184Y-82273500D01*
X165232772Y-82240797D01*
X165077900Y-82176647D01*
X164938519Y-82083515D01*
X164819985Y-81964981D01*
X164726853Y-81825600D01*
X164662703Y-81670728D01*
X164630000Y-81506316D01*
X164630000Y-81338684D01*
X164662703Y-81174272D01*
X164726853Y-81019400D01*
X164819985Y-80880019D01*
X164938519Y-80761485D01*
X165077900Y-80668353D01*
X165232772Y-80604203D01*
X165397184Y-80571500D01*
X165564816Y-80571500D01*
X165729228Y-80604203D01*
X165729228Y-80604203D01*
G37*
G36*
X126359228Y-80413703D02*
X126514100Y-80477853D01*
X126653481Y-80570985D01*
X126772015Y-80689519D01*
X126865147Y-80828900D01*
X126929297Y-80983772D01*
X126962000Y-81148184D01*
X126962000Y-81315816D01*
X126929297Y-81480228D01*
X126865147Y-81635100D01*
X126772015Y-81774481D01*
X126653481Y-81893015D01*
X126514100Y-81986147D01*
X126359228Y-82050297D01*
X126194816Y-82083000D01*
X126027184Y-82083000D01*
X125862772Y-82050297D01*
X125707900Y-81986147D01*
X125568519Y-81893015D01*
X125449985Y-81774481D01*
X125356853Y-81635100D01*
X125292703Y-81480228D01*
X125260000Y-81315816D01*
X125260000Y-81148184D01*
X125292703Y-80983772D01*
X125356853Y-80828900D01*
X125449985Y-80689519D01*
X125568519Y-80570985D01*
X125707900Y-80477853D01*
X125862772Y-80413703D01*
X126027184Y-80381000D01*
X126194816Y-80381000D01*
X126359228Y-80413703D01*
X126359228Y-80413703D01*
G37*
G36*
X156407142Y-79346742D02*
X156478949Y-79376486D01*
X156551764Y-79406647D01*
X156555102Y-79408030D01*
X156608785Y-79443900D01*
X156685291Y-79495019D01*
X156688258Y-79497002D01*
X156801498Y-79610242D01*
X156890470Y-79743398D01*
X156951758Y-79891358D01*
X156983000Y-80048425D01*
X156983000Y-80208575D01*
X156951758Y-80365642D01*
X156920709Y-80440600D01*
X156890471Y-80513600D01*
X156801499Y-80646757D01*
X156688257Y-80759999D01*
X156640892Y-80791647D01*
X156555102Y-80848970D01*
X156555101Y-80848971D01*
X156555100Y-80848971D01*
X156521583Y-80862854D01*
X156407142Y-80910258D01*
X156250075Y-80941500D01*
X156089925Y-80941500D01*
X155932858Y-80910258D01*
X155818417Y-80862854D01*
X155784900Y-80848971D01*
X155784899Y-80848971D01*
X155784898Y-80848970D01*
X155699108Y-80791647D01*
X155651743Y-80759999D01*
X155538501Y-80646757D01*
X155449529Y-80513600D01*
X155419291Y-80440600D01*
X155388242Y-80365642D01*
X155357000Y-80208575D01*
X155357000Y-80048425D01*
X155388242Y-79891358D01*
X155449530Y-79743398D01*
X155538502Y-79610242D01*
X155651742Y-79497002D01*
X155654710Y-79495019D01*
X155731215Y-79443900D01*
X155784898Y-79408030D01*
X155788237Y-79406647D01*
X155861051Y-79376486D01*
X155932858Y-79346742D01*
X156089925Y-79315500D01*
X156250075Y-79315500D01*
X156407142Y-79346742D01*
X156407142Y-79346742D01*
G37*
G36*
X153907142Y-79346742D02*
X153978949Y-79376486D01*
X154051764Y-79406647D01*
X154055102Y-79408030D01*
X154108785Y-79443900D01*
X154185291Y-79495019D01*
X154188258Y-79497002D01*
X154301498Y-79610242D01*
X154390470Y-79743398D01*
X154451758Y-79891358D01*
X154483000Y-80048425D01*
X154483000Y-80208575D01*
X154451758Y-80365642D01*
X154420709Y-80440600D01*
X154390471Y-80513600D01*
X154301499Y-80646757D01*
X154188257Y-80759999D01*
X154140892Y-80791647D01*
X154055102Y-80848970D01*
X154055101Y-80848971D01*
X154055100Y-80848971D01*
X154021583Y-80862854D01*
X153907142Y-80910258D01*
X153750075Y-80941500D01*
X153589925Y-80941500D01*
X153432858Y-80910258D01*
X153318417Y-80862854D01*
X153284900Y-80848971D01*
X153284899Y-80848971D01*
X153284898Y-80848970D01*
X153199108Y-80791647D01*
X153151743Y-80759999D01*
X153038501Y-80646757D01*
X152949529Y-80513600D01*
X152919291Y-80440600D01*
X152888242Y-80365642D01*
X152857000Y-80208575D01*
X152857000Y-80048425D01*
X152888242Y-79891358D01*
X152949530Y-79743398D01*
X153038502Y-79610242D01*
X153151742Y-79497002D01*
X153154710Y-79495019D01*
X153231215Y-79443900D01*
X153284898Y-79408030D01*
X153288237Y-79406647D01*
X153361051Y-79376486D01*
X153432858Y-79346742D01*
X153589925Y-79315500D01*
X153750075Y-79315500D01*
X153907142Y-79346742D01*
X153907142Y-79346742D01*
G37*
G36*
X168569228Y-79219203D02*
X168724100Y-79283353D01*
X168863481Y-79376485D01*
X168982015Y-79495019D01*
X169075147Y-79634400D01*
X169139297Y-79789272D01*
X169172000Y-79953684D01*
X169172000Y-80121316D01*
X169139297Y-80285728D01*
X169075147Y-80440600D01*
X168982015Y-80579981D01*
X168863481Y-80698515D01*
X168724100Y-80791647D01*
X168569228Y-80855797D01*
X168404816Y-80888500D01*
X168237184Y-80888500D01*
X168072772Y-80855797D01*
X167917900Y-80791647D01*
X167778519Y-80698515D01*
X167659985Y-80579981D01*
X167566853Y-80440600D01*
X167502703Y-80285728D01*
X167470000Y-80121316D01*
X167470000Y-79953684D01*
X167502703Y-79789272D01*
X167566853Y-79634400D01*
X167659985Y-79495019D01*
X167778519Y-79376485D01*
X167917900Y-79283353D01*
X168072772Y-79219203D01*
X168237184Y-79186500D01*
X168404816Y-79186500D01*
X168569228Y-79219203D01*
X168569228Y-79219203D01*
G37*
G36*
X123519228Y-79028703D02*
X123674100Y-79092853D01*
X123813481Y-79185985D01*
X123932015Y-79304519D01*
X124025147Y-79443900D01*
X124089297Y-79598772D01*
X124122000Y-79763184D01*
X124122000Y-79930816D01*
X124089297Y-80095228D01*
X124025147Y-80250100D01*
X123932015Y-80389481D01*
X123813481Y-80508015D01*
X123674100Y-80601147D01*
X123519228Y-80665297D01*
X123354816Y-80698000D01*
X123187184Y-80698000D01*
X123022772Y-80665297D01*
X122867900Y-80601147D01*
X122728519Y-80508015D01*
X122609985Y-80389481D01*
X122516853Y-80250100D01*
X122452703Y-80095228D01*
X122420000Y-79930816D01*
X122420000Y-79763184D01*
X122452703Y-79598772D01*
X122516853Y-79443900D01*
X122609985Y-79304519D01*
X122728519Y-79185985D01*
X122867900Y-79092853D01*
X123022772Y-79028703D01*
X123187184Y-78996000D01*
X123354816Y-78996000D01*
X123519228Y-79028703D01*
X123519228Y-79028703D01*
G37*
G36*
X165729228Y-77834203D02*
X165884100Y-77898353D01*
X166023481Y-77991485D01*
X166142015Y-78110019D01*
X166235147Y-78249400D01*
X166299297Y-78404272D01*
X166332000Y-78568684D01*
X166332000Y-78736316D01*
X166299297Y-78900728D01*
X166235147Y-79055600D01*
X166142015Y-79194981D01*
X166023481Y-79313515D01*
X165884100Y-79406647D01*
X165729228Y-79470797D01*
X165564816Y-79503500D01*
X165397184Y-79503500D01*
X165232772Y-79470797D01*
X165077900Y-79406647D01*
X164938519Y-79313515D01*
X164819985Y-79194981D01*
X164726853Y-79055600D01*
X164662703Y-78900728D01*
X164630000Y-78736316D01*
X164630000Y-78568684D01*
X164662703Y-78404272D01*
X164726853Y-78249400D01*
X164819985Y-78110019D01*
X164938519Y-77991485D01*
X165077900Y-77898353D01*
X165232772Y-77834203D01*
X165397184Y-77801500D01*
X165564816Y-77801500D01*
X165729228Y-77834203D01*
X165729228Y-77834203D01*
G37*
G36*
X143338728Y-77667703D02*
X143493600Y-77731853D01*
X143632981Y-77824985D01*
X143751515Y-77943519D01*
X143844647Y-78082900D01*
X143908797Y-78237772D01*
X143941500Y-78402184D01*
X143941500Y-78569816D01*
X143908797Y-78734228D01*
X143844647Y-78889100D01*
X143751515Y-79028481D01*
X143632981Y-79147015D01*
X143493600Y-79240147D01*
X143338728Y-79304297D01*
X143174316Y-79337000D01*
X143006684Y-79337000D01*
X142842272Y-79304297D01*
X142687400Y-79240147D01*
X142548019Y-79147015D01*
X142429485Y-79028481D01*
X142336353Y-78889100D01*
X142272203Y-78734228D01*
X142239500Y-78569816D01*
X142239500Y-78402184D01*
X142272203Y-78237772D01*
X142336353Y-78082900D01*
X142429485Y-77943519D01*
X142548019Y-77824985D01*
X142687400Y-77731853D01*
X142842272Y-77667703D01*
X143006684Y-77635000D01*
X143174316Y-77635000D01*
X143338728Y-77667703D01*
X143338728Y-77667703D01*
G37*
G36*
X140741500Y-79337000D02*
X139039500Y-79337000D01*
X139039500Y-77635000D01*
X140741500Y-77635000D01*
X140741500Y-79337000D01*
X140741500Y-79337000D01*
G37*
G36*
X126359228Y-77643703D02*
X126514100Y-77707853D01*
X126653481Y-77800985D01*
X126772015Y-77919519D01*
X126865147Y-78058900D01*
X126929297Y-78213772D01*
X126962000Y-78378184D01*
X126962000Y-78545816D01*
X126929297Y-78710228D01*
X126865147Y-78865100D01*
X126772015Y-79004481D01*
X126653481Y-79123015D01*
X126514100Y-79216147D01*
X126359228Y-79280297D01*
X126194816Y-79313000D01*
X126027184Y-79313000D01*
X125862772Y-79280297D01*
X125707900Y-79216147D01*
X125568519Y-79123015D01*
X125449985Y-79004481D01*
X125356853Y-78865100D01*
X125292703Y-78710228D01*
X125260000Y-78545816D01*
X125260000Y-78378184D01*
X125292703Y-78213772D01*
X125356853Y-78058900D01*
X125449985Y-77919519D01*
X125568519Y-77800985D01*
X125707900Y-77707853D01*
X125862772Y-77643703D01*
X126027184Y-77611000D01*
X126194816Y-77611000D01*
X126359228Y-77643703D01*
X126359228Y-77643703D01*
G37*
G36*
X153907142Y-77346742D02*
X154055102Y-77408030D01*
X154122130Y-77452817D01*
X154188257Y-77497001D01*
X154301499Y-77610243D01*
X154318041Y-77635000D01*
X154390470Y-77743398D01*
X154451758Y-77891358D01*
X154483000Y-78048425D01*
X154483000Y-78208575D01*
X154451758Y-78365642D01*
X154390470Y-78513602D01*
X154301498Y-78646758D01*
X154188258Y-78759998D01*
X154055102Y-78848970D01*
X153907142Y-78910258D01*
X153750075Y-78941500D01*
X153589925Y-78941500D01*
X153432858Y-78910258D01*
X153284898Y-78848970D01*
X153151742Y-78759998D01*
X153038502Y-78646758D01*
X152949530Y-78513602D01*
X152888242Y-78365642D01*
X152857000Y-78208575D01*
X152857000Y-78048425D01*
X152888242Y-77891358D01*
X152949530Y-77743398D01*
X153021959Y-77635000D01*
X153038501Y-77610243D01*
X153151743Y-77497001D01*
X153217870Y-77452817D01*
X153284898Y-77408030D01*
X153432858Y-77346742D01*
X153589925Y-77315500D01*
X153750075Y-77315500D01*
X153907142Y-77346742D01*
X153907142Y-77346742D01*
G37*
G36*
X156407142Y-77346742D02*
X156555102Y-77408030D01*
X156622130Y-77452817D01*
X156688257Y-77497001D01*
X156801499Y-77610243D01*
X156818041Y-77635000D01*
X156890470Y-77743398D01*
X156951758Y-77891358D01*
X156983000Y-78048425D01*
X156983000Y-78208575D01*
X156951758Y-78365642D01*
X156890470Y-78513602D01*
X156801498Y-78646758D01*
X156688258Y-78759998D01*
X156555102Y-78848970D01*
X156407142Y-78910258D01*
X156250075Y-78941500D01*
X156089925Y-78941500D01*
X155932858Y-78910258D01*
X155784898Y-78848970D01*
X155651742Y-78759998D01*
X155538502Y-78646758D01*
X155449530Y-78513602D01*
X155388242Y-78365642D01*
X155357000Y-78208575D01*
X155357000Y-78048425D01*
X155388242Y-77891358D01*
X155449530Y-77743398D01*
X155521959Y-77635000D01*
X155538501Y-77610243D01*
X155651743Y-77497001D01*
X155717870Y-77452817D01*
X155784898Y-77408030D01*
X155932858Y-77346742D01*
X156089925Y-77315500D01*
X156250075Y-77315500D01*
X156407142Y-77346742D01*
X156407142Y-77346742D01*
G37*
G36*
X168569228Y-76449203D02*
X168724100Y-76513353D01*
X168863481Y-76606485D01*
X168982015Y-76725019D01*
X169075147Y-76864400D01*
X169139297Y-77019272D01*
X169172000Y-77183684D01*
X169172000Y-77351316D01*
X169139297Y-77515728D01*
X169075147Y-77670600D01*
X168982015Y-77809981D01*
X168863481Y-77928515D01*
X168724100Y-78021647D01*
X168569228Y-78085797D01*
X168404816Y-78118500D01*
X168237184Y-78118500D01*
X168072772Y-78085797D01*
X167917900Y-78021647D01*
X167778519Y-77928515D01*
X167659985Y-77809981D01*
X167566853Y-77670600D01*
X167502703Y-77515728D01*
X167470000Y-77351316D01*
X167470000Y-77183684D01*
X167502703Y-77019272D01*
X167566853Y-76864400D01*
X167659985Y-76725019D01*
X167778519Y-76606485D01*
X167917900Y-76513353D01*
X168072772Y-76449203D01*
X168237184Y-76416500D01*
X168404816Y-76416500D01*
X168569228Y-76449203D01*
X168569228Y-76449203D01*
G37*
G36*
X123519228Y-76258703D02*
X123674100Y-76322853D01*
X123813481Y-76415985D01*
X123932015Y-76534519D01*
X124025147Y-76673900D01*
X124089297Y-76828772D01*
X124122000Y-76993184D01*
X124122000Y-77160816D01*
X124089297Y-77325228D01*
X124025147Y-77480100D01*
X123932015Y-77619481D01*
X123813481Y-77738015D01*
X123674100Y-77831147D01*
X123519228Y-77895297D01*
X123354816Y-77928000D01*
X123187184Y-77928000D01*
X123022772Y-77895297D01*
X122867900Y-77831147D01*
X122728519Y-77738015D01*
X122609985Y-77619481D01*
X122516853Y-77480100D01*
X122452703Y-77325228D01*
X122420000Y-77160816D01*
X122420000Y-76993184D01*
X122452703Y-76828772D01*
X122516853Y-76673900D01*
X122609985Y-76534519D01*
X122728519Y-76415985D01*
X122867900Y-76322853D01*
X123022772Y-76258703D01*
X123187184Y-76226000D01*
X123354816Y-76226000D01*
X123519228Y-76258703D01*
X123519228Y-76258703D01*
G37*
G36*
X156407142Y-75346742D02*
X156555102Y-75408030D01*
X156688258Y-75497002D01*
X156801498Y-75610242D01*
X156890470Y-75743398D01*
X156951758Y-75891358D01*
X156983000Y-76048425D01*
X156983000Y-76208575D01*
X156951758Y-76365642D01*
X156890470Y-76513602D01*
X156801498Y-76646758D01*
X156688258Y-76759998D01*
X156555102Y-76848970D01*
X156407142Y-76910258D01*
X156250075Y-76941500D01*
X156089925Y-76941500D01*
X155932858Y-76910258D01*
X155784898Y-76848970D01*
X155651742Y-76759998D01*
X155538502Y-76646758D01*
X155449530Y-76513602D01*
X155388242Y-76365642D01*
X155357000Y-76208575D01*
X155357000Y-76048425D01*
X155388242Y-75891358D01*
X155449530Y-75743398D01*
X155538502Y-75610242D01*
X155651742Y-75497002D01*
X155784898Y-75408030D01*
X155932858Y-75346742D01*
X156089925Y-75315500D01*
X156250075Y-75315500D01*
X156407142Y-75346742D01*
X156407142Y-75346742D01*
G37*
G36*
X153907142Y-75346742D02*
X154055102Y-75408030D01*
X154188258Y-75497002D01*
X154301498Y-75610242D01*
X154390470Y-75743398D01*
X154451758Y-75891358D01*
X154483000Y-76048425D01*
X154483000Y-76208575D01*
X154451758Y-76365642D01*
X154390470Y-76513602D01*
X154301498Y-76646758D01*
X154188258Y-76759998D01*
X154055102Y-76848970D01*
X153907142Y-76910258D01*
X153750075Y-76941500D01*
X153589925Y-76941500D01*
X153432858Y-76910258D01*
X153284898Y-76848970D01*
X153151742Y-76759998D01*
X153038502Y-76646758D01*
X152949530Y-76513602D01*
X152888242Y-76365642D01*
X152857000Y-76208575D01*
X152857000Y-76048425D01*
X152888242Y-75891358D01*
X152949530Y-75743398D01*
X153038502Y-75610242D01*
X153151742Y-75497002D01*
X153284898Y-75408030D01*
X153432858Y-75346742D01*
X153589925Y-75315500D01*
X153750075Y-75315500D01*
X153907142Y-75346742D01*
X153907142Y-75346742D01*
G37*
G36*
X143338728Y-75167703D02*
X143493600Y-75231853D01*
X143632981Y-75324985D01*
X143751515Y-75443519D01*
X143844647Y-75582900D01*
X143908797Y-75737772D01*
X143941500Y-75902184D01*
X143941500Y-76069816D01*
X143908797Y-76234228D01*
X143844647Y-76389100D01*
X143751515Y-76528481D01*
X143632981Y-76647015D01*
X143493600Y-76740147D01*
X143338728Y-76804297D01*
X143174316Y-76837000D01*
X143006684Y-76837000D01*
X142842272Y-76804297D01*
X142687400Y-76740147D01*
X142548019Y-76647015D01*
X142429485Y-76528481D01*
X142336353Y-76389100D01*
X142272203Y-76234228D01*
X142239500Y-76069816D01*
X142239500Y-75902184D01*
X142272203Y-75737772D01*
X142336353Y-75582900D01*
X142429485Y-75443519D01*
X142548019Y-75324985D01*
X142687400Y-75231853D01*
X142842272Y-75167703D01*
X143006684Y-75135000D01*
X143174316Y-75135000D01*
X143338728Y-75167703D01*
X143338728Y-75167703D01*
G37*
G36*
X140138728Y-75167703D02*
X140293600Y-75231853D01*
X140432981Y-75324985D01*
X140551515Y-75443519D01*
X140644647Y-75582900D01*
X140708797Y-75737772D01*
X140741500Y-75902184D01*
X140741500Y-76069816D01*
X140708797Y-76234228D01*
X140644647Y-76389100D01*
X140551515Y-76528481D01*
X140432981Y-76647015D01*
X140293600Y-76740147D01*
X140138728Y-76804297D01*
X139974316Y-76837000D01*
X139806684Y-76837000D01*
X139642272Y-76804297D01*
X139487400Y-76740147D01*
X139348019Y-76647015D01*
X139229485Y-76528481D01*
X139136353Y-76389100D01*
X139072203Y-76234228D01*
X139039500Y-76069816D01*
X139039500Y-75902184D01*
X139072203Y-75737772D01*
X139136353Y-75582900D01*
X139229485Y-75443519D01*
X139348019Y-75324985D01*
X139487400Y-75231853D01*
X139642272Y-75167703D01*
X139806684Y-75135000D01*
X139974316Y-75135000D01*
X140138728Y-75167703D01*
X140138728Y-75167703D01*
G37*
G36*
X166332000Y-76733500D02*
X164630000Y-76733500D01*
X164630000Y-75031500D01*
X166332000Y-75031500D01*
X166332000Y-76733500D01*
X166332000Y-76733500D01*
G37*
G36*
X126962000Y-76543000D02*
X125260000Y-76543000D01*
X125260000Y-74841000D01*
X126962000Y-74841000D01*
X126962000Y-76543000D01*
X126962000Y-76543000D01*
G37*
G36*
X143338728Y-72667703D02*
X143493600Y-72731853D01*
X143632981Y-72824985D01*
X143751515Y-72943519D01*
X143844647Y-73082900D01*
X143908797Y-73237772D01*
X143941500Y-73402184D01*
X143941500Y-73569816D01*
X143908797Y-73734228D01*
X143844647Y-73889100D01*
X143751515Y-74028481D01*
X143632981Y-74147015D01*
X143493600Y-74240147D01*
X143338728Y-74304297D01*
X143174316Y-74337000D01*
X143006684Y-74337000D01*
X142842272Y-74304297D01*
X142687400Y-74240147D01*
X142548019Y-74147015D01*
X142429485Y-74028481D01*
X142336353Y-73889100D01*
X142272203Y-73734228D01*
X142239500Y-73569816D01*
X142239500Y-73402184D01*
X142272203Y-73237772D01*
X142336353Y-73082900D01*
X142429485Y-72943519D01*
X142548019Y-72824985D01*
X142687400Y-72731853D01*
X142842272Y-72667703D01*
X143006684Y-72635000D01*
X143174316Y-72635000D01*
X143338728Y-72667703D01*
X143338728Y-72667703D01*
G37*
G36*
X140138728Y-72667703D02*
X140293600Y-72731853D01*
X140432981Y-72824985D01*
X140551515Y-72943519D01*
X140644647Y-73082900D01*
X140708797Y-73237772D01*
X140741500Y-73402184D01*
X140741500Y-73569816D01*
X140708797Y-73734228D01*
X140644647Y-73889100D01*
X140551515Y-74028481D01*
X140432981Y-74147015D01*
X140293600Y-74240147D01*
X140138728Y-74304297D01*
X139974316Y-74337000D01*
X139806684Y-74337000D01*
X139642272Y-74304297D01*
X139487400Y-74240147D01*
X139348019Y-74147015D01*
X139229485Y-74028481D01*
X139136353Y-73889100D01*
X139072203Y-73734228D01*
X139039500Y-73569816D01*
X139039500Y-73402184D01*
X139072203Y-73237772D01*
X139136353Y-73082900D01*
X139229485Y-72943519D01*
X139348019Y-72824985D01*
X139487400Y-72731853D01*
X139642272Y-72667703D01*
X139806684Y-72635000D01*
X139974316Y-72635000D01*
X140138728Y-72667703D01*
X140138728Y-72667703D01*
G37*
G36*
X167499252Y-66950318D02*
X167499254Y-66950319D01*
X167499255Y-66950319D01*
X167872513Y-67104927D01*
X167968951Y-67169365D01*
X168208439Y-67329386D01*
X168494114Y-67615061D01*
X168494116Y-67615064D01*
X168718573Y-67950987D01*
X168873181Y-68324245D01*
X168873182Y-68324248D01*
X168952000Y-68720493D01*
X168952000Y-69124507D01*
X168911075Y-69330252D01*
X168873181Y-69520755D01*
X168718573Y-69894013D01*
X168718572Y-69894014D01*
X168494114Y-70229939D01*
X168208439Y-70515614D01*
X168208436Y-70515616D01*
X167872513Y-70740073D01*
X167499255Y-70894681D01*
X167499254Y-70894681D01*
X167499252Y-70894682D01*
X167103007Y-70973500D01*
X166698993Y-70973500D01*
X166302748Y-70894682D01*
X166302746Y-70894681D01*
X166302745Y-70894681D01*
X165929487Y-70740073D01*
X165593564Y-70515616D01*
X165593561Y-70515614D01*
X165307886Y-70229939D01*
X165083428Y-69894014D01*
X165083427Y-69894013D01*
X164928819Y-69520755D01*
X164890926Y-69330252D01*
X164850000Y-69124507D01*
X164850000Y-68720493D01*
X164928818Y-68324248D01*
X164928819Y-68324245D01*
X165083427Y-67950987D01*
X165307884Y-67615064D01*
X165307886Y-67615061D01*
X165593561Y-67329386D01*
X165833049Y-67169365D01*
X165929487Y-67104927D01*
X166302745Y-66950319D01*
X166302746Y-66950319D01*
X166302748Y-66950318D01*
X166698993Y-66871500D01*
X167103007Y-66871500D01*
X167499252Y-66950318D01*
X167499252Y-66950318D01*
G37*
G36*
X125289252Y-66759818D02*
X125289254Y-66759819D01*
X125289255Y-66759819D01*
X125662513Y-66914427D01*
X125716229Y-66950319D01*
X125998439Y-67138886D01*
X126284114Y-67424561D01*
X126284116Y-67424564D01*
X126508573Y-67760487D01*
X126639264Y-68076004D01*
X126663182Y-68133748D01*
X126742000Y-68529993D01*
X126742000Y-68934006D01*
X126663181Y-69330255D01*
X126508573Y-69703513D01*
X126508572Y-69703514D01*
X126284114Y-70039439D01*
X125998439Y-70325114D01*
X125998436Y-70325116D01*
X125662513Y-70549573D01*
X125289255Y-70704181D01*
X125289254Y-70704181D01*
X125289252Y-70704182D01*
X124893007Y-70783000D01*
X124488993Y-70783000D01*
X124092748Y-70704182D01*
X124092746Y-70704181D01*
X124092745Y-70704181D01*
X123719487Y-70549573D01*
X123383564Y-70325116D01*
X123383561Y-70325114D01*
X123097886Y-70039439D01*
X122873428Y-69703514D01*
X122873427Y-69703513D01*
X122718819Y-69330255D01*
X122640000Y-68934006D01*
X122640000Y-68529993D01*
X122718818Y-68133748D01*
X122742736Y-68076004D01*
X122873427Y-67760487D01*
X123097884Y-67424564D01*
X123097886Y-67424561D01*
X123383561Y-67138886D01*
X123665771Y-66950319D01*
X123719487Y-66914427D01*
X124092745Y-66759819D01*
X124092746Y-66759819D01*
X124092748Y-66759818D01*
X124488993Y-66681000D01*
X124893007Y-66681000D01*
X125289252Y-66759818D01*
X125289252Y-66759818D01*
G37*
G36*
X154513734Y-65949232D02*
X154723202Y-66035996D01*
X154911723Y-66161962D01*
X155072038Y-66322277D01*
X155198004Y-66510798D01*
X155284768Y-66720266D01*
X155329000Y-66942635D01*
X155329000Y-67169365D01*
X155284768Y-67391734D01*
X155198004Y-67601202D01*
X155072038Y-67789723D01*
X154911723Y-67950038D01*
X154723202Y-68076004D01*
X154513734Y-68162768D01*
X154291365Y-68207000D01*
X154064635Y-68207000D01*
X153842266Y-68162768D01*
X153632798Y-68076004D01*
X153444277Y-67950038D01*
X153283962Y-67789723D01*
X153157996Y-67601202D01*
X153071232Y-67391734D01*
X153027000Y-67169365D01*
X153027000Y-66942635D01*
X153071232Y-66720266D01*
X153157996Y-66510798D01*
X153283962Y-66322277D01*
X153444277Y-66161962D01*
X153632798Y-66035996D01*
X153842266Y-65949232D01*
X154064635Y-65905000D01*
X154291365Y-65905000D01*
X154513734Y-65949232D01*
X154513734Y-65949232D01*
G37*
G36*
X149433734Y-65949232D02*
X149643202Y-66035996D01*
X149831723Y-66161962D01*
X149992038Y-66322277D01*
X150118004Y-66510798D01*
X150204768Y-66720266D01*
X150249000Y-66942635D01*
X150249000Y-67169365D01*
X150204768Y-67391734D01*
X150118004Y-67601202D01*
X149992038Y-67789723D01*
X149831723Y-67950038D01*
X149643202Y-68076004D01*
X149433734Y-68162768D01*
X149211365Y-68207000D01*
X148984635Y-68207000D01*
X148762266Y-68162768D01*
X148552798Y-68076004D01*
X148364277Y-67950038D01*
X148203962Y-67789723D01*
X148077996Y-67601202D01*
X147991232Y-67391734D01*
X147947000Y-67169365D01*
X147947000Y-66942635D01*
X147991232Y-66720266D01*
X148077996Y-66510798D01*
X148203962Y-66322277D01*
X148364277Y-66161962D01*
X148552798Y-66035996D01*
X148762266Y-65949232D01*
X148984635Y-65905000D01*
X149211365Y-65905000D01*
X149433734Y-65949232D01*
X149433734Y-65949232D01*
G37*
G36*
X139273734Y-65949232D02*
X139483202Y-66035996D01*
X139671723Y-66161962D01*
X139832038Y-66322277D01*
X139958004Y-66510798D01*
X140044768Y-66720266D01*
X140089000Y-66942635D01*
X140089000Y-67169365D01*
X140044768Y-67391734D01*
X139958004Y-67601202D01*
X139832038Y-67789723D01*
X139671723Y-67950038D01*
X139483202Y-68076004D01*
X139273734Y-68162768D01*
X139051365Y-68207000D01*
X138824635Y-68207000D01*
X138602266Y-68162768D01*
X138392798Y-68076004D01*
X138204277Y-67950038D01*
X138043962Y-67789723D01*
X137917996Y-67601202D01*
X137831232Y-67391734D01*
X137787000Y-67169365D01*
X137787000Y-66942635D01*
X137831232Y-66720266D01*
X137917996Y-66510798D01*
X138043962Y-66322277D01*
X138204277Y-66161962D01*
X138392798Y-66035996D01*
X138602266Y-65949232D01*
X138824635Y-65905000D01*
X139051365Y-65905000D01*
X139273734Y-65949232D01*
X139273734Y-65949232D01*
G37*
G36*
X144353734Y-65949232D02*
X144563202Y-66035996D01*
X144751723Y-66161962D01*
X144912038Y-66322277D01*
X145038004Y-66510798D01*
X145124768Y-66720266D01*
X145169000Y-66942635D01*
X145169000Y-67169365D01*
X145124768Y-67391734D01*
X145038004Y-67601202D01*
X144912038Y-67789723D01*
X144751723Y-67950038D01*
X144563202Y-68076004D01*
X144353734Y-68162768D01*
X144131365Y-68207000D01*
X143904635Y-68207000D01*
X143682266Y-68162768D01*
X143472798Y-68076004D01*
X143284277Y-67950038D01*
X143123962Y-67789723D01*
X142997996Y-67601202D01*
X142911232Y-67391734D01*
X142867000Y-67169365D01*
X142867000Y-66942635D01*
X142911232Y-66720266D01*
X142997996Y-66510798D01*
X143123962Y-66322277D01*
X143284277Y-66161962D01*
X143472798Y-66035996D01*
X143682266Y-65949232D01*
X143904635Y-65905000D01*
X144131365Y-65905000D01*
X144353734Y-65949232D01*
X144353734Y-65949232D01*
G37*
M02*
