G04 #@! TF.GenerationSoftware,KiCad,Pcbnew,(5.0.1)-rc2*
G04 #@! TF.CreationDate,2018-11-18T21:30:58-07:00*
G04 #@! TF.ProjectId,RPI_zeroW_reset,5250495F7A65726F575F72657365742E,rev?*
G04 #@! TF.SameCoordinates,Original*
G04 #@! TF.FileFunction,Legend,Bot*
G04 #@! TF.FilePolarity,Positive*
%FSLAX46Y46*%
G04 Gerber Fmt 4.6, Leading zero omitted, Abs format (unit mm)*
G04 Created by KiCad (PCBNEW (5.0.1)-rc2) date 11/18/2018 9:30:58 PM*
%MOMM*%
%LPD*%
G01*
G04 APERTURE LIST*
%ADD10C,0.066040*%
%ADD11C,0.127000*%
G04 APERTURE END LIST*
D10*
G04 #@! TO.C,R1*
X111686340Y-78849220D02*
X112082580Y-78849220D01*
X112082580Y-78849220D02*
X112082580Y-79646780D01*
X111686340Y-79646780D02*
X112082580Y-79646780D01*
X111686340Y-78849220D02*
X111686340Y-79646780D01*
D11*
X111986060Y-81174771D02*
X112189260Y-80884485D01*
X112334402Y-81174771D02*
X112334402Y-80565171D01*
X112102174Y-80565171D01*
X112044117Y-80594200D01*
X112015088Y-80623228D01*
X111986060Y-80681285D01*
X111986060Y-80768371D01*
X112015088Y-80826428D01*
X112044117Y-80855457D01*
X112102174Y-80884485D01*
X112334402Y-80884485D01*
X111405488Y-81174771D02*
X111753831Y-81174771D01*
X111579660Y-81174771D02*
X111579660Y-80565171D01*
X111637717Y-80652257D01*
X111695774Y-80710314D01*
X111753831Y-80739342D01*
X111695774Y-77872771D02*
X111898974Y-77582485D01*
X112044117Y-77872771D02*
X112044117Y-77263171D01*
X111811888Y-77263171D01*
X111753831Y-77292200D01*
X111724802Y-77321228D01*
X111695774Y-77379285D01*
X111695774Y-77466371D01*
X111724802Y-77524428D01*
X111753831Y-77553457D01*
X111811888Y-77582485D01*
X112044117Y-77582485D01*
G04 #@! TD*
M02*
