G04 #@! TF.GenerationSoftware,KiCad,Pcbnew,(5.0.1)-rc2*
G04 #@! TF.CreationDate,2019-01-10T23:34:48-07:00*
G04 #@! TF.ProjectId,GPSLogger,4750534C6F676765722E6B696361645F,rev?*
G04 #@! TF.SameCoordinates,Original*
G04 #@! TF.FileFunction,Paste,Bot*
G04 #@! TF.FilePolarity,Positive*
%FSLAX46Y46*%
G04 Gerber Fmt 4.6, Leading zero omitted, Abs format (unit mm)*
G04 Created by KiCad (PCBNEW (5.0.1)-rc2) date 1/10/2019 11:34:48 PM*
%MOMM*%
%LPD*%
G01*
G04 APERTURE LIST*
%ADD10C,0.508000*%
%ADD11C,0.100000*%
%ADD12C,0.975000*%
%ADD13R,1.250000X1.000000*%
%ADD14R,1.000000X1.250000*%
%ADD15R,0.600000X1.800000*%
%ADD16R,1.524000X0.600000*%
%ADD17R,1.060000X0.650000*%
%ADD18R,0.600000X0.400000*%
%ADD19R,0.850000X0.280000*%
%ADD20R,0.750000X0.280000*%
%ADD21R,0.700000X0.300000*%
%ADD22R,0.800000X1.200000*%
G04 APERTURE END LIST*
D10*
G04 #@! TO.C,JP2*
X158115000Y-48158400D02*
X156337000Y-48158400D01*
X158115000Y-50190400D02*
X156337000Y-50190400D01*
X158115000Y-48158400D02*
X158115000Y-50190400D01*
X157861000Y-48158400D02*
X157861000Y-50190400D01*
X157353000Y-48158400D02*
X157353000Y-50190400D01*
X156845000Y-48158400D02*
X156845000Y-50190400D01*
X156337000Y-48158400D02*
X156337000Y-50190400D01*
G04 #@! TD*
D11*
G04 #@! TO.C,R4*
G36*
X144237142Y-89217174D02*
X144260803Y-89220684D01*
X144284007Y-89226496D01*
X144306529Y-89234554D01*
X144328153Y-89244782D01*
X144348670Y-89257079D01*
X144367883Y-89271329D01*
X144385607Y-89287393D01*
X144401671Y-89305117D01*
X144415921Y-89324330D01*
X144428218Y-89344847D01*
X144438446Y-89366471D01*
X144446504Y-89388993D01*
X144452316Y-89412197D01*
X144455826Y-89435858D01*
X144457000Y-89459750D01*
X144457000Y-90372250D01*
X144455826Y-90396142D01*
X144452316Y-90419803D01*
X144446504Y-90443007D01*
X144438446Y-90465529D01*
X144428218Y-90487153D01*
X144415921Y-90507670D01*
X144401671Y-90526883D01*
X144385607Y-90544607D01*
X144367883Y-90560671D01*
X144348670Y-90574921D01*
X144328153Y-90587218D01*
X144306529Y-90597446D01*
X144284007Y-90605504D01*
X144260803Y-90611316D01*
X144237142Y-90614826D01*
X144213250Y-90616000D01*
X143725750Y-90616000D01*
X143701858Y-90614826D01*
X143678197Y-90611316D01*
X143654993Y-90605504D01*
X143632471Y-90597446D01*
X143610847Y-90587218D01*
X143590330Y-90574921D01*
X143571117Y-90560671D01*
X143553393Y-90544607D01*
X143537329Y-90526883D01*
X143523079Y-90507670D01*
X143510782Y-90487153D01*
X143500554Y-90465529D01*
X143492496Y-90443007D01*
X143486684Y-90419803D01*
X143483174Y-90396142D01*
X143482000Y-90372250D01*
X143482000Y-89459750D01*
X143483174Y-89435858D01*
X143486684Y-89412197D01*
X143492496Y-89388993D01*
X143500554Y-89366471D01*
X143510782Y-89344847D01*
X143523079Y-89324330D01*
X143537329Y-89305117D01*
X143553393Y-89287393D01*
X143571117Y-89271329D01*
X143590330Y-89257079D01*
X143610847Y-89244782D01*
X143632471Y-89234554D01*
X143654993Y-89226496D01*
X143678197Y-89220684D01*
X143701858Y-89217174D01*
X143725750Y-89216000D01*
X144213250Y-89216000D01*
X144237142Y-89217174D01*
X144237142Y-89217174D01*
G37*
D12*
X143969500Y-89916000D03*
D11*
G36*
X146112142Y-89217174D02*
X146135803Y-89220684D01*
X146159007Y-89226496D01*
X146181529Y-89234554D01*
X146203153Y-89244782D01*
X146223670Y-89257079D01*
X146242883Y-89271329D01*
X146260607Y-89287393D01*
X146276671Y-89305117D01*
X146290921Y-89324330D01*
X146303218Y-89344847D01*
X146313446Y-89366471D01*
X146321504Y-89388993D01*
X146327316Y-89412197D01*
X146330826Y-89435858D01*
X146332000Y-89459750D01*
X146332000Y-90372250D01*
X146330826Y-90396142D01*
X146327316Y-90419803D01*
X146321504Y-90443007D01*
X146313446Y-90465529D01*
X146303218Y-90487153D01*
X146290921Y-90507670D01*
X146276671Y-90526883D01*
X146260607Y-90544607D01*
X146242883Y-90560671D01*
X146223670Y-90574921D01*
X146203153Y-90587218D01*
X146181529Y-90597446D01*
X146159007Y-90605504D01*
X146135803Y-90611316D01*
X146112142Y-90614826D01*
X146088250Y-90616000D01*
X145600750Y-90616000D01*
X145576858Y-90614826D01*
X145553197Y-90611316D01*
X145529993Y-90605504D01*
X145507471Y-90597446D01*
X145485847Y-90587218D01*
X145465330Y-90574921D01*
X145446117Y-90560671D01*
X145428393Y-90544607D01*
X145412329Y-90526883D01*
X145398079Y-90507670D01*
X145385782Y-90487153D01*
X145375554Y-90465529D01*
X145367496Y-90443007D01*
X145361684Y-90419803D01*
X145358174Y-90396142D01*
X145357000Y-90372250D01*
X145357000Y-89459750D01*
X145358174Y-89435858D01*
X145361684Y-89412197D01*
X145367496Y-89388993D01*
X145375554Y-89366471D01*
X145385782Y-89344847D01*
X145398079Y-89324330D01*
X145412329Y-89305117D01*
X145428393Y-89287393D01*
X145446117Y-89271329D01*
X145465330Y-89257079D01*
X145485847Y-89244782D01*
X145507471Y-89234554D01*
X145529993Y-89226496D01*
X145553197Y-89220684D01*
X145576858Y-89217174D01*
X145600750Y-89216000D01*
X146088250Y-89216000D01*
X146112142Y-89217174D01*
X146112142Y-89217174D01*
G37*
D12*
X145844500Y-89916000D03*
G04 #@! TD*
D13*
G04 #@! TO.C,C4*
X148844000Y-68548000D03*
X148844000Y-66548000D03*
G04 #@! TD*
D14*
G04 #@! TO.C,C6*
X155956000Y-59182000D03*
X153956000Y-59182000D03*
G04 #@! TD*
D15*
G04 #@! TO.C,J10*
X157480000Y-71378000D03*
D16*
X156230000Y-66878000D03*
X160980000Y-66878000D03*
D15*
X158680000Y-71378000D03*
X159880000Y-71378000D03*
G04 #@! TD*
D17*
G04 #@! TO.C,U6*
X157818000Y-53660000D03*
X157818000Y-54610000D03*
X157818000Y-55560000D03*
X155618000Y-55560000D03*
X155618000Y-53660000D03*
X155618000Y-54610000D03*
G04 #@! TD*
D18*
G04 #@! TO.C,U8*
X151196500Y-57953000D03*
X151196500Y-58603000D03*
X151196500Y-59253000D03*
X151196500Y-59903000D03*
X148396500Y-59903000D03*
X148396500Y-59253000D03*
X148396500Y-58603000D03*
X148396500Y-57953000D03*
G04 #@! TD*
D19*
G04 #@! TO.C,U9*
X154482000Y-63238000D03*
D20*
X154432000Y-62738000D03*
X154432000Y-62238000D03*
X155582000Y-62238000D03*
X155582000Y-62738000D03*
X155582000Y-63238000D03*
G04 #@! TD*
D11*
G04 #@! TO.C,R14*
G36*
X158722142Y-59711674D02*
X158745803Y-59715184D01*
X158769007Y-59720996D01*
X158791529Y-59729054D01*
X158813153Y-59739282D01*
X158833670Y-59751579D01*
X158852883Y-59765829D01*
X158870607Y-59781893D01*
X158886671Y-59799617D01*
X158900921Y-59818830D01*
X158913218Y-59839347D01*
X158923446Y-59860971D01*
X158931504Y-59883493D01*
X158937316Y-59906697D01*
X158940826Y-59930358D01*
X158942000Y-59954250D01*
X158942000Y-60441750D01*
X158940826Y-60465642D01*
X158937316Y-60489303D01*
X158931504Y-60512507D01*
X158923446Y-60535029D01*
X158913218Y-60556653D01*
X158900921Y-60577170D01*
X158886671Y-60596383D01*
X158870607Y-60614107D01*
X158852883Y-60630171D01*
X158833670Y-60644421D01*
X158813153Y-60656718D01*
X158791529Y-60666946D01*
X158769007Y-60675004D01*
X158745803Y-60680816D01*
X158722142Y-60684326D01*
X158698250Y-60685500D01*
X157785750Y-60685500D01*
X157761858Y-60684326D01*
X157738197Y-60680816D01*
X157714993Y-60675004D01*
X157692471Y-60666946D01*
X157670847Y-60656718D01*
X157650330Y-60644421D01*
X157631117Y-60630171D01*
X157613393Y-60614107D01*
X157597329Y-60596383D01*
X157583079Y-60577170D01*
X157570782Y-60556653D01*
X157560554Y-60535029D01*
X157552496Y-60512507D01*
X157546684Y-60489303D01*
X157543174Y-60465642D01*
X157542000Y-60441750D01*
X157542000Y-59954250D01*
X157543174Y-59930358D01*
X157546684Y-59906697D01*
X157552496Y-59883493D01*
X157560554Y-59860971D01*
X157570782Y-59839347D01*
X157583079Y-59818830D01*
X157597329Y-59799617D01*
X157613393Y-59781893D01*
X157631117Y-59765829D01*
X157650330Y-59751579D01*
X157670847Y-59739282D01*
X157692471Y-59729054D01*
X157714993Y-59720996D01*
X157738197Y-59715184D01*
X157761858Y-59711674D01*
X157785750Y-59710500D01*
X158698250Y-59710500D01*
X158722142Y-59711674D01*
X158722142Y-59711674D01*
G37*
D12*
X158242000Y-60198000D03*
D11*
G36*
X158722142Y-61586674D02*
X158745803Y-61590184D01*
X158769007Y-61595996D01*
X158791529Y-61604054D01*
X158813153Y-61614282D01*
X158833670Y-61626579D01*
X158852883Y-61640829D01*
X158870607Y-61656893D01*
X158886671Y-61674617D01*
X158900921Y-61693830D01*
X158913218Y-61714347D01*
X158923446Y-61735971D01*
X158931504Y-61758493D01*
X158937316Y-61781697D01*
X158940826Y-61805358D01*
X158942000Y-61829250D01*
X158942000Y-62316750D01*
X158940826Y-62340642D01*
X158937316Y-62364303D01*
X158931504Y-62387507D01*
X158923446Y-62410029D01*
X158913218Y-62431653D01*
X158900921Y-62452170D01*
X158886671Y-62471383D01*
X158870607Y-62489107D01*
X158852883Y-62505171D01*
X158833670Y-62519421D01*
X158813153Y-62531718D01*
X158791529Y-62541946D01*
X158769007Y-62550004D01*
X158745803Y-62555816D01*
X158722142Y-62559326D01*
X158698250Y-62560500D01*
X157785750Y-62560500D01*
X157761858Y-62559326D01*
X157738197Y-62555816D01*
X157714993Y-62550004D01*
X157692471Y-62541946D01*
X157670847Y-62531718D01*
X157650330Y-62519421D01*
X157631117Y-62505171D01*
X157613393Y-62489107D01*
X157597329Y-62471383D01*
X157583079Y-62452170D01*
X157570782Y-62431653D01*
X157560554Y-62410029D01*
X157552496Y-62387507D01*
X157546684Y-62364303D01*
X157543174Y-62340642D01*
X157542000Y-62316750D01*
X157542000Y-61829250D01*
X157543174Y-61805358D01*
X157546684Y-61781697D01*
X157552496Y-61758493D01*
X157560554Y-61735971D01*
X157570782Y-61714347D01*
X157583079Y-61693830D01*
X157597329Y-61674617D01*
X157613393Y-61656893D01*
X157631117Y-61640829D01*
X157650330Y-61626579D01*
X157670847Y-61614282D01*
X157692471Y-61604054D01*
X157714993Y-61595996D01*
X157738197Y-61590184D01*
X157761858Y-61586674D01*
X157785750Y-61585500D01*
X158698250Y-61585500D01*
X158722142Y-61586674D01*
X158722142Y-61586674D01*
G37*
D12*
X158242000Y-62073000D03*
G04 #@! TD*
D11*
G04 #@! TO.C,R2*
G36*
X144046642Y-92646174D02*
X144070303Y-92649684D01*
X144093507Y-92655496D01*
X144116029Y-92663554D01*
X144137653Y-92673782D01*
X144158170Y-92686079D01*
X144177383Y-92700329D01*
X144195107Y-92716393D01*
X144211171Y-92734117D01*
X144225421Y-92753330D01*
X144237718Y-92773847D01*
X144247946Y-92795471D01*
X144256004Y-92817993D01*
X144261816Y-92841197D01*
X144265326Y-92864858D01*
X144266500Y-92888750D01*
X144266500Y-93801250D01*
X144265326Y-93825142D01*
X144261816Y-93848803D01*
X144256004Y-93872007D01*
X144247946Y-93894529D01*
X144237718Y-93916153D01*
X144225421Y-93936670D01*
X144211171Y-93955883D01*
X144195107Y-93973607D01*
X144177383Y-93989671D01*
X144158170Y-94003921D01*
X144137653Y-94016218D01*
X144116029Y-94026446D01*
X144093507Y-94034504D01*
X144070303Y-94040316D01*
X144046642Y-94043826D01*
X144022750Y-94045000D01*
X143535250Y-94045000D01*
X143511358Y-94043826D01*
X143487697Y-94040316D01*
X143464493Y-94034504D01*
X143441971Y-94026446D01*
X143420347Y-94016218D01*
X143399830Y-94003921D01*
X143380617Y-93989671D01*
X143362893Y-93973607D01*
X143346829Y-93955883D01*
X143332579Y-93936670D01*
X143320282Y-93916153D01*
X143310054Y-93894529D01*
X143301996Y-93872007D01*
X143296184Y-93848803D01*
X143292674Y-93825142D01*
X143291500Y-93801250D01*
X143291500Y-92888750D01*
X143292674Y-92864858D01*
X143296184Y-92841197D01*
X143301996Y-92817993D01*
X143310054Y-92795471D01*
X143320282Y-92773847D01*
X143332579Y-92753330D01*
X143346829Y-92734117D01*
X143362893Y-92716393D01*
X143380617Y-92700329D01*
X143399830Y-92686079D01*
X143420347Y-92673782D01*
X143441971Y-92663554D01*
X143464493Y-92655496D01*
X143487697Y-92649684D01*
X143511358Y-92646174D01*
X143535250Y-92645000D01*
X144022750Y-92645000D01*
X144046642Y-92646174D01*
X144046642Y-92646174D01*
G37*
D12*
X143779000Y-93345000D03*
D11*
G36*
X145921642Y-92646174D02*
X145945303Y-92649684D01*
X145968507Y-92655496D01*
X145991029Y-92663554D01*
X146012653Y-92673782D01*
X146033170Y-92686079D01*
X146052383Y-92700329D01*
X146070107Y-92716393D01*
X146086171Y-92734117D01*
X146100421Y-92753330D01*
X146112718Y-92773847D01*
X146122946Y-92795471D01*
X146131004Y-92817993D01*
X146136816Y-92841197D01*
X146140326Y-92864858D01*
X146141500Y-92888750D01*
X146141500Y-93801250D01*
X146140326Y-93825142D01*
X146136816Y-93848803D01*
X146131004Y-93872007D01*
X146122946Y-93894529D01*
X146112718Y-93916153D01*
X146100421Y-93936670D01*
X146086171Y-93955883D01*
X146070107Y-93973607D01*
X146052383Y-93989671D01*
X146033170Y-94003921D01*
X146012653Y-94016218D01*
X145991029Y-94026446D01*
X145968507Y-94034504D01*
X145945303Y-94040316D01*
X145921642Y-94043826D01*
X145897750Y-94045000D01*
X145410250Y-94045000D01*
X145386358Y-94043826D01*
X145362697Y-94040316D01*
X145339493Y-94034504D01*
X145316971Y-94026446D01*
X145295347Y-94016218D01*
X145274830Y-94003921D01*
X145255617Y-93989671D01*
X145237893Y-93973607D01*
X145221829Y-93955883D01*
X145207579Y-93936670D01*
X145195282Y-93916153D01*
X145185054Y-93894529D01*
X145176996Y-93872007D01*
X145171184Y-93848803D01*
X145167674Y-93825142D01*
X145166500Y-93801250D01*
X145166500Y-92888750D01*
X145167674Y-92864858D01*
X145171184Y-92841197D01*
X145176996Y-92817993D01*
X145185054Y-92795471D01*
X145195282Y-92773847D01*
X145207579Y-92753330D01*
X145221829Y-92734117D01*
X145237893Y-92716393D01*
X145255617Y-92700329D01*
X145274830Y-92686079D01*
X145295347Y-92673782D01*
X145316971Y-92663554D01*
X145339493Y-92655496D01*
X145362697Y-92649684D01*
X145386358Y-92646174D01*
X145410250Y-92645000D01*
X145897750Y-92645000D01*
X145921642Y-92646174D01*
X145921642Y-92646174D01*
G37*
D12*
X145654000Y-93345000D03*
G04 #@! TD*
D11*
G04 #@! TO.C,R3*
G36*
X141791642Y-92963674D02*
X141815303Y-92967184D01*
X141838507Y-92972996D01*
X141861029Y-92981054D01*
X141882653Y-92991282D01*
X141903170Y-93003579D01*
X141922383Y-93017829D01*
X141940107Y-93033893D01*
X141956171Y-93051617D01*
X141970421Y-93070830D01*
X141982718Y-93091347D01*
X141992946Y-93112971D01*
X142001004Y-93135493D01*
X142006816Y-93158697D01*
X142010326Y-93182358D01*
X142011500Y-93206250D01*
X142011500Y-94118750D01*
X142010326Y-94142642D01*
X142006816Y-94166303D01*
X142001004Y-94189507D01*
X141992946Y-94212029D01*
X141982718Y-94233653D01*
X141970421Y-94254170D01*
X141956171Y-94273383D01*
X141940107Y-94291107D01*
X141922383Y-94307171D01*
X141903170Y-94321421D01*
X141882653Y-94333718D01*
X141861029Y-94343946D01*
X141838507Y-94352004D01*
X141815303Y-94357816D01*
X141791642Y-94361326D01*
X141767750Y-94362500D01*
X141280250Y-94362500D01*
X141256358Y-94361326D01*
X141232697Y-94357816D01*
X141209493Y-94352004D01*
X141186971Y-94343946D01*
X141165347Y-94333718D01*
X141144830Y-94321421D01*
X141125617Y-94307171D01*
X141107893Y-94291107D01*
X141091829Y-94273383D01*
X141077579Y-94254170D01*
X141065282Y-94233653D01*
X141055054Y-94212029D01*
X141046996Y-94189507D01*
X141041184Y-94166303D01*
X141037674Y-94142642D01*
X141036500Y-94118750D01*
X141036500Y-93206250D01*
X141037674Y-93182358D01*
X141041184Y-93158697D01*
X141046996Y-93135493D01*
X141055054Y-93112971D01*
X141065282Y-93091347D01*
X141077579Y-93070830D01*
X141091829Y-93051617D01*
X141107893Y-93033893D01*
X141125617Y-93017829D01*
X141144830Y-93003579D01*
X141165347Y-92991282D01*
X141186971Y-92981054D01*
X141209493Y-92972996D01*
X141232697Y-92967184D01*
X141256358Y-92963674D01*
X141280250Y-92962500D01*
X141767750Y-92962500D01*
X141791642Y-92963674D01*
X141791642Y-92963674D01*
G37*
D12*
X141524000Y-93662500D03*
D11*
G36*
X139916642Y-92963674D02*
X139940303Y-92967184D01*
X139963507Y-92972996D01*
X139986029Y-92981054D01*
X140007653Y-92991282D01*
X140028170Y-93003579D01*
X140047383Y-93017829D01*
X140065107Y-93033893D01*
X140081171Y-93051617D01*
X140095421Y-93070830D01*
X140107718Y-93091347D01*
X140117946Y-93112971D01*
X140126004Y-93135493D01*
X140131816Y-93158697D01*
X140135326Y-93182358D01*
X140136500Y-93206250D01*
X140136500Y-94118750D01*
X140135326Y-94142642D01*
X140131816Y-94166303D01*
X140126004Y-94189507D01*
X140117946Y-94212029D01*
X140107718Y-94233653D01*
X140095421Y-94254170D01*
X140081171Y-94273383D01*
X140065107Y-94291107D01*
X140047383Y-94307171D01*
X140028170Y-94321421D01*
X140007653Y-94333718D01*
X139986029Y-94343946D01*
X139963507Y-94352004D01*
X139940303Y-94357816D01*
X139916642Y-94361326D01*
X139892750Y-94362500D01*
X139405250Y-94362500D01*
X139381358Y-94361326D01*
X139357697Y-94357816D01*
X139334493Y-94352004D01*
X139311971Y-94343946D01*
X139290347Y-94333718D01*
X139269830Y-94321421D01*
X139250617Y-94307171D01*
X139232893Y-94291107D01*
X139216829Y-94273383D01*
X139202579Y-94254170D01*
X139190282Y-94233653D01*
X139180054Y-94212029D01*
X139171996Y-94189507D01*
X139166184Y-94166303D01*
X139162674Y-94142642D01*
X139161500Y-94118750D01*
X139161500Y-93206250D01*
X139162674Y-93182358D01*
X139166184Y-93158697D01*
X139171996Y-93135493D01*
X139180054Y-93112971D01*
X139190282Y-93091347D01*
X139202579Y-93070830D01*
X139216829Y-93051617D01*
X139232893Y-93033893D01*
X139250617Y-93017829D01*
X139269830Y-93003579D01*
X139290347Y-92991282D01*
X139311971Y-92981054D01*
X139334493Y-92972996D01*
X139357697Y-92967184D01*
X139381358Y-92963674D01*
X139405250Y-92962500D01*
X139892750Y-92962500D01*
X139916642Y-92963674D01*
X139916642Y-92963674D01*
G37*
D12*
X139649000Y-93662500D03*
G04 #@! TD*
D11*
G04 #@! TO.C,R5*
G36*
X140267642Y-89401174D02*
X140291303Y-89404684D01*
X140314507Y-89410496D01*
X140337029Y-89418554D01*
X140358653Y-89428782D01*
X140379170Y-89441079D01*
X140398383Y-89455329D01*
X140416107Y-89471393D01*
X140432171Y-89489117D01*
X140446421Y-89508330D01*
X140458718Y-89528847D01*
X140468946Y-89550471D01*
X140477004Y-89572993D01*
X140482816Y-89596197D01*
X140486326Y-89619858D01*
X140487500Y-89643750D01*
X140487500Y-90556250D01*
X140486326Y-90580142D01*
X140482816Y-90603803D01*
X140477004Y-90627007D01*
X140468946Y-90649529D01*
X140458718Y-90671153D01*
X140446421Y-90691670D01*
X140432171Y-90710883D01*
X140416107Y-90728607D01*
X140398383Y-90744671D01*
X140379170Y-90758921D01*
X140358653Y-90771218D01*
X140337029Y-90781446D01*
X140314507Y-90789504D01*
X140291303Y-90795316D01*
X140267642Y-90798826D01*
X140243750Y-90800000D01*
X139756250Y-90800000D01*
X139732358Y-90798826D01*
X139708697Y-90795316D01*
X139685493Y-90789504D01*
X139662971Y-90781446D01*
X139641347Y-90771218D01*
X139620830Y-90758921D01*
X139601617Y-90744671D01*
X139583893Y-90728607D01*
X139567829Y-90710883D01*
X139553579Y-90691670D01*
X139541282Y-90671153D01*
X139531054Y-90649529D01*
X139522996Y-90627007D01*
X139517184Y-90603803D01*
X139513674Y-90580142D01*
X139512500Y-90556250D01*
X139512500Y-89643750D01*
X139513674Y-89619858D01*
X139517184Y-89596197D01*
X139522996Y-89572993D01*
X139531054Y-89550471D01*
X139541282Y-89528847D01*
X139553579Y-89508330D01*
X139567829Y-89489117D01*
X139583893Y-89471393D01*
X139601617Y-89455329D01*
X139620830Y-89441079D01*
X139641347Y-89428782D01*
X139662971Y-89418554D01*
X139685493Y-89410496D01*
X139708697Y-89404684D01*
X139732358Y-89401174D01*
X139756250Y-89400000D01*
X140243750Y-89400000D01*
X140267642Y-89401174D01*
X140267642Y-89401174D01*
G37*
D12*
X140000000Y-90100000D03*
D11*
G36*
X142142642Y-89401174D02*
X142166303Y-89404684D01*
X142189507Y-89410496D01*
X142212029Y-89418554D01*
X142233653Y-89428782D01*
X142254170Y-89441079D01*
X142273383Y-89455329D01*
X142291107Y-89471393D01*
X142307171Y-89489117D01*
X142321421Y-89508330D01*
X142333718Y-89528847D01*
X142343946Y-89550471D01*
X142352004Y-89572993D01*
X142357816Y-89596197D01*
X142361326Y-89619858D01*
X142362500Y-89643750D01*
X142362500Y-90556250D01*
X142361326Y-90580142D01*
X142357816Y-90603803D01*
X142352004Y-90627007D01*
X142343946Y-90649529D01*
X142333718Y-90671153D01*
X142321421Y-90691670D01*
X142307171Y-90710883D01*
X142291107Y-90728607D01*
X142273383Y-90744671D01*
X142254170Y-90758921D01*
X142233653Y-90771218D01*
X142212029Y-90781446D01*
X142189507Y-90789504D01*
X142166303Y-90795316D01*
X142142642Y-90798826D01*
X142118750Y-90800000D01*
X141631250Y-90800000D01*
X141607358Y-90798826D01*
X141583697Y-90795316D01*
X141560493Y-90789504D01*
X141537971Y-90781446D01*
X141516347Y-90771218D01*
X141495830Y-90758921D01*
X141476617Y-90744671D01*
X141458893Y-90728607D01*
X141442829Y-90710883D01*
X141428579Y-90691670D01*
X141416282Y-90671153D01*
X141406054Y-90649529D01*
X141397996Y-90627007D01*
X141392184Y-90603803D01*
X141388674Y-90580142D01*
X141387500Y-90556250D01*
X141387500Y-89643750D01*
X141388674Y-89619858D01*
X141392184Y-89596197D01*
X141397996Y-89572993D01*
X141406054Y-89550471D01*
X141416282Y-89528847D01*
X141428579Y-89508330D01*
X141442829Y-89489117D01*
X141458893Y-89471393D01*
X141476617Y-89455329D01*
X141495830Y-89441079D01*
X141516347Y-89428782D01*
X141537971Y-89418554D01*
X141560493Y-89410496D01*
X141583697Y-89404684D01*
X141607358Y-89401174D01*
X141631250Y-89400000D01*
X142118750Y-89400000D01*
X142142642Y-89401174D01*
X142142642Y-89401174D01*
G37*
D12*
X141875000Y-90100000D03*
G04 #@! TD*
D11*
G04 #@! TO.C,R6*
G36*
X148113142Y-79501674D02*
X148136803Y-79505184D01*
X148160007Y-79510996D01*
X148182529Y-79519054D01*
X148204153Y-79529282D01*
X148224670Y-79541579D01*
X148243883Y-79555829D01*
X148261607Y-79571893D01*
X148277671Y-79589617D01*
X148291921Y-79608830D01*
X148304218Y-79629347D01*
X148314446Y-79650971D01*
X148322504Y-79673493D01*
X148328316Y-79696697D01*
X148331826Y-79720358D01*
X148333000Y-79744250D01*
X148333000Y-80656750D01*
X148331826Y-80680642D01*
X148328316Y-80704303D01*
X148322504Y-80727507D01*
X148314446Y-80750029D01*
X148304218Y-80771653D01*
X148291921Y-80792170D01*
X148277671Y-80811383D01*
X148261607Y-80829107D01*
X148243883Y-80845171D01*
X148224670Y-80859421D01*
X148204153Y-80871718D01*
X148182529Y-80881946D01*
X148160007Y-80890004D01*
X148136803Y-80895816D01*
X148113142Y-80899326D01*
X148089250Y-80900500D01*
X147601750Y-80900500D01*
X147577858Y-80899326D01*
X147554197Y-80895816D01*
X147530993Y-80890004D01*
X147508471Y-80881946D01*
X147486847Y-80871718D01*
X147466330Y-80859421D01*
X147447117Y-80845171D01*
X147429393Y-80829107D01*
X147413329Y-80811383D01*
X147399079Y-80792170D01*
X147386782Y-80771653D01*
X147376554Y-80750029D01*
X147368496Y-80727507D01*
X147362684Y-80704303D01*
X147359174Y-80680642D01*
X147358000Y-80656750D01*
X147358000Y-79744250D01*
X147359174Y-79720358D01*
X147362684Y-79696697D01*
X147368496Y-79673493D01*
X147376554Y-79650971D01*
X147386782Y-79629347D01*
X147399079Y-79608830D01*
X147413329Y-79589617D01*
X147429393Y-79571893D01*
X147447117Y-79555829D01*
X147466330Y-79541579D01*
X147486847Y-79529282D01*
X147508471Y-79519054D01*
X147530993Y-79510996D01*
X147554197Y-79505184D01*
X147577858Y-79501674D01*
X147601750Y-79500500D01*
X148089250Y-79500500D01*
X148113142Y-79501674D01*
X148113142Y-79501674D01*
G37*
D12*
X147845500Y-80200500D03*
D11*
G36*
X149988142Y-79501674D02*
X150011803Y-79505184D01*
X150035007Y-79510996D01*
X150057529Y-79519054D01*
X150079153Y-79529282D01*
X150099670Y-79541579D01*
X150118883Y-79555829D01*
X150136607Y-79571893D01*
X150152671Y-79589617D01*
X150166921Y-79608830D01*
X150179218Y-79629347D01*
X150189446Y-79650971D01*
X150197504Y-79673493D01*
X150203316Y-79696697D01*
X150206826Y-79720358D01*
X150208000Y-79744250D01*
X150208000Y-80656750D01*
X150206826Y-80680642D01*
X150203316Y-80704303D01*
X150197504Y-80727507D01*
X150189446Y-80750029D01*
X150179218Y-80771653D01*
X150166921Y-80792170D01*
X150152671Y-80811383D01*
X150136607Y-80829107D01*
X150118883Y-80845171D01*
X150099670Y-80859421D01*
X150079153Y-80871718D01*
X150057529Y-80881946D01*
X150035007Y-80890004D01*
X150011803Y-80895816D01*
X149988142Y-80899326D01*
X149964250Y-80900500D01*
X149476750Y-80900500D01*
X149452858Y-80899326D01*
X149429197Y-80895816D01*
X149405993Y-80890004D01*
X149383471Y-80881946D01*
X149361847Y-80871718D01*
X149341330Y-80859421D01*
X149322117Y-80845171D01*
X149304393Y-80829107D01*
X149288329Y-80811383D01*
X149274079Y-80792170D01*
X149261782Y-80771653D01*
X149251554Y-80750029D01*
X149243496Y-80727507D01*
X149237684Y-80704303D01*
X149234174Y-80680642D01*
X149233000Y-80656750D01*
X149233000Y-79744250D01*
X149234174Y-79720358D01*
X149237684Y-79696697D01*
X149243496Y-79673493D01*
X149251554Y-79650971D01*
X149261782Y-79629347D01*
X149274079Y-79608830D01*
X149288329Y-79589617D01*
X149304393Y-79571893D01*
X149322117Y-79555829D01*
X149341330Y-79541579D01*
X149361847Y-79529282D01*
X149383471Y-79519054D01*
X149405993Y-79510996D01*
X149429197Y-79505184D01*
X149452858Y-79501674D01*
X149476750Y-79500500D01*
X149964250Y-79500500D01*
X149988142Y-79501674D01*
X149988142Y-79501674D01*
G37*
D12*
X149720500Y-80200500D03*
G04 #@! TD*
D11*
G04 #@! TO.C,R7*
G36*
X150049142Y-77088674D02*
X150072803Y-77092184D01*
X150096007Y-77097996D01*
X150118529Y-77106054D01*
X150140153Y-77116282D01*
X150160670Y-77128579D01*
X150179883Y-77142829D01*
X150197607Y-77158893D01*
X150213671Y-77176617D01*
X150227921Y-77195830D01*
X150240218Y-77216347D01*
X150250446Y-77237971D01*
X150258504Y-77260493D01*
X150264316Y-77283697D01*
X150267826Y-77307358D01*
X150269000Y-77331250D01*
X150269000Y-78243750D01*
X150267826Y-78267642D01*
X150264316Y-78291303D01*
X150258504Y-78314507D01*
X150250446Y-78337029D01*
X150240218Y-78358653D01*
X150227921Y-78379170D01*
X150213671Y-78398383D01*
X150197607Y-78416107D01*
X150179883Y-78432171D01*
X150160670Y-78446421D01*
X150140153Y-78458718D01*
X150118529Y-78468946D01*
X150096007Y-78477004D01*
X150072803Y-78482816D01*
X150049142Y-78486326D01*
X150025250Y-78487500D01*
X149537750Y-78487500D01*
X149513858Y-78486326D01*
X149490197Y-78482816D01*
X149466993Y-78477004D01*
X149444471Y-78468946D01*
X149422847Y-78458718D01*
X149402330Y-78446421D01*
X149383117Y-78432171D01*
X149365393Y-78416107D01*
X149349329Y-78398383D01*
X149335079Y-78379170D01*
X149322782Y-78358653D01*
X149312554Y-78337029D01*
X149304496Y-78314507D01*
X149298684Y-78291303D01*
X149295174Y-78267642D01*
X149294000Y-78243750D01*
X149294000Y-77331250D01*
X149295174Y-77307358D01*
X149298684Y-77283697D01*
X149304496Y-77260493D01*
X149312554Y-77237971D01*
X149322782Y-77216347D01*
X149335079Y-77195830D01*
X149349329Y-77176617D01*
X149365393Y-77158893D01*
X149383117Y-77142829D01*
X149402330Y-77128579D01*
X149422847Y-77116282D01*
X149444471Y-77106054D01*
X149466993Y-77097996D01*
X149490197Y-77092184D01*
X149513858Y-77088674D01*
X149537750Y-77087500D01*
X150025250Y-77087500D01*
X150049142Y-77088674D01*
X150049142Y-77088674D01*
G37*
D12*
X149781500Y-77787500D03*
D11*
G36*
X148174142Y-77088674D02*
X148197803Y-77092184D01*
X148221007Y-77097996D01*
X148243529Y-77106054D01*
X148265153Y-77116282D01*
X148285670Y-77128579D01*
X148304883Y-77142829D01*
X148322607Y-77158893D01*
X148338671Y-77176617D01*
X148352921Y-77195830D01*
X148365218Y-77216347D01*
X148375446Y-77237971D01*
X148383504Y-77260493D01*
X148389316Y-77283697D01*
X148392826Y-77307358D01*
X148394000Y-77331250D01*
X148394000Y-78243750D01*
X148392826Y-78267642D01*
X148389316Y-78291303D01*
X148383504Y-78314507D01*
X148375446Y-78337029D01*
X148365218Y-78358653D01*
X148352921Y-78379170D01*
X148338671Y-78398383D01*
X148322607Y-78416107D01*
X148304883Y-78432171D01*
X148285670Y-78446421D01*
X148265153Y-78458718D01*
X148243529Y-78468946D01*
X148221007Y-78477004D01*
X148197803Y-78482816D01*
X148174142Y-78486326D01*
X148150250Y-78487500D01*
X147662750Y-78487500D01*
X147638858Y-78486326D01*
X147615197Y-78482816D01*
X147591993Y-78477004D01*
X147569471Y-78468946D01*
X147547847Y-78458718D01*
X147527330Y-78446421D01*
X147508117Y-78432171D01*
X147490393Y-78416107D01*
X147474329Y-78398383D01*
X147460079Y-78379170D01*
X147447782Y-78358653D01*
X147437554Y-78337029D01*
X147429496Y-78314507D01*
X147423684Y-78291303D01*
X147420174Y-78267642D01*
X147419000Y-78243750D01*
X147419000Y-77331250D01*
X147420174Y-77307358D01*
X147423684Y-77283697D01*
X147429496Y-77260493D01*
X147437554Y-77237971D01*
X147447782Y-77216347D01*
X147460079Y-77195830D01*
X147474329Y-77176617D01*
X147490393Y-77158893D01*
X147508117Y-77142829D01*
X147527330Y-77128579D01*
X147547847Y-77116282D01*
X147569471Y-77106054D01*
X147591993Y-77097996D01*
X147615197Y-77092184D01*
X147638858Y-77088674D01*
X147662750Y-77087500D01*
X148150250Y-77087500D01*
X148174142Y-77088674D01*
X148174142Y-77088674D01*
G37*
D12*
X147906500Y-77787500D03*
G04 #@! TD*
D11*
G04 #@! TO.C,R8*
G36*
X150051642Y-73977174D02*
X150075303Y-73980684D01*
X150098507Y-73986496D01*
X150121029Y-73994554D01*
X150142653Y-74004782D01*
X150163170Y-74017079D01*
X150182383Y-74031329D01*
X150200107Y-74047393D01*
X150216171Y-74065117D01*
X150230421Y-74084330D01*
X150242718Y-74104847D01*
X150252946Y-74126471D01*
X150261004Y-74148993D01*
X150266816Y-74172197D01*
X150270326Y-74195858D01*
X150271500Y-74219750D01*
X150271500Y-75132250D01*
X150270326Y-75156142D01*
X150266816Y-75179803D01*
X150261004Y-75203007D01*
X150252946Y-75225529D01*
X150242718Y-75247153D01*
X150230421Y-75267670D01*
X150216171Y-75286883D01*
X150200107Y-75304607D01*
X150182383Y-75320671D01*
X150163170Y-75334921D01*
X150142653Y-75347218D01*
X150121029Y-75357446D01*
X150098507Y-75365504D01*
X150075303Y-75371316D01*
X150051642Y-75374826D01*
X150027750Y-75376000D01*
X149540250Y-75376000D01*
X149516358Y-75374826D01*
X149492697Y-75371316D01*
X149469493Y-75365504D01*
X149446971Y-75357446D01*
X149425347Y-75347218D01*
X149404830Y-75334921D01*
X149385617Y-75320671D01*
X149367893Y-75304607D01*
X149351829Y-75286883D01*
X149337579Y-75267670D01*
X149325282Y-75247153D01*
X149315054Y-75225529D01*
X149306996Y-75203007D01*
X149301184Y-75179803D01*
X149297674Y-75156142D01*
X149296500Y-75132250D01*
X149296500Y-74219750D01*
X149297674Y-74195858D01*
X149301184Y-74172197D01*
X149306996Y-74148993D01*
X149315054Y-74126471D01*
X149325282Y-74104847D01*
X149337579Y-74084330D01*
X149351829Y-74065117D01*
X149367893Y-74047393D01*
X149385617Y-74031329D01*
X149404830Y-74017079D01*
X149425347Y-74004782D01*
X149446971Y-73994554D01*
X149469493Y-73986496D01*
X149492697Y-73980684D01*
X149516358Y-73977174D01*
X149540250Y-73976000D01*
X150027750Y-73976000D01*
X150051642Y-73977174D01*
X150051642Y-73977174D01*
G37*
D12*
X149784000Y-74676000D03*
D11*
G36*
X148176642Y-73977174D02*
X148200303Y-73980684D01*
X148223507Y-73986496D01*
X148246029Y-73994554D01*
X148267653Y-74004782D01*
X148288170Y-74017079D01*
X148307383Y-74031329D01*
X148325107Y-74047393D01*
X148341171Y-74065117D01*
X148355421Y-74084330D01*
X148367718Y-74104847D01*
X148377946Y-74126471D01*
X148386004Y-74148993D01*
X148391816Y-74172197D01*
X148395326Y-74195858D01*
X148396500Y-74219750D01*
X148396500Y-75132250D01*
X148395326Y-75156142D01*
X148391816Y-75179803D01*
X148386004Y-75203007D01*
X148377946Y-75225529D01*
X148367718Y-75247153D01*
X148355421Y-75267670D01*
X148341171Y-75286883D01*
X148325107Y-75304607D01*
X148307383Y-75320671D01*
X148288170Y-75334921D01*
X148267653Y-75347218D01*
X148246029Y-75357446D01*
X148223507Y-75365504D01*
X148200303Y-75371316D01*
X148176642Y-75374826D01*
X148152750Y-75376000D01*
X147665250Y-75376000D01*
X147641358Y-75374826D01*
X147617697Y-75371316D01*
X147594493Y-75365504D01*
X147571971Y-75357446D01*
X147550347Y-75347218D01*
X147529830Y-75334921D01*
X147510617Y-75320671D01*
X147492893Y-75304607D01*
X147476829Y-75286883D01*
X147462579Y-75267670D01*
X147450282Y-75247153D01*
X147440054Y-75225529D01*
X147431996Y-75203007D01*
X147426184Y-75179803D01*
X147422674Y-75156142D01*
X147421500Y-75132250D01*
X147421500Y-74219750D01*
X147422674Y-74195858D01*
X147426184Y-74172197D01*
X147431996Y-74148993D01*
X147440054Y-74126471D01*
X147450282Y-74104847D01*
X147462579Y-74084330D01*
X147476829Y-74065117D01*
X147492893Y-74047393D01*
X147510617Y-74031329D01*
X147529830Y-74017079D01*
X147550347Y-74004782D01*
X147571971Y-73994554D01*
X147594493Y-73986496D01*
X147617697Y-73980684D01*
X147641358Y-73977174D01*
X147665250Y-73976000D01*
X148152750Y-73976000D01*
X148176642Y-73977174D01*
X148176642Y-73977174D01*
G37*
D12*
X147909000Y-74676000D03*
G04 #@! TD*
D11*
G04 #@! TO.C,R9*
G36*
X151905642Y-55181174D02*
X151929303Y-55184684D01*
X151952507Y-55190496D01*
X151975029Y-55198554D01*
X151996653Y-55208782D01*
X152017170Y-55221079D01*
X152036383Y-55235329D01*
X152054107Y-55251393D01*
X152070171Y-55269117D01*
X152084421Y-55288330D01*
X152096718Y-55308847D01*
X152106946Y-55330471D01*
X152115004Y-55352993D01*
X152120816Y-55376197D01*
X152124326Y-55399858D01*
X152125500Y-55423750D01*
X152125500Y-56336250D01*
X152124326Y-56360142D01*
X152120816Y-56383803D01*
X152115004Y-56407007D01*
X152106946Y-56429529D01*
X152096718Y-56451153D01*
X152084421Y-56471670D01*
X152070171Y-56490883D01*
X152054107Y-56508607D01*
X152036383Y-56524671D01*
X152017170Y-56538921D01*
X151996653Y-56551218D01*
X151975029Y-56561446D01*
X151952507Y-56569504D01*
X151929303Y-56575316D01*
X151905642Y-56578826D01*
X151881750Y-56580000D01*
X151394250Y-56580000D01*
X151370358Y-56578826D01*
X151346697Y-56575316D01*
X151323493Y-56569504D01*
X151300971Y-56561446D01*
X151279347Y-56551218D01*
X151258830Y-56538921D01*
X151239617Y-56524671D01*
X151221893Y-56508607D01*
X151205829Y-56490883D01*
X151191579Y-56471670D01*
X151179282Y-56451153D01*
X151169054Y-56429529D01*
X151160996Y-56407007D01*
X151155184Y-56383803D01*
X151151674Y-56360142D01*
X151150500Y-56336250D01*
X151150500Y-55423750D01*
X151151674Y-55399858D01*
X151155184Y-55376197D01*
X151160996Y-55352993D01*
X151169054Y-55330471D01*
X151179282Y-55308847D01*
X151191579Y-55288330D01*
X151205829Y-55269117D01*
X151221893Y-55251393D01*
X151239617Y-55235329D01*
X151258830Y-55221079D01*
X151279347Y-55208782D01*
X151300971Y-55198554D01*
X151323493Y-55190496D01*
X151346697Y-55184684D01*
X151370358Y-55181174D01*
X151394250Y-55180000D01*
X151881750Y-55180000D01*
X151905642Y-55181174D01*
X151905642Y-55181174D01*
G37*
D12*
X151638000Y-55880000D03*
D11*
G36*
X153780642Y-55181174D02*
X153804303Y-55184684D01*
X153827507Y-55190496D01*
X153850029Y-55198554D01*
X153871653Y-55208782D01*
X153892170Y-55221079D01*
X153911383Y-55235329D01*
X153929107Y-55251393D01*
X153945171Y-55269117D01*
X153959421Y-55288330D01*
X153971718Y-55308847D01*
X153981946Y-55330471D01*
X153990004Y-55352993D01*
X153995816Y-55376197D01*
X153999326Y-55399858D01*
X154000500Y-55423750D01*
X154000500Y-56336250D01*
X153999326Y-56360142D01*
X153995816Y-56383803D01*
X153990004Y-56407007D01*
X153981946Y-56429529D01*
X153971718Y-56451153D01*
X153959421Y-56471670D01*
X153945171Y-56490883D01*
X153929107Y-56508607D01*
X153911383Y-56524671D01*
X153892170Y-56538921D01*
X153871653Y-56551218D01*
X153850029Y-56561446D01*
X153827507Y-56569504D01*
X153804303Y-56575316D01*
X153780642Y-56578826D01*
X153756750Y-56580000D01*
X153269250Y-56580000D01*
X153245358Y-56578826D01*
X153221697Y-56575316D01*
X153198493Y-56569504D01*
X153175971Y-56561446D01*
X153154347Y-56551218D01*
X153133830Y-56538921D01*
X153114617Y-56524671D01*
X153096893Y-56508607D01*
X153080829Y-56490883D01*
X153066579Y-56471670D01*
X153054282Y-56451153D01*
X153044054Y-56429529D01*
X153035996Y-56407007D01*
X153030184Y-56383803D01*
X153026674Y-56360142D01*
X153025500Y-56336250D01*
X153025500Y-55423750D01*
X153026674Y-55399858D01*
X153030184Y-55376197D01*
X153035996Y-55352993D01*
X153044054Y-55330471D01*
X153054282Y-55308847D01*
X153066579Y-55288330D01*
X153080829Y-55269117D01*
X153096893Y-55251393D01*
X153114617Y-55235329D01*
X153133830Y-55221079D01*
X153154347Y-55208782D01*
X153175971Y-55198554D01*
X153198493Y-55190496D01*
X153221697Y-55184684D01*
X153245358Y-55181174D01*
X153269250Y-55180000D01*
X153756750Y-55180000D01*
X153780642Y-55181174D01*
X153780642Y-55181174D01*
G37*
D12*
X153513000Y-55880000D03*
G04 #@! TD*
D11*
G04 #@! TO.C,R12*
G36*
X153526642Y-65849174D02*
X153550303Y-65852684D01*
X153573507Y-65858496D01*
X153596029Y-65866554D01*
X153617653Y-65876782D01*
X153638170Y-65889079D01*
X153657383Y-65903329D01*
X153675107Y-65919393D01*
X153691171Y-65937117D01*
X153705421Y-65956330D01*
X153717718Y-65976847D01*
X153727946Y-65998471D01*
X153736004Y-66020993D01*
X153741816Y-66044197D01*
X153745326Y-66067858D01*
X153746500Y-66091750D01*
X153746500Y-67004250D01*
X153745326Y-67028142D01*
X153741816Y-67051803D01*
X153736004Y-67075007D01*
X153727946Y-67097529D01*
X153717718Y-67119153D01*
X153705421Y-67139670D01*
X153691171Y-67158883D01*
X153675107Y-67176607D01*
X153657383Y-67192671D01*
X153638170Y-67206921D01*
X153617653Y-67219218D01*
X153596029Y-67229446D01*
X153573507Y-67237504D01*
X153550303Y-67243316D01*
X153526642Y-67246826D01*
X153502750Y-67248000D01*
X153015250Y-67248000D01*
X152991358Y-67246826D01*
X152967697Y-67243316D01*
X152944493Y-67237504D01*
X152921971Y-67229446D01*
X152900347Y-67219218D01*
X152879830Y-67206921D01*
X152860617Y-67192671D01*
X152842893Y-67176607D01*
X152826829Y-67158883D01*
X152812579Y-67139670D01*
X152800282Y-67119153D01*
X152790054Y-67097529D01*
X152781996Y-67075007D01*
X152776184Y-67051803D01*
X152772674Y-67028142D01*
X152771500Y-67004250D01*
X152771500Y-66091750D01*
X152772674Y-66067858D01*
X152776184Y-66044197D01*
X152781996Y-66020993D01*
X152790054Y-65998471D01*
X152800282Y-65976847D01*
X152812579Y-65956330D01*
X152826829Y-65937117D01*
X152842893Y-65919393D01*
X152860617Y-65903329D01*
X152879830Y-65889079D01*
X152900347Y-65876782D01*
X152921971Y-65866554D01*
X152944493Y-65858496D01*
X152967697Y-65852684D01*
X152991358Y-65849174D01*
X153015250Y-65848000D01*
X153502750Y-65848000D01*
X153526642Y-65849174D01*
X153526642Y-65849174D01*
G37*
D12*
X153259000Y-66548000D03*
D11*
G36*
X151651642Y-65849174D02*
X151675303Y-65852684D01*
X151698507Y-65858496D01*
X151721029Y-65866554D01*
X151742653Y-65876782D01*
X151763170Y-65889079D01*
X151782383Y-65903329D01*
X151800107Y-65919393D01*
X151816171Y-65937117D01*
X151830421Y-65956330D01*
X151842718Y-65976847D01*
X151852946Y-65998471D01*
X151861004Y-66020993D01*
X151866816Y-66044197D01*
X151870326Y-66067858D01*
X151871500Y-66091750D01*
X151871500Y-67004250D01*
X151870326Y-67028142D01*
X151866816Y-67051803D01*
X151861004Y-67075007D01*
X151852946Y-67097529D01*
X151842718Y-67119153D01*
X151830421Y-67139670D01*
X151816171Y-67158883D01*
X151800107Y-67176607D01*
X151782383Y-67192671D01*
X151763170Y-67206921D01*
X151742653Y-67219218D01*
X151721029Y-67229446D01*
X151698507Y-67237504D01*
X151675303Y-67243316D01*
X151651642Y-67246826D01*
X151627750Y-67248000D01*
X151140250Y-67248000D01*
X151116358Y-67246826D01*
X151092697Y-67243316D01*
X151069493Y-67237504D01*
X151046971Y-67229446D01*
X151025347Y-67219218D01*
X151004830Y-67206921D01*
X150985617Y-67192671D01*
X150967893Y-67176607D01*
X150951829Y-67158883D01*
X150937579Y-67139670D01*
X150925282Y-67119153D01*
X150915054Y-67097529D01*
X150906996Y-67075007D01*
X150901184Y-67051803D01*
X150897674Y-67028142D01*
X150896500Y-67004250D01*
X150896500Y-66091750D01*
X150897674Y-66067858D01*
X150901184Y-66044197D01*
X150906996Y-66020993D01*
X150915054Y-65998471D01*
X150925282Y-65976847D01*
X150937579Y-65956330D01*
X150951829Y-65937117D01*
X150967893Y-65919393D01*
X150985617Y-65903329D01*
X151004830Y-65889079D01*
X151025347Y-65876782D01*
X151046971Y-65866554D01*
X151069493Y-65858496D01*
X151092697Y-65852684D01*
X151116358Y-65849174D01*
X151140250Y-65848000D01*
X151627750Y-65848000D01*
X151651642Y-65849174D01*
X151651642Y-65849174D01*
G37*
D12*
X151384000Y-66548000D03*
G04 #@! TD*
D21*
G04 #@! TO.C,U7*
X150114000Y-65250000D03*
X150114000Y-64750000D03*
X150114000Y-64250000D03*
X150114000Y-63750000D03*
X148114000Y-63750000D03*
X148114000Y-64250000D03*
X148114000Y-64750000D03*
X148114000Y-65250000D03*
D22*
X149114000Y-64500000D03*
G04 #@! TD*
M02*
