G04 #@! TF.GenerationSoftware,KiCad,Pcbnew,(5.0.1)-rc2*
G04 #@! TF.CreationDate,2019-03-09T00:44:05-07:00*
G04 #@! TF.ProjectId,GPSLogger,4750534C6F676765722E6B696361645F,rev?*
G04 #@! TF.SameCoordinates,Original*
G04 #@! TF.FileFunction,Soldermask,Top*
G04 #@! TF.FilePolarity,Negative*
%FSLAX46Y46*%
G04 Gerber Fmt 4.6, Leading zero omitted, Abs format (unit mm)*
G04 Created by KiCad (PCBNEW (5.0.1)-rc2) date 3/9/2019 12:44:05 AM*
%MOMM*%
%LPD*%
G01*
G04 APERTURE LIST*
%ADD10C,0.100000*%
G04 APERTURE END LIST*
D10*
G36*
X197208029Y-55875820D02*
X197293730Y-55884261D01*
X197361239Y-55904740D01*
X197458669Y-55934295D01*
X197508817Y-55961100D01*
X197610676Y-56015544D01*
X197743912Y-56124888D01*
X197853256Y-56258124D01*
X197907422Y-56359463D01*
X197934505Y-56410131D01*
X197942997Y-56438126D01*
X197984539Y-56575070D01*
X198001433Y-56746600D01*
X197984539Y-56918130D01*
X197965734Y-56980121D01*
X197934505Y-57083069D01*
X197914990Y-57119578D01*
X197853256Y-57235076D01*
X197743912Y-57368312D01*
X197729697Y-57379978D01*
X197712375Y-57397300D01*
X197698761Y-57417675D01*
X197689384Y-57440314D01*
X197684603Y-57464347D01*
X197684603Y-57488851D01*
X197689383Y-57512885D01*
X197698760Y-57535524D01*
X197712374Y-57555899D01*
X197729701Y-57573226D01*
X197750076Y-57586840D01*
X197772715Y-57596217D01*
X197796748Y-57600998D01*
X197809001Y-57601600D01*
X198227200Y-57601600D01*
X198227200Y-57937116D01*
X198229602Y-57961502D01*
X198236715Y-57984951D01*
X198248266Y-58006562D01*
X198263812Y-58025504D01*
X198282754Y-58041050D01*
X198304365Y-58052601D01*
X198327814Y-58059714D01*
X198352200Y-58062116D01*
X198376586Y-58059714D01*
X198400035Y-58052601D01*
X198421646Y-58041050D01*
X198440588Y-58025504D01*
X198456133Y-58006563D01*
X198461731Y-57998185D01*
X198548783Y-57911133D01*
X198559913Y-57903696D01*
X198651152Y-57842732D01*
X198764894Y-57795619D01*
X198764895Y-57795619D01*
X198764897Y-57795618D01*
X198885641Y-57771600D01*
X199020891Y-57771600D01*
X199021560Y-57771665D01*
X199045943Y-57769232D01*
X199069383Y-57762088D01*
X199090979Y-57750509D01*
X199109901Y-57734939D01*
X199125421Y-57715977D01*
X199136945Y-57694351D01*
X199144028Y-57670893D01*
X199146398Y-57646503D01*
X199143965Y-57622120D01*
X199136821Y-57598680D01*
X199118023Y-57567365D01*
X199116144Y-57565076D01*
X199034896Y-57413071D01*
X199021318Y-57368311D01*
X198984861Y-57248129D01*
X198972200Y-57119578D01*
X198972200Y-56883621D01*
X198984861Y-56755070D01*
X199018217Y-56645111D01*
X199034895Y-56590131D01*
X199066902Y-56530250D01*
X199116144Y-56438124D01*
X199225488Y-56304888D01*
X199358725Y-56195544D01*
X199460064Y-56141378D01*
X199510732Y-56114295D01*
X199565712Y-56097617D01*
X199675671Y-56064261D01*
X199847200Y-56047367D01*
X200018730Y-56064261D01*
X200128689Y-56097617D01*
X200183669Y-56114295D01*
X200234337Y-56141378D01*
X200335676Y-56195544D01*
X200468912Y-56304888D01*
X200578256Y-56438124D01*
X200618881Y-56514129D01*
X200659505Y-56590131D01*
X200684522Y-56672602D01*
X200709539Y-56755071D01*
X200722200Y-56883622D01*
X200722200Y-57119579D01*
X200709539Y-57248130D01*
X200676183Y-57358089D01*
X200659505Y-57413069D01*
X200657043Y-57417675D01*
X200578256Y-57565076D01*
X200468912Y-57698312D01*
X200335675Y-57807656D01*
X200335673Y-57807657D01*
X200335672Y-57807658D01*
X200183671Y-57888904D01*
X200140750Y-57901924D01*
X200018729Y-57938939D01*
X199847200Y-57955833D01*
X199675670Y-57938939D01*
X199652315Y-57931854D01*
X199628290Y-57927076D01*
X199603786Y-57927076D01*
X199579753Y-57931856D01*
X199557114Y-57941234D01*
X199536739Y-57954848D01*
X199519412Y-57972175D01*
X199505798Y-57992549D01*
X199496420Y-58015188D01*
X199491640Y-58039222D01*
X199491640Y-58063726D01*
X199496420Y-58087759D01*
X199500553Y-58099310D01*
X199501067Y-58100550D01*
X199501068Y-58100552D01*
X199548181Y-58214294D01*
X199548182Y-58214297D01*
X199572200Y-58335041D01*
X199572200Y-58458159D01*
X199563437Y-58502214D01*
X199561035Y-58526600D01*
X199563437Y-58550987D01*
X199570550Y-58574436D01*
X199582101Y-58596047D01*
X199597647Y-58614989D01*
X199616589Y-58630534D01*
X199638200Y-58642085D01*
X199661649Y-58649198D01*
X199686035Y-58651600D01*
X201252200Y-58651600D01*
X201252200Y-62051600D01*
X199688024Y-62051600D01*
X199663638Y-62054002D01*
X199640189Y-62061115D01*
X199618578Y-62072666D01*
X199599636Y-62088212D01*
X199584090Y-62107154D01*
X199572539Y-62128765D01*
X199565426Y-62152214D01*
X199563024Y-62176600D01*
X199565426Y-62200986D01*
X199572200Y-62235041D01*
X199572200Y-62358159D01*
X199548182Y-62478903D01*
X199542525Y-62492562D01*
X199535413Y-62516011D01*
X199533011Y-62540397D01*
X199535413Y-62564784D01*
X199542527Y-62588233D01*
X199554078Y-62609844D01*
X199569624Y-62628785D01*
X199588566Y-62644331D01*
X199610177Y-62655882D01*
X199633626Y-62662994D01*
X199670263Y-62664794D01*
X199675669Y-62664262D01*
X199675671Y-62664261D01*
X199847200Y-62647367D01*
X200018730Y-62664261D01*
X200092496Y-62686638D01*
X200183669Y-62714295D01*
X200216229Y-62731699D01*
X200335676Y-62795544D01*
X200468912Y-62904888D01*
X200578256Y-63038124D01*
X200602916Y-63084261D01*
X200659505Y-63190131D01*
X200667720Y-63217214D01*
X200709539Y-63355071D01*
X200722200Y-63483622D01*
X200722200Y-63719579D01*
X200709539Y-63848130D01*
X200679668Y-63946600D01*
X200659505Y-64013069D01*
X200633452Y-64061810D01*
X200578256Y-64165076D01*
X200468912Y-64298312D01*
X200335675Y-64407656D01*
X200335673Y-64407657D01*
X200335672Y-64407658D01*
X200183671Y-64488904D01*
X200140750Y-64501924D01*
X200018729Y-64538939D01*
X199847200Y-64555833D01*
X199675670Y-64538939D01*
X199565711Y-64505583D01*
X199510731Y-64488905D01*
X199460063Y-64461822D01*
X199358724Y-64407656D01*
X199225488Y-64298312D01*
X199116144Y-64165075D01*
X199116142Y-64165072D01*
X199034896Y-64013071D01*
X199014732Y-63946600D01*
X198984861Y-63848129D01*
X198972200Y-63719578D01*
X198972200Y-63483621D01*
X198984861Y-63355070D01*
X199034895Y-63190132D01*
X199034896Y-63190129D01*
X199080118Y-63105524D01*
X199089496Y-63082885D01*
X199094276Y-63058852D01*
X199094276Y-63034348D01*
X199089496Y-63010314D01*
X199080118Y-62987675D01*
X199066504Y-62967301D01*
X199049177Y-62949974D01*
X199028802Y-62936360D01*
X199006163Y-62926982D01*
X198969878Y-62921600D01*
X198885641Y-62921600D01*
X198764897Y-62897582D01*
X198764895Y-62897581D01*
X198764894Y-62897581D01*
X198651152Y-62850468D01*
X198548786Y-62782069D01*
X198548783Y-62782067D01*
X198461731Y-62695015D01*
X198456133Y-62686637D01*
X198440588Y-62667695D01*
X198421646Y-62652150D01*
X198400035Y-62640599D01*
X198376585Y-62633486D01*
X198352199Y-62631084D01*
X198327813Y-62633486D01*
X198304364Y-62640599D01*
X198282753Y-62652151D01*
X198263811Y-62667696D01*
X198248266Y-62686638D01*
X198236715Y-62708249D01*
X198229602Y-62731699D01*
X198227200Y-62756084D01*
X198227200Y-63116600D01*
X197837265Y-63116600D01*
X197812879Y-63119002D01*
X197789430Y-63126115D01*
X197767819Y-63137666D01*
X197748877Y-63153212D01*
X197733331Y-63172154D01*
X197721780Y-63193765D01*
X197714667Y-63217214D01*
X197712265Y-63241600D01*
X197714667Y-63265986D01*
X197721780Y-63289435D01*
X197740638Y-63320899D01*
X197743911Y-63324887D01*
X197743912Y-63324888D01*
X197853256Y-63458124D01*
X197904401Y-63553810D01*
X197934505Y-63610131D01*
X197951183Y-63665111D01*
X197984539Y-63775070D01*
X198001433Y-63946600D01*
X197984539Y-64118130D01*
X197952464Y-64223865D01*
X197934505Y-64283069D01*
X197926357Y-64298312D01*
X197853256Y-64435076D01*
X197743912Y-64568312D01*
X197610676Y-64677656D01*
X197509337Y-64731822D01*
X197458669Y-64758905D01*
X197403689Y-64775583D01*
X197293730Y-64808939D01*
X197208029Y-64817380D01*
X197165180Y-64821600D01*
X196929220Y-64821600D01*
X196886371Y-64817380D01*
X196800670Y-64808939D01*
X196690711Y-64775583D01*
X196635731Y-64758905D01*
X196585063Y-64731822D01*
X196483724Y-64677656D01*
X196350488Y-64568312D01*
X196241144Y-64435076D01*
X196168043Y-64298312D01*
X196159895Y-64283069D01*
X196141936Y-64223865D01*
X196109861Y-64118130D01*
X196092967Y-63946600D01*
X196109861Y-63775070D01*
X196143217Y-63665111D01*
X196159895Y-63610131D01*
X196189999Y-63553810D01*
X196241144Y-63458124D01*
X196350488Y-63324888D01*
X196350489Y-63324887D01*
X196353762Y-63320899D01*
X196367375Y-63300524D01*
X196376753Y-63277885D01*
X196381533Y-63253852D01*
X196381533Y-63229347D01*
X196376752Y-63205314D01*
X196367375Y-63182675D01*
X196353761Y-63162300D01*
X196336434Y-63144973D01*
X196316059Y-63131360D01*
X196293420Y-63121982D01*
X196257135Y-63116600D01*
X195327200Y-63116600D01*
X195327200Y-61286600D01*
X198227200Y-61286600D01*
X198227200Y-61837116D01*
X198229602Y-61861502D01*
X198236715Y-61884951D01*
X198248266Y-61906562D01*
X198263812Y-61925504D01*
X198282754Y-61941050D01*
X198304365Y-61952601D01*
X198327814Y-61959714D01*
X198352200Y-61962116D01*
X198376586Y-61959714D01*
X198400035Y-61952601D01*
X198421646Y-61941050D01*
X198440588Y-61925504D01*
X198456133Y-61906563D01*
X198461731Y-61898185D01*
X198550602Y-61809314D01*
X198565587Y-61797017D01*
X198581132Y-61778075D01*
X198592684Y-61756465D01*
X198599798Y-61733016D01*
X198602200Y-61708627D01*
X198602200Y-58984573D01*
X198599798Y-58960187D01*
X198592685Y-58936738D01*
X198581134Y-58915127D01*
X198565588Y-58896185D01*
X198550603Y-58883887D01*
X198461731Y-58795015D01*
X198456133Y-58786637D01*
X198440588Y-58767695D01*
X198421646Y-58752150D01*
X198400035Y-58740599D01*
X198376585Y-58733486D01*
X198352199Y-58731084D01*
X198327813Y-58733486D01*
X198304364Y-58740599D01*
X198282753Y-58752151D01*
X198263811Y-58767696D01*
X198248266Y-58786638D01*
X198236715Y-58808249D01*
X198229602Y-58831699D01*
X198227200Y-58856084D01*
X198227200Y-59431600D01*
X195327200Y-59431600D01*
X195327200Y-57601600D01*
X196285399Y-57601600D01*
X196309785Y-57599198D01*
X196333234Y-57592085D01*
X196354845Y-57580534D01*
X196373787Y-57564988D01*
X196389333Y-57546046D01*
X196400884Y-57524435D01*
X196407997Y-57500986D01*
X196410399Y-57476600D01*
X196407997Y-57452214D01*
X196400884Y-57428765D01*
X196389333Y-57407154D01*
X196373787Y-57388212D01*
X196364708Y-57379982D01*
X196350488Y-57368312D01*
X196241144Y-57235076D01*
X196179410Y-57119578D01*
X196159895Y-57083069D01*
X196128666Y-56980121D01*
X196109861Y-56918130D01*
X196092967Y-56746600D01*
X196109861Y-56575070D01*
X196151403Y-56438126D01*
X196159895Y-56410131D01*
X196186978Y-56359463D01*
X196241144Y-56258124D01*
X196350488Y-56124888D01*
X196483724Y-56015544D01*
X196585583Y-55961100D01*
X196635731Y-55934295D01*
X196733161Y-55904740D01*
X196800670Y-55884261D01*
X196886371Y-55875820D01*
X196929220Y-55871600D01*
X197165180Y-55871600D01*
X197208029Y-55875820D01*
X197208029Y-55875820D01*
G37*
G36*
X213996497Y-62555197D02*
X214049153Y-62571170D01*
X214097665Y-62597100D01*
X214140196Y-62632004D01*
X214175100Y-62674535D01*
X214201030Y-62723047D01*
X214217003Y-62775703D01*
X214223000Y-62836590D01*
X214223000Y-64061810D01*
X214217003Y-64122697D01*
X214201030Y-64175353D01*
X214175100Y-64223865D01*
X214140196Y-64266396D01*
X214097665Y-64301300D01*
X214049153Y-64327230D01*
X213996497Y-64343203D01*
X213935610Y-64349200D01*
X213135390Y-64349200D01*
X213074503Y-64343203D01*
X213021847Y-64327230D01*
X212973335Y-64301300D01*
X212930804Y-64266396D01*
X212895900Y-64223865D01*
X212869970Y-64175353D01*
X212853997Y-64122697D01*
X212848000Y-64061810D01*
X212848000Y-62836590D01*
X212853997Y-62775703D01*
X212869970Y-62723047D01*
X212895900Y-62674535D01*
X212930804Y-62632004D01*
X212973335Y-62597100D01*
X213021847Y-62571170D01*
X213074503Y-62555197D01*
X213135390Y-62549200D01*
X213935610Y-62549200D01*
X213996497Y-62555197D01*
X213996497Y-62555197D01*
G37*
G36*
X212121497Y-62555197D02*
X212174153Y-62571170D01*
X212222665Y-62597100D01*
X212265196Y-62632004D01*
X212300100Y-62674535D01*
X212326030Y-62723047D01*
X212342003Y-62775703D01*
X212348000Y-62836590D01*
X212348000Y-64061810D01*
X212342003Y-64122697D01*
X212326030Y-64175353D01*
X212300100Y-64223865D01*
X212265196Y-64266396D01*
X212222665Y-64301300D01*
X212174153Y-64327230D01*
X212121497Y-64343203D01*
X212060610Y-64349200D01*
X211260390Y-64349200D01*
X211199503Y-64343203D01*
X211146847Y-64327230D01*
X211098335Y-64301300D01*
X211055804Y-64266396D01*
X211020900Y-64223865D01*
X210994970Y-64175353D01*
X210978997Y-64122697D01*
X210973000Y-64061810D01*
X210973000Y-62836590D01*
X210978997Y-62775703D01*
X210994970Y-62723047D01*
X211020900Y-62674535D01*
X211055804Y-62632004D01*
X211098335Y-62597100D01*
X211146847Y-62571170D01*
X211199503Y-62555197D01*
X211260390Y-62549200D01*
X212060610Y-62549200D01*
X212121497Y-62555197D01*
X212121497Y-62555197D01*
G37*
G36*
X223671365Y-62143020D02*
X223860889Y-62221523D01*
X224031455Y-62335492D01*
X224176508Y-62480545D01*
X224290477Y-62651111D01*
X224368980Y-62840635D01*
X224409000Y-63041830D01*
X224409000Y-63246970D01*
X224368980Y-63448165D01*
X224290477Y-63637689D01*
X224176508Y-63808255D01*
X224031455Y-63953308D01*
X223860889Y-64067277D01*
X223671365Y-64145780D01*
X223470170Y-64185800D01*
X223265030Y-64185800D01*
X223063835Y-64145780D01*
X222874311Y-64067277D01*
X222703745Y-63953308D01*
X222558692Y-63808255D01*
X222444723Y-63637689D01*
X222366220Y-63448165D01*
X222326200Y-63246970D01*
X222326200Y-63041830D01*
X222366220Y-62840635D01*
X222444723Y-62651111D01*
X222558692Y-62480545D01*
X222703745Y-62335492D01*
X222874311Y-62221523D01*
X223063835Y-62143020D01*
X223265030Y-62103000D01*
X223470170Y-62103000D01*
X223671365Y-62143020D01*
X223671365Y-62143020D01*
G37*
G36*
X221131365Y-62143020D02*
X221320889Y-62221523D01*
X221491455Y-62335492D01*
X221636508Y-62480545D01*
X221750477Y-62651111D01*
X221828980Y-62840635D01*
X221869000Y-63041830D01*
X221869000Y-63246970D01*
X221828980Y-63448165D01*
X221750477Y-63637689D01*
X221636508Y-63808255D01*
X221491455Y-63953308D01*
X221320889Y-64067277D01*
X221131365Y-64145780D01*
X220930170Y-64185800D01*
X220725030Y-64185800D01*
X220523835Y-64145780D01*
X220334311Y-64067277D01*
X220163745Y-63953308D01*
X220018692Y-63808255D01*
X219904723Y-63637689D01*
X219826220Y-63448165D01*
X219786200Y-63246970D01*
X219786200Y-63041830D01*
X219826220Y-62840635D01*
X219904723Y-62651111D01*
X220018692Y-62480545D01*
X220163745Y-62335492D01*
X220334311Y-62221523D01*
X220523835Y-62143020D01*
X220725030Y-62103000D01*
X220930170Y-62103000D01*
X221131365Y-62143020D01*
X221131365Y-62143020D01*
G37*
G36*
X226211365Y-62143020D02*
X226400889Y-62221523D01*
X226571455Y-62335492D01*
X226716508Y-62480545D01*
X226830477Y-62651111D01*
X226908980Y-62840635D01*
X226949000Y-63041830D01*
X226949000Y-63246970D01*
X226908980Y-63448165D01*
X226830477Y-63637689D01*
X226716508Y-63808255D01*
X226571455Y-63953308D01*
X226400889Y-64067277D01*
X226211365Y-64145780D01*
X226010170Y-64185800D01*
X225805030Y-64185800D01*
X225603835Y-64145780D01*
X225414311Y-64067277D01*
X225243745Y-63953308D01*
X225098692Y-63808255D01*
X224984723Y-63637689D01*
X224906220Y-63448165D01*
X224866200Y-63246970D01*
X224866200Y-63041830D01*
X224906220Y-62840635D01*
X224984723Y-62651111D01*
X225098692Y-62480545D01*
X225243745Y-62335492D01*
X225414311Y-62221523D01*
X225603835Y-62143020D01*
X225805030Y-62103000D01*
X226010170Y-62103000D01*
X226211365Y-62143020D01*
X226211365Y-62143020D01*
G37*
G36*
X216439497Y-62047197D02*
X216492153Y-62063170D01*
X216540665Y-62089100D01*
X216583196Y-62124004D01*
X216618100Y-62166535D01*
X216644030Y-62215047D01*
X216660003Y-62267703D01*
X216666000Y-62328590D01*
X216666000Y-63553810D01*
X216660003Y-63614697D01*
X216644030Y-63667353D01*
X216618100Y-63715865D01*
X216583196Y-63758396D01*
X216540665Y-63793300D01*
X216492153Y-63819230D01*
X216439497Y-63835203D01*
X216378610Y-63841200D01*
X215578390Y-63841200D01*
X215517503Y-63835203D01*
X215464847Y-63819230D01*
X215416335Y-63793300D01*
X215373804Y-63758396D01*
X215338900Y-63715865D01*
X215312970Y-63667353D01*
X215296997Y-63614697D01*
X215291000Y-63553810D01*
X215291000Y-62328590D01*
X215296997Y-62267703D01*
X215312970Y-62215047D01*
X215338900Y-62166535D01*
X215373804Y-62124004D01*
X215416335Y-62089100D01*
X215464847Y-62063170D01*
X215517503Y-62047197D01*
X215578390Y-62041200D01*
X216378610Y-62041200D01*
X216439497Y-62047197D01*
X216439497Y-62047197D01*
G37*
G36*
X218314497Y-62047197D02*
X218367153Y-62063170D01*
X218415665Y-62089100D01*
X218458196Y-62124004D01*
X218493100Y-62166535D01*
X218519030Y-62215047D01*
X218535003Y-62267703D01*
X218541000Y-62328590D01*
X218541000Y-63553810D01*
X218535003Y-63614697D01*
X218519030Y-63667353D01*
X218493100Y-63715865D01*
X218458196Y-63758396D01*
X218415665Y-63793300D01*
X218367153Y-63819230D01*
X218314497Y-63835203D01*
X218253610Y-63841200D01*
X217453390Y-63841200D01*
X217392503Y-63835203D01*
X217339847Y-63819230D01*
X217291335Y-63793300D01*
X217248804Y-63758396D01*
X217213900Y-63715865D01*
X217187970Y-63667353D01*
X217171997Y-63614697D01*
X217166000Y-63553810D01*
X217166000Y-62328590D01*
X217171997Y-62267703D01*
X217187970Y-62215047D01*
X217213900Y-62166535D01*
X217248804Y-62124004D01*
X217291335Y-62089100D01*
X217339847Y-62063170D01*
X217392503Y-62047197D01*
X217453390Y-62041200D01*
X218253610Y-62041200D01*
X218314497Y-62047197D01*
X218314497Y-62047197D01*
G37*
G36*
X218605497Y-60149197D02*
X218658153Y-60165170D01*
X218706665Y-60191100D01*
X218749196Y-60226004D01*
X218784100Y-60268535D01*
X218810030Y-60317047D01*
X218826003Y-60369703D01*
X218832000Y-60430590D01*
X218832000Y-61230810D01*
X218826003Y-61291697D01*
X218810030Y-61344353D01*
X218784100Y-61392865D01*
X218749196Y-61435396D01*
X218706665Y-61470300D01*
X218658153Y-61496230D01*
X218605497Y-61512203D01*
X218544610Y-61518200D01*
X217319390Y-61518200D01*
X217258503Y-61512203D01*
X217205847Y-61496230D01*
X217157335Y-61470300D01*
X217114804Y-61435396D01*
X217079900Y-61392865D01*
X217053970Y-61344353D01*
X217037997Y-61291697D01*
X217032000Y-61230810D01*
X217032000Y-60430590D01*
X217037997Y-60369703D01*
X217053970Y-60317047D01*
X217079900Y-60268535D01*
X217114804Y-60226004D01*
X217157335Y-60191100D01*
X217205847Y-60165170D01*
X217258503Y-60149197D01*
X217319390Y-60143200D01*
X218544610Y-60143200D01*
X218605497Y-60149197D01*
X218605497Y-60149197D01*
G37*
G36*
X213197866Y-58295246D02*
X213213412Y-58314188D01*
X213232354Y-58329734D01*
X213253965Y-58341285D01*
X213277414Y-58348398D01*
X213301800Y-58350800D01*
X214751800Y-58350800D01*
X214776186Y-58348398D01*
X214799635Y-58341285D01*
X214821246Y-58329734D01*
X214840188Y-58314188D01*
X214855734Y-58295246D01*
X214858110Y-58290800D01*
X215976800Y-58290800D01*
X215976800Y-61190800D01*
X214858110Y-61190800D01*
X214855734Y-61186354D01*
X214840188Y-61167412D01*
X214821246Y-61151866D01*
X214799635Y-61140315D01*
X214776186Y-61133202D01*
X214751800Y-61130800D01*
X213301800Y-61130800D01*
X213277414Y-61133202D01*
X213253965Y-61140315D01*
X213232354Y-61151866D01*
X213213412Y-61167412D01*
X213197866Y-61186354D01*
X213195490Y-61190800D01*
X212076800Y-61190800D01*
X212076800Y-58290800D01*
X213195490Y-58290800D01*
X213197866Y-58295246D01*
X213197866Y-58295246D01*
G37*
G36*
X218605497Y-58274197D02*
X218658153Y-58290170D01*
X218706665Y-58316100D01*
X218749196Y-58351004D01*
X218784100Y-58393535D01*
X218810030Y-58442047D01*
X218826003Y-58494703D01*
X218832000Y-58555590D01*
X218832000Y-59355810D01*
X218826003Y-59416697D01*
X218810030Y-59469353D01*
X218784100Y-59517865D01*
X218749196Y-59560396D01*
X218706665Y-59595300D01*
X218658153Y-59621230D01*
X218605497Y-59637203D01*
X218544610Y-59643200D01*
X217319390Y-59643200D01*
X217258503Y-59637203D01*
X217205847Y-59621230D01*
X217157335Y-59595300D01*
X217114804Y-59560396D01*
X217079900Y-59517865D01*
X217053970Y-59469353D01*
X217037997Y-59416697D01*
X217032000Y-59355810D01*
X217032000Y-58555590D01*
X217037997Y-58494703D01*
X217053970Y-58442047D01*
X217079900Y-58393535D01*
X217114804Y-58351004D01*
X217157335Y-58316100D01*
X217205847Y-58290170D01*
X217258503Y-58274197D01*
X217319390Y-58268200D01*
X218544610Y-58268200D01*
X218605497Y-58274197D01*
X218605497Y-58274197D01*
G37*
G36*
X225370900Y-58637380D02*
X223370900Y-58637380D01*
X223370900Y-57237380D01*
X225370900Y-57237380D01*
X225370900Y-58637380D01*
X225370900Y-58637380D01*
G37*
G36*
X203231497Y-56192497D02*
X203284153Y-56208470D01*
X203332665Y-56234400D01*
X203375196Y-56269304D01*
X203410100Y-56311835D01*
X203436030Y-56360347D01*
X203452003Y-56413003D01*
X203458000Y-56473890D01*
X203458000Y-57699110D01*
X203452003Y-57759997D01*
X203436030Y-57812653D01*
X203410100Y-57861165D01*
X203375196Y-57903696D01*
X203332665Y-57938600D01*
X203284153Y-57964530D01*
X203231497Y-57980503D01*
X203170610Y-57986500D01*
X202370390Y-57986500D01*
X202309503Y-57980503D01*
X202256847Y-57964530D01*
X202208335Y-57938600D01*
X202165804Y-57903696D01*
X202130900Y-57861165D01*
X202104970Y-57812653D01*
X202088997Y-57759997D01*
X202083000Y-57699110D01*
X202083000Y-56473890D01*
X202088997Y-56413003D01*
X202104970Y-56360347D01*
X202130900Y-56311835D01*
X202165804Y-56269304D01*
X202208335Y-56234400D01*
X202256847Y-56208470D01*
X202309503Y-56192497D01*
X202370390Y-56186500D01*
X203170610Y-56186500D01*
X203231497Y-56192497D01*
X203231497Y-56192497D01*
G37*
G36*
X205106497Y-56192497D02*
X205159153Y-56208470D01*
X205207665Y-56234400D01*
X205250196Y-56269304D01*
X205285100Y-56311835D01*
X205311030Y-56360347D01*
X205327003Y-56413003D01*
X205333000Y-56473890D01*
X205333000Y-57699110D01*
X205327003Y-57759997D01*
X205311030Y-57812653D01*
X205285100Y-57861165D01*
X205250196Y-57903696D01*
X205207665Y-57938600D01*
X205159153Y-57964530D01*
X205106497Y-57980503D01*
X205045610Y-57986500D01*
X204245390Y-57986500D01*
X204184503Y-57980503D01*
X204131847Y-57964530D01*
X204083335Y-57938600D01*
X204040804Y-57903696D01*
X204005900Y-57861165D01*
X203979970Y-57812653D01*
X203963997Y-57759997D01*
X203958000Y-57699110D01*
X203958000Y-56473890D01*
X203963997Y-56413003D01*
X203979970Y-56360347D01*
X204005900Y-56311835D01*
X204040804Y-56269304D01*
X204083335Y-56234400D01*
X204131847Y-56208470D01*
X204184503Y-56192497D01*
X204245390Y-56186500D01*
X205045610Y-56186500D01*
X205106497Y-56192497D01*
X205106497Y-56192497D01*
G37*
G36*
X209343130Y-55629477D02*
X209394610Y-55645093D01*
X209442042Y-55670446D01*
X209483627Y-55704573D01*
X209517754Y-55746158D01*
X209543107Y-55793590D01*
X209558723Y-55845070D01*
X209564600Y-55904740D01*
X209564600Y-56792460D01*
X209558723Y-56852130D01*
X209543107Y-56903610D01*
X209517754Y-56951042D01*
X209483627Y-56992627D01*
X209442042Y-57026754D01*
X209394610Y-57052107D01*
X209343130Y-57067723D01*
X209283460Y-57073600D01*
X208495740Y-57073600D01*
X208436070Y-57067723D01*
X208384590Y-57052107D01*
X208337158Y-57026754D01*
X208295573Y-56992627D01*
X208261446Y-56951042D01*
X208236093Y-56903610D01*
X208220477Y-56852130D01*
X208214600Y-56792460D01*
X208214600Y-55904740D01*
X208220477Y-55845070D01*
X208236093Y-55793590D01*
X208261446Y-55746158D01*
X208295573Y-55704573D01*
X208337158Y-55670446D01*
X208384590Y-55645093D01*
X208436070Y-55629477D01*
X208495740Y-55623600D01*
X209283460Y-55623600D01*
X209343130Y-55629477D01*
X209343130Y-55629477D01*
G37*
G36*
X206905530Y-55592877D02*
X206957010Y-55608493D01*
X207004442Y-55633846D01*
X207046027Y-55667973D01*
X207080154Y-55709558D01*
X207105507Y-55756990D01*
X207121123Y-55808470D01*
X207127000Y-55868140D01*
X207127000Y-56755860D01*
X207121123Y-56815530D01*
X207105507Y-56867010D01*
X207080154Y-56914442D01*
X207046027Y-56956027D01*
X207004442Y-56990154D01*
X206957010Y-57015507D01*
X206905530Y-57031123D01*
X206845860Y-57037000D01*
X206058140Y-57037000D01*
X205998470Y-57031123D01*
X205946990Y-57015507D01*
X205899558Y-56990154D01*
X205857973Y-56956027D01*
X205823846Y-56914442D01*
X205798493Y-56867010D01*
X205782877Y-56815530D01*
X205777000Y-56755860D01*
X205777000Y-55868140D01*
X205782877Y-55808470D01*
X205798493Y-55756990D01*
X205823846Y-55709558D01*
X205857973Y-55667973D01*
X205899558Y-55633846D01*
X205946990Y-55608493D01*
X205998470Y-55592877D01*
X206058140Y-55587000D01*
X206845860Y-55587000D01*
X206905530Y-55592877D01*
X206905530Y-55592877D01*
G37*
G36*
X225370900Y-55937380D02*
X223370900Y-55937380D01*
X223370900Y-54537380D01*
X225370900Y-54537380D01*
X225370900Y-55937380D01*
X225370900Y-55937380D01*
G37*
G36*
X204780997Y-53655997D02*
X204833653Y-53671970D01*
X204882165Y-53697900D01*
X204924696Y-53732804D01*
X204959600Y-53775335D01*
X204985530Y-53823847D01*
X205001503Y-53876503D01*
X205007500Y-53937390D01*
X205007500Y-55162610D01*
X205001503Y-55223497D01*
X204985530Y-55276153D01*
X204959600Y-55324665D01*
X204924696Y-55367196D01*
X204882165Y-55402100D01*
X204833653Y-55428030D01*
X204780997Y-55444003D01*
X204720110Y-55450000D01*
X203919890Y-55450000D01*
X203859003Y-55444003D01*
X203806347Y-55428030D01*
X203757835Y-55402100D01*
X203715304Y-55367196D01*
X203680400Y-55324665D01*
X203654470Y-55276153D01*
X203638497Y-55223497D01*
X203632500Y-55162610D01*
X203632500Y-53937390D01*
X203638497Y-53876503D01*
X203654470Y-53823847D01*
X203680400Y-53775335D01*
X203715304Y-53732804D01*
X203757835Y-53697900D01*
X203806347Y-53671970D01*
X203859003Y-53655997D01*
X203919890Y-53650000D01*
X204720110Y-53650000D01*
X204780997Y-53655997D01*
X204780997Y-53655997D01*
G37*
G36*
X202905997Y-53655997D02*
X202958653Y-53671970D01*
X203007165Y-53697900D01*
X203049696Y-53732804D01*
X203084600Y-53775335D01*
X203110530Y-53823847D01*
X203126503Y-53876503D01*
X203132500Y-53937390D01*
X203132500Y-55162610D01*
X203126503Y-55223497D01*
X203110530Y-55276153D01*
X203084600Y-55324665D01*
X203049696Y-55367196D01*
X203007165Y-55402100D01*
X202958653Y-55428030D01*
X202905997Y-55444003D01*
X202845110Y-55450000D01*
X202044890Y-55450000D01*
X201984003Y-55444003D01*
X201931347Y-55428030D01*
X201882835Y-55402100D01*
X201840304Y-55367196D01*
X201805400Y-55324665D01*
X201779470Y-55276153D01*
X201763497Y-55223497D01*
X201757500Y-55162610D01*
X201757500Y-53937390D01*
X201763497Y-53876503D01*
X201779470Y-53823847D01*
X201805400Y-53775335D01*
X201840304Y-53732804D01*
X201882835Y-53697900D01*
X201931347Y-53671970D01*
X201984003Y-53655997D01*
X202044890Y-53650000D01*
X202845110Y-53650000D01*
X202905997Y-53655997D01*
X202905997Y-53655997D01*
G37*
G36*
X218649526Y-55397926D02*
X216249526Y-55397926D01*
X216249526Y-50497926D01*
X218649526Y-50497926D01*
X218649526Y-55397926D01*
X218649526Y-55397926D01*
G37*
G36*
X215349526Y-55397926D02*
X212949526Y-55397926D01*
X212949526Y-50497926D01*
X215349526Y-50497926D01*
X215349526Y-55397926D01*
X215349526Y-55397926D01*
G37*
G36*
X209343130Y-53879477D02*
X209394610Y-53895093D01*
X209442042Y-53920446D01*
X209483627Y-53954573D01*
X209517754Y-53996158D01*
X209543107Y-54043590D01*
X209558723Y-54095070D01*
X209564600Y-54154740D01*
X209564600Y-55042460D01*
X209558723Y-55102130D01*
X209543107Y-55153610D01*
X209517754Y-55201042D01*
X209483627Y-55242627D01*
X209442042Y-55276754D01*
X209394610Y-55302107D01*
X209343130Y-55317723D01*
X209283460Y-55323600D01*
X208495740Y-55323600D01*
X208436070Y-55317723D01*
X208384590Y-55302107D01*
X208337158Y-55276754D01*
X208295573Y-55242627D01*
X208261446Y-55201042D01*
X208236093Y-55153610D01*
X208220477Y-55102130D01*
X208214600Y-55042460D01*
X208214600Y-54154740D01*
X208220477Y-54095070D01*
X208236093Y-54043590D01*
X208261446Y-53996158D01*
X208295573Y-53954573D01*
X208337158Y-53920446D01*
X208384590Y-53895093D01*
X208436070Y-53879477D01*
X208495740Y-53873600D01*
X209283460Y-53873600D01*
X209343130Y-53879477D01*
X209343130Y-53879477D01*
G37*
G36*
X208216897Y-52262497D02*
X208269553Y-52278470D01*
X208318065Y-52304400D01*
X208360596Y-52339304D01*
X208395500Y-52381835D01*
X208421430Y-52430347D01*
X208437403Y-52483003D01*
X208443400Y-52543890D01*
X208443400Y-53344110D01*
X208437403Y-53404997D01*
X208421430Y-53457653D01*
X208395500Y-53506165D01*
X208360596Y-53548696D01*
X208318065Y-53583600D01*
X208269553Y-53609530D01*
X208216897Y-53625503D01*
X208156010Y-53631500D01*
X207031363Y-53631500D01*
X207006977Y-53633902D01*
X206983528Y-53641015D01*
X206961917Y-53652566D01*
X206942975Y-53668112D01*
X206927429Y-53687054D01*
X206915878Y-53708665D01*
X206908765Y-53732114D01*
X206906363Y-53756500D01*
X206908765Y-53780886D01*
X206915878Y-53804335D01*
X206927429Y-53825946D01*
X206942975Y-53844888D01*
X206972438Y-53866740D01*
X207004444Y-53883848D01*
X207046027Y-53917973D01*
X207080154Y-53959558D01*
X207105507Y-54006990D01*
X207121123Y-54058470D01*
X207127000Y-54118140D01*
X207127000Y-55005860D01*
X207121123Y-55065530D01*
X207105507Y-55117010D01*
X207080154Y-55164442D01*
X207046027Y-55206027D01*
X207004442Y-55240154D01*
X206957010Y-55265507D01*
X206905530Y-55281123D01*
X206845860Y-55287000D01*
X206058140Y-55287000D01*
X205998470Y-55281123D01*
X205946990Y-55265507D01*
X205899558Y-55240154D01*
X205857973Y-55206027D01*
X205823846Y-55164442D01*
X205798493Y-55117010D01*
X205782877Y-55065530D01*
X205777000Y-55005860D01*
X205777000Y-54118140D01*
X205782877Y-54058470D01*
X205798493Y-54006990D01*
X205823846Y-53959558D01*
X205857973Y-53917973D01*
X205899558Y-53883846D01*
X205946990Y-53858493D01*
X205998470Y-53842877D01*
X206058140Y-53837000D01*
X206743786Y-53837000D01*
X206768172Y-53834598D01*
X206791621Y-53827485D01*
X206813232Y-53815934D01*
X206832174Y-53800388D01*
X206847720Y-53781446D01*
X206859271Y-53759835D01*
X206866384Y-53736386D01*
X206868786Y-53712000D01*
X206866384Y-53687614D01*
X206859271Y-53664165D01*
X206847720Y-53642554D01*
X206832174Y-53623612D01*
X206813232Y-53608066D01*
X206802710Y-53601759D01*
X206768732Y-53583597D01*
X206726204Y-53548696D01*
X206691300Y-53506165D01*
X206665370Y-53457653D01*
X206649397Y-53404997D01*
X206643400Y-53344110D01*
X206643400Y-52543890D01*
X206649397Y-52483003D01*
X206665370Y-52430347D01*
X206691300Y-52381835D01*
X206726204Y-52339304D01*
X206768735Y-52304400D01*
X206817247Y-52278470D01*
X206869903Y-52262497D01*
X206930790Y-52256500D01*
X208156010Y-52256500D01*
X208216897Y-52262497D01*
X208216897Y-52262497D01*
G37*
G36*
X224625034Y-48569388D02*
X224659628Y-48579882D01*
X224691501Y-48596918D01*
X224719447Y-48619853D01*
X224742382Y-48647799D01*
X224759418Y-48679672D01*
X224769912Y-48714266D01*
X224774060Y-48756381D01*
X224774060Y-49364099D01*
X224769912Y-49406214D01*
X224759418Y-49440808D01*
X224738273Y-49480368D01*
X224734303Y-49486309D01*
X224724924Y-49508948D01*
X224720143Y-49532981D01*
X224720141Y-49557485D01*
X224724920Y-49581519D01*
X224734297Y-49604158D01*
X224738265Y-49610098D01*
X224759418Y-49649672D01*
X224769912Y-49684266D01*
X224774060Y-49726381D01*
X224774060Y-50334099D01*
X224769912Y-50376214D01*
X224759418Y-50410808D01*
X224742382Y-50442681D01*
X224719447Y-50470627D01*
X224691503Y-50493560D01*
X224665246Y-50507595D01*
X224644872Y-50521209D01*
X224627545Y-50538536D01*
X224613931Y-50558911D01*
X224604553Y-50581550D01*
X224599773Y-50605583D01*
X224599773Y-50630087D01*
X224604554Y-50654121D01*
X224613931Y-50676760D01*
X224627545Y-50697134D01*
X224644872Y-50714461D01*
X224665248Y-50728076D01*
X224692252Y-50742510D01*
X224698189Y-50746477D01*
X224720828Y-50755856D01*
X224744861Y-50760637D01*
X224769365Y-50760639D01*
X224793399Y-50755860D01*
X224816038Y-50746483D01*
X224821978Y-50742515D01*
X224861552Y-50721362D01*
X224896146Y-50710868D01*
X224938261Y-50706720D01*
X225545979Y-50706720D01*
X225588094Y-50710868D01*
X225622688Y-50721362D01*
X225654561Y-50738398D01*
X225682507Y-50761333D01*
X225705442Y-50789279D01*
X225722478Y-50821152D01*
X225732972Y-50855746D01*
X225737120Y-50897861D01*
X225737120Y-51555579D01*
X225732972Y-51597694D01*
X225722478Y-51632288D01*
X225705442Y-51664161D01*
X225682507Y-51692107D01*
X225654561Y-51715042D01*
X225622688Y-51732078D01*
X225588094Y-51742572D01*
X225545979Y-51746720D01*
X224938261Y-51746720D01*
X224896146Y-51742572D01*
X224861552Y-51732078D01*
X224821992Y-51710933D01*
X224816051Y-51706963D01*
X224793412Y-51697584D01*
X224769379Y-51692803D01*
X224744875Y-51692801D01*
X224720841Y-51697580D01*
X224698202Y-51706957D01*
X224692262Y-51710925D01*
X224652688Y-51732078D01*
X224618094Y-51742572D01*
X224613501Y-51743024D01*
X224589468Y-51747804D01*
X224566829Y-51757182D01*
X224546454Y-51770795D01*
X224529127Y-51788122D01*
X224515513Y-51808497D01*
X224506136Y-51831136D01*
X224501355Y-51855169D01*
X224501355Y-51879674D01*
X224506135Y-51903707D01*
X224515513Y-51926346D01*
X224529126Y-51946721D01*
X224546453Y-51964048D01*
X224566828Y-51977662D01*
X224589467Y-51987039D01*
X224613500Y-51991820D01*
X224652974Y-51995708D01*
X224687568Y-52006202D01*
X224719441Y-52023238D01*
X224747387Y-52046173D01*
X224770322Y-52074119D01*
X224787358Y-52105992D01*
X224797852Y-52140586D01*
X224802000Y-52182701D01*
X224802000Y-52790419D01*
X224797852Y-52832534D01*
X224787358Y-52867128D01*
X224766213Y-52906688D01*
X224762243Y-52912629D01*
X224752864Y-52935268D01*
X224748083Y-52959301D01*
X224748081Y-52983805D01*
X224752860Y-53007839D01*
X224762237Y-53030478D01*
X224766205Y-53036418D01*
X224787358Y-53075992D01*
X224797852Y-53110586D01*
X224802000Y-53152701D01*
X224802000Y-53760419D01*
X224797852Y-53802534D01*
X224787358Y-53837128D01*
X224770322Y-53869001D01*
X224747387Y-53896947D01*
X224719441Y-53919882D01*
X224687568Y-53936918D01*
X224652974Y-53947412D01*
X224610859Y-53951560D01*
X223953141Y-53951560D01*
X223911026Y-53947412D01*
X223876432Y-53936918D01*
X223844559Y-53919882D01*
X223816613Y-53896947D01*
X223793678Y-53869001D01*
X223776642Y-53837128D01*
X223766148Y-53802534D01*
X223762000Y-53760419D01*
X223762000Y-53152701D01*
X223766148Y-53110586D01*
X223776642Y-53075992D01*
X223797787Y-53036432D01*
X223801757Y-53030491D01*
X223811136Y-53007852D01*
X223815917Y-52983819D01*
X223815919Y-52959315D01*
X223811140Y-52935281D01*
X223801763Y-52912642D01*
X223797795Y-52906702D01*
X223776642Y-52867128D01*
X223766148Y-52832534D01*
X223762000Y-52790419D01*
X223762000Y-52182701D01*
X223766148Y-52140586D01*
X223776642Y-52105992D01*
X223793678Y-52074119D01*
X223816613Y-52046173D01*
X223844559Y-52023238D01*
X223876432Y-52006202D01*
X223911026Y-51995708D01*
X223940621Y-51992793D01*
X223964654Y-51988012D01*
X223987293Y-51978634D01*
X224007668Y-51965020D01*
X224024994Y-51947693D01*
X224038608Y-51927318D01*
X224047985Y-51904679D01*
X224052765Y-51880645D01*
X224052765Y-51856141D01*
X224047984Y-51832108D01*
X224038606Y-51809469D01*
X224024992Y-51789094D01*
X224007665Y-51771768D01*
X223987290Y-51758154D01*
X223964651Y-51748777D01*
X223940618Y-51743997D01*
X223926146Y-51742572D01*
X223891552Y-51732078D01*
X223859679Y-51715042D01*
X223831733Y-51692107D01*
X223808798Y-51664161D01*
X223791762Y-51632288D01*
X223781268Y-51597694D01*
X223777120Y-51555579D01*
X223777120Y-50897861D01*
X223781268Y-50855746D01*
X223791762Y-50821152D01*
X223808798Y-50789279D01*
X223831733Y-50761333D01*
X223859677Y-50738400D01*
X223861368Y-50737496D01*
X223881743Y-50723882D01*
X223899070Y-50706555D01*
X223912684Y-50686181D01*
X223922062Y-50663542D01*
X223926843Y-50639509D01*
X223926843Y-50615004D01*
X223922063Y-50590971D01*
X223912686Y-50568332D01*
X223899072Y-50547957D01*
X223881745Y-50530630D01*
X223861371Y-50517016D01*
X223857494Y-50515410D01*
X223816619Y-50493562D01*
X223788673Y-50470627D01*
X223765738Y-50442681D01*
X223748702Y-50410808D01*
X223738208Y-50376214D01*
X223734060Y-50334099D01*
X223734060Y-49726381D01*
X223738208Y-49684266D01*
X223748702Y-49649672D01*
X223769847Y-49610112D01*
X223773817Y-49604171D01*
X223783196Y-49581532D01*
X223787977Y-49557499D01*
X223787979Y-49532995D01*
X223783200Y-49508961D01*
X223773823Y-49486322D01*
X223769855Y-49480382D01*
X223748702Y-49440808D01*
X223738208Y-49406214D01*
X223734060Y-49364099D01*
X223734060Y-48756381D01*
X223738208Y-48714266D01*
X223748702Y-48679672D01*
X223765738Y-48647799D01*
X223788673Y-48619853D01*
X223816619Y-48596918D01*
X223848492Y-48579882D01*
X223883086Y-48569388D01*
X223925201Y-48565240D01*
X224582919Y-48565240D01*
X224625034Y-48569388D01*
X224625034Y-48569388D01*
G37*
G36*
X208216897Y-50387497D02*
X208269553Y-50403470D01*
X208318065Y-50429400D01*
X208360596Y-50464304D01*
X208395500Y-50506835D01*
X208421430Y-50555347D01*
X208437403Y-50608003D01*
X208443400Y-50668890D01*
X208443400Y-51469110D01*
X208437403Y-51529997D01*
X208421430Y-51582653D01*
X208395500Y-51631165D01*
X208360596Y-51673696D01*
X208318065Y-51708600D01*
X208269553Y-51734530D01*
X208216897Y-51750503D01*
X208156010Y-51756500D01*
X206930790Y-51756500D01*
X206869903Y-51750503D01*
X206817247Y-51734530D01*
X206768735Y-51708600D01*
X206726204Y-51673696D01*
X206691300Y-51631165D01*
X206665370Y-51582653D01*
X206649397Y-51529997D01*
X206643400Y-51469110D01*
X206643400Y-50668890D01*
X206649397Y-50608003D01*
X206665370Y-50555347D01*
X206691300Y-50506835D01*
X206726204Y-50464304D01*
X206768735Y-50429400D01*
X206817247Y-50403470D01*
X206869903Y-50387497D01*
X206930790Y-50381500D01*
X208156010Y-50381500D01*
X208216897Y-50387497D01*
X208216897Y-50387497D01*
G37*
G36*
X205307522Y-49520917D02*
X205355485Y-49535466D01*
X205399675Y-49559086D01*
X205438418Y-49590882D01*
X205470214Y-49629625D01*
X205493834Y-49673815D01*
X205508383Y-49721778D01*
X205513900Y-49777791D01*
X205513900Y-50603009D01*
X205508383Y-50659022D01*
X205493834Y-50706985D01*
X205470214Y-50751175D01*
X205438418Y-50789918D01*
X205399675Y-50821714D01*
X205355485Y-50845334D01*
X205307522Y-50859883D01*
X205251509Y-50865400D01*
X204501291Y-50865400D01*
X204445278Y-50859883D01*
X204397315Y-50845334D01*
X204353125Y-50821714D01*
X204314382Y-50789918D01*
X204282586Y-50751175D01*
X204258966Y-50706985D01*
X204244417Y-50659022D01*
X204238900Y-50603009D01*
X204238900Y-49777791D01*
X204244417Y-49721778D01*
X204258966Y-49673815D01*
X204282586Y-49629625D01*
X204314382Y-49590882D01*
X204353125Y-49559086D01*
X204397315Y-49535466D01*
X204445278Y-49520917D01*
X204501291Y-49515400D01*
X205251509Y-49515400D01*
X205307522Y-49520917D01*
X205307522Y-49520917D01*
G37*
G36*
X203732522Y-49520917D02*
X203780485Y-49535466D01*
X203824675Y-49559086D01*
X203863418Y-49590882D01*
X203895214Y-49629625D01*
X203918834Y-49673815D01*
X203933383Y-49721778D01*
X203938900Y-49777791D01*
X203938900Y-50603009D01*
X203933383Y-50659022D01*
X203918834Y-50706985D01*
X203895214Y-50751175D01*
X203863418Y-50789918D01*
X203824675Y-50821714D01*
X203780485Y-50845334D01*
X203732522Y-50859883D01*
X203676509Y-50865400D01*
X202926291Y-50865400D01*
X202870278Y-50859883D01*
X202822315Y-50845334D01*
X202778125Y-50821714D01*
X202739382Y-50789918D01*
X202707586Y-50751175D01*
X202683966Y-50706985D01*
X202669417Y-50659022D01*
X202663900Y-50603009D01*
X202663900Y-49777791D01*
X202669417Y-49721778D01*
X202683966Y-49673815D01*
X202707586Y-49629625D01*
X202739382Y-49590882D01*
X202778125Y-49559086D01*
X202822315Y-49535466D01*
X202870278Y-49520917D01*
X202926291Y-49515400D01*
X203676509Y-49515400D01*
X203732522Y-49520917D01*
X203732522Y-49520917D01*
G37*
G36*
X200582922Y-48555717D02*
X200630885Y-48570266D01*
X200675075Y-48593886D01*
X200713818Y-48625682D01*
X200745614Y-48664425D01*
X200769234Y-48708615D01*
X200783783Y-48756578D01*
X200789300Y-48812591D01*
X200789300Y-49637809D01*
X200783783Y-49693822D01*
X200769234Y-49741785D01*
X200745614Y-49785975D01*
X200713818Y-49824718D01*
X200675075Y-49856514D01*
X200630885Y-49880134D01*
X200582922Y-49894683D01*
X200526909Y-49900200D01*
X199776691Y-49900200D01*
X199720678Y-49894683D01*
X199672715Y-49880134D01*
X199628525Y-49856514D01*
X199589782Y-49824718D01*
X199557986Y-49785975D01*
X199534366Y-49741785D01*
X199519817Y-49693822D01*
X199514300Y-49637809D01*
X199514300Y-48812591D01*
X199519817Y-48756578D01*
X199534366Y-48708615D01*
X199557986Y-48664425D01*
X199589782Y-48625682D01*
X199628525Y-48593886D01*
X199672715Y-48570266D01*
X199720678Y-48555717D01*
X199776691Y-48550200D01*
X200526909Y-48550200D01*
X200582922Y-48555717D01*
X200582922Y-48555717D01*
G37*
G36*
X202157922Y-48555717D02*
X202205885Y-48570266D01*
X202250075Y-48593886D01*
X202288818Y-48625682D01*
X202320614Y-48664425D01*
X202344234Y-48708615D01*
X202358783Y-48756578D01*
X202364300Y-48812591D01*
X202364300Y-49637809D01*
X202358783Y-49693822D01*
X202344234Y-49741785D01*
X202320614Y-49785975D01*
X202288818Y-49824718D01*
X202250075Y-49856514D01*
X202205885Y-49880134D01*
X202157922Y-49894683D01*
X202101909Y-49900200D01*
X201351691Y-49900200D01*
X201295678Y-49894683D01*
X201247715Y-49880134D01*
X201203525Y-49856514D01*
X201164782Y-49824718D01*
X201132986Y-49785975D01*
X201109366Y-49741785D01*
X201094817Y-49693822D01*
X201089300Y-49637809D01*
X201089300Y-48812591D01*
X201094817Y-48756578D01*
X201109366Y-48708615D01*
X201132986Y-48664425D01*
X201164782Y-48625682D01*
X201203525Y-48593886D01*
X201247715Y-48570266D01*
X201295678Y-48555717D01*
X201351691Y-48550200D01*
X202101909Y-48550200D01*
X202157922Y-48555717D01*
X202157922Y-48555717D01*
G37*
G36*
X212888926Y-43790526D02*
X212891328Y-43814912D01*
X212898441Y-43838361D01*
X212909992Y-43859972D01*
X212925538Y-43878914D01*
X212928284Y-43881168D01*
X212930538Y-43883914D01*
X212949480Y-43899460D01*
X212971091Y-43911011D01*
X212994540Y-43918124D01*
X213018926Y-43920526D01*
X213763926Y-43920526D01*
X213763926Y-48970526D01*
X213018926Y-48970526D01*
X212994540Y-48972928D01*
X212971091Y-48980041D01*
X212949480Y-48991592D01*
X212930538Y-49007138D01*
X212928284Y-49009884D01*
X212925538Y-49012138D01*
X212909992Y-49031080D01*
X212898441Y-49052691D01*
X212891328Y-49076140D01*
X212888926Y-49100526D01*
X212888926Y-49845526D01*
X207838926Y-49845526D01*
X207838926Y-49100526D01*
X207836524Y-49076140D01*
X207829411Y-49052691D01*
X207817860Y-49031080D01*
X207802314Y-49012138D01*
X207799568Y-49009884D01*
X207797314Y-49007138D01*
X207778372Y-48991592D01*
X207756761Y-48980041D01*
X207733312Y-48972928D01*
X207708926Y-48970526D01*
X206963926Y-48970526D01*
X206963926Y-43920526D01*
X207708926Y-43920526D01*
X207733312Y-43918124D01*
X207756761Y-43911011D01*
X207778372Y-43899460D01*
X207797314Y-43883914D01*
X207799568Y-43881168D01*
X207802314Y-43878914D01*
X207817860Y-43859972D01*
X207829411Y-43838361D01*
X207836524Y-43814912D01*
X207838926Y-43790526D01*
X207838926Y-43045526D01*
X212888926Y-43045526D01*
X212888926Y-43790526D01*
X212888926Y-43790526D01*
G37*
G36*
X198322165Y-47360220D02*
X198511689Y-47438723D01*
X198682255Y-47552692D01*
X198827308Y-47697745D01*
X198941277Y-47868311D01*
X199019780Y-48057835D01*
X199059800Y-48259030D01*
X199059800Y-48464170D01*
X199019780Y-48665365D01*
X198941277Y-48854889D01*
X198827308Y-49025455D01*
X198682255Y-49170508D01*
X198511689Y-49284477D01*
X198322165Y-49362980D01*
X198120970Y-49403000D01*
X197915830Y-49403000D01*
X197714635Y-49362980D01*
X197525111Y-49284477D01*
X197354545Y-49170508D01*
X197209492Y-49025455D01*
X197095523Y-48854889D01*
X197017020Y-48665365D01*
X196977000Y-48464170D01*
X196977000Y-48259030D01*
X197017020Y-48057835D01*
X197095523Y-47868311D01*
X197209492Y-47697745D01*
X197354545Y-47552692D01*
X197525111Y-47438723D01*
X197714635Y-47360220D01*
X197915830Y-47320200D01*
X198120970Y-47320200D01*
X198322165Y-47360220D01*
X198322165Y-47360220D01*
G37*
G36*
X216611334Y-45955728D02*
X216645928Y-45966222D01*
X216677801Y-45983258D01*
X216705747Y-46006193D01*
X216728682Y-46034139D01*
X216745718Y-46066012D01*
X216756212Y-46100606D01*
X216760360Y-46142721D01*
X216760360Y-46750439D01*
X216756000Y-46794699D01*
X216752058Y-46814526D01*
X216752058Y-46839030D01*
X216756840Y-46863063D01*
X216766218Y-46885702D01*
X216779832Y-46906076D01*
X216797160Y-46923403D01*
X216817535Y-46937016D01*
X216840174Y-46946393D01*
X216864208Y-46951172D01*
X216888712Y-46951172D01*
X216912745Y-46946390D01*
X216935380Y-46937014D01*
X216959612Y-46924062D01*
X216994206Y-46913568D01*
X217036321Y-46909420D01*
X217644039Y-46909420D01*
X217686154Y-46913568D01*
X217720748Y-46924062D01*
X217760308Y-46945207D01*
X217766249Y-46949177D01*
X217788888Y-46958556D01*
X217812921Y-46963337D01*
X217837425Y-46963339D01*
X217861459Y-46958560D01*
X217884098Y-46949183D01*
X217890038Y-46945215D01*
X217929612Y-46924062D01*
X217964206Y-46913568D01*
X218006321Y-46909420D01*
X218614039Y-46909420D01*
X218656154Y-46913568D01*
X218690748Y-46924062D01*
X218722621Y-46941098D01*
X218750567Y-46964033D01*
X218773502Y-46991979D01*
X218790538Y-47023852D01*
X218801032Y-47058446D01*
X218805180Y-47100561D01*
X218805180Y-47758279D01*
X218801032Y-47800394D01*
X218790538Y-47834988D01*
X218773502Y-47866861D01*
X218750567Y-47894807D01*
X218722621Y-47917742D01*
X218690748Y-47934778D01*
X218656154Y-47945272D01*
X218614039Y-47949420D01*
X218006321Y-47949420D01*
X217964206Y-47945272D01*
X217929612Y-47934778D01*
X217890052Y-47913633D01*
X217884111Y-47909663D01*
X217861472Y-47900284D01*
X217837439Y-47895503D01*
X217812935Y-47895501D01*
X217788901Y-47900280D01*
X217766262Y-47909657D01*
X217760322Y-47913625D01*
X217720748Y-47934778D01*
X217686154Y-47945272D01*
X217644039Y-47949420D01*
X217036321Y-47949420D01*
X216994206Y-47945272D01*
X216959612Y-47934778D01*
X216927739Y-47917742D01*
X216899792Y-47894806D01*
X216882439Y-47873662D01*
X216865111Y-47856335D01*
X216844736Y-47842722D01*
X216822097Y-47833345D01*
X216798064Y-47828565D01*
X216773559Y-47828565D01*
X216749526Y-47833346D01*
X216726887Y-47842724D01*
X216706513Y-47856338D01*
X216677802Y-47879901D01*
X216645928Y-47896938D01*
X216611334Y-47907432D01*
X216569219Y-47911580D01*
X215911501Y-47911580D01*
X215869386Y-47907432D01*
X215834792Y-47896938D01*
X215802919Y-47879902D01*
X215774973Y-47856967D01*
X215752038Y-47829021D01*
X215735002Y-47797148D01*
X215724508Y-47762554D01*
X215720360Y-47720439D01*
X215720360Y-47112721D01*
X215724508Y-47070606D01*
X215735002Y-47036012D01*
X215756147Y-46996452D01*
X215760117Y-46990511D01*
X215769496Y-46967872D01*
X215774277Y-46943839D01*
X215774279Y-46919335D01*
X215769500Y-46895301D01*
X215760123Y-46872662D01*
X215756155Y-46866722D01*
X215735002Y-46827148D01*
X215724508Y-46792554D01*
X215720360Y-46750439D01*
X215720360Y-46142721D01*
X215724508Y-46100606D01*
X215735002Y-46066012D01*
X215752038Y-46034139D01*
X215774973Y-46006193D01*
X215802919Y-45983258D01*
X215834792Y-45966222D01*
X215869386Y-45955728D01*
X215911501Y-45951580D01*
X216569219Y-45951580D01*
X216611334Y-45955728D01*
X216611334Y-45955728D01*
G37*
G36*
X198322165Y-44820220D02*
X198511689Y-44898723D01*
X198682255Y-45012692D01*
X198827308Y-45157745D01*
X198941277Y-45328311D01*
X199019780Y-45517835D01*
X199059800Y-45719030D01*
X199059800Y-45924170D01*
X199019780Y-46125365D01*
X198941277Y-46314889D01*
X198827308Y-46485455D01*
X198682255Y-46630508D01*
X198511689Y-46744477D01*
X198322165Y-46822980D01*
X198120970Y-46863000D01*
X197915830Y-46863000D01*
X197714635Y-46822980D01*
X197525111Y-46744477D01*
X197354545Y-46630508D01*
X197209492Y-46485455D01*
X197095523Y-46314889D01*
X197017020Y-46125365D01*
X196977000Y-45924170D01*
X196977000Y-45719030D01*
X197017020Y-45517835D01*
X197095523Y-45328311D01*
X197209492Y-45157745D01*
X197354545Y-45012692D01*
X197525111Y-44898723D01*
X197714635Y-44820220D01*
X197915830Y-44780200D01*
X198120970Y-44780200D01*
X198322165Y-44820220D01*
X198322165Y-44820220D01*
G37*
G36*
X206031200Y-46159600D02*
X204331200Y-46159600D01*
X204331200Y-43959600D01*
X206031200Y-43959600D01*
X206031200Y-46159600D01*
X206031200Y-46159600D01*
G37*
G36*
X202906622Y-42446617D02*
X202954585Y-42461166D01*
X202998775Y-42484786D01*
X203037518Y-42516582D01*
X203069314Y-42555325D01*
X203092934Y-42599515D01*
X203107483Y-42647478D01*
X203113000Y-42703491D01*
X203113000Y-43453709D01*
X203107483Y-43509722D01*
X203092934Y-43557685D01*
X203069314Y-43601875D01*
X203037518Y-43640618D01*
X202998775Y-43672414D01*
X202954585Y-43696034D01*
X202902902Y-43711711D01*
X202886456Y-43714983D01*
X202863817Y-43724360D01*
X202843442Y-43737974D01*
X202826115Y-43755301D01*
X202812501Y-43775676D01*
X202803124Y-43798315D01*
X202798344Y-43822349D01*
X202798344Y-43846853D01*
X202803125Y-43870886D01*
X202812502Y-43893525D01*
X202826116Y-43913900D01*
X202843443Y-43931227D01*
X202863818Y-43944841D01*
X202886457Y-43954218D01*
X202922742Y-43959600D01*
X203231200Y-43959600D01*
X203231200Y-46159600D01*
X201531200Y-46159600D01*
X201531200Y-43959600D01*
X201953258Y-43959600D01*
X201977644Y-43957198D01*
X202001093Y-43950085D01*
X202022704Y-43938534D01*
X202041646Y-43922988D01*
X202057192Y-43904046D01*
X202068743Y-43882435D01*
X202075856Y-43858986D01*
X202078258Y-43834600D01*
X202075856Y-43810214D01*
X202068743Y-43786765D01*
X202057192Y-43765154D01*
X202041646Y-43746212D01*
X202022704Y-43730666D01*
X202001093Y-43719115D01*
X201980498Y-43713956D01*
X201921415Y-43696034D01*
X201877225Y-43672414D01*
X201838482Y-43640618D01*
X201806686Y-43601875D01*
X201783066Y-43557685D01*
X201768517Y-43509722D01*
X201763000Y-43453709D01*
X201763000Y-42703491D01*
X201768517Y-42647478D01*
X201783066Y-42599515D01*
X201806686Y-42555325D01*
X201838482Y-42516582D01*
X201877225Y-42484786D01*
X201921415Y-42461166D01*
X201969378Y-42446617D01*
X202025391Y-42441100D01*
X202850609Y-42441100D01*
X202906622Y-42446617D01*
X202906622Y-42446617D01*
G37*
G36*
X225098597Y-43860797D02*
X225151253Y-43876770D01*
X225199765Y-43902700D01*
X225242296Y-43937604D01*
X225277200Y-43980135D01*
X225303130Y-44028647D01*
X225319103Y-44081303D01*
X225325100Y-44142190D01*
X225325100Y-45367410D01*
X225319103Y-45428297D01*
X225303130Y-45480953D01*
X225277200Y-45529465D01*
X225242296Y-45571996D01*
X225199765Y-45606900D01*
X225151253Y-45632830D01*
X225098597Y-45648803D01*
X225037710Y-45654800D01*
X224237490Y-45654800D01*
X224176603Y-45648803D01*
X224123947Y-45632830D01*
X224075435Y-45606900D01*
X224032904Y-45571996D01*
X223998000Y-45529465D01*
X223972070Y-45480953D01*
X223956097Y-45428297D01*
X223950100Y-45367410D01*
X223950100Y-44142190D01*
X223956097Y-44081303D01*
X223972070Y-44028647D01*
X223998000Y-43980135D01*
X224032904Y-43937604D01*
X224075435Y-43902700D01*
X224123947Y-43876770D01*
X224176603Y-43860797D01*
X224237490Y-43854800D01*
X225037710Y-43854800D01*
X225098597Y-43860797D01*
X225098597Y-43860797D01*
G37*
G36*
X223223597Y-43860797D02*
X223276253Y-43876770D01*
X223324765Y-43902700D01*
X223367296Y-43937604D01*
X223402200Y-43980135D01*
X223428130Y-44028647D01*
X223444103Y-44081303D01*
X223450100Y-44142190D01*
X223450100Y-45367410D01*
X223444103Y-45428297D01*
X223428130Y-45480953D01*
X223402200Y-45529465D01*
X223367296Y-45571996D01*
X223324765Y-45606900D01*
X223276253Y-45632830D01*
X223223597Y-45648803D01*
X223162710Y-45654800D01*
X222362490Y-45654800D01*
X222301603Y-45648803D01*
X222248947Y-45632830D01*
X222200435Y-45606900D01*
X222157904Y-45571996D01*
X222123000Y-45529465D01*
X222097070Y-45480953D01*
X222081097Y-45428297D01*
X222075100Y-45367410D01*
X222075100Y-44142190D01*
X222081097Y-44081303D01*
X222097070Y-44028647D01*
X222123000Y-43980135D01*
X222157904Y-43937604D01*
X222200435Y-43902700D01*
X222248947Y-43876770D01*
X222301603Y-43860797D01*
X222362490Y-43854800D01*
X223162710Y-43854800D01*
X223223597Y-43860797D01*
X223223597Y-43860797D01*
G37*
G36*
X218508423Y-43214723D02*
X218561079Y-43230696D01*
X218609591Y-43256626D01*
X218652122Y-43291530D01*
X218687026Y-43334061D01*
X218712956Y-43382573D01*
X218728929Y-43435229D01*
X218734926Y-43496116D01*
X218734926Y-44721336D01*
X218728929Y-44782223D01*
X218712956Y-44834879D01*
X218687026Y-44883391D01*
X218652122Y-44925922D01*
X218609591Y-44960826D01*
X218561079Y-44986756D01*
X218508423Y-45002729D01*
X218447536Y-45008726D01*
X217647316Y-45008726D01*
X217586429Y-45002729D01*
X217533773Y-44986756D01*
X217485261Y-44960826D01*
X217442730Y-44925922D01*
X217407826Y-44883391D01*
X217381896Y-44834879D01*
X217365923Y-44782223D01*
X217359926Y-44721336D01*
X217359926Y-43496116D01*
X217365923Y-43435229D01*
X217381896Y-43382573D01*
X217407826Y-43334061D01*
X217442730Y-43291530D01*
X217485261Y-43256626D01*
X217533773Y-43230696D01*
X217586429Y-43214723D01*
X217647316Y-43208726D01*
X218447536Y-43208726D01*
X218508423Y-43214723D01*
X218508423Y-43214723D01*
G37*
G36*
X220383423Y-43214723D02*
X220436079Y-43230696D01*
X220484591Y-43256626D01*
X220527122Y-43291530D01*
X220562026Y-43334061D01*
X220587956Y-43382573D01*
X220603929Y-43435229D01*
X220609926Y-43496116D01*
X220609926Y-44721336D01*
X220603929Y-44782223D01*
X220587956Y-44834879D01*
X220562026Y-44883391D01*
X220527122Y-44925922D01*
X220484591Y-44960826D01*
X220436079Y-44986756D01*
X220383423Y-45002729D01*
X220322536Y-45008726D01*
X219522316Y-45008726D01*
X219461429Y-45002729D01*
X219408773Y-44986756D01*
X219360261Y-44960826D01*
X219317730Y-44925922D01*
X219282826Y-44883391D01*
X219256896Y-44834879D01*
X219240923Y-44782223D01*
X219234926Y-44721336D01*
X219234926Y-43496116D01*
X219240923Y-43435229D01*
X219256896Y-43382573D01*
X219282826Y-43334061D01*
X219317730Y-43291530D01*
X219360261Y-43256626D01*
X219408773Y-43230696D01*
X219461429Y-43214723D01*
X219522316Y-43208726D01*
X220322536Y-43208726D01*
X220383423Y-43214723D01*
X220383423Y-43214723D01*
G37*
G36*
X198322165Y-42280220D02*
X198511689Y-42358723D01*
X198682255Y-42472692D01*
X198827308Y-42617745D01*
X198941277Y-42788311D01*
X199019780Y-42977835D01*
X199059800Y-43179030D01*
X199059800Y-43384170D01*
X199019780Y-43585365D01*
X198941277Y-43774889D01*
X198827308Y-43945455D01*
X198682255Y-44090508D01*
X198511689Y-44204477D01*
X198322165Y-44282980D01*
X198120970Y-44323000D01*
X197915830Y-44323000D01*
X197714635Y-44282980D01*
X197525111Y-44204477D01*
X197354545Y-44090508D01*
X197209492Y-43945455D01*
X197095523Y-43774889D01*
X197017020Y-43585365D01*
X196977000Y-43384170D01*
X196977000Y-43179030D01*
X197017020Y-42977835D01*
X197095523Y-42788311D01*
X197209492Y-42617745D01*
X197354545Y-42472692D01*
X197525111Y-42358723D01*
X197714635Y-42280220D01*
X197915830Y-42240200D01*
X198120970Y-42240200D01*
X198322165Y-42280220D01*
X198322165Y-42280220D01*
G37*
G36*
X207124697Y-42290697D02*
X207177353Y-42306670D01*
X207225865Y-42332600D01*
X207268396Y-42367504D01*
X207303300Y-42410035D01*
X207329230Y-42458547D01*
X207345203Y-42511203D01*
X207351200Y-42572090D01*
X207351200Y-43372310D01*
X207345203Y-43433197D01*
X207329230Y-43485853D01*
X207303300Y-43534365D01*
X207268396Y-43576896D01*
X207225865Y-43611800D01*
X207177353Y-43637730D01*
X207124697Y-43653703D01*
X207063810Y-43659700D01*
X205838590Y-43659700D01*
X205777703Y-43653703D01*
X205725047Y-43637730D01*
X205676535Y-43611800D01*
X205634004Y-43576896D01*
X205599100Y-43534365D01*
X205573170Y-43485853D01*
X205557197Y-43433197D01*
X205551200Y-43372310D01*
X205551200Y-42572090D01*
X205557197Y-42511203D01*
X205573170Y-42458547D01*
X205599100Y-42410035D01*
X205634004Y-42367504D01*
X205676535Y-42332600D01*
X205725047Y-42306670D01*
X205777703Y-42290697D01*
X205838590Y-42284700D01*
X207063810Y-42284700D01*
X207124697Y-42290697D01*
X207124697Y-42290697D01*
G37*
G36*
X205040222Y-42345017D02*
X205088185Y-42359566D01*
X205132375Y-42383186D01*
X205171118Y-42414982D01*
X205202914Y-42453725D01*
X205226534Y-42497915D01*
X205241083Y-42545878D01*
X205246600Y-42601891D01*
X205246600Y-43352109D01*
X205241083Y-43408122D01*
X205226534Y-43456085D01*
X205202914Y-43500275D01*
X205171118Y-43539018D01*
X205132375Y-43570814D01*
X205088185Y-43594434D01*
X205040222Y-43608983D01*
X204984209Y-43614500D01*
X204158991Y-43614500D01*
X204102978Y-43608983D01*
X204055015Y-43594434D01*
X204010825Y-43570814D01*
X203972082Y-43539018D01*
X203940286Y-43500275D01*
X203916666Y-43456085D01*
X203902117Y-43408122D01*
X203896600Y-43352109D01*
X203896600Y-42601891D01*
X203902117Y-42545878D01*
X203916666Y-42497915D01*
X203940286Y-42453725D01*
X203972082Y-42414982D01*
X204010825Y-42383186D01*
X204055015Y-42359566D01*
X204102978Y-42345017D01*
X204158991Y-42339500D01*
X204984209Y-42339500D01*
X205040222Y-42345017D01*
X205040222Y-42345017D01*
G37*
G36*
X219464926Y-42956126D02*
X217264926Y-42956126D01*
X217264926Y-41756126D01*
X219464926Y-41756126D01*
X219464926Y-42956126D01*
X219464926Y-42956126D01*
G37*
G36*
X216464926Y-42956126D02*
X214264926Y-42956126D01*
X214264926Y-41756126D01*
X216464926Y-41756126D01*
X216464926Y-42956126D01*
X216464926Y-42956126D01*
G37*
G36*
X222476318Y-39494411D02*
X222548767Y-39508822D01*
X222605303Y-39532240D01*
X222685257Y-39565358D01*
X222808100Y-39647439D01*
X222912561Y-39751900D01*
X222994642Y-39874743D01*
X223018427Y-39932165D01*
X223051178Y-40011233D01*
X223056011Y-40035530D01*
X223080000Y-40156130D01*
X223080000Y-40303870D01*
X223051178Y-40448766D01*
X222994642Y-40585257D01*
X222912561Y-40708100D01*
X222824049Y-40796612D01*
X222808503Y-40815554D01*
X222796952Y-40837165D01*
X222789839Y-40860614D01*
X222787437Y-40885000D01*
X222789839Y-40909386D01*
X222796952Y-40932835D01*
X222808503Y-40954446D01*
X222824049Y-40973388D01*
X222842991Y-40988934D01*
X222864602Y-41000485D01*
X222888051Y-41007598D01*
X222912437Y-41010000D01*
X223128110Y-41010000D01*
X223188997Y-41015997D01*
X223241653Y-41031970D01*
X223290165Y-41057900D01*
X223332696Y-41092804D01*
X223367600Y-41135335D01*
X223393530Y-41183847D01*
X223409503Y-41236503D01*
X223415500Y-41297390D01*
X223415500Y-42522610D01*
X223409503Y-42583497D01*
X223393530Y-42636153D01*
X223367600Y-42684665D01*
X223332696Y-42727196D01*
X223290165Y-42762100D01*
X223241653Y-42788030D01*
X223188997Y-42804003D01*
X223128110Y-42810000D01*
X222327890Y-42810000D01*
X222267003Y-42804003D01*
X222214347Y-42788030D01*
X222165835Y-42762100D01*
X222123304Y-42727196D01*
X222088400Y-42684665D01*
X222062470Y-42636153D01*
X222046497Y-42583497D01*
X222040500Y-42522610D01*
X222040500Y-41297390D01*
X222046497Y-41236503D01*
X222062470Y-41183847D01*
X222088400Y-41135335D01*
X222100061Y-41121126D01*
X222113675Y-41100751D01*
X222123052Y-41078112D01*
X222127833Y-41054079D01*
X222127833Y-41029575D01*
X222123053Y-41005541D01*
X222113675Y-40982902D01*
X222100062Y-40962527D01*
X222082735Y-40945200D01*
X222062360Y-40931586D01*
X222051271Y-40926341D01*
X221974741Y-40894641D01*
X221851900Y-40812561D01*
X221747439Y-40708100D01*
X221665358Y-40585257D01*
X221608822Y-40448766D01*
X221580000Y-40303870D01*
X221580000Y-40156130D01*
X221603989Y-40035530D01*
X221608822Y-40011233D01*
X221641573Y-39932165D01*
X221665358Y-39874743D01*
X221747439Y-39751900D01*
X221851900Y-39647439D01*
X221974743Y-39565358D01*
X222054697Y-39532240D01*
X222111233Y-39508822D01*
X222183682Y-39494411D01*
X222256130Y-39480000D01*
X222403870Y-39480000D01*
X222476318Y-39494411D01*
X222476318Y-39494411D01*
G37*
G36*
X221313997Y-41015997D02*
X221366653Y-41031970D01*
X221415165Y-41057900D01*
X221457696Y-41092804D01*
X221492600Y-41135335D01*
X221518530Y-41183847D01*
X221534503Y-41236503D01*
X221540500Y-41297390D01*
X221540500Y-42522610D01*
X221534503Y-42583497D01*
X221518530Y-42636153D01*
X221492600Y-42684665D01*
X221457696Y-42727196D01*
X221415165Y-42762100D01*
X221366653Y-42788030D01*
X221313997Y-42804003D01*
X221253110Y-42810000D01*
X220452890Y-42810000D01*
X220392003Y-42804003D01*
X220339347Y-42788030D01*
X220290835Y-42762100D01*
X220248304Y-42727196D01*
X220213400Y-42684665D01*
X220187470Y-42636153D01*
X220171497Y-42583497D01*
X220165500Y-42522610D01*
X220165500Y-41297390D01*
X220171497Y-41236503D01*
X220187470Y-41183847D01*
X220213400Y-41135335D01*
X220248304Y-41092804D01*
X220290835Y-41057900D01*
X220339347Y-41031970D01*
X220392003Y-41015997D01*
X220452890Y-41010000D01*
X221253110Y-41010000D01*
X221313997Y-41015997D01*
X221313997Y-41015997D01*
G37*
G36*
X202906622Y-40871617D02*
X202954585Y-40886166D01*
X202998775Y-40909786D01*
X203037518Y-40941582D01*
X203069314Y-40980325D01*
X203092934Y-41024515D01*
X203107483Y-41072478D01*
X203113000Y-41128491D01*
X203113000Y-41878709D01*
X203107483Y-41934722D01*
X203092934Y-41982685D01*
X203069314Y-42026875D01*
X203037518Y-42065618D01*
X202998775Y-42097414D01*
X202954585Y-42121034D01*
X202906622Y-42135583D01*
X202850609Y-42141100D01*
X202025391Y-42141100D01*
X201969378Y-42135583D01*
X201921415Y-42121034D01*
X201877225Y-42097414D01*
X201838482Y-42065618D01*
X201806686Y-42026875D01*
X201783066Y-41982685D01*
X201768517Y-41934722D01*
X201763000Y-41878709D01*
X201763000Y-41128491D01*
X201768517Y-41072478D01*
X201783066Y-41024515D01*
X201806686Y-40980325D01*
X201838482Y-40941582D01*
X201877225Y-40909786D01*
X201921415Y-40886166D01*
X201969378Y-40871617D01*
X202025391Y-40866100D01*
X202850609Y-40866100D01*
X202906622Y-40871617D01*
X202906622Y-40871617D01*
G37*
G36*
X205040222Y-40770017D02*
X205088185Y-40784566D01*
X205132375Y-40808186D01*
X205171118Y-40839982D01*
X205202914Y-40878725D01*
X205226534Y-40922915D01*
X205241083Y-40970878D01*
X205246600Y-41026891D01*
X205246600Y-41777109D01*
X205241083Y-41833122D01*
X205226534Y-41881085D01*
X205202914Y-41925275D01*
X205171118Y-41964018D01*
X205132375Y-41995814D01*
X205088185Y-42019434D01*
X205040222Y-42033983D01*
X204984209Y-42039500D01*
X204158991Y-42039500D01*
X204102978Y-42033983D01*
X204055015Y-42019434D01*
X204010825Y-41995814D01*
X203972082Y-41964018D01*
X203940286Y-41925275D01*
X203916666Y-41881085D01*
X203902117Y-41833122D01*
X203896600Y-41777109D01*
X203896600Y-41026891D01*
X203902117Y-40970878D01*
X203916666Y-40922915D01*
X203940286Y-40878725D01*
X203972082Y-40839982D01*
X204010825Y-40808186D01*
X204055015Y-40784566D01*
X204102978Y-40770017D01*
X204158991Y-40764500D01*
X204984209Y-40764500D01*
X205040222Y-40770017D01*
X205040222Y-40770017D01*
G37*
G36*
X209322923Y-40620523D02*
X209375579Y-40636496D01*
X209424091Y-40662426D01*
X209466622Y-40697330D01*
X209501526Y-40739861D01*
X209527456Y-40788373D01*
X209543429Y-40841029D01*
X209549426Y-40901916D01*
X209549426Y-41702136D01*
X209543429Y-41763023D01*
X209527456Y-41815679D01*
X209501526Y-41864191D01*
X209466622Y-41906722D01*
X209424091Y-41941626D01*
X209375579Y-41967556D01*
X209322923Y-41983529D01*
X209262036Y-41989526D01*
X208036816Y-41989526D01*
X207975929Y-41983529D01*
X207923273Y-41967556D01*
X207874761Y-41941626D01*
X207832230Y-41906722D01*
X207797326Y-41864191D01*
X207771396Y-41815679D01*
X207755423Y-41763023D01*
X207749426Y-41702136D01*
X207749426Y-40901916D01*
X207755423Y-40841029D01*
X207771396Y-40788373D01*
X207797326Y-40739861D01*
X207832230Y-40697330D01*
X207874761Y-40662426D01*
X207923273Y-40636496D01*
X207975929Y-40620523D01*
X208036816Y-40614526D01*
X209262036Y-40614526D01*
X209322923Y-40620523D01*
X209322923Y-40620523D01*
G37*
G36*
X213577423Y-40563497D02*
X213630079Y-40579470D01*
X213678591Y-40605400D01*
X213721122Y-40640304D01*
X213756026Y-40682835D01*
X213781956Y-40731347D01*
X213797929Y-40784003D01*
X213803926Y-40844890D01*
X213803926Y-41645110D01*
X213797929Y-41705997D01*
X213781956Y-41758653D01*
X213756026Y-41807165D01*
X213721122Y-41849696D01*
X213678591Y-41884600D01*
X213630079Y-41910530D01*
X213577423Y-41926503D01*
X213516536Y-41932500D01*
X212291316Y-41932500D01*
X212230429Y-41926503D01*
X212177773Y-41910530D01*
X212129261Y-41884600D01*
X212086730Y-41849696D01*
X212051826Y-41807165D01*
X212025896Y-41758653D01*
X212009923Y-41705997D01*
X212003926Y-41645110D01*
X212003926Y-40844890D01*
X212009923Y-40784003D01*
X212025896Y-40731347D01*
X212051826Y-40682835D01*
X212086730Y-40640304D01*
X212129261Y-40605400D01*
X212177773Y-40579470D01*
X212230429Y-40563497D01*
X212291316Y-40557500D01*
X213516536Y-40557500D01*
X213577423Y-40563497D01*
X213577423Y-40563497D01*
G37*
G36*
X207124697Y-40415697D02*
X207177353Y-40431670D01*
X207225865Y-40457600D01*
X207268396Y-40492504D01*
X207303300Y-40535035D01*
X207329230Y-40583547D01*
X207345203Y-40636203D01*
X207351200Y-40697090D01*
X207351200Y-41497310D01*
X207345203Y-41558197D01*
X207329230Y-41610853D01*
X207303300Y-41659365D01*
X207268396Y-41701896D01*
X207225865Y-41736800D01*
X207177353Y-41762730D01*
X207124697Y-41778703D01*
X207063810Y-41784700D01*
X205838590Y-41784700D01*
X205777703Y-41778703D01*
X205725047Y-41762730D01*
X205676535Y-41736800D01*
X205634004Y-41701896D01*
X205599100Y-41659365D01*
X205573170Y-41610853D01*
X205557197Y-41558197D01*
X205551200Y-41497310D01*
X205551200Y-40697090D01*
X205557197Y-40636203D01*
X205573170Y-40583547D01*
X205599100Y-40535035D01*
X205634004Y-40492504D01*
X205676535Y-40457600D01*
X205725047Y-40431670D01*
X205777703Y-40415697D01*
X205838590Y-40409700D01*
X207063810Y-40409700D01*
X207124697Y-40415697D01*
X207124697Y-40415697D01*
G37*
G36*
X216464926Y-41456126D02*
X214264926Y-41456126D01*
X214264926Y-40256126D01*
X216464926Y-40256126D01*
X216464926Y-41456126D01*
X216464926Y-41456126D01*
G37*
G36*
X219464926Y-41456126D02*
X217264926Y-41456126D01*
X217264926Y-40256126D01*
X219464926Y-40256126D01*
X219464926Y-41456126D01*
X219464926Y-41456126D01*
G37*
G36*
X196675000Y-41350000D02*
X194675000Y-41350000D01*
X194675000Y-39250000D01*
X196675000Y-39250000D01*
X196675000Y-41350000D01*
X196675000Y-41350000D01*
G37*
G36*
X209322923Y-38745523D02*
X209375579Y-38761496D01*
X209424091Y-38787426D01*
X209466622Y-38822330D01*
X209501526Y-38864861D01*
X209527456Y-38913373D01*
X209543429Y-38966029D01*
X209549426Y-39026916D01*
X209549426Y-39827136D01*
X209543429Y-39888023D01*
X209527456Y-39940679D01*
X209501526Y-39989191D01*
X209466622Y-40031722D01*
X209424091Y-40066626D01*
X209375579Y-40092556D01*
X209322923Y-40108529D01*
X209262036Y-40114526D01*
X208036816Y-40114526D01*
X207975929Y-40108529D01*
X207923273Y-40092556D01*
X207874761Y-40066626D01*
X207832230Y-40031722D01*
X207797326Y-39989191D01*
X207771396Y-39940679D01*
X207755423Y-39888023D01*
X207749426Y-39827136D01*
X207749426Y-39026916D01*
X207755423Y-38966029D01*
X207771396Y-38913373D01*
X207797326Y-38864861D01*
X207832230Y-38822330D01*
X207874761Y-38787426D01*
X207923273Y-38761496D01*
X207975929Y-38745523D01*
X208036816Y-38739526D01*
X209262036Y-38739526D01*
X209322923Y-38745523D01*
X209322923Y-38745523D01*
G37*
G36*
X213577423Y-38688497D02*
X213630079Y-38704470D01*
X213678591Y-38730400D01*
X213721122Y-38765304D01*
X213756026Y-38807835D01*
X213781956Y-38856347D01*
X213797929Y-38909003D01*
X213803926Y-38969890D01*
X213803926Y-39770110D01*
X213797929Y-39830997D01*
X213781956Y-39883653D01*
X213756026Y-39932165D01*
X213721122Y-39974696D01*
X213678591Y-40009600D01*
X213630079Y-40035530D01*
X213577423Y-40051503D01*
X213516536Y-40057500D01*
X212291316Y-40057500D01*
X212230429Y-40051503D01*
X212177773Y-40035530D01*
X212129261Y-40009600D01*
X212086730Y-39974696D01*
X212051826Y-39932165D01*
X212025896Y-39883653D01*
X212009923Y-39830997D01*
X212003926Y-39770110D01*
X212003926Y-38969890D01*
X212009923Y-38909003D01*
X212025896Y-38856347D01*
X212051826Y-38807835D01*
X212086730Y-38765304D01*
X212129261Y-38730400D01*
X212177773Y-38704470D01*
X212230429Y-38688497D01*
X212291316Y-38682500D01*
X213516536Y-38682500D01*
X213577423Y-38688497D01*
X213577423Y-38688497D01*
G37*
G36*
X195850770Y-36775372D02*
X195966689Y-36798429D01*
X196148678Y-36873811D01*
X196312463Y-36983249D01*
X196451751Y-37122537D01*
X196561189Y-37286322D01*
X196636571Y-37468311D01*
X196675000Y-37661509D01*
X196675000Y-37858491D01*
X196636571Y-38051689D01*
X196561189Y-38233678D01*
X196451751Y-38397463D01*
X196312463Y-38536751D01*
X196148678Y-38646189D01*
X195966689Y-38721571D01*
X195871867Y-38740432D01*
X195773493Y-38760000D01*
X195576507Y-38760000D01*
X195478133Y-38740432D01*
X195383311Y-38721571D01*
X195201322Y-38646189D01*
X195037537Y-38536751D01*
X194898249Y-38397463D01*
X194788811Y-38233678D01*
X194713429Y-38051689D01*
X194675000Y-37858491D01*
X194675000Y-37661509D01*
X194713429Y-37468311D01*
X194788811Y-37286322D01*
X194898249Y-37122537D01*
X195037537Y-36983249D01*
X195201322Y-36873811D01*
X195383311Y-36798429D01*
X195499230Y-36775372D01*
X195576507Y-36760000D01*
X195773493Y-36760000D01*
X195850770Y-36775372D01*
X195850770Y-36775372D01*
G37*
G36*
X222615000Y-38364800D02*
X217515000Y-38364800D01*
X217515000Y-35964800D01*
X222615000Y-35964800D01*
X222615000Y-38364800D01*
X222615000Y-38364800D01*
G37*
G36*
X216465000Y-36914800D02*
X214065000Y-36914800D01*
X214065000Y-23514800D01*
X216465000Y-23514800D01*
X216465000Y-36914800D01*
X216465000Y-36914800D01*
G37*
G36*
X226065000Y-36914800D02*
X223665000Y-36914800D01*
X223665000Y-23514800D01*
X226065000Y-23514800D01*
X226065000Y-36914800D01*
X226065000Y-36914800D01*
G37*
G36*
X195850770Y-34235372D02*
X195966689Y-34258429D01*
X196148678Y-34333811D01*
X196312463Y-34443249D01*
X196451751Y-34582537D01*
X196561189Y-34746322D01*
X196636571Y-34928311D01*
X196675000Y-35121509D01*
X196675000Y-35318491D01*
X196636571Y-35511689D01*
X196561189Y-35693678D01*
X196451751Y-35857463D01*
X196312463Y-35996751D01*
X196148678Y-36106189D01*
X195966689Y-36181571D01*
X195850770Y-36204628D01*
X195773493Y-36220000D01*
X195576507Y-36220000D01*
X195499230Y-36204628D01*
X195383311Y-36181571D01*
X195201322Y-36106189D01*
X195037537Y-35996751D01*
X194898249Y-35857463D01*
X194788811Y-35693678D01*
X194713429Y-35511689D01*
X194675000Y-35318491D01*
X194675000Y-35121509D01*
X194713429Y-34928311D01*
X194788811Y-34746322D01*
X194898249Y-34582537D01*
X195037537Y-34443249D01*
X195201322Y-34333811D01*
X195383311Y-34258429D01*
X195499230Y-34235372D01*
X195576507Y-34220000D01*
X195773493Y-34220000D01*
X195850770Y-34235372D01*
X195850770Y-34235372D01*
G37*
G36*
X195847917Y-31694804D02*
X195966689Y-31718429D01*
X196148678Y-31793811D01*
X196312463Y-31903249D01*
X196451751Y-32042537D01*
X196561189Y-32206322D01*
X196636571Y-32388311D01*
X196675000Y-32581509D01*
X196675000Y-32778491D01*
X196636571Y-32971689D01*
X196561189Y-33153678D01*
X196451751Y-33317463D01*
X196312463Y-33456751D01*
X196148678Y-33566189D01*
X195966689Y-33641571D01*
X195850770Y-33664628D01*
X195773493Y-33680000D01*
X195576507Y-33680000D01*
X195499230Y-33664628D01*
X195383311Y-33641571D01*
X195201322Y-33566189D01*
X195037537Y-33456751D01*
X194898249Y-33317463D01*
X194788811Y-33153678D01*
X194713429Y-32971689D01*
X194675000Y-32778491D01*
X194675000Y-32581509D01*
X194713429Y-32388311D01*
X194788811Y-32206322D01*
X194898249Y-32042537D01*
X195037537Y-31903249D01*
X195201322Y-31793811D01*
X195383311Y-31718429D01*
X195502083Y-31694804D01*
X195576507Y-31680000D01*
X195773493Y-31680000D01*
X195847917Y-31694804D01*
X195847917Y-31694804D01*
G37*
G36*
X207724997Y-31617997D02*
X207777653Y-31633970D01*
X207826165Y-31659900D01*
X207868696Y-31694804D01*
X207903600Y-31737335D01*
X207929530Y-31785847D01*
X207945503Y-31838503D01*
X207951500Y-31899390D01*
X207951500Y-33124610D01*
X207945503Y-33185497D01*
X207929530Y-33238153D01*
X207903600Y-33286665D01*
X207868696Y-33329196D01*
X207826165Y-33364100D01*
X207777653Y-33390030D01*
X207724997Y-33406003D01*
X207664110Y-33412000D01*
X206863890Y-33412000D01*
X206803003Y-33406003D01*
X206750347Y-33390030D01*
X206701835Y-33364100D01*
X206659304Y-33329196D01*
X206624400Y-33286665D01*
X206598470Y-33238153D01*
X206582497Y-33185497D01*
X206576500Y-33124610D01*
X206576500Y-31899390D01*
X206582497Y-31838503D01*
X206598470Y-31785847D01*
X206624400Y-31737335D01*
X206659304Y-31694804D01*
X206701835Y-31659900D01*
X206750347Y-31633970D01*
X206803003Y-31617997D01*
X206863890Y-31612000D01*
X207664110Y-31612000D01*
X207724997Y-31617997D01*
X207724997Y-31617997D01*
G37*
G36*
X205849997Y-31617997D02*
X205902653Y-31633970D01*
X205951165Y-31659900D01*
X205993696Y-31694804D01*
X206028600Y-31737335D01*
X206054530Y-31785847D01*
X206070503Y-31838503D01*
X206076500Y-31899390D01*
X206076500Y-33124610D01*
X206070503Y-33185497D01*
X206054530Y-33238153D01*
X206028600Y-33286665D01*
X205993696Y-33329196D01*
X205951165Y-33364100D01*
X205902653Y-33390030D01*
X205849997Y-33406003D01*
X205789110Y-33412000D01*
X204988890Y-33412000D01*
X204928003Y-33406003D01*
X204875347Y-33390030D01*
X204826835Y-33364100D01*
X204784304Y-33329196D01*
X204749400Y-33286665D01*
X204723470Y-33238153D01*
X204707497Y-33185497D01*
X204701500Y-33124610D01*
X204701500Y-31899390D01*
X204707497Y-31838503D01*
X204723470Y-31785847D01*
X204749400Y-31737335D01*
X204784304Y-31694804D01*
X204826835Y-31659900D01*
X204875347Y-31633970D01*
X204928003Y-31617997D01*
X204988890Y-31612000D01*
X205789110Y-31612000D01*
X205849997Y-31617997D01*
X205849997Y-31617997D01*
G37*
G36*
X222476318Y-31514411D02*
X222548767Y-31528822D01*
X222605303Y-31552240D01*
X222685257Y-31585358D01*
X222808100Y-31667439D01*
X222912561Y-31771900D01*
X222994642Y-31894743D01*
X223019912Y-31955750D01*
X223051178Y-32031233D01*
X223065589Y-32103682D01*
X223080000Y-32176130D01*
X223080000Y-32323870D01*
X223051178Y-32468766D01*
X222994642Y-32605257D01*
X222912561Y-32728100D01*
X222808100Y-32832561D01*
X222685257Y-32914642D01*
X222605303Y-32947760D01*
X222548767Y-32971178D01*
X222476318Y-32985589D01*
X222403870Y-33000000D01*
X222256130Y-33000000D01*
X222183682Y-32985589D01*
X222111233Y-32971178D01*
X222054697Y-32947760D01*
X221974743Y-32914642D01*
X221851900Y-32832561D01*
X221747439Y-32728100D01*
X221665358Y-32605257D01*
X221608822Y-32468766D01*
X221580000Y-32323870D01*
X221580000Y-32176130D01*
X221594411Y-32103682D01*
X221608822Y-32031233D01*
X221640088Y-31955750D01*
X221665358Y-31894743D01*
X221747439Y-31771900D01*
X221851900Y-31667439D01*
X221974743Y-31585358D01*
X222054697Y-31552240D01*
X222111233Y-31528822D01*
X222183682Y-31514411D01*
X222256130Y-31500000D01*
X222403870Y-31500000D01*
X222476318Y-31514411D01*
X222476318Y-31514411D01*
G37*
G36*
X196863097Y-29819297D02*
X196915753Y-29835270D01*
X196964265Y-29861200D01*
X197006796Y-29896104D01*
X197041700Y-29938635D01*
X197067630Y-29987147D01*
X197083603Y-30039803D01*
X197089600Y-30100690D01*
X197089600Y-30900910D01*
X197083603Y-30961797D01*
X197067630Y-31014453D01*
X197041700Y-31062965D01*
X197006796Y-31105496D01*
X196964265Y-31140400D01*
X196915753Y-31166330D01*
X196863097Y-31182303D01*
X196802210Y-31188300D01*
X195576990Y-31188300D01*
X195516103Y-31182303D01*
X195463447Y-31166330D01*
X195414935Y-31140400D01*
X195372404Y-31105496D01*
X195337500Y-31062965D01*
X195311570Y-31014453D01*
X195295597Y-30961797D01*
X195289600Y-30900910D01*
X195289600Y-30100690D01*
X195295597Y-30039803D01*
X195311570Y-29987147D01*
X195337500Y-29938635D01*
X195372404Y-29896104D01*
X195414935Y-29861200D01*
X195463447Y-29835270D01*
X195516103Y-29819297D01*
X195576990Y-29813300D01*
X196802210Y-29813300D01*
X196863097Y-29819297D01*
X196863097Y-29819297D01*
G37*
G36*
X205231322Y-28946917D02*
X205279285Y-28961466D01*
X205323475Y-28985086D01*
X205362218Y-29016882D01*
X205394014Y-29055625D01*
X205417634Y-29099815D01*
X205432183Y-29147778D01*
X205437700Y-29203791D01*
X205437700Y-30029009D01*
X205432183Y-30085022D01*
X205417634Y-30132985D01*
X205394014Y-30177175D01*
X205362218Y-30215918D01*
X205323475Y-30247714D01*
X205279285Y-30271334D01*
X205231322Y-30285883D01*
X205175309Y-30291400D01*
X204425091Y-30291400D01*
X204369078Y-30285883D01*
X204321115Y-30271334D01*
X204276925Y-30247714D01*
X204238182Y-30215918D01*
X204206386Y-30177175D01*
X204182766Y-30132985D01*
X204168217Y-30085022D01*
X204162700Y-30029009D01*
X204162700Y-29203791D01*
X204168217Y-29147778D01*
X204182766Y-29099815D01*
X204206386Y-29055625D01*
X204238182Y-29016882D01*
X204276925Y-28985086D01*
X204321115Y-28961466D01*
X204369078Y-28946917D01*
X204425091Y-28941400D01*
X205175309Y-28941400D01*
X205231322Y-28946917D01*
X205231322Y-28946917D01*
G37*
G36*
X203656322Y-28946917D02*
X203704285Y-28961466D01*
X203748475Y-28985086D01*
X203787218Y-29016882D01*
X203819014Y-29055625D01*
X203842634Y-29099815D01*
X203857183Y-29147778D01*
X203862700Y-29203791D01*
X203862700Y-30029009D01*
X203857183Y-30085022D01*
X203842634Y-30132985D01*
X203819014Y-30177175D01*
X203787218Y-30215918D01*
X203748475Y-30247714D01*
X203704285Y-30271334D01*
X203656322Y-30285883D01*
X203600309Y-30291400D01*
X202850091Y-30291400D01*
X202794078Y-30285883D01*
X202746115Y-30271334D01*
X202701925Y-30247714D01*
X202663182Y-30215918D01*
X202631386Y-30177175D01*
X202607766Y-30132985D01*
X202593217Y-30085022D01*
X202587700Y-30029009D01*
X202587700Y-29203791D01*
X202593217Y-29147778D01*
X202607766Y-29099815D01*
X202631386Y-29055625D01*
X202663182Y-29016882D01*
X202701925Y-28985086D01*
X202746115Y-28961466D01*
X202794078Y-28946917D01*
X202850091Y-28941400D01*
X203600309Y-28941400D01*
X203656322Y-28946917D01*
X203656322Y-28946917D01*
G37*
G36*
X197111126Y-22899915D02*
X197329512Y-22990373D01*
X197526058Y-23121701D01*
X197693199Y-23288842D01*
X197824527Y-23485388D01*
X197914985Y-23703774D01*
X197961100Y-23935609D01*
X197961100Y-24171991D01*
X197914985Y-24403826D01*
X197824527Y-24622212D01*
X197693199Y-24818758D01*
X197526058Y-24985899D01*
X197329512Y-25117227D01*
X197111126Y-25207685D01*
X196879291Y-25253800D01*
X196773487Y-25253800D01*
X196749101Y-25256202D01*
X196725652Y-25263315D01*
X196704041Y-25274866D01*
X196685099Y-25290412D01*
X196669553Y-25309354D01*
X196658002Y-25330965D01*
X196650889Y-25354414D01*
X196648487Y-25378800D01*
X196650889Y-25403186D01*
X196658002Y-25426635D01*
X196669553Y-25448246D01*
X196685099Y-25467188D01*
X196847387Y-25629476D01*
X197006073Y-25866967D01*
X197115378Y-26130853D01*
X197171100Y-26410986D01*
X197171100Y-26696614D01*
X197115378Y-26976747D01*
X197006073Y-27240633D01*
X196847387Y-27478124D01*
X196645424Y-27680087D01*
X196601605Y-27709366D01*
X196582663Y-27724912D01*
X196567117Y-27743854D01*
X196555566Y-27765464D01*
X196548453Y-27788914D01*
X196546051Y-27813300D01*
X196548453Y-27837686D01*
X196555566Y-27861135D01*
X196567117Y-27882746D01*
X196582663Y-27901688D01*
X196601605Y-27917234D01*
X196623215Y-27928785D01*
X196646665Y-27935898D01*
X196671051Y-27938300D01*
X196802210Y-27938300D01*
X196863097Y-27944297D01*
X196915753Y-27960270D01*
X196964265Y-27986200D01*
X197006796Y-28021104D01*
X197041700Y-28063635D01*
X197067630Y-28112147D01*
X197083603Y-28164803D01*
X197089600Y-28225690D01*
X197089600Y-29025910D01*
X197083603Y-29086797D01*
X197067630Y-29139453D01*
X197041700Y-29187965D01*
X197006796Y-29230496D01*
X196964265Y-29265400D01*
X196915753Y-29291330D01*
X196863097Y-29307303D01*
X196802210Y-29313300D01*
X195576990Y-29313300D01*
X195516103Y-29307303D01*
X195463447Y-29291330D01*
X195414935Y-29265400D01*
X195372404Y-29230496D01*
X195337500Y-29187965D01*
X195311570Y-29139453D01*
X195295597Y-29086797D01*
X195289600Y-29025910D01*
X195289600Y-28225690D01*
X195295597Y-28164803D01*
X195311570Y-28112146D01*
X195315925Y-28103998D01*
X195325302Y-28081359D01*
X195330082Y-28057325D01*
X195330082Y-28032821D01*
X195325301Y-28008788D01*
X195315923Y-27986149D01*
X195302309Y-27965775D01*
X195284981Y-27948448D01*
X195253520Y-27929591D01*
X195034267Y-27838773D01*
X194796776Y-27680087D01*
X194594813Y-27478124D01*
X194436127Y-27240633D01*
X194326822Y-26976747D01*
X194271100Y-26696614D01*
X194271100Y-26410986D01*
X194326822Y-26130853D01*
X194436127Y-25866967D01*
X194594813Y-25629476D01*
X194796776Y-25427513D01*
X195034267Y-25268827D01*
X195298153Y-25159522D01*
X195578286Y-25103800D01*
X195812267Y-25103800D01*
X195836653Y-25101398D01*
X195860102Y-25094285D01*
X195881713Y-25082734D01*
X195900655Y-25067188D01*
X195916201Y-25048246D01*
X195927752Y-25026635D01*
X195934865Y-25003186D01*
X195937267Y-24978800D01*
X195934865Y-24954414D01*
X195927752Y-24930965D01*
X195916201Y-24909354D01*
X195900655Y-24890412D01*
X195829001Y-24818758D01*
X195697673Y-24622212D01*
X195607215Y-24403826D01*
X195561100Y-24171991D01*
X195561100Y-23935609D01*
X195607215Y-23703774D01*
X195697673Y-23485388D01*
X195829001Y-23288842D01*
X195996142Y-23121701D01*
X196192688Y-22990373D01*
X196411074Y-22899915D01*
X196642909Y-22853800D01*
X196879291Y-22853800D01*
X197111126Y-22899915D01*
X197111126Y-22899915D01*
G37*
G36*
X202111126Y-22899915D02*
X202329512Y-22990373D01*
X202526058Y-23121701D01*
X202693199Y-23288842D01*
X202824527Y-23485388D01*
X202914985Y-23703774D01*
X202961100Y-23935609D01*
X202961100Y-24171991D01*
X202914985Y-24403826D01*
X202824527Y-24622212D01*
X202693199Y-24818758D01*
X202621545Y-24890412D01*
X202605999Y-24909354D01*
X202594448Y-24930965D01*
X202587335Y-24954414D01*
X202584933Y-24978800D01*
X202587335Y-25003186D01*
X202594448Y-25026635D01*
X202605999Y-25048246D01*
X202621545Y-25067188D01*
X202640487Y-25082734D01*
X202662098Y-25094285D01*
X202685547Y-25101398D01*
X202709933Y-25103800D01*
X202943914Y-25103800D01*
X203224047Y-25159522D01*
X203487933Y-25268827D01*
X203725424Y-25427513D01*
X203927387Y-25629476D01*
X204086073Y-25866967D01*
X204195378Y-26130853D01*
X204251100Y-26410986D01*
X204251100Y-26696614D01*
X204195378Y-26976747D01*
X204086073Y-27240633D01*
X203927387Y-27478124D01*
X203725424Y-27680087D01*
X203487933Y-27838773D01*
X203224047Y-27948078D01*
X202943914Y-28003800D01*
X202658286Y-28003800D01*
X202378153Y-27948078D01*
X202114267Y-27838773D01*
X201876776Y-27680087D01*
X201674813Y-27478124D01*
X201516127Y-27240633D01*
X201406822Y-26976747D01*
X201351100Y-26696614D01*
X201351100Y-26410986D01*
X201406822Y-26130853D01*
X201516127Y-25866967D01*
X201674813Y-25629476D01*
X201837101Y-25467188D01*
X201852647Y-25448246D01*
X201864198Y-25426635D01*
X201871311Y-25403186D01*
X201873713Y-25378800D01*
X201871311Y-25354414D01*
X201864198Y-25330965D01*
X201852647Y-25309354D01*
X201837101Y-25290412D01*
X201818159Y-25274866D01*
X201796548Y-25263315D01*
X201773099Y-25256202D01*
X201748713Y-25253800D01*
X201642909Y-25253800D01*
X201411074Y-25207685D01*
X201192688Y-25117227D01*
X200996142Y-24985899D01*
X200829001Y-24818758D01*
X200697673Y-24622212D01*
X200607215Y-24403826D01*
X200561100Y-24171991D01*
X200561100Y-23935609D01*
X200607215Y-23703774D01*
X200697673Y-23485388D01*
X200829001Y-23288842D01*
X200996142Y-23121701D01*
X201192688Y-22990373D01*
X201411074Y-22899915D01*
X201642909Y-22853800D01*
X201879291Y-22853800D01*
X202111126Y-22899915D01*
X202111126Y-22899915D01*
G37*
G36*
X208114222Y-25708417D02*
X208162185Y-25722966D01*
X208206375Y-25746586D01*
X208245118Y-25778382D01*
X208276914Y-25817125D01*
X208300534Y-25861315D01*
X208315083Y-25909278D01*
X208320600Y-25965291D01*
X208320600Y-26790509D01*
X208315083Y-26846522D01*
X208300534Y-26894485D01*
X208276914Y-26938675D01*
X208245118Y-26977418D01*
X208206375Y-27009214D01*
X208162185Y-27032834D01*
X208114222Y-27047383D01*
X208058209Y-27052900D01*
X207307991Y-27052900D01*
X207251978Y-27047383D01*
X207204015Y-27032834D01*
X207159825Y-27009214D01*
X207121082Y-26977418D01*
X207089286Y-26938675D01*
X207065666Y-26894485D01*
X207051117Y-26846522D01*
X207045600Y-26790509D01*
X207045600Y-25965291D01*
X207051117Y-25909278D01*
X207065666Y-25861315D01*
X207089286Y-25817125D01*
X207121082Y-25778382D01*
X207159825Y-25746586D01*
X207204015Y-25722966D01*
X207251978Y-25708417D01*
X207307991Y-25702900D01*
X208058209Y-25702900D01*
X208114222Y-25708417D01*
X208114222Y-25708417D01*
G37*
G36*
X206539222Y-25708417D02*
X206587185Y-25722966D01*
X206631375Y-25746586D01*
X206670118Y-25778382D01*
X206701914Y-25817125D01*
X206725534Y-25861315D01*
X206740083Y-25909278D01*
X206745600Y-25965291D01*
X206745600Y-26790509D01*
X206740083Y-26846522D01*
X206725534Y-26894485D01*
X206701914Y-26938675D01*
X206670118Y-26977418D01*
X206631375Y-27009214D01*
X206587185Y-27032834D01*
X206539222Y-27047383D01*
X206483209Y-27052900D01*
X205732991Y-27052900D01*
X205676978Y-27047383D01*
X205629015Y-27032834D01*
X205584825Y-27009214D01*
X205546082Y-26977418D01*
X205514286Y-26938675D01*
X205490666Y-26894485D01*
X205476117Y-26846522D01*
X205470600Y-26790509D01*
X205470600Y-25965291D01*
X205476117Y-25909278D01*
X205490666Y-25861315D01*
X205514286Y-25817125D01*
X205546082Y-25778382D01*
X205584825Y-25746586D01*
X205629015Y-25722966D01*
X205676978Y-25708417D01*
X205732991Y-25702900D01*
X206483209Y-25702900D01*
X206539222Y-25708417D01*
X206539222Y-25708417D01*
G37*
G36*
X211517822Y-25251217D02*
X211565785Y-25265766D01*
X211609975Y-25289386D01*
X211648718Y-25321182D01*
X211680514Y-25359925D01*
X211704134Y-25404115D01*
X211718683Y-25452078D01*
X211724200Y-25508091D01*
X211724200Y-26333309D01*
X211718683Y-26389322D01*
X211704134Y-26437285D01*
X211680514Y-26481475D01*
X211648718Y-26520218D01*
X211609975Y-26552014D01*
X211565785Y-26575634D01*
X211517822Y-26590183D01*
X211461809Y-26595700D01*
X210711591Y-26595700D01*
X210655578Y-26590183D01*
X210607615Y-26575634D01*
X210563425Y-26552014D01*
X210524682Y-26520218D01*
X210492886Y-26481475D01*
X210469266Y-26437285D01*
X210454717Y-26389322D01*
X210449200Y-26333309D01*
X210449200Y-25508091D01*
X210454717Y-25452078D01*
X210469266Y-25404115D01*
X210492886Y-25359925D01*
X210524682Y-25321182D01*
X210563425Y-25289386D01*
X210607615Y-25265766D01*
X210655578Y-25251217D01*
X210711591Y-25245700D01*
X211461809Y-25245700D01*
X211517822Y-25251217D01*
X211517822Y-25251217D01*
G37*
G36*
X209942822Y-25251217D02*
X209990785Y-25265766D01*
X210034975Y-25289386D01*
X210073718Y-25321182D01*
X210105514Y-25359925D01*
X210129134Y-25404115D01*
X210143683Y-25452078D01*
X210149200Y-25508091D01*
X210149200Y-26333309D01*
X210143683Y-26389322D01*
X210129134Y-26437285D01*
X210105514Y-26481475D01*
X210073718Y-26520218D01*
X210034975Y-26552014D01*
X209990785Y-26575634D01*
X209942822Y-26590183D01*
X209886809Y-26595700D01*
X209136591Y-26595700D01*
X209080578Y-26590183D01*
X209032615Y-26575634D01*
X208988425Y-26552014D01*
X208949682Y-26520218D01*
X208917886Y-26481475D01*
X208894266Y-26437285D01*
X208879717Y-26389322D01*
X208874200Y-26333309D01*
X208874200Y-25508091D01*
X208879717Y-25452078D01*
X208894266Y-25404115D01*
X208917886Y-25359925D01*
X208949682Y-25321182D01*
X208988425Y-25289386D01*
X209032615Y-25265766D01*
X209080578Y-25251217D01*
X209136591Y-25245700D01*
X209886809Y-25245700D01*
X209942822Y-25251217D01*
X209942822Y-25251217D01*
G37*
G36*
X211357197Y-22194597D02*
X211409853Y-22210570D01*
X211458365Y-22236500D01*
X211500896Y-22271404D01*
X211535800Y-22313935D01*
X211561730Y-22362447D01*
X211577703Y-22415103D01*
X211583700Y-22475990D01*
X211583700Y-23701210D01*
X211577703Y-23762097D01*
X211561730Y-23814753D01*
X211535800Y-23863265D01*
X211500896Y-23905796D01*
X211458365Y-23940700D01*
X211409853Y-23966630D01*
X211357197Y-23982603D01*
X211296310Y-23988600D01*
X210496090Y-23988600D01*
X210435203Y-23982603D01*
X210382547Y-23966630D01*
X210334035Y-23940700D01*
X210291504Y-23905796D01*
X210256600Y-23863265D01*
X210230670Y-23814753D01*
X210214697Y-23762097D01*
X210208700Y-23701210D01*
X210208700Y-22475990D01*
X210214697Y-22415103D01*
X210230670Y-22362447D01*
X210256600Y-22313935D01*
X210291504Y-22271404D01*
X210334035Y-22236500D01*
X210382547Y-22210570D01*
X210435203Y-22194597D01*
X210496090Y-22188600D01*
X211296310Y-22188600D01*
X211357197Y-22194597D01*
X211357197Y-22194597D01*
G37*
G36*
X209482197Y-22194597D02*
X209534853Y-22210570D01*
X209583365Y-22236500D01*
X209625896Y-22271404D01*
X209660800Y-22313935D01*
X209686730Y-22362447D01*
X209702703Y-22415103D01*
X209708700Y-22475990D01*
X209708700Y-23701210D01*
X209702703Y-23762097D01*
X209686730Y-23814753D01*
X209660800Y-23863265D01*
X209625896Y-23905796D01*
X209583365Y-23940700D01*
X209534853Y-23966630D01*
X209482197Y-23982603D01*
X209421310Y-23988600D01*
X208621090Y-23988600D01*
X208560203Y-23982603D01*
X208507547Y-23966630D01*
X208459035Y-23940700D01*
X208416504Y-23905796D01*
X208381600Y-23863265D01*
X208355670Y-23814753D01*
X208339697Y-23762097D01*
X208333700Y-23701210D01*
X208333700Y-22475990D01*
X208339697Y-22415103D01*
X208355670Y-22362447D01*
X208381600Y-22313935D01*
X208416504Y-22271404D01*
X208459035Y-22236500D01*
X208507547Y-22210570D01*
X208560203Y-22194597D01*
X208621090Y-22188600D01*
X209421310Y-22188600D01*
X209482197Y-22194597D01*
X209482197Y-22194597D01*
G37*
G36*
X205761097Y-22042197D02*
X205813753Y-22058170D01*
X205862265Y-22084100D01*
X205904796Y-22119004D01*
X205939700Y-22161535D01*
X205965630Y-22210047D01*
X205981603Y-22262703D01*
X205987600Y-22323590D01*
X205987600Y-23548810D01*
X205981603Y-23609697D01*
X205965630Y-23662353D01*
X205939700Y-23710865D01*
X205904796Y-23753396D01*
X205862265Y-23788300D01*
X205813753Y-23814230D01*
X205761097Y-23830203D01*
X205700210Y-23836200D01*
X204899990Y-23836200D01*
X204839103Y-23830203D01*
X204786447Y-23814230D01*
X204737935Y-23788300D01*
X204695404Y-23753396D01*
X204660500Y-23710865D01*
X204634570Y-23662353D01*
X204618597Y-23609697D01*
X204612600Y-23548810D01*
X204612600Y-22323590D01*
X204618597Y-22262703D01*
X204634570Y-22210047D01*
X204660500Y-22161535D01*
X204695404Y-22119004D01*
X204737935Y-22084100D01*
X204786447Y-22058170D01*
X204839103Y-22042197D01*
X204899990Y-22036200D01*
X205700210Y-22036200D01*
X205761097Y-22042197D01*
X205761097Y-22042197D01*
G37*
G36*
X207636097Y-22042197D02*
X207688753Y-22058170D01*
X207737265Y-22084100D01*
X207779796Y-22119004D01*
X207814700Y-22161535D01*
X207840630Y-22210047D01*
X207856603Y-22262703D01*
X207862600Y-22323590D01*
X207862600Y-23548810D01*
X207856603Y-23609697D01*
X207840630Y-23662353D01*
X207814700Y-23710865D01*
X207779796Y-23753396D01*
X207737265Y-23788300D01*
X207688753Y-23814230D01*
X207636097Y-23830203D01*
X207575210Y-23836200D01*
X206774990Y-23836200D01*
X206714103Y-23830203D01*
X206661447Y-23814230D01*
X206612935Y-23788300D01*
X206570404Y-23753396D01*
X206535500Y-23710865D01*
X206509570Y-23662353D01*
X206493597Y-23609697D01*
X206487600Y-23548810D01*
X206487600Y-22323590D01*
X206493597Y-22262703D01*
X206509570Y-22210047D01*
X206535500Y-22161535D01*
X206570404Y-22119004D01*
X206612935Y-22084100D01*
X206661447Y-22058170D01*
X206714103Y-22042197D01*
X206774990Y-22036200D01*
X207575210Y-22036200D01*
X207636097Y-22042197D01*
X207636097Y-22042197D01*
G37*
M02*
