M48
;DRILL file {KiCad (5.0.1)-rc2} date 3/9/2019 12:44:07 AM
;FORMAT={-:-/ absolute / inch / decimal}
FMAT,2
INCH,TZ
T1C0.0118
T2C0.0157
T3C0.0276
T4C0.0394
T5C0.0400
T6C0.0433
%
G90
G05
M72
T1
X7.816Y-2.5402
X7.926Y-1.458
X8.004Y-1.39
X8.07Y-1.36
X8.1171Y-1.9166
X8.1375Y-1.941
X8.1787Y-1.9712
X8.2018Y-1.4429
X8.2232Y-1.9768
X8.3159Y-1.6388
X8.3206Y-2.3524
X8.3376Y-1.6768
X8.3922Y-1.6655
X8.405Y-1.6925
X8.4859Y-1.5276
X8.5522Y-1.3248
X8.5551Y-2.2795
X8.4105Y-2.3225
X8.4105Y-2.352
X8.4105Y-2.3815
X8.442Y-2.3225
X8.442Y-2.352
X8.442Y-2.3815
T2
X7.682Y-2.192
X7.7037Y-1.906
X7.7554Y-1.34
X7.7746Y-1.251
X7.7874Y-1.061
X7.826Y-2.096
X7.832Y-2.03
X7.8406Y-0.9331
X7.846Y-2.172
X7.85Y-1.166
X7.8549Y-1.3315
X7.876Y-1.4419
X7.8937Y-1.4961
X7.925Y-1.123
X7.943Y-1.3259
X7.9501Y-1.632
X7.954Y-2.31
X7.984Y-2.256
X8.Y-1.23
X8.Y-2.042
X8.0049Y-0.8957
X8.0187Y-1.5305
X8.034Y-2.376
X8.0996Y-1.51
X8.1Y-1.33
X8.1142Y-1.41
X8.15Y-0.98
X8.19Y-1.69
X8.1977Y-1.3831
X8.206Y-1.5522
X8.2126Y-0.9774
X8.2218Y-1.502
X8.25Y-2.53
X8.256Y-2.395
X8.256Y-2.395
X8.27Y-1.42
X8.2756Y-1.499
X8.2874Y-1.8979
X8.3149Y-2.234
X8.376Y-0.8927
X8.4035Y-1.3366
X8.4069Y-2.499
X8.4088Y-2.2448
X8.4325Y-1.715
X8.4553Y-1.479
X8.4817Y-1.5659
X8.5106Y-2.1976
X8.564Y-1.2844
X8.5659Y-1.1417
X8.5709Y-1.8278
X8.6299Y-2.0174
X8.6319Y-1.8278
X8.6476Y-1.1476
X8.6752Y-1.8278
X8.6772Y-1.9075
X8.7205Y-1.8268
X8.7205Y-1.9094
X8.7638Y-1.9104
X8.7717Y-1.8228
X8.7746Y-1.3858
X8.7815Y-2.0591
X8.7825Y-2.0236
X8.7835Y-1.9429
X8.7835Y-1.9803
X8.8159Y-1.8268
X8.8435Y-1.8543
X8.8681Y-1.8888
X8.8681Y-1.9321
X8.8681Y-1.9744
X8.8701Y-2.0541
X8.8858Y-1.6939
X8.8937Y-1.5984
T4
X7.7465Y-0.947
X7.9434Y-0.947
T5
X8.694Y-2.486
X8.794Y-2.486
X8.894Y-2.486
X7.796Y-1.704
X7.796Y-1.804
X7.796Y-1.904
T6
X7.7037Y-1.2866
X7.7037Y-1.3866
X7.7037Y-1.4866
X7.7037Y-1.5866
T3
X7.7479Y-2.2341G85X7.7676Y-2.2341
G05
X7.7479Y-2.5176G85X7.7676Y-2.5176
G05
X7.868Y-2.2343G85X7.868Y-2.254
G05
X7.868Y-2.4942G85X7.868Y-2.5138
G05
T0
M30
