G04 #@! TF.GenerationSoftware,KiCad,Pcbnew,(5.0.1)-rc2*
G04 #@! TF.CreationDate,2019-03-09T00:44:04-07:00*
G04 #@! TF.ProjectId,GPSLogger,4750534C6F676765722E6B696361645F,rev?*
G04 #@! TF.SameCoordinates,Original*
G04 #@! TF.FileFunction,Paste,Top*
G04 #@! TF.FilePolarity,Positive*
%FSLAX46Y46*%
G04 Gerber Fmt 4.6, Leading zero omitted, Abs format (unit mm)*
G04 Created by KiCad (PCBNEW (5.0.1)-rc2) date 3/9/2019 12:44:04 AM*
%MOMM*%
%LPD*%
G01*
G04 APERTURE LIST*
%ADD10C,0.100000*%
%ADD11C,0.975000*%
%ADD12R,0.700000X2.000000*%
%ADD13R,2.000000X0.700000*%
%ADD14R,2.000000X1.000000*%
%ADD15R,0.900000X0.900000*%
%ADD16R,0.680000X0.250000*%
%ADD17R,0.250000X0.680000*%
%ADD18R,2.000000X0.500000*%
%ADD19C,0.875000*%
%ADD20R,1.800000X0.800000*%
%ADD21R,1.600000X1.000000*%
%ADD22C,0.590000*%
%ADD23R,2.500000X1.430000*%
%ADD24R,2.250000X0.400000*%
%ADD25C,0.950000*%
%ADD26R,0.700000X0.250000*%
%ADD27R,1.650000X2.380000*%
%ADD28R,1.300000X1.800000*%
G04 APERTURE END LIST*
D10*
G04 #@! TO.C,C29*
G36*
X202712642Y-53851174D02*
X202736303Y-53854684D01*
X202759507Y-53860496D01*
X202782029Y-53868554D01*
X202803653Y-53878782D01*
X202824170Y-53891079D01*
X202843383Y-53905329D01*
X202861107Y-53921393D01*
X202877171Y-53939117D01*
X202891421Y-53958330D01*
X202903718Y-53978847D01*
X202913946Y-54000471D01*
X202922004Y-54022993D01*
X202927816Y-54046197D01*
X202931326Y-54069858D01*
X202932500Y-54093750D01*
X202932500Y-55006250D01*
X202931326Y-55030142D01*
X202927816Y-55053803D01*
X202922004Y-55077007D01*
X202913946Y-55099529D01*
X202903718Y-55121153D01*
X202891421Y-55141670D01*
X202877171Y-55160883D01*
X202861107Y-55178607D01*
X202843383Y-55194671D01*
X202824170Y-55208921D01*
X202803653Y-55221218D01*
X202782029Y-55231446D01*
X202759507Y-55239504D01*
X202736303Y-55245316D01*
X202712642Y-55248826D01*
X202688750Y-55250000D01*
X202201250Y-55250000D01*
X202177358Y-55248826D01*
X202153697Y-55245316D01*
X202130493Y-55239504D01*
X202107971Y-55231446D01*
X202086347Y-55221218D01*
X202065830Y-55208921D01*
X202046617Y-55194671D01*
X202028893Y-55178607D01*
X202012829Y-55160883D01*
X201998579Y-55141670D01*
X201986282Y-55121153D01*
X201976054Y-55099529D01*
X201967996Y-55077007D01*
X201962184Y-55053803D01*
X201958674Y-55030142D01*
X201957500Y-55006250D01*
X201957500Y-54093750D01*
X201958674Y-54069858D01*
X201962184Y-54046197D01*
X201967996Y-54022993D01*
X201976054Y-54000471D01*
X201986282Y-53978847D01*
X201998579Y-53958330D01*
X202012829Y-53939117D01*
X202028893Y-53921393D01*
X202046617Y-53905329D01*
X202065830Y-53891079D01*
X202086347Y-53878782D01*
X202107971Y-53868554D01*
X202130493Y-53860496D01*
X202153697Y-53854684D01*
X202177358Y-53851174D01*
X202201250Y-53850000D01*
X202688750Y-53850000D01*
X202712642Y-53851174D01*
X202712642Y-53851174D01*
G37*
D11*
X202445000Y-54550000D03*
D10*
G36*
X204587642Y-53851174D02*
X204611303Y-53854684D01*
X204634507Y-53860496D01*
X204657029Y-53868554D01*
X204678653Y-53878782D01*
X204699170Y-53891079D01*
X204718383Y-53905329D01*
X204736107Y-53921393D01*
X204752171Y-53939117D01*
X204766421Y-53958330D01*
X204778718Y-53978847D01*
X204788946Y-54000471D01*
X204797004Y-54022993D01*
X204802816Y-54046197D01*
X204806326Y-54069858D01*
X204807500Y-54093750D01*
X204807500Y-55006250D01*
X204806326Y-55030142D01*
X204802816Y-55053803D01*
X204797004Y-55077007D01*
X204788946Y-55099529D01*
X204778718Y-55121153D01*
X204766421Y-55141670D01*
X204752171Y-55160883D01*
X204736107Y-55178607D01*
X204718383Y-55194671D01*
X204699170Y-55208921D01*
X204678653Y-55221218D01*
X204657029Y-55231446D01*
X204634507Y-55239504D01*
X204611303Y-55245316D01*
X204587642Y-55248826D01*
X204563750Y-55250000D01*
X204076250Y-55250000D01*
X204052358Y-55248826D01*
X204028697Y-55245316D01*
X204005493Y-55239504D01*
X203982971Y-55231446D01*
X203961347Y-55221218D01*
X203940830Y-55208921D01*
X203921617Y-55194671D01*
X203903893Y-55178607D01*
X203887829Y-55160883D01*
X203873579Y-55141670D01*
X203861282Y-55121153D01*
X203851054Y-55099529D01*
X203842996Y-55077007D01*
X203837184Y-55053803D01*
X203833674Y-55030142D01*
X203832500Y-55006250D01*
X203832500Y-54093750D01*
X203833674Y-54069858D01*
X203837184Y-54046197D01*
X203842996Y-54022993D01*
X203851054Y-54000471D01*
X203861282Y-53978847D01*
X203873579Y-53958330D01*
X203887829Y-53939117D01*
X203903893Y-53921393D01*
X203921617Y-53905329D01*
X203940830Y-53891079D01*
X203961347Y-53878782D01*
X203982971Y-53868554D01*
X204005493Y-53860496D01*
X204028697Y-53854684D01*
X204052358Y-53851174D01*
X204076250Y-53850000D01*
X204563750Y-53850000D01*
X204587642Y-53851174D01*
X204587642Y-53851174D01*
G37*
D11*
X204320000Y-54550000D03*
G04 #@! TD*
D12*
G04 #@! TO.C,U1*
X219065000Y-37164800D03*
X220065000Y-37164800D03*
X221065000Y-37164800D03*
X222065000Y-37164800D03*
X218065000Y-37164800D03*
D13*
X224865000Y-36364800D03*
X224865000Y-35364800D03*
X224865000Y-34364800D03*
X224865000Y-33364800D03*
X224865000Y-32364800D03*
X224865000Y-31364800D03*
X224865000Y-30364800D03*
X224865000Y-29364800D03*
X224865000Y-28364800D03*
X224865000Y-27364800D03*
X215265000Y-25364800D03*
X215265000Y-26364800D03*
X215265000Y-27364800D03*
X215265000Y-28364800D03*
X215265000Y-29364800D03*
X215265000Y-30364800D03*
X215265000Y-31364800D03*
X215265000Y-32364800D03*
X215265000Y-33364800D03*
X215265000Y-34364800D03*
X215265000Y-35364800D03*
X215265000Y-36364800D03*
X224865000Y-26364800D03*
X224865000Y-25364800D03*
D14*
X215265000Y-24214800D03*
X224865000Y-24214800D03*
G04 #@! TD*
D10*
G04 #@! TO.C,C1*
G36*
X208023542Y-52457674D02*
X208047203Y-52461184D01*
X208070407Y-52466996D01*
X208092929Y-52475054D01*
X208114553Y-52485282D01*
X208135070Y-52497579D01*
X208154283Y-52511829D01*
X208172007Y-52527893D01*
X208188071Y-52545617D01*
X208202321Y-52564830D01*
X208214618Y-52585347D01*
X208224846Y-52606971D01*
X208232904Y-52629493D01*
X208238716Y-52652697D01*
X208242226Y-52676358D01*
X208243400Y-52700250D01*
X208243400Y-53187750D01*
X208242226Y-53211642D01*
X208238716Y-53235303D01*
X208232904Y-53258507D01*
X208224846Y-53281029D01*
X208214618Y-53302653D01*
X208202321Y-53323170D01*
X208188071Y-53342383D01*
X208172007Y-53360107D01*
X208154283Y-53376171D01*
X208135070Y-53390421D01*
X208114553Y-53402718D01*
X208092929Y-53412946D01*
X208070407Y-53421004D01*
X208047203Y-53426816D01*
X208023542Y-53430326D01*
X207999650Y-53431500D01*
X207087150Y-53431500D01*
X207063258Y-53430326D01*
X207039597Y-53426816D01*
X207016393Y-53421004D01*
X206993871Y-53412946D01*
X206972247Y-53402718D01*
X206951730Y-53390421D01*
X206932517Y-53376171D01*
X206914793Y-53360107D01*
X206898729Y-53342383D01*
X206884479Y-53323170D01*
X206872182Y-53302653D01*
X206861954Y-53281029D01*
X206853896Y-53258507D01*
X206848084Y-53235303D01*
X206844574Y-53211642D01*
X206843400Y-53187750D01*
X206843400Y-52700250D01*
X206844574Y-52676358D01*
X206848084Y-52652697D01*
X206853896Y-52629493D01*
X206861954Y-52606971D01*
X206872182Y-52585347D01*
X206884479Y-52564830D01*
X206898729Y-52545617D01*
X206914793Y-52527893D01*
X206932517Y-52511829D01*
X206951730Y-52497579D01*
X206972247Y-52485282D01*
X206993871Y-52475054D01*
X207016393Y-52466996D01*
X207039597Y-52461184D01*
X207063258Y-52457674D01*
X207087150Y-52456500D01*
X207999650Y-52456500D01*
X208023542Y-52457674D01*
X208023542Y-52457674D01*
G37*
D11*
X207543400Y-52944000D03*
D10*
G36*
X208023542Y-50582674D02*
X208047203Y-50586184D01*
X208070407Y-50591996D01*
X208092929Y-50600054D01*
X208114553Y-50610282D01*
X208135070Y-50622579D01*
X208154283Y-50636829D01*
X208172007Y-50652893D01*
X208188071Y-50670617D01*
X208202321Y-50689830D01*
X208214618Y-50710347D01*
X208224846Y-50731971D01*
X208232904Y-50754493D01*
X208238716Y-50777697D01*
X208242226Y-50801358D01*
X208243400Y-50825250D01*
X208243400Y-51312750D01*
X208242226Y-51336642D01*
X208238716Y-51360303D01*
X208232904Y-51383507D01*
X208224846Y-51406029D01*
X208214618Y-51427653D01*
X208202321Y-51448170D01*
X208188071Y-51467383D01*
X208172007Y-51485107D01*
X208154283Y-51501171D01*
X208135070Y-51515421D01*
X208114553Y-51527718D01*
X208092929Y-51537946D01*
X208070407Y-51546004D01*
X208047203Y-51551816D01*
X208023542Y-51555326D01*
X207999650Y-51556500D01*
X207087150Y-51556500D01*
X207063258Y-51555326D01*
X207039597Y-51551816D01*
X207016393Y-51546004D01*
X206993871Y-51537946D01*
X206972247Y-51527718D01*
X206951730Y-51515421D01*
X206932517Y-51501171D01*
X206914793Y-51485107D01*
X206898729Y-51467383D01*
X206884479Y-51448170D01*
X206872182Y-51427653D01*
X206861954Y-51406029D01*
X206853896Y-51383507D01*
X206848084Y-51360303D01*
X206844574Y-51336642D01*
X206843400Y-51312750D01*
X206843400Y-50825250D01*
X206844574Y-50801358D01*
X206848084Y-50777697D01*
X206853896Y-50754493D01*
X206861954Y-50731971D01*
X206872182Y-50710347D01*
X206884479Y-50689830D01*
X206898729Y-50670617D01*
X206914793Y-50652893D01*
X206932517Y-50636829D01*
X206951730Y-50622579D01*
X206972247Y-50610282D01*
X206993871Y-50600054D01*
X207016393Y-50591996D01*
X207039597Y-50586184D01*
X207063258Y-50582674D01*
X207087150Y-50581500D01*
X207999650Y-50581500D01*
X208023542Y-50582674D01*
X208023542Y-50582674D01*
G37*
D11*
X207543400Y-51069000D03*
G04 #@! TD*
D10*
G04 #@! TO.C,C7*
G36*
X206931342Y-40610874D02*
X206955003Y-40614384D01*
X206978207Y-40620196D01*
X207000729Y-40628254D01*
X207022353Y-40638482D01*
X207042870Y-40650779D01*
X207062083Y-40665029D01*
X207079807Y-40681093D01*
X207095871Y-40698817D01*
X207110121Y-40718030D01*
X207122418Y-40738547D01*
X207132646Y-40760171D01*
X207140704Y-40782693D01*
X207146516Y-40805897D01*
X207150026Y-40829558D01*
X207151200Y-40853450D01*
X207151200Y-41340950D01*
X207150026Y-41364842D01*
X207146516Y-41388503D01*
X207140704Y-41411707D01*
X207132646Y-41434229D01*
X207122418Y-41455853D01*
X207110121Y-41476370D01*
X207095871Y-41495583D01*
X207079807Y-41513307D01*
X207062083Y-41529371D01*
X207042870Y-41543621D01*
X207022353Y-41555918D01*
X207000729Y-41566146D01*
X206978207Y-41574204D01*
X206955003Y-41580016D01*
X206931342Y-41583526D01*
X206907450Y-41584700D01*
X205994950Y-41584700D01*
X205971058Y-41583526D01*
X205947397Y-41580016D01*
X205924193Y-41574204D01*
X205901671Y-41566146D01*
X205880047Y-41555918D01*
X205859530Y-41543621D01*
X205840317Y-41529371D01*
X205822593Y-41513307D01*
X205806529Y-41495583D01*
X205792279Y-41476370D01*
X205779982Y-41455853D01*
X205769754Y-41434229D01*
X205761696Y-41411707D01*
X205755884Y-41388503D01*
X205752374Y-41364842D01*
X205751200Y-41340950D01*
X205751200Y-40853450D01*
X205752374Y-40829558D01*
X205755884Y-40805897D01*
X205761696Y-40782693D01*
X205769754Y-40760171D01*
X205779982Y-40738547D01*
X205792279Y-40718030D01*
X205806529Y-40698817D01*
X205822593Y-40681093D01*
X205840317Y-40665029D01*
X205859530Y-40650779D01*
X205880047Y-40638482D01*
X205901671Y-40628254D01*
X205924193Y-40620196D01*
X205947397Y-40614384D01*
X205971058Y-40610874D01*
X205994950Y-40609700D01*
X206907450Y-40609700D01*
X206931342Y-40610874D01*
X206931342Y-40610874D01*
G37*
D11*
X206451200Y-41097200D03*
D10*
G36*
X206931342Y-42485874D02*
X206955003Y-42489384D01*
X206978207Y-42495196D01*
X207000729Y-42503254D01*
X207022353Y-42513482D01*
X207042870Y-42525779D01*
X207062083Y-42540029D01*
X207079807Y-42556093D01*
X207095871Y-42573817D01*
X207110121Y-42593030D01*
X207122418Y-42613547D01*
X207132646Y-42635171D01*
X207140704Y-42657693D01*
X207146516Y-42680897D01*
X207150026Y-42704558D01*
X207151200Y-42728450D01*
X207151200Y-43215950D01*
X207150026Y-43239842D01*
X207146516Y-43263503D01*
X207140704Y-43286707D01*
X207132646Y-43309229D01*
X207122418Y-43330853D01*
X207110121Y-43351370D01*
X207095871Y-43370583D01*
X207079807Y-43388307D01*
X207062083Y-43404371D01*
X207042870Y-43418621D01*
X207022353Y-43430918D01*
X207000729Y-43441146D01*
X206978207Y-43449204D01*
X206955003Y-43455016D01*
X206931342Y-43458526D01*
X206907450Y-43459700D01*
X205994950Y-43459700D01*
X205971058Y-43458526D01*
X205947397Y-43455016D01*
X205924193Y-43449204D01*
X205901671Y-43441146D01*
X205880047Y-43430918D01*
X205859530Y-43418621D01*
X205840317Y-43404371D01*
X205822593Y-43388307D01*
X205806529Y-43370583D01*
X205792279Y-43351370D01*
X205779982Y-43330853D01*
X205769754Y-43309229D01*
X205761696Y-43286707D01*
X205755884Y-43263503D01*
X205752374Y-43239842D01*
X205751200Y-43215950D01*
X205751200Y-42728450D01*
X205752374Y-42704558D01*
X205755884Y-42680897D01*
X205761696Y-42657693D01*
X205769754Y-42635171D01*
X205779982Y-42613547D01*
X205792279Y-42593030D01*
X205806529Y-42573817D01*
X205822593Y-42556093D01*
X205840317Y-42540029D01*
X205859530Y-42525779D01*
X205880047Y-42513482D01*
X205901671Y-42503254D01*
X205924193Y-42495196D01*
X205947397Y-42489384D01*
X205971058Y-42485874D01*
X205994950Y-42484700D01*
X206907450Y-42484700D01*
X206931342Y-42485874D01*
X206931342Y-42485874D01*
G37*
D11*
X206451200Y-42972200D03*
G04 #@! TD*
D10*
G04 #@! TO.C,C8*
G36*
X224905242Y-44055974D02*
X224928903Y-44059484D01*
X224952107Y-44065296D01*
X224974629Y-44073354D01*
X224996253Y-44083582D01*
X225016770Y-44095879D01*
X225035983Y-44110129D01*
X225053707Y-44126193D01*
X225069771Y-44143917D01*
X225084021Y-44163130D01*
X225096318Y-44183647D01*
X225106546Y-44205271D01*
X225114604Y-44227793D01*
X225120416Y-44250997D01*
X225123926Y-44274658D01*
X225125100Y-44298550D01*
X225125100Y-45211050D01*
X225123926Y-45234942D01*
X225120416Y-45258603D01*
X225114604Y-45281807D01*
X225106546Y-45304329D01*
X225096318Y-45325953D01*
X225084021Y-45346470D01*
X225069771Y-45365683D01*
X225053707Y-45383407D01*
X225035983Y-45399471D01*
X225016770Y-45413721D01*
X224996253Y-45426018D01*
X224974629Y-45436246D01*
X224952107Y-45444304D01*
X224928903Y-45450116D01*
X224905242Y-45453626D01*
X224881350Y-45454800D01*
X224393850Y-45454800D01*
X224369958Y-45453626D01*
X224346297Y-45450116D01*
X224323093Y-45444304D01*
X224300571Y-45436246D01*
X224278947Y-45426018D01*
X224258430Y-45413721D01*
X224239217Y-45399471D01*
X224221493Y-45383407D01*
X224205429Y-45365683D01*
X224191179Y-45346470D01*
X224178882Y-45325953D01*
X224168654Y-45304329D01*
X224160596Y-45281807D01*
X224154784Y-45258603D01*
X224151274Y-45234942D01*
X224150100Y-45211050D01*
X224150100Y-44298550D01*
X224151274Y-44274658D01*
X224154784Y-44250997D01*
X224160596Y-44227793D01*
X224168654Y-44205271D01*
X224178882Y-44183647D01*
X224191179Y-44163130D01*
X224205429Y-44143917D01*
X224221493Y-44126193D01*
X224239217Y-44110129D01*
X224258430Y-44095879D01*
X224278947Y-44083582D01*
X224300571Y-44073354D01*
X224323093Y-44065296D01*
X224346297Y-44059484D01*
X224369958Y-44055974D01*
X224393850Y-44054800D01*
X224881350Y-44054800D01*
X224905242Y-44055974D01*
X224905242Y-44055974D01*
G37*
D11*
X224637600Y-44754800D03*
D10*
G36*
X223030242Y-44055974D02*
X223053903Y-44059484D01*
X223077107Y-44065296D01*
X223099629Y-44073354D01*
X223121253Y-44083582D01*
X223141770Y-44095879D01*
X223160983Y-44110129D01*
X223178707Y-44126193D01*
X223194771Y-44143917D01*
X223209021Y-44163130D01*
X223221318Y-44183647D01*
X223231546Y-44205271D01*
X223239604Y-44227793D01*
X223245416Y-44250997D01*
X223248926Y-44274658D01*
X223250100Y-44298550D01*
X223250100Y-45211050D01*
X223248926Y-45234942D01*
X223245416Y-45258603D01*
X223239604Y-45281807D01*
X223231546Y-45304329D01*
X223221318Y-45325953D01*
X223209021Y-45346470D01*
X223194771Y-45365683D01*
X223178707Y-45383407D01*
X223160983Y-45399471D01*
X223141770Y-45413721D01*
X223121253Y-45426018D01*
X223099629Y-45436246D01*
X223077107Y-45444304D01*
X223053903Y-45450116D01*
X223030242Y-45453626D01*
X223006350Y-45454800D01*
X222518850Y-45454800D01*
X222494958Y-45453626D01*
X222471297Y-45450116D01*
X222448093Y-45444304D01*
X222425571Y-45436246D01*
X222403947Y-45426018D01*
X222383430Y-45413721D01*
X222364217Y-45399471D01*
X222346493Y-45383407D01*
X222330429Y-45365683D01*
X222316179Y-45346470D01*
X222303882Y-45325953D01*
X222293654Y-45304329D01*
X222285596Y-45281807D01*
X222279784Y-45258603D01*
X222276274Y-45234942D01*
X222275100Y-45211050D01*
X222275100Y-44298550D01*
X222276274Y-44274658D01*
X222279784Y-44250997D01*
X222285596Y-44227793D01*
X222293654Y-44205271D01*
X222303882Y-44183647D01*
X222316179Y-44163130D01*
X222330429Y-44143917D01*
X222346493Y-44126193D01*
X222364217Y-44110129D01*
X222383430Y-44095879D01*
X222403947Y-44083582D01*
X222425571Y-44073354D01*
X222448093Y-44065296D01*
X222471297Y-44059484D01*
X222494958Y-44055974D01*
X222518850Y-44054800D01*
X223006350Y-44054800D01*
X223030242Y-44055974D01*
X223030242Y-44055974D01*
G37*
D11*
X222762600Y-44754800D03*
G04 #@! TD*
D10*
G04 #@! TO.C,C9*
G36*
X220190068Y-43409900D02*
X220213729Y-43413410D01*
X220236933Y-43419222D01*
X220259455Y-43427280D01*
X220281079Y-43437508D01*
X220301596Y-43449805D01*
X220320809Y-43464055D01*
X220338533Y-43480119D01*
X220354597Y-43497843D01*
X220368847Y-43517056D01*
X220381144Y-43537573D01*
X220391372Y-43559197D01*
X220399430Y-43581719D01*
X220405242Y-43604923D01*
X220408752Y-43628584D01*
X220409926Y-43652476D01*
X220409926Y-44564976D01*
X220408752Y-44588868D01*
X220405242Y-44612529D01*
X220399430Y-44635733D01*
X220391372Y-44658255D01*
X220381144Y-44679879D01*
X220368847Y-44700396D01*
X220354597Y-44719609D01*
X220338533Y-44737333D01*
X220320809Y-44753397D01*
X220301596Y-44767647D01*
X220281079Y-44779944D01*
X220259455Y-44790172D01*
X220236933Y-44798230D01*
X220213729Y-44804042D01*
X220190068Y-44807552D01*
X220166176Y-44808726D01*
X219678676Y-44808726D01*
X219654784Y-44807552D01*
X219631123Y-44804042D01*
X219607919Y-44798230D01*
X219585397Y-44790172D01*
X219563773Y-44779944D01*
X219543256Y-44767647D01*
X219524043Y-44753397D01*
X219506319Y-44737333D01*
X219490255Y-44719609D01*
X219476005Y-44700396D01*
X219463708Y-44679879D01*
X219453480Y-44658255D01*
X219445422Y-44635733D01*
X219439610Y-44612529D01*
X219436100Y-44588868D01*
X219434926Y-44564976D01*
X219434926Y-43652476D01*
X219436100Y-43628584D01*
X219439610Y-43604923D01*
X219445422Y-43581719D01*
X219453480Y-43559197D01*
X219463708Y-43537573D01*
X219476005Y-43517056D01*
X219490255Y-43497843D01*
X219506319Y-43480119D01*
X219524043Y-43464055D01*
X219543256Y-43449805D01*
X219563773Y-43437508D01*
X219585397Y-43427280D01*
X219607919Y-43419222D01*
X219631123Y-43413410D01*
X219654784Y-43409900D01*
X219678676Y-43408726D01*
X220166176Y-43408726D01*
X220190068Y-43409900D01*
X220190068Y-43409900D01*
G37*
D11*
X219922426Y-44108726D03*
D10*
G36*
X218315068Y-43409900D02*
X218338729Y-43413410D01*
X218361933Y-43419222D01*
X218384455Y-43427280D01*
X218406079Y-43437508D01*
X218426596Y-43449805D01*
X218445809Y-43464055D01*
X218463533Y-43480119D01*
X218479597Y-43497843D01*
X218493847Y-43517056D01*
X218506144Y-43537573D01*
X218516372Y-43559197D01*
X218524430Y-43581719D01*
X218530242Y-43604923D01*
X218533752Y-43628584D01*
X218534926Y-43652476D01*
X218534926Y-44564976D01*
X218533752Y-44588868D01*
X218530242Y-44612529D01*
X218524430Y-44635733D01*
X218516372Y-44658255D01*
X218506144Y-44679879D01*
X218493847Y-44700396D01*
X218479597Y-44719609D01*
X218463533Y-44737333D01*
X218445809Y-44753397D01*
X218426596Y-44767647D01*
X218406079Y-44779944D01*
X218384455Y-44790172D01*
X218361933Y-44798230D01*
X218338729Y-44804042D01*
X218315068Y-44807552D01*
X218291176Y-44808726D01*
X217803676Y-44808726D01*
X217779784Y-44807552D01*
X217756123Y-44804042D01*
X217732919Y-44798230D01*
X217710397Y-44790172D01*
X217688773Y-44779944D01*
X217668256Y-44767647D01*
X217649043Y-44753397D01*
X217631319Y-44737333D01*
X217615255Y-44719609D01*
X217601005Y-44700396D01*
X217588708Y-44679879D01*
X217578480Y-44658255D01*
X217570422Y-44635733D01*
X217564610Y-44612529D01*
X217561100Y-44588868D01*
X217559926Y-44564976D01*
X217559926Y-43652476D01*
X217561100Y-43628584D01*
X217564610Y-43604923D01*
X217570422Y-43581719D01*
X217578480Y-43559197D01*
X217588708Y-43537573D01*
X217601005Y-43517056D01*
X217615255Y-43497843D01*
X217631319Y-43480119D01*
X217649043Y-43464055D01*
X217668256Y-43449805D01*
X217688773Y-43437508D01*
X217710397Y-43427280D01*
X217732919Y-43419222D01*
X217756123Y-43413410D01*
X217779784Y-43409900D01*
X217803676Y-43408726D01*
X218291176Y-43408726D01*
X218315068Y-43409900D01*
X218315068Y-43409900D01*
G37*
D11*
X218047426Y-44108726D03*
G04 #@! TD*
D10*
G04 #@! TO.C,C10*
G36*
X209129568Y-38940700D02*
X209153229Y-38944210D01*
X209176433Y-38950022D01*
X209198955Y-38958080D01*
X209220579Y-38968308D01*
X209241096Y-38980605D01*
X209260309Y-38994855D01*
X209278033Y-39010919D01*
X209294097Y-39028643D01*
X209308347Y-39047856D01*
X209320644Y-39068373D01*
X209330872Y-39089997D01*
X209338930Y-39112519D01*
X209344742Y-39135723D01*
X209348252Y-39159384D01*
X209349426Y-39183276D01*
X209349426Y-39670776D01*
X209348252Y-39694668D01*
X209344742Y-39718329D01*
X209338930Y-39741533D01*
X209330872Y-39764055D01*
X209320644Y-39785679D01*
X209308347Y-39806196D01*
X209294097Y-39825409D01*
X209278033Y-39843133D01*
X209260309Y-39859197D01*
X209241096Y-39873447D01*
X209220579Y-39885744D01*
X209198955Y-39895972D01*
X209176433Y-39904030D01*
X209153229Y-39909842D01*
X209129568Y-39913352D01*
X209105676Y-39914526D01*
X208193176Y-39914526D01*
X208169284Y-39913352D01*
X208145623Y-39909842D01*
X208122419Y-39904030D01*
X208099897Y-39895972D01*
X208078273Y-39885744D01*
X208057756Y-39873447D01*
X208038543Y-39859197D01*
X208020819Y-39843133D01*
X208004755Y-39825409D01*
X207990505Y-39806196D01*
X207978208Y-39785679D01*
X207967980Y-39764055D01*
X207959922Y-39741533D01*
X207954110Y-39718329D01*
X207950600Y-39694668D01*
X207949426Y-39670776D01*
X207949426Y-39183276D01*
X207950600Y-39159384D01*
X207954110Y-39135723D01*
X207959922Y-39112519D01*
X207967980Y-39089997D01*
X207978208Y-39068373D01*
X207990505Y-39047856D01*
X208004755Y-39028643D01*
X208020819Y-39010919D01*
X208038543Y-38994855D01*
X208057756Y-38980605D01*
X208078273Y-38968308D01*
X208099897Y-38958080D01*
X208122419Y-38950022D01*
X208145623Y-38944210D01*
X208169284Y-38940700D01*
X208193176Y-38939526D01*
X209105676Y-38939526D01*
X209129568Y-38940700D01*
X209129568Y-38940700D01*
G37*
D11*
X208649426Y-39427026D03*
D10*
G36*
X209129568Y-40815700D02*
X209153229Y-40819210D01*
X209176433Y-40825022D01*
X209198955Y-40833080D01*
X209220579Y-40843308D01*
X209241096Y-40855605D01*
X209260309Y-40869855D01*
X209278033Y-40885919D01*
X209294097Y-40903643D01*
X209308347Y-40922856D01*
X209320644Y-40943373D01*
X209330872Y-40964997D01*
X209338930Y-40987519D01*
X209344742Y-41010723D01*
X209348252Y-41034384D01*
X209349426Y-41058276D01*
X209349426Y-41545776D01*
X209348252Y-41569668D01*
X209344742Y-41593329D01*
X209338930Y-41616533D01*
X209330872Y-41639055D01*
X209320644Y-41660679D01*
X209308347Y-41681196D01*
X209294097Y-41700409D01*
X209278033Y-41718133D01*
X209260309Y-41734197D01*
X209241096Y-41748447D01*
X209220579Y-41760744D01*
X209198955Y-41770972D01*
X209176433Y-41779030D01*
X209153229Y-41784842D01*
X209129568Y-41788352D01*
X209105676Y-41789526D01*
X208193176Y-41789526D01*
X208169284Y-41788352D01*
X208145623Y-41784842D01*
X208122419Y-41779030D01*
X208099897Y-41770972D01*
X208078273Y-41760744D01*
X208057756Y-41748447D01*
X208038543Y-41734197D01*
X208020819Y-41718133D01*
X208004755Y-41700409D01*
X207990505Y-41681196D01*
X207978208Y-41660679D01*
X207967980Y-41639055D01*
X207959922Y-41616533D01*
X207954110Y-41593329D01*
X207950600Y-41569668D01*
X207949426Y-41545776D01*
X207949426Y-41058276D01*
X207950600Y-41034384D01*
X207954110Y-41010723D01*
X207959922Y-40987519D01*
X207967980Y-40964997D01*
X207978208Y-40943373D01*
X207990505Y-40922856D01*
X208004755Y-40903643D01*
X208020819Y-40885919D01*
X208038543Y-40869855D01*
X208057756Y-40855605D01*
X208078273Y-40843308D01*
X208099897Y-40833080D01*
X208122419Y-40825022D01*
X208145623Y-40819210D01*
X208169284Y-40815700D01*
X208193176Y-40814526D01*
X209105676Y-40814526D01*
X209129568Y-40815700D01*
X209129568Y-40815700D01*
G37*
D11*
X208649426Y-41302026D03*
G04 #@! TD*
D10*
G04 #@! TO.C,D1*
G36*
X211163842Y-22389774D02*
X211187503Y-22393284D01*
X211210707Y-22399096D01*
X211233229Y-22407154D01*
X211254853Y-22417382D01*
X211275370Y-22429679D01*
X211294583Y-22443929D01*
X211312307Y-22459993D01*
X211328371Y-22477717D01*
X211342621Y-22496930D01*
X211354918Y-22517447D01*
X211365146Y-22539071D01*
X211373204Y-22561593D01*
X211379016Y-22584797D01*
X211382526Y-22608458D01*
X211383700Y-22632350D01*
X211383700Y-23544850D01*
X211382526Y-23568742D01*
X211379016Y-23592403D01*
X211373204Y-23615607D01*
X211365146Y-23638129D01*
X211354918Y-23659753D01*
X211342621Y-23680270D01*
X211328371Y-23699483D01*
X211312307Y-23717207D01*
X211294583Y-23733271D01*
X211275370Y-23747521D01*
X211254853Y-23759818D01*
X211233229Y-23770046D01*
X211210707Y-23778104D01*
X211187503Y-23783916D01*
X211163842Y-23787426D01*
X211139950Y-23788600D01*
X210652450Y-23788600D01*
X210628558Y-23787426D01*
X210604897Y-23783916D01*
X210581693Y-23778104D01*
X210559171Y-23770046D01*
X210537547Y-23759818D01*
X210517030Y-23747521D01*
X210497817Y-23733271D01*
X210480093Y-23717207D01*
X210464029Y-23699483D01*
X210449779Y-23680270D01*
X210437482Y-23659753D01*
X210427254Y-23638129D01*
X210419196Y-23615607D01*
X210413384Y-23592403D01*
X210409874Y-23568742D01*
X210408700Y-23544850D01*
X210408700Y-22632350D01*
X210409874Y-22608458D01*
X210413384Y-22584797D01*
X210419196Y-22561593D01*
X210427254Y-22539071D01*
X210437482Y-22517447D01*
X210449779Y-22496930D01*
X210464029Y-22477717D01*
X210480093Y-22459993D01*
X210497817Y-22443929D01*
X210517030Y-22429679D01*
X210537547Y-22417382D01*
X210559171Y-22407154D01*
X210581693Y-22399096D01*
X210604897Y-22393284D01*
X210628558Y-22389774D01*
X210652450Y-22388600D01*
X211139950Y-22388600D01*
X211163842Y-22389774D01*
X211163842Y-22389774D01*
G37*
D11*
X210896200Y-23088600D03*
D10*
G36*
X209288842Y-22389774D02*
X209312503Y-22393284D01*
X209335707Y-22399096D01*
X209358229Y-22407154D01*
X209379853Y-22417382D01*
X209400370Y-22429679D01*
X209419583Y-22443929D01*
X209437307Y-22459993D01*
X209453371Y-22477717D01*
X209467621Y-22496930D01*
X209479918Y-22517447D01*
X209490146Y-22539071D01*
X209498204Y-22561593D01*
X209504016Y-22584797D01*
X209507526Y-22608458D01*
X209508700Y-22632350D01*
X209508700Y-23544850D01*
X209507526Y-23568742D01*
X209504016Y-23592403D01*
X209498204Y-23615607D01*
X209490146Y-23638129D01*
X209479918Y-23659753D01*
X209467621Y-23680270D01*
X209453371Y-23699483D01*
X209437307Y-23717207D01*
X209419583Y-23733271D01*
X209400370Y-23747521D01*
X209379853Y-23759818D01*
X209358229Y-23770046D01*
X209335707Y-23778104D01*
X209312503Y-23783916D01*
X209288842Y-23787426D01*
X209264950Y-23788600D01*
X208777450Y-23788600D01*
X208753558Y-23787426D01*
X208729897Y-23783916D01*
X208706693Y-23778104D01*
X208684171Y-23770046D01*
X208662547Y-23759818D01*
X208642030Y-23747521D01*
X208622817Y-23733271D01*
X208605093Y-23717207D01*
X208589029Y-23699483D01*
X208574779Y-23680270D01*
X208562482Y-23659753D01*
X208552254Y-23638129D01*
X208544196Y-23615607D01*
X208538384Y-23592403D01*
X208534874Y-23568742D01*
X208533700Y-23544850D01*
X208533700Y-22632350D01*
X208534874Y-22608458D01*
X208538384Y-22584797D01*
X208544196Y-22561593D01*
X208552254Y-22539071D01*
X208562482Y-22517447D01*
X208574779Y-22496930D01*
X208589029Y-22477717D01*
X208605093Y-22459993D01*
X208622817Y-22443929D01*
X208642030Y-22429679D01*
X208662547Y-22417382D01*
X208684171Y-22407154D01*
X208706693Y-22399096D01*
X208729897Y-22393284D01*
X208753558Y-22389774D01*
X208777450Y-22388600D01*
X209264950Y-22388600D01*
X209288842Y-22389774D01*
X209288842Y-22389774D01*
G37*
D11*
X209021200Y-23088600D03*
G04 #@! TD*
D10*
G04 #@! TO.C,D2*
G36*
X207442742Y-22237374D02*
X207466403Y-22240884D01*
X207489607Y-22246696D01*
X207512129Y-22254754D01*
X207533753Y-22264982D01*
X207554270Y-22277279D01*
X207573483Y-22291529D01*
X207591207Y-22307593D01*
X207607271Y-22325317D01*
X207621521Y-22344530D01*
X207633818Y-22365047D01*
X207644046Y-22386671D01*
X207652104Y-22409193D01*
X207657916Y-22432397D01*
X207661426Y-22456058D01*
X207662600Y-22479950D01*
X207662600Y-23392450D01*
X207661426Y-23416342D01*
X207657916Y-23440003D01*
X207652104Y-23463207D01*
X207644046Y-23485729D01*
X207633818Y-23507353D01*
X207621521Y-23527870D01*
X207607271Y-23547083D01*
X207591207Y-23564807D01*
X207573483Y-23580871D01*
X207554270Y-23595121D01*
X207533753Y-23607418D01*
X207512129Y-23617646D01*
X207489607Y-23625704D01*
X207466403Y-23631516D01*
X207442742Y-23635026D01*
X207418850Y-23636200D01*
X206931350Y-23636200D01*
X206907458Y-23635026D01*
X206883797Y-23631516D01*
X206860593Y-23625704D01*
X206838071Y-23617646D01*
X206816447Y-23607418D01*
X206795930Y-23595121D01*
X206776717Y-23580871D01*
X206758993Y-23564807D01*
X206742929Y-23547083D01*
X206728679Y-23527870D01*
X206716382Y-23507353D01*
X206706154Y-23485729D01*
X206698096Y-23463207D01*
X206692284Y-23440003D01*
X206688774Y-23416342D01*
X206687600Y-23392450D01*
X206687600Y-22479950D01*
X206688774Y-22456058D01*
X206692284Y-22432397D01*
X206698096Y-22409193D01*
X206706154Y-22386671D01*
X206716382Y-22365047D01*
X206728679Y-22344530D01*
X206742929Y-22325317D01*
X206758993Y-22307593D01*
X206776717Y-22291529D01*
X206795930Y-22277279D01*
X206816447Y-22264982D01*
X206838071Y-22254754D01*
X206860593Y-22246696D01*
X206883797Y-22240884D01*
X206907458Y-22237374D01*
X206931350Y-22236200D01*
X207418850Y-22236200D01*
X207442742Y-22237374D01*
X207442742Y-22237374D01*
G37*
D11*
X207175100Y-22936200D03*
D10*
G36*
X205567742Y-22237374D02*
X205591403Y-22240884D01*
X205614607Y-22246696D01*
X205637129Y-22254754D01*
X205658753Y-22264982D01*
X205679270Y-22277279D01*
X205698483Y-22291529D01*
X205716207Y-22307593D01*
X205732271Y-22325317D01*
X205746521Y-22344530D01*
X205758818Y-22365047D01*
X205769046Y-22386671D01*
X205777104Y-22409193D01*
X205782916Y-22432397D01*
X205786426Y-22456058D01*
X205787600Y-22479950D01*
X205787600Y-23392450D01*
X205786426Y-23416342D01*
X205782916Y-23440003D01*
X205777104Y-23463207D01*
X205769046Y-23485729D01*
X205758818Y-23507353D01*
X205746521Y-23527870D01*
X205732271Y-23547083D01*
X205716207Y-23564807D01*
X205698483Y-23580871D01*
X205679270Y-23595121D01*
X205658753Y-23607418D01*
X205637129Y-23617646D01*
X205614607Y-23625704D01*
X205591403Y-23631516D01*
X205567742Y-23635026D01*
X205543850Y-23636200D01*
X205056350Y-23636200D01*
X205032458Y-23635026D01*
X205008797Y-23631516D01*
X204985593Y-23625704D01*
X204963071Y-23617646D01*
X204941447Y-23607418D01*
X204920930Y-23595121D01*
X204901717Y-23580871D01*
X204883993Y-23564807D01*
X204867929Y-23547083D01*
X204853679Y-23527870D01*
X204841382Y-23507353D01*
X204831154Y-23485729D01*
X204823096Y-23463207D01*
X204817284Y-23440003D01*
X204813774Y-23416342D01*
X204812600Y-23392450D01*
X204812600Y-22479950D01*
X204813774Y-22456058D01*
X204817284Y-22432397D01*
X204823096Y-22409193D01*
X204831154Y-22386671D01*
X204841382Y-22365047D01*
X204853679Y-22344530D01*
X204867929Y-22325317D01*
X204883993Y-22307593D01*
X204901717Y-22291529D01*
X204920930Y-22277279D01*
X204941447Y-22264982D01*
X204963071Y-22254754D01*
X204985593Y-22246696D01*
X205008797Y-22240884D01*
X205032458Y-22237374D01*
X205056350Y-22236200D01*
X205543850Y-22236200D01*
X205567742Y-22237374D01*
X205567742Y-22237374D01*
G37*
D11*
X205300100Y-22936200D03*
G04 #@! TD*
D10*
G04 #@! TO.C,D5*
G36*
X196669742Y-28139474D02*
X196693403Y-28142984D01*
X196716607Y-28148796D01*
X196739129Y-28156854D01*
X196760753Y-28167082D01*
X196781270Y-28179379D01*
X196800483Y-28193629D01*
X196818207Y-28209693D01*
X196834271Y-28227417D01*
X196848521Y-28246630D01*
X196860818Y-28267147D01*
X196871046Y-28288771D01*
X196879104Y-28311293D01*
X196884916Y-28334497D01*
X196888426Y-28358158D01*
X196889600Y-28382050D01*
X196889600Y-28869550D01*
X196888426Y-28893442D01*
X196884916Y-28917103D01*
X196879104Y-28940307D01*
X196871046Y-28962829D01*
X196860818Y-28984453D01*
X196848521Y-29004970D01*
X196834271Y-29024183D01*
X196818207Y-29041907D01*
X196800483Y-29057971D01*
X196781270Y-29072221D01*
X196760753Y-29084518D01*
X196739129Y-29094746D01*
X196716607Y-29102804D01*
X196693403Y-29108616D01*
X196669742Y-29112126D01*
X196645850Y-29113300D01*
X195733350Y-29113300D01*
X195709458Y-29112126D01*
X195685797Y-29108616D01*
X195662593Y-29102804D01*
X195640071Y-29094746D01*
X195618447Y-29084518D01*
X195597930Y-29072221D01*
X195578717Y-29057971D01*
X195560993Y-29041907D01*
X195544929Y-29024183D01*
X195530679Y-29004970D01*
X195518382Y-28984453D01*
X195508154Y-28962829D01*
X195500096Y-28940307D01*
X195494284Y-28917103D01*
X195490774Y-28893442D01*
X195489600Y-28869550D01*
X195489600Y-28382050D01*
X195490774Y-28358158D01*
X195494284Y-28334497D01*
X195500096Y-28311293D01*
X195508154Y-28288771D01*
X195518382Y-28267147D01*
X195530679Y-28246630D01*
X195544929Y-28227417D01*
X195560993Y-28209693D01*
X195578717Y-28193629D01*
X195597930Y-28179379D01*
X195618447Y-28167082D01*
X195640071Y-28156854D01*
X195662593Y-28148796D01*
X195685797Y-28142984D01*
X195709458Y-28139474D01*
X195733350Y-28138300D01*
X196645850Y-28138300D01*
X196669742Y-28139474D01*
X196669742Y-28139474D01*
G37*
D11*
X196189600Y-28625800D03*
D10*
G36*
X196669742Y-30014474D02*
X196693403Y-30017984D01*
X196716607Y-30023796D01*
X196739129Y-30031854D01*
X196760753Y-30042082D01*
X196781270Y-30054379D01*
X196800483Y-30068629D01*
X196818207Y-30084693D01*
X196834271Y-30102417D01*
X196848521Y-30121630D01*
X196860818Y-30142147D01*
X196871046Y-30163771D01*
X196879104Y-30186293D01*
X196884916Y-30209497D01*
X196888426Y-30233158D01*
X196889600Y-30257050D01*
X196889600Y-30744550D01*
X196888426Y-30768442D01*
X196884916Y-30792103D01*
X196879104Y-30815307D01*
X196871046Y-30837829D01*
X196860818Y-30859453D01*
X196848521Y-30879970D01*
X196834271Y-30899183D01*
X196818207Y-30916907D01*
X196800483Y-30932971D01*
X196781270Y-30947221D01*
X196760753Y-30959518D01*
X196739129Y-30969746D01*
X196716607Y-30977804D01*
X196693403Y-30983616D01*
X196669742Y-30987126D01*
X196645850Y-30988300D01*
X195733350Y-30988300D01*
X195709458Y-30987126D01*
X195685797Y-30983616D01*
X195662593Y-30977804D01*
X195640071Y-30969746D01*
X195618447Y-30959518D01*
X195597930Y-30947221D01*
X195578717Y-30932971D01*
X195560993Y-30916907D01*
X195544929Y-30899183D01*
X195530679Y-30879970D01*
X195518382Y-30859453D01*
X195508154Y-30837829D01*
X195500096Y-30815307D01*
X195494284Y-30792103D01*
X195490774Y-30768442D01*
X195489600Y-30744550D01*
X195489600Y-30257050D01*
X195490774Y-30233158D01*
X195494284Y-30209497D01*
X195500096Y-30186293D01*
X195508154Y-30163771D01*
X195518382Y-30142147D01*
X195530679Y-30121630D01*
X195544929Y-30102417D01*
X195560993Y-30084693D01*
X195578717Y-30068629D01*
X195597930Y-30054379D01*
X195618447Y-30042082D01*
X195640071Y-30031854D01*
X195662593Y-30023796D01*
X195685797Y-30017984D01*
X195709458Y-30014474D01*
X195733350Y-30013300D01*
X196645850Y-30013300D01*
X196669742Y-30014474D01*
X196669742Y-30014474D01*
G37*
D11*
X196189600Y-30500800D03*
G04 #@! TD*
D15*
G04 #@! TO.C,U2*
X208638926Y-44720526D03*
X208638926Y-45870526D03*
X208638926Y-47020526D03*
X208638926Y-48170526D03*
X209788926Y-44720526D03*
X209788926Y-45870526D03*
X209788926Y-47020526D03*
X209788926Y-48170526D03*
X210938926Y-44720526D03*
X210938926Y-45870526D03*
X210938926Y-47020526D03*
X210938926Y-48170526D03*
X212088926Y-44720526D03*
X212088926Y-45870526D03*
X212088926Y-47020526D03*
X212088926Y-48170526D03*
D16*
X207503926Y-44245526D03*
X207503926Y-44645526D03*
X207503926Y-45045526D03*
X207503926Y-45445526D03*
X207503926Y-45845526D03*
X207503926Y-46245526D03*
X207503926Y-46645526D03*
X207503926Y-47045526D03*
X207503926Y-47445526D03*
X207503926Y-47845526D03*
X207503926Y-48245526D03*
X207503926Y-48645526D03*
D17*
X208163926Y-49305526D03*
X208563926Y-49305526D03*
X208963926Y-49305526D03*
X209363926Y-49305526D03*
X209763926Y-49305526D03*
X210163926Y-49305526D03*
X210563926Y-49305526D03*
X210963926Y-49305526D03*
X211363926Y-49305526D03*
X211763926Y-49305526D03*
X212163926Y-49305526D03*
X212563926Y-49305526D03*
D16*
X213223926Y-48645526D03*
X213223926Y-48245526D03*
X213223926Y-47845526D03*
X213223926Y-47445526D03*
X213223926Y-47045526D03*
X213223926Y-46645526D03*
X213223926Y-46245526D03*
X213223926Y-45845526D03*
X213223926Y-45445526D03*
X213223926Y-45045526D03*
X213223926Y-44645526D03*
X213223926Y-44245526D03*
D17*
X212563926Y-43585526D03*
X212163926Y-43585526D03*
X211763926Y-43585526D03*
X211363926Y-43585526D03*
X210963926Y-43585526D03*
X210563926Y-43585526D03*
X210163926Y-43585526D03*
X209763926Y-43585526D03*
X209363926Y-43585526D03*
X208963926Y-43585526D03*
X208563926Y-43585526D03*
X208163926Y-43585526D03*
G04 #@! TD*
D18*
G04 #@! TO.C,J2*
X214149526Y-50947926D03*
X217449526Y-50947926D03*
X214149526Y-51947926D03*
X217449526Y-51947926D03*
X214149526Y-52947926D03*
X217449526Y-52947926D03*
X214149526Y-53947926D03*
X217449526Y-53947926D03*
X214149526Y-54947926D03*
X217449526Y-54947926D03*
G04 #@! TD*
D10*
G04 #@! TO.C,C25*
G36*
X204849291Y-40965553D02*
X204870526Y-40968703D01*
X204891350Y-40973919D01*
X204911562Y-40981151D01*
X204930968Y-40990330D01*
X204949381Y-41001366D01*
X204966624Y-41014154D01*
X204982530Y-41028570D01*
X204996946Y-41044476D01*
X205009734Y-41061719D01*
X205020770Y-41080132D01*
X205029949Y-41099538D01*
X205037181Y-41119750D01*
X205042397Y-41140574D01*
X205045547Y-41161809D01*
X205046600Y-41183250D01*
X205046600Y-41620750D01*
X205045547Y-41642191D01*
X205042397Y-41663426D01*
X205037181Y-41684250D01*
X205029949Y-41704462D01*
X205020770Y-41723868D01*
X205009734Y-41742281D01*
X204996946Y-41759524D01*
X204982530Y-41775430D01*
X204966624Y-41789846D01*
X204949381Y-41802634D01*
X204930968Y-41813670D01*
X204911562Y-41822849D01*
X204891350Y-41830081D01*
X204870526Y-41835297D01*
X204849291Y-41838447D01*
X204827850Y-41839500D01*
X204315350Y-41839500D01*
X204293909Y-41838447D01*
X204272674Y-41835297D01*
X204251850Y-41830081D01*
X204231638Y-41822849D01*
X204212232Y-41813670D01*
X204193819Y-41802634D01*
X204176576Y-41789846D01*
X204160670Y-41775430D01*
X204146254Y-41759524D01*
X204133466Y-41742281D01*
X204122430Y-41723868D01*
X204113251Y-41704462D01*
X204106019Y-41684250D01*
X204100803Y-41663426D01*
X204097653Y-41642191D01*
X204096600Y-41620750D01*
X204096600Y-41183250D01*
X204097653Y-41161809D01*
X204100803Y-41140574D01*
X204106019Y-41119750D01*
X204113251Y-41099538D01*
X204122430Y-41080132D01*
X204133466Y-41061719D01*
X204146254Y-41044476D01*
X204160670Y-41028570D01*
X204176576Y-41014154D01*
X204193819Y-41001366D01*
X204212232Y-40990330D01*
X204231638Y-40981151D01*
X204251850Y-40973919D01*
X204272674Y-40968703D01*
X204293909Y-40965553D01*
X204315350Y-40964500D01*
X204827850Y-40964500D01*
X204849291Y-40965553D01*
X204849291Y-40965553D01*
G37*
D19*
X204571600Y-41402000D03*
D10*
G36*
X204849291Y-42540553D02*
X204870526Y-42543703D01*
X204891350Y-42548919D01*
X204911562Y-42556151D01*
X204930968Y-42565330D01*
X204949381Y-42576366D01*
X204966624Y-42589154D01*
X204982530Y-42603570D01*
X204996946Y-42619476D01*
X205009734Y-42636719D01*
X205020770Y-42655132D01*
X205029949Y-42674538D01*
X205037181Y-42694750D01*
X205042397Y-42715574D01*
X205045547Y-42736809D01*
X205046600Y-42758250D01*
X205046600Y-43195750D01*
X205045547Y-43217191D01*
X205042397Y-43238426D01*
X205037181Y-43259250D01*
X205029949Y-43279462D01*
X205020770Y-43298868D01*
X205009734Y-43317281D01*
X204996946Y-43334524D01*
X204982530Y-43350430D01*
X204966624Y-43364846D01*
X204949381Y-43377634D01*
X204930968Y-43388670D01*
X204911562Y-43397849D01*
X204891350Y-43405081D01*
X204870526Y-43410297D01*
X204849291Y-43413447D01*
X204827850Y-43414500D01*
X204315350Y-43414500D01*
X204293909Y-43413447D01*
X204272674Y-43410297D01*
X204251850Y-43405081D01*
X204231638Y-43397849D01*
X204212232Y-43388670D01*
X204193819Y-43377634D01*
X204176576Y-43364846D01*
X204160670Y-43350430D01*
X204146254Y-43334524D01*
X204133466Y-43317281D01*
X204122430Y-43298868D01*
X204113251Y-43279462D01*
X204106019Y-43259250D01*
X204100803Y-43238426D01*
X204097653Y-43217191D01*
X204096600Y-43195750D01*
X204096600Y-42758250D01*
X204097653Y-42736809D01*
X204100803Y-42715574D01*
X204106019Y-42694750D01*
X204113251Y-42674538D01*
X204122430Y-42655132D01*
X204133466Y-42636719D01*
X204146254Y-42619476D01*
X204160670Y-42603570D01*
X204176576Y-42589154D01*
X204193819Y-42576366D01*
X204212232Y-42565330D01*
X204231638Y-42556151D01*
X204251850Y-42548919D01*
X204272674Y-42543703D01*
X204293909Y-42540553D01*
X204315350Y-42539500D01*
X204827850Y-42539500D01*
X204849291Y-42540553D01*
X204849291Y-42540553D01*
G37*
D19*
X204571600Y-42977000D03*
G04 #@! TD*
D10*
G04 #@! TO.C,C26*
G36*
X202715691Y-41067153D02*
X202736926Y-41070303D01*
X202757750Y-41075519D01*
X202777962Y-41082751D01*
X202797368Y-41091930D01*
X202815781Y-41102966D01*
X202833024Y-41115754D01*
X202848930Y-41130170D01*
X202863346Y-41146076D01*
X202876134Y-41163319D01*
X202887170Y-41181732D01*
X202896349Y-41201138D01*
X202903581Y-41221350D01*
X202908797Y-41242174D01*
X202911947Y-41263409D01*
X202913000Y-41284850D01*
X202913000Y-41722350D01*
X202911947Y-41743791D01*
X202908797Y-41765026D01*
X202903581Y-41785850D01*
X202896349Y-41806062D01*
X202887170Y-41825468D01*
X202876134Y-41843881D01*
X202863346Y-41861124D01*
X202848930Y-41877030D01*
X202833024Y-41891446D01*
X202815781Y-41904234D01*
X202797368Y-41915270D01*
X202777962Y-41924449D01*
X202757750Y-41931681D01*
X202736926Y-41936897D01*
X202715691Y-41940047D01*
X202694250Y-41941100D01*
X202181750Y-41941100D01*
X202160309Y-41940047D01*
X202139074Y-41936897D01*
X202118250Y-41931681D01*
X202098038Y-41924449D01*
X202078632Y-41915270D01*
X202060219Y-41904234D01*
X202042976Y-41891446D01*
X202027070Y-41877030D01*
X202012654Y-41861124D01*
X201999866Y-41843881D01*
X201988830Y-41825468D01*
X201979651Y-41806062D01*
X201972419Y-41785850D01*
X201967203Y-41765026D01*
X201964053Y-41743791D01*
X201963000Y-41722350D01*
X201963000Y-41284850D01*
X201964053Y-41263409D01*
X201967203Y-41242174D01*
X201972419Y-41221350D01*
X201979651Y-41201138D01*
X201988830Y-41181732D01*
X201999866Y-41163319D01*
X202012654Y-41146076D01*
X202027070Y-41130170D01*
X202042976Y-41115754D01*
X202060219Y-41102966D01*
X202078632Y-41091930D01*
X202098038Y-41082751D01*
X202118250Y-41075519D01*
X202139074Y-41070303D01*
X202160309Y-41067153D01*
X202181750Y-41066100D01*
X202694250Y-41066100D01*
X202715691Y-41067153D01*
X202715691Y-41067153D01*
G37*
D19*
X202438000Y-41503600D03*
D10*
G36*
X202715691Y-42642153D02*
X202736926Y-42645303D01*
X202757750Y-42650519D01*
X202777962Y-42657751D01*
X202797368Y-42666930D01*
X202815781Y-42677966D01*
X202833024Y-42690754D01*
X202848930Y-42705170D01*
X202863346Y-42721076D01*
X202876134Y-42738319D01*
X202887170Y-42756732D01*
X202896349Y-42776138D01*
X202903581Y-42796350D01*
X202908797Y-42817174D01*
X202911947Y-42838409D01*
X202913000Y-42859850D01*
X202913000Y-43297350D01*
X202911947Y-43318791D01*
X202908797Y-43340026D01*
X202903581Y-43360850D01*
X202896349Y-43381062D01*
X202887170Y-43400468D01*
X202876134Y-43418881D01*
X202863346Y-43436124D01*
X202848930Y-43452030D01*
X202833024Y-43466446D01*
X202815781Y-43479234D01*
X202797368Y-43490270D01*
X202777962Y-43499449D01*
X202757750Y-43506681D01*
X202736926Y-43511897D01*
X202715691Y-43515047D01*
X202694250Y-43516100D01*
X202181750Y-43516100D01*
X202160309Y-43515047D01*
X202139074Y-43511897D01*
X202118250Y-43506681D01*
X202098038Y-43499449D01*
X202078632Y-43490270D01*
X202060219Y-43479234D01*
X202042976Y-43466446D01*
X202027070Y-43452030D01*
X202012654Y-43436124D01*
X201999866Y-43418881D01*
X201988830Y-43400468D01*
X201979651Y-43381062D01*
X201972419Y-43360850D01*
X201967203Y-43340026D01*
X201964053Y-43318791D01*
X201963000Y-43297350D01*
X201963000Y-42859850D01*
X201964053Y-42838409D01*
X201967203Y-42817174D01*
X201972419Y-42796350D01*
X201979651Y-42776138D01*
X201988830Y-42756732D01*
X201999866Y-42738319D01*
X202012654Y-42721076D01*
X202027070Y-42705170D01*
X202042976Y-42690754D01*
X202060219Y-42677966D01*
X202078632Y-42666930D01*
X202098038Y-42657751D01*
X202118250Y-42650519D01*
X202139074Y-42645303D01*
X202160309Y-42642153D01*
X202181750Y-42641100D01*
X202694250Y-42641100D01*
X202715691Y-42642153D01*
X202715691Y-42642153D01*
G37*
D19*
X202438000Y-43078600D03*
G04 #@! TD*
D10*
G04 #@! TO.C,R2*
G36*
X209751891Y-25446753D02*
X209773126Y-25449903D01*
X209793950Y-25455119D01*
X209814162Y-25462351D01*
X209833568Y-25471530D01*
X209851981Y-25482566D01*
X209869224Y-25495354D01*
X209885130Y-25509770D01*
X209899546Y-25525676D01*
X209912334Y-25542919D01*
X209923370Y-25561332D01*
X209932549Y-25580738D01*
X209939781Y-25600950D01*
X209944997Y-25621774D01*
X209948147Y-25643009D01*
X209949200Y-25664450D01*
X209949200Y-26176950D01*
X209948147Y-26198391D01*
X209944997Y-26219626D01*
X209939781Y-26240450D01*
X209932549Y-26260662D01*
X209923370Y-26280068D01*
X209912334Y-26298481D01*
X209899546Y-26315724D01*
X209885130Y-26331630D01*
X209869224Y-26346046D01*
X209851981Y-26358834D01*
X209833568Y-26369870D01*
X209814162Y-26379049D01*
X209793950Y-26386281D01*
X209773126Y-26391497D01*
X209751891Y-26394647D01*
X209730450Y-26395700D01*
X209292950Y-26395700D01*
X209271509Y-26394647D01*
X209250274Y-26391497D01*
X209229450Y-26386281D01*
X209209238Y-26379049D01*
X209189832Y-26369870D01*
X209171419Y-26358834D01*
X209154176Y-26346046D01*
X209138270Y-26331630D01*
X209123854Y-26315724D01*
X209111066Y-26298481D01*
X209100030Y-26280068D01*
X209090851Y-26260662D01*
X209083619Y-26240450D01*
X209078403Y-26219626D01*
X209075253Y-26198391D01*
X209074200Y-26176950D01*
X209074200Y-25664450D01*
X209075253Y-25643009D01*
X209078403Y-25621774D01*
X209083619Y-25600950D01*
X209090851Y-25580738D01*
X209100030Y-25561332D01*
X209111066Y-25542919D01*
X209123854Y-25525676D01*
X209138270Y-25509770D01*
X209154176Y-25495354D01*
X209171419Y-25482566D01*
X209189832Y-25471530D01*
X209209238Y-25462351D01*
X209229450Y-25455119D01*
X209250274Y-25449903D01*
X209271509Y-25446753D01*
X209292950Y-25445700D01*
X209730450Y-25445700D01*
X209751891Y-25446753D01*
X209751891Y-25446753D01*
G37*
D19*
X209511700Y-25920700D03*
D10*
G36*
X211326891Y-25446753D02*
X211348126Y-25449903D01*
X211368950Y-25455119D01*
X211389162Y-25462351D01*
X211408568Y-25471530D01*
X211426981Y-25482566D01*
X211444224Y-25495354D01*
X211460130Y-25509770D01*
X211474546Y-25525676D01*
X211487334Y-25542919D01*
X211498370Y-25561332D01*
X211507549Y-25580738D01*
X211514781Y-25600950D01*
X211519997Y-25621774D01*
X211523147Y-25643009D01*
X211524200Y-25664450D01*
X211524200Y-26176950D01*
X211523147Y-26198391D01*
X211519997Y-26219626D01*
X211514781Y-26240450D01*
X211507549Y-26260662D01*
X211498370Y-26280068D01*
X211487334Y-26298481D01*
X211474546Y-26315724D01*
X211460130Y-26331630D01*
X211444224Y-26346046D01*
X211426981Y-26358834D01*
X211408568Y-26369870D01*
X211389162Y-26379049D01*
X211368950Y-26386281D01*
X211348126Y-26391497D01*
X211326891Y-26394647D01*
X211305450Y-26395700D01*
X210867950Y-26395700D01*
X210846509Y-26394647D01*
X210825274Y-26391497D01*
X210804450Y-26386281D01*
X210784238Y-26379049D01*
X210764832Y-26369870D01*
X210746419Y-26358834D01*
X210729176Y-26346046D01*
X210713270Y-26331630D01*
X210698854Y-26315724D01*
X210686066Y-26298481D01*
X210675030Y-26280068D01*
X210665851Y-26260662D01*
X210658619Y-26240450D01*
X210653403Y-26219626D01*
X210650253Y-26198391D01*
X210649200Y-26176950D01*
X210649200Y-25664450D01*
X210650253Y-25643009D01*
X210653403Y-25621774D01*
X210658619Y-25600950D01*
X210665851Y-25580738D01*
X210675030Y-25561332D01*
X210686066Y-25542919D01*
X210698854Y-25525676D01*
X210713270Y-25509770D01*
X210729176Y-25495354D01*
X210746419Y-25482566D01*
X210764832Y-25471530D01*
X210784238Y-25462351D01*
X210804450Y-25455119D01*
X210825274Y-25449903D01*
X210846509Y-25446753D01*
X210867950Y-25445700D01*
X211305450Y-25445700D01*
X211326891Y-25446753D01*
X211326891Y-25446753D01*
G37*
D19*
X211086700Y-25920700D03*
G04 #@! TD*
D10*
G04 #@! TO.C,R3*
G36*
X207923291Y-25903953D02*
X207944526Y-25907103D01*
X207965350Y-25912319D01*
X207985562Y-25919551D01*
X208004968Y-25928730D01*
X208023381Y-25939766D01*
X208040624Y-25952554D01*
X208056530Y-25966970D01*
X208070946Y-25982876D01*
X208083734Y-26000119D01*
X208094770Y-26018532D01*
X208103949Y-26037938D01*
X208111181Y-26058150D01*
X208116397Y-26078974D01*
X208119547Y-26100209D01*
X208120600Y-26121650D01*
X208120600Y-26634150D01*
X208119547Y-26655591D01*
X208116397Y-26676826D01*
X208111181Y-26697650D01*
X208103949Y-26717862D01*
X208094770Y-26737268D01*
X208083734Y-26755681D01*
X208070946Y-26772924D01*
X208056530Y-26788830D01*
X208040624Y-26803246D01*
X208023381Y-26816034D01*
X208004968Y-26827070D01*
X207985562Y-26836249D01*
X207965350Y-26843481D01*
X207944526Y-26848697D01*
X207923291Y-26851847D01*
X207901850Y-26852900D01*
X207464350Y-26852900D01*
X207442909Y-26851847D01*
X207421674Y-26848697D01*
X207400850Y-26843481D01*
X207380638Y-26836249D01*
X207361232Y-26827070D01*
X207342819Y-26816034D01*
X207325576Y-26803246D01*
X207309670Y-26788830D01*
X207295254Y-26772924D01*
X207282466Y-26755681D01*
X207271430Y-26737268D01*
X207262251Y-26717862D01*
X207255019Y-26697650D01*
X207249803Y-26676826D01*
X207246653Y-26655591D01*
X207245600Y-26634150D01*
X207245600Y-26121650D01*
X207246653Y-26100209D01*
X207249803Y-26078974D01*
X207255019Y-26058150D01*
X207262251Y-26037938D01*
X207271430Y-26018532D01*
X207282466Y-26000119D01*
X207295254Y-25982876D01*
X207309670Y-25966970D01*
X207325576Y-25952554D01*
X207342819Y-25939766D01*
X207361232Y-25928730D01*
X207380638Y-25919551D01*
X207400850Y-25912319D01*
X207421674Y-25907103D01*
X207442909Y-25903953D01*
X207464350Y-25902900D01*
X207901850Y-25902900D01*
X207923291Y-25903953D01*
X207923291Y-25903953D01*
G37*
D19*
X207683100Y-26377900D03*
D10*
G36*
X206348291Y-25903953D02*
X206369526Y-25907103D01*
X206390350Y-25912319D01*
X206410562Y-25919551D01*
X206429968Y-25928730D01*
X206448381Y-25939766D01*
X206465624Y-25952554D01*
X206481530Y-25966970D01*
X206495946Y-25982876D01*
X206508734Y-26000119D01*
X206519770Y-26018532D01*
X206528949Y-26037938D01*
X206536181Y-26058150D01*
X206541397Y-26078974D01*
X206544547Y-26100209D01*
X206545600Y-26121650D01*
X206545600Y-26634150D01*
X206544547Y-26655591D01*
X206541397Y-26676826D01*
X206536181Y-26697650D01*
X206528949Y-26717862D01*
X206519770Y-26737268D01*
X206508734Y-26755681D01*
X206495946Y-26772924D01*
X206481530Y-26788830D01*
X206465624Y-26803246D01*
X206448381Y-26816034D01*
X206429968Y-26827070D01*
X206410562Y-26836249D01*
X206390350Y-26843481D01*
X206369526Y-26848697D01*
X206348291Y-26851847D01*
X206326850Y-26852900D01*
X205889350Y-26852900D01*
X205867909Y-26851847D01*
X205846674Y-26848697D01*
X205825850Y-26843481D01*
X205805638Y-26836249D01*
X205786232Y-26827070D01*
X205767819Y-26816034D01*
X205750576Y-26803246D01*
X205734670Y-26788830D01*
X205720254Y-26772924D01*
X205707466Y-26755681D01*
X205696430Y-26737268D01*
X205687251Y-26717862D01*
X205680019Y-26697650D01*
X205674803Y-26676826D01*
X205671653Y-26655591D01*
X205670600Y-26634150D01*
X205670600Y-26121650D01*
X205671653Y-26100209D01*
X205674803Y-26078974D01*
X205680019Y-26058150D01*
X205687251Y-26037938D01*
X205696430Y-26018532D01*
X205707466Y-26000119D01*
X205720254Y-25982876D01*
X205734670Y-25966970D01*
X205750576Y-25952554D01*
X205767819Y-25939766D01*
X205786232Y-25928730D01*
X205805638Y-25919551D01*
X205825850Y-25912319D01*
X205846674Y-25907103D01*
X205867909Y-25903953D01*
X205889350Y-25902900D01*
X206326850Y-25902900D01*
X206348291Y-25903953D01*
X206348291Y-25903953D01*
G37*
D19*
X206108100Y-26377900D03*
G04 #@! TD*
D10*
G04 #@! TO.C,R6*
G36*
X203465391Y-29142453D02*
X203486626Y-29145603D01*
X203507450Y-29150819D01*
X203527662Y-29158051D01*
X203547068Y-29167230D01*
X203565481Y-29178266D01*
X203582724Y-29191054D01*
X203598630Y-29205470D01*
X203613046Y-29221376D01*
X203625834Y-29238619D01*
X203636870Y-29257032D01*
X203646049Y-29276438D01*
X203653281Y-29296650D01*
X203658497Y-29317474D01*
X203661647Y-29338709D01*
X203662700Y-29360150D01*
X203662700Y-29872650D01*
X203661647Y-29894091D01*
X203658497Y-29915326D01*
X203653281Y-29936150D01*
X203646049Y-29956362D01*
X203636870Y-29975768D01*
X203625834Y-29994181D01*
X203613046Y-30011424D01*
X203598630Y-30027330D01*
X203582724Y-30041746D01*
X203565481Y-30054534D01*
X203547068Y-30065570D01*
X203527662Y-30074749D01*
X203507450Y-30081981D01*
X203486626Y-30087197D01*
X203465391Y-30090347D01*
X203443950Y-30091400D01*
X203006450Y-30091400D01*
X202985009Y-30090347D01*
X202963774Y-30087197D01*
X202942950Y-30081981D01*
X202922738Y-30074749D01*
X202903332Y-30065570D01*
X202884919Y-30054534D01*
X202867676Y-30041746D01*
X202851770Y-30027330D01*
X202837354Y-30011424D01*
X202824566Y-29994181D01*
X202813530Y-29975768D01*
X202804351Y-29956362D01*
X202797119Y-29936150D01*
X202791903Y-29915326D01*
X202788753Y-29894091D01*
X202787700Y-29872650D01*
X202787700Y-29360150D01*
X202788753Y-29338709D01*
X202791903Y-29317474D01*
X202797119Y-29296650D01*
X202804351Y-29276438D01*
X202813530Y-29257032D01*
X202824566Y-29238619D01*
X202837354Y-29221376D01*
X202851770Y-29205470D01*
X202867676Y-29191054D01*
X202884919Y-29178266D01*
X202903332Y-29167230D01*
X202922738Y-29158051D01*
X202942950Y-29150819D01*
X202963774Y-29145603D01*
X202985009Y-29142453D01*
X203006450Y-29141400D01*
X203443950Y-29141400D01*
X203465391Y-29142453D01*
X203465391Y-29142453D01*
G37*
D19*
X203225200Y-29616400D03*
D10*
G36*
X205040391Y-29142453D02*
X205061626Y-29145603D01*
X205082450Y-29150819D01*
X205102662Y-29158051D01*
X205122068Y-29167230D01*
X205140481Y-29178266D01*
X205157724Y-29191054D01*
X205173630Y-29205470D01*
X205188046Y-29221376D01*
X205200834Y-29238619D01*
X205211870Y-29257032D01*
X205221049Y-29276438D01*
X205228281Y-29296650D01*
X205233497Y-29317474D01*
X205236647Y-29338709D01*
X205237700Y-29360150D01*
X205237700Y-29872650D01*
X205236647Y-29894091D01*
X205233497Y-29915326D01*
X205228281Y-29936150D01*
X205221049Y-29956362D01*
X205211870Y-29975768D01*
X205200834Y-29994181D01*
X205188046Y-30011424D01*
X205173630Y-30027330D01*
X205157724Y-30041746D01*
X205140481Y-30054534D01*
X205122068Y-30065570D01*
X205102662Y-30074749D01*
X205082450Y-30081981D01*
X205061626Y-30087197D01*
X205040391Y-30090347D01*
X205018950Y-30091400D01*
X204581450Y-30091400D01*
X204560009Y-30090347D01*
X204538774Y-30087197D01*
X204517950Y-30081981D01*
X204497738Y-30074749D01*
X204478332Y-30065570D01*
X204459919Y-30054534D01*
X204442676Y-30041746D01*
X204426770Y-30027330D01*
X204412354Y-30011424D01*
X204399566Y-29994181D01*
X204388530Y-29975768D01*
X204379351Y-29956362D01*
X204372119Y-29936150D01*
X204366903Y-29915326D01*
X204363753Y-29894091D01*
X204362700Y-29872650D01*
X204362700Y-29360150D01*
X204363753Y-29338709D01*
X204366903Y-29317474D01*
X204372119Y-29296650D01*
X204379351Y-29276438D01*
X204388530Y-29257032D01*
X204399566Y-29238619D01*
X204412354Y-29221376D01*
X204426770Y-29205470D01*
X204442676Y-29191054D01*
X204459919Y-29178266D01*
X204478332Y-29167230D01*
X204497738Y-29158051D01*
X204517950Y-29150819D01*
X204538774Y-29145603D01*
X204560009Y-29142453D01*
X204581450Y-29141400D01*
X205018950Y-29141400D01*
X205040391Y-29142453D01*
X205040391Y-29142453D01*
G37*
D19*
X204800200Y-29616400D03*
G04 #@! TD*
D10*
G04 #@! TO.C,R10*
G36*
X201966991Y-48751253D02*
X201988226Y-48754403D01*
X202009050Y-48759619D01*
X202029262Y-48766851D01*
X202048668Y-48776030D01*
X202067081Y-48787066D01*
X202084324Y-48799854D01*
X202100230Y-48814270D01*
X202114646Y-48830176D01*
X202127434Y-48847419D01*
X202138470Y-48865832D01*
X202147649Y-48885238D01*
X202154881Y-48905450D01*
X202160097Y-48926274D01*
X202163247Y-48947509D01*
X202164300Y-48968950D01*
X202164300Y-49481450D01*
X202163247Y-49502891D01*
X202160097Y-49524126D01*
X202154881Y-49544950D01*
X202147649Y-49565162D01*
X202138470Y-49584568D01*
X202127434Y-49602981D01*
X202114646Y-49620224D01*
X202100230Y-49636130D01*
X202084324Y-49650546D01*
X202067081Y-49663334D01*
X202048668Y-49674370D01*
X202029262Y-49683549D01*
X202009050Y-49690781D01*
X201988226Y-49695997D01*
X201966991Y-49699147D01*
X201945550Y-49700200D01*
X201508050Y-49700200D01*
X201486609Y-49699147D01*
X201465374Y-49695997D01*
X201444550Y-49690781D01*
X201424338Y-49683549D01*
X201404932Y-49674370D01*
X201386519Y-49663334D01*
X201369276Y-49650546D01*
X201353370Y-49636130D01*
X201338954Y-49620224D01*
X201326166Y-49602981D01*
X201315130Y-49584568D01*
X201305951Y-49565162D01*
X201298719Y-49544950D01*
X201293503Y-49524126D01*
X201290353Y-49502891D01*
X201289300Y-49481450D01*
X201289300Y-48968950D01*
X201290353Y-48947509D01*
X201293503Y-48926274D01*
X201298719Y-48905450D01*
X201305951Y-48885238D01*
X201315130Y-48865832D01*
X201326166Y-48847419D01*
X201338954Y-48830176D01*
X201353370Y-48814270D01*
X201369276Y-48799854D01*
X201386519Y-48787066D01*
X201404932Y-48776030D01*
X201424338Y-48766851D01*
X201444550Y-48759619D01*
X201465374Y-48754403D01*
X201486609Y-48751253D01*
X201508050Y-48750200D01*
X201945550Y-48750200D01*
X201966991Y-48751253D01*
X201966991Y-48751253D01*
G37*
D19*
X201726800Y-49225200D03*
D10*
G36*
X200391991Y-48751253D02*
X200413226Y-48754403D01*
X200434050Y-48759619D01*
X200454262Y-48766851D01*
X200473668Y-48776030D01*
X200492081Y-48787066D01*
X200509324Y-48799854D01*
X200525230Y-48814270D01*
X200539646Y-48830176D01*
X200552434Y-48847419D01*
X200563470Y-48865832D01*
X200572649Y-48885238D01*
X200579881Y-48905450D01*
X200585097Y-48926274D01*
X200588247Y-48947509D01*
X200589300Y-48968950D01*
X200589300Y-49481450D01*
X200588247Y-49502891D01*
X200585097Y-49524126D01*
X200579881Y-49544950D01*
X200572649Y-49565162D01*
X200563470Y-49584568D01*
X200552434Y-49602981D01*
X200539646Y-49620224D01*
X200525230Y-49636130D01*
X200509324Y-49650546D01*
X200492081Y-49663334D01*
X200473668Y-49674370D01*
X200454262Y-49683549D01*
X200434050Y-49690781D01*
X200413226Y-49695997D01*
X200391991Y-49699147D01*
X200370550Y-49700200D01*
X199933050Y-49700200D01*
X199911609Y-49699147D01*
X199890374Y-49695997D01*
X199869550Y-49690781D01*
X199849338Y-49683549D01*
X199829932Y-49674370D01*
X199811519Y-49663334D01*
X199794276Y-49650546D01*
X199778370Y-49636130D01*
X199763954Y-49620224D01*
X199751166Y-49602981D01*
X199740130Y-49584568D01*
X199730951Y-49565162D01*
X199723719Y-49544950D01*
X199718503Y-49524126D01*
X199715353Y-49502891D01*
X199714300Y-49481450D01*
X199714300Y-48968950D01*
X199715353Y-48947509D01*
X199718503Y-48926274D01*
X199723719Y-48905450D01*
X199730951Y-48885238D01*
X199740130Y-48865832D01*
X199751166Y-48847419D01*
X199763954Y-48830176D01*
X199778370Y-48814270D01*
X199794276Y-48799854D01*
X199811519Y-48787066D01*
X199829932Y-48776030D01*
X199849338Y-48766851D01*
X199869550Y-48759619D01*
X199890374Y-48754403D01*
X199911609Y-48751253D01*
X199933050Y-48750200D01*
X200370550Y-48750200D01*
X200391991Y-48751253D01*
X200391991Y-48751253D01*
G37*
D19*
X200151800Y-49225200D03*
G04 #@! TD*
D10*
G04 #@! TO.C,R11*
G36*
X205116591Y-49716453D02*
X205137826Y-49719603D01*
X205158650Y-49724819D01*
X205178862Y-49732051D01*
X205198268Y-49741230D01*
X205216681Y-49752266D01*
X205233924Y-49765054D01*
X205249830Y-49779470D01*
X205264246Y-49795376D01*
X205277034Y-49812619D01*
X205288070Y-49831032D01*
X205297249Y-49850438D01*
X205304481Y-49870650D01*
X205309697Y-49891474D01*
X205312847Y-49912709D01*
X205313900Y-49934150D01*
X205313900Y-50446650D01*
X205312847Y-50468091D01*
X205309697Y-50489326D01*
X205304481Y-50510150D01*
X205297249Y-50530362D01*
X205288070Y-50549768D01*
X205277034Y-50568181D01*
X205264246Y-50585424D01*
X205249830Y-50601330D01*
X205233924Y-50615746D01*
X205216681Y-50628534D01*
X205198268Y-50639570D01*
X205178862Y-50648749D01*
X205158650Y-50655981D01*
X205137826Y-50661197D01*
X205116591Y-50664347D01*
X205095150Y-50665400D01*
X204657650Y-50665400D01*
X204636209Y-50664347D01*
X204614974Y-50661197D01*
X204594150Y-50655981D01*
X204573938Y-50648749D01*
X204554532Y-50639570D01*
X204536119Y-50628534D01*
X204518876Y-50615746D01*
X204502970Y-50601330D01*
X204488554Y-50585424D01*
X204475766Y-50568181D01*
X204464730Y-50549768D01*
X204455551Y-50530362D01*
X204448319Y-50510150D01*
X204443103Y-50489326D01*
X204439953Y-50468091D01*
X204438900Y-50446650D01*
X204438900Y-49934150D01*
X204439953Y-49912709D01*
X204443103Y-49891474D01*
X204448319Y-49870650D01*
X204455551Y-49850438D01*
X204464730Y-49831032D01*
X204475766Y-49812619D01*
X204488554Y-49795376D01*
X204502970Y-49779470D01*
X204518876Y-49765054D01*
X204536119Y-49752266D01*
X204554532Y-49741230D01*
X204573938Y-49732051D01*
X204594150Y-49724819D01*
X204614974Y-49719603D01*
X204636209Y-49716453D01*
X204657650Y-49715400D01*
X205095150Y-49715400D01*
X205116591Y-49716453D01*
X205116591Y-49716453D01*
G37*
D19*
X204876400Y-50190400D03*
D10*
G36*
X203541591Y-49716453D02*
X203562826Y-49719603D01*
X203583650Y-49724819D01*
X203603862Y-49732051D01*
X203623268Y-49741230D01*
X203641681Y-49752266D01*
X203658924Y-49765054D01*
X203674830Y-49779470D01*
X203689246Y-49795376D01*
X203702034Y-49812619D01*
X203713070Y-49831032D01*
X203722249Y-49850438D01*
X203729481Y-49870650D01*
X203734697Y-49891474D01*
X203737847Y-49912709D01*
X203738900Y-49934150D01*
X203738900Y-50446650D01*
X203737847Y-50468091D01*
X203734697Y-50489326D01*
X203729481Y-50510150D01*
X203722249Y-50530362D01*
X203713070Y-50549768D01*
X203702034Y-50568181D01*
X203689246Y-50585424D01*
X203674830Y-50601330D01*
X203658924Y-50615746D01*
X203641681Y-50628534D01*
X203623268Y-50639570D01*
X203603862Y-50648749D01*
X203583650Y-50655981D01*
X203562826Y-50661197D01*
X203541591Y-50664347D01*
X203520150Y-50665400D01*
X203082650Y-50665400D01*
X203061209Y-50664347D01*
X203039974Y-50661197D01*
X203019150Y-50655981D01*
X202998938Y-50648749D01*
X202979532Y-50639570D01*
X202961119Y-50628534D01*
X202943876Y-50615746D01*
X202927970Y-50601330D01*
X202913554Y-50585424D01*
X202900766Y-50568181D01*
X202889730Y-50549768D01*
X202880551Y-50530362D01*
X202873319Y-50510150D01*
X202868103Y-50489326D01*
X202864953Y-50468091D01*
X202863900Y-50446650D01*
X202863900Y-49934150D01*
X202864953Y-49912709D01*
X202868103Y-49891474D01*
X202873319Y-49870650D01*
X202880551Y-49850438D01*
X202889730Y-49831032D01*
X202900766Y-49812619D01*
X202913554Y-49795376D01*
X202927970Y-49779470D01*
X202943876Y-49765054D01*
X202961119Y-49752266D01*
X202979532Y-49741230D01*
X202998938Y-49732051D01*
X203019150Y-49724819D01*
X203039974Y-49719603D01*
X203061209Y-49716453D01*
X203082650Y-49715400D01*
X203520150Y-49715400D01*
X203541591Y-49716453D01*
X203541591Y-49716453D01*
G37*
D19*
X203301400Y-50190400D03*
G04 #@! TD*
D20*
G04 #@! TO.C,Y1*
X215364926Y-40856126D03*
X218364926Y-40856126D03*
X215364926Y-42356126D03*
X218364926Y-42356126D03*
G04 #@! TD*
D10*
G04 #@! TO.C,C2*
G36*
X207531642Y-31813174D02*
X207555303Y-31816684D01*
X207578507Y-31822496D01*
X207601029Y-31830554D01*
X207622653Y-31840782D01*
X207643170Y-31853079D01*
X207662383Y-31867329D01*
X207680107Y-31883393D01*
X207696171Y-31901117D01*
X207710421Y-31920330D01*
X207722718Y-31940847D01*
X207732946Y-31962471D01*
X207741004Y-31984993D01*
X207746816Y-32008197D01*
X207750326Y-32031858D01*
X207751500Y-32055750D01*
X207751500Y-32968250D01*
X207750326Y-32992142D01*
X207746816Y-33015803D01*
X207741004Y-33039007D01*
X207732946Y-33061529D01*
X207722718Y-33083153D01*
X207710421Y-33103670D01*
X207696171Y-33122883D01*
X207680107Y-33140607D01*
X207662383Y-33156671D01*
X207643170Y-33170921D01*
X207622653Y-33183218D01*
X207601029Y-33193446D01*
X207578507Y-33201504D01*
X207555303Y-33207316D01*
X207531642Y-33210826D01*
X207507750Y-33212000D01*
X207020250Y-33212000D01*
X206996358Y-33210826D01*
X206972697Y-33207316D01*
X206949493Y-33201504D01*
X206926971Y-33193446D01*
X206905347Y-33183218D01*
X206884830Y-33170921D01*
X206865617Y-33156671D01*
X206847893Y-33140607D01*
X206831829Y-33122883D01*
X206817579Y-33103670D01*
X206805282Y-33083153D01*
X206795054Y-33061529D01*
X206786996Y-33039007D01*
X206781184Y-33015803D01*
X206777674Y-32992142D01*
X206776500Y-32968250D01*
X206776500Y-32055750D01*
X206777674Y-32031858D01*
X206781184Y-32008197D01*
X206786996Y-31984993D01*
X206795054Y-31962471D01*
X206805282Y-31940847D01*
X206817579Y-31920330D01*
X206831829Y-31901117D01*
X206847893Y-31883393D01*
X206865617Y-31867329D01*
X206884830Y-31853079D01*
X206905347Y-31840782D01*
X206926971Y-31830554D01*
X206949493Y-31822496D01*
X206972697Y-31816684D01*
X206996358Y-31813174D01*
X207020250Y-31812000D01*
X207507750Y-31812000D01*
X207531642Y-31813174D01*
X207531642Y-31813174D01*
G37*
D11*
X207264000Y-32512000D03*
D10*
G36*
X205656642Y-31813174D02*
X205680303Y-31816684D01*
X205703507Y-31822496D01*
X205726029Y-31830554D01*
X205747653Y-31840782D01*
X205768170Y-31853079D01*
X205787383Y-31867329D01*
X205805107Y-31883393D01*
X205821171Y-31901117D01*
X205835421Y-31920330D01*
X205847718Y-31940847D01*
X205857946Y-31962471D01*
X205866004Y-31984993D01*
X205871816Y-32008197D01*
X205875326Y-32031858D01*
X205876500Y-32055750D01*
X205876500Y-32968250D01*
X205875326Y-32992142D01*
X205871816Y-33015803D01*
X205866004Y-33039007D01*
X205857946Y-33061529D01*
X205847718Y-33083153D01*
X205835421Y-33103670D01*
X205821171Y-33122883D01*
X205805107Y-33140607D01*
X205787383Y-33156671D01*
X205768170Y-33170921D01*
X205747653Y-33183218D01*
X205726029Y-33193446D01*
X205703507Y-33201504D01*
X205680303Y-33207316D01*
X205656642Y-33210826D01*
X205632750Y-33212000D01*
X205145250Y-33212000D01*
X205121358Y-33210826D01*
X205097697Y-33207316D01*
X205074493Y-33201504D01*
X205051971Y-33193446D01*
X205030347Y-33183218D01*
X205009830Y-33170921D01*
X204990617Y-33156671D01*
X204972893Y-33140607D01*
X204956829Y-33122883D01*
X204942579Y-33103670D01*
X204930282Y-33083153D01*
X204920054Y-33061529D01*
X204911996Y-33039007D01*
X204906184Y-33015803D01*
X204902674Y-32992142D01*
X204901500Y-32968250D01*
X204901500Y-32055750D01*
X204902674Y-32031858D01*
X204906184Y-32008197D01*
X204911996Y-31984993D01*
X204920054Y-31962471D01*
X204930282Y-31940847D01*
X204942579Y-31920330D01*
X204956829Y-31901117D01*
X204972893Y-31883393D01*
X204990617Y-31867329D01*
X205009830Y-31853079D01*
X205030347Y-31840782D01*
X205051971Y-31830554D01*
X205074493Y-31822496D01*
X205097697Y-31816684D01*
X205121358Y-31813174D01*
X205145250Y-31812000D01*
X205632750Y-31812000D01*
X205656642Y-31813174D01*
X205656642Y-31813174D01*
G37*
D11*
X205389000Y-32512000D03*
G04 #@! TD*
D10*
G04 #@! TO.C,C3*
G36*
X221120642Y-41211174D02*
X221144303Y-41214684D01*
X221167507Y-41220496D01*
X221190029Y-41228554D01*
X221211653Y-41238782D01*
X221232170Y-41251079D01*
X221251383Y-41265329D01*
X221269107Y-41281393D01*
X221285171Y-41299117D01*
X221299421Y-41318330D01*
X221311718Y-41338847D01*
X221321946Y-41360471D01*
X221330004Y-41382993D01*
X221335816Y-41406197D01*
X221339326Y-41429858D01*
X221340500Y-41453750D01*
X221340500Y-42366250D01*
X221339326Y-42390142D01*
X221335816Y-42413803D01*
X221330004Y-42437007D01*
X221321946Y-42459529D01*
X221311718Y-42481153D01*
X221299421Y-42501670D01*
X221285171Y-42520883D01*
X221269107Y-42538607D01*
X221251383Y-42554671D01*
X221232170Y-42568921D01*
X221211653Y-42581218D01*
X221190029Y-42591446D01*
X221167507Y-42599504D01*
X221144303Y-42605316D01*
X221120642Y-42608826D01*
X221096750Y-42610000D01*
X220609250Y-42610000D01*
X220585358Y-42608826D01*
X220561697Y-42605316D01*
X220538493Y-42599504D01*
X220515971Y-42591446D01*
X220494347Y-42581218D01*
X220473830Y-42568921D01*
X220454617Y-42554671D01*
X220436893Y-42538607D01*
X220420829Y-42520883D01*
X220406579Y-42501670D01*
X220394282Y-42481153D01*
X220384054Y-42459529D01*
X220375996Y-42437007D01*
X220370184Y-42413803D01*
X220366674Y-42390142D01*
X220365500Y-42366250D01*
X220365500Y-41453750D01*
X220366674Y-41429858D01*
X220370184Y-41406197D01*
X220375996Y-41382993D01*
X220384054Y-41360471D01*
X220394282Y-41338847D01*
X220406579Y-41318330D01*
X220420829Y-41299117D01*
X220436893Y-41281393D01*
X220454617Y-41265329D01*
X220473830Y-41251079D01*
X220494347Y-41238782D01*
X220515971Y-41228554D01*
X220538493Y-41220496D01*
X220561697Y-41214684D01*
X220585358Y-41211174D01*
X220609250Y-41210000D01*
X221096750Y-41210000D01*
X221120642Y-41211174D01*
X221120642Y-41211174D01*
G37*
D11*
X220853000Y-41910000D03*
D10*
G36*
X222995642Y-41211174D02*
X223019303Y-41214684D01*
X223042507Y-41220496D01*
X223065029Y-41228554D01*
X223086653Y-41238782D01*
X223107170Y-41251079D01*
X223126383Y-41265329D01*
X223144107Y-41281393D01*
X223160171Y-41299117D01*
X223174421Y-41318330D01*
X223186718Y-41338847D01*
X223196946Y-41360471D01*
X223205004Y-41382993D01*
X223210816Y-41406197D01*
X223214326Y-41429858D01*
X223215500Y-41453750D01*
X223215500Y-42366250D01*
X223214326Y-42390142D01*
X223210816Y-42413803D01*
X223205004Y-42437007D01*
X223196946Y-42459529D01*
X223186718Y-42481153D01*
X223174421Y-42501670D01*
X223160171Y-42520883D01*
X223144107Y-42538607D01*
X223126383Y-42554671D01*
X223107170Y-42568921D01*
X223086653Y-42581218D01*
X223065029Y-42591446D01*
X223042507Y-42599504D01*
X223019303Y-42605316D01*
X222995642Y-42608826D01*
X222971750Y-42610000D01*
X222484250Y-42610000D01*
X222460358Y-42608826D01*
X222436697Y-42605316D01*
X222413493Y-42599504D01*
X222390971Y-42591446D01*
X222369347Y-42581218D01*
X222348830Y-42568921D01*
X222329617Y-42554671D01*
X222311893Y-42538607D01*
X222295829Y-42520883D01*
X222281579Y-42501670D01*
X222269282Y-42481153D01*
X222259054Y-42459529D01*
X222250996Y-42437007D01*
X222245184Y-42413803D01*
X222241674Y-42390142D01*
X222240500Y-42366250D01*
X222240500Y-41453750D01*
X222241674Y-41429858D01*
X222245184Y-41406197D01*
X222250996Y-41382993D01*
X222259054Y-41360471D01*
X222269282Y-41338847D01*
X222281579Y-41318330D01*
X222295829Y-41299117D01*
X222311893Y-41281393D01*
X222329617Y-41265329D01*
X222348830Y-41251079D01*
X222369347Y-41238782D01*
X222390971Y-41228554D01*
X222413493Y-41220496D01*
X222436697Y-41214684D01*
X222460358Y-41211174D01*
X222484250Y-41210000D01*
X222971750Y-41210000D01*
X222995642Y-41211174D01*
X222995642Y-41211174D01*
G37*
D11*
X222728000Y-41910000D03*
G04 #@! TD*
D10*
G04 #@! TO.C,C5*
G36*
X213384068Y-40758674D02*
X213407729Y-40762184D01*
X213430933Y-40767996D01*
X213453455Y-40776054D01*
X213475079Y-40786282D01*
X213495596Y-40798579D01*
X213514809Y-40812829D01*
X213532533Y-40828893D01*
X213548597Y-40846617D01*
X213562847Y-40865830D01*
X213575144Y-40886347D01*
X213585372Y-40907971D01*
X213593430Y-40930493D01*
X213599242Y-40953697D01*
X213602752Y-40977358D01*
X213603926Y-41001250D01*
X213603926Y-41488750D01*
X213602752Y-41512642D01*
X213599242Y-41536303D01*
X213593430Y-41559507D01*
X213585372Y-41582029D01*
X213575144Y-41603653D01*
X213562847Y-41624170D01*
X213548597Y-41643383D01*
X213532533Y-41661107D01*
X213514809Y-41677171D01*
X213495596Y-41691421D01*
X213475079Y-41703718D01*
X213453455Y-41713946D01*
X213430933Y-41722004D01*
X213407729Y-41727816D01*
X213384068Y-41731326D01*
X213360176Y-41732500D01*
X212447676Y-41732500D01*
X212423784Y-41731326D01*
X212400123Y-41727816D01*
X212376919Y-41722004D01*
X212354397Y-41713946D01*
X212332773Y-41703718D01*
X212312256Y-41691421D01*
X212293043Y-41677171D01*
X212275319Y-41661107D01*
X212259255Y-41643383D01*
X212245005Y-41624170D01*
X212232708Y-41603653D01*
X212222480Y-41582029D01*
X212214422Y-41559507D01*
X212208610Y-41536303D01*
X212205100Y-41512642D01*
X212203926Y-41488750D01*
X212203926Y-41001250D01*
X212205100Y-40977358D01*
X212208610Y-40953697D01*
X212214422Y-40930493D01*
X212222480Y-40907971D01*
X212232708Y-40886347D01*
X212245005Y-40865830D01*
X212259255Y-40846617D01*
X212275319Y-40828893D01*
X212293043Y-40812829D01*
X212312256Y-40798579D01*
X212332773Y-40786282D01*
X212354397Y-40776054D01*
X212376919Y-40767996D01*
X212400123Y-40762184D01*
X212423784Y-40758674D01*
X212447676Y-40757500D01*
X213360176Y-40757500D01*
X213384068Y-40758674D01*
X213384068Y-40758674D01*
G37*
D11*
X212903926Y-41245000D03*
D10*
G36*
X213384068Y-38883674D02*
X213407729Y-38887184D01*
X213430933Y-38892996D01*
X213453455Y-38901054D01*
X213475079Y-38911282D01*
X213495596Y-38923579D01*
X213514809Y-38937829D01*
X213532533Y-38953893D01*
X213548597Y-38971617D01*
X213562847Y-38990830D01*
X213575144Y-39011347D01*
X213585372Y-39032971D01*
X213593430Y-39055493D01*
X213599242Y-39078697D01*
X213602752Y-39102358D01*
X213603926Y-39126250D01*
X213603926Y-39613750D01*
X213602752Y-39637642D01*
X213599242Y-39661303D01*
X213593430Y-39684507D01*
X213585372Y-39707029D01*
X213575144Y-39728653D01*
X213562847Y-39749170D01*
X213548597Y-39768383D01*
X213532533Y-39786107D01*
X213514809Y-39802171D01*
X213495596Y-39816421D01*
X213475079Y-39828718D01*
X213453455Y-39838946D01*
X213430933Y-39847004D01*
X213407729Y-39852816D01*
X213384068Y-39856326D01*
X213360176Y-39857500D01*
X212447676Y-39857500D01*
X212423784Y-39856326D01*
X212400123Y-39852816D01*
X212376919Y-39847004D01*
X212354397Y-39838946D01*
X212332773Y-39828718D01*
X212312256Y-39816421D01*
X212293043Y-39802171D01*
X212275319Y-39786107D01*
X212259255Y-39768383D01*
X212245005Y-39749170D01*
X212232708Y-39728653D01*
X212222480Y-39707029D01*
X212214422Y-39684507D01*
X212208610Y-39661303D01*
X212205100Y-39637642D01*
X212203926Y-39613750D01*
X212203926Y-39126250D01*
X212205100Y-39102358D01*
X212208610Y-39078697D01*
X212214422Y-39055493D01*
X212222480Y-39032971D01*
X212232708Y-39011347D01*
X212245005Y-38990830D01*
X212259255Y-38971617D01*
X212275319Y-38953893D01*
X212293043Y-38937829D01*
X212312256Y-38923579D01*
X212332773Y-38911282D01*
X212354397Y-38901054D01*
X212376919Y-38892996D01*
X212400123Y-38887184D01*
X212423784Y-38883674D01*
X212447676Y-38882500D01*
X213360176Y-38882500D01*
X213384068Y-38883674D01*
X213384068Y-38883674D01*
G37*
D11*
X212903926Y-39370000D03*
G04 #@! TD*
D21*
G04 #@! TO.C,ANT1*
X224370900Y-57937380D03*
X224370900Y-55237380D03*
G04 #@! TD*
D10*
G04 #@! TO.C,C24*
G36*
X216427318Y-46152290D02*
X216441636Y-46154414D01*
X216455677Y-46157931D01*
X216469306Y-46162808D01*
X216482391Y-46168997D01*
X216494807Y-46176438D01*
X216506433Y-46185061D01*
X216517158Y-46194782D01*
X216526879Y-46205507D01*
X216535502Y-46217133D01*
X216542943Y-46229549D01*
X216549132Y-46242634D01*
X216554009Y-46256263D01*
X216557526Y-46270304D01*
X216559650Y-46284622D01*
X216560360Y-46299080D01*
X216560360Y-46594080D01*
X216559650Y-46608538D01*
X216557526Y-46622856D01*
X216554009Y-46636897D01*
X216549132Y-46650526D01*
X216542943Y-46663611D01*
X216535502Y-46676027D01*
X216526879Y-46687653D01*
X216517158Y-46698378D01*
X216506433Y-46708099D01*
X216494807Y-46716722D01*
X216482391Y-46724163D01*
X216469306Y-46730352D01*
X216455677Y-46735229D01*
X216441636Y-46738746D01*
X216427318Y-46740870D01*
X216412860Y-46741580D01*
X216067860Y-46741580D01*
X216053402Y-46740870D01*
X216039084Y-46738746D01*
X216025043Y-46735229D01*
X216011414Y-46730352D01*
X215998329Y-46724163D01*
X215985913Y-46716722D01*
X215974287Y-46708099D01*
X215963562Y-46698378D01*
X215953841Y-46687653D01*
X215945218Y-46676027D01*
X215937777Y-46663611D01*
X215931588Y-46650526D01*
X215926711Y-46636897D01*
X215923194Y-46622856D01*
X215921070Y-46608538D01*
X215920360Y-46594080D01*
X215920360Y-46299080D01*
X215921070Y-46284622D01*
X215923194Y-46270304D01*
X215926711Y-46256263D01*
X215931588Y-46242634D01*
X215937777Y-46229549D01*
X215945218Y-46217133D01*
X215953841Y-46205507D01*
X215963562Y-46194782D01*
X215974287Y-46185061D01*
X215985913Y-46176438D01*
X215998329Y-46168997D01*
X216011414Y-46162808D01*
X216025043Y-46157931D01*
X216039084Y-46154414D01*
X216053402Y-46152290D01*
X216067860Y-46151580D01*
X216412860Y-46151580D01*
X216427318Y-46152290D01*
X216427318Y-46152290D01*
G37*
D22*
X216240360Y-46446580D03*
D10*
G36*
X216427318Y-47122290D02*
X216441636Y-47124414D01*
X216455677Y-47127931D01*
X216469306Y-47132808D01*
X216482391Y-47138997D01*
X216494807Y-47146438D01*
X216506433Y-47155061D01*
X216517158Y-47164782D01*
X216526879Y-47175507D01*
X216535502Y-47187133D01*
X216542943Y-47199549D01*
X216549132Y-47212634D01*
X216554009Y-47226263D01*
X216557526Y-47240304D01*
X216559650Y-47254622D01*
X216560360Y-47269080D01*
X216560360Y-47564080D01*
X216559650Y-47578538D01*
X216557526Y-47592856D01*
X216554009Y-47606897D01*
X216549132Y-47620526D01*
X216542943Y-47633611D01*
X216535502Y-47646027D01*
X216526879Y-47657653D01*
X216517158Y-47668378D01*
X216506433Y-47678099D01*
X216494807Y-47686722D01*
X216482391Y-47694163D01*
X216469306Y-47700352D01*
X216455677Y-47705229D01*
X216441636Y-47708746D01*
X216427318Y-47710870D01*
X216412860Y-47711580D01*
X216067860Y-47711580D01*
X216053402Y-47710870D01*
X216039084Y-47708746D01*
X216025043Y-47705229D01*
X216011414Y-47700352D01*
X215998329Y-47694163D01*
X215985913Y-47686722D01*
X215974287Y-47678099D01*
X215963562Y-47668378D01*
X215953841Y-47657653D01*
X215945218Y-47646027D01*
X215937777Y-47633611D01*
X215931588Y-47620526D01*
X215926711Y-47606897D01*
X215923194Y-47592856D01*
X215921070Y-47578538D01*
X215920360Y-47564080D01*
X215920360Y-47269080D01*
X215921070Y-47254622D01*
X215923194Y-47240304D01*
X215926711Y-47226263D01*
X215931588Y-47212634D01*
X215937777Y-47199549D01*
X215945218Y-47187133D01*
X215953841Y-47175507D01*
X215963562Y-47164782D01*
X215974287Y-47155061D01*
X215985913Y-47146438D01*
X215998329Y-47138997D01*
X216011414Y-47132808D01*
X216025043Y-47127931D01*
X216039084Y-47124414D01*
X216053402Y-47122290D01*
X216067860Y-47121580D01*
X216412860Y-47121580D01*
X216427318Y-47122290D01*
X216427318Y-47122290D01*
G37*
D22*
X216240360Y-47416580D03*
G04 #@! TD*
D10*
G04 #@! TO.C,C27*
G36*
X224441018Y-49735950D02*
X224455336Y-49738074D01*
X224469377Y-49741591D01*
X224483006Y-49746468D01*
X224496091Y-49752657D01*
X224508507Y-49760098D01*
X224520133Y-49768721D01*
X224530858Y-49778442D01*
X224540579Y-49789167D01*
X224549202Y-49800793D01*
X224556643Y-49813209D01*
X224562832Y-49826294D01*
X224567709Y-49839923D01*
X224571226Y-49853964D01*
X224573350Y-49868282D01*
X224574060Y-49882740D01*
X224574060Y-50177740D01*
X224573350Y-50192198D01*
X224571226Y-50206516D01*
X224567709Y-50220557D01*
X224562832Y-50234186D01*
X224556643Y-50247271D01*
X224549202Y-50259687D01*
X224540579Y-50271313D01*
X224530858Y-50282038D01*
X224520133Y-50291759D01*
X224508507Y-50300382D01*
X224496091Y-50307823D01*
X224483006Y-50314012D01*
X224469377Y-50318889D01*
X224455336Y-50322406D01*
X224441018Y-50324530D01*
X224426560Y-50325240D01*
X224081560Y-50325240D01*
X224067102Y-50324530D01*
X224052784Y-50322406D01*
X224038743Y-50318889D01*
X224025114Y-50314012D01*
X224012029Y-50307823D01*
X223999613Y-50300382D01*
X223987987Y-50291759D01*
X223977262Y-50282038D01*
X223967541Y-50271313D01*
X223958918Y-50259687D01*
X223951477Y-50247271D01*
X223945288Y-50234186D01*
X223940411Y-50220557D01*
X223936894Y-50206516D01*
X223934770Y-50192198D01*
X223934060Y-50177740D01*
X223934060Y-49882740D01*
X223934770Y-49868282D01*
X223936894Y-49853964D01*
X223940411Y-49839923D01*
X223945288Y-49826294D01*
X223951477Y-49813209D01*
X223958918Y-49800793D01*
X223967541Y-49789167D01*
X223977262Y-49778442D01*
X223987987Y-49768721D01*
X223999613Y-49760098D01*
X224012029Y-49752657D01*
X224025114Y-49746468D01*
X224038743Y-49741591D01*
X224052784Y-49738074D01*
X224067102Y-49735950D01*
X224081560Y-49735240D01*
X224426560Y-49735240D01*
X224441018Y-49735950D01*
X224441018Y-49735950D01*
G37*
D22*
X224254060Y-50030240D03*
D10*
G36*
X224441018Y-48765950D02*
X224455336Y-48768074D01*
X224469377Y-48771591D01*
X224483006Y-48776468D01*
X224496091Y-48782657D01*
X224508507Y-48790098D01*
X224520133Y-48798721D01*
X224530858Y-48808442D01*
X224540579Y-48819167D01*
X224549202Y-48830793D01*
X224556643Y-48843209D01*
X224562832Y-48856294D01*
X224567709Y-48869923D01*
X224571226Y-48883964D01*
X224573350Y-48898282D01*
X224574060Y-48912740D01*
X224574060Y-49207740D01*
X224573350Y-49222198D01*
X224571226Y-49236516D01*
X224567709Y-49250557D01*
X224562832Y-49264186D01*
X224556643Y-49277271D01*
X224549202Y-49289687D01*
X224540579Y-49301313D01*
X224530858Y-49312038D01*
X224520133Y-49321759D01*
X224508507Y-49330382D01*
X224496091Y-49337823D01*
X224483006Y-49344012D01*
X224469377Y-49348889D01*
X224455336Y-49352406D01*
X224441018Y-49354530D01*
X224426560Y-49355240D01*
X224081560Y-49355240D01*
X224067102Y-49354530D01*
X224052784Y-49352406D01*
X224038743Y-49348889D01*
X224025114Y-49344012D01*
X224012029Y-49337823D01*
X223999613Y-49330382D01*
X223987987Y-49321759D01*
X223977262Y-49312038D01*
X223967541Y-49301313D01*
X223958918Y-49289687D01*
X223951477Y-49277271D01*
X223945288Y-49264186D01*
X223940411Y-49250557D01*
X223936894Y-49236516D01*
X223934770Y-49222198D01*
X223934060Y-49207740D01*
X223934060Y-48912740D01*
X223934770Y-48898282D01*
X223936894Y-48883964D01*
X223940411Y-48869923D01*
X223945288Y-48856294D01*
X223951477Y-48843209D01*
X223958918Y-48830793D01*
X223967541Y-48819167D01*
X223977262Y-48808442D01*
X223987987Y-48798721D01*
X223999613Y-48790098D01*
X224012029Y-48782657D01*
X224025114Y-48776468D01*
X224038743Y-48771591D01*
X224052784Y-48768074D01*
X224067102Y-48765950D01*
X224081560Y-48765240D01*
X224426560Y-48765240D01*
X224441018Y-48765950D01*
X224441018Y-48765950D01*
G37*
D22*
X224254060Y-49060240D03*
G04 #@! TD*
D10*
G04 #@! TO.C,L3*
G36*
X217502138Y-47110130D02*
X217516456Y-47112254D01*
X217530497Y-47115771D01*
X217544126Y-47120648D01*
X217557211Y-47126837D01*
X217569627Y-47134278D01*
X217581253Y-47142901D01*
X217591978Y-47152622D01*
X217601699Y-47163347D01*
X217610322Y-47174973D01*
X217617763Y-47187389D01*
X217623952Y-47200474D01*
X217628829Y-47214103D01*
X217632346Y-47228144D01*
X217634470Y-47242462D01*
X217635180Y-47256920D01*
X217635180Y-47601920D01*
X217634470Y-47616378D01*
X217632346Y-47630696D01*
X217628829Y-47644737D01*
X217623952Y-47658366D01*
X217617763Y-47671451D01*
X217610322Y-47683867D01*
X217601699Y-47695493D01*
X217591978Y-47706218D01*
X217581253Y-47715939D01*
X217569627Y-47724562D01*
X217557211Y-47732003D01*
X217544126Y-47738192D01*
X217530497Y-47743069D01*
X217516456Y-47746586D01*
X217502138Y-47748710D01*
X217487680Y-47749420D01*
X217192680Y-47749420D01*
X217178222Y-47748710D01*
X217163904Y-47746586D01*
X217149863Y-47743069D01*
X217136234Y-47738192D01*
X217123149Y-47732003D01*
X217110733Y-47724562D01*
X217099107Y-47715939D01*
X217088382Y-47706218D01*
X217078661Y-47695493D01*
X217070038Y-47683867D01*
X217062597Y-47671451D01*
X217056408Y-47658366D01*
X217051531Y-47644737D01*
X217048014Y-47630696D01*
X217045890Y-47616378D01*
X217045180Y-47601920D01*
X217045180Y-47256920D01*
X217045890Y-47242462D01*
X217048014Y-47228144D01*
X217051531Y-47214103D01*
X217056408Y-47200474D01*
X217062597Y-47187389D01*
X217070038Y-47174973D01*
X217078661Y-47163347D01*
X217088382Y-47152622D01*
X217099107Y-47142901D01*
X217110733Y-47134278D01*
X217123149Y-47126837D01*
X217136234Y-47120648D01*
X217149863Y-47115771D01*
X217163904Y-47112254D01*
X217178222Y-47110130D01*
X217192680Y-47109420D01*
X217487680Y-47109420D01*
X217502138Y-47110130D01*
X217502138Y-47110130D01*
G37*
D22*
X217340180Y-47429420D03*
D10*
G36*
X218472138Y-47110130D02*
X218486456Y-47112254D01*
X218500497Y-47115771D01*
X218514126Y-47120648D01*
X218527211Y-47126837D01*
X218539627Y-47134278D01*
X218551253Y-47142901D01*
X218561978Y-47152622D01*
X218571699Y-47163347D01*
X218580322Y-47174973D01*
X218587763Y-47187389D01*
X218593952Y-47200474D01*
X218598829Y-47214103D01*
X218602346Y-47228144D01*
X218604470Y-47242462D01*
X218605180Y-47256920D01*
X218605180Y-47601920D01*
X218604470Y-47616378D01*
X218602346Y-47630696D01*
X218598829Y-47644737D01*
X218593952Y-47658366D01*
X218587763Y-47671451D01*
X218580322Y-47683867D01*
X218571699Y-47695493D01*
X218561978Y-47706218D01*
X218551253Y-47715939D01*
X218539627Y-47724562D01*
X218527211Y-47732003D01*
X218514126Y-47738192D01*
X218500497Y-47743069D01*
X218486456Y-47746586D01*
X218472138Y-47748710D01*
X218457680Y-47749420D01*
X218162680Y-47749420D01*
X218148222Y-47748710D01*
X218133904Y-47746586D01*
X218119863Y-47743069D01*
X218106234Y-47738192D01*
X218093149Y-47732003D01*
X218080733Y-47724562D01*
X218069107Y-47715939D01*
X218058382Y-47706218D01*
X218048661Y-47695493D01*
X218040038Y-47683867D01*
X218032597Y-47671451D01*
X218026408Y-47658366D01*
X218021531Y-47644737D01*
X218018014Y-47630696D01*
X218015890Y-47616378D01*
X218015180Y-47601920D01*
X218015180Y-47256920D01*
X218015890Y-47242462D01*
X218018014Y-47228144D01*
X218021531Y-47214103D01*
X218026408Y-47200474D01*
X218032597Y-47187389D01*
X218040038Y-47174973D01*
X218048661Y-47163347D01*
X218058382Y-47152622D01*
X218069107Y-47142901D01*
X218080733Y-47134278D01*
X218093149Y-47126837D01*
X218106234Y-47120648D01*
X218119863Y-47115771D01*
X218133904Y-47112254D01*
X218148222Y-47110130D01*
X218162680Y-47109420D01*
X218457680Y-47109420D01*
X218472138Y-47110130D01*
X218472138Y-47110130D01*
G37*
D22*
X218310180Y-47429420D03*
G04 #@! TD*
D10*
G04 #@! TO.C,L4*
G36*
X224468958Y-52192270D02*
X224483276Y-52194394D01*
X224497317Y-52197911D01*
X224510946Y-52202788D01*
X224524031Y-52208977D01*
X224536447Y-52216418D01*
X224548073Y-52225041D01*
X224558798Y-52234762D01*
X224568519Y-52245487D01*
X224577142Y-52257113D01*
X224584583Y-52269529D01*
X224590772Y-52282614D01*
X224595649Y-52296243D01*
X224599166Y-52310284D01*
X224601290Y-52324602D01*
X224602000Y-52339060D01*
X224602000Y-52634060D01*
X224601290Y-52648518D01*
X224599166Y-52662836D01*
X224595649Y-52676877D01*
X224590772Y-52690506D01*
X224584583Y-52703591D01*
X224577142Y-52716007D01*
X224568519Y-52727633D01*
X224558798Y-52738358D01*
X224548073Y-52748079D01*
X224536447Y-52756702D01*
X224524031Y-52764143D01*
X224510946Y-52770332D01*
X224497317Y-52775209D01*
X224483276Y-52778726D01*
X224468958Y-52780850D01*
X224454500Y-52781560D01*
X224109500Y-52781560D01*
X224095042Y-52780850D01*
X224080724Y-52778726D01*
X224066683Y-52775209D01*
X224053054Y-52770332D01*
X224039969Y-52764143D01*
X224027553Y-52756702D01*
X224015927Y-52748079D01*
X224005202Y-52738358D01*
X223995481Y-52727633D01*
X223986858Y-52716007D01*
X223979417Y-52703591D01*
X223973228Y-52690506D01*
X223968351Y-52676877D01*
X223964834Y-52662836D01*
X223962710Y-52648518D01*
X223962000Y-52634060D01*
X223962000Y-52339060D01*
X223962710Y-52324602D01*
X223964834Y-52310284D01*
X223968351Y-52296243D01*
X223973228Y-52282614D01*
X223979417Y-52269529D01*
X223986858Y-52257113D01*
X223995481Y-52245487D01*
X224005202Y-52234762D01*
X224015927Y-52225041D01*
X224027553Y-52216418D01*
X224039969Y-52208977D01*
X224053054Y-52202788D01*
X224066683Y-52197911D01*
X224080724Y-52194394D01*
X224095042Y-52192270D01*
X224109500Y-52191560D01*
X224454500Y-52191560D01*
X224468958Y-52192270D01*
X224468958Y-52192270D01*
G37*
D22*
X224282000Y-52486560D03*
D10*
G36*
X224468958Y-53162270D02*
X224483276Y-53164394D01*
X224497317Y-53167911D01*
X224510946Y-53172788D01*
X224524031Y-53178977D01*
X224536447Y-53186418D01*
X224548073Y-53195041D01*
X224558798Y-53204762D01*
X224568519Y-53215487D01*
X224577142Y-53227113D01*
X224584583Y-53239529D01*
X224590772Y-53252614D01*
X224595649Y-53266243D01*
X224599166Y-53280284D01*
X224601290Y-53294602D01*
X224602000Y-53309060D01*
X224602000Y-53604060D01*
X224601290Y-53618518D01*
X224599166Y-53632836D01*
X224595649Y-53646877D01*
X224590772Y-53660506D01*
X224584583Y-53673591D01*
X224577142Y-53686007D01*
X224568519Y-53697633D01*
X224558798Y-53708358D01*
X224548073Y-53718079D01*
X224536447Y-53726702D01*
X224524031Y-53734143D01*
X224510946Y-53740332D01*
X224497317Y-53745209D01*
X224483276Y-53748726D01*
X224468958Y-53750850D01*
X224454500Y-53751560D01*
X224109500Y-53751560D01*
X224095042Y-53750850D01*
X224080724Y-53748726D01*
X224066683Y-53745209D01*
X224053054Y-53740332D01*
X224039969Y-53734143D01*
X224027553Y-53726702D01*
X224015927Y-53718079D01*
X224005202Y-53708358D01*
X223995481Y-53697633D01*
X223986858Y-53686007D01*
X223979417Y-53673591D01*
X223973228Y-53660506D01*
X223968351Y-53646877D01*
X223964834Y-53632836D01*
X223962710Y-53618518D01*
X223962000Y-53604060D01*
X223962000Y-53309060D01*
X223962710Y-53294602D01*
X223964834Y-53280284D01*
X223968351Y-53266243D01*
X223973228Y-53252614D01*
X223979417Y-53239529D01*
X223986858Y-53227113D01*
X223995481Y-53215487D01*
X224005202Y-53204762D01*
X224015927Y-53195041D01*
X224027553Y-53186418D01*
X224039969Y-53178977D01*
X224053054Y-53172788D01*
X224066683Y-53167911D01*
X224080724Y-53164394D01*
X224095042Y-53162270D01*
X224109500Y-53161560D01*
X224454500Y-53161560D01*
X224468958Y-53162270D01*
X224468958Y-53162270D01*
G37*
D22*
X224282000Y-53456560D03*
G04 #@! TD*
D10*
G04 #@! TO.C,L5*
G36*
X224434078Y-50907430D02*
X224448396Y-50909554D01*
X224462437Y-50913071D01*
X224476066Y-50917948D01*
X224489151Y-50924137D01*
X224501567Y-50931578D01*
X224513193Y-50940201D01*
X224523918Y-50949922D01*
X224533639Y-50960647D01*
X224542262Y-50972273D01*
X224549703Y-50984689D01*
X224555892Y-50997774D01*
X224560769Y-51011403D01*
X224564286Y-51025444D01*
X224566410Y-51039762D01*
X224567120Y-51054220D01*
X224567120Y-51399220D01*
X224566410Y-51413678D01*
X224564286Y-51427996D01*
X224560769Y-51442037D01*
X224555892Y-51455666D01*
X224549703Y-51468751D01*
X224542262Y-51481167D01*
X224533639Y-51492793D01*
X224523918Y-51503518D01*
X224513193Y-51513239D01*
X224501567Y-51521862D01*
X224489151Y-51529303D01*
X224476066Y-51535492D01*
X224462437Y-51540369D01*
X224448396Y-51543886D01*
X224434078Y-51546010D01*
X224419620Y-51546720D01*
X224124620Y-51546720D01*
X224110162Y-51546010D01*
X224095844Y-51543886D01*
X224081803Y-51540369D01*
X224068174Y-51535492D01*
X224055089Y-51529303D01*
X224042673Y-51521862D01*
X224031047Y-51513239D01*
X224020322Y-51503518D01*
X224010601Y-51492793D01*
X224001978Y-51481167D01*
X223994537Y-51468751D01*
X223988348Y-51455666D01*
X223983471Y-51442037D01*
X223979954Y-51427996D01*
X223977830Y-51413678D01*
X223977120Y-51399220D01*
X223977120Y-51054220D01*
X223977830Y-51039762D01*
X223979954Y-51025444D01*
X223983471Y-51011403D01*
X223988348Y-50997774D01*
X223994537Y-50984689D01*
X224001978Y-50972273D01*
X224010601Y-50960647D01*
X224020322Y-50949922D01*
X224031047Y-50940201D01*
X224042673Y-50931578D01*
X224055089Y-50924137D01*
X224068174Y-50917948D01*
X224081803Y-50913071D01*
X224095844Y-50909554D01*
X224110162Y-50907430D01*
X224124620Y-50906720D01*
X224419620Y-50906720D01*
X224434078Y-50907430D01*
X224434078Y-50907430D01*
G37*
D22*
X224272120Y-51226720D03*
D10*
G36*
X225404078Y-50907430D02*
X225418396Y-50909554D01*
X225432437Y-50913071D01*
X225446066Y-50917948D01*
X225459151Y-50924137D01*
X225471567Y-50931578D01*
X225483193Y-50940201D01*
X225493918Y-50949922D01*
X225503639Y-50960647D01*
X225512262Y-50972273D01*
X225519703Y-50984689D01*
X225525892Y-50997774D01*
X225530769Y-51011403D01*
X225534286Y-51025444D01*
X225536410Y-51039762D01*
X225537120Y-51054220D01*
X225537120Y-51399220D01*
X225536410Y-51413678D01*
X225534286Y-51427996D01*
X225530769Y-51442037D01*
X225525892Y-51455666D01*
X225519703Y-51468751D01*
X225512262Y-51481167D01*
X225503639Y-51492793D01*
X225493918Y-51503518D01*
X225483193Y-51513239D01*
X225471567Y-51521862D01*
X225459151Y-51529303D01*
X225446066Y-51535492D01*
X225432437Y-51540369D01*
X225418396Y-51543886D01*
X225404078Y-51546010D01*
X225389620Y-51546720D01*
X225094620Y-51546720D01*
X225080162Y-51546010D01*
X225065844Y-51543886D01*
X225051803Y-51540369D01*
X225038174Y-51535492D01*
X225025089Y-51529303D01*
X225012673Y-51521862D01*
X225001047Y-51513239D01*
X224990322Y-51503518D01*
X224980601Y-51492793D01*
X224971978Y-51481167D01*
X224964537Y-51468751D01*
X224958348Y-51455666D01*
X224953471Y-51442037D01*
X224949954Y-51427996D01*
X224947830Y-51413678D01*
X224947120Y-51399220D01*
X224947120Y-51054220D01*
X224947830Y-51039762D01*
X224949954Y-51025444D01*
X224953471Y-51011403D01*
X224958348Y-50997774D01*
X224964537Y-50984689D01*
X224971978Y-50972273D01*
X224980601Y-50960647D01*
X224990322Y-50949922D01*
X225001047Y-50940201D01*
X225012673Y-50931578D01*
X225025089Y-50924137D01*
X225038174Y-50917948D01*
X225051803Y-50913071D01*
X225065844Y-50909554D01*
X225080162Y-50907430D01*
X225094620Y-50906720D01*
X225389620Y-50906720D01*
X225404078Y-50907430D01*
X225404078Y-50907430D01*
G37*
D22*
X225242120Y-51226720D03*
G04 #@! TD*
D10*
G04 #@! TO.C,C28*
G36*
X203038142Y-56387674D02*
X203061803Y-56391184D01*
X203085007Y-56396996D01*
X203107529Y-56405054D01*
X203129153Y-56415282D01*
X203149670Y-56427579D01*
X203168883Y-56441829D01*
X203186607Y-56457893D01*
X203202671Y-56475617D01*
X203216921Y-56494830D01*
X203229218Y-56515347D01*
X203239446Y-56536971D01*
X203247504Y-56559493D01*
X203253316Y-56582697D01*
X203256826Y-56606358D01*
X203258000Y-56630250D01*
X203258000Y-57542750D01*
X203256826Y-57566642D01*
X203253316Y-57590303D01*
X203247504Y-57613507D01*
X203239446Y-57636029D01*
X203229218Y-57657653D01*
X203216921Y-57678170D01*
X203202671Y-57697383D01*
X203186607Y-57715107D01*
X203168883Y-57731171D01*
X203149670Y-57745421D01*
X203129153Y-57757718D01*
X203107529Y-57767946D01*
X203085007Y-57776004D01*
X203061803Y-57781816D01*
X203038142Y-57785326D01*
X203014250Y-57786500D01*
X202526750Y-57786500D01*
X202502858Y-57785326D01*
X202479197Y-57781816D01*
X202455993Y-57776004D01*
X202433471Y-57767946D01*
X202411847Y-57757718D01*
X202391330Y-57745421D01*
X202372117Y-57731171D01*
X202354393Y-57715107D01*
X202338329Y-57697383D01*
X202324079Y-57678170D01*
X202311782Y-57657653D01*
X202301554Y-57636029D01*
X202293496Y-57613507D01*
X202287684Y-57590303D01*
X202284174Y-57566642D01*
X202283000Y-57542750D01*
X202283000Y-56630250D01*
X202284174Y-56606358D01*
X202287684Y-56582697D01*
X202293496Y-56559493D01*
X202301554Y-56536971D01*
X202311782Y-56515347D01*
X202324079Y-56494830D01*
X202338329Y-56475617D01*
X202354393Y-56457893D01*
X202372117Y-56441829D01*
X202391330Y-56427579D01*
X202411847Y-56415282D01*
X202433471Y-56405054D01*
X202455993Y-56396996D01*
X202479197Y-56391184D01*
X202502858Y-56387674D01*
X202526750Y-56386500D01*
X203014250Y-56386500D01*
X203038142Y-56387674D01*
X203038142Y-56387674D01*
G37*
D11*
X202770500Y-57086500D03*
D10*
G36*
X204913142Y-56387674D02*
X204936803Y-56391184D01*
X204960007Y-56396996D01*
X204982529Y-56405054D01*
X205004153Y-56415282D01*
X205024670Y-56427579D01*
X205043883Y-56441829D01*
X205061607Y-56457893D01*
X205077671Y-56475617D01*
X205091921Y-56494830D01*
X205104218Y-56515347D01*
X205114446Y-56536971D01*
X205122504Y-56559493D01*
X205128316Y-56582697D01*
X205131826Y-56606358D01*
X205133000Y-56630250D01*
X205133000Y-57542750D01*
X205131826Y-57566642D01*
X205128316Y-57590303D01*
X205122504Y-57613507D01*
X205114446Y-57636029D01*
X205104218Y-57657653D01*
X205091921Y-57678170D01*
X205077671Y-57697383D01*
X205061607Y-57715107D01*
X205043883Y-57731171D01*
X205024670Y-57745421D01*
X205004153Y-57757718D01*
X204982529Y-57767946D01*
X204960007Y-57776004D01*
X204936803Y-57781816D01*
X204913142Y-57785326D01*
X204889250Y-57786500D01*
X204401750Y-57786500D01*
X204377858Y-57785326D01*
X204354197Y-57781816D01*
X204330993Y-57776004D01*
X204308471Y-57767946D01*
X204286847Y-57757718D01*
X204266330Y-57745421D01*
X204247117Y-57731171D01*
X204229393Y-57715107D01*
X204213329Y-57697383D01*
X204199079Y-57678170D01*
X204186782Y-57657653D01*
X204176554Y-57636029D01*
X204168496Y-57613507D01*
X204162684Y-57590303D01*
X204159174Y-57566642D01*
X204158000Y-57542750D01*
X204158000Y-56630250D01*
X204159174Y-56606358D01*
X204162684Y-56582697D01*
X204168496Y-56559493D01*
X204176554Y-56536971D01*
X204186782Y-56515347D01*
X204199079Y-56494830D01*
X204213329Y-56475617D01*
X204229393Y-56457893D01*
X204247117Y-56441829D01*
X204266330Y-56427579D01*
X204286847Y-56415282D01*
X204308471Y-56405054D01*
X204330993Y-56396996D01*
X204354197Y-56391184D01*
X204377858Y-56387674D01*
X204401750Y-56386500D01*
X204889250Y-56386500D01*
X204913142Y-56387674D01*
X204913142Y-56387674D01*
G37*
D11*
X204645500Y-57086500D03*
G04 #@! TD*
D10*
G04 #@! TO.C,C30*
G36*
X211928142Y-62750374D02*
X211951803Y-62753884D01*
X211975007Y-62759696D01*
X211997529Y-62767754D01*
X212019153Y-62777982D01*
X212039670Y-62790279D01*
X212058883Y-62804529D01*
X212076607Y-62820593D01*
X212092671Y-62838317D01*
X212106921Y-62857530D01*
X212119218Y-62878047D01*
X212129446Y-62899671D01*
X212137504Y-62922193D01*
X212143316Y-62945397D01*
X212146826Y-62969058D01*
X212148000Y-62992950D01*
X212148000Y-63905450D01*
X212146826Y-63929342D01*
X212143316Y-63953003D01*
X212137504Y-63976207D01*
X212129446Y-63998729D01*
X212119218Y-64020353D01*
X212106921Y-64040870D01*
X212092671Y-64060083D01*
X212076607Y-64077807D01*
X212058883Y-64093871D01*
X212039670Y-64108121D01*
X212019153Y-64120418D01*
X211997529Y-64130646D01*
X211975007Y-64138704D01*
X211951803Y-64144516D01*
X211928142Y-64148026D01*
X211904250Y-64149200D01*
X211416750Y-64149200D01*
X211392858Y-64148026D01*
X211369197Y-64144516D01*
X211345993Y-64138704D01*
X211323471Y-64130646D01*
X211301847Y-64120418D01*
X211281330Y-64108121D01*
X211262117Y-64093871D01*
X211244393Y-64077807D01*
X211228329Y-64060083D01*
X211214079Y-64040870D01*
X211201782Y-64020353D01*
X211191554Y-63998729D01*
X211183496Y-63976207D01*
X211177684Y-63953003D01*
X211174174Y-63929342D01*
X211173000Y-63905450D01*
X211173000Y-62992950D01*
X211174174Y-62969058D01*
X211177684Y-62945397D01*
X211183496Y-62922193D01*
X211191554Y-62899671D01*
X211201782Y-62878047D01*
X211214079Y-62857530D01*
X211228329Y-62838317D01*
X211244393Y-62820593D01*
X211262117Y-62804529D01*
X211281330Y-62790279D01*
X211301847Y-62777982D01*
X211323471Y-62767754D01*
X211345993Y-62759696D01*
X211369197Y-62753884D01*
X211392858Y-62750374D01*
X211416750Y-62749200D01*
X211904250Y-62749200D01*
X211928142Y-62750374D01*
X211928142Y-62750374D01*
G37*
D11*
X211660500Y-63449200D03*
D10*
G36*
X213803142Y-62750374D02*
X213826803Y-62753884D01*
X213850007Y-62759696D01*
X213872529Y-62767754D01*
X213894153Y-62777982D01*
X213914670Y-62790279D01*
X213933883Y-62804529D01*
X213951607Y-62820593D01*
X213967671Y-62838317D01*
X213981921Y-62857530D01*
X213994218Y-62878047D01*
X214004446Y-62899671D01*
X214012504Y-62922193D01*
X214018316Y-62945397D01*
X214021826Y-62969058D01*
X214023000Y-62992950D01*
X214023000Y-63905450D01*
X214021826Y-63929342D01*
X214018316Y-63953003D01*
X214012504Y-63976207D01*
X214004446Y-63998729D01*
X213994218Y-64020353D01*
X213981921Y-64040870D01*
X213967671Y-64060083D01*
X213951607Y-64077807D01*
X213933883Y-64093871D01*
X213914670Y-64108121D01*
X213894153Y-64120418D01*
X213872529Y-64130646D01*
X213850007Y-64138704D01*
X213826803Y-64144516D01*
X213803142Y-64148026D01*
X213779250Y-64149200D01*
X213291750Y-64149200D01*
X213267858Y-64148026D01*
X213244197Y-64144516D01*
X213220993Y-64138704D01*
X213198471Y-64130646D01*
X213176847Y-64120418D01*
X213156330Y-64108121D01*
X213137117Y-64093871D01*
X213119393Y-64077807D01*
X213103329Y-64060083D01*
X213089079Y-64040870D01*
X213076782Y-64020353D01*
X213066554Y-63998729D01*
X213058496Y-63976207D01*
X213052684Y-63953003D01*
X213049174Y-63929342D01*
X213048000Y-63905450D01*
X213048000Y-62992950D01*
X213049174Y-62969058D01*
X213052684Y-62945397D01*
X213058496Y-62922193D01*
X213066554Y-62899671D01*
X213076782Y-62878047D01*
X213089079Y-62857530D01*
X213103329Y-62838317D01*
X213119393Y-62820593D01*
X213137117Y-62804529D01*
X213156330Y-62790279D01*
X213176847Y-62777982D01*
X213198471Y-62767754D01*
X213220993Y-62759696D01*
X213244197Y-62753884D01*
X213267858Y-62750374D01*
X213291750Y-62749200D01*
X213779250Y-62749200D01*
X213803142Y-62750374D01*
X213803142Y-62750374D01*
G37*
D11*
X213535500Y-63449200D03*
G04 #@! TD*
D10*
G04 #@! TO.C,D3*
G36*
X218121142Y-62242374D02*
X218144803Y-62245884D01*
X218168007Y-62251696D01*
X218190529Y-62259754D01*
X218212153Y-62269982D01*
X218232670Y-62282279D01*
X218251883Y-62296529D01*
X218269607Y-62312593D01*
X218285671Y-62330317D01*
X218299921Y-62349530D01*
X218312218Y-62370047D01*
X218322446Y-62391671D01*
X218330504Y-62414193D01*
X218336316Y-62437397D01*
X218339826Y-62461058D01*
X218341000Y-62484950D01*
X218341000Y-63397450D01*
X218339826Y-63421342D01*
X218336316Y-63445003D01*
X218330504Y-63468207D01*
X218322446Y-63490729D01*
X218312218Y-63512353D01*
X218299921Y-63532870D01*
X218285671Y-63552083D01*
X218269607Y-63569807D01*
X218251883Y-63585871D01*
X218232670Y-63600121D01*
X218212153Y-63612418D01*
X218190529Y-63622646D01*
X218168007Y-63630704D01*
X218144803Y-63636516D01*
X218121142Y-63640026D01*
X218097250Y-63641200D01*
X217609750Y-63641200D01*
X217585858Y-63640026D01*
X217562197Y-63636516D01*
X217538993Y-63630704D01*
X217516471Y-63622646D01*
X217494847Y-63612418D01*
X217474330Y-63600121D01*
X217455117Y-63585871D01*
X217437393Y-63569807D01*
X217421329Y-63552083D01*
X217407079Y-63532870D01*
X217394782Y-63512353D01*
X217384554Y-63490729D01*
X217376496Y-63468207D01*
X217370684Y-63445003D01*
X217367174Y-63421342D01*
X217366000Y-63397450D01*
X217366000Y-62484950D01*
X217367174Y-62461058D01*
X217370684Y-62437397D01*
X217376496Y-62414193D01*
X217384554Y-62391671D01*
X217394782Y-62370047D01*
X217407079Y-62349530D01*
X217421329Y-62330317D01*
X217437393Y-62312593D01*
X217455117Y-62296529D01*
X217474330Y-62282279D01*
X217494847Y-62269982D01*
X217516471Y-62259754D01*
X217538993Y-62251696D01*
X217562197Y-62245884D01*
X217585858Y-62242374D01*
X217609750Y-62241200D01*
X218097250Y-62241200D01*
X218121142Y-62242374D01*
X218121142Y-62242374D01*
G37*
D11*
X217853500Y-62941200D03*
D10*
G36*
X216246142Y-62242374D02*
X216269803Y-62245884D01*
X216293007Y-62251696D01*
X216315529Y-62259754D01*
X216337153Y-62269982D01*
X216357670Y-62282279D01*
X216376883Y-62296529D01*
X216394607Y-62312593D01*
X216410671Y-62330317D01*
X216424921Y-62349530D01*
X216437218Y-62370047D01*
X216447446Y-62391671D01*
X216455504Y-62414193D01*
X216461316Y-62437397D01*
X216464826Y-62461058D01*
X216466000Y-62484950D01*
X216466000Y-63397450D01*
X216464826Y-63421342D01*
X216461316Y-63445003D01*
X216455504Y-63468207D01*
X216447446Y-63490729D01*
X216437218Y-63512353D01*
X216424921Y-63532870D01*
X216410671Y-63552083D01*
X216394607Y-63569807D01*
X216376883Y-63585871D01*
X216357670Y-63600121D01*
X216337153Y-63612418D01*
X216315529Y-63622646D01*
X216293007Y-63630704D01*
X216269803Y-63636516D01*
X216246142Y-63640026D01*
X216222250Y-63641200D01*
X215734750Y-63641200D01*
X215710858Y-63640026D01*
X215687197Y-63636516D01*
X215663993Y-63630704D01*
X215641471Y-63622646D01*
X215619847Y-63612418D01*
X215599330Y-63600121D01*
X215580117Y-63585871D01*
X215562393Y-63569807D01*
X215546329Y-63552083D01*
X215532079Y-63532870D01*
X215519782Y-63512353D01*
X215509554Y-63490729D01*
X215501496Y-63468207D01*
X215495684Y-63445003D01*
X215492174Y-63421342D01*
X215491000Y-63397450D01*
X215491000Y-62484950D01*
X215492174Y-62461058D01*
X215495684Y-62437397D01*
X215501496Y-62414193D01*
X215509554Y-62391671D01*
X215519782Y-62370047D01*
X215532079Y-62349530D01*
X215546329Y-62330317D01*
X215562393Y-62312593D01*
X215580117Y-62296529D01*
X215599330Y-62282279D01*
X215619847Y-62269982D01*
X215641471Y-62259754D01*
X215663993Y-62251696D01*
X215687197Y-62245884D01*
X215710858Y-62242374D01*
X215734750Y-62241200D01*
X216222250Y-62241200D01*
X216246142Y-62242374D01*
X216246142Y-62242374D01*
G37*
D11*
X215978500Y-62941200D03*
G04 #@! TD*
D23*
G04 #@! TO.C,J4*
X196777200Y-62201600D03*
D24*
X199927200Y-59051600D03*
X199927200Y-59701600D03*
X199927200Y-60351600D03*
X199927200Y-61001600D03*
X199927200Y-61651600D03*
D23*
X196777200Y-58516600D03*
G04 #@! TD*
D10*
G04 #@! TO.C,R1*
G36*
X206712779Y-55788144D02*
X206735834Y-55791563D01*
X206758443Y-55797227D01*
X206780387Y-55805079D01*
X206801457Y-55815044D01*
X206821448Y-55827026D01*
X206840168Y-55840910D01*
X206857438Y-55856562D01*
X206873090Y-55873832D01*
X206886974Y-55892552D01*
X206898956Y-55912543D01*
X206908921Y-55933613D01*
X206916773Y-55955557D01*
X206922437Y-55978166D01*
X206925856Y-56001221D01*
X206927000Y-56024500D01*
X206927000Y-56599500D01*
X206925856Y-56622779D01*
X206922437Y-56645834D01*
X206916773Y-56668443D01*
X206908921Y-56690387D01*
X206898956Y-56711457D01*
X206886974Y-56731448D01*
X206873090Y-56750168D01*
X206857438Y-56767438D01*
X206840168Y-56783090D01*
X206821448Y-56796974D01*
X206801457Y-56808956D01*
X206780387Y-56818921D01*
X206758443Y-56826773D01*
X206735834Y-56832437D01*
X206712779Y-56835856D01*
X206689500Y-56837000D01*
X206214500Y-56837000D01*
X206191221Y-56835856D01*
X206168166Y-56832437D01*
X206145557Y-56826773D01*
X206123613Y-56818921D01*
X206102543Y-56808956D01*
X206082552Y-56796974D01*
X206063832Y-56783090D01*
X206046562Y-56767438D01*
X206030910Y-56750168D01*
X206017026Y-56731448D01*
X206005044Y-56711457D01*
X205995079Y-56690387D01*
X205987227Y-56668443D01*
X205981563Y-56645834D01*
X205978144Y-56622779D01*
X205977000Y-56599500D01*
X205977000Y-56024500D01*
X205978144Y-56001221D01*
X205981563Y-55978166D01*
X205987227Y-55955557D01*
X205995079Y-55933613D01*
X206005044Y-55912543D01*
X206017026Y-55892552D01*
X206030910Y-55873832D01*
X206046562Y-55856562D01*
X206063832Y-55840910D01*
X206082552Y-55827026D01*
X206102543Y-55815044D01*
X206123613Y-55805079D01*
X206145557Y-55797227D01*
X206168166Y-55791563D01*
X206191221Y-55788144D01*
X206214500Y-55787000D01*
X206689500Y-55787000D01*
X206712779Y-55788144D01*
X206712779Y-55788144D01*
G37*
D25*
X206452000Y-56312000D03*
D10*
G36*
X206712779Y-54038144D02*
X206735834Y-54041563D01*
X206758443Y-54047227D01*
X206780387Y-54055079D01*
X206801457Y-54065044D01*
X206821448Y-54077026D01*
X206840168Y-54090910D01*
X206857438Y-54106562D01*
X206873090Y-54123832D01*
X206886974Y-54142552D01*
X206898956Y-54162543D01*
X206908921Y-54183613D01*
X206916773Y-54205557D01*
X206922437Y-54228166D01*
X206925856Y-54251221D01*
X206927000Y-54274500D01*
X206927000Y-54849500D01*
X206925856Y-54872779D01*
X206922437Y-54895834D01*
X206916773Y-54918443D01*
X206908921Y-54940387D01*
X206898956Y-54961457D01*
X206886974Y-54981448D01*
X206873090Y-55000168D01*
X206857438Y-55017438D01*
X206840168Y-55033090D01*
X206821448Y-55046974D01*
X206801457Y-55058956D01*
X206780387Y-55068921D01*
X206758443Y-55076773D01*
X206735834Y-55082437D01*
X206712779Y-55085856D01*
X206689500Y-55087000D01*
X206214500Y-55087000D01*
X206191221Y-55085856D01*
X206168166Y-55082437D01*
X206145557Y-55076773D01*
X206123613Y-55068921D01*
X206102543Y-55058956D01*
X206082552Y-55046974D01*
X206063832Y-55033090D01*
X206046562Y-55017438D01*
X206030910Y-55000168D01*
X206017026Y-54981448D01*
X206005044Y-54961457D01*
X205995079Y-54940387D01*
X205987227Y-54918443D01*
X205981563Y-54895834D01*
X205978144Y-54872779D01*
X205977000Y-54849500D01*
X205977000Y-54274500D01*
X205978144Y-54251221D01*
X205981563Y-54228166D01*
X205987227Y-54205557D01*
X205995079Y-54183613D01*
X206005044Y-54162543D01*
X206017026Y-54142552D01*
X206030910Y-54123832D01*
X206046562Y-54106562D01*
X206063832Y-54090910D01*
X206082552Y-54077026D01*
X206102543Y-54065044D01*
X206123613Y-54055079D01*
X206145557Y-54047227D01*
X206168166Y-54041563D01*
X206191221Y-54038144D01*
X206214500Y-54037000D01*
X206689500Y-54037000D01*
X206712779Y-54038144D01*
X206712779Y-54038144D01*
G37*
D25*
X206452000Y-54562000D03*
G04 #@! TD*
D10*
G04 #@! TO.C,R7*
G36*
X209150379Y-55824744D02*
X209173434Y-55828163D01*
X209196043Y-55833827D01*
X209217987Y-55841679D01*
X209239057Y-55851644D01*
X209259048Y-55863626D01*
X209277768Y-55877510D01*
X209295038Y-55893162D01*
X209310690Y-55910432D01*
X209324574Y-55929152D01*
X209336556Y-55949143D01*
X209346521Y-55970213D01*
X209354373Y-55992157D01*
X209360037Y-56014766D01*
X209363456Y-56037821D01*
X209364600Y-56061100D01*
X209364600Y-56636100D01*
X209363456Y-56659379D01*
X209360037Y-56682434D01*
X209354373Y-56705043D01*
X209346521Y-56726987D01*
X209336556Y-56748057D01*
X209324574Y-56768048D01*
X209310690Y-56786768D01*
X209295038Y-56804038D01*
X209277768Y-56819690D01*
X209259048Y-56833574D01*
X209239057Y-56845556D01*
X209217987Y-56855521D01*
X209196043Y-56863373D01*
X209173434Y-56869037D01*
X209150379Y-56872456D01*
X209127100Y-56873600D01*
X208652100Y-56873600D01*
X208628821Y-56872456D01*
X208605766Y-56869037D01*
X208583157Y-56863373D01*
X208561213Y-56855521D01*
X208540143Y-56845556D01*
X208520152Y-56833574D01*
X208501432Y-56819690D01*
X208484162Y-56804038D01*
X208468510Y-56786768D01*
X208454626Y-56768048D01*
X208442644Y-56748057D01*
X208432679Y-56726987D01*
X208424827Y-56705043D01*
X208419163Y-56682434D01*
X208415744Y-56659379D01*
X208414600Y-56636100D01*
X208414600Y-56061100D01*
X208415744Y-56037821D01*
X208419163Y-56014766D01*
X208424827Y-55992157D01*
X208432679Y-55970213D01*
X208442644Y-55949143D01*
X208454626Y-55929152D01*
X208468510Y-55910432D01*
X208484162Y-55893162D01*
X208501432Y-55877510D01*
X208520152Y-55863626D01*
X208540143Y-55851644D01*
X208561213Y-55841679D01*
X208583157Y-55833827D01*
X208605766Y-55828163D01*
X208628821Y-55824744D01*
X208652100Y-55823600D01*
X209127100Y-55823600D01*
X209150379Y-55824744D01*
X209150379Y-55824744D01*
G37*
D25*
X208889600Y-56348600D03*
D10*
G36*
X209150379Y-54074744D02*
X209173434Y-54078163D01*
X209196043Y-54083827D01*
X209217987Y-54091679D01*
X209239057Y-54101644D01*
X209259048Y-54113626D01*
X209277768Y-54127510D01*
X209295038Y-54143162D01*
X209310690Y-54160432D01*
X209324574Y-54179152D01*
X209336556Y-54199143D01*
X209346521Y-54220213D01*
X209354373Y-54242157D01*
X209360037Y-54264766D01*
X209363456Y-54287821D01*
X209364600Y-54311100D01*
X209364600Y-54886100D01*
X209363456Y-54909379D01*
X209360037Y-54932434D01*
X209354373Y-54955043D01*
X209346521Y-54976987D01*
X209336556Y-54998057D01*
X209324574Y-55018048D01*
X209310690Y-55036768D01*
X209295038Y-55054038D01*
X209277768Y-55069690D01*
X209259048Y-55083574D01*
X209239057Y-55095556D01*
X209217987Y-55105521D01*
X209196043Y-55113373D01*
X209173434Y-55119037D01*
X209150379Y-55122456D01*
X209127100Y-55123600D01*
X208652100Y-55123600D01*
X208628821Y-55122456D01*
X208605766Y-55119037D01*
X208583157Y-55113373D01*
X208561213Y-55105521D01*
X208540143Y-55095556D01*
X208520152Y-55083574D01*
X208501432Y-55069690D01*
X208484162Y-55054038D01*
X208468510Y-55036768D01*
X208454626Y-55018048D01*
X208442644Y-54998057D01*
X208432679Y-54976987D01*
X208424827Y-54955043D01*
X208419163Y-54932434D01*
X208415744Y-54909379D01*
X208414600Y-54886100D01*
X208414600Y-54311100D01*
X208415744Y-54287821D01*
X208419163Y-54264766D01*
X208424827Y-54242157D01*
X208432679Y-54220213D01*
X208442644Y-54199143D01*
X208454626Y-54179152D01*
X208468510Y-54160432D01*
X208484162Y-54143162D01*
X208501432Y-54127510D01*
X208520152Y-54113626D01*
X208540143Y-54101644D01*
X208561213Y-54091679D01*
X208583157Y-54083827D01*
X208605766Y-54078163D01*
X208628821Y-54074744D01*
X208652100Y-54073600D01*
X209127100Y-54073600D01*
X209150379Y-54074744D01*
X209150379Y-54074744D01*
G37*
D25*
X208889600Y-54598600D03*
G04 #@! TD*
D10*
G04 #@! TO.C,R8*
G36*
X218412142Y-58469374D02*
X218435803Y-58472884D01*
X218459007Y-58478696D01*
X218481529Y-58486754D01*
X218503153Y-58496982D01*
X218523670Y-58509279D01*
X218542883Y-58523529D01*
X218560607Y-58539593D01*
X218576671Y-58557317D01*
X218590921Y-58576530D01*
X218603218Y-58597047D01*
X218613446Y-58618671D01*
X218621504Y-58641193D01*
X218627316Y-58664397D01*
X218630826Y-58688058D01*
X218632000Y-58711950D01*
X218632000Y-59199450D01*
X218630826Y-59223342D01*
X218627316Y-59247003D01*
X218621504Y-59270207D01*
X218613446Y-59292729D01*
X218603218Y-59314353D01*
X218590921Y-59334870D01*
X218576671Y-59354083D01*
X218560607Y-59371807D01*
X218542883Y-59387871D01*
X218523670Y-59402121D01*
X218503153Y-59414418D01*
X218481529Y-59424646D01*
X218459007Y-59432704D01*
X218435803Y-59438516D01*
X218412142Y-59442026D01*
X218388250Y-59443200D01*
X217475750Y-59443200D01*
X217451858Y-59442026D01*
X217428197Y-59438516D01*
X217404993Y-59432704D01*
X217382471Y-59424646D01*
X217360847Y-59414418D01*
X217340330Y-59402121D01*
X217321117Y-59387871D01*
X217303393Y-59371807D01*
X217287329Y-59354083D01*
X217273079Y-59334870D01*
X217260782Y-59314353D01*
X217250554Y-59292729D01*
X217242496Y-59270207D01*
X217236684Y-59247003D01*
X217233174Y-59223342D01*
X217232000Y-59199450D01*
X217232000Y-58711950D01*
X217233174Y-58688058D01*
X217236684Y-58664397D01*
X217242496Y-58641193D01*
X217250554Y-58618671D01*
X217260782Y-58597047D01*
X217273079Y-58576530D01*
X217287329Y-58557317D01*
X217303393Y-58539593D01*
X217321117Y-58523529D01*
X217340330Y-58509279D01*
X217360847Y-58496982D01*
X217382471Y-58486754D01*
X217404993Y-58478696D01*
X217428197Y-58472884D01*
X217451858Y-58469374D01*
X217475750Y-58468200D01*
X218388250Y-58468200D01*
X218412142Y-58469374D01*
X218412142Y-58469374D01*
G37*
D11*
X217932000Y-58955700D03*
D10*
G36*
X218412142Y-60344374D02*
X218435803Y-60347884D01*
X218459007Y-60353696D01*
X218481529Y-60361754D01*
X218503153Y-60371982D01*
X218523670Y-60384279D01*
X218542883Y-60398529D01*
X218560607Y-60414593D01*
X218576671Y-60432317D01*
X218590921Y-60451530D01*
X218603218Y-60472047D01*
X218613446Y-60493671D01*
X218621504Y-60516193D01*
X218627316Y-60539397D01*
X218630826Y-60563058D01*
X218632000Y-60586950D01*
X218632000Y-61074450D01*
X218630826Y-61098342D01*
X218627316Y-61122003D01*
X218621504Y-61145207D01*
X218613446Y-61167729D01*
X218603218Y-61189353D01*
X218590921Y-61209870D01*
X218576671Y-61229083D01*
X218560607Y-61246807D01*
X218542883Y-61262871D01*
X218523670Y-61277121D01*
X218503153Y-61289418D01*
X218481529Y-61299646D01*
X218459007Y-61307704D01*
X218435803Y-61313516D01*
X218412142Y-61317026D01*
X218388250Y-61318200D01*
X217475750Y-61318200D01*
X217451858Y-61317026D01*
X217428197Y-61313516D01*
X217404993Y-61307704D01*
X217382471Y-61299646D01*
X217360847Y-61289418D01*
X217340330Y-61277121D01*
X217321117Y-61262871D01*
X217303393Y-61246807D01*
X217287329Y-61229083D01*
X217273079Y-61209870D01*
X217260782Y-61189353D01*
X217250554Y-61167729D01*
X217242496Y-61145207D01*
X217236684Y-61122003D01*
X217233174Y-61098342D01*
X217232000Y-61074450D01*
X217232000Y-60586950D01*
X217233174Y-60563058D01*
X217236684Y-60539397D01*
X217242496Y-60516193D01*
X217250554Y-60493671D01*
X217260782Y-60472047D01*
X217273079Y-60451530D01*
X217287329Y-60432317D01*
X217303393Y-60414593D01*
X217321117Y-60398529D01*
X217340330Y-60384279D01*
X217360847Y-60371982D01*
X217382471Y-60361754D01*
X217404993Y-60353696D01*
X217428197Y-60347884D01*
X217451858Y-60344374D01*
X217475750Y-60343200D01*
X218388250Y-60343200D01*
X218412142Y-60344374D01*
X218412142Y-60344374D01*
G37*
D11*
X217932000Y-60830700D03*
G04 #@! TD*
D26*
G04 #@! TO.C,U5*
X215426800Y-59515800D03*
X215426800Y-59065800D03*
X215426800Y-58615800D03*
X215426800Y-59965800D03*
X215426800Y-60415800D03*
X215426800Y-60865800D03*
X212626800Y-60865800D03*
X212626800Y-60415800D03*
X212626800Y-59965800D03*
X212626800Y-58615800D03*
X212626800Y-59065800D03*
X212626800Y-59515800D03*
D27*
X214026800Y-59740800D03*
G04 #@! TD*
D28*
G04 #@! TO.C,Y2*
X202381200Y-45059600D03*
X205181200Y-45059600D03*
G04 #@! TD*
M02*
