G04 #@! TF.GenerationSoftware,KiCad,Pcbnew,(5.0.1)-rc2*
G04 #@! TF.CreationDate,2018-11-18T17:10:58-07:00*
G04 #@! TF.ProjectId,RPI_zeroW_shield,5250495F7A65726F575F736869656C64,rev?*
G04 #@! TF.SameCoordinates,Original*
G04 #@! TF.FileFunction,Legend,Bot*
G04 #@! TF.FilePolarity,Positive*
%FSLAX46Y46*%
G04 Gerber Fmt 4.6, Leading zero omitted, Abs format (unit mm)*
G04 Created by KiCad (PCBNEW (5.0.1)-rc2) date 11/18/2018 5:10:58 PM*
%MOMM*%
%LPD*%
G01*
G04 APERTURE LIST*
%ADD10C,0.200000*%
%ADD11C,0.120000*%
%ADD12C,0.066040*%
%ADD13C,0.150000*%
%ADD14C,0.127000*%
G04 APERTURE END LIST*
D10*
X125603000Y-74422000D02*
X125222000Y-73660000D01*
X124968000Y-74422000D02*
X125603000Y-74422000D01*
X125222000Y-73660000D02*
X124968000Y-74422000D01*
X125857000Y-73660000D02*
X125222000Y-73660000D01*
X124714000Y-73660000D02*
X125857000Y-73660000D01*
D11*
G04 #@! TO.C,D1*
X122594000Y-72268000D02*
X124294000Y-72268000D01*
X124294000Y-72268000D02*
X124294000Y-75418000D01*
X122594000Y-72268000D02*
X122594000Y-75418000D01*
D12*
G04 #@! TO.C,R2*
X138066780Y-70030340D02*
X138066780Y-70426580D01*
X138066780Y-70426580D02*
X137269220Y-70426580D01*
X137269220Y-70030340D02*
X137269220Y-70426580D01*
X138066780Y-70030340D02*
X137269220Y-70030340D01*
G04 #@! TO.C,R3*
X134221220Y-73858120D02*
X134221220Y-73461880D01*
X134221220Y-73461880D02*
X135018780Y-73461880D01*
X135018780Y-73858120D02*
X135018780Y-73461880D01*
X134221220Y-73858120D02*
X135018780Y-73858120D01*
G04 #@! TO.C,D1*
D13*
X122046380Y-73429904D02*
X121046380Y-73429904D01*
X121046380Y-73668000D01*
X121094000Y-73810857D01*
X121189238Y-73906095D01*
X121284476Y-73953714D01*
X121474952Y-74001333D01*
X121617809Y-74001333D01*
X121808285Y-73953714D01*
X121903523Y-73906095D01*
X121998761Y-73810857D01*
X122046380Y-73668000D01*
X122046380Y-73429904D01*
X122046380Y-74953714D02*
X122046380Y-74382285D01*
X122046380Y-74668000D02*
X121046380Y-74668000D01*
X121189238Y-74572761D01*
X121284476Y-74477523D01*
X121332095Y-74382285D01*
G04 #@! TO.C,R2*
D14*
X136292771Y-70126860D02*
X136002485Y-69923660D01*
X136292771Y-69778517D02*
X135683171Y-69778517D01*
X135683171Y-70010745D01*
X135712200Y-70068802D01*
X135741228Y-70097831D01*
X135799285Y-70126860D01*
X135886371Y-70126860D01*
X135944428Y-70097831D01*
X135973457Y-70068802D01*
X136002485Y-70010745D01*
X136002485Y-69778517D01*
X135741228Y-70359088D02*
X135712200Y-70388117D01*
X135683171Y-70446174D01*
X135683171Y-70591317D01*
X135712200Y-70649374D01*
X135741228Y-70678402D01*
X135799285Y-70707431D01*
X135857342Y-70707431D01*
X135944428Y-70678402D01*
X136292771Y-70330060D01*
X136292771Y-70707431D01*
X139594771Y-70417145D02*
X139304485Y-70213945D01*
X139594771Y-70068802D02*
X138985171Y-70068802D01*
X138985171Y-70301031D01*
X139014200Y-70359088D01*
X139043228Y-70388117D01*
X139101285Y-70417145D01*
X139188371Y-70417145D01*
X139246428Y-70388117D01*
X139275457Y-70359088D01*
X139304485Y-70301031D01*
X139304485Y-70068802D01*
G04 #@! TO.C,R3*
X136546771Y-73558400D02*
X136256485Y-73355200D01*
X136546771Y-73210057D02*
X135937171Y-73210057D01*
X135937171Y-73442285D01*
X135966200Y-73500342D01*
X135995228Y-73529371D01*
X136053285Y-73558400D01*
X136140371Y-73558400D01*
X136198428Y-73529371D01*
X136227457Y-73500342D01*
X136256485Y-73442285D01*
X136256485Y-73210057D01*
X135937171Y-73761600D02*
X135937171Y-74138971D01*
X136169400Y-73935771D01*
X136169400Y-74022857D01*
X136198428Y-74080914D01*
X136227457Y-74109942D01*
X136285514Y-74138971D01*
X136430657Y-74138971D01*
X136488714Y-74109942D01*
X136517742Y-74080914D01*
X136546771Y-74022857D01*
X136546771Y-73848685D01*
X136517742Y-73790628D01*
X136488714Y-73761600D01*
X133244771Y-73848685D02*
X132954485Y-73645485D01*
X133244771Y-73500342D02*
X132635171Y-73500342D01*
X132635171Y-73732571D01*
X132664200Y-73790628D01*
X132693228Y-73819657D01*
X132751285Y-73848685D01*
X132838371Y-73848685D01*
X132896428Y-73819657D01*
X132925457Y-73790628D01*
X132954485Y-73732571D01*
X132954485Y-73500342D01*
G04 #@! TD*
M02*
