G04 #@! TF.GenerationSoftware,KiCad,Pcbnew,(5.0.1)-rc2*
G04 #@! TF.CreationDate,2018-11-18T21:24:52-07:00*
G04 #@! TF.ProjectId,GPSLogger,4750534C6F676765722E6B696361645F,rev?*
G04 #@! TF.SameCoordinates,Original*
G04 #@! TF.FileFunction,Soldermask,Top*
G04 #@! TF.FilePolarity,Negative*
%FSLAX46Y46*%
G04 Gerber Fmt 4.6, Leading zero omitted, Abs format (unit mm)*
G04 Created by KiCad (PCBNEW (5.0.1)-rc2) date 11/18/2018 9:24:52 PM*
%MOMM*%
%LPD*%
G01*
G04 APERTURE LIST*
%ADD10C,0.100000*%
G04 APERTURE END LIST*
D10*
G36*
X161728000Y-94646000D02*
X159328000Y-94646000D01*
X159328000Y-81246000D01*
X161728000Y-81246000D01*
X161728000Y-94646000D01*
X161728000Y-94646000D01*
G37*
G36*
X152128000Y-94646000D02*
X149728000Y-94646000D01*
X149728000Y-81246000D01*
X152128000Y-81246000D01*
X152128000Y-94646000D01*
X152128000Y-94646000D01*
G37*
G36*
X133796000Y-94446000D02*
X132396000Y-94446000D01*
X132396000Y-92546000D01*
X133796000Y-92546000D01*
X133796000Y-94446000D01*
X133796000Y-94446000D01*
G37*
G36*
X139796000Y-94446000D02*
X138396000Y-94446000D01*
X138396000Y-92546000D01*
X139796000Y-92546000D01*
X139796000Y-94446000D01*
X139796000Y-94446000D01*
G37*
G36*
X149009000Y-93637000D02*
X147409000Y-93637000D01*
X147409000Y-92037000D01*
X149009000Y-92037000D01*
X149009000Y-93637000D01*
X149009000Y-93637000D01*
G37*
G36*
X146809000Y-93637000D02*
X145209000Y-93637000D01*
X145209000Y-92037000D01*
X146809000Y-92037000D01*
X146809000Y-93637000D01*
X146809000Y-93637000D01*
G37*
G36*
X142321000Y-93573500D02*
X140721000Y-93573500D01*
X140721000Y-91973500D01*
X142321000Y-91973500D01*
X142321000Y-93573500D01*
X142321000Y-93573500D01*
G37*
G36*
X144521000Y-93573500D02*
X142921000Y-93573500D01*
X142921000Y-91973500D01*
X144521000Y-91973500D01*
X144521000Y-93573500D01*
X144521000Y-93573500D01*
G37*
G36*
X139892000Y-90842000D02*
X138492000Y-90842000D01*
X138492000Y-88942000D01*
X139892000Y-88942000D01*
X139892000Y-90842000D01*
X139892000Y-90842000D01*
G37*
G36*
X133892000Y-90842000D02*
X132492000Y-90842000D01*
X132492000Y-88942000D01*
X133892000Y-88942000D01*
X133892000Y-90842000D01*
X133892000Y-90842000D01*
G37*
G36*
X142448000Y-90716000D02*
X140848000Y-90716000D01*
X140848000Y-89116000D01*
X142448000Y-89116000D01*
X142448000Y-90716000D01*
X142448000Y-90716000D01*
G37*
G36*
X148966000Y-90716000D02*
X147366000Y-90716000D01*
X147366000Y-89116000D01*
X148966000Y-89116000D01*
X148966000Y-90716000D01*
X148966000Y-90716000D01*
G37*
G36*
X146766000Y-90716000D02*
X145166000Y-90716000D01*
X145166000Y-89116000D01*
X146766000Y-89116000D01*
X146766000Y-90716000D01*
X146766000Y-90716000D01*
G37*
G36*
X144648000Y-90716000D02*
X143048000Y-90716000D01*
X143048000Y-89116000D01*
X144648000Y-89116000D01*
X144648000Y-90716000D01*
X144648000Y-90716000D01*
G37*
G36*
X131048000Y-87614000D02*
X129048000Y-87614000D01*
X129048000Y-85614000D01*
X131048000Y-85614000D01*
X131048000Y-87614000D01*
X131048000Y-87614000D01*
G37*
G36*
X145463770Y-85629372D02*
X145579689Y-85652429D01*
X145761678Y-85727811D01*
X145925463Y-85837249D01*
X146064751Y-85976537D01*
X146174189Y-86140322D01*
X146249571Y-86322311D01*
X146288000Y-86515509D01*
X146288000Y-86712491D01*
X146249571Y-86905689D01*
X146174189Y-87087678D01*
X146064751Y-87251463D01*
X145925463Y-87390751D01*
X145761678Y-87500189D01*
X145579689Y-87575571D01*
X145463770Y-87598628D01*
X145386493Y-87614000D01*
X145189507Y-87614000D01*
X145112230Y-87598628D01*
X144996311Y-87575571D01*
X144814322Y-87500189D01*
X144650537Y-87390751D01*
X144511249Y-87251463D01*
X144401811Y-87087678D01*
X144326429Y-86905689D01*
X144288000Y-86712491D01*
X144288000Y-86515509D01*
X144326429Y-86322311D01*
X144401811Y-86140322D01*
X144511249Y-85976537D01*
X144650537Y-85837249D01*
X144814322Y-85727811D01*
X144996311Y-85652429D01*
X145112230Y-85629372D01*
X145189507Y-85614000D01*
X145386493Y-85614000D01*
X145463770Y-85629372D01*
X145463770Y-85629372D01*
G37*
G36*
X139892000Y-87286000D02*
X138492000Y-87286000D01*
X138492000Y-85386000D01*
X139892000Y-85386000D01*
X139892000Y-87286000D01*
X139892000Y-87286000D01*
G37*
G36*
X133892000Y-87286000D02*
X132492000Y-87286000D01*
X132492000Y-85386000D01*
X133892000Y-85386000D01*
X133892000Y-87286000D01*
X133892000Y-87286000D01*
G37*
G36*
X130223770Y-83089372D02*
X130339689Y-83112429D01*
X130521678Y-83187811D01*
X130685463Y-83297249D01*
X130824751Y-83436537D01*
X130934189Y-83600322D01*
X131009571Y-83782311D01*
X131048000Y-83975509D01*
X131048000Y-84172491D01*
X131009571Y-84365689D01*
X130934189Y-84547678D01*
X130824751Y-84711463D01*
X130685463Y-84850751D01*
X130521678Y-84960189D01*
X130339689Y-85035571D01*
X130223770Y-85058628D01*
X130146493Y-85074000D01*
X129949507Y-85074000D01*
X129872230Y-85058628D01*
X129756311Y-85035571D01*
X129574322Y-84960189D01*
X129410537Y-84850751D01*
X129271249Y-84711463D01*
X129161811Y-84547678D01*
X129086429Y-84365689D01*
X129048000Y-84172491D01*
X129048000Y-83975509D01*
X129086429Y-83782311D01*
X129161811Y-83600322D01*
X129271249Y-83436537D01*
X129410537Y-83297249D01*
X129574322Y-83187811D01*
X129756311Y-83112429D01*
X129872230Y-83089372D01*
X129949507Y-83074000D01*
X130146493Y-83074000D01*
X130223770Y-83089372D01*
X130223770Y-83089372D01*
G37*
G36*
X142923770Y-83089372D02*
X143039689Y-83112429D01*
X143221678Y-83187811D01*
X143385463Y-83297249D01*
X143524751Y-83436537D01*
X143634189Y-83600322D01*
X143709571Y-83782311D01*
X143748000Y-83975509D01*
X143748000Y-84172491D01*
X143709571Y-84365689D01*
X143634189Y-84547678D01*
X143524751Y-84711463D01*
X143385463Y-84850751D01*
X143221678Y-84960189D01*
X143039689Y-85035571D01*
X142923770Y-85058628D01*
X142846493Y-85074000D01*
X142649507Y-85074000D01*
X142572230Y-85058628D01*
X142456311Y-85035571D01*
X142274322Y-84960189D01*
X142110537Y-84850751D01*
X141971249Y-84711463D01*
X141861811Y-84547678D01*
X141786429Y-84365689D01*
X141748000Y-84172491D01*
X141748000Y-83975509D01*
X141786429Y-83782311D01*
X141861811Y-83600322D01*
X141971249Y-83436537D01*
X142110537Y-83297249D01*
X142274322Y-83187811D01*
X142456311Y-83112429D01*
X142572230Y-83089372D01*
X142649507Y-83074000D01*
X142846493Y-83074000D01*
X142923770Y-83089372D01*
X142923770Y-83089372D01*
G37*
G36*
X139892000Y-83730000D02*
X138492000Y-83730000D01*
X138492000Y-81830000D01*
X139892000Y-81830000D01*
X139892000Y-83730000D01*
X139892000Y-83730000D01*
G37*
G36*
X133892000Y-83730000D02*
X132492000Y-83730000D01*
X132492000Y-81830000D01*
X133892000Y-81830000D01*
X133892000Y-83730000D01*
X133892000Y-83730000D01*
G37*
G36*
X130223770Y-80549372D02*
X130339689Y-80572429D01*
X130521678Y-80647811D01*
X130685463Y-80757249D01*
X130824751Y-80896537D01*
X130934189Y-81060322D01*
X131009571Y-81242311D01*
X131048000Y-81435509D01*
X131048000Y-81632491D01*
X131009571Y-81825689D01*
X130934189Y-82007678D01*
X130824751Y-82171463D01*
X130685463Y-82310751D01*
X130521678Y-82420189D01*
X130339689Y-82495571D01*
X130223770Y-82518628D01*
X130146493Y-82534000D01*
X129949507Y-82534000D01*
X129872230Y-82518628D01*
X129756311Y-82495571D01*
X129574322Y-82420189D01*
X129410537Y-82310751D01*
X129271249Y-82171463D01*
X129161811Y-82007678D01*
X129086429Y-81825689D01*
X129048000Y-81632491D01*
X129048000Y-81435509D01*
X129086429Y-81242311D01*
X129161811Y-81060322D01*
X129271249Y-80896537D01*
X129410537Y-80757249D01*
X129574322Y-80647811D01*
X129756311Y-80572429D01*
X129872230Y-80549372D01*
X129949507Y-80534000D01*
X130146493Y-80534000D01*
X130223770Y-80549372D01*
X130223770Y-80549372D01*
G37*
G36*
X145463770Y-80549372D02*
X145579689Y-80572429D01*
X145761678Y-80647811D01*
X145925463Y-80757249D01*
X146064751Y-80896537D01*
X146174189Y-81060322D01*
X146249571Y-81242311D01*
X146288000Y-81435509D01*
X146288000Y-81632491D01*
X146249571Y-81825689D01*
X146174189Y-82007678D01*
X146064751Y-82171463D01*
X145925463Y-82310751D01*
X145761678Y-82420189D01*
X145579689Y-82495571D01*
X145463770Y-82518628D01*
X145386493Y-82534000D01*
X145189507Y-82534000D01*
X145112230Y-82518628D01*
X144996311Y-82495571D01*
X144814322Y-82420189D01*
X144650537Y-82310751D01*
X144511249Y-82171463D01*
X144401811Y-82007678D01*
X144326429Y-81825689D01*
X144288000Y-81632491D01*
X144288000Y-81435509D01*
X144326429Y-81242311D01*
X144401811Y-81060322D01*
X144511249Y-80896537D01*
X144650537Y-80757249D01*
X144814322Y-80647811D01*
X144996311Y-80572429D01*
X145112230Y-80549372D01*
X145189507Y-80534000D01*
X145386493Y-80534000D01*
X145463770Y-80549372D01*
X145463770Y-80549372D01*
G37*
G36*
X158278000Y-82196000D02*
X153178000Y-82196000D01*
X153178000Y-79796000D01*
X158278000Y-79796000D01*
X158278000Y-82196000D01*
X158278000Y-82196000D01*
G37*
G36*
X130223770Y-78009372D02*
X130339689Y-78032429D01*
X130521678Y-78107811D01*
X130685463Y-78217249D01*
X130824751Y-78356537D01*
X130934189Y-78520322D01*
X131009571Y-78702311D01*
X131048000Y-78895509D01*
X131048000Y-79092491D01*
X131009571Y-79285689D01*
X130934189Y-79467678D01*
X130824751Y-79631463D01*
X130685463Y-79770751D01*
X130521678Y-79880189D01*
X130339689Y-79955571D01*
X130223770Y-79978628D01*
X130146493Y-79994000D01*
X129949507Y-79994000D01*
X129872230Y-79978628D01*
X129756311Y-79955571D01*
X129574322Y-79880189D01*
X129410537Y-79770751D01*
X129271249Y-79631463D01*
X129161811Y-79467678D01*
X129086429Y-79285689D01*
X129048000Y-79092491D01*
X129048000Y-78895509D01*
X129086429Y-78702311D01*
X129161811Y-78520322D01*
X129271249Y-78356537D01*
X129410537Y-78217249D01*
X129574322Y-78107811D01*
X129756311Y-78032429D01*
X129872230Y-78009372D01*
X129949507Y-77994000D01*
X130146493Y-77994000D01*
X130223770Y-78009372D01*
X130223770Y-78009372D01*
G37*
G36*
X145463770Y-78009372D02*
X145579689Y-78032429D01*
X145761678Y-78107811D01*
X145925463Y-78217249D01*
X146064751Y-78356537D01*
X146174189Y-78520322D01*
X146249571Y-78702311D01*
X146288000Y-78895509D01*
X146288000Y-79092491D01*
X146249571Y-79285689D01*
X146174189Y-79467678D01*
X146064751Y-79631463D01*
X145925463Y-79770751D01*
X145761678Y-79880189D01*
X145579689Y-79955571D01*
X145463770Y-79978628D01*
X145386493Y-79994000D01*
X145189507Y-79994000D01*
X145112230Y-79978628D01*
X144996311Y-79955571D01*
X144814322Y-79880189D01*
X144650537Y-79770751D01*
X144511249Y-79631463D01*
X144401811Y-79467678D01*
X144326429Y-79285689D01*
X144288000Y-79092491D01*
X144288000Y-78895509D01*
X144326429Y-78702311D01*
X144401811Y-78520322D01*
X144511249Y-78356537D01*
X144650537Y-78217249D01*
X144814322Y-78107811D01*
X144996311Y-78032429D01*
X145112230Y-78009372D01*
X145189507Y-77994000D01*
X145386493Y-77994000D01*
X145463770Y-78009372D01*
X145463770Y-78009372D01*
G37*
G36*
X157767000Y-78041000D02*
X156367000Y-78041000D01*
X156367000Y-76391000D01*
X157767000Y-76391000D01*
X157767000Y-78041000D01*
X157767000Y-78041000D01*
G37*
G36*
X155767000Y-78041000D02*
X154367000Y-78041000D01*
X154367000Y-76391000D01*
X155767000Y-76391000D01*
X155767000Y-78041000D01*
X155767000Y-78041000D01*
G37*
G36*
X145463770Y-75469372D02*
X145579689Y-75492429D01*
X145761678Y-75567811D01*
X145925463Y-75677249D01*
X146064751Y-75816537D01*
X146174189Y-75980322D01*
X146249571Y-76162311D01*
X146288000Y-76355509D01*
X146288000Y-76552491D01*
X146249571Y-76745689D01*
X146174189Y-76927678D01*
X146064751Y-77091463D01*
X145925463Y-77230751D01*
X145761678Y-77340189D01*
X145579689Y-77415571D01*
X145463770Y-77438628D01*
X145386493Y-77454000D01*
X145189507Y-77454000D01*
X145112230Y-77438628D01*
X144996311Y-77415571D01*
X144814322Y-77340189D01*
X144650537Y-77230751D01*
X144511249Y-77091463D01*
X144401811Y-76927678D01*
X144326429Y-76745689D01*
X144288000Y-76552491D01*
X144288000Y-76355509D01*
X144326429Y-76162311D01*
X144401811Y-75980322D01*
X144511249Y-75816537D01*
X144650537Y-75677249D01*
X144814322Y-75567811D01*
X144996311Y-75492429D01*
X145112230Y-75469372D01*
X145189507Y-75454000D01*
X145386493Y-75454000D01*
X145463770Y-75469372D01*
X145463770Y-75469372D01*
G37*
G36*
X130223770Y-75469372D02*
X130339689Y-75492429D01*
X130521678Y-75567811D01*
X130685463Y-75677249D01*
X130824751Y-75816537D01*
X130934189Y-75980322D01*
X131009571Y-76162311D01*
X131048000Y-76355509D01*
X131048000Y-76552491D01*
X131009571Y-76745689D01*
X130934189Y-76927678D01*
X130824751Y-77091463D01*
X130685463Y-77230751D01*
X130521678Y-77340189D01*
X130339689Y-77415571D01*
X130223770Y-77438628D01*
X130146493Y-77454000D01*
X129949507Y-77454000D01*
X129872230Y-77438628D01*
X129756311Y-77415571D01*
X129574322Y-77340189D01*
X129410537Y-77230751D01*
X129271249Y-77091463D01*
X129161811Y-76927678D01*
X129086429Y-76745689D01*
X129048000Y-76552491D01*
X129048000Y-76355509D01*
X129086429Y-76162311D01*
X129161811Y-75980322D01*
X129271249Y-75816537D01*
X129410537Y-75677249D01*
X129574322Y-75567811D01*
X129756311Y-75492429D01*
X129872230Y-75469372D01*
X129949507Y-75454000D01*
X130146493Y-75454000D01*
X130223770Y-75469372D01*
X130223770Y-75469372D01*
G37*
G36*
X160997000Y-76999000D02*
X159297000Y-76999000D01*
X159297000Y-75899000D01*
X160997000Y-75899000D01*
X160997000Y-76999000D01*
X160997000Y-76999000D01*
G37*
G36*
X150060000Y-76082500D02*
X149152000Y-76082500D01*
X149152000Y-74539500D01*
X150060000Y-74539500D01*
X150060000Y-76082500D01*
X150060000Y-76082500D01*
G37*
G36*
X153870000Y-76082500D02*
X152962000Y-76082500D01*
X152962000Y-74539500D01*
X153870000Y-74539500D01*
X153870000Y-76082500D01*
X153870000Y-76082500D01*
G37*
G36*
X152600000Y-76082500D02*
X151692000Y-76082500D01*
X151692000Y-74539500D01*
X152600000Y-74539500D01*
X152600000Y-76082500D01*
X152600000Y-76082500D01*
G37*
G36*
X151330000Y-76082500D02*
X150422000Y-76082500D01*
X150422000Y-74539500D01*
X151330000Y-74539500D01*
X151330000Y-76082500D01*
X151330000Y-76082500D01*
G37*
G36*
X160997000Y-75099000D02*
X159297000Y-75099000D01*
X159297000Y-73999000D01*
X160997000Y-73999000D01*
X160997000Y-75099000D01*
X160997000Y-75099000D01*
G37*
G36*
X157649000Y-75081500D02*
X156549000Y-75081500D01*
X156549000Y-73381500D01*
X157649000Y-73381500D01*
X157649000Y-75081500D01*
X157649000Y-75081500D01*
G37*
G36*
X155749000Y-75081500D02*
X154649000Y-75081500D01*
X154649000Y-73381500D01*
X155749000Y-73381500D01*
X155749000Y-75081500D01*
X155749000Y-75081500D01*
G37*
G36*
X145463770Y-72929372D02*
X145579689Y-72952429D01*
X145761678Y-73027811D01*
X145925463Y-73137249D01*
X146064751Y-73276537D01*
X146174189Y-73440322D01*
X146249571Y-73622311D01*
X146288000Y-73815509D01*
X146288000Y-74012491D01*
X146249571Y-74205689D01*
X146174189Y-74387678D01*
X146064751Y-74551463D01*
X145925463Y-74690751D01*
X145761678Y-74800189D01*
X145579689Y-74875571D01*
X145463770Y-74898628D01*
X145386493Y-74914000D01*
X145189507Y-74914000D01*
X145112230Y-74898628D01*
X144996311Y-74875571D01*
X144814322Y-74800189D01*
X144650537Y-74690751D01*
X144511249Y-74551463D01*
X144401811Y-74387678D01*
X144326429Y-74205689D01*
X144288000Y-74012491D01*
X144288000Y-73815509D01*
X144326429Y-73622311D01*
X144401811Y-73440322D01*
X144511249Y-73276537D01*
X144650537Y-73137249D01*
X144814322Y-73027811D01*
X144996311Y-72952429D01*
X145112230Y-72929372D01*
X145189507Y-72914000D01*
X145386493Y-72914000D01*
X145463770Y-72929372D01*
X145463770Y-72929372D01*
G37*
G36*
X130223770Y-72929372D02*
X130339689Y-72952429D01*
X130521678Y-73027811D01*
X130685463Y-73137249D01*
X130824751Y-73276537D01*
X130934189Y-73440322D01*
X131009571Y-73622311D01*
X131048000Y-73815509D01*
X131048000Y-74012491D01*
X131009571Y-74205689D01*
X130934189Y-74387678D01*
X130824751Y-74551463D01*
X130685463Y-74690751D01*
X130521678Y-74800189D01*
X130339689Y-74875571D01*
X130223770Y-74898628D01*
X130146493Y-74914000D01*
X129949507Y-74914000D01*
X129872230Y-74898628D01*
X129756311Y-74875571D01*
X129574322Y-74800189D01*
X129410537Y-74690751D01*
X129271249Y-74551463D01*
X129161811Y-74387678D01*
X129086429Y-74205689D01*
X129048000Y-74012491D01*
X129048000Y-73815509D01*
X129086429Y-73622311D01*
X129161811Y-73440322D01*
X129271249Y-73276537D01*
X129410537Y-73137249D01*
X129574322Y-73027811D01*
X129756311Y-72952429D01*
X129872230Y-72929372D01*
X129949507Y-72914000D01*
X130146493Y-72914000D01*
X130223770Y-72929372D01*
X130223770Y-72929372D01*
G37*
G36*
X138175500Y-74201000D02*
X136525500Y-74201000D01*
X136525500Y-72801000D01*
X138175500Y-72801000D01*
X138175500Y-74201000D01*
X138175500Y-74201000D01*
G37*
G36*
X145463770Y-70389372D02*
X145579689Y-70412429D01*
X145761678Y-70487811D01*
X145925463Y-70597249D01*
X146064751Y-70736537D01*
X146174189Y-70900322D01*
X146249571Y-71082311D01*
X146288000Y-71275509D01*
X146288000Y-71472491D01*
X146249571Y-71665689D01*
X146174189Y-71847678D01*
X146064751Y-72011463D01*
X145925463Y-72150751D01*
X145761678Y-72260189D01*
X145579689Y-72335571D01*
X145463770Y-72358628D01*
X145386493Y-72374000D01*
X145189507Y-72374000D01*
X145112230Y-72358628D01*
X144996311Y-72335571D01*
X144814322Y-72260189D01*
X144650537Y-72150751D01*
X144511249Y-72011463D01*
X144401811Y-71847678D01*
X144326429Y-71665689D01*
X144288000Y-71472491D01*
X144288000Y-71275509D01*
X144326429Y-71082311D01*
X144401811Y-70900322D01*
X144511249Y-70736537D01*
X144650537Y-70597249D01*
X144814322Y-70487811D01*
X144996311Y-70412429D01*
X145112230Y-70389372D01*
X145189507Y-70374000D01*
X145386493Y-70374000D01*
X145463770Y-70389372D01*
X145463770Y-70389372D01*
G37*
G36*
X130223770Y-70389372D02*
X130339689Y-70412429D01*
X130521678Y-70487811D01*
X130685463Y-70597249D01*
X130824751Y-70736537D01*
X130934189Y-70900322D01*
X131009571Y-71082311D01*
X131048000Y-71275509D01*
X131048000Y-71472491D01*
X131009571Y-71665689D01*
X130934189Y-71847678D01*
X130824751Y-72011463D01*
X130685463Y-72150751D01*
X130521678Y-72260189D01*
X130339689Y-72335571D01*
X130223770Y-72358628D01*
X130146493Y-72374000D01*
X129949507Y-72374000D01*
X129872230Y-72358628D01*
X129756311Y-72335571D01*
X129574322Y-72260189D01*
X129410537Y-72150751D01*
X129271249Y-72011463D01*
X129161811Y-71847678D01*
X129086429Y-71665689D01*
X129048000Y-71472491D01*
X129048000Y-71275509D01*
X129086429Y-71082311D01*
X129161811Y-70900322D01*
X129271249Y-70736537D01*
X129410537Y-70597249D01*
X129574322Y-70487811D01*
X129756311Y-70412429D01*
X129872230Y-70389372D01*
X129949507Y-70374000D01*
X130146493Y-70374000D01*
X130223770Y-70389372D01*
X130223770Y-70389372D01*
G37*
G36*
X158129500Y-72272500D02*
X156719500Y-72272500D01*
X156719500Y-68442500D01*
X158129500Y-68442500D01*
X158129500Y-72272500D01*
X158129500Y-72272500D01*
G37*
G36*
X159899500Y-72272500D02*
X158489500Y-72272500D01*
X158489500Y-68442000D01*
X159899500Y-68442000D01*
X159899500Y-72272500D01*
X159899500Y-72272500D01*
G37*
G36*
X138175500Y-72201000D02*
X136525500Y-72201000D01*
X136525500Y-70801000D01*
X138175500Y-70801000D01*
X138175500Y-72201000D01*
X138175500Y-72201000D01*
G37*
G36*
X130223770Y-67849372D02*
X130339689Y-67872429D01*
X130521678Y-67947811D01*
X130685463Y-68057249D01*
X130824751Y-68196537D01*
X130934189Y-68360322D01*
X131009571Y-68542311D01*
X131048000Y-68735509D01*
X131048000Y-68932491D01*
X131009571Y-69125689D01*
X130934189Y-69307678D01*
X130824751Y-69471463D01*
X130685463Y-69610751D01*
X130521678Y-69720189D01*
X130339689Y-69795571D01*
X130223770Y-69818628D01*
X130146493Y-69834000D01*
X129949507Y-69834000D01*
X129872230Y-69818628D01*
X129756311Y-69795571D01*
X129574322Y-69720189D01*
X129410537Y-69610751D01*
X129271249Y-69471463D01*
X129161811Y-69307678D01*
X129086429Y-69125689D01*
X129048000Y-68932491D01*
X129048000Y-68735509D01*
X129086429Y-68542311D01*
X129161811Y-68360322D01*
X129271249Y-68196537D01*
X129410537Y-68057249D01*
X129574322Y-67947811D01*
X129756311Y-67872429D01*
X129872230Y-67849372D01*
X129949507Y-67834000D01*
X130146493Y-67834000D01*
X130223770Y-67849372D01*
X130223770Y-67849372D01*
G37*
G36*
X145463770Y-67849372D02*
X145579689Y-67872429D01*
X145761678Y-67947811D01*
X145925463Y-68057249D01*
X146064751Y-68196537D01*
X146174189Y-68360322D01*
X146249571Y-68542311D01*
X146288000Y-68735509D01*
X146288000Y-68932491D01*
X146249571Y-69125689D01*
X146174189Y-69307678D01*
X146064751Y-69471463D01*
X145925463Y-69610751D01*
X145761678Y-69720189D01*
X145579689Y-69795571D01*
X145463770Y-69818628D01*
X145386493Y-69834000D01*
X145189507Y-69834000D01*
X145112230Y-69818628D01*
X144996311Y-69795571D01*
X144814322Y-69720189D01*
X144650537Y-69610751D01*
X144511249Y-69471463D01*
X144401811Y-69307678D01*
X144326429Y-69125689D01*
X144288000Y-68932491D01*
X144288000Y-68735509D01*
X144326429Y-68542311D01*
X144401811Y-68360322D01*
X144511249Y-68196537D01*
X144650537Y-68057249D01*
X144814322Y-67947811D01*
X144996311Y-67872429D01*
X145112230Y-67849372D01*
X145189507Y-67834000D01*
X145386493Y-67834000D01*
X145463770Y-67849372D01*
X145463770Y-67849372D01*
G37*
G36*
X152600000Y-69732500D02*
X151692000Y-69732500D01*
X151692000Y-68189500D01*
X152600000Y-68189500D01*
X152600000Y-69732500D01*
X152600000Y-69732500D01*
G37*
G36*
X150060000Y-69732500D02*
X149152000Y-69732500D01*
X149152000Y-68189500D01*
X150060000Y-68189500D01*
X150060000Y-69732500D01*
X150060000Y-69732500D01*
G37*
G36*
X151330000Y-69732500D02*
X150422000Y-69732500D01*
X150422000Y-68189500D01*
X151330000Y-68189500D01*
X151330000Y-69732500D01*
X151330000Y-69732500D01*
G37*
G36*
X153870000Y-69732500D02*
X152962000Y-69732500D01*
X152962000Y-68189500D01*
X153870000Y-68189500D01*
X153870000Y-69732500D01*
X153870000Y-69732500D01*
G37*
G36*
X130223770Y-65309372D02*
X130339689Y-65332429D01*
X130521678Y-65407811D01*
X130685463Y-65517249D01*
X130824751Y-65656537D01*
X130934189Y-65820322D01*
X131009571Y-66002311D01*
X131048000Y-66195509D01*
X131048000Y-66392491D01*
X131009571Y-66585689D01*
X130934189Y-66767678D01*
X130824751Y-66931463D01*
X130685463Y-67070751D01*
X130521678Y-67180189D01*
X130339689Y-67255571D01*
X130223770Y-67278628D01*
X130146493Y-67294000D01*
X129949507Y-67294000D01*
X129872230Y-67278628D01*
X129756311Y-67255571D01*
X129574322Y-67180189D01*
X129410537Y-67070751D01*
X129271249Y-66931463D01*
X129161811Y-66767678D01*
X129086429Y-66585689D01*
X129048000Y-66392491D01*
X129048000Y-66195509D01*
X129086429Y-66002311D01*
X129161811Y-65820322D01*
X129271249Y-65656537D01*
X129410537Y-65517249D01*
X129574322Y-65407811D01*
X129756311Y-65332429D01*
X129872230Y-65309372D01*
X129949507Y-65294000D01*
X130146493Y-65294000D01*
X130223770Y-65309372D01*
X130223770Y-65309372D01*
G37*
G36*
X145463770Y-65309372D02*
X145579689Y-65332429D01*
X145761678Y-65407811D01*
X145925463Y-65517249D01*
X146064751Y-65656537D01*
X146174189Y-65820322D01*
X146249571Y-66002311D01*
X146288000Y-66195509D01*
X146288000Y-66392491D01*
X146249571Y-66585689D01*
X146174189Y-66767678D01*
X146064751Y-66931463D01*
X145925463Y-67070751D01*
X145761678Y-67180189D01*
X145579689Y-67255571D01*
X145463770Y-67278628D01*
X145386493Y-67294000D01*
X145189507Y-67294000D01*
X145112230Y-67278628D01*
X144996311Y-67255571D01*
X144814322Y-67180189D01*
X144650537Y-67070751D01*
X144511249Y-66931463D01*
X144401811Y-66767678D01*
X144326429Y-66585689D01*
X144288000Y-66392491D01*
X144288000Y-66195509D01*
X144326429Y-66002311D01*
X144401811Y-65820322D01*
X144511249Y-65656537D01*
X144650537Y-65517249D01*
X144814322Y-65407811D01*
X144996311Y-65332429D01*
X145112230Y-65309372D01*
X145189507Y-65294000D01*
X145386493Y-65294000D01*
X145463770Y-65309372D01*
X145463770Y-65309372D01*
G37*
G36*
X150415000Y-66572500D02*
X149315000Y-66572500D01*
X149315000Y-64872500D01*
X150415000Y-64872500D01*
X150415000Y-66572500D01*
X150415000Y-66572500D01*
G37*
G36*
X152315000Y-66572500D02*
X151215000Y-66572500D01*
X151215000Y-64872500D01*
X152315000Y-64872500D01*
X152315000Y-66572500D01*
X152315000Y-66572500D01*
G37*
G36*
X162609000Y-66547500D02*
X161209000Y-66547500D01*
X161209000Y-64897500D01*
X162609000Y-64897500D01*
X162609000Y-66547500D01*
X162609000Y-66547500D01*
G37*
G36*
X160609000Y-66547500D02*
X159209000Y-66547500D01*
X159209000Y-64897500D01*
X160609000Y-64897500D01*
X160609000Y-66547500D01*
X160609000Y-66547500D01*
G37*
G36*
X157543000Y-64898500D02*
X155893000Y-64898500D01*
X155893000Y-63498500D01*
X157543000Y-63498500D01*
X157543000Y-64898500D01*
X157543000Y-64898500D01*
G37*
G36*
X154266000Y-64807000D02*
X152566000Y-64807000D01*
X152566000Y-63707000D01*
X154266000Y-63707000D01*
X154266000Y-64807000D01*
X154266000Y-64807000D01*
G37*
G36*
X130223770Y-62769372D02*
X130339689Y-62792429D01*
X130521678Y-62867811D01*
X130685463Y-62977249D01*
X130824751Y-63116537D01*
X130934189Y-63280322D01*
X131009571Y-63462311D01*
X131048000Y-63655509D01*
X131048000Y-63852491D01*
X131009571Y-64045689D01*
X130934189Y-64227678D01*
X130824751Y-64391463D01*
X130685463Y-64530751D01*
X130521678Y-64640189D01*
X130339689Y-64715571D01*
X130223770Y-64738628D01*
X130146493Y-64754000D01*
X129949507Y-64754000D01*
X129872230Y-64738628D01*
X129756311Y-64715571D01*
X129574322Y-64640189D01*
X129410537Y-64530751D01*
X129271249Y-64391463D01*
X129161811Y-64227678D01*
X129086429Y-64045689D01*
X129048000Y-63852491D01*
X129048000Y-63655509D01*
X129086429Y-63462311D01*
X129161811Y-63280322D01*
X129271249Y-63116537D01*
X129410537Y-62977249D01*
X129574322Y-62867811D01*
X129756311Y-62792429D01*
X129872230Y-62769372D01*
X129949507Y-62754000D01*
X130146493Y-62754000D01*
X130223770Y-62769372D01*
X130223770Y-62769372D01*
G37*
G36*
X161847765Y-61990620D02*
X162037289Y-62069123D01*
X162207855Y-62183092D01*
X162352908Y-62328145D01*
X162466877Y-62498711D01*
X162545380Y-62688235D01*
X162585400Y-62889430D01*
X162585400Y-63094570D01*
X162545380Y-63295765D01*
X162466877Y-63485289D01*
X162352908Y-63655855D01*
X162207855Y-63800908D01*
X162037289Y-63914877D01*
X161847765Y-63993380D01*
X161646570Y-64033400D01*
X161441430Y-64033400D01*
X161240235Y-63993380D01*
X161050711Y-63914877D01*
X160880145Y-63800908D01*
X160735092Y-63655855D01*
X160621123Y-63485289D01*
X160542620Y-63295765D01*
X160502600Y-63094570D01*
X160502600Y-62889430D01*
X160542620Y-62688235D01*
X160621123Y-62498711D01*
X160735092Y-62328145D01*
X160880145Y-62183092D01*
X161050711Y-62069123D01*
X161240235Y-61990620D01*
X161441430Y-61950600D01*
X161646570Y-61950600D01*
X161847765Y-61990620D01*
X161847765Y-61990620D01*
G37*
G36*
X154266000Y-62907000D02*
X152566000Y-62907000D01*
X152566000Y-61807000D01*
X154266000Y-61807000D01*
X154266000Y-62907000D01*
X154266000Y-62907000D01*
G37*
G36*
X157543000Y-62898500D02*
X155893000Y-62898500D01*
X155893000Y-61498500D01*
X157543000Y-61498500D01*
X157543000Y-62898500D01*
X157543000Y-62898500D01*
G37*
G36*
X130223770Y-60229372D02*
X130339689Y-60252429D01*
X130521678Y-60327811D01*
X130685463Y-60437249D01*
X130824751Y-60576537D01*
X130934189Y-60740322D01*
X131009571Y-60922311D01*
X131048000Y-61115509D01*
X131048000Y-61312491D01*
X131009571Y-61505689D01*
X130934189Y-61687678D01*
X130824751Y-61851463D01*
X130685463Y-61990751D01*
X130521678Y-62100189D01*
X130339689Y-62175571D01*
X130223770Y-62198628D01*
X130146493Y-62214000D01*
X129949507Y-62214000D01*
X129872230Y-62198628D01*
X129756311Y-62175571D01*
X129574322Y-62100189D01*
X129410537Y-61990751D01*
X129271249Y-61851463D01*
X129161811Y-61687678D01*
X129086429Y-61505689D01*
X129048000Y-61312491D01*
X129048000Y-61115509D01*
X129086429Y-60922311D01*
X129161811Y-60740322D01*
X129271249Y-60576537D01*
X129410537Y-60437249D01*
X129574322Y-60327811D01*
X129756311Y-60252429D01*
X129872230Y-60229372D01*
X129949507Y-60214000D01*
X130146493Y-60214000D01*
X130223770Y-60229372D01*
X130223770Y-60229372D01*
G37*
G36*
X134795770Y-59975372D02*
X134911689Y-59998429D01*
X135093678Y-60073811D01*
X135257463Y-60183249D01*
X135396751Y-60322537D01*
X135506189Y-60486322D01*
X135581571Y-60668311D01*
X135620000Y-60861509D01*
X135620000Y-61058491D01*
X135581571Y-61251689D01*
X135506189Y-61433678D01*
X135396751Y-61597463D01*
X135257463Y-61736751D01*
X135093678Y-61846189D01*
X134911689Y-61921571D01*
X134795770Y-61944628D01*
X134718493Y-61960000D01*
X134521507Y-61960000D01*
X134444230Y-61944628D01*
X134328311Y-61921571D01*
X134146322Y-61846189D01*
X133982537Y-61736751D01*
X133843249Y-61597463D01*
X133733811Y-61433678D01*
X133658429Y-61251689D01*
X133620000Y-61058491D01*
X133620000Y-60861509D01*
X133658429Y-60668311D01*
X133733811Y-60486322D01*
X133843249Y-60322537D01*
X133982537Y-60183249D01*
X134146322Y-60073811D01*
X134328311Y-59998429D01*
X134444230Y-59975372D01*
X134521507Y-59960000D01*
X134718493Y-59960000D01*
X134795770Y-59975372D01*
X134795770Y-59975372D01*
G37*
G36*
X161847765Y-59450620D02*
X162037289Y-59529123D01*
X162207855Y-59643092D01*
X162352908Y-59788145D01*
X162466877Y-59958711D01*
X162545380Y-60148235D01*
X162585400Y-60349430D01*
X162585400Y-60554570D01*
X162545380Y-60755765D01*
X162466877Y-60945289D01*
X162352908Y-61115855D01*
X162207855Y-61260908D01*
X162037289Y-61374877D01*
X161847765Y-61453380D01*
X161646570Y-61493400D01*
X161441430Y-61493400D01*
X161240235Y-61453380D01*
X161050711Y-61374877D01*
X160880145Y-61260908D01*
X160735092Y-61115855D01*
X160621123Y-60945289D01*
X160542620Y-60755765D01*
X160502600Y-60554570D01*
X160502600Y-60349430D01*
X160542620Y-60148235D01*
X160621123Y-59958711D01*
X160735092Y-59788145D01*
X160880145Y-59643092D01*
X161050711Y-59529123D01*
X161240235Y-59450620D01*
X161441430Y-59410600D01*
X161646570Y-59410600D01*
X161847765Y-59450620D01*
X161847765Y-59450620D01*
G37*
G36*
X152262712Y-57607701D02*
X152323972Y-57626284D01*
X152355710Y-57643249D01*
X152380434Y-57656464D01*
X152380436Y-57656465D01*
X152380435Y-57656465D01*
X152429918Y-57697075D01*
X152429919Y-57697077D01*
X152429921Y-57697078D01*
X152438311Y-57707301D01*
X152455634Y-57724623D01*
X152476008Y-57738237D01*
X152498647Y-57747614D01*
X152522680Y-57752395D01*
X152534933Y-57752997D01*
X155313068Y-57752997D01*
X155337454Y-57750595D01*
X155360903Y-57743482D01*
X155382514Y-57731931D01*
X155401456Y-57716385D01*
X155409695Y-57707295D01*
X155418080Y-57697078D01*
X155467565Y-57656466D01*
X155467564Y-57656466D01*
X155467566Y-57656465D01*
X155492292Y-57643249D01*
X155524028Y-57626285D01*
X155585288Y-57607702D01*
X155633035Y-57603000D01*
X156914965Y-57603000D01*
X156962712Y-57607702D01*
X157023972Y-57626285D01*
X157055708Y-57643249D01*
X157080434Y-57656465D01*
X157129921Y-57697079D01*
X157170535Y-57746566D01*
X157173972Y-57752997D01*
X157200715Y-57803028D01*
X157219298Y-57864288D01*
X157225572Y-57927999D01*
X157219298Y-57991712D01*
X157200714Y-58052972D01*
X157192107Y-58069075D01*
X157182730Y-58091714D01*
X157177949Y-58115747D01*
X157177949Y-58140252D01*
X157182729Y-58164285D01*
X157192107Y-58186925D01*
X157198847Y-58199534D01*
X157200714Y-58203028D01*
X157219298Y-58264288D01*
X157225572Y-58328000D01*
X157219298Y-58391712D01*
X157200714Y-58452972D01*
X157192107Y-58469075D01*
X157182730Y-58491714D01*
X157177949Y-58515747D01*
X157177949Y-58540252D01*
X157182729Y-58564285D01*
X157192107Y-58586925D01*
X157200714Y-58603028D01*
X157219298Y-58664288D01*
X157225572Y-58728000D01*
X157219298Y-58791712D01*
X157200714Y-58852972D01*
X157192107Y-58869075D01*
X157182730Y-58891714D01*
X157177949Y-58915747D01*
X157177949Y-58940252D01*
X157182729Y-58964285D01*
X157192107Y-58986925D01*
X157200714Y-59003028D01*
X157219298Y-59064288D01*
X157225572Y-59128000D01*
X157219298Y-59191712D01*
X157200714Y-59252972D01*
X157192107Y-59269075D01*
X157182730Y-59291714D01*
X157177949Y-59315747D01*
X157177949Y-59340252D01*
X157182729Y-59364285D01*
X157192107Y-59386925D01*
X157200714Y-59403028D01*
X157219298Y-59464288D01*
X157225572Y-59528000D01*
X157219298Y-59591712D01*
X157200714Y-59652972D01*
X157192107Y-59669075D01*
X157182730Y-59691714D01*
X157177949Y-59715747D01*
X157177949Y-59740252D01*
X157182729Y-59764285D01*
X157192107Y-59786925D01*
X157200714Y-59803028D01*
X157219298Y-59864288D01*
X157225572Y-59928000D01*
X157219298Y-59991712D01*
X157200715Y-60052972D01*
X157189576Y-60073811D01*
X157170535Y-60109434D01*
X157129921Y-60158921D01*
X157080434Y-60199535D01*
X157061614Y-60209594D01*
X157023972Y-60229715D01*
X156962712Y-60248298D01*
X156914965Y-60253000D01*
X155633035Y-60253000D01*
X155585288Y-60248298D01*
X155524028Y-60229715D01*
X155486386Y-60209594D01*
X155467566Y-60199535D01*
X155447722Y-60183249D01*
X155418082Y-60158924D01*
X155418081Y-60158922D01*
X155418079Y-60158921D01*
X155409684Y-60148692D01*
X155392363Y-60131371D01*
X155371988Y-60117757D01*
X155349349Y-60108380D01*
X155325316Y-60103599D01*
X155313063Y-60102997D01*
X152534937Y-60102997D01*
X152510551Y-60105399D01*
X152487102Y-60112512D01*
X152465491Y-60124063D01*
X152446549Y-60139609D01*
X152438321Y-60148686D01*
X152429921Y-60158921D01*
X152429919Y-60158922D01*
X152429918Y-60158924D01*
X152400278Y-60183249D01*
X152380434Y-60199535D01*
X152361614Y-60209594D01*
X152323972Y-60229715D01*
X152262712Y-60248298D01*
X152214965Y-60253000D01*
X150933035Y-60253000D01*
X150885288Y-60248298D01*
X150824028Y-60229715D01*
X150786386Y-60209594D01*
X150767566Y-60199535D01*
X150718079Y-60158921D01*
X150677465Y-60109434D01*
X150658424Y-60073811D01*
X150647285Y-60052972D01*
X150628702Y-59991712D01*
X150622428Y-59928000D01*
X150628702Y-59864288D01*
X150647286Y-59803028D01*
X150655893Y-59786925D01*
X150665270Y-59764286D01*
X150670051Y-59740253D01*
X150670051Y-59715748D01*
X150665271Y-59691715D01*
X150655893Y-59669075D01*
X150647286Y-59652972D01*
X150628702Y-59591712D01*
X150622428Y-59528000D01*
X150628702Y-59464288D01*
X150647286Y-59403028D01*
X150655893Y-59386925D01*
X150665270Y-59364286D01*
X150670051Y-59340253D01*
X150670051Y-59315748D01*
X150665271Y-59291715D01*
X150655893Y-59269075D01*
X150647286Y-59252972D01*
X150628702Y-59191712D01*
X150622428Y-59128000D01*
X150628702Y-59064288D01*
X150647286Y-59003028D01*
X150655893Y-58986925D01*
X150665270Y-58964286D01*
X150670051Y-58940253D01*
X150670051Y-58915748D01*
X150665271Y-58891715D01*
X150655893Y-58869075D01*
X150647286Y-58852972D01*
X150628702Y-58791712D01*
X150622428Y-58728000D01*
X150628702Y-58664288D01*
X150647286Y-58603028D01*
X150655893Y-58586925D01*
X150665270Y-58564286D01*
X150670051Y-58540253D01*
X150670051Y-58515748D01*
X150665271Y-58491715D01*
X150655893Y-58469075D01*
X150647286Y-58452972D01*
X150628702Y-58391712D01*
X150622428Y-58328000D01*
X150628702Y-58264288D01*
X150647286Y-58203028D01*
X150649154Y-58199534D01*
X150655893Y-58186925D01*
X150665270Y-58164286D01*
X150670051Y-58140253D01*
X150670051Y-58115748D01*
X150665271Y-58091715D01*
X150655894Y-58069077D01*
X150647286Y-58052972D01*
X150628702Y-57991711D01*
X150622428Y-57927999D01*
X150628702Y-57864287D01*
X150647285Y-57803027D01*
X150675311Y-57750595D01*
X150677465Y-57746565D01*
X150718079Y-57697078D01*
X150767566Y-57656464D01*
X150792290Y-57643249D01*
X150824028Y-57626284D01*
X150885288Y-57607701D01*
X150933035Y-57602999D01*
X152214965Y-57602999D01*
X152262712Y-57607701D01*
X152262712Y-57607701D01*
G37*
G36*
X130223770Y-57689372D02*
X130339689Y-57712429D01*
X130521678Y-57787811D01*
X130685463Y-57897249D01*
X130824751Y-58036537D01*
X130934189Y-58200322D01*
X131009571Y-58382311D01*
X131024321Y-58456465D01*
X131048000Y-58575507D01*
X131048000Y-58772493D01*
X131035591Y-58834877D01*
X131009571Y-58965689D01*
X130934189Y-59147678D01*
X130824751Y-59311463D01*
X130685463Y-59450751D01*
X130521678Y-59560189D01*
X130339689Y-59635571D01*
X130234646Y-59656465D01*
X130146493Y-59674000D01*
X129949507Y-59674000D01*
X129861354Y-59656465D01*
X129756311Y-59635571D01*
X129574322Y-59560189D01*
X129410537Y-59450751D01*
X129271249Y-59311463D01*
X129161811Y-59147678D01*
X129086429Y-58965689D01*
X129060409Y-58834877D01*
X129048000Y-58772493D01*
X129048000Y-58575507D01*
X129071679Y-58456465D01*
X129086429Y-58382311D01*
X129161811Y-58200322D01*
X129271249Y-58036537D01*
X129410537Y-57897249D01*
X129574322Y-57787811D01*
X129756311Y-57712429D01*
X129872230Y-57689372D01*
X129949507Y-57674000D01*
X130146493Y-57674000D01*
X130223770Y-57689372D01*
X130223770Y-57689372D01*
G37*
G36*
X134795770Y-57435372D02*
X134911689Y-57458429D01*
X135093678Y-57533811D01*
X135257463Y-57643249D01*
X135396751Y-57782537D01*
X135506189Y-57946322D01*
X135581571Y-58128311D01*
X135596433Y-58203028D01*
X135620000Y-58321507D01*
X135620000Y-58518493D01*
X135614416Y-58546566D01*
X135581571Y-58711689D01*
X135506189Y-58893678D01*
X135396751Y-59057463D01*
X135257463Y-59196751D01*
X135093678Y-59306189D01*
X134911689Y-59381571D01*
X134803826Y-59403026D01*
X134718493Y-59420000D01*
X134521507Y-59420000D01*
X134436174Y-59403026D01*
X134328311Y-59381571D01*
X134146322Y-59306189D01*
X133982537Y-59196751D01*
X133843249Y-59057463D01*
X133733811Y-58893678D01*
X133658429Y-58711689D01*
X133625584Y-58546566D01*
X133620000Y-58518493D01*
X133620000Y-58321507D01*
X133643567Y-58203028D01*
X133658429Y-58128311D01*
X133733811Y-57946322D01*
X133843249Y-57782537D01*
X133982537Y-57643249D01*
X134146322Y-57533811D01*
X134328311Y-57458429D01*
X134444230Y-57435372D01*
X134521507Y-57420000D01*
X134718493Y-57420000D01*
X134795770Y-57435372D01*
X134795770Y-57435372D01*
G37*
G36*
X161847765Y-56910620D02*
X162037289Y-56989123D01*
X162207855Y-57103092D01*
X162352908Y-57248145D01*
X162466877Y-57418711D01*
X162545380Y-57608235D01*
X162585400Y-57809430D01*
X162585400Y-58014570D01*
X162545380Y-58215765D01*
X162466877Y-58405289D01*
X162352908Y-58575855D01*
X162207855Y-58720908D01*
X162037289Y-58834877D01*
X161847765Y-58913380D01*
X161646570Y-58953400D01*
X161441430Y-58953400D01*
X161240235Y-58913380D01*
X161050711Y-58834877D01*
X160880145Y-58720908D01*
X160735092Y-58575855D01*
X160621123Y-58405289D01*
X160542620Y-58215765D01*
X160502600Y-58014570D01*
X160502600Y-57809430D01*
X160542620Y-57608235D01*
X160621123Y-57418711D01*
X160735092Y-57248145D01*
X160880145Y-57103092D01*
X161050711Y-56989123D01*
X161240235Y-56910620D01*
X161441430Y-56870600D01*
X161646570Y-56870600D01*
X161847765Y-56910620D01*
X161847765Y-56910620D01*
G37*
G36*
X130223770Y-55149372D02*
X130339689Y-55172429D01*
X130521678Y-55247811D01*
X130685463Y-55357249D01*
X130824751Y-55496537D01*
X130934189Y-55660322D01*
X131009571Y-55842311D01*
X131048000Y-56035509D01*
X131048000Y-56232491D01*
X131009571Y-56425689D01*
X130934189Y-56607678D01*
X130824751Y-56771463D01*
X130685463Y-56910751D01*
X130521678Y-57020189D01*
X130339689Y-57095571D01*
X130223770Y-57118628D01*
X130146493Y-57134000D01*
X129949507Y-57134000D01*
X129872230Y-57118628D01*
X129756311Y-57095571D01*
X129574322Y-57020189D01*
X129410537Y-56910751D01*
X129271249Y-56771463D01*
X129161811Y-56607678D01*
X129086429Y-56425689D01*
X129048000Y-56232491D01*
X129048000Y-56035509D01*
X129086429Y-55842311D01*
X129161811Y-55660322D01*
X129271249Y-55496537D01*
X129410537Y-55357249D01*
X129574322Y-55247811D01*
X129756311Y-55172429D01*
X129872230Y-55149372D01*
X129949507Y-55134000D01*
X130146493Y-55134000D01*
X130223770Y-55149372D01*
X130223770Y-55149372D01*
G37*
G36*
X134795770Y-54895372D02*
X134911689Y-54918429D01*
X135093678Y-54993811D01*
X135257463Y-55103249D01*
X135396751Y-55242537D01*
X135506189Y-55406322D01*
X135581571Y-55588311D01*
X135620000Y-55781509D01*
X135620000Y-55978491D01*
X135581571Y-56171689D01*
X135506189Y-56353678D01*
X135396751Y-56517463D01*
X135257463Y-56656751D01*
X135093678Y-56766189D01*
X134911689Y-56841571D01*
X134795770Y-56864628D01*
X134718493Y-56880000D01*
X134521507Y-56880000D01*
X134444230Y-56864628D01*
X134328311Y-56841571D01*
X134146322Y-56766189D01*
X133982537Y-56656751D01*
X133843249Y-56517463D01*
X133733811Y-56353678D01*
X133658429Y-56171689D01*
X133620000Y-55978491D01*
X133620000Y-55781509D01*
X133658429Y-55588311D01*
X133733811Y-55406322D01*
X133843249Y-55242537D01*
X133982537Y-55103249D01*
X134146322Y-54993811D01*
X134328311Y-54918429D01*
X134444230Y-54895372D01*
X134521507Y-54880000D01*
X134718493Y-54880000D01*
X134795770Y-54895372D01*
X134795770Y-54895372D01*
G37*
G36*
X154329500Y-55475000D02*
X152629500Y-55475000D01*
X152629500Y-54375000D01*
X154329500Y-54375000D01*
X154329500Y-55475000D01*
X154329500Y-55475000D01*
G37*
G36*
X158208000Y-53474256D02*
X158207515Y-53475163D01*
X158200402Y-53498612D01*
X158198000Y-53522998D01*
X158198000Y-55297997D01*
X156298000Y-55297997D01*
X156298000Y-53271743D01*
X156298485Y-53270836D01*
X156305598Y-53247387D01*
X156308000Y-53223001D01*
X156308000Y-52398000D01*
X158208000Y-52398000D01*
X158208000Y-53474256D01*
X158208000Y-53474256D01*
G37*
G36*
X161478000Y-55297997D02*
X159578000Y-55297997D01*
X159578000Y-52398000D01*
X161478000Y-52398000D01*
X161478000Y-55297997D01*
X161478000Y-55297997D01*
G37*
G36*
X130223770Y-52609372D02*
X130339689Y-52632429D01*
X130521678Y-52707811D01*
X130685463Y-52817249D01*
X130824751Y-52956537D01*
X130934189Y-53120322D01*
X131009571Y-53302311D01*
X131048000Y-53495509D01*
X131048000Y-53692491D01*
X131009571Y-53885689D01*
X130934189Y-54067678D01*
X130824751Y-54231463D01*
X130685463Y-54370751D01*
X130521678Y-54480189D01*
X130339689Y-54555571D01*
X130223770Y-54578628D01*
X130146493Y-54594000D01*
X129949507Y-54594000D01*
X129872230Y-54578628D01*
X129756311Y-54555571D01*
X129574322Y-54480189D01*
X129410537Y-54370751D01*
X129271249Y-54231463D01*
X129161811Y-54067678D01*
X129086429Y-53885689D01*
X129048000Y-53692491D01*
X129048000Y-53495509D01*
X129086429Y-53302311D01*
X129161811Y-53120322D01*
X129271249Y-52956537D01*
X129410537Y-52817249D01*
X129574322Y-52707811D01*
X129756311Y-52632429D01*
X129872230Y-52609372D01*
X129949507Y-52594000D01*
X130146493Y-52594000D01*
X130223770Y-52609372D01*
X130223770Y-52609372D01*
G37*
G36*
X134795770Y-52355372D02*
X134911689Y-52378429D01*
X135093678Y-52453811D01*
X135257463Y-52563249D01*
X135396751Y-52702537D01*
X135506189Y-52866322D01*
X135581571Y-53048311D01*
X135620000Y-53241509D01*
X135620000Y-53438491D01*
X135581571Y-53631689D01*
X135506189Y-53813678D01*
X135396751Y-53977463D01*
X135257463Y-54116751D01*
X135093678Y-54226189D01*
X134911689Y-54301571D01*
X134795770Y-54324628D01*
X134718493Y-54340000D01*
X134521507Y-54340000D01*
X134444230Y-54324628D01*
X134328311Y-54301571D01*
X134146322Y-54226189D01*
X133982537Y-54116751D01*
X133843249Y-53977463D01*
X133733811Y-53813678D01*
X133658429Y-53631689D01*
X133620000Y-53438491D01*
X133620000Y-53241509D01*
X133658429Y-53048311D01*
X133733811Y-52866322D01*
X133843249Y-52702537D01*
X133982537Y-52563249D01*
X134146322Y-52453811D01*
X134328311Y-52378429D01*
X134444230Y-52355372D01*
X134521507Y-52340000D01*
X134718493Y-52340000D01*
X134795770Y-52355372D01*
X134795770Y-52355372D01*
G37*
G36*
X154329500Y-53575000D02*
X152629500Y-53575000D01*
X152629500Y-52475000D01*
X154329500Y-52475000D01*
X154329500Y-53575000D01*
X154329500Y-53575000D01*
G37*
G36*
X145463770Y-50069372D02*
X145579689Y-50092429D01*
X145761678Y-50167811D01*
X145925463Y-50277249D01*
X146064751Y-50416537D01*
X146174189Y-50580322D01*
X146249571Y-50762311D01*
X146288000Y-50955509D01*
X146288000Y-51152491D01*
X146249571Y-51345689D01*
X146174189Y-51527678D01*
X146064751Y-51691463D01*
X145925463Y-51830751D01*
X145761678Y-51940189D01*
X145579689Y-52015571D01*
X145463770Y-52038628D01*
X145386493Y-52054000D01*
X145189507Y-52054000D01*
X145112230Y-52038628D01*
X144996311Y-52015571D01*
X144814322Y-51940189D01*
X144650537Y-51830751D01*
X144511249Y-51691463D01*
X144401811Y-51527678D01*
X144326429Y-51345689D01*
X144288000Y-51152491D01*
X144288000Y-50955509D01*
X144326429Y-50762311D01*
X144401811Y-50580322D01*
X144511249Y-50416537D01*
X144650537Y-50277249D01*
X144814322Y-50167811D01*
X144996311Y-50092429D01*
X145112230Y-50069372D01*
X145189507Y-50054000D01*
X145386493Y-50054000D01*
X145463770Y-50069372D01*
X145463770Y-50069372D01*
G37*
G36*
X130223770Y-50069372D02*
X130339689Y-50092429D01*
X130521678Y-50167811D01*
X130685463Y-50277249D01*
X130824751Y-50416537D01*
X130934189Y-50580322D01*
X131009571Y-50762311D01*
X131048000Y-50955509D01*
X131048000Y-51152491D01*
X131009571Y-51345689D01*
X130934189Y-51527678D01*
X130824751Y-51691463D01*
X130685463Y-51830751D01*
X130521678Y-51940189D01*
X130339689Y-52015571D01*
X130223770Y-52038628D01*
X130146493Y-52054000D01*
X129949507Y-52054000D01*
X129872230Y-52038628D01*
X129756311Y-52015571D01*
X129574322Y-51940189D01*
X129410537Y-51830751D01*
X129271249Y-51691463D01*
X129161811Y-51527678D01*
X129086429Y-51345689D01*
X129048000Y-51152491D01*
X129048000Y-50955509D01*
X129086429Y-50762311D01*
X129161811Y-50580322D01*
X129271249Y-50416537D01*
X129410537Y-50277249D01*
X129574322Y-50167811D01*
X129756311Y-50092429D01*
X129872230Y-50069372D01*
X129949507Y-50054000D01*
X130146493Y-50054000D01*
X130223770Y-50069372D01*
X130223770Y-50069372D01*
G37*
G36*
X134795770Y-49815372D02*
X134911689Y-49838429D01*
X135093678Y-49913811D01*
X135257463Y-50023249D01*
X135396751Y-50162537D01*
X135506189Y-50326322D01*
X135581571Y-50508311D01*
X135620000Y-50701509D01*
X135620000Y-50898491D01*
X135581571Y-51091689D01*
X135506189Y-51273678D01*
X135396751Y-51437463D01*
X135257463Y-51576751D01*
X135093678Y-51686189D01*
X134911689Y-51761571D01*
X134795770Y-51784628D01*
X134718493Y-51800000D01*
X134521507Y-51800000D01*
X134444230Y-51784628D01*
X134328311Y-51761571D01*
X134146322Y-51686189D01*
X133982537Y-51576751D01*
X133843249Y-51437463D01*
X133733811Y-51273678D01*
X133658429Y-51091689D01*
X133620000Y-50898491D01*
X133620000Y-50701509D01*
X133658429Y-50508311D01*
X133733811Y-50326322D01*
X133843249Y-50162537D01*
X133982537Y-50023249D01*
X134146322Y-49913811D01*
X134328311Y-49838429D01*
X134444230Y-49815372D01*
X134521507Y-49800000D01*
X134718493Y-49800000D01*
X134795770Y-49815372D01*
X134795770Y-49815372D01*
G37*
G36*
X153719765Y-49290620D02*
X153909289Y-49369123D01*
X154079855Y-49483092D01*
X154224908Y-49628145D01*
X154338877Y-49798711D01*
X154417380Y-49988235D01*
X154457400Y-50189430D01*
X154457400Y-50394570D01*
X154417380Y-50595765D01*
X154338877Y-50785289D01*
X154224908Y-50955855D01*
X154079855Y-51100908D01*
X153909289Y-51214877D01*
X153719765Y-51293380D01*
X153518570Y-51333400D01*
X153313430Y-51333400D01*
X153112235Y-51293380D01*
X152922711Y-51214877D01*
X152752145Y-51100908D01*
X152607092Y-50955855D01*
X152493123Y-50785289D01*
X152414620Y-50595765D01*
X152374600Y-50394570D01*
X152374600Y-50189430D01*
X152414620Y-49988235D01*
X152493123Y-49798711D01*
X152607092Y-49628145D01*
X152752145Y-49483092D01*
X152922711Y-49369123D01*
X153112235Y-49290620D01*
X153313430Y-49250600D01*
X153518570Y-49250600D01*
X153719765Y-49290620D01*
X153719765Y-49290620D01*
G37*
G36*
X162216000Y-51332500D02*
X161116000Y-51332500D01*
X161116000Y-49632500D01*
X162216000Y-49632500D01*
X162216000Y-51332500D01*
X162216000Y-51332500D01*
G37*
G36*
X160316000Y-51332500D02*
X159216000Y-51332500D01*
X159216000Y-49632500D01*
X160316000Y-49632500D01*
X160316000Y-51332500D01*
X160316000Y-51332500D01*
G37*
G36*
X130223770Y-47529372D02*
X130339689Y-47552429D01*
X130521678Y-47627811D01*
X130685463Y-47737249D01*
X130824751Y-47876537D01*
X130934189Y-48040322D01*
X131009571Y-48222311D01*
X131048000Y-48415509D01*
X131048000Y-48612491D01*
X131009571Y-48805689D01*
X130934189Y-48987678D01*
X130824751Y-49151463D01*
X130685463Y-49290751D01*
X130521678Y-49400189D01*
X130339689Y-49475571D01*
X130223770Y-49498628D01*
X130146493Y-49514000D01*
X129949507Y-49514000D01*
X129872230Y-49498628D01*
X129756311Y-49475571D01*
X129574322Y-49400189D01*
X129410537Y-49290751D01*
X129271249Y-49151463D01*
X129161811Y-48987678D01*
X129086429Y-48805689D01*
X129048000Y-48612491D01*
X129048000Y-48415509D01*
X129086429Y-48222311D01*
X129161811Y-48040322D01*
X129271249Y-47876537D01*
X129410537Y-47737249D01*
X129574322Y-47627811D01*
X129756311Y-47552429D01*
X129872230Y-47529372D01*
X129949507Y-47514000D01*
X130146493Y-47514000D01*
X130223770Y-47529372D01*
X130223770Y-47529372D01*
G37*
G36*
X134795770Y-47275372D02*
X134911689Y-47298429D01*
X135093678Y-47373811D01*
X135257463Y-47483249D01*
X135396751Y-47622537D01*
X135506189Y-47786322D01*
X135581571Y-47968311D01*
X135620000Y-48161509D01*
X135620000Y-48358491D01*
X135581571Y-48551689D01*
X135506189Y-48733678D01*
X135396751Y-48897463D01*
X135257463Y-49036751D01*
X135093678Y-49146189D01*
X134911689Y-49221571D01*
X134795770Y-49244628D01*
X134718493Y-49260000D01*
X134521507Y-49260000D01*
X134444230Y-49244628D01*
X134328311Y-49221571D01*
X134146322Y-49146189D01*
X133982537Y-49036751D01*
X133843249Y-48897463D01*
X133733811Y-48733678D01*
X133658429Y-48551689D01*
X133620000Y-48358491D01*
X133620000Y-48161509D01*
X133658429Y-47968311D01*
X133733811Y-47786322D01*
X133843249Y-47622537D01*
X133982537Y-47483249D01*
X134146322Y-47373811D01*
X134328311Y-47298429D01*
X134444230Y-47275372D01*
X134521507Y-47260000D01*
X134718493Y-47260000D01*
X134795770Y-47275372D01*
X134795770Y-47275372D01*
G37*
G36*
X153719765Y-46750620D02*
X153909289Y-46829123D01*
X154079855Y-46943092D01*
X154224908Y-47088145D01*
X154338877Y-47258711D01*
X154417380Y-47448235D01*
X154457400Y-47649430D01*
X154457400Y-47854570D01*
X154417380Y-48055765D01*
X154338877Y-48245289D01*
X154224908Y-48415855D01*
X154079855Y-48560908D01*
X153909289Y-48674877D01*
X153719765Y-48753380D01*
X153518570Y-48793400D01*
X153313430Y-48793400D01*
X153112235Y-48753380D01*
X152922711Y-48674877D01*
X152752145Y-48560908D01*
X152607092Y-48415855D01*
X152493123Y-48245289D01*
X152414620Y-48055765D01*
X152374600Y-47854570D01*
X152374600Y-47649430D01*
X152414620Y-47448235D01*
X152493123Y-47258711D01*
X152607092Y-47088145D01*
X152752145Y-46943092D01*
X152922711Y-46829123D01*
X153112235Y-46750620D01*
X153313430Y-46710600D01*
X153518570Y-46710600D01*
X153719765Y-46750620D01*
X153719765Y-46750620D01*
G37*
G36*
X161010600Y-48298100D02*
X159359600Y-48298100D01*
X159359600Y-46824900D01*
X161010600Y-46824900D01*
X161010600Y-48298100D01*
X161010600Y-48298100D01*
G37*
G36*
X130223770Y-44989372D02*
X130339689Y-45012429D01*
X130521678Y-45087811D01*
X130685463Y-45197249D01*
X130824751Y-45336537D01*
X130934189Y-45500322D01*
X131009571Y-45682311D01*
X131048000Y-45875509D01*
X131048000Y-46072491D01*
X131009571Y-46265689D01*
X130934189Y-46447678D01*
X130824751Y-46611463D01*
X130685463Y-46750751D01*
X130521678Y-46860189D01*
X130339689Y-46935571D01*
X130223770Y-46958628D01*
X130146493Y-46974000D01*
X129949507Y-46974000D01*
X129872230Y-46958628D01*
X129756311Y-46935571D01*
X129574322Y-46860189D01*
X129410537Y-46750751D01*
X129271249Y-46611463D01*
X129161811Y-46447678D01*
X129086429Y-46265689D01*
X129048000Y-46072491D01*
X129048000Y-45875509D01*
X129086429Y-45682311D01*
X129161811Y-45500322D01*
X129271249Y-45336537D01*
X129410537Y-45197249D01*
X129574322Y-45087811D01*
X129756311Y-45012429D01*
X129872230Y-44989372D01*
X129949507Y-44974000D01*
X130146493Y-44974000D01*
X130223770Y-44989372D01*
X130223770Y-44989372D01*
G37*
G36*
X134795770Y-44735372D02*
X134911689Y-44758429D01*
X135093678Y-44833811D01*
X135257463Y-44943249D01*
X135396751Y-45082537D01*
X135506189Y-45246322D01*
X135581571Y-45428311D01*
X135620000Y-45621509D01*
X135620000Y-45818491D01*
X135581571Y-46011689D01*
X135506189Y-46193678D01*
X135396751Y-46357463D01*
X135257463Y-46496751D01*
X135093678Y-46606189D01*
X134911689Y-46681571D01*
X134795770Y-46704628D01*
X134718493Y-46720000D01*
X134521507Y-46720000D01*
X134444230Y-46704628D01*
X134328311Y-46681571D01*
X134146322Y-46606189D01*
X133982537Y-46496751D01*
X133843249Y-46357463D01*
X133733811Y-46193678D01*
X133658429Y-46011689D01*
X133620000Y-45818491D01*
X133620000Y-45621509D01*
X133658429Y-45428311D01*
X133733811Y-45246322D01*
X133843249Y-45082537D01*
X133982537Y-44943249D01*
X134146322Y-44833811D01*
X134328311Y-44758429D01*
X134444230Y-44735372D01*
X134521507Y-44720000D01*
X134718493Y-44720000D01*
X134795770Y-44735372D01*
X134795770Y-44735372D01*
G37*
G36*
X153719765Y-44210620D02*
X153909289Y-44289123D01*
X154079855Y-44403092D01*
X154224908Y-44548145D01*
X154338877Y-44718711D01*
X154417380Y-44908235D01*
X154457400Y-45109430D01*
X154457400Y-45314570D01*
X154417380Y-45515765D01*
X154338877Y-45705289D01*
X154224908Y-45875855D01*
X154079855Y-46020908D01*
X153909289Y-46134877D01*
X153719765Y-46213380D01*
X153518570Y-46253400D01*
X153313430Y-46253400D01*
X153112235Y-46213380D01*
X152922711Y-46134877D01*
X152752145Y-46020908D01*
X152607092Y-45875855D01*
X152493123Y-45705289D01*
X152414620Y-45515765D01*
X152374600Y-45314570D01*
X152374600Y-45109430D01*
X152414620Y-44908235D01*
X152493123Y-44718711D01*
X152607092Y-44548145D01*
X152752145Y-44403092D01*
X152922711Y-44289123D01*
X153112235Y-44210620D01*
X153313430Y-44170600D01*
X153518570Y-44170600D01*
X153719765Y-44210620D01*
X153719765Y-44210620D01*
G37*
G36*
X157073500Y-46139000D02*
X155473500Y-46139000D01*
X155473500Y-44539000D01*
X157073500Y-44539000D01*
X157073500Y-46139000D01*
X157073500Y-46139000D01*
G37*
G36*
X134795770Y-42195372D02*
X134911689Y-42218429D01*
X135093678Y-42293811D01*
X135257463Y-42403249D01*
X135396751Y-42542537D01*
X135506189Y-42706322D01*
X135581571Y-42888311D01*
X135620000Y-43081509D01*
X135620000Y-43278491D01*
X135581571Y-43471689D01*
X135506189Y-43653678D01*
X135396751Y-43817463D01*
X135257463Y-43956751D01*
X135093678Y-44066189D01*
X134911689Y-44141571D01*
X134795770Y-44164628D01*
X134718493Y-44180000D01*
X134521507Y-44180000D01*
X134444230Y-44164628D01*
X134328311Y-44141571D01*
X134146322Y-44066189D01*
X133982537Y-43956751D01*
X133843249Y-43817463D01*
X133733811Y-43653678D01*
X133658429Y-43471689D01*
X133620000Y-43278491D01*
X133620000Y-43081509D01*
X133658429Y-42888311D01*
X133733811Y-42706322D01*
X133843249Y-42542537D01*
X133982537Y-42403249D01*
X134146322Y-42293811D01*
X134328311Y-42218429D01*
X134444230Y-42195372D01*
X134521507Y-42180000D01*
X134718493Y-42180000D01*
X134795770Y-42195372D01*
X134795770Y-42195372D01*
G37*
G36*
X157073500Y-43939000D02*
X155473500Y-43939000D01*
X155473500Y-42339000D01*
X157073500Y-42339000D01*
X157073500Y-43939000D01*
X157073500Y-43939000D01*
G37*
G36*
X153719765Y-41670620D02*
X153909289Y-41749123D01*
X154079855Y-41863092D01*
X154224908Y-42008145D01*
X154338877Y-42178711D01*
X154417380Y-42368235D01*
X154457400Y-42569430D01*
X154457400Y-42774570D01*
X154417380Y-42975765D01*
X154338877Y-43165289D01*
X154224908Y-43335855D01*
X154079855Y-43480908D01*
X153909289Y-43594877D01*
X153719765Y-43673380D01*
X153518570Y-43713400D01*
X153313430Y-43713400D01*
X153112235Y-43673380D01*
X152922711Y-43594877D01*
X152752145Y-43480908D01*
X152607092Y-43335855D01*
X152493123Y-43165289D01*
X152414620Y-42975765D01*
X152374600Y-42774570D01*
X152374600Y-42569430D01*
X152414620Y-42368235D01*
X152493123Y-42178711D01*
X152607092Y-42008145D01*
X152752145Y-41863092D01*
X152922711Y-41749123D01*
X153112235Y-41670620D01*
X153313430Y-41630600D01*
X153518570Y-41630600D01*
X153719765Y-41670620D01*
X153719765Y-41670620D01*
G37*
G36*
X162153600Y-43078400D02*
X160680400Y-43078400D01*
X160680400Y-41427400D01*
X162153600Y-41427400D01*
X162153600Y-43078400D01*
X162153600Y-43078400D01*
G37*
G36*
X130223770Y-39909372D02*
X130339689Y-39932429D01*
X130521678Y-40007811D01*
X130685463Y-40117249D01*
X130824751Y-40256537D01*
X130934189Y-40420322D01*
X131009571Y-40602311D01*
X131048000Y-40795509D01*
X131048000Y-40992491D01*
X131009571Y-41185689D01*
X130934189Y-41367678D01*
X130824751Y-41531463D01*
X130685463Y-41670751D01*
X130521678Y-41780189D01*
X130339689Y-41855571D01*
X130223770Y-41878628D01*
X130146493Y-41894000D01*
X129949507Y-41894000D01*
X129872230Y-41878628D01*
X129756311Y-41855571D01*
X129574322Y-41780189D01*
X129410537Y-41670751D01*
X129271249Y-41531463D01*
X129161811Y-41367678D01*
X129086429Y-41185689D01*
X129048000Y-40992491D01*
X129048000Y-40795509D01*
X129086429Y-40602311D01*
X129161811Y-40420322D01*
X129271249Y-40256537D01*
X129410537Y-40117249D01*
X129574322Y-40007811D01*
X129756311Y-39932429D01*
X129872230Y-39909372D01*
X129949507Y-39894000D01*
X130146493Y-39894000D01*
X130223770Y-39909372D01*
X130223770Y-39909372D01*
G37*
G36*
X153719765Y-39130620D02*
X153909289Y-39209123D01*
X154079855Y-39323092D01*
X154224908Y-39468145D01*
X154338877Y-39638711D01*
X154417380Y-39828235D01*
X154457400Y-40029430D01*
X154457400Y-40234570D01*
X154417380Y-40435765D01*
X154338877Y-40625289D01*
X154224908Y-40795855D01*
X154079855Y-40940908D01*
X153909289Y-41054877D01*
X153719765Y-41133380D01*
X153518570Y-41173400D01*
X153313430Y-41173400D01*
X153112235Y-41133380D01*
X152922711Y-41054877D01*
X152752145Y-40940908D01*
X152607092Y-40795855D01*
X152493123Y-40625289D01*
X152414620Y-40435765D01*
X152374600Y-40234570D01*
X152374600Y-40029430D01*
X152414620Y-39828235D01*
X152493123Y-39638711D01*
X152607092Y-39468145D01*
X152752145Y-39323092D01*
X152922711Y-39209123D01*
X153112235Y-39130620D01*
X153313430Y-39090600D01*
X153518570Y-39090600D01*
X153719765Y-39130620D01*
X153719765Y-39130620D01*
G37*
G36*
X157336500Y-40728000D02*
X156236500Y-40728000D01*
X156236500Y-39028000D01*
X157336500Y-39028000D01*
X157336500Y-40728000D01*
X157336500Y-40728000D01*
G37*
G36*
X159236500Y-40728000D02*
X158136500Y-40728000D01*
X158136500Y-39028000D01*
X159236500Y-39028000D01*
X159236500Y-40728000D01*
X159236500Y-40728000D01*
G37*
G36*
X130223770Y-37369372D02*
X130339689Y-37392429D01*
X130521678Y-37467811D01*
X130685463Y-37577249D01*
X130824751Y-37716537D01*
X130934189Y-37880322D01*
X131009571Y-38062311D01*
X131048000Y-38255509D01*
X131048000Y-38452491D01*
X131009571Y-38645689D01*
X130934189Y-38827678D01*
X130824751Y-38991463D01*
X130685463Y-39130751D01*
X130521678Y-39240189D01*
X130339689Y-39315571D01*
X130223770Y-39338628D01*
X130146493Y-39354000D01*
X129949507Y-39354000D01*
X129872230Y-39338628D01*
X129756311Y-39315571D01*
X129574322Y-39240189D01*
X129410537Y-39130751D01*
X129271249Y-38991463D01*
X129161811Y-38827678D01*
X129086429Y-38645689D01*
X129048000Y-38452491D01*
X129048000Y-38255509D01*
X129086429Y-38062311D01*
X129161811Y-37880322D01*
X129271249Y-37716537D01*
X129410537Y-37577249D01*
X129574322Y-37467811D01*
X129756311Y-37392429D01*
X129872230Y-37369372D01*
X129949507Y-37354000D01*
X130146493Y-37354000D01*
X130223770Y-37369372D01*
X130223770Y-37369372D01*
G37*
G36*
X153719765Y-36590620D02*
X153909289Y-36669123D01*
X154079855Y-36783092D01*
X154224908Y-36928145D01*
X154338877Y-37098711D01*
X154417380Y-37288235D01*
X154457400Y-37489430D01*
X154457400Y-37694570D01*
X154417380Y-37895765D01*
X154338877Y-38085289D01*
X154224908Y-38255855D01*
X154079855Y-38400908D01*
X153909289Y-38514877D01*
X153719765Y-38593380D01*
X153518570Y-38633400D01*
X153313430Y-38633400D01*
X153112235Y-38593380D01*
X152922711Y-38514877D01*
X152752145Y-38400908D01*
X152607092Y-38255855D01*
X152493123Y-38085289D01*
X152414620Y-37895765D01*
X152374600Y-37694570D01*
X152374600Y-37489430D01*
X152414620Y-37288235D01*
X152493123Y-37098711D01*
X152607092Y-36928145D01*
X152752145Y-36783092D01*
X152922711Y-36669123D01*
X153112235Y-36590620D01*
X153313430Y-36550600D01*
X153518570Y-36550600D01*
X153719765Y-36590620D01*
X153719765Y-36590620D01*
G37*
G36*
X161339765Y-36082620D02*
X161529289Y-36161123D01*
X161699855Y-36275092D01*
X161844908Y-36420145D01*
X161958877Y-36590711D01*
X162037380Y-36780235D01*
X162077400Y-36981430D01*
X162077400Y-37186570D01*
X162037380Y-37387765D01*
X161958877Y-37577289D01*
X161844908Y-37747855D01*
X161699855Y-37892908D01*
X161529289Y-38006877D01*
X161339765Y-38085380D01*
X161138570Y-38125400D01*
X160933430Y-38125400D01*
X160732235Y-38085380D01*
X160542711Y-38006877D01*
X160372145Y-37892908D01*
X160227092Y-37747855D01*
X160113123Y-37577289D01*
X160034620Y-37387765D01*
X159994600Y-37186570D01*
X159994600Y-36981430D01*
X160034620Y-36780235D01*
X160113123Y-36590711D01*
X160227092Y-36420145D01*
X160372145Y-36275092D01*
X160542711Y-36161123D01*
X160732235Y-36082620D01*
X160933430Y-36042600D01*
X161138570Y-36042600D01*
X161339765Y-36082620D01*
X161339765Y-36082620D01*
G37*
G36*
X135177765Y-34939620D02*
X135367289Y-35018123D01*
X135537855Y-35132092D01*
X135682908Y-35277145D01*
X135796877Y-35447711D01*
X135875380Y-35637235D01*
X135915400Y-35838430D01*
X135915400Y-36043570D01*
X135875380Y-36244765D01*
X135796877Y-36434289D01*
X135682908Y-36604855D01*
X135537855Y-36749908D01*
X135367289Y-36863877D01*
X135177765Y-36942380D01*
X134976570Y-36982400D01*
X134771430Y-36982400D01*
X134570235Y-36942380D01*
X134380711Y-36863877D01*
X134210145Y-36749908D01*
X134065092Y-36604855D01*
X133951123Y-36434289D01*
X133872620Y-36244765D01*
X133832600Y-36043570D01*
X133832600Y-35838430D01*
X133872620Y-35637235D01*
X133951123Y-35447711D01*
X134065092Y-35277145D01*
X134210145Y-35132092D01*
X134380711Y-35018123D01*
X134570235Y-34939620D01*
X134771430Y-34899600D01*
X134976570Y-34899600D01*
X135177765Y-34939620D01*
X135177765Y-34939620D01*
G37*
G36*
X153719765Y-34050620D02*
X153909289Y-34129123D01*
X154079855Y-34243092D01*
X154224908Y-34388145D01*
X154338877Y-34558711D01*
X154417380Y-34748235D01*
X154457400Y-34949430D01*
X154457400Y-35154570D01*
X154417380Y-35355765D01*
X154338877Y-35545289D01*
X154224908Y-35715855D01*
X154079855Y-35860908D01*
X153909289Y-35974877D01*
X153719765Y-36053380D01*
X153518570Y-36093400D01*
X153313430Y-36093400D01*
X153112235Y-36053380D01*
X152922711Y-35974877D01*
X152752145Y-35860908D01*
X152607092Y-35715855D01*
X152493123Y-35545289D01*
X152414620Y-35355765D01*
X152374600Y-35154570D01*
X152374600Y-34949430D01*
X152414620Y-34748235D01*
X152493123Y-34558711D01*
X152607092Y-34388145D01*
X152752145Y-34243092D01*
X152922711Y-34129123D01*
X153112235Y-34050620D01*
X153313430Y-34010600D01*
X153518570Y-34010600D01*
X153719765Y-34050620D01*
X153719765Y-34050620D01*
G37*
G36*
X161339765Y-33542620D02*
X161529289Y-33621123D01*
X161699855Y-33735092D01*
X161844908Y-33880145D01*
X161958877Y-34050711D01*
X162037380Y-34240235D01*
X162077400Y-34441430D01*
X162077400Y-34646570D01*
X162037380Y-34847765D01*
X161958877Y-35037289D01*
X161844908Y-35207855D01*
X161699855Y-35352908D01*
X161529289Y-35466877D01*
X161339765Y-35545380D01*
X161138570Y-35585400D01*
X160933430Y-35585400D01*
X160732235Y-35545380D01*
X160542711Y-35466877D01*
X160372145Y-35352908D01*
X160227092Y-35207855D01*
X160113123Y-35037289D01*
X160034620Y-34847765D01*
X159994600Y-34646570D01*
X159994600Y-34441430D01*
X160034620Y-34240235D01*
X160113123Y-34050711D01*
X160227092Y-33880145D01*
X160372145Y-33735092D01*
X160542711Y-33621123D01*
X160732235Y-33542620D01*
X160933430Y-33502600D01*
X161138570Y-33502600D01*
X161339765Y-33542620D01*
X161339765Y-33542620D01*
G37*
G36*
X140575265Y-32526620D02*
X140764789Y-32605123D01*
X140935355Y-32719092D01*
X141080408Y-32864145D01*
X141194377Y-33034711D01*
X141272880Y-33224235D01*
X141312900Y-33425430D01*
X141312900Y-33630570D01*
X141272880Y-33831765D01*
X141194377Y-34021289D01*
X141080408Y-34191855D01*
X140935355Y-34336908D01*
X140764789Y-34450877D01*
X140575265Y-34529380D01*
X140374070Y-34569400D01*
X140168930Y-34569400D01*
X139967735Y-34529380D01*
X139778211Y-34450877D01*
X139607645Y-34336908D01*
X139462592Y-34191855D01*
X139348623Y-34021289D01*
X139270120Y-33831765D01*
X139230100Y-33630570D01*
X139230100Y-33425430D01*
X139270120Y-33224235D01*
X139348623Y-33034711D01*
X139462592Y-32864145D01*
X139607645Y-32719092D01*
X139778211Y-32605123D01*
X139967735Y-32526620D01*
X140168930Y-32486600D01*
X140374070Y-32486600D01*
X140575265Y-32526620D01*
X140575265Y-32526620D01*
G37*
G36*
X135177765Y-32399620D02*
X135367289Y-32478123D01*
X135537855Y-32592092D01*
X135682908Y-32737145D01*
X135796877Y-32907711D01*
X135875380Y-33097235D01*
X135915400Y-33298430D01*
X135915400Y-33503570D01*
X135875380Y-33704765D01*
X135796877Y-33894289D01*
X135682908Y-34064855D01*
X135537855Y-34209908D01*
X135367289Y-34323877D01*
X135177765Y-34402380D01*
X134976570Y-34442400D01*
X134771430Y-34442400D01*
X134570235Y-34402380D01*
X134380711Y-34323877D01*
X134210145Y-34209908D01*
X134065092Y-34064855D01*
X133951123Y-33894289D01*
X133872620Y-33704765D01*
X133832600Y-33503570D01*
X133832600Y-33298430D01*
X133872620Y-33097235D01*
X133951123Y-32907711D01*
X134065092Y-32737145D01*
X134210145Y-32592092D01*
X134380711Y-32478123D01*
X134570235Y-32399620D01*
X134771430Y-32359600D01*
X134976570Y-32359600D01*
X135177765Y-32399620D01*
X135177765Y-32399620D01*
G37*
G36*
X145463770Y-32289372D02*
X145579689Y-32312429D01*
X145761678Y-32387811D01*
X145925463Y-32497249D01*
X146064751Y-32636537D01*
X146174189Y-32800322D01*
X146249571Y-32982311D01*
X146288000Y-33175509D01*
X146288000Y-33372491D01*
X146249571Y-33565689D01*
X146174189Y-33747678D01*
X146064751Y-33911463D01*
X145925463Y-34050751D01*
X145761678Y-34160189D01*
X145579689Y-34235571D01*
X145463770Y-34258628D01*
X145386493Y-34274000D01*
X145189507Y-34274000D01*
X145112230Y-34258628D01*
X144996311Y-34235571D01*
X144814322Y-34160189D01*
X144650537Y-34050751D01*
X144511249Y-33911463D01*
X144401811Y-33747678D01*
X144326429Y-33565689D01*
X144288000Y-33372491D01*
X144288000Y-33175509D01*
X144326429Y-32982311D01*
X144401811Y-32800322D01*
X144511249Y-32636537D01*
X144650537Y-32497249D01*
X144814322Y-32387811D01*
X144996311Y-32312429D01*
X145112230Y-32289372D01*
X145189507Y-32274000D01*
X145386493Y-32274000D01*
X145463770Y-32289372D01*
X145463770Y-32289372D01*
G37*
G36*
X153719765Y-31510620D02*
X153909289Y-31589123D01*
X154079855Y-31703092D01*
X154224908Y-31848145D01*
X154338877Y-32018711D01*
X154417380Y-32208235D01*
X154457400Y-32409430D01*
X154457400Y-32614570D01*
X154417380Y-32815765D01*
X154338877Y-33005289D01*
X154224908Y-33175855D01*
X154079855Y-33320908D01*
X153909289Y-33434877D01*
X153719765Y-33513380D01*
X153518570Y-33553400D01*
X153313430Y-33553400D01*
X153112235Y-33513380D01*
X152922711Y-33434877D01*
X152752145Y-33320908D01*
X152607092Y-33175855D01*
X152493123Y-33005289D01*
X152414620Y-32815765D01*
X152374600Y-32614570D01*
X152374600Y-32409430D01*
X152414620Y-32208235D01*
X152493123Y-32018711D01*
X152607092Y-31848145D01*
X152752145Y-31703092D01*
X152922711Y-31589123D01*
X153112235Y-31510620D01*
X153313430Y-31470600D01*
X153518570Y-31470600D01*
X153719765Y-31510620D01*
X153719765Y-31510620D01*
G37*
G36*
X161339765Y-31002620D02*
X161529289Y-31081123D01*
X161699855Y-31195092D01*
X161844908Y-31340145D01*
X161958877Y-31510711D01*
X162037380Y-31700235D01*
X162077400Y-31901430D01*
X162077400Y-32106570D01*
X162037380Y-32307765D01*
X161958877Y-32497289D01*
X161844908Y-32667855D01*
X161699855Y-32812908D01*
X161529289Y-32926877D01*
X161339765Y-33005380D01*
X161138570Y-33045400D01*
X160933430Y-33045400D01*
X160732235Y-33005380D01*
X160542711Y-32926877D01*
X160372145Y-32812908D01*
X160227092Y-32667855D01*
X160113123Y-32497289D01*
X160034620Y-32307765D01*
X159994600Y-32106570D01*
X159994600Y-31901430D01*
X160034620Y-31700235D01*
X160113123Y-31510711D01*
X160227092Y-31340145D01*
X160372145Y-31195092D01*
X160542711Y-31081123D01*
X160732235Y-31002620D01*
X160933430Y-30962600D01*
X161138570Y-30962600D01*
X161339765Y-31002620D01*
X161339765Y-31002620D01*
G37*
G36*
X140575265Y-29986620D02*
X140764789Y-30065123D01*
X140935355Y-30179092D01*
X141080408Y-30324145D01*
X141194377Y-30494711D01*
X141272880Y-30684235D01*
X141312900Y-30885430D01*
X141312900Y-31090570D01*
X141272880Y-31291765D01*
X141194377Y-31481289D01*
X141080408Y-31651855D01*
X140935355Y-31796908D01*
X140764789Y-31910877D01*
X140575265Y-31989380D01*
X140374070Y-32029400D01*
X140168930Y-32029400D01*
X139967735Y-31989380D01*
X139778211Y-31910877D01*
X139607645Y-31796908D01*
X139462592Y-31651855D01*
X139348623Y-31481289D01*
X139270120Y-31291765D01*
X139230100Y-31090570D01*
X139230100Y-30885430D01*
X139270120Y-30684235D01*
X139348623Y-30494711D01*
X139462592Y-30324145D01*
X139607645Y-30179092D01*
X139778211Y-30065123D01*
X139967735Y-29986620D01*
X140168930Y-29946600D01*
X140374070Y-29946600D01*
X140575265Y-29986620D01*
X140575265Y-29986620D01*
G37*
G36*
X135177765Y-29859620D02*
X135367289Y-29938123D01*
X135537855Y-30052092D01*
X135682908Y-30197145D01*
X135796877Y-30367711D01*
X135875380Y-30557235D01*
X135915400Y-30758430D01*
X135915400Y-30963570D01*
X135875380Y-31164765D01*
X135796877Y-31354289D01*
X135682908Y-31524855D01*
X135537855Y-31669908D01*
X135367289Y-31783877D01*
X135177765Y-31862380D01*
X134976570Y-31902400D01*
X134771430Y-31902400D01*
X134570235Y-31862380D01*
X134380711Y-31783877D01*
X134210145Y-31669908D01*
X134065092Y-31524855D01*
X133951123Y-31354289D01*
X133872620Y-31164765D01*
X133832600Y-30963570D01*
X133832600Y-30758430D01*
X133872620Y-30557235D01*
X133951123Y-30367711D01*
X134065092Y-30197145D01*
X134210145Y-30052092D01*
X134380711Y-29938123D01*
X134570235Y-29859620D01*
X134771430Y-29819600D01*
X134976570Y-29819600D01*
X135177765Y-29859620D01*
X135177765Y-29859620D01*
G37*
G36*
X130223770Y-29749372D02*
X130339689Y-29772429D01*
X130521678Y-29847811D01*
X130685463Y-29957249D01*
X130824751Y-30096537D01*
X130934189Y-30260322D01*
X131009571Y-30442311D01*
X131048000Y-30635509D01*
X131048000Y-30832491D01*
X131009571Y-31025689D01*
X130934189Y-31207678D01*
X130824751Y-31371463D01*
X130685463Y-31510751D01*
X130521678Y-31620189D01*
X130339689Y-31695571D01*
X130223770Y-31718628D01*
X130146493Y-31734000D01*
X129949507Y-31734000D01*
X129872230Y-31718628D01*
X129756311Y-31695571D01*
X129574322Y-31620189D01*
X129410537Y-31510751D01*
X129271249Y-31371463D01*
X129161811Y-31207678D01*
X129086429Y-31025689D01*
X129048000Y-30832491D01*
X129048000Y-30635509D01*
X129086429Y-30442311D01*
X129161811Y-30260322D01*
X129271249Y-30096537D01*
X129410537Y-29957249D01*
X129574322Y-29847811D01*
X129756311Y-29772429D01*
X129872230Y-29749372D01*
X129949507Y-29734000D01*
X130146493Y-29734000D01*
X130223770Y-29749372D01*
X130223770Y-29749372D01*
G37*
G36*
X145463770Y-29749372D02*
X145579689Y-29772429D01*
X145761678Y-29847811D01*
X145925463Y-29957249D01*
X146064751Y-30096537D01*
X146174189Y-30260322D01*
X146249571Y-30442311D01*
X146288000Y-30635509D01*
X146288000Y-30832491D01*
X146249571Y-31025689D01*
X146174189Y-31207678D01*
X146064751Y-31371463D01*
X145925463Y-31510751D01*
X145761678Y-31620189D01*
X145579689Y-31695571D01*
X145463770Y-31718628D01*
X145386493Y-31734000D01*
X145189507Y-31734000D01*
X145112230Y-31718628D01*
X144996311Y-31695571D01*
X144814322Y-31620189D01*
X144650537Y-31510751D01*
X144511249Y-31371463D01*
X144401811Y-31207678D01*
X144326429Y-31025689D01*
X144288000Y-30832491D01*
X144288000Y-30635509D01*
X144326429Y-30442311D01*
X144401811Y-30260322D01*
X144511249Y-30096537D01*
X144650537Y-29957249D01*
X144814322Y-29847811D01*
X144996311Y-29772429D01*
X145112230Y-29749372D01*
X145189507Y-29734000D01*
X145386493Y-29734000D01*
X145463770Y-29749372D01*
X145463770Y-29749372D01*
G37*
G36*
X140575265Y-27446620D02*
X140764789Y-27525123D01*
X140935355Y-27639092D01*
X141080408Y-27784145D01*
X141194377Y-27954711D01*
X141272880Y-28144235D01*
X141312900Y-28345430D01*
X141312900Y-28550570D01*
X141272880Y-28751765D01*
X141194377Y-28941289D01*
X141080408Y-29111855D01*
X140935355Y-29256908D01*
X140764789Y-29370877D01*
X140575265Y-29449380D01*
X140374070Y-29489400D01*
X140168930Y-29489400D01*
X139967735Y-29449380D01*
X139778211Y-29370877D01*
X139607645Y-29256908D01*
X139462592Y-29111855D01*
X139348623Y-28941289D01*
X139270120Y-28751765D01*
X139230100Y-28550570D01*
X139230100Y-28345430D01*
X139270120Y-28144235D01*
X139348623Y-27954711D01*
X139462592Y-27784145D01*
X139607645Y-27639092D01*
X139778211Y-27525123D01*
X139967735Y-27446620D01*
X140168930Y-27406600D01*
X140374070Y-27406600D01*
X140575265Y-27446620D01*
X140575265Y-27446620D01*
G37*
G36*
X135177765Y-27319620D02*
X135367289Y-27398123D01*
X135537855Y-27512092D01*
X135682908Y-27657145D01*
X135796877Y-27827711D01*
X135875380Y-28017235D01*
X135915400Y-28218430D01*
X135915400Y-28423570D01*
X135875380Y-28624765D01*
X135796877Y-28814289D01*
X135682908Y-28984855D01*
X135537855Y-29129908D01*
X135367289Y-29243877D01*
X135177765Y-29322380D01*
X134976570Y-29362400D01*
X134771430Y-29362400D01*
X134570235Y-29322380D01*
X134380711Y-29243877D01*
X134210145Y-29129908D01*
X134065092Y-28984855D01*
X133951123Y-28814289D01*
X133872620Y-28624765D01*
X133832600Y-28423570D01*
X133832600Y-28218430D01*
X133872620Y-28017235D01*
X133951123Y-27827711D01*
X134065092Y-27657145D01*
X134210145Y-27512092D01*
X134380711Y-27398123D01*
X134570235Y-27319620D01*
X134771430Y-27279600D01*
X134976570Y-27279600D01*
X135177765Y-27319620D01*
X135177765Y-27319620D01*
G37*
G36*
X145463770Y-27209372D02*
X145579689Y-27232429D01*
X145761678Y-27307811D01*
X145925463Y-27417249D01*
X146064751Y-27556537D01*
X146174189Y-27720322D01*
X146249571Y-27902311D01*
X146288000Y-28095509D01*
X146288000Y-28292491D01*
X146249571Y-28485689D01*
X146174189Y-28667678D01*
X146064751Y-28831463D01*
X145925463Y-28970751D01*
X145761678Y-29080189D01*
X145579689Y-29155571D01*
X145463770Y-29178628D01*
X145386493Y-29194000D01*
X145189507Y-29194000D01*
X145112230Y-29178628D01*
X144996311Y-29155571D01*
X144814322Y-29080189D01*
X144650537Y-28970751D01*
X144511249Y-28831463D01*
X144401811Y-28667678D01*
X144326429Y-28485689D01*
X144288000Y-28292491D01*
X144288000Y-28095509D01*
X144326429Y-27902311D01*
X144401811Y-27720322D01*
X144511249Y-27556537D01*
X144650537Y-27417249D01*
X144814322Y-27307811D01*
X144996311Y-27232429D01*
X145112230Y-27209372D01*
X145189507Y-27194000D01*
X145386493Y-27194000D01*
X145463770Y-27209372D01*
X145463770Y-27209372D01*
G37*
G36*
X130223770Y-27209372D02*
X130339689Y-27232429D01*
X130521678Y-27307811D01*
X130685463Y-27417249D01*
X130824751Y-27556537D01*
X130934189Y-27720322D01*
X131009571Y-27902311D01*
X131048000Y-28095509D01*
X131048000Y-28292491D01*
X131009571Y-28485689D01*
X130934189Y-28667678D01*
X130824751Y-28831463D01*
X130685463Y-28970751D01*
X130521678Y-29080189D01*
X130339689Y-29155571D01*
X130223770Y-29178628D01*
X130146493Y-29194000D01*
X129949507Y-29194000D01*
X129872230Y-29178628D01*
X129756311Y-29155571D01*
X129574322Y-29080189D01*
X129410537Y-28970751D01*
X129271249Y-28831463D01*
X129161811Y-28667678D01*
X129086429Y-28485689D01*
X129048000Y-28292491D01*
X129048000Y-28095509D01*
X129086429Y-27902311D01*
X129161811Y-27720322D01*
X129271249Y-27556537D01*
X129410537Y-27417249D01*
X129574322Y-27307811D01*
X129756311Y-27232429D01*
X129872230Y-27209372D01*
X129949507Y-27194000D01*
X130146493Y-27194000D01*
X130223770Y-27209372D01*
X130223770Y-27209372D01*
G37*
G36*
X156131770Y-26955372D02*
X156247689Y-26978429D01*
X156429678Y-27053811D01*
X156593463Y-27163249D01*
X156732751Y-27302537D01*
X156842189Y-27466322D01*
X156917571Y-27648311D01*
X156931895Y-27720325D01*
X156953256Y-27827711D01*
X156956000Y-27841509D01*
X156956000Y-28038491D01*
X156917571Y-28231689D01*
X156842189Y-28413678D01*
X156732751Y-28577463D01*
X156593463Y-28716751D01*
X156429678Y-28826189D01*
X156247689Y-28901571D01*
X156131770Y-28924628D01*
X156054493Y-28940000D01*
X155857507Y-28940000D01*
X155780230Y-28924628D01*
X155664311Y-28901571D01*
X155482322Y-28826189D01*
X155318537Y-28716751D01*
X155179249Y-28577463D01*
X155069811Y-28413678D01*
X154994429Y-28231689D01*
X154956000Y-28038491D01*
X154956000Y-27841509D01*
X154958745Y-27827711D01*
X154980105Y-27720325D01*
X154994429Y-27648311D01*
X155069811Y-27466322D01*
X155179249Y-27302537D01*
X155318537Y-27163249D01*
X155482322Y-27053811D01*
X155664311Y-26978429D01*
X155780230Y-26955372D01*
X155857507Y-26940000D01*
X156054493Y-26940000D01*
X156131770Y-26955372D01*
X156131770Y-26955372D01*
G37*
G36*
X158671770Y-26955372D02*
X158787689Y-26978429D01*
X158969678Y-27053811D01*
X159133463Y-27163249D01*
X159272751Y-27302537D01*
X159382189Y-27466322D01*
X159457571Y-27648311D01*
X159471895Y-27720325D01*
X159493256Y-27827711D01*
X159496000Y-27841509D01*
X159496000Y-28038491D01*
X159457571Y-28231689D01*
X159382189Y-28413678D01*
X159272751Y-28577463D01*
X159133463Y-28716751D01*
X158969678Y-28826189D01*
X158787689Y-28901571D01*
X158671770Y-28924628D01*
X158594493Y-28940000D01*
X158397507Y-28940000D01*
X158320230Y-28924628D01*
X158204311Y-28901571D01*
X158022322Y-28826189D01*
X157858537Y-28716751D01*
X157719249Y-28577463D01*
X157609811Y-28413678D01*
X157534429Y-28231689D01*
X157496000Y-28038491D01*
X157496000Y-27841509D01*
X157498745Y-27827711D01*
X157520105Y-27720325D01*
X157534429Y-27648311D01*
X157609811Y-27466322D01*
X157719249Y-27302537D01*
X157858537Y-27163249D01*
X158022322Y-27053811D01*
X158204311Y-26978429D01*
X158320230Y-26955372D01*
X158397507Y-26940000D01*
X158594493Y-26940000D01*
X158671770Y-26955372D01*
X158671770Y-26955372D01*
G37*
G36*
X162086000Y-28940000D02*
X159986000Y-28940000D01*
X159986000Y-26940000D01*
X162086000Y-26940000D01*
X162086000Y-28940000D01*
X162086000Y-28940000D01*
G37*
G36*
X148511770Y-26955372D02*
X148627689Y-26978429D01*
X148809678Y-27053811D01*
X148973463Y-27163249D01*
X149112751Y-27302537D01*
X149222189Y-27466322D01*
X149297571Y-27648311D01*
X149311895Y-27720325D01*
X149333256Y-27827711D01*
X149336000Y-27841509D01*
X149336000Y-28038491D01*
X149297571Y-28231689D01*
X149222189Y-28413678D01*
X149112751Y-28577463D01*
X148973463Y-28716751D01*
X148809678Y-28826189D01*
X148627689Y-28901571D01*
X148511770Y-28924628D01*
X148434493Y-28940000D01*
X148237507Y-28940000D01*
X148160230Y-28924628D01*
X148044311Y-28901571D01*
X147862322Y-28826189D01*
X147698537Y-28716751D01*
X147559249Y-28577463D01*
X147449811Y-28413678D01*
X147374429Y-28231689D01*
X147336000Y-28038491D01*
X147336000Y-27841509D01*
X147338745Y-27827711D01*
X147360105Y-27720325D01*
X147374429Y-27648311D01*
X147449811Y-27466322D01*
X147559249Y-27302537D01*
X147698537Y-27163249D01*
X147862322Y-27053811D01*
X148044311Y-26978429D01*
X148160230Y-26955372D01*
X148237507Y-26940000D01*
X148434493Y-26940000D01*
X148511770Y-26955372D01*
X148511770Y-26955372D01*
G37*
G36*
X151051770Y-26955372D02*
X151167689Y-26978429D01*
X151349678Y-27053811D01*
X151513463Y-27163249D01*
X151652751Y-27302537D01*
X151762189Y-27466322D01*
X151837571Y-27648311D01*
X151851895Y-27720325D01*
X151873256Y-27827711D01*
X151876000Y-27841509D01*
X151876000Y-28038491D01*
X151837571Y-28231689D01*
X151762189Y-28413678D01*
X151652751Y-28577463D01*
X151513463Y-28716751D01*
X151349678Y-28826189D01*
X151167689Y-28901571D01*
X151051770Y-28924628D01*
X150974493Y-28940000D01*
X150777507Y-28940000D01*
X150700230Y-28924628D01*
X150584311Y-28901571D01*
X150402322Y-28826189D01*
X150238537Y-28716751D01*
X150099249Y-28577463D01*
X149989811Y-28413678D01*
X149914429Y-28231689D01*
X149876000Y-28038491D01*
X149876000Y-27841509D01*
X149878745Y-27827711D01*
X149900105Y-27720325D01*
X149914429Y-27648311D01*
X149989811Y-27466322D01*
X150099249Y-27302537D01*
X150238537Y-27163249D01*
X150402322Y-27053811D01*
X150584311Y-26978429D01*
X150700230Y-26955372D01*
X150777507Y-26940000D01*
X150974493Y-26940000D01*
X151051770Y-26955372D01*
X151051770Y-26955372D01*
G37*
G36*
X153591770Y-26955372D02*
X153707689Y-26978429D01*
X153889678Y-27053811D01*
X154053463Y-27163249D01*
X154192751Y-27302537D01*
X154302189Y-27466322D01*
X154377571Y-27648311D01*
X154391895Y-27720325D01*
X154413256Y-27827711D01*
X154416000Y-27841509D01*
X154416000Y-28038491D01*
X154377571Y-28231689D01*
X154302189Y-28413678D01*
X154192751Y-28577463D01*
X154053463Y-28716751D01*
X153889678Y-28826189D01*
X153707689Y-28901571D01*
X153591770Y-28924628D01*
X153514493Y-28940000D01*
X153317507Y-28940000D01*
X153240230Y-28924628D01*
X153124311Y-28901571D01*
X152942322Y-28826189D01*
X152778537Y-28716751D01*
X152639249Y-28577463D01*
X152529811Y-28413678D01*
X152454429Y-28231689D01*
X152416000Y-28038491D01*
X152416000Y-27841509D01*
X152418745Y-27827711D01*
X152440105Y-27720325D01*
X152454429Y-27648311D01*
X152529811Y-27466322D01*
X152639249Y-27302537D01*
X152778537Y-27163249D01*
X152942322Y-27053811D01*
X153124311Y-26978429D01*
X153240230Y-26955372D01*
X153317507Y-26940000D01*
X153514493Y-26940000D01*
X153591770Y-26955372D01*
X153591770Y-26955372D01*
G37*
M02*
