G04 #@! TF.GenerationSoftware,KiCad,Pcbnew,(5.0.1)-rc2*
G04 #@! TF.CreationDate,2018-11-18T21:24:51-07:00*
G04 #@! TF.ProjectId,GPSLogger,4750534C6F676765722E6B696361645F,rev?*
G04 #@! TF.SameCoordinates,Original*
G04 #@! TF.FileFunction,Copper,L1,Top,Signal*
G04 #@! TF.FilePolarity,Positive*
%FSLAX46Y46*%
G04 Gerber Fmt 4.6, Leading zero omitted, Abs format (unit mm)*
G04 Created by KiCad (PCBNEW (5.0.1)-rc2) date 11/18/2018 9:24:51 PM*
%MOMM*%
%LPD*%
G01*
G04 APERTURE LIST*
G04 #@! TA.AperFunction,ComponentPad*
%ADD10C,1.600000*%
G04 #@! TD*
G04 #@! TA.AperFunction,ComponentPad*
%ADD11R,1.600000X1.600000*%
G04 #@! TD*
G04 #@! TA.AperFunction,SMDPad,CuDef*
%ADD12R,1.000000X1.500000*%
G04 #@! TD*
G04 #@! TA.AperFunction,SMDPad,CuDef*
%ADD13R,1.250000X1.000000*%
G04 #@! TD*
G04 #@! TA.AperFunction,SMDPad,CuDef*
%ADD14R,1.000000X1.250000*%
G04 #@! TD*
G04 #@! TA.AperFunction,SMDPad,CuDef*
%ADD15R,1.200000X1.200000*%
G04 #@! TD*
G04 #@! TA.AperFunction,ComponentPad*
%ADD16C,1.879600*%
G04 #@! TD*
G04 #@! TA.AperFunction,SMDPad,CuDef*
%ADD17R,0.635000X1.270000*%
G04 #@! TD*
G04 #@! TA.AperFunction,SMDPad,CuDef*
%ADD18R,1.270000X0.635000*%
G04 #@! TD*
G04 #@! TA.AperFunction,SMDPad,CuDef*
%ADD19R,0.700000X1.300000*%
G04 #@! TD*
G04 #@! TA.AperFunction,SMDPad,CuDef*
%ADD20R,1.300000X0.700000*%
G04 #@! TD*
G04 #@! TA.AperFunction,SMDPad,CuDef*
%ADD21R,1.500000X0.599999*%
G04 #@! TD*
G04 #@! TA.AperFunction,SMDPad,CuDef*
%ADD22O,1.500000X0.250000*%
G04 #@! TD*
G04 #@! TA.AperFunction,SMDPad,CuDef*
%ADD23R,2.450000X1.950001*%
G04 #@! TD*
G04 #@! TA.AperFunction,SMDPad,CuDef*
%ADD24R,0.508000X1.143000*%
G04 #@! TD*
G04 #@! TA.AperFunction,SMDPad,CuDef*
%ADD25R,0.700000X2.000000*%
G04 #@! TD*
G04 #@! TA.AperFunction,SMDPad,CuDef*
%ADD26R,2.000000X0.700000*%
G04 #@! TD*
G04 #@! TA.AperFunction,SMDPad,CuDef*
%ADD27R,2.000000X1.000000*%
G04 #@! TD*
G04 #@! TA.AperFunction,ComponentPad*
%ADD28R,1.700000X1.600000*%
G04 #@! TD*
G04 #@! TA.AperFunction,SMDPad,CuDef*
%ADD29R,1.010000X2.287000*%
G04 #@! TD*
G04 #@! TA.AperFunction,SMDPad,CuDef*
%ADD30R,1.010000X0.762000*%
G04 #@! TD*
G04 #@! TA.AperFunction,ViaPad*
%ADD31C,0.800000*%
G04 #@! TD*
G04 #@! TA.AperFunction,Conductor*
%ADD32C,0.250000*%
G04 #@! TD*
G04 #@! TA.AperFunction,Conductor*
%ADD33C,0.125000*%
G04 #@! TD*
G04 #@! TA.AperFunction,Conductor*
%ADD34C,0.254000*%
G04 #@! TD*
G04 APERTURE END LIST*
D10*
G04 #@! TO.P,U2,20*
G04 #@! TO.N,GPS_Pwr_En_P28*
X130048000Y-38354000D03*
G04 #@! TO.P,U2,54*
G04 #@! TO.N,USBPwr*
X142748000Y-84074000D03*
G04 #@! TO.P,U2,53*
G04 #@! TO.N,BattPwr*
X145288000Y-86614000D03*
G04 #@! TO.P,U2,51*
G04 #@! TO.N,+3V3*
X145288000Y-81534000D03*
G04 #@! TO.P,U2,50*
G04 #@! TO.N,Fun_Btn_1_P23*
X145288000Y-78994000D03*
G04 #@! TO.P,U2,49*
G04 #@! TO.N,Fun_Btn_2_P22*
X145288000Y-76454000D03*
G04 #@! TO.P,U2,48*
G04 #@! TO.N,Fun_Btn_3_P21*
X145288000Y-73914000D03*
G04 #@! TO.P,U2,47*
G04 #@! TO.N,/Screen_CS_P20*
X145288000Y-71374000D03*
G04 #@! TO.P,U2,46*
G04 #@! TO.N,SCL*
X145288000Y-68834000D03*
G04 #@! TO.P,U2,45*
G04 #@! TO.N,SDA*
X145288000Y-66294000D03*
G04 #@! TO.P,U2,39*
G04 #@! TO.N,BattRtn*
X145288000Y-51054000D03*
D11*
G04 #@! TO.P,U2,1*
X130048000Y-86614000D03*
D10*
G04 #@! TO.P,U2,2*
G04 #@! TO.N,/GPS_Tx_RX1_P0*
X130048000Y-84074000D03*
G04 #@! TO.P,U2,3*
G04 #@! TO.N,/GPS_Rx_TX1_P1*
X130048000Y-81534000D03*
G04 #@! TO.P,U2,4*
G04 #@! TO.N,LED1_P2*
X130048000Y-78994000D03*
G04 #@! TO.P,U2,5*
G04 #@! TO.N,LED2_P3*
X130048000Y-76454000D03*
G04 #@! TO.P,U2,6*
G04 #@! TO.N,LED3_P4*
X130048000Y-73914000D03*
G04 #@! TO.P,U2,7*
G04 #@! TO.N,LED4_P5*
X130048000Y-71374000D03*
G04 #@! TO.P,U2,8*
G04 #@! TO.N,/Screen_RST_P6*
X130048000Y-68834000D03*
G04 #@! TO.P,U2,9*
G04 #@! TO.N,/Screen_BUSY_P7*
X130048000Y-66294000D03*
G04 #@! TO.P,U2,10*
G04 #@! TO.N,/Screen_DC_P8*
X130048000Y-63754000D03*
G04 #@! TO.P,U2,11*
G04 #@! TO.N,/BLE_Tx_RX2_P9*
X130048000Y-61214000D03*
G04 #@! TO.P,U2,12*
G04 #@! TO.N,/BLE_Rx_TX2_P10*
X130048000Y-58674000D03*
G04 #@! TO.P,U2,13*
G04 #@! TO.N,/Screen_DIN_P11*
X130048000Y-56134000D03*
G04 #@! TO.P,U2,32*
G04 #@! TO.N,N/C*
X145288000Y-33274000D03*
G04 #@! TO.P,U2,31*
G04 #@! TO.N,/Debug_Tx_RX5_P34*
X145288000Y-30734000D03*
G04 #@! TO.P,U2,30*
G04 #@! TO.N,/Debug_Rx_TX5_P33*
X145288000Y-28194000D03*
G04 #@! TO.P,U2,24*
G04 #@! TO.N,N/C*
X130048000Y-28194000D03*
G04 #@! TO.P,U2,23*
X130048000Y-30734000D03*
G04 #@! TO.P,U2,14*
X130048000Y-53594000D03*
G04 #@! TO.P,U2,15*
G04 #@! TO.N,+3V3*
X130048000Y-51054000D03*
G04 #@! TO.P,U2,16*
G04 #@! TO.N,N/C*
X130048000Y-48514000D03*
G04 #@! TO.P,U2,19*
G04 #@! TO.N,/Screen_SCK_P27*
X130048000Y-40894000D03*
G04 #@! TO.P,U2,17*
G04 #@! TO.N,/Sensor_PWR_P25*
X130048000Y-45974000D03*
G04 #@! TD*
D12*
G04 #@! TO.P,J7,1*
G04 #@! TO.N,Fun_Btn_2_P22*
X139192000Y-86336000D03*
G04 #@! TO.P,J7,2*
G04 #@! TO.N,+3V3*
X133192000Y-86336000D03*
G04 #@! TD*
D13*
G04 #@! TO.P,C2,2*
G04 #@! TO.N,BattRtn*
X137350500Y-71501000D03*
G04 #@! TO.P,C2,1*
G04 #@! TO.N,+3V3*
X137350500Y-73501000D03*
G04 #@! TD*
D14*
G04 #@! TO.P,C3,2*
G04 #@! TO.N,Net-(C3-Pad2)*
X157067000Y-77216000D03*
G04 #@! TO.P,C3,1*
G04 #@! TO.N,Net-(C3-Pad1)*
X155067000Y-77216000D03*
G04 #@! TD*
D13*
G04 #@! TO.P,C4,2*
G04 #@! TO.N,Net-(C4-Pad2)*
X156718000Y-64198500D03*
G04 #@! TO.P,C4,1*
G04 #@! TO.N,Net-(C4-Pad1)*
X156718000Y-62198500D03*
G04 #@! TD*
D14*
G04 #@! TO.P,C6,1*
G04 #@! TO.N,Net-(C6-Pad1)*
X161909000Y-65722500D03*
G04 #@! TO.P,C6,2*
G04 #@! TO.N,Net-(C4-Pad2)*
X159909000Y-65722500D03*
G04 #@! TD*
D15*
G04 #@! TO.P,D1,1*
G04 #@! TO.N,Net-(D1-Pad1)*
X146009000Y-92837000D03*
G04 #@! TO.P,D1,2*
G04 #@! TO.N,LED1_P2*
X148209000Y-92837000D03*
G04 #@! TD*
G04 #@! TO.P,D2,1*
G04 #@! TO.N,Net-(D2-Pad1)*
X141521000Y-92773500D03*
G04 #@! TO.P,D2,2*
G04 #@! TO.N,LED2_P3*
X143721000Y-92773500D03*
G04 #@! TD*
G04 #@! TO.P,D3,1*
G04 #@! TO.N,Net-(D3-Pad1)*
X145966000Y-89916000D03*
G04 #@! TO.P,D3,2*
G04 #@! TO.N,LED3_P4*
X148166000Y-89916000D03*
G04 #@! TD*
G04 #@! TO.P,D4,2*
G04 #@! TO.N,LED4_P5*
X143848000Y-89916000D03*
G04 #@! TO.P,D4,1*
G04 #@! TO.N,Net-(D4-Pad1)*
X141648000Y-89916000D03*
G04 #@! TD*
G04 #@! TO.P,D5,2*
G04 #@! TO.N,Net-(D5-Pad2)*
X156273500Y-43139000D03*
G04 #@! TO.P,D5,1*
G04 #@! TO.N,Net-(D5-Pad1)*
X156273500Y-45339000D03*
G04 #@! TD*
D16*
G04 #@! TO.P,J1,1*
G04 #@! TO.N,BattRtn*
X140271500Y-33528000D03*
G04 #@! TO.P,J1,2*
G04 #@! TO.N,/Debug_Tx_RX5_P34*
X140271500Y-30988000D03*
G04 #@! TO.P,J1,3*
G04 #@! TO.N,/Debug_Rx_TX5_P33*
X140271500Y-28448000D03*
G04 #@! TD*
G04 #@! TO.P,J3,3*
G04 #@! TO.N,N/C*
X161036000Y-32004000D03*
G04 #@! TO.P,J3,2*
G04 #@! TO.N,/BLE_Pwr*
X161036000Y-34544000D03*
G04 #@! TO.P,J3,1*
G04 #@! TO.N,BattPwr*
X161036000Y-37084000D03*
G04 #@! TD*
G04 #@! TO.P,J4,8*
G04 #@! TO.N,/Screen_BUSY_P7*
X153416000Y-50292000D03*
G04 #@! TO.P,J4,7*
G04 #@! TO.N,/Screen_RST_P6*
X153416000Y-47752000D03*
G04 #@! TO.P,J4,6*
G04 #@! TO.N,/Screen_DC_P8*
X153416000Y-45212000D03*
G04 #@! TO.P,J4,5*
G04 #@! TO.N,/Screen_CS_P20*
X153416000Y-42672000D03*
G04 #@! TO.P,J4,4*
G04 #@! TO.N,/Screen_SCK_P27*
X153416000Y-40132000D03*
G04 #@! TO.P,J4,3*
G04 #@! TO.N,/Screen_DIN_P11*
X153416000Y-37592000D03*
G04 #@! TO.P,J4,2*
G04 #@! TO.N,+3V3*
X153416000Y-35052000D03*
G04 #@! TO.P,J4,1*
G04 #@! TO.N,BattRtn*
X153416000Y-32512000D03*
G04 #@! TD*
D12*
G04 #@! TO.P,J5,2*
G04 #@! TO.N,Net-(J5-Pad2)*
X139096000Y-93496000D03*
G04 #@! TO.P,J5,1*
G04 #@! TO.N,+3V3*
X133096000Y-93496000D03*
G04 #@! TD*
G04 #@! TO.P,J6,2*
G04 #@! TO.N,+3V3*
X133192000Y-89892000D03*
G04 #@! TO.P,J6,1*
G04 #@! TO.N,Fun_Btn_1_P23*
X139192000Y-89892000D03*
G04 #@! TD*
G04 #@! TO.P,J8,1*
G04 #@! TO.N,Fun_Btn_3_P21*
X139192000Y-82780000D03*
G04 #@! TO.P,J8,2*
G04 #@! TO.N,+3V3*
X133192000Y-82780000D03*
G04 #@! TD*
D16*
G04 #@! TO.P,J9,1*
G04 #@! TO.N,Net-(J10-Pad3)*
X161544000Y-62992000D03*
G04 #@! TO.P,J9,2*
G04 #@! TO.N,Net-(C6-Pad1)*
X161544000Y-60452000D03*
G04 #@! TO.P,J9,3*
G04 #@! TO.N,N/C*
X161544000Y-57912000D03*
G04 #@! TD*
D17*
G04 #@! TO.P,JP1,1*
G04 #@! TO.N,USBPwr*
X159778700Y-47561500D03*
G04 #@! TO.P,JP1,2*
G04 #@! TO.N,Net-(C4-Pad1)*
X160591500Y-47561500D03*
G04 #@! TD*
D18*
G04 #@! TO.P,JP2,1*
G04 #@! TO.N,BattPwr*
X161417000Y-41846500D03*
G04 #@! TO.P,JP2,2*
G04 #@! TO.N,Net-(C4-Pad1)*
X161417000Y-42659300D03*
G04 #@! TD*
D19*
G04 #@! TO.P,R1,1*
G04 #@! TO.N,Net-(R1-Pad1)*
X149865000Y-65722500D03*
G04 #@! TO.P,R1,2*
G04 #@! TO.N,GPS_Pwr_En_P28*
X151765000Y-65722500D03*
G04 #@! TD*
D20*
G04 #@! TO.P,R9,1*
G04 #@! TO.N,BattRtn*
X153479500Y-54925000D03*
G04 #@! TO.P,R9,2*
G04 #@! TO.N,Net-(R9-Pad2)*
X153479500Y-53025000D03*
G04 #@! TD*
G04 #@! TO.P,R10,1*
G04 #@! TO.N,Net-(C3-Pad2)*
X160147000Y-76449000D03*
G04 #@! TO.P,R10,2*
G04 #@! TO.N,Net-(R10-Pad2)*
X160147000Y-74549000D03*
G04 #@! TD*
D19*
G04 #@! TO.P,R12,2*
G04 #@! TO.N,Net-(R12-Pad2)*
X157099000Y-74231500D03*
G04 #@! TO.P,R12,1*
G04 #@! TO.N,Net-(C3-Pad1)*
X155199000Y-74231500D03*
G04 #@! TD*
G04 #@! TO.P,R13,2*
G04 #@! TO.N,Net-(D5-Pad2)*
X156786500Y-39878000D03*
G04 #@! TO.P,R13,1*
G04 #@! TO.N,Net-(C4-Pad1)*
X158686500Y-39878000D03*
G04 #@! TD*
D20*
G04 #@! TO.P,R17,2*
G04 #@! TO.N,Net-(C4-Pad1)*
X153416000Y-64257000D03*
G04 #@! TO.P,R17,1*
G04 #@! TO.N,Net-(R17-Pad1)*
X153416000Y-62357000D03*
G04 #@! TD*
D19*
G04 #@! TO.P,TH1,1*
G04 #@! TO.N,Net-(TH1-Pad1)*
X161666000Y-50482500D03*
G04 #@! TO.P,TH1,2*
G04 #@! TO.N,BattRtn*
X159766000Y-50482500D03*
G04 #@! TD*
D16*
G04 #@! TO.P,U4,1*
G04 #@! TO.N,/Sensor_PWR_P25*
X134874000Y-28321000D03*
G04 #@! TO.P,U4,2*
G04 #@! TO.N,BattRtn*
X134874000Y-30861000D03*
G04 #@! TO.P,U4,3*
G04 #@! TO.N,SCL*
X134874000Y-33401000D03*
G04 #@! TO.P,U4,4*
G04 #@! TO.N,SDA*
X134874000Y-35941000D03*
G04 #@! TD*
D21*
G04 #@! TO.P,U6,1*
G04 #@! TO.N,USBPwr*
X157258000Y-52897999D03*
G04 #@! TO.P,U6,2*
G04 #@! TO.N,Net-(R9-Pad2)*
X157248000Y-53848000D03*
G04 #@! TO.P,U6,3*
G04 #@! TO.N,BattRtn*
X157248000Y-54797998D03*
G04 #@! TO.P,U6,4*
G04 #@! TO.N,Net-(TH1-Pad1)*
X160528000Y-54797998D03*
G04 #@! TO.P,U6,5*
G04 #@! TO.N,Net-(D5-Pad1)*
X160528000Y-53848000D03*
G04 #@! TO.P,U6,6*
G04 #@! TO.N,Net-(C4-Pad1)*
X160528000Y-52897999D03*
G04 #@! TD*
D22*
G04 #@! TO.P,U7,1*
G04 #@! TO.N,Net-(C4-Pad2)*
X151574000Y-57927999D03*
D23*
G04 #@! TO.P,U7,13*
X153924000Y-58927997D03*
D22*
G04 #@! TO.P,U7,2*
G04 #@! TO.N,Net-(C3-Pad2)*
X151574000Y-58328000D03*
G04 #@! TO.P,U7,3*
G04 #@! TO.N,Net-(C3-Pad1)*
X151574000Y-58728000D03*
G04 #@! TO.P,U7,4*
G04 #@! TO.N,Net-(JP3-Pad1)*
X151574000Y-59128000D03*
G04 #@! TO.P,U7,5*
G04 #@! TO.N,SCL*
X151574000Y-59528000D03*
G04 #@! TO.P,U7,6*
G04 #@! TO.N,SDA*
X151574000Y-59928000D03*
G04 #@! TO.P,U7,7*
G04 #@! TO.N,Net-(R17-Pad1)*
X156274000Y-59928000D03*
G04 #@! TO.P,U7,8*
G04 #@! TO.N,Net-(R16-Pad1)*
X156274000Y-59528000D03*
G04 #@! TO.P,U7,9*
G04 #@! TO.N,Net-(R18-Pad1)*
X156274000Y-59128000D03*
G04 #@! TO.P,U7,10*
G04 #@! TO.N,Net-(C5-Pad1)*
X156274000Y-58728000D03*
G04 #@! TO.P,U7,11*
G04 #@! TO.N,Net-(C6-Pad1)*
X156274000Y-58328000D03*
G04 #@! TO.P,U7,12*
X156274000Y-57928000D03*
G04 #@! TD*
D10*
G04 #@! TO.P,U3,1*
G04 #@! TO.N,N/C*
X134620000Y-43180000D03*
G04 #@! TO.P,U3,2*
G04 #@! TO.N,/Sensor_PWR_P25*
X134620000Y-45720000D03*
G04 #@! TO.P,U3,3*
G04 #@! TO.N,BattRtn*
X134620000Y-48260000D03*
G04 #@! TO.P,U3,4*
G04 #@! TO.N,SCL*
X134620000Y-50800000D03*
G04 #@! TO.P,U3,5*
G04 #@! TO.N,SDA*
X134620000Y-53340000D03*
G04 #@! TO.P,U3,6*
G04 #@! TO.N,BattRtn*
X134620000Y-55880000D03*
G04 #@! TO.P,U3,7*
G04 #@! TO.N,N/C*
X134620000Y-58420000D03*
G04 #@! TO.P,U3,8*
G04 #@! TO.N,BattRtn*
X134620000Y-60960000D03*
G04 #@! TD*
D24*
G04 #@! TO.P,U5,1*
G04 #@! TO.N,+3V3*
X153416000Y-68961000D03*
G04 #@! TO.P,U5,2*
G04 #@! TO.N,Net-(R1-Pad1)*
X152146000Y-68961000D03*
G04 #@! TO.P,U5,3*
G04 #@! TO.N,+3V3*
X150876000Y-68961000D03*
G04 #@! TO.P,U5,4*
G04 #@! TO.N,Net-(R1-Pad1)*
X149606000Y-68961000D03*
G04 #@! TO.P,U5,5*
G04 #@! TO.N,GPS_Pwr*
X149606000Y-75311000D03*
G04 #@! TO.P,U5,6*
X150876000Y-75311000D03*
G04 #@! TO.P,U5,7*
X152146000Y-75311000D03*
G04 #@! TO.P,U5,8*
X153416000Y-75311000D03*
G04 #@! TD*
D25*
G04 #@! TO.P,U1,28*
G04 #@! TO.N,N/C*
X156728000Y-80996000D03*
G04 #@! TO.P,U1,29*
X155728000Y-80996000D03*
G04 #@! TO.P,U1,30*
X154728000Y-80996000D03*
G04 #@! TO.P,U1,31*
G04 #@! TO.N,BattRtn*
X153728000Y-80996000D03*
G04 #@! TO.P,U1,27*
X157728000Y-80996000D03*
D26*
G04 #@! TO.P,U1,1*
G04 #@! TO.N,GPS_Pwr*
X150928000Y-81796000D03*
G04 #@! TO.P,U1,2*
G04 #@! TO.N,N/C*
X150928000Y-82796000D03*
G04 #@! TO.P,U1,3*
X150928000Y-83796000D03*
G04 #@! TO.P,U1,4*
G04 #@! TO.N,BattRtn*
X150928000Y-84796000D03*
G04 #@! TO.P,U1,5*
X150928000Y-85796000D03*
G04 #@! TO.P,U1,6*
G04 #@! TO.N,N/C*
X150928000Y-86796000D03*
G04 #@! TO.P,U1,7*
X150928000Y-87796000D03*
G04 #@! TO.P,U1,8*
X150928000Y-88796000D03*
G04 #@! TO.P,U1,9*
G04 #@! TO.N,GPS_Pwr*
X150928000Y-89796000D03*
G04 #@! TO.P,U1,10*
G04 #@! TO.N,BattRtn*
X150928000Y-90796000D03*
G04 #@! TO.P,U1,15*
X160528000Y-92796000D03*
G04 #@! TO.P,U1,16*
G04 #@! TO.N,Net-(U1-Pad16)*
X160528000Y-91796000D03*
G04 #@! TO.P,U1,17*
X160528000Y-90796000D03*
G04 #@! TO.P,U1,18*
G04 #@! TO.N,BattRtn*
X160528000Y-89796000D03*
G04 #@! TO.P,U1,19*
X160528000Y-88796000D03*
G04 #@! TO.P,U1,20*
G04 #@! TO.N,N/C*
X160528000Y-87796000D03*
G04 #@! TO.P,U1,21*
G04 #@! TO.N,BattRtn*
X160528000Y-86796000D03*
G04 #@! TO.P,U1,22*
X160528000Y-85796000D03*
G04 #@! TO.P,U1,23*
G04 #@! TO.N,N/C*
X160528000Y-84796000D03*
G04 #@! TO.P,U1,24*
X160528000Y-83796000D03*
G04 #@! TO.P,U1,25*
G04 #@! TO.N,/GPS_Tx_RX1_P0*
X160528000Y-82796000D03*
G04 #@! TO.P,U1,26*
G04 #@! TO.N,/GPS_Rx_TX1_P1*
X160528000Y-81796000D03*
G04 #@! TO.P,U1,11*
G04 #@! TO.N,BattRtn*
X150928000Y-91796000D03*
G04 #@! TO.P,U1,12*
X150928000Y-92796000D03*
D27*
G04 #@! TO.P,U1,14*
X160528000Y-93946000D03*
G04 #@! TO.P,U1,13*
X150928000Y-93946000D03*
G04 #@! TD*
D10*
G04 #@! TO.P,J2,6*
G04 #@! TO.N,N/C*
X148336000Y-27940000D03*
G04 #@! TO.P,J2,5*
G04 #@! TO.N,/BLE_Rx_TX2_P10*
X150876000Y-27940000D03*
G04 #@! TO.P,J2,4*
G04 #@! TO.N,/BLE_Tx_RX2_P9*
X153416000Y-27940000D03*
D28*
G04 #@! TO.P,J2,1*
G04 #@! TO.N,N/C*
X161036000Y-27940000D03*
D10*
G04 #@! TO.P,J2,2*
G04 #@! TO.N,/BLE_Pwr*
X158496000Y-27940000D03*
G04 #@! TO.P,J2,3*
G04 #@! TO.N,BattRtn*
X155956000Y-27940000D03*
G04 #@! TD*
D29*
G04 #@! TO.P,U9,1*
G04 #@! TO.N,Net-(C4-Pad2)*
X159194500Y-69785500D03*
G04 #@! TO.P,U9,4*
G04 #@! TO.N,BattRtn*
X157424500Y-69786000D03*
D30*
G04 #@! TO.P,U9,3*
G04 #@! TO.N,Net-(R12-Pad2)*
X157424500Y-71691500D03*
G04 #@! TO.P,U9,2*
G04 #@! TO.N,Net-(R10-Pad2)*
X159194500Y-71691500D03*
G04 #@! TD*
D31*
G04 #@! TO.N,BattRtn*
X152209500Y-80454500D03*
X132117000Y-48260000D03*
X157248000Y-54797998D03*
X159766000Y-50482500D03*
G04 #@! TO.N,+3V3*
X133192000Y-89892000D03*
X133192000Y-86336000D03*
X133000347Y-82971653D03*
X139827000Y-79565500D03*
G04 #@! TO.N,Net-(C3-Pad2)*
X149878443Y-57421006D03*
X156972000Y-79057500D03*
G04 #@! TO.N,Net-(C3-Pad1)*
X148276745Y-57530902D03*
X155067000Y-75374500D03*
G04 #@! TO.N,Net-(C4-Pad2)*
X159909000Y-65722500D03*
X149034500Y-56515000D03*
X156718000Y-64198500D03*
X151320500Y-56197500D03*
X159385000Y-69469000D03*
G04 #@! TO.N,Net-(C4-Pad1)*
X160528000Y-52897999D03*
X158579279Y-63204651D03*
X156781500Y-62357000D03*
G04 #@! TO.N,Net-(C5-Pad1)*
X155321000Y-55657500D03*
G04 #@! TO.N,Net-(C6-Pad1)*
X158051500Y-57150000D03*
G04 #@! TO.N,Net-(D1-Pad1)*
X146009000Y-92837000D03*
G04 #@! TO.N,LED1_P2*
X135001000Y-89598500D03*
G04 #@! TO.N,Net-(D2-Pad1)*
X141536500Y-93662500D03*
G04 #@! TO.N,LED2_P3*
X136199051Y-88836500D03*
G04 #@! TO.N,Net-(D3-Pad1)*
X145966000Y-89916000D03*
G04 #@! TO.N,LED3_P4*
X137197000Y-88328500D03*
G04 #@! TO.N,LED4_P5*
X138000219Y-86995000D03*
G04 #@! TO.N,Net-(D4-Pad1)*
X141224000Y-90048000D03*
G04 #@! TO.N,/BLE_Tx_RX2_P9*
X148844000Y-43243500D03*
G04 #@! TO.N,/BLE_Rx_TX2_P10*
X148018500Y-42481500D03*
G04 #@! TO.N,/Screen_CS_P20*
X148717000Y-52514500D03*
X140335000Y-61214000D03*
G04 #@! TO.N,/Screen_SCK_P27*
X138938000Y-40640000D03*
G04 #@! TO.N,Net-(J5-Pad2)*
X139096000Y-93496000D03*
G04 #@! TO.N,Net-(R16-Pad1)*
X158557009Y-61411897D03*
G04 #@! TO.N,Net-(R17-Pad1)*
X156210000Y-60833000D03*
G04 #@! TO.N,Net-(R18-Pad1)*
X158202000Y-58991500D03*
G04 #@! TO.N,Net-(TH1-Pad1)*
X160528000Y-54797998D03*
X161607500Y-50482500D03*
G04 #@! TO.N,/GPS_Rx_TX1_P1*
X157162500Y-83185000D03*
X139255500Y-84491405D03*
G04 #@! TO.N,/GPS_Tx_RX1_P0*
X158432500Y-83248500D03*
X140245924Y-85078961D03*
G04 #@! TO.N,GPS_Pwr_En_P28*
X147320000Y-70866000D03*
X140081000Y-70485000D03*
X138303000Y-62928500D03*
X134112000Y-66484500D03*
G04 #@! TO.N,Net-(J10-Pad3)*
X160972500Y-72072500D03*
G04 #@! TO.N,Net-(JP3-Pad1)*
X149796500Y-59372500D03*
G04 #@! TD*
D32*
G04 #@! TO.N,BattRtn*
X150928000Y-91796000D02*
X150928000Y-93206500D01*
X150928000Y-93206500D02*
X150928000Y-93946000D01*
X150928000Y-90796000D02*
X150928000Y-91796000D01*
X150928000Y-85796000D02*
X150928000Y-84796000D01*
X151252999Y-84471001D02*
X150928000Y-84796000D01*
X152188001Y-84471001D02*
X151252999Y-84471001D01*
X153728000Y-82931002D02*
X152188001Y-84471001D01*
X153728000Y-80996000D02*
X153728000Y-82931002D01*
X154199003Y-82459999D02*
X153728000Y-82931002D01*
X157199003Y-82459999D02*
X154199003Y-82459999D01*
X157728000Y-81931002D02*
X157199003Y-82459999D01*
X157728000Y-80996000D02*
X157728000Y-81931002D01*
X160528000Y-86796000D02*
X160528000Y-85796000D01*
X160528000Y-93946000D02*
X160528000Y-92796000D01*
X160528000Y-89796000D02*
X160528000Y-88796000D01*
X153186500Y-80454500D02*
X153728000Y-80996000D01*
X152209500Y-80454500D02*
X153186500Y-80454500D01*
X130048000Y-92283002D02*
X133141998Y-95377000D01*
X130048000Y-86614000D02*
X130048000Y-92283002D01*
X149678000Y-93946000D02*
X150928000Y-93946000D01*
X148247000Y-95377000D02*
X149678000Y-93946000D01*
X133141998Y-95377000D02*
X148247000Y-95377000D01*
X135419999Y-56679999D02*
X134620000Y-55880000D01*
X135745001Y-57005001D02*
X135419999Y-56679999D01*
X135745001Y-58960001D02*
X135745001Y-57005001D01*
X134620000Y-60085002D02*
X135745001Y-58960001D01*
X134620000Y-60960000D02*
X134620000Y-60085002D01*
X137414000Y-51054000D02*
X134620000Y-48260000D01*
X145288000Y-51054000D02*
X137414000Y-51054000D01*
X132117000Y-51473410D02*
X132117000Y-48260000D01*
X133494999Y-52851409D02*
X132117000Y-51473410D01*
X134620000Y-55880000D02*
X133494999Y-54754999D01*
X133494999Y-54754999D02*
X133494999Y-52851409D01*
D33*
X137350500Y-63690500D02*
X134620000Y-60960000D01*
X137350500Y-71501000D02*
X137350500Y-63690500D01*
D32*
X153728000Y-79746000D02*
X153728000Y-80996000D01*
X153945001Y-79528999D02*
X153728000Y-79746000D01*
X153945001Y-72510499D02*
X153945001Y-79528999D01*
X156669500Y-69786000D02*
X153945001Y-72510499D01*
X157424500Y-69786000D02*
X156669500Y-69786000D01*
D33*
X149159000Y-54925000D02*
X145288000Y-51054000D01*
X153479500Y-54925000D02*
X149159000Y-54925000D01*
X153606502Y-54797998D02*
X153479500Y-54925000D01*
X157248000Y-54797998D02*
X153606502Y-54797998D01*
D32*
X153178000Y-86796000D02*
X159385000Y-86796000D01*
X152178000Y-85796000D02*
X153178000Y-86796000D01*
X150928000Y-85796000D02*
X152178000Y-85796000D01*
X159278000Y-86796000D02*
X159385000Y-86796000D01*
X159385000Y-86796000D02*
X160528000Y-86796000D01*
X156178000Y-89796000D02*
X153178000Y-86796000D01*
X160528000Y-89796000D02*
X156178000Y-89796000D01*
X155552999Y-90421001D02*
X156178000Y-89796000D01*
X151640999Y-90421001D02*
X155552999Y-90421001D01*
X151266000Y-90796000D02*
X151640999Y-90421001D01*
X150928000Y-90796000D02*
X151266000Y-90796000D01*
X161778000Y-93946000D02*
X162115500Y-93608500D01*
X160528000Y-93946000D02*
X161778000Y-93946000D01*
X161778000Y-89796000D02*
X160528000Y-89796000D01*
X162115500Y-90133500D02*
X161778000Y-89796000D01*
X162115500Y-93608500D02*
X162115500Y-90133500D01*
G04 #@! TO.N,+3V3*
X133096000Y-89988000D02*
X133192000Y-89892000D01*
X133096000Y-93496000D02*
X133096000Y-89988000D01*
X133192000Y-86336000D02*
X133192000Y-87336000D01*
X133000347Y-82971653D02*
X133192000Y-82780000D01*
X133000347Y-82971653D02*
X136420847Y-82971653D01*
X136420847Y-82971653D02*
X139827000Y-79565500D01*
X150876000Y-69782500D02*
X150876000Y-68961000D01*
X150951001Y-69857501D02*
X150876000Y-69782500D01*
X153340999Y-69857501D02*
X150951001Y-69857501D01*
X153416000Y-69782500D02*
X153340999Y-69857501D01*
X153416000Y-68961000D02*
X153416000Y-69782500D01*
X139827000Y-78999815D02*
X139827000Y-79565500D01*
X144747999Y-72788999D02*
X139827000Y-77709998D01*
X147365501Y-72788999D02*
X144747999Y-72788999D01*
X150876000Y-69278500D02*
X147365501Y-72788999D01*
X150876000Y-68961000D02*
X150876000Y-69278500D01*
D33*
X139827000Y-76602500D02*
X139827000Y-77851000D01*
X137350500Y-74126000D02*
X139827000Y-76602500D01*
X137350500Y-73501000D02*
X137350500Y-74126000D01*
D32*
X139827000Y-77709998D02*
X139827000Y-77851000D01*
X139827000Y-77851000D02*
X139827000Y-78999815D01*
X130847999Y-51853999D02*
X130048000Y-51054000D01*
X131064000Y-54169002D02*
X131123001Y-54110001D01*
X131064000Y-55558998D02*
X131064000Y-54169002D01*
X131123001Y-55617999D02*
X131064000Y-55558998D01*
X131123001Y-56650001D02*
X131123001Y-55617999D01*
X131064000Y-56709002D02*
X131123001Y-56650001D01*
X131064000Y-58098998D02*
X131064000Y-56709002D01*
X131123001Y-58157999D02*
X131064000Y-58098998D01*
X131123001Y-59190001D02*
X131123001Y-58157999D01*
X131064000Y-59249002D02*
X131123001Y-59190001D01*
X131064000Y-60638998D02*
X131064000Y-59249002D01*
X131123001Y-60697999D02*
X131064000Y-60638998D01*
X131123001Y-61730001D02*
X131123001Y-60697999D01*
X131064000Y-63178998D02*
X131064000Y-61789002D01*
X131123001Y-63237999D02*
X131064000Y-63178998D01*
X131123001Y-64270001D02*
X131123001Y-63237999D01*
X131123001Y-52129001D02*
X130847999Y-51853999D01*
X131064000Y-64329002D02*
X131123001Y-64270001D01*
X131064000Y-65718998D02*
X131064000Y-64329002D01*
X131123001Y-65777999D02*
X131064000Y-65718998D01*
X131123001Y-54110001D02*
X131123001Y-52129001D01*
X131081250Y-66851752D02*
X131123001Y-66810001D01*
X131064000Y-61789002D02*
X131123001Y-61730001D01*
X137350500Y-73121002D02*
X131081250Y-66851752D01*
X131123001Y-66810001D02*
X131123001Y-65777999D01*
X137350500Y-73501000D02*
X137350500Y-73121002D01*
G04 #@! TO.N,Net-(C3-Pad2)*
X157834000Y-76449000D02*
X157067000Y-77216000D01*
X160147000Y-76449000D02*
X157834000Y-76449000D01*
D33*
X150699000Y-58328000D02*
X150680148Y-58309148D01*
X151574000Y-58328000D02*
X150699000Y-58328000D01*
X150680148Y-58309148D02*
X150680148Y-58225069D01*
X150680148Y-58225069D02*
X150475608Y-58124727D01*
X150475608Y-58124727D02*
X150420283Y-57962846D01*
X150420283Y-57962846D02*
X149878443Y-57421006D01*
X156972000Y-77311000D02*
X157067000Y-77216000D01*
X156972000Y-79057500D02*
X156972000Y-77311000D01*
D32*
G04 #@! TO.N,Net-(C3-Pad1)*
X155067000Y-74363500D02*
X155199000Y-74231500D01*
D33*
X149443334Y-58697491D02*
X148276745Y-57530902D01*
X150830102Y-58697491D02*
X149443334Y-58697491D01*
X151574000Y-58728000D02*
X150860611Y-58728000D01*
X150860611Y-58728000D02*
X150830102Y-58697491D01*
D32*
X155067000Y-77216000D02*
X155067000Y-75374500D01*
X155067000Y-75374500D02*
X155067000Y-74363500D01*
G04 #@! TO.N,Net-(C4-Pad2)*
X159194500Y-66437000D02*
X159909000Y-65722500D01*
X159194500Y-69785500D02*
X159194500Y-66437000D01*
D33*
X150699000Y-57927999D02*
X151574000Y-57927999D01*
X150368000Y-56959500D02*
X150699000Y-57927999D01*
X149034500Y-56515000D02*
X149987000Y-56705500D01*
X149987000Y-56705500D02*
X150368000Y-56959500D01*
X152924002Y-57927999D02*
X153924000Y-58927997D01*
X151574000Y-57927999D02*
X152924002Y-57927999D01*
D32*
X151320500Y-57674499D02*
X151574000Y-57927999D01*
X151320500Y-56197500D02*
X151320500Y-57674499D01*
D33*
G04 #@! TO.N,Net-(C4-Pad1)*
X156593000Y-62198500D02*
X156718000Y-62198500D01*
X155968000Y-62823500D02*
X156593000Y-62198500D01*
X155968000Y-62948500D02*
X155968000Y-62823500D01*
X154659500Y-64257000D02*
X155968000Y-62948500D01*
X153416000Y-64257000D02*
X154659500Y-64257000D01*
X157573128Y-62198500D02*
X158579279Y-63204651D01*
X156718000Y-62198500D02*
X157573128Y-62198500D01*
X160657000Y-42659300D02*
X161417000Y-42659300D01*
X158686500Y-40688800D02*
X160657000Y-42659300D01*
X158686500Y-39878000D02*
X158686500Y-40688800D01*
D32*
X161159000Y-47561500D02*
X160591500Y-47561500D01*
X161417000Y-47303500D02*
X161159000Y-47561500D01*
X161417000Y-42659300D02*
X161417000Y-47303500D01*
X160532000Y-42659300D02*
X161417000Y-42659300D01*
X155453499Y-46214001D02*
X155398499Y-46159001D01*
X155935990Y-46214001D02*
X155453499Y-46214001D01*
X155903497Y-44014001D02*
X159177299Y-44014001D01*
X155935990Y-48512303D02*
X155935990Y-46214001D01*
X155398499Y-44518999D02*
X155903497Y-44014001D01*
X157607000Y-50183312D02*
X155935990Y-48512303D01*
X159177299Y-44014001D02*
X160532000Y-42659300D01*
X155398499Y-46159001D02*
X155398499Y-44518999D01*
X157607000Y-50976999D02*
X157607000Y-50183312D01*
X159528000Y-52897999D02*
X157607000Y-50976999D01*
X160528000Y-52897999D02*
X159528000Y-52897999D01*
D33*
G04 #@! TO.N,Net-(C5-Pad1)*
X158664001Y-56855999D02*
X157465502Y-55657500D01*
X158664001Y-57444001D02*
X158664001Y-56855999D01*
X158345501Y-57762501D02*
X158664001Y-57444001D01*
X157465502Y-55657500D02*
X155321000Y-55657500D01*
X157827921Y-57762501D02*
X158345501Y-57762501D01*
X157387412Y-58203010D02*
X157827921Y-57762501D01*
X157236510Y-58467801D02*
X157236510Y-58203010D01*
X157236510Y-58203010D02*
X157387412Y-58203010D01*
X157038801Y-58665510D02*
X157236510Y-58467801D01*
X156274000Y-58665510D02*
X157038801Y-58665510D01*
X156274000Y-58728000D02*
X156274000Y-58665510D01*
G04 #@! TO.N,Net-(C6-Pad1)*
X157273500Y-57928000D02*
X156274000Y-57928000D01*
X158051500Y-57150000D02*
X157273500Y-57928000D01*
X156274000Y-57928000D02*
X156274000Y-58328000D01*
D32*
X162483799Y-61391799D02*
X161544000Y-60452000D01*
X162758801Y-61666801D02*
X162483799Y-61391799D01*
X162758801Y-63575105D02*
X162758801Y-61666801D01*
X161909000Y-64424906D02*
X162758801Y-63575105D01*
X161909000Y-65722500D02*
X161909000Y-64424906D01*
G04 #@! TO.N,LED1_P2*
X135001000Y-89598500D02*
X135001000Y-91236002D01*
X135001000Y-91236002D02*
X138677500Y-94912502D01*
X138677500Y-94912502D02*
X146983498Y-94912502D01*
X146983498Y-94912502D02*
X148209000Y-93687000D01*
X148209000Y-93687000D02*
X148209000Y-92837000D01*
G04 #@! TO.N,Net-(D2-Pad1)*
X141521000Y-92773500D02*
X141521000Y-93647000D01*
X141521000Y-93647000D02*
X141536500Y-93662500D01*
G04 #@! TO.N,LED2_P3*
X143721000Y-92233003D02*
X143721000Y-92773500D01*
X143637517Y-92149520D02*
X143721000Y-92233003D01*
X142446001Y-93633501D02*
X142446001Y-92149520D01*
X138145054Y-92149519D02*
X140595999Y-92149520D01*
X140595999Y-93633501D02*
X140660999Y-93698501D01*
X140811499Y-93698501D02*
X140811499Y-94010501D01*
X136199051Y-90203516D02*
X138145054Y-92149519D01*
X136199051Y-88836500D02*
X136199051Y-90203516D01*
X140660999Y-93698501D02*
X140811499Y-93698501D01*
X142381001Y-93698501D02*
X142446001Y-93633501D01*
X140595999Y-92149520D02*
X140595999Y-93633501D01*
X140811499Y-94010501D02*
X141188499Y-94387501D01*
X141884501Y-94387501D02*
X142261501Y-94010501D01*
X142261501Y-93698501D02*
X142381001Y-93698501D01*
X142446001Y-92149520D02*
X143637517Y-92149520D01*
X141188499Y-94387501D02*
X141884501Y-94387501D01*
X142261501Y-94010501D02*
X142261501Y-93698501D01*
G04 #@! TO.N,LED3_P4*
X137197000Y-88328500D02*
X137197000Y-90565055D01*
X137197000Y-90565055D02*
X138331455Y-91699510D01*
X138331455Y-91699510D02*
X145967492Y-91699510D01*
X145967492Y-91699510D02*
X147751002Y-89916000D01*
X147751002Y-89916000D02*
X148166000Y-89916000D01*
G04 #@! TO.N,LED4_P5*
X138000219Y-86995000D02*
X137922000Y-90457002D01*
X137922000Y-90457002D02*
X138714498Y-91249500D01*
X138714498Y-91249500D02*
X143364500Y-91249500D01*
X143364500Y-91249500D02*
X143848000Y-90766000D01*
X143848000Y-90766000D02*
X143848000Y-89916000D01*
G04 #@! TO.N,Net-(D4-Pad1)*
X141648000Y-89916000D02*
X141356000Y-89916000D01*
X141356000Y-89916000D02*
X141224000Y-90048000D01*
D33*
G04 #@! TO.N,Net-(D5-Pad2)*
X156786500Y-42626000D02*
X156273500Y-43139000D01*
X156786500Y-39878000D02*
X156786500Y-42626000D01*
G04 #@! TO.N,Net-(D5-Pad1)*
X160965500Y-53410500D02*
X160528000Y-53848000D01*
X161448001Y-53410500D02*
X160965500Y-53410500D01*
X161490501Y-53368000D02*
X161448001Y-53410500D01*
X156273500Y-45339000D02*
X156273500Y-48372502D01*
X159843998Y-51943000D02*
X161005502Y-51943000D01*
X161005502Y-51943000D02*
X161988500Y-52324000D01*
X156273500Y-48372502D02*
X159843998Y-51943000D01*
X161988500Y-52324000D02*
X161988500Y-53213000D01*
X161988500Y-53213000D02*
X161490501Y-53368000D01*
D32*
G04 #@! TO.N,/Debug_Tx_RX5_P34*
X145034000Y-30988000D02*
X145288000Y-30734000D01*
X140271500Y-30988000D02*
X145034000Y-30988000D01*
G04 #@! TO.N,/Debug_Rx_TX5_P33*
X145034000Y-28448000D02*
X145288000Y-28194000D01*
X140271500Y-28448000D02*
X145034000Y-28448000D01*
G04 #@! TO.N,/BLE_Pwr*
X158496000Y-29071370D02*
X158496000Y-27940000D01*
X158496000Y-31261906D02*
X158496000Y-29071370D01*
X160096201Y-32862107D02*
X158496000Y-31261906D01*
X160096201Y-33604201D02*
X160096201Y-32862107D01*
X161036000Y-34544000D02*
X160096201Y-33604201D01*
G04 #@! TO.N,/BLE_Tx_RX2_P9*
X152151199Y-29204801D02*
X152616001Y-28739999D01*
X152151199Y-33119105D02*
X152151199Y-29204801D01*
X152209500Y-33177406D02*
X152151199Y-33119105D01*
X152209500Y-34386594D02*
X152209500Y-33177406D01*
X152151199Y-34444895D02*
X152209500Y-34386594D01*
X152151199Y-35659105D02*
X152151199Y-34444895D01*
X152209500Y-35717406D02*
X152151199Y-35659105D01*
X152151199Y-38199105D02*
X152151199Y-36984895D01*
X152209500Y-36926594D02*
X152209500Y-35717406D01*
X152209500Y-39466594D02*
X152209500Y-38257406D01*
X152151199Y-39524895D02*
X152209500Y-39466594D01*
X152616001Y-28739999D02*
X153416000Y-27940000D01*
X152151199Y-39936301D02*
X152151199Y-39524895D01*
X152151199Y-36984895D02*
X152209500Y-36926594D01*
X152209500Y-38257406D02*
X152151199Y-38199105D01*
X148844000Y-43243500D02*
X152151199Y-39936301D01*
G04 #@! TO.N,/BLE_Rx_TX2_P10*
X150876000Y-39624000D02*
X150876000Y-27940000D01*
X148018500Y-42481500D02*
X150876000Y-39624000D01*
G04 #@! TO.N,BattPwr*
X161036000Y-41465500D02*
X161417000Y-41846500D01*
X161036000Y-37084000D02*
X161036000Y-41465500D01*
G04 #@! TO.N,/Screen_CS_P20*
X153416000Y-43414094D02*
X148717000Y-48113094D01*
X153416000Y-42672000D02*
X153416000Y-43414094D01*
X148717000Y-48113094D02*
X148717000Y-52514500D01*
X140335000Y-66421000D02*
X145288000Y-71374000D01*
X140335000Y-61214000D02*
X140335000Y-66421000D01*
G04 #@! TO.N,/Screen_SCK_P27*
X142266501Y-43968501D02*
X149769999Y-43968501D01*
X138938000Y-40640000D02*
X142266501Y-43968501D01*
X149769999Y-43778001D02*
X153416000Y-40132000D01*
X149769999Y-43968501D02*
X149769999Y-43778001D01*
G04 #@! TO.N,Fun_Btn_1_P23*
X146087999Y-79793999D02*
X145288000Y-78994000D01*
X139192000Y-89892000D02*
X139192000Y-89642000D01*
X141483509Y-88350491D02*
X141483509Y-81666509D01*
X139192000Y-89892000D02*
X139942000Y-89892000D01*
X139942000Y-89892000D02*
X141483509Y-88350491D01*
X144156018Y-78994000D02*
X145288000Y-78994000D01*
X141483509Y-81666509D02*
X144156018Y-78994000D01*
G04 #@! TO.N,Fun_Btn_2_P22*
X144488001Y-77253999D02*
X145288000Y-76454000D01*
X140525500Y-81280000D02*
X144488001Y-77253999D01*
X141033500Y-85364387D02*
X140525500Y-81280000D01*
X139192000Y-86336000D02*
X140061887Y-86336000D01*
X140061887Y-86336000D02*
X141033500Y-85364387D01*
G04 #@! TO.N,Fun_Btn_3_P21*
X144488001Y-74713999D02*
X145288000Y-73914000D01*
X144162999Y-75039001D02*
X144488001Y-74713999D01*
X144162999Y-76809001D02*
X144162999Y-75039001D01*
X139192000Y-81780000D02*
X144162999Y-76809001D01*
X139192000Y-82780000D02*
X139192000Y-81780000D01*
G04 #@! TO.N,USBPwr*
X144413002Y-84074000D02*
X148145500Y-80341502D01*
X158258000Y-52897999D02*
X157258000Y-52897999D01*
X142748000Y-84074000D02*
X144413002Y-84074000D01*
X148145500Y-80341502D02*
X148145500Y-72645410D01*
X148145500Y-72645410D02*
X150483399Y-70307511D01*
X159131000Y-53276500D02*
X158258000Y-52897999D01*
X150483399Y-70307511D02*
X153527400Y-70307510D01*
X153527400Y-70307510D02*
X159258000Y-63500000D01*
X159848000Y-57023000D02*
X159177541Y-57023000D01*
X162326010Y-54544990D02*
X159848000Y-57023000D01*
X162115500Y-51528002D02*
X162115500Y-51973689D01*
X162291001Y-51352501D02*
X162115500Y-51528002D01*
X162291001Y-49612499D02*
X162291001Y-51352501D01*
X162236001Y-49557499D02*
X162291001Y-49612499D01*
X162326010Y-52184199D02*
X162326010Y-54544990D01*
X160889699Y-49557499D02*
X162236001Y-49557499D01*
X159778700Y-48446500D02*
X160889699Y-49557499D01*
X159778700Y-47561500D02*
X159778700Y-48446500D01*
X162115500Y-51973689D02*
X162326010Y-52184199D01*
X159177541Y-57023000D02*
X159131000Y-53276500D01*
X159258000Y-63500000D02*
X159177541Y-57023000D01*
G04 #@! TO.N,Net-(R1-Pad1)*
X149865000Y-68702000D02*
X149606000Y-68961000D01*
X151380000Y-67373500D02*
X149865000Y-67373500D01*
X152146000Y-68139500D02*
X151380000Y-67373500D01*
X152146000Y-68961000D02*
X152146000Y-68139500D01*
X149865000Y-65722500D02*
X149865000Y-67373500D01*
X149865000Y-67373500D02*
X149865000Y-68702000D01*
D33*
G04 #@! TO.N,Net-(R9-Pad2)*
X156798000Y-53848000D02*
X157248000Y-53848000D01*
X155975000Y-53025000D02*
X156798000Y-53848000D01*
X153479500Y-53025000D02*
X155975000Y-53025000D01*
D32*
G04 #@! TO.N,SCL*
X146087999Y-68034001D02*
X145288000Y-68834000D01*
X146413001Y-67708999D02*
X146087999Y-68034001D01*
X135751370Y-50800000D02*
X146413001Y-61461631D01*
X134620000Y-50800000D02*
X135751370Y-50800000D01*
X136138801Y-38232199D02*
X133292010Y-41078990D01*
X134874000Y-33401000D02*
X136138801Y-34665801D01*
X136138801Y-34665801D02*
X136138801Y-38232199D01*
X133292010Y-41078990D02*
X133292010Y-49720500D01*
X133540500Y-49720500D02*
X134620000Y-50800000D01*
X133292010Y-49720500D02*
X133540500Y-49720500D01*
D33*
X146473000Y-63754000D02*
X146413001Y-63754000D01*
X150699000Y-59528000D02*
X146473000Y-63754000D01*
X151574000Y-59528000D02*
X150699000Y-59528000D01*
D32*
X146413001Y-61461631D02*
X146413001Y-63754000D01*
X146413001Y-63754000D02*
X146413001Y-67708999D01*
G04 #@! TO.N,SDA*
X134620000Y-53340000D02*
X137604500Y-53340000D01*
X145288000Y-61023500D02*
X145288000Y-66294000D01*
X137604500Y-53340000D02*
X145288000Y-61023500D01*
X134874000Y-35941000D02*
X132842000Y-37973000D01*
X132842000Y-51562000D02*
X134620000Y-53340000D01*
X132842000Y-37973000D02*
X132842000Y-51562000D01*
D33*
X144488001Y-67093999D02*
X145288000Y-66294000D01*
X144275499Y-67306501D02*
X144488001Y-67093999D01*
X144275499Y-69320001D02*
X144275499Y-67306501D01*
X144801999Y-69846501D02*
X144275499Y-69320001D01*
X145774001Y-69846501D02*
X144801999Y-69846501D01*
X146750511Y-68869991D02*
X145774001Y-69846501D01*
X146750511Y-64126489D02*
X146750511Y-68869991D01*
X150949000Y-59928000D02*
X146750511Y-64126489D01*
X151574000Y-59928000D02*
X150949000Y-59928000D01*
G04 #@! TO.N,Net-(R16-Pad1)*
X157000500Y-59528000D02*
X156274000Y-59528000D01*
X157236510Y-59764010D02*
X157000500Y-59528000D01*
X157236510Y-60091398D02*
X157236510Y-59764010D01*
X158557009Y-61411897D02*
X157236510Y-60091398D01*
G04 #@! TO.N,Net-(R17-Pad1)*
X156210000Y-59992000D02*
X156274000Y-59928000D01*
X156210000Y-60833000D02*
X156210000Y-59992000D01*
X154686000Y-62357000D02*
X156210000Y-60833000D01*
X153416000Y-62357000D02*
X154686000Y-62357000D01*
G04 #@! TO.N,Net-(R18-Pad1)*
X156336490Y-59065510D02*
X156274000Y-59128000D01*
X157038801Y-59065510D02*
X156336490Y-59065510D01*
X157112811Y-58991500D02*
X157038801Y-59065510D01*
X158202000Y-58991500D02*
X157112811Y-58991500D01*
D32*
G04 #@! TO.N,/Sensor_PWR_P25*
X130302000Y-45720000D02*
X130048000Y-45974000D01*
X129248001Y-45174001D02*
X130048000Y-45974000D01*
X128972999Y-44898999D02*
X129248001Y-45174001D01*
X128972999Y-40377999D02*
X128972999Y-44898999D01*
X129032000Y-40318998D02*
X128972999Y-40377999D01*
X129032000Y-38929002D02*
X129032000Y-40318998D01*
X128972999Y-38870001D02*
X129032000Y-38929002D01*
X128972999Y-37837999D02*
X128972999Y-38870001D01*
X132969000Y-33841998D02*
X128972999Y-37837999D01*
X132969000Y-30226000D02*
X132969000Y-33841998D01*
X134874000Y-28321000D02*
X132969000Y-30226000D01*
G04 #@! TO.N,/GPS_Rx_TX1_P1*
X159278000Y-81796000D02*
X160528000Y-81796000D01*
X158811998Y-81796000D02*
X159278000Y-81796000D01*
X157822997Y-82785001D02*
X158811998Y-81796000D01*
X157562499Y-82785001D02*
X157822997Y-82785001D01*
X157162500Y-83185000D02*
X157562499Y-82785001D01*
X133068403Y-84491405D02*
X130110998Y-81534000D01*
X139255500Y-84491405D02*
X133068403Y-84491405D01*
X130110998Y-81534000D02*
X130048000Y-81534000D01*
G04 #@! TO.N,/GPS_Tx_RX1_P0*
X158885000Y-82796000D02*
X160528000Y-82796000D01*
X158432500Y-83248500D02*
X158885000Y-82796000D01*
X130048000Y-84074000D02*
X131699000Y-85217000D01*
X131699000Y-85217000D02*
X140107885Y-85217000D01*
X140107885Y-85217000D02*
X140245924Y-85078961D01*
G04 #@! TO.N,GPS_Pwr*
X149606000Y-75311000D02*
X150876000Y-75311000D01*
X150876000Y-75311000D02*
X152336500Y-75311000D01*
X152336500Y-75311000D02*
X153416000Y-75311000D01*
X150876000Y-81744000D02*
X150928000Y-81796000D01*
X150876000Y-75311000D02*
X150876000Y-81744000D01*
X147634003Y-87689001D02*
X144771999Y-87689001D01*
X149366003Y-89421001D02*
X147634003Y-87689001D01*
X150698501Y-89421001D02*
X149366003Y-89421001D01*
X150928000Y-89796000D02*
X150928000Y-89650500D01*
X150928000Y-89650500D02*
X150698501Y-89421001D01*
X144212999Y-87130001D02*
X144212999Y-85657001D01*
X144771999Y-87689001D02*
X144212999Y-87130001D01*
X148074000Y-81796000D02*
X150928000Y-81796000D01*
X144212999Y-85657001D02*
X148074000Y-81796000D01*
G04 #@! TO.N,Net-(U1-Pad16)*
X160528000Y-90796000D02*
X160528000Y-91796000D01*
G04 #@! TO.N,GPS_Pwr_En_P28*
X151765000Y-65422500D02*
X151765000Y-65722500D01*
X149294999Y-64797499D02*
X147320000Y-66772498D01*
X150490001Y-64852499D02*
X150435001Y-64797499D01*
X151765000Y-66294000D02*
X151085510Y-66973490D01*
X147320000Y-66772498D02*
X147320000Y-70866000D01*
X151765000Y-65722500D02*
X151765000Y-66294000D01*
X150490001Y-66592501D02*
X150490001Y-64852499D01*
X151085510Y-66973490D02*
X150265010Y-66973490D01*
X150265010Y-66973490D02*
X150265010Y-66647501D01*
X150265010Y-66647501D02*
X150435001Y-66647501D01*
X150435001Y-64797499D02*
X149294999Y-64797499D01*
X150435001Y-66647501D02*
X150490001Y-66592501D01*
X138303000Y-64954699D02*
X138303000Y-62928500D01*
X140081000Y-70485000D02*
X140081000Y-66732699D01*
X140081000Y-66732699D02*
X138303000Y-64954699D01*
X130847999Y-39153999D02*
X130048000Y-38354000D01*
X131127500Y-39433500D02*
X130847999Y-39153999D01*
X131127500Y-48269502D02*
X131127500Y-39433500D01*
X131523011Y-48665013D02*
X131127500Y-48269502D01*
X131523011Y-54275690D02*
X131523011Y-48665013D01*
X131508500Y-54290201D02*
X131523011Y-54275690D01*
X131523011Y-55452310D02*
X131508500Y-55437799D01*
X131523011Y-56815690D02*
X131523011Y-55452310D01*
X131508500Y-57977799D02*
X131508500Y-56830201D01*
X131508500Y-56830201D02*
X131523011Y-56815690D01*
X131523011Y-57992310D02*
X131508500Y-57977799D01*
X131523011Y-59355690D02*
X131523011Y-57992310D01*
X131508500Y-59370201D02*
X131523011Y-59355690D01*
X131508500Y-60517799D02*
X131508500Y-59370201D01*
X131523011Y-60532310D02*
X131508500Y-60517799D01*
X131523011Y-61895690D02*
X131523011Y-60532310D01*
X131508500Y-55437799D02*
X131508500Y-54290201D01*
X131508500Y-61910201D02*
X131523011Y-61895690D01*
X131508500Y-63057799D02*
X131508500Y-61910201D01*
X134112000Y-65661299D02*
X131508500Y-63057799D01*
X134112000Y-66484500D02*
X134112000Y-65661299D01*
G04 #@! TO.N,Net-(J10-Pad3)*
X160972500Y-64795707D02*
X160972500Y-72072500D01*
X161544000Y-62992000D02*
X161544000Y-64224207D01*
X161544000Y-64224207D02*
X160972500Y-64795707D01*
D33*
G04 #@! TO.N,Net-(JP3-Pad1)*
X150871689Y-59128000D02*
X151574000Y-59128000D01*
X150196499Y-58972501D02*
X150716190Y-58972501D01*
X150716190Y-58972501D02*
X150871689Y-59128000D01*
X149796500Y-59372500D02*
X150196499Y-58972501D01*
D32*
G04 #@! TO.N,Net-(R10-Pad2)*
X159318500Y-71691500D02*
X159194500Y-71691500D01*
X160147000Y-72520000D02*
X159318500Y-71691500D01*
X160147000Y-74549000D02*
X160147000Y-72520000D01*
G04 #@! TO.N,Net-(R12-Pad2)*
X157099000Y-72017000D02*
X157424500Y-71691500D01*
X157099000Y-74231500D02*
X157099000Y-72017000D01*
G04 #@! TD*
D34*
G04 #@! TO.N,BattRtn*
G36*
X131535310Y-85974402D02*
X131617940Y-85975765D01*
X131624148Y-85977000D01*
X131692798Y-85977000D01*
X131837616Y-85979389D01*
X131843664Y-85977000D01*
X132044560Y-85977000D01*
X132044560Y-87086000D01*
X132093843Y-87333765D01*
X132234191Y-87543809D01*
X132444235Y-87684157D01*
X132520759Y-87699378D01*
X132644072Y-87883929D01*
X132895464Y-88051904D01*
X133192000Y-88110889D01*
X133488537Y-88051904D01*
X133739929Y-87883929D01*
X133863242Y-87699378D01*
X133939765Y-87684157D01*
X134149809Y-87543809D01*
X134290157Y-87333765D01*
X134339440Y-87086000D01*
X134339440Y-85977000D01*
X137753303Y-85977000D01*
X137413939Y-86117569D01*
X137122788Y-86408720D01*
X136965219Y-86789126D01*
X136965219Y-87200874D01*
X137003586Y-87293500D01*
X136991126Y-87293500D01*
X136610720Y-87451069D01*
X136319569Y-87742220D01*
X136295014Y-87801500D01*
X135993177Y-87801500D01*
X135612771Y-87959069D01*
X135321620Y-88250220D01*
X135191855Y-88563500D01*
X134795126Y-88563500D01*
X134414720Y-88721069D01*
X134270689Y-88865100D01*
X134149809Y-88684191D01*
X133939765Y-88543843D01*
X133692000Y-88494560D01*
X132692000Y-88494560D01*
X132444235Y-88543843D01*
X132234191Y-88684191D01*
X132093843Y-88894235D01*
X132044560Y-89142000D01*
X132044560Y-90642000D01*
X132093843Y-90889765D01*
X132234191Y-91099809D01*
X132336001Y-91167837D01*
X132336000Y-92156018D01*
X132138191Y-92288191D01*
X131997843Y-92498235D01*
X131948560Y-92746000D01*
X131948560Y-94246000D01*
X131997843Y-94493765D01*
X132138191Y-94703809D01*
X132348235Y-94844157D01*
X132596000Y-94893440D01*
X133596000Y-94893440D01*
X133843765Y-94844157D01*
X134053809Y-94703809D01*
X134194157Y-94493765D01*
X134243440Y-94246000D01*
X134243440Y-92746000D01*
X134194157Y-92498235D01*
X134053809Y-92288191D01*
X133856000Y-92156018D01*
X133856000Y-91256819D01*
X133939765Y-91240157D01*
X134149809Y-91099809D01*
X134241001Y-90963332D01*
X134241001Y-91161151D01*
X134226112Y-91236002D01*
X134285097Y-91532539D01*
X134396664Y-91699510D01*
X134453072Y-91783931D01*
X134516528Y-91826331D01*
X137649696Y-94959500D01*
X129259678Y-94959500D01*
X129266059Y-88049000D01*
X129762250Y-88049000D01*
X129921000Y-87890250D01*
X129921000Y-86741000D01*
X130175000Y-86741000D01*
X130175000Y-87890250D01*
X130333750Y-88049000D01*
X130974310Y-88049000D01*
X131207699Y-87952327D01*
X131386327Y-87773698D01*
X131483000Y-87540309D01*
X131483000Y-86899750D01*
X131324250Y-86741000D01*
X130175000Y-86741000D01*
X129921000Y-86741000D01*
X129901000Y-86741000D01*
X129901000Y-86487000D01*
X129921000Y-86487000D01*
X129921000Y-86467000D01*
X130175000Y-86467000D01*
X130175000Y-86487000D01*
X131324250Y-86487000D01*
X131483000Y-86328250D01*
X131483000Y-85951717D01*
X131535310Y-85974402D01*
X131535310Y-85974402D01*
G37*
X131535310Y-85974402D02*
X131617940Y-85975765D01*
X131624148Y-85977000D01*
X131692798Y-85977000D01*
X131837616Y-85979389D01*
X131843664Y-85977000D01*
X132044560Y-85977000D01*
X132044560Y-87086000D01*
X132093843Y-87333765D01*
X132234191Y-87543809D01*
X132444235Y-87684157D01*
X132520759Y-87699378D01*
X132644072Y-87883929D01*
X132895464Y-88051904D01*
X133192000Y-88110889D01*
X133488537Y-88051904D01*
X133739929Y-87883929D01*
X133863242Y-87699378D01*
X133939765Y-87684157D01*
X134149809Y-87543809D01*
X134290157Y-87333765D01*
X134339440Y-87086000D01*
X134339440Y-85977000D01*
X137753303Y-85977000D01*
X137413939Y-86117569D01*
X137122788Y-86408720D01*
X136965219Y-86789126D01*
X136965219Y-87200874D01*
X137003586Y-87293500D01*
X136991126Y-87293500D01*
X136610720Y-87451069D01*
X136319569Y-87742220D01*
X136295014Y-87801500D01*
X135993177Y-87801500D01*
X135612771Y-87959069D01*
X135321620Y-88250220D01*
X135191855Y-88563500D01*
X134795126Y-88563500D01*
X134414720Y-88721069D01*
X134270689Y-88865100D01*
X134149809Y-88684191D01*
X133939765Y-88543843D01*
X133692000Y-88494560D01*
X132692000Y-88494560D01*
X132444235Y-88543843D01*
X132234191Y-88684191D01*
X132093843Y-88894235D01*
X132044560Y-89142000D01*
X132044560Y-90642000D01*
X132093843Y-90889765D01*
X132234191Y-91099809D01*
X132336001Y-91167837D01*
X132336000Y-92156018D01*
X132138191Y-92288191D01*
X131997843Y-92498235D01*
X131948560Y-92746000D01*
X131948560Y-94246000D01*
X131997843Y-94493765D01*
X132138191Y-94703809D01*
X132348235Y-94844157D01*
X132596000Y-94893440D01*
X133596000Y-94893440D01*
X133843765Y-94844157D01*
X134053809Y-94703809D01*
X134194157Y-94493765D01*
X134243440Y-94246000D01*
X134243440Y-92746000D01*
X134194157Y-92498235D01*
X134053809Y-92288191D01*
X133856000Y-92156018D01*
X133856000Y-91256819D01*
X133939765Y-91240157D01*
X134149809Y-91099809D01*
X134241001Y-90963332D01*
X134241001Y-91161151D01*
X134226112Y-91236002D01*
X134285097Y-91532539D01*
X134396664Y-91699510D01*
X134453072Y-91783931D01*
X134516528Y-91826331D01*
X137649696Y-94959500D01*
X129259678Y-94959500D01*
X129266059Y-88049000D01*
X129762250Y-88049000D01*
X129921000Y-87890250D01*
X129921000Y-86741000D01*
X130175000Y-86741000D01*
X130175000Y-87890250D01*
X130333750Y-88049000D01*
X130974310Y-88049000D01*
X131207699Y-87952327D01*
X131386327Y-87773698D01*
X131483000Y-87540309D01*
X131483000Y-86899750D01*
X131324250Y-86741000D01*
X130175000Y-86741000D01*
X129921000Y-86741000D01*
X129901000Y-86741000D01*
X129901000Y-86487000D01*
X129921000Y-86487000D01*
X129921000Y-86467000D01*
X130175000Y-86467000D01*
X130175000Y-86487000D01*
X131324250Y-86487000D01*
X131483000Y-86328250D01*
X131483000Y-85951717D01*
X131535310Y-85974402D01*
G36*
X162215003Y-90805000D02*
X162175440Y-90805000D01*
X162175440Y-90446000D01*
X162148064Y-90308369D01*
X162163000Y-90272310D01*
X162163000Y-90081750D01*
X162004250Y-89923000D01*
X161888245Y-89923000D01*
X161775765Y-89847843D01*
X161528000Y-89798560D01*
X159528000Y-89798560D01*
X159280235Y-89847843D01*
X159167755Y-89923000D01*
X159051750Y-89923000D01*
X158893000Y-90081750D01*
X158893000Y-90272310D01*
X158907936Y-90308369D01*
X158880560Y-90446000D01*
X158880560Y-90805000D01*
X151892000Y-90805000D01*
X151861835Y-90811000D01*
X151213750Y-90811000D01*
X151101750Y-90923000D01*
X151055000Y-90923000D01*
X151055000Y-91669000D01*
X151075000Y-91669000D01*
X151075000Y-91923000D01*
X151055000Y-91923000D01*
X151055000Y-92669000D01*
X151075000Y-92669000D01*
X151075000Y-92923000D01*
X151055000Y-92923000D01*
X151055000Y-93819000D01*
X151075000Y-93819000D01*
X151075000Y-94073000D01*
X151055000Y-94073000D01*
X151055000Y-94093000D01*
X150801000Y-94093000D01*
X150801000Y-94073000D01*
X149451750Y-94073000D01*
X149293000Y-94231750D01*
X149293000Y-94572310D01*
X149389673Y-94805699D01*
X149543475Y-94959500D01*
X148011301Y-94959500D01*
X148693473Y-94277329D01*
X148756929Y-94234929D01*
X148864914Y-94073318D01*
X149056765Y-94035157D01*
X149266809Y-93894809D01*
X149371251Y-93738501D01*
X149451750Y-93819000D01*
X150801000Y-93819000D01*
X150801000Y-92923000D01*
X150781000Y-92923000D01*
X150781000Y-92669000D01*
X150801000Y-92669000D01*
X150801000Y-91923000D01*
X150754250Y-91923000D01*
X150642250Y-91811000D01*
X149801691Y-91811000D01*
X149568302Y-91907673D01*
X149552975Y-91923000D01*
X149451750Y-91923000D01*
X149398488Y-91976262D01*
X149266809Y-91779191D01*
X149056765Y-91638843D01*
X148809000Y-91589560D01*
X147609000Y-91589560D01*
X147361235Y-91638843D01*
X147151191Y-91779191D01*
X147109000Y-91842334D01*
X147066809Y-91779191D01*
X147004348Y-91737455D01*
X147578364Y-91163440D01*
X148766000Y-91163440D01*
X149013765Y-91114157D01*
X149223809Y-90973809D01*
X149293000Y-90870258D01*
X149293000Y-90923002D01*
X149451748Y-90923002D01*
X149293000Y-91081750D01*
X149293000Y-91272310D01*
X149302813Y-91296000D01*
X149293000Y-91319690D01*
X149293000Y-91510250D01*
X149451750Y-91669000D01*
X149552975Y-91669000D01*
X149568302Y-91684327D01*
X149801691Y-91781000D01*
X150642250Y-91781000D01*
X150754250Y-91669000D01*
X150801000Y-91669000D01*
X150801000Y-90923000D01*
X150781000Y-90923000D01*
X150781000Y-90793440D01*
X151928000Y-90793440D01*
X152175765Y-90744157D01*
X152288245Y-90669000D01*
X152404250Y-90669000D01*
X152563000Y-90510250D01*
X152563000Y-90319690D01*
X152548064Y-90283631D01*
X152575440Y-90146000D01*
X152575440Y-89446000D01*
X152545603Y-89296000D01*
X152575440Y-89146000D01*
X152575440Y-89081750D01*
X158893000Y-89081750D01*
X158893000Y-89272310D01*
X158902813Y-89296000D01*
X158893000Y-89319690D01*
X158893000Y-89510250D01*
X159051750Y-89669000D01*
X159152975Y-89669000D01*
X159168302Y-89684327D01*
X159401691Y-89781000D01*
X160242250Y-89781000D01*
X160354250Y-89669000D01*
X160401000Y-89669000D01*
X160401000Y-88923000D01*
X160655000Y-88923000D01*
X160655000Y-89669000D01*
X160701750Y-89669000D01*
X160813750Y-89781000D01*
X161654309Y-89781000D01*
X161887698Y-89684327D01*
X161903025Y-89669000D01*
X162004250Y-89669000D01*
X162163000Y-89510250D01*
X162163000Y-89319690D01*
X162153187Y-89296000D01*
X162163000Y-89272310D01*
X162163000Y-89081750D01*
X162004250Y-88923000D01*
X161903025Y-88923000D01*
X161887698Y-88907673D01*
X161654309Y-88811000D01*
X160813750Y-88811000D01*
X160701750Y-88923000D01*
X160655000Y-88923000D01*
X160401000Y-88923000D01*
X160354250Y-88923000D01*
X160242250Y-88811000D01*
X159401691Y-88811000D01*
X159168302Y-88907673D01*
X159152975Y-88923000D01*
X159051750Y-88923000D01*
X158893000Y-89081750D01*
X152575440Y-89081750D01*
X152575440Y-88446000D01*
X152545603Y-88296000D01*
X152575440Y-88146000D01*
X152575440Y-87446000D01*
X158880560Y-87446000D01*
X158880560Y-88146000D01*
X158907936Y-88283631D01*
X158893000Y-88319690D01*
X158893000Y-88510250D01*
X159051750Y-88669000D01*
X159167755Y-88669000D01*
X159280235Y-88744157D01*
X159528000Y-88793440D01*
X161528000Y-88793440D01*
X161775765Y-88744157D01*
X161888245Y-88669000D01*
X162004250Y-88669000D01*
X162163000Y-88510250D01*
X162163000Y-88319690D01*
X162148064Y-88283631D01*
X162175440Y-88146000D01*
X162175440Y-87446000D01*
X162148064Y-87308369D01*
X162163000Y-87272310D01*
X162163000Y-87081750D01*
X162004250Y-86923000D01*
X161888245Y-86923000D01*
X161775765Y-86847843D01*
X161528000Y-86798560D01*
X159528000Y-86798560D01*
X159280235Y-86847843D01*
X159167755Y-86923000D01*
X159051750Y-86923000D01*
X158893000Y-87081750D01*
X158893000Y-87272310D01*
X158907936Y-87308369D01*
X158880560Y-87446000D01*
X152575440Y-87446000D01*
X152545603Y-87296000D01*
X152575440Y-87146000D01*
X152575440Y-86446000D01*
X152548064Y-86308369D01*
X152563000Y-86272310D01*
X152563000Y-86081750D01*
X158893000Y-86081750D01*
X158893000Y-86272310D01*
X158902813Y-86296000D01*
X158893000Y-86319690D01*
X158893000Y-86510250D01*
X159051750Y-86669000D01*
X159152975Y-86669000D01*
X159168302Y-86684327D01*
X159401691Y-86781000D01*
X160242250Y-86781000D01*
X160354250Y-86669000D01*
X160401000Y-86669000D01*
X160401000Y-85923000D01*
X160655000Y-85923000D01*
X160655000Y-86669000D01*
X160701750Y-86669000D01*
X160813750Y-86781000D01*
X161654309Y-86781000D01*
X161887698Y-86684327D01*
X161903025Y-86669000D01*
X162004250Y-86669000D01*
X162163000Y-86510250D01*
X162163000Y-86319690D01*
X162153187Y-86296000D01*
X162163000Y-86272310D01*
X162163000Y-86081750D01*
X162004250Y-85923000D01*
X161903025Y-85923000D01*
X161887698Y-85907673D01*
X161654309Y-85811000D01*
X160813750Y-85811000D01*
X160701750Y-85923000D01*
X160655000Y-85923000D01*
X160401000Y-85923000D01*
X160354250Y-85923000D01*
X160242250Y-85811000D01*
X159401691Y-85811000D01*
X159168302Y-85907673D01*
X159152975Y-85923000D01*
X159051750Y-85923000D01*
X158893000Y-86081750D01*
X152563000Y-86081750D01*
X152404250Y-85923000D01*
X152288245Y-85923000D01*
X152175765Y-85847843D01*
X151928000Y-85798560D01*
X149928000Y-85798560D01*
X149680235Y-85847843D01*
X149567755Y-85923000D01*
X149451750Y-85923000D01*
X149293000Y-86081750D01*
X149293000Y-86272310D01*
X149307936Y-86308369D01*
X149280560Y-86446000D01*
X149280560Y-87146000D01*
X149310397Y-87296000D01*
X149280560Y-87446000D01*
X149280560Y-88146000D01*
X149309054Y-88289250D01*
X148224334Y-87204531D01*
X148181932Y-87141072D01*
X147930540Y-86973097D01*
X147708855Y-86929001D01*
X147708850Y-86929001D01*
X147634003Y-86914113D01*
X147559156Y-86929001D01*
X146710755Y-86929001D01*
X146723000Y-86899439D01*
X146723000Y-86328561D01*
X146504534Y-85801138D01*
X146100862Y-85397466D01*
X145709460Y-85235342D01*
X145863052Y-85081750D01*
X149293000Y-85081750D01*
X149293000Y-85272310D01*
X149302813Y-85296000D01*
X149293000Y-85319690D01*
X149293000Y-85510250D01*
X149451750Y-85669000D01*
X149552975Y-85669000D01*
X149568302Y-85684327D01*
X149801691Y-85781000D01*
X150642250Y-85781000D01*
X150754250Y-85669000D01*
X150801000Y-85669000D01*
X150801000Y-84923000D01*
X151055000Y-84923000D01*
X151055000Y-85669000D01*
X151101750Y-85669000D01*
X151213750Y-85781000D01*
X152054309Y-85781000D01*
X152287698Y-85684327D01*
X152303025Y-85669000D01*
X152404250Y-85669000D01*
X152563000Y-85510250D01*
X152563000Y-85319690D01*
X152553187Y-85296000D01*
X152563000Y-85272310D01*
X152563000Y-85081750D01*
X152404250Y-84923000D01*
X152303025Y-84923000D01*
X152287698Y-84907673D01*
X152054309Y-84811000D01*
X151213750Y-84811000D01*
X151101750Y-84923000D01*
X151055000Y-84923000D01*
X150801000Y-84923000D01*
X150754250Y-84923000D01*
X150642250Y-84811000D01*
X149801691Y-84811000D01*
X149568302Y-84907673D01*
X149552975Y-84923000D01*
X149451750Y-84923000D01*
X149293000Y-85081750D01*
X145863052Y-85081750D01*
X148388802Y-82556000D01*
X149280560Y-82556000D01*
X149280560Y-83146000D01*
X149310397Y-83296000D01*
X149280560Y-83446000D01*
X149280560Y-84146000D01*
X149307936Y-84283631D01*
X149293000Y-84319690D01*
X149293000Y-84510250D01*
X149451750Y-84669000D01*
X149567755Y-84669000D01*
X149680235Y-84744157D01*
X149928000Y-84793440D01*
X151928000Y-84793440D01*
X152175765Y-84744157D01*
X152288245Y-84669000D01*
X152404250Y-84669000D01*
X152563000Y-84510250D01*
X152563000Y-84319690D01*
X152548064Y-84283631D01*
X152575440Y-84146000D01*
X152575440Y-83446000D01*
X152545603Y-83296000D01*
X152575440Y-83146000D01*
X152575440Y-82446000D01*
X152545603Y-82296000D01*
X152575440Y-82146000D01*
X152575440Y-81446000D01*
X152542769Y-81281750D01*
X152743000Y-81281750D01*
X152743000Y-82122310D01*
X152839673Y-82355699D01*
X153018302Y-82534327D01*
X153251691Y-82631000D01*
X153442250Y-82631000D01*
X153601000Y-82472250D01*
X153601000Y-81123000D01*
X152901750Y-81123000D01*
X152743000Y-81281750D01*
X152542769Y-81281750D01*
X152526157Y-81198235D01*
X152385809Y-80988191D01*
X152175765Y-80847843D01*
X151928000Y-80798560D01*
X151636000Y-80798560D01*
X151636000Y-79869690D01*
X152743000Y-79869690D01*
X152743000Y-80710250D01*
X152901750Y-80869000D01*
X153601000Y-80869000D01*
X153601000Y-79519750D01*
X153442250Y-79361000D01*
X153251691Y-79361000D01*
X153018302Y-79457673D01*
X152839673Y-79636301D01*
X152743000Y-79869690D01*
X151636000Y-79869690D01*
X151636000Y-76475155D01*
X151644235Y-76480657D01*
X151892000Y-76529940D01*
X152400000Y-76529940D01*
X152647765Y-76480657D01*
X152781000Y-76391632D01*
X152914235Y-76480657D01*
X153162000Y-76529940D01*
X153670000Y-76529940D01*
X153917765Y-76480657D01*
X153945148Y-76462360D01*
X153919560Y-76591000D01*
X153919560Y-77841000D01*
X153968843Y-78088765D01*
X154109191Y-78298809D01*
X154319235Y-78439157D01*
X154567000Y-78488440D01*
X155567000Y-78488440D01*
X155814765Y-78439157D01*
X156024809Y-78298809D01*
X156067000Y-78235666D01*
X156109191Y-78298809D01*
X156203778Y-78362011D01*
X156094569Y-78471220D01*
X155937000Y-78851626D01*
X155937000Y-79263374D01*
X155972285Y-79348560D01*
X155378000Y-79348560D01*
X155228000Y-79378397D01*
X155078000Y-79348560D01*
X154378000Y-79348560D01*
X154240368Y-79375936D01*
X154204309Y-79361000D01*
X154013750Y-79361000D01*
X153855000Y-79519750D01*
X153855000Y-79635755D01*
X153779843Y-79748235D01*
X153730560Y-79996000D01*
X153730560Y-81996000D01*
X153779843Y-82243765D01*
X153855000Y-82356245D01*
X153855000Y-82472250D01*
X154013750Y-82631000D01*
X154204309Y-82631000D01*
X154240368Y-82616064D01*
X154378000Y-82643440D01*
X155078000Y-82643440D01*
X155228000Y-82613603D01*
X155378000Y-82643440D01*
X156078000Y-82643440D01*
X156228000Y-82613603D01*
X156275029Y-82622958D01*
X156127500Y-82979126D01*
X156127500Y-83390874D01*
X156285069Y-83771280D01*
X156576220Y-84062431D01*
X156956626Y-84220000D01*
X157368374Y-84220000D01*
X157748780Y-84062431D01*
X157765750Y-84045461D01*
X157846220Y-84125931D01*
X158226626Y-84283500D01*
X158638374Y-84283500D01*
X158887393Y-84180353D01*
X158910397Y-84296000D01*
X158880560Y-84446000D01*
X158880560Y-85146000D01*
X158907936Y-85283631D01*
X158893000Y-85319690D01*
X158893000Y-85510250D01*
X159051750Y-85669000D01*
X159167755Y-85669000D01*
X159280235Y-85744157D01*
X159528000Y-85793440D01*
X161528000Y-85793440D01*
X161775765Y-85744157D01*
X161888245Y-85669000D01*
X162004250Y-85669000D01*
X162163000Y-85510250D01*
X162163000Y-85319690D01*
X162148064Y-85283631D01*
X162175440Y-85146000D01*
X162175440Y-84446000D01*
X162145603Y-84296000D01*
X162175440Y-84146000D01*
X162175440Y-83446000D01*
X162145603Y-83296000D01*
X162175440Y-83146000D01*
X162175440Y-82446000D01*
X162145603Y-82296000D01*
X162175440Y-82146000D01*
X162175440Y-81446000D01*
X162126157Y-81198235D01*
X161985809Y-80988191D01*
X161775765Y-80847843D01*
X161528000Y-80798560D01*
X159528000Y-80798560D01*
X159280235Y-80847843D01*
X159070191Y-80988191D01*
X159038246Y-81036000D01*
X158886846Y-81036000D01*
X158811998Y-81021112D01*
X158737150Y-81036000D01*
X158737146Y-81036000D01*
X158515461Y-81080096D01*
X158451251Y-81123000D01*
X157855000Y-81123000D01*
X157855000Y-81143000D01*
X157725440Y-81143000D01*
X157725440Y-80849000D01*
X157855000Y-80849000D01*
X157855000Y-80869000D01*
X158554250Y-80869000D01*
X158713000Y-80710250D01*
X158713000Y-79869690D01*
X158616327Y-79636301D01*
X158437698Y-79457673D01*
X158204309Y-79361000D01*
X158013750Y-79361000D01*
X157933195Y-79441555D01*
X158007000Y-79263374D01*
X158007000Y-78851626D01*
X157849431Y-78471220D01*
X157816325Y-78438114D01*
X158024809Y-78298809D01*
X158165157Y-78088765D01*
X158214440Y-77841000D01*
X158214440Y-77209000D01*
X159007246Y-77209000D01*
X159039191Y-77256809D01*
X159249235Y-77397157D01*
X159497000Y-77446440D01*
X160797000Y-77446440D01*
X161044765Y-77397157D01*
X161254809Y-77256809D01*
X161395157Y-77046765D01*
X161444440Y-76799000D01*
X161444440Y-76099000D01*
X161395157Y-75851235D01*
X161254809Y-75641191D01*
X161044765Y-75500843D01*
X161035500Y-75499000D01*
X161044765Y-75497157D01*
X161254809Y-75356809D01*
X161395157Y-75146765D01*
X161444440Y-74899000D01*
X161444440Y-74199000D01*
X161395157Y-73951235D01*
X161254809Y-73741191D01*
X161044765Y-73600843D01*
X160907000Y-73573440D01*
X160907000Y-73107500D01*
X161178374Y-73107500D01*
X161558780Y-72949931D01*
X161849931Y-72658780D01*
X162007500Y-72278374D01*
X162007500Y-71866626D01*
X161849931Y-71486220D01*
X161732500Y-71368789D01*
X161732500Y-66994940D01*
X162258853Y-66994940D01*
X162215003Y-90805000D01*
X162215003Y-90805000D01*
G37*
X162215003Y-90805000D02*
X162175440Y-90805000D01*
X162175440Y-90446000D01*
X162148064Y-90308369D01*
X162163000Y-90272310D01*
X162163000Y-90081750D01*
X162004250Y-89923000D01*
X161888245Y-89923000D01*
X161775765Y-89847843D01*
X161528000Y-89798560D01*
X159528000Y-89798560D01*
X159280235Y-89847843D01*
X159167755Y-89923000D01*
X159051750Y-89923000D01*
X158893000Y-90081750D01*
X158893000Y-90272310D01*
X158907936Y-90308369D01*
X158880560Y-90446000D01*
X158880560Y-90805000D01*
X151892000Y-90805000D01*
X151861835Y-90811000D01*
X151213750Y-90811000D01*
X151101750Y-90923000D01*
X151055000Y-90923000D01*
X151055000Y-91669000D01*
X151075000Y-91669000D01*
X151075000Y-91923000D01*
X151055000Y-91923000D01*
X151055000Y-92669000D01*
X151075000Y-92669000D01*
X151075000Y-92923000D01*
X151055000Y-92923000D01*
X151055000Y-93819000D01*
X151075000Y-93819000D01*
X151075000Y-94073000D01*
X151055000Y-94073000D01*
X151055000Y-94093000D01*
X150801000Y-94093000D01*
X150801000Y-94073000D01*
X149451750Y-94073000D01*
X149293000Y-94231750D01*
X149293000Y-94572310D01*
X149389673Y-94805699D01*
X149543475Y-94959500D01*
X148011301Y-94959500D01*
X148693473Y-94277329D01*
X148756929Y-94234929D01*
X148864914Y-94073318D01*
X149056765Y-94035157D01*
X149266809Y-93894809D01*
X149371251Y-93738501D01*
X149451750Y-93819000D01*
X150801000Y-93819000D01*
X150801000Y-92923000D01*
X150781000Y-92923000D01*
X150781000Y-92669000D01*
X150801000Y-92669000D01*
X150801000Y-91923000D01*
X150754250Y-91923000D01*
X150642250Y-91811000D01*
X149801691Y-91811000D01*
X149568302Y-91907673D01*
X149552975Y-91923000D01*
X149451750Y-91923000D01*
X149398488Y-91976262D01*
X149266809Y-91779191D01*
X149056765Y-91638843D01*
X148809000Y-91589560D01*
X147609000Y-91589560D01*
X147361235Y-91638843D01*
X147151191Y-91779191D01*
X147109000Y-91842334D01*
X147066809Y-91779191D01*
X147004348Y-91737455D01*
X147578364Y-91163440D01*
X148766000Y-91163440D01*
X149013765Y-91114157D01*
X149223809Y-90973809D01*
X149293000Y-90870258D01*
X149293000Y-90923002D01*
X149451748Y-90923002D01*
X149293000Y-91081750D01*
X149293000Y-91272310D01*
X149302813Y-91296000D01*
X149293000Y-91319690D01*
X149293000Y-91510250D01*
X149451750Y-91669000D01*
X149552975Y-91669000D01*
X149568302Y-91684327D01*
X149801691Y-91781000D01*
X150642250Y-91781000D01*
X150754250Y-91669000D01*
X150801000Y-91669000D01*
X150801000Y-90923000D01*
X150781000Y-90923000D01*
X150781000Y-90793440D01*
X151928000Y-90793440D01*
X152175765Y-90744157D01*
X152288245Y-90669000D01*
X152404250Y-90669000D01*
X152563000Y-90510250D01*
X152563000Y-90319690D01*
X152548064Y-90283631D01*
X152575440Y-90146000D01*
X152575440Y-89446000D01*
X152545603Y-89296000D01*
X152575440Y-89146000D01*
X152575440Y-89081750D01*
X158893000Y-89081750D01*
X158893000Y-89272310D01*
X158902813Y-89296000D01*
X158893000Y-89319690D01*
X158893000Y-89510250D01*
X159051750Y-89669000D01*
X159152975Y-89669000D01*
X159168302Y-89684327D01*
X159401691Y-89781000D01*
X160242250Y-89781000D01*
X160354250Y-89669000D01*
X160401000Y-89669000D01*
X160401000Y-88923000D01*
X160655000Y-88923000D01*
X160655000Y-89669000D01*
X160701750Y-89669000D01*
X160813750Y-89781000D01*
X161654309Y-89781000D01*
X161887698Y-89684327D01*
X161903025Y-89669000D01*
X162004250Y-89669000D01*
X162163000Y-89510250D01*
X162163000Y-89319690D01*
X162153187Y-89296000D01*
X162163000Y-89272310D01*
X162163000Y-89081750D01*
X162004250Y-88923000D01*
X161903025Y-88923000D01*
X161887698Y-88907673D01*
X161654309Y-88811000D01*
X160813750Y-88811000D01*
X160701750Y-88923000D01*
X160655000Y-88923000D01*
X160401000Y-88923000D01*
X160354250Y-88923000D01*
X160242250Y-88811000D01*
X159401691Y-88811000D01*
X159168302Y-88907673D01*
X159152975Y-88923000D01*
X159051750Y-88923000D01*
X158893000Y-89081750D01*
X152575440Y-89081750D01*
X152575440Y-88446000D01*
X152545603Y-88296000D01*
X152575440Y-88146000D01*
X152575440Y-87446000D01*
X158880560Y-87446000D01*
X158880560Y-88146000D01*
X158907936Y-88283631D01*
X158893000Y-88319690D01*
X158893000Y-88510250D01*
X159051750Y-88669000D01*
X159167755Y-88669000D01*
X159280235Y-88744157D01*
X159528000Y-88793440D01*
X161528000Y-88793440D01*
X161775765Y-88744157D01*
X161888245Y-88669000D01*
X162004250Y-88669000D01*
X162163000Y-88510250D01*
X162163000Y-88319690D01*
X162148064Y-88283631D01*
X162175440Y-88146000D01*
X162175440Y-87446000D01*
X162148064Y-87308369D01*
X162163000Y-87272310D01*
X162163000Y-87081750D01*
X162004250Y-86923000D01*
X161888245Y-86923000D01*
X161775765Y-86847843D01*
X161528000Y-86798560D01*
X159528000Y-86798560D01*
X159280235Y-86847843D01*
X159167755Y-86923000D01*
X159051750Y-86923000D01*
X158893000Y-87081750D01*
X158893000Y-87272310D01*
X158907936Y-87308369D01*
X158880560Y-87446000D01*
X152575440Y-87446000D01*
X152545603Y-87296000D01*
X152575440Y-87146000D01*
X152575440Y-86446000D01*
X152548064Y-86308369D01*
X152563000Y-86272310D01*
X152563000Y-86081750D01*
X158893000Y-86081750D01*
X158893000Y-86272310D01*
X158902813Y-86296000D01*
X158893000Y-86319690D01*
X158893000Y-86510250D01*
X159051750Y-86669000D01*
X159152975Y-86669000D01*
X159168302Y-86684327D01*
X159401691Y-86781000D01*
X160242250Y-86781000D01*
X160354250Y-86669000D01*
X160401000Y-86669000D01*
X160401000Y-85923000D01*
X160655000Y-85923000D01*
X160655000Y-86669000D01*
X160701750Y-86669000D01*
X160813750Y-86781000D01*
X161654309Y-86781000D01*
X161887698Y-86684327D01*
X161903025Y-86669000D01*
X162004250Y-86669000D01*
X162163000Y-86510250D01*
X162163000Y-86319690D01*
X162153187Y-86296000D01*
X162163000Y-86272310D01*
X162163000Y-86081750D01*
X162004250Y-85923000D01*
X161903025Y-85923000D01*
X161887698Y-85907673D01*
X161654309Y-85811000D01*
X160813750Y-85811000D01*
X160701750Y-85923000D01*
X160655000Y-85923000D01*
X160401000Y-85923000D01*
X160354250Y-85923000D01*
X160242250Y-85811000D01*
X159401691Y-85811000D01*
X159168302Y-85907673D01*
X159152975Y-85923000D01*
X159051750Y-85923000D01*
X158893000Y-86081750D01*
X152563000Y-86081750D01*
X152404250Y-85923000D01*
X152288245Y-85923000D01*
X152175765Y-85847843D01*
X151928000Y-85798560D01*
X149928000Y-85798560D01*
X149680235Y-85847843D01*
X149567755Y-85923000D01*
X149451750Y-85923000D01*
X149293000Y-86081750D01*
X149293000Y-86272310D01*
X149307936Y-86308369D01*
X149280560Y-86446000D01*
X149280560Y-87146000D01*
X149310397Y-87296000D01*
X149280560Y-87446000D01*
X149280560Y-88146000D01*
X149309054Y-88289250D01*
X148224334Y-87204531D01*
X148181932Y-87141072D01*
X147930540Y-86973097D01*
X147708855Y-86929001D01*
X147708850Y-86929001D01*
X147634003Y-86914113D01*
X147559156Y-86929001D01*
X146710755Y-86929001D01*
X146723000Y-86899439D01*
X146723000Y-86328561D01*
X146504534Y-85801138D01*
X146100862Y-85397466D01*
X145709460Y-85235342D01*
X145863052Y-85081750D01*
X149293000Y-85081750D01*
X149293000Y-85272310D01*
X149302813Y-85296000D01*
X149293000Y-85319690D01*
X149293000Y-85510250D01*
X149451750Y-85669000D01*
X149552975Y-85669000D01*
X149568302Y-85684327D01*
X149801691Y-85781000D01*
X150642250Y-85781000D01*
X150754250Y-85669000D01*
X150801000Y-85669000D01*
X150801000Y-84923000D01*
X151055000Y-84923000D01*
X151055000Y-85669000D01*
X151101750Y-85669000D01*
X151213750Y-85781000D01*
X152054309Y-85781000D01*
X152287698Y-85684327D01*
X152303025Y-85669000D01*
X152404250Y-85669000D01*
X152563000Y-85510250D01*
X152563000Y-85319690D01*
X152553187Y-85296000D01*
X152563000Y-85272310D01*
X152563000Y-85081750D01*
X152404250Y-84923000D01*
X152303025Y-84923000D01*
X152287698Y-84907673D01*
X152054309Y-84811000D01*
X151213750Y-84811000D01*
X151101750Y-84923000D01*
X151055000Y-84923000D01*
X150801000Y-84923000D01*
X150754250Y-84923000D01*
X150642250Y-84811000D01*
X149801691Y-84811000D01*
X149568302Y-84907673D01*
X149552975Y-84923000D01*
X149451750Y-84923000D01*
X149293000Y-85081750D01*
X145863052Y-85081750D01*
X148388802Y-82556000D01*
X149280560Y-82556000D01*
X149280560Y-83146000D01*
X149310397Y-83296000D01*
X149280560Y-83446000D01*
X149280560Y-84146000D01*
X149307936Y-84283631D01*
X149293000Y-84319690D01*
X149293000Y-84510250D01*
X149451750Y-84669000D01*
X149567755Y-84669000D01*
X149680235Y-84744157D01*
X149928000Y-84793440D01*
X151928000Y-84793440D01*
X152175765Y-84744157D01*
X152288245Y-84669000D01*
X152404250Y-84669000D01*
X152563000Y-84510250D01*
X152563000Y-84319690D01*
X152548064Y-84283631D01*
X152575440Y-84146000D01*
X152575440Y-83446000D01*
X152545603Y-83296000D01*
X152575440Y-83146000D01*
X152575440Y-82446000D01*
X152545603Y-82296000D01*
X152575440Y-82146000D01*
X152575440Y-81446000D01*
X152542769Y-81281750D01*
X152743000Y-81281750D01*
X152743000Y-82122310D01*
X152839673Y-82355699D01*
X153018302Y-82534327D01*
X153251691Y-82631000D01*
X153442250Y-82631000D01*
X153601000Y-82472250D01*
X153601000Y-81123000D01*
X152901750Y-81123000D01*
X152743000Y-81281750D01*
X152542769Y-81281750D01*
X152526157Y-81198235D01*
X152385809Y-80988191D01*
X152175765Y-80847843D01*
X151928000Y-80798560D01*
X151636000Y-80798560D01*
X151636000Y-79869690D01*
X152743000Y-79869690D01*
X152743000Y-80710250D01*
X152901750Y-80869000D01*
X153601000Y-80869000D01*
X153601000Y-79519750D01*
X153442250Y-79361000D01*
X153251691Y-79361000D01*
X153018302Y-79457673D01*
X152839673Y-79636301D01*
X152743000Y-79869690D01*
X151636000Y-79869690D01*
X151636000Y-76475155D01*
X151644235Y-76480657D01*
X151892000Y-76529940D01*
X152400000Y-76529940D01*
X152647765Y-76480657D01*
X152781000Y-76391632D01*
X152914235Y-76480657D01*
X153162000Y-76529940D01*
X153670000Y-76529940D01*
X153917765Y-76480657D01*
X153945148Y-76462360D01*
X153919560Y-76591000D01*
X153919560Y-77841000D01*
X153968843Y-78088765D01*
X154109191Y-78298809D01*
X154319235Y-78439157D01*
X154567000Y-78488440D01*
X155567000Y-78488440D01*
X155814765Y-78439157D01*
X156024809Y-78298809D01*
X156067000Y-78235666D01*
X156109191Y-78298809D01*
X156203778Y-78362011D01*
X156094569Y-78471220D01*
X155937000Y-78851626D01*
X155937000Y-79263374D01*
X155972285Y-79348560D01*
X155378000Y-79348560D01*
X155228000Y-79378397D01*
X155078000Y-79348560D01*
X154378000Y-79348560D01*
X154240368Y-79375936D01*
X154204309Y-79361000D01*
X154013750Y-79361000D01*
X153855000Y-79519750D01*
X153855000Y-79635755D01*
X153779843Y-79748235D01*
X153730560Y-79996000D01*
X153730560Y-81996000D01*
X153779843Y-82243765D01*
X153855000Y-82356245D01*
X153855000Y-82472250D01*
X154013750Y-82631000D01*
X154204309Y-82631000D01*
X154240368Y-82616064D01*
X154378000Y-82643440D01*
X155078000Y-82643440D01*
X155228000Y-82613603D01*
X155378000Y-82643440D01*
X156078000Y-82643440D01*
X156228000Y-82613603D01*
X156275029Y-82622958D01*
X156127500Y-82979126D01*
X156127500Y-83390874D01*
X156285069Y-83771280D01*
X156576220Y-84062431D01*
X156956626Y-84220000D01*
X157368374Y-84220000D01*
X157748780Y-84062431D01*
X157765750Y-84045461D01*
X157846220Y-84125931D01*
X158226626Y-84283500D01*
X158638374Y-84283500D01*
X158887393Y-84180353D01*
X158910397Y-84296000D01*
X158880560Y-84446000D01*
X158880560Y-85146000D01*
X158907936Y-85283631D01*
X158893000Y-85319690D01*
X158893000Y-85510250D01*
X159051750Y-85669000D01*
X159167755Y-85669000D01*
X159280235Y-85744157D01*
X159528000Y-85793440D01*
X161528000Y-85793440D01*
X161775765Y-85744157D01*
X161888245Y-85669000D01*
X162004250Y-85669000D01*
X162163000Y-85510250D01*
X162163000Y-85319690D01*
X162148064Y-85283631D01*
X162175440Y-85146000D01*
X162175440Y-84446000D01*
X162145603Y-84296000D01*
X162175440Y-84146000D01*
X162175440Y-83446000D01*
X162145603Y-83296000D01*
X162175440Y-83146000D01*
X162175440Y-82446000D01*
X162145603Y-82296000D01*
X162175440Y-82146000D01*
X162175440Y-81446000D01*
X162126157Y-81198235D01*
X161985809Y-80988191D01*
X161775765Y-80847843D01*
X161528000Y-80798560D01*
X159528000Y-80798560D01*
X159280235Y-80847843D01*
X159070191Y-80988191D01*
X159038246Y-81036000D01*
X158886846Y-81036000D01*
X158811998Y-81021112D01*
X158737150Y-81036000D01*
X158737146Y-81036000D01*
X158515461Y-81080096D01*
X158451251Y-81123000D01*
X157855000Y-81123000D01*
X157855000Y-81143000D01*
X157725440Y-81143000D01*
X157725440Y-80849000D01*
X157855000Y-80849000D01*
X157855000Y-80869000D01*
X158554250Y-80869000D01*
X158713000Y-80710250D01*
X158713000Y-79869690D01*
X158616327Y-79636301D01*
X158437698Y-79457673D01*
X158204309Y-79361000D01*
X158013750Y-79361000D01*
X157933195Y-79441555D01*
X158007000Y-79263374D01*
X158007000Y-78851626D01*
X157849431Y-78471220D01*
X157816325Y-78438114D01*
X158024809Y-78298809D01*
X158165157Y-78088765D01*
X158214440Y-77841000D01*
X158214440Y-77209000D01*
X159007246Y-77209000D01*
X159039191Y-77256809D01*
X159249235Y-77397157D01*
X159497000Y-77446440D01*
X160797000Y-77446440D01*
X161044765Y-77397157D01*
X161254809Y-77256809D01*
X161395157Y-77046765D01*
X161444440Y-76799000D01*
X161444440Y-76099000D01*
X161395157Y-75851235D01*
X161254809Y-75641191D01*
X161044765Y-75500843D01*
X161035500Y-75499000D01*
X161044765Y-75497157D01*
X161254809Y-75356809D01*
X161395157Y-75146765D01*
X161444440Y-74899000D01*
X161444440Y-74199000D01*
X161395157Y-73951235D01*
X161254809Y-73741191D01*
X161044765Y-73600843D01*
X160907000Y-73573440D01*
X160907000Y-73107500D01*
X161178374Y-73107500D01*
X161558780Y-72949931D01*
X161849931Y-72658780D01*
X162007500Y-72278374D01*
X162007500Y-71866626D01*
X161849931Y-71486220D01*
X161732500Y-71368789D01*
X161732500Y-66994940D01*
X162258853Y-66994940D01*
X162215003Y-90805000D01*
G36*
X132294072Y-52109929D02*
X132357528Y-52152329D01*
X133206897Y-53001698D01*
X133185000Y-53054561D01*
X133185000Y-53625439D01*
X133403466Y-54152862D01*
X133807138Y-54556534D01*
X133920583Y-54603525D01*
X133865995Y-54626136D01*
X133791861Y-54872255D01*
X134620000Y-55700395D01*
X135448139Y-54872255D01*
X135374005Y-54626136D01*
X135315552Y-54605126D01*
X135432862Y-54556534D01*
X135836534Y-54152862D01*
X135858430Y-54100000D01*
X137289699Y-54100000D01*
X144528000Y-61338302D01*
X144528001Y-65055570D01*
X144475138Y-65077466D01*
X144071466Y-65481138D01*
X143853000Y-66008561D01*
X143853000Y-66579439D01*
X143900785Y-66694802D01*
X143830869Y-66764718D01*
X143772631Y-66803632D01*
X143704584Y-66905472D01*
X143618469Y-67034351D01*
X143564335Y-67306501D01*
X143578000Y-67375199D01*
X143577999Y-68589198D01*
X141095000Y-66106199D01*
X141095000Y-61917711D01*
X141212431Y-61800280D01*
X141370000Y-61419874D01*
X141370000Y-61008126D01*
X141212431Y-60627720D01*
X140921280Y-60336569D01*
X140540874Y-60179000D01*
X140129126Y-60179000D01*
X139748720Y-60336569D01*
X139457569Y-60627720D01*
X139300000Y-61008126D01*
X139300000Y-61419874D01*
X139457569Y-61800280D01*
X139575000Y-61917711D01*
X139575001Y-65151898D01*
X139063000Y-64639898D01*
X139063000Y-63632211D01*
X139180431Y-63514780D01*
X139338000Y-63134374D01*
X139338000Y-62722626D01*
X139180431Y-62342220D01*
X138889280Y-62051069D01*
X138508874Y-61893500D01*
X138097126Y-61893500D01*
X137716720Y-62051069D01*
X137425569Y-62342220D01*
X137268000Y-62722626D01*
X137268000Y-63134374D01*
X137425569Y-63514780D01*
X137543001Y-63632212D01*
X137543000Y-64879852D01*
X137528112Y-64954699D01*
X137543000Y-65029546D01*
X137543000Y-65029550D01*
X137587096Y-65251235D01*
X137755071Y-65502628D01*
X137818530Y-65545030D01*
X139321001Y-67047502D01*
X139321000Y-69781289D01*
X139203569Y-69898720D01*
X139046000Y-70279126D01*
X139046000Y-70690874D01*
X139203569Y-71071280D01*
X139494720Y-71362431D01*
X139875126Y-71520000D01*
X140286874Y-71520000D01*
X140667280Y-71362431D01*
X140958431Y-71071280D01*
X141116000Y-70690874D01*
X141116000Y-70279126D01*
X140958431Y-69898720D01*
X140841000Y-69781289D01*
X140841000Y-68001801D01*
X143874896Y-71035698D01*
X143853000Y-71088561D01*
X143853000Y-71659439D01*
X144071466Y-72186862D01*
X144170271Y-72285667D01*
X144157670Y-72304526D01*
X140342965Y-76119232D01*
X140329868Y-76099631D01*
X140271635Y-76060721D01*
X138528003Y-74317090D01*
X138573657Y-74248765D01*
X138622940Y-74001000D01*
X138622940Y-73001000D01*
X138573657Y-72753235D01*
X138433309Y-72543191D01*
X138372180Y-72502346D01*
X138513827Y-72360698D01*
X138610500Y-72127309D01*
X138610500Y-71786750D01*
X138451750Y-71628000D01*
X137477500Y-71628000D01*
X137477500Y-71648000D01*
X137223500Y-71648000D01*
X137223500Y-71628000D01*
X137203500Y-71628000D01*
X137203500Y-71374000D01*
X137223500Y-71374000D01*
X137223500Y-70524750D01*
X137477500Y-70524750D01*
X137477500Y-71374000D01*
X138451750Y-71374000D01*
X138610500Y-71215250D01*
X138610500Y-70874691D01*
X138513827Y-70641302D01*
X138335199Y-70462673D01*
X138101810Y-70366000D01*
X137636250Y-70366000D01*
X137477500Y-70524750D01*
X137223500Y-70524750D01*
X137064750Y-70366000D01*
X136599190Y-70366000D01*
X136365801Y-70462673D01*
X136187173Y-70641302D01*
X136116419Y-70812118D01*
X131883001Y-66578702D01*
X131883001Y-65852845D01*
X131897889Y-65777998D01*
X131883001Y-65703151D01*
X131883001Y-65703147D01*
X131838905Y-65481462D01*
X131824000Y-65459155D01*
X131824000Y-64588845D01*
X131838905Y-64566538D01*
X131856082Y-64480183D01*
X133254344Y-65878445D01*
X133234569Y-65898220D01*
X133077000Y-66278626D01*
X133077000Y-66690374D01*
X133234569Y-67070780D01*
X133525720Y-67361931D01*
X133906126Y-67519500D01*
X134317874Y-67519500D01*
X134698280Y-67361931D01*
X134989431Y-67070780D01*
X135147000Y-66690374D01*
X135147000Y-66278626D01*
X134989431Y-65898220D01*
X134872000Y-65780789D01*
X134872000Y-65736145D01*
X134886888Y-65661298D01*
X134872000Y-65586451D01*
X134872000Y-65586447D01*
X134827904Y-65364762D01*
X134659929Y-65113370D01*
X134596473Y-65070970D01*
X132268500Y-62742998D01*
X132268500Y-62043494D01*
X132283011Y-61970542D01*
X132283011Y-61970538D01*
X132283566Y-61967745D01*
X133791861Y-61967745D01*
X133865995Y-62213864D01*
X134403223Y-62406965D01*
X134973454Y-62379778D01*
X135374005Y-62213864D01*
X135448139Y-61967745D01*
X134620000Y-61139605D01*
X133791861Y-61967745D01*
X132283566Y-61967745D01*
X132297899Y-61895690D01*
X132283011Y-61820842D01*
X132283011Y-60743223D01*
X133173035Y-60743223D01*
X133200222Y-61313454D01*
X133366136Y-61714005D01*
X133612255Y-61788139D01*
X134440395Y-60960000D01*
X134799605Y-60960000D01*
X135627745Y-61788139D01*
X135873864Y-61714005D01*
X136066965Y-61176777D01*
X136039778Y-60606546D01*
X135873864Y-60205995D01*
X135627745Y-60131861D01*
X134799605Y-60960000D01*
X134440395Y-60960000D01*
X133612255Y-60131861D01*
X133366136Y-60205995D01*
X133173035Y-60743223D01*
X132283011Y-60743223D01*
X132283011Y-60607158D01*
X132297899Y-60532310D01*
X132283011Y-60457462D01*
X132283011Y-60457458D01*
X132268500Y-60384506D01*
X132268500Y-59503494D01*
X132283011Y-59430542D01*
X132283011Y-59430538D01*
X132297899Y-59355690D01*
X132283011Y-59280842D01*
X132283011Y-58134561D01*
X133185000Y-58134561D01*
X133185000Y-58705439D01*
X133403466Y-59232862D01*
X133807138Y-59636534D01*
X133920583Y-59683525D01*
X133865995Y-59706136D01*
X133791861Y-59952255D01*
X134620000Y-60780395D01*
X135448139Y-59952255D01*
X135374005Y-59706136D01*
X135315552Y-59685126D01*
X135432862Y-59636534D01*
X135836534Y-59232862D01*
X136055000Y-58705439D01*
X136055000Y-58134561D01*
X135836534Y-57607138D01*
X135432862Y-57203466D01*
X135319417Y-57156475D01*
X135374005Y-57133864D01*
X135448139Y-56887745D01*
X134620000Y-56059605D01*
X133791861Y-56887745D01*
X133865995Y-57133864D01*
X133924448Y-57154874D01*
X133807138Y-57203466D01*
X133403466Y-57607138D01*
X133185000Y-58134561D01*
X132283011Y-58134561D01*
X132283011Y-58067158D01*
X132297899Y-57992310D01*
X132283011Y-57917462D01*
X132283011Y-57917458D01*
X132268500Y-57844506D01*
X132268500Y-56963494D01*
X132283011Y-56890542D01*
X132283011Y-56890538D01*
X132297899Y-56815690D01*
X132283011Y-56740842D01*
X132283011Y-55663223D01*
X133173035Y-55663223D01*
X133200222Y-56233454D01*
X133366136Y-56634005D01*
X133612255Y-56708139D01*
X134440395Y-55880000D01*
X134799605Y-55880000D01*
X135627745Y-56708139D01*
X135873864Y-56634005D01*
X136066965Y-56096777D01*
X136039778Y-55526546D01*
X135873864Y-55125995D01*
X135627745Y-55051861D01*
X134799605Y-55880000D01*
X134440395Y-55880000D01*
X133612255Y-55051861D01*
X133366136Y-55125995D01*
X133173035Y-55663223D01*
X132283011Y-55663223D01*
X132283011Y-55527158D01*
X132297899Y-55452310D01*
X132283011Y-55377462D01*
X132283011Y-55377458D01*
X132268500Y-55304506D01*
X132268500Y-54423494D01*
X132283011Y-54350542D01*
X132283011Y-54350538D01*
X132297899Y-54275690D01*
X132283011Y-54200842D01*
X132283011Y-52093375D01*
X132294072Y-52109929D01*
X132294072Y-52109929D01*
G37*
X132294072Y-52109929D02*
X132357528Y-52152329D01*
X133206897Y-53001698D01*
X133185000Y-53054561D01*
X133185000Y-53625439D01*
X133403466Y-54152862D01*
X133807138Y-54556534D01*
X133920583Y-54603525D01*
X133865995Y-54626136D01*
X133791861Y-54872255D01*
X134620000Y-55700395D01*
X135448139Y-54872255D01*
X135374005Y-54626136D01*
X135315552Y-54605126D01*
X135432862Y-54556534D01*
X135836534Y-54152862D01*
X135858430Y-54100000D01*
X137289699Y-54100000D01*
X144528000Y-61338302D01*
X144528001Y-65055570D01*
X144475138Y-65077466D01*
X144071466Y-65481138D01*
X143853000Y-66008561D01*
X143853000Y-66579439D01*
X143900785Y-66694802D01*
X143830869Y-66764718D01*
X143772631Y-66803632D01*
X143704584Y-66905472D01*
X143618469Y-67034351D01*
X143564335Y-67306501D01*
X143578000Y-67375199D01*
X143577999Y-68589198D01*
X141095000Y-66106199D01*
X141095000Y-61917711D01*
X141212431Y-61800280D01*
X141370000Y-61419874D01*
X141370000Y-61008126D01*
X141212431Y-60627720D01*
X140921280Y-60336569D01*
X140540874Y-60179000D01*
X140129126Y-60179000D01*
X139748720Y-60336569D01*
X139457569Y-60627720D01*
X139300000Y-61008126D01*
X139300000Y-61419874D01*
X139457569Y-61800280D01*
X139575000Y-61917711D01*
X139575001Y-65151898D01*
X139063000Y-64639898D01*
X139063000Y-63632211D01*
X139180431Y-63514780D01*
X139338000Y-63134374D01*
X139338000Y-62722626D01*
X139180431Y-62342220D01*
X138889280Y-62051069D01*
X138508874Y-61893500D01*
X138097126Y-61893500D01*
X137716720Y-62051069D01*
X137425569Y-62342220D01*
X137268000Y-62722626D01*
X137268000Y-63134374D01*
X137425569Y-63514780D01*
X137543001Y-63632212D01*
X137543000Y-64879852D01*
X137528112Y-64954699D01*
X137543000Y-65029546D01*
X137543000Y-65029550D01*
X137587096Y-65251235D01*
X137755071Y-65502628D01*
X137818530Y-65545030D01*
X139321001Y-67047502D01*
X139321000Y-69781289D01*
X139203569Y-69898720D01*
X139046000Y-70279126D01*
X139046000Y-70690874D01*
X139203569Y-71071280D01*
X139494720Y-71362431D01*
X139875126Y-71520000D01*
X140286874Y-71520000D01*
X140667280Y-71362431D01*
X140958431Y-71071280D01*
X141116000Y-70690874D01*
X141116000Y-70279126D01*
X140958431Y-69898720D01*
X140841000Y-69781289D01*
X140841000Y-68001801D01*
X143874896Y-71035698D01*
X143853000Y-71088561D01*
X143853000Y-71659439D01*
X144071466Y-72186862D01*
X144170271Y-72285667D01*
X144157670Y-72304526D01*
X140342965Y-76119232D01*
X140329868Y-76099631D01*
X140271635Y-76060721D01*
X138528003Y-74317090D01*
X138573657Y-74248765D01*
X138622940Y-74001000D01*
X138622940Y-73001000D01*
X138573657Y-72753235D01*
X138433309Y-72543191D01*
X138372180Y-72502346D01*
X138513827Y-72360698D01*
X138610500Y-72127309D01*
X138610500Y-71786750D01*
X138451750Y-71628000D01*
X137477500Y-71628000D01*
X137477500Y-71648000D01*
X137223500Y-71648000D01*
X137223500Y-71628000D01*
X137203500Y-71628000D01*
X137203500Y-71374000D01*
X137223500Y-71374000D01*
X137223500Y-70524750D01*
X137477500Y-70524750D01*
X137477500Y-71374000D01*
X138451750Y-71374000D01*
X138610500Y-71215250D01*
X138610500Y-70874691D01*
X138513827Y-70641302D01*
X138335199Y-70462673D01*
X138101810Y-70366000D01*
X137636250Y-70366000D01*
X137477500Y-70524750D01*
X137223500Y-70524750D01*
X137064750Y-70366000D01*
X136599190Y-70366000D01*
X136365801Y-70462673D01*
X136187173Y-70641302D01*
X136116419Y-70812118D01*
X131883001Y-66578702D01*
X131883001Y-65852845D01*
X131897889Y-65777998D01*
X131883001Y-65703151D01*
X131883001Y-65703147D01*
X131838905Y-65481462D01*
X131824000Y-65459155D01*
X131824000Y-64588845D01*
X131838905Y-64566538D01*
X131856082Y-64480183D01*
X133254344Y-65878445D01*
X133234569Y-65898220D01*
X133077000Y-66278626D01*
X133077000Y-66690374D01*
X133234569Y-67070780D01*
X133525720Y-67361931D01*
X133906126Y-67519500D01*
X134317874Y-67519500D01*
X134698280Y-67361931D01*
X134989431Y-67070780D01*
X135147000Y-66690374D01*
X135147000Y-66278626D01*
X134989431Y-65898220D01*
X134872000Y-65780789D01*
X134872000Y-65736145D01*
X134886888Y-65661298D01*
X134872000Y-65586451D01*
X134872000Y-65586447D01*
X134827904Y-65364762D01*
X134659929Y-65113370D01*
X134596473Y-65070970D01*
X132268500Y-62742998D01*
X132268500Y-62043494D01*
X132283011Y-61970542D01*
X132283011Y-61970538D01*
X132283566Y-61967745D01*
X133791861Y-61967745D01*
X133865995Y-62213864D01*
X134403223Y-62406965D01*
X134973454Y-62379778D01*
X135374005Y-62213864D01*
X135448139Y-61967745D01*
X134620000Y-61139605D01*
X133791861Y-61967745D01*
X132283566Y-61967745D01*
X132297899Y-61895690D01*
X132283011Y-61820842D01*
X132283011Y-60743223D01*
X133173035Y-60743223D01*
X133200222Y-61313454D01*
X133366136Y-61714005D01*
X133612255Y-61788139D01*
X134440395Y-60960000D01*
X134799605Y-60960000D01*
X135627745Y-61788139D01*
X135873864Y-61714005D01*
X136066965Y-61176777D01*
X136039778Y-60606546D01*
X135873864Y-60205995D01*
X135627745Y-60131861D01*
X134799605Y-60960000D01*
X134440395Y-60960000D01*
X133612255Y-60131861D01*
X133366136Y-60205995D01*
X133173035Y-60743223D01*
X132283011Y-60743223D01*
X132283011Y-60607158D01*
X132297899Y-60532310D01*
X132283011Y-60457462D01*
X132283011Y-60457458D01*
X132268500Y-60384506D01*
X132268500Y-59503494D01*
X132283011Y-59430542D01*
X132283011Y-59430538D01*
X132297899Y-59355690D01*
X132283011Y-59280842D01*
X132283011Y-58134561D01*
X133185000Y-58134561D01*
X133185000Y-58705439D01*
X133403466Y-59232862D01*
X133807138Y-59636534D01*
X133920583Y-59683525D01*
X133865995Y-59706136D01*
X133791861Y-59952255D01*
X134620000Y-60780395D01*
X135448139Y-59952255D01*
X135374005Y-59706136D01*
X135315552Y-59685126D01*
X135432862Y-59636534D01*
X135836534Y-59232862D01*
X136055000Y-58705439D01*
X136055000Y-58134561D01*
X135836534Y-57607138D01*
X135432862Y-57203466D01*
X135319417Y-57156475D01*
X135374005Y-57133864D01*
X135448139Y-56887745D01*
X134620000Y-56059605D01*
X133791861Y-56887745D01*
X133865995Y-57133864D01*
X133924448Y-57154874D01*
X133807138Y-57203466D01*
X133403466Y-57607138D01*
X133185000Y-58134561D01*
X132283011Y-58134561D01*
X132283011Y-58067158D01*
X132297899Y-57992310D01*
X132283011Y-57917462D01*
X132283011Y-57917458D01*
X132268500Y-57844506D01*
X132268500Y-56963494D01*
X132283011Y-56890542D01*
X132283011Y-56890538D01*
X132297899Y-56815690D01*
X132283011Y-56740842D01*
X132283011Y-55663223D01*
X133173035Y-55663223D01*
X133200222Y-56233454D01*
X133366136Y-56634005D01*
X133612255Y-56708139D01*
X134440395Y-55880000D01*
X134799605Y-55880000D01*
X135627745Y-56708139D01*
X135873864Y-56634005D01*
X136066965Y-56096777D01*
X136039778Y-55526546D01*
X135873864Y-55125995D01*
X135627745Y-55051861D01*
X134799605Y-55880000D01*
X134440395Y-55880000D01*
X133612255Y-55051861D01*
X133366136Y-55125995D01*
X133173035Y-55663223D01*
X132283011Y-55663223D01*
X132283011Y-55527158D01*
X132297899Y-55452310D01*
X132283011Y-55377462D01*
X132283011Y-55377458D01*
X132268500Y-55304506D01*
X132268500Y-54423494D01*
X132283011Y-54350542D01*
X132283011Y-54350538D01*
X132297899Y-54275690D01*
X132283011Y-54200842D01*
X132283011Y-52093375D01*
X132294072Y-52109929D01*
G36*
X158761560Y-65795139D02*
X158710028Y-65846671D01*
X158646572Y-65889071D01*
X158604172Y-65952527D01*
X158604171Y-65952528D01*
X158489288Y-66124463D01*
X158478597Y-66140463D01*
X158454537Y-66261423D01*
X158419612Y-66437000D01*
X158434501Y-66511852D01*
X158434501Y-68048677D01*
X158314131Y-68129106D01*
X158289199Y-68104173D01*
X158055810Y-68007500D01*
X157710250Y-68007500D01*
X157551500Y-68166250D01*
X157551500Y-69659000D01*
X157571500Y-69659000D01*
X157571500Y-69913000D01*
X157551500Y-69913000D01*
X157551500Y-69933000D01*
X157297500Y-69933000D01*
X157297500Y-69913000D01*
X156443250Y-69913000D01*
X156284500Y-70071750D01*
X156284500Y-71055809D01*
X156310321Y-71118147D01*
X156272060Y-71310500D01*
X156272060Y-72072500D01*
X156321343Y-72320265D01*
X156339001Y-72346692D01*
X156339001Y-73091745D01*
X156291191Y-73123691D01*
X156150843Y-73333735D01*
X156149000Y-73343000D01*
X156147157Y-73333735D01*
X156006809Y-73123691D01*
X155796765Y-72983343D01*
X155549000Y-72934060D01*
X154849000Y-72934060D01*
X154601235Y-72983343D01*
X154391191Y-73123691D01*
X154250843Y-73333735D01*
X154201560Y-73581500D01*
X154201560Y-74392066D01*
X154127809Y-74281691D01*
X153917765Y-74141343D01*
X153670000Y-74092060D01*
X153162000Y-74092060D01*
X152914235Y-74141343D01*
X152781000Y-74230368D01*
X152647765Y-74141343D01*
X152400000Y-74092060D01*
X151892000Y-74092060D01*
X151644235Y-74141343D01*
X151511000Y-74230368D01*
X151377765Y-74141343D01*
X151130000Y-74092060D01*
X150622000Y-74092060D01*
X150374235Y-74141343D01*
X150241000Y-74230368D01*
X150107765Y-74141343D01*
X149860000Y-74092060D01*
X149352000Y-74092060D01*
X149104235Y-74141343D01*
X148905500Y-74274135D01*
X148905500Y-72960211D01*
X150798202Y-71067511D01*
X153485300Y-71067509D01*
X153593711Y-71079556D01*
X153707626Y-71046549D01*
X153823937Y-71023413D01*
X153851857Y-71004757D01*
X153884113Y-70995411D01*
X153976723Y-70921324D01*
X154075329Y-70855438D01*
X154135927Y-70764747D01*
X156028774Y-68516191D01*
X156284500Y-68516191D01*
X156284500Y-69500250D01*
X156443250Y-69659000D01*
X157297500Y-69659000D01*
X157297500Y-68166250D01*
X157138750Y-68007500D01*
X156793190Y-68007500D01*
X156559801Y-68104173D01*
X156381173Y-68282802D01*
X156284500Y-68516191D01*
X156028774Y-68516191D01*
X158761560Y-65269854D01*
X158761560Y-65795139D01*
X158761560Y-65795139D01*
G37*
X158761560Y-65795139D02*
X158710028Y-65846671D01*
X158646572Y-65889071D01*
X158604172Y-65952527D01*
X158604171Y-65952528D01*
X158489288Y-66124463D01*
X158478597Y-66140463D01*
X158454537Y-66261423D01*
X158419612Y-66437000D01*
X158434501Y-66511852D01*
X158434501Y-68048677D01*
X158314131Y-68129106D01*
X158289199Y-68104173D01*
X158055810Y-68007500D01*
X157710250Y-68007500D01*
X157551500Y-68166250D01*
X157551500Y-69659000D01*
X157571500Y-69659000D01*
X157571500Y-69913000D01*
X157551500Y-69913000D01*
X157551500Y-69933000D01*
X157297500Y-69933000D01*
X157297500Y-69913000D01*
X156443250Y-69913000D01*
X156284500Y-70071750D01*
X156284500Y-71055809D01*
X156310321Y-71118147D01*
X156272060Y-71310500D01*
X156272060Y-72072500D01*
X156321343Y-72320265D01*
X156339001Y-72346692D01*
X156339001Y-73091745D01*
X156291191Y-73123691D01*
X156150843Y-73333735D01*
X156149000Y-73343000D01*
X156147157Y-73333735D01*
X156006809Y-73123691D01*
X155796765Y-72983343D01*
X155549000Y-72934060D01*
X154849000Y-72934060D01*
X154601235Y-72983343D01*
X154391191Y-73123691D01*
X154250843Y-73333735D01*
X154201560Y-73581500D01*
X154201560Y-74392066D01*
X154127809Y-74281691D01*
X153917765Y-74141343D01*
X153670000Y-74092060D01*
X153162000Y-74092060D01*
X152914235Y-74141343D01*
X152781000Y-74230368D01*
X152647765Y-74141343D01*
X152400000Y-74092060D01*
X151892000Y-74092060D01*
X151644235Y-74141343D01*
X151511000Y-74230368D01*
X151377765Y-74141343D01*
X151130000Y-74092060D01*
X150622000Y-74092060D01*
X150374235Y-74141343D01*
X150241000Y-74230368D01*
X150107765Y-74141343D01*
X149860000Y-74092060D01*
X149352000Y-74092060D01*
X149104235Y-74141343D01*
X148905500Y-74274135D01*
X148905500Y-72960211D01*
X150798202Y-71067511D01*
X153485300Y-71067509D01*
X153593711Y-71079556D01*
X153707626Y-71046549D01*
X153823937Y-71023413D01*
X153851857Y-71004757D01*
X153884113Y-70995411D01*
X153976723Y-70921324D01*
X154075329Y-70855438D01*
X154135927Y-70764747D01*
X156028774Y-68516191D01*
X156284500Y-68516191D01*
X156284500Y-69500250D01*
X156443250Y-69659000D01*
X157297500Y-69659000D01*
X157297500Y-68166250D01*
X157138750Y-68007500D01*
X156793190Y-68007500D01*
X156559801Y-68104173D01*
X156381173Y-68282802D01*
X156284500Y-68516191D01*
X156028774Y-68516191D01*
X158761560Y-65269854D01*
X158761560Y-65795139D01*
G36*
X146901000Y-27654561D02*
X146901000Y-28225439D01*
X147119466Y-28752862D01*
X147523138Y-29156534D01*
X148050561Y-29375000D01*
X148621439Y-29375000D01*
X149148862Y-29156534D01*
X149552534Y-28752862D01*
X149606000Y-28623784D01*
X149659466Y-28752862D01*
X150063138Y-29156534D01*
X150116001Y-29178431D01*
X150116000Y-39309198D01*
X147978699Y-41446500D01*
X147812626Y-41446500D01*
X147432220Y-41604069D01*
X147141069Y-41895220D01*
X146983500Y-42275626D01*
X146983500Y-42687374D01*
X147141069Y-43067780D01*
X147281790Y-43208501D01*
X142581303Y-43208501D01*
X139973000Y-40600199D01*
X139973000Y-40434126D01*
X139815431Y-40053720D01*
X139524280Y-39762569D01*
X139143874Y-39605000D01*
X138732126Y-39605000D01*
X138351720Y-39762569D01*
X138060569Y-40053720D01*
X137903000Y-40434126D01*
X137903000Y-40845874D01*
X138060569Y-41226280D01*
X138351720Y-41517431D01*
X138732126Y-41675000D01*
X138898199Y-41675000D01*
X141676172Y-44452974D01*
X141718572Y-44516430D01*
X141969964Y-44684405D01*
X142191649Y-44728501D01*
X142191653Y-44728501D01*
X142266500Y-44743389D01*
X142341347Y-44728501D01*
X149695147Y-44728501D01*
X149769999Y-44743390D01*
X149844851Y-44728501D01*
X150066536Y-44684405D01*
X150317928Y-44516430D01*
X150485903Y-44265038D01*
X150517721Y-44105080D01*
X151841200Y-42781601D01*
X151841200Y-42985247D01*
X152080949Y-43564052D01*
X152136095Y-43619198D01*
X148232530Y-47522763D01*
X148169071Y-47565165D01*
X148001096Y-47816558D01*
X147957000Y-48038243D01*
X147957000Y-48038247D01*
X147942112Y-48113094D01*
X147957000Y-48187941D01*
X147957001Y-51810788D01*
X147839569Y-51928220D01*
X147682000Y-52308626D01*
X147682000Y-52720374D01*
X147839569Y-53100780D01*
X148130720Y-53391931D01*
X148511126Y-53549500D01*
X148922874Y-53549500D01*
X149303280Y-53391931D01*
X149594431Y-53100780D01*
X149752000Y-52720374D01*
X149752000Y-52308626D01*
X149594431Y-51928220D01*
X149477000Y-51810789D01*
X149477000Y-48427895D01*
X151998908Y-45905988D01*
X152080949Y-46104052D01*
X152458897Y-46482000D01*
X152080949Y-46859948D01*
X151841200Y-47438753D01*
X151841200Y-48065247D01*
X152080949Y-48644052D01*
X152458897Y-49022000D01*
X152080949Y-49399948D01*
X151841200Y-49978753D01*
X151841200Y-50605247D01*
X152080949Y-51184052D01*
X152523948Y-51627051D01*
X153102753Y-51866800D01*
X153729247Y-51866800D01*
X154308052Y-51627051D01*
X154751051Y-51184052D01*
X154990800Y-50605247D01*
X154990800Y-49978753D01*
X154751051Y-49399948D01*
X154373103Y-49022000D01*
X154751051Y-48644052D01*
X154990800Y-48065247D01*
X154990800Y-47438753D01*
X154751051Y-46859948D01*
X154373103Y-46482000D01*
X154635638Y-46219465D01*
X154638499Y-46233848D01*
X154638499Y-46233852D01*
X154682595Y-46455537D01*
X154850570Y-46706930D01*
X154883540Y-46728960D01*
X154905570Y-46761930D01*
X155156962Y-46929905D01*
X155175991Y-46933690D01*
X155175990Y-48437456D01*
X155161102Y-48512303D01*
X155175990Y-48587150D01*
X155175990Y-48587154D01*
X155220086Y-48808839D01*
X155388061Y-49060232D01*
X155451520Y-49102634D01*
X156847000Y-50498114D01*
X156847000Y-50902152D01*
X156832112Y-50976999D01*
X156847000Y-51051846D01*
X156847000Y-51051850D01*
X156891096Y-51273535D01*
X157059071Y-51524928D01*
X157122530Y-51567330D01*
X157505760Y-51950560D01*
X156508000Y-51950560D01*
X156260235Y-51999843D01*
X156050191Y-52140191D01*
X155927905Y-52323204D01*
X155906306Y-52327500D01*
X154661016Y-52327500D01*
X154587309Y-52217191D01*
X154377265Y-52076843D01*
X154129500Y-52027560D01*
X152829500Y-52027560D01*
X152581735Y-52076843D01*
X152371691Y-52217191D01*
X152231343Y-52427235D01*
X152182060Y-52675000D01*
X152182060Y-53375000D01*
X152231343Y-53622765D01*
X152371691Y-53832809D01*
X152581735Y-53973157D01*
X152609709Y-53978721D01*
X152469801Y-54036673D01*
X152291173Y-54215302D01*
X152194500Y-54448691D01*
X152194500Y-54639250D01*
X152353250Y-54798000D01*
X153352500Y-54798000D01*
X153352500Y-54778000D01*
X153606500Y-54778000D01*
X153606500Y-54798000D01*
X153626500Y-54798000D01*
X153626500Y-55052000D01*
X153606500Y-55052000D01*
X153606500Y-55751250D01*
X153765250Y-55910000D01*
X154255810Y-55910000D01*
X154298064Y-55892498D01*
X154443569Y-56243780D01*
X154734720Y-56534931D01*
X155115126Y-56692500D01*
X155526874Y-56692500D01*
X155907280Y-56534931D01*
X156087211Y-56355000D01*
X157176590Y-56355000D01*
X157279689Y-56458100D01*
X157174069Y-56563720D01*
X157016500Y-56944126D01*
X157016500Y-57176483D01*
X156973852Y-57168000D01*
X155574148Y-57168000D01*
X155352463Y-57212096D01*
X155198002Y-57315304D01*
X155149000Y-57305557D01*
X153247918Y-57305557D01*
X153196153Y-57270969D01*
X152992696Y-57230499D01*
X152924002Y-57216835D01*
X152855308Y-57230499D01*
X152523080Y-57230499D01*
X152495537Y-57212095D01*
X152273852Y-57167999D01*
X152080500Y-57167999D01*
X152080500Y-56901211D01*
X152197931Y-56783780D01*
X152355500Y-56403374D01*
X152355500Y-55991626D01*
X152197931Y-55611220D01*
X151906780Y-55320069D01*
X151642861Y-55210750D01*
X152194500Y-55210750D01*
X152194500Y-55401309D01*
X152291173Y-55634698D01*
X152469801Y-55813327D01*
X152703190Y-55910000D01*
X153193750Y-55910000D01*
X153352500Y-55751250D01*
X153352500Y-55052000D01*
X152353250Y-55052000D01*
X152194500Y-55210750D01*
X151642861Y-55210750D01*
X151526374Y-55162500D01*
X151114626Y-55162500D01*
X150734220Y-55320069D01*
X150443069Y-55611220D01*
X150285500Y-55991626D01*
X150285500Y-56074137D01*
X150253926Y-56061097D01*
X150191150Y-56035017D01*
X150190428Y-56034873D01*
X150125011Y-56007856D01*
X150055708Y-56007929D01*
X149934717Y-55983730D01*
X149911931Y-55928720D01*
X149620780Y-55637569D01*
X149240374Y-55480000D01*
X148828626Y-55480000D01*
X148448220Y-55637569D01*
X148157069Y-55928720D01*
X147999500Y-56309126D01*
X147999500Y-56525465D01*
X147690465Y-56653471D01*
X147399314Y-56944622D01*
X147241745Y-57325028D01*
X147241745Y-57736776D01*
X147399314Y-58117182D01*
X147690465Y-58408333D01*
X148070871Y-58565902D01*
X148325333Y-58565902D01*
X148809697Y-59050267D01*
X148761500Y-59166626D01*
X148761500Y-59578374D01*
X148919069Y-59958780D01*
X149100438Y-60140149D01*
X147173001Y-62067586D01*
X147173001Y-61536477D01*
X147187889Y-61461630D01*
X147173001Y-61386783D01*
X147173001Y-61386779D01*
X147128905Y-61165094D01*
X146960930Y-60913702D01*
X146897474Y-60871302D01*
X138087917Y-52061745D01*
X144459861Y-52061745D01*
X144533995Y-52307864D01*
X145071223Y-52500965D01*
X145641454Y-52473778D01*
X146042005Y-52307864D01*
X146116139Y-52061745D01*
X145288000Y-51233605D01*
X144459861Y-52061745D01*
X138087917Y-52061745D01*
X136863395Y-50837223D01*
X143841035Y-50837223D01*
X143868222Y-51407454D01*
X144034136Y-51808005D01*
X144280255Y-51882139D01*
X145108395Y-51054000D01*
X145467605Y-51054000D01*
X146295745Y-51882139D01*
X146541864Y-51808005D01*
X146734965Y-51270777D01*
X146707778Y-50700546D01*
X146541864Y-50299995D01*
X146295745Y-50225861D01*
X145467605Y-51054000D01*
X145108395Y-51054000D01*
X144280255Y-50225861D01*
X144034136Y-50299995D01*
X143841035Y-50837223D01*
X136863395Y-50837223D01*
X136341701Y-50315530D01*
X136299299Y-50252071D01*
X136047907Y-50084096D01*
X135861322Y-50046982D01*
X135861021Y-50046255D01*
X144459861Y-50046255D01*
X145288000Y-50874395D01*
X146116139Y-50046255D01*
X146042005Y-49800136D01*
X145504777Y-49607035D01*
X144934546Y-49634222D01*
X144533995Y-49800136D01*
X144459861Y-50046255D01*
X135861021Y-50046255D01*
X135836534Y-49987138D01*
X135432862Y-49583466D01*
X135319417Y-49536475D01*
X135374005Y-49513864D01*
X135448139Y-49267745D01*
X134620000Y-48439605D01*
X134605858Y-48453748D01*
X134426253Y-48274143D01*
X134440395Y-48260000D01*
X134799605Y-48260000D01*
X135627745Y-49088139D01*
X135873864Y-49014005D01*
X136066965Y-48476777D01*
X136039778Y-47906546D01*
X135873864Y-47505995D01*
X135627745Y-47431861D01*
X134799605Y-48260000D01*
X134440395Y-48260000D01*
X134426253Y-48245858D01*
X134605858Y-48066252D01*
X134620000Y-48080395D01*
X135448139Y-47252255D01*
X135374005Y-47006136D01*
X135315552Y-46985126D01*
X135432862Y-46936534D01*
X135836534Y-46532862D01*
X136055000Y-46005439D01*
X136055000Y-45434561D01*
X135836534Y-44907138D01*
X135432862Y-44503466D01*
X135303784Y-44450000D01*
X135432862Y-44396534D01*
X135836534Y-43992862D01*
X136055000Y-43465439D01*
X136055000Y-42894561D01*
X135836534Y-42367138D01*
X135432862Y-41963466D01*
X134905439Y-41745000D01*
X134334561Y-41745000D01*
X134052010Y-41862037D01*
X134052010Y-41393791D01*
X136623277Y-38822526D01*
X136686730Y-38780128D01*
X136729128Y-38716675D01*
X136729130Y-38716673D01*
X136837862Y-38553943D01*
X136854705Y-38528736D01*
X136898801Y-38307051D01*
X136898801Y-38307047D01*
X136913689Y-38232200D01*
X136898801Y-38157353D01*
X136898801Y-34740649D01*
X136913689Y-34665801D01*
X136907954Y-34636968D01*
X139342137Y-34636968D01*
X139433423Y-34897580D01*
X140021333Y-35114045D01*
X140647328Y-35089049D01*
X141109577Y-34897580D01*
X141200863Y-34636968D01*
X140271500Y-33707605D01*
X139342137Y-34636968D01*
X136907954Y-34636968D01*
X136898801Y-34590953D01*
X136898801Y-34590949D01*
X136854705Y-34369264D01*
X136854705Y-34369263D01*
X136729130Y-34181328D01*
X136686730Y-34117872D01*
X136623274Y-34075472D01*
X136394102Y-33846300D01*
X136448800Y-33714247D01*
X136448800Y-33277833D01*
X138685455Y-33277833D01*
X138710451Y-33903828D01*
X138901920Y-34366077D01*
X139162532Y-34457363D01*
X140091895Y-33528000D01*
X140451105Y-33528000D01*
X141380468Y-34457363D01*
X141641080Y-34366077D01*
X141857545Y-33778167D01*
X141832549Y-33152172D01*
X141641080Y-32689923D01*
X141380468Y-32598637D01*
X140451105Y-33528000D01*
X140091895Y-33528000D01*
X139162532Y-32598637D01*
X138901920Y-32689923D01*
X138685455Y-33277833D01*
X136448800Y-33277833D01*
X136448800Y-33087753D01*
X136209051Y-32508948D01*
X135768786Y-32068683D01*
X135803363Y-31969968D01*
X134874000Y-31040605D01*
X133944637Y-31969968D01*
X133979214Y-32068683D01*
X133729000Y-32318897D01*
X133729000Y-31777742D01*
X133765032Y-31790363D01*
X134694395Y-30861000D01*
X135053605Y-30861000D01*
X135982968Y-31790363D01*
X136243580Y-31699077D01*
X136460045Y-31111167D01*
X136435049Y-30485172D01*
X136243580Y-30022923D01*
X135982968Y-29931637D01*
X135053605Y-30861000D01*
X134694395Y-30861000D01*
X134680253Y-30846858D01*
X134859858Y-30667253D01*
X134874000Y-30681395D01*
X135803363Y-29752032D01*
X135768786Y-29653317D01*
X136209051Y-29213052D01*
X136448800Y-28634247D01*
X136448800Y-28007753D01*
X136286727Y-27616473D01*
X138917399Y-27601939D01*
X138696700Y-28134753D01*
X138696700Y-28761247D01*
X138936449Y-29340052D01*
X139314397Y-29718000D01*
X138936449Y-30095948D01*
X138696700Y-30674753D01*
X138696700Y-31301247D01*
X138936449Y-31880052D01*
X139376714Y-32320317D01*
X139342137Y-32419032D01*
X140271500Y-33348395D01*
X141200863Y-32419032D01*
X141166286Y-32320317D01*
X141606551Y-31880052D01*
X141661249Y-31748000D01*
X144272604Y-31748000D01*
X144475138Y-31950534D01*
X144604216Y-32004000D01*
X144475138Y-32057466D01*
X144071466Y-32461138D01*
X143853000Y-32988561D01*
X143853000Y-33559439D01*
X144071466Y-34086862D01*
X144475138Y-34490534D01*
X145002561Y-34709000D01*
X145573439Y-34709000D01*
X146100862Y-34490534D01*
X146504534Y-34086862D01*
X146723000Y-33559439D01*
X146723000Y-32988561D01*
X146504534Y-32461138D01*
X146100862Y-32057466D01*
X145971784Y-32004000D01*
X146100862Y-31950534D01*
X146504534Y-31546862D01*
X146723000Y-31019439D01*
X146723000Y-30448561D01*
X146504534Y-29921138D01*
X146100862Y-29517466D01*
X145971784Y-29464000D01*
X146100862Y-29410534D01*
X146504534Y-29006862D01*
X146723000Y-28479439D01*
X146723000Y-27908561D01*
X146578461Y-27559613D01*
X146941159Y-27557609D01*
X146901000Y-27654561D01*
X146901000Y-27654561D01*
G37*
X146901000Y-27654561D02*
X146901000Y-28225439D01*
X147119466Y-28752862D01*
X147523138Y-29156534D01*
X148050561Y-29375000D01*
X148621439Y-29375000D01*
X149148862Y-29156534D01*
X149552534Y-28752862D01*
X149606000Y-28623784D01*
X149659466Y-28752862D01*
X150063138Y-29156534D01*
X150116001Y-29178431D01*
X150116000Y-39309198D01*
X147978699Y-41446500D01*
X147812626Y-41446500D01*
X147432220Y-41604069D01*
X147141069Y-41895220D01*
X146983500Y-42275626D01*
X146983500Y-42687374D01*
X147141069Y-43067780D01*
X147281790Y-43208501D01*
X142581303Y-43208501D01*
X139973000Y-40600199D01*
X139973000Y-40434126D01*
X139815431Y-40053720D01*
X139524280Y-39762569D01*
X139143874Y-39605000D01*
X138732126Y-39605000D01*
X138351720Y-39762569D01*
X138060569Y-40053720D01*
X137903000Y-40434126D01*
X137903000Y-40845874D01*
X138060569Y-41226280D01*
X138351720Y-41517431D01*
X138732126Y-41675000D01*
X138898199Y-41675000D01*
X141676172Y-44452974D01*
X141718572Y-44516430D01*
X141969964Y-44684405D01*
X142191649Y-44728501D01*
X142191653Y-44728501D01*
X142266500Y-44743389D01*
X142341347Y-44728501D01*
X149695147Y-44728501D01*
X149769999Y-44743390D01*
X149844851Y-44728501D01*
X150066536Y-44684405D01*
X150317928Y-44516430D01*
X150485903Y-44265038D01*
X150517721Y-44105080D01*
X151841200Y-42781601D01*
X151841200Y-42985247D01*
X152080949Y-43564052D01*
X152136095Y-43619198D01*
X148232530Y-47522763D01*
X148169071Y-47565165D01*
X148001096Y-47816558D01*
X147957000Y-48038243D01*
X147957000Y-48038247D01*
X147942112Y-48113094D01*
X147957000Y-48187941D01*
X147957001Y-51810788D01*
X147839569Y-51928220D01*
X147682000Y-52308626D01*
X147682000Y-52720374D01*
X147839569Y-53100780D01*
X148130720Y-53391931D01*
X148511126Y-53549500D01*
X148922874Y-53549500D01*
X149303280Y-53391931D01*
X149594431Y-53100780D01*
X149752000Y-52720374D01*
X149752000Y-52308626D01*
X149594431Y-51928220D01*
X149477000Y-51810789D01*
X149477000Y-48427895D01*
X151998908Y-45905988D01*
X152080949Y-46104052D01*
X152458897Y-46482000D01*
X152080949Y-46859948D01*
X151841200Y-47438753D01*
X151841200Y-48065247D01*
X152080949Y-48644052D01*
X152458897Y-49022000D01*
X152080949Y-49399948D01*
X151841200Y-49978753D01*
X151841200Y-50605247D01*
X152080949Y-51184052D01*
X152523948Y-51627051D01*
X153102753Y-51866800D01*
X153729247Y-51866800D01*
X154308052Y-51627051D01*
X154751051Y-51184052D01*
X154990800Y-50605247D01*
X154990800Y-49978753D01*
X154751051Y-49399948D01*
X154373103Y-49022000D01*
X154751051Y-48644052D01*
X154990800Y-48065247D01*
X154990800Y-47438753D01*
X154751051Y-46859948D01*
X154373103Y-46482000D01*
X154635638Y-46219465D01*
X154638499Y-46233848D01*
X154638499Y-46233852D01*
X154682595Y-46455537D01*
X154850570Y-46706930D01*
X154883540Y-46728960D01*
X154905570Y-46761930D01*
X155156962Y-46929905D01*
X155175991Y-46933690D01*
X155175990Y-48437456D01*
X155161102Y-48512303D01*
X155175990Y-48587150D01*
X155175990Y-48587154D01*
X155220086Y-48808839D01*
X155388061Y-49060232D01*
X155451520Y-49102634D01*
X156847000Y-50498114D01*
X156847000Y-50902152D01*
X156832112Y-50976999D01*
X156847000Y-51051846D01*
X156847000Y-51051850D01*
X156891096Y-51273535D01*
X157059071Y-51524928D01*
X157122530Y-51567330D01*
X157505760Y-51950560D01*
X156508000Y-51950560D01*
X156260235Y-51999843D01*
X156050191Y-52140191D01*
X155927905Y-52323204D01*
X155906306Y-52327500D01*
X154661016Y-52327500D01*
X154587309Y-52217191D01*
X154377265Y-52076843D01*
X154129500Y-52027560D01*
X152829500Y-52027560D01*
X152581735Y-52076843D01*
X152371691Y-52217191D01*
X152231343Y-52427235D01*
X152182060Y-52675000D01*
X152182060Y-53375000D01*
X152231343Y-53622765D01*
X152371691Y-53832809D01*
X152581735Y-53973157D01*
X152609709Y-53978721D01*
X152469801Y-54036673D01*
X152291173Y-54215302D01*
X152194500Y-54448691D01*
X152194500Y-54639250D01*
X152353250Y-54798000D01*
X153352500Y-54798000D01*
X153352500Y-54778000D01*
X153606500Y-54778000D01*
X153606500Y-54798000D01*
X153626500Y-54798000D01*
X153626500Y-55052000D01*
X153606500Y-55052000D01*
X153606500Y-55751250D01*
X153765250Y-55910000D01*
X154255810Y-55910000D01*
X154298064Y-55892498D01*
X154443569Y-56243780D01*
X154734720Y-56534931D01*
X155115126Y-56692500D01*
X155526874Y-56692500D01*
X155907280Y-56534931D01*
X156087211Y-56355000D01*
X157176590Y-56355000D01*
X157279689Y-56458100D01*
X157174069Y-56563720D01*
X157016500Y-56944126D01*
X157016500Y-57176483D01*
X156973852Y-57168000D01*
X155574148Y-57168000D01*
X155352463Y-57212096D01*
X155198002Y-57315304D01*
X155149000Y-57305557D01*
X153247918Y-57305557D01*
X153196153Y-57270969D01*
X152992696Y-57230499D01*
X152924002Y-57216835D01*
X152855308Y-57230499D01*
X152523080Y-57230499D01*
X152495537Y-57212095D01*
X152273852Y-57167999D01*
X152080500Y-57167999D01*
X152080500Y-56901211D01*
X152197931Y-56783780D01*
X152355500Y-56403374D01*
X152355500Y-55991626D01*
X152197931Y-55611220D01*
X151906780Y-55320069D01*
X151642861Y-55210750D01*
X152194500Y-55210750D01*
X152194500Y-55401309D01*
X152291173Y-55634698D01*
X152469801Y-55813327D01*
X152703190Y-55910000D01*
X153193750Y-55910000D01*
X153352500Y-55751250D01*
X153352500Y-55052000D01*
X152353250Y-55052000D01*
X152194500Y-55210750D01*
X151642861Y-55210750D01*
X151526374Y-55162500D01*
X151114626Y-55162500D01*
X150734220Y-55320069D01*
X150443069Y-55611220D01*
X150285500Y-55991626D01*
X150285500Y-56074137D01*
X150253926Y-56061097D01*
X150191150Y-56035017D01*
X150190428Y-56034873D01*
X150125011Y-56007856D01*
X150055708Y-56007929D01*
X149934717Y-55983730D01*
X149911931Y-55928720D01*
X149620780Y-55637569D01*
X149240374Y-55480000D01*
X148828626Y-55480000D01*
X148448220Y-55637569D01*
X148157069Y-55928720D01*
X147999500Y-56309126D01*
X147999500Y-56525465D01*
X147690465Y-56653471D01*
X147399314Y-56944622D01*
X147241745Y-57325028D01*
X147241745Y-57736776D01*
X147399314Y-58117182D01*
X147690465Y-58408333D01*
X148070871Y-58565902D01*
X148325333Y-58565902D01*
X148809697Y-59050267D01*
X148761500Y-59166626D01*
X148761500Y-59578374D01*
X148919069Y-59958780D01*
X149100438Y-60140149D01*
X147173001Y-62067586D01*
X147173001Y-61536477D01*
X147187889Y-61461630D01*
X147173001Y-61386783D01*
X147173001Y-61386779D01*
X147128905Y-61165094D01*
X146960930Y-60913702D01*
X146897474Y-60871302D01*
X138087917Y-52061745D01*
X144459861Y-52061745D01*
X144533995Y-52307864D01*
X145071223Y-52500965D01*
X145641454Y-52473778D01*
X146042005Y-52307864D01*
X146116139Y-52061745D01*
X145288000Y-51233605D01*
X144459861Y-52061745D01*
X138087917Y-52061745D01*
X136863395Y-50837223D01*
X143841035Y-50837223D01*
X143868222Y-51407454D01*
X144034136Y-51808005D01*
X144280255Y-51882139D01*
X145108395Y-51054000D01*
X145467605Y-51054000D01*
X146295745Y-51882139D01*
X146541864Y-51808005D01*
X146734965Y-51270777D01*
X146707778Y-50700546D01*
X146541864Y-50299995D01*
X146295745Y-50225861D01*
X145467605Y-51054000D01*
X145108395Y-51054000D01*
X144280255Y-50225861D01*
X144034136Y-50299995D01*
X143841035Y-50837223D01*
X136863395Y-50837223D01*
X136341701Y-50315530D01*
X136299299Y-50252071D01*
X136047907Y-50084096D01*
X135861322Y-50046982D01*
X135861021Y-50046255D01*
X144459861Y-50046255D01*
X145288000Y-50874395D01*
X146116139Y-50046255D01*
X146042005Y-49800136D01*
X145504777Y-49607035D01*
X144934546Y-49634222D01*
X144533995Y-49800136D01*
X144459861Y-50046255D01*
X135861021Y-50046255D01*
X135836534Y-49987138D01*
X135432862Y-49583466D01*
X135319417Y-49536475D01*
X135374005Y-49513864D01*
X135448139Y-49267745D01*
X134620000Y-48439605D01*
X134605858Y-48453748D01*
X134426253Y-48274143D01*
X134440395Y-48260000D01*
X134799605Y-48260000D01*
X135627745Y-49088139D01*
X135873864Y-49014005D01*
X136066965Y-48476777D01*
X136039778Y-47906546D01*
X135873864Y-47505995D01*
X135627745Y-47431861D01*
X134799605Y-48260000D01*
X134440395Y-48260000D01*
X134426253Y-48245858D01*
X134605858Y-48066252D01*
X134620000Y-48080395D01*
X135448139Y-47252255D01*
X135374005Y-47006136D01*
X135315552Y-46985126D01*
X135432862Y-46936534D01*
X135836534Y-46532862D01*
X136055000Y-46005439D01*
X136055000Y-45434561D01*
X135836534Y-44907138D01*
X135432862Y-44503466D01*
X135303784Y-44450000D01*
X135432862Y-44396534D01*
X135836534Y-43992862D01*
X136055000Y-43465439D01*
X136055000Y-42894561D01*
X135836534Y-42367138D01*
X135432862Y-41963466D01*
X134905439Y-41745000D01*
X134334561Y-41745000D01*
X134052010Y-41862037D01*
X134052010Y-41393791D01*
X136623277Y-38822526D01*
X136686730Y-38780128D01*
X136729128Y-38716675D01*
X136729130Y-38716673D01*
X136837862Y-38553943D01*
X136854705Y-38528736D01*
X136898801Y-38307051D01*
X136898801Y-38307047D01*
X136913689Y-38232200D01*
X136898801Y-38157353D01*
X136898801Y-34740649D01*
X136913689Y-34665801D01*
X136907954Y-34636968D01*
X139342137Y-34636968D01*
X139433423Y-34897580D01*
X140021333Y-35114045D01*
X140647328Y-35089049D01*
X141109577Y-34897580D01*
X141200863Y-34636968D01*
X140271500Y-33707605D01*
X139342137Y-34636968D01*
X136907954Y-34636968D01*
X136898801Y-34590953D01*
X136898801Y-34590949D01*
X136854705Y-34369264D01*
X136854705Y-34369263D01*
X136729130Y-34181328D01*
X136686730Y-34117872D01*
X136623274Y-34075472D01*
X136394102Y-33846300D01*
X136448800Y-33714247D01*
X136448800Y-33277833D01*
X138685455Y-33277833D01*
X138710451Y-33903828D01*
X138901920Y-34366077D01*
X139162532Y-34457363D01*
X140091895Y-33528000D01*
X140451105Y-33528000D01*
X141380468Y-34457363D01*
X141641080Y-34366077D01*
X141857545Y-33778167D01*
X141832549Y-33152172D01*
X141641080Y-32689923D01*
X141380468Y-32598637D01*
X140451105Y-33528000D01*
X140091895Y-33528000D01*
X139162532Y-32598637D01*
X138901920Y-32689923D01*
X138685455Y-33277833D01*
X136448800Y-33277833D01*
X136448800Y-33087753D01*
X136209051Y-32508948D01*
X135768786Y-32068683D01*
X135803363Y-31969968D01*
X134874000Y-31040605D01*
X133944637Y-31969968D01*
X133979214Y-32068683D01*
X133729000Y-32318897D01*
X133729000Y-31777742D01*
X133765032Y-31790363D01*
X134694395Y-30861000D01*
X135053605Y-30861000D01*
X135982968Y-31790363D01*
X136243580Y-31699077D01*
X136460045Y-31111167D01*
X136435049Y-30485172D01*
X136243580Y-30022923D01*
X135982968Y-29931637D01*
X135053605Y-30861000D01*
X134694395Y-30861000D01*
X134680253Y-30846858D01*
X134859858Y-30667253D01*
X134874000Y-30681395D01*
X135803363Y-29752032D01*
X135768786Y-29653317D01*
X136209051Y-29213052D01*
X136448800Y-28634247D01*
X136448800Y-28007753D01*
X136286727Y-27616473D01*
X138917399Y-27601939D01*
X138696700Y-28134753D01*
X138696700Y-28761247D01*
X138936449Y-29340052D01*
X139314397Y-29718000D01*
X138936449Y-30095948D01*
X138696700Y-30674753D01*
X138696700Y-31301247D01*
X138936449Y-31880052D01*
X139376714Y-32320317D01*
X139342137Y-32419032D01*
X140271500Y-33348395D01*
X141200863Y-32419032D01*
X141166286Y-32320317D01*
X141606551Y-31880052D01*
X141661249Y-31748000D01*
X144272604Y-31748000D01*
X144475138Y-31950534D01*
X144604216Y-32004000D01*
X144475138Y-32057466D01*
X144071466Y-32461138D01*
X143853000Y-32988561D01*
X143853000Y-33559439D01*
X144071466Y-34086862D01*
X144475138Y-34490534D01*
X145002561Y-34709000D01*
X145573439Y-34709000D01*
X146100862Y-34490534D01*
X146504534Y-34086862D01*
X146723000Y-33559439D01*
X146723000Y-32988561D01*
X146504534Y-32461138D01*
X146100862Y-32057466D01*
X145971784Y-32004000D01*
X146100862Y-31950534D01*
X146504534Y-31546862D01*
X146723000Y-31019439D01*
X146723000Y-30448561D01*
X146504534Y-29921138D01*
X146100862Y-29517466D01*
X145971784Y-29464000D01*
X146100862Y-29410534D01*
X146504534Y-29006862D01*
X146723000Y-28479439D01*
X146723000Y-27908561D01*
X146578461Y-27559613D01*
X146941159Y-27557609D01*
X146901000Y-27654561D01*
G36*
X157395000Y-54924998D02*
X157375000Y-54924998D01*
X157375000Y-54944998D01*
X157121000Y-54944998D01*
X157121000Y-54924998D01*
X157101000Y-54924998D01*
X157101000Y-54795439D01*
X157395000Y-54795439D01*
X157395000Y-54924998D01*
X157395000Y-54924998D01*
G37*
X157395000Y-54924998D02*
X157375000Y-54924998D01*
X157375000Y-54944998D01*
X157121000Y-54944998D01*
X157121000Y-54924998D01*
X157101000Y-54924998D01*
X157101000Y-54795439D01*
X157395000Y-54795439D01*
X157395000Y-54924998D01*
G36*
X159893000Y-50355500D02*
X159913000Y-50355500D01*
X159913000Y-50609500D01*
X159893000Y-50609500D01*
X159893000Y-50629500D01*
X159639000Y-50629500D01*
X159639000Y-50609500D01*
X159619000Y-50609500D01*
X159619000Y-50355500D01*
X159639000Y-50355500D01*
X159639000Y-50335500D01*
X159893000Y-50335500D01*
X159893000Y-50355500D01*
X159893000Y-50355500D01*
G37*
X159893000Y-50355500D02*
X159913000Y-50355500D01*
X159913000Y-50609500D01*
X159893000Y-50609500D01*
X159893000Y-50629500D01*
X159639000Y-50629500D01*
X159639000Y-50609500D01*
X159619000Y-50609500D01*
X159619000Y-50355500D01*
X159639000Y-50355500D01*
X159639000Y-50335500D01*
X159893000Y-50335500D01*
X159893000Y-50355500D01*
G36*
X133916897Y-34671000D02*
X133538949Y-35048948D01*
X133299200Y-35627753D01*
X133299200Y-36254247D01*
X133353898Y-36386300D01*
X132357530Y-37382669D01*
X132294071Y-37425071D01*
X132126096Y-37676464D01*
X132082000Y-37898149D01*
X132082000Y-37898153D01*
X132067112Y-37973000D01*
X132082000Y-38047847D01*
X132082001Y-48133638D01*
X132070940Y-48117084D01*
X132007481Y-48074682D01*
X131887500Y-47954701D01*
X131887500Y-39508346D01*
X131902388Y-39433499D01*
X131887500Y-39358652D01*
X131887500Y-39358648D01*
X131843404Y-39136963D01*
X131675429Y-38885571D01*
X131611970Y-38843169D01*
X131461103Y-38692302D01*
X131483000Y-38639439D01*
X131483000Y-38068561D01*
X131264534Y-37541138D01*
X130860862Y-37137466D01*
X130781292Y-37104507D01*
X133453473Y-34432327D01*
X133516929Y-34389927D01*
X133564552Y-34318655D01*
X133916897Y-34671000D01*
X133916897Y-34671000D01*
G37*
X133916897Y-34671000D02*
X133538949Y-35048948D01*
X133299200Y-35627753D01*
X133299200Y-36254247D01*
X133353898Y-36386300D01*
X132357530Y-37382669D01*
X132294071Y-37425071D01*
X132126096Y-37676464D01*
X132082000Y-37898149D01*
X132082000Y-37898153D01*
X132067112Y-37973000D01*
X132082000Y-38047847D01*
X132082001Y-48133638D01*
X132070940Y-48117084D01*
X132007481Y-48074682D01*
X131887500Y-47954701D01*
X131887500Y-39508346D01*
X131902388Y-39433499D01*
X131887500Y-39358652D01*
X131887500Y-39358648D01*
X131843404Y-39136963D01*
X131675429Y-38885571D01*
X131611970Y-38843169D01*
X131461103Y-38692302D01*
X131483000Y-38639439D01*
X131483000Y-38068561D01*
X131264534Y-37541138D01*
X130860862Y-37137466D01*
X130781292Y-37104507D01*
X133453473Y-34432327D01*
X133516929Y-34389927D01*
X133564552Y-34318655D01*
X133916897Y-34671000D01*
G36*
X156149748Y-27925858D02*
X156135605Y-27940000D01*
X156963745Y-28768139D01*
X157209864Y-28694005D01*
X157230874Y-28635552D01*
X157279466Y-28752862D01*
X157683138Y-29156534D01*
X157736001Y-29178431D01*
X157736000Y-31187059D01*
X157721112Y-31261906D01*
X157736000Y-31336753D01*
X157736000Y-31336757D01*
X157780096Y-31558442D01*
X157948071Y-31809835D01*
X158011530Y-31852237D01*
X159336201Y-33176909D01*
X159336201Y-33529354D01*
X159321313Y-33604201D01*
X159336201Y-33679048D01*
X159336201Y-33679052D01*
X159380297Y-33900737D01*
X159514625Y-34101774D01*
X159461200Y-34230753D01*
X159461200Y-34857247D01*
X159700949Y-35436052D01*
X160078897Y-35814000D01*
X159700949Y-36191948D01*
X159461200Y-36770753D01*
X159461200Y-37397247D01*
X159700949Y-37976052D01*
X160143948Y-38419051D01*
X160276000Y-38473749D01*
X160276001Y-41143312D01*
X160216489Y-41232376D01*
X159655432Y-40671320D01*
X159683940Y-40528000D01*
X159683940Y-39228000D01*
X159634657Y-38980235D01*
X159494309Y-38770191D01*
X159284265Y-38629843D01*
X159036500Y-38580560D01*
X158336500Y-38580560D01*
X158088735Y-38629843D01*
X157878691Y-38770191D01*
X157738343Y-38980235D01*
X157736500Y-38989500D01*
X157734657Y-38980235D01*
X157594309Y-38770191D01*
X157384265Y-38629843D01*
X157136500Y-38580560D01*
X156436500Y-38580560D01*
X156188735Y-38629843D01*
X155978691Y-38770191D01*
X155838343Y-38980235D01*
X155789060Y-39228000D01*
X155789060Y-40528000D01*
X155838343Y-40775765D01*
X155978691Y-40985809D01*
X156089000Y-41059516D01*
X156089001Y-41891560D01*
X155673500Y-41891560D01*
X155425735Y-41940843D01*
X155215691Y-42081191D01*
X155075343Y-42291235D01*
X155026060Y-42539000D01*
X155026060Y-43739000D01*
X155038941Y-43803756D01*
X154914026Y-43928670D01*
X154850571Y-43971070D01*
X154808171Y-44034526D01*
X154808170Y-44034527D01*
X154682596Y-44222462D01*
X154677779Y-44246676D01*
X154373103Y-43942000D01*
X154751051Y-43564052D01*
X154990800Y-42985247D01*
X154990800Y-42358753D01*
X154751051Y-41779948D01*
X154373103Y-41402000D01*
X154751051Y-41024052D01*
X154990800Y-40445247D01*
X154990800Y-39818753D01*
X154751051Y-39239948D01*
X154373103Y-38862000D01*
X154751051Y-38484052D01*
X154990800Y-37905247D01*
X154990800Y-37278753D01*
X154751051Y-36699948D01*
X154373103Y-36322000D01*
X154751051Y-35944052D01*
X154990800Y-35365247D01*
X154990800Y-34738753D01*
X154751051Y-34159948D01*
X154310786Y-33719683D01*
X154345363Y-33620968D01*
X153416000Y-32691605D01*
X153401858Y-32705748D01*
X153222253Y-32526143D01*
X153236395Y-32512000D01*
X153595605Y-32512000D01*
X154524968Y-33441363D01*
X154785580Y-33350077D01*
X155002045Y-32762167D01*
X154977049Y-32136172D01*
X154785580Y-31673923D01*
X154524968Y-31582637D01*
X153595605Y-32512000D01*
X153236395Y-32512000D01*
X153222253Y-32497858D01*
X153401858Y-32318253D01*
X153416000Y-32332395D01*
X154345363Y-31403032D01*
X154254077Y-31142420D01*
X153666167Y-30925955D01*
X153040172Y-30950951D01*
X152911199Y-31004373D01*
X152911199Y-29519602D01*
X153077698Y-29353104D01*
X153130561Y-29375000D01*
X153701439Y-29375000D01*
X154228862Y-29156534D01*
X154437651Y-28947745D01*
X155127861Y-28947745D01*
X155201995Y-29193864D01*
X155739223Y-29386965D01*
X156309454Y-29359778D01*
X156710005Y-29193864D01*
X156784139Y-28947745D01*
X155956000Y-28119605D01*
X155127861Y-28947745D01*
X154437651Y-28947745D01*
X154632534Y-28752862D01*
X154679525Y-28639417D01*
X154702136Y-28694005D01*
X154948255Y-28768139D01*
X155776395Y-27940000D01*
X155762252Y-27925858D01*
X155941858Y-27746253D01*
X155956000Y-27760395D01*
X155970143Y-27746253D01*
X156149748Y-27925858D01*
X156149748Y-27925858D01*
G37*
X156149748Y-27925858D02*
X156135605Y-27940000D01*
X156963745Y-28768139D01*
X157209864Y-28694005D01*
X157230874Y-28635552D01*
X157279466Y-28752862D01*
X157683138Y-29156534D01*
X157736001Y-29178431D01*
X157736000Y-31187059D01*
X157721112Y-31261906D01*
X157736000Y-31336753D01*
X157736000Y-31336757D01*
X157780096Y-31558442D01*
X157948071Y-31809835D01*
X158011530Y-31852237D01*
X159336201Y-33176909D01*
X159336201Y-33529354D01*
X159321313Y-33604201D01*
X159336201Y-33679048D01*
X159336201Y-33679052D01*
X159380297Y-33900737D01*
X159514625Y-34101774D01*
X159461200Y-34230753D01*
X159461200Y-34857247D01*
X159700949Y-35436052D01*
X160078897Y-35814000D01*
X159700949Y-36191948D01*
X159461200Y-36770753D01*
X159461200Y-37397247D01*
X159700949Y-37976052D01*
X160143948Y-38419051D01*
X160276000Y-38473749D01*
X160276001Y-41143312D01*
X160216489Y-41232376D01*
X159655432Y-40671320D01*
X159683940Y-40528000D01*
X159683940Y-39228000D01*
X159634657Y-38980235D01*
X159494309Y-38770191D01*
X159284265Y-38629843D01*
X159036500Y-38580560D01*
X158336500Y-38580560D01*
X158088735Y-38629843D01*
X157878691Y-38770191D01*
X157738343Y-38980235D01*
X157736500Y-38989500D01*
X157734657Y-38980235D01*
X157594309Y-38770191D01*
X157384265Y-38629843D01*
X157136500Y-38580560D01*
X156436500Y-38580560D01*
X156188735Y-38629843D01*
X155978691Y-38770191D01*
X155838343Y-38980235D01*
X155789060Y-39228000D01*
X155789060Y-40528000D01*
X155838343Y-40775765D01*
X155978691Y-40985809D01*
X156089000Y-41059516D01*
X156089001Y-41891560D01*
X155673500Y-41891560D01*
X155425735Y-41940843D01*
X155215691Y-42081191D01*
X155075343Y-42291235D01*
X155026060Y-42539000D01*
X155026060Y-43739000D01*
X155038941Y-43803756D01*
X154914026Y-43928670D01*
X154850571Y-43971070D01*
X154808171Y-44034526D01*
X154808170Y-44034527D01*
X154682596Y-44222462D01*
X154677779Y-44246676D01*
X154373103Y-43942000D01*
X154751051Y-43564052D01*
X154990800Y-42985247D01*
X154990800Y-42358753D01*
X154751051Y-41779948D01*
X154373103Y-41402000D01*
X154751051Y-41024052D01*
X154990800Y-40445247D01*
X154990800Y-39818753D01*
X154751051Y-39239948D01*
X154373103Y-38862000D01*
X154751051Y-38484052D01*
X154990800Y-37905247D01*
X154990800Y-37278753D01*
X154751051Y-36699948D01*
X154373103Y-36322000D01*
X154751051Y-35944052D01*
X154990800Y-35365247D01*
X154990800Y-34738753D01*
X154751051Y-34159948D01*
X154310786Y-33719683D01*
X154345363Y-33620968D01*
X153416000Y-32691605D01*
X153401858Y-32705748D01*
X153222253Y-32526143D01*
X153236395Y-32512000D01*
X153595605Y-32512000D01*
X154524968Y-33441363D01*
X154785580Y-33350077D01*
X155002045Y-32762167D01*
X154977049Y-32136172D01*
X154785580Y-31673923D01*
X154524968Y-31582637D01*
X153595605Y-32512000D01*
X153236395Y-32512000D01*
X153222253Y-32497858D01*
X153401858Y-32318253D01*
X153416000Y-32332395D01*
X154345363Y-31403032D01*
X154254077Y-31142420D01*
X153666167Y-30925955D01*
X153040172Y-30950951D01*
X152911199Y-31004373D01*
X152911199Y-29519602D01*
X153077698Y-29353104D01*
X153130561Y-29375000D01*
X153701439Y-29375000D01*
X154228862Y-29156534D01*
X154437651Y-28947745D01*
X155127861Y-28947745D01*
X155201995Y-29193864D01*
X155739223Y-29386965D01*
X156309454Y-29359778D01*
X156710005Y-29193864D01*
X156784139Y-28947745D01*
X155956000Y-28119605D01*
X155127861Y-28947745D01*
X154437651Y-28947745D01*
X154632534Y-28752862D01*
X154679525Y-28639417D01*
X154702136Y-28694005D01*
X154948255Y-28768139D01*
X155776395Y-27940000D01*
X155762252Y-27925858D01*
X155941858Y-27746253D01*
X155956000Y-27760395D01*
X155970143Y-27746253D01*
X156149748Y-27925858D01*
G04 #@! TD*
M02*
