M48
;DRILL file {KiCad (5.0.1)-rc2} date 11/18/2018 9:24:54 PM
;FORMAT={-:-/ absolute / metric / decimal}
FMAT,2
METRIC,TZ
T1C0.400
T2C1.016
T3C1.100
%
G90
G05
M71
T1
X132.117Y-48.26
X133.Y-82.972
X133.192Y-86.336
X133.192Y-89.892
X134.112Y-66.484
X135.001Y-89.599
X136.199Y-88.837
X137.197Y-88.328
X138.Y-86.995
X138.303Y-62.928
X138.938Y-40.64
X139.096Y-93.496
X139.255Y-84.491
X139.827Y-79.566
X140.081Y-70.485
X140.246Y-85.079
X140.335Y-61.214
X141.224Y-90.048
X141.536Y-93.662
X145.966Y-89.916
X146.009Y-92.837
X147.32Y-70.866
X148.018Y-42.481
X148.277Y-57.531
X148.717Y-52.514
X148.844Y-43.243
X149.034Y-56.515
X149.796Y-59.372
X149.878Y-57.421
X151.32Y-56.197
X152.209Y-80.454
X155.067Y-75.374
X155.321Y-55.657
X156.21Y-60.833
X156.718Y-64.198
X156.781Y-62.357
X156.972Y-79.057
X157.162Y-83.185
X157.248Y-54.798
X158.052Y-57.15
X158.202Y-58.991
X158.433Y-83.248
X158.557Y-61.412
X158.579Y-63.205
X159.385Y-69.469
X159.766Y-50.482
X159.909Y-65.722
X160.528Y-52.898
X160.528Y-54.798
X160.972Y-72.072
X161.607Y-50.482
T2
X161.544Y-57.912
X161.544Y-60.452
X161.544Y-62.992
X161.036Y-32.004
X161.036Y-34.544
X161.036Y-37.084
X134.874Y-28.321
X134.874Y-30.861
X134.874Y-33.401
X134.874Y-35.941
X153.416Y-32.512
X153.416Y-35.052
X153.416Y-37.592
X153.416Y-40.132
X153.416Y-42.672
X153.416Y-45.212
X153.416Y-47.752
X153.416Y-50.292
X140.272Y-28.448
X140.272Y-30.988
X140.272Y-33.528
T3
X130.048Y-28.194
X130.048Y-30.734
X130.048Y-38.354
X130.048Y-40.894
X130.048Y-45.974
X130.048Y-48.514
X130.048Y-51.054
X130.048Y-53.594
X130.048Y-56.134
X130.048Y-58.674
X130.048Y-61.214
X130.048Y-63.754
X130.048Y-66.294
X130.048Y-68.834
X130.048Y-71.374
X130.048Y-73.914
X130.048Y-76.454
X130.048Y-78.994
X130.048Y-81.534
X130.048Y-84.074
X130.048Y-86.614
X142.748Y-84.074
X145.288Y-28.194
X145.288Y-30.734
X145.288Y-33.274
X145.288Y-51.054
X145.288Y-66.294
X145.288Y-68.834
X145.288Y-71.374
X145.288Y-73.914
X145.288Y-76.454
X145.288Y-78.994
X145.288Y-81.534
X145.288Y-86.614
X148.336Y-27.94
X150.876Y-27.94
X153.416Y-27.94
X155.956Y-27.94
X158.496Y-27.94
X161.036Y-27.94
X134.62Y-43.18
X134.62Y-45.72
X134.62Y-48.26
X134.62Y-50.8
X134.62Y-53.34
X134.62Y-55.88
X134.62Y-58.42
X134.62Y-60.96
T0
M30
