<?xml version="1.0" standalone="no"?>
 <!DOCTYPE svg PUBLIC "-//W3C//DTD SVG 1.1//EN" 
 "http://www.w3.org/Graphics/SVG/1.1/DTD/svg11.dtd"> 
<svg xmlns="http://www.w3.org/2000/svg" version="1.1" 
    width="29.7002cm" height="21.0007cm" viewBox="0 0 116930 82680 ">
<title>SVG Picture created as GPSLogger-F.SilkS.svg date 2017/03/14 22:04:04 </title>
  <desc>Picture generated by PCBNEW </desc>
<g style="fill:#000000; fill-opacity:1;stroke:#000000; stroke-opacity:1;
stroke-linecap:round; stroke-linejoin:round; "
 transform="translate(0 0) scale(1 1)">
</g>
<g style="fill:#000000; fill-opacity:0.0; 
stroke:#000000; stroke-width:-0.000393701; stroke-opacity:1; 
stroke-linecap:round; stroke-linejoin:round;">
</g>
<g style="fill:#000000; fill-opacity:0.0; 
stroke:#000000; stroke-width:39.3701; stroke-opacity:1; 
stroke-linecap:round; stroke-linejoin:round;">
</g>
<g style="fill:#000000; fill-opacity:0.0; 
stroke:#000000; stroke-width:59.0551; stroke-opacity:1; 
stroke-linecap:round; stroke-linejoin:round;">
<rect x="69685.9" y="65357.2" width="42519.7" height="12598.4" rx="0" />
</g>
<g style="fill:#000000; fill-opacity:0.0; 
stroke:#000000; stroke-width:39.3701; stroke-opacity:1; 
stroke-linecap:round; stroke-linejoin:round;">
</g>
<g style="fill:#000000; fill-opacity:0.0; 
stroke:#000000; stroke-width:59.0551; stroke-opacity:1; 
stroke-linecap:round; stroke-linejoin:round;">
<rect x="3937.01" y="3937.01" width="109056" height="74806" rx="0" />
</g>
<g style="fill:#000000; fill-opacity:0.0; 
stroke:#000000; stroke-width:39.3701; stroke-opacity:1; 
stroke-linecap:round; stroke-linejoin:round;">
</g>
<g style="fill:#000000; fill-opacity:0.0; 
stroke:#000000; stroke-width:59.0551; stroke-opacity:1; 
stroke-linecap:round; stroke-linejoin:round;">
<rect x="4724.41" y="4724.41" width="107481" height="73231.2" rx="0" />
</g>
<g style="fill:#000000; fill-opacity:0.0; 
stroke:#000000; stroke-width:39.3701; stroke-opacity:1; 
stroke-linecap:round; stroke-linejoin:round;">
</g>
<g style="fill:#000000; fill-opacity:0.0; 
stroke:#000000; stroke-width:59.0551; stroke-opacity:1; 
stroke-linecap:round; stroke-linejoin:round;">
<path d="M23622 4724
L23622 3937
" />
</g>
<g style="fill:#000000; fill-opacity:0.0; 
stroke:#000000; stroke-width:39.3701; stroke-opacity:1; 
stroke-linecap:round; stroke-linejoin:round;">
</g>
<g style="fill:#000000; fill-opacity:0.0; 
stroke:#000000; stroke-width:59.0551; stroke-opacity:1; 
stroke-linecap:round; stroke-linejoin:round;">
<path d="M43307 4724
L43307 3937
" />
</g>
<g style="fill:#000000; fill-opacity:0.0; 
stroke:#000000; stroke-width:39.3701; stroke-opacity:1; 
stroke-linecap:round; stroke-linejoin:round;">
</g>
<g style="fill:#000000; fill-opacity:0.0; 
stroke:#000000; stroke-width:59.0551; stroke-opacity:1; 
stroke-linecap:round; stroke-linejoin:round;">
<path d="M62992 4724
L62992 3937
" />
</g>
<g style="fill:#000000; fill-opacity:0.0; 
stroke:#000000; stroke-width:39.3701; stroke-opacity:1; 
stroke-linecap:round; stroke-linejoin:round;">
</g>
<g style="fill:#000000; fill-opacity:0.0; 
stroke:#000000; stroke-width:59.0551; stroke-opacity:1; 
stroke-linecap:round; stroke-linejoin:round;">
<path d="M82677 4724
L82677 3937
" />
</g>
<g style="fill:#000000; fill-opacity:0.0; 
stroke:#000000; stroke-width:39.3701; stroke-opacity:1; 
stroke-linecap:round; stroke-linejoin:round;">
</g>
<g style="fill:#000000; fill-opacity:0.0; 
stroke:#000000; stroke-width:59.0551; stroke-opacity:1; 
stroke-linecap:round; stroke-linejoin:round;">
<path d="M102362 4724
L102362 3937
" />
</g>
<g style="fill:#000000; fill-opacity:0.0; 
stroke:#000000; stroke-width:39.3701; stroke-opacity:1; 
stroke-linecap:round; stroke-linejoin:round;">
</g>
<g style="fill:#000000; fill-opacity:0.0; 
stroke:#000000; stroke-width:59.0551; stroke-opacity:1; 
stroke-linecap:round; stroke-linejoin:round;">
<path d="M14169 4562
L13877 4562
" />
<path d="M14023 4562
L14023 4050
L13974 4123
L13925 4172
L13877 4196
" />
</g>
<g style="fill:#000000; fill-opacity:0.0; 
stroke:#000000; stroke-width:39.3701; stroke-opacity:1; 
stroke-linecap:round; stroke-linejoin:round;">
</g>
<g style="fill:#000000; fill-opacity:0.0; 
stroke:#000000; stroke-width:59.0551; stroke-opacity:1; 
stroke-linecap:round; stroke-linejoin:round;">
<path d="M33562 4099
L33586 4074
L33635 4050
L33757 4050
L33805 4074
L33830 4099
L33854 4147
L33854 4196
L33830 4269
L33537 4562
L33854 4562
" />
</g>
<g style="fill:#000000; fill-opacity:0.0; 
stroke:#000000; stroke-width:39.3701; stroke-opacity:1; 
stroke-linecap:round; stroke-linejoin:round;">
</g>
<g style="fill:#000000; fill-opacity:0.0; 
stroke:#000000; stroke-width:59.0551; stroke-opacity:1; 
stroke-linecap:round; stroke-linejoin:round;">
<path d="M53222 4050
L53539 4050
L53368 4245
L53442 4245
L53490 4269
L53515 4294
L53539 4342
L53539 4464
L53515 4513
L53490 4537
L53442 4562
L53295 4562
L53247 4537
L53222 4513
" />
</g>
<g style="fill:#000000; fill-opacity:0.0; 
stroke:#000000; stroke-width:39.3701; stroke-opacity:1; 
stroke-linecap:round; stroke-linejoin:round;">
</g>
<g style="fill:#000000; fill-opacity:0.0; 
stroke:#000000; stroke-width:59.0551; stroke-opacity:1; 
stroke-linecap:round; stroke-linejoin:round;">
<path d="M73175 4221
L73175 4562
" />
<path d="M73053 4026
L72932 4391
L73248 4391
" />
</g>
<g style="fill:#000000; fill-opacity:0.0; 
stroke:#000000; stroke-width:39.3701; stroke-opacity:1; 
stroke-linecap:round; stroke-linejoin:round;">
</g>
<g style="fill:#000000; fill-opacity:0.0; 
stroke:#000000; stroke-width:59.0551; stroke-opacity:1; 
stroke-linecap:round; stroke-linejoin:round;">
<path d="M92885 4050
L92641 4050
L92617 4294
L92641 4269
L92690 4245
L92812 4245
L92860 4269
L92885 4294
L92909 4342
L92909 4464
L92885 4513
L92860 4537
L92812 4562
L92690 4562
L92641 4537
L92617 4513
" />
</g>
<g style="fill:#000000; fill-opacity:0.0; 
stroke:#000000; stroke-width:39.3701; stroke-opacity:1; 
stroke-linecap:round; stroke-linejoin:round;">
</g>
<g style="fill:#000000; fill-opacity:0.0; 
stroke:#000000; stroke-width:59.0551; stroke-opacity:1; 
stroke-linecap:round; stroke-linejoin:round;">
<path d="M112545 4050
L112448 4050
L112399 4074
L112375 4099
L112326 4172
L112302 4269
L112302 4464
L112326 4513
L112350 4537
L112399 4562
L112497 4562
L112545 4537
L112570 4513
L112594 4464
L112594 4342
L112570 4294
L112545 4269
L112497 4245
L112399 4245
L112350 4269
L112326 4294
L112302 4342
" />
</g>
<g style="fill:#000000; fill-opacity:0.0; 
stroke:#000000; stroke-width:39.3701; stroke-opacity:1; 
stroke-linecap:round; stroke-linejoin:round;">
</g>
<g style="fill:#000000; fill-opacity:0.0; 
stroke:#000000; stroke-width:59.0551; stroke-opacity:1; 
stroke-linecap:round; stroke-linejoin:round;">
<path d="M23622 77955
L23622 78742
" />
</g>
<g style="fill:#000000; fill-opacity:0.0; 
stroke:#000000; stroke-width:39.3701; stroke-opacity:1; 
stroke-linecap:round; stroke-linejoin:round;">
</g>
<g style="fill:#000000; fill-opacity:0.0; 
stroke:#000000; stroke-width:59.0551; stroke-opacity:1; 
stroke-linecap:round; stroke-linejoin:round;">
<path d="M43307 77955
L43307 78742
" />
</g>
<g style="fill:#000000; fill-opacity:0.0; 
stroke:#000000; stroke-width:39.3701; stroke-opacity:1; 
stroke-linecap:round; stroke-linejoin:round;">
</g>
<g style="fill:#000000; fill-opacity:0.0; 
stroke:#000000; stroke-width:59.0551; stroke-opacity:1; 
stroke-linecap:round; stroke-linejoin:round;">
<path d="M62992 77955
L62992 78742
" />
</g>
<g style="fill:#000000; fill-opacity:0.0; 
stroke:#000000; stroke-width:39.3701; stroke-opacity:1; 
stroke-linecap:round; stroke-linejoin:round;">
</g>
<g style="fill:#000000; fill-opacity:0.0; 
stroke:#000000; stroke-width:59.0551; stroke-opacity:1; 
stroke-linecap:round; stroke-linejoin:round;">
<path d="M82677 77955
L82677 78742
" />
</g>
<g style="fill:#000000; fill-opacity:0.0; 
stroke:#000000; stroke-width:39.3701; stroke-opacity:1; 
stroke-linecap:round; stroke-linejoin:round;">
</g>
<g style="fill:#000000; fill-opacity:0.0; 
stroke:#000000; stroke-width:59.0551; stroke-opacity:1; 
stroke-linecap:round; stroke-linejoin:round;">
<path d="M102362 77955
L102362 78742
" />
</g>
<g style="fill:#000000; fill-opacity:0.0; 
stroke:#000000; stroke-width:39.3701; stroke-opacity:1; 
stroke-linecap:round; stroke-linejoin:round;">
</g>
<g style="fill:#000000; fill-opacity:0.0; 
stroke:#000000; stroke-width:59.0551; stroke-opacity:1; 
stroke-linecap:round; stroke-linejoin:round;">
<path d="M14169 78580
L13877 78580
" />
<path d="M14023 78580
L14023 78069
L13974 78142
L13925 78190
L13877 78215
" />
</g>
<g style="fill:#000000; fill-opacity:0.0; 
stroke:#000000; stroke-width:39.3701; stroke-opacity:1; 
stroke-linecap:round; stroke-linejoin:round;">
</g>
<g style="fill:#000000; fill-opacity:0.0; 
stroke:#000000; stroke-width:59.0551; stroke-opacity:1; 
stroke-linecap:round; stroke-linejoin:round;">
<path d="M33562 78117
L33586 78093
L33635 78069
L33757 78069
L33805 78093
L33830 78117
L33854 78166
L33854 78215
L33830 78288
L33537 78580
L33854 78580
" />
</g>
<g style="fill:#000000; fill-opacity:0.0; 
stroke:#000000; stroke-width:39.3701; stroke-opacity:1; 
stroke-linecap:round; stroke-linejoin:round;">
</g>
<g style="fill:#000000; fill-opacity:0.0; 
stroke:#000000; stroke-width:59.0551; stroke-opacity:1; 
stroke-linecap:round; stroke-linejoin:round;">
<path d="M53222 78069
L53539 78069
L53368 78263
L53442 78263
L53490 78288
L53515 78312
L53539 78361
L53539 78483
L53515 78532
L53490 78556
L53442 78580
L53295 78580
L53247 78556
L53222 78532
" />
</g>
<g style="fill:#000000; fill-opacity:0.0; 
stroke:#000000; stroke-width:39.3701; stroke-opacity:1; 
stroke-linecap:round; stroke-linejoin:round;">
</g>
<g style="fill:#000000; fill-opacity:0.0; 
stroke:#000000; stroke-width:59.0551; stroke-opacity:1; 
stroke-linecap:round; stroke-linejoin:round;">
<path d="M73175 78239
L73175 78580
" />
<path d="M73053 78044
L72932 78410
L73248 78410
" />
</g>
<g style="fill:#000000; fill-opacity:0.0; 
stroke:#000000; stroke-width:39.3701; stroke-opacity:1; 
stroke-linecap:round; stroke-linejoin:round;">
</g>
<g style="fill:#000000; fill-opacity:0.0; 
stroke:#000000; stroke-width:59.0551; stroke-opacity:1; 
stroke-linecap:round; stroke-linejoin:round;">
<path d="M92885 78069
L92641 78069
L92617 78312
L92641 78288
L92690 78263
L92812 78263
L92860 78288
L92885 78312
L92909 78361
L92909 78483
L92885 78532
L92860 78556
L92812 78580
L92690 78580
L92641 78556
L92617 78532
" />
</g>
<g style="fill:#000000; fill-opacity:0.0; 
stroke:#000000; stroke-width:39.3701; stroke-opacity:1; 
stroke-linecap:round; stroke-linejoin:round;">
</g>
<g style="fill:#000000; fill-opacity:0.0; 
stroke:#000000; stroke-width:59.0551; stroke-opacity:1; 
stroke-linecap:round; stroke-linejoin:round;">
<path d="M112545 78069
L112448 78069
L112399 78093
L112375 78117
L112326 78190
L112302 78288
L112302 78483
L112326 78532
L112350 78556
L112399 78580
L112497 78580
L112545 78556
L112570 78532
L112594 78483
L112594 78361
L112570 78312
L112545 78288
L112497 78263
L112399 78263
L112350 78288
L112326 78312
L112302 78361
" />
</g>
<g style="fill:#000000; fill-opacity:0.0; 
stroke:#000000; stroke-width:39.3701; stroke-opacity:1; 
stroke-linecap:round; stroke-linejoin:round;">
</g>
<g style="fill:#000000; fill-opacity:0.0; 
stroke:#000000; stroke-width:59.0551; stroke-opacity:1; 
stroke-linecap:round; stroke-linejoin:round;">
<path d="M3937 23622
L4724 23622
" />
</g>
<g style="fill:#000000; fill-opacity:0.0; 
stroke:#000000; stroke-width:39.3701; stroke-opacity:1; 
stroke-linecap:round; stroke-linejoin:round;">
</g>
<g style="fill:#000000; fill-opacity:0.0; 
stroke:#000000; stroke-width:59.0551; stroke-opacity:1; 
stroke-linecap:round; stroke-linejoin:round;">
<path d="M3937 43307
L4724 43307
" />
</g>
<g style="fill:#000000; fill-opacity:0.0; 
stroke:#000000; stroke-width:39.3701; stroke-opacity:1; 
stroke-linecap:round; stroke-linejoin:round;">
</g>
<g style="fill:#000000; fill-opacity:0.0; 
stroke:#000000; stroke-width:59.0551; stroke-opacity:1; 
stroke-linecap:round; stroke-linejoin:round;">
<path d="M3937 62992
L4724 62992
" />
</g>
<g style="fill:#000000; fill-opacity:0.0; 
stroke:#000000; stroke-width:39.3701; stroke-opacity:1; 
stroke-linecap:round; stroke-linejoin:round;">
</g>
<g style="fill:#000000; fill-opacity:0.0; 
stroke:#000000; stroke-width:59.0551; stroke-opacity:1; 
stroke-linecap:round; stroke-linejoin:round;">
<path d="M4208 13864
L4452 13864
" />
<path d="M4160 14011
L4330 13499
L4501 14011
" />
</g>
<g style="fill:#000000; fill-opacity:0.0; 
stroke:#000000; stroke-width:39.3701; stroke-opacity:1; 
stroke-linecap:round; stroke-linejoin:round;">
</g>
<g style="fill:#000000; fill-opacity:0.0; 
stroke:#000000; stroke-width:59.0551; stroke-opacity:1; 
stroke-linecap:round; stroke-linejoin:round;">
<path d="M4367 33428
L4440 33452
L4464 33476
L4489 33525
L4489 33598
L4464 33647
L4440 33671
L4391 33696
L4196 33696
L4196 33184
L4367 33184
L4416 33208
L4440 33233
L4464 33281
L4464 33330
L4440 33379
L4416 33403
L4367 33428
L4196 33428
" />
</g>
<g style="fill:#000000; fill-opacity:0.0; 
stroke:#000000; stroke-width:39.3701; stroke-opacity:1; 
stroke-linecap:round; stroke-linejoin:round;">
</g>
<g style="fill:#000000; fill-opacity:0.0; 
stroke:#000000; stroke-width:59.0551; stroke-opacity:1; 
stroke-linecap:round; stroke-linejoin:round;">
<path d="M4489 53332
L4464 53356
L4391 53381
L4342 53381
L4269 53356
L4221 53308
L4196 53259
L4172 53161
L4172 53088
L4196 52991
L4221 52942
L4269 52893
L4342 52869
L4391 52869
L4464 52893
L4489 52918
" />
</g>
<g style="fill:#000000; fill-opacity:0.0; 
stroke:#000000; stroke-width:39.3701; stroke-opacity:1; 
stroke-linecap:round; stroke-linejoin:round;">
</g>
<g style="fill:#000000; fill-opacity:0.0; 
stroke:#000000; stroke-width:59.0551; stroke-opacity:1; 
stroke-linecap:round; stroke-linejoin:round;">
<path d="M4196 73066
L4196 72554
L4318 72554
L4391 72578
L4440 72627
L4464 72676
L4489 72773
L4489 72846
L4464 72944
L4440 72993
L4391 73041
L4318 73066
L4196 73066
" />
</g>
<g style="fill:#000000; fill-opacity:0.0; 
stroke:#000000; stroke-width:39.3701; stroke-opacity:1; 
stroke-linecap:round; stroke-linejoin:round;">
</g>
<g style="fill:#000000; fill-opacity:0.0; 
stroke:#000000; stroke-width:59.0551; stroke-opacity:1; 
stroke-linecap:round; stroke-linejoin:round;">
<path d="M112992 23622
L112205 23622
" />
</g>
<g style="fill:#000000; fill-opacity:0.0; 
stroke:#000000; stroke-width:39.3701; stroke-opacity:1; 
stroke-linecap:round; stroke-linejoin:round;">
</g>
<g style="fill:#000000; fill-opacity:0.0; 
stroke:#000000; stroke-width:59.0551; stroke-opacity:1; 
stroke-linecap:round; stroke-linejoin:round;">
<path d="M112992 43307
L112205 43307
" />
</g>
<g style="fill:#000000; fill-opacity:0.0; 
stroke:#000000; stroke-width:39.3701; stroke-opacity:1; 
stroke-linecap:round; stroke-linejoin:round;">
</g>
<g style="fill:#000000; fill-opacity:0.0; 
stroke:#000000; stroke-width:59.0551; stroke-opacity:1; 
stroke-linecap:round; stroke-linejoin:round;">
<path d="M112992 62992
L112205 62992
" />
</g>
<g style="fill:#000000; fill-opacity:0.0; 
stroke:#000000; stroke-width:39.3701; stroke-opacity:1; 
stroke-linecap:round; stroke-linejoin:round;">
</g>
<g style="fill:#000000; fill-opacity:0.0; 
stroke:#000000; stroke-width:59.0551; stroke-opacity:1; 
stroke-linecap:round; stroke-linejoin:round;">
<path d="M112477 13864
L112721 13864
" />
<path d="M112428 14011
L112599 13499
L112769 14011
" />
</g>
<g style="fill:#000000; fill-opacity:0.0; 
stroke:#000000; stroke-width:39.3701; stroke-opacity:1; 
stroke-linecap:round; stroke-linejoin:round;">
</g>
<g style="fill:#000000; fill-opacity:0.0; 
stroke:#000000; stroke-width:59.0551; stroke-opacity:1; 
stroke-linecap:round; stroke-linejoin:round;">
<path d="M112635 33428
L112708 33452
L112733 33476
L112757 33525
L112757 33598
L112733 33647
L112708 33671
L112660 33696
L112465 33696
L112465 33184
L112635 33184
L112684 33208
L112708 33233
L112733 33281
L112733 33330
L112708 33379
L112684 33403
L112635 33428
L112465 33428
" />
</g>
<g style="fill:#000000; fill-opacity:0.0; 
stroke:#000000; stroke-width:39.3701; stroke-opacity:1; 
stroke-linecap:round; stroke-linejoin:round;">
</g>
<g style="fill:#000000; fill-opacity:0.0; 
stroke:#000000; stroke-width:59.0551; stroke-opacity:1; 
stroke-linecap:round; stroke-linejoin:round;">
<path d="M112757 53332
L112733 53356
L112660 53381
L112611 53381
L112538 53356
L112489 53308
L112465 53259
L112440 53161
L112440 53088
L112465 52991
L112489 52942
L112538 52893
L112611 52869
L112660 52869
L112733 52893
L112757 52918
" />
</g>
<g style="fill:#000000; fill-opacity:0.0; 
stroke:#000000; stroke-width:39.3701; stroke-opacity:1; 
stroke-linecap:round; stroke-linejoin:round;">
</g>
<g style="fill:#000000; fill-opacity:0.0; 
stroke:#000000; stroke-width:59.0551; stroke-opacity:1; 
stroke-linecap:round; stroke-linejoin:round;">
<path d="M112465 73066
L112465 72554
L112587 72554
L112660 72578
L112708 72627
L112733 72676
L112757 72773
L112757 72846
L112733 72944
L112708 72993
L112660 73041
L112587 73066
L112465 73066
" />
</g>
<g style="fill:#000000; fill-opacity:0.0; 
stroke:#000000; stroke-width:39.3701; stroke-opacity:1; 
stroke-linecap:round; stroke-linejoin:round;">
</g>
<g style="fill:#000000; fill-opacity:0.0; 
stroke:#000000; stroke-width:59.0551; stroke-opacity:1; 
stroke-linecap:round; stroke-linejoin:round;">
<path d="M78881 76293
L78881 75703
L79022 75703
L79106 75731
L79162 75787
L79190 75843
L79219 75956
L79219 76040
L79190 76153
L79162 76209
L79106 76265
L79022 76293
L78881 76293
" />
<path d="M79725 76293
L79725 75984
L79697 75928
L79640 75899
L79528 75899
L79472 75928
" />
<path d="M79725 76265
L79669 76293
L79528 76293
L79472 76265
L79444 76209
L79444 76153
L79472 76096
L79528 76068
L79669 76068
L79725 76040
" />
<path d="M79922 75899
L80147 75899
" />
<path d="M80006 75703
L80006 76209
L80034 76265
L80090 76293
L80147 76293
" />
<path d="M80568 76265
L80512 76293
L80400 76293
L80343 76265
L80315 76209
L80315 75984
L80343 75928
L80400 75899
L80512 75899
L80568 75928
L80597 75984
L80597 76040
L80315 76096
" />
<path d="M80850 76237
L80878 76265
L80850 76293
L80822 76265
L80850 76237
L80850 76293
" />
<path d="M80850 75928
L80878 75956
L80850 75984
L80822 75956
L80850 75928
L80850 75984
" />
</g>
<g style="fill:#000000; fill-opacity:0.0; 
stroke:#000000; stroke-width:39.3701; stroke-opacity:1; 
stroke-linecap:round; stroke-linejoin:round;">
</g>
<g style="fill:#000000; fill-opacity:0.0; 
stroke:#000000; stroke-width:59.0551; stroke-opacity:1; 
stroke-linecap:round; stroke-linejoin:round;">
<path d="M69685 76577
L112205 76577
" />
</g>
<g style="fill:#000000; fill-opacity:0.0; 
stroke:#000000; stroke-width:39.3701; stroke-opacity:1; 
stroke-linecap:round; stroke-linejoin:round;">
</g>
<g style="fill:#000000; fill-opacity:0.0; 
stroke:#000000; stroke-width:59.0551; stroke-opacity:1; 
stroke-linecap:round; stroke-linejoin:round;">
<path d="M70220 77395
L70220 76805
" />
<path d="M70557 77395
L70304 77058
" />
<path d="M70557 76805
L70220 77142
" />
<path d="M70810 77395
L70810 77002
" />
<path d="M70810 76805
L70782 76833
L70810 76861
L70838 76833
L70810 76805
L70810 76861
" />
<path d="M71429 77339
L71401 77367
L71316 77395
L71260 77395
L71176 77367
L71120 77311
L71091 77255
L71063 77142
L71063 77058
L71091 76946
L71120 76889
L71176 76833
L71260 76805
L71316 76805
L71401 76833
L71429 76861
" />
<path d="M71935 77395
L71935 77086
L71907 77030
L71851 77002
L71738 77002
L71682 77030
" />
<path d="M71935 77367
L71879 77395
L71738 77395
L71682 77367
L71654 77311
L71654 77255
L71682 77199
L71738 77171
L71879 77171
L71935 77142
" />
<path d="M72469 77395
L72469 76805
" />
<path d="M72469 77367
L72413 77395
L72301 77395
L72244 77367
L72216 77339
L72188 77283
L72188 77114
L72216 77058
L72244 77030
L72301 77002
L72413 77002
L72469 77030
" />
<path d="M73201 77086
L73397 77086
" />
<path d="M73482 77395
L73201 77395
L73201 76805
L73482 76805
" />
<path d="M73735 77339
L73763 77367
L73735 77395
L73707 77367
L73735 77339
L73735 77395
" />
<path d="M74016 77395
L74016 76805
L74157 76805
L74241 76833
L74297 76889
L74325 76946
L74354 77058
L74354 77142
L74325 77255
L74297 77311
L74241 77367
L74157 77395
L74016 77395
" />
<path d="M74607 77339
L74635 77367
L74607 77395
L74579 77367
L74607 77339
L74607 77395
" />
<path d="M74860 77227
L75141 77227
" />
<path d="M74804 77395
L75000 76805
L75197 77395
" />
<path d="M75394 77339
L75422 77367
L75394 77395
L75366 77367
L75394 77339
L75394 77395
" />
<path d="M76575 77395
L76575 76805
" />
<path d="M76631 77171
L76800 77395
" />
<path d="M76800 77002
L76575 77227
" />
<path d="M77053 77395
L77053 77002
" />
<path d="M77053 76805
L77025 76833
L77053 76861
L77081 76833
L77053 76805
L77053 76861
" />
<path d="M77588 77367
L77531 77395
L77419 77395
L77363 77367
L77334 77339
L77306 77283
L77306 77114
L77334 77058
L77363 77030
L77419 77002
L77531 77002
L77588 77030
" />
<path d="M78094 77395
L78094 77086
L78066 77030
L78009 77002
L77897 77002
L77841 77030
" />
<path d="M78094 77367
L78037 77395
L77897 77395
L77841 77367
L77813 77311
L77813 77255
L77841 77199
L77897 77171
L78037 77171
L78094 77142
" />
<path d="M78628 77395
L78628 76805
" />
<path d="M78628 77367
L78572 77395
L78459 77395
L78403 77367
L78375 77339
L78347 77283
L78347 77114
L78375 77058
L78403 77030
L78459 77002
L78572 77002
L78628 77030
" />
<path d="M79612 77002
L79612 77395
" />
<path d="M79472 76777
L79331 77199
L79697 77199
" />
<path d="M79922 77339
L79950 77367
L79922 77395
L79894 77367
L79922 77339
L79922 77395
" />
<path d="M80315 76805
L80372 76805
L80428 76833
L80456 76861
L80484 76917
L80512 77030
L80512 77171
L80484 77283
L80456 77339
L80428 77367
L80372 77395
L80315 77395
L80259 77367
L80231 77339
L80203 77283
L80175 77171
L80175 77030
L80203 76917
L80231 76861
L80259 76833
L80315 76805
" />
<path d="M80765 77339
L80793 77367
L80765 77395
L80737 77367
L80765 77339
L80765 77395
" />
<path d="M81300 76805
L81187 76805
L81131 76833
L81103 76861
L81046 76946
L81018 77058
L81018 77283
L81046 77339
L81075 77367
L81131 77395
L81243 77395
L81300 77367
L81328 77339
L81356 77283
L81356 77142
L81328 77086
L81300 77058
L81243 77030
L81131 77030
L81075 77058
L81046 77086
L81018 77142
" />
</g>
<g style="fill:#000000; fill-opacity:0.0; 
stroke:#000000; stroke-width:39.3701; stroke-opacity:1; 
stroke-linecap:round; stroke-linejoin:round;">
</g>
<g style="fill:#000000; fill-opacity:0.0; 
stroke:#000000; stroke-width:59.0551; stroke-opacity:1; 
stroke-linecap:round; stroke-linejoin:round;">
<path d="M69685 75396
L112205 75396
" />
</g>
<g style="fill:#000000; fill-opacity:0.0; 
stroke:#000000; stroke-width:39.3701; stroke-opacity:1; 
stroke-linecap:round; stroke-linejoin:round;">
</g>
<g style="fill:#000000; fill-opacity:0.0; 
stroke:#000000; stroke-width:118.11; stroke-opacity:1; 
stroke-linecap:round; stroke-linejoin:round;">
<path d="M104022 76293
L103825 76012
" />
<path d="M103684 76293
L103684 75703
L103909 75703
L103965 75731
L103994 75759
L104022 75815
L104022 75899
L103994 75956
L103965 75984
L103909 76012
L103684 76012
" />
<path d="M104500 76265
L104444 76293
L104331 76293
L104275 76265
L104247 76209
L104247 75984
L104275 75928
L104331 75899
L104444 75899
L104500 75928
L104528 75984
L104528 76040
L104247 76096
" />
<path d="M104725 75899
L104865 76293
L105006 75899
" />
<path d="M105231 76237
L105259 76265
L105231 76293
L105203 76265
L105231 76237
L105231 76293
" />
<path d="M105231 75928
L105259 75956
L105231 75984
L105203 75956
L105231 75928
L105231 75984
" />
</g>
<g style="fill:#000000; fill-opacity:0.0; 
stroke:#000000; stroke-width:39.3701; stroke-opacity:1; 
stroke-linecap:round; stroke-linejoin:round;">
</g>
<g style="fill:#000000; fill-opacity:0.0; 
stroke:#000000; stroke-width:59.0551; stroke-opacity:1; 
stroke-linecap:round; stroke-linejoin:round;">
<path d="M70192 76265
L70276 76293
L70417 76293
L70473 76265
L70501 76237
L70529 76181
L70529 76124
L70501 76068
L70473 76040
L70417 76012
L70304 75984
L70248 75956
L70220 75928
L70192 75871
L70192 75815
L70220 75759
L70248 75731
L70304 75703
L70445 75703
L70529 75731
" />
<path d="M70782 76293
L70782 75899
" />
<path d="M70782 75703
L70754 75731
L70782 75759
L70810 75731
L70782 75703
L70782 75759
" />
<path d="M71007 75899
L71316 75899
L71007 76293
L71316 76293
" />
<path d="M71766 76265
L71710 76293
L71598 76293
L71541 76265
L71513 76209
L71513 75984
L71541 75928
L71598 75899
L71710 75899
L71766 75928
L71795 75984
L71795 76040
L71513 76096
" />
<path d="M72048 76237
L72076 76265
L72048 76293
L72019 76265
L72048 76237
L72048 76293
" />
<path d="M72048 75928
L72076 75956
L72048 75984
L72019 75956
L72048 75928
L72048 75984
" />
<path d="M72751 76124
L73032 76124
" />
<path d="M72694 76293
L72891 75703
L73088 76293
" />
<path d="M73538 75899
L73538 76293
" />
<path d="M73397 75674
L73257 76096
L73622 76096
" />
</g>
<g style="fill:#000000; fill-opacity:0.0; 
stroke:#000000; stroke-width:39.3701; stroke-opacity:1; 
stroke-linecap:round; stroke-linejoin:round;">
</g>
<g style="fill:#000000; fill-opacity:0.0; 
stroke:#000000; stroke-width:59.0551; stroke-opacity:1; 
stroke-linecap:round; stroke-linejoin:round;">
<path d="M103684 77395
L103684 76805
" />
<path d="M104219 77395
L104219 76805
" />
<path d="M104219 77367
L104162 77395
L104050 77395
L103994 77367
L103965 77339
L103937 77283
L103937 77114
L103965 77058
L103994 77030
L104050 77002
L104162 77002
L104219 77030
" />
<path d="M104500 77339
L104528 77367
L104500 77395
L104472 77367
L104500 77339
L104500 77395
" />
<path d="M104500 77030
L104528 77058
L104500 77086
L104472 77058
L104500 77030
L104500 77086
" />
<path d="M105540 77395
L105203 77395
" />
<path d="M105372 77395
L105372 76805
L105315 76889
L105259 76946
L105203 76974
" />
<path d="M106215 76777
L105709 77536
" />
<path d="M106721 77395
L106384 77395
" />
<path d="M106553 77395
L106553 76805
L106496 76889
L106440 76946
L106384 76974
" />
</g>
<g style="fill:#000000; fill-opacity:0.0; 
stroke:#000000; stroke-width:39.3701; stroke-opacity:1; 
stroke-linecap:round; stroke-linejoin:round;">
</g>
<g style="fill:#000000; fill-opacity:0.0; 
stroke:#000000; stroke-width:59.0551; stroke-opacity:1; 
stroke-linecap:round; stroke-linejoin:round;">
<path d="M69685 73821
L112205 73821
" />
</g>
<g style="fill:#000000; fill-opacity:0.0; 
stroke:#000000; stroke-width:39.3701; stroke-opacity:1; 
stroke-linecap:round; stroke-linejoin:round;">
</g>
<g style="fill:#000000; fill-opacity:0.0; 
stroke:#000000; stroke-width:157.48; stroke-opacity:1; 
stroke-linecap:round; stroke-linejoin:round;">
<path d="M70257 74099
L70707 74099
" />
<path d="M70384 74886
L70482 74099
" />
<path d="M70871 74886
L70937 74361
" />
<path d="M70970 74099
L70927 74136
L70960 74174
L71002 74136
L70970 74099
L70960 74174
" />
<path d="M71199 74361
L71499 74361
" />
<path d="M71345 74099
L71260 74774
L71288 74849
L71359 74886
L71434 74886
" />
<path d="M71809 74886
L71738 74849
L71710 74774
L71795 74099
" />
<path d="M72413 74849
L72334 74886
L72184 74886
L72113 74849
L72085 74774
L72123 74474
L72169 74399
L72249 74361
L72399 74361
L72469 74399
L72498 74474
L72488 74549
L72104 74624
" />
<path d="M72793 74811
L72826 74849
L72783 74886
L72751 74849
L72793 74811
L72783 74886
" />
<path d="M72844 74399
L72877 74436
L72835 74474
L72802 74436
L72844 74399
L72835 74474
" />
</g>
<g style="fill:#000000; fill-opacity:0.0; 
stroke:#000000; stroke-width:39.3701; stroke-opacity:1; 
stroke-linecap:round; stroke-linejoin:round;">
</g>
<g style="fill:#000000; fill-opacity:0.0; 
stroke:#000000; stroke-width:59.0551; stroke-opacity:1; 
stroke-linecap:round; stroke-linejoin:round;">
<path d="M70417 73070
L70220 73070
" />
<path d="M70220 73380
L70220 72789
L70501 72789
" />
<path d="M70726 73380
L70726 72986
" />
<path d="M70726 72789
L70698 72817
L70726 72845
L70754 72817
L70726 72789
L70726 72845
" />
<path d="M71091 73380
L71035 73352
L71007 73295
L71007 72789
" />
<path d="M71541 73352
L71485 73380
L71373 73380
L71316 73352
L71288 73295
L71288 73070
L71316 73014
L71373 72986
L71485 72986
L71541 73014
L71570 73070
L71570 73127
L71288 73183
" />
<path d="M71823 73323
L71851 73352
L71823 73380
L71795 73352
L71823 73323
L71823 73380
" />
<path d="M71823 73014
L71851 73042
L71823 73070
L71795 73042
L71823 73014
L71823 73070
" />
<path d="M72863 72817
L72807 72789
L72723 72789
L72638 72817
L72582 72874
L72554 72930
L72526 73042
L72526 73127
L72554 73239
L72582 73295
L72638 73352
L72723 73380
L72779 73380
L72863 73352
L72891 73323
L72891 73127
L72779 73127
" />
<path d="M73144 73380
L73144 72789
L73369 72789
L73426 72817
L73454 72845
L73482 72902
L73482 72986
L73454 73042
L73426 73070
L73369 73099
L73144 73099
" />
<path d="M73707 73352
L73791 73380
L73932 73380
L73988 73352
L74016 73323
L74044 73267
L74044 73211
L74016 73155
L73988 73127
L73932 73099
L73819 73070
L73763 73042
L73735 73014
L73707 72958
L73707 72902
L73735 72845
L73763 72817
L73819 72789
L73960 72789
L74044 72817
" />
<path d="M74579 73380
L74297 73380
L74297 72789
" />
<path d="M74860 73380
L74804 73352
L74775 73323
L74747 73267
L74747 73099
L74775 73042
L74804 73014
L74860 72986
L74944 72986
L75000 73014
L75028 73042
L75057 73099
L75057 73267
L75028 73323
L75000 73352
L74944 73380
L74860 73380
" />
<path d="M75563 72986
L75563 73464
L75535 73520
L75507 73548
L75450 73577
L75366 73577
L75310 73548
" />
<path d="M75563 73352
L75507 73380
L75394 73380
L75338 73352
L75310 73323
L75282 73267
L75282 73099
L75310 73042
L75338 73014
L75394 72986
L75507 72986
L75563 73014
" />
<path d="M76097 72986
L76097 73464
L76069 73520
L76041 73548
L75985 73577
L75900 73577
L75844 73548
" />
<path d="M76097 73352
L76041 73380
L75928 73380
L75872 73352
L75844 73323
L75816 73267
L75816 73099
L75844 73042
L75872 73014
L75928 72986
L76041 72986
L76097 73014
" />
<path d="M76603 73352
L76547 73380
L76435 73380
L76378 73352
L76350 73295
L76350 73070
L76378 73014
L76435 72986
L76547 72986
L76603 73014
L76631 73070
L76631 73127
L76350 73183
" />
<path d="M76885 73380
L76885 72986
" />
<path d="M76885 73099
L76913 73042
L76941 73014
L76997 72986
L77053 72986
" />
<path d="M77250 73323
L77278 73352
L77250 73380
L77222 73352
L77250 73323
L77250 73380
" />
<path d="M77531 73380
L77531 72789
" />
<path d="M77588 73155
L77756 73380
" />
<path d="M77756 72986
L77531 73211
" />
<path d="M78009 73380
L78009 72986
" />
<path d="M78009 72789
L77981 72817
L78009 72845
L78037 72817
L78009 72789
L78009 72845
" />
<path d="M78544 73352
L78487 73380
L78375 73380
L78319 73352
L78291 73323
L78262 73267
L78262 73099
L78291 73042
L78319 73014
L78375 72986
L78487 72986
L78544 73014
" />
<path d="M79050 73380
L79050 73070
L79022 73014
L78965 72986
L78853 72986
L78797 73014
" />
<path d="M79050 73352
L78994 73380
L78853 73380
L78797 73352
L78769 73295
L78769 73239
L78797 73183
L78853 73155
L78994 73155
L79050 73127
" />
<path d="M79584 73380
L79584 72789
" />
<path d="M79584 73352
L79528 73380
L79415 73380
L79359 73352
L79331 73323
L79303 73267
L79303 73099
L79331 73042
L79359 73014
L79415 72986
L79528 72986
L79584 73014
" />
<path d="M79725 73436
L80175 73436
" />
<path d="M80315 72986
L80315 73577
" />
<path d="M80315 73014
L80372 72986
L80484 72986
L80540 73014
L80568 73042
L80597 73099
L80597 73267
L80568 73323
L80540 73352
L80484 73380
L80372 73380
L80315 73352
" />
<path d="M81103 73352
L81046 73380
L80934 73380
L80878 73352
L80850 73323
L80822 73267
L80822 73099
L80850 73042
L80878 73014
L80934 72986
L81046 72986
L81103 73014
" />
<path d="M81356 73380
L81356 72789
" />
<path d="M81356 73014
L81412 72986
L81525 72986
L81581 73014
L81609 73042
L81637 73099
L81637 73267
L81609 73323
L81581 73352
L81525 73380
L81412 73380
L81356 73352
" />
</g>
<g style="fill:#000000; fill-opacity:0.0; 
stroke:#000000; stroke-width:39.3701; stroke-opacity:1; 
stroke-linecap:round; stroke-linejoin:round;">
</g>
<g style="fill:#000000; fill-opacity:0.0; 
stroke:#000000; stroke-width:59.0551; stroke-opacity:1; 
stroke-linecap:round; stroke-linejoin:round;">
<path d="M69685 71459
L112205 71459
" />
</g>
<g style="fill:#000000; fill-opacity:0.0; 
stroke:#000000; stroke-width:39.3701; stroke-opacity:1; 
stroke-linecap:round; stroke-linejoin:round;">
</g>
<g style="fill:#000000; fill-opacity:0.0; 
stroke:#000000; stroke-width:59.0551; stroke-opacity:1; 
stroke-linecap:round; stroke-linejoin:round;">
<path d="M70192 72289
L70276 72317
L70417 72317
L70473 72289
L70501 72260
L70529 72204
L70529 72148
L70501 72092
L70473 72064
L70417 72036
L70304 72007
L70248 71979
L70220 71951
L70192 71895
L70192 71839
L70220 71782
L70248 71754
L70304 71726
L70445 71726
L70529 71754
" />
<path d="M70782 72317
L70782 71726
" />
<path d="M71035 72317
L71035 72007
L71007 71951
L70951 71923
L70867 71923
L70810 71951
L70782 71979
" />
<path d="M71541 72289
L71485 72317
L71373 72317
L71316 72289
L71288 72232
L71288 72007
L71316 71951
L71373 71923
L71485 71923
L71541 71951
L71570 72007
L71570 72064
L71288 72120
" />
<path d="M72048 72289
L71991 72317
L71879 72317
L71823 72289
L71795 72232
L71795 72007
L71823 71951
L71879 71923
L71991 71923
L72048 71951
L72076 72007
L72076 72064
L71795 72120
" />
<path d="M72244 71923
L72469 71923
" />
<path d="M72329 71726
L72329 72232
L72357 72289
L72413 72317
L72469 72317
" />
<path d="M72666 72260
L72694 72289
L72666 72317
L72638 72289
L72666 72260
L72666 72317
" />
<path d="M72666 71951
L72694 71979
L72666 72007
L72638 71979
L72666 71951
L72666 72007
" />
</g>
<g style="fill:#000000; fill-opacity:0.0; 
stroke:#000000; stroke-width:39.3701; stroke-opacity:1; 
stroke-linecap:round; stroke-linejoin:round;">
</g>
<g style="fill:#000000; fill-opacity:0.0; 
stroke:#000000; stroke-width:59.0551; stroke-opacity:1; 
stroke-linecap:round; stroke-linejoin:round;">
<path d="M77559 75396
L77559 76577
" />
</g>
<g style="fill:#000000; fill-opacity:0.0; 
stroke:#000000; stroke-width:39.3701; stroke-opacity:1; 
stroke-linecap:round; stroke-linejoin:round;">
</g>
<g style="fill:#000000; fill-opacity:0.0; 
stroke:#000000; stroke-width:59.0551; stroke-opacity:1; 
stroke-linecap:round; stroke-linejoin:round;">
<path d="M102756 75396
L102756 77955
" />
</g>
<g style="fill:#C2C200; fill-opacity:0.0; 
stroke:#C2C200; stroke-width:59.0551; stroke-opacity:1; 
stroke-linecap:round; stroke-linejoin:round;">
<path d="M58279 46637
L58598 46637
L58635 46619
L58654 46600
L58673 46562
L58673 46487
L58654 46450
L58635 46431
L58598 46412
L58279 46412
" />
<path d="M58410 46056
L58673 46056
" />
<path d="M58260 46150
L58541 46244
L58541 46000
" />
<path d="M60087 19799
L60406 19799
L60443 19781
L60462 19762
L60481 19724
L60481 19649
L60462 19612
L60443 19593
L60406 19574
L60087 19574
" />
<path d="M60087 19425
L60087 19181
L60237 19312
L60237 19256
L60256 19218
L60275 19200
L60312 19181
L60406 19181
L60443 19200
L60462 19218
L60481 19256
L60481 19368
L60462 19406
L60443 19425
" />
</g>
<g style="fill:#008484; fill-opacity:0.0; 
stroke:#008484; stroke-width:59.0551; stroke-opacity:1; 
stroke-linecap:round; stroke-linejoin:round;">
<path d="M51303 30299
L51284 30337
L51284 30393
L51303 30449
L51340 30487
L51378 30506
L51453 30524
L51509 30524
L51584 30506
L51621 30487
L51659 30449
L51678 30393
L51678 30356
L51659 30299
L51640 30281
L51509 30281
L51509 30356
" />
<path d="M51678 30112
L51284 30112
L51678 29887
L51284 29887
" />
<path d="M51678 29700
L51284 29700
L51284 29606
L51303 29550
L51340 29512
L51378 29493
L51453 29475
L51509 29475
L51584 29493
L51621 29512
L51659 29550
L51678 29606
L51678 29700
" />
<path d="M52284 30524
L52678 30393
L52284 30262
" />
<path d="M52640 29906
L52659 29925
L52678 29981
L52678 30018
L52659 30074
L52621 30112
L52584 30131
L52509 30149
L52453 30149
L52378 30131
L52340 30112
L52303 30074
L52284 30018
L52284 29981
L52303 29925
L52321 29906
" />
<path d="M52640 29512
L52659 29531
L52678 29587
L52678 29625
L52659 29681
L52621 29718
L52584 29737
L52509 29756
L52453 29756
L52378 29737
L52340 29718
L52303 29681
L52284 29625
L52284 29587
L52303 29531
L52321 29512
" />
<path d="M53678 30618
L53284 30618
L53565 30487
L53284 30356
L53678 30356
" />
<path d="M53678 30168
L53284 30168
" />
<path d="M53659 30000
L53678 29943
L53678 29850
L53659 29812
L53640 29793
L53603 29775
L53565 29775
L53528 29793
L53509 29812
L53490 29850
L53471 29925
L53453 29962
L53434 29981
L53396 30000
L53359 30000
L53321 29981
L53303 29962
L53284 29925
L53284 29831
L53303 29775
" />
<path d="M53284 29531
L53284 29456
L53303 29418
L53340 29381
L53415 29362
L53546 29362
L53621 29381
L53659 29418
L53678 29456
L53678 29531
L53659 29568
L53621 29606
L53546 29625
L53415 29625
L53340 29606
L53303 29568
L53284 29531
" />
<path d="M54678 30618
L54284 30618
L54565 30487
L54284 30356
L54678 30356
" />
<path d="M54284 30093
L54284 30018
L54303 29981
L54340 29943
L54415 29925
L54546 29925
L54621 29943
L54659 29981
L54678 30018
L54678 30093
L54659 30131
L54621 30168
L54546 30187
L54415 30187
L54340 30168
L54303 30131
L54284 30093
" />
<path d="M54659 29775
L54678 29718
L54678 29625
L54659 29587
L54640 29568
L54603 29550
L54565 29550
L54528 29568
L54509 29587
L54490 29625
L54471 29700
L54453 29737
L54434 29756
L54396 29775
L54359 29775
L54321 29756
L54303 29737
L54284 29700
L54284 29606
L54303 29550
" />
<path d="M54678 29381
L54284 29381
" />
<path d="M55659 30506
L55678 30449
L55678 30356
L55659 30318
L55640 30299
L55603 30281
L55565 30281
L55528 30299
L55509 30318
L55490 30356
L55471 30431
L55453 30468
L55434 30487
L55396 30506
L55359 30506
L55321 30487
L55303 30468
L55284 30431
L55284 30337
L55303 30281
" />
<path d="M55640 29887
L55659 29906
L55678 29962
L55678 29999
L55659 30056
L55621 30093
L55584 30112
L55509 30131
L55453 30131
L55378 30112
L55340 30093
L55303 30056
L55284 29999
L55284 29962
L55303 29906
L55321 29887
" />
<path d="M55678 29718
L55284 29718
" />
<path d="M55678 29493
L55453 29662
" />
<path d="M55284 29493
L55509 29718
" />
<path d="M56640 30065
L56659 30084
L56678 30140
L56678 30178
L56659 30234
L56621 30271
L56584 30290
L56509 30309
L56453 30309
L56378 30290
L56340 30271
L56303 30234
L56284 30178
L56284 30140
L56303 30084
L56321 30065
" />
<path d="M56659 29915
L56678 29859
L56678 29765
L56659 29728
L56640 29709
L56603 29690
L56565 29690
L56528 29709
L56509 29728
L56490 29765
L56471 29840
L56453 29878
L56434 29896
L56396 29915
L56359 29915
L56321 29896
L56303 29878
L56284 29840
L56284 29746
L56303 29690
" />
</g>
<g style="fill:#C2C200; fill-opacity:0.0; 
stroke:#C2C200; stroke-width:59.0551; stroke-opacity:1; 
stroke-linecap:round; stroke-linejoin:round;">
<path d="M57784 20799
L58103 20799
L58140 20781
L58159 20762
L58178 20724
L58178 20649
L58159 20612
L58140 20593
L58103 20574
L57784 20574
" />
<path d="M58178 20181
L58178 20406
" />
<path d="M58178 20293
L57784 20293
L57840 20331
L57878 20368
L57896 20406
" />
<path d="M50926 27731
L50907 27749
L50851 27768
L50814 27768
L50757 27749
L50720 27712
L50701 27674
L50682 27599
L50682 27543
L50701 27468
L50720 27431
L50757 27393
L50814 27374
L50851 27374
L50907 27393
L50926 27412
" />
<path d="M51301 27768
L51076 27768
" />
<path d="M51188 27768
L51188 27374
L51151 27431
L51113 27468
L51076 27487
" />
<path d="M50926 29231
L50907 29249
L50851 29268
L50814 29268
L50757 29249
L50720 29212
L50701 29174
L50682 29099
L50682 29043
L50701 28968
L50720 28931
L50757 28893
L50814 28874
L50851 28874
L50907 28893
L50926 28912
" />
<path d="M51076 28912
L51095 28893
L51132 28874
L51226 28874
L51263 28893
L51282 28912
L51301 28949
L51301 28987
L51282 29043
L51057 29268
L51301 29268
" />
<path d="M42200 31981
L42200 32299
L42218 32337
L42237 32356
L42275 32374
L42350 32374
L42387 32356
L42406 32337
L42425 32299
L42425 31981
" />
<path d="M42593 32018
L42612 32000
L42649 31981
L42743 31981
L42781 32000
L42799 32018
L42818 32056
L42818 32093
L42799 32149
L42574 32374
L42818 32374
" />
</g>
<g style="fill:#008484; fill-opacity:0.0; 
stroke:#008484; stroke-width:59.0551; stroke-opacity:1; 
stroke-linecap:round; stroke-linejoin:round;">
<path d="M43475 37784
L43606 38178
L43737 37784
" />
<path d="M44093 38140
L44074 38159
L44018 38178
L43981 38178
L43925 38159
L43887 38121
L43868 38084
L43850 38009
L43850 37953
L43868 37878
L43887 37840
L43925 37803
L43981 37784
L44018 37784
L44074 37803
L44093 37821
" />
<path d="M44487 38140
L44468 38159
L44412 38178
L44374 38178
L44318 38159
L44281 38121
L44262 38084
L44243 38009
L44243 37953
L44262 37878
L44281 37840
L44318 37803
L44374 37784
L44412 37784
L44468 37803
L44487 37821
" />
<path d="M43700 36803
L43662 36784
L43606 36784
L43550 36803
L43512 36840
L43493 36878
L43475 36953
L43475 37009
L43493 37084
L43512 37121
L43550 37159
L43606 37178
L43643 37178
L43700 37159
L43718 37140
L43718 37009
L43643 37009
" />
<path d="M43887 37178
L43887 36784
L44112 37178
L44112 36784
" />
<path d="M44299 37178
L44299 36784
L44393 36784
L44449 36803
L44487 36840
L44506 36878
L44524 36953
L44524 37009
L44506 37084
L44487 37121
L44449 37159
L44393 37178
L44299 37178
" />
<path d="M43531 36159
L43587 36178
L43681 36178
L43718 36159
L43737 36140
L43756 36103
L43756 36065
L43737 36028
L43718 36009
L43681 35990
L43606 35971
L43568 35953
L43550 35934
L43531 35896
L43531 35859
L43550 35821
L43568 35803
L43606 35784
L43700 35784
L43756 35803
" />
<path d="M44149 36140
L44131 36159
L44074 36178
L44037 36178
L43981 36159
L43943 36121
L43925 36084
L43906 36009
L43906 35953
L43925 35878
L43943 35840
L43981 35803
L44037 35784
L44074 35784
L44131 35803
L44149 35821
" />
<path d="M44506 36178
L44318 36178
L44318 35784
" />
<path d="M43521 35159
L43578 35178
L43671 35178
L43709 35159
L43728 35140
L43746 35103
L43746 35065
L43728 35028
L43709 35009
L43671 34990
L43596 34971
L43559 34953
L43540 34934
L43521 34896
L43521 34859
L43540 34821
L43559 34803
L43596 34784
L43690 34784
L43746 34803
" />
<path d="M43915 35178
L43915 34784
L44009 34784
L44065 34803
L44103 34840
L44121 34878
L44140 34953
L44140 35009
L44121 35084
L44103 35121
L44065 35159
L44009 35178
L43915 35178
" />
<path d="M44290 35065
L44478 35065
" />
<path d="M44253 35178
L44384 34784
L44515 35178
" />
<path d="M43737 34140
L43718 34159
L43662 34178
L43625 34178
L43568 34159
L43531 34121
L43512 34084
L43493 34009
L43493 33953
L43512 33878
L43531 33840
L43568 33803
L43625 33784
L43662 33784
L43718 33803
L43737 33821
" />
<path d="M43887 34159
L43943 34178
L44037 34178
L44074 34159
L44093 34140
L44112 34103
L44112 34065
L44093 34028
L44074 34009
L44037 33990
L43962 33971
L43925 33953
L43906 33934
L43887 33896
L43887 33859
L43906 33821
L43925 33803
L43962 33784
L44056 33784
L44112 33803
" />
<path d="M44412 33971
L44468 33990
L44487 34009
L44506 34046
L44506 34103
L44487 34140
L44468 34159
L44431 34178
L44281 34178
L44281 33784
L44412 33784
L44449 33803
L44468 33821
L44487 33859
L44487 33896
L44468 33934
L44449 33953
L44412 33971
L44281 33971
" />
<path d="M43484 33159
L43540 33178
L43634 33178
L43671 33159
L43690 33140
L43709 33103
L43709 33065
L43690 33028
L43671 33009
L43634 32990
L43559 32971
L43521 32953
L43503 32934
L43484 32896
L43484 32859
L43503 32821
L43521 32803
L43559 32784
L43653 32784
L43709 32803
" />
<path d="M43878 33178
L43878 32784
L43971 32784
L44028 32803
L44065 32840
L44084 32878
L44103 32953
L44103 33009
L44084 33084
L44065 33121
L44028 33159
L43971 33178
L43878 33178
" />
<path d="M44346 32784
L44421 32784
L44459 32803
L44496 32840
L44515 32915
L44515 33046
L44496 33121
L44459 33159
L44421 33178
L44346 33178
L44309 33159
L44271 33121
L44253 33046
L44253 32915
L44271 32840
L44309 32803
L44346 32784
" />
</g>
<g style="fill:#C2C200; fill-opacity:0.0; 
stroke:#C2C200; stroke-width:59.0551; stroke-opacity:1; 
stroke-linecap:round; stroke-linejoin:round;">
<path d="M65162 29912
L65462 29912
" />
<path d="M65518 29481
L65762 29481
L65631 29631
L65687 29631
L65724 29649
L65743 29668
L65762 29706
L65762 29799
L65743 29837
L65724 29856
L65687 29874
L65574 29874
L65537 29856
L65518 29837
" />
</g>
<g style="fill:#008484; fill-opacity:0.0; 
stroke:#008484; stroke-width:59.0551; stroke-opacity:1; 
stroke-linecap:round; stroke-linejoin:round;">
<path d="M63031 37659
L63087 37678
L63181 37678
L63218 37659
L63237 37640
L63256 37603
L63256 37565
L63237 37528
L63218 37509
L63181 37490
L63106 37471
L63068 37453
L63050 37434
L63031 37396
L63031 37359
L63050 37321
L63068 37303
L63106 37284
L63200 37284
L63256 37303
" />
<path d="M63649 37640
L63631 37659
L63574 37678
L63537 37678
L63481 37659
L63443 37621
L63425 37584
L63406 37509
L63406 37453
L63425 37378
L63443 37340
L63481 37303
L63537 37284
L63574 37284
L63631 37303
L63649 37321
" />
<path d="M64006 37678
L63818 37678
L63818 37284
" />
<path d="M63021 36659
L63078 36678
L63171 36678
L63209 36659
L63228 36640
L63246 36603
L63246 36565
L63228 36528
L63209 36509
L63171 36490
L63096 36471
L63059 36453
L63040 36434
L63021 36396
L63021 36359
L63040 36321
L63059 36303
L63096 36284
L63190 36284
L63246 36303
" />
<path d="M63415 36678
L63415 36284
L63509 36284
L63565 36303
L63603 36340
L63621 36378
L63640 36453
L63640 36509
L63621 36584
L63603 36621
L63565 36659
L63509 36678
L63415 36678
" />
<path d="M63790 36565
L63978 36565
" />
<path d="M63753 36678
L63884 36284
L64015 36678
" />
<path d="M62984 35659
L63040 35678
L63134 35678
L63171 35659
L63190 35640
L63209 35603
L63209 35565
L63190 35528
L63171 35509
L63134 35490
L63059 35471
L63021 35453
L63003 35434
L62984 35396
L62984 35359
L63003 35321
L63021 35303
L63059 35284
L63153 35284
L63209 35303
" />
<path d="M63378 35678
L63378 35284
L63471 35284
L63528 35303
L63565 35340
L63584 35378
L63603 35453
L63603 35509
L63584 35584
L63565 35621
L63528 35659
L63471 35678
L63378 35678
" />
<path d="M63846 35284
L63921 35284
L63959 35303
L63996 35340
L64015 35415
L64015 35546
L63996 35621
L63959 35659
L63921 35678
L63846 35678
L63809 35659
L63771 35621
L63753 35546
L63753 35415
L63771 35340
L63809 35303
L63846 35284
" />
<path d="M62956 34678
L62956 34284
" />
<path d="M63143 34678
L63143 34284
L63368 34678
L63368 34284
" />
<path d="M63500 34284
L63724 34284
" />
<path d="M63612 34678
L63612 34284
" />
<path d="M63837 34321
L63856 34303
L63893 34284
L63987 34284
L64024 34303
L64043 34321
L64062 34359
L64062 34396
L64043 34453
L63818 34678
L64062 34678
" />
<path d="M62956 33678
L62956 33284
" />
<path d="M63143 33678
L63143 33284
L63368 33678
L63368 33284
" />
<path d="M63500 33284
L63724 33284
" />
<path d="M63612 33678
L63612 33284
" />
<path d="M64062 33678
L63837 33678
" />
<path d="M63949 33678
L63949 33284
L63912 33340
L63874 33378
L63837 33396
" />
<path d="M63434 32640
L63415 32659
L63359 32678
L63321 32678
L63265 32659
L63228 32621
L63209 32584
L63190 32509
L63190 32453
L63209 32378
L63228 32340
L63265 32303
L63321 32284
L63359 32284
L63415 32303
L63434 32321
" />
<path d="M63584 32659
L63640 32678
L63734 32678
L63771 32659
L63790 32640
L63809 32603
L63809 32565
L63790 32528
L63771 32509
L63734 32490
L63659 32471
L63621 32453
L63603 32434
L63584 32396
L63584 32359
L63603 32321
L63621 32303
L63659 32284
L63753 32284
L63809 32303
" />
<path d="M62975 31284
L63106 31678
L63237 31284
" />
<path d="M63593 31640
L63574 31659
L63518 31678
L63481 31678
L63425 31659
L63387 31621
L63368 31584
L63350 31509
L63350 31453
L63368 31378
L63387 31340
L63425 31303
L63481 31284
L63518 31284
L63574 31303
L63593 31321
" />
<path d="M63987 31640
L63968 31659
L63912 31678
L63874 31678
L63818 31659
L63781 31621
L63762 31584
L63743 31509
L63743 31453
L63762 31378
L63781 31340
L63818 31303
L63874 31284
L63912 31284
L63968 31303
L63987 31321
" />
<path d="M63200 30303
L63162 30284
L63106 30284
L63050 30303
L63012 30340
L62993 30378
L62975 30453
L62975 30509
L62993 30584
L63012 30621
L63050 30659
L63106 30678
L63143 30678
L63200 30659
L63218 30640
L63218 30509
L63143 30509
" />
<path d="M63387 30678
L63387 30284
L63612 30678
L63612 30284
" />
<path d="M63799 30678
L63799 30284
L63893 30284
L63949 30303
L63987 30340
L64006 30378
L64024 30453
L64024 30509
L64006 30584
L63987 30621
L63949 30659
L63893 30678
L63799 30678
" />
</g>
<g style="fill:#C2C200; fill-opacity:0.0; 
stroke:#C2C200; stroke-width:59.0551; stroke-opacity:1; 
stroke-linecap:round; stroke-linejoin:round;">
<path d="M52268 36065
L52081 36196
" />
<path d="M52268 36290
L51874 36290
L51874 36140
L51893 36103
L51912 36084
L51949 36065
L52006 36065
L52043 36084
L52062 36103
L52081 36140
L52081 36290
" />
<path d="M52268 35690
L52268 35915
" />
<path d="M52268 35803
L51874 35803
L51931 35840
L51968 35878
L51987 35915
" />
<path d="M55268 36065
L55081 36196
" />
<path d="M55268 36290
L54874 36290
L54874 36140
L54893 36103
L54912 36084
L54949 36065
L55006 36065
L55043 36084
L55062 36103
L55081 36140
L55081 36290
" />
<path d="M54912 35915
L54893 35896
L54874 35859
L54874 35765
L54893 35728
L54912 35709
L54949 35690
L54987 35690
L55043 35709
L55268 35934
L55268 35690
" />
</g>
<g style="fill:#008484; fill-opacity:0.0; 
stroke:#008484; stroke-width:59.0551; stroke-opacity:1; 
stroke-linecap:round; stroke-linejoin:round;">
<path d="M49625 50117
L49625 40275
" />
<path d="M59467 50117
L49625 50117
" />
<path d="M59467 40275
L59467 50117
" />
<path d="M49605 40275
L59467 40275
" />
<path d="M57597 48641
L57597 45688
" />
<path d="M57105 42341
L57597 42341
" />
<path d="M57597 42341
L57597 48641
" />
<path d="M57597 48641
L51298 48641
" />
<path d="M51298 48641
L51298 42341
" />
<path d="M51298 42341
L57597 42341
" />
<path d="M49000 16000
L58500 16000
" />
<path d="M58500 16000
L58500 32500
" />
<path d="M58500 32500
L49000 32500
" />
<path d="M49000 32500
L49000 16000
" />
<path d="M52500 13500
L52500 13000
" />
<path d="M52500 13000
L55500 13000
" />
<path d="M55500 13000
L55500 13500
" />
<path d="M52000 18000
L52000 19500
" />
<path d="M52000 19500
L53000 19500
" />
<path d="M53000 19500
L53000 18000
" />
<path d="M53000 18000
L52000 18000
" />
<path d="M52500 15500
L55500 15500
" />
<path d="M55500 15500
L55500 13500
" />
<path d="M52500 15500
L52500 13500
" />
<path d="M52000 16000
L52000 17000
" />
<path d="M52000 17000
L53000 17000
" />
<path d="M53000 17000
L53000 16000
" />
<path d="M53000 16000
L52000 16000
" />
<path d="M55000 26500
L53000 26500
" />
<path d="M53000 26500
L53000 25500
" />
<path d="M53000 25500
L55000 25500
" />
<path d="M55000 25500
L55000 26500
" />
<path d="M52000 24000
L56000 24000
" />
<path d="M56000 20500
L52000 20500
" />
<path d="M56000 24000
L56000 20500
" />
<path d="M52000 24000
L52000 20500
" />
<path d="M57500 13500
L57500 27500
" />
<path d="M57500 27500
L50500 27500
" />
<path d="M50500 27500
L50500 13500
" />
<path d="M50500 13500
L57500 13500
" />
</g>
<g style="fill:#008484; fill-opacity:0.0; 
stroke:#008484; stroke-width:47.2441; stroke-opacity:1; 
stroke-linecap:round; stroke-linejoin:round;">
<path d="M50181 27984
L51803 27984
" />
<path d="M50181 29015
L51803 29015
" />
<path d="M50181 27984
L50181 28204
" />
<path d="M50181 28795
L50181 29015
" />
<path d="M51803 27984
L51803 28204
" />
<path d="M51803 28795
L51803 29015
" />
<path d="M50181 29484
L51803 29484
" />
<path d="M50181 30515
L51803 30515
" />
<path d="M50181 29484
L50181 29704
" />
<path d="M50181 30295
L50181 30515
" />
<path d="M51803 29484
L51803 29704
" />
<path d="M51803 30295
L51803 30515
" />
</g>
<g style="fill:#008484; fill-opacity:0.0; 
stroke:#008484; stroke-width:59.0551; stroke-opacity:1; 
stroke-linecap:round; stroke-linejoin:round;">
<path d="M40500 39000
L40500 32500
" />
<path d="M40500 32500
L45500 32500
" />
<path d="M45500 32500
L45500 39000
" />
<path d="M45500 39000
L40500 39000
" />
<path d="M62000 39000
L62000 30000
" />
<path d="M62000 30000
L69000 30000
" />
<path d="M69000 30000
L69000 39000
" />
<path d="M69000 39000
L62000 39000
" />
</g>
<g style="fill:#008484; fill-opacity:0.0; 
stroke:#008484; stroke-width:47.2441; stroke-opacity:1; 
stroke-linecap:round; stroke-linejoin:round;">
<path d="M52484 37263
L53515 37263
" />
<path d="M53515 37263
L53515 34736
" />
<path d="M53515 34736
L52484 34736
" />
<path d="M52484 34736
L52484 37263
" />
<path d="M53000 37614
L53000 37263
" />
<path d="M53000 34385
L53000 34736
" />
<path d="M55484 37263
L56515 37263
" />
<path d="M56515 37263
L56515 34736
" />
<path d="M56515 34736
L55484 34736
" />
<path d="M55484 34736
L55484 37263
" />
<path d="M56000 37614
L56000 37263
" />
<path d="M56000 34385
L56000 34736
" />
</g>
<g style="fill:#840000; fill-opacity:0.0; 
stroke:#840000; stroke-width:47.2441; stroke-opacity:1; 
stroke-linecap:round; stroke-linejoin:round;">
</g>
<g style="fill:#840000; fill-opacity:1.0; 
stroke:#840000; stroke-width:0; stroke-opacity:1; 
stroke-linecap:round; stroke-linejoin:round;">
<circle cx="54000" cy="27000" r="314.961" /> 
</g>
<g style="fill:#840000; fill-opacity:1.0; 
stroke:#840000; stroke-width:39.3701; stroke-opacity:1; 
stroke-linecap:round; stroke-linejoin:round;">
</g>
<g style="fill:#840000; fill-opacity:1.0; 
stroke:#840000; stroke-width:0; stroke-opacity:1; 
stroke-linecap:round; stroke-linejoin:round;">
<circle cx="55000" cy="27000" r="314.961" /> 
</g>
<g style="fill:#840000; fill-opacity:1.0; 
stroke:#840000; stroke-width:39.3701; stroke-opacity:1; 
stroke-linecap:round; stroke-linejoin:round;">
</g>
<g style="fill:#840000; fill-opacity:1.0; 
stroke:#840000; stroke-width:0; stroke-opacity:1; 
stroke-linecap:round; stroke-linejoin:round;">
<circle cx="56000" cy="27000" r="314.961" /> 
</g>
<g style="fill:#840000; fill-opacity:1.0; 
stroke:#840000; stroke-width:39.3701; stroke-opacity:1; 
stroke-linecap:round; stroke-linejoin:round;">
</g>
<g style="fill:#840000; fill-opacity:1.0; 
stroke:#840000; stroke-width:0; stroke-opacity:1; 
stroke-linecap:round; stroke-linejoin:round;">
<circle cx="57000" cy="27000" r="314.961" /> 
</g>
<g style="fill:#840000; fill-opacity:1.0; 
stroke:#840000; stroke-width:39.3701; stroke-opacity:1; 
stroke-linecap:round; stroke-linejoin:round;">
</g>
<g style="fill:#840000; fill-opacity:1.0; 
stroke:#840000; stroke-width:0; stroke-opacity:1; 
stroke-linecap:round; stroke-linejoin:round;">
<circle cx="53000" cy="27000" r="314.961" /> 
</g>
<g style="fill:#840000; fill-opacity:1.0; 
stroke:#840000; stroke-width:39.3701; stroke-opacity:1; 
stroke-linecap:round; stroke-linejoin:round;">
</g>
<g style="fill:#840000; fill-opacity:1.0; 
stroke:#840000; stroke-width:0; stroke-opacity:1; 
stroke-linecap:round; stroke-linejoin:round;">
<circle cx="52000" cy="27000" r="314.961" /> 
</g>
<g style="fill:#840000; fill-opacity:1.0; 
stroke:#840000; stroke-width:39.3701; stroke-opacity:1; 
stroke-linecap:round; stroke-linejoin:round;">
</g>
<g style="fill:#840000; fill-opacity:1.0; 
stroke:#840000; stroke-width:0; stroke-opacity:1; 
stroke-linecap:round; stroke-linejoin:round;">
<circle cx="51000" cy="27000" r="314.961" /> 
</g>
<g style="fill:#840000; fill-opacity:1.0; 
stroke:#840000; stroke-width:39.3701; stroke-opacity:1; 
stroke-linecap:round; stroke-linejoin:round;">
</g>
<g style="fill:#840000; fill-opacity:1.0; 
stroke:#840000; stroke-width:0; stroke-opacity:1; 
stroke-linecap:round; stroke-linejoin:round;">
<circle cx="57000" cy="26000" r="314.961" /> 
</g>
<g style="fill:#840000; fill-opacity:1.0; 
stroke:#840000; stroke-width:39.3701; stroke-opacity:1; 
stroke-linecap:round; stroke-linejoin:round;">
</g>
<g style="fill:#840000; fill-opacity:1.0; 
stroke:#840000; stroke-width:0; stroke-opacity:1; 
stroke-linecap:round; stroke-linejoin:round;">
<circle cx="57000" cy="25000" r="314.961" /> 
</g>
<g style="fill:#840000; fill-opacity:1.0; 
stroke:#840000; stroke-width:39.3701; stroke-opacity:1; 
stroke-linecap:round; stroke-linejoin:round;">
</g>
<g style="fill:#840000; fill-opacity:1.0; 
stroke:#840000; stroke-width:0; stroke-opacity:1; 
stroke-linecap:round; stroke-linejoin:round;">
<circle cx="57000" cy="24000" r="314.961" /> 
</g>
<g style="fill:#840000; fill-opacity:1.0; 
stroke:#840000; stroke-width:39.3701; stroke-opacity:1; 
stroke-linecap:round; stroke-linejoin:round;">
</g>
<g style="fill:#840000; fill-opacity:1.0; 
stroke:#840000; stroke-width:0; stroke-opacity:1; 
stroke-linecap:round; stroke-linejoin:round;">
<circle cx="57000" cy="23000" r="314.961" /> 
</g>
<g style="fill:#840000; fill-opacity:1.0; 
stroke:#840000; stroke-width:39.3701; stroke-opacity:1; 
stroke-linecap:round; stroke-linejoin:round;">
</g>
<g style="fill:#840000; fill-opacity:1.0; 
stroke:#840000; stroke-width:0; stroke-opacity:1; 
stroke-linecap:round; stroke-linejoin:round;">
<circle cx="57000" cy="22000" r="314.961" /> 
</g>
<g style="fill:#840000; fill-opacity:1.0; 
stroke:#840000; stroke-width:39.3701; stroke-opacity:1; 
stroke-linecap:round; stroke-linejoin:round;">
</g>
<g style="fill:#840000; fill-opacity:1.0; 
stroke:#840000; stroke-width:0; stroke-opacity:1; 
stroke-linecap:round; stroke-linejoin:round;">
<circle cx="57000" cy="21000" r="314.961" /> 
</g>
<g style="fill:#840000; fill-opacity:1.0; 
stroke:#840000; stroke-width:39.3701; stroke-opacity:1; 
stroke-linecap:round; stroke-linejoin:round;">
</g>
<g style="fill:#840000; fill-opacity:1.0; 
stroke:#840000; stroke-width:0; stroke-opacity:1; 
stroke-linecap:round; stroke-linejoin:round;">
<circle cx="57000" cy="20000" r="314.961" /> 
</g>
<g style="fill:#840000; fill-opacity:1.0; 
stroke:#840000; stroke-width:39.3701; stroke-opacity:1; 
stroke-linecap:round; stroke-linejoin:round;">
</g>
<g style="fill:#840000; fill-opacity:1.0; 
stroke:#840000; stroke-width:0; stroke-opacity:1; 
stroke-linecap:round; stroke-linejoin:round;">
<circle cx="57000" cy="19000" r="314.961" /> 
</g>
<g style="fill:#840000; fill-opacity:1.0; 
stroke:#840000; stroke-width:39.3701; stroke-opacity:1; 
stroke-linecap:round; stroke-linejoin:round;">
</g>
<g style="fill:#840000; fill-opacity:1.0; 
stroke:#840000; stroke-width:0; stroke-opacity:1; 
stroke-linecap:round; stroke-linejoin:round;">
<circle cx="57000" cy="18000" r="314.961" /> 
</g>
<g style="fill:#840000; fill-opacity:1.0; 
stroke:#840000; stroke-width:39.3701; stroke-opacity:1; 
stroke-linecap:round; stroke-linejoin:round;">
</g>
<g style="fill:#840000; fill-opacity:1.0; 
stroke:#840000; stroke-width:0; stroke-opacity:1; 
stroke-linecap:round; stroke-linejoin:round;">
<circle cx="57000" cy="17000" r="314.961" /> 
</g>
<g style="fill:#840000; fill-opacity:1.0; 
stroke:#840000; stroke-width:39.3701; stroke-opacity:1; 
stroke-linecap:round; stroke-linejoin:round;">
</g>
<g style="fill:#840000; fill-opacity:1.0; 
stroke:#840000; stroke-width:0; stroke-opacity:1; 
stroke-linecap:round; stroke-linejoin:round;">
<circle cx="57000" cy="16000" r="314.961" /> 
</g>
<g style="fill:#840000; fill-opacity:1.0; 
stroke:#840000; stroke-width:39.3701; stroke-opacity:1; 
stroke-linecap:round; stroke-linejoin:round;">
</g>
<g style="fill:#840000; fill-opacity:1.0; 
stroke:#840000; stroke-width:0; stroke-opacity:1; 
stroke-linecap:round; stroke-linejoin:round;">
<circle cx="57000" cy="15000" r="314.961" /> 
</g>
<g style="fill:#840000; fill-opacity:1.0; 
stroke:#840000; stroke-width:39.3701; stroke-opacity:1; 
stroke-linecap:round; stroke-linejoin:round;">
</g>
<g style="fill:#840000; fill-opacity:1.0; 
stroke:#840000; stroke-width:0; stroke-opacity:1; 
stroke-linecap:round; stroke-linejoin:round;">
<circle cx="57000" cy="14000" r="314.961" /> 
</g>
<g style="fill:#840000; fill-opacity:1.0; 
stroke:#840000; stroke-width:39.3701; stroke-opacity:1; 
stroke-linecap:round; stroke-linejoin:round;">
</g>
<g style="fill:#840000; fill-opacity:1.0; 
stroke:#840000; stroke-width:0; stroke-opacity:1; 
stroke-linecap:round; stroke-linejoin:round;">
<circle cx="56000" cy="15000" r="314.961" /> 
</g>
<g style="fill:#840000; fill-opacity:1.0; 
stroke:#840000; stroke-width:39.3701; stroke-opacity:1; 
stroke-linecap:round; stroke-linejoin:round;">
</g>
<g style="fill:#840000; fill-opacity:1.0; 
stroke:#840000; stroke-width:0; stroke-opacity:1; 
stroke-linecap:round; stroke-linejoin:round;">
<circle cx="56000" cy="17000" r="314.961" /> 
</g>
<g style="fill:#840000; fill-opacity:1.0; 
stroke:#840000; stroke-width:39.3701; stroke-opacity:1; 
stroke-linecap:round; stroke-linejoin:round;">
</g>
<g style="fill:#840000; fill-opacity:1.0; 
stroke:#840000; stroke-width:0; stroke-opacity:1; 
stroke-linecap:round; stroke-linejoin:round;">
<circle cx="56000" cy="18000" r="314.961" /> 
</g>
<g style="fill:#840000; fill-opacity:1.0; 
stroke:#840000; stroke-width:39.3701; stroke-opacity:1; 
stroke-linecap:round; stroke-linejoin:round;">
</g>
<g style="fill:#840000; fill-opacity:1.0; 
stroke:#840000; stroke-width:0; stroke-opacity:1; 
stroke-linecap:round; stroke-linejoin:round;">
<circle cx="56000" cy="19000" r="314.961" /> 
</g>
<g style="fill:#840000; fill-opacity:1.0; 
stroke:#840000; stroke-width:39.3701; stroke-opacity:1; 
stroke-linecap:round; stroke-linejoin:round;">
</g>
<g style="fill:#840000; fill-opacity:1.0; 
stroke:#840000; stroke-width:0; stroke-opacity:1; 
stroke-linecap:round; stroke-linejoin:round;">
<circle cx="51000" cy="26000" r="314.961" /> 
</g>
<g style="fill:#840000; fill-opacity:1.0; 
stroke:#840000; stroke-width:39.3701; stroke-opacity:1; 
stroke-linecap:round; stroke-linejoin:round;">
</g>
<g style="fill:#840000; fill-opacity:1.0; 
stroke:#840000; stroke-width:0; stroke-opacity:1; 
stroke-linecap:round; stroke-linejoin:round;">
<circle cx="51000" cy="25000" r="314.961" /> 
</g>
<g style="fill:#840000; fill-opacity:1.0; 
stroke:#840000; stroke-width:39.3701; stroke-opacity:1; 
stroke-linecap:round; stroke-linejoin:round;">
</g>
<g style="fill:#840000; fill-opacity:1.0; 
stroke:#840000; stroke-width:0; stroke-opacity:1; 
stroke-linecap:round; stroke-linejoin:round;">
<circle cx="51000" cy="24000" r="314.961" /> 
</g>
<g style="fill:#840000; fill-opacity:1.0; 
stroke:#840000; stroke-width:39.3701; stroke-opacity:1; 
stroke-linecap:round; stroke-linejoin:round;">
</g>
<g style="fill:#840000; fill-opacity:1.0; 
stroke:#840000; stroke-width:0; stroke-opacity:1; 
stroke-linecap:round; stroke-linejoin:round;">
<circle cx="51000" cy="23000" r="314.961" /> 
</g>
<g style="fill:#840000; fill-opacity:1.0; 
stroke:#840000; stroke-width:39.3701; stroke-opacity:1; 
stroke-linecap:round; stroke-linejoin:round;">
</g>
<g style="fill:#840000; fill-opacity:1.0; 
stroke:#840000; stroke-width:0; stroke-opacity:1; 
stroke-linecap:round; stroke-linejoin:round;">
<circle cx="51000" cy="22000" r="314.961" /> 
</g>
<g style="fill:#840000; fill-opacity:1.0; 
stroke:#840000; stroke-width:39.3701; stroke-opacity:1; 
stroke-linecap:round; stroke-linejoin:round;">
</g>
<g style="fill:#840000; fill-opacity:1.0; 
stroke:#840000; stroke-width:0; stroke-opacity:1; 
stroke-linecap:round; stroke-linejoin:round;">
<circle cx="51000" cy="21000" r="314.961" /> 
</g>
<g style="fill:#840000; fill-opacity:1.0; 
stroke:#840000; stroke-width:39.3701; stroke-opacity:1; 
stroke-linecap:round; stroke-linejoin:round;">
</g>
<g style="fill:#840000; fill-opacity:1.0; 
stroke:#840000; stroke-width:0; stroke-opacity:1; 
stroke-linecap:round; stroke-linejoin:round;">
<circle cx="51000" cy="20000" r="314.961" /> 
</g>
<g style="fill:#840000; fill-opacity:1.0; 
stroke:#840000; stroke-width:39.3701; stroke-opacity:1; 
stroke-linecap:round; stroke-linejoin:round;">
</g>
<g style="fill:#840000; fill-opacity:1.0; 
stroke:#840000; stroke-width:0; stroke-opacity:1; 
stroke-linecap:round; stroke-linejoin:round;">
<circle cx="51000" cy="19000" r="314.961" /> 
</g>
<g style="fill:#840000; fill-opacity:1.0; 
stroke:#840000; stroke-width:39.3701; stroke-opacity:1; 
stroke-linecap:round; stroke-linejoin:round;">
</g>
<g style="fill:#840000; fill-opacity:1.0; 
stroke:#840000; stroke-width:0; stroke-opacity:1; 
stroke-linecap:round; stroke-linejoin:round;">
<circle cx="51000" cy="18000" r="314.961" /> 
</g>
<g style="fill:#840000; fill-opacity:1.0; 
stroke:#840000; stroke-width:39.3701; stroke-opacity:1; 
stroke-linecap:round; stroke-linejoin:round;">
</g>
<g style="fill:#840000; fill-opacity:1.0; 
stroke:#840000; stroke-width:0; stroke-opacity:1; 
stroke-linecap:round; stroke-linejoin:round;">
<circle cx="51000" cy="17000" r="314.961" /> 
</g>
<g style="fill:#840000; fill-opacity:1.0; 
stroke:#840000; stroke-width:39.3701; stroke-opacity:1; 
stroke-linecap:round; stroke-linejoin:round;">
</g>
<g style="fill:#840000; fill-opacity:1.0; 
stroke:#840000; stroke-width:0; stroke-opacity:1; 
stroke-linecap:round; stroke-linejoin:round;">
<circle cx="51000" cy="16000" r="314.961" /> 
</g>
<g style="fill:#840000; fill-opacity:1.0; 
stroke:#840000; stroke-width:39.3701; stroke-opacity:1; 
stroke-linecap:round; stroke-linejoin:round;">
</g>
<g style="fill:#840000; fill-opacity:1.0; 
stroke:#840000; stroke-width:0; stroke-opacity:1; 
stroke-linecap:round; stroke-linejoin:round;">
<circle cx="51000" cy="15000" r="314.961" /> 
</g>
<g style="fill:#840000; fill-opacity:1.0; 
stroke:#840000; stroke-width:39.3701; stroke-opacity:1; 
stroke-linecap:round; stroke-linejoin:round;">
</g>
<g style="fill:#840000; fill-opacity:1.0; 
stroke:#840000; stroke-width:0; stroke-opacity:1; 
stroke-linecap:round; stroke-linejoin:round;">
<polyline style="fill-rule:evenodd;"
points="50685,13685
51314,13685
51314,14314
50685,14314
50685,13685
" /> 
</g> 
</svg>
