G04 #@! TF.GenerationSoftware,KiCad,Pcbnew,(5.0.0)*
G04 #@! TF.CreationDate,2018-10-04T00:03:41-07:00*
G04 #@! TF.ProjectId,GPSLogger,4750534C6F676765722E6B696361645F,rev?*
G04 #@! TF.SameCoordinates,Original*
G04 #@! TF.FileFunction,Legend,Top*
G04 #@! TF.FilePolarity,Positive*
%FSLAX46Y46*%
G04 Gerber Fmt 4.6, Leading zero omitted, Abs format (unit mm)*
G04 Created by KiCad (PCBNEW (5.0.0)) date 10/04/18 00:03:41*
%MOMM*%
%LPD*%
G01*
G04 APERTURE LIST*
%ADD10C,0.375000*%
%ADD11C,0.300000*%
%ADD12C,0.120000*%
%ADD13C,0.150000*%
G04 APERTURE END LIST*
D10*
X150120642Y-97406285D02*
X150192071Y-97192000D01*
X150192071Y-96834857D01*
X150120642Y-96692000D01*
X150049214Y-96620571D01*
X149906357Y-96549142D01*
X149763500Y-96549142D01*
X149620642Y-96620571D01*
X149549214Y-96692000D01*
X149477785Y-96834857D01*
X149406357Y-97120571D01*
X149334928Y-97263428D01*
X149263500Y-97334857D01*
X149120642Y-97406285D01*
X148977785Y-97406285D01*
X148834928Y-97334857D01*
X148763500Y-97263428D01*
X148692071Y-97120571D01*
X148692071Y-96763428D01*
X148763500Y-96549142D01*
X150120642Y-95263428D02*
X150192071Y-95406285D01*
X150192071Y-95692000D01*
X150120642Y-95834857D01*
X150049214Y-95906285D01*
X149906357Y-95977714D01*
X149477785Y-95977714D01*
X149334928Y-95906285D01*
X149263500Y-95834857D01*
X149192071Y-95692000D01*
X149192071Y-95406285D01*
X149263500Y-95263428D01*
X150192071Y-94406285D02*
X150120642Y-94549142D01*
X150049214Y-94620571D01*
X149906357Y-94692000D01*
X149477785Y-94692000D01*
X149334928Y-94620571D01*
X149263500Y-94549142D01*
X149192071Y-94406285D01*
X149192071Y-94192000D01*
X149263500Y-94049142D01*
X149334928Y-93977714D01*
X149477785Y-93906285D01*
X149906357Y-93906285D01*
X150049214Y-93977714D01*
X150120642Y-94049142D01*
X150192071Y-94192000D01*
X150192071Y-94406285D01*
X149192071Y-93477714D02*
X149192071Y-92906285D01*
X148692071Y-93263428D02*
X149977785Y-93263428D01*
X150120642Y-93192000D01*
X150192071Y-93049142D01*
X150192071Y-92906285D01*
X149192071Y-92620571D02*
X149192071Y-92049142D01*
X148692071Y-92406285D02*
X149977785Y-92406285D01*
X150120642Y-92334857D01*
X150192071Y-92192000D01*
X150192071Y-92049142D01*
X150049214Y-89549142D02*
X150120642Y-89620571D01*
X150192071Y-89834857D01*
X150192071Y-89977714D01*
X150120642Y-90192000D01*
X149977785Y-90334857D01*
X149834928Y-90406285D01*
X149549214Y-90477714D01*
X149334928Y-90477714D01*
X149049214Y-90406285D01*
X148906357Y-90334857D01*
X148763500Y-90192000D01*
X148692071Y-89977714D01*
X148692071Y-89834857D01*
X148763500Y-89620571D01*
X148834928Y-89549142D01*
X150192071Y-88692000D02*
X150120642Y-88834857D01*
X150049214Y-88906285D01*
X149906357Y-88977714D01*
X149477785Y-88977714D01*
X149334928Y-88906285D01*
X149263500Y-88834857D01*
X149192071Y-88692000D01*
X149192071Y-88477714D01*
X149263500Y-88334857D01*
X149334928Y-88263428D01*
X149477785Y-88192000D01*
X149906357Y-88192000D01*
X150049214Y-88263428D01*
X150120642Y-88334857D01*
X150192071Y-88477714D01*
X150192071Y-88692000D01*
X150049214Y-87549142D02*
X150120642Y-87477714D01*
X150192071Y-87549142D01*
X150120642Y-87620571D01*
X150049214Y-87549142D01*
X150192071Y-87549142D01*
X151388500Y-99763428D02*
X151317071Y-99906285D01*
X151317071Y-100120571D01*
X151388500Y-100334857D01*
X151531357Y-100477714D01*
X151674214Y-100549142D01*
X151959928Y-100620571D01*
X152174214Y-100620571D01*
X152459928Y-100549142D01*
X152602785Y-100477714D01*
X152745642Y-100334857D01*
X152817071Y-100120571D01*
X152817071Y-99977714D01*
X152745642Y-99763428D01*
X152674214Y-99692000D01*
X152174214Y-99692000D01*
X152174214Y-99977714D01*
X152817071Y-99049142D02*
X151317071Y-99049142D01*
X151317071Y-98477714D01*
X151388500Y-98334857D01*
X151459928Y-98263428D01*
X151602785Y-98192000D01*
X151817071Y-98192000D01*
X151959928Y-98263428D01*
X152031357Y-98334857D01*
X152102785Y-98477714D01*
X152102785Y-99049142D01*
X152745642Y-97620571D02*
X152817071Y-97406285D01*
X152817071Y-97049142D01*
X152745642Y-96906285D01*
X152674214Y-96834857D01*
X152531357Y-96763428D01*
X152388500Y-96763428D01*
X152245642Y-96834857D01*
X152174214Y-96906285D01*
X152102785Y-97049142D01*
X152031357Y-97334857D01*
X151959928Y-97477714D01*
X151888500Y-97549142D01*
X151745642Y-97620571D01*
X151602785Y-97620571D01*
X151459928Y-97549142D01*
X151388500Y-97477714D01*
X151317071Y-97334857D01*
X151317071Y-96977714D01*
X151388500Y-96763428D01*
X152817071Y-94263428D02*
X152817071Y-94977714D01*
X151317071Y-94977714D01*
X152817071Y-93549142D02*
X152745642Y-93692000D01*
X152674214Y-93763428D01*
X152531357Y-93834857D01*
X152102785Y-93834857D01*
X151959928Y-93763428D01*
X151888500Y-93692000D01*
X151817071Y-93549142D01*
X151817071Y-93334857D01*
X151888500Y-93192000D01*
X151959928Y-93120571D01*
X152102785Y-93049142D01*
X152531357Y-93049142D01*
X152674214Y-93120571D01*
X152745642Y-93192000D01*
X152817071Y-93334857D01*
X152817071Y-93549142D01*
X151817071Y-91763428D02*
X153031357Y-91763428D01*
X153174214Y-91834857D01*
X153245642Y-91906285D01*
X153317071Y-92049142D01*
X153317071Y-92263428D01*
X153245642Y-92406285D01*
X152745642Y-91763428D02*
X152817071Y-91906285D01*
X152817071Y-92192000D01*
X152745642Y-92334857D01*
X152674214Y-92406285D01*
X152531357Y-92477714D01*
X152102785Y-92477714D01*
X151959928Y-92406285D01*
X151888500Y-92334857D01*
X151817071Y-92192000D01*
X151817071Y-91906285D01*
X151888500Y-91763428D01*
X151817071Y-90406285D02*
X153031357Y-90406285D01*
X153174214Y-90477714D01*
X153245642Y-90549142D01*
X153317071Y-90692000D01*
X153317071Y-90906285D01*
X153245642Y-91049142D01*
X152745642Y-90406285D02*
X152817071Y-90549142D01*
X152817071Y-90834857D01*
X152745642Y-90977714D01*
X152674214Y-91049142D01*
X152531357Y-91120571D01*
X152102785Y-91120571D01*
X151959928Y-91049142D01*
X151888500Y-90977714D01*
X151817071Y-90834857D01*
X151817071Y-90549142D01*
X151888500Y-90406285D01*
X152745642Y-89120571D02*
X152817071Y-89263428D01*
X152817071Y-89549142D01*
X152745642Y-89692000D01*
X152602785Y-89763428D01*
X152031357Y-89763428D01*
X151888500Y-89692000D01*
X151817071Y-89549142D01*
X151817071Y-89263428D01*
X151888500Y-89120571D01*
X152031357Y-89049142D01*
X152174214Y-89049142D01*
X152317071Y-89763428D01*
X152817071Y-88406285D02*
X151817071Y-88406285D01*
X152102785Y-88406285D02*
X151959928Y-88334857D01*
X151888500Y-88263428D01*
X151817071Y-88120571D01*
X151817071Y-87977714D01*
X151317071Y-86549142D02*
X152817071Y-86049142D01*
X151317071Y-85549142D01*
X151817071Y-84406285D02*
X152817071Y-84406285D01*
X151245642Y-84763428D02*
X152317071Y-85120571D01*
X152317071Y-84192000D01*
D11*
X129430571Y-100300000D02*
X129430571Y-100014285D01*
X129502000Y-99871428D01*
X129644857Y-99728571D01*
X129930571Y-99657142D01*
X130430571Y-99657142D01*
X130716285Y-99728571D01*
X130859142Y-99871428D01*
X130930571Y-100014285D01*
X130930571Y-100300000D01*
X130859142Y-100442857D01*
X130716285Y-100585714D01*
X130430571Y-100657142D01*
X129930571Y-100657142D01*
X129644857Y-100585714D01*
X129502000Y-100442857D01*
X129430571Y-100300000D01*
X129930571Y-99228571D02*
X129930571Y-98657142D01*
X130930571Y-99014285D02*
X129644857Y-99014285D01*
X129502000Y-98942857D01*
X129430571Y-98800000D01*
X129430571Y-98657142D01*
X129930571Y-98371428D02*
X129930571Y-97800000D01*
X130930571Y-98157142D02*
X129644857Y-98157142D01*
X129502000Y-98085714D01*
X129430571Y-97942857D01*
X129430571Y-97800000D01*
X128668571Y-90215428D02*
X128668571Y-89929714D01*
X128740000Y-89786857D01*
X128882857Y-89644000D01*
X129168571Y-89572571D01*
X129668571Y-89572571D01*
X129954285Y-89644000D01*
X130097142Y-89786857D01*
X130168571Y-89929714D01*
X130168571Y-90215428D01*
X130097142Y-90358285D01*
X129954285Y-90501142D01*
X129668571Y-90572571D01*
X129168571Y-90572571D01*
X128882857Y-90501142D01*
X128740000Y-90358285D01*
X128668571Y-90215428D01*
X129168571Y-88929714D02*
X130168571Y-88929714D01*
X129311428Y-88929714D02*
X129240000Y-88858285D01*
X129168571Y-88715428D01*
X129168571Y-88501142D01*
X129240000Y-88358285D01*
X129382857Y-88286857D01*
X130168571Y-88286857D01*
X127652571Y-87092000D02*
X127652571Y-86806285D01*
X127724000Y-86663428D01*
X127866857Y-86520571D01*
X128152571Y-86449142D01*
X128652571Y-86449142D01*
X128938285Y-86520571D01*
X129081142Y-86663428D01*
X129152571Y-86806285D01*
X129152571Y-87092000D01*
X129081142Y-87234857D01*
X128938285Y-87377714D01*
X128652571Y-87449142D01*
X128152571Y-87449142D01*
X127866857Y-87377714D01*
X127724000Y-87234857D01*
X127652571Y-87092000D01*
X128152571Y-86020571D02*
X128152571Y-85449142D01*
X129152571Y-85806285D02*
X127866857Y-85806285D01*
X127724000Y-85734857D01*
X127652571Y-85592000D01*
X127652571Y-85449142D01*
X128152571Y-85163428D02*
X128152571Y-84592000D01*
X129152571Y-84949142D02*
X127866857Y-84949142D01*
X127724000Y-84877714D01*
X127652571Y-84734857D01*
X127652571Y-84592000D01*
X127652571Y-75991428D02*
X127652571Y-75705714D01*
X127724000Y-75562857D01*
X127866857Y-75420000D01*
X128152571Y-75348571D01*
X128652571Y-75348571D01*
X128938285Y-75420000D01*
X129081142Y-75562857D01*
X129152571Y-75705714D01*
X129152571Y-75991428D01*
X129081142Y-76134285D01*
X128938285Y-76277142D01*
X128652571Y-76348571D01*
X128152571Y-76348571D01*
X127866857Y-76277142D01*
X127724000Y-76134285D01*
X127652571Y-75991428D01*
X128152571Y-74705714D02*
X129152571Y-74705714D01*
X128295428Y-74705714D02*
X128224000Y-74634285D01*
X128152571Y-74491428D01*
X128152571Y-74277142D01*
X128224000Y-74134285D01*
X128366857Y-74062857D01*
X129152571Y-74062857D01*
X126636571Y-71212571D02*
X126636571Y-70355428D01*
X128136571Y-70784000D02*
X126636571Y-70784000D01*
X128136571Y-69998285D02*
X127136571Y-69212571D01*
X127136571Y-69998285D02*
X128136571Y-69212571D01*
X128136571Y-63212571D02*
X127422285Y-63712571D01*
X128136571Y-64069714D02*
X126636571Y-64069714D01*
X126636571Y-63498285D01*
X126708000Y-63355428D01*
X126779428Y-63284000D01*
X126922285Y-63212571D01*
X127136571Y-63212571D01*
X127279428Y-63284000D01*
X127350857Y-63355428D01*
X127422285Y-63498285D01*
X127422285Y-64069714D01*
X128136571Y-62712571D02*
X127136571Y-61926857D01*
X127136571Y-62712571D02*
X128136571Y-61926857D01*
D12*
G04 #@! TO.C,C1*
X67252000Y-43332000D02*
X66252000Y-43332000D01*
X66252000Y-45032000D02*
X67252000Y-45032000D01*
G04 #@! TO.C,C2*
X150310000Y-62128000D02*
X149310000Y-62128000D01*
X149310000Y-63828000D02*
X150310000Y-63828000D01*
G04 #@! TO.C,debug_conn1*
X158870000Y-35740000D02*
X158870000Y-43480000D01*
X158870000Y-43480000D02*
X161530000Y-43480000D01*
X161530000Y-43480000D02*
X161530000Y-35740000D01*
X161530000Y-35740000D02*
X158870000Y-35740000D01*
X161530000Y-36690000D02*
X167530000Y-36690000D01*
X167530000Y-36690000D02*
X167530000Y-37450000D01*
X167530000Y-37450000D02*
X161530000Y-37450000D01*
X161530000Y-36750000D02*
X167530000Y-36750000D01*
X161530000Y-36870000D02*
X167530000Y-36870000D01*
X161530000Y-36990000D02*
X167530000Y-36990000D01*
X161530000Y-37110000D02*
X167530000Y-37110000D01*
X161530000Y-37230000D02*
X167530000Y-37230000D01*
X161530000Y-37350000D02*
X167530000Y-37350000D01*
X158540000Y-36690000D02*
X158870000Y-36690000D01*
X158540000Y-37450000D02*
X158870000Y-37450000D01*
X158870000Y-38340000D02*
X161530000Y-38340000D01*
X161530000Y-39230000D02*
X167530000Y-39230000D01*
X167530000Y-39230000D02*
X167530000Y-39990000D01*
X167530000Y-39990000D02*
X161530000Y-39990000D01*
X158472929Y-39230000D02*
X158870000Y-39230000D01*
X158472929Y-39990000D02*
X158870000Y-39990000D01*
X158870000Y-40880000D02*
X161530000Y-40880000D01*
X161530000Y-41770000D02*
X167530000Y-41770000D01*
X167530000Y-41770000D02*
X167530000Y-42530000D01*
X167530000Y-42530000D02*
X161530000Y-42530000D01*
X158472929Y-41770000D02*
X158870000Y-41770000D01*
X158472929Y-42530000D02*
X158870000Y-42530000D01*
X156160000Y-37070000D02*
X156160000Y-35800000D01*
X156160000Y-35800000D02*
X157430000Y-35800000D01*
D13*
G04 #@! TO.C,Fun_BTN1*
X187910000Y-61200000D02*
X187910000Y-55200000D01*
X187910000Y-55200000D02*
X184910000Y-55200000D01*
X184910000Y-55200000D02*
X184910000Y-61200000D01*
X184910000Y-61200000D02*
X187910000Y-61200000D01*
G04 #@! TO.C,Fun_BTN2*
X192990000Y-61200000D02*
X192990000Y-55200000D01*
X192990000Y-55200000D02*
X189990000Y-55200000D01*
X189990000Y-55200000D02*
X189990000Y-61200000D01*
X189990000Y-61200000D02*
X192990000Y-61200000D01*
G04 #@! TO.C,Fun_BTN3*
X182195000Y-61200000D02*
X182195000Y-55200000D01*
X182195000Y-55200000D02*
X179195000Y-55200000D01*
X179195000Y-55200000D02*
X179195000Y-61200000D01*
X179195000Y-61200000D02*
X182195000Y-61200000D01*
D12*
G04 #@! TO.C,GPS_CONN1*
X60402000Y-68312000D02*
X60402000Y-67042000D01*
X60402000Y-67042000D02*
X61672000Y-67042000D01*
G04 #@! TO.C,LED_D1*
X177982000Y-29512000D02*
X177982000Y-30912000D01*
X177982000Y-30912000D02*
X180782000Y-30912000D01*
X177982000Y-29512000D02*
X180782000Y-29512000D01*
G04 #@! TO.C,LED_D2*
X140644000Y-31544000D02*
X140644000Y-32944000D01*
X140644000Y-32944000D02*
X143444000Y-32944000D01*
X140644000Y-31544000D02*
X143444000Y-31544000D01*
G04 #@! TO.C,LED_D3*
X146994000Y-31544000D02*
X146994000Y-32944000D01*
X146994000Y-32944000D02*
X149794000Y-32944000D01*
X146994000Y-31544000D02*
X149794000Y-31544000D01*
G04 #@! TO.C,LED_D4*
X149491000Y-24773000D02*
X150891000Y-24773000D01*
X150891000Y-24773000D02*
X150891000Y-21973000D01*
X149491000Y-24773000D02*
X149491000Y-21973000D01*
G04 #@! TO.C,R4*
X151680000Y-69954000D02*
X150480000Y-69954000D01*
X150480000Y-68194000D02*
X151680000Y-68194000D01*
G04 #@! TO.C,R6*
X150918000Y-56492000D02*
X149718000Y-56492000D01*
X149718000Y-54732000D02*
X150918000Y-54732000D01*
G04 #@! TO.C,R7*
X149394000Y-48872000D02*
X148194000Y-48872000D01*
X148194000Y-47112000D02*
X149394000Y-47112000D01*
G04 #@! TO.C,R8*
X151426000Y-58524000D02*
X150226000Y-58524000D01*
X150226000Y-56764000D02*
X151426000Y-56764000D01*
G04 #@! TO.C,R9*
X151680000Y-43030000D02*
X150480000Y-43030000D01*
X150480000Y-41270000D02*
X151680000Y-41270000D01*
D13*
G04 #@! TO.C,STS_LED_EN1*
X176480000Y-61200000D02*
X176480000Y-55200000D01*
X176480000Y-55200000D02*
X173480000Y-55200000D01*
X173480000Y-55200000D02*
X173480000Y-61200000D01*
X173480000Y-61200000D02*
X176480000Y-61200000D01*
G04 #@! TO.C,U6*
X156203000Y-89937000D02*
X156203000Y-89887000D01*
X152053000Y-89937000D02*
X152053000Y-89792000D01*
X152053000Y-84787000D02*
X152053000Y-84932000D01*
X156203000Y-84787000D02*
X156203000Y-84932000D01*
X156203000Y-89937000D02*
X152053000Y-89937000D01*
X156203000Y-84787000D02*
X152053000Y-84787000D01*
X156203000Y-89887000D02*
X157603000Y-89887000D01*
G04 #@! TO.C,U7*
X151037000Y-75897000D02*
X151037000Y-75947000D01*
X155187000Y-75897000D02*
X155187000Y-76042000D01*
X155187000Y-81047000D02*
X155187000Y-80902000D01*
X151037000Y-81047000D02*
X151037000Y-80902000D01*
X151037000Y-75897000D02*
X155187000Y-75897000D01*
X151037000Y-81047000D02*
X155187000Y-81047000D01*
X151037000Y-75947000D02*
X149637000Y-75947000D01*
G04 #@! TO.C,U3*
X107900000Y-36562000D02*
X105360000Y-36562000D01*
X105360000Y-36562000D02*
X105360000Y-39102000D01*
X105360000Y-39102000D02*
X107900000Y-39102000D01*
X107900000Y-39102000D02*
X107900000Y-36562000D01*
X99010000Y-44182000D02*
X99010000Y-40372000D01*
X99010000Y-40372000D02*
X101550000Y-40372000D01*
X101550000Y-40372000D02*
X101550000Y-44182000D01*
X101550000Y-44182000D02*
X99010000Y-44182000D01*
X97740000Y-58152000D02*
X110440000Y-58152000D01*
X110440000Y-45452000D02*
X97740000Y-45452000D01*
X97740000Y-45452000D02*
X97740000Y-58152000D01*
X110440000Y-45452000D02*
X110440000Y-58152000D01*
X99010000Y-79742000D02*
X99010000Y-81012000D01*
X100280000Y-79742000D02*
X100280000Y-81012000D01*
X101550000Y-79742000D02*
X101550000Y-81012000D01*
X102820000Y-79742000D02*
X102820000Y-81012000D01*
X104090000Y-79742000D02*
X104090000Y-81012000D01*
X105360000Y-79742000D02*
X105360000Y-81012000D01*
X106630000Y-79742000D02*
X106630000Y-81012000D01*
X107900000Y-79742000D02*
X107900000Y-81012000D01*
X109170000Y-79742000D02*
X109170000Y-81012000D01*
X97740000Y-81012000D02*
X99010000Y-79742000D01*
X99010000Y-79742000D02*
X109170000Y-79742000D01*
X109170000Y-79742000D02*
X110440000Y-81012000D01*
X110440000Y-81012000D02*
X110440000Y-68312000D01*
X110440000Y-68312000D02*
X97740000Y-68312000D01*
X97740000Y-68312000D02*
X97740000Y-81012000D01*
X112980000Y-81012000D02*
X112980000Y-20052000D01*
X95200000Y-20052000D02*
X95200000Y-81012000D01*
X100280000Y-20052000D02*
X100280000Y-18782000D01*
X100280000Y-18782000D02*
X107900000Y-18782000D01*
X107900000Y-18782000D02*
X107900000Y-20052000D01*
X100280000Y-25132000D02*
X107900000Y-25132000D01*
X107900000Y-25132000D02*
X107900000Y-20052000D01*
X100280000Y-25132000D02*
X100280000Y-20052000D01*
X106630000Y-64502000D02*
X101550000Y-64502000D01*
X101550000Y-64502000D02*
X101550000Y-61962000D01*
X101550000Y-61962000D02*
X106630000Y-61962000D01*
X106630000Y-61962000D02*
X106630000Y-64502000D01*
X112980000Y-81012000D02*
X95200000Y-81012000D01*
X95200000Y-20052000D02*
X112980000Y-20052000D01*
G04 #@! TO.C,REF\002A\002A*
X230328000Y-92442000D02*
X230328000Y-61962000D01*
X230328000Y-61962000D02*
X260808000Y-61962000D01*
X260808000Y-61962000D02*
X260808000Y-92442000D01*
X260808000Y-92442000D02*
X230328000Y-92442000D01*
X225756000Y-25132000D02*
X223216000Y-25132000D01*
X223216000Y-25132000D02*
X223216000Y-58152000D01*
X223216000Y-58152000D02*
X271476000Y-58152000D01*
X271476000Y-58152000D02*
X271476000Y-25132000D01*
X271476000Y-25132000D02*
X223216000Y-25132000D01*
G04 #@! TO.C,Batt+1*
X51239380Y-67240571D02*
X51382238Y-67288190D01*
X51429857Y-67335809D01*
X51477476Y-67431047D01*
X51477476Y-67573904D01*
X51429857Y-67669142D01*
X51382238Y-67716761D01*
X51287000Y-67764380D01*
X50906047Y-67764380D01*
X50906047Y-66764380D01*
X51239380Y-66764380D01*
X51334619Y-66812000D01*
X51382238Y-66859619D01*
X51429857Y-66954857D01*
X51429857Y-67050095D01*
X51382238Y-67145333D01*
X51334619Y-67192952D01*
X51239380Y-67240571D01*
X50906047Y-67240571D01*
X52334619Y-67764380D02*
X52334619Y-67240571D01*
X52287000Y-67145333D01*
X52191761Y-67097714D01*
X52001285Y-67097714D01*
X51906047Y-67145333D01*
X52334619Y-67716761D02*
X52239380Y-67764380D01*
X52001285Y-67764380D01*
X51906047Y-67716761D01*
X51858428Y-67621523D01*
X51858428Y-67526285D01*
X51906047Y-67431047D01*
X52001285Y-67383428D01*
X52239380Y-67383428D01*
X52334619Y-67335809D01*
X52667952Y-67097714D02*
X53048904Y-67097714D01*
X52810809Y-66764380D02*
X52810809Y-67621523D01*
X52858428Y-67716761D01*
X52953666Y-67764380D01*
X53048904Y-67764380D01*
X53239380Y-67097714D02*
X53620333Y-67097714D01*
X53382238Y-66764380D02*
X53382238Y-67621523D01*
X53429857Y-67716761D01*
X53525095Y-67764380D01*
X53620333Y-67764380D01*
X53953666Y-67383428D02*
X54715571Y-67383428D01*
X54334619Y-67764380D02*
X54334619Y-67002476D01*
X55715571Y-67764380D02*
X55144142Y-67764380D01*
X55429857Y-67764380D02*
X55429857Y-66764380D01*
X55334619Y-66907238D01*
X55239380Y-67002476D01*
X55144142Y-67050095D01*
G04 #@! TO.C,Batt-1*
X71305380Y-74098571D02*
X71448238Y-74146190D01*
X71495857Y-74193809D01*
X71543476Y-74289047D01*
X71543476Y-74431904D01*
X71495857Y-74527142D01*
X71448238Y-74574761D01*
X71353000Y-74622380D01*
X70972047Y-74622380D01*
X70972047Y-73622380D01*
X71305380Y-73622380D01*
X71400619Y-73670000D01*
X71448238Y-73717619D01*
X71495857Y-73812857D01*
X71495857Y-73908095D01*
X71448238Y-74003333D01*
X71400619Y-74050952D01*
X71305380Y-74098571D01*
X70972047Y-74098571D01*
X72400619Y-74622380D02*
X72400619Y-74098571D01*
X72353000Y-74003333D01*
X72257761Y-73955714D01*
X72067285Y-73955714D01*
X71972047Y-74003333D01*
X72400619Y-74574761D02*
X72305380Y-74622380D01*
X72067285Y-74622380D01*
X71972047Y-74574761D01*
X71924428Y-74479523D01*
X71924428Y-74384285D01*
X71972047Y-74289047D01*
X72067285Y-74241428D01*
X72305380Y-74241428D01*
X72400619Y-74193809D01*
X72733952Y-73955714D02*
X73114904Y-73955714D01*
X72876809Y-73622380D02*
X72876809Y-74479523D01*
X72924428Y-74574761D01*
X73019666Y-74622380D01*
X73114904Y-74622380D01*
X73305380Y-73955714D02*
X73686333Y-73955714D01*
X73448238Y-73622380D02*
X73448238Y-74479523D01*
X73495857Y-74574761D01*
X73591095Y-74622380D01*
X73686333Y-74622380D01*
X74019666Y-74241428D02*
X74781571Y-74241428D01*
X75781571Y-74622380D02*
X75210142Y-74622380D01*
X75495857Y-74622380D02*
X75495857Y-73622380D01*
X75400619Y-73765238D01*
X75305380Y-73860476D01*
X75210142Y-73908095D01*
G04 #@! TO.C,BattSwitch1*
X67188571Y-62239333D02*
X67236190Y-62096476D01*
X67283809Y-62048857D01*
X67379047Y-62001238D01*
X67521904Y-62001238D01*
X67617142Y-62048857D01*
X67664761Y-62096476D01*
X67712380Y-62191714D01*
X67712380Y-62572666D01*
X66712380Y-62572666D01*
X66712380Y-62239333D01*
X66760000Y-62144095D01*
X66807619Y-62096476D01*
X66902857Y-62048857D01*
X66998095Y-62048857D01*
X67093333Y-62096476D01*
X67140952Y-62144095D01*
X67188571Y-62239333D01*
X67188571Y-62572666D01*
X67712380Y-61144095D02*
X67188571Y-61144095D01*
X67093333Y-61191714D01*
X67045714Y-61286952D01*
X67045714Y-61477428D01*
X67093333Y-61572666D01*
X67664761Y-61144095D02*
X67712380Y-61239333D01*
X67712380Y-61477428D01*
X67664761Y-61572666D01*
X67569523Y-61620285D01*
X67474285Y-61620285D01*
X67379047Y-61572666D01*
X67331428Y-61477428D01*
X67331428Y-61239333D01*
X67283809Y-61144095D01*
X67045714Y-60810761D02*
X67045714Y-60429809D01*
X66712380Y-60667904D02*
X67569523Y-60667904D01*
X67664761Y-60620285D01*
X67712380Y-60525047D01*
X67712380Y-60429809D01*
X67045714Y-60239333D02*
X67045714Y-59858380D01*
X66712380Y-60096476D02*
X67569523Y-60096476D01*
X67664761Y-60048857D01*
X67712380Y-59953619D01*
X67712380Y-59858380D01*
X67664761Y-59572666D02*
X67712380Y-59429809D01*
X67712380Y-59191714D01*
X67664761Y-59096476D01*
X67617142Y-59048857D01*
X67521904Y-59001238D01*
X67426666Y-59001238D01*
X67331428Y-59048857D01*
X67283809Y-59096476D01*
X67236190Y-59191714D01*
X67188571Y-59382190D01*
X67140952Y-59477428D01*
X67093333Y-59525047D01*
X66998095Y-59572666D01*
X66902857Y-59572666D01*
X66807619Y-59525047D01*
X66760000Y-59477428D01*
X66712380Y-59382190D01*
X66712380Y-59144095D01*
X66760000Y-59001238D01*
X67045714Y-58667904D02*
X67712380Y-58477428D01*
X67236190Y-58286952D01*
X67712380Y-58096476D01*
X67045714Y-57906000D01*
X67712380Y-57525047D02*
X67045714Y-57525047D01*
X66712380Y-57525047D02*
X66760000Y-57572666D01*
X66807619Y-57525047D01*
X66760000Y-57477428D01*
X66712380Y-57525047D01*
X66807619Y-57525047D01*
X67045714Y-57191714D02*
X67045714Y-56810761D01*
X66712380Y-57048857D02*
X67569523Y-57048857D01*
X67664761Y-57001238D01*
X67712380Y-56906000D01*
X67712380Y-56810761D01*
X67664761Y-56048857D02*
X67712380Y-56144095D01*
X67712380Y-56334571D01*
X67664761Y-56429809D01*
X67617142Y-56477428D01*
X67521904Y-56525047D01*
X67236190Y-56525047D01*
X67140952Y-56477428D01*
X67093333Y-56429809D01*
X67045714Y-56334571D01*
X67045714Y-56144095D01*
X67093333Y-56048857D01*
X67712380Y-55620285D02*
X66712380Y-55620285D01*
X67712380Y-55191714D02*
X67188571Y-55191714D01*
X67093333Y-55239333D01*
X67045714Y-55334571D01*
X67045714Y-55477428D01*
X67093333Y-55572666D01*
X67140952Y-55620285D01*
X67712380Y-54191714D02*
X67712380Y-54763142D01*
X67712380Y-54477428D02*
X66712380Y-54477428D01*
X66855238Y-54572666D01*
X66950476Y-54667904D01*
X66998095Y-54763142D01*
G04 #@! TO.C,BLE_PWR_Switch1*
X54615571Y-33925999D02*
X54663190Y-33783142D01*
X54710809Y-33735523D01*
X54806047Y-33687904D01*
X54948904Y-33687904D01*
X55044142Y-33735523D01*
X55091761Y-33783142D01*
X55139380Y-33878380D01*
X55139380Y-34259333D01*
X54139380Y-34259333D01*
X54139380Y-33925999D01*
X54187000Y-33830761D01*
X54234619Y-33783142D01*
X54329857Y-33735523D01*
X54425095Y-33735523D01*
X54520333Y-33783142D01*
X54567952Y-33830761D01*
X54615571Y-33925999D01*
X54615571Y-34259333D01*
X55139380Y-32783142D02*
X55139380Y-33259333D01*
X54139380Y-33259333D01*
X54615571Y-32449809D02*
X54615571Y-32116476D01*
X55139380Y-31973619D02*
X55139380Y-32449809D01*
X54139380Y-32449809D01*
X54139380Y-31973619D01*
X55234619Y-31783142D02*
X55234619Y-31021238D01*
X55139380Y-30783142D02*
X54139380Y-30783142D01*
X54139380Y-30402190D01*
X54187000Y-30306952D01*
X54234619Y-30259333D01*
X54329857Y-30211714D01*
X54472714Y-30211714D01*
X54567952Y-30259333D01*
X54615571Y-30306952D01*
X54663190Y-30402190D01*
X54663190Y-30783142D01*
X54139380Y-29878380D02*
X55139380Y-29640285D01*
X54425095Y-29449809D01*
X55139380Y-29259333D01*
X54139380Y-29021238D01*
X55139380Y-28068857D02*
X54663190Y-28402190D01*
X55139380Y-28640285D02*
X54139380Y-28640285D01*
X54139380Y-28259333D01*
X54187000Y-28164095D01*
X54234619Y-28116476D01*
X54329857Y-28068857D01*
X54472714Y-28068857D01*
X54567952Y-28116476D01*
X54615571Y-28164095D01*
X54663190Y-28259333D01*
X54663190Y-28640285D01*
X55234619Y-27878380D02*
X55234619Y-27116476D01*
X55091761Y-26926000D02*
X55139380Y-26783142D01*
X55139380Y-26545047D01*
X55091761Y-26449809D01*
X55044142Y-26402190D01*
X54948904Y-26354571D01*
X54853666Y-26354571D01*
X54758428Y-26402190D01*
X54710809Y-26449809D01*
X54663190Y-26545047D01*
X54615571Y-26735523D01*
X54567952Y-26830761D01*
X54520333Y-26878380D01*
X54425095Y-26926000D01*
X54329857Y-26926000D01*
X54234619Y-26878380D01*
X54187000Y-26830761D01*
X54139380Y-26735523D01*
X54139380Y-26497428D01*
X54187000Y-26354571D01*
X54472714Y-26021238D02*
X55139380Y-25830761D01*
X54663190Y-25640285D01*
X55139380Y-25449809D01*
X54472714Y-25259333D01*
X55139380Y-24878380D02*
X54472714Y-24878380D01*
X54139380Y-24878380D02*
X54187000Y-24926000D01*
X54234619Y-24878380D01*
X54187000Y-24830761D01*
X54139380Y-24878380D01*
X54234619Y-24878380D01*
X54472714Y-24545047D02*
X54472714Y-24164095D01*
X54139380Y-24402190D02*
X54996523Y-24402190D01*
X55091761Y-24354571D01*
X55139380Y-24259333D01*
X55139380Y-24164095D01*
X55091761Y-23402190D02*
X55139380Y-23497428D01*
X55139380Y-23687904D01*
X55091761Y-23783142D01*
X55044142Y-23830761D01*
X54948904Y-23878380D01*
X54663190Y-23878380D01*
X54567952Y-23830761D01*
X54520333Y-23783142D01*
X54472714Y-23687904D01*
X54472714Y-23497428D01*
X54520333Y-23402190D01*
X55139380Y-22973619D02*
X54139380Y-22973619D01*
X55139380Y-22545047D02*
X54615571Y-22545047D01*
X54520333Y-22592666D01*
X54472714Y-22687904D01*
X54472714Y-22830761D01*
X54520333Y-22926000D01*
X54567952Y-22973619D01*
X55139380Y-21545047D02*
X55139380Y-22116476D01*
X55139380Y-21830761D02*
X54139380Y-21830761D01*
X54282238Y-21926000D01*
X54377476Y-22021238D01*
X54425095Y-22116476D01*
G04 #@! TO.C,C1*
X66585333Y-42789142D02*
X66537714Y-42836761D01*
X66394857Y-42884380D01*
X66299619Y-42884380D01*
X66156761Y-42836761D01*
X66061523Y-42741523D01*
X66013904Y-42646285D01*
X65966285Y-42455809D01*
X65966285Y-42312952D01*
X66013904Y-42122476D01*
X66061523Y-42027238D01*
X66156761Y-41932000D01*
X66299619Y-41884380D01*
X66394857Y-41884380D01*
X66537714Y-41932000D01*
X66585333Y-41979619D01*
X67537714Y-42884380D02*
X66966285Y-42884380D01*
X67252000Y-42884380D02*
X67252000Y-41884380D01*
X67156761Y-42027238D01*
X67061523Y-42122476D01*
X66966285Y-42170095D01*
G04 #@! TO.C,C2*
X149643333Y-61585142D02*
X149595714Y-61632761D01*
X149452857Y-61680380D01*
X149357619Y-61680380D01*
X149214761Y-61632761D01*
X149119523Y-61537523D01*
X149071904Y-61442285D01*
X149024285Y-61251809D01*
X149024285Y-61108952D01*
X149071904Y-60918476D01*
X149119523Y-60823238D01*
X149214761Y-60728000D01*
X149357619Y-60680380D01*
X149452857Y-60680380D01*
X149595714Y-60728000D01*
X149643333Y-60775619D01*
X150024285Y-60775619D02*
X150071904Y-60728000D01*
X150167142Y-60680380D01*
X150405238Y-60680380D01*
X150500476Y-60728000D01*
X150548095Y-60775619D01*
X150595714Y-60870857D01*
X150595714Y-60966095D01*
X150548095Y-61108952D01*
X149976666Y-61680380D01*
X150595714Y-61680380D01*
G04 #@! TO.C,debug_conn1*
X157600714Y-35252380D02*
X157600714Y-34252380D01*
X157600714Y-35204761D02*
X157505476Y-35252380D01*
X157315000Y-35252380D01*
X157219761Y-35204761D01*
X157172142Y-35157142D01*
X157124523Y-35061904D01*
X157124523Y-34776190D01*
X157172142Y-34680952D01*
X157219761Y-34633333D01*
X157315000Y-34585714D01*
X157505476Y-34585714D01*
X157600714Y-34633333D01*
X158457857Y-35204761D02*
X158362619Y-35252380D01*
X158172142Y-35252380D01*
X158076904Y-35204761D01*
X158029285Y-35109523D01*
X158029285Y-34728571D01*
X158076904Y-34633333D01*
X158172142Y-34585714D01*
X158362619Y-34585714D01*
X158457857Y-34633333D01*
X158505476Y-34728571D01*
X158505476Y-34823809D01*
X158029285Y-34919047D01*
X158934047Y-35252380D02*
X158934047Y-34252380D01*
X158934047Y-34633333D02*
X159029285Y-34585714D01*
X159219761Y-34585714D01*
X159315000Y-34633333D01*
X159362619Y-34680952D01*
X159410238Y-34776190D01*
X159410238Y-35061904D01*
X159362619Y-35157142D01*
X159315000Y-35204761D01*
X159219761Y-35252380D01*
X159029285Y-35252380D01*
X158934047Y-35204761D01*
X160267380Y-34585714D02*
X160267380Y-35252380D01*
X159838809Y-34585714D02*
X159838809Y-35109523D01*
X159886428Y-35204761D01*
X159981666Y-35252380D01*
X160124523Y-35252380D01*
X160219761Y-35204761D01*
X160267380Y-35157142D01*
X161172142Y-34585714D02*
X161172142Y-35395238D01*
X161124523Y-35490476D01*
X161076904Y-35538095D01*
X160981666Y-35585714D01*
X160838809Y-35585714D01*
X160743571Y-35538095D01*
X161172142Y-35204761D02*
X161076904Y-35252380D01*
X160886428Y-35252380D01*
X160791190Y-35204761D01*
X160743571Y-35157142D01*
X160695952Y-35061904D01*
X160695952Y-34776190D01*
X160743571Y-34680952D01*
X160791190Y-34633333D01*
X160886428Y-34585714D01*
X161076904Y-34585714D01*
X161172142Y-34633333D01*
X161410238Y-35347619D02*
X162172142Y-35347619D01*
X162838809Y-35204761D02*
X162743571Y-35252380D01*
X162553095Y-35252380D01*
X162457857Y-35204761D01*
X162410238Y-35157142D01*
X162362619Y-35061904D01*
X162362619Y-34776190D01*
X162410238Y-34680952D01*
X162457857Y-34633333D01*
X162553095Y-34585714D01*
X162743571Y-34585714D01*
X162838809Y-34633333D01*
X163410238Y-35252380D02*
X163315000Y-35204761D01*
X163267380Y-35157142D01*
X163219761Y-35061904D01*
X163219761Y-34776190D01*
X163267380Y-34680952D01*
X163315000Y-34633333D01*
X163410238Y-34585714D01*
X163553095Y-34585714D01*
X163648333Y-34633333D01*
X163695952Y-34680952D01*
X163743571Y-34776190D01*
X163743571Y-35061904D01*
X163695952Y-35157142D01*
X163648333Y-35204761D01*
X163553095Y-35252380D01*
X163410238Y-35252380D01*
X164172142Y-34585714D02*
X164172142Y-35252380D01*
X164172142Y-34680952D02*
X164219761Y-34633333D01*
X164315000Y-34585714D01*
X164457857Y-34585714D01*
X164553095Y-34633333D01*
X164600714Y-34728571D01*
X164600714Y-35252380D01*
X165076904Y-34585714D02*
X165076904Y-35252380D01*
X165076904Y-34680952D02*
X165124523Y-34633333D01*
X165219761Y-34585714D01*
X165362619Y-34585714D01*
X165457857Y-34633333D01*
X165505476Y-34728571D01*
X165505476Y-35252380D01*
X166505476Y-35252380D02*
X165934047Y-35252380D01*
X166219761Y-35252380D02*
X166219761Y-34252380D01*
X166124523Y-34395238D01*
X166029285Y-34490476D01*
X165934047Y-34538095D01*
G04 #@! TO.C,Fun_BTN1*
X188346571Y-61175809D02*
X188346571Y-61509142D01*
X188870380Y-61509142D02*
X187870380Y-61509142D01*
X187870380Y-61032952D01*
X188203714Y-60223428D02*
X188870380Y-60223428D01*
X188203714Y-60652000D02*
X188727523Y-60652000D01*
X188822761Y-60604380D01*
X188870380Y-60509142D01*
X188870380Y-60366285D01*
X188822761Y-60271047D01*
X188775142Y-60223428D01*
X188203714Y-59747238D02*
X188870380Y-59747238D01*
X188298952Y-59747238D02*
X188251333Y-59699619D01*
X188203714Y-59604380D01*
X188203714Y-59461523D01*
X188251333Y-59366285D01*
X188346571Y-59318666D01*
X188870380Y-59318666D01*
X188965619Y-59080571D02*
X188965619Y-58318666D01*
X188346571Y-57747238D02*
X188394190Y-57604380D01*
X188441809Y-57556761D01*
X188537047Y-57509142D01*
X188679904Y-57509142D01*
X188775142Y-57556761D01*
X188822761Y-57604380D01*
X188870380Y-57699619D01*
X188870380Y-58080571D01*
X187870380Y-58080571D01*
X187870380Y-57747238D01*
X187918000Y-57652000D01*
X187965619Y-57604380D01*
X188060857Y-57556761D01*
X188156095Y-57556761D01*
X188251333Y-57604380D01*
X188298952Y-57652000D01*
X188346571Y-57747238D01*
X188346571Y-58080571D01*
X187870380Y-57223428D02*
X187870380Y-56652000D01*
X188870380Y-56937714D02*
X187870380Y-56937714D01*
X188870380Y-56318666D02*
X187870380Y-56318666D01*
X188870380Y-55747238D01*
X187870380Y-55747238D01*
X188870380Y-54747238D02*
X188870380Y-55318666D01*
X188870380Y-55032952D02*
X187870380Y-55032952D01*
X188013238Y-55128190D01*
X188108476Y-55223428D01*
X188156095Y-55318666D01*
G04 #@! TO.C,Fun_BTN2*
X193918571Y-61223809D02*
X193918571Y-61557142D01*
X194442380Y-61557142D02*
X193442380Y-61557142D01*
X193442380Y-61080952D01*
X193775714Y-60271428D02*
X194442380Y-60271428D01*
X193775714Y-60700000D02*
X194299523Y-60700000D01*
X194394761Y-60652380D01*
X194442380Y-60557142D01*
X194442380Y-60414285D01*
X194394761Y-60319047D01*
X194347142Y-60271428D01*
X193775714Y-59795238D02*
X194442380Y-59795238D01*
X193870952Y-59795238D02*
X193823333Y-59747619D01*
X193775714Y-59652380D01*
X193775714Y-59509523D01*
X193823333Y-59414285D01*
X193918571Y-59366666D01*
X194442380Y-59366666D01*
X194537619Y-59128571D02*
X194537619Y-58366666D01*
X193918571Y-57795238D02*
X193966190Y-57652380D01*
X194013809Y-57604761D01*
X194109047Y-57557142D01*
X194251904Y-57557142D01*
X194347142Y-57604761D01*
X194394761Y-57652380D01*
X194442380Y-57747619D01*
X194442380Y-58128571D01*
X193442380Y-58128571D01*
X193442380Y-57795238D01*
X193490000Y-57700000D01*
X193537619Y-57652380D01*
X193632857Y-57604761D01*
X193728095Y-57604761D01*
X193823333Y-57652380D01*
X193870952Y-57700000D01*
X193918571Y-57795238D01*
X193918571Y-58128571D01*
X193442380Y-57271428D02*
X193442380Y-56700000D01*
X194442380Y-56985714D02*
X193442380Y-56985714D01*
X194442380Y-56366666D02*
X193442380Y-56366666D01*
X194442380Y-55795238D01*
X193442380Y-55795238D01*
X193537619Y-55366666D02*
X193490000Y-55319047D01*
X193442380Y-55223809D01*
X193442380Y-54985714D01*
X193490000Y-54890476D01*
X193537619Y-54842857D01*
X193632857Y-54795238D01*
X193728095Y-54795238D01*
X193870952Y-54842857D01*
X194442380Y-55414285D01*
X194442380Y-54795238D01*
G04 #@! TO.C,Fun_BTN3*
X183123571Y-61223809D02*
X183123571Y-61557142D01*
X183647380Y-61557142D02*
X182647380Y-61557142D01*
X182647380Y-61080952D01*
X182980714Y-60271428D02*
X183647380Y-60271428D01*
X182980714Y-60700000D02*
X183504523Y-60700000D01*
X183599761Y-60652380D01*
X183647380Y-60557142D01*
X183647380Y-60414285D01*
X183599761Y-60319047D01*
X183552142Y-60271428D01*
X182980714Y-59795238D02*
X183647380Y-59795238D01*
X183075952Y-59795238D02*
X183028333Y-59747619D01*
X182980714Y-59652380D01*
X182980714Y-59509523D01*
X183028333Y-59414285D01*
X183123571Y-59366666D01*
X183647380Y-59366666D01*
X183742619Y-59128571D02*
X183742619Y-58366666D01*
X183123571Y-57795238D02*
X183171190Y-57652380D01*
X183218809Y-57604761D01*
X183314047Y-57557142D01*
X183456904Y-57557142D01*
X183552142Y-57604761D01*
X183599761Y-57652380D01*
X183647380Y-57747619D01*
X183647380Y-58128571D01*
X182647380Y-58128571D01*
X182647380Y-57795238D01*
X182695000Y-57700000D01*
X182742619Y-57652380D01*
X182837857Y-57604761D01*
X182933095Y-57604761D01*
X183028333Y-57652380D01*
X183075952Y-57700000D01*
X183123571Y-57795238D01*
X183123571Y-58128571D01*
X182647380Y-57271428D02*
X182647380Y-56700000D01*
X183647380Y-56985714D02*
X182647380Y-56985714D01*
X183647380Y-56366666D02*
X182647380Y-56366666D01*
X183647380Y-55795238D01*
X182647380Y-55795238D01*
X182647380Y-55414285D02*
X182647380Y-54795238D01*
X183028333Y-55128571D01*
X183028333Y-54985714D01*
X183075952Y-54890476D01*
X183123571Y-54842857D01*
X183218809Y-54795238D01*
X183456904Y-54795238D01*
X183552142Y-54842857D01*
X183599761Y-54890476D01*
X183647380Y-54985714D01*
X183647380Y-55271428D01*
X183599761Y-55366666D01*
X183552142Y-55414285D01*
G04 #@! TO.C,GPS_CONN1*
X62344142Y-65542000D02*
X62248904Y-65494380D01*
X62106047Y-65494380D01*
X61963190Y-65542000D01*
X61867952Y-65637238D01*
X61820333Y-65732476D01*
X61772714Y-65922952D01*
X61772714Y-66065809D01*
X61820333Y-66256285D01*
X61867952Y-66351523D01*
X61963190Y-66446761D01*
X62106047Y-66494380D01*
X62201285Y-66494380D01*
X62344142Y-66446761D01*
X62391761Y-66399142D01*
X62391761Y-66065809D01*
X62201285Y-66065809D01*
X62820333Y-66494380D02*
X62820333Y-65494380D01*
X63201285Y-65494380D01*
X63296523Y-65542000D01*
X63344142Y-65589619D01*
X63391761Y-65684857D01*
X63391761Y-65827714D01*
X63344142Y-65922952D01*
X63296523Y-65970571D01*
X63201285Y-66018190D01*
X62820333Y-66018190D01*
X63772714Y-66446761D02*
X63915571Y-66494380D01*
X64153666Y-66494380D01*
X64248904Y-66446761D01*
X64296523Y-66399142D01*
X64344142Y-66303904D01*
X64344142Y-66208666D01*
X64296523Y-66113428D01*
X64248904Y-66065809D01*
X64153666Y-66018190D01*
X63963190Y-65970571D01*
X63867952Y-65922952D01*
X63820333Y-65875333D01*
X63772714Y-65780095D01*
X63772714Y-65684857D01*
X63820333Y-65589619D01*
X63867952Y-65542000D01*
X63963190Y-65494380D01*
X64201285Y-65494380D01*
X64344142Y-65542000D01*
X64534619Y-66589619D02*
X65296523Y-66589619D01*
X66106047Y-66399142D02*
X66058428Y-66446761D01*
X65915571Y-66494380D01*
X65820333Y-66494380D01*
X65677476Y-66446761D01*
X65582238Y-66351523D01*
X65534619Y-66256285D01*
X65487000Y-66065809D01*
X65487000Y-65922952D01*
X65534619Y-65732476D01*
X65582238Y-65637238D01*
X65677476Y-65542000D01*
X65820333Y-65494380D01*
X65915571Y-65494380D01*
X66058428Y-65542000D01*
X66106047Y-65589619D01*
X66725095Y-65494380D02*
X66915571Y-65494380D01*
X67010809Y-65542000D01*
X67106047Y-65637238D01*
X67153666Y-65827714D01*
X67153666Y-66161047D01*
X67106047Y-66351523D01*
X67010809Y-66446761D01*
X66915571Y-66494380D01*
X66725095Y-66494380D01*
X66629857Y-66446761D01*
X66534619Y-66351523D01*
X66487000Y-66161047D01*
X66487000Y-65827714D01*
X66534619Y-65637238D01*
X66629857Y-65542000D01*
X66725095Y-65494380D01*
X67582238Y-66494380D02*
X67582238Y-65494380D01*
X68153666Y-66494380D01*
X68153666Y-65494380D01*
X68629857Y-66494380D02*
X68629857Y-65494380D01*
X69201285Y-66494380D01*
X69201285Y-65494380D01*
X70201285Y-66494380D02*
X69629857Y-66494380D01*
X69915571Y-66494380D02*
X69915571Y-65494380D01*
X69820333Y-65637238D01*
X69725095Y-65732476D01*
X69629857Y-65780095D01*
G04 #@! TO.C,LED_D1*
X177782000Y-28124380D02*
X177305809Y-28124380D01*
X177305809Y-27124380D01*
X178115333Y-27600571D02*
X178448666Y-27600571D01*
X178591523Y-28124380D02*
X178115333Y-28124380D01*
X178115333Y-27124380D01*
X178591523Y-27124380D01*
X179020095Y-28124380D02*
X179020095Y-27124380D01*
X179258190Y-27124380D01*
X179401047Y-27172000D01*
X179496285Y-27267238D01*
X179543904Y-27362476D01*
X179591523Y-27552952D01*
X179591523Y-27695809D01*
X179543904Y-27886285D01*
X179496285Y-27981523D01*
X179401047Y-28076761D01*
X179258190Y-28124380D01*
X179020095Y-28124380D01*
X179782000Y-28219619D02*
X180543904Y-28219619D01*
X180782000Y-28124380D02*
X180782000Y-27124380D01*
X181020095Y-27124380D01*
X181162952Y-27172000D01*
X181258190Y-27267238D01*
X181305809Y-27362476D01*
X181353428Y-27552952D01*
X181353428Y-27695809D01*
X181305809Y-27886285D01*
X181258190Y-27981523D01*
X181162952Y-28076761D01*
X181020095Y-28124380D01*
X180782000Y-28124380D01*
X182305809Y-28124380D02*
X181734380Y-28124380D01*
X182020095Y-28124380D02*
X182020095Y-27124380D01*
X181924857Y-27267238D01*
X181829619Y-27362476D01*
X181734380Y-27410095D01*
G04 #@! TO.C,LED_D2*
X140444000Y-31246380D02*
X139967809Y-31246380D01*
X139967809Y-30246380D01*
X140777333Y-30722571D02*
X141110666Y-30722571D01*
X141253523Y-31246380D02*
X140777333Y-31246380D01*
X140777333Y-30246380D01*
X141253523Y-30246380D01*
X141682095Y-31246380D02*
X141682095Y-30246380D01*
X141920190Y-30246380D01*
X142063047Y-30294000D01*
X142158285Y-30389238D01*
X142205904Y-30484476D01*
X142253523Y-30674952D01*
X142253523Y-30817809D01*
X142205904Y-31008285D01*
X142158285Y-31103523D01*
X142063047Y-31198761D01*
X141920190Y-31246380D01*
X141682095Y-31246380D01*
X142444000Y-31341619D02*
X143205904Y-31341619D01*
X143444000Y-31246380D02*
X143444000Y-30246380D01*
X143682095Y-30246380D01*
X143824952Y-30294000D01*
X143920190Y-30389238D01*
X143967809Y-30484476D01*
X144015428Y-30674952D01*
X144015428Y-30817809D01*
X143967809Y-31008285D01*
X143920190Y-31103523D01*
X143824952Y-31198761D01*
X143682095Y-31246380D01*
X143444000Y-31246380D01*
X144396380Y-30341619D02*
X144444000Y-30294000D01*
X144539238Y-30246380D01*
X144777333Y-30246380D01*
X144872571Y-30294000D01*
X144920190Y-30341619D01*
X144967809Y-30436857D01*
X144967809Y-30532095D01*
X144920190Y-30674952D01*
X144348761Y-31246380D01*
X144967809Y-31246380D01*
G04 #@! TO.C,LED_D3*
X146794000Y-31246380D02*
X146317809Y-31246380D01*
X146317809Y-30246380D01*
X147127333Y-30722571D02*
X147460666Y-30722571D01*
X147603523Y-31246380D02*
X147127333Y-31246380D01*
X147127333Y-30246380D01*
X147603523Y-30246380D01*
X148032095Y-31246380D02*
X148032095Y-30246380D01*
X148270190Y-30246380D01*
X148413047Y-30294000D01*
X148508285Y-30389238D01*
X148555904Y-30484476D01*
X148603523Y-30674952D01*
X148603523Y-30817809D01*
X148555904Y-31008285D01*
X148508285Y-31103523D01*
X148413047Y-31198761D01*
X148270190Y-31246380D01*
X148032095Y-31246380D01*
X148794000Y-31341619D02*
X149555904Y-31341619D01*
X149794000Y-31246380D02*
X149794000Y-30246380D01*
X150032095Y-30246380D01*
X150174952Y-30294000D01*
X150270190Y-30389238D01*
X150317809Y-30484476D01*
X150365428Y-30674952D01*
X150365428Y-30817809D01*
X150317809Y-31008285D01*
X150270190Y-31103523D01*
X150174952Y-31198761D01*
X150032095Y-31246380D01*
X149794000Y-31246380D01*
X150698761Y-30246380D02*
X151317809Y-30246380D01*
X150984476Y-30627333D01*
X151127333Y-30627333D01*
X151222571Y-30674952D01*
X151270190Y-30722571D01*
X151317809Y-30817809D01*
X151317809Y-31055904D01*
X151270190Y-31151142D01*
X151222571Y-31198761D01*
X151127333Y-31246380D01*
X150841619Y-31246380D01*
X150746380Y-31198761D01*
X150698761Y-31151142D01*
G04 #@! TO.C,LED_D4*
X152167380Y-24973000D02*
X152167380Y-25449190D01*
X151167380Y-25449190D01*
X151643571Y-24639666D02*
X151643571Y-24306333D01*
X152167380Y-24163476D02*
X152167380Y-24639666D01*
X151167380Y-24639666D01*
X151167380Y-24163476D01*
X152167380Y-23734904D02*
X151167380Y-23734904D01*
X151167380Y-23496809D01*
X151215000Y-23353952D01*
X151310238Y-23258714D01*
X151405476Y-23211095D01*
X151595952Y-23163476D01*
X151738809Y-23163476D01*
X151929285Y-23211095D01*
X152024523Y-23258714D01*
X152119761Y-23353952D01*
X152167380Y-23496809D01*
X152167380Y-23734904D01*
X152262619Y-22973000D02*
X152262619Y-22211095D01*
X152167380Y-21973000D02*
X151167380Y-21973000D01*
X151167380Y-21734904D01*
X151215000Y-21592047D01*
X151310238Y-21496809D01*
X151405476Y-21449190D01*
X151595952Y-21401571D01*
X151738809Y-21401571D01*
X151929285Y-21449190D01*
X152024523Y-21496809D01*
X152119761Y-21592047D01*
X152167380Y-21734904D01*
X152167380Y-21973000D01*
X151500714Y-20544428D02*
X152167380Y-20544428D01*
X151119761Y-20782523D02*
X151834047Y-21020619D01*
X151834047Y-20401571D01*
G04 #@! TO.C,R4*
X150913333Y-67826380D02*
X150580000Y-67350190D01*
X150341904Y-67826380D02*
X150341904Y-66826380D01*
X150722857Y-66826380D01*
X150818095Y-66874000D01*
X150865714Y-66921619D01*
X150913333Y-67016857D01*
X150913333Y-67159714D01*
X150865714Y-67254952D01*
X150818095Y-67302571D01*
X150722857Y-67350190D01*
X150341904Y-67350190D01*
X151770476Y-67159714D02*
X151770476Y-67826380D01*
X151532380Y-66778761D02*
X151294285Y-67493047D01*
X151913333Y-67493047D01*
G04 #@! TO.C,R6*
X150151333Y-54364380D02*
X149818000Y-53888190D01*
X149579904Y-54364380D02*
X149579904Y-53364380D01*
X149960857Y-53364380D01*
X150056095Y-53412000D01*
X150103714Y-53459619D01*
X150151333Y-53554857D01*
X150151333Y-53697714D01*
X150103714Y-53792952D01*
X150056095Y-53840571D01*
X149960857Y-53888190D01*
X149579904Y-53888190D01*
X151008476Y-53364380D02*
X150818000Y-53364380D01*
X150722761Y-53412000D01*
X150675142Y-53459619D01*
X150579904Y-53602476D01*
X150532285Y-53792952D01*
X150532285Y-54173904D01*
X150579904Y-54269142D01*
X150627523Y-54316761D01*
X150722761Y-54364380D01*
X150913238Y-54364380D01*
X151008476Y-54316761D01*
X151056095Y-54269142D01*
X151103714Y-54173904D01*
X151103714Y-53935809D01*
X151056095Y-53840571D01*
X151008476Y-53792952D01*
X150913238Y-53745333D01*
X150722761Y-53745333D01*
X150627523Y-53792952D01*
X150579904Y-53840571D01*
X150532285Y-53935809D01*
G04 #@! TO.C,R7*
X148627333Y-46744380D02*
X148294000Y-46268190D01*
X148055904Y-46744380D02*
X148055904Y-45744380D01*
X148436857Y-45744380D01*
X148532095Y-45792000D01*
X148579714Y-45839619D01*
X148627333Y-45934857D01*
X148627333Y-46077714D01*
X148579714Y-46172952D01*
X148532095Y-46220571D01*
X148436857Y-46268190D01*
X148055904Y-46268190D01*
X148960666Y-45744380D02*
X149627333Y-45744380D01*
X149198761Y-46744380D01*
G04 #@! TO.C,R8*
X150659333Y-56396380D02*
X150326000Y-55920190D01*
X150087904Y-56396380D02*
X150087904Y-55396380D01*
X150468857Y-55396380D01*
X150564095Y-55444000D01*
X150611714Y-55491619D01*
X150659333Y-55586857D01*
X150659333Y-55729714D01*
X150611714Y-55824952D01*
X150564095Y-55872571D01*
X150468857Y-55920190D01*
X150087904Y-55920190D01*
X151230761Y-55824952D02*
X151135523Y-55777333D01*
X151087904Y-55729714D01*
X151040285Y-55634476D01*
X151040285Y-55586857D01*
X151087904Y-55491619D01*
X151135523Y-55444000D01*
X151230761Y-55396380D01*
X151421238Y-55396380D01*
X151516476Y-55444000D01*
X151564095Y-55491619D01*
X151611714Y-55586857D01*
X151611714Y-55634476D01*
X151564095Y-55729714D01*
X151516476Y-55777333D01*
X151421238Y-55824952D01*
X151230761Y-55824952D01*
X151135523Y-55872571D01*
X151087904Y-55920190D01*
X151040285Y-56015428D01*
X151040285Y-56205904D01*
X151087904Y-56301142D01*
X151135523Y-56348761D01*
X151230761Y-56396380D01*
X151421238Y-56396380D01*
X151516476Y-56348761D01*
X151564095Y-56301142D01*
X151611714Y-56205904D01*
X151611714Y-56015428D01*
X151564095Y-55920190D01*
X151516476Y-55872571D01*
X151421238Y-55824952D01*
G04 #@! TO.C,R9*
X150913333Y-40902380D02*
X150580000Y-40426190D01*
X150341904Y-40902380D02*
X150341904Y-39902380D01*
X150722857Y-39902380D01*
X150818095Y-39950000D01*
X150865714Y-39997619D01*
X150913333Y-40092857D01*
X150913333Y-40235714D01*
X150865714Y-40330952D01*
X150818095Y-40378571D01*
X150722857Y-40426190D01*
X150341904Y-40426190D01*
X151389523Y-40902380D02*
X151580000Y-40902380D01*
X151675238Y-40854761D01*
X151722857Y-40807142D01*
X151818095Y-40664285D01*
X151865714Y-40473809D01*
X151865714Y-40092857D01*
X151818095Y-39997619D01*
X151770476Y-39950000D01*
X151675238Y-39902380D01*
X151484761Y-39902380D01*
X151389523Y-39950000D01*
X151341904Y-39997619D01*
X151294285Y-40092857D01*
X151294285Y-40330952D01*
X151341904Y-40426190D01*
X151389523Y-40473809D01*
X151484761Y-40521428D01*
X151675238Y-40521428D01*
X151770476Y-40473809D01*
X151818095Y-40426190D01*
X151865714Y-40330952D01*
G04 #@! TO.C,STS_LED_EN1*
X173836761Y-62358285D02*
X173884380Y-62215428D01*
X173884380Y-61977333D01*
X173836761Y-61882095D01*
X173789142Y-61834476D01*
X173693904Y-61786857D01*
X173598666Y-61786857D01*
X173503428Y-61834476D01*
X173455809Y-61882095D01*
X173408190Y-61977333D01*
X173360571Y-62167809D01*
X173312952Y-62263047D01*
X173265333Y-62310666D01*
X173170095Y-62358285D01*
X173074857Y-62358285D01*
X172979619Y-62310666D01*
X172932000Y-62263047D01*
X172884380Y-62167809D01*
X172884380Y-61929714D01*
X172932000Y-61786857D01*
X172884380Y-61501142D02*
X172884380Y-60929714D01*
X173884380Y-61215428D02*
X172884380Y-61215428D01*
X173836761Y-60644000D02*
X173884380Y-60501142D01*
X173884380Y-60263047D01*
X173836761Y-60167809D01*
X173789142Y-60120190D01*
X173693904Y-60072571D01*
X173598666Y-60072571D01*
X173503428Y-60120190D01*
X173455809Y-60167809D01*
X173408190Y-60263047D01*
X173360571Y-60453523D01*
X173312952Y-60548761D01*
X173265333Y-60596380D01*
X173170095Y-60644000D01*
X173074857Y-60644000D01*
X172979619Y-60596380D01*
X172932000Y-60548761D01*
X172884380Y-60453523D01*
X172884380Y-60215428D01*
X172932000Y-60072571D01*
X173979619Y-59882095D02*
X173979619Y-59120190D01*
X173884380Y-58405904D02*
X173884380Y-58882095D01*
X172884380Y-58882095D01*
X173360571Y-58072571D02*
X173360571Y-57739238D01*
X173884380Y-57596380D02*
X173884380Y-58072571D01*
X172884380Y-58072571D01*
X172884380Y-57596380D01*
X173884380Y-57167809D02*
X172884380Y-57167809D01*
X172884380Y-56929714D01*
X172932000Y-56786857D01*
X173027238Y-56691619D01*
X173122476Y-56644000D01*
X173312952Y-56596380D01*
X173455809Y-56596380D01*
X173646285Y-56644000D01*
X173741523Y-56691619D01*
X173836761Y-56786857D01*
X173884380Y-56929714D01*
X173884380Y-57167809D01*
X173979619Y-56405904D02*
X173979619Y-55644000D01*
X173360571Y-55405904D02*
X173360571Y-55072571D01*
X173884380Y-54929714D02*
X173884380Y-55405904D01*
X172884380Y-55405904D01*
X172884380Y-54929714D01*
X173884380Y-54501142D02*
X172884380Y-54501142D01*
X173884380Y-53929714D01*
X172884380Y-53929714D01*
X173884380Y-52929714D02*
X173884380Y-53501142D01*
X173884380Y-53215428D02*
X172884380Y-53215428D01*
X173027238Y-53310666D01*
X173122476Y-53405904D01*
X173170095Y-53501142D01*
G04 #@! TO.C,U6*
X153366095Y-90314380D02*
X153366095Y-91123904D01*
X153413714Y-91219142D01*
X153461333Y-91266761D01*
X153556571Y-91314380D01*
X153747047Y-91314380D01*
X153842285Y-91266761D01*
X153889904Y-91219142D01*
X153937523Y-91123904D01*
X153937523Y-90314380D01*
X154842285Y-90314380D02*
X154651809Y-90314380D01*
X154556571Y-90362000D01*
X154508952Y-90409619D01*
X154413714Y-90552476D01*
X154366095Y-90742952D01*
X154366095Y-91123904D01*
X154413714Y-91219142D01*
X154461333Y-91266761D01*
X154556571Y-91314380D01*
X154747047Y-91314380D01*
X154842285Y-91266761D01*
X154889904Y-91219142D01*
X154937523Y-91123904D01*
X154937523Y-90885809D01*
X154889904Y-90790571D01*
X154842285Y-90742952D01*
X154747047Y-90695333D01*
X154556571Y-90695333D01*
X154461333Y-90742952D01*
X154413714Y-90790571D01*
X154366095Y-90885809D01*
G04 #@! TO.C,U7*
X152350095Y-74424380D02*
X152350095Y-75233904D01*
X152397714Y-75329142D01*
X152445333Y-75376761D01*
X152540571Y-75424380D01*
X152731047Y-75424380D01*
X152826285Y-75376761D01*
X152873904Y-75329142D01*
X152921523Y-75233904D01*
X152921523Y-74424380D01*
X153302476Y-74424380D02*
X153969142Y-74424380D01*
X153540571Y-75424380D01*
G04 #@! TO.C,U3*
X113702380Y-51293904D02*
X114511904Y-51293904D01*
X114607142Y-51246285D01*
X114654761Y-51198666D01*
X114702380Y-51103428D01*
X114702380Y-50912952D01*
X114654761Y-50817714D01*
X114607142Y-50770095D01*
X114511904Y-50722476D01*
X113702380Y-50722476D01*
X113702380Y-50341523D02*
X113702380Y-49722476D01*
X114083333Y-50055809D01*
X114083333Y-49912952D01*
X114130952Y-49817714D01*
X114178571Y-49770095D01*
X114273809Y-49722476D01*
X114511904Y-49722476D01*
X114607142Y-49770095D01*
X114654761Y-49817714D01*
X114702380Y-49912952D01*
X114702380Y-50198666D01*
X114654761Y-50293904D01*
X114607142Y-50341523D01*
G04 #@! TO.C,REF\002A\002A*
X228994666Y-93394380D02*
X228661333Y-92918190D01*
X228423238Y-93394380D02*
X228423238Y-92394380D01*
X228804190Y-92394380D01*
X228899428Y-92442000D01*
X228947047Y-92489619D01*
X228994666Y-92584857D01*
X228994666Y-92727714D01*
X228947047Y-92822952D01*
X228899428Y-92870571D01*
X228804190Y-92918190D01*
X228423238Y-92918190D01*
X229423238Y-92870571D02*
X229756571Y-92870571D01*
X229899428Y-93394380D02*
X229423238Y-93394380D01*
X229423238Y-92394380D01*
X229899428Y-92394380D01*
X230661333Y-92870571D02*
X230328000Y-92870571D01*
X230328000Y-93394380D02*
X230328000Y-92394380D01*
X230804190Y-92394380D01*
X231328000Y-92394380D02*
X231328000Y-92632476D01*
X231089904Y-92537238D02*
X231328000Y-92632476D01*
X231566095Y-92537238D01*
X231185142Y-92822952D02*
X231328000Y-92632476D01*
X231470857Y-92822952D01*
X232089904Y-92394380D02*
X232089904Y-92632476D01*
X231851809Y-92537238D02*
X232089904Y-92632476D01*
X232328000Y-92537238D01*
X231947047Y-92822952D02*
X232089904Y-92632476D01*
X232232761Y-92822952D01*
X270142666Y-25084380D02*
X269809333Y-24608190D01*
X269571238Y-25084380D02*
X269571238Y-24084380D01*
X269952190Y-24084380D01*
X270047428Y-24132000D01*
X270095047Y-24179619D01*
X270142666Y-24274857D01*
X270142666Y-24417714D01*
X270095047Y-24512952D01*
X270047428Y-24560571D01*
X269952190Y-24608190D01*
X269571238Y-24608190D01*
X270571238Y-24560571D02*
X270904571Y-24560571D01*
X271047428Y-25084380D02*
X270571238Y-25084380D01*
X270571238Y-24084380D01*
X271047428Y-24084380D01*
X271809333Y-24560571D02*
X271476000Y-24560571D01*
X271476000Y-25084380D02*
X271476000Y-24084380D01*
X271952190Y-24084380D01*
X272476000Y-24084380D02*
X272476000Y-24322476D01*
X272237904Y-24227238D02*
X272476000Y-24322476D01*
X272714095Y-24227238D01*
X272333142Y-24512952D02*
X272476000Y-24322476D01*
X272618857Y-24512952D01*
X273237904Y-24084380D02*
X273237904Y-24322476D01*
X272999809Y-24227238D02*
X273237904Y-24322476D01*
X273476000Y-24227238D01*
X273095047Y-24512952D02*
X273237904Y-24322476D01*
X273380761Y-24512952D01*
G04 #@! TD*
M02*
