G04 #@! TF.GenerationSoftware,KiCad,Pcbnew,(5.0.1)-rc2*
G04 #@! TF.CreationDate,2019-05-11T11:12:35-07:00*
G04 #@! TF.ProjectId,LSM6DS3_breakout,4C534D364453335F627265616B6F7574,rev?*
G04 #@! TF.SameCoordinates,Original*
G04 #@! TF.FileFunction,Soldermask,Bot*
G04 #@! TF.FilePolarity,Negative*
%FSLAX46Y46*%
G04 Gerber Fmt 4.6, Leading zero omitted, Abs format (unit mm)*
G04 Created by KiCad (PCBNEW (5.0.1)-rc2) date 5/11/2019 11:12:35 AM*
%MOMM*%
%LPD*%
G01*
G04 APERTURE LIST*
%ADD10C,0.100000*%
G04 APERTURE END LIST*
D10*
G36*
X161736499Y-88607737D02*
X161746111Y-88610653D01*
X161754969Y-88615388D01*
X161762737Y-88621763D01*
X161769112Y-88629531D01*
X161773847Y-88638389D01*
X161776763Y-88648001D01*
X161778352Y-88664140D01*
X161778352Y-90151860D01*
X161776763Y-90167999D01*
X161773847Y-90177611D01*
X161769112Y-90186469D01*
X161762737Y-90194237D01*
X161754969Y-90200612D01*
X161746111Y-90205347D01*
X161736499Y-90208263D01*
X161720360Y-90209852D01*
X160732640Y-90209852D01*
X160716501Y-90208263D01*
X160706889Y-90205347D01*
X160698031Y-90200612D01*
X160681801Y-90187292D01*
X160661427Y-90173678D01*
X160638788Y-90164300D01*
X160614754Y-90159519D01*
X160590250Y-90159519D01*
X160566217Y-90164299D01*
X160543577Y-90173676D01*
X160523203Y-90187289D01*
X160505875Y-90204616D01*
X160502946Y-90209000D01*
X159375500Y-90209000D01*
X159375500Y-88607000D01*
X160503056Y-88607000D01*
X160514112Y-88620471D01*
X160533054Y-88636017D01*
X160554665Y-88647568D01*
X160578114Y-88654681D01*
X160602500Y-88657083D01*
X160626886Y-88654681D01*
X160650335Y-88647568D01*
X160671946Y-88636017D01*
X160681801Y-88628708D01*
X160691838Y-88620471D01*
X160698029Y-88615390D01*
X160698031Y-88615388D01*
X160706889Y-88610653D01*
X160716501Y-88607737D01*
X160732640Y-88606148D01*
X161720360Y-88606148D01*
X161736499Y-88607737D01*
X161736499Y-88607737D01*
G37*
G36*
X172449443Y-88005519D02*
X172515627Y-88012037D01*
X172628853Y-88046384D01*
X172685467Y-88063557D01*
X172824087Y-88137652D01*
X172841991Y-88147222D01*
X172877729Y-88176552D01*
X172979186Y-88259814D01*
X173062448Y-88361271D01*
X173091778Y-88397009D01*
X173091779Y-88397011D01*
X173175443Y-88553533D01*
X173175443Y-88553534D01*
X173226963Y-88723373D01*
X173244359Y-88900000D01*
X173226963Y-89076627D01*
X173217446Y-89108000D01*
X173175443Y-89246467D01*
X173101348Y-89385087D01*
X173091778Y-89402991D01*
X173062448Y-89438729D01*
X172979186Y-89540186D01*
X172877729Y-89623448D01*
X172841991Y-89652778D01*
X172841989Y-89652779D01*
X172685467Y-89736443D01*
X172659773Y-89744237D01*
X172515627Y-89787963D01*
X172449443Y-89794481D01*
X172383260Y-89801000D01*
X172294740Y-89801000D01*
X172228557Y-89794481D01*
X172162373Y-89787963D01*
X172018227Y-89744237D01*
X171992533Y-89736443D01*
X171836011Y-89652779D01*
X171836009Y-89652778D01*
X171800271Y-89623448D01*
X171698814Y-89540186D01*
X171615552Y-89438729D01*
X171586222Y-89402991D01*
X171576652Y-89385087D01*
X171502557Y-89246467D01*
X171460554Y-89108000D01*
X171451037Y-89076627D01*
X171433641Y-88900000D01*
X171451037Y-88723373D01*
X171502557Y-88553534D01*
X171502557Y-88553533D01*
X171586221Y-88397011D01*
X171586222Y-88397009D01*
X171615552Y-88361271D01*
X171698814Y-88259814D01*
X171800271Y-88176552D01*
X171836009Y-88147222D01*
X171853913Y-88137652D01*
X171992533Y-88063557D01*
X172049147Y-88046384D01*
X172162373Y-88012037D01*
X172228557Y-88005519D01*
X172294740Y-87999000D01*
X172383260Y-87999000D01*
X172449443Y-88005519D01*
X172449443Y-88005519D01*
G37*
G36*
X157209443Y-88005519D02*
X157275627Y-88012037D01*
X157388853Y-88046384D01*
X157445467Y-88063557D01*
X157584087Y-88137652D01*
X157601991Y-88147222D01*
X157637729Y-88176552D01*
X157739186Y-88259814D01*
X157822448Y-88361271D01*
X157851778Y-88397009D01*
X157851779Y-88397011D01*
X157935443Y-88553533D01*
X157935443Y-88553534D01*
X157986963Y-88723373D01*
X158004359Y-88900000D01*
X157986963Y-89076627D01*
X157977446Y-89108000D01*
X157935443Y-89246467D01*
X157861348Y-89385087D01*
X157851778Y-89402991D01*
X157822448Y-89438729D01*
X157739186Y-89540186D01*
X157637729Y-89623448D01*
X157601991Y-89652778D01*
X157601989Y-89652779D01*
X157445467Y-89736443D01*
X157419773Y-89744237D01*
X157275627Y-89787963D01*
X157209443Y-89794481D01*
X157143260Y-89801000D01*
X157054740Y-89801000D01*
X156988557Y-89794481D01*
X156922373Y-89787963D01*
X156778227Y-89744237D01*
X156752533Y-89736443D01*
X156596011Y-89652779D01*
X156596009Y-89652778D01*
X156560271Y-89623448D01*
X156458814Y-89540186D01*
X156375552Y-89438729D01*
X156346222Y-89402991D01*
X156336652Y-89385087D01*
X156262557Y-89246467D01*
X156220554Y-89108000D01*
X156211037Y-89076627D01*
X156193641Y-88900000D01*
X156211037Y-88723373D01*
X156262557Y-88553534D01*
X156262557Y-88553533D01*
X156346221Y-88397011D01*
X156346222Y-88397009D01*
X156375552Y-88361271D01*
X156458814Y-88259814D01*
X156560271Y-88176552D01*
X156596009Y-88147222D01*
X156613913Y-88137652D01*
X156752533Y-88063557D01*
X156809147Y-88046384D01*
X156922373Y-88012037D01*
X156988557Y-88005519D01*
X157054740Y-87999000D01*
X157143260Y-87999000D01*
X157209443Y-88005519D01*
X157209443Y-88005519D01*
G37*
G36*
X161799999Y-85813737D02*
X161809611Y-85816653D01*
X161818469Y-85821388D01*
X161826237Y-85827763D01*
X161832612Y-85835531D01*
X161837347Y-85844389D01*
X161840263Y-85854001D01*
X161841852Y-85870140D01*
X161841852Y-87357860D01*
X161840263Y-87373999D01*
X161837347Y-87383611D01*
X161832612Y-87392469D01*
X161826237Y-87400237D01*
X161818469Y-87406612D01*
X161809611Y-87411347D01*
X161799999Y-87414263D01*
X161783860Y-87415852D01*
X160796140Y-87415852D01*
X160780001Y-87414263D01*
X160770389Y-87411347D01*
X160761531Y-87406612D01*
X160745301Y-87393292D01*
X160724927Y-87379678D01*
X160702288Y-87370300D01*
X160678254Y-87365519D01*
X160653750Y-87365519D01*
X160629717Y-87370299D01*
X160607077Y-87379676D01*
X160586703Y-87393289D01*
X160569375Y-87410616D01*
X160566446Y-87415000D01*
X159439000Y-87415000D01*
X159439000Y-85813000D01*
X160566556Y-85813000D01*
X160577612Y-85826471D01*
X160596554Y-85842017D01*
X160618165Y-85853568D01*
X160641614Y-85860681D01*
X160666000Y-85863083D01*
X160690386Y-85860681D01*
X160713835Y-85853568D01*
X160735446Y-85842017D01*
X160745301Y-85834708D01*
X160755338Y-85826471D01*
X160761529Y-85821390D01*
X160761531Y-85821388D01*
X160770389Y-85816653D01*
X160780001Y-85813737D01*
X160796140Y-85812148D01*
X161783860Y-85812148D01*
X161799999Y-85813737D01*
X161799999Y-85813737D01*
G37*
G36*
X157209442Y-85465518D02*
X157275627Y-85472037D01*
X157388853Y-85506384D01*
X157445467Y-85523557D01*
X157584087Y-85597652D01*
X157601991Y-85607222D01*
X157637729Y-85636552D01*
X157739186Y-85719814D01*
X157818659Y-85816654D01*
X157851778Y-85857009D01*
X157851779Y-85857011D01*
X157935443Y-86013533D01*
X157935443Y-86013534D01*
X157986963Y-86183373D01*
X158004359Y-86360000D01*
X157986963Y-86536627D01*
X157952616Y-86649853D01*
X157935443Y-86706467D01*
X157861348Y-86845087D01*
X157851778Y-86862991D01*
X157822448Y-86898729D01*
X157739186Y-87000186D01*
X157637729Y-87083448D01*
X157601991Y-87112778D01*
X157601989Y-87112779D01*
X157445467Y-87196443D01*
X157388853Y-87213616D01*
X157275627Y-87247963D01*
X157209442Y-87254482D01*
X157143260Y-87261000D01*
X157054740Y-87261000D01*
X156988558Y-87254482D01*
X156922373Y-87247963D01*
X156809147Y-87213616D01*
X156752533Y-87196443D01*
X156596011Y-87112779D01*
X156596009Y-87112778D01*
X156560271Y-87083448D01*
X156458814Y-87000186D01*
X156375552Y-86898729D01*
X156346222Y-86862991D01*
X156336652Y-86845087D01*
X156262557Y-86706467D01*
X156245384Y-86649853D01*
X156211037Y-86536627D01*
X156193641Y-86360000D01*
X156211037Y-86183373D01*
X156262557Y-86013534D01*
X156262557Y-86013533D01*
X156346221Y-85857011D01*
X156346222Y-85857009D01*
X156379341Y-85816654D01*
X156458814Y-85719814D01*
X156560271Y-85636552D01*
X156596009Y-85607222D01*
X156613913Y-85597652D01*
X156752533Y-85523557D01*
X156809147Y-85506384D01*
X156922373Y-85472037D01*
X156988558Y-85465518D01*
X157054740Y-85459000D01*
X157143260Y-85459000D01*
X157209442Y-85465518D01*
X157209442Y-85465518D01*
G37*
G36*
X172449442Y-85465518D02*
X172515627Y-85472037D01*
X172628853Y-85506384D01*
X172685467Y-85523557D01*
X172824087Y-85597652D01*
X172841991Y-85607222D01*
X172877729Y-85636552D01*
X172979186Y-85719814D01*
X173058659Y-85816654D01*
X173091778Y-85857009D01*
X173091779Y-85857011D01*
X173175443Y-86013533D01*
X173175443Y-86013534D01*
X173226963Y-86183373D01*
X173244359Y-86360000D01*
X173226963Y-86536627D01*
X173192616Y-86649853D01*
X173175443Y-86706467D01*
X173101348Y-86845087D01*
X173091778Y-86862991D01*
X173062448Y-86898729D01*
X172979186Y-87000186D01*
X172877729Y-87083448D01*
X172841991Y-87112778D01*
X172841989Y-87112779D01*
X172685467Y-87196443D01*
X172628853Y-87213616D01*
X172515627Y-87247963D01*
X172449442Y-87254482D01*
X172383260Y-87261000D01*
X172294740Y-87261000D01*
X172228558Y-87254482D01*
X172162373Y-87247963D01*
X172049147Y-87213616D01*
X171992533Y-87196443D01*
X171836011Y-87112779D01*
X171836009Y-87112778D01*
X171800271Y-87083448D01*
X171698814Y-87000186D01*
X171615552Y-86898729D01*
X171586222Y-86862991D01*
X171576652Y-86845087D01*
X171502557Y-86706467D01*
X171485384Y-86649853D01*
X171451037Y-86536627D01*
X171433641Y-86360000D01*
X171451037Y-86183373D01*
X171502557Y-86013534D01*
X171502557Y-86013533D01*
X171586221Y-85857011D01*
X171586222Y-85857009D01*
X171619341Y-85816654D01*
X171698814Y-85719814D01*
X171800271Y-85636552D01*
X171836009Y-85607222D01*
X171853913Y-85597652D01*
X171992533Y-85523557D01*
X172049147Y-85506384D01*
X172162373Y-85472037D01*
X172228558Y-85465518D01*
X172294740Y-85459000D01*
X172383260Y-85459000D01*
X172449442Y-85465518D01*
X172449442Y-85465518D01*
G37*
G36*
X161814999Y-83273737D02*
X161824611Y-83276653D01*
X161833469Y-83281388D01*
X161841237Y-83287763D01*
X161847612Y-83295531D01*
X161852347Y-83304389D01*
X161855263Y-83314001D01*
X161856852Y-83330140D01*
X161856852Y-84817860D01*
X161855263Y-84833999D01*
X161852347Y-84843611D01*
X161847612Y-84852469D01*
X161841237Y-84860237D01*
X161833469Y-84866612D01*
X161824611Y-84871347D01*
X161814999Y-84874263D01*
X161798860Y-84875852D01*
X160811140Y-84875852D01*
X160795001Y-84874263D01*
X160785389Y-84871347D01*
X160776531Y-84866612D01*
X160760301Y-84853292D01*
X160739927Y-84839678D01*
X160717288Y-84830300D01*
X160693254Y-84825519D01*
X160668750Y-84825519D01*
X160644717Y-84830299D01*
X160622077Y-84839676D01*
X160601703Y-84853289D01*
X160584375Y-84870616D01*
X160581446Y-84875000D01*
X159454000Y-84875000D01*
X159454000Y-83273000D01*
X160581556Y-83273000D01*
X160592612Y-83286471D01*
X160611554Y-83302017D01*
X160633165Y-83313568D01*
X160656614Y-83320681D01*
X160681000Y-83323083D01*
X160705386Y-83320681D01*
X160728835Y-83313568D01*
X160750446Y-83302017D01*
X160760301Y-83294708D01*
X160770338Y-83286471D01*
X160776529Y-83281390D01*
X160776531Y-83281388D01*
X160785389Y-83276653D01*
X160795001Y-83273737D01*
X160811140Y-83272148D01*
X161798860Y-83272148D01*
X161814999Y-83273737D01*
X161814999Y-83273737D01*
G37*
G36*
X173240000Y-84721000D02*
X171438000Y-84721000D01*
X171438000Y-82919000D01*
X173240000Y-82919000D01*
X173240000Y-84721000D01*
X173240000Y-84721000D01*
G37*
G36*
X158000000Y-84721000D02*
X156198000Y-84721000D01*
X156198000Y-82919000D01*
X158000000Y-82919000D01*
X158000000Y-84721000D01*
X158000000Y-84721000D01*
G37*
M02*
