G04 #@! TF.GenerationSoftware,KiCad,Pcbnew,(5.0.1)-rc2*
G04 #@! TF.CreationDate,2019-05-11T11:12:35-07:00*
G04 #@! TF.ProjectId,LSM6DS3_breakout,4C534D364453335F627265616B6F7574,rev?*
G04 #@! TF.SameCoordinates,Original*
G04 #@! TF.FileFunction,Copper,L1,Top,Signal*
G04 #@! TF.FilePolarity,Positive*
%FSLAX46Y46*%
G04 Gerber Fmt 4.6, Leading zero omitted, Abs format (unit mm)*
G04 Created by KiCad (PCBNEW (5.0.1)-rc2) date 5/11/2019 11:12:35 AM*
%MOMM*%
%LPD*%
G01*
G04 APERTURE LIST*
G04 #@! TA.AperFunction,SMDPad,CuDef*
%ADD10R,0.797560X1.198880*%
G04 #@! TD*
G04 #@! TA.AperFunction,Conductor*
%ADD11C,0.100000*%
G04 #@! TD*
G04 #@! TA.AperFunction,SMDPad,CuDef*
%ADD12C,0.875000*%
G04 #@! TD*
G04 #@! TA.AperFunction,SMDPad,CuDef*
%ADD13C,0.400000*%
G04 #@! TD*
G04 #@! TA.AperFunction,SMDPad,CuDef*
%ADD14R,0.675000X0.400000*%
G04 #@! TD*
G04 #@! TA.AperFunction,SMDPad,CuDef*
%ADD15R,0.400000X0.675000*%
G04 #@! TD*
G04 #@! TA.AperFunction,ComponentPad*
%ADD16R,1.700000X1.700000*%
G04 #@! TD*
G04 #@! TA.AperFunction,ComponentPad*
%ADD17O,1.700000X1.700000*%
G04 #@! TD*
G04 #@! TA.AperFunction,ViaPad*
%ADD18C,0.800000*%
G04 #@! TD*
G04 #@! TA.AperFunction,ViaPad*
%ADD19C,0.400000*%
G04 #@! TD*
G04 #@! TA.AperFunction,Conductor*
%ADD20C,0.152400*%
G04 #@! TD*
G04 #@! TA.AperFunction,Conductor*
%ADD21C,0.254000*%
G04 #@! TD*
G04 APERTURE END LIST*
D10*
G04 #@! TO.P,C1,1*
G04 #@! TO.N,GND*
X165417500Y-89090500D03*
G04 #@! TO.P,C1,2*
G04 #@! TO.N,+3V3*
X163619180Y-89090500D03*
G04 #@! TD*
G04 #@! TO.P,C2,2*
G04 #@! TO.N,GND*
X167332660Y-82677000D03*
G04 #@! TO.P,C2,1*
G04 #@! TO.N,+3V3*
X165534340Y-82677000D03*
G04 #@! TD*
D11*
G04 #@! TO.N,+3V3*
G04 #@! TO.C,R1*
G36*
X164286191Y-82203053D02*
X164307426Y-82206203D01*
X164328250Y-82211419D01*
X164348462Y-82218651D01*
X164367868Y-82227830D01*
X164386281Y-82238866D01*
X164403524Y-82251654D01*
X164419430Y-82266070D01*
X164433846Y-82281976D01*
X164446634Y-82299219D01*
X164457670Y-82317632D01*
X164466849Y-82337038D01*
X164474081Y-82357250D01*
X164479297Y-82378074D01*
X164482447Y-82399309D01*
X164483500Y-82420750D01*
X164483500Y-82933250D01*
X164482447Y-82954691D01*
X164479297Y-82975926D01*
X164474081Y-82996750D01*
X164466849Y-83016962D01*
X164457670Y-83036368D01*
X164446634Y-83054781D01*
X164433846Y-83072024D01*
X164419430Y-83087930D01*
X164403524Y-83102346D01*
X164386281Y-83115134D01*
X164367868Y-83126170D01*
X164348462Y-83135349D01*
X164328250Y-83142581D01*
X164307426Y-83147797D01*
X164286191Y-83150947D01*
X164264750Y-83152000D01*
X163827250Y-83152000D01*
X163805809Y-83150947D01*
X163784574Y-83147797D01*
X163763750Y-83142581D01*
X163743538Y-83135349D01*
X163724132Y-83126170D01*
X163705719Y-83115134D01*
X163688476Y-83102346D01*
X163672570Y-83087930D01*
X163658154Y-83072024D01*
X163645366Y-83054781D01*
X163634330Y-83036368D01*
X163625151Y-83016962D01*
X163617919Y-82996750D01*
X163612703Y-82975926D01*
X163609553Y-82954691D01*
X163608500Y-82933250D01*
X163608500Y-82420750D01*
X163609553Y-82399309D01*
X163612703Y-82378074D01*
X163617919Y-82357250D01*
X163625151Y-82337038D01*
X163634330Y-82317632D01*
X163645366Y-82299219D01*
X163658154Y-82281976D01*
X163672570Y-82266070D01*
X163688476Y-82251654D01*
X163705719Y-82238866D01*
X163724132Y-82227830D01*
X163743538Y-82218651D01*
X163763750Y-82211419D01*
X163784574Y-82206203D01*
X163805809Y-82203053D01*
X163827250Y-82202000D01*
X164264750Y-82202000D01*
X164286191Y-82203053D01*
X164286191Y-82203053D01*
G37*
D12*
G04 #@! TD*
G04 #@! TO.P,R1,2*
G04 #@! TO.N,+3V3*
X164046000Y-82677000D03*
D11*
G04 #@! TO.N,/SDA*
G04 #@! TO.C,R1*
G36*
X162711191Y-82203053D02*
X162732426Y-82206203D01*
X162753250Y-82211419D01*
X162773462Y-82218651D01*
X162792868Y-82227830D01*
X162811281Y-82238866D01*
X162828524Y-82251654D01*
X162844430Y-82266070D01*
X162858846Y-82281976D01*
X162871634Y-82299219D01*
X162882670Y-82317632D01*
X162891849Y-82337038D01*
X162899081Y-82357250D01*
X162904297Y-82378074D01*
X162907447Y-82399309D01*
X162908500Y-82420750D01*
X162908500Y-82933250D01*
X162907447Y-82954691D01*
X162904297Y-82975926D01*
X162899081Y-82996750D01*
X162891849Y-83016962D01*
X162882670Y-83036368D01*
X162871634Y-83054781D01*
X162858846Y-83072024D01*
X162844430Y-83087930D01*
X162828524Y-83102346D01*
X162811281Y-83115134D01*
X162792868Y-83126170D01*
X162773462Y-83135349D01*
X162753250Y-83142581D01*
X162732426Y-83147797D01*
X162711191Y-83150947D01*
X162689750Y-83152000D01*
X162252250Y-83152000D01*
X162230809Y-83150947D01*
X162209574Y-83147797D01*
X162188750Y-83142581D01*
X162168538Y-83135349D01*
X162149132Y-83126170D01*
X162130719Y-83115134D01*
X162113476Y-83102346D01*
X162097570Y-83087930D01*
X162083154Y-83072024D01*
X162070366Y-83054781D01*
X162059330Y-83036368D01*
X162050151Y-83016962D01*
X162042919Y-82996750D01*
X162037703Y-82975926D01*
X162034553Y-82954691D01*
X162033500Y-82933250D01*
X162033500Y-82420750D01*
X162034553Y-82399309D01*
X162037703Y-82378074D01*
X162042919Y-82357250D01*
X162050151Y-82337038D01*
X162059330Y-82317632D01*
X162070366Y-82299219D01*
X162083154Y-82281976D01*
X162097570Y-82266070D01*
X162113476Y-82251654D01*
X162130719Y-82238866D01*
X162149132Y-82227830D01*
X162168538Y-82218651D01*
X162188750Y-82211419D01*
X162209574Y-82206203D01*
X162230809Y-82203053D01*
X162252250Y-82202000D01*
X162689750Y-82202000D01*
X162711191Y-82203053D01*
X162711191Y-82203053D01*
G37*
D12*
G04 #@! TD*
G04 #@! TO.P,R1,1*
G04 #@! TO.N,/SDA*
X162471000Y-82677000D03*
D11*
G04 #@! TO.N,/SCL*
G04 #@! TO.C,R2*
G36*
X165759191Y-83790553D02*
X165780426Y-83793703D01*
X165801250Y-83798919D01*
X165821462Y-83806151D01*
X165840868Y-83815330D01*
X165859281Y-83826366D01*
X165876524Y-83839154D01*
X165892430Y-83853570D01*
X165906846Y-83869476D01*
X165919634Y-83886719D01*
X165930670Y-83905132D01*
X165939849Y-83924538D01*
X165947081Y-83944750D01*
X165952297Y-83965574D01*
X165955447Y-83986809D01*
X165956500Y-84008250D01*
X165956500Y-84520750D01*
X165955447Y-84542191D01*
X165952297Y-84563426D01*
X165947081Y-84584250D01*
X165939849Y-84604462D01*
X165930670Y-84623868D01*
X165919634Y-84642281D01*
X165906846Y-84659524D01*
X165892430Y-84675430D01*
X165876524Y-84689846D01*
X165859281Y-84702634D01*
X165840868Y-84713670D01*
X165821462Y-84722849D01*
X165801250Y-84730081D01*
X165780426Y-84735297D01*
X165759191Y-84738447D01*
X165737750Y-84739500D01*
X165300250Y-84739500D01*
X165278809Y-84738447D01*
X165257574Y-84735297D01*
X165236750Y-84730081D01*
X165216538Y-84722849D01*
X165197132Y-84713670D01*
X165178719Y-84702634D01*
X165161476Y-84689846D01*
X165145570Y-84675430D01*
X165131154Y-84659524D01*
X165118366Y-84642281D01*
X165107330Y-84623868D01*
X165098151Y-84604462D01*
X165090919Y-84584250D01*
X165085703Y-84563426D01*
X165082553Y-84542191D01*
X165081500Y-84520750D01*
X165081500Y-84008250D01*
X165082553Y-83986809D01*
X165085703Y-83965574D01*
X165090919Y-83944750D01*
X165098151Y-83924538D01*
X165107330Y-83905132D01*
X165118366Y-83886719D01*
X165131154Y-83869476D01*
X165145570Y-83853570D01*
X165161476Y-83839154D01*
X165178719Y-83826366D01*
X165197132Y-83815330D01*
X165216538Y-83806151D01*
X165236750Y-83798919D01*
X165257574Y-83793703D01*
X165278809Y-83790553D01*
X165300250Y-83789500D01*
X165737750Y-83789500D01*
X165759191Y-83790553D01*
X165759191Y-83790553D01*
G37*
D12*
G04 #@! TD*
G04 #@! TO.P,R2,1*
G04 #@! TO.N,/SCL*
X165519000Y-84264500D03*
D11*
G04 #@! TO.N,+3V3*
G04 #@! TO.C,R2*
G36*
X167334191Y-83790553D02*
X167355426Y-83793703D01*
X167376250Y-83798919D01*
X167396462Y-83806151D01*
X167415868Y-83815330D01*
X167434281Y-83826366D01*
X167451524Y-83839154D01*
X167467430Y-83853570D01*
X167481846Y-83869476D01*
X167494634Y-83886719D01*
X167505670Y-83905132D01*
X167514849Y-83924538D01*
X167522081Y-83944750D01*
X167527297Y-83965574D01*
X167530447Y-83986809D01*
X167531500Y-84008250D01*
X167531500Y-84520750D01*
X167530447Y-84542191D01*
X167527297Y-84563426D01*
X167522081Y-84584250D01*
X167514849Y-84604462D01*
X167505670Y-84623868D01*
X167494634Y-84642281D01*
X167481846Y-84659524D01*
X167467430Y-84675430D01*
X167451524Y-84689846D01*
X167434281Y-84702634D01*
X167415868Y-84713670D01*
X167396462Y-84722849D01*
X167376250Y-84730081D01*
X167355426Y-84735297D01*
X167334191Y-84738447D01*
X167312750Y-84739500D01*
X166875250Y-84739500D01*
X166853809Y-84738447D01*
X166832574Y-84735297D01*
X166811750Y-84730081D01*
X166791538Y-84722849D01*
X166772132Y-84713670D01*
X166753719Y-84702634D01*
X166736476Y-84689846D01*
X166720570Y-84675430D01*
X166706154Y-84659524D01*
X166693366Y-84642281D01*
X166682330Y-84623868D01*
X166673151Y-84604462D01*
X166665919Y-84584250D01*
X166660703Y-84563426D01*
X166657553Y-84542191D01*
X166656500Y-84520750D01*
X166656500Y-84008250D01*
X166657553Y-83986809D01*
X166660703Y-83965574D01*
X166665919Y-83944750D01*
X166673151Y-83924538D01*
X166682330Y-83905132D01*
X166693366Y-83886719D01*
X166706154Y-83869476D01*
X166720570Y-83853570D01*
X166736476Y-83839154D01*
X166753719Y-83826366D01*
X166772132Y-83815330D01*
X166791538Y-83806151D01*
X166811750Y-83798919D01*
X166832574Y-83793703D01*
X166853809Y-83790553D01*
X166875250Y-83789500D01*
X167312750Y-83789500D01*
X167334191Y-83790553D01*
X167334191Y-83790553D01*
G37*
D12*
G04 #@! TD*
G04 #@! TO.P,R2,2*
G04 #@! TO.N,+3V3*
X167094000Y-84264500D03*
D11*
G04 #@! TO.N,/CS*
G04 #@! TO.C,R3*
G36*
X167600191Y-86698053D02*
X167621426Y-86701203D01*
X167642250Y-86706419D01*
X167662462Y-86713651D01*
X167681868Y-86722830D01*
X167700281Y-86733866D01*
X167717524Y-86746654D01*
X167733430Y-86761070D01*
X167747846Y-86776976D01*
X167760634Y-86794219D01*
X167771670Y-86812632D01*
X167780849Y-86832038D01*
X167788081Y-86852250D01*
X167793297Y-86873074D01*
X167796447Y-86894309D01*
X167797500Y-86915750D01*
X167797500Y-87353250D01*
X167796447Y-87374691D01*
X167793297Y-87395926D01*
X167788081Y-87416750D01*
X167780849Y-87436962D01*
X167771670Y-87456368D01*
X167760634Y-87474781D01*
X167747846Y-87492024D01*
X167733430Y-87507930D01*
X167717524Y-87522346D01*
X167700281Y-87535134D01*
X167681868Y-87546170D01*
X167662462Y-87555349D01*
X167642250Y-87562581D01*
X167621426Y-87567797D01*
X167600191Y-87570947D01*
X167578750Y-87572000D01*
X167066250Y-87572000D01*
X167044809Y-87570947D01*
X167023574Y-87567797D01*
X167002750Y-87562581D01*
X166982538Y-87555349D01*
X166963132Y-87546170D01*
X166944719Y-87535134D01*
X166927476Y-87522346D01*
X166911570Y-87507930D01*
X166897154Y-87492024D01*
X166884366Y-87474781D01*
X166873330Y-87456368D01*
X166864151Y-87436962D01*
X166856919Y-87416750D01*
X166851703Y-87395926D01*
X166848553Y-87374691D01*
X166847500Y-87353250D01*
X166847500Y-86915750D01*
X166848553Y-86894309D01*
X166851703Y-86873074D01*
X166856919Y-86852250D01*
X166864151Y-86832038D01*
X166873330Y-86812632D01*
X166884366Y-86794219D01*
X166897154Y-86776976D01*
X166911570Y-86761070D01*
X166927476Y-86746654D01*
X166944719Y-86733866D01*
X166963132Y-86722830D01*
X166982538Y-86713651D01*
X167002750Y-86706419D01*
X167023574Y-86701203D01*
X167044809Y-86698053D01*
X167066250Y-86697000D01*
X167578750Y-86697000D01*
X167600191Y-86698053D01*
X167600191Y-86698053D01*
G37*
D12*
G04 #@! TD*
G04 #@! TO.P,R3,1*
G04 #@! TO.N,/CS*
X167322500Y-87134500D03*
D11*
G04 #@! TO.N,+3V3*
G04 #@! TO.C,R3*
G36*
X167600191Y-88273053D02*
X167621426Y-88276203D01*
X167642250Y-88281419D01*
X167662462Y-88288651D01*
X167681868Y-88297830D01*
X167700281Y-88308866D01*
X167717524Y-88321654D01*
X167733430Y-88336070D01*
X167747846Y-88351976D01*
X167760634Y-88369219D01*
X167771670Y-88387632D01*
X167780849Y-88407038D01*
X167788081Y-88427250D01*
X167793297Y-88448074D01*
X167796447Y-88469309D01*
X167797500Y-88490750D01*
X167797500Y-88928250D01*
X167796447Y-88949691D01*
X167793297Y-88970926D01*
X167788081Y-88991750D01*
X167780849Y-89011962D01*
X167771670Y-89031368D01*
X167760634Y-89049781D01*
X167747846Y-89067024D01*
X167733430Y-89082930D01*
X167717524Y-89097346D01*
X167700281Y-89110134D01*
X167681868Y-89121170D01*
X167662462Y-89130349D01*
X167642250Y-89137581D01*
X167621426Y-89142797D01*
X167600191Y-89145947D01*
X167578750Y-89147000D01*
X167066250Y-89147000D01*
X167044809Y-89145947D01*
X167023574Y-89142797D01*
X167002750Y-89137581D01*
X166982538Y-89130349D01*
X166963132Y-89121170D01*
X166944719Y-89110134D01*
X166927476Y-89097346D01*
X166911570Y-89082930D01*
X166897154Y-89067024D01*
X166884366Y-89049781D01*
X166873330Y-89031368D01*
X166864151Y-89011962D01*
X166856919Y-88991750D01*
X166851703Y-88970926D01*
X166848553Y-88949691D01*
X166847500Y-88928250D01*
X166847500Y-88490750D01*
X166848553Y-88469309D01*
X166851703Y-88448074D01*
X166856919Y-88427250D01*
X166864151Y-88407038D01*
X166873330Y-88387632D01*
X166884366Y-88369219D01*
X166897154Y-88351976D01*
X166911570Y-88336070D01*
X166927476Y-88321654D01*
X166944719Y-88308866D01*
X166963132Y-88297830D01*
X166982538Y-88288651D01*
X167002750Y-88281419D01*
X167023574Y-88276203D01*
X167044809Y-88273053D01*
X167066250Y-88272000D01*
X167578750Y-88272000D01*
X167600191Y-88273053D01*
X167600191Y-88273053D01*
G37*
D12*
G04 #@! TD*
G04 #@! TO.P,R3,2*
G04 #@! TO.N,+3V3*
X167322500Y-88709500D03*
D13*
G04 #@! TO.P,U1,1*
G04 #@! TO.N,/SDO*
X163454500Y-85927500D03*
D11*
G04 #@! TD*
G04 #@! TO.N,/SDO*
G04 #@! TO.C,U1*
G36*
X163792000Y-85977500D02*
X163792000Y-86127500D01*
X163117000Y-86127500D01*
X163117000Y-85727500D01*
X163542000Y-85727500D01*
X163792000Y-85977500D01*
X163792000Y-85977500D01*
G37*
D14*
G04 #@! TO.P,U1,2*
G04 #@! TO.N,/SDX*
X163454500Y-86427500D03*
G04 #@! TO.P,U1,3*
G04 #@! TO.N,/SCX*
X163454500Y-86927500D03*
D13*
G04 #@! TO.P,U1,4*
G04 #@! TO.N,/INT1*
X163454500Y-87427500D03*
D11*
G04 #@! TD*
G04 #@! TO.N,/INT1*
G04 #@! TO.C,U1*
G36*
X163792000Y-87377500D02*
X163542000Y-87627500D01*
X163117000Y-87627500D01*
X163117000Y-87227500D01*
X163792000Y-87227500D01*
X163792000Y-87377500D01*
X163792000Y-87377500D01*
G37*
D13*
G04 #@! TO.P,U1,5*
G04 #@! TO.N,+3V3*
X164092000Y-87565000D03*
D11*
G04 #@! TD*
G04 #@! TO.N,+3V3*
G04 #@! TO.C,U1*
G36*
X164292000Y-87902500D02*
X163892000Y-87902500D01*
X163892000Y-87477500D01*
X164142000Y-87227500D01*
X164292000Y-87227500D01*
X164292000Y-87902500D01*
X164292000Y-87902500D01*
G37*
D15*
G04 #@! TO.P,U1,6*
G04 #@! TO.N,GND*
X164592000Y-87565000D03*
D13*
G04 #@! TO.P,U1,7*
X165092000Y-87565000D03*
D11*
G04 #@! TD*
G04 #@! TO.N,GND*
G04 #@! TO.C,U1*
G36*
X165292000Y-87477500D02*
X165292000Y-87902500D01*
X164892000Y-87902500D01*
X164892000Y-87227500D01*
X165042000Y-87227500D01*
X165292000Y-87477500D01*
X165292000Y-87477500D01*
G37*
D13*
G04 #@! TO.P,U1,8*
G04 #@! TO.N,+3V3*
X165729500Y-87427500D03*
D11*
G04 #@! TD*
G04 #@! TO.N,+3V3*
G04 #@! TO.C,U1*
G36*
X166067000Y-87627500D02*
X165642000Y-87627500D01*
X165392000Y-87377500D01*
X165392000Y-87227500D01*
X166067000Y-87227500D01*
X166067000Y-87627500D01*
X166067000Y-87627500D01*
G37*
D14*
G04 #@! TO.P,U1,9*
G04 #@! TO.N,/INT2*
X165729500Y-86927500D03*
G04 #@! TO.P,U1,10*
G04 #@! TO.N,Net-(U1-Pad10)*
X165729500Y-86427500D03*
D13*
G04 #@! TO.P,U1,11*
G04 #@! TO.N,Net-(U1-Pad11)*
X165729500Y-85927500D03*
D11*
G04 #@! TD*
G04 #@! TO.N,Net-(U1-Pad11)*
G04 #@! TO.C,U1*
G36*
X166067000Y-86127500D02*
X165392000Y-86127500D01*
X165392000Y-85977500D01*
X165642000Y-85727500D01*
X166067000Y-85727500D01*
X166067000Y-86127500D01*
X166067000Y-86127500D01*
G37*
D13*
G04 #@! TO.P,U1,12*
G04 #@! TO.N,/CS*
X165092000Y-85790000D03*
D11*
G04 #@! TD*
G04 #@! TO.N,/CS*
G04 #@! TO.C,U1*
G36*
X165292000Y-85877500D02*
X165042000Y-86127500D01*
X164892000Y-86127500D01*
X164892000Y-85452500D01*
X165292000Y-85452500D01*
X165292000Y-85877500D01*
X165292000Y-85877500D01*
G37*
D15*
G04 #@! TO.P,U1,13*
G04 #@! TO.N,/SCL*
X164592000Y-85790000D03*
D13*
G04 #@! TO.P,U1,14*
G04 #@! TO.N,/SDA*
X164092000Y-85790000D03*
D11*
G04 #@! TD*
G04 #@! TO.N,/SDA*
G04 #@! TO.C,U1*
G36*
X164292000Y-86127500D02*
X164142000Y-86127500D01*
X163892000Y-85877500D01*
X163892000Y-85452500D01*
X164292000Y-85452500D01*
X164292000Y-86127500D01*
X164292000Y-86127500D01*
G37*
D16*
G04 #@! TO.P,J1,1*
G04 #@! TO.N,/SCL*
X157099000Y-83820000D03*
D17*
G04 #@! TO.P,J1,2*
G04 #@! TO.N,/SDA*
X157099000Y-86360000D03*
G04 #@! TO.P,J1,3*
G04 #@! TO.N,/INT1*
X157099000Y-88900000D03*
G04 #@! TD*
G04 #@! TO.P,J2,3*
G04 #@! TO.N,/INT2*
X172339000Y-88900000D03*
G04 #@! TO.P,J2,2*
G04 #@! TO.N,GND*
X172339000Y-86360000D03*
D16*
G04 #@! TO.P,J2,1*
G04 #@! TO.N,+3V3*
X172339000Y-83820000D03*
G04 #@! TD*
D18*
G04 #@! TO.N,GND*
X168910000Y-85598000D03*
X162560000Y-89662000D03*
X158496000Y-87630000D03*
D19*
X164592000Y-89408000D03*
D18*
X169545000Y-83058000D03*
X168910000Y-89662000D03*
D19*
G04 #@! TO.N,/SDA*
X159258000Y-82296000D03*
G04 #@! TO.N,/SDO*
X162623500Y-85598000D03*
G04 #@! TO.N,/SDX*
X162560000Y-86487000D03*
G04 #@! TO.N,/SCX*
X162560000Y-87122000D03*
G04 #@! TO.N,/INT2*
X168529000Y-87376000D03*
G04 #@! TD*
D20*
G04 #@! TO.N,GND*
X165417500Y-87890500D02*
X165092000Y-87565000D01*
X165417500Y-89090500D02*
X165417500Y-87890500D01*
X164866320Y-89090500D02*
X165417500Y-89090500D01*
X164592000Y-88816180D02*
X164866320Y-89090500D01*
X164592000Y-87565000D02*
X164592000Y-88816180D01*
X165417500Y-89090500D02*
X164909500Y-89090500D01*
X164909500Y-89090500D02*
X164592000Y-89408000D01*
G04 #@! TO.N,+3V3*
X167094000Y-83689500D02*
X167094000Y-84264500D01*
X166909541Y-83505041D02*
X167094000Y-83689500D01*
X166705279Y-83459321D02*
X166750999Y-83505041D01*
X166705279Y-83296759D02*
X166705279Y-83459321D01*
X166750999Y-83505041D02*
X166909541Y-83505041D01*
X166085520Y-82677000D02*
X166705279Y-83296759D01*
X165534340Y-82677000D02*
X166085520Y-82677000D01*
X164046000Y-82677000D02*
X165534340Y-82677000D01*
X164092000Y-88617680D02*
X163619180Y-89090500D01*
X164092000Y-87565000D02*
X164092000Y-88617680D01*
X163619180Y-89842340D02*
X163946840Y-90170000D01*
X163619180Y-89090500D02*
X163619180Y-89842340D01*
X165862000Y-90170000D02*
X167322500Y-88709500D01*
X163946840Y-90170000D02*
X165862000Y-90170000D01*
X166040500Y-87427500D02*
X165729500Y-87427500D01*
X167322500Y-88709500D02*
X166040500Y-87427500D01*
X171894500Y-84264500D02*
X172339000Y-83820000D01*
X167094000Y-84264500D02*
X171894500Y-84264500D01*
X172212000Y-83820000D02*
X172339000Y-83820000D01*
X172339000Y-83947000D02*
X172339000Y-83820000D01*
X170688000Y-85598000D02*
X172339000Y-83947000D01*
X170688000Y-86473400D02*
X170688000Y-85598000D01*
X168913512Y-88247888D02*
X170688000Y-86473400D01*
X167322500Y-88709500D02*
X167784112Y-88247888D01*
X167784112Y-88247888D02*
X168913512Y-88247888D01*
G04 #@! TO.N,/SDA*
X163927804Y-85790000D02*
X163227804Y-85090000D01*
X164092000Y-85790000D02*
X163927804Y-85790000D01*
X158369000Y-85090000D02*
X157099000Y-86360000D01*
X163227804Y-85090000D02*
X158369000Y-85090000D01*
X162009388Y-82215388D02*
X161624612Y-82215388D01*
X162471000Y-82677000D02*
X162009388Y-82215388D01*
X161624612Y-82215388D02*
X161544000Y-82296000D01*
X161544000Y-82296000D02*
X159258000Y-82296000D01*
G04 #@! TO.N,/SCL*
X158101400Y-83820000D02*
X157099000Y-83820000D01*
X162982804Y-83820000D02*
X158101400Y-83820000D01*
X164592000Y-85429196D02*
X162982804Y-83820000D01*
X164592000Y-85790000D02*
X164592000Y-85429196D01*
X164537000Y-83820000D02*
X162982804Y-83820000D01*
X164981500Y-84264500D02*
X164537000Y-83820000D01*
X165519000Y-84264500D02*
X164981500Y-84264500D01*
G04 #@! TO.N,/SDO*
X163454500Y-85927500D02*
X162953000Y-85927500D01*
X162953000Y-85927500D02*
X162623500Y-85598000D01*
G04 #@! TO.N,/SDX*
X163454500Y-86427500D02*
X162619500Y-86427500D01*
X162619500Y-86427500D02*
X162560000Y-86487000D01*
G04 #@! TO.N,/SCX*
X163454500Y-86927500D02*
X162754500Y-86927500D01*
X162754500Y-86927500D02*
X162560000Y-87122000D01*
G04 #@! TO.N,/CS*
X167322500Y-86597000D02*
X167068500Y-86343000D01*
X167322500Y-87134500D02*
X167322500Y-86597000D01*
X165362710Y-85519290D02*
X165092000Y-85790000D01*
X165383110Y-85498890D02*
X165362710Y-85519290D01*
X166161694Y-85498890D02*
X165383110Y-85498890D01*
X166295610Y-85632806D02*
X166161694Y-85498890D01*
X166295610Y-85790000D02*
X166295610Y-85632806D01*
X166452804Y-85790000D02*
X166295610Y-85790000D01*
X167005804Y-86343000D02*
X166452804Y-85790000D01*
X167068500Y-86343000D02*
X167005804Y-86343000D01*
G04 #@! TO.N,/INT1*
X161982000Y-88900000D02*
X157099000Y-88900000D01*
X163454500Y-87427500D02*
X161982000Y-88900000D01*
G04 #@! TO.N,/INT2*
X166048500Y-86927500D02*
X165729500Y-86927500D01*
X166119890Y-86998890D02*
X166048500Y-86927500D01*
X166246890Y-86998890D02*
X166119890Y-86998890D01*
X166433500Y-87185500D02*
X166246890Y-86998890D01*
X168529000Y-87376000D02*
X167521274Y-88043390D01*
X167521274Y-88043390D02*
X167123726Y-88043390D01*
X167123726Y-88043390D02*
X166433500Y-87353164D01*
X166433500Y-87353164D02*
X166433500Y-87185500D01*
G04 #@! TD*
D21*
G04 #@! TO.N,GND*
G36*
X171067355Y-87126924D02*
X171457642Y-87555183D01*
X171587478Y-87616157D01*
X171268375Y-87829375D01*
X170940161Y-88320582D01*
X170824908Y-88900000D01*
X170940161Y-89479418D01*
X171268375Y-89970625D01*
X171607169Y-90197000D01*
X166840788Y-90197000D01*
X167243349Y-89794440D01*
X167578750Y-89794440D01*
X167910227Y-89728505D01*
X168191239Y-89540739D01*
X168379005Y-89259727D01*
X168438806Y-88959088D01*
X168843471Y-88959088D01*
X168913512Y-88973020D01*
X168983553Y-88959088D01*
X168983558Y-88959088D01*
X169191008Y-88917824D01*
X169426258Y-88760634D01*
X169465936Y-88701252D01*
X171059421Y-87107768D01*
X171067355Y-87126924D01*
X171067355Y-87126924D01*
G37*
X171067355Y-87126924D02*
X171457642Y-87555183D01*
X171587478Y-87616157D01*
X171268375Y-87829375D01*
X170940161Y-88320582D01*
X170824908Y-88900000D01*
X170940161Y-89479418D01*
X171268375Y-89970625D01*
X171607169Y-90197000D01*
X166840788Y-90197000D01*
X167243349Y-89794440D01*
X167578750Y-89794440D01*
X167910227Y-89728505D01*
X168191239Y-89540739D01*
X168379005Y-89259727D01*
X168438806Y-88959088D01*
X168843471Y-88959088D01*
X168913512Y-88973020D01*
X168983553Y-88959088D01*
X168983558Y-88959088D01*
X169191008Y-88917824D01*
X169426258Y-88760634D01*
X169465936Y-88701252D01*
X171059421Y-87107768D01*
X171067355Y-87126924D01*
G36*
X162572960Y-89689940D02*
X162622243Y-89937705D01*
X162762591Y-90147749D01*
X162836300Y-90197000D01*
X157830831Y-90197000D01*
X158169625Y-89970625D01*
X158409785Y-89611200D01*
X161911959Y-89611200D01*
X161982000Y-89625132D01*
X162052041Y-89611200D01*
X162052046Y-89611200D01*
X162259496Y-89569936D01*
X162494746Y-89412746D01*
X162534424Y-89353364D01*
X162572960Y-89314828D01*
X162572960Y-89689940D01*
X162572960Y-89689940D01*
G37*
X162572960Y-89689940D02*
X162622243Y-89937705D01*
X162762591Y-90147749D01*
X162836300Y-90197000D01*
X157830831Y-90197000D01*
X158169625Y-89970625D01*
X158409785Y-89611200D01*
X161911959Y-89611200D01*
X161982000Y-89625132D01*
X162052041Y-89611200D01*
X162052046Y-89611200D01*
X162259496Y-89569936D01*
X162494746Y-89412746D01*
X162534424Y-89353364D01*
X162572960Y-89314828D01*
X162572960Y-89689940D01*
G36*
X165544500Y-88963500D02*
X165564500Y-88963500D01*
X165564500Y-89217500D01*
X165544500Y-89217500D01*
X165544500Y-89237500D01*
X165290500Y-89237500D01*
X165290500Y-89217500D01*
X165270500Y-89217500D01*
X165270500Y-88963500D01*
X165290500Y-88963500D01*
X165290500Y-88943500D01*
X165544500Y-88943500D01*
X165544500Y-88963500D01*
X165544500Y-88963500D01*
G37*
X165544500Y-88963500D02*
X165564500Y-88963500D01*
X165564500Y-89217500D01*
X165544500Y-89217500D01*
X165544500Y-89237500D01*
X165290500Y-89237500D01*
X165290500Y-89217500D01*
X165270500Y-89217500D01*
X165270500Y-88963500D01*
X165290500Y-88963500D01*
X165290500Y-88943500D01*
X165544500Y-88943500D01*
X165544500Y-88963500D01*
G36*
X161880333Y-85985798D02*
X161852121Y-86014010D01*
X161725000Y-86320908D01*
X161725000Y-86653092D01*
X161787715Y-86804500D01*
X161725000Y-86955908D01*
X161725000Y-87288092D01*
X161852121Y-87594990D01*
X162066671Y-87809540D01*
X161687412Y-88188800D01*
X158409785Y-88188800D01*
X158169625Y-87829375D01*
X157871239Y-87630000D01*
X158169625Y-87430625D01*
X158497839Y-86939418D01*
X158613092Y-86360000D01*
X158528759Y-85936029D01*
X158663589Y-85801200D01*
X161803871Y-85801200D01*
X161880333Y-85985798D01*
X161880333Y-85985798D01*
G37*
X161880333Y-85985798D02*
X161852121Y-86014010D01*
X161725000Y-86320908D01*
X161725000Y-86653092D01*
X161787715Y-86804500D01*
X161725000Y-86955908D01*
X161725000Y-87288092D01*
X161852121Y-87594990D01*
X162066671Y-87809540D01*
X161687412Y-88188800D01*
X158409785Y-88188800D01*
X158169625Y-87829375D01*
X157871239Y-87630000D01*
X158169625Y-87430625D01*
X158497839Y-86939418D01*
X158613092Y-86360000D01*
X158528759Y-85936029D01*
X158663589Y-85801200D01*
X161803871Y-85801200D01*
X161880333Y-85985798D01*
G36*
X170234634Y-85045578D02*
X170175255Y-85085254D01*
X170135579Y-85144633D01*
X170135576Y-85144636D01*
X170060120Y-85257564D01*
X170018065Y-85320504D01*
X169976800Y-85527954D01*
X169976800Y-85527959D01*
X169962868Y-85598000D01*
X169976800Y-85668041D01*
X169976800Y-86178811D01*
X169241484Y-86914128D01*
X169236879Y-86903010D01*
X169001990Y-86668121D01*
X168695092Y-86541000D01*
X168362908Y-86541000D01*
X168352869Y-86545158D01*
X168191239Y-86303261D01*
X167910227Y-86115495D01*
X167847827Y-86103083D01*
X167835246Y-86084254D01*
X167775864Y-86044576D01*
X167620923Y-85889635D01*
X167581246Y-85830254D01*
X167345996Y-85673064D01*
X167340579Y-85671987D01*
X167055532Y-85386940D01*
X167312750Y-85386940D01*
X167644227Y-85321005D01*
X167925239Y-85133239D01*
X168030503Y-84975700D01*
X170304512Y-84975700D01*
X170234634Y-85045578D01*
X170234634Y-85045578D01*
G37*
X170234634Y-85045578D02*
X170175255Y-85085254D01*
X170135579Y-85144633D01*
X170135576Y-85144636D01*
X170060120Y-85257564D01*
X170018065Y-85320504D01*
X169976800Y-85527954D01*
X169976800Y-85527959D01*
X169962868Y-85598000D01*
X169976800Y-85668041D01*
X169976800Y-86178811D01*
X169241484Y-86914128D01*
X169236879Y-86903010D01*
X169001990Y-86668121D01*
X168695092Y-86541000D01*
X168362908Y-86541000D01*
X168352869Y-86545158D01*
X168191239Y-86303261D01*
X167910227Y-86115495D01*
X167847827Y-86103083D01*
X167835246Y-86084254D01*
X167775864Y-86044576D01*
X167620923Y-85889635D01*
X167581246Y-85830254D01*
X167345996Y-85673064D01*
X167340579Y-85671987D01*
X167055532Y-85386940D01*
X167312750Y-85386940D01*
X167644227Y-85321005D01*
X167925239Y-85133239D01*
X168030503Y-84975700D01*
X170304512Y-84975700D01*
X170234634Y-85045578D01*
G36*
X172466000Y-86233000D02*
X172486000Y-86233000D01*
X172486000Y-86487000D01*
X172466000Y-86487000D01*
X172466000Y-86507000D01*
X172212000Y-86507000D01*
X172212000Y-86487000D01*
X172192000Y-86487000D01*
X172192000Y-86233000D01*
X172212000Y-86233000D01*
X172212000Y-86213000D01*
X172466000Y-86213000D01*
X172466000Y-86233000D01*
X172466000Y-86233000D01*
G37*
X172466000Y-86233000D02*
X172486000Y-86233000D01*
X172486000Y-86487000D01*
X172466000Y-86487000D01*
X172466000Y-86507000D01*
X172212000Y-86507000D01*
X172212000Y-86487000D01*
X172192000Y-86487000D01*
X172192000Y-86233000D01*
X172212000Y-86233000D01*
X172212000Y-86213000D01*
X172466000Y-86213000D01*
X172466000Y-86233000D01*
G36*
X170890843Y-82722235D02*
X170841560Y-82970000D01*
X170841560Y-83553300D01*
X168304080Y-83553300D01*
X168366440Y-83402750D01*
X168366440Y-82962750D01*
X168207690Y-82804000D01*
X167459660Y-82804000D01*
X167459660Y-82824000D01*
X167244743Y-82824000D01*
X167218024Y-82784013D01*
X167185660Y-82762388D01*
X167185660Y-82550000D01*
X167205660Y-82550000D01*
X167205660Y-82530000D01*
X167459660Y-82530000D01*
X167459660Y-82550000D01*
X168207690Y-82550000D01*
X168234690Y-82523000D01*
X171023969Y-82523000D01*
X170890843Y-82722235D01*
X170890843Y-82722235D01*
G37*
X170890843Y-82722235D02*
X170841560Y-82970000D01*
X170841560Y-83553300D01*
X168304080Y-83553300D01*
X168366440Y-83402750D01*
X168366440Y-82962750D01*
X168207690Y-82804000D01*
X167459660Y-82804000D01*
X167459660Y-82824000D01*
X167244743Y-82824000D01*
X167218024Y-82784013D01*
X167185660Y-82762388D01*
X167185660Y-82550000D01*
X167205660Y-82550000D01*
X167205660Y-82530000D01*
X167459660Y-82530000D01*
X167459660Y-82550000D01*
X168207690Y-82550000D01*
X168234690Y-82523000D01*
X171023969Y-82523000D01*
X170890843Y-82722235D01*
G04 #@! TD*
M02*
