G04 #@! TF.GenerationSoftware,KiCad,Pcbnew,(5.0.1)-rc2*
G04 #@! TF.CreationDate,2019-05-10T17:23:19-07:00*
G04 #@! TF.ProjectId,LSM6DS3_breakout,4C534D364453335F627265616B6F7574,rev?*
G04 #@! TF.SameCoordinates,Original*
G04 #@! TF.FileFunction,Legend,Bot*
G04 #@! TF.FilePolarity,Positive*
%FSLAX46Y46*%
G04 Gerber Fmt 4.6, Leading zero omitted, Abs format (unit mm)*
G04 Created by KiCad (PCBNEW (5.0.1)-rc2) date 5/10/2019 5:23:19 PM*
%MOMM*%
%LPD*%
G01*
G04 APERTURE LIST*
%ADD10C,0.200000*%
%ADD11C,0.075000*%
%ADD12C,0.120000*%
%ADD13C,0.125000*%
%ADD14C,0.100000*%
G04 APERTURE END LIST*
D10*
X164084000Y-82550000D02*
X164338000Y-82550000D01*
X164084000Y-83820000D02*
X164084000Y-82550000D01*
X170180000Y-83820000D02*
X164084000Y-83820000D01*
X170180000Y-82550000D02*
X170180000Y-83820000D01*
X164211000Y-82550000D02*
X170180000Y-82550000D01*
D11*
X169973285Y-83043928D02*
X169930428Y-83058214D01*
X169859000Y-83058214D01*
X169830428Y-83043928D01*
X169816142Y-83029642D01*
X169801857Y-83001071D01*
X169801857Y-82972500D01*
X169816142Y-82943928D01*
X169830428Y-82929642D01*
X169859000Y-82915357D01*
X169916142Y-82901071D01*
X169944714Y-82886785D01*
X169959000Y-82872500D01*
X169973285Y-82843928D01*
X169973285Y-82815357D01*
X169959000Y-82786785D01*
X169944714Y-82772500D01*
X169916142Y-82758214D01*
X169844714Y-82758214D01*
X169801857Y-82772500D01*
X169544714Y-83043928D02*
X169573285Y-83058214D01*
X169630428Y-83058214D01*
X169659000Y-83043928D01*
X169673285Y-83029642D01*
X169687571Y-83001071D01*
X169687571Y-82915357D01*
X169673285Y-82886785D01*
X169659000Y-82872500D01*
X169630428Y-82858214D01*
X169573285Y-82858214D01*
X169544714Y-82872500D01*
X169373285Y-83058214D02*
X169401857Y-83043928D01*
X169416142Y-83029642D01*
X169430428Y-83001071D01*
X169430428Y-82915357D01*
X169416142Y-82886785D01*
X169401857Y-82872500D01*
X169373285Y-82858214D01*
X169330428Y-82858214D01*
X169301857Y-82872500D01*
X169287571Y-82886785D01*
X169273285Y-82915357D01*
X169273285Y-83001071D01*
X169287571Y-83029642D01*
X169301857Y-83043928D01*
X169330428Y-83058214D01*
X169373285Y-83058214D01*
X169187571Y-82858214D02*
X169073285Y-82858214D01*
X169144714Y-82758214D02*
X169144714Y-83015357D01*
X169130428Y-83043928D01*
X169101857Y-83058214D01*
X169073285Y-83058214D01*
X169016142Y-82858214D02*
X168901857Y-82858214D01*
X168973285Y-82758214D02*
X168973285Y-83015357D01*
X168959000Y-83043928D01*
X168930428Y-83058214D01*
X168901857Y-83058214D01*
X168787571Y-82758214D02*
X168816142Y-82815357D01*
X168673285Y-83043928D02*
X168644714Y-83058214D01*
X168587571Y-83058214D01*
X168559000Y-83043928D01*
X168544714Y-83015357D01*
X168544714Y-83001071D01*
X168559000Y-82972500D01*
X168587571Y-82958214D01*
X168630428Y-82958214D01*
X168659000Y-82943928D01*
X168673285Y-82915357D01*
X168673285Y-82901071D01*
X168659000Y-82872500D01*
X168630428Y-82858214D01*
X168587571Y-82858214D01*
X168559000Y-82872500D01*
X168016142Y-83029642D02*
X168030428Y-83043928D01*
X168073285Y-83058214D01*
X168101857Y-83058214D01*
X168144714Y-83043928D01*
X168173285Y-83015357D01*
X168187571Y-82986785D01*
X168201857Y-82929642D01*
X168201857Y-82886785D01*
X168187571Y-82829642D01*
X168173285Y-82801071D01*
X168144714Y-82772500D01*
X168101857Y-82758214D01*
X168073285Y-82758214D01*
X168030428Y-82772500D01*
X168016142Y-82786785D01*
X167887571Y-83058214D02*
X167887571Y-82858214D01*
X167887571Y-82915357D02*
X167873285Y-82886785D01*
X167859000Y-82872500D01*
X167830428Y-82858214D01*
X167801857Y-82858214D01*
X167587571Y-83043928D02*
X167616142Y-83058214D01*
X167673285Y-83058214D01*
X167701857Y-83043928D01*
X167716142Y-83015357D01*
X167716142Y-82901071D01*
X167701857Y-82872500D01*
X167673285Y-82858214D01*
X167616142Y-82858214D01*
X167587571Y-82872500D01*
X167573285Y-82901071D01*
X167573285Y-82929642D01*
X167716142Y-82958214D01*
X167316142Y-83058214D02*
X167316142Y-82901071D01*
X167330428Y-82872500D01*
X167359000Y-82858214D01*
X167416142Y-82858214D01*
X167444714Y-82872500D01*
X167316142Y-83043928D02*
X167344714Y-83058214D01*
X167416142Y-83058214D01*
X167444714Y-83043928D01*
X167459000Y-83015357D01*
X167459000Y-82986785D01*
X167444714Y-82958214D01*
X167416142Y-82943928D01*
X167344714Y-82943928D01*
X167316142Y-82929642D01*
X167216142Y-82858214D02*
X167101857Y-82858214D01*
X167173285Y-82758214D02*
X167173285Y-83015357D01*
X167159000Y-83043928D01*
X167130428Y-83058214D01*
X167101857Y-83058214D01*
X167001857Y-83058214D02*
X167001857Y-82858214D01*
X167001857Y-82758214D02*
X167016142Y-82772500D01*
X167001857Y-82786785D01*
X166987571Y-82772500D01*
X167001857Y-82758214D01*
X167001857Y-82786785D01*
X166887571Y-82858214D02*
X166816142Y-83058214D01*
X166744714Y-82858214D01*
X166516142Y-83043928D02*
X166544714Y-83058214D01*
X166601857Y-83058214D01*
X166630428Y-83043928D01*
X166644714Y-83015357D01*
X166644714Y-82901071D01*
X166630428Y-82872500D01*
X166601857Y-82858214D01*
X166544714Y-82858214D01*
X166516142Y-82872500D01*
X166501857Y-82901071D01*
X166501857Y-82929642D01*
X166644714Y-82958214D01*
X166144714Y-83058214D02*
X166144714Y-82758214D01*
X166073285Y-82758214D01*
X166030428Y-82772500D01*
X166001857Y-82801071D01*
X165987571Y-82829642D01*
X165973285Y-82886785D01*
X165973285Y-82929642D01*
X165987571Y-82986785D01*
X166001857Y-83015357D01*
X166030428Y-83043928D01*
X166073285Y-83058214D01*
X166144714Y-83058214D01*
X165730428Y-83043928D02*
X165759000Y-83058214D01*
X165816142Y-83058214D01*
X165844714Y-83043928D01*
X165859000Y-83015357D01*
X165859000Y-82901071D01*
X165844714Y-82872500D01*
X165816142Y-82858214D01*
X165759000Y-82858214D01*
X165730428Y-82872500D01*
X165716142Y-82901071D01*
X165716142Y-82929642D01*
X165859000Y-82958214D01*
X165601857Y-83043928D02*
X165573285Y-83058214D01*
X165516142Y-83058214D01*
X165487571Y-83043928D01*
X165473285Y-83015357D01*
X165473285Y-83001071D01*
X165487571Y-82972500D01*
X165516142Y-82958214D01*
X165559000Y-82958214D01*
X165587571Y-82943928D01*
X165601857Y-82915357D01*
X165601857Y-82901071D01*
X165587571Y-82872500D01*
X165559000Y-82858214D01*
X165516142Y-82858214D01*
X165487571Y-82872500D01*
X165344714Y-83058214D02*
X165344714Y-82858214D01*
X165344714Y-82758214D02*
X165359000Y-82772500D01*
X165344714Y-82786785D01*
X165330428Y-82772500D01*
X165344714Y-82758214D01*
X165344714Y-82786785D01*
X165073285Y-82858214D02*
X165073285Y-83101071D01*
X165087571Y-83129642D01*
X165101857Y-83143928D01*
X165130428Y-83158214D01*
X165173285Y-83158214D01*
X165201857Y-83143928D01*
X165073285Y-83043928D02*
X165101857Y-83058214D01*
X165159000Y-83058214D01*
X165187571Y-83043928D01*
X165201857Y-83029642D01*
X165216142Y-83001071D01*
X165216142Y-82915357D01*
X165201857Y-82886785D01*
X165187571Y-82872500D01*
X165159000Y-82858214D01*
X165101857Y-82858214D01*
X165073285Y-82872500D01*
X164930428Y-82858214D02*
X164930428Y-83058214D01*
X164930428Y-82886785D02*
X164916142Y-82872500D01*
X164887571Y-82858214D01*
X164844714Y-82858214D01*
X164816142Y-82872500D01*
X164801857Y-82901071D01*
X164801857Y-83058214D01*
X164673285Y-83043928D02*
X164644714Y-83058214D01*
X164587571Y-83058214D01*
X164559000Y-83043928D01*
X164544714Y-83015357D01*
X164544714Y-83001071D01*
X164559000Y-82972500D01*
X164587571Y-82958214D01*
X164630428Y-82958214D01*
X164659000Y-82943928D01*
X164673285Y-82915357D01*
X164673285Y-82901071D01*
X164659000Y-82872500D01*
X164630428Y-82858214D01*
X164587571Y-82858214D01*
X164559000Y-82872500D01*
X169544714Y-83583214D02*
X169687571Y-83583214D01*
X169687571Y-83283214D01*
X169459000Y-83568928D02*
X169416142Y-83583214D01*
X169344714Y-83583214D01*
X169316142Y-83568928D01*
X169301857Y-83554642D01*
X169287571Y-83526071D01*
X169287571Y-83497500D01*
X169301857Y-83468928D01*
X169316142Y-83454642D01*
X169344714Y-83440357D01*
X169401857Y-83426071D01*
X169430428Y-83411785D01*
X169444714Y-83397500D01*
X169459000Y-83368928D01*
X169459000Y-83340357D01*
X169444714Y-83311785D01*
X169430428Y-83297500D01*
X169401857Y-83283214D01*
X169330428Y-83283214D01*
X169287571Y-83297500D01*
X169159000Y-83583214D02*
X169159000Y-83283214D01*
X169059000Y-83497500D01*
X168959000Y-83283214D01*
X168959000Y-83583214D01*
X168687571Y-83283214D02*
X168744714Y-83283214D01*
X168773285Y-83297500D01*
X168787571Y-83311785D01*
X168816142Y-83354642D01*
X168830428Y-83411785D01*
X168830428Y-83526071D01*
X168816142Y-83554642D01*
X168801857Y-83568928D01*
X168773285Y-83583214D01*
X168716142Y-83583214D01*
X168687571Y-83568928D01*
X168673285Y-83554642D01*
X168659000Y-83526071D01*
X168659000Y-83454642D01*
X168673285Y-83426071D01*
X168687571Y-83411785D01*
X168716142Y-83397500D01*
X168773285Y-83397500D01*
X168801857Y-83411785D01*
X168816142Y-83426071D01*
X168830428Y-83454642D01*
X168530428Y-83583214D02*
X168530428Y-83283214D01*
X168459000Y-83283214D01*
X168416142Y-83297500D01*
X168387571Y-83326071D01*
X168373285Y-83354642D01*
X168359000Y-83411785D01*
X168359000Y-83454642D01*
X168373285Y-83511785D01*
X168387571Y-83540357D01*
X168416142Y-83568928D01*
X168459000Y-83583214D01*
X168530428Y-83583214D01*
X168244714Y-83568928D02*
X168201857Y-83583214D01*
X168130428Y-83583214D01*
X168101857Y-83568928D01*
X168087571Y-83554642D01*
X168073285Y-83526071D01*
X168073285Y-83497500D01*
X168087571Y-83468928D01*
X168101857Y-83454642D01*
X168130428Y-83440357D01*
X168187571Y-83426071D01*
X168216142Y-83411785D01*
X168230428Y-83397500D01*
X168244714Y-83368928D01*
X168244714Y-83340357D01*
X168230428Y-83311785D01*
X168216142Y-83297500D01*
X168187571Y-83283214D01*
X168116142Y-83283214D01*
X168073285Y-83297500D01*
X167973285Y-83283214D02*
X167787571Y-83283214D01*
X167887571Y-83397500D01*
X167844714Y-83397500D01*
X167816142Y-83411785D01*
X167801857Y-83426071D01*
X167787571Y-83454642D01*
X167787571Y-83526071D01*
X167801857Y-83554642D01*
X167816142Y-83568928D01*
X167844714Y-83583214D01*
X167930428Y-83583214D01*
X167959000Y-83568928D01*
X167973285Y-83554642D01*
X167330428Y-83426071D02*
X167287571Y-83440357D01*
X167273285Y-83454642D01*
X167259000Y-83483214D01*
X167259000Y-83526071D01*
X167273285Y-83554642D01*
X167287571Y-83568928D01*
X167316142Y-83583214D01*
X167430428Y-83583214D01*
X167430428Y-83283214D01*
X167330428Y-83283214D01*
X167301857Y-83297500D01*
X167287571Y-83311785D01*
X167273285Y-83340357D01*
X167273285Y-83368928D01*
X167287571Y-83397500D01*
X167301857Y-83411785D01*
X167330428Y-83426071D01*
X167430428Y-83426071D01*
X167130428Y-83583214D02*
X167130428Y-83383214D01*
X167130428Y-83440357D02*
X167116142Y-83411785D01*
X167101857Y-83397500D01*
X167073285Y-83383214D01*
X167044714Y-83383214D01*
X166830428Y-83568928D02*
X166859000Y-83583214D01*
X166916142Y-83583214D01*
X166944714Y-83568928D01*
X166959000Y-83540357D01*
X166959000Y-83426071D01*
X166944714Y-83397500D01*
X166916142Y-83383214D01*
X166859000Y-83383214D01*
X166830428Y-83397500D01*
X166816142Y-83426071D01*
X166816142Y-83454642D01*
X166959000Y-83483214D01*
X166559000Y-83583214D02*
X166559000Y-83426071D01*
X166573285Y-83397500D01*
X166601857Y-83383214D01*
X166659000Y-83383214D01*
X166687571Y-83397500D01*
X166559000Y-83568928D02*
X166587571Y-83583214D01*
X166659000Y-83583214D01*
X166687571Y-83568928D01*
X166701857Y-83540357D01*
X166701857Y-83511785D01*
X166687571Y-83483214D01*
X166659000Y-83468928D01*
X166587571Y-83468928D01*
X166559000Y-83454642D01*
X166416142Y-83583214D02*
X166416142Y-83283214D01*
X166387571Y-83468928D02*
X166301857Y-83583214D01*
X166301857Y-83383214D02*
X166416142Y-83497500D01*
X166130428Y-83583214D02*
X166159000Y-83568928D01*
X166173285Y-83554642D01*
X166187571Y-83526071D01*
X166187571Y-83440357D01*
X166173285Y-83411785D01*
X166159000Y-83397500D01*
X166130428Y-83383214D01*
X166087571Y-83383214D01*
X166059000Y-83397500D01*
X166044714Y-83411785D01*
X166030428Y-83440357D01*
X166030428Y-83526071D01*
X166044714Y-83554642D01*
X166059000Y-83568928D01*
X166087571Y-83583214D01*
X166130428Y-83583214D01*
X165773285Y-83383214D02*
X165773285Y-83583214D01*
X165901857Y-83383214D02*
X165901857Y-83540357D01*
X165887571Y-83568928D01*
X165859000Y-83583214D01*
X165816142Y-83583214D01*
X165787571Y-83568928D01*
X165773285Y-83554642D01*
X165673285Y-83383214D02*
X165559000Y-83383214D01*
X165630428Y-83283214D02*
X165630428Y-83540357D01*
X165616142Y-83568928D01*
X165587571Y-83583214D01*
X165559000Y-83583214D01*
X165273285Y-83283214D02*
X165173285Y-83583214D01*
X165073285Y-83283214D01*
X164816142Y-83583214D02*
X164987571Y-83583214D01*
X164901857Y-83583214D02*
X164901857Y-83283214D01*
X164930428Y-83326071D01*
X164959000Y-83354642D01*
X164987571Y-83368928D01*
D12*
G04 #@! TO.C,SDO*
X162055000Y-85074000D02*
X162055000Y-83074000D01*
X159255000Y-85074000D02*
X162055000Y-85074000D01*
X159255000Y-83074000D02*
X159255000Y-85074000D01*
X162055000Y-83074000D02*
X159255000Y-83074000D01*
G04 #@! TO.C,SDX*
X162040000Y-85614000D02*
X159240000Y-85614000D01*
X159240000Y-85614000D02*
X159240000Y-87614000D01*
X159240000Y-87614000D02*
X162040000Y-87614000D01*
X162040000Y-87614000D02*
X162040000Y-85614000D01*
G04 #@! TO.C,SCX*
X161976500Y-90408000D02*
X161976500Y-88408000D01*
X159176500Y-90408000D02*
X161976500Y-90408000D01*
X159176500Y-88408000D02*
X159176500Y-90408000D01*
X161976500Y-88408000D02*
X159176500Y-88408000D01*
G04 #@! TO.C,SDO*
D13*
X163722761Y-84276380D02*
X163651333Y-84300190D01*
X163532285Y-84300190D01*
X163484666Y-84276380D01*
X163460857Y-84252571D01*
X163437047Y-84204952D01*
X163437047Y-84157333D01*
X163460857Y-84109714D01*
X163484666Y-84085904D01*
X163532285Y-84062095D01*
X163627523Y-84038285D01*
X163675142Y-84014476D01*
X163698952Y-83990666D01*
X163722761Y-83943047D01*
X163722761Y-83895428D01*
X163698952Y-83847809D01*
X163675142Y-83824000D01*
X163627523Y-83800190D01*
X163508476Y-83800190D01*
X163437047Y-83824000D01*
X163222761Y-84300190D02*
X163222761Y-83800190D01*
X163103714Y-83800190D01*
X163032285Y-83824000D01*
X162984666Y-83871619D01*
X162960857Y-83919238D01*
X162937047Y-84014476D01*
X162937047Y-84085904D01*
X162960857Y-84181142D01*
X162984666Y-84228761D01*
X163032285Y-84276380D01*
X163103714Y-84300190D01*
X163222761Y-84300190D01*
X162627523Y-83800190D02*
X162532285Y-83800190D01*
X162484666Y-83824000D01*
X162437047Y-83871619D01*
X162413238Y-83966857D01*
X162413238Y-84133523D01*
X162437047Y-84228761D01*
X162484666Y-84276380D01*
X162532285Y-84300190D01*
X162627523Y-84300190D01*
X162675142Y-84276380D01*
X162722761Y-84228761D01*
X162746571Y-84133523D01*
X162746571Y-83966857D01*
X162722761Y-83871619D01*
X162675142Y-83824000D01*
X162627523Y-83800190D01*
G04 #@! TO.C,SDX*
D14*
X163571952Y-86752880D02*
X163500523Y-86776690D01*
X163381476Y-86776690D01*
X163333857Y-86752880D01*
X163310047Y-86729071D01*
X163286238Y-86681452D01*
X163286238Y-86633833D01*
X163310047Y-86586214D01*
X163333857Y-86562404D01*
X163381476Y-86538595D01*
X163476714Y-86514785D01*
X163524333Y-86490976D01*
X163548142Y-86467166D01*
X163571952Y-86419547D01*
X163571952Y-86371928D01*
X163548142Y-86324309D01*
X163524333Y-86300500D01*
X163476714Y-86276690D01*
X163357666Y-86276690D01*
X163286238Y-86300500D01*
X163071952Y-86776690D02*
X163071952Y-86276690D01*
X162952904Y-86276690D01*
X162881476Y-86300500D01*
X162833857Y-86348119D01*
X162810047Y-86395738D01*
X162786238Y-86490976D01*
X162786238Y-86562404D01*
X162810047Y-86657642D01*
X162833857Y-86705261D01*
X162881476Y-86752880D01*
X162952904Y-86776690D01*
X163071952Y-86776690D01*
X162619571Y-86276690D02*
X162286238Y-86776690D01*
X162286238Y-86276690D02*
X162619571Y-86776690D01*
G04 #@! TO.C,SCX*
X163571952Y-89483380D02*
X163500523Y-89507190D01*
X163381476Y-89507190D01*
X163333857Y-89483380D01*
X163310047Y-89459571D01*
X163286238Y-89411952D01*
X163286238Y-89364333D01*
X163310047Y-89316714D01*
X163333857Y-89292904D01*
X163381476Y-89269095D01*
X163476714Y-89245285D01*
X163524333Y-89221476D01*
X163548142Y-89197666D01*
X163571952Y-89150047D01*
X163571952Y-89102428D01*
X163548142Y-89054809D01*
X163524333Y-89031000D01*
X163476714Y-89007190D01*
X163357666Y-89007190D01*
X163286238Y-89031000D01*
X162786238Y-89459571D02*
X162810047Y-89483380D01*
X162881476Y-89507190D01*
X162929095Y-89507190D01*
X163000523Y-89483380D01*
X163048142Y-89435761D01*
X163071952Y-89388142D01*
X163095761Y-89292904D01*
X163095761Y-89221476D01*
X163071952Y-89126238D01*
X163048142Y-89078619D01*
X163000523Y-89031000D01*
X162929095Y-89007190D01*
X162881476Y-89007190D01*
X162810047Y-89031000D01*
X162786238Y-89054809D01*
X162619571Y-89007190D02*
X162286238Y-89507190D01*
X162286238Y-89007190D02*
X162619571Y-89507190D01*
G04 #@! TD*
M02*
