G04 #@! TF.GenerationSoftware,KiCad,Pcbnew,(5.0.1)-rc2*
G04 #@! TF.CreationDate,2019-05-10T17:23:19-07:00*
G04 #@! TF.ProjectId,LSM6DS3_breakout,4C534D364453335F627265616B6F7574,rev?*
G04 #@! TF.SameCoordinates,Original*
G04 #@! TF.FileFunction,Copper,L2,Bot,Signal*
G04 #@! TF.FilePolarity,Positive*
%FSLAX46Y46*%
G04 Gerber Fmt 4.6, Leading zero omitted, Abs format (unit mm)*
G04 Created by KiCad (PCBNEW (5.0.1)-rc2) date 5/10/2019 5:23:19 PM*
%MOMM*%
%LPD*%
G01*
G04 APERTURE LIST*
G04 #@! TA.AperFunction,SMDPad,CuDef*
%ADD10C,1.000000*%
G04 #@! TD*
G04 #@! TA.AperFunction,Conductor*
%ADD11C,0.100000*%
G04 #@! TD*
G04 #@! TA.AperFunction,SMDPad,CuDef*
%ADD12R,1.000000X1.500000*%
G04 #@! TD*
G04 #@! TA.AperFunction,ComponentPad*
%ADD13R,1.700000X1.700000*%
G04 #@! TD*
G04 #@! TA.AperFunction,ComponentPad*
%ADD14O,1.700000X1.700000*%
G04 #@! TD*
G04 #@! TA.AperFunction,ViaPad*
%ADD15C,0.800000*%
G04 #@! TD*
G04 #@! TA.AperFunction,ViaPad*
%ADD16C,0.400000*%
G04 #@! TD*
G04 #@! TA.AperFunction,Conductor*
%ADD17C,0.152400*%
G04 #@! TD*
G04 #@! TA.AperFunction,Conductor*
%ADD18C,0.254000*%
G04 #@! TD*
G04 APERTURE END LIST*
D10*
G04 #@! TO.P,SDO,1*
G04 #@! TO.N,/SDO*
X161305000Y-84074000D03*
D11*
G04 #@! TD*
G04 #@! TO.N,/SDO*
G04 #@! TO.C,SDO*
G36*
X160805000Y-84374000D02*
X160405000Y-84374000D01*
X160405000Y-83774000D01*
X160805000Y-83774000D01*
X160805000Y-83324000D01*
X161805000Y-83324000D01*
X161805000Y-84824000D01*
X160805000Y-84824000D01*
X160805000Y-84374000D01*
X160805000Y-84374000D01*
G37*
D12*
G04 #@! TO.P,SDO,2*
G04 #@! TO.N,GND*
X160005000Y-84074000D03*
G04 #@! TD*
G04 #@! TO.P,SDX,2*
G04 #@! TO.N,GND*
X159990000Y-86614000D03*
D10*
G04 #@! TO.P,SDX,1*
G04 #@! TO.N,/SDX*
X161290000Y-86614000D03*
D11*
G04 #@! TD*
G04 #@! TO.N,/SDX*
G04 #@! TO.C,SDX*
G36*
X160790000Y-86914000D02*
X160390000Y-86914000D01*
X160390000Y-86314000D01*
X160790000Y-86314000D01*
X160790000Y-85864000D01*
X161790000Y-85864000D01*
X161790000Y-87364000D01*
X160790000Y-87364000D01*
X160790000Y-86914000D01*
X160790000Y-86914000D01*
G37*
D10*
G04 #@! TO.P,SCX,1*
G04 #@! TO.N,/SCX*
X161226500Y-89408000D03*
D11*
G04 #@! TD*
G04 #@! TO.N,/SCX*
G04 #@! TO.C,SCX*
G36*
X160726500Y-89708000D02*
X160326500Y-89708000D01*
X160326500Y-89108000D01*
X160726500Y-89108000D01*
X160726500Y-88658000D01*
X161726500Y-88658000D01*
X161726500Y-90158000D01*
X160726500Y-90158000D01*
X160726500Y-89708000D01*
X160726500Y-89708000D01*
G37*
D12*
G04 #@! TO.P,SCX,2*
G04 #@! TO.N,GND*
X159926500Y-89408000D03*
G04 #@! TD*
D13*
G04 #@! TO.P,J1,1*
G04 #@! TO.N,/SCL*
X157099000Y-83820000D03*
D14*
G04 #@! TO.P,J1,2*
G04 #@! TO.N,/SDA*
X157099000Y-86360000D03*
G04 #@! TO.P,J1,3*
G04 #@! TO.N,/INT1*
X157099000Y-88900000D03*
G04 #@! TD*
G04 #@! TO.P,J2,3*
G04 #@! TO.N,/INT2*
X172339000Y-88900000D03*
G04 #@! TO.P,J2,2*
G04 #@! TO.N,GND*
X172339000Y-86360000D03*
D13*
G04 #@! TO.P,J2,1*
G04 #@! TO.N,+3V3*
X172339000Y-83820000D03*
G04 #@! TD*
D15*
G04 #@! TO.N,GND*
X168910000Y-85598000D03*
X162560000Y-89662000D03*
X158496000Y-87630000D03*
D16*
X164592000Y-89408000D03*
G04 #@! TO.N,/SDA*
X159258000Y-82296000D03*
G04 #@! TO.N,/SDO*
X162623500Y-85598000D03*
G04 #@! TO.N,/SDX*
X162560000Y-86487000D03*
G04 #@! TO.N,/SCX*
X162560000Y-87122000D03*
G04 #@! TO.N,/INT2*
X168332602Y-87093266D03*
G04 #@! TD*
D17*
G04 #@! TO.N,GND*
X159926500Y-90310400D02*
X160294100Y-90678000D01*
X159926500Y-89408000D02*
X159926500Y-90310400D01*
X161544000Y-90678000D02*
X162560000Y-89662000D01*
X160294100Y-90678000D02*
X161544000Y-90678000D01*
X159990000Y-85711600D02*
X160357600Y-85344000D01*
X159990000Y-86614000D02*
X159990000Y-85711600D01*
X162417771Y-86026601D02*
X163242601Y-86026601D01*
X162194899Y-85803729D02*
X162417771Y-86026601D01*
X162194899Y-85740899D02*
X162194899Y-85803729D01*
X160357600Y-85344000D02*
X161798000Y-85344000D01*
X161798000Y-85344000D02*
X162194899Y-85740899D01*
X163671202Y-85598000D02*
X168910000Y-85598000D01*
X163242601Y-86026601D02*
X163671202Y-85598000D01*
X160005000Y-86599000D02*
X159990000Y-86614000D01*
X160005000Y-84074000D02*
X160005000Y-86599000D01*
G04 #@! TO.N,/SDA*
X157948999Y-85510001D02*
X157099000Y-86360000D01*
X158177601Y-85281399D02*
X157948999Y-85510001D01*
X158177601Y-84239917D02*
X158177601Y-85281399D01*
X159258000Y-82296000D02*
X158750000Y-82804000D01*
X158750000Y-82804000D02*
X158750000Y-83667518D01*
X158750000Y-83667518D02*
X158177601Y-84239917D01*
G04 #@! TO.N,/SDO*
X161305000Y-84279500D02*
X161305000Y-84074000D01*
X162623500Y-85598000D02*
X161305000Y-84279500D01*
G04 #@! TO.N,/SDX*
X161417000Y-86487000D02*
X161290000Y-86614000D01*
X162560000Y-86487000D02*
X161417000Y-86487000D01*
G04 #@! TO.N,/SCX*
X161226500Y-88455500D02*
X161226500Y-89408000D01*
X162560000Y-87122000D02*
X161226500Y-88455500D01*
G04 #@! TO.N,/INT2*
X170139336Y-88900000D02*
X172339000Y-88900000D01*
X168332602Y-87093266D02*
X170139336Y-88900000D01*
G04 #@! TD*
D18*
G04 #@! TO.N,GND*
G36*
X173863000Y-90805000D02*
X161728712Y-90805000D01*
X161974265Y-90756157D01*
X162184309Y-90615809D01*
X162324657Y-90405765D01*
X162373940Y-90158000D01*
X162373940Y-88658000D01*
X162324657Y-88410235D01*
X162305790Y-88381999D01*
X162734110Y-87953679D01*
X163032990Y-87829879D01*
X163267879Y-87594990D01*
X163395000Y-87288092D01*
X163395000Y-86955908D01*
X163383099Y-86927174D01*
X167497602Y-86927174D01*
X167497602Y-87259358D01*
X167624723Y-87566256D01*
X167859612Y-87801145D01*
X168158493Y-87924945D01*
X169586914Y-89353367D01*
X169626590Y-89412746D01*
X169685969Y-89452422D01*
X169685971Y-89452424D01*
X169801672Y-89529733D01*
X169861840Y-89569936D01*
X170069290Y-89611200D01*
X170069294Y-89611200D01*
X170139336Y-89625132D01*
X170209378Y-89611200D01*
X171028215Y-89611200D01*
X171268375Y-89970625D01*
X171759582Y-90298839D01*
X172192744Y-90385000D01*
X172485256Y-90385000D01*
X172918418Y-90298839D01*
X173409625Y-89970625D01*
X173737839Y-89479418D01*
X173853092Y-88900000D01*
X173737839Y-88320582D01*
X173409625Y-87829375D01*
X173090522Y-87616157D01*
X173220358Y-87555183D01*
X173610645Y-87126924D01*
X173780476Y-86716890D01*
X173659155Y-86487000D01*
X172466000Y-86487000D01*
X172466000Y-86507000D01*
X172212000Y-86507000D01*
X172212000Y-86487000D01*
X171018845Y-86487000D01*
X170897524Y-86716890D01*
X171067355Y-87126924D01*
X171457642Y-87555183D01*
X171587478Y-87616157D01*
X171268375Y-87829375D01*
X171028215Y-88188800D01*
X170433925Y-88188800D01*
X169164281Y-86919157D01*
X169040481Y-86620276D01*
X168805592Y-86385387D01*
X168498694Y-86258266D01*
X168166510Y-86258266D01*
X167859612Y-86385387D01*
X167624723Y-86620276D01*
X167497602Y-86927174D01*
X163383099Y-86927174D01*
X163332285Y-86804500D01*
X163395000Y-86653092D01*
X163395000Y-86320908D01*
X163303167Y-86099202D01*
X163331379Y-86070990D01*
X163458500Y-85764092D01*
X163458500Y-85431908D01*
X163331379Y-85125010D01*
X163096490Y-84890121D01*
X162797610Y-84766321D01*
X162452440Y-84421152D01*
X162452440Y-83324000D01*
X162403157Y-83076235D01*
X162332173Y-82970000D01*
X170841560Y-82970000D01*
X170841560Y-84670000D01*
X170890843Y-84917765D01*
X171031191Y-85127809D01*
X171241235Y-85268157D01*
X171344708Y-85288739D01*
X171067355Y-85593076D01*
X170897524Y-86003110D01*
X171018845Y-86233000D01*
X172212000Y-86233000D01*
X172212000Y-86213000D01*
X172466000Y-86213000D01*
X172466000Y-86233000D01*
X173659155Y-86233000D01*
X173780476Y-86003110D01*
X173610645Y-85593076D01*
X173333292Y-85288739D01*
X173436765Y-85268157D01*
X173646809Y-85127809D01*
X173787157Y-84917765D01*
X173836440Y-84670000D01*
X173836440Y-82970000D01*
X173787157Y-82722235D01*
X173646809Y-82512191D01*
X173436765Y-82371843D01*
X173189000Y-82322560D01*
X171489000Y-82322560D01*
X171241235Y-82371843D01*
X171031191Y-82512191D01*
X170890843Y-82722235D01*
X170841560Y-82970000D01*
X162332173Y-82970000D01*
X162262809Y-82866191D01*
X162052765Y-82725843D01*
X161805000Y-82676560D01*
X160805000Y-82676560D01*
X160667368Y-82703936D01*
X160631309Y-82689000D01*
X160290750Y-82689000D01*
X160132000Y-82847750D01*
X160132000Y-83192705D01*
X159947191Y-83316191D01*
X159878000Y-83419742D01*
X159878000Y-82856869D01*
X159965879Y-82768990D01*
X160093000Y-82462092D01*
X160093000Y-82129908D01*
X160003982Y-81915000D01*
X173863000Y-81915000D01*
X173863000Y-90805000D01*
X173863000Y-90805000D01*
G37*
X173863000Y-90805000D02*
X161728712Y-90805000D01*
X161974265Y-90756157D01*
X162184309Y-90615809D01*
X162324657Y-90405765D01*
X162373940Y-90158000D01*
X162373940Y-88658000D01*
X162324657Y-88410235D01*
X162305790Y-88381999D01*
X162734110Y-87953679D01*
X163032990Y-87829879D01*
X163267879Y-87594990D01*
X163395000Y-87288092D01*
X163395000Y-86955908D01*
X163383099Y-86927174D01*
X167497602Y-86927174D01*
X167497602Y-87259358D01*
X167624723Y-87566256D01*
X167859612Y-87801145D01*
X168158493Y-87924945D01*
X169586914Y-89353367D01*
X169626590Y-89412746D01*
X169685969Y-89452422D01*
X169685971Y-89452424D01*
X169801672Y-89529733D01*
X169861840Y-89569936D01*
X170069290Y-89611200D01*
X170069294Y-89611200D01*
X170139336Y-89625132D01*
X170209378Y-89611200D01*
X171028215Y-89611200D01*
X171268375Y-89970625D01*
X171759582Y-90298839D01*
X172192744Y-90385000D01*
X172485256Y-90385000D01*
X172918418Y-90298839D01*
X173409625Y-89970625D01*
X173737839Y-89479418D01*
X173853092Y-88900000D01*
X173737839Y-88320582D01*
X173409625Y-87829375D01*
X173090522Y-87616157D01*
X173220358Y-87555183D01*
X173610645Y-87126924D01*
X173780476Y-86716890D01*
X173659155Y-86487000D01*
X172466000Y-86487000D01*
X172466000Y-86507000D01*
X172212000Y-86507000D01*
X172212000Y-86487000D01*
X171018845Y-86487000D01*
X170897524Y-86716890D01*
X171067355Y-87126924D01*
X171457642Y-87555183D01*
X171587478Y-87616157D01*
X171268375Y-87829375D01*
X171028215Y-88188800D01*
X170433925Y-88188800D01*
X169164281Y-86919157D01*
X169040481Y-86620276D01*
X168805592Y-86385387D01*
X168498694Y-86258266D01*
X168166510Y-86258266D01*
X167859612Y-86385387D01*
X167624723Y-86620276D01*
X167497602Y-86927174D01*
X163383099Y-86927174D01*
X163332285Y-86804500D01*
X163395000Y-86653092D01*
X163395000Y-86320908D01*
X163303167Y-86099202D01*
X163331379Y-86070990D01*
X163458500Y-85764092D01*
X163458500Y-85431908D01*
X163331379Y-85125010D01*
X163096490Y-84890121D01*
X162797610Y-84766321D01*
X162452440Y-84421152D01*
X162452440Y-83324000D01*
X162403157Y-83076235D01*
X162332173Y-82970000D01*
X170841560Y-82970000D01*
X170841560Y-84670000D01*
X170890843Y-84917765D01*
X171031191Y-85127809D01*
X171241235Y-85268157D01*
X171344708Y-85288739D01*
X171067355Y-85593076D01*
X170897524Y-86003110D01*
X171018845Y-86233000D01*
X172212000Y-86233000D01*
X172212000Y-86213000D01*
X172466000Y-86213000D01*
X172466000Y-86233000D01*
X173659155Y-86233000D01*
X173780476Y-86003110D01*
X173610645Y-85593076D01*
X173333292Y-85288739D01*
X173436765Y-85268157D01*
X173646809Y-85127809D01*
X173787157Y-84917765D01*
X173836440Y-84670000D01*
X173836440Y-82970000D01*
X173787157Y-82722235D01*
X173646809Y-82512191D01*
X173436765Y-82371843D01*
X173189000Y-82322560D01*
X171489000Y-82322560D01*
X171241235Y-82371843D01*
X171031191Y-82512191D01*
X170890843Y-82722235D01*
X170841560Y-82970000D01*
X162332173Y-82970000D01*
X162262809Y-82866191D01*
X162052765Y-82725843D01*
X161805000Y-82676560D01*
X160805000Y-82676560D01*
X160667368Y-82703936D01*
X160631309Y-82689000D01*
X160290750Y-82689000D01*
X160132000Y-82847750D01*
X160132000Y-83192705D01*
X159947191Y-83316191D01*
X159878000Y-83419742D01*
X159878000Y-82856869D01*
X159965879Y-82768990D01*
X160093000Y-82462092D01*
X160093000Y-82129908D01*
X160003982Y-81915000D01*
X173863000Y-81915000D01*
X173863000Y-90805000D01*
G36*
X158426321Y-82121891D02*
X158296634Y-82251578D01*
X158237254Y-82291255D01*
X158197578Y-82350634D01*
X158197576Y-82350636D01*
X158184973Y-82369497D01*
X157949000Y-82322560D01*
X156249000Y-82322560D01*
X156001235Y-82371843D01*
X155791191Y-82512191D01*
X155650843Y-82722235D01*
X155601560Y-82970000D01*
X155601560Y-84670000D01*
X155650843Y-84917765D01*
X155791191Y-85127809D01*
X156001235Y-85268157D01*
X156046619Y-85277184D01*
X156028375Y-85289375D01*
X155700161Y-85780582D01*
X155584908Y-86360000D01*
X155700161Y-86939418D01*
X156028375Y-87430625D01*
X156326761Y-87630000D01*
X156028375Y-87829375D01*
X155700161Y-88320582D01*
X155584908Y-88900000D01*
X155700161Y-89479418D01*
X156028375Y-89970625D01*
X156519582Y-90298839D01*
X156952744Y-90385000D01*
X157245256Y-90385000D01*
X157678418Y-90298839D01*
X158169625Y-89970625D01*
X158497839Y-89479418D01*
X158613092Y-88900000D01*
X158497839Y-88320582D01*
X158169625Y-87829375D01*
X157871239Y-87630000D01*
X158169625Y-87430625D01*
X158497839Y-86939418D01*
X158613092Y-86360000D01*
X158528759Y-85936029D01*
X158630965Y-85833823D01*
X158690347Y-85794145D01*
X158847537Y-85558895D01*
X158888801Y-85351445D01*
X158888801Y-85351441D01*
X158902733Y-85281400D01*
X158888801Y-85211358D01*
X158888801Y-84995700D01*
X158966673Y-85183699D01*
X159119475Y-85336500D01*
X158951673Y-85504301D01*
X158855000Y-85737690D01*
X158855000Y-86328250D01*
X159013750Y-86487000D01*
X159742560Y-86487000D01*
X159742560Y-86741000D01*
X159013750Y-86741000D01*
X158855000Y-86899750D01*
X158855000Y-87490310D01*
X158951673Y-87723699D01*
X159130302Y-87902327D01*
X159363691Y-87999000D01*
X159704250Y-87999000D01*
X159863000Y-87840250D01*
X159863000Y-87268258D01*
X159932191Y-87371809D01*
X160117000Y-87495295D01*
X160117000Y-87840250D01*
X160275750Y-87999000D01*
X160616309Y-87999000D01*
X160652368Y-87984064D01*
X160682189Y-87989995D01*
X160674078Y-88002134D01*
X160674076Y-88002136D01*
X160659549Y-88023877D01*
X160588868Y-88037936D01*
X160552809Y-88023000D01*
X160212250Y-88023000D01*
X160053500Y-88181750D01*
X160053500Y-88526705D01*
X159868691Y-88650191D01*
X159799500Y-88753742D01*
X159799500Y-88181750D01*
X159640750Y-88023000D01*
X159300191Y-88023000D01*
X159066802Y-88119673D01*
X158888173Y-88298301D01*
X158791500Y-88531690D01*
X158791500Y-89122250D01*
X158950250Y-89281000D01*
X159679060Y-89281000D01*
X159679060Y-89535000D01*
X158950250Y-89535000D01*
X158791500Y-89693750D01*
X158791500Y-90284310D01*
X158888173Y-90517699D01*
X159066802Y-90696327D01*
X159300191Y-90793000D01*
X159640750Y-90793000D01*
X159799500Y-90634250D01*
X159799500Y-90062258D01*
X159868691Y-90165809D01*
X160053500Y-90289295D01*
X160053500Y-90634250D01*
X160212250Y-90793000D01*
X160552809Y-90793000D01*
X160588868Y-90778064D01*
X160724288Y-90805000D01*
X155321000Y-90805000D01*
X155321000Y-81915000D01*
X158512018Y-81915000D01*
X158426321Y-82121891D01*
X158426321Y-82121891D01*
G37*
X158426321Y-82121891D02*
X158296634Y-82251578D01*
X158237254Y-82291255D01*
X158197578Y-82350634D01*
X158197576Y-82350636D01*
X158184973Y-82369497D01*
X157949000Y-82322560D01*
X156249000Y-82322560D01*
X156001235Y-82371843D01*
X155791191Y-82512191D01*
X155650843Y-82722235D01*
X155601560Y-82970000D01*
X155601560Y-84670000D01*
X155650843Y-84917765D01*
X155791191Y-85127809D01*
X156001235Y-85268157D01*
X156046619Y-85277184D01*
X156028375Y-85289375D01*
X155700161Y-85780582D01*
X155584908Y-86360000D01*
X155700161Y-86939418D01*
X156028375Y-87430625D01*
X156326761Y-87630000D01*
X156028375Y-87829375D01*
X155700161Y-88320582D01*
X155584908Y-88900000D01*
X155700161Y-89479418D01*
X156028375Y-89970625D01*
X156519582Y-90298839D01*
X156952744Y-90385000D01*
X157245256Y-90385000D01*
X157678418Y-90298839D01*
X158169625Y-89970625D01*
X158497839Y-89479418D01*
X158613092Y-88900000D01*
X158497839Y-88320582D01*
X158169625Y-87829375D01*
X157871239Y-87630000D01*
X158169625Y-87430625D01*
X158497839Y-86939418D01*
X158613092Y-86360000D01*
X158528759Y-85936029D01*
X158630965Y-85833823D01*
X158690347Y-85794145D01*
X158847537Y-85558895D01*
X158888801Y-85351445D01*
X158888801Y-85351441D01*
X158902733Y-85281400D01*
X158888801Y-85211358D01*
X158888801Y-84995700D01*
X158966673Y-85183699D01*
X159119475Y-85336500D01*
X158951673Y-85504301D01*
X158855000Y-85737690D01*
X158855000Y-86328250D01*
X159013750Y-86487000D01*
X159742560Y-86487000D01*
X159742560Y-86741000D01*
X159013750Y-86741000D01*
X158855000Y-86899750D01*
X158855000Y-87490310D01*
X158951673Y-87723699D01*
X159130302Y-87902327D01*
X159363691Y-87999000D01*
X159704250Y-87999000D01*
X159863000Y-87840250D01*
X159863000Y-87268258D01*
X159932191Y-87371809D01*
X160117000Y-87495295D01*
X160117000Y-87840250D01*
X160275750Y-87999000D01*
X160616309Y-87999000D01*
X160652368Y-87984064D01*
X160682189Y-87989995D01*
X160674078Y-88002134D01*
X160674076Y-88002136D01*
X160659549Y-88023877D01*
X160588868Y-88037936D01*
X160552809Y-88023000D01*
X160212250Y-88023000D01*
X160053500Y-88181750D01*
X160053500Y-88526705D01*
X159868691Y-88650191D01*
X159799500Y-88753742D01*
X159799500Y-88181750D01*
X159640750Y-88023000D01*
X159300191Y-88023000D01*
X159066802Y-88119673D01*
X158888173Y-88298301D01*
X158791500Y-88531690D01*
X158791500Y-89122250D01*
X158950250Y-89281000D01*
X159679060Y-89281000D01*
X159679060Y-89535000D01*
X158950250Y-89535000D01*
X158791500Y-89693750D01*
X158791500Y-90284310D01*
X158888173Y-90517699D01*
X159066802Y-90696327D01*
X159300191Y-90793000D01*
X159640750Y-90793000D01*
X159799500Y-90634250D01*
X159799500Y-90062258D01*
X159868691Y-90165809D01*
X160053500Y-90289295D01*
X160053500Y-90634250D01*
X160212250Y-90793000D01*
X160552809Y-90793000D01*
X160588868Y-90778064D01*
X160724288Y-90805000D01*
X155321000Y-90805000D01*
X155321000Y-81915000D01*
X158512018Y-81915000D01*
X158426321Y-82121891D01*
G36*
X159947191Y-84831809D02*
X160132000Y-84955295D01*
X160132000Y-85300250D01*
X160168250Y-85336500D01*
X160117000Y-85387750D01*
X160117000Y-85732705D01*
X159932191Y-85856191D01*
X159863000Y-85959742D01*
X159863000Y-85387750D01*
X159826750Y-85351500D01*
X159878000Y-85300250D01*
X159878000Y-84728258D01*
X159947191Y-84831809D01*
X159947191Y-84831809D01*
G37*
X159947191Y-84831809D02*
X160132000Y-84955295D01*
X160132000Y-85300250D01*
X160168250Y-85336500D01*
X160117000Y-85387750D01*
X160117000Y-85732705D01*
X159932191Y-85856191D01*
X159863000Y-85959742D01*
X159863000Y-85387750D01*
X159826750Y-85351500D01*
X159878000Y-85300250D01*
X159878000Y-84728258D01*
X159947191Y-84831809D01*
G04 #@! TD*
M02*
