G04 #@! TF.GenerationSoftware,KiCad,Pcbnew,(5.0.1)-rc2*
G04 #@! TF.CreationDate,2019-05-10T17:23:19-07:00*
G04 #@! TF.ProjectId,LSM6DS3_breakout,4C534D364453335F627265616B6F7574,rev?*
G04 #@! TF.SameCoordinates,Original*
G04 #@! TF.FileFunction,Soldermask,Top*
G04 #@! TF.FilePolarity,Negative*
%FSLAX46Y46*%
G04 Gerber Fmt 4.6, Leading zero omitted, Abs format (unit mm)*
G04 Created by KiCad (PCBNEW (5.0.1)-rc2) date 5/10/2019 5:23:19 PM*
%MOMM*%
%LPD*%
G01*
G04 APERTURE LIST*
%ADD10C,0.100000*%
G04 APERTURE END LIST*
D10*
G36*
X172449443Y-88005519D02*
X172515627Y-88012037D01*
X172628853Y-88046384D01*
X172685467Y-88063557D01*
X172824087Y-88137652D01*
X172841991Y-88147222D01*
X172877729Y-88176552D01*
X172979186Y-88259814D01*
X173039601Y-88333431D01*
X173091778Y-88397009D01*
X173091779Y-88397011D01*
X173175443Y-88553533D01*
X173175443Y-88553534D01*
X173226963Y-88723373D01*
X173244359Y-88900000D01*
X173226963Y-89076627D01*
X173214750Y-89116887D01*
X173175443Y-89246467D01*
X173101348Y-89385087D01*
X173091778Y-89402991D01*
X173062448Y-89438729D01*
X172979186Y-89540186D01*
X172877729Y-89623448D01*
X172841991Y-89652778D01*
X172841989Y-89652779D01*
X172685467Y-89736443D01*
X172628853Y-89753616D01*
X172515627Y-89787963D01*
X172449443Y-89794481D01*
X172383260Y-89801000D01*
X172294740Y-89801000D01*
X172228557Y-89794481D01*
X172162373Y-89787963D01*
X172049147Y-89753616D01*
X171992533Y-89736443D01*
X171836011Y-89652779D01*
X171836009Y-89652778D01*
X171800271Y-89623448D01*
X171698814Y-89540186D01*
X171615552Y-89438729D01*
X171586222Y-89402991D01*
X171576652Y-89385087D01*
X171502557Y-89246467D01*
X171463250Y-89116887D01*
X171451037Y-89076627D01*
X171433641Y-88900000D01*
X171451037Y-88723373D01*
X171502557Y-88553534D01*
X171502557Y-88553533D01*
X171586221Y-88397011D01*
X171586222Y-88397009D01*
X171638399Y-88333431D01*
X171698814Y-88259814D01*
X171800271Y-88176552D01*
X171836009Y-88147222D01*
X171853913Y-88137652D01*
X171992533Y-88063557D01*
X172049147Y-88046384D01*
X172162373Y-88012037D01*
X172228557Y-88005519D01*
X172294740Y-87999000D01*
X172383260Y-87999000D01*
X172449443Y-88005519D01*
X172449443Y-88005519D01*
G37*
G36*
X157209443Y-88005519D02*
X157275627Y-88012037D01*
X157388853Y-88046384D01*
X157445467Y-88063557D01*
X157584087Y-88137652D01*
X157601991Y-88147222D01*
X157637729Y-88176552D01*
X157739186Y-88259814D01*
X157799601Y-88333431D01*
X157851778Y-88397009D01*
X157851779Y-88397011D01*
X157935443Y-88553533D01*
X157935443Y-88553534D01*
X157986963Y-88723373D01*
X158004359Y-88900000D01*
X157986963Y-89076627D01*
X157974750Y-89116887D01*
X157935443Y-89246467D01*
X157861348Y-89385087D01*
X157851778Y-89402991D01*
X157822448Y-89438729D01*
X157739186Y-89540186D01*
X157637729Y-89623448D01*
X157601991Y-89652778D01*
X157601989Y-89652779D01*
X157445467Y-89736443D01*
X157388853Y-89753616D01*
X157275627Y-89787963D01*
X157209443Y-89794481D01*
X157143260Y-89801000D01*
X157054740Y-89801000D01*
X156988557Y-89794481D01*
X156922373Y-89787963D01*
X156809147Y-89753616D01*
X156752533Y-89736443D01*
X156596011Y-89652779D01*
X156596009Y-89652778D01*
X156560271Y-89623448D01*
X156458814Y-89540186D01*
X156375552Y-89438729D01*
X156346222Y-89402991D01*
X156336652Y-89385087D01*
X156262557Y-89246467D01*
X156223250Y-89116887D01*
X156211037Y-89076627D01*
X156193641Y-88900000D01*
X156211037Y-88723373D01*
X156262557Y-88553534D01*
X156262557Y-88553533D01*
X156346221Y-88397011D01*
X156346222Y-88397009D01*
X156398399Y-88333431D01*
X156458814Y-88259814D01*
X156560271Y-88176552D01*
X156596009Y-88147222D01*
X156613913Y-88137652D01*
X156752533Y-88063557D01*
X156809147Y-88046384D01*
X156922373Y-88012037D01*
X156988557Y-88005519D01*
X157054740Y-87999000D01*
X157143260Y-87999000D01*
X157209443Y-88005519D01*
X157209443Y-88005519D01*
G37*
G36*
X164119560Y-89791540D02*
X163118800Y-89791540D01*
X163118800Y-88389460D01*
X164119560Y-88389460D01*
X164119560Y-89791540D01*
X164119560Y-89791540D01*
G37*
G36*
X165917880Y-89791540D02*
X164917120Y-89791540D01*
X164917120Y-88389460D01*
X165917880Y-88389460D01*
X165917880Y-89791540D01*
X165917880Y-89791540D01*
G37*
G36*
X167702091Y-88225085D02*
X167736069Y-88235393D01*
X167767387Y-88252133D01*
X167794839Y-88274661D01*
X167817367Y-88302113D01*
X167834107Y-88333431D01*
X167844415Y-88367409D01*
X167848500Y-88408890D01*
X167848500Y-89010110D01*
X167844415Y-89051591D01*
X167834107Y-89085569D01*
X167817367Y-89116887D01*
X167794839Y-89144339D01*
X167767387Y-89166867D01*
X167736069Y-89183607D01*
X167702091Y-89193915D01*
X167660610Y-89198000D01*
X166984390Y-89198000D01*
X166942909Y-89193915D01*
X166908931Y-89183607D01*
X166877613Y-89166867D01*
X166850161Y-89144339D01*
X166827633Y-89116887D01*
X166810893Y-89085569D01*
X166800585Y-89051591D01*
X166796500Y-89010110D01*
X166796500Y-88408890D01*
X166800585Y-88367409D01*
X166810893Y-88333431D01*
X166827633Y-88302113D01*
X166850161Y-88274661D01*
X166877613Y-88252133D01*
X166908931Y-88235393D01*
X166942909Y-88225085D01*
X166984390Y-88221000D01*
X167660610Y-88221000D01*
X167702091Y-88225085D01*
X167702091Y-88225085D01*
G37*
G36*
X164288400Y-85400898D02*
X164300651Y-85401500D01*
X164883349Y-85401500D01*
X164895600Y-85400898D01*
X164898138Y-85400648D01*
X165285860Y-85400648D01*
X165301999Y-85402237D01*
X165311611Y-85405153D01*
X165320469Y-85409888D01*
X165328237Y-85416263D01*
X165334612Y-85424031D01*
X165339347Y-85432889D01*
X165342263Y-85442501D01*
X165343852Y-85458640D01*
X165343852Y-85650542D01*
X165346254Y-85674928D01*
X165353367Y-85698377D01*
X165364918Y-85719988D01*
X165380464Y-85738930D01*
X165399406Y-85754476D01*
X165421017Y-85766027D01*
X165444466Y-85773140D01*
X165468852Y-85775542D01*
X165493238Y-85773140D01*
X165516687Y-85766027D01*
X165538298Y-85754476D01*
X165557240Y-85738930D01*
X165600989Y-85695181D01*
X165613531Y-85684888D01*
X165622389Y-85680153D01*
X165632001Y-85677237D01*
X165648140Y-85675648D01*
X166060860Y-85675648D01*
X166076999Y-85677237D01*
X166086611Y-85680153D01*
X166095469Y-85684888D01*
X166103237Y-85691263D01*
X166109612Y-85699031D01*
X166114347Y-85707889D01*
X166117263Y-85717501D01*
X166118852Y-85733640D01*
X166118852Y-86121362D01*
X166118602Y-86123900D01*
X166118000Y-86136151D01*
X166118000Y-87218849D01*
X166118602Y-87231100D01*
X166118852Y-87233638D01*
X166118852Y-87621360D01*
X166117263Y-87637499D01*
X166114347Y-87647111D01*
X166109612Y-87655969D01*
X166103237Y-87663737D01*
X166095469Y-87670112D01*
X166086611Y-87674847D01*
X166076999Y-87677763D01*
X166060860Y-87679352D01*
X165648140Y-87679352D01*
X165632001Y-87677763D01*
X165622389Y-87674847D01*
X165613531Y-87670112D01*
X165600989Y-87659819D01*
X165557240Y-87616070D01*
X165538298Y-87600524D01*
X165516687Y-87588973D01*
X165493238Y-87581860D01*
X165468852Y-87579458D01*
X165444466Y-87581860D01*
X165421017Y-87588973D01*
X165399406Y-87600524D01*
X165380464Y-87616070D01*
X165364918Y-87635012D01*
X165353367Y-87656623D01*
X165346254Y-87680072D01*
X165343852Y-87704458D01*
X165343852Y-87896360D01*
X165342263Y-87912499D01*
X165339347Y-87922111D01*
X165334612Y-87930969D01*
X165328237Y-87938737D01*
X165320469Y-87945112D01*
X165311611Y-87949847D01*
X165301999Y-87952763D01*
X165285860Y-87954352D01*
X164898138Y-87954352D01*
X164895600Y-87954102D01*
X164883349Y-87953500D01*
X164300651Y-87953500D01*
X164288400Y-87954102D01*
X164285862Y-87954352D01*
X163898140Y-87954352D01*
X163882001Y-87952763D01*
X163872389Y-87949847D01*
X163863531Y-87945112D01*
X163855763Y-87938737D01*
X163849388Y-87930969D01*
X163844653Y-87922111D01*
X163841737Y-87912499D01*
X163840148Y-87896360D01*
X163840148Y-87704458D01*
X163837746Y-87680072D01*
X163830633Y-87656623D01*
X163819082Y-87635012D01*
X163803536Y-87616070D01*
X163784594Y-87600524D01*
X163762983Y-87588973D01*
X163739534Y-87581860D01*
X163715148Y-87579458D01*
X163690762Y-87581860D01*
X163667313Y-87588973D01*
X163645702Y-87600524D01*
X163626760Y-87616070D01*
X163583011Y-87659819D01*
X163570469Y-87670112D01*
X163561611Y-87674847D01*
X163551999Y-87677763D01*
X163535860Y-87679352D01*
X163123140Y-87679352D01*
X163107001Y-87677763D01*
X163097389Y-87674847D01*
X163088531Y-87670112D01*
X163080763Y-87663737D01*
X163074388Y-87655969D01*
X163069653Y-87647111D01*
X163066737Y-87637499D01*
X163065148Y-87621360D01*
X163065148Y-87233638D01*
X163065398Y-87231100D01*
X163066000Y-87218849D01*
X163066000Y-86203606D01*
X163843000Y-86203606D01*
X163843000Y-87151394D01*
X163845402Y-87175780D01*
X163852515Y-87199229D01*
X163864066Y-87220840D01*
X163879612Y-87239782D01*
X163898554Y-87255328D01*
X163920165Y-87266879D01*
X163943614Y-87273992D01*
X163968000Y-87276394D01*
X163992386Y-87273992D01*
X164015835Y-87266879D01*
X164037446Y-87255328D01*
X164056388Y-87239782D01*
X164100989Y-87195181D01*
X164113531Y-87184888D01*
X164122389Y-87180153D01*
X164132001Y-87177237D01*
X164148140Y-87175648D01*
X164285862Y-87175648D01*
X164288400Y-87175898D01*
X164300651Y-87176500D01*
X164883349Y-87176500D01*
X164895600Y-87175898D01*
X164898138Y-87175648D01*
X165035860Y-87175648D01*
X165051999Y-87177237D01*
X165061611Y-87180153D01*
X165070469Y-87184888D01*
X165083011Y-87195181D01*
X165127612Y-87239782D01*
X165146554Y-87255328D01*
X165168165Y-87266879D01*
X165191614Y-87273992D01*
X165216000Y-87276394D01*
X165240386Y-87273992D01*
X165263835Y-87266879D01*
X165285446Y-87255328D01*
X165304388Y-87239782D01*
X165319934Y-87220840D01*
X165331485Y-87199229D01*
X165338598Y-87175780D01*
X165341000Y-87151394D01*
X165341000Y-86203606D01*
X165338598Y-86179220D01*
X165331485Y-86155771D01*
X165319934Y-86134160D01*
X165304388Y-86115218D01*
X165285446Y-86099672D01*
X165263835Y-86088121D01*
X165240386Y-86081008D01*
X165216000Y-86078606D01*
X165191614Y-86081008D01*
X165168165Y-86088121D01*
X165146554Y-86099672D01*
X165127612Y-86115218D01*
X165083011Y-86159819D01*
X165070469Y-86170112D01*
X165061611Y-86174847D01*
X165051999Y-86177763D01*
X165035860Y-86179352D01*
X164898138Y-86179352D01*
X164895600Y-86179102D01*
X164883349Y-86178500D01*
X164300651Y-86178500D01*
X164288400Y-86179102D01*
X164285862Y-86179352D01*
X164148140Y-86179352D01*
X164132001Y-86177763D01*
X164122389Y-86174847D01*
X164113531Y-86170112D01*
X164100989Y-86159819D01*
X164056388Y-86115218D01*
X164037446Y-86099672D01*
X164015835Y-86088121D01*
X163992386Y-86081008D01*
X163968000Y-86078606D01*
X163943614Y-86081008D01*
X163920165Y-86088121D01*
X163898554Y-86099672D01*
X163879612Y-86115218D01*
X163864066Y-86134160D01*
X163852515Y-86155771D01*
X163845402Y-86179220D01*
X163843000Y-86203606D01*
X163066000Y-86203606D01*
X163066000Y-86136151D01*
X163065398Y-86123900D01*
X163065148Y-86121362D01*
X163065148Y-85733640D01*
X163066737Y-85717501D01*
X163069653Y-85707889D01*
X163074388Y-85699031D01*
X163080763Y-85691263D01*
X163088531Y-85684888D01*
X163097389Y-85680153D01*
X163107001Y-85677237D01*
X163123140Y-85675648D01*
X163535860Y-85675648D01*
X163551999Y-85677237D01*
X163561611Y-85680153D01*
X163570469Y-85684888D01*
X163583011Y-85695181D01*
X163626760Y-85738930D01*
X163645702Y-85754476D01*
X163667313Y-85766027D01*
X163690762Y-85773140D01*
X163715148Y-85775542D01*
X163739534Y-85773140D01*
X163762983Y-85766027D01*
X163784594Y-85754476D01*
X163803536Y-85738930D01*
X163819082Y-85719988D01*
X163830633Y-85698377D01*
X163837746Y-85674928D01*
X163840148Y-85650542D01*
X163840148Y-85458640D01*
X163841737Y-85442501D01*
X163844653Y-85432889D01*
X163849388Y-85424031D01*
X163855763Y-85416263D01*
X163863531Y-85409888D01*
X163872389Y-85405153D01*
X163882001Y-85402237D01*
X163898140Y-85400648D01*
X164285862Y-85400648D01*
X164288400Y-85400898D01*
X164288400Y-85400898D01*
G37*
G36*
X167702091Y-86650085D02*
X167736069Y-86660393D01*
X167767387Y-86677133D01*
X167794839Y-86699661D01*
X167817367Y-86727113D01*
X167834107Y-86758431D01*
X167844415Y-86792409D01*
X167848500Y-86833890D01*
X167848500Y-87435110D01*
X167844415Y-87476591D01*
X167834107Y-87510569D01*
X167817367Y-87541887D01*
X167794839Y-87569339D01*
X167767387Y-87591867D01*
X167736069Y-87608607D01*
X167702091Y-87618915D01*
X167660610Y-87623000D01*
X166984390Y-87623000D01*
X166942909Y-87618915D01*
X166908931Y-87608607D01*
X166877613Y-87591867D01*
X166850161Y-87569339D01*
X166827633Y-87541887D01*
X166810893Y-87510569D01*
X166800585Y-87476591D01*
X166796500Y-87435110D01*
X166796500Y-86833890D01*
X166800585Y-86792409D01*
X166810893Y-86758431D01*
X166827633Y-86727113D01*
X166850161Y-86699661D01*
X166877613Y-86677133D01*
X166908931Y-86660393D01*
X166942909Y-86650085D01*
X166984390Y-86646000D01*
X167660610Y-86646000D01*
X167702091Y-86650085D01*
X167702091Y-86650085D01*
G37*
G36*
X157209442Y-85465518D02*
X157275627Y-85472037D01*
X157388853Y-85506384D01*
X157445467Y-85523557D01*
X157584087Y-85597652D01*
X157601991Y-85607222D01*
X157637729Y-85636552D01*
X157739186Y-85719814D01*
X157822448Y-85821271D01*
X157851778Y-85857009D01*
X157851779Y-85857011D01*
X157935443Y-86013533D01*
X157935443Y-86013534D01*
X157986963Y-86183373D01*
X158004359Y-86360000D01*
X157986963Y-86536627D01*
X157953785Y-86646000D01*
X157935443Y-86706467D01*
X157907667Y-86758431D01*
X157851778Y-86862991D01*
X157829407Y-86890250D01*
X157739186Y-87000186D01*
X157637729Y-87083448D01*
X157601991Y-87112778D01*
X157601989Y-87112779D01*
X157445467Y-87196443D01*
X157407734Y-87207889D01*
X157275627Y-87247963D01*
X157209442Y-87254482D01*
X157143260Y-87261000D01*
X157054740Y-87261000D01*
X156988558Y-87254482D01*
X156922373Y-87247963D01*
X156790266Y-87207889D01*
X156752533Y-87196443D01*
X156596011Y-87112779D01*
X156596009Y-87112778D01*
X156560271Y-87083448D01*
X156458814Y-87000186D01*
X156368593Y-86890250D01*
X156346222Y-86862991D01*
X156290333Y-86758431D01*
X156262557Y-86706467D01*
X156244215Y-86646000D01*
X156211037Y-86536627D01*
X156193641Y-86360000D01*
X156211037Y-86183373D01*
X156262557Y-86013534D01*
X156262557Y-86013533D01*
X156346221Y-85857011D01*
X156346222Y-85857009D01*
X156375552Y-85821271D01*
X156458814Y-85719814D01*
X156560271Y-85636552D01*
X156596009Y-85607222D01*
X156613913Y-85597652D01*
X156752533Y-85523557D01*
X156809147Y-85506384D01*
X156922373Y-85472037D01*
X156988558Y-85465518D01*
X157054740Y-85459000D01*
X157143260Y-85459000D01*
X157209442Y-85465518D01*
X157209442Y-85465518D01*
G37*
G36*
X172449442Y-85465518D02*
X172515627Y-85472037D01*
X172628853Y-85506384D01*
X172685467Y-85523557D01*
X172824087Y-85597652D01*
X172841991Y-85607222D01*
X172877729Y-85636552D01*
X172979186Y-85719814D01*
X173062448Y-85821271D01*
X173091778Y-85857009D01*
X173091779Y-85857011D01*
X173175443Y-86013533D01*
X173175443Y-86013534D01*
X173226963Y-86183373D01*
X173244359Y-86360000D01*
X173226963Y-86536627D01*
X173193785Y-86646000D01*
X173175443Y-86706467D01*
X173147667Y-86758431D01*
X173091778Y-86862991D01*
X173069407Y-86890250D01*
X172979186Y-87000186D01*
X172877729Y-87083448D01*
X172841991Y-87112778D01*
X172841989Y-87112779D01*
X172685467Y-87196443D01*
X172647734Y-87207889D01*
X172515627Y-87247963D01*
X172449442Y-87254482D01*
X172383260Y-87261000D01*
X172294740Y-87261000D01*
X172228558Y-87254482D01*
X172162373Y-87247963D01*
X172030266Y-87207889D01*
X171992533Y-87196443D01*
X171836011Y-87112779D01*
X171836009Y-87112778D01*
X171800271Y-87083448D01*
X171698814Y-87000186D01*
X171608593Y-86890250D01*
X171586222Y-86862991D01*
X171530333Y-86758431D01*
X171502557Y-86706467D01*
X171484215Y-86646000D01*
X171451037Y-86536627D01*
X171433641Y-86360000D01*
X171451037Y-86183373D01*
X171502557Y-86013534D01*
X171502557Y-86013533D01*
X171586221Y-85857011D01*
X171586222Y-85857009D01*
X171615552Y-85821271D01*
X171698814Y-85719814D01*
X171800271Y-85636552D01*
X171836009Y-85607222D01*
X171853913Y-85597652D01*
X171992533Y-85523557D01*
X172049147Y-85506384D01*
X172162373Y-85472037D01*
X172228558Y-85465518D01*
X172294740Y-85459000D01*
X172383260Y-85459000D01*
X172449442Y-85465518D01*
X172449442Y-85465518D01*
G37*
G36*
X165861091Y-83742585D02*
X165895069Y-83752893D01*
X165926387Y-83769633D01*
X165953839Y-83792161D01*
X165976367Y-83819613D01*
X165993107Y-83850931D01*
X166003415Y-83884909D01*
X166007500Y-83926390D01*
X166007500Y-84602610D01*
X166003415Y-84644091D01*
X165993107Y-84678069D01*
X165976367Y-84709387D01*
X165953839Y-84736839D01*
X165926387Y-84759367D01*
X165895069Y-84776107D01*
X165861091Y-84786415D01*
X165819610Y-84790500D01*
X165218390Y-84790500D01*
X165176909Y-84786415D01*
X165142931Y-84776107D01*
X165111613Y-84759367D01*
X165084161Y-84736839D01*
X165061633Y-84709387D01*
X165044893Y-84678069D01*
X165034585Y-84644091D01*
X165030500Y-84602610D01*
X165030500Y-83926390D01*
X165034585Y-83884909D01*
X165044893Y-83850931D01*
X165061633Y-83819613D01*
X165084161Y-83792161D01*
X165111613Y-83769633D01*
X165142931Y-83752893D01*
X165176909Y-83742585D01*
X165218390Y-83738500D01*
X165819610Y-83738500D01*
X165861091Y-83742585D01*
X165861091Y-83742585D01*
G37*
G36*
X167436091Y-83742585D02*
X167470069Y-83752893D01*
X167501387Y-83769633D01*
X167528839Y-83792161D01*
X167551367Y-83819613D01*
X167568107Y-83850931D01*
X167578415Y-83884909D01*
X167582500Y-83926390D01*
X167582500Y-84602610D01*
X167578415Y-84644091D01*
X167568107Y-84678069D01*
X167551367Y-84709387D01*
X167528839Y-84736839D01*
X167501387Y-84759367D01*
X167470069Y-84776107D01*
X167436091Y-84786415D01*
X167394610Y-84790500D01*
X166793390Y-84790500D01*
X166751909Y-84786415D01*
X166717931Y-84776107D01*
X166686613Y-84759367D01*
X166659161Y-84736839D01*
X166636633Y-84709387D01*
X166619893Y-84678069D01*
X166609585Y-84644091D01*
X166605500Y-84602610D01*
X166605500Y-83926390D01*
X166609585Y-83884909D01*
X166619893Y-83850931D01*
X166636633Y-83819613D01*
X166659161Y-83792161D01*
X166686613Y-83769633D01*
X166717931Y-83752893D01*
X166751909Y-83742585D01*
X166793390Y-83738500D01*
X167394610Y-83738500D01*
X167436091Y-83742585D01*
X167436091Y-83742585D01*
G37*
G36*
X158000000Y-84721000D02*
X156198000Y-84721000D01*
X156198000Y-82919000D01*
X158000000Y-82919000D01*
X158000000Y-84721000D01*
X158000000Y-84721000D01*
G37*
G36*
X173240000Y-84721000D02*
X171438000Y-84721000D01*
X171438000Y-82919000D01*
X173240000Y-82919000D01*
X173240000Y-84721000D01*
X173240000Y-84721000D01*
G37*
G36*
X166034720Y-83378040D02*
X165033960Y-83378040D01*
X165033960Y-81975960D01*
X166034720Y-81975960D01*
X166034720Y-83378040D01*
X166034720Y-83378040D01*
G37*
G36*
X167833040Y-83378040D02*
X166832280Y-83378040D01*
X166832280Y-81975960D01*
X167833040Y-81975960D01*
X167833040Y-83378040D01*
X167833040Y-83378040D01*
G37*
G36*
X162813091Y-82155085D02*
X162847069Y-82165393D01*
X162878387Y-82182133D01*
X162905839Y-82204661D01*
X162928367Y-82232113D01*
X162945107Y-82263431D01*
X162955415Y-82297409D01*
X162959500Y-82338890D01*
X162959500Y-83015110D01*
X162955415Y-83056591D01*
X162945107Y-83090569D01*
X162928367Y-83121887D01*
X162905839Y-83149339D01*
X162878387Y-83171867D01*
X162847069Y-83188607D01*
X162813091Y-83198915D01*
X162771610Y-83203000D01*
X162170390Y-83203000D01*
X162128909Y-83198915D01*
X162094931Y-83188607D01*
X162063613Y-83171867D01*
X162036161Y-83149339D01*
X162013633Y-83121887D01*
X161996893Y-83090569D01*
X161986585Y-83056591D01*
X161982500Y-83015110D01*
X161982500Y-82338890D01*
X161986585Y-82297409D01*
X161996893Y-82263431D01*
X162013633Y-82232113D01*
X162036161Y-82204661D01*
X162063613Y-82182133D01*
X162094931Y-82165393D01*
X162128909Y-82155085D01*
X162170390Y-82151000D01*
X162771610Y-82151000D01*
X162813091Y-82155085D01*
X162813091Y-82155085D01*
G37*
G36*
X164388091Y-82155085D02*
X164422069Y-82165393D01*
X164453387Y-82182133D01*
X164480839Y-82204661D01*
X164503367Y-82232113D01*
X164520107Y-82263431D01*
X164530415Y-82297409D01*
X164534500Y-82338890D01*
X164534500Y-83015110D01*
X164530415Y-83056591D01*
X164520107Y-83090569D01*
X164503367Y-83121887D01*
X164480839Y-83149339D01*
X164453387Y-83171867D01*
X164422069Y-83188607D01*
X164388091Y-83198915D01*
X164346610Y-83203000D01*
X163745390Y-83203000D01*
X163703909Y-83198915D01*
X163669931Y-83188607D01*
X163638613Y-83171867D01*
X163611161Y-83149339D01*
X163588633Y-83121887D01*
X163571893Y-83090569D01*
X163561585Y-83056591D01*
X163557500Y-83015110D01*
X163557500Y-82338890D01*
X163561585Y-82297409D01*
X163571893Y-82263431D01*
X163588633Y-82232113D01*
X163611161Y-82204661D01*
X163638613Y-82182133D01*
X163669931Y-82165393D01*
X163703909Y-82155085D01*
X163745390Y-82151000D01*
X164346610Y-82151000D01*
X164388091Y-82155085D01*
X164388091Y-82155085D01*
G37*
M02*
