M48
;DRILL file {KiCad (5.0.1)-rc2} date 6/24/2019 11:23:31 PM
;FORMAT={-:-/ absolute / inch / decimal}
FMAT,2
INCH,TZ
T1C0.0118
T2C0.0157
T3C0.0394
%
G90
G05
M72
T1
X7.874Y-1.6929
X7.9173Y-2.
X8.1141Y-1.122
X8.1693Y-1.8799
X8.2717Y-1.0551
X8.2874Y-1.9685
X8.2953Y-1.8543
X8.3425Y-1.8583
X8.345Y-2.47
X8.3643Y-2.126
X8.3858Y-2.0965
X8.3898Y-1.8346
X8.4011Y-2.1752
X8.405Y-1.3283
X8.4079Y-2.0767
X8.4094Y-2.2525
X8.4134Y-1.5709
X8.4291Y-1.4055
X8.436Y-2.2655
X8.4551Y-2.1067
X8.4606Y-1.626
X8.48Y-1.51
X8.5Y-1.9408
X8.525Y-1.97
X8.6378Y-1.878
X8.6378Y-1.9567
X8.6496Y-2.2598
X8.6496Y-2.2953
X8.6496Y-2.4685
X8.6496Y-2.5157
X8.6496Y-2.5551
X8.6693Y-1.9567
X8.6693Y-1.9921
X8.6693Y-2.0984
X8.6732Y-1.878
X8.6811Y-1.563
X8.7047Y-2.0984
X8.7126Y-1.9567
X8.7126Y-1.9961
X8.7283Y-1.8858
X8.7441Y-2.0039
X8.7441Y-2.0394
X8.7441Y-2.0748
X8.752Y-1.9567
X8.7756Y-2.0551
X8.7795Y-1.8858
X8.7795Y-1.9803
X8.7795Y-2.0157
X8.8189Y-1.9094
X8.8465Y-1.9409
X8.8543Y-1.8819
X8.8543Y-1.9843
X8.8583Y-2.0236
X8.8583Y-2.0591
X8.8583Y-2.0945
X8.8937Y-2.0945
X8.8976Y-1.8819
X8.9252Y-1.9094
X8.9252Y-1.9409
X8.9252Y-1.9803
X8.9252Y-2.0236
X8.9252Y-2.063
X8.9252Y-2.0945
T2
X7.8307Y-1.4921
X7.8386Y-2.1024
X7.8858Y-2.2953
X7.9409Y-2.3425
X8.Y-1.1063
X8.Y-2.5039
X8.0118Y-0.9921
X8.0591Y-1.2087
X8.0984Y-1.4449
X8.15Y-1.555
X8.1594Y-1.6142
X8.1791Y-2.4213
X8.2126Y-2.0945
X8.2755Y-2.1649
X8.2795Y-1.2559
X8.2827Y-1.1409
X8.3189Y-1.7323
X8.3366Y-2.3917
X8.4252Y-1.0197
X8.4655Y-2.074
X8.4744Y-1.7913
X8.4919Y-2.5628
X8.5433Y-2.5551
X8.5512Y-1.6024
X8.5803Y-2.1128
X8.5827Y-1.2717
X8.6181Y-1.1811
X8.7874Y-1.374
X8.8031Y-1.1654
X8.874Y-1.5157
X8.9213Y-1.0945
T3
X7.9625Y-1.45
X7.9625Y-1.55
X7.9625Y-1.65
X7.8025Y-1.8356
X7.8025Y-2.0325
T0
M30
