G04 #@! TF.GenerationSoftware,KiCad,Pcbnew,(5.0.1)-rc2*
G04 #@! TF.CreationDate,2019-10-07T13:01:37-07:00*
G04 #@! TF.ProjectId,GPSLogger,4750534C6F676765722E6B696361645F,rev?*
G04 #@! TF.SameCoordinates,Original*
G04 #@! TF.FileFunction,Soldermask,Top*
G04 #@! TF.FilePolarity,Negative*
%FSLAX46Y46*%
G04 Gerber Fmt 4.6, Leading zero omitted, Abs format (unit mm)*
G04 Created by KiCad (PCBNEW (5.0.1)-rc2) date 10/7/2019 1:01:37 PM*
%MOMM*%
%LPD*%
G01*
G04 APERTURE LIST*
%ADD10C,0.100000*%
G04 APERTURE END LIST*
D10*
G36*
X139268622Y-120205517D02*
X139316585Y-120220066D01*
X139360775Y-120243686D01*
X139399518Y-120275482D01*
X139431314Y-120314225D01*
X139454934Y-120358415D01*
X139469483Y-120406378D01*
X139475000Y-120462391D01*
X139475000Y-121212609D01*
X139469483Y-121268622D01*
X139454934Y-121316585D01*
X139431314Y-121360775D01*
X139399518Y-121399518D01*
X139360775Y-121431314D01*
X139316585Y-121454934D01*
X139268622Y-121469483D01*
X139212609Y-121475000D01*
X138387391Y-121475000D01*
X138331378Y-121469483D01*
X138283415Y-121454934D01*
X138239225Y-121431314D01*
X138200482Y-121399518D01*
X138168686Y-121360775D01*
X138145066Y-121316585D01*
X138130517Y-121268622D01*
X138125000Y-121212609D01*
X138125000Y-120462391D01*
X138130517Y-120406378D01*
X138145066Y-120358415D01*
X138168686Y-120314225D01*
X138200482Y-120275482D01*
X138239225Y-120243686D01*
X138283415Y-120220066D01*
X138331378Y-120205517D01*
X138387391Y-120200000D01*
X139212609Y-120200000D01*
X139268622Y-120205517D01*
X139268622Y-120205517D01*
G37*
G36*
X136918622Y-120143017D02*
X136966585Y-120157566D01*
X137010775Y-120181186D01*
X137049518Y-120212982D01*
X137081314Y-120251725D01*
X137104934Y-120295915D01*
X137119483Y-120343878D01*
X137125000Y-120399891D01*
X137125000Y-121150109D01*
X137119483Y-121206122D01*
X137104934Y-121254085D01*
X137081314Y-121298275D01*
X137049518Y-121337018D01*
X137010775Y-121368814D01*
X136966585Y-121392434D01*
X136918622Y-121406983D01*
X136862609Y-121412500D01*
X136037391Y-121412500D01*
X135981378Y-121406983D01*
X135933415Y-121392434D01*
X135889225Y-121368814D01*
X135850482Y-121337018D01*
X135818686Y-121298275D01*
X135795066Y-121254085D01*
X135780517Y-121206122D01*
X135775000Y-121150109D01*
X135775000Y-120399891D01*
X135780517Y-120343878D01*
X135795066Y-120295915D01*
X135818686Y-120251725D01*
X135850482Y-120212982D01*
X135889225Y-120181186D01*
X135933415Y-120157566D01*
X135981378Y-120143017D01*
X136037391Y-120137500D01*
X136862609Y-120137500D01*
X136918622Y-120143017D01*
X136918622Y-120143017D01*
G37*
G36*
X156127000Y-120422000D02*
X155277000Y-120422000D01*
X155277000Y-119322000D01*
X156127000Y-119322000D01*
X156127000Y-120422000D01*
X156127000Y-120422000D01*
G37*
G36*
X133323497Y-118455997D02*
X133376153Y-118471970D01*
X133424665Y-118497900D01*
X133467196Y-118532804D01*
X133502100Y-118575335D01*
X133528030Y-118623847D01*
X133544003Y-118676503D01*
X133550000Y-118737390D01*
X133550000Y-119962610D01*
X133544003Y-120023497D01*
X133528030Y-120076153D01*
X133502100Y-120124665D01*
X133467196Y-120167196D01*
X133424665Y-120202100D01*
X133376153Y-120228030D01*
X133323497Y-120244003D01*
X133262610Y-120250000D01*
X132462390Y-120250000D01*
X132401503Y-120244003D01*
X132348847Y-120228030D01*
X132300335Y-120202100D01*
X132257804Y-120167196D01*
X132222900Y-120124665D01*
X132196970Y-120076153D01*
X132180997Y-120023497D01*
X132175000Y-119962610D01*
X132175000Y-118737390D01*
X132180997Y-118676503D01*
X132196970Y-118623847D01*
X132222900Y-118575335D01*
X132257804Y-118532804D01*
X132300335Y-118497900D01*
X132348847Y-118471970D01*
X132401503Y-118455997D01*
X132462390Y-118450000D01*
X133262610Y-118450000D01*
X133323497Y-118455997D01*
X133323497Y-118455997D01*
G37*
G36*
X135198497Y-118455997D02*
X135251153Y-118471970D01*
X135299665Y-118497900D01*
X135342196Y-118532804D01*
X135377100Y-118575335D01*
X135403030Y-118623847D01*
X135419003Y-118676503D01*
X135425000Y-118737390D01*
X135425000Y-119962610D01*
X135419003Y-120023497D01*
X135403030Y-120076153D01*
X135377100Y-120124665D01*
X135342196Y-120167196D01*
X135299665Y-120202100D01*
X135251153Y-120228030D01*
X135198497Y-120244003D01*
X135137610Y-120250000D01*
X134337390Y-120250000D01*
X134276503Y-120244003D01*
X134223847Y-120228030D01*
X134175335Y-120202100D01*
X134132804Y-120167196D01*
X134097900Y-120124665D01*
X134071970Y-120076153D01*
X134055997Y-120023497D01*
X134050000Y-119962610D01*
X134050000Y-118737390D01*
X134055997Y-118676503D01*
X134071970Y-118623847D01*
X134097900Y-118575335D01*
X134132804Y-118532804D01*
X134175335Y-118497900D01*
X134223847Y-118471970D01*
X134276503Y-118455997D01*
X134337390Y-118450000D01*
X135137610Y-118450000D01*
X135198497Y-118455997D01*
X135198497Y-118455997D01*
G37*
G36*
X158456622Y-118799017D02*
X158504585Y-118813566D01*
X158548775Y-118837186D01*
X158587518Y-118868982D01*
X158619314Y-118907725D01*
X158642934Y-118951915D01*
X158657483Y-118999878D01*
X158663000Y-119055891D01*
X158663000Y-119806109D01*
X158657483Y-119862122D01*
X158642934Y-119910085D01*
X158619314Y-119954275D01*
X158587518Y-119993018D01*
X158548775Y-120024814D01*
X158504585Y-120048434D01*
X158456622Y-120062983D01*
X158400609Y-120068500D01*
X157575391Y-120068500D01*
X157519378Y-120062983D01*
X157471415Y-120048434D01*
X157427225Y-120024814D01*
X157388482Y-119993018D01*
X157356686Y-119954275D01*
X157333066Y-119910085D01*
X157318517Y-119862122D01*
X157313000Y-119806109D01*
X157313000Y-119055891D01*
X157318517Y-118999878D01*
X157333066Y-118951915D01*
X157356686Y-118907725D01*
X157388482Y-118868982D01*
X157427225Y-118837186D01*
X157471415Y-118813566D01*
X157519378Y-118799017D01*
X157575391Y-118793500D01*
X158400609Y-118793500D01*
X158456622Y-118799017D01*
X158456622Y-118799017D01*
G37*
G36*
X153884622Y-118799017D02*
X153932585Y-118813566D01*
X153976775Y-118837186D01*
X154015518Y-118868982D01*
X154047314Y-118907725D01*
X154070934Y-118951915D01*
X154085483Y-118999878D01*
X154091000Y-119055891D01*
X154091000Y-119806109D01*
X154085483Y-119862122D01*
X154070934Y-119910085D01*
X154047314Y-119954275D01*
X154015518Y-119993018D01*
X153976775Y-120024814D01*
X153932585Y-120048434D01*
X153884622Y-120062983D01*
X153828609Y-120068500D01*
X153003391Y-120068500D01*
X152947378Y-120062983D01*
X152899415Y-120048434D01*
X152855225Y-120024814D01*
X152816482Y-119993018D01*
X152784686Y-119954275D01*
X152761066Y-119910085D01*
X152746517Y-119862122D01*
X152741000Y-119806109D01*
X152741000Y-119055891D01*
X152746517Y-118999878D01*
X152761066Y-118951915D01*
X152784686Y-118907725D01*
X152816482Y-118868982D01*
X152855225Y-118837186D01*
X152899415Y-118813566D01*
X152947378Y-118799017D01*
X153003391Y-118793500D01*
X153828609Y-118793500D01*
X153884622Y-118799017D01*
X153884622Y-118799017D01*
G37*
G36*
X139268622Y-118630517D02*
X139316585Y-118645066D01*
X139360775Y-118668686D01*
X139399518Y-118700482D01*
X139431314Y-118739225D01*
X139454934Y-118783415D01*
X139469483Y-118831378D01*
X139475000Y-118887391D01*
X139475000Y-119637609D01*
X139469483Y-119693622D01*
X139454934Y-119741585D01*
X139431314Y-119785775D01*
X139399518Y-119824518D01*
X139360775Y-119856314D01*
X139316585Y-119879934D01*
X139268622Y-119894483D01*
X139212609Y-119900000D01*
X138387391Y-119900000D01*
X138331378Y-119894483D01*
X138283415Y-119879934D01*
X138239225Y-119856314D01*
X138200482Y-119824518D01*
X138168686Y-119785775D01*
X138145066Y-119741585D01*
X138130517Y-119693622D01*
X138125000Y-119637609D01*
X138125000Y-118887391D01*
X138130517Y-118831378D01*
X138145066Y-118783415D01*
X138168686Y-118739225D01*
X138200482Y-118700482D01*
X138239225Y-118668686D01*
X138283415Y-118645066D01*
X138331378Y-118630517D01*
X138387391Y-118625000D01*
X139212609Y-118625000D01*
X139268622Y-118630517D01*
X139268622Y-118630517D01*
G37*
G36*
X147182974Y-117873148D02*
X147217568Y-117883642D01*
X147249441Y-117900678D01*
X147277387Y-117923613D01*
X147300322Y-117951559D01*
X147317358Y-117983432D01*
X147330870Y-118027977D01*
X147340247Y-118050616D01*
X147353860Y-118070991D01*
X147371187Y-118088318D01*
X147391562Y-118101932D01*
X147414200Y-118111310D01*
X147438234Y-118116091D01*
X147462738Y-118116091D01*
X147486772Y-118111311D01*
X147509411Y-118101934D01*
X147529786Y-118088321D01*
X147547113Y-118070994D01*
X147560727Y-118050619D01*
X147570106Y-118027978D01*
X147576642Y-118006431D01*
X147593678Y-117974559D01*
X147616613Y-117946613D01*
X147644559Y-117923678D01*
X147676432Y-117906642D01*
X147711026Y-117896148D01*
X147753141Y-117892000D01*
X148410859Y-117892000D01*
X148452974Y-117896148D01*
X148487568Y-117906642D01*
X148519441Y-117923678D01*
X148547387Y-117946613D01*
X148570322Y-117974559D01*
X148587358Y-118006431D01*
X148593894Y-118027978D01*
X148603272Y-118050618D01*
X148616886Y-118070992D01*
X148634213Y-118088319D01*
X148654587Y-118101933D01*
X148677226Y-118111311D01*
X148701260Y-118116091D01*
X148725764Y-118116091D01*
X148749797Y-118111311D01*
X148772437Y-118101933D01*
X148792811Y-118088319D01*
X148810138Y-118070992D01*
X148823752Y-118050618D01*
X148833130Y-118027977D01*
X148846642Y-117983432D01*
X148863678Y-117951559D01*
X148886613Y-117923613D01*
X148914559Y-117900678D01*
X148946432Y-117883642D01*
X148981026Y-117873148D01*
X149023141Y-117869000D01*
X149680859Y-117869000D01*
X149722974Y-117873148D01*
X149757568Y-117883642D01*
X149789441Y-117900678D01*
X149817387Y-117923613D01*
X149840322Y-117951559D01*
X149857358Y-117983432D01*
X149870870Y-118027977D01*
X149880247Y-118050616D01*
X149893860Y-118070991D01*
X149911187Y-118088318D01*
X149931562Y-118101932D01*
X149954200Y-118111310D01*
X149978234Y-118116091D01*
X150002738Y-118116091D01*
X150026772Y-118111311D01*
X150049411Y-118101934D01*
X150069786Y-118088321D01*
X150087113Y-118070994D01*
X150100727Y-118050619D01*
X150110106Y-118027978D01*
X150116642Y-118006431D01*
X150133678Y-117974559D01*
X150156613Y-117946613D01*
X150184559Y-117923678D01*
X150216432Y-117906642D01*
X150251026Y-117896148D01*
X150293141Y-117892000D01*
X150950859Y-117892000D01*
X150992974Y-117896148D01*
X151027568Y-117906642D01*
X151059441Y-117923678D01*
X151087387Y-117946613D01*
X151110322Y-117974559D01*
X151127358Y-118006432D01*
X151137382Y-118039477D01*
X151146759Y-118062116D01*
X151160373Y-118082491D01*
X151177700Y-118099818D01*
X151198074Y-118113433D01*
X151220713Y-118122810D01*
X151244747Y-118127591D01*
X151269251Y-118127591D01*
X151293284Y-118122811D01*
X151315923Y-118113434D01*
X151336298Y-118099820D01*
X151353625Y-118082493D01*
X151367240Y-118062119D01*
X151376618Y-118039477D01*
X151386642Y-118006432D01*
X151403678Y-117974559D01*
X151426613Y-117946613D01*
X151454559Y-117923678D01*
X151486432Y-117906642D01*
X151521026Y-117896148D01*
X151563141Y-117892000D01*
X152220859Y-117892000D01*
X152262974Y-117896148D01*
X152297568Y-117906642D01*
X152329441Y-117923678D01*
X152357387Y-117946613D01*
X152380322Y-117974559D01*
X152397358Y-118006432D01*
X152407852Y-118041026D01*
X152412000Y-118083141D01*
X152412000Y-118690859D01*
X152407852Y-118732974D01*
X152397358Y-118767568D01*
X152376213Y-118807128D01*
X152372243Y-118813069D01*
X152362864Y-118835708D01*
X152358083Y-118859741D01*
X152358081Y-118884245D01*
X152362860Y-118908279D01*
X152372237Y-118930918D01*
X152376205Y-118936858D01*
X152397358Y-118976432D01*
X152407852Y-119011026D01*
X152412000Y-119053141D01*
X152412000Y-119660859D01*
X152407852Y-119702974D01*
X152397358Y-119737568D01*
X152380322Y-119769441D01*
X152357387Y-119797387D01*
X152329441Y-119820322D01*
X152297568Y-119837358D01*
X152262974Y-119847852D01*
X152220859Y-119852000D01*
X151563141Y-119852000D01*
X151521026Y-119847852D01*
X151486432Y-119837358D01*
X151454559Y-119820322D01*
X151426613Y-119797387D01*
X151403678Y-119769441D01*
X151386642Y-119737568D01*
X151376618Y-119704523D01*
X151367241Y-119681884D01*
X151353627Y-119661509D01*
X151336300Y-119644182D01*
X151315926Y-119630567D01*
X151293287Y-119621190D01*
X151269253Y-119616409D01*
X151244749Y-119616409D01*
X151220716Y-119621189D01*
X151198077Y-119630566D01*
X151177702Y-119644180D01*
X151160375Y-119661507D01*
X151146760Y-119681881D01*
X151137382Y-119704523D01*
X151127358Y-119737568D01*
X151110322Y-119769441D01*
X151087387Y-119797387D01*
X151059441Y-119820322D01*
X151027568Y-119837358D01*
X150992974Y-119847852D01*
X150950859Y-119852000D01*
X150293141Y-119852000D01*
X150251026Y-119847852D01*
X150216432Y-119837358D01*
X150184559Y-119820322D01*
X150156613Y-119797387D01*
X150133678Y-119769441D01*
X150116642Y-119737568D01*
X150103130Y-119693023D01*
X150093753Y-119670384D01*
X150080140Y-119650009D01*
X150062813Y-119632682D01*
X150042438Y-119619068D01*
X150019800Y-119609690D01*
X149995766Y-119604909D01*
X149971262Y-119604909D01*
X149947228Y-119609689D01*
X149924589Y-119619066D01*
X149904214Y-119632679D01*
X149886887Y-119650006D01*
X149873273Y-119670381D01*
X149863894Y-119693022D01*
X149857358Y-119714569D01*
X149840322Y-119746441D01*
X149817387Y-119774387D01*
X149789441Y-119797322D01*
X149757568Y-119814358D01*
X149722974Y-119824852D01*
X149680859Y-119829000D01*
X149023141Y-119829000D01*
X148981026Y-119824852D01*
X148946432Y-119814358D01*
X148914559Y-119797322D01*
X148886613Y-119774387D01*
X148863678Y-119746441D01*
X148846642Y-119714569D01*
X148840106Y-119693022D01*
X148830728Y-119670382D01*
X148817114Y-119650008D01*
X148799787Y-119632681D01*
X148779413Y-119619067D01*
X148756774Y-119609689D01*
X148732740Y-119604909D01*
X148708236Y-119604909D01*
X148684203Y-119609689D01*
X148661563Y-119619067D01*
X148641189Y-119632681D01*
X148623862Y-119650008D01*
X148610248Y-119670382D01*
X148600870Y-119693023D01*
X148587358Y-119737568D01*
X148570322Y-119769441D01*
X148547387Y-119797387D01*
X148519441Y-119820322D01*
X148487568Y-119837358D01*
X148452974Y-119847852D01*
X148410859Y-119852000D01*
X147753141Y-119852000D01*
X147711026Y-119847852D01*
X147676432Y-119837358D01*
X147644559Y-119820322D01*
X147616613Y-119797387D01*
X147593678Y-119769441D01*
X147576642Y-119737568D01*
X147563130Y-119693023D01*
X147553753Y-119670384D01*
X147540140Y-119650009D01*
X147522813Y-119632682D01*
X147502438Y-119619068D01*
X147479800Y-119609690D01*
X147455766Y-119604909D01*
X147431262Y-119604909D01*
X147407228Y-119609689D01*
X147384589Y-119619066D01*
X147364214Y-119632679D01*
X147346887Y-119650006D01*
X147333273Y-119670381D01*
X147323894Y-119693022D01*
X147317358Y-119714569D01*
X147300322Y-119746441D01*
X147277387Y-119774387D01*
X147249441Y-119797322D01*
X147217568Y-119814358D01*
X147182974Y-119824852D01*
X147140859Y-119829000D01*
X146483141Y-119829000D01*
X146441026Y-119824852D01*
X146406432Y-119814358D01*
X146374559Y-119797322D01*
X146346613Y-119774387D01*
X146323678Y-119746441D01*
X146306642Y-119714569D01*
X146300106Y-119693022D01*
X146290728Y-119670382D01*
X146277114Y-119650008D01*
X146259787Y-119632681D01*
X146239413Y-119619067D01*
X146216774Y-119609689D01*
X146192740Y-119604909D01*
X146168236Y-119604909D01*
X146144203Y-119609689D01*
X146121563Y-119619067D01*
X146101189Y-119632681D01*
X146083862Y-119650008D01*
X146070248Y-119670382D01*
X146060870Y-119693023D01*
X146047358Y-119737568D01*
X146030322Y-119769441D01*
X146007387Y-119797387D01*
X145979441Y-119820322D01*
X145947568Y-119837358D01*
X145912974Y-119847852D01*
X145870859Y-119852000D01*
X145213141Y-119852000D01*
X145171026Y-119847852D01*
X145136432Y-119837358D01*
X145104559Y-119820322D01*
X145076613Y-119797387D01*
X145053678Y-119769441D01*
X145036640Y-119737565D01*
X145030484Y-119717271D01*
X145021107Y-119694632D01*
X145007493Y-119674257D01*
X144990166Y-119656930D01*
X144969791Y-119643317D01*
X144947152Y-119633939D01*
X144923119Y-119629159D01*
X144898614Y-119629159D01*
X144874581Y-119633940D01*
X144851942Y-119643317D01*
X144831567Y-119656931D01*
X144814240Y-119674258D01*
X144800627Y-119694633D01*
X144791249Y-119717274D01*
X144777359Y-119763067D01*
X144760322Y-119794941D01*
X144737387Y-119822887D01*
X144709441Y-119845822D01*
X144677568Y-119862858D01*
X144642974Y-119873352D01*
X144600859Y-119877500D01*
X143943141Y-119877500D01*
X143901026Y-119873352D01*
X143866432Y-119862858D01*
X143834559Y-119845822D01*
X143806613Y-119822887D01*
X143783678Y-119794941D01*
X143766641Y-119763067D01*
X143752751Y-119717274D01*
X143743374Y-119694634D01*
X143729761Y-119674260D01*
X143712434Y-119656932D01*
X143692060Y-119643318D01*
X143669421Y-119633940D01*
X143645387Y-119629159D01*
X143620883Y-119629159D01*
X143596850Y-119633939D01*
X143574210Y-119643316D01*
X143553836Y-119656929D01*
X143536508Y-119674256D01*
X143522894Y-119694630D01*
X143513516Y-119717271D01*
X143507360Y-119737565D01*
X143490322Y-119769441D01*
X143467387Y-119797387D01*
X143439441Y-119820322D01*
X143407568Y-119837358D01*
X143372974Y-119847852D01*
X143330859Y-119852000D01*
X142673141Y-119852000D01*
X142631026Y-119847852D01*
X142596432Y-119837358D01*
X142564559Y-119820322D01*
X142536613Y-119797387D01*
X142513678Y-119769441D01*
X142496642Y-119737568D01*
X142486618Y-119704523D01*
X142477241Y-119681884D01*
X142463627Y-119661509D01*
X142446300Y-119644182D01*
X142425926Y-119630567D01*
X142403287Y-119621190D01*
X142379253Y-119616409D01*
X142354749Y-119616409D01*
X142330716Y-119621189D01*
X142308077Y-119630566D01*
X142287702Y-119644180D01*
X142270375Y-119661507D01*
X142256760Y-119681881D01*
X142247382Y-119704523D01*
X142237358Y-119737568D01*
X142220322Y-119769441D01*
X142197387Y-119797387D01*
X142169441Y-119820322D01*
X142137568Y-119837358D01*
X142102974Y-119847852D01*
X142060859Y-119852000D01*
X141403141Y-119852000D01*
X141361026Y-119847852D01*
X141326432Y-119837358D01*
X141294559Y-119820322D01*
X141266613Y-119797387D01*
X141243678Y-119769441D01*
X141226642Y-119737568D01*
X141216618Y-119704523D01*
X141207241Y-119681884D01*
X141193627Y-119661509D01*
X141176300Y-119644182D01*
X141155926Y-119630567D01*
X141133287Y-119621190D01*
X141109253Y-119616409D01*
X141084749Y-119616409D01*
X141060716Y-119621189D01*
X141038077Y-119630566D01*
X141017702Y-119644180D01*
X141000375Y-119661507D01*
X140986760Y-119681881D01*
X140977382Y-119704523D01*
X140967358Y-119737568D01*
X140950322Y-119769441D01*
X140927387Y-119797387D01*
X140899441Y-119820322D01*
X140867568Y-119837358D01*
X140832974Y-119847852D01*
X140790859Y-119852000D01*
X140133141Y-119852000D01*
X140091026Y-119847852D01*
X140056432Y-119837358D01*
X140024559Y-119820322D01*
X139996613Y-119797387D01*
X139973678Y-119769441D01*
X139956642Y-119737568D01*
X139946148Y-119702974D01*
X139942000Y-119660859D01*
X139942000Y-119053141D01*
X139946148Y-119011026D01*
X139956642Y-118976432D01*
X139977787Y-118936872D01*
X139981757Y-118930931D01*
X139991136Y-118908292D01*
X139995917Y-118884259D01*
X139995917Y-118884245D01*
X140928081Y-118884245D01*
X140932860Y-118908279D01*
X140942237Y-118930918D01*
X140946205Y-118936858D01*
X140967358Y-118976432D01*
X140977382Y-119009477D01*
X140986759Y-119032116D01*
X141000373Y-119052491D01*
X141017700Y-119069818D01*
X141038074Y-119083433D01*
X141060713Y-119092810D01*
X141084747Y-119097591D01*
X141109251Y-119097591D01*
X141133284Y-119092811D01*
X141155923Y-119083434D01*
X141176298Y-119069820D01*
X141193625Y-119052493D01*
X141207240Y-119032119D01*
X141216618Y-119009477D01*
X141226642Y-118976432D01*
X141247787Y-118936872D01*
X141251757Y-118930931D01*
X141261136Y-118908292D01*
X141265917Y-118884259D01*
X141265917Y-118884245D01*
X142198081Y-118884245D01*
X142202860Y-118908279D01*
X142212237Y-118930918D01*
X142216205Y-118936858D01*
X142237358Y-118976432D01*
X142247382Y-119009477D01*
X142256759Y-119032116D01*
X142270373Y-119052491D01*
X142287700Y-119069818D01*
X142308074Y-119083433D01*
X142330713Y-119092810D01*
X142354747Y-119097591D01*
X142379251Y-119097591D01*
X142403284Y-119092811D01*
X142425923Y-119083434D01*
X142446298Y-119069820D01*
X142463625Y-119052493D01*
X142477240Y-119032119D01*
X142486618Y-119009477D01*
X142496642Y-118976432D01*
X142517787Y-118936872D01*
X142521757Y-118930931D01*
X142531136Y-118908292D01*
X142535917Y-118884259D01*
X142535917Y-118884245D01*
X143468081Y-118884245D01*
X143472860Y-118908279D01*
X143482237Y-118930918D01*
X143486205Y-118936858D01*
X143507359Y-118976433D01*
X143521249Y-119022226D01*
X143530626Y-119044866D01*
X143544239Y-119065240D01*
X143561566Y-119082568D01*
X143581940Y-119096182D01*
X143604579Y-119105560D01*
X143628613Y-119110341D01*
X143653117Y-119110341D01*
X143677150Y-119105561D01*
X143699790Y-119096184D01*
X143720164Y-119082571D01*
X143737492Y-119065244D01*
X143751106Y-119044870D01*
X143760484Y-119022229D01*
X143766640Y-119001935D01*
X143787787Y-118962372D01*
X143791757Y-118956431D01*
X143801136Y-118933792D01*
X143805917Y-118909759D01*
X143805917Y-118909745D01*
X144738081Y-118909745D01*
X144742860Y-118933779D01*
X144752237Y-118956418D01*
X144756205Y-118962358D01*
X144777360Y-119001935D01*
X144783516Y-119022229D01*
X144792893Y-119044868D01*
X144806507Y-119065243D01*
X144823834Y-119082570D01*
X144844209Y-119096183D01*
X144866848Y-119105561D01*
X144890881Y-119110341D01*
X144915386Y-119110341D01*
X144939419Y-119105560D01*
X144962058Y-119096183D01*
X144982433Y-119082569D01*
X144999760Y-119065242D01*
X145013373Y-119044867D01*
X145022751Y-119022226D01*
X145036641Y-118976433D01*
X145057787Y-118936872D01*
X145061757Y-118930931D01*
X145071136Y-118908292D01*
X145075917Y-118884259D01*
X145075917Y-118884245D01*
X146008081Y-118884245D01*
X146012860Y-118908279D01*
X146022237Y-118930918D01*
X146026205Y-118936858D01*
X146047358Y-118976431D01*
X146053894Y-118997978D01*
X146063272Y-119020618D01*
X146076886Y-119040992D01*
X146094213Y-119058319D01*
X146114587Y-119071933D01*
X146137226Y-119081311D01*
X146161260Y-119086091D01*
X146185764Y-119086091D01*
X146209797Y-119081311D01*
X146232437Y-119071933D01*
X146252811Y-119058319D01*
X146270138Y-119040992D01*
X146283752Y-119020618D01*
X146293130Y-118997977D01*
X146306642Y-118953432D01*
X146327787Y-118913872D01*
X146331757Y-118907931D01*
X146341136Y-118885292D01*
X146345917Y-118861259D01*
X146345917Y-118861245D01*
X147278081Y-118861245D01*
X147282860Y-118885279D01*
X147292237Y-118907918D01*
X147296205Y-118913858D01*
X147317358Y-118953432D01*
X147330870Y-118997977D01*
X147340247Y-119020616D01*
X147353860Y-119040991D01*
X147371187Y-119058318D01*
X147391562Y-119071932D01*
X147414200Y-119081310D01*
X147438234Y-119086091D01*
X147462738Y-119086091D01*
X147486772Y-119081311D01*
X147509411Y-119071934D01*
X147529786Y-119058321D01*
X147547113Y-119040994D01*
X147560727Y-119020619D01*
X147570106Y-118997978D01*
X147576642Y-118976431D01*
X147597787Y-118936872D01*
X147601757Y-118930931D01*
X147611136Y-118908292D01*
X147615917Y-118884259D01*
X147615917Y-118884245D01*
X148548081Y-118884245D01*
X148552860Y-118908279D01*
X148562237Y-118930918D01*
X148566205Y-118936858D01*
X148587358Y-118976431D01*
X148593894Y-118997978D01*
X148603272Y-119020618D01*
X148616886Y-119040992D01*
X148634213Y-119058319D01*
X148654587Y-119071933D01*
X148677226Y-119081311D01*
X148701260Y-119086091D01*
X148725764Y-119086091D01*
X148749797Y-119081311D01*
X148772437Y-119071933D01*
X148792811Y-119058319D01*
X148810138Y-119040992D01*
X148823752Y-119020618D01*
X148833130Y-118997977D01*
X148846642Y-118953432D01*
X148867787Y-118913872D01*
X148871757Y-118907931D01*
X148881136Y-118885292D01*
X148885917Y-118861259D01*
X148885917Y-118861245D01*
X149818081Y-118861245D01*
X149822860Y-118885279D01*
X149832237Y-118907918D01*
X149836205Y-118913858D01*
X149857358Y-118953432D01*
X149870870Y-118997977D01*
X149880247Y-119020616D01*
X149893860Y-119040991D01*
X149911187Y-119058318D01*
X149931562Y-119071932D01*
X149954200Y-119081310D01*
X149978234Y-119086091D01*
X150002738Y-119086091D01*
X150026772Y-119081311D01*
X150049411Y-119071934D01*
X150069786Y-119058321D01*
X150087113Y-119040994D01*
X150100727Y-119020619D01*
X150110106Y-118997978D01*
X150116642Y-118976431D01*
X150137787Y-118936872D01*
X150141757Y-118930931D01*
X150151136Y-118908292D01*
X150155917Y-118884259D01*
X150155917Y-118884245D01*
X151088081Y-118884245D01*
X151092860Y-118908279D01*
X151102237Y-118930918D01*
X151106205Y-118936858D01*
X151127358Y-118976432D01*
X151137382Y-119009477D01*
X151146759Y-119032116D01*
X151160373Y-119052491D01*
X151177700Y-119069818D01*
X151198074Y-119083433D01*
X151220713Y-119092810D01*
X151244747Y-119097591D01*
X151269251Y-119097591D01*
X151293284Y-119092811D01*
X151315923Y-119083434D01*
X151336298Y-119069820D01*
X151353625Y-119052493D01*
X151367240Y-119032119D01*
X151376618Y-119009477D01*
X151386642Y-118976432D01*
X151407787Y-118936872D01*
X151411757Y-118930931D01*
X151421136Y-118908292D01*
X151425917Y-118884259D01*
X151425919Y-118859755D01*
X151421140Y-118835721D01*
X151411763Y-118813082D01*
X151407795Y-118807142D01*
X151386642Y-118767568D01*
X151376618Y-118734523D01*
X151367241Y-118711884D01*
X151353627Y-118691509D01*
X151336300Y-118674182D01*
X151315926Y-118660567D01*
X151293287Y-118651190D01*
X151269253Y-118646409D01*
X151244749Y-118646409D01*
X151220716Y-118651189D01*
X151198077Y-118660566D01*
X151177702Y-118674180D01*
X151160375Y-118691507D01*
X151146760Y-118711881D01*
X151137382Y-118734523D01*
X151127358Y-118767568D01*
X151106213Y-118807128D01*
X151102243Y-118813069D01*
X151092864Y-118835708D01*
X151088083Y-118859741D01*
X151088081Y-118884245D01*
X150155917Y-118884245D01*
X150155919Y-118859755D01*
X150151140Y-118835721D01*
X150141763Y-118813082D01*
X150137795Y-118807142D01*
X150116642Y-118767568D01*
X150103130Y-118723023D01*
X150093753Y-118700384D01*
X150080140Y-118680009D01*
X150062813Y-118662682D01*
X150042438Y-118649068D01*
X150019800Y-118639690D01*
X149995766Y-118634909D01*
X149971262Y-118634909D01*
X149947228Y-118639689D01*
X149924589Y-118649066D01*
X149904214Y-118662679D01*
X149886887Y-118680006D01*
X149873273Y-118700381D01*
X149863894Y-118723022D01*
X149857358Y-118744569D01*
X149836213Y-118784128D01*
X149832243Y-118790069D01*
X149822864Y-118812708D01*
X149818083Y-118836741D01*
X149818081Y-118861245D01*
X148885917Y-118861245D01*
X148885919Y-118836755D01*
X148881140Y-118812721D01*
X148871763Y-118790082D01*
X148867795Y-118784142D01*
X148846642Y-118744569D01*
X148840106Y-118723022D01*
X148830728Y-118700382D01*
X148817114Y-118680008D01*
X148799787Y-118662681D01*
X148779413Y-118649067D01*
X148756774Y-118639689D01*
X148732740Y-118634909D01*
X148708236Y-118634909D01*
X148684203Y-118639689D01*
X148661563Y-118649067D01*
X148641189Y-118662681D01*
X148623862Y-118680008D01*
X148610248Y-118700382D01*
X148600870Y-118723023D01*
X148587358Y-118767568D01*
X148566213Y-118807128D01*
X148562243Y-118813069D01*
X148552864Y-118835708D01*
X148548083Y-118859741D01*
X148548081Y-118884245D01*
X147615917Y-118884245D01*
X147615919Y-118859755D01*
X147611140Y-118835721D01*
X147601763Y-118813082D01*
X147597795Y-118807142D01*
X147576642Y-118767568D01*
X147563130Y-118723023D01*
X147553753Y-118700384D01*
X147540140Y-118680009D01*
X147522813Y-118662682D01*
X147502438Y-118649068D01*
X147479800Y-118639690D01*
X147455766Y-118634909D01*
X147431262Y-118634909D01*
X147407228Y-118639689D01*
X147384589Y-118649066D01*
X147364214Y-118662679D01*
X147346887Y-118680006D01*
X147333273Y-118700381D01*
X147323894Y-118723022D01*
X147317358Y-118744569D01*
X147296213Y-118784128D01*
X147292243Y-118790069D01*
X147282864Y-118812708D01*
X147278083Y-118836741D01*
X147278081Y-118861245D01*
X146345917Y-118861245D01*
X146345919Y-118836755D01*
X146341140Y-118812721D01*
X146331763Y-118790082D01*
X146327795Y-118784142D01*
X146306642Y-118744569D01*
X146300106Y-118723022D01*
X146290728Y-118700382D01*
X146277114Y-118680008D01*
X146259787Y-118662681D01*
X146239413Y-118649067D01*
X146216774Y-118639689D01*
X146192740Y-118634909D01*
X146168236Y-118634909D01*
X146144203Y-118639689D01*
X146121563Y-118649067D01*
X146101189Y-118662681D01*
X146083862Y-118680008D01*
X146070248Y-118700382D01*
X146060870Y-118723023D01*
X146047358Y-118767568D01*
X146026213Y-118807128D01*
X146022243Y-118813069D01*
X146012864Y-118835708D01*
X146008083Y-118859741D01*
X146008081Y-118884245D01*
X145075917Y-118884245D01*
X145075919Y-118859755D01*
X145071140Y-118835721D01*
X145061763Y-118813082D01*
X145057795Y-118807142D01*
X145036640Y-118767565D01*
X145030484Y-118747271D01*
X145021107Y-118724632D01*
X145007493Y-118704257D01*
X144990166Y-118686930D01*
X144969791Y-118673317D01*
X144947152Y-118663939D01*
X144923119Y-118659159D01*
X144898614Y-118659159D01*
X144874581Y-118663940D01*
X144851942Y-118673317D01*
X144831567Y-118686931D01*
X144814240Y-118704258D01*
X144800627Y-118724633D01*
X144791249Y-118747274D01*
X144777359Y-118793067D01*
X144756213Y-118832628D01*
X144752243Y-118838569D01*
X144742864Y-118861208D01*
X144738083Y-118885241D01*
X144738081Y-118909745D01*
X143805917Y-118909745D01*
X143805919Y-118885255D01*
X143801140Y-118861221D01*
X143791763Y-118838582D01*
X143787795Y-118832642D01*
X143766641Y-118793067D01*
X143752751Y-118747274D01*
X143743374Y-118724634D01*
X143729761Y-118704260D01*
X143712434Y-118686932D01*
X143692060Y-118673318D01*
X143669421Y-118663940D01*
X143645387Y-118659159D01*
X143620883Y-118659159D01*
X143596850Y-118663939D01*
X143574210Y-118673316D01*
X143553836Y-118686929D01*
X143536508Y-118704256D01*
X143522894Y-118724630D01*
X143513516Y-118747271D01*
X143507360Y-118767565D01*
X143486213Y-118807128D01*
X143482243Y-118813069D01*
X143472864Y-118835708D01*
X143468083Y-118859741D01*
X143468081Y-118884245D01*
X142535917Y-118884245D01*
X142535919Y-118859755D01*
X142531140Y-118835721D01*
X142521763Y-118813082D01*
X142517795Y-118807142D01*
X142496642Y-118767568D01*
X142486618Y-118734523D01*
X142477241Y-118711884D01*
X142463627Y-118691509D01*
X142446300Y-118674182D01*
X142425926Y-118660567D01*
X142403287Y-118651190D01*
X142379253Y-118646409D01*
X142354749Y-118646409D01*
X142330716Y-118651189D01*
X142308077Y-118660566D01*
X142287702Y-118674180D01*
X142270375Y-118691507D01*
X142256760Y-118711881D01*
X142247382Y-118734523D01*
X142237358Y-118767568D01*
X142216213Y-118807128D01*
X142212243Y-118813069D01*
X142202864Y-118835708D01*
X142198083Y-118859741D01*
X142198081Y-118884245D01*
X141265917Y-118884245D01*
X141265919Y-118859755D01*
X141261140Y-118835721D01*
X141251763Y-118813082D01*
X141247795Y-118807142D01*
X141226642Y-118767568D01*
X141216618Y-118734523D01*
X141207241Y-118711884D01*
X141193627Y-118691509D01*
X141176300Y-118674182D01*
X141155926Y-118660567D01*
X141133287Y-118651190D01*
X141109253Y-118646409D01*
X141084749Y-118646409D01*
X141060716Y-118651189D01*
X141038077Y-118660566D01*
X141017702Y-118674180D01*
X141000375Y-118691507D01*
X140986760Y-118711881D01*
X140977382Y-118734523D01*
X140967358Y-118767568D01*
X140946213Y-118807128D01*
X140942243Y-118813069D01*
X140932864Y-118835708D01*
X140928083Y-118859741D01*
X140928081Y-118884245D01*
X139995917Y-118884245D01*
X139995919Y-118859755D01*
X139991140Y-118835721D01*
X139981763Y-118813082D01*
X139977795Y-118807142D01*
X139956642Y-118767568D01*
X139946148Y-118732974D01*
X139942000Y-118690859D01*
X139942000Y-118083141D01*
X139946148Y-118041026D01*
X139956642Y-118006432D01*
X139973678Y-117974559D01*
X139996613Y-117946613D01*
X140024559Y-117923678D01*
X140056432Y-117906642D01*
X140091026Y-117896148D01*
X140133141Y-117892000D01*
X140790859Y-117892000D01*
X140832974Y-117896148D01*
X140867568Y-117906642D01*
X140899441Y-117923678D01*
X140927387Y-117946613D01*
X140950322Y-117974559D01*
X140967358Y-118006432D01*
X140977382Y-118039477D01*
X140986759Y-118062116D01*
X141000373Y-118082491D01*
X141017700Y-118099818D01*
X141038074Y-118113433D01*
X141060713Y-118122810D01*
X141084747Y-118127591D01*
X141109251Y-118127591D01*
X141133284Y-118122811D01*
X141155923Y-118113434D01*
X141176298Y-118099820D01*
X141193625Y-118082493D01*
X141207240Y-118062119D01*
X141216618Y-118039477D01*
X141226642Y-118006432D01*
X141243678Y-117974559D01*
X141266613Y-117946613D01*
X141294559Y-117923678D01*
X141326432Y-117906642D01*
X141361026Y-117896148D01*
X141403141Y-117892000D01*
X142060859Y-117892000D01*
X142102974Y-117896148D01*
X142137568Y-117906642D01*
X142169441Y-117923678D01*
X142197387Y-117946613D01*
X142220322Y-117974559D01*
X142237358Y-118006432D01*
X142247382Y-118039477D01*
X142256759Y-118062116D01*
X142270373Y-118082491D01*
X142287700Y-118099818D01*
X142308074Y-118113433D01*
X142330713Y-118122810D01*
X142354747Y-118127591D01*
X142379251Y-118127591D01*
X142403284Y-118122811D01*
X142425923Y-118113434D01*
X142446298Y-118099820D01*
X142463625Y-118082493D01*
X142477240Y-118062119D01*
X142486618Y-118039477D01*
X142496642Y-118006432D01*
X142513678Y-117974559D01*
X142536613Y-117946613D01*
X142564559Y-117923678D01*
X142596432Y-117906642D01*
X142631026Y-117896148D01*
X142673141Y-117892000D01*
X143330859Y-117892000D01*
X143372974Y-117896148D01*
X143407568Y-117906642D01*
X143439441Y-117923678D01*
X143467387Y-117946613D01*
X143490322Y-117974559D01*
X143507359Y-118006433D01*
X143521249Y-118052226D01*
X143530626Y-118074866D01*
X143544239Y-118095240D01*
X143561566Y-118112568D01*
X143581940Y-118126182D01*
X143604579Y-118135560D01*
X143628613Y-118140341D01*
X143653117Y-118140341D01*
X143677150Y-118135561D01*
X143699790Y-118126184D01*
X143720164Y-118112571D01*
X143737492Y-118095244D01*
X143751106Y-118074870D01*
X143760484Y-118052229D01*
X143766640Y-118031935D01*
X143783678Y-118000059D01*
X143806613Y-117972113D01*
X143834559Y-117949178D01*
X143866432Y-117932142D01*
X143901026Y-117921648D01*
X143943141Y-117917500D01*
X144600859Y-117917500D01*
X144642974Y-117921648D01*
X144677568Y-117932142D01*
X144709441Y-117949178D01*
X144737387Y-117972113D01*
X144760322Y-118000059D01*
X144777360Y-118031935D01*
X144783516Y-118052229D01*
X144792893Y-118074868D01*
X144806507Y-118095243D01*
X144823834Y-118112570D01*
X144844209Y-118126183D01*
X144866848Y-118135561D01*
X144890881Y-118140341D01*
X144915386Y-118140341D01*
X144939419Y-118135560D01*
X144962058Y-118126183D01*
X144982433Y-118112569D01*
X144999760Y-118095242D01*
X145013373Y-118074867D01*
X145022751Y-118052226D01*
X145036641Y-118006433D01*
X145053678Y-117974559D01*
X145076613Y-117946613D01*
X145104559Y-117923678D01*
X145136432Y-117906642D01*
X145171026Y-117896148D01*
X145213141Y-117892000D01*
X145870859Y-117892000D01*
X145912974Y-117896148D01*
X145947568Y-117906642D01*
X145979441Y-117923678D01*
X146007387Y-117946613D01*
X146030322Y-117974559D01*
X146047358Y-118006431D01*
X146053894Y-118027978D01*
X146063272Y-118050618D01*
X146076886Y-118070992D01*
X146094213Y-118088319D01*
X146114587Y-118101933D01*
X146137226Y-118111311D01*
X146161260Y-118116091D01*
X146185764Y-118116091D01*
X146209797Y-118111311D01*
X146232437Y-118101933D01*
X146252811Y-118088319D01*
X146270138Y-118070992D01*
X146283752Y-118050618D01*
X146293130Y-118027977D01*
X146306642Y-117983432D01*
X146323678Y-117951559D01*
X146346613Y-117923613D01*
X146374559Y-117900678D01*
X146406432Y-117883642D01*
X146441026Y-117873148D01*
X146483141Y-117869000D01*
X147140859Y-117869000D01*
X147182974Y-117873148D01*
X147182974Y-117873148D01*
G37*
G36*
X136918622Y-118568017D02*
X136966585Y-118582566D01*
X137010775Y-118606186D01*
X137049518Y-118637982D01*
X137081314Y-118676725D01*
X137104934Y-118720915D01*
X137119483Y-118768878D01*
X137125000Y-118824891D01*
X137125000Y-119575109D01*
X137119483Y-119631122D01*
X137104934Y-119679085D01*
X137081314Y-119723275D01*
X137049518Y-119762018D01*
X137010775Y-119793814D01*
X136966585Y-119817434D01*
X136918622Y-119831983D01*
X136862609Y-119837500D01*
X136037391Y-119837500D01*
X135981378Y-119831983D01*
X135933415Y-119817434D01*
X135889225Y-119793814D01*
X135850482Y-119762018D01*
X135818686Y-119723275D01*
X135795066Y-119679085D01*
X135780517Y-119631122D01*
X135775000Y-119575109D01*
X135775000Y-118824891D01*
X135780517Y-118768878D01*
X135795066Y-118720915D01*
X135818686Y-118676725D01*
X135850482Y-118637982D01*
X135889225Y-118606186D01*
X135933415Y-118582566D01*
X135981378Y-118568017D01*
X136037391Y-118562500D01*
X136862609Y-118562500D01*
X136918622Y-118568017D01*
X136918622Y-118568017D01*
G37*
G36*
X158456622Y-117224017D02*
X158504585Y-117238566D01*
X158548775Y-117262186D01*
X158587518Y-117293982D01*
X158619314Y-117332725D01*
X158642934Y-117376915D01*
X158657483Y-117424878D01*
X158663000Y-117480891D01*
X158663000Y-118231109D01*
X158657483Y-118287122D01*
X158642934Y-118335085D01*
X158619314Y-118379275D01*
X158587518Y-118418018D01*
X158548775Y-118449814D01*
X158504585Y-118473434D01*
X158456622Y-118487983D01*
X158400609Y-118493500D01*
X157575391Y-118493500D01*
X157519378Y-118487983D01*
X157471415Y-118473434D01*
X157427225Y-118449814D01*
X157388482Y-118418018D01*
X157356686Y-118379275D01*
X157333066Y-118335085D01*
X157318517Y-118287122D01*
X157313000Y-118231109D01*
X157313000Y-117480891D01*
X157318517Y-117424878D01*
X157333066Y-117376915D01*
X157356686Y-117332725D01*
X157388482Y-117293982D01*
X157427225Y-117262186D01*
X157471415Y-117238566D01*
X157519378Y-117224017D01*
X157575391Y-117218500D01*
X158400609Y-117218500D01*
X158456622Y-117224017D01*
X158456622Y-117224017D01*
G37*
G36*
X153884622Y-117224017D02*
X153932585Y-117238566D01*
X153976775Y-117262186D01*
X154015518Y-117293982D01*
X154047314Y-117332725D01*
X154070934Y-117376915D01*
X154085483Y-117424878D01*
X154091000Y-117480891D01*
X154091000Y-118231109D01*
X154085483Y-118287122D01*
X154070934Y-118335085D01*
X154047314Y-118379275D01*
X154015518Y-118418018D01*
X153976775Y-118449814D01*
X153932585Y-118473434D01*
X153884622Y-118487983D01*
X153828609Y-118493500D01*
X153003391Y-118493500D01*
X152947378Y-118487983D01*
X152899415Y-118473434D01*
X152855225Y-118449814D01*
X152816482Y-118418018D01*
X152784686Y-118379275D01*
X152761066Y-118335085D01*
X152746517Y-118287122D01*
X152741000Y-118231109D01*
X152741000Y-117480891D01*
X152746517Y-117424878D01*
X152761066Y-117376915D01*
X152784686Y-117332725D01*
X152816482Y-117293982D01*
X152855225Y-117262186D01*
X152899415Y-117238566D01*
X152947378Y-117224017D01*
X153003391Y-117218500D01*
X153828609Y-117218500D01*
X153884622Y-117224017D01*
X153884622Y-117224017D01*
G37*
G36*
X155477000Y-118422000D02*
X154627000Y-118422000D01*
X154627000Y-117322000D01*
X155477000Y-117322000D01*
X155477000Y-118422000D01*
X155477000Y-118422000D01*
G37*
G36*
X156777000Y-118422000D02*
X155927000Y-118422000D01*
X155927000Y-117322000D01*
X156777000Y-117322000D01*
X156777000Y-118422000D01*
X156777000Y-118422000D01*
G37*
G36*
X138000000Y-118100000D02*
X136700000Y-118100000D01*
X136700000Y-116500000D01*
X138000000Y-116500000D01*
X138000000Y-118100000D01*
X138000000Y-118100000D01*
G37*
G36*
X134700000Y-118100000D02*
X133400000Y-118100000D01*
X133400000Y-116500000D01*
X134700000Y-116500000D01*
X134700000Y-118100000D01*
X134700000Y-118100000D01*
G37*
G36*
X142836000Y-113691000D02*
X142838402Y-113715386D01*
X142845515Y-113738835D01*
X142857066Y-113760446D01*
X142872612Y-113779388D01*
X142891554Y-113794934D01*
X142913165Y-113806485D01*
X142936614Y-113813598D01*
X142961000Y-113816000D01*
X154711000Y-113816000D01*
X154735386Y-113813598D01*
X154758835Y-113806485D01*
X154780446Y-113794934D01*
X154799388Y-113779388D01*
X154814934Y-113760446D01*
X154826485Y-113738835D01*
X154833598Y-113715386D01*
X154836000Y-113691000D01*
X154836000Y-111791000D01*
X157536000Y-111791000D01*
X157536000Y-114841000D01*
X155061000Y-114841000D01*
X155036614Y-114843402D01*
X155013165Y-114850515D01*
X154991554Y-114862066D01*
X154972612Y-114877612D01*
X154957066Y-114896554D01*
X154945515Y-114918165D01*
X154938402Y-114941614D01*
X154936000Y-114966000D01*
X154936000Y-115616000D01*
X142736000Y-115616000D01*
X142736000Y-114966000D01*
X142733598Y-114941614D01*
X142726485Y-114918165D01*
X142714934Y-114896554D01*
X142699388Y-114877612D01*
X142680446Y-114862066D01*
X142658835Y-114850515D01*
X142635386Y-114843402D01*
X142611000Y-114841000D01*
X140136000Y-114841000D01*
X140136000Y-111791000D01*
X142836000Y-111791000D01*
X142836000Y-113691000D01*
X142836000Y-113691000D01*
G37*
G36*
X138950000Y-115450000D02*
X136850000Y-115450000D01*
X136850000Y-113350000D01*
X138950000Y-113350000D01*
X138950000Y-115450000D01*
X138950000Y-115450000D01*
G37*
G36*
X162522947Y-111755722D02*
X162786833Y-111865027D01*
X163024324Y-112023713D01*
X163226287Y-112225676D01*
X163384973Y-112463167D01*
X163494278Y-112727053D01*
X163550000Y-113007186D01*
X163550000Y-113292814D01*
X163494278Y-113572947D01*
X163384973Y-113836833D01*
X163226287Y-114074324D01*
X163024324Y-114276287D01*
X162786833Y-114434973D01*
X162522947Y-114544278D01*
X162242814Y-114600000D01*
X161957186Y-114600000D01*
X161677053Y-114544278D01*
X161413167Y-114434973D01*
X161175676Y-114276287D01*
X160973713Y-114074324D01*
X160815027Y-113836833D01*
X160705722Y-113572947D01*
X160650000Y-113292814D01*
X160650000Y-113007186D01*
X160705722Y-112727053D01*
X160815027Y-112463167D01*
X160973713Y-112225676D01*
X161175676Y-112023713D01*
X161413167Y-111865027D01*
X161677053Y-111755722D01*
X161957186Y-111700000D01*
X162242814Y-111700000D01*
X162522947Y-111755722D01*
X162522947Y-111755722D01*
G37*
G36*
X138028707Y-110817597D02*
X138105836Y-110825193D01*
X138237787Y-110865220D01*
X138303763Y-110885233D01*
X138486172Y-110982733D01*
X138646054Y-111113946D01*
X138777267Y-111273828D01*
X138874767Y-111456237D01*
X138874767Y-111456238D01*
X138934807Y-111654164D01*
X138955080Y-111860000D01*
X138934807Y-112065836D01*
X138894780Y-112197787D01*
X138874767Y-112263763D01*
X138777267Y-112446172D01*
X138646054Y-112606054D01*
X138486172Y-112737267D01*
X138303763Y-112834767D01*
X138237787Y-112854780D01*
X138105836Y-112894807D01*
X138028707Y-112902403D01*
X137951580Y-112910000D01*
X137848420Y-112910000D01*
X137771293Y-112902403D01*
X137694164Y-112894807D01*
X137562213Y-112854780D01*
X137496237Y-112834767D01*
X137313828Y-112737267D01*
X137153946Y-112606054D01*
X137022733Y-112446172D01*
X136925233Y-112263763D01*
X136905220Y-112197787D01*
X136865193Y-112065836D01*
X136844920Y-111860000D01*
X136865193Y-111654164D01*
X136925233Y-111456238D01*
X136925233Y-111456237D01*
X137022733Y-111273828D01*
X137153946Y-111113946D01*
X137313828Y-110982733D01*
X137496237Y-110885233D01*
X137562213Y-110865220D01*
X137694164Y-110825193D01*
X137771293Y-110817597D01*
X137848420Y-110810000D01*
X137951580Y-110810000D01*
X138028707Y-110817597D01*
X138028707Y-110817597D01*
G37*
G36*
X141225500Y-110686600D02*
X139574500Y-110686600D01*
X139574500Y-109213400D01*
X141225500Y-109213400D01*
X141225500Y-110686600D01*
X141225500Y-110686600D01*
G37*
G36*
X138028707Y-108277597D02*
X138105836Y-108285193D01*
X138223167Y-108320785D01*
X138303763Y-108345233D01*
X138486172Y-108442733D01*
X138646054Y-108573946D01*
X138777267Y-108733828D01*
X138874767Y-108916237D01*
X138874767Y-108916238D01*
X138934807Y-109114164D01*
X138955080Y-109320000D01*
X138934807Y-109525836D01*
X138894780Y-109657787D01*
X138874767Y-109723763D01*
X138777267Y-109906172D01*
X138646054Y-110066054D01*
X138486172Y-110197267D01*
X138303763Y-110294767D01*
X138237787Y-110314780D01*
X138105836Y-110354807D01*
X138028707Y-110362403D01*
X137951580Y-110370000D01*
X137848420Y-110370000D01*
X137771293Y-110362403D01*
X137694164Y-110354807D01*
X137562213Y-110314780D01*
X137496237Y-110294767D01*
X137313828Y-110197267D01*
X137153946Y-110066054D01*
X137022733Y-109906172D01*
X136925233Y-109723763D01*
X136905220Y-109657787D01*
X136865193Y-109525836D01*
X136844920Y-109320000D01*
X136865193Y-109114164D01*
X136925233Y-108916238D01*
X136925233Y-108916237D01*
X137022733Y-108733828D01*
X137153946Y-108573946D01*
X137313828Y-108442733D01*
X137496237Y-108345233D01*
X137576833Y-108320785D01*
X137694164Y-108285193D01*
X137771293Y-108277597D01*
X137848420Y-108270000D01*
X137951580Y-108270000D01*
X138028707Y-108277597D01*
X138028707Y-108277597D01*
G37*
G36*
X153400000Y-108950000D02*
X152100000Y-108950000D01*
X152100000Y-107350000D01*
X153400000Y-107350000D01*
X153400000Y-108950000D01*
X153400000Y-108950000D01*
G37*
G36*
X156700000Y-108950000D02*
X155400000Y-108950000D01*
X155400000Y-107350000D01*
X156700000Y-107350000D01*
X156700000Y-108950000D01*
X156700000Y-108950000D01*
G37*
G36*
X147775974Y-107484148D02*
X147810568Y-107494642D01*
X147850128Y-107515787D01*
X147856069Y-107519757D01*
X147878708Y-107529136D01*
X147902741Y-107533917D01*
X147927245Y-107533919D01*
X147951279Y-107529140D01*
X147973918Y-107519763D01*
X147979858Y-107515795D01*
X148019432Y-107494642D01*
X148054026Y-107484148D01*
X148096141Y-107480000D01*
X148703859Y-107480000D01*
X148745974Y-107484148D01*
X148780568Y-107494642D01*
X148812441Y-107511678D01*
X148840387Y-107534613D01*
X148863322Y-107562559D01*
X148880358Y-107594432D01*
X148890852Y-107629026D01*
X148895000Y-107671141D01*
X148895000Y-108328859D01*
X148890852Y-108370974D01*
X148880358Y-108405568D01*
X148863322Y-108437441D01*
X148840387Y-108465387D01*
X148812441Y-108488322D01*
X148780568Y-108505358D01*
X148745974Y-108515852D01*
X148703859Y-108520000D01*
X148096141Y-108520000D01*
X148054026Y-108515852D01*
X148019432Y-108505358D01*
X147979872Y-108484213D01*
X147973931Y-108480243D01*
X147951292Y-108470864D01*
X147927259Y-108466083D01*
X147902755Y-108466081D01*
X147878721Y-108470860D01*
X147856082Y-108480237D01*
X147850142Y-108484205D01*
X147810568Y-108505358D01*
X147775974Y-108515852D01*
X147733859Y-108520000D01*
X147126141Y-108520000D01*
X147084026Y-108515852D01*
X147049432Y-108505358D01*
X147017559Y-108488322D01*
X146989613Y-108465387D01*
X146966678Y-108437441D01*
X146949642Y-108405568D01*
X146939148Y-108370974D01*
X146935000Y-108328859D01*
X146935000Y-107671141D01*
X146939148Y-107629026D01*
X146949642Y-107594432D01*
X146966678Y-107562559D01*
X146989613Y-107534613D01*
X147017559Y-107511678D01*
X147049432Y-107494642D01*
X147084026Y-107484148D01*
X147126141Y-107480000D01*
X147733859Y-107480000D01*
X147775974Y-107484148D01*
X147775974Y-107484148D01*
G37*
G36*
X146894000Y-104231000D02*
X146896402Y-104255386D01*
X146903515Y-104278835D01*
X146915066Y-104300446D01*
X146930612Y-104319388D01*
X146949554Y-104334934D01*
X146971165Y-104346485D01*
X146994614Y-104353598D01*
X147019000Y-104356000D01*
X147669000Y-104356000D01*
X147693386Y-104353598D01*
X147716835Y-104346485D01*
X147738446Y-104334934D01*
X147757388Y-104319388D01*
X147772934Y-104300446D01*
X147784485Y-104278835D01*
X147791598Y-104255386D01*
X147794000Y-104231000D01*
X147794000Y-104056000D01*
X148894000Y-104056000D01*
X148894000Y-106256000D01*
X147794000Y-106256000D01*
X147794000Y-106081000D01*
X147791598Y-106056614D01*
X147784485Y-106033165D01*
X147772934Y-106011554D01*
X147757388Y-105992612D01*
X147738446Y-105977066D01*
X147716835Y-105965515D01*
X147693386Y-105958402D01*
X147669000Y-105956000D01*
X147019000Y-105956000D01*
X146994614Y-105958402D01*
X146971165Y-105965515D01*
X146949554Y-105977066D01*
X146930612Y-105992612D01*
X146915066Y-106011554D01*
X146903515Y-106033165D01*
X146896402Y-106056614D01*
X146894000Y-106081000D01*
X146894000Y-106256000D01*
X145794000Y-106256000D01*
X145794000Y-104056000D01*
X146894000Y-104056000D01*
X146894000Y-104231000D01*
X146894000Y-104231000D01*
G37*
G36*
X145158974Y-104203148D02*
X145193568Y-104213642D01*
X145225441Y-104230678D01*
X145253387Y-104253613D01*
X145276322Y-104281559D01*
X145293358Y-104313432D01*
X145303852Y-104348026D01*
X145308000Y-104390141D01*
X145308000Y-104997859D01*
X145303852Y-105039974D01*
X145293358Y-105074568D01*
X145272213Y-105114128D01*
X145268243Y-105120069D01*
X145258864Y-105142708D01*
X145254083Y-105166741D01*
X145254081Y-105191245D01*
X145258860Y-105215279D01*
X145268237Y-105237918D01*
X145272205Y-105243858D01*
X145293358Y-105283432D01*
X145303852Y-105318026D01*
X145308000Y-105360141D01*
X145308000Y-105967859D01*
X145303852Y-106009974D01*
X145293358Y-106044568D01*
X145276322Y-106076441D01*
X145253387Y-106104387D01*
X145225441Y-106127322D01*
X145193568Y-106144358D01*
X145158974Y-106154852D01*
X145116859Y-106159000D01*
X144459141Y-106159000D01*
X144417026Y-106154852D01*
X144382432Y-106144358D01*
X144350559Y-106127322D01*
X144322613Y-106104387D01*
X144299678Y-106076441D01*
X144282642Y-106044568D01*
X144272148Y-106009974D01*
X144268000Y-105967859D01*
X144268000Y-105360141D01*
X144272148Y-105318026D01*
X144282642Y-105283432D01*
X144303787Y-105243872D01*
X144307757Y-105237931D01*
X144317136Y-105215292D01*
X144321917Y-105191259D01*
X144321919Y-105166755D01*
X144317140Y-105142721D01*
X144307763Y-105120082D01*
X144303795Y-105114142D01*
X144282642Y-105074568D01*
X144272148Y-105039974D01*
X144268000Y-104997859D01*
X144268000Y-104390141D01*
X144272148Y-104348026D01*
X144282642Y-104313432D01*
X144299678Y-104281559D01*
X144322613Y-104253613D01*
X144350559Y-104230678D01*
X144382432Y-104213642D01*
X144417026Y-104203148D01*
X144459141Y-104199000D01*
X145116859Y-104199000D01*
X145158974Y-104203148D01*
X145158974Y-104203148D01*
G37*
G36*
X143694000Y-105822000D02*
X141294000Y-105822000D01*
X141294000Y-99422000D01*
X143694000Y-99422000D01*
X143694000Y-105822000D01*
X143694000Y-105822000D01*
G37*
G36*
X134094000Y-105822000D02*
X131694000Y-105822000D01*
X131694000Y-92422000D01*
X134094000Y-92422000D01*
X134094000Y-105822000D01*
X134094000Y-105822000D01*
G37*
G36*
X153950000Y-103860000D02*
X151150000Y-103860000D01*
X151150000Y-97640000D01*
X153950000Y-97640000D01*
X153950000Y-103860000D01*
X153950000Y-103860000D01*
G37*
G36*
X157850000Y-103860000D02*
X155050000Y-103860000D01*
X155050000Y-97640000D01*
X157850000Y-97640000D01*
X157850000Y-103860000D01*
X157850000Y-103860000D01*
G37*
G36*
X147211974Y-102354148D02*
X147246568Y-102364642D01*
X147286128Y-102385787D01*
X147292069Y-102389757D01*
X147314708Y-102399136D01*
X147338741Y-102403917D01*
X147363245Y-102403919D01*
X147387279Y-102399140D01*
X147409918Y-102389763D01*
X147415858Y-102385795D01*
X147455432Y-102364642D01*
X147490026Y-102354148D01*
X147532141Y-102350000D01*
X148139859Y-102350000D01*
X148181974Y-102354148D01*
X148216568Y-102364642D01*
X148248441Y-102381678D01*
X148276387Y-102404613D01*
X148299322Y-102432559D01*
X148316358Y-102464432D01*
X148326852Y-102499026D01*
X148331000Y-102541141D01*
X148331000Y-103198859D01*
X148326852Y-103240974D01*
X148316358Y-103275568D01*
X148299322Y-103307441D01*
X148276387Y-103335387D01*
X148248441Y-103358322D01*
X148216568Y-103375358D01*
X148181974Y-103385852D01*
X148139859Y-103390000D01*
X147532141Y-103390000D01*
X147490026Y-103385852D01*
X147455432Y-103375358D01*
X147415872Y-103354213D01*
X147409931Y-103350243D01*
X147387292Y-103340864D01*
X147363259Y-103336083D01*
X147338755Y-103336081D01*
X147314721Y-103340860D01*
X147292082Y-103350237D01*
X147286142Y-103354205D01*
X147246568Y-103375358D01*
X147211974Y-103385852D01*
X147169859Y-103390000D01*
X146562141Y-103390000D01*
X146520026Y-103385852D01*
X146485432Y-103375358D01*
X146453559Y-103358322D01*
X146425613Y-103335387D01*
X146402678Y-103307441D01*
X146385642Y-103275568D01*
X146375148Y-103240974D01*
X146371000Y-103198859D01*
X146371000Y-102541141D01*
X146375148Y-102499026D01*
X146385642Y-102464432D01*
X146402678Y-102432559D01*
X146425613Y-102404613D01*
X146453559Y-102381678D01*
X146485432Y-102364642D01*
X146520026Y-102354148D01*
X146562141Y-102350000D01*
X147169859Y-102350000D01*
X147211974Y-102354148D01*
X147211974Y-102354148D01*
G37*
G36*
X145158974Y-101132148D02*
X145193568Y-101142642D01*
X145225441Y-101159678D01*
X145253387Y-101182613D01*
X145276322Y-101210559D01*
X145293358Y-101242432D01*
X145303852Y-101277026D01*
X145308000Y-101319141D01*
X145308000Y-101926859D01*
X145303852Y-101968974D01*
X145293358Y-102003568D01*
X145272213Y-102043128D01*
X145268243Y-102049069D01*
X145258864Y-102071708D01*
X145254083Y-102095741D01*
X145254081Y-102120245D01*
X145258860Y-102144279D01*
X145268237Y-102166918D01*
X145272205Y-102172858D01*
X145293358Y-102212432D01*
X145303852Y-102247026D01*
X145308000Y-102289141D01*
X145308000Y-102896859D01*
X145303852Y-102938974D01*
X145293358Y-102973568D01*
X145276322Y-103005441D01*
X145253387Y-103033387D01*
X145225441Y-103056322D01*
X145193568Y-103073358D01*
X145158974Y-103083852D01*
X145116859Y-103088000D01*
X144459141Y-103088000D01*
X144417026Y-103083852D01*
X144382432Y-103073358D01*
X144350559Y-103056322D01*
X144322613Y-103033387D01*
X144299678Y-103005441D01*
X144282642Y-102973568D01*
X144272148Y-102938974D01*
X144268000Y-102896859D01*
X144268000Y-102289141D01*
X144272148Y-102247026D01*
X144282642Y-102212432D01*
X144303787Y-102172872D01*
X144307757Y-102166931D01*
X144317136Y-102144292D01*
X144321917Y-102120259D01*
X144321919Y-102095755D01*
X144317140Y-102071721D01*
X144307763Y-102049082D01*
X144303795Y-102043142D01*
X144282642Y-102003568D01*
X144272148Y-101968974D01*
X144268000Y-101926859D01*
X144268000Y-101319141D01*
X144272148Y-101277026D01*
X144282642Y-101242432D01*
X144299678Y-101210559D01*
X144322613Y-101182613D01*
X144350559Y-101159678D01*
X144382432Y-101142642D01*
X144417026Y-101132148D01*
X144459141Y-101128000D01*
X145116859Y-101128000D01*
X145158974Y-101132148D01*
X145158974Y-101132148D01*
G37*
G36*
X162644000Y-101792000D02*
X160444000Y-101792000D01*
X160444000Y-100392000D01*
X162644000Y-100392000D01*
X162644000Y-101792000D01*
X162644000Y-101792000D01*
G37*
G36*
X148678000Y-101550999D02*
X145978000Y-101550999D01*
X145978000Y-100650999D01*
X148678000Y-100650999D01*
X148678000Y-101550999D01*
X148678000Y-101550999D01*
G37*
G36*
X145158974Y-98869148D02*
X145193568Y-98879642D01*
X145225441Y-98896678D01*
X145253387Y-98919613D01*
X145276322Y-98947559D01*
X145293358Y-98979432D01*
X145303852Y-99014026D01*
X145308000Y-99056141D01*
X145308000Y-99663859D01*
X145303852Y-99705974D01*
X145293358Y-99740568D01*
X145272213Y-99780128D01*
X145268243Y-99786069D01*
X145258864Y-99808708D01*
X145254083Y-99832741D01*
X145254081Y-99857245D01*
X145258860Y-99881279D01*
X145268237Y-99903918D01*
X145272205Y-99909858D01*
X145293358Y-99949432D01*
X145303852Y-99984026D01*
X145308000Y-100026141D01*
X145308000Y-100633859D01*
X145303852Y-100675974D01*
X145293358Y-100710568D01*
X145276322Y-100742441D01*
X145253387Y-100770387D01*
X145225441Y-100793322D01*
X145193568Y-100810358D01*
X145158974Y-100820852D01*
X145116859Y-100825000D01*
X144459141Y-100825000D01*
X144417026Y-100820852D01*
X144382432Y-100810358D01*
X144350559Y-100793322D01*
X144322613Y-100770387D01*
X144299678Y-100742441D01*
X144282642Y-100710568D01*
X144272148Y-100675974D01*
X144268000Y-100633859D01*
X144268000Y-100026141D01*
X144272148Y-99984026D01*
X144282642Y-99949432D01*
X144303787Y-99909872D01*
X144307757Y-99903931D01*
X144317136Y-99881292D01*
X144321917Y-99857259D01*
X144321919Y-99832755D01*
X144317140Y-99808721D01*
X144307763Y-99786082D01*
X144303795Y-99780142D01*
X144282642Y-99740568D01*
X144272148Y-99705974D01*
X144268000Y-99663859D01*
X144268000Y-99056141D01*
X144272148Y-99014026D01*
X144282642Y-98979432D01*
X144299678Y-98947559D01*
X144322613Y-98919613D01*
X144350559Y-98896678D01*
X144382432Y-98879642D01*
X144417026Y-98869148D01*
X144459141Y-98865000D01*
X145116859Y-98865000D01*
X145158974Y-98869148D01*
X145158974Y-98869148D01*
G37*
G36*
X161851474Y-93281148D02*
X161886068Y-93291642D01*
X161917941Y-93308678D01*
X161945887Y-93331613D01*
X161968822Y-93359559D01*
X161985858Y-93391432D01*
X161996352Y-93426026D01*
X162000500Y-93468141D01*
X162000500Y-94075859D01*
X161996352Y-94117974D01*
X161985858Y-94152568D01*
X161964713Y-94192128D01*
X161960743Y-94198069D01*
X161951364Y-94220708D01*
X161946583Y-94244741D01*
X161946581Y-94269245D01*
X161951360Y-94293279D01*
X161960737Y-94315918D01*
X161964705Y-94321858D01*
X161985858Y-94361432D01*
X161996352Y-94396026D01*
X162000500Y-94438141D01*
X162000500Y-95045859D01*
X161996352Y-95087974D01*
X161985858Y-95122568D01*
X161968820Y-95154445D01*
X161959587Y-95165695D01*
X161945973Y-95186070D01*
X161936595Y-95208709D01*
X161931815Y-95232742D01*
X161931815Y-95257246D01*
X161936595Y-95281280D01*
X161945973Y-95303919D01*
X161954243Y-95316295D01*
X161973558Y-95352432D01*
X161984052Y-95387026D01*
X161988200Y-95429141D01*
X161988200Y-96086859D01*
X161984052Y-96128974D01*
X161979995Y-96142348D01*
X161975215Y-96166382D01*
X161975215Y-96190886D01*
X161979996Y-96214919D01*
X161989374Y-96237558D01*
X162002986Y-96257930D01*
X162004320Y-96259555D01*
X162021358Y-96291432D01*
X162031852Y-96326026D01*
X162036000Y-96368141D01*
X162036000Y-96975859D01*
X162031852Y-97017974D01*
X162021358Y-97052568D01*
X162000213Y-97092128D01*
X161996243Y-97098069D01*
X161986864Y-97120708D01*
X161982083Y-97144741D01*
X161982081Y-97169245D01*
X161986860Y-97193279D01*
X161996237Y-97215918D01*
X162000205Y-97221858D01*
X162021358Y-97261432D01*
X162031852Y-97296026D01*
X162036000Y-97338141D01*
X162036000Y-97945859D01*
X162031852Y-97987976D01*
X162018887Y-98030717D01*
X162014107Y-98054750D01*
X162014107Y-98079254D01*
X162018888Y-98103288D01*
X162028266Y-98125927D01*
X162041880Y-98146301D01*
X162059208Y-98163628D01*
X162079582Y-98177241D01*
X162102222Y-98186618D01*
X162138505Y-98192000D01*
X162644000Y-98192000D01*
X162644000Y-99592000D01*
X160444000Y-99592000D01*
X160444000Y-98192000D01*
X160893495Y-98192000D01*
X160917881Y-98189598D01*
X160941330Y-98182485D01*
X160962941Y-98170934D01*
X160981883Y-98155388D01*
X160997429Y-98136446D01*
X161008980Y-98114835D01*
X161016093Y-98091386D01*
X161018495Y-98067000D01*
X161013113Y-98030717D01*
X161000148Y-97987976D01*
X160996000Y-97945859D01*
X160996000Y-97338141D01*
X161000148Y-97296026D01*
X161010642Y-97261432D01*
X161031787Y-97221872D01*
X161035757Y-97215931D01*
X161045136Y-97193292D01*
X161049917Y-97169259D01*
X161049919Y-97144755D01*
X161045140Y-97120721D01*
X161035763Y-97098082D01*
X161031795Y-97092142D01*
X161010642Y-97052568D01*
X161000148Y-97017974D01*
X160996000Y-96975859D01*
X160996000Y-96399277D01*
X160993598Y-96374891D01*
X160986485Y-96351442D01*
X160974934Y-96329831D01*
X160959388Y-96310889D01*
X160940446Y-96295343D01*
X160918835Y-96283792D01*
X160895386Y-96276679D01*
X160871000Y-96274277D01*
X160858748Y-96274879D01*
X160827060Y-96278000D01*
X160219341Y-96278000D01*
X160177226Y-96273852D01*
X160142632Y-96263358D01*
X160110759Y-96246322D01*
X160082813Y-96223387D01*
X160059878Y-96195441D01*
X160042842Y-96163568D01*
X160032348Y-96128974D01*
X160028200Y-96086859D01*
X160028200Y-95429141D01*
X160032348Y-95387026D01*
X160042842Y-95352432D01*
X160059878Y-95320559D01*
X160082813Y-95292613D01*
X160110759Y-95269678D01*
X160142632Y-95252642D01*
X160177226Y-95242148D01*
X160219341Y-95238000D01*
X160827059Y-95238000D01*
X160829629Y-95238253D01*
X160854133Y-95238252D01*
X160878166Y-95233470D01*
X160900805Y-95224091D01*
X160921179Y-95210477D01*
X160938505Y-95193149D01*
X160952118Y-95172773D01*
X160961494Y-95150134D01*
X160966274Y-95126100D01*
X160966273Y-95101596D01*
X160965713Y-95098785D01*
X160960500Y-95045859D01*
X160960500Y-94438141D01*
X160964648Y-94396026D01*
X160975142Y-94361432D01*
X160996287Y-94321872D01*
X161000257Y-94315931D01*
X161009636Y-94293292D01*
X161014417Y-94269259D01*
X161014419Y-94244755D01*
X161009640Y-94220721D01*
X161000263Y-94198082D01*
X160996295Y-94192142D01*
X160975142Y-94152568D01*
X160964648Y-94117974D01*
X160960500Y-94075859D01*
X160960500Y-93468141D01*
X160964648Y-93426026D01*
X160975142Y-93391432D01*
X160992178Y-93359559D01*
X161015113Y-93331613D01*
X161043059Y-93308678D01*
X161074932Y-93291642D01*
X161109526Y-93281148D01*
X161151641Y-93277000D01*
X161809359Y-93277000D01*
X161851474Y-93281148D01*
X161851474Y-93281148D01*
G37*
G36*
X148678000Y-99501000D02*
X145978000Y-99501000D01*
X145978000Y-98601000D01*
X148678000Y-98601000D01*
X148678000Y-99501000D01*
X148678000Y-99501000D01*
G37*
G36*
X143694000Y-98522000D02*
X141294000Y-98522000D01*
X141294000Y-92422000D01*
X143694000Y-92422000D01*
X143694000Y-98522000D01*
X143694000Y-98522000D01*
G37*
G36*
X145370974Y-96024148D02*
X145405568Y-96034642D01*
X145437441Y-96051678D01*
X145465387Y-96074613D01*
X145488322Y-96102559D01*
X145505358Y-96134432D01*
X145515852Y-96169026D01*
X145520000Y-96211141D01*
X145520000Y-96818859D01*
X145515852Y-96860974D01*
X145505358Y-96895568D01*
X145484213Y-96935128D01*
X145480243Y-96941069D01*
X145470864Y-96963708D01*
X145466083Y-96987741D01*
X145466081Y-97012245D01*
X145470860Y-97036279D01*
X145480237Y-97058918D01*
X145484205Y-97064858D01*
X145505358Y-97104432D01*
X145515852Y-97139026D01*
X145520000Y-97181141D01*
X145520000Y-97788859D01*
X145515852Y-97830974D01*
X145505358Y-97865568D01*
X145488322Y-97897441D01*
X145465387Y-97925387D01*
X145437441Y-97948322D01*
X145405568Y-97965358D01*
X145370974Y-97975852D01*
X145328859Y-97980000D01*
X144671141Y-97980000D01*
X144629026Y-97975852D01*
X144594432Y-97965358D01*
X144562559Y-97948322D01*
X144534613Y-97925387D01*
X144511678Y-97897441D01*
X144494642Y-97865568D01*
X144484148Y-97830974D01*
X144480000Y-97788859D01*
X144480000Y-97181141D01*
X144484148Y-97139026D01*
X144494642Y-97104432D01*
X144515787Y-97064872D01*
X144519757Y-97058931D01*
X144529136Y-97036292D01*
X144533917Y-97012259D01*
X144533919Y-96987755D01*
X144529140Y-96963721D01*
X144519763Y-96941082D01*
X144515795Y-96935142D01*
X144494642Y-96895568D01*
X144484148Y-96860974D01*
X144480000Y-96818859D01*
X144480000Y-96211141D01*
X144484148Y-96169026D01*
X144494642Y-96134432D01*
X144511678Y-96102559D01*
X144534613Y-96074613D01*
X144562559Y-96051678D01*
X144594432Y-96034642D01*
X144629026Y-96024148D01*
X144671141Y-96020000D01*
X145328859Y-96020000D01*
X145370974Y-96024148D01*
X145370974Y-96024148D01*
G37*
G36*
X151623000Y-90563000D02*
X151625402Y-90587386D01*
X151632515Y-90610835D01*
X151644066Y-90632446D01*
X151659612Y-90651388D01*
X151662358Y-90653642D01*
X151664612Y-90656388D01*
X151683554Y-90671934D01*
X151705165Y-90683485D01*
X151728614Y-90690598D01*
X151753000Y-90693000D01*
X152498000Y-90693000D01*
X152498000Y-95743000D01*
X151753000Y-95743000D01*
X151728614Y-95745402D01*
X151705165Y-95752515D01*
X151683554Y-95764066D01*
X151664612Y-95779612D01*
X151662358Y-95782358D01*
X151659612Y-95784612D01*
X151644066Y-95803554D01*
X151632515Y-95825165D01*
X151625402Y-95848614D01*
X151623000Y-95873000D01*
X151623000Y-96618000D01*
X146573000Y-96618000D01*
X146573000Y-95873000D01*
X146570598Y-95848614D01*
X146563485Y-95825165D01*
X146551934Y-95803554D01*
X146536388Y-95784612D01*
X146533642Y-95782358D01*
X146531388Y-95779612D01*
X146512446Y-95764066D01*
X146490835Y-95752515D01*
X146467386Y-95745402D01*
X146443000Y-95743000D01*
X145698000Y-95743000D01*
X145698000Y-90693000D01*
X146443000Y-90693000D01*
X146467386Y-90690598D01*
X146490835Y-90683485D01*
X146512446Y-90671934D01*
X146531388Y-90656388D01*
X146533642Y-90653642D01*
X146536388Y-90651388D01*
X146551934Y-90632446D01*
X146563485Y-90610835D01*
X146570598Y-90587386D01*
X146573000Y-90563000D01*
X146573000Y-89818000D01*
X151623000Y-89818000D01*
X151623000Y-90563000D01*
X151623000Y-90563000D01*
G37*
G36*
X154548974Y-93027148D02*
X154583568Y-93037642D01*
X154615441Y-93054678D01*
X154643387Y-93077613D01*
X154666322Y-93105559D01*
X154683358Y-93137432D01*
X154693852Y-93172026D01*
X154698000Y-93214141D01*
X154698000Y-93821859D01*
X154693852Y-93863974D01*
X154683358Y-93898568D01*
X154662213Y-93938128D01*
X154658243Y-93944069D01*
X154648864Y-93966708D01*
X154644083Y-93990741D01*
X154644081Y-94015245D01*
X154648860Y-94039279D01*
X154658237Y-94061918D01*
X154662205Y-94067858D01*
X154683358Y-94107432D01*
X154693852Y-94142026D01*
X154698000Y-94184141D01*
X154698000Y-94791859D01*
X154693852Y-94833974D01*
X154683358Y-94868568D01*
X154666322Y-94900441D01*
X154643387Y-94928387D01*
X154615441Y-94951322D01*
X154583568Y-94968358D01*
X154548974Y-94978852D01*
X154506859Y-94983000D01*
X153849141Y-94983000D01*
X153807026Y-94978852D01*
X153772432Y-94968358D01*
X153740559Y-94951322D01*
X153712613Y-94928387D01*
X153689678Y-94900441D01*
X153672642Y-94868568D01*
X153662148Y-94833974D01*
X153658000Y-94791859D01*
X153658000Y-94184141D01*
X153662148Y-94142026D01*
X153672642Y-94107432D01*
X153693787Y-94067872D01*
X153697757Y-94061931D01*
X153707136Y-94039292D01*
X153711917Y-94015259D01*
X153711919Y-93990755D01*
X153707140Y-93966721D01*
X153697763Y-93944082D01*
X153693795Y-93938142D01*
X153672642Y-93898568D01*
X153662148Y-93863974D01*
X153658000Y-93821859D01*
X153658000Y-93214141D01*
X153662148Y-93172026D01*
X153672642Y-93137432D01*
X153689678Y-93105559D01*
X153712613Y-93077613D01*
X153740559Y-93054678D01*
X153772432Y-93037642D01*
X153807026Y-93027148D01*
X153849141Y-93023000D01*
X154506859Y-93023000D01*
X154548974Y-93027148D01*
X154548974Y-93027148D01*
G37*
G36*
X156047974Y-92956148D02*
X156082568Y-92966642D01*
X156122128Y-92987787D01*
X156128069Y-92991757D01*
X156150708Y-93001136D01*
X156174741Y-93005917D01*
X156199245Y-93005919D01*
X156223279Y-93001140D01*
X156245918Y-92991763D01*
X156251858Y-92987795D01*
X156291432Y-92966642D01*
X156326026Y-92956148D01*
X156368141Y-92952000D01*
X156975859Y-92952000D01*
X157017974Y-92956148D01*
X157052568Y-92966642D01*
X157084441Y-92983678D01*
X157112387Y-93006613D01*
X157135322Y-93034559D01*
X157152358Y-93066432D01*
X157162852Y-93101026D01*
X157167000Y-93143141D01*
X157167000Y-93800859D01*
X157162852Y-93842974D01*
X157152358Y-93877568D01*
X157135322Y-93909441D01*
X157112387Y-93937387D01*
X157084441Y-93960322D01*
X157052568Y-93977358D01*
X157017974Y-93987852D01*
X156975859Y-93992000D01*
X156368141Y-93992000D01*
X156326026Y-93987852D01*
X156291432Y-93977358D01*
X156251872Y-93956213D01*
X156245931Y-93952243D01*
X156223292Y-93942864D01*
X156199259Y-93938083D01*
X156174755Y-93938081D01*
X156150721Y-93942860D01*
X156128082Y-93952237D01*
X156122142Y-93956205D01*
X156082568Y-93977358D01*
X156047974Y-93987852D01*
X156005859Y-93992000D01*
X155398141Y-93992000D01*
X155356026Y-93987852D01*
X155321432Y-93977358D01*
X155289559Y-93960322D01*
X155261613Y-93937387D01*
X155238678Y-93909441D01*
X155221642Y-93877568D01*
X155211148Y-93842974D01*
X155207000Y-93800859D01*
X155207000Y-93143141D01*
X155211148Y-93101026D01*
X155221642Y-93066432D01*
X155238678Y-93034559D01*
X155261613Y-93006613D01*
X155289559Y-92983678D01*
X155321432Y-92966642D01*
X155356026Y-92956148D01*
X155398141Y-92952000D01*
X156005859Y-92952000D01*
X156047974Y-92956148D01*
X156047974Y-92956148D01*
G37*
G36*
X140244000Y-93372000D02*
X135144000Y-93372000D01*
X135144000Y-90972000D01*
X140244000Y-90972000D01*
X140244000Y-93372000D01*
X140244000Y-93372000D01*
G37*
G36*
X157109974Y-90924148D02*
X157144568Y-90934642D01*
X157184128Y-90955787D01*
X157190069Y-90959757D01*
X157212708Y-90969136D01*
X157236741Y-90973917D01*
X157261245Y-90973919D01*
X157285279Y-90969140D01*
X157307918Y-90959763D01*
X157313858Y-90955795D01*
X157353432Y-90934642D01*
X157388026Y-90924148D01*
X157430141Y-90920000D01*
X158037859Y-90920000D01*
X158079974Y-90924148D01*
X158114568Y-90934642D01*
X158146441Y-90951678D01*
X158174387Y-90974613D01*
X158197322Y-91002559D01*
X158214358Y-91034432D01*
X158224852Y-91069026D01*
X158229000Y-91111141D01*
X158229000Y-91768859D01*
X158224852Y-91810974D01*
X158214358Y-91845568D01*
X158197322Y-91877441D01*
X158174387Y-91905387D01*
X158146441Y-91928322D01*
X158114568Y-91945358D01*
X158079974Y-91955852D01*
X158037859Y-91960000D01*
X157430141Y-91960000D01*
X157388026Y-91955852D01*
X157353432Y-91945358D01*
X157313872Y-91924213D01*
X157307931Y-91920243D01*
X157285292Y-91910864D01*
X157261259Y-91906083D01*
X157236755Y-91906081D01*
X157212721Y-91910860D01*
X157190082Y-91920237D01*
X157184142Y-91924205D01*
X157144568Y-91945358D01*
X157109974Y-91955852D01*
X157067859Y-91960000D01*
X156460141Y-91960000D01*
X156418026Y-91955852D01*
X156383432Y-91945358D01*
X156351559Y-91928322D01*
X156323613Y-91905387D01*
X156300678Y-91877441D01*
X156283642Y-91845568D01*
X156273148Y-91810974D01*
X156269000Y-91768859D01*
X156269000Y-91111141D01*
X156273148Y-91069026D01*
X156283642Y-91034432D01*
X156300678Y-91002559D01*
X156323613Y-90974613D01*
X156351559Y-90951678D01*
X156383432Y-90934642D01*
X156418026Y-90924148D01*
X156460141Y-90920000D01*
X157067859Y-90920000D01*
X157109974Y-90924148D01*
X157109974Y-90924148D01*
G37*
G36*
X155326000Y-90262000D02*
X153126000Y-90262000D01*
X153126000Y-89062000D01*
X155326000Y-89062000D01*
X155326000Y-90262000D01*
X155326000Y-90262000D01*
G37*
G36*
X158326000Y-90262000D02*
X156126000Y-90262000D01*
X156126000Y-89062000D01*
X158326000Y-89062000D01*
X158326000Y-90262000D01*
X158326000Y-90262000D01*
G37*
G36*
X145122000Y-90254000D02*
X143422000Y-90254000D01*
X143422000Y-88054000D01*
X145122000Y-88054000D01*
X145122000Y-90254000D01*
X145122000Y-90254000D01*
G37*
G36*
X142322000Y-90254000D02*
X140622000Y-90254000D01*
X140622000Y-88054000D01*
X142322000Y-88054000D01*
X142322000Y-90254000D01*
X142322000Y-90254000D01*
G37*
G36*
X146420974Y-87185148D02*
X146455568Y-87195642D01*
X146487441Y-87212678D01*
X146515387Y-87235613D01*
X146538322Y-87263559D01*
X146555358Y-87295432D01*
X146565852Y-87330026D01*
X146570000Y-87372141D01*
X146570000Y-87979859D01*
X146565852Y-88021974D01*
X146555358Y-88056568D01*
X146534213Y-88096128D01*
X146530243Y-88102069D01*
X146520864Y-88124708D01*
X146516083Y-88148741D01*
X146516081Y-88173245D01*
X146520860Y-88197279D01*
X146530237Y-88219918D01*
X146534205Y-88225858D01*
X146555358Y-88265432D01*
X146565852Y-88300026D01*
X146570000Y-88342141D01*
X146570000Y-88949859D01*
X146565852Y-88991974D01*
X146555358Y-89026568D01*
X146538322Y-89058441D01*
X146515387Y-89086387D01*
X146487441Y-89109322D01*
X146455568Y-89126358D01*
X146420974Y-89136852D01*
X146378859Y-89141000D01*
X145721141Y-89141000D01*
X145679026Y-89136852D01*
X145644432Y-89126358D01*
X145612559Y-89109322D01*
X145584613Y-89086387D01*
X145561678Y-89058441D01*
X145544642Y-89026568D01*
X145534148Y-88991974D01*
X145530000Y-88949859D01*
X145530000Y-88342141D01*
X145534148Y-88300026D01*
X145544642Y-88265432D01*
X145565787Y-88225872D01*
X145569757Y-88219931D01*
X145579136Y-88197292D01*
X145583917Y-88173259D01*
X145583919Y-88148755D01*
X145579140Y-88124721D01*
X145569763Y-88102082D01*
X145565795Y-88096142D01*
X145544642Y-88056568D01*
X145534148Y-88021974D01*
X145530000Y-87979859D01*
X145530000Y-87372141D01*
X145534148Y-87330026D01*
X145544642Y-87295432D01*
X145561678Y-87263559D01*
X145584613Y-87235613D01*
X145612559Y-87212678D01*
X145644432Y-87195642D01*
X145679026Y-87185148D01*
X145721141Y-87181000D01*
X146378859Y-87181000D01*
X146420974Y-87185148D01*
X146420974Y-87185148D01*
G37*
G36*
X147944974Y-87185148D02*
X147979568Y-87195642D01*
X148011441Y-87212678D01*
X148039387Y-87235613D01*
X148062322Y-87263559D01*
X148079358Y-87295432D01*
X148089852Y-87330026D01*
X148094000Y-87372141D01*
X148094000Y-87979859D01*
X148089852Y-88021974D01*
X148079358Y-88056568D01*
X148058213Y-88096128D01*
X148054243Y-88102069D01*
X148044864Y-88124708D01*
X148040083Y-88148741D01*
X148040081Y-88173245D01*
X148044860Y-88197279D01*
X148054237Y-88219918D01*
X148058205Y-88225858D01*
X148079358Y-88265432D01*
X148089852Y-88300026D01*
X148094000Y-88342141D01*
X148094000Y-88949859D01*
X148089852Y-88991974D01*
X148079358Y-89026568D01*
X148062322Y-89058441D01*
X148039387Y-89086387D01*
X148011441Y-89109322D01*
X147979568Y-89126358D01*
X147944974Y-89136852D01*
X147902859Y-89141000D01*
X147245141Y-89141000D01*
X147203026Y-89136852D01*
X147168432Y-89126358D01*
X147136559Y-89109322D01*
X147108613Y-89086387D01*
X147085678Y-89058441D01*
X147068642Y-89026568D01*
X147058148Y-88991974D01*
X147054000Y-88949859D01*
X147054000Y-88342141D01*
X147058148Y-88300026D01*
X147068642Y-88265432D01*
X147089787Y-88225872D01*
X147093757Y-88219931D01*
X147103136Y-88197292D01*
X147107917Y-88173259D01*
X147107919Y-88148755D01*
X147103140Y-88124721D01*
X147093763Y-88102082D01*
X147089795Y-88096142D01*
X147068642Y-88056568D01*
X147058148Y-88021974D01*
X147054000Y-87979859D01*
X147054000Y-87372141D01*
X147058148Y-87330026D01*
X147068642Y-87295432D01*
X147085678Y-87263559D01*
X147108613Y-87235613D01*
X147136559Y-87212678D01*
X147168432Y-87195642D01*
X147203026Y-87185148D01*
X147245141Y-87181000D01*
X147902859Y-87181000D01*
X147944974Y-87185148D01*
X147944974Y-87185148D01*
G37*
G36*
X158326000Y-88762000D02*
X156126000Y-88762000D01*
X156126000Y-87562000D01*
X158326000Y-87562000D01*
X158326000Y-88762000D01*
X158326000Y-88762000D01*
G37*
G36*
X155326000Y-88762000D02*
X153126000Y-88762000D01*
X153126000Y-87562000D01*
X155326000Y-87562000D01*
X155326000Y-88762000D01*
X155326000Y-88762000D01*
G37*
G36*
X150025497Y-87299497D02*
X150078153Y-87315470D01*
X150126665Y-87341400D01*
X150169196Y-87376304D01*
X150204100Y-87418835D01*
X150230030Y-87467347D01*
X150246003Y-87520003D01*
X150252000Y-87580890D01*
X150252000Y-88381110D01*
X150246003Y-88441997D01*
X150230030Y-88494653D01*
X150204100Y-88543165D01*
X150169196Y-88585696D01*
X150126665Y-88620600D01*
X150078153Y-88646530D01*
X150025497Y-88662503D01*
X149964610Y-88668500D01*
X148739390Y-88668500D01*
X148678503Y-88662503D01*
X148625847Y-88646530D01*
X148577335Y-88620600D01*
X148534804Y-88585696D01*
X148499900Y-88543165D01*
X148473970Y-88494653D01*
X148457997Y-88441997D01*
X148452000Y-88381110D01*
X148452000Y-87580890D01*
X148457997Y-87520003D01*
X148473970Y-87467347D01*
X148499900Y-87418835D01*
X148534804Y-87376304D01*
X148577335Y-87341400D01*
X148625847Y-87315470D01*
X148678503Y-87299497D01*
X148739390Y-87293500D01*
X149964610Y-87293500D01*
X150025497Y-87299497D01*
X150025497Y-87299497D01*
G37*
G36*
X139468622Y-86368017D02*
X139516585Y-86382566D01*
X139560775Y-86406186D01*
X139599518Y-86437982D01*
X139631314Y-86476725D01*
X139654934Y-86520915D01*
X139669483Y-86568878D01*
X139675000Y-86624891D01*
X139675000Y-87375109D01*
X139669483Y-87431122D01*
X139654934Y-87479085D01*
X139631314Y-87523275D01*
X139599518Y-87562018D01*
X139560775Y-87593814D01*
X139516585Y-87617434D01*
X139468622Y-87631983D01*
X139412609Y-87637500D01*
X138587391Y-87637500D01*
X138531378Y-87631983D01*
X138483415Y-87617434D01*
X138439225Y-87593814D01*
X138400482Y-87562018D01*
X138368686Y-87523275D01*
X138345066Y-87479085D01*
X138330517Y-87431122D01*
X138325000Y-87375109D01*
X138325000Y-86624891D01*
X138330517Y-86568878D01*
X138345066Y-86520915D01*
X138368686Y-86476725D01*
X138400482Y-86437982D01*
X138439225Y-86406186D01*
X138483415Y-86382566D01*
X138531378Y-86368017D01*
X138587391Y-86362500D01*
X139412609Y-86362500D01*
X139468622Y-86368017D01*
X139468622Y-86368017D01*
G37*
G36*
X144740622Y-86261517D02*
X144788585Y-86276066D01*
X144832775Y-86299686D01*
X144871518Y-86331482D01*
X144903314Y-86370225D01*
X144926934Y-86414415D01*
X144941483Y-86462378D01*
X144947000Y-86518391D01*
X144947000Y-87268609D01*
X144941483Y-87324622D01*
X144926934Y-87372585D01*
X144903314Y-87416775D01*
X144871518Y-87455518D01*
X144832775Y-87487314D01*
X144788585Y-87510934D01*
X144740622Y-87525483D01*
X144684609Y-87531000D01*
X143859391Y-87531000D01*
X143803378Y-87525483D01*
X143755415Y-87510934D01*
X143711225Y-87487314D01*
X143672482Y-87455518D01*
X143640686Y-87416775D01*
X143617066Y-87372585D01*
X143602517Y-87324622D01*
X143597000Y-87268609D01*
X143597000Y-86518391D01*
X143602517Y-86462378D01*
X143617066Y-86414415D01*
X143640686Y-86370225D01*
X143672482Y-86331482D01*
X143711225Y-86299686D01*
X143755415Y-86276066D01*
X143803378Y-86261517D01*
X143859391Y-86256000D01*
X144684609Y-86256000D01*
X144740622Y-86261517D01*
X144740622Y-86261517D01*
G37*
G36*
X141946622Y-86236017D02*
X141994585Y-86250566D01*
X142038775Y-86274186D01*
X142077518Y-86305982D01*
X142109314Y-86344725D01*
X142132934Y-86388915D01*
X142147483Y-86436878D01*
X142153000Y-86492891D01*
X142153000Y-87243109D01*
X142147483Y-87299122D01*
X142132934Y-87347085D01*
X142109314Y-87391275D01*
X142077518Y-87430018D01*
X142038775Y-87461814D01*
X141994585Y-87485434D01*
X141946622Y-87499983D01*
X141890609Y-87505500D01*
X141065391Y-87505500D01*
X141009378Y-87499983D01*
X140961415Y-87485434D01*
X140917225Y-87461814D01*
X140878482Y-87430018D01*
X140846686Y-87391275D01*
X140823066Y-87347085D01*
X140808517Y-87299122D01*
X140803000Y-87243109D01*
X140803000Y-86492891D01*
X140808517Y-86436878D01*
X140823066Y-86388915D01*
X140846686Y-86344725D01*
X140878482Y-86305982D01*
X140917225Y-86274186D01*
X140961415Y-86250566D01*
X141009378Y-86236017D01*
X141065391Y-86230500D01*
X141890609Y-86230500D01*
X141946622Y-86236017D01*
X141946622Y-86236017D01*
G37*
G36*
X153288122Y-85944517D02*
X153336085Y-85959066D01*
X153380275Y-85982686D01*
X153419018Y-86014482D01*
X153450814Y-86053225D01*
X153474434Y-86097415D01*
X153488983Y-86145378D01*
X153494500Y-86201391D01*
X153494500Y-87026609D01*
X153488983Y-87082622D01*
X153474434Y-87130585D01*
X153450814Y-87174775D01*
X153419018Y-87213518D01*
X153380275Y-87245314D01*
X153336085Y-87268934D01*
X153288122Y-87283483D01*
X153232109Y-87289000D01*
X152481891Y-87289000D01*
X152425878Y-87283483D01*
X152377915Y-87268934D01*
X152333725Y-87245314D01*
X152294982Y-87213518D01*
X152263186Y-87174775D01*
X152239566Y-87130585D01*
X152225017Y-87082622D01*
X152219500Y-87026609D01*
X152219500Y-86201391D01*
X152225017Y-86145378D01*
X152239566Y-86097415D01*
X152263186Y-86053225D01*
X152294982Y-86014482D01*
X152333725Y-85982686D01*
X152377915Y-85959066D01*
X152425878Y-85944517D01*
X152481891Y-85939000D01*
X153232109Y-85939000D01*
X153288122Y-85944517D01*
X153288122Y-85944517D01*
G37*
G36*
X157123622Y-85944517D02*
X157171585Y-85959066D01*
X157215775Y-85982686D01*
X157254518Y-86014482D01*
X157286314Y-86053225D01*
X157309934Y-86097415D01*
X157324483Y-86145378D01*
X157330000Y-86201391D01*
X157330000Y-87026609D01*
X157324483Y-87082622D01*
X157309934Y-87130585D01*
X157286314Y-87174775D01*
X157254518Y-87213518D01*
X157215775Y-87245314D01*
X157171585Y-87268934D01*
X157123622Y-87283483D01*
X157067609Y-87289000D01*
X156317391Y-87289000D01*
X156261378Y-87283483D01*
X156213415Y-87268934D01*
X156169225Y-87245314D01*
X156130482Y-87213518D01*
X156098686Y-87174775D01*
X156075066Y-87130585D01*
X156060517Y-87082622D01*
X156055000Y-87026609D01*
X156055000Y-86201391D01*
X156060517Y-86145378D01*
X156075066Y-86097415D01*
X156098686Y-86053225D01*
X156130482Y-86014482D01*
X156169225Y-85982686D01*
X156213415Y-85959066D01*
X156261378Y-85944517D01*
X156317391Y-85939000D01*
X157067609Y-85939000D01*
X157123622Y-85944517D01*
X157123622Y-85944517D01*
G37*
G36*
X154863122Y-85944517D02*
X154911085Y-85959066D01*
X154955275Y-85982686D01*
X154994018Y-86014482D01*
X155025814Y-86053225D01*
X155049434Y-86097415D01*
X155063983Y-86145378D01*
X155069500Y-86201391D01*
X155069500Y-87026609D01*
X155063983Y-87082622D01*
X155049434Y-87130585D01*
X155025814Y-87174775D01*
X154994018Y-87213518D01*
X154955275Y-87245314D01*
X154911085Y-87268934D01*
X154863122Y-87283483D01*
X154807109Y-87289000D01*
X154056891Y-87289000D01*
X154000878Y-87283483D01*
X153952915Y-87268934D01*
X153908725Y-87245314D01*
X153869982Y-87213518D01*
X153838186Y-87174775D01*
X153814566Y-87130585D01*
X153800017Y-87082622D01*
X153794500Y-87026609D01*
X153794500Y-86201391D01*
X153800017Y-86145378D01*
X153814566Y-86097415D01*
X153838186Y-86053225D01*
X153869982Y-86014482D01*
X153908725Y-85982686D01*
X153952915Y-85959066D01*
X154000878Y-85944517D01*
X154056891Y-85939000D01*
X154807109Y-85939000D01*
X154863122Y-85944517D01*
X154863122Y-85944517D01*
G37*
G36*
X158698622Y-85944517D02*
X158746585Y-85959066D01*
X158790775Y-85982686D01*
X158829518Y-86014482D01*
X158861314Y-86053225D01*
X158884934Y-86097415D01*
X158899483Y-86145378D01*
X158905000Y-86201391D01*
X158905000Y-87026609D01*
X158899483Y-87082622D01*
X158884934Y-87130585D01*
X158861314Y-87174775D01*
X158829518Y-87213518D01*
X158790775Y-87245314D01*
X158746585Y-87268934D01*
X158698622Y-87283483D01*
X158642609Y-87289000D01*
X157892391Y-87289000D01*
X157836378Y-87283483D01*
X157788415Y-87268934D01*
X157744225Y-87245314D01*
X157705482Y-87213518D01*
X157673686Y-87174775D01*
X157650066Y-87130585D01*
X157635517Y-87082622D01*
X157630000Y-87026609D01*
X157630000Y-86201391D01*
X157635517Y-86145378D01*
X157650066Y-86097415D01*
X157673686Y-86053225D01*
X157705482Y-86014482D01*
X157744225Y-85982686D01*
X157788415Y-85959066D01*
X157836378Y-85944517D01*
X157892391Y-85939000D01*
X158642609Y-85939000D01*
X158698622Y-85944517D01*
X158698622Y-85944517D01*
G37*
G36*
X150025497Y-85424497D02*
X150078153Y-85440470D01*
X150126665Y-85466400D01*
X150169196Y-85501304D01*
X150204100Y-85543835D01*
X150230030Y-85592347D01*
X150246003Y-85645003D01*
X150252000Y-85705890D01*
X150252000Y-86506110D01*
X150246003Y-86566997D01*
X150230030Y-86619653D01*
X150204100Y-86668165D01*
X150169196Y-86710696D01*
X150126665Y-86745600D01*
X150078153Y-86771530D01*
X150025497Y-86787503D01*
X149964610Y-86793500D01*
X148739390Y-86793500D01*
X148678503Y-86787503D01*
X148625847Y-86771530D01*
X148577335Y-86745600D01*
X148534804Y-86710696D01*
X148499900Y-86668165D01*
X148473970Y-86619653D01*
X148457997Y-86566998D01*
X148456763Y-86554471D01*
X148451982Y-86530438D01*
X148442604Y-86507799D01*
X148428990Y-86487425D01*
X148411662Y-86470098D01*
X148391287Y-86456485D01*
X148368648Y-86447108D01*
X148344615Y-86442328D01*
X148320110Y-86442328D01*
X148296077Y-86447109D01*
X148273438Y-86456487D01*
X148253064Y-86470101D01*
X148235737Y-86487429D01*
X148222124Y-86507804D01*
X148212747Y-86530443D01*
X148207967Y-86554475D01*
X148205983Y-86574622D01*
X148191434Y-86622585D01*
X148167814Y-86666775D01*
X148136018Y-86705518D01*
X148097275Y-86737314D01*
X148053085Y-86760934D01*
X148005122Y-86775483D01*
X147949109Y-86781000D01*
X147198891Y-86781000D01*
X147142878Y-86775483D01*
X147094915Y-86760934D01*
X147050725Y-86737314D01*
X147011982Y-86705518D01*
X146980186Y-86666775D01*
X146956566Y-86622585D01*
X146942017Y-86574622D01*
X146936500Y-86518609D01*
X146936500Y-85693391D01*
X146942017Y-85637378D01*
X146956566Y-85589415D01*
X146980186Y-85545225D01*
X147011982Y-85506482D01*
X147050725Y-85474686D01*
X147094915Y-85451066D01*
X147142878Y-85436517D01*
X147198891Y-85431000D01*
X147949109Y-85431000D01*
X148005122Y-85436517D01*
X148053085Y-85451066D01*
X148097275Y-85474686D01*
X148136018Y-85506482D01*
X148167814Y-85545225D01*
X148191434Y-85589415D01*
X148205983Y-85637378D01*
X148207967Y-85657525D01*
X148212747Y-85681558D01*
X148222124Y-85704198D01*
X148235738Y-85724572D01*
X148253065Y-85741900D01*
X148273439Y-85755514D01*
X148296078Y-85764891D01*
X148320112Y-85769672D01*
X148344616Y-85769672D01*
X148368649Y-85764892D01*
X148391289Y-85755515D01*
X148411663Y-85741901D01*
X148428991Y-85724574D01*
X148442605Y-85704200D01*
X148451982Y-85681561D01*
X148456763Y-85657529D01*
X148457997Y-85645002D01*
X148473970Y-85592347D01*
X148499900Y-85543835D01*
X148534804Y-85501304D01*
X148577335Y-85466400D01*
X148625847Y-85440470D01*
X148678503Y-85424497D01*
X148739390Y-85418500D01*
X149964610Y-85418500D01*
X150025497Y-85424497D01*
X150025497Y-85424497D01*
G37*
G36*
X146430122Y-85436517D02*
X146478085Y-85451066D01*
X146522275Y-85474686D01*
X146561018Y-85506482D01*
X146592814Y-85545225D01*
X146616434Y-85589415D01*
X146630983Y-85637378D01*
X146636500Y-85693391D01*
X146636500Y-86518609D01*
X146630983Y-86574622D01*
X146616434Y-86622585D01*
X146592814Y-86666775D01*
X146561018Y-86705518D01*
X146522275Y-86737314D01*
X146478085Y-86760934D01*
X146430122Y-86775483D01*
X146374109Y-86781000D01*
X145623891Y-86781000D01*
X145567878Y-86775483D01*
X145519915Y-86760934D01*
X145475725Y-86737314D01*
X145436982Y-86705518D01*
X145405186Y-86666775D01*
X145381566Y-86622585D01*
X145367017Y-86574622D01*
X145361500Y-86518609D01*
X145361500Y-85693391D01*
X145367017Y-85637378D01*
X145381566Y-85589415D01*
X145405186Y-85545225D01*
X145436982Y-85506482D01*
X145475725Y-85474686D01*
X145519915Y-85451066D01*
X145567878Y-85436517D01*
X145623891Y-85431000D01*
X146374109Y-85431000D01*
X146430122Y-85436517D01*
X146430122Y-85436517D01*
G37*
G36*
X139468622Y-84793017D02*
X139516585Y-84807566D01*
X139560775Y-84831186D01*
X139599518Y-84862982D01*
X139631314Y-84901725D01*
X139654934Y-84945915D01*
X139669483Y-84993878D01*
X139675000Y-85049891D01*
X139675000Y-85800109D01*
X139669483Y-85856122D01*
X139654934Y-85904085D01*
X139631314Y-85948275D01*
X139599518Y-85987018D01*
X139560775Y-86018814D01*
X139516585Y-86042434D01*
X139468622Y-86056983D01*
X139412609Y-86062500D01*
X138587391Y-86062500D01*
X138531378Y-86056983D01*
X138483415Y-86042434D01*
X138439225Y-86018814D01*
X138400482Y-85987018D01*
X138368686Y-85948275D01*
X138345066Y-85904085D01*
X138330517Y-85856122D01*
X138325000Y-85800109D01*
X138325000Y-85049891D01*
X138330517Y-84993878D01*
X138345066Y-84945915D01*
X138368686Y-84901725D01*
X138400482Y-84862982D01*
X138439225Y-84831186D01*
X138483415Y-84807566D01*
X138531378Y-84793017D01*
X138587391Y-84787500D01*
X139412609Y-84787500D01*
X139468622Y-84793017D01*
X139468622Y-84793017D01*
G37*
G36*
X144740622Y-84686517D02*
X144788585Y-84701066D01*
X144832775Y-84724686D01*
X144871518Y-84756482D01*
X144903314Y-84795225D01*
X144926934Y-84839415D01*
X144941483Y-84887378D01*
X144947000Y-84943391D01*
X144947000Y-85693609D01*
X144941483Y-85749622D01*
X144926934Y-85797585D01*
X144903314Y-85841775D01*
X144871518Y-85880518D01*
X144832775Y-85912314D01*
X144788585Y-85935934D01*
X144740622Y-85950483D01*
X144684609Y-85956000D01*
X143859391Y-85956000D01*
X143803378Y-85950483D01*
X143755415Y-85935934D01*
X143711225Y-85912314D01*
X143672482Y-85880518D01*
X143640686Y-85841775D01*
X143617066Y-85797585D01*
X143602517Y-85749622D01*
X143597000Y-85693609D01*
X143597000Y-84943391D01*
X143602517Y-84887378D01*
X143617066Y-84839415D01*
X143640686Y-84795225D01*
X143672482Y-84756482D01*
X143711225Y-84724686D01*
X143755415Y-84701066D01*
X143803378Y-84686517D01*
X143859391Y-84681000D01*
X144684609Y-84681000D01*
X144740622Y-84686517D01*
X144740622Y-84686517D01*
G37*
G36*
X141946622Y-84661017D02*
X141994585Y-84675566D01*
X142038775Y-84699186D01*
X142077518Y-84730982D01*
X142109314Y-84769725D01*
X142132934Y-84813915D01*
X142147483Y-84861878D01*
X142153000Y-84917891D01*
X142153000Y-85668109D01*
X142147483Y-85724122D01*
X142132934Y-85772085D01*
X142109314Y-85816275D01*
X142077518Y-85855018D01*
X142038775Y-85886814D01*
X141994585Y-85910434D01*
X141946622Y-85924983D01*
X141890609Y-85930500D01*
X141065391Y-85930500D01*
X141009378Y-85924983D01*
X140961415Y-85910434D01*
X140917225Y-85886814D01*
X140878482Y-85855018D01*
X140846686Y-85816275D01*
X140823066Y-85772085D01*
X140808517Y-85724122D01*
X140803000Y-85668109D01*
X140803000Y-84917891D01*
X140808517Y-84861878D01*
X140823066Y-84813915D01*
X140846686Y-84769725D01*
X140878482Y-84730982D01*
X140917225Y-84699186D01*
X140961415Y-84675566D01*
X141009378Y-84661017D01*
X141065391Y-84655500D01*
X141890609Y-84655500D01*
X141946622Y-84661017D01*
X141946622Y-84661017D01*
G37*
G36*
X161972947Y-82155722D02*
X162236833Y-82265027D01*
X162474324Y-82423713D01*
X162676287Y-82625676D01*
X162834973Y-82863167D01*
X162944278Y-83127053D01*
X163000000Y-83407186D01*
X163000000Y-83692814D01*
X162944278Y-83972947D01*
X162834973Y-84236833D01*
X162676287Y-84474324D01*
X162474324Y-84676287D01*
X162236833Y-84834973D01*
X161972947Y-84944278D01*
X161692814Y-85000000D01*
X161407186Y-85000000D01*
X161127053Y-84944278D01*
X160863167Y-84834973D01*
X160625676Y-84676287D01*
X160423713Y-84474324D01*
X160265027Y-84236833D01*
X160155722Y-83972947D01*
X160100000Y-83692814D01*
X160100000Y-83407186D01*
X160155722Y-83127053D01*
X160265027Y-82863167D01*
X160423713Y-82625676D01*
X160625676Y-82423713D01*
X160863167Y-82265027D01*
X161127053Y-82155722D01*
X161407186Y-82100000D01*
X161692814Y-82100000D01*
X161972947Y-82155722D01*
X161972947Y-82155722D01*
G37*
G36*
X135139451Y-82299127D02*
X135277105Y-82326508D01*
X135449994Y-82398121D01*
X135605590Y-82502087D01*
X135737913Y-82634410D01*
X135841879Y-82790006D01*
X135913492Y-82962895D01*
X135913902Y-82964958D01*
X135950000Y-83146432D01*
X135950000Y-83333568D01*
X135940873Y-83379452D01*
X135913492Y-83517105D01*
X135841879Y-83689994D01*
X135737913Y-83845590D01*
X135605590Y-83977913D01*
X135449994Y-84081879D01*
X135277105Y-84153492D01*
X135139452Y-84180873D01*
X135093568Y-84190000D01*
X134906432Y-84190000D01*
X134860548Y-84180873D01*
X134722895Y-84153492D01*
X134550006Y-84081879D01*
X134394410Y-83977913D01*
X134262087Y-83845590D01*
X134158121Y-83689994D01*
X134086508Y-83517105D01*
X134059127Y-83379452D01*
X134050000Y-83333568D01*
X134050000Y-83146432D01*
X134086098Y-82964958D01*
X134086508Y-82962895D01*
X134158121Y-82790006D01*
X134262087Y-82634410D01*
X134394410Y-82502087D01*
X134550006Y-82398121D01*
X134722895Y-82326508D01*
X134860548Y-82299127D01*
X134906432Y-82290000D01*
X135093568Y-82290000D01*
X135139451Y-82299127D01*
X135139451Y-82299127D01*
G37*
G36*
X132850026Y-81046115D02*
X133068412Y-81136573D01*
X133264958Y-81267901D01*
X133432099Y-81435042D01*
X133563427Y-81631588D01*
X133653885Y-81849974D01*
X133700000Y-82081809D01*
X133700000Y-82318191D01*
X133653885Y-82550026D01*
X133563427Y-82768412D01*
X133432099Y-82964958D01*
X133264958Y-83132099D01*
X133068412Y-83263427D01*
X132850026Y-83353885D01*
X132618191Y-83400000D01*
X132381809Y-83400000D01*
X132149974Y-83353885D01*
X131931588Y-83263427D01*
X131735042Y-83132099D01*
X131567901Y-82964958D01*
X131436573Y-82768412D01*
X131346115Y-82550026D01*
X131300000Y-82318191D01*
X131300000Y-82081809D01*
X131346115Y-81849974D01*
X131436573Y-81631588D01*
X131567901Y-81435042D01*
X131735042Y-81267901D01*
X131931588Y-81136573D01*
X132149974Y-81046115D01*
X132381809Y-81000000D01*
X132618191Y-81000000D01*
X132850026Y-81046115D01*
X132850026Y-81046115D01*
G37*
G36*
X138968622Y-79655517D02*
X139016585Y-79670066D01*
X139060775Y-79693686D01*
X139099518Y-79725482D01*
X139131314Y-79764225D01*
X139154934Y-79808415D01*
X139169483Y-79856378D01*
X139175000Y-79912391D01*
X139175000Y-80662609D01*
X139169483Y-80718622D01*
X139154934Y-80766585D01*
X139131314Y-80810775D01*
X139099518Y-80849518D01*
X139060775Y-80881314D01*
X139016585Y-80904934D01*
X138968622Y-80919483D01*
X138912609Y-80925000D01*
X138087391Y-80925000D01*
X138031378Y-80919483D01*
X137983415Y-80904934D01*
X137939225Y-80881314D01*
X137900482Y-80849518D01*
X137868686Y-80810775D01*
X137845066Y-80766585D01*
X137830517Y-80718622D01*
X137825000Y-80662609D01*
X137825000Y-79912391D01*
X137830517Y-79856378D01*
X137845066Y-79808415D01*
X137868686Y-79764225D01*
X137900482Y-79725482D01*
X137939225Y-79693686D01*
X137983415Y-79670066D01*
X138031378Y-79655517D01*
X138087391Y-79650000D01*
X138912609Y-79650000D01*
X138968622Y-79655517D01*
X138968622Y-79655517D01*
G37*
G36*
X136870974Y-78809148D02*
X136905568Y-78819642D01*
X136937441Y-78836678D01*
X136965387Y-78859613D01*
X136988322Y-78887559D01*
X137005358Y-78919432D01*
X137015852Y-78954026D01*
X137020000Y-78996141D01*
X137020000Y-79603859D01*
X137015852Y-79645974D01*
X137005358Y-79680568D01*
X136984213Y-79720128D01*
X136980243Y-79726069D01*
X136970864Y-79748708D01*
X136966083Y-79772741D01*
X136966081Y-79797245D01*
X136970860Y-79821279D01*
X136980237Y-79843918D01*
X136984205Y-79849858D01*
X137005358Y-79889432D01*
X137015852Y-79924026D01*
X137020000Y-79966141D01*
X137020000Y-80573859D01*
X137015852Y-80615974D01*
X137005358Y-80650568D01*
X136988322Y-80682441D01*
X136965387Y-80710387D01*
X136937441Y-80733322D01*
X136905568Y-80750358D01*
X136870974Y-80760852D01*
X136828859Y-80765000D01*
X136171141Y-80765000D01*
X136129026Y-80760852D01*
X136094432Y-80750358D01*
X136062559Y-80733322D01*
X136034613Y-80710387D01*
X136011678Y-80682441D01*
X135994642Y-80650568D01*
X135984148Y-80615974D01*
X135980000Y-80573859D01*
X135980000Y-79966141D01*
X135984148Y-79924026D01*
X135994642Y-79889432D01*
X136015787Y-79849872D01*
X136019757Y-79843931D01*
X136029136Y-79821292D01*
X136033917Y-79797259D01*
X136033919Y-79772755D01*
X136029140Y-79748721D01*
X136019763Y-79726082D01*
X136015795Y-79720142D01*
X135994642Y-79680568D01*
X135984148Y-79645974D01*
X135980000Y-79603859D01*
X135980000Y-78996141D01*
X135984148Y-78954026D01*
X135994642Y-78919432D01*
X136011678Y-78887559D01*
X136034613Y-78859613D01*
X136062559Y-78836678D01*
X136094432Y-78819642D01*
X136129026Y-78809148D01*
X136171141Y-78805000D01*
X136828859Y-78805000D01*
X136870974Y-78809148D01*
X136870974Y-78809148D01*
G37*
G36*
X150876000Y-78453000D02*
X150878402Y-78477386D01*
X150885515Y-78500835D01*
X150897066Y-78522446D01*
X150912612Y-78541388D01*
X150931554Y-78556934D01*
X150953165Y-78568485D01*
X150976614Y-78575598D01*
X151001000Y-78578000D01*
X151276000Y-78578000D01*
X151276000Y-80178000D01*
X149476000Y-80178000D01*
X149476000Y-78903000D01*
X149473598Y-78878614D01*
X149466485Y-78855165D01*
X149454934Y-78833554D01*
X149439388Y-78814612D01*
X149420446Y-78799066D01*
X149398835Y-78787515D01*
X149375386Y-78780402D01*
X149351000Y-78778000D01*
X148876000Y-78778000D01*
X148876000Y-68878000D01*
X150876000Y-68878000D01*
X150876000Y-78453000D01*
X150876000Y-78453000D01*
G37*
G36*
X161276000Y-80178000D02*
X158676000Y-80178000D01*
X158676000Y-78578000D01*
X161276000Y-78578000D01*
X161276000Y-80178000D01*
X161276000Y-80178000D01*
G37*
G36*
X138968622Y-78080517D02*
X139016585Y-78095066D01*
X139060775Y-78118686D01*
X139099518Y-78150482D01*
X139131314Y-78189225D01*
X139154934Y-78233415D01*
X139169483Y-78281378D01*
X139175000Y-78337391D01*
X139175000Y-79087609D01*
X139169483Y-79143622D01*
X139154934Y-79191585D01*
X139131314Y-79235775D01*
X139099518Y-79274518D01*
X139060775Y-79306314D01*
X139016585Y-79329934D01*
X138968622Y-79344483D01*
X138912609Y-79350000D01*
X138087391Y-79350000D01*
X138031378Y-79344483D01*
X137983415Y-79329934D01*
X137939225Y-79306314D01*
X137900482Y-79274518D01*
X137868686Y-79235775D01*
X137845066Y-79191585D01*
X137830517Y-79143622D01*
X137825000Y-79087609D01*
X137825000Y-78337391D01*
X137830517Y-78281378D01*
X137845066Y-78233415D01*
X137868686Y-78189225D01*
X137900482Y-78150482D01*
X137939225Y-78118686D01*
X137983415Y-78095066D01*
X138031378Y-78080517D01*
X138087391Y-78075000D01*
X138912609Y-78075000D01*
X138968622Y-78080517D01*
X138968622Y-78080517D01*
G37*
G36*
X132850026Y-76046115D02*
X133068412Y-76136573D01*
X133264958Y-76267901D01*
X133432099Y-76435042D01*
X133563427Y-76631588D01*
X133653885Y-76849974D01*
X133700000Y-77081809D01*
X133700000Y-77318191D01*
X133653885Y-77550026D01*
X133563427Y-77768412D01*
X133432099Y-77964958D01*
X133264958Y-78132099D01*
X133068412Y-78263427D01*
X132850026Y-78353885D01*
X132618191Y-78400000D01*
X132381809Y-78400000D01*
X132149974Y-78353885D01*
X131931588Y-78263427D01*
X131735042Y-78132099D01*
X131567901Y-77964958D01*
X131436573Y-77768412D01*
X131346115Y-77550026D01*
X131300000Y-77318191D01*
X131300000Y-77081809D01*
X131346115Y-76849974D01*
X131436573Y-76631588D01*
X131567901Y-76435042D01*
X131735042Y-76267901D01*
X131931588Y-76136573D01*
X132149974Y-76046115D01*
X132381809Y-76000000D01*
X132618191Y-76000000D01*
X132850026Y-76046115D01*
X132850026Y-76046115D01*
G37*
G36*
X160522318Y-75822411D02*
X160594767Y-75836822D01*
X160651303Y-75860240D01*
X160731257Y-75893358D01*
X160854100Y-75975439D01*
X160958561Y-76079900D01*
X161040642Y-76202743D01*
X161097178Y-76339234D01*
X161126000Y-76484130D01*
X161126000Y-76631870D01*
X161097178Y-76776766D01*
X161040642Y-76913257D01*
X160958561Y-77036100D01*
X160854100Y-77140561D01*
X160731257Y-77222642D01*
X160651303Y-77255760D01*
X160594767Y-77279178D01*
X160522318Y-77293589D01*
X160449870Y-77308000D01*
X160302130Y-77308000D01*
X160229682Y-77293589D01*
X160157233Y-77279178D01*
X160100697Y-77255760D01*
X160020743Y-77222642D01*
X159897900Y-77140561D01*
X159793439Y-77036100D01*
X159711358Y-76913257D01*
X159654822Y-76776766D01*
X159626000Y-76631870D01*
X159626000Y-76484130D01*
X159654822Y-76339234D01*
X159711358Y-76202743D01*
X159793439Y-76079900D01*
X159897900Y-75975439D01*
X160020743Y-75893358D01*
X160100697Y-75860240D01*
X160157233Y-75836822D01*
X160229682Y-75822411D01*
X160302130Y-75808000D01*
X160449870Y-75808000D01*
X160522318Y-75822411D01*
X160522318Y-75822411D01*
G37*
G36*
X135139451Y-75219127D02*
X135277105Y-75246508D01*
X135449994Y-75318121D01*
X135605590Y-75422087D01*
X135737913Y-75554410D01*
X135841879Y-75710006D01*
X135913492Y-75882895D01*
X135915573Y-75893358D01*
X135945959Y-76046115D01*
X135950000Y-76066433D01*
X135950000Y-76253567D01*
X135913492Y-76437105D01*
X135841879Y-76609994D01*
X135737913Y-76765590D01*
X135605590Y-76897913D01*
X135449994Y-77001879D01*
X135277105Y-77073492D01*
X135139451Y-77100873D01*
X135093568Y-77110000D01*
X134906432Y-77110000D01*
X134860549Y-77100873D01*
X134722895Y-77073492D01*
X134550006Y-77001879D01*
X134394410Y-76897913D01*
X134262087Y-76765590D01*
X134158121Y-76609994D01*
X134086508Y-76437105D01*
X134050000Y-76253567D01*
X134050000Y-76066433D01*
X134054042Y-76046115D01*
X134084427Y-75893358D01*
X134086508Y-75882895D01*
X134158121Y-75710006D01*
X134262087Y-75554410D01*
X134394410Y-75422087D01*
X134550006Y-75318121D01*
X134722895Y-75246508D01*
X134860549Y-75219127D01*
X134906432Y-75210000D01*
X135093568Y-75210000D01*
X135139451Y-75219127D01*
X135139451Y-75219127D01*
G37*
G36*
X142622947Y-73255722D02*
X142886833Y-73365027D01*
X143124324Y-73523713D01*
X143326287Y-73725676D01*
X143484973Y-73963167D01*
X143594278Y-74227053D01*
X143650000Y-74507186D01*
X143650000Y-74792814D01*
X143594278Y-75072947D01*
X143484973Y-75336833D01*
X143326287Y-75574324D01*
X143124324Y-75776287D01*
X142886833Y-75934973D01*
X142622947Y-76044278D01*
X142342814Y-76100000D01*
X142057186Y-76100000D01*
X141777053Y-76044278D01*
X141513167Y-75934973D01*
X141275676Y-75776287D01*
X141073713Y-75574324D01*
X140915027Y-75336833D01*
X140805722Y-75072947D01*
X140750000Y-74792814D01*
X140750000Y-74507186D01*
X140805722Y-74227053D01*
X140915027Y-73963167D01*
X141073713Y-73725676D01*
X141275676Y-73523713D01*
X141513167Y-73365027D01*
X141777053Y-73255722D01*
X142057186Y-73200000D01*
X142342814Y-73200000D01*
X142622947Y-73255722D01*
X142622947Y-73255722D01*
G37*
G36*
X135380000Y-72662000D02*
X133080000Y-72662000D01*
X133080000Y-70862000D01*
X135380000Y-70862000D01*
X135380000Y-72662000D01*
X135380000Y-72662000D01*
G37*
G36*
X139398997Y-64383997D02*
X139451653Y-64399970D01*
X139500165Y-64425900D01*
X139542696Y-64460804D01*
X139577600Y-64503335D01*
X139603530Y-64551847D01*
X139619503Y-64604503D01*
X139625500Y-64665390D01*
X139625500Y-65890610D01*
X139619503Y-65951497D01*
X139603530Y-66004153D01*
X139577600Y-66052665D01*
X139542696Y-66095196D01*
X139500165Y-66130100D01*
X139451653Y-66156030D01*
X139398997Y-66172003D01*
X139338110Y-66178000D01*
X138655000Y-66178000D01*
X138630614Y-66180402D01*
X138607165Y-66187515D01*
X138585554Y-66199066D01*
X138566612Y-66214612D01*
X138551066Y-66233554D01*
X138539515Y-66255165D01*
X138532402Y-66278614D01*
X138530000Y-66303000D01*
X138530000Y-69662000D01*
X137109884Y-69662000D01*
X137085498Y-69664402D01*
X137062049Y-69671515D01*
X137040438Y-69683066D01*
X137021496Y-69698612D01*
X137005950Y-69717554D01*
X136994399Y-69739165D01*
X136987286Y-69762614D01*
X136984884Y-69787000D01*
X136987286Y-69811386D01*
X137005000Y-69900441D01*
X137005000Y-70023557D01*
X136980981Y-70144306D01*
X136933868Y-70258048D01*
X136933867Y-70258049D01*
X136865467Y-70360417D01*
X136778417Y-70447467D01*
X136778414Y-70447469D01*
X136676048Y-70515868D01*
X136562306Y-70562981D01*
X136562305Y-70562981D01*
X136562303Y-70562982D01*
X136441559Y-70587000D01*
X136318441Y-70587000D01*
X136197697Y-70562982D01*
X136197695Y-70562981D01*
X136197694Y-70562981D01*
X136083952Y-70515868D01*
X135981586Y-70447469D01*
X135981583Y-70447467D01*
X135894533Y-70360417D01*
X135826133Y-70258049D01*
X135826132Y-70258048D01*
X135779019Y-70144306D01*
X135755000Y-70023557D01*
X135755000Y-69900443D01*
X135772715Y-69811386D01*
X135779018Y-69779697D01*
X135790392Y-69752237D01*
X135826132Y-69665952D01*
X135894531Y-69563586D01*
X135894533Y-69563583D01*
X135981583Y-69476533D01*
X136074446Y-69414484D01*
X136093388Y-69398938D01*
X136108934Y-69379996D01*
X136120485Y-69358386D01*
X136127598Y-69334936D01*
X136130000Y-69310550D01*
X136130000Y-66613450D01*
X136127598Y-66589064D01*
X136120485Y-66565615D01*
X136108934Y-66544004D01*
X136093388Y-66525062D01*
X136074446Y-66509516D01*
X135981583Y-66447467D01*
X135894533Y-66360417D01*
X135826133Y-66258049D01*
X135826132Y-66258048D01*
X135779019Y-66144306D01*
X135777566Y-66137000D01*
X135755000Y-66023559D01*
X135755000Y-65900441D01*
X135779018Y-65779697D01*
X135815919Y-65690609D01*
X135826132Y-65665952D01*
X135894531Y-65563586D01*
X135894533Y-65563583D01*
X135981583Y-65476533D01*
X136083951Y-65408133D01*
X136083952Y-65408132D01*
X136197694Y-65361019D01*
X136197695Y-65361019D01*
X136197697Y-65361018D01*
X136318441Y-65337000D01*
X136441559Y-65337000D01*
X136562303Y-65361018D01*
X136562305Y-65361019D01*
X136562306Y-65361019D01*
X136676048Y-65408132D01*
X136676049Y-65408133D01*
X136778417Y-65476533D01*
X136865467Y-65563583D01*
X136865469Y-65563586D01*
X136933868Y-65665952D01*
X136944081Y-65690609D01*
X136980982Y-65779697D01*
X137005000Y-65900441D01*
X137005000Y-66023559D01*
X136987286Y-66112614D01*
X136984884Y-66137000D01*
X136987286Y-66161387D01*
X136994399Y-66184836D01*
X137005950Y-66206446D01*
X137021496Y-66225389D01*
X137040438Y-66240934D01*
X137062049Y-66252485D01*
X137085498Y-66259598D01*
X137109884Y-66262000D01*
X138205906Y-66262000D01*
X138230292Y-66259598D01*
X138253741Y-66252485D01*
X138275352Y-66240934D01*
X138294294Y-66225388D01*
X138309840Y-66206446D01*
X138321391Y-66184835D01*
X138328504Y-66161386D01*
X138330906Y-66137000D01*
X138328504Y-66112614D01*
X138321391Y-66089165D01*
X138309840Y-66067554D01*
X138302532Y-66057700D01*
X138298400Y-66052665D01*
X138272470Y-66004153D01*
X138256497Y-65951497D01*
X138250500Y-65890610D01*
X138250500Y-64665390D01*
X138256497Y-64604503D01*
X138272470Y-64551847D01*
X138298400Y-64503335D01*
X138333304Y-64460804D01*
X138375835Y-64425900D01*
X138424347Y-64399970D01*
X138477003Y-64383997D01*
X138537890Y-64378000D01*
X139338110Y-64378000D01*
X139398997Y-64383997D01*
X139398997Y-64383997D01*
G37*
G36*
X147788622Y-68507017D02*
X147836585Y-68521566D01*
X147880775Y-68545186D01*
X147919518Y-68576982D01*
X147951314Y-68615725D01*
X147974934Y-68659915D01*
X147989483Y-68707878D01*
X147995000Y-68763891D01*
X147995000Y-69514109D01*
X147989483Y-69570122D01*
X147974934Y-69618085D01*
X147951314Y-69662275D01*
X147919518Y-69701018D01*
X147880775Y-69732814D01*
X147836585Y-69756434D01*
X147788622Y-69770983D01*
X147732609Y-69776500D01*
X146907391Y-69776500D01*
X146851378Y-69770983D01*
X146803415Y-69756434D01*
X146759225Y-69732814D01*
X146720482Y-69701018D01*
X146688686Y-69662275D01*
X146665066Y-69618085D01*
X146650517Y-69570122D01*
X146645000Y-69514109D01*
X146645000Y-68763891D01*
X146650517Y-68707878D01*
X146665066Y-68659915D01*
X146688686Y-68615725D01*
X146720482Y-68576982D01*
X146759225Y-68545186D01*
X146803415Y-68521566D01*
X146851378Y-68507017D01*
X146907391Y-68501500D01*
X147732609Y-68501500D01*
X147788622Y-68507017D01*
X147788622Y-68507017D01*
G37*
G36*
X145340000Y-69547000D02*
X143880000Y-69547000D01*
X143880000Y-66597000D01*
X145340000Y-66597000D01*
X145340000Y-69547000D01*
X145340000Y-69547000D01*
G37*
G36*
X143140000Y-69547000D02*
X141680000Y-69547000D01*
X141680000Y-66597000D01*
X143140000Y-66597000D01*
X143140000Y-69547000D01*
X143140000Y-69547000D01*
G37*
G36*
X160522318Y-67842411D02*
X160594767Y-67856822D01*
X160621412Y-67867859D01*
X160731257Y-67913358D01*
X160854100Y-67995439D01*
X160958561Y-68099900D01*
X161040642Y-68222743D01*
X161097178Y-68359234D01*
X161126000Y-68504130D01*
X161126000Y-68651870D01*
X161097178Y-68796766D01*
X161040642Y-68933257D01*
X160958561Y-69056100D01*
X160854100Y-69160561D01*
X160731257Y-69242642D01*
X160651303Y-69275760D01*
X160594767Y-69299178D01*
X160537596Y-69310550D01*
X160449870Y-69328000D01*
X160302130Y-69328000D01*
X160214404Y-69310550D01*
X160157233Y-69299178D01*
X160100697Y-69275760D01*
X160020743Y-69242642D01*
X159897900Y-69160561D01*
X159793439Y-69056100D01*
X159711358Y-68933257D01*
X159654822Y-68796766D01*
X159626000Y-68651870D01*
X159626000Y-68504130D01*
X159654822Y-68359234D01*
X159711358Y-68222743D01*
X159793439Y-68099900D01*
X159897900Y-67995439D01*
X160020743Y-67913358D01*
X160130588Y-67867859D01*
X160157233Y-67856822D01*
X160229682Y-67842411D01*
X160302130Y-67828000D01*
X160449870Y-67828000D01*
X160522318Y-67842411D01*
X160522318Y-67842411D01*
G37*
G36*
X140578974Y-67073148D02*
X140613568Y-67083642D01*
X140645441Y-67100678D01*
X140673387Y-67123613D01*
X140696322Y-67151559D01*
X140713358Y-67183432D01*
X140723852Y-67218026D01*
X140728000Y-67260141D01*
X140728000Y-67867859D01*
X140723852Y-67909974D01*
X140713358Y-67944568D01*
X140692213Y-67984128D01*
X140688243Y-67990069D01*
X140678864Y-68012708D01*
X140674083Y-68036741D01*
X140674081Y-68061245D01*
X140678860Y-68085279D01*
X140688237Y-68107918D01*
X140692205Y-68113858D01*
X140713358Y-68153432D01*
X140723852Y-68188026D01*
X140728000Y-68230141D01*
X140728000Y-68837859D01*
X140723852Y-68879974D01*
X140713358Y-68914568D01*
X140696322Y-68946441D01*
X140673387Y-68974387D01*
X140645441Y-68997322D01*
X140613568Y-69014358D01*
X140578974Y-69024852D01*
X140536859Y-69029000D01*
X139879141Y-69029000D01*
X139837026Y-69024852D01*
X139802432Y-69014358D01*
X139770559Y-68997322D01*
X139742613Y-68974387D01*
X139719678Y-68946441D01*
X139702642Y-68914568D01*
X139692148Y-68879974D01*
X139688000Y-68837859D01*
X139688000Y-68230141D01*
X139692148Y-68188026D01*
X139702642Y-68153432D01*
X139723787Y-68113872D01*
X139727757Y-68107931D01*
X139737136Y-68085292D01*
X139741917Y-68061259D01*
X139741919Y-68036755D01*
X139737140Y-68012721D01*
X139727763Y-67990082D01*
X139723795Y-67984142D01*
X139702642Y-67944568D01*
X139692148Y-67909974D01*
X139688000Y-67867859D01*
X139688000Y-67260141D01*
X139692148Y-67218026D01*
X139702642Y-67183432D01*
X139719678Y-67151559D01*
X139742613Y-67123613D01*
X139770559Y-67100678D01*
X139802432Y-67083642D01*
X139837026Y-67073148D01*
X139879141Y-67069000D01*
X140536859Y-67069000D01*
X140578974Y-67073148D01*
X140578974Y-67073148D01*
G37*
G36*
X147788622Y-66932017D02*
X147836585Y-66946566D01*
X147880775Y-66970186D01*
X147919518Y-67001982D01*
X147951314Y-67040725D01*
X147974934Y-67084915D01*
X147989483Y-67132878D01*
X147995000Y-67188891D01*
X147995000Y-67939109D01*
X147989483Y-67995122D01*
X147974934Y-68043085D01*
X147951314Y-68087275D01*
X147919518Y-68126018D01*
X147880775Y-68157814D01*
X147836585Y-68181434D01*
X147788622Y-68195983D01*
X147732609Y-68201500D01*
X146907391Y-68201500D01*
X146851378Y-68195983D01*
X146803415Y-68181434D01*
X146759225Y-68157814D01*
X146720482Y-68126018D01*
X146688686Y-68087275D01*
X146665066Y-68043085D01*
X146650517Y-67995122D01*
X146645000Y-67939109D01*
X146645000Y-67188891D01*
X146650517Y-67132878D01*
X146665066Y-67084915D01*
X146688686Y-67040725D01*
X146720482Y-67001982D01*
X146759225Y-66970186D01*
X146803415Y-66946566D01*
X146851378Y-66932017D01*
X146907391Y-66926500D01*
X147732609Y-66926500D01*
X147788622Y-66932017D01*
X147788622Y-66932017D01*
G37*
G36*
X141273997Y-64383997D02*
X141326653Y-64399970D01*
X141375165Y-64425900D01*
X141417696Y-64460804D01*
X141452600Y-64503335D01*
X141478530Y-64551847D01*
X141494503Y-64604503D01*
X141500500Y-64665390D01*
X141500500Y-65890610D01*
X141494503Y-65951497D01*
X141478530Y-66004153D01*
X141452600Y-66052665D01*
X141417696Y-66095196D01*
X141375165Y-66130100D01*
X141326653Y-66156030D01*
X141273997Y-66172003D01*
X141213110Y-66178000D01*
X140412890Y-66178000D01*
X140352003Y-66172003D01*
X140299347Y-66156030D01*
X140250835Y-66130100D01*
X140208304Y-66095196D01*
X140173400Y-66052665D01*
X140147470Y-66004153D01*
X140131497Y-65951497D01*
X140125500Y-65890610D01*
X140125500Y-64665390D01*
X140131497Y-64604503D01*
X140147470Y-64551847D01*
X140173400Y-64503335D01*
X140208304Y-64460804D01*
X140250835Y-64425900D01*
X140299347Y-64399970D01*
X140352003Y-64383997D01*
X140412890Y-64378000D01*
X141213110Y-64378000D01*
X141273997Y-64383997D01*
X141273997Y-64383997D01*
G37*
G36*
X144500122Y-64608517D02*
X144548085Y-64623066D01*
X144596976Y-64649199D01*
X144619615Y-64658577D01*
X144643648Y-64663357D01*
X144655900Y-64663357D01*
X144655900Y-64663400D01*
X146431900Y-64663400D01*
X146431900Y-66136600D01*
X144780900Y-66136600D01*
X144780900Y-66017041D01*
X144778498Y-65992655D01*
X144771385Y-65969206D01*
X144759834Y-65947595D01*
X144744288Y-65928653D01*
X144725346Y-65913107D01*
X144703735Y-65901556D01*
X144680286Y-65894443D01*
X144655900Y-65892041D01*
X144631514Y-65894443D01*
X144596976Y-65906801D01*
X144548085Y-65932934D01*
X144500122Y-65947483D01*
X144444109Y-65953000D01*
X143693891Y-65953000D01*
X143637878Y-65947483D01*
X143589915Y-65932934D01*
X143545725Y-65909314D01*
X143506982Y-65877518D01*
X143475186Y-65838775D01*
X143451566Y-65794585D01*
X143437017Y-65746622D01*
X143431500Y-65690609D01*
X143431500Y-64865391D01*
X143437017Y-64809378D01*
X143451566Y-64761415D01*
X143475186Y-64717225D01*
X143506982Y-64678482D01*
X143545725Y-64646686D01*
X143589915Y-64623066D01*
X143637878Y-64608517D01*
X143693891Y-64603000D01*
X144444109Y-64603000D01*
X144500122Y-64608517D01*
X144500122Y-64608517D01*
G37*
G36*
X142925122Y-64608517D02*
X142973085Y-64623066D01*
X143017275Y-64646686D01*
X143056018Y-64678482D01*
X143087814Y-64717225D01*
X143111434Y-64761415D01*
X143125983Y-64809378D01*
X143131500Y-64865391D01*
X143131500Y-65690609D01*
X143125983Y-65746622D01*
X143111434Y-65794585D01*
X143087814Y-65838775D01*
X143056018Y-65877518D01*
X143017275Y-65909314D01*
X142973085Y-65932934D01*
X142925122Y-65947483D01*
X142869109Y-65953000D01*
X142118891Y-65953000D01*
X142062878Y-65947483D01*
X142014915Y-65932934D01*
X141970725Y-65909314D01*
X141931982Y-65877518D01*
X141900186Y-65838775D01*
X141876566Y-65794585D01*
X141862017Y-65746622D01*
X141856500Y-65690609D01*
X141856500Y-64865391D01*
X141862017Y-64809378D01*
X141876566Y-64761415D01*
X141900186Y-64717225D01*
X141931982Y-64678482D01*
X141970725Y-64646686D01*
X142014915Y-64623066D01*
X142062878Y-64608517D01*
X142118891Y-64603000D01*
X142869109Y-64603000D01*
X142925122Y-64608517D01*
X142925122Y-64608517D01*
G37*
G36*
X151276000Y-65578000D02*
X149476000Y-65578000D01*
X149476000Y-63978000D01*
X151276000Y-63978000D01*
X151276000Y-65578000D01*
X151276000Y-65578000D01*
G37*
G36*
X135380000Y-65062000D02*
X133080000Y-65062000D01*
X133080000Y-63262000D01*
X135380000Y-63262000D01*
X135380000Y-65062000D01*
X135380000Y-65062000D01*
G37*
G36*
X161276000Y-64678000D02*
X158676000Y-64678000D01*
X158676000Y-63078000D01*
X161276000Y-63078000D01*
X161276000Y-64678000D01*
X161276000Y-64678000D01*
G37*
M02*
