G04 #@! TF.GenerationSoftware,KiCad,Pcbnew,(5.0.1)-rc2*
G04 #@! TF.CreationDate,2019-10-07T13:01:37-07:00*
G04 #@! TF.ProjectId,GPSLogger,4750534C6F676765722E6B696361645F,rev?*
G04 #@! TF.SameCoordinates,Original*
G04 #@! TF.FileFunction,Legend,Bot*
G04 #@! TF.FilePolarity,Positive*
%FSLAX46Y46*%
G04 Gerber Fmt 4.6, Leading zero omitted, Abs format (unit mm)*
G04 Created by KiCad (PCBNEW (5.0.1)-rc2) date 10/7/2019 1:01:37 PM*
%MOMM*%
%LPD*%
G01*
G04 APERTURE LIST*
%ADD10C,0.100000*%
%ADD11C,0.120000*%
%ADD12C,0.150000*%
%ADD13C,0.090000*%
G04 APERTURE END LIST*
D10*
X207282952Y-75725523D02*
X207932952Y-75725523D01*
X207932952Y-75570761D01*
X207902000Y-75477904D01*
X207840095Y-75416000D01*
X207778190Y-75385047D01*
X207654380Y-75354095D01*
X207561523Y-75354095D01*
X207437714Y-75385047D01*
X207375809Y-75416000D01*
X207313904Y-75477904D01*
X207282952Y-75570761D01*
X207282952Y-75725523D01*
X207313904Y-74827904D02*
X207282952Y-74889809D01*
X207282952Y-75013619D01*
X207313904Y-75075523D01*
X207375809Y-75106476D01*
X207623428Y-75106476D01*
X207685333Y-75075523D01*
X207716285Y-75013619D01*
X207716285Y-74889809D01*
X207685333Y-74827904D01*
X207623428Y-74796952D01*
X207561523Y-74796952D01*
X207499619Y-75106476D01*
X207282952Y-74239809D02*
X207623428Y-74239809D01*
X207685333Y-74270761D01*
X207716285Y-74332666D01*
X207716285Y-74456476D01*
X207685333Y-74518380D01*
X207313904Y-74239809D02*
X207282952Y-74301714D01*
X207282952Y-74456476D01*
X207313904Y-74518380D01*
X207375809Y-74549333D01*
X207437714Y-74549333D01*
X207499619Y-74518380D01*
X207530571Y-74456476D01*
X207530571Y-74301714D01*
X207561523Y-74239809D01*
X207282952Y-73651714D02*
X207932952Y-73651714D01*
X207313904Y-73651714D02*
X207282952Y-73713619D01*
X207282952Y-73837428D01*
X207313904Y-73899333D01*
X207344857Y-73930285D01*
X207406761Y-73961238D01*
X207592476Y-73961238D01*
X207654380Y-73930285D01*
X207685333Y-73899333D01*
X207716285Y-73837428D01*
X207716285Y-73713619D01*
X207685333Y-73651714D01*
X207282952Y-73342190D02*
X207932952Y-73342190D01*
X207685333Y-73342190D02*
X207716285Y-73280285D01*
X207716285Y-73156476D01*
X207685333Y-73094571D01*
X207654380Y-73063619D01*
X207592476Y-73032666D01*
X207406761Y-73032666D01*
X207344857Y-73063619D01*
X207313904Y-73094571D01*
X207282952Y-73156476D01*
X207282952Y-73280285D01*
X207313904Y-73342190D01*
X207716285Y-72475523D02*
X207282952Y-72475523D01*
X207716285Y-72754095D02*
X207375809Y-72754095D01*
X207313904Y-72723142D01*
X207282952Y-72661238D01*
X207282952Y-72568380D01*
X207313904Y-72506476D01*
X207344857Y-72475523D01*
X207716285Y-71887428D02*
X207190095Y-71887428D01*
X207128190Y-71918380D01*
X207097238Y-71949333D01*
X207066285Y-72011238D01*
X207066285Y-72104095D01*
X207097238Y-72166000D01*
X207313904Y-71887428D02*
X207282952Y-71949333D01*
X207282952Y-72073142D01*
X207313904Y-72135047D01*
X207344857Y-72166000D01*
X207406761Y-72196952D01*
X207592476Y-72196952D01*
X207654380Y-72166000D01*
X207685333Y-72135047D01*
X207716285Y-72073142D01*
X207716285Y-71949333D01*
X207685333Y-71887428D01*
X207623428Y-71082666D02*
X207623428Y-70866000D01*
X207282952Y-70773142D02*
X207282952Y-71082666D01*
X207932952Y-71082666D01*
X207932952Y-70773142D01*
X207282952Y-70401714D02*
X207313904Y-70463619D01*
X207375809Y-70494571D01*
X207932952Y-70494571D01*
X207313904Y-69906476D02*
X207282952Y-69968380D01*
X207282952Y-70092190D01*
X207313904Y-70154095D01*
X207375809Y-70185047D01*
X207623428Y-70185047D01*
X207685333Y-70154095D01*
X207716285Y-70092190D01*
X207716285Y-69968380D01*
X207685333Y-69906476D01*
X207623428Y-69875523D01*
X207561523Y-69875523D01*
X207499619Y-70185047D01*
X207313904Y-69318380D02*
X207282952Y-69380285D01*
X207282952Y-69504095D01*
X207313904Y-69566000D01*
X207344857Y-69596952D01*
X207406761Y-69627904D01*
X207592476Y-69627904D01*
X207654380Y-69596952D01*
X207685333Y-69566000D01*
X207716285Y-69504095D01*
X207716285Y-69380285D01*
X207685333Y-69318380D01*
X207716285Y-69132666D02*
X207716285Y-68885047D01*
X207932952Y-69039809D02*
X207375809Y-69039809D01*
X207313904Y-69008857D01*
X207282952Y-68946952D01*
X207282952Y-68885047D01*
X207282952Y-68668380D02*
X207716285Y-68668380D01*
X207592476Y-68668380D02*
X207654380Y-68637428D01*
X207685333Y-68606476D01*
X207716285Y-68544571D01*
X207716285Y-68482666D01*
X207282952Y-68173142D02*
X207313904Y-68235047D01*
X207344857Y-68266000D01*
X207406761Y-68296952D01*
X207592476Y-68296952D01*
X207654380Y-68266000D01*
X207685333Y-68235047D01*
X207716285Y-68173142D01*
X207716285Y-68080285D01*
X207685333Y-68018380D01*
X207654380Y-67987428D01*
X207592476Y-67956476D01*
X207406761Y-67956476D01*
X207344857Y-67987428D01*
X207313904Y-68018380D01*
X207282952Y-68080285D01*
X207282952Y-68173142D01*
X207716285Y-67677904D02*
X207282952Y-67677904D01*
X207654380Y-67677904D02*
X207685333Y-67646952D01*
X207716285Y-67585047D01*
X207716285Y-67492190D01*
X207685333Y-67430285D01*
X207623428Y-67399333D01*
X207282952Y-67399333D01*
X207282952Y-67089809D02*
X207716285Y-67089809D01*
X207932952Y-67089809D02*
X207902000Y-67120761D01*
X207871047Y-67089809D01*
X207902000Y-67058857D01*
X207932952Y-67089809D01*
X207871047Y-67089809D01*
X207313904Y-66501714D02*
X207282952Y-66563619D01*
X207282952Y-66687428D01*
X207313904Y-66749333D01*
X207344857Y-66780285D01*
X207406761Y-66811238D01*
X207592476Y-66811238D01*
X207654380Y-66780285D01*
X207685333Y-66749333D01*
X207716285Y-66687428D01*
X207716285Y-66563619D01*
X207685333Y-66501714D01*
X207313904Y-66254095D02*
X207282952Y-66192190D01*
X207282952Y-66068380D01*
X207313904Y-66006476D01*
X207375809Y-65975523D01*
X207406761Y-65975523D01*
X207468666Y-66006476D01*
X207499619Y-66068380D01*
X207499619Y-66161238D01*
X207530571Y-66223142D01*
X207592476Y-66254095D01*
X207623428Y-66254095D01*
X207685333Y-66223142D01*
X207716285Y-66161238D01*
X207716285Y-66068380D01*
X207685333Y-66006476D01*
X206827000Y-74038619D02*
X206857952Y-74100523D01*
X206857952Y-74193380D01*
X206827000Y-74286238D01*
X206765095Y-74348142D01*
X206703190Y-74379095D01*
X206579380Y-74410047D01*
X206486523Y-74410047D01*
X206362714Y-74379095D01*
X206300809Y-74348142D01*
X206238904Y-74286238D01*
X206207952Y-74193380D01*
X206207952Y-74131476D01*
X206238904Y-74038619D01*
X206269857Y-74007666D01*
X206486523Y-74007666D01*
X206486523Y-74131476D01*
X206207952Y-73729095D02*
X206857952Y-73729095D01*
X206857952Y-73481476D01*
X206827000Y-73419571D01*
X206796047Y-73388619D01*
X206734142Y-73357666D01*
X206641285Y-73357666D01*
X206579380Y-73388619D01*
X206548428Y-73419571D01*
X206517476Y-73481476D01*
X206517476Y-73729095D01*
X206238904Y-73110047D02*
X206207952Y-73017190D01*
X206207952Y-72862428D01*
X206238904Y-72800523D01*
X206269857Y-72769571D01*
X206331761Y-72738619D01*
X206393666Y-72738619D01*
X206455571Y-72769571D01*
X206486523Y-72800523D01*
X206517476Y-72862428D01*
X206548428Y-72986238D01*
X206579380Y-73048142D01*
X206610333Y-73079095D01*
X206672238Y-73110047D01*
X206734142Y-73110047D01*
X206796047Y-73079095D01*
X206827000Y-73048142D01*
X206857952Y-72986238D01*
X206857952Y-72831476D01*
X206827000Y-72738619D01*
X206207952Y-71655285D02*
X206207952Y-71964809D01*
X206857952Y-71964809D01*
X206207952Y-71345761D02*
X206238904Y-71407666D01*
X206269857Y-71438619D01*
X206331761Y-71469571D01*
X206517476Y-71469571D01*
X206579380Y-71438619D01*
X206610333Y-71407666D01*
X206641285Y-71345761D01*
X206641285Y-71252904D01*
X206610333Y-71191000D01*
X206579380Y-71160047D01*
X206517476Y-71129095D01*
X206331761Y-71129095D01*
X206269857Y-71160047D01*
X206238904Y-71191000D01*
X206207952Y-71252904D01*
X206207952Y-71345761D01*
X206641285Y-70571952D02*
X206115095Y-70571952D01*
X206053190Y-70602904D01*
X206022238Y-70633857D01*
X205991285Y-70695761D01*
X205991285Y-70788619D01*
X206022238Y-70850523D01*
X206238904Y-70571952D02*
X206207952Y-70633857D01*
X206207952Y-70757666D01*
X206238904Y-70819571D01*
X206269857Y-70850523D01*
X206331761Y-70881476D01*
X206517476Y-70881476D01*
X206579380Y-70850523D01*
X206610333Y-70819571D01*
X206641285Y-70757666D01*
X206641285Y-70633857D01*
X206610333Y-70571952D01*
X206641285Y-69983857D02*
X206115095Y-69983857D01*
X206053190Y-70014809D01*
X206022238Y-70045761D01*
X205991285Y-70107666D01*
X205991285Y-70200523D01*
X206022238Y-70262428D01*
X206238904Y-69983857D02*
X206207952Y-70045761D01*
X206207952Y-70169571D01*
X206238904Y-70231476D01*
X206269857Y-70262428D01*
X206331761Y-70293380D01*
X206517476Y-70293380D01*
X206579380Y-70262428D01*
X206610333Y-70231476D01*
X206641285Y-70169571D01*
X206641285Y-70045761D01*
X206610333Y-69983857D01*
X206238904Y-69426714D02*
X206207952Y-69488619D01*
X206207952Y-69612428D01*
X206238904Y-69674333D01*
X206300809Y-69705285D01*
X206548428Y-69705285D01*
X206610333Y-69674333D01*
X206641285Y-69612428D01*
X206641285Y-69488619D01*
X206610333Y-69426714D01*
X206548428Y-69395761D01*
X206486523Y-69395761D01*
X206424619Y-69705285D01*
X206207952Y-69117190D02*
X206641285Y-69117190D01*
X206517476Y-69117190D02*
X206579380Y-69086238D01*
X206610333Y-69055285D01*
X206641285Y-68993380D01*
X206641285Y-68931476D01*
X206857952Y-68312428D02*
X206207952Y-68095761D01*
X206857952Y-67879095D01*
X206579380Y-67569571D02*
X206610333Y-67631476D01*
X206641285Y-67662428D01*
X206703190Y-67693380D01*
X206734142Y-67693380D01*
X206796047Y-67662428D01*
X206827000Y-67631476D01*
X206857952Y-67569571D01*
X206857952Y-67445761D01*
X206827000Y-67383857D01*
X206796047Y-67352904D01*
X206734142Y-67321952D01*
X206703190Y-67321952D01*
X206641285Y-67352904D01*
X206610333Y-67383857D01*
X206579380Y-67445761D01*
X206579380Y-67569571D01*
X206548428Y-67631476D01*
X206517476Y-67662428D01*
X206455571Y-67693380D01*
X206331761Y-67693380D01*
X206269857Y-67662428D01*
X206238904Y-67631476D01*
X206207952Y-67569571D01*
X206207952Y-67445761D01*
X206238904Y-67383857D01*
X206269857Y-67352904D01*
X206331761Y-67321952D01*
X206455571Y-67321952D01*
X206517476Y-67352904D01*
X206548428Y-67383857D01*
X206579380Y-67445761D01*
X205163904Y-73512428D02*
X205132952Y-73419571D01*
X205132952Y-73264809D01*
X205163904Y-73202904D01*
X205194857Y-73171952D01*
X205256761Y-73141000D01*
X205318666Y-73141000D01*
X205380571Y-73171952D01*
X205411523Y-73202904D01*
X205442476Y-73264809D01*
X205473428Y-73388619D01*
X205504380Y-73450523D01*
X205535333Y-73481476D01*
X205597238Y-73512428D01*
X205659142Y-73512428D01*
X205721047Y-73481476D01*
X205752000Y-73450523D01*
X205782952Y-73388619D01*
X205782952Y-73233857D01*
X205752000Y-73141000D01*
X205163904Y-72583857D02*
X205132952Y-72645761D01*
X205132952Y-72769571D01*
X205163904Y-72831476D01*
X205194857Y-72862428D01*
X205256761Y-72893380D01*
X205442476Y-72893380D01*
X205504380Y-72862428D01*
X205535333Y-72831476D01*
X205566285Y-72769571D01*
X205566285Y-72645761D01*
X205535333Y-72583857D01*
X205132952Y-72212428D02*
X205163904Y-72274333D01*
X205194857Y-72305285D01*
X205256761Y-72336238D01*
X205442476Y-72336238D01*
X205504380Y-72305285D01*
X205535333Y-72274333D01*
X205566285Y-72212428D01*
X205566285Y-72119571D01*
X205535333Y-72057666D01*
X205504380Y-72026714D01*
X205442476Y-71995761D01*
X205256761Y-71995761D01*
X205194857Y-72026714D01*
X205163904Y-72057666D01*
X205132952Y-72119571D01*
X205132952Y-72212428D01*
X205566285Y-71810047D02*
X205566285Y-71562428D01*
X205782952Y-71717190D02*
X205225809Y-71717190D01*
X205163904Y-71686238D01*
X205132952Y-71624333D01*
X205132952Y-71562428D01*
X205566285Y-71438619D02*
X205566285Y-71191000D01*
X205782952Y-71345761D02*
X205225809Y-71345761D01*
X205163904Y-71314809D01*
X205132952Y-71252904D01*
X205132952Y-71191000D01*
X205132952Y-70479095D02*
X205782952Y-70479095D01*
X205132952Y-70107666D01*
X205782952Y-70107666D01*
X205163904Y-69550523D02*
X205132952Y-69612428D01*
X205132952Y-69736238D01*
X205163904Y-69798142D01*
X205225809Y-69829095D01*
X205473428Y-69829095D01*
X205535333Y-69798142D01*
X205566285Y-69736238D01*
X205566285Y-69612428D01*
X205535333Y-69550523D01*
X205473428Y-69519571D01*
X205411523Y-69519571D01*
X205349619Y-69829095D01*
X205566285Y-69333857D02*
X205566285Y-69086238D01*
X205782952Y-69241000D02*
X205225809Y-69241000D01*
X205163904Y-69210047D01*
X205132952Y-69148142D01*
X205132952Y-69086238D01*
X205566285Y-68962428D02*
X205566285Y-68714809D01*
X205782952Y-68869571D02*
X205225809Y-68869571D01*
X205163904Y-68838619D01*
X205132952Y-68776714D01*
X205132952Y-68714809D01*
X205163904Y-68250523D02*
X205132952Y-68312428D01*
X205132952Y-68436238D01*
X205163904Y-68498142D01*
X205225809Y-68529095D01*
X205473428Y-68529095D01*
X205535333Y-68498142D01*
X205566285Y-68436238D01*
X205566285Y-68312428D01*
X205535333Y-68250523D01*
X205473428Y-68219571D01*
X205411523Y-68219571D01*
X205349619Y-68529095D01*
D11*
G04 #@! TO.C,C7*
X149575279Y-120390000D02*
X149249721Y-120390000D01*
X149575279Y-121410000D02*
X149249721Y-121410000D01*
D12*
G04 #@! TO.C,J7*
X137500000Y-120300000D02*
X146500000Y-120300000D01*
X146500000Y-120300000D02*
X146500000Y-116300000D01*
X146500000Y-116300000D02*
X137500000Y-116300000D01*
X137500000Y-116300000D02*
X137500000Y-120300000D01*
D11*
G04 #@! TO.C,D3*
X134700000Y-120950000D02*
X134700000Y-117050000D01*
X132700000Y-120950000D02*
X132700000Y-117050000D01*
X134700000Y-120950000D02*
X132700000Y-120950000D01*
G04 #@! TO.C,U6*
X154146000Y-121828000D02*
X151696000Y-121828000D01*
X152346000Y-118608000D02*
X154146000Y-118608000D01*
G04 #@! TO.C,C14*
X158810000Y-119801221D02*
X158810000Y-120126779D01*
X157790000Y-119801221D02*
X157790000Y-120126779D01*
G04 #@! TO.C,C15*
X153324779Y-116660000D02*
X152999221Y-116660000D01*
X153324779Y-117680000D02*
X152999221Y-117680000D01*
G04 #@! TO.C,L7*
X156974000Y-120101279D02*
X156974000Y-119775721D01*
X155954000Y-120101279D02*
X155954000Y-119775721D01*
G04 #@! TO.C,EINK_L1*
D13*
X162292857Y-122307142D02*
X162092857Y-122307142D01*
X162007142Y-122621428D02*
X162292857Y-122621428D01*
X162292857Y-122021428D01*
X162007142Y-122021428D01*
X161750000Y-122621428D02*
X161750000Y-122021428D01*
X161464285Y-122621428D02*
X161464285Y-122021428D01*
X161121428Y-122621428D01*
X161121428Y-122021428D01*
X160835714Y-122621428D02*
X160835714Y-122021428D01*
X160492857Y-122621428D02*
X160750000Y-122278571D01*
X160492857Y-122021428D02*
X160835714Y-122364285D01*
X160378571Y-122678571D02*
X159921428Y-122678571D01*
X159492857Y-122621428D02*
X159778571Y-122621428D01*
X159778571Y-122021428D01*
X158978571Y-122621428D02*
X159321428Y-122621428D01*
X159150000Y-122621428D02*
X159150000Y-122021428D01*
X159207142Y-122107142D01*
X159264285Y-122164285D01*
X159321428Y-122192857D01*
G04 #@! TO.C,C7*
X148018285Y-119891500D02*
X148046857Y-119862928D01*
X148075428Y-119777214D01*
X148075428Y-119720071D01*
X148046857Y-119634357D01*
X147989714Y-119577214D01*
X147932571Y-119548642D01*
X147818285Y-119520071D01*
X147732571Y-119520071D01*
X147618285Y-119548642D01*
X147561142Y-119577214D01*
X147504000Y-119634357D01*
X147475428Y-119720071D01*
X147475428Y-119777214D01*
X147504000Y-119862928D01*
X147532571Y-119891500D01*
X147475428Y-120091500D02*
X147475428Y-120491500D01*
X148075428Y-120234357D01*
G04 #@! TO.C,J7*
D12*
X137833333Y-119252380D02*
X137833333Y-119966666D01*
X137880952Y-120109523D01*
X137976190Y-120204761D01*
X138119047Y-120252380D01*
X138214285Y-120252380D01*
X137452380Y-119252380D02*
X136785714Y-119252380D01*
X137214285Y-120252380D01*
G04 #@! TO.C,D3*
D13*
X134200857Y-121892428D02*
X134200857Y-121292428D01*
X134058000Y-121292428D01*
X133972285Y-121321000D01*
X133915142Y-121378142D01*
X133886571Y-121435285D01*
X133858000Y-121549571D01*
X133858000Y-121635285D01*
X133886571Y-121749571D01*
X133915142Y-121806714D01*
X133972285Y-121863857D01*
X134058000Y-121892428D01*
X134200857Y-121892428D01*
X133658000Y-121292428D02*
X133286571Y-121292428D01*
X133486571Y-121521000D01*
X133400857Y-121521000D01*
X133343714Y-121549571D01*
X133315142Y-121578142D01*
X133286571Y-121635285D01*
X133286571Y-121778142D01*
X133315142Y-121835285D01*
X133343714Y-121863857D01*
X133400857Y-121892428D01*
X133572285Y-121892428D01*
X133629428Y-121863857D01*
X133658000Y-121835285D01*
G04 #@! TO.C,U6*
X151103142Y-118289428D02*
X151103142Y-118775142D01*
X151074571Y-118832285D01*
X151046000Y-118860857D01*
X150988857Y-118889428D01*
X150874571Y-118889428D01*
X150817428Y-118860857D01*
X150788857Y-118832285D01*
X150760285Y-118775142D01*
X150760285Y-118289428D01*
X150217428Y-118289428D02*
X150331714Y-118289428D01*
X150388857Y-118318000D01*
X150417428Y-118346571D01*
X150474571Y-118432285D01*
X150503142Y-118546571D01*
X150503142Y-118775142D01*
X150474571Y-118832285D01*
X150446000Y-118860857D01*
X150388857Y-118889428D01*
X150274571Y-118889428D01*
X150217428Y-118860857D01*
X150188857Y-118832285D01*
X150160285Y-118775142D01*
X150160285Y-118632285D01*
X150188857Y-118575142D01*
X150217428Y-118546571D01*
X150274571Y-118518000D01*
X150388857Y-118518000D01*
X150446000Y-118546571D01*
X150474571Y-118575142D01*
X150503142Y-118632285D01*
G04 #@! TO.C,C14*
X158628985Y-122947285D02*
X158657557Y-122918714D01*
X158686128Y-122833000D01*
X158686128Y-122775857D01*
X158657557Y-122690142D01*
X158600414Y-122633000D01*
X158543271Y-122604428D01*
X158428985Y-122575857D01*
X158343271Y-122575857D01*
X158228985Y-122604428D01*
X158171842Y-122633000D01*
X158114700Y-122690142D01*
X158086128Y-122775857D01*
X158086128Y-122833000D01*
X158114700Y-122918714D01*
X158143271Y-122947285D01*
X158686128Y-123518714D02*
X158686128Y-123175857D01*
X158686128Y-123347285D02*
X158086128Y-123347285D01*
X158171842Y-123290142D01*
X158228985Y-123233000D01*
X158257557Y-123175857D01*
X158286128Y-124033000D02*
X158686128Y-124033000D01*
X158057557Y-123890142D02*
X158486128Y-123747285D01*
X158486128Y-124118714D01*
G04 #@! TO.C,C15*
X152795285Y-115179785D02*
X152823857Y-115151214D01*
X152852428Y-115065500D01*
X152852428Y-115008357D01*
X152823857Y-114922642D01*
X152766714Y-114865500D01*
X152709571Y-114836928D01*
X152595285Y-114808357D01*
X152509571Y-114808357D01*
X152395285Y-114836928D01*
X152338142Y-114865500D01*
X152281000Y-114922642D01*
X152252428Y-115008357D01*
X152252428Y-115065500D01*
X152281000Y-115151214D01*
X152309571Y-115179785D01*
X152852428Y-115751214D02*
X152852428Y-115408357D01*
X152852428Y-115579785D02*
X152252428Y-115579785D01*
X152338142Y-115522642D01*
X152395285Y-115465500D01*
X152423857Y-115408357D01*
X152252428Y-116294071D02*
X152252428Y-116008357D01*
X152538142Y-115979785D01*
X152509571Y-116008357D01*
X152481000Y-116065500D01*
X152481000Y-116208357D01*
X152509571Y-116265500D01*
X152538142Y-116294071D01*
X152595285Y-116322642D01*
X152738142Y-116322642D01*
X152795285Y-116294071D01*
X152823857Y-116265500D01*
X152852428Y-116208357D01*
X152852428Y-116065500D01*
X152823857Y-116008357D01*
X152795285Y-115979785D01*
G04 #@! TO.C,L7*
X156682128Y-122056700D02*
X156682128Y-121770985D01*
X156082128Y-121770985D01*
X156082128Y-122199557D02*
X156082128Y-122599557D01*
X156682128Y-122342414D01*
G04 #@! TD*
M02*
