G04 #@! TF.GenerationSoftware,KiCad,Pcbnew,(5.0.1)-rc2*
G04 #@! TF.CreationDate,2019-10-07T13:01:37-07:00*
G04 #@! TF.ProjectId,GPSLogger,4750534C6F676765722E6B696361645F,rev?*
G04 #@! TF.SameCoordinates,Original*
G04 #@! TF.FileFunction,Soldermask,Bot*
G04 #@! TF.FilePolarity,Negative*
%FSLAX46Y46*%
G04 Gerber Fmt 4.6, Leading zero omitted, Abs format (unit mm)*
G04 Created by KiCad (PCBNEW (5.0.1)-rc2) date 10/7/2019 1:01:37 PM*
%MOMM*%
%LPD*%
G01*
G04 APERTURE LIST*
%ADD10C,0.100000*%
G04 APERTURE END LIST*
D10*
G36*
X148200000Y-120037967D02*
X148190408Y-120028375D01*
X148170034Y-120014761D01*
X148147395Y-120005383D01*
X148123362Y-120000602D01*
X148111108Y-120000000D01*
X145745000Y-120000000D01*
X145720614Y-120002402D01*
X145697165Y-120009515D01*
X145675554Y-120021066D01*
X145656612Y-120036612D01*
X145641066Y-120055554D01*
X145629515Y-120077165D01*
X145622402Y-120100614D01*
X145620000Y-120125000D01*
X145620000Y-122000000D01*
X143720000Y-122000000D01*
X143720000Y-119600000D01*
X145675000Y-119600000D01*
X145699386Y-119597598D01*
X145722835Y-119590485D01*
X145744446Y-119578934D01*
X145763388Y-119563388D01*
X145778934Y-119544446D01*
X145790485Y-119522835D01*
X145797598Y-119499386D01*
X145800000Y-119475000D01*
X145800000Y-116600000D01*
X148200000Y-116600000D01*
X148200000Y-120037967D01*
X148200000Y-120037967D01*
G37*
G36*
X143035000Y-122000000D02*
X141135000Y-122000000D01*
X141135000Y-119600000D01*
X143035000Y-119600000D01*
X143035000Y-122000000D01*
X143035000Y-122000000D01*
G37*
G36*
X140450000Y-122000000D02*
X138550000Y-122000000D01*
X138550000Y-119600000D01*
X140450000Y-119600000D01*
X140450000Y-122000000D01*
X140450000Y-122000000D01*
G37*
G36*
X152876000Y-121693000D02*
X151416000Y-121693000D01*
X151416000Y-118743000D01*
X152876000Y-118743000D01*
X152876000Y-121693000D01*
X152876000Y-121693000D01*
G37*
G36*
X155076000Y-121693000D02*
X153616000Y-121693000D01*
X153616000Y-118743000D01*
X155076000Y-118743000D01*
X155076000Y-121693000D01*
X155076000Y-121693000D01*
G37*
G36*
X161350000Y-121600000D02*
X159450000Y-121600000D01*
X159450000Y-117000000D01*
X161350000Y-117000000D01*
X161350000Y-121600000D01*
X161350000Y-121600000D01*
G37*
G36*
X164950000Y-121600000D02*
X163050000Y-121600000D01*
X163050000Y-117000000D01*
X164950000Y-117000000D01*
X164950000Y-121600000D01*
X164950000Y-121600000D01*
G37*
G36*
X148236612Y-120188388D02*
X148255554Y-120203934D01*
X148277165Y-120215485D01*
X148300614Y-120222598D01*
X148325000Y-120225000D01*
X149000109Y-120225000D01*
X149056122Y-120230517D01*
X149104085Y-120245066D01*
X149148275Y-120268686D01*
X149187018Y-120300482D01*
X149218814Y-120339225D01*
X149242434Y-120383415D01*
X149256983Y-120431378D01*
X149262500Y-120487391D01*
X149262500Y-121312609D01*
X149256983Y-121368622D01*
X149242434Y-121416585D01*
X149218814Y-121460775D01*
X149187018Y-121499518D01*
X149148275Y-121531314D01*
X149104085Y-121554934D01*
X149056122Y-121569483D01*
X149000109Y-121575000D01*
X148249891Y-121575000D01*
X148193878Y-121569483D01*
X148145915Y-121554934D01*
X148101725Y-121531314D01*
X148062982Y-121499518D01*
X148031186Y-121460775D01*
X148007566Y-121416585D01*
X147993017Y-121368622D01*
X147987500Y-121312609D01*
X147987500Y-120487391D01*
X147993017Y-120431378D01*
X148007566Y-120383415D01*
X148031186Y-120339225D01*
X148062982Y-120300482D01*
X148101725Y-120268686D01*
X148145916Y-120245066D01*
X148147392Y-120244618D01*
X148170031Y-120235241D01*
X148190406Y-120221627D01*
X148207733Y-120204300D01*
X148221347Y-120183926D01*
X148225239Y-120174531D01*
X148236612Y-120188388D01*
X148236612Y-120188388D01*
G37*
G36*
X150631122Y-120230517D02*
X150679085Y-120245066D01*
X150723275Y-120268686D01*
X150762018Y-120300482D01*
X150793814Y-120339225D01*
X150817434Y-120383415D01*
X150831983Y-120431378D01*
X150837500Y-120487391D01*
X150837500Y-121312609D01*
X150831983Y-121368622D01*
X150817434Y-121416585D01*
X150793814Y-121460775D01*
X150762018Y-121499518D01*
X150723275Y-121531314D01*
X150679085Y-121554934D01*
X150631122Y-121569483D01*
X150575109Y-121575000D01*
X149824891Y-121575000D01*
X149768878Y-121569483D01*
X149720915Y-121554934D01*
X149676725Y-121531314D01*
X149637982Y-121499518D01*
X149606186Y-121460775D01*
X149582566Y-121416585D01*
X149568017Y-121368622D01*
X149562500Y-121312609D01*
X149562500Y-120487391D01*
X149568017Y-120431378D01*
X149582566Y-120383415D01*
X149606186Y-120339225D01*
X149637982Y-120300482D01*
X149676725Y-120268686D01*
X149720915Y-120245066D01*
X149768878Y-120230517D01*
X149824891Y-120225000D01*
X150575109Y-120225000D01*
X150631122Y-120230517D01*
X150631122Y-120230517D01*
G37*
G36*
X158768622Y-120119517D02*
X158816585Y-120134066D01*
X158860775Y-120157686D01*
X158899518Y-120189482D01*
X158931314Y-120228225D01*
X158954934Y-120272415D01*
X158969483Y-120320378D01*
X158975000Y-120376391D01*
X158975000Y-121126609D01*
X158969483Y-121182622D01*
X158954934Y-121230585D01*
X158931314Y-121274775D01*
X158899518Y-121313518D01*
X158860775Y-121345314D01*
X158816585Y-121368934D01*
X158768622Y-121383483D01*
X158712609Y-121389000D01*
X157887391Y-121389000D01*
X157831378Y-121383483D01*
X157783415Y-121368934D01*
X157739225Y-121345314D01*
X157700482Y-121313518D01*
X157668686Y-121274775D01*
X157645066Y-121230585D01*
X157630517Y-121182622D01*
X157625000Y-121126609D01*
X157625000Y-120376391D01*
X157630517Y-120320378D01*
X157645066Y-120272415D01*
X157668686Y-120228225D01*
X157700482Y-120189482D01*
X157739225Y-120157686D01*
X157783415Y-120134066D01*
X157831378Y-120119517D01*
X157887391Y-120114000D01*
X158712609Y-120114000D01*
X158768622Y-120119517D01*
X158768622Y-120119517D01*
G37*
G36*
X156932622Y-120094017D02*
X156980585Y-120108566D01*
X157024775Y-120132186D01*
X157063518Y-120163982D01*
X157095314Y-120202725D01*
X157118934Y-120246915D01*
X157133483Y-120294878D01*
X157139000Y-120350891D01*
X157139000Y-121101109D01*
X157133483Y-121157122D01*
X157118934Y-121205085D01*
X157095314Y-121249275D01*
X157063518Y-121288018D01*
X157024775Y-121319814D01*
X156980585Y-121343434D01*
X156932622Y-121357983D01*
X156876609Y-121363500D01*
X156051391Y-121363500D01*
X155995378Y-121357983D01*
X155947415Y-121343434D01*
X155903225Y-121319814D01*
X155864482Y-121288018D01*
X155832686Y-121249275D01*
X155809066Y-121205085D01*
X155794517Y-121157122D01*
X155789000Y-121101109D01*
X155789000Y-120350891D01*
X155794517Y-120294878D01*
X155809066Y-120246915D01*
X155832686Y-120202725D01*
X155864482Y-120163982D01*
X155903225Y-120132186D01*
X155947415Y-120108566D01*
X155995378Y-120094017D01*
X156051391Y-120088500D01*
X156876609Y-120088500D01*
X156932622Y-120094017D01*
X156932622Y-120094017D01*
G37*
G36*
X134500000Y-121000000D02*
X132900000Y-121000000D01*
X132900000Y-119700000D01*
X134500000Y-119700000D01*
X134500000Y-121000000D01*
X134500000Y-121000000D01*
G37*
G36*
X138200000Y-120000000D02*
X135800000Y-120000000D01*
X135800000Y-116600000D01*
X138200000Y-116600000D01*
X138200000Y-120000000D01*
X138200000Y-120000000D01*
G37*
G36*
X158768622Y-118544517D02*
X158816585Y-118559066D01*
X158860775Y-118582686D01*
X158899518Y-118614482D01*
X158931314Y-118653225D01*
X158954934Y-118697415D01*
X158969483Y-118745378D01*
X158975000Y-118801391D01*
X158975000Y-119551609D01*
X158969483Y-119607622D01*
X158954934Y-119655585D01*
X158931314Y-119699775D01*
X158899518Y-119738518D01*
X158860775Y-119770314D01*
X158816585Y-119793934D01*
X158768622Y-119808483D01*
X158712609Y-119814000D01*
X157887391Y-119814000D01*
X157831378Y-119808483D01*
X157783415Y-119793934D01*
X157739225Y-119770314D01*
X157700482Y-119738518D01*
X157668686Y-119699775D01*
X157645066Y-119655585D01*
X157630517Y-119607622D01*
X157625000Y-119551609D01*
X157625000Y-118801391D01*
X157630517Y-118745378D01*
X157645066Y-118697415D01*
X157668686Y-118653225D01*
X157700482Y-118614482D01*
X157739225Y-118582686D01*
X157783415Y-118559066D01*
X157831378Y-118544517D01*
X157887391Y-118539000D01*
X158712609Y-118539000D01*
X158768622Y-118544517D01*
X158768622Y-118544517D01*
G37*
G36*
X156932622Y-118519017D02*
X156980585Y-118533566D01*
X157024775Y-118557186D01*
X157063518Y-118588982D01*
X157095314Y-118627725D01*
X157118934Y-118671915D01*
X157133483Y-118719878D01*
X157139000Y-118775891D01*
X157139000Y-119526109D01*
X157133483Y-119582122D01*
X157118934Y-119630085D01*
X157095314Y-119674275D01*
X157063518Y-119713018D01*
X157024775Y-119744814D01*
X156980585Y-119768434D01*
X156932622Y-119782983D01*
X156876609Y-119788500D01*
X156051391Y-119788500D01*
X155995378Y-119782983D01*
X155947415Y-119768434D01*
X155903225Y-119744814D01*
X155864482Y-119713018D01*
X155832686Y-119674275D01*
X155809066Y-119630085D01*
X155794517Y-119582122D01*
X155789000Y-119526109D01*
X155789000Y-118775891D01*
X155794517Y-118719878D01*
X155809066Y-118671915D01*
X155832686Y-118627725D01*
X155864482Y-118588982D01*
X155903225Y-118557186D01*
X155947415Y-118533566D01*
X155995378Y-118519017D01*
X156051391Y-118513500D01*
X156876609Y-118513500D01*
X156932622Y-118519017D01*
X156932622Y-118519017D01*
G37*
G36*
X152805622Y-116500517D02*
X152853585Y-116515066D01*
X152897775Y-116538686D01*
X152936518Y-116570482D01*
X152968314Y-116609225D01*
X152991934Y-116653415D01*
X153006483Y-116701378D01*
X153012000Y-116757391D01*
X153012000Y-117582609D01*
X153006483Y-117638622D01*
X152991934Y-117686585D01*
X152968314Y-117730775D01*
X152936518Y-117769518D01*
X152897775Y-117801314D01*
X152853585Y-117824934D01*
X152805622Y-117839483D01*
X152749609Y-117845000D01*
X151999391Y-117845000D01*
X151943378Y-117839483D01*
X151895415Y-117824934D01*
X151851225Y-117801314D01*
X151812482Y-117769518D01*
X151780686Y-117730775D01*
X151757066Y-117686585D01*
X151742517Y-117638622D01*
X151737000Y-117582609D01*
X151737000Y-116757391D01*
X151742517Y-116701378D01*
X151757066Y-116653415D01*
X151780686Y-116609225D01*
X151812482Y-116570482D01*
X151851225Y-116538686D01*
X151895415Y-116515066D01*
X151943378Y-116500517D01*
X151999391Y-116495000D01*
X152749609Y-116495000D01*
X152805622Y-116500517D01*
X152805622Y-116500517D01*
G37*
G36*
X154380622Y-116500517D02*
X154428585Y-116515066D01*
X154472775Y-116538686D01*
X154511518Y-116570482D01*
X154543314Y-116609225D01*
X154566934Y-116653415D01*
X154581483Y-116701378D01*
X154587000Y-116757391D01*
X154587000Y-117582609D01*
X154581483Y-117638622D01*
X154566934Y-117686585D01*
X154543314Y-117730775D01*
X154511518Y-117769518D01*
X154472775Y-117801314D01*
X154428585Y-117824934D01*
X154380622Y-117839483D01*
X154324609Y-117845000D01*
X153574391Y-117845000D01*
X153518378Y-117839483D01*
X153470415Y-117824934D01*
X153426225Y-117801314D01*
X153387482Y-117769518D01*
X153355686Y-117730775D01*
X153332066Y-117686585D01*
X153317517Y-117638622D01*
X153312000Y-117582609D01*
X153312000Y-116757391D01*
X153317517Y-116701378D01*
X153332066Y-116653415D01*
X153355686Y-116609225D01*
X153387482Y-116570482D01*
X153426225Y-116538686D01*
X153470415Y-116515066D01*
X153518378Y-116500517D01*
X153574391Y-116495000D01*
X154324609Y-116495000D01*
X154380622Y-116500517D01*
X154380622Y-116500517D01*
G37*
G36*
X134500000Y-117700000D02*
X132900000Y-117700000D01*
X132900000Y-116400000D01*
X134500000Y-116400000D01*
X134500000Y-117700000D01*
X134500000Y-117700000D01*
G37*
G36*
X138950000Y-115450000D02*
X136850000Y-115450000D01*
X136850000Y-113350000D01*
X138950000Y-113350000D01*
X138950000Y-115450000D01*
X138950000Y-115450000D01*
G37*
G36*
X162522947Y-111755722D02*
X162786833Y-111865027D01*
X163024324Y-112023713D01*
X163226287Y-112225676D01*
X163384973Y-112463167D01*
X163494278Y-112727053D01*
X163550000Y-113007186D01*
X163550000Y-113292814D01*
X163494278Y-113572947D01*
X163384973Y-113836833D01*
X163226287Y-114074324D01*
X163024324Y-114276287D01*
X162786833Y-114434973D01*
X162522947Y-114544278D01*
X162242814Y-114600000D01*
X161957186Y-114600000D01*
X161677053Y-114544278D01*
X161413167Y-114434973D01*
X161175676Y-114276287D01*
X160973713Y-114074324D01*
X160815027Y-113836833D01*
X160705722Y-113572947D01*
X160650000Y-113292814D01*
X160650000Y-113007186D01*
X160705722Y-112727053D01*
X160815027Y-112463167D01*
X160973713Y-112225676D01*
X161175676Y-112023713D01*
X161413167Y-111865027D01*
X161677053Y-111755722D01*
X161957186Y-111700000D01*
X162242814Y-111700000D01*
X162522947Y-111755722D01*
X162522947Y-111755722D01*
G37*
G36*
X138028707Y-110817597D02*
X138105836Y-110825193D01*
X138237787Y-110865220D01*
X138303763Y-110885233D01*
X138486172Y-110982733D01*
X138646054Y-111113946D01*
X138777267Y-111273828D01*
X138874767Y-111456237D01*
X138874767Y-111456238D01*
X138934807Y-111654164D01*
X138955080Y-111860000D01*
X138934807Y-112065836D01*
X138894780Y-112197787D01*
X138874767Y-112263763D01*
X138777267Y-112446172D01*
X138646054Y-112606054D01*
X138486172Y-112737267D01*
X138303763Y-112834767D01*
X138237787Y-112854780D01*
X138105836Y-112894807D01*
X138028707Y-112902403D01*
X137951580Y-112910000D01*
X137848420Y-112910000D01*
X137771293Y-112902403D01*
X137694164Y-112894807D01*
X137562213Y-112854780D01*
X137496237Y-112834767D01*
X137313828Y-112737267D01*
X137153946Y-112606054D01*
X137022733Y-112446172D01*
X136925233Y-112263763D01*
X136905220Y-112197787D01*
X136865193Y-112065836D01*
X136844920Y-111860000D01*
X136865193Y-111654164D01*
X136925233Y-111456238D01*
X136925233Y-111456237D01*
X137022733Y-111273828D01*
X137153946Y-111113946D01*
X137313828Y-110982733D01*
X137496237Y-110885233D01*
X137562213Y-110865220D01*
X137694164Y-110825193D01*
X137771293Y-110817597D01*
X137848420Y-110810000D01*
X137951580Y-110810000D01*
X138028707Y-110817597D01*
X138028707Y-110817597D01*
G37*
G36*
X138028707Y-108277597D02*
X138105836Y-108285193D01*
X138237787Y-108325220D01*
X138303763Y-108345233D01*
X138486172Y-108442733D01*
X138646054Y-108573946D01*
X138777267Y-108733828D01*
X138874767Y-108916237D01*
X138874767Y-108916238D01*
X138934807Y-109114164D01*
X138955080Y-109320000D01*
X138934807Y-109525836D01*
X138894780Y-109657787D01*
X138874767Y-109723763D01*
X138777267Y-109906172D01*
X138646054Y-110066054D01*
X138486172Y-110197267D01*
X138303763Y-110294767D01*
X138237787Y-110314780D01*
X138105836Y-110354807D01*
X138028707Y-110362403D01*
X137951580Y-110370000D01*
X137848420Y-110370000D01*
X137771293Y-110362403D01*
X137694164Y-110354807D01*
X137562213Y-110314780D01*
X137496237Y-110294767D01*
X137313828Y-110197267D01*
X137153946Y-110066054D01*
X137022733Y-109906172D01*
X136925233Y-109723763D01*
X136905220Y-109657787D01*
X136865193Y-109525836D01*
X136844920Y-109320000D01*
X136865193Y-109114164D01*
X136925233Y-108916238D01*
X136925233Y-108916237D01*
X137022733Y-108733828D01*
X137153946Y-108573946D01*
X137313828Y-108442733D01*
X137496237Y-108345233D01*
X137562213Y-108325220D01*
X137694164Y-108285193D01*
X137771293Y-108277597D01*
X137848420Y-108270000D01*
X137951580Y-108270000D01*
X138028707Y-108277597D01*
X138028707Y-108277597D01*
G37*
G36*
X161972947Y-82155722D02*
X162236833Y-82265027D01*
X162474324Y-82423713D01*
X162676287Y-82625676D01*
X162834973Y-82863167D01*
X162944278Y-83127053D01*
X163000000Y-83407186D01*
X163000000Y-83692814D01*
X162944278Y-83972947D01*
X162834973Y-84236833D01*
X162676287Y-84474324D01*
X162474324Y-84676287D01*
X162236833Y-84834973D01*
X161972947Y-84944278D01*
X161692814Y-85000000D01*
X161407186Y-85000000D01*
X161127053Y-84944278D01*
X160863167Y-84834973D01*
X160625676Y-84676287D01*
X160423713Y-84474324D01*
X160265027Y-84236833D01*
X160155722Y-83972947D01*
X160100000Y-83692814D01*
X160100000Y-83407186D01*
X160155722Y-83127053D01*
X160265027Y-82863167D01*
X160423713Y-82625676D01*
X160625676Y-82423713D01*
X160863167Y-82265027D01*
X161127053Y-82155722D01*
X161407186Y-82100000D01*
X161692814Y-82100000D01*
X161972947Y-82155722D01*
X161972947Y-82155722D01*
G37*
G36*
X135139451Y-82299127D02*
X135277105Y-82326508D01*
X135449994Y-82398121D01*
X135605590Y-82502087D01*
X135737913Y-82634410D01*
X135841879Y-82790006D01*
X135913492Y-82962895D01*
X135913902Y-82964958D01*
X135950000Y-83146432D01*
X135950000Y-83333568D01*
X135940873Y-83379452D01*
X135913492Y-83517105D01*
X135841879Y-83689994D01*
X135737913Y-83845590D01*
X135605590Y-83977913D01*
X135449994Y-84081879D01*
X135277105Y-84153492D01*
X135139452Y-84180873D01*
X135093568Y-84190000D01*
X134906432Y-84190000D01*
X134860548Y-84180873D01*
X134722895Y-84153492D01*
X134550006Y-84081879D01*
X134394410Y-83977913D01*
X134262087Y-83845590D01*
X134158121Y-83689994D01*
X134086508Y-83517105D01*
X134059127Y-83379452D01*
X134050000Y-83333568D01*
X134050000Y-83146432D01*
X134086098Y-82964958D01*
X134086508Y-82962895D01*
X134158121Y-82790006D01*
X134262087Y-82634410D01*
X134394410Y-82502087D01*
X134550006Y-82398121D01*
X134722895Y-82326508D01*
X134860548Y-82299127D01*
X134906432Y-82290000D01*
X135093568Y-82290000D01*
X135139451Y-82299127D01*
X135139451Y-82299127D01*
G37*
G36*
X132850026Y-81046115D02*
X133068412Y-81136573D01*
X133264958Y-81267901D01*
X133432099Y-81435042D01*
X133563427Y-81631588D01*
X133653885Y-81849974D01*
X133700000Y-82081809D01*
X133700000Y-82318191D01*
X133653885Y-82550026D01*
X133563427Y-82768412D01*
X133432099Y-82964958D01*
X133264958Y-83132099D01*
X133068412Y-83263427D01*
X132850026Y-83353885D01*
X132618191Y-83400000D01*
X132381809Y-83400000D01*
X132149974Y-83353885D01*
X131931588Y-83263427D01*
X131735042Y-83132099D01*
X131567901Y-82964958D01*
X131436573Y-82768412D01*
X131346115Y-82550026D01*
X131300000Y-82318191D01*
X131300000Y-82081809D01*
X131346115Y-81849974D01*
X131436573Y-81631588D01*
X131567901Y-81435042D01*
X131735042Y-81267901D01*
X131931588Y-81136573D01*
X132149974Y-81046115D01*
X132381809Y-81000000D01*
X132618191Y-81000000D01*
X132850026Y-81046115D01*
X132850026Y-81046115D01*
G37*
G36*
X132850026Y-76046115D02*
X133068412Y-76136573D01*
X133264958Y-76267901D01*
X133432099Y-76435042D01*
X133563427Y-76631588D01*
X133653885Y-76849974D01*
X133700000Y-77081809D01*
X133700000Y-77318191D01*
X133653885Y-77550026D01*
X133563427Y-77768412D01*
X133432099Y-77964958D01*
X133264958Y-78132099D01*
X133068412Y-78263427D01*
X132850026Y-78353885D01*
X132618191Y-78400000D01*
X132381809Y-78400000D01*
X132149974Y-78353885D01*
X131931588Y-78263427D01*
X131735042Y-78132099D01*
X131567901Y-77964958D01*
X131436573Y-77768412D01*
X131346115Y-77550026D01*
X131300000Y-77318191D01*
X131300000Y-77081809D01*
X131346115Y-76849974D01*
X131436573Y-76631588D01*
X131567901Y-76435042D01*
X131735042Y-76267901D01*
X131931588Y-76136573D01*
X132149974Y-76046115D01*
X132381809Y-76000000D01*
X132618191Y-76000000D01*
X132850026Y-76046115D01*
X132850026Y-76046115D01*
G37*
G36*
X160522318Y-75822411D02*
X160594767Y-75836822D01*
X160651303Y-75860240D01*
X160731257Y-75893358D01*
X160854100Y-75975439D01*
X160958561Y-76079900D01*
X161040642Y-76202743D01*
X161097178Y-76339234D01*
X161126000Y-76484130D01*
X161126000Y-76631870D01*
X161097178Y-76776766D01*
X161040642Y-76913257D01*
X160958561Y-77036100D01*
X160854100Y-77140561D01*
X160731257Y-77222642D01*
X160651303Y-77255760D01*
X160594767Y-77279178D01*
X160522318Y-77293589D01*
X160449870Y-77308000D01*
X160302130Y-77308000D01*
X160229682Y-77293589D01*
X160157233Y-77279178D01*
X160100697Y-77255760D01*
X160020743Y-77222642D01*
X159897900Y-77140561D01*
X159793439Y-77036100D01*
X159711358Y-76913257D01*
X159654822Y-76776766D01*
X159626000Y-76631870D01*
X159626000Y-76484130D01*
X159654822Y-76339234D01*
X159711358Y-76202743D01*
X159793439Y-76079900D01*
X159897900Y-75975439D01*
X160020743Y-75893358D01*
X160100697Y-75860240D01*
X160157233Y-75836822D01*
X160229682Y-75822411D01*
X160302130Y-75808000D01*
X160449870Y-75808000D01*
X160522318Y-75822411D01*
X160522318Y-75822411D01*
G37*
G36*
X135139451Y-75219127D02*
X135277105Y-75246508D01*
X135449994Y-75318121D01*
X135605590Y-75422087D01*
X135737913Y-75554410D01*
X135841879Y-75710006D01*
X135913492Y-75882895D01*
X135915573Y-75893358D01*
X135945959Y-76046115D01*
X135950000Y-76066433D01*
X135950000Y-76253567D01*
X135913492Y-76437105D01*
X135841879Y-76609994D01*
X135737913Y-76765590D01*
X135605590Y-76897913D01*
X135449994Y-77001879D01*
X135277105Y-77073492D01*
X135139451Y-77100873D01*
X135093568Y-77110000D01*
X134906432Y-77110000D01*
X134860549Y-77100873D01*
X134722895Y-77073492D01*
X134550006Y-77001879D01*
X134394410Y-76897913D01*
X134262087Y-76765590D01*
X134158121Y-76609994D01*
X134086508Y-76437105D01*
X134050000Y-76253567D01*
X134050000Y-76066433D01*
X134054042Y-76046115D01*
X134084427Y-75893358D01*
X134086508Y-75882895D01*
X134158121Y-75710006D01*
X134262087Y-75554410D01*
X134394410Y-75422087D01*
X134550006Y-75318121D01*
X134722895Y-75246508D01*
X134860549Y-75219127D01*
X134906432Y-75210000D01*
X135093568Y-75210000D01*
X135139451Y-75219127D01*
X135139451Y-75219127D01*
G37*
G36*
X142622947Y-73255722D02*
X142886833Y-73365027D01*
X143124324Y-73523713D01*
X143326287Y-73725676D01*
X143484973Y-73963167D01*
X143594278Y-74227053D01*
X143650000Y-74507186D01*
X143650000Y-74792814D01*
X143594278Y-75072947D01*
X143484973Y-75336833D01*
X143326287Y-75574324D01*
X143124324Y-75776287D01*
X142886833Y-75934973D01*
X142622947Y-76044278D01*
X142342814Y-76100000D01*
X142057186Y-76100000D01*
X141777053Y-76044278D01*
X141513167Y-75934973D01*
X141275676Y-75776287D01*
X141073713Y-75574324D01*
X140915027Y-75336833D01*
X140805722Y-75072947D01*
X140750000Y-74792814D01*
X140750000Y-74507186D01*
X140805722Y-74227053D01*
X140915027Y-73963167D01*
X141073713Y-73725676D01*
X141275676Y-73523713D01*
X141513167Y-73365027D01*
X141777053Y-73255722D01*
X142057186Y-73200000D01*
X142342814Y-73200000D01*
X142622947Y-73255722D01*
X142622947Y-73255722D01*
G37*
G36*
X136562303Y-69361018D02*
X136562305Y-69361019D01*
X136562306Y-69361019D01*
X136676048Y-69408132D01*
X136676049Y-69408133D01*
X136778417Y-69476533D01*
X136865467Y-69563583D01*
X136865469Y-69563586D01*
X136933868Y-69665952D01*
X136980981Y-69779694D01*
X137005000Y-69900443D01*
X137005000Y-70023557D01*
X136980981Y-70144306D01*
X136933868Y-70258048D01*
X136933867Y-70258049D01*
X136865467Y-70360417D01*
X136778417Y-70447467D01*
X136778414Y-70447469D01*
X136676048Y-70515868D01*
X136562306Y-70562981D01*
X136562305Y-70562981D01*
X136562303Y-70562982D01*
X136441559Y-70587000D01*
X136318441Y-70587000D01*
X136197697Y-70562982D01*
X136197695Y-70562981D01*
X136197694Y-70562981D01*
X136083952Y-70515868D01*
X135981586Y-70447469D01*
X135981583Y-70447467D01*
X135894533Y-70360417D01*
X135826133Y-70258049D01*
X135826132Y-70258048D01*
X135779019Y-70144306D01*
X135755000Y-70023557D01*
X135755000Y-69900443D01*
X135779019Y-69779694D01*
X135826132Y-69665952D01*
X135894531Y-69563586D01*
X135894533Y-69563583D01*
X135981583Y-69476533D01*
X136083951Y-69408133D01*
X136083952Y-69408132D01*
X136197694Y-69361019D01*
X136197695Y-69361019D01*
X136197697Y-69361018D01*
X136318441Y-69337000D01*
X136441559Y-69337000D01*
X136562303Y-69361018D01*
X136562303Y-69361018D01*
G37*
G36*
X160522318Y-67842411D02*
X160594767Y-67856822D01*
X160651303Y-67880240D01*
X160731257Y-67913358D01*
X160854100Y-67995439D01*
X160958561Y-68099900D01*
X161040642Y-68222743D01*
X161097178Y-68359234D01*
X161126000Y-68504130D01*
X161126000Y-68651870D01*
X161097178Y-68796766D01*
X161040642Y-68933257D01*
X160958561Y-69056100D01*
X160854100Y-69160561D01*
X160731257Y-69242642D01*
X160651303Y-69275760D01*
X160594767Y-69299178D01*
X160522318Y-69313589D01*
X160449870Y-69328000D01*
X160302130Y-69328000D01*
X160229682Y-69313589D01*
X160157233Y-69299178D01*
X160100697Y-69275760D01*
X160020743Y-69242642D01*
X159897900Y-69160561D01*
X159793439Y-69056100D01*
X159711358Y-68933257D01*
X159654822Y-68796766D01*
X159626000Y-68651870D01*
X159626000Y-68504130D01*
X159654822Y-68359234D01*
X159711358Y-68222743D01*
X159793439Y-68099900D01*
X159897900Y-67995439D01*
X160020743Y-67913358D01*
X160100697Y-67880240D01*
X160157233Y-67856822D01*
X160229682Y-67842411D01*
X160302130Y-67828000D01*
X160449870Y-67828000D01*
X160522318Y-67842411D01*
X160522318Y-67842411D01*
G37*
G36*
X136562303Y-65361018D02*
X136562305Y-65361019D01*
X136562306Y-65361019D01*
X136676048Y-65408132D01*
X136676049Y-65408133D01*
X136778417Y-65476533D01*
X136865467Y-65563583D01*
X136865469Y-65563586D01*
X136933868Y-65665952D01*
X136980981Y-65779694D01*
X137005000Y-65900443D01*
X137005000Y-66023557D01*
X136980981Y-66144306D01*
X136933868Y-66258048D01*
X136933867Y-66258049D01*
X136865467Y-66360417D01*
X136778417Y-66447467D01*
X136778414Y-66447469D01*
X136676048Y-66515868D01*
X136562306Y-66562981D01*
X136562305Y-66562981D01*
X136562303Y-66562982D01*
X136441559Y-66587000D01*
X136318441Y-66587000D01*
X136197697Y-66562982D01*
X136197695Y-66562981D01*
X136197694Y-66562981D01*
X136083952Y-66515868D01*
X135981586Y-66447469D01*
X135981583Y-66447467D01*
X135894533Y-66360417D01*
X135826133Y-66258049D01*
X135826132Y-66258048D01*
X135779019Y-66144306D01*
X135755000Y-66023557D01*
X135755000Y-65900443D01*
X135779019Y-65779694D01*
X135826132Y-65665952D01*
X135894531Y-65563586D01*
X135894533Y-65563583D01*
X135981583Y-65476533D01*
X136083951Y-65408133D01*
X136083952Y-65408132D01*
X136197694Y-65361019D01*
X136197695Y-65361019D01*
X136197697Y-65361018D01*
X136318441Y-65337000D01*
X136441559Y-65337000D01*
X136562303Y-65361018D01*
X136562303Y-65361018D01*
G37*
M02*
