G04 #@! TF.GenerationSoftware,KiCad,Pcbnew,(5.0.1)-rc2*
G04 #@! TF.CreationDate,2019-03-09T02:30:10-07:00*
G04 #@! TF.ProjectId,GPSLogger,4750534C6F676765722E6B696361645F,rev?*
G04 #@! TF.SameCoordinates,Original*
G04 #@! TF.FileFunction,Soldermask,Top*
G04 #@! TF.FilePolarity,Negative*
%FSLAX46Y46*%
G04 Gerber Fmt 4.6, Leading zero omitted, Abs format (unit mm)*
G04 Created by KiCad (PCBNEW (5.0.1)-rc2) date 3/9/2019 2:30:10 AM*
%MOMM*%
%LPD*%
G01*
G04 APERTURE LIST*
%ADD10C,0.100000*%
G04 APERTURE END LIST*
D10*
G36*
X206551997Y-63113997D02*
X206604653Y-63129970D01*
X206653165Y-63155900D01*
X206695696Y-63190804D01*
X206730600Y-63233335D01*
X206756530Y-63281847D01*
X206772503Y-63334503D01*
X206778500Y-63395390D01*
X206778500Y-64620610D01*
X206772503Y-64681497D01*
X206756530Y-64734153D01*
X206730600Y-64782665D01*
X206695696Y-64825196D01*
X206653165Y-64860100D01*
X206604653Y-64886030D01*
X206551997Y-64902003D01*
X206491110Y-64908000D01*
X205690890Y-64908000D01*
X205630003Y-64902003D01*
X205577347Y-64886030D01*
X205528835Y-64860100D01*
X205486304Y-64825196D01*
X205451400Y-64782665D01*
X205425470Y-64734153D01*
X205409497Y-64681497D01*
X205403500Y-64620610D01*
X205403500Y-63395390D01*
X205409497Y-63334503D01*
X205425470Y-63281847D01*
X205451400Y-63233335D01*
X205486304Y-63190804D01*
X205528835Y-63155900D01*
X205577347Y-63129970D01*
X205630003Y-63113997D01*
X205690890Y-63108000D01*
X206491110Y-63108000D01*
X206551997Y-63113997D01*
X206551997Y-63113997D01*
G37*
G36*
X204676997Y-63113997D02*
X204729653Y-63129970D01*
X204778165Y-63155900D01*
X204820696Y-63190804D01*
X204855600Y-63233335D01*
X204881530Y-63281847D01*
X204897503Y-63334503D01*
X204903500Y-63395390D01*
X204903500Y-64620610D01*
X204897503Y-64681497D01*
X204881530Y-64734153D01*
X204855600Y-64782665D01*
X204820696Y-64825196D01*
X204778165Y-64860100D01*
X204729653Y-64886030D01*
X204676997Y-64902003D01*
X204616110Y-64908000D01*
X203815890Y-64908000D01*
X203755003Y-64902003D01*
X203702347Y-64886030D01*
X203653835Y-64860100D01*
X203611304Y-64825196D01*
X203576400Y-64782665D01*
X203550470Y-64734153D01*
X203534497Y-64681497D01*
X203528500Y-64620610D01*
X203528500Y-63395390D01*
X203534497Y-63334503D01*
X203550470Y-63281847D01*
X203576400Y-63233335D01*
X203611304Y-63190804D01*
X203653835Y-63155900D01*
X203702347Y-63129970D01*
X203755003Y-63113997D01*
X203815890Y-63108000D01*
X204616110Y-63108000D01*
X204676997Y-63113997D01*
X204676997Y-63113997D01*
G37*
G36*
X197208029Y-55875820D02*
X197293730Y-55884261D01*
X197403689Y-55917617D01*
X197458669Y-55934295D01*
X197509337Y-55961378D01*
X197610676Y-56015544D01*
X197743912Y-56124888D01*
X197853256Y-56258124D01*
X197893444Y-56333312D01*
X197934505Y-56410131D01*
X197944732Y-56443846D01*
X197984539Y-56575070D01*
X198001433Y-56746600D01*
X197984539Y-56918130D01*
X197951183Y-57028089D01*
X197934505Y-57083069D01*
X197914990Y-57119578D01*
X197853256Y-57235076D01*
X197743912Y-57368312D01*
X197729697Y-57379978D01*
X197712375Y-57397300D01*
X197698761Y-57417675D01*
X197689384Y-57440314D01*
X197684603Y-57464347D01*
X197684603Y-57488851D01*
X197689383Y-57512885D01*
X197698760Y-57535524D01*
X197712374Y-57555899D01*
X197729701Y-57573226D01*
X197750076Y-57586840D01*
X197772715Y-57596217D01*
X197796748Y-57600998D01*
X197809001Y-57601600D01*
X198227200Y-57601600D01*
X198227200Y-57937116D01*
X198229602Y-57961502D01*
X198236715Y-57984951D01*
X198248266Y-58006562D01*
X198263812Y-58025504D01*
X198282754Y-58041050D01*
X198304365Y-58052601D01*
X198327814Y-58059714D01*
X198352200Y-58062116D01*
X198376586Y-58059714D01*
X198400035Y-58052601D01*
X198421646Y-58041050D01*
X198440588Y-58025504D01*
X198456133Y-58006563D01*
X198461731Y-57998185D01*
X198548783Y-57911133D01*
X198550165Y-57910209D01*
X198651152Y-57842732D01*
X198764894Y-57795619D01*
X198764895Y-57795619D01*
X198764897Y-57795618D01*
X198885641Y-57771600D01*
X199020891Y-57771600D01*
X199021560Y-57771665D01*
X199045943Y-57769232D01*
X199069383Y-57762088D01*
X199090979Y-57750509D01*
X199109901Y-57734939D01*
X199125421Y-57715977D01*
X199136945Y-57694351D01*
X199144028Y-57670893D01*
X199146398Y-57646503D01*
X199143965Y-57622120D01*
X199136821Y-57598680D01*
X199118023Y-57567365D01*
X199116144Y-57565076D01*
X199034896Y-57413071D01*
X198995591Y-57283500D01*
X198984861Y-57248129D01*
X198972200Y-57119578D01*
X198972200Y-56883621D01*
X198984861Y-56755070D01*
X199030687Y-56604003D01*
X199034895Y-56590131D01*
X199073609Y-56517703D01*
X199116144Y-56438124D01*
X199225488Y-56304888D01*
X199358725Y-56195544D01*
X199460064Y-56141378D01*
X199510732Y-56114295D01*
X199587120Y-56091123D01*
X199675671Y-56064261D01*
X199847200Y-56047367D01*
X200018730Y-56064261D01*
X200107281Y-56091123D01*
X200183669Y-56114295D01*
X200234337Y-56141378D01*
X200335676Y-56195544D01*
X200468912Y-56304888D01*
X200578256Y-56438124D01*
X200603132Y-56484665D01*
X200659505Y-56590131D01*
X200665532Y-56610000D01*
X200709539Y-56755071D01*
X200722200Y-56883622D01*
X200722200Y-57119579D01*
X200709539Y-57248130D01*
X200698809Y-57283500D01*
X200659505Y-57413069D01*
X200657043Y-57417675D01*
X200578256Y-57565076D01*
X200468912Y-57698312D01*
X200335675Y-57807656D01*
X200335673Y-57807657D01*
X200335672Y-57807658D01*
X200183671Y-57888904D01*
X200140750Y-57901924D01*
X200018729Y-57938939D01*
X199847200Y-57955833D01*
X199675670Y-57938939D01*
X199652315Y-57931854D01*
X199628290Y-57927076D01*
X199603786Y-57927076D01*
X199579753Y-57931856D01*
X199557114Y-57941234D01*
X199536739Y-57954848D01*
X199519412Y-57972175D01*
X199505798Y-57992549D01*
X199496420Y-58015188D01*
X199491640Y-58039222D01*
X199491640Y-58063726D01*
X199496420Y-58087759D01*
X199500553Y-58099310D01*
X199501067Y-58100550D01*
X199501068Y-58100552D01*
X199548181Y-58214294D01*
X199548182Y-58214297D01*
X199572200Y-58335041D01*
X199572200Y-58458159D01*
X199563437Y-58502214D01*
X199561035Y-58526600D01*
X199563437Y-58550987D01*
X199570550Y-58574436D01*
X199582101Y-58596047D01*
X199597647Y-58614989D01*
X199616589Y-58630534D01*
X199638200Y-58642085D01*
X199661649Y-58649198D01*
X199686035Y-58651600D01*
X201252200Y-58651600D01*
X201252200Y-62051600D01*
X199688024Y-62051600D01*
X199663638Y-62054002D01*
X199640189Y-62061115D01*
X199618578Y-62072666D01*
X199599636Y-62088212D01*
X199584090Y-62107154D01*
X199572539Y-62128765D01*
X199565426Y-62152214D01*
X199563024Y-62176600D01*
X199565426Y-62200986D01*
X199572200Y-62235041D01*
X199572200Y-62358159D01*
X199548182Y-62478903D01*
X199542525Y-62492562D01*
X199535413Y-62516011D01*
X199533011Y-62540397D01*
X199535413Y-62564784D01*
X199542527Y-62588233D01*
X199554078Y-62609844D01*
X199569624Y-62628785D01*
X199588566Y-62644331D01*
X199610177Y-62655882D01*
X199633626Y-62662994D01*
X199670263Y-62664794D01*
X199675669Y-62664262D01*
X199675671Y-62664261D01*
X199847200Y-62647367D01*
X200018730Y-62664261D01*
X200092496Y-62686638D01*
X200183669Y-62714295D01*
X200216229Y-62731699D01*
X200335676Y-62795544D01*
X200468912Y-62904888D01*
X200578256Y-63038124D01*
X200602916Y-63084261D01*
X200659505Y-63190131D01*
X200675118Y-63241600D01*
X200709539Y-63355071D01*
X200722200Y-63483622D01*
X200722200Y-63719579D01*
X200709539Y-63848130D01*
X200679668Y-63946600D01*
X200659505Y-64013069D01*
X200632422Y-64063737D01*
X200578256Y-64165076D01*
X200468912Y-64298312D01*
X200335675Y-64407656D01*
X200335673Y-64407657D01*
X200335672Y-64407658D01*
X200183671Y-64488904D01*
X200140750Y-64501924D01*
X200018729Y-64538939D01*
X199847200Y-64555833D01*
X199675670Y-64538939D01*
X199565711Y-64505583D01*
X199510731Y-64488905D01*
X199460063Y-64461822D01*
X199358724Y-64407656D01*
X199225488Y-64298312D01*
X199116144Y-64165075D01*
X199116142Y-64165072D01*
X199034896Y-64013071D01*
X199014732Y-63946600D01*
X198984861Y-63848129D01*
X198972200Y-63719578D01*
X198972200Y-63483621D01*
X198984861Y-63355070D01*
X199034895Y-63190132D01*
X199034896Y-63190129D01*
X199080118Y-63105524D01*
X199089496Y-63082885D01*
X199094276Y-63058852D01*
X199094276Y-63034348D01*
X199089496Y-63010314D01*
X199080118Y-62987675D01*
X199066504Y-62967301D01*
X199049177Y-62949974D01*
X199028802Y-62936360D01*
X199006163Y-62926982D01*
X198969878Y-62921600D01*
X198885641Y-62921600D01*
X198764897Y-62897582D01*
X198764895Y-62897581D01*
X198764894Y-62897581D01*
X198651152Y-62850468D01*
X198548786Y-62782069D01*
X198548783Y-62782067D01*
X198461731Y-62695015D01*
X198456133Y-62686637D01*
X198440588Y-62667695D01*
X198421646Y-62652150D01*
X198400035Y-62640599D01*
X198376585Y-62633486D01*
X198352199Y-62631084D01*
X198327813Y-62633486D01*
X198304364Y-62640599D01*
X198282753Y-62652151D01*
X198263811Y-62667696D01*
X198248266Y-62686638D01*
X198236715Y-62708249D01*
X198229602Y-62731699D01*
X198227200Y-62756084D01*
X198227200Y-63116600D01*
X197837265Y-63116600D01*
X197812879Y-63119002D01*
X197789430Y-63126115D01*
X197767819Y-63137666D01*
X197748877Y-63153212D01*
X197733331Y-63172154D01*
X197721780Y-63193765D01*
X197714667Y-63217214D01*
X197712265Y-63241600D01*
X197714667Y-63265986D01*
X197721780Y-63289435D01*
X197740638Y-63320899D01*
X197743911Y-63324887D01*
X197743912Y-63324888D01*
X197853256Y-63458124D01*
X197904401Y-63553810D01*
X197934505Y-63610131D01*
X197951183Y-63665111D01*
X197984539Y-63775070D01*
X198001433Y-63946600D01*
X197984539Y-64118130D01*
X197970298Y-64165075D01*
X197934505Y-64283069D01*
X197926357Y-64298312D01*
X197853256Y-64435076D01*
X197743912Y-64568312D01*
X197610676Y-64677656D01*
X197509337Y-64731822D01*
X197458669Y-64758905D01*
X197403689Y-64775583D01*
X197293730Y-64808939D01*
X197208029Y-64817380D01*
X197165180Y-64821600D01*
X196929220Y-64821600D01*
X196886371Y-64817380D01*
X196800670Y-64808939D01*
X196690711Y-64775583D01*
X196635731Y-64758905D01*
X196585063Y-64731822D01*
X196483724Y-64677656D01*
X196350488Y-64568312D01*
X196241144Y-64435076D01*
X196168043Y-64298312D01*
X196159895Y-64283069D01*
X196124102Y-64165075D01*
X196109861Y-64118130D01*
X196092967Y-63946600D01*
X196109861Y-63775070D01*
X196143217Y-63665111D01*
X196159895Y-63610131D01*
X196189999Y-63553810D01*
X196241144Y-63458124D01*
X196350488Y-63324888D01*
X196350489Y-63324887D01*
X196353762Y-63320899D01*
X196367375Y-63300524D01*
X196376753Y-63277885D01*
X196381533Y-63253852D01*
X196381533Y-63229347D01*
X196376752Y-63205314D01*
X196367375Y-63182675D01*
X196353761Y-63162300D01*
X196336434Y-63144973D01*
X196316059Y-63131360D01*
X196293420Y-63121982D01*
X196257135Y-63116600D01*
X195327200Y-63116600D01*
X195327200Y-61286600D01*
X198227200Y-61286600D01*
X198227200Y-61837116D01*
X198229602Y-61861502D01*
X198236715Y-61884951D01*
X198248266Y-61906562D01*
X198263812Y-61925504D01*
X198282754Y-61941050D01*
X198304365Y-61952601D01*
X198327814Y-61959714D01*
X198352200Y-61962116D01*
X198376586Y-61959714D01*
X198400035Y-61952601D01*
X198421646Y-61941050D01*
X198440588Y-61925504D01*
X198456133Y-61906563D01*
X198461731Y-61898185D01*
X198550602Y-61809314D01*
X198565587Y-61797017D01*
X198581132Y-61778075D01*
X198592684Y-61756465D01*
X198599798Y-61733016D01*
X198602200Y-61708627D01*
X198602200Y-58984573D01*
X198599798Y-58960187D01*
X198592685Y-58936738D01*
X198581134Y-58915127D01*
X198565588Y-58896185D01*
X198550603Y-58883887D01*
X198461731Y-58795015D01*
X198456133Y-58786637D01*
X198440588Y-58767695D01*
X198421646Y-58752150D01*
X198400035Y-58740599D01*
X198376585Y-58733486D01*
X198352199Y-58731084D01*
X198327813Y-58733486D01*
X198304364Y-58740599D01*
X198282753Y-58752151D01*
X198263811Y-58767696D01*
X198248266Y-58786638D01*
X198236715Y-58808249D01*
X198229602Y-58831699D01*
X198227200Y-58856084D01*
X198227200Y-59431600D01*
X195327200Y-59431600D01*
X195327200Y-57601600D01*
X196285399Y-57601600D01*
X196309785Y-57599198D01*
X196333234Y-57592085D01*
X196354845Y-57580534D01*
X196373787Y-57564988D01*
X196389333Y-57546046D01*
X196400884Y-57524435D01*
X196407997Y-57500986D01*
X196410399Y-57476600D01*
X196407997Y-57452214D01*
X196400884Y-57428765D01*
X196389333Y-57407154D01*
X196373787Y-57388212D01*
X196364708Y-57379982D01*
X196350488Y-57368312D01*
X196241144Y-57235076D01*
X196179410Y-57119578D01*
X196159895Y-57083069D01*
X196143217Y-57028089D01*
X196109861Y-56918130D01*
X196092967Y-56746600D01*
X196109861Y-56575070D01*
X196149668Y-56443846D01*
X196159895Y-56410131D01*
X196200956Y-56333312D01*
X196241144Y-56258124D01*
X196350488Y-56124888D01*
X196483724Y-56015544D01*
X196585063Y-55961378D01*
X196635731Y-55934295D01*
X196690711Y-55917617D01*
X196800670Y-55884261D01*
X196886371Y-55875820D01*
X196929220Y-55871600D01*
X197165180Y-55871600D01*
X197208029Y-55875820D01*
X197208029Y-55875820D01*
G37*
G36*
X226211365Y-62143020D02*
X226400889Y-62221523D01*
X226571455Y-62335492D01*
X226716508Y-62480545D01*
X226830477Y-62651111D01*
X226908980Y-62840635D01*
X226949000Y-63041830D01*
X226949000Y-63246970D01*
X226908980Y-63448165D01*
X226830477Y-63637689D01*
X226716508Y-63808255D01*
X226571455Y-63953308D01*
X226400889Y-64067277D01*
X226211365Y-64145780D01*
X226010170Y-64185800D01*
X225805030Y-64185800D01*
X225603835Y-64145780D01*
X225414311Y-64067277D01*
X225243745Y-63953308D01*
X225098692Y-63808255D01*
X224984723Y-63637689D01*
X224906220Y-63448165D01*
X224866200Y-63246970D01*
X224866200Y-63041830D01*
X224906220Y-62840635D01*
X224984723Y-62651111D01*
X225098692Y-62480545D01*
X225243745Y-62335492D01*
X225414311Y-62221523D01*
X225603835Y-62143020D01*
X225805030Y-62103000D01*
X226010170Y-62103000D01*
X226211365Y-62143020D01*
X226211365Y-62143020D01*
G37*
G36*
X221131365Y-62143020D02*
X221320889Y-62221523D01*
X221491455Y-62335492D01*
X221636508Y-62480545D01*
X221750477Y-62651111D01*
X221828980Y-62840635D01*
X221869000Y-63041830D01*
X221869000Y-63246970D01*
X221828980Y-63448165D01*
X221750477Y-63637689D01*
X221636508Y-63808255D01*
X221491455Y-63953308D01*
X221320889Y-64067277D01*
X221131365Y-64145780D01*
X220930170Y-64185800D01*
X220725030Y-64185800D01*
X220523835Y-64145780D01*
X220334311Y-64067277D01*
X220163745Y-63953308D01*
X220018692Y-63808255D01*
X219904723Y-63637689D01*
X219826220Y-63448165D01*
X219786200Y-63246970D01*
X219786200Y-63041830D01*
X219826220Y-62840635D01*
X219904723Y-62651111D01*
X220018692Y-62480545D01*
X220163745Y-62335492D01*
X220334311Y-62221523D01*
X220523835Y-62143020D01*
X220725030Y-62103000D01*
X220930170Y-62103000D01*
X221131365Y-62143020D01*
X221131365Y-62143020D01*
G37*
G36*
X223671365Y-62143020D02*
X223860889Y-62221523D01*
X224031455Y-62335492D01*
X224176508Y-62480545D01*
X224290477Y-62651111D01*
X224368980Y-62840635D01*
X224409000Y-63041830D01*
X224409000Y-63246970D01*
X224368980Y-63448165D01*
X224290477Y-63637689D01*
X224176508Y-63808255D01*
X224031455Y-63953308D01*
X223860889Y-64067277D01*
X223671365Y-64145780D01*
X223470170Y-64185800D01*
X223265030Y-64185800D01*
X223063835Y-64145780D01*
X222874311Y-64067277D01*
X222703745Y-63953308D01*
X222558692Y-63808255D01*
X222444723Y-63637689D01*
X222366220Y-63448165D01*
X222326200Y-63246970D01*
X222326200Y-63041830D01*
X222366220Y-62840635D01*
X222444723Y-62651111D01*
X222558692Y-62480545D01*
X222703745Y-62335492D01*
X222874311Y-62221523D01*
X223063835Y-62143020D01*
X223265030Y-62103000D01*
X223470170Y-62103000D01*
X223671365Y-62143020D01*
X223671365Y-62143020D01*
G37*
G36*
X216439497Y-62047197D02*
X216492153Y-62063170D01*
X216540665Y-62089100D01*
X216583196Y-62124004D01*
X216618100Y-62166535D01*
X216644030Y-62215047D01*
X216660003Y-62267703D01*
X216666000Y-62328590D01*
X216666000Y-63553810D01*
X216660003Y-63614697D01*
X216644030Y-63667353D01*
X216618100Y-63715865D01*
X216583196Y-63758396D01*
X216540665Y-63793300D01*
X216492153Y-63819230D01*
X216439497Y-63835203D01*
X216378610Y-63841200D01*
X215578390Y-63841200D01*
X215517503Y-63835203D01*
X215464847Y-63819230D01*
X215416335Y-63793300D01*
X215373804Y-63758396D01*
X215338900Y-63715865D01*
X215312970Y-63667353D01*
X215296997Y-63614697D01*
X215291000Y-63553810D01*
X215291000Y-62328590D01*
X215296997Y-62267703D01*
X215312970Y-62215047D01*
X215338900Y-62166535D01*
X215373804Y-62124004D01*
X215416335Y-62089100D01*
X215464847Y-62063170D01*
X215517503Y-62047197D01*
X215578390Y-62041200D01*
X216378610Y-62041200D01*
X216439497Y-62047197D01*
X216439497Y-62047197D01*
G37*
G36*
X218314497Y-62047197D02*
X218367153Y-62063170D01*
X218415665Y-62089100D01*
X218458196Y-62124004D01*
X218493100Y-62166535D01*
X218519030Y-62215047D01*
X218535003Y-62267703D01*
X218541000Y-62328590D01*
X218541000Y-63553810D01*
X218535003Y-63614697D01*
X218519030Y-63667353D01*
X218493100Y-63715865D01*
X218458196Y-63758396D01*
X218415665Y-63793300D01*
X218367153Y-63819230D01*
X218314497Y-63835203D01*
X218253610Y-63841200D01*
X217453390Y-63841200D01*
X217392503Y-63835203D01*
X217339847Y-63819230D01*
X217291335Y-63793300D01*
X217248804Y-63758396D01*
X217213900Y-63715865D01*
X217187970Y-63667353D01*
X217171997Y-63614697D01*
X217166000Y-63553810D01*
X217166000Y-62328590D01*
X217171997Y-62267703D01*
X217187970Y-62215047D01*
X217213900Y-62166535D01*
X217248804Y-62124004D01*
X217291335Y-62089100D01*
X217339847Y-62063170D01*
X217392503Y-62047197D01*
X217453390Y-62041200D01*
X218253610Y-62041200D01*
X218314497Y-62047197D01*
X218314497Y-62047197D01*
G37*
G36*
X205927066Y-59768446D02*
X205942612Y-59787388D01*
X205961554Y-59802934D01*
X205983165Y-59814485D01*
X206006614Y-59821598D01*
X206031000Y-59824000D01*
X207481000Y-59824000D01*
X207505386Y-59821598D01*
X207528835Y-59814485D01*
X207550446Y-59802934D01*
X207569388Y-59787388D01*
X207584934Y-59768446D01*
X207587310Y-59764000D01*
X208706000Y-59764000D01*
X208706000Y-62664000D01*
X207587310Y-62664000D01*
X207584934Y-62659554D01*
X207569388Y-62640612D01*
X207550446Y-62625066D01*
X207528835Y-62613515D01*
X207505386Y-62606402D01*
X207481000Y-62604000D01*
X206031000Y-62604000D01*
X206006614Y-62606402D01*
X205983165Y-62613515D01*
X205961554Y-62625066D01*
X205942612Y-62640612D01*
X205927066Y-62659554D01*
X205924690Y-62664000D01*
X204806000Y-62664000D01*
X204806000Y-59764000D01*
X205924690Y-59764000D01*
X205927066Y-59768446D01*
X205927066Y-59768446D01*
G37*
G36*
X213663997Y-59811997D02*
X213716653Y-59827970D01*
X213765165Y-59853900D01*
X213807696Y-59888804D01*
X213842600Y-59931335D01*
X213868530Y-59979847D01*
X213884503Y-60032503D01*
X213890500Y-60093390D01*
X213890500Y-61318610D01*
X213884503Y-61379497D01*
X213868530Y-61432153D01*
X213842600Y-61480665D01*
X213807696Y-61523196D01*
X213765165Y-61558100D01*
X213716653Y-61584030D01*
X213663997Y-61600003D01*
X213603110Y-61606000D01*
X212802890Y-61606000D01*
X212742003Y-61600003D01*
X212689347Y-61584030D01*
X212640835Y-61558100D01*
X212598304Y-61523196D01*
X212563400Y-61480665D01*
X212537470Y-61432153D01*
X212521497Y-61379497D01*
X212515500Y-61318610D01*
X212515500Y-60093390D01*
X212521497Y-60032503D01*
X212537470Y-59979847D01*
X212563400Y-59931335D01*
X212598304Y-59888804D01*
X212640835Y-59853900D01*
X212689347Y-59827970D01*
X212742003Y-59811997D01*
X212802890Y-59806000D01*
X213603110Y-59806000D01*
X213663997Y-59811997D01*
X213663997Y-59811997D01*
G37*
G36*
X211788997Y-59811997D02*
X211841653Y-59827970D01*
X211890165Y-59853900D01*
X211932696Y-59888804D01*
X211967600Y-59931335D01*
X211993530Y-59979847D01*
X212009503Y-60032503D01*
X212015500Y-60093390D01*
X212015500Y-61318610D01*
X212009503Y-61379497D01*
X211993530Y-61432153D01*
X211967600Y-61480665D01*
X211932696Y-61523196D01*
X211890165Y-61558100D01*
X211841653Y-61584030D01*
X211788997Y-61600003D01*
X211728110Y-61606000D01*
X210927890Y-61606000D01*
X210867003Y-61600003D01*
X210814347Y-61584030D01*
X210765835Y-61558100D01*
X210723304Y-61523196D01*
X210688400Y-61480665D01*
X210662470Y-61432153D01*
X210646497Y-61379497D01*
X210640500Y-61318610D01*
X210640500Y-60093390D01*
X210646497Y-60032503D01*
X210662470Y-59979847D01*
X210688400Y-59931335D01*
X210723304Y-59888804D01*
X210765835Y-59853900D01*
X210814347Y-59827970D01*
X210867003Y-59811997D01*
X210927890Y-59806000D01*
X211728110Y-59806000D01*
X211788997Y-59811997D01*
X211788997Y-59811997D01*
G37*
G36*
X225370900Y-58637380D02*
X223370900Y-58637380D01*
X223370900Y-57237380D01*
X225370900Y-57237380D01*
X225370900Y-58637380D01*
X225370900Y-58637380D01*
G37*
G36*
X206701530Y-56402877D02*
X206753010Y-56418493D01*
X206800442Y-56443846D01*
X206842027Y-56477973D01*
X206876154Y-56519558D01*
X206901507Y-56566990D01*
X206917123Y-56618470D01*
X206923000Y-56678140D01*
X206923000Y-57565860D01*
X206917123Y-57625530D01*
X206901507Y-57677010D01*
X206876154Y-57724442D01*
X206842027Y-57766027D01*
X206800442Y-57800154D01*
X206753010Y-57825507D01*
X206701530Y-57841123D01*
X206641860Y-57847000D01*
X205854140Y-57847000D01*
X205794470Y-57841123D01*
X205742990Y-57825507D01*
X205695558Y-57800154D01*
X205653973Y-57766027D01*
X205619846Y-57724442D01*
X205594493Y-57677010D01*
X205578877Y-57625530D01*
X205573000Y-57565860D01*
X205573000Y-56678140D01*
X205578877Y-56618470D01*
X205594493Y-56566990D01*
X205619846Y-56519558D01*
X205653973Y-56477973D01*
X205695558Y-56443846D01*
X205742990Y-56418493D01*
X205794470Y-56402877D01*
X205854140Y-56397000D01*
X206641860Y-56397000D01*
X206701530Y-56402877D01*
X206701530Y-56402877D01*
G37*
G36*
X211239497Y-56311497D02*
X211292153Y-56327470D01*
X211340665Y-56353400D01*
X211383196Y-56388304D01*
X211418100Y-56430835D01*
X211444030Y-56479347D01*
X211460003Y-56532003D01*
X211466000Y-56592890D01*
X211466000Y-57393110D01*
X211460003Y-57453997D01*
X211444030Y-57506653D01*
X211418100Y-57555165D01*
X211383196Y-57597696D01*
X211340665Y-57632600D01*
X211292153Y-57658530D01*
X211239497Y-57674503D01*
X211178610Y-57680500D01*
X209953390Y-57680500D01*
X209892503Y-57674503D01*
X209839847Y-57658530D01*
X209791335Y-57632600D01*
X209748804Y-57597696D01*
X209713900Y-57555165D01*
X209687970Y-57506653D01*
X209671997Y-57453997D01*
X209666000Y-57393110D01*
X209666000Y-56592890D01*
X209671997Y-56532003D01*
X209687970Y-56479347D01*
X209713900Y-56430835D01*
X209748804Y-56388304D01*
X209791335Y-56353400D01*
X209839847Y-56327470D01*
X209892503Y-56311497D01*
X209953390Y-56305500D01*
X211178610Y-56305500D01*
X211239497Y-56311497D01*
X211239497Y-56311497D01*
G37*
G36*
X208479530Y-56176877D02*
X208531010Y-56192493D01*
X208578442Y-56217846D01*
X208620027Y-56251973D01*
X208654154Y-56293558D01*
X208679507Y-56340990D01*
X208695123Y-56392470D01*
X208701000Y-56452140D01*
X208701000Y-57339860D01*
X208695123Y-57399530D01*
X208679507Y-57451010D01*
X208654154Y-57498442D01*
X208620027Y-57540027D01*
X208578442Y-57574154D01*
X208531010Y-57599507D01*
X208479530Y-57615123D01*
X208419860Y-57621000D01*
X207632140Y-57621000D01*
X207572470Y-57615123D01*
X207520990Y-57599507D01*
X207473558Y-57574154D01*
X207431973Y-57540027D01*
X207397846Y-57498442D01*
X207372493Y-57451010D01*
X207356877Y-57399530D01*
X207351000Y-57339860D01*
X207351000Y-56452140D01*
X207356877Y-56392470D01*
X207372493Y-56340990D01*
X207397846Y-56293558D01*
X207431973Y-56251973D01*
X207473558Y-56217846D01*
X207520990Y-56192493D01*
X207572470Y-56176877D01*
X207632140Y-56171000D01*
X208419860Y-56171000D01*
X208479530Y-56176877D01*
X208479530Y-56176877D01*
G37*
G36*
X204150997Y-54815997D02*
X204203653Y-54831970D01*
X204252165Y-54857900D01*
X204294696Y-54892804D01*
X204329600Y-54935335D01*
X204355530Y-54983847D01*
X204371503Y-55036503D01*
X204377500Y-55097390D01*
X204377500Y-56322610D01*
X204371503Y-56383497D01*
X204355530Y-56436153D01*
X204329600Y-56484665D01*
X204294696Y-56527196D01*
X204252165Y-56562100D01*
X204203653Y-56588030D01*
X204150997Y-56604003D01*
X204090110Y-56610000D01*
X203289890Y-56610000D01*
X203229003Y-56604003D01*
X203176347Y-56588030D01*
X203127835Y-56562100D01*
X203085304Y-56527196D01*
X203050400Y-56484665D01*
X203024470Y-56436153D01*
X203008497Y-56383497D01*
X203002500Y-56322610D01*
X203002500Y-55097390D01*
X203008497Y-55036503D01*
X203024470Y-54983847D01*
X203050400Y-54935335D01*
X203085304Y-54892804D01*
X203127835Y-54857900D01*
X203176347Y-54831970D01*
X203229003Y-54815997D01*
X203289890Y-54810000D01*
X204090110Y-54810000D01*
X204150997Y-54815997D01*
X204150997Y-54815997D01*
G37*
G36*
X202275997Y-54815997D02*
X202328653Y-54831970D01*
X202377165Y-54857900D01*
X202419696Y-54892804D01*
X202454600Y-54935335D01*
X202480530Y-54983847D01*
X202496503Y-55036503D01*
X202502500Y-55097390D01*
X202502500Y-56322610D01*
X202496503Y-56383497D01*
X202480530Y-56436153D01*
X202454600Y-56484665D01*
X202419696Y-56527196D01*
X202377165Y-56562100D01*
X202328653Y-56588030D01*
X202275997Y-56604003D01*
X202215110Y-56610000D01*
X201414890Y-56610000D01*
X201354003Y-56604003D01*
X201301347Y-56588030D01*
X201252835Y-56562100D01*
X201210304Y-56527196D01*
X201175400Y-56484665D01*
X201149470Y-56436153D01*
X201133497Y-56383497D01*
X201127500Y-56322610D01*
X201127500Y-55097390D01*
X201133497Y-55036503D01*
X201149470Y-54983847D01*
X201175400Y-54935335D01*
X201210304Y-54892804D01*
X201252835Y-54857900D01*
X201301347Y-54831970D01*
X201354003Y-54815997D01*
X201414890Y-54810000D01*
X202215110Y-54810000D01*
X202275997Y-54815997D01*
X202275997Y-54815997D01*
G37*
G36*
X206701530Y-54652877D02*
X206753010Y-54668493D01*
X206800442Y-54693846D01*
X206842027Y-54727973D01*
X206876154Y-54769558D01*
X206901507Y-54816990D01*
X206917123Y-54868470D01*
X206923000Y-54928140D01*
X206923000Y-55815860D01*
X206917123Y-55875530D01*
X206901507Y-55927010D01*
X206876154Y-55974442D01*
X206842027Y-56016027D01*
X206800442Y-56050154D01*
X206753010Y-56075507D01*
X206701530Y-56091123D01*
X206641860Y-56097000D01*
X205854140Y-56097000D01*
X205794470Y-56091123D01*
X205742990Y-56075507D01*
X205695558Y-56050154D01*
X205653973Y-56016027D01*
X205619846Y-55974442D01*
X205594493Y-55927010D01*
X205578877Y-55875530D01*
X205573000Y-55815860D01*
X205573000Y-54928140D01*
X205578877Y-54868470D01*
X205594493Y-54816990D01*
X205619846Y-54769558D01*
X205653973Y-54727973D01*
X205695558Y-54693846D01*
X205742990Y-54668493D01*
X205794470Y-54652877D01*
X205854140Y-54647000D01*
X206641860Y-54647000D01*
X206701530Y-54652877D01*
X206701530Y-54652877D01*
G37*
G36*
X225370900Y-55937380D02*
X223370900Y-55937380D01*
X223370900Y-54537380D01*
X225370900Y-54537380D01*
X225370900Y-55937380D01*
X225370900Y-55937380D01*
G37*
G36*
X208479530Y-54426877D02*
X208531010Y-54442493D01*
X208578442Y-54467846D01*
X208620027Y-54501973D01*
X208654154Y-54543558D01*
X208679507Y-54590990D01*
X208695123Y-54642470D01*
X208701000Y-54702140D01*
X208701000Y-55589860D01*
X208695123Y-55649530D01*
X208679507Y-55701010D01*
X208654154Y-55748442D01*
X208620027Y-55790027D01*
X208578442Y-55824154D01*
X208531010Y-55849507D01*
X208479530Y-55865123D01*
X208419860Y-55871000D01*
X207632140Y-55871000D01*
X207572470Y-55865123D01*
X207520990Y-55849507D01*
X207473558Y-55824154D01*
X207431973Y-55790027D01*
X207397846Y-55748442D01*
X207372493Y-55701010D01*
X207356877Y-55649530D01*
X207351000Y-55589860D01*
X207351000Y-54702140D01*
X207356877Y-54642470D01*
X207372493Y-54590990D01*
X207397846Y-54543558D01*
X207431973Y-54501973D01*
X207473558Y-54467846D01*
X207520990Y-54442493D01*
X207572470Y-54426877D01*
X207632140Y-54421000D01*
X208419860Y-54421000D01*
X208479530Y-54426877D01*
X208479530Y-54426877D01*
G37*
G36*
X211239497Y-54436497D02*
X211292153Y-54452470D01*
X211340665Y-54478400D01*
X211383196Y-54513304D01*
X211418100Y-54555835D01*
X211444030Y-54604347D01*
X211460003Y-54657003D01*
X211466000Y-54717890D01*
X211466000Y-55518110D01*
X211460003Y-55578997D01*
X211444030Y-55631653D01*
X211418100Y-55680165D01*
X211383196Y-55722696D01*
X211340665Y-55757600D01*
X211292153Y-55783530D01*
X211239497Y-55799503D01*
X211178610Y-55805500D01*
X209953390Y-55805500D01*
X209892503Y-55799503D01*
X209839847Y-55783530D01*
X209791335Y-55757600D01*
X209748804Y-55722696D01*
X209713900Y-55680165D01*
X209687970Y-55631653D01*
X209671997Y-55578997D01*
X209666000Y-55518110D01*
X209666000Y-54717890D01*
X209671997Y-54657003D01*
X209687970Y-54604347D01*
X209713900Y-54555835D01*
X209748804Y-54513304D01*
X209791335Y-54478400D01*
X209839847Y-54452470D01*
X209892503Y-54436497D01*
X209953390Y-54430500D01*
X211178610Y-54430500D01*
X211239497Y-54436497D01*
X211239497Y-54436497D01*
G37*
G36*
X215349526Y-55397926D02*
X212949526Y-55397926D01*
X212949526Y-50497926D01*
X215349526Y-50497926D01*
X215349526Y-55397926D01*
X215349526Y-55397926D01*
G37*
G36*
X218649526Y-55397926D02*
X216249526Y-55397926D01*
X216249526Y-50497926D01*
X218649526Y-50497926D01*
X218649526Y-55397926D01*
X218649526Y-55397926D01*
G37*
G36*
X204318497Y-52245997D02*
X204371153Y-52261970D01*
X204419665Y-52287900D01*
X204462196Y-52322804D01*
X204497100Y-52365335D01*
X204523030Y-52413847D01*
X204539003Y-52466503D01*
X204545000Y-52527390D01*
X204545000Y-53752610D01*
X204539003Y-53813497D01*
X204523030Y-53866153D01*
X204497100Y-53914665D01*
X204462196Y-53957196D01*
X204419665Y-53992100D01*
X204371153Y-54018030D01*
X204318497Y-54034003D01*
X204257610Y-54040000D01*
X203457390Y-54040000D01*
X203396503Y-54034003D01*
X203343847Y-54018030D01*
X203295335Y-53992100D01*
X203252804Y-53957196D01*
X203217900Y-53914665D01*
X203191970Y-53866153D01*
X203175997Y-53813497D01*
X203170000Y-53752610D01*
X203170000Y-52527390D01*
X203175997Y-52466503D01*
X203191970Y-52413847D01*
X203217900Y-52365335D01*
X203252804Y-52322804D01*
X203295335Y-52287900D01*
X203343847Y-52261970D01*
X203396503Y-52245997D01*
X203457390Y-52240000D01*
X204257610Y-52240000D01*
X204318497Y-52245997D01*
X204318497Y-52245997D01*
G37*
G36*
X202443497Y-52245997D02*
X202496153Y-52261970D01*
X202544665Y-52287900D01*
X202587196Y-52322804D01*
X202622100Y-52365335D01*
X202648030Y-52413847D01*
X202664003Y-52466503D01*
X202670000Y-52527390D01*
X202670000Y-53752610D01*
X202664003Y-53813497D01*
X202648030Y-53866153D01*
X202622100Y-53914665D01*
X202587196Y-53957196D01*
X202544665Y-53992100D01*
X202496153Y-54018030D01*
X202443497Y-54034003D01*
X202382610Y-54040000D01*
X201582390Y-54040000D01*
X201521503Y-54034003D01*
X201468847Y-54018030D01*
X201420335Y-53992100D01*
X201377804Y-53957196D01*
X201342900Y-53914665D01*
X201316970Y-53866153D01*
X201300997Y-53813497D01*
X201295000Y-53752610D01*
X201295000Y-52527390D01*
X201300997Y-52466503D01*
X201316970Y-52413847D01*
X201342900Y-52365335D01*
X201377804Y-52322804D01*
X201420335Y-52287900D01*
X201468847Y-52261970D01*
X201521503Y-52245997D01*
X201582390Y-52240000D01*
X202382610Y-52240000D01*
X202443497Y-52245997D01*
X202443497Y-52245997D01*
G37*
G36*
X224625034Y-48569388D02*
X224659628Y-48579882D01*
X224691501Y-48596918D01*
X224719447Y-48619853D01*
X224742382Y-48647799D01*
X224759418Y-48679672D01*
X224769912Y-48714266D01*
X224774060Y-48756381D01*
X224774060Y-49364099D01*
X224769912Y-49406214D01*
X224759418Y-49440808D01*
X224738273Y-49480368D01*
X224734303Y-49486309D01*
X224724924Y-49508948D01*
X224720143Y-49532981D01*
X224720141Y-49557485D01*
X224724920Y-49581519D01*
X224734297Y-49604158D01*
X224738265Y-49610098D01*
X224759418Y-49649672D01*
X224769912Y-49684266D01*
X224774060Y-49726381D01*
X224774060Y-50334099D01*
X224769912Y-50376214D01*
X224759418Y-50410808D01*
X224742382Y-50442681D01*
X224719447Y-50470627D01*
X224691503Y-50493560D01*
X224665246Y-50507595D01*
X224644872Y-50521209D01*
X224627545Y-50538536D01*
X224613931Y-50558911D01*
X224604553Y-50581550D01*
X224599773Y-50605583D01*
X224599773Y-50630087D01*
X224604554Y-50654121D01*
X224613931Y-50676760D01*
X224627545Y-50697134D01*
X224644872Y-50714461D01*
X224665248Y-50728076D01*
X224692252Y-50742510D01*
X224698189Y-50746477D01*
X224720828Y-50755856D01*
X224744861Y-50760637D01*
X224769365Y-50760639D01*
X224793399Y-50755860D01*
X224816038Y-50746483D01*
X224821978Y-50742515D01*
X224861552Y-50721362D01*
X224896146Y-50710868D01*
X224938261Y-50706720D01*
X225545979Y-50706720D01*
X225588094Y-50710868D01*
X225622688Y-50721362D01*
X225654561Y-50738398D01*
X225682507Y-50761333D01*
X225705442Y-50789279D01*
X225722478Y-50821152D01*
X225732972Y-50855746D01*
X225737120Y-50897861D01*
X225737120Y-51555579D01*
X225732972Y-51597694D01*
X225722478Y-51632288D01*
X225705442Y-51664161D01*
X225682507Y-51692107D01*
X225654561Y-51715042D01*
X225622688Y-51732078D01*
X225588094Y-51742572D01*
X225545979Y-51746720D01*
X224938261Y-51746720D01*
X224896146Y-51742572D01*
X224861552Y-51732078D01*
X224821992Y-51710933D01*
X224816051Y-51706963D01*
X224793412Y-51697584D01*
X224769379Y-51692803D01*
X224744875Y-51692801D01*
X224720841Y-51697580D01*
X224698202Y-51706957D01*
X224692262Y-51710925D01*
X224652688Y-51732078D01*
X224618094Y-51742572D01*
X224613501Y-51743024D01*
X224589468Y-51747804D01*
X224566829Y-51757182D01*
X224546454Y-51770795D01*
X224529127Y-51788122D01*
X224515513Y-51808497D01*
X224506136Y-51831136D01*
X224501355Y-51855169D01*
X224501355Y-51879674D01*
X224506135Y-51903707D01*
X224515513Y-51926346D01*
X224529126Y-51946721D01*
X224546453Y-51964048D01*
X224566828Y-51977662D01*
X224589467Y-51987039D01*
X224613500Y-51991820D01*
X224652974Y-51995708D01*
X224687568Y-52006202D01*
X224719441Y-52023238D01*
X224747387Y-52046173D01*
X224770322Y-52074119D01*
X224787358Y-52105992D01*
X224797852Y-52140586D01*
X224802000Y-52182701D01*
X224802000Y-52790419D01*
X224797852Y-52832534D01*
X224787358Y-52867128D01*
X224766213Y-52906688D01*
X224762243Y-52912629D01*
X224752864Y-52935268D01*
X224748083Y-52959301D01*
X224748081Y-52983805D01*
X224752860Y-53007839D01*
X224762237Y-53030478D01*
X224766205Y-53036418D01*
X224787358Y-53075992D01*
X224797852Y-53110586D01*
X224802000Y-53152701D01*
X224802000Y-53760419D01*
X224797852Y-53802534D01*
X224787358Y-53837128D01*
X224770322Y-53869001D01*
X224747387Y-53896947D01*
X224719441Y-53919882D01*
X224687568Y-53936918D01*
X224652974Y-53947412D01*
X224610859Y-53951560D01*
X223953141Y-53951560D01*
X223911026Y-53947412D01*
X223876432Y-53936918D01*
X223844559Y-53919882D01*
X223816613Y-53896947D01*
X223793678Y-53869001D01*
X223776642Y-53837128D01*
X223766148Y-53802534D01*
X223762000Y-53760419D01*
X223762000Y-53152701D01*
X223766148Y-53110586D01*
X223776642Y-53075992D01*
X223797787Y-53036432D01*
X223801757Y-53030491D01*
X223811136Y-53007852D01*
X223815917Y-52983819D01*
X223815919Y-52959315D01*
X223811140Y-52935281D01*
X223801763Y-52912642D01*
X223797795Y-52906702D01*
X223776642Y-52867128D01*
X223766148Y-52832534D01*
X223762000Y-52790419D01*
X223762000Y-52182701D01*
X223766148Y-52140586D01*
X223776642Y-52105992D01*
X223793678Y-52074119D01*
X223816613Y-52046173D01*
X223844559Y-52023238D01*
X223876432Y-52006202D01*
X223911026Y-51995708D01*
X223940621Y-51992793D01*
X223964654Y-51988012D01*
X223987293Y-51978634D01*
X224007668Y-51965020D01*
X224024994Y-51947693D01*
X224038608Y-51927318D01*
X224047985Y-51904679D01*
X224052765Y-51880645D01*
X224052765Y-51856141D01*
X224047984Y-51832108D01*
X224038606Y-51809469D01*
X224024992Y-51789094D01*
X224007665Y-51771768D01*
X223987290Y-51758154D01*
X223964651Y-51748777D01*
X223940618Y-51743997D01*
X223926146Y-51742572D01*
X223891552Y-51732078D01*
X223859679Y-51715042D01*
X223831733Y-51692107D01*
X223808798Y-51664161D01*
X223791762Y-51632288D01*
X223781268Y-51597694D01*
X223777120Y-51555579D01*
X223777120Y-50897861D01*
X223781268Y-50855746D01*
X223791762Y-50821152D01*
X223808798Y-50789279D01*
X223831733Y-50761333D01*
X223859677Y-50738400D01*
X223861368Y-50737496D01*
X223881743Y-50723882D01*
X223899070Y-50706555D01*
X223912684Y-50686181D01*
X223922062Y-50663542D01*
X223926843Y-50639509D01*
X223926843Y-50615004D01*
X223922063Y-50590971D01*
X223912686Y-50568332D01*
X223899072Y-50547957D01*
X223881745Y-50530630D01*
X223861371Y-50517016D01*
X223857494Y-50515410D01*
X223816619Y-50493562D01*
X223788673Y-50470627D01*
X223765738Y-50442681D01*
X223748702Y-50410808D01*
X223738208Y-50376214D01*
X223734060Y-50334099D01*
X223734060Y-49726381D01*
X223738208Y-49684266D01*
X223748702Y-49649672D01*
X223769847Y-49610112D01*
X223773817Y-49604171D01*
X223783196Y-49581532D01*
X223787977Y-49557499D01*
X223787979Y-49532995D01*
X223783200Y-49508961D01*
X223773823Y-49486322D01*
X223769855Y-49480382D01*
X223748702Y-49440808D01*
X223738208Y-49406214D01*
X223734060Y-49364099D01*
X223734060Y-48756381D01*
X223738208Y-48714266D01*
X223748702Y-48679672D01*
X223765738Y-48647799D01*
X223788673Y-48619853D01*
X223816619Y-48596918D01*
X223848492Y-48579882D01*
X223883086Y-48569388D01*
X223925201Y-48565240D01*
X224582919Y-48565240D01*
X224625034Y-48569388D01*
X224625034Y-48569388D01*
G37*
G36*
X203428122Y-49622517D02*
X203476085Y-49637066D01*
X203520275Y-49660686D01*
X203559018Y-49692482D01*
X203590814Y-49731225D01*
X203614434Y-49775415D01*
X203628983Y-49823378D01*
X203634500Y-49879391D01*
X203634500Y-50704609D01*
X203628983Y-50760622D01*
X203614434Y-50808585D01*
X203590814Y-50852775D01*
X203559018Y-50891518D01*
X203520275Y-50923314D01*
X203476085Y-50946934D01*
X203428122Y-50961483D01*
X203372109Y-50967000D01*
X202621891Y-50967000D01*
X202565878Y-50961483D01*
X202517915Y-50946934D01*
X202473725Y-50923314D01*
X202434982Y-50891518D01*
X202403186Y-50852775D01*
X202379566Y-50808585D01*
X202365017Y-50760622D01*
X202359500Y-50704609D01*
X202359500Y-49879391D01*
X202365017Y-49823378D01*
X202379566Y-49775415D01*
X202403186Y-49731225D01*
X202434982Y-49692482D01*
X202473725Y-49660686D01*
X202517915Y-49637066D01*
X202565878Y-49622517D01*
X202621891Y-49617000D01*
X203372109Y-49617000D01*
X203428122Y-49622517D01*
X203428122Y-49622517D01*
G37*
G36*
X201853122Y-49622517D02*
X201901085Y-49637066D01*
X201945275Y-49660686D01*
X201984018Y-49692482D01*
X202015814Y-49731225D01*
X202039434Y-49775415D01*
X202053983Y-49823378D01*
X202059500Y-49879391D01*
X202059500Y-50704609D01*
X202053983Y-50760622D01*
X202039434Y-50808585D01*
X202015814Y-50852775D01*
X201984018Y-50891518D01*
X201945275Y-50923314D01*
X201901085Y-50946934D01*
X201853122Y-50961483D01*
X201797109Y-50967000D01*
X201046891Y-50967000D01*
X200990878Y-50961483D01*
X200942915Y-50946934D01*
X200898725Y-50923314D01*
X200859982Y-50891518D01*
X200828186Y-50852775D01*
X200804566Y-50808585D01*
X200790017Y-50760622D01*
X200784500Y-50704609D01*
X200784500Y-49879391D01*
X200790017Y-49823378D01*
X200804566Y-49775415D01*
X200828186Y-49731225D01*
X200859982Y-49692482D01*
X200898725Y-49660686D01*
X200942915Y-49637066D01*
X200990878Y-49622517D01*
X201046891Y-49617000D01*
X201797109Y-49617000D01*
X201853122Y-49622517D01*
X201853122Y-49622517D01*
G37*
G36*
X212888926Y-43790526D02*
X212891328Y-43814912D01*
X212898441Y-43838361D01*
X212909992Y-43859972D01*
X212925538Y-43878914D01*
X212928284Y-43881168D01*
X212930538Y-43883914D01*
X212949480Y-43899460D01*
X212971091Y-43911011D01*
X212994540Y-43918124D01*
X213018926Y-43920526D01*
X213763926Y-43920526D01*
X213763926Y-48970526D01*
X213018926Y-48970526D01*
X212994540Y-48972928D01*
X212971091Y-48980041D01*
X212949480Y-48991592D01*
X212930538Y-49007138D01*
X212928284Y-49009884D01*
X212925538Y-49012138D01*
X212909992Y-49031080D01*
X212898441Y-49052691D01*
X212891328Y-49076140D01*
X212888926Y-49100526D01*
X212888926Y-49845526D01*
X207838926Y-49845526D01*
X207838926Y-49100526D01*
X207836524Y-49076140D01*
X207829411Y-49052691D01*
X207817860Y-49031080D01*
X207802314Y-49012138D01*
X207799568Y-49009884D01*
X207797314Y-49007138D01*
X207778372Y-48991592D01*
X207756761Y-48980041D01*
X207733312Y-48972928D01*
X207708926Y-48970526D01*
X206963926Y-48970526D01*
X206963926Y-43920526D01*
X207708926Y-43920526D01*
X207733312Y-43918124D01*
X207756761Y-43911011D01*
X207778372Y-43899460D01*
X207797314Y-43883914D01*
X207799568Y-43881168D01*
X207802314Y-43878914D01*
X207817860Y-43859972D01*
X207829411Y-43838361D01*
X207836524Y-43814912D01*
X207838926Y-43790526D01*
X207838926Y-43045526D01*
X212888926Y-43045526D01*
X212888926Y-43790526D01*
X212888926Y-43790526D01*
G37*
G36*
X198322165Y-47360220D02*
X198511689Y-47438723D01*
X198682255Y-47552692D01*
X198827308Y-47697745D01*
X198941277Y-47868311D01*
X199019780Y-48057835D01*
X199059800Y-48259030D01*
X199059800Y-48464170D01*
X199019780Y-48665365D01*
X198941277Y-48854889D01*
X198827308Y-49025455D01*
X198682255Y-49170508D01*
X198511689Y-49284477D01*
X198322165Y-49362980D01*
X198120970Y-49403000D01*
X197915830Y-49403000D01*
X197714635Y-49362980D01*
X197525111Y-49284477D01*
X197354545Y-49170508D01*
X197209492Y-49025455D01*
X197095523Y-48854889D01*
X197017020Y-48665365D01*
X196977000Y-48464170D01*
X196977000Y-48259030D01*
X197017020Y-48057835D01*
X197095523Y-47868311D01*
X197209492Y-47697745D01*
X197354545Y-47552692D01*
X197525111Y-47438723D01*
X197714635Y-47360220D01*
X197915830Y-47320200D01*
X198120970Y-47320200D01*
X198322165Y-47360220D01*
X198322165Y-47360220D01*
G37*
G36*
X201319622Y-47844517D02*
X201367585Y-47859066D01*
X201411775Y-47882686D01*
X201450518Y-47914482D01*
X201482314Y-47953225D01*
X201505934Y-47997415D01*
X201520483Y-48045378D01*
X201526000Y-48101391D01*
X201526000Y-48926609D01*
X201520483Y-48982622D01*
X201505934Y-49030585D01*
X201482314Y-49074775D01*
X201450518Y-49113518D01*
X201411775Y-49145314D01*
X201367585Y-49168934D01*
X201319622Y-49183483D01*
X201263609Y-49189000D01*
X200513391Y-49189000D01*
X200457378Y-49183483D01*
X200409415Y-49168934D01*
X200365225Y-49145314D01*
X200326482Y-49113518D01*
X200294686Y-49074775D01*
X200271066Y-49030585D01*
X200256517Y-48982622D01*
X200251000Y-48926609D01*
X200251000Y-48101391D01*
X200256517Y-48045378D01*
X200271066Y-47997415D01*
X200294686Y-47953225D01*
X200326482Y-47914482D01*
X200365225Y-47882686D01*
X200409415Y-47859066D01*
X200457378Y-47844517D01*
X200513391Y-47839000D01*
X201263609Y-47839000D01*
X201319622Y-47844517D01*
X201319622Y-47844517D01*
G37*
G36*
X202894622Y-47844517D02*
X202942585Y-47859066D01*
X202986775Y-47882686D01*
X203025518Y-47914482D01*
X203057314Y-47953225D01*
X203080934Y-47997415D01*
X203095483Y-48045378D01*
X203101000Y-48101391D01*
X203101000Y-48926609D01*
X203095483Y-48982622D01*
X203080934Y-49030585D01*
X203057314Y-49074775D01*
X203025518Y-49113518D01*
X202986775Y-49145314D01*
X202942585Y-49168934D01*
X202894622Y-49183483D01*
X202838609Y-49189000D01*
X202088391Y-49189000D01*
X202032378Y-49183483D01*
X201984415Y-49168934D01*
X201940225Y-49145314D01*
X201901482Y-49113518D01*
X201869686Y-49074775D01*
X201846066Y-49030585D01*
X201831517Y-48982622D01*
X201826000Y-48926609D01*
X201826000Y-48101391D01*
X201831517Y-48045378D01*
X201846066Y-47997415D01*
X201869686Y-47953225D01*
X201901482Y-47914482D01*
X201940225Y-47882686D01*
X201984415Y-47859066D01*
X202032378Y-47844517D01*
X202088391Y-47839000D01*
X202838609Y-47839000D01*
X202894622Y-47844517D01*
X202894622Y-47844517D01*
G37*
G36*
X216611334Y-45955728D02*
X216645928Y-45966222D01*
X216677801Y-45983258D01*
X216705747Y-46006193D01*
X216728682Y-46034139D01*
X216745718Y-46066012D01*
X216756212Y-46100606D01*
X216760360Y-46142721D01*
X216760360Y-46750439D01*
X216756000Y-46794699D01*
X216752058Y-46814526D01*
X216752058Y-46839030D01*
X216756840Y-46863063D01*
X216766218Y-46885702D01*
X216779832Y-46906076D01*
X216797160Y-46923403D01*
X216817535Y-46937016D01*
X216840174Y-46946393D01*
X216864208Y-46951172D01*
X216888712Y-46951172D01*
X216912745Y-46946390D01*
X216935380Y-46937014D01*
X216959612Y-46924062D01*
X216994206Y-46913568D01*
X217036321Y-46909420D01*
X217644039Y-46909420D01*
X217686154Y-46913568D01*
X217720748Y-46924062D01*
X217760308Y-46945207D01*
X217766249Y-46949177D01*
X217788888Y-46958556D01*
X217812921Y-46963337D01*
X217837425Y-46963339D01*
X217861459Y-46958560D01*
X217884098Y-46949183D01*
X217890038Y-46945215D01*
X217929612Y-46924062D01*
X217964206Y-46913568D01*
X218006321Y-46909420D01*
X218614039Y-46909420D01*
X218656154Y-46913568D01*
X218690748Y-46924062D01*
X218722621Y-46941098D01*
X218750567Y-46964033D01*
X218773502Y-46991979D01*
X218790538Y-47023852D01*
X218801032Y-47058446D01*
X218805180Y-47100561D01*
X218805180Y-47758279D01*
X218801032Y-47800394D01*
X218790538Y-47834988D01*
X218773502Y-47866861D01*
X218750567Y-47894807D01*
X218722621Y-47917742D01*
X218690748Y-47934778D01*
X218656154Y-47945272D01*
X218614039Y-47949420D01*
X218006321Y-47949420D01*
X217964206Y-47945272D01*
X217929612Y-47934778D01*
X217890052Y-47913633D01*
X217884111Y-47909663D01*
X217861472Y-47900284D01*
X217837439Y-47895503D01*
X217812935Y-47895501D01*
X217788901Y-47900280D01*
X217766262Y-47909657D01*
X217760322Y-47913625D01*
X217720748Y-47934778D01*
X217686154Y-47945272D01*
X217644039Y-47949420D01*
X217036321Y-47949420D01*
X216994206Y-47945272D01*
X216959612Y-47934778D01*
X216927739Y-47917742D01*
X216899792Y-47894806D01*
X216882439Y-47873662D01*
X216865111Y-47856335D01*
X216844736Y-47842722D01*
X216822097Y-47833345D01*
X216798064Y-47828565D01*
X216773559Y-47828565D01*
X216749526Y-47833346D01*
X216726887Y-47842724D01*
X216706513Y-47856338D01*
X216677802Y-47879901D01*
X216645928Y-47896938D01*
X216611334Y-47907432D01*
X216569219Y-47911580D01*
X215911501Y-47911580D01*
X215869386Y-47907432D01*
X215834792Y-47896938D01*
X215802919Y-47879902D01*
X215774973Y-47856967D01*
X215752038Y-47829021D01*
X215735002Y-47797148D01*
X215724508Y-47762554D01*
X215720360Y-47720439D01*
X215720360Y-47112721D01*
X215724508Y-47070606D01*
X215735002Y-47036012D01*
X215756147Y-46996452D01*
X215760117Y-46990511D01*
X215769496Y-46967872D01*
X215774277Y-46943839D01*
X215774279Y-46919335D01*
X215769500Y-46895301D01*
X215760123Y-46872662D01*
X215756155Y-46866722D01*
X215735002Y-46827148D01*
X215724508Y-46792554D01*
X215720360Y-46750439D01*
X215720360Y-46142721D01*
X215724508Y-46100606D01*
X215735002Y-46066012D01*
X215752038Y-46034139D01*
X215774973Y-46006193D01*
X215802919Y-45983258D01*
X215834792Y-45966222D01*
X215869386Y-45955728D01*
X215911501Y-45951580D01*
X216569219Y-45951580D01*
X216611334Y-45955728D01*
X216611334Y-45955728D01*
G37*
G36*
X198322165Y-44820220D02*
X198511689Y-44898723D01*
X198682255Y-45012692D01*
X198827308Y-45157745D01*
X198941277Y-45328311D01*
X199019780Y-45517835D01*
X199059800Y-45719030D01*
X199059800Y-45924170D01*
X199019780Y-46125365D01*
X198941277Y-46314889D01*
X198827308Y-46485455D01*
X198682255Y-46630508D01*
X198511689Y-46744477D01*
X198322165Y-46822980D01*
X198120970Y-46863000D01*
X197915830Y-46863000D01*
X197714635Y-46822980D01*
X197525111Y-46744477D01*
X197354545Y-46630508D01*
X197209492Y-46485455D01*
X197095523Y-46314889D01*
X197017020Y-46125365D01*
X196977000Y-45924170D01*
X196977000Y-45719030D01*
X197017020Y-45517835D01*
X197095523Y-45328311D01*
X197209492Y-45157745D01*
X197354545Y-45012692D01*
X197525111Y-44898723D01*
X197714635Y-44820220D01*
X197915830Y-44780200D01*
X198120970Y-44780200D01*
X198322165Y-44820220D01*
X198322165Y-44820220D01*
G37*
G36*
X202906622Y-42446617D02*
X202954585Y-42461166D01*
X202998775Y-42484786D01*
X203037518Y-42516582D01*
X203069314Y-42555325D01*
X203092934Y-42599515D01*
X203107483Y-42647478D01*
X203113000Y-42703491D01*
X203113000Y-43453709D01*
X203107483Y-43509722D01*
X203092934Y-43557685D01*
X203069314Y-43601875D01*
X203037518Y-43640618D01*
X202998775Y-43672414D01*
X202954585Y-43696034D01*
X202902902Y-43711711D01*
X202886456Y-43714983D01*
X202863817Y-43724360D01*
X202843442Y-43737974D01*
X202826115Y-43755301D01*
X202812501Y-43775676D01*
X202803124Y-43798315D01*
X202798344Y-43822349D01*
X202798344Y-43846853D01*
X202803125Y-43870886D01*
X202812502Y-43893525D01*
X202826116Y-43913900D01*
X202843443Y-43931227D01*
X202863818Y-43944841D01*
X202886457Y-43954218D01*
X202922742Y-43959600D01*
X203231200Y-43959600D01*
X203231200Y-46159600D01*
X201531200Y-46159600D01*
X201531200Y-43959600D01*
X201953258Y-43959600D01*
X201977644Y-43957198D01*
X202001093Y-43950085D01*
X202022704Y-43938534D01*
X202041646Y-43922988D01*
X202057192Y-43904046D01*
X202068743Y-43882435D01*
X202075856Y-43858986D01*
X202078258Y-43834600D01*
X202075856Y-43810214D01*
X202068743Y-43786765D01*
X202057192Y-43765154D01*
X202041646Y-43746212D01*
X202022704Y-43730666D01*
X202001093Y-43719115D01*
X201980498Y-43713956D01*
X201921415Y-43696034D01*
X201877225Y-43672414D01*
X201838482Y-43640618D01*
X201806686Y-43601875D01*
X201783066Y-43557685D01*
X201768517Y-43509722D01*
X201763000Y-43453709D01*
X201763000Y-42703491D01*
X201768517Y-42647478D01*
X201783066Y-42599515D01*
X201806686Y-42555325D01*
X201838482Y-42516582D01*
X201877225Y-42484786D01*
X201921415Y-42461166D01*
X201969378Y-42446617D01*
X202025391Y-42441100D01*
X202850609Y-42441100D01*
X202906622Y-42446617D01*
X202906622Y-42446617D01*
G37*
G36*
X206031200Y-46159600D02*
X204331200Y-46159600D01*
X204331200Y-43959600D01*
X206031200Y-43959600D01*
X206031200Y-46159600D01*
X206031200Y-46159600D01*
G37*
G36*
X222553997Y-44317997D02*
X222606653Y-44333970D01*
X222655165Y-44359900D01*
X222697696Y-44394804D01*
X222732600Y-44437335D01*
X222758530Y-44485847D01*
X222774503Y-44538503D01*
X222780500Y-44599390D01*
X222780500Y-45824610D01*
X222774503Y-45885497D01*
X222758530Y-45938153D01*
X222732600Y-45986665D01*
X222697696Y-46029196D01*
X222655165Y-46064100D01*
X222606653Y-46090030D01*
X222553997Y-46106003D01*
X222493110Y-46112000D01*
X221692890Y-46112000D01*
X221632003Y-46106003D01*
X221579347Y-46090030D01*
X221530835Y-46064100D01*
X221488304Y-46029196D01*
X221453400Y-45986665D01*
X221427470Y-45938153D01*
X221411497Y-45885497D01*
X221405500Y-45824610D01*
X221405500Y-44599390D01*
X221411497Y-44538503D01*
X221427470Y-44485847D01*
X221453400Y-44437335D01*
X221488304Y-44394804D01*
X221530835Y-44359900D01*
X221579347Y-44333970D01*
X221632003Y-44317997D01*
X221692890Y-44312000D01*
X222493110Y-44312000D01*
X222553997Y-44317997D01*
X222553997Y-44317997D01*
G37*
G36*
X220678997Y-44317997D02*
X220731653Y-44333970D01*
X220780165Y-44359900D01*
X220822696Y-44394804D01*
X220857600Y-44437335D01*
X220883530Y-44485847D01*
X220899503Y-44538503D01*
X220905500Y-44599390D01*
X220905500Y-45824610D01*
X220899503Y-45885497D01*
X220883530Y-45938153D01*
X220857600Y-45986665D01*
X220822696Y-46029196D01*
X220780165Y-46064100D01*
X220731653Y-46090030D01*
X220678997Y-46106003D01*
X220618110Y-46112000D01*
X219817890Y-46112000D01*
X219757003Y-46106003D01*
X219704347Y-46090030D01*
X219655835Y-46064100D01*
X219613304Y-46029196D01*
X219578400Y-45986665D01*
X219552470Y-45938153D01*
X219536497Y-45885497D01*
X219530500Y-45824610D01*
X219530500Y-44599390D01*
X219536497Y-44538503D01*
X219552470Y-44485847D01*
X219578400Y-44437335D01*
X219613304Y-44394804D01*
X219655835Y-44359900D01*
X219704347Y-44333970D01*
X219757003Y-44317997D01*
X219817890Y-44312000D01*
X220618110Y-44312000D01*
X220678997Y-44317997D01*
X220678997Y-44317997D01*
G37*
G36*
X224137997Y-42793997D02*
X224190653Y-42809970D01*
X224239165Y-42835900D01*
X224281696Y-42870804D01*
X224316600Y-42913335D01*
X224342530Y-42961847D01*
X224358503Y-43014503D01*
X224364500Y-43075390D01*
X224364500Y-44300610D01*
X224358503Y-44361497D01*
X224342530Y-44414153D01*
X224316600Y-44462665D01*
X224281696Y-44505196D01*
X224239165Y-44540100D01*
X224190653Y-44566030D01*
X224137997Y-44582003D01*
X224077110Y-44588000D01*
X223276890Y-44588000D01*
X223216003Y-44582003D01*
X223163347Y-44566030D01*
X223114835Y-44540100D01*
X223072304Y-44505196D01*
X223037400Y-44462665D01*
X223011470Y-44414153D01*
X222995497Y-44361497D01*
X222989500Y-44300610D01*
X222989500Y-43075390D01*
X222995497Y-43014503D01*
X223011470Y-42961847D01*
X223037400Y-42913335D01*
X223072304Y-42870804D01*
X223114835Y-42835900D01*
X223163347Y-42809970D01*
X223216003Y-42793997D01*
X223276890Y-42788000D01*
X224077110Y-42788000D01*
X224137997Y-42793997D01*
X224137997Y-42793997D01*
G37*
G36*
X226012997Y-42793997D02*
X226065653Y-42809970D01*
X226114165Y-42835900D01*
X226156696Y-42870804D01*
X226191600Y-42913335D01*
X226217530Y-42961847D01*
X226233503Y-43014503D01*
X226239500Y-43075390D01*
X226239500Y-44300610D01*
X226233503Y-44361497D01*
X226217530Y-44414153D01*
X226191600Y-44462665D01*
X226156696Y-44505196D01*
X226114165Y-44540100D01*
X226065653Y-44566030D01*
X226012997Y-44582003D01*
X225952110Y-44588000D01*
X225151890Y-44588000D01*
X225091003Y-44582003D01*
X225038347Y-44566030D01*
X224989835Y-44540100D01*
X224947304Y-44505196D01*
X224912400Y-44462665D01*
X224886470Y-44414153D01*
X224870497Y-44361497D01*
X224864500Y-44300610D01*
X224864500Y-43075390D01*
X224870497Y-43014503D01*
X224886470Y-42961847D01*
X224912400Y-42913335D01*
X224947304Y-42870804D01*
X224989835Y-42835900D01*
X225038347Y-42809970D01*
X225091003Y-42793997D01*
X225151890Y-42788000D01*
X225952110Y-42788000D01*
X226012997Y-42793997D01*
X226012997Y-42793997D01*
G37*
G36*
X198322165Y-42280220D02*
X198511689Y-42358723D01*
X198682255Y-42472692D01*
X198827308Y-42617745D01*
X198941277Y-42788311D01*
X199019780Y-42977835D01*
X199059800Y-43179030D01*
X199059800Y-43384170D01*
X199019780Y-43585365D01*
X198941277Y-43774889D01*
X198827308Y-43945455D01*
X198682255Y-44090508D01*
X198511689Y-44204477D01*
X198322165Y-44282980D01*
X198120970Y-44323000D01*
X197915830Y-44323000D01*
X197714635Y-44282980D01*
X197525111Y-44204477D01*
X197354545Y-44090508D01*
X197209492Y-43945455D01*
X197095523Y-43774889D01*
X197017020Y-43585365D01*
X196977000Y-43384170D01*
X196977000Y-43179030D01*
X197017020Y-42977835D01*
X197095523Y-42788311D01*
X197209492Y-42617745D01*
X197354545Y-42472692D01*
X197525111Y-42358723D01*
X197714635Y-42280220D01*
X197915830Y-42240200D01*
X198120970Y-42240200D01*
X198322165Y-42280220D01*
X198322165Y-42280220D01*
G37*
G36*
X218826000Y-43780000D02*
X216626000Y-43780000D01*
X216626000Y-42580000D01*
X218826000Y-42580000D01*
X218826000Y-43780000D01*
X218826000Y-43780000D01*
G37*
G36*
X221826000Y-43780000D02*
X219626000Y-43780000D01*
X219626000Y-42580000D01*
X221826000Y-42580000D01*
X221826000Y-43780000D01*
X221826000Y-43780000D01*
G37*
G36*
X207124697Y-42290697D02*
X207177353Y-42306670D01*
X207225865Y-42332600D01*
X207268396Y-42367504D01*
X207303300Y-42410035D01*
X207329230Y-42458547D01*
X207345203Y-42511203D01*
X207351200Y-42572090D01*
X207351200Y-43372310D01*
X207345203Y-43433197D01*
X207329230Y-43485853D01*
X207303300Y-43534365D01*
X207268396Y-43576896D01*
X207225865Y-43611800D01*
X207177353Y-43637730D01*
X207124697Y-43653703D01*
X207063810Y-43659700D01*
X205838590Y-43659700D01*
X205777703Y-43653703D01*
X205725047Y-43637730D01*
X205676535Y-43611800D01*
X205634004Y-43576896D01*
X205599100Y-43534365D01*
X205573170Y-43485853D01*
X205557197Y-43433197D01*
X205551200Y-43372310D01*
X205551200Y-42572090D01*
X205557197Y-42511203D01*
X205573170Y-42458547D01*
X205599100Y-42410035D01*
X205634004Y-42367504D01*
X205676535Y-42332600D01*
X205725047Y-42306670D01*
X205777703Y-42290697D01*
X205838590Y-42284700D01*
X207063810Y-42284700D01*
X207124697Y-42290697D01*
X207124697Y-42290697D01*
G37*
G36*
X205040222Y-42345017D02*
X205088185Y-42359566D01*
X205132375Y-42383186D01*
X205171118Y-42414982D01*
X205202914Y-42453725D01*
X205226534Y-42497915D01*
X205241083Y-42545878D01*
X205246600Y-42601891D01*
X205246600Y-43352109D01*
X205241083Y-43408122D01*
X205226534Y-43456085D01*
X205202914Y-43500275D01*
X205171118Y-43539018D01*
X205132375Y-43570814D01*
X205088185Y-43594434D01*
X205040222Y-43608983D01*
X204984209Y-43614500D01*
X204158991Y-43614500D01*
X204102978Y-43608983D01*
X204055015Y-43594434D01*
X204010825Y-43570814D01*
X203972082Y-43539018D01*
X203940286Y-43500275D01*
X203916666Y-43456085D01*
X203902117Y-43408122D01*
X203896600Y-43352109D01*
X203896600Y-42601891D01*
X203902117Y-42545878D01*
X203916666Y-42497915D01*
X203940286Y-42453725D01*
X203972082Y-42414982D01*
X204010825Y-42383186D01*
X204055015Y-42359566D01*
X204102978Y-42345017D01*
X204158991Y-42339500D01*
X204984209Y-42339500D01*
X205040222Y-42345017D01*
X205040222Y-42345017D01*
G37*
G36*
X218826000Y-42280000D02*
X216626000Y-42280000D01*
X216626000Y-41080000D01*
X218826000Y-41080000D01*
X218826000Y-42280000D01*
X218826000Y-42280000D01*
G37*
G36*
X221826000Y-42280000D02*
X219626000Y-42280000D01*
X219626000Y-41080000D01*
X221826000Y-41080000D01*
X221826000Y-42280000D01*
X221826000Y-42280000D01*
G37*
G36*
X225209497Y-40817497D02*
X225262153Y-40833470D01*
X225310665Y-40859400D01*
X225353196Y-40894304D01*
X225388100Y-40936835D01*
X225414030Y-40985347D01*
X225430003Y-41038003D01*
X225436000Y-41098890D01*
X225436000Y-41899110D01*
X225430003Y-41959997D01*
X225414030Y-42012653D01*
X225388100Y-42061165D01*
X225353196Y-42103696D01*
X225310665Y-42138600D01*
X225262153Y-42164530D01*
X225209497Y-42180503D01*
X225148610Y-42186500D01*
X223923390Y-42186500D01*
X223862503Y-42180503D01*
X223809847Y-42164530D01*
X223761335Y-42138600D01*
X223718804Y-42103696D01*
X223683900Y-42061165D01*
X223657970Y-42012653D01*
X223641997Y-41959997D01*
X223636000Y-41899110D01*
X223636000Y-41098890D01*
X223641997Y-41038003D01*
X223657970Y-40985347D01*
X223683900Y-40936835D01*
X223718804Y-40894304D01*
X223761335Y-40859400D01*
X223809847Y-40833470D01*
X223862503Y-40817497D01*
X223923390Y-40811500D01*
X225148610Y-40811500D01*
X225209497Y-40817497D01*
X225209497Y-40817497D01*
G37*
G36*
X202906622Y-40871617D02*
X202954585Y-40886166D01*
X202998775Y-40909786D01*
X203037518Y-40941582D01*
X203069314Y-40980325D01*
X203092934Y-41024515D01*
X203107483Y-41072478D01*
X203113000Y-41128491D01*
X203113000Y-41878709D01*
X203107483Y-41934722D01*
X203092934Y-41982685D01*
X203069314Y-42026875D01*
X203037518Y-42065618D01*
X202998775Y-42097414D01*
X202954585Y-42121034D01*
X202906622Y-42135583D01*
X202850609Y-42141100D01*
X202025391Y-42141100D01*
X201969378Y-42135583D01*
X201921415Y-42121034D01*
X201877225Y-42097414D01*
X201838482Y-42065618D01*
X201806686Y-42026875D01*
X201783066Y-41982685D01*
X201768517Y-41934722D01*
X201763000Y-41878709D01*
X201763000Y-41128491D01*
X201768517Y-41072478D01*
X201783066Y-41024515D01*
X201806686Y-40980325D01*
X201838482Y-40941582D01*
X201877225Y-40909786D01*
X201921415Y-40886166D01*
X201969378Y-40871617D01*
X202025391Y-40866100D01*
X202850609Y-40866100D01*
X202906622Y-40871617D01*
X202906622Y-40871617D01*
G37*
G36*
X205040222Y-40770017D02*
X205088185Y-40784566D01*
X205132375Y-40808186D01*
X205171118Y-40839982D01*
X205202914Y-40878725D01*
X205226534Y-40922915D01*
X205241083Y-40970878D01*
X205246600Y-41026891D01*
X205246600Y-41777109D01*
X205241083Y-41833122D01*
X205226534Y-41881085D01*
X205202914Y-41925275D01*
X205171118Y-41964018D01*
X205132375Y-41995814D01*
X205088185Y-42019434D01*
X205040222Y-42033983D01*
X204984209Y-42039500D01*
X204158991Y-42039500D01*
X204102978Y-42033983D01*
X204055015Y-42019434D01*
X204010825Y-41995814D01*
X203972082Y-41964018D01*
X203940286Y-41925275D01*
X203916666Y-41881085D01*
X203902117Y-41833122D01*
X203896600Y-41777109D01*
X203896600Y-41026891D01*
X203902117Y-40970878D01*
X203916666Y-40922915D01*
X203940286Y-40878725D01*
X203972082Y-40839982D01*
X204010825Y-40808186D01*
X204055015Y-40784566D01*
X204102978Y-40770017D01*
X204158991Y-40764500D01*
X204984209Y-40764500D01*
X205040222Y-40770017D01*
X205040222Y-40770017D01*
G37*
G36*
X207182793Y-40410690D02*
X207196407Y-40431065D01*
X207213734Y-40448392D01*
X207218641Y-40451671D01*
X207268396Y-40492504D01*
X207303300Y-40535035D01*
X207329230Y-40583547D01*
X207345203Y-40636203D01*
X207351200Y-40697090D01*
X207351200Y-41497310D01*
X207345203Y-41558197D01*
X207329230Y-41610853D01*
X207303300Y-41659365D01*
X207268396Y-41701896D01*
X207225865Y-41736800D01*
X207177353Y-41762730D01*
X207124697Y-41778703D01*
X207063810Y-41784700D01*
X205838590Y-41784700D01*
X205777703Y-41778703D01*
X205725047Y-41762730D01*
X205676535Y-41736800D01*
X205634004Y-41701896D01*
X205599100Y-41659365D01*
X205573170Y-41610853D01*
X205557197Y-41558197D01*
X205551200Y-41497310D01*
X205551200Y-40697090D01*
X205557197Y-40636203D01*
X205573170Y-40583547D01*
X205599100Y-40535035D01*
X205634004Y-40492504D01*
X205676535Y-40457600D01*
X205725047Y-40431670D01*
X205777703Y-40415697D01*
X205838590Y-40409700D01*
X207063810Y-40409700D01*
X207115915Y-40414832D01*
X207140419Y-40414832D01*
X207164452Y-40410052D01*
X207179881Y-40403661D01*
X207182793Y-40410690D01*
X207182793Y-40410690D01*
G37*
G36*
X196675000Y-41350000D02*
X194675000Y-41350000D01*
X194675000Y-39250000D01*
X196675000Y-39250000D01*
X196675000Y-41350000D01*
X196675000Y-41350000D01*
G37*
G36*
X222476318Y-39494411D02*
X222548767Y-39508822D01*
X222605303Y-39532240D01*
X222685257Y-39565358D01*
X222808100Y-39647439D01*
X222912561Y-39751900D01*
X222994642Y-39874743D01*
X223023789Y-39945110D01*
X223033167Y-39967750D01*
X223051178Y-40011234D01*
X223076325Y-40137653D01*
X223080000Y-40156131D01*
X223080000Y-40303869D01*
X223051253Y-40448392D01*
X223051178Y-40448766D01*
X222994642Y-40585257D01*
X222912561Y-40708100D01*
X222808100Y-40812561D01*
X222685257Y-40894642D01*
X222642911Y-40912182D01*
X222548767Y-40951178D01*
X222498031Y-40961270D01*
X222403870Y-40980000D01*
X222256130Y-40980000D01*
X222161969Y-40961270D01*
X222111233Y-40951178D01*
X222017089Y-40912182D01*
X221998835Y-40904621D01*
X221975386Y-40897508D01*
X221951000Y-40895106D01*
X221949215Y-40895282D01*
X221944015Y-40885554D01*
X221928469Y-40866612D01*
X221909527Y-40851066D01*
X221851900Y-40812561D01*
X221747439Y-40708100D01*
X221665358Y-40585257D01*
X221608822Y-40448766D01*
X221608748Y-40448392D01*
X221580000Y-40303869D01*
X221580000Y-40156131D01*
X221583676Y-40137653D01*
X221608822Y-40011234D01*
X221626834Y-39967750D01*
X221636211Y-39945110D01*
X221665358Y-39874743D01*
X221747439Y-39751900D01*
X221851900Y-39647439D01*
X221974743Y-39565358D01*
X222054697Y-39532240D01*
X222111233Y-39508822D01*
X222183682Y-39494411D01*
X222256130Y-39480000D01*
X222403870Y-39480000D01*
X222476318Y-39494411D01*
X222476318Y-39494411D01*
G37*
G36*
X217630997Y-38983997D02*
X217683653Y-38999970D01*
X217732165Y-39025900D01*
X217774696Y-39060804D01*
X217809600Y-39103335D01*
X217835530Y-39151847D01*
X217851503Y-39204503D01*
X217857500Y-39265390D01*
X217857500Y-40490610D01*
X217851503Y-40551497D01*
X217835530Y-40604153D01*
X217809600Y-40652665D01*
X217774696Y-40695196D01*
X217732165Y-40730100D01*
X217683653Y-40756030D01*
X217630997Y-40772003D01*
X217570110Y-40778000D01*
X216769890Y-40778000D01*
X216709003Y-40772003D01*
X216656347Y-40756030D01*
X216607835Y-40730100D01*
X216565304Y-40695196D01*
X216530400Y-40652665D01*
X216504470Y-40604153D01*
X216488497Y-40551497D01*
X216482500Y-40490610D01*
X216482500Y-39265390D01*
X216488497Y-39204503D01*
X216504470Y-39151847D01*
X216530400Y-39103335D01*
X216565304Y-39060804D01*
X216607835Y-39025900D01*
X216656347Y-38999970D01*
X216709003Y-38983997D01*
X216769890Y-38978000D01*
X217570110Y-38978000D01*
X217630997Y-38983997D01*
X217630997Y-38983997D01*
G37*
G36*
X219505997Y-38983997D02*
X219558653Y-38999970D01*
X219607165Y-39025900D01*
X219649696Y-39060804D01*
X219684600Y-39103335D01*
X219710530Y-39151847D01*
X219726503Y-39204503D01*
X219732500Y-39265390D01*
X219732500Y-40490610D01*
X219726503Y-40551497D01*
X219710530Y-40604153D01*
X219684600Y-40652665D01*
X219649696Y-40695196D01*
X219607165Y-40730100D01*
X219558653Y-40756030D01*
X219505997Y-40772003D01*
X219445110Y-40778000D01*
X218644890Y-40778000D01*
X218584003Y-40772003D01*
X218531347Y-40756030D01*
X218482835Y-40730100D01*
X218440304Y-40695196D01*
X218405400Y-40652665D01*
X218379470Y-40604153D01*
X218363497Y-40551497D01*
X218357500Y-40490610D01*
X218357500Y-39265390D01*
X218363497Y-39204503D01*
X218379470Y-39151847D01*
X218405400Y-39103335D01*
X218440304Y-39060804D01*
X218482835Y-39025900D01*
X218531347Y-38999970D01*
X218584003Y-38983997D01*
X218644890Y-38978000D01*
X219445110Y-38978000D01*
X219505997Y-38983997D01*
X219505997Y-38983997D01*
G37*
G36*
X225209497Y-38942497D02*
X225262153Y-38958470D01*
X225310665Y-38984400D01*
X225353196Y-39019304D01*
X225388100Y-39061835D01*
X225414030Y-39110347D01*
X225430003Y-39163003D01*
X225436000Y-39223890D01*
X225436000Y-40024110D01*
X225430003Y-40084997D01*
X225414030Y-40137653D01*
X225388100Y-40186165D01*
X225353196Y-40228696D01*
X225310665Y-40263600D01*
X225262153Y-40289530D01*
X225209497Y-40305503D01*
X225148610Y-40311500D01*
X223923390Y-40311500D01*
X223862503Y-40305503D01*
X223809847Y-40289530D01*
X223761335Y-40263600D01*
X223718804Y-40228696D01*
X223683900Y-40186165D01*
X223657970Y-40137653D01*
X223641997Y-40084997D01*
X223636000Y-40024110D01*
X223636000Y-39223890D01*
X223641997Y-39163003D01*
X223657970Y-39110347D01*
X223683900Y-39061835D01*
X223718804Y-39019304D01*
X223761335Y-38984400D01*
X223809847Y-38958470D01*
X223862503Y-38942497D01*
X223923390Y-38936500D01*
X225148610Y-38936500D01*
X225209497Y-38942497D01*
X225209497Y-38942497D01*
G37*
G36*
X208643497Y-38863497D02*
X208696153Y-38879470D01*
X208744665Y-38905400D01*
X208787196Y-38940304D01*
X208822100Y-38982835D01*
X208848030Y-39031347D01*
X208864003Y-39084003D01*
X208870000Y-39144890D01*
X208870000Y-39945110D01*
X208864003Y-40005997D01*
X208848030Y-40058653D01*
X208822100Y-40107165D01*
X208787196Y-40149696D01*
X208744665Y-40184600D01*
X208696153Y-40210530D01*
X208643497Y-40226503D01*
X208582610Y-40232500D01*
X207357390Y-40232500D01*
X207305285Y-40227368D01*
X207280781Y-40227368D01*
X207256748Y-40232148D01*
X207241319Y-40238539D01*
X207238407Y-40231510D01*
X207224793Y-40211135D01*
X207207466Y-40193808D01*
X207202559Y-40190529D01*
X207152804Y-40149696D01*
X207117900Y-40107165D01*
X207091970Y-40058653D01*
X207075997Y-40005997D01*
X207070000Y-39945110D01*
X207070000Y-39144890D01*
X207075997Y-39084003D01*
X207091970Y-39031347D01*
X207117900Y-38982835D01*
X207152804Y-38940304D01*
X207195335Y-38905400D01*
X207243847Y-38879470D01*
X207296503Y-38863497D01*
X207357390Y-38857500D01*
X208582610Y-38857500D01*
X208643497Y-38863497D01*
X208643497Y-38863497D01*
G37*
G36*
X195850770Y-36775372D02*
X195966689Y-36798429D01*
X196148678Y-36873811D01*
X196312463Y-36983249D01*
X196451751Y-37122537D01*
X196561189Y-37286322D01*
X196636571Y-37468311D01*
X196675000Y-37661509D01*
X196675000Y-37858491D01*
X196636571Y-38051689D01*
X196561189Y-38233678D01*
X196451751Y-38397463D01*
X196312463Y-38536751D01*
X196148678Y-38646189D01*
X195966689Y-38721571D01*
X195850770Y-38744628D01*
X195773493Y-38760000D01*
X195576507Y-38760000D01*
X195499230Y-38744628D01*
X195383311Y-38721571D01*
X195201322Y-38646189D01*
X195037537Y-38536751D01*
X194898249Y-38397463D01*
X194788811Y-38233678D01*
X194713429Y-38051689D01*
X194675000Y-37858491D01*
X194675000Y-37661509D01*
X194713429Y-37468311D01*
X194788811Y-37286322D01*
X194898249Y-37122537D01*
X195037537Y-36983249D01*
X195201322Y-36873811D01*
X195383311Y-36798429D01*
X195499230Y-36775372D01*
X195576507Y-36760000D01*
X195773493Y-36760000D01*
X195850770Y-36775372D01*
X195850770Y-36775372D01*
G37*
G36*
X222615000Y-38364800D02*
X217515000Y-38364800D01*
X217515000Y-35964800D01*
X222615000Y-35964800D01*
X222615000Y-38364800D01*
X222615000Y-38364800D01*
G37*
G36*
X208643497Y-36988497D02*
X208696153Y-37004470D01*
X208744665Y-37030400D01*
X208787196Y-37065304D01*
X208822100Y-37107835D01*
X208848030Y-37156347D01*
X208864003Y-37209003D01*
X208870000Y-37269890D01*
X208870000Y-38070110D01*
X208864003Y-38130997D01*
X208848030Y-38183653D01*
X208822100Y-38232165D01*
X208787196Y-38274696D01*
X208744665Y-38309600D01*
X208696153Y-38335530D01*
X208643497Y-38351503D01*
X208582610Y-38357500D01*
X207357390Y-38357500D01*
X207296503Y-38351503D01*
X207243847Y-38335530D01*
X207195335Y-38309600D01*
X207152804Y-38274696D01*
X207117900Y-38232165D01*
X207091970Y-38183653D01*
X207075997Y-38130997D01*
X207070000Y-38070110D01*
X207070000Y-37269890D01*
X207075997Y-37209003D01*
X207091970Y-37156347D01*
X207117900Y-37107835D01*
X207152804Y-37065304D01*
X207195335Y-37030400D01*
X207243847Y-37004470D01*
X207296503Y-36988497D01*
X207357390Y-36982500D01*
X208582610Y-36982500D01*
X208643497Y-36988497D01*
X208643497Y-36988497D01*
G37*
G36*
X216465000Y-36914800D02*
X214065000Y-36914800D01*
X214065000Y-23514800D01*
X216465000Y-23514800D01*
X216465000Y-36914800D01*
X216465000Y-36914800D01*
G37*
G36*
X226065000Y-36914800D02*
X223665000Y-36914800D01*
X223665000Y-23514800D01*
X226065000Y-23514800D01*
X226065000Y-36914800D01*
X226065000Y-36914800D01*
G37*
G36*
X195850770Y-34235372D02*
X195966689Y-34258429D01*
X196148678Y-34333811D01*
X196312463Y-34443249D01*
X196451751Y-34582537D01*
X196561189Y-34746322D01*
X196636571Y-34928311D01*
X196675000Y-35121509D01*
X196675000Y-35318491D01*
X196636571Y-35511689D01*
X196561189Y-35693678D01*
X196451751Y-35857463D01*
X196312463Y-35996751D01*
X196148678Y-36106189D01*
X195966689Y-36181571D01*
X195850770Y-36204628D01*
X195773493Y-36220000D01*
X195576507Y-36220000D01*
X195499230Y-36204628D01*
X195383311Y-36181571D01*
X195201322Y-36106189D01*
X195037537Y-35996751D01*
X194898249Y-35857463D01*
X194788811Y-35693678D01*
X194713429Y-35511689D01*
X194675000Y-35318491D01*
X194675000Y-35121509D01*
X194713429Y-34928311D01*
X194788811Y-34746322D01*
X194898249Y-34582537D01*
X195037537Y-34443249D01*
X195201322Y-34333811D01*
X195383311Y-34258429D01*
X195499230Y-34235372D01*
X195576507Y-34220000D01*
X195773493Y-34220000D01*
X195850770Y-34235372D01*
X195850770Y-34235372D01*
G37*
G36*
X195847917Y-31694804D02*
X195966689Y-31718429D01*
X196148678Y-31793811D01*
X196312463Y-31903249D01*
X196451751Y-32042537D01*
X196561189Y-32206322D01*
X196636571Y-32388311D01*
X196675000Y-32581509D01*
X196675000Y-32778491D01*
X196636571Y-32971689D01*
X196561189Y-33153678D01*
X196451751Y-33317463D01*
X196312463Y-33456751D01*
X196148678Y-33566189D01*
X195966689Y-33641571D01*
X195850770Y-33664628D01*
X195773493Y-33680000D01*
X195576507Y-33680000D01*
X195499230Y-33664628D01*
X195383311Y-33641571D01*
X195201322Y-33566189D01*
X195037537Y-33456751D01*
X194898249Y-33317463D01*
X194788811Y-33153678D01*
X194713429Y-32971689D01*
X194675000Y-32778491D01*
X194675000Y-32581509D01*
X194713429Y-32388311D01*
X194788811Y-32206322D01*
X194898249Y-32042537D01*
X195037537Y-31903249D01*
X195201322Y-31793811D01*
X195383311Y-31718429D01*
X195502083Y-31694804D01*
X195576507Y-31680000D01*
X195773493Y-31680000D01*
X195847917Y-31694804D01*
X195847917Y-31694804D01*
G37*
G36*
X207724997Y-31617997D02*
X207777653Y-31633970D01*
X207826165Y-31659900D01*
X207868696Y-31694804D01*
X207903600Y-31737335D01*
X207929530Y-31785847D01*
X207945503Y-31838503D01*
X207951500Y-31899390D01*
X207951500Y-33124610D01*
X207945503Y-33185497D01*
X207929530Y-33238153D01*
X207903600Y-33286665D01*
X207868696Y-33329196D01*
X207826165Y-33364100D01*
X207777653Y-33390030D01*
X207724997Y-33406003D01*
X207664110Y-33412000D01*
X206863890Y-33412000D01*
X206803003Y-33406003D01*
X206750347Y-33390030D01*
X206701835Y-33364100D01*
X206659304Y-33329196D01*
X206624400Y-33286665D01*
X206598470Y-33238153D01*
X206582497Y-33185497D01*
X206576500Y-33124610D01*
X206576500Y-31899390D01*
X206582497Y-31838503D01*
X206598470Y-31785847D01*
X206624400Y-31737335D01*
X206659304Y-31694804D01*
X206701835Y-31659900D01*
X206750347Y-31633970D01*
X206803003Y-31617997D01*
X206863890Y-31612000D01*
X207664110Y-31612000D01*
X207724997Y-31617997D01*
X207724997Y-31617997D01*
G37*
G36*
X205849997Y-31617997D02*
X205902653Y-31633970D01*
X205951165Y-31659900D01*
X205993696Y-31694804D01*
X206028600Y-31737335D01*
X206054530Y-31785847D01*
X206070503Y-31838503D01*
X206076500Y-31899390D01*
X206076500Y-33124610D01*
X206070503Y-33185497D01*
X206054530Y-33238153D01*
X206028600Y-33286665D01*
X205993696Y-33329196D01*
X205951165Y-33364100D01*
X205902653Y-33390030D01*
X205849997Y-33406003D01*
X205789110Y-33412000D01*
X204988890Y-33412000D01*
X204928003Y-33406003D01*
X204875347Y-33390030D01*
X204826835Y-33364100D01*
X204784304Y-33329196D01*
X204749400Y-33286665D01*
X204723470Y-33238153D01*
X204707497Y-33185497D01*
X204701500Y-33124610D01*
X204701500Y-31899390D01*
X204707497Y-31838503D01*
X204723470Y-31785847D01*
X204749400Y-31737335D01*
X204784304Y-31694804D01*
X204826835Y-31659900D01*
X204875347Y-31633970D01*
X204928003Y-31617997D01*
X204988890Y-31612000D01*
X205789110Y-31612000D01*
X205849997Y-31617997D01*
X205849997Y-31617997D01*
G37*
G36*
X222476318Y-31514411D02*
X222548767Y-31528822D01*
X222605303Y-31552240D01*
X222685257Y-31585358D01*
X222808100Y-31667439D01*
X222912561Y-31771900D01*
X222994642Y-31894743D01*
X223019912Y-31955750D01*
X223051178Y-32031233D01*
X223065589Y-32103682D01*
X223080000Y-32176130D01*
X223080000Y-32323870D01*
X223051178Y-32468766D01*
X222994642Y-32605257D01*
X222912561Y-32728100D01*
X222808100Y-32832561D01*
X222685257Y-32914642D01*
X222605303Y-32947760D01*
X222548767Y-32971178D01*
X222476318Y-32985589D01*
X222403870Y-33000000D01*
X222256130Y-33000000D01*
X222183682Y-32985589D01*
X222111233Y-32971178D01*
X222054697Y-32947760D01*
X221974743Y-32914642D01*
X221851900Y-32832561D01*
X221747439Y-32728100D01*
X221665358Y-32605257D01*
X221608822Y-32468766D01*
X221580000Y-32323870D01*
X221580000Y-32176130D01*
X221594411Y-32103682D01*
X221608822Y-32031233D01*
X221640088Y-31955750D01*
X221665358Y-31894743D01*
X221747439Y-31771900D01*
X221851900Y-31667439D01*
X221974743Y-31585358D01*
X222054697Y-31552240D01*
X222111233Y-31528822D01*
X222183682Y-31514411D01*
X222256130Y-31500000D01*
X222403870Y-31500000D01*
X222476318Y-31514411D01*
X222476318Y-31514411D01*
G37*
G36*
X196863097Y-29819297D02*
X196915753Y-29835270D01*
X196964265Y-29861200D01*
X197006796Y-29896104D01*
X197041700Y-29938635D01*
X197067630Y-29987147D01*
X197083603Y-30039803D01*
X197089600Y-30100690D01*
X197089600Y-30900910D01*
X197083603Y-30961797D01*
X197067630Y-31014453D01*
X197041700Y-31062965D01*
X197006796Y-31105496D01*
X196964265Y-31140400D01*
X196915753Y-31166330D01*
X196863097Y-31182303D01*
X196802210Y-31188300D01*
X195576990Y-31188300D01*
X195516103Y-31182303D01*
X195463447Y-31166330D01*
X195414935Y-31140400D01*
X195372404Y-31105496D01*
X195337500Y-31062965D01*
X195311570Y-31014453D01*
X195295597Y-30961797D01*
X195289600Y-30900910D01*
X195289600Y-30100690D01*
X195295597Y-30039803D01*
X195311570Y-29987147D01*
X195337500Y-29938635D01*
X195372404Y-29896104D01*
X195414935Y-29861200D01*
X195463447Y-29835270D01*
X195516103Y-29819297D01*
X195576990Y-29813300D01*
X196802210Y-29813300D01*
X196863097Y-29819297D01*
X196863097Y-29819297D01*
G37*
G36*
X203656322Y-28946917D02*
X203704285Y-28961466D01*
X203748475Y-28985086D01*
X203787218Y-29016882D01*
X203819014Y-29055625D01*
X203842634Y-29099815D01*
X203857183Y-29147778D01*
X203862700Y-29203791D01*
X203862700Y-30029009D01*
X203857183Y-30085022D01*
X203842634Y-30132985D01*
X203819014Y-30177175D01*
X203787218Y-30215918D01*
X203748475Y-30247714D01*
X203704285Y-30271334D01*
X203656322Y-30285883D01*
X203600309Y-30291400D01*
X202850091Y-30291400D01*
X202794078Y-30285883D01*
X202746115Y-30271334D01*
X202701925Y-30247714D01*
X202663182Y-30215918D01*
X202631386Y-30177175D01*
X202607766Y-30132985D01*
X202593217Y-30085022D01*
X202587700Y-30029009D01*
X202587700Y-29203791D01*
X202593217Y-29147778D01*
X202607766Y-29099815D01*
X202631386Y-29055625D01*
X202663182Y-29016882D01*
X202701925Y-28985086D01*
X202746115Y-28961466D01*
X202794078Y-28946917D01*
X202850091Y-28941400D01*
X203600309Y-28941400D01*
X203656322Y-28946917D01*
X203656322Y-28946917D01*
G37*
G36*
X205231322Y-28946917D02*
X205279285Y-28961466D01*
X205323475Y-28985086D01*
X205362218Y-29016882D01*
X205394014Y-29055625D01*
X205417634Y-29099815D01*
X205432183Y-29147778D01*
X205437700Y-29203791D01*
X205437700Y-30029009D01*
X205432183Y-30085022D01*
X205417634Y-30132985D01*
X205394014Y-30177175D01*
X205362218Y-30215918D01*
X205323475Y-30247714D01*
X205279285Y-30271334D01*
X205231322Y-30285883D01*
X205175309Y-30291400D01*
X204425091Y-30291400D01*
X204369078Y-30285883D01*
X204321115Y-30271334D01*
X204276925Y-30247714D01*
X204238182Y-30215918D01*
X204206386Y-30177175D01*
X204182766Y-30132985D01*
X204168217Y-30085022D01*
X204162700Y-30029009D01*
X204162700Y-29203791D01*
X204168217Y-29147778D01*
X204182766Y-29099815D01*
X204206386Y-29055625D01*
X204238182Y-29016882D01*
X204276925Y-28985086D01*
X204321115Y-28961466D01*
X204369078Y-28946917D01*
X204425091Y-28941400D01*
X205175309Y-28941400D01*
X205231322Y-28946917D01*
X205231322Y-28946917D01*
G37*
G36*
X197111126Y-22899915D02*
X197329512Y-22990373D01*
X197526058Y-23121701D01*
X197693199Y-23288842D01*
X197824527Y-23485388D01*
X197914985Y-23703774D01*
X197961100Y-23935609D01*
X197961100Y-24171991D01*
X197914985Y-24403826D01*
X197824527Y-24622212D01*
X197693199Y-24818758D01*
X197526058Y-24985899D01*
X197329512Y-25117227D01*
X197111126Y-25207685D01*
X196879291Y-25253800D01*
X196773487Y-25253800D01*
X196749101Y-25256202D01*
X196725652Y-25263315D01*
X196704041Y-25274866D01*
X196685099Y-25290412D01*
X196669553Y-25309354D01*
X196658002Y-25330965D01*
X196650889Y-25354414D01*
X196648487Y-25378800D01*
X196650889Y-25403186D01*
X196658002Y-25426635D01*
X196669553Y-25448246D01*
X196685099Y-25467188D01*
X196847387Y-25629476D01*
X197006073Y-25866967D01*
X197115378Y-26130853D01*
X197171100Y-26410986D01*
X197171100Y-26696614D01*
X197115378Y-26976747D01*
X197006073Y-27240633D01*
X196847387Y-27478124D01*
X196645424Y-27680087D01*
X196601605Y-27709366D01*
X196582663Y-27724912D01*
X196567117Y-27743854D01*
X196555566Y-27765464D01*
X196548453Y-27788914D01*
X196546051Y-27813300D01*
X196548453Y-27837686D01*
X196555566Y-27861135D01*
X196567117Y-27882746D01*
X196582663Y-27901688D01*
X196601605Y-27917234D01*
X196623215Y-27928785D01*
X196646665Y-27935898D01*
X196671051Y-27938300D01*
X196802210Y-27938300D01*
X196863097Y-27944297D01*
X196915753Y-27960270D01*
X196964265Y-27986200D01*
X197006796Y-28021104D01*
X197041700Y-28063635D01*
X197067630Y-28112147D01*
X197083603Y-28164803D01*
X197089600Y-28225690D01*
X197089600Y-29025910D01*
X197083603Y-29086797D01*
X197067630Y-29139453D01*
X197041700Y-29187965D01*
X197006796Y-29230496D01*
X196964265Y-29265400D01*
X196915753Y-29291330D01*
X196863097Y-29307303D01*
X196802210Y-29313300D01*
X195576990Y-29313300D01*
X195516103Y-29307303D01*
X195463447Y-29291330D01*
X195414935Y-29265400D01*
X195372404Y-29230496D01*
X195337500Y-29187965D01*
X195311570Y-29139453D01*
X195295597Y-29086797D01*
X195289600Y-29025910D01*
X195289600Y-28225690D01*
X195295597Y-28164803D01*
X195311570Y-28112146D01*
X195315925Y-28103998D01*
X195325302Y-28081359D01*
X195330082Y-28057325D01*
X195330082Y-28032821D01*
X195325301Y-28008788D01*
X195315923Y-27986149D01*
X195302309Y-27965775D01*
X195284981Y-27948448D01*
X195253520Y-27929591D01*
X195034267Y-27838773D01*
X194796776Y-27680087D01*
X194594813Y-27478124D01*
X194436127Y-27240633D01*
X194326822Y-26976747D01*
X194271100Y-26696614D01*
X194271100Y-26410986D01*
X194326822Y-26130853D01*
X194436127Y-25866967D01*
X194594813Y-25629476D01*
X194796776Y-25427513D01*
X195034267Y-25268827D01*
X195298153Y-25159522D01*
X195578286Y-25103800D01*
X195812267Y-25103800D01*
X195836653Y-25101398D01*
X195860102Y-25094285D01*
X195881713Y-25082734D01*
X195900655Y-25067188D01*
X195916201Y-25048246D01*
X195927752Y-25026635D01*
X195934865Y-25003186D01*
X195937267Y-24978800D01*
X195934865Y-24954414D01*
X195927752Y-24930965D01*
X195916201Y-24909354D01*
X195900655Y-24890412D01*
X195829001Y-24818758D01*
X195697673Y-24622212D01*
X195607215Y-24403826D01*
X195561100Y-24171991D01*
X195561100Y-23935609D01*
X195607215Y-23703774D01*
X195697673Y-23485388D01*
X195829001Y-23288842D01*
X195996142Y-23121701D01*
X196192688Y-22990373D01*
X196411074Y-22899915D01*
X196642909Y-22853800D01*
X196879291Y-22853800D01*
X197111126Y-22899915D01*
X197111126Y-22899915D01*
G37*
G36*
X202111126Y-22899915D02*
X202329512Y-22990373D01*
X202526058Y-23121701D01*
X202693199Y-23288842D01*
X202824527Y-23485388D01*
X202914985Y-23703774D01*
X202961100Y-23935609D01*
X202961100Y-24171991D01*
X202914985Y-24403826D01*
X202824527Y-24622212D01*
X202693199Y-24818758D01*
X202621545Y-24890412D01*
X202605999Y-24909354D01*
X202594448Y-24930965D01*
X202587335Y-24954414D01*
X202584933Y-24978800D01*
X202587335Y-25003186D01*
X202594448Y-25026635D01*
X202605999Y-25048246D01*
X202621545Y-25067188D01*
X202640487Y-25082734D01*
X202662098Y-25094285D01*
X202685547Y-25101398D01*
X202709933Y-25103800D01*
X202943914Y-25103800D01*
X203224047Y-25159522D01*
X203487933Y-25268827D01*
X203725424Y-25427513D01*
X203927387Y-25629476D01*
X204086073Y-25866967D01*
X204195378Y-26130853D01*
X204251100Y-26410986D01*
X204251100Y-26696614D01*
X204195378Y-26976747D01*
X204086073Y-27240633D01*
X203927387Y-27478124D01*
X203725424Y-27680087D01*
X203487933Y-27838773D01*
X203224047Y-27948078D01*
X202943914Y-28003800D01*
X202658286Y-28003800D01*
X202378153Y-27948078D01*
X202114267Y-27838773D01*
X201876776Y-27680087D01*
X201674813Y-27478124D01*
X201516127Y-27240633D01*
X201406822Y-26976747D01*
X201351100Y-26696614D01*
X201351100Y-26410986D01*
X201406822Y-26130853D01*
X201516127Y-25866967D01*
X201674813Y-25629476D01*
X201837101Y-25467188D01*
X201852647Y-25448246D01*
X201864198Y-25426635D01*
X201871311Y-25403186D01*
X201873713Y-25378800D01*
X201871311Y-25354414D01*
X201864198Y-25330965D01*
X201852647Y-25309354D01*
X201837101Y-25290412D01*
X201818159Y-25274866D01*
X201796548Y-25263315D01*
X201773099Y-25256202D01*
X201748713Y-25253800D01*
X201642909Y-25253800D01*
X201411074Y-25207685D01*
X201192688Y-25117227D01*
X200996142Y-24985899D01*
X200829001Y-24818758D01*
X200697673Y-24622212D01*
X200607215Y-24403826D01*
X200561100Y-24171991D01*
X200561100Y-23935609D01*
X200607215Y-23703774D01*
X200697673Y-23485388D01*
X200829001Y-23288842D01*
X200996142Y-23121701D01*
X201192688Y-22990373D01*
X201411074Y-22899915D01*
X201642909Y-22853800D01*
X201879291Y-22853800D01*
X202111126Y-22899915D01*
X202111126Y-22899915D01*
G37*
G36*
X208114222Y-25708417D02*
X208162185Y-25722966D01*
X208206375Y-25746586D01*
X208245118Y-25778382D01*
X208276914Y-25817125D01*
X208300534Y-25861315D01*
X208315083Y-25909278D01*
X208320600Y-25965291D01*
X208320600Y-26790509D01*
X208315083Y-26846522D01*
X208300534Y-26894485D01*
X208276914Y-26938675D01*
X208245118Y-26977418D01*
X208206375Y-27009214D01*
X208162185Y-27032834D01*
X208114222Y-27047383D01*
X208058209Y-27052900D01*
X207307991Y-27052900D01*
X207251978Y-27047383D01*
X207204015Y-27032834D01*
X207159825Y-27009214D01*
X207121082Y-26977418D01*
X207089286Y-26938675D01*
X207065666Y-26894485D01*
X207051117Y-26846522D01*
X207045600Y-26790509D01*
X207045600Y-25965291D01*
X207051117Y-25909278D01*
X207065666Y-25861315D01*
X207089286Y-25817125D01*
X207121082Y-25778382D01*
X207159825Y-25746586D01*
X207204015Y-25722966D01*
X207251978Y-25708417D01*
X207307991Y-25702900D01*
X208058209Y-25702900D01*
X208114222Y-25708417D01*
X208114222Y-25708417D01*
G37*
G36*
X206539222Y-25708417D02*
X206587185Y-25722966D01*
X206631375Y-25746586D01*
X206670118Y-25778382D01*
X206701914Y-25817125D01*
X206725534Y-25861315D01*
X206740083Y-25909278D01*
X206745600Y-25965291D01*
X206745600Y-26790509D01*
X206740083Y-26846522D01*
X206725534Y-26894485D01*
X206701914Y-26938675D01*
X206670118Y-26977418D01*
X206631375Y-27009214D01*
X206587185Y-27032834D01*
X206539222Y-27047383D01*
X206483209Y-27052900D01*
X205732991Y-27052900D01*
X205676978Y-27047383D01*
X205629015Y-27032834D01*
X205584825Y-27009214D01*
X205546082Y-26977418D01*
X205514286Y-26938675D01*
X205490666Y-26894485D01*
X205476117Y-26846522D01*
X205470600Y-26790509D01*
X205470600Y-25965291D01*
X205476117Y-25909278D01*
X205490666Y-25861315D01*
X205514286Y-25817125D01*
X205546082Y-25778382D01*
X205584825Y-25746586D01*
X205629015Y-25722966D01*
X205676978Y-25708417D01*
X205732991Y-25702900D01*
X206483209Y-25702900D01*
X206539222Y-25708417D01*
X206539222Y-25708417D01*
G37*
G36*
X209942822Y-25251217D02*
X209990785Y-25265766D01*
X210034975Y-25289386D01*
X210073718Y-25321182D01*
X210105514Y-25359925D01*
X210129134Y-25404115D01*
X210143683Y-25452078D01*
X210149200Y-25508091D01*
X210149200Y-26333309D01*
X210143683Y-26389322D01*
X210129134Y-26437285D01*
X210105514Y-26481475D01*
X210073718Y-26520218D01*
X210034975Y-26552014D01*
X209990785Y-26575634D01*
X209942822Y-26590183D01*
X209886809Y-26595700D01*
X209136591Y-26595700D01*
X209080578Y-26590183D01*
X209032615Y-26575634D01*
X208988425Y-26552014D01*
X208949682Y-26520218D01*
X208917886Y-26481475D01*
X208894266Y-26437285D01*
X208879717Y-26389322D01*
X208874200Y-26333309D01*
X208874200Y-25508091D01*
X208879717Y-25452078D01*
X208894266Y-25404115D01*
X208917886Y-25359925D01*
X208949682Y-25321182D01*
X208988425Y-25289386D01*
X209032615Y-25265766D01*
X209080578Y-25251217D01*
X209136591Y-25245700D01*
X209886809Y-25245700D01*
X209942822Y-25251217D01*
X209942822Y-25251217D01*
G37*
G36*
X211517822Y-25251217D02*
X211565785Y-25265766D01*
X211609975Y-25289386D01*
X211648718Y-25321182D01*
X211680514Y-25359925D01*
X211704134Y-25404115D01*
X211718683Y-25452078D01*
X211724200Y-25508091D01*
X211724200Y-26333309D01*
X211718683Y-26389322D01*
X211704134Y-26437285D01*
X211680514Y-26481475D01*
X211648718Y-26520218D01*
X211609975Y-26552014D01*
X211565785Y-26575634D01*
X211517822Y-26590183D01*
X211461809Y-26595700D01*
X210711591Y-26595700D01*
X210655578Y-26590183D01*
X210607615Y-26575634D01*
X210563425Y-26552014D01*
X210524682Y-26520218D01*
X210492886Y-26481475D01*
X210469266Y-26437285D01*
X210454717Y-26389322D01*
X210449200Y-26333309D01*
X210449200Y-25508091D01*
X210454717Y-25452078D01*
X210469266Y-25404115D01*
X210492886Y-25359925D01*
X210524682Y-25321182D01*
X210563425Y-25289386D01*
X210607615Y-25265766D01*
X210655578Y-25251217D01*
X210711591Y-25245700D01*
X211461809Y-25245700D01*
X211517822Y-25251217D01*
X211517822Y-25251217D01*
G37*
G36*
X211357197Y-22194597D02*
X211409853Y-22210570D01*
X211458365Y-22236500D01*
X211500896Y-22271404D01*
X211535800Y-22313935D01*
X211561730Y-22362447D01*
X211577703Y-22415103D01*
X211583700Y-22475990D01*
X211583700Y-23701210D01*
X211577703Y-23762097D01*
X211561730Y-23814753D01*
X211535800Y-23863265D01*
X211500896Y-23905796D01*
X211458365Y-23940700D01*
X211409853Y-23966630D01*
X211357197Y-23982603D01*
X211296310Y-23988600D01*
X210496090Y-23988600D01*
X210435203Y-23982603D01*
X210382547Y-23966630D01*
X210334035Y-23940700D01*
X210291504Y-23905796D01*
X210256600Y-23863265D01*
X210230670Y-23814753D01*
X210214697Y-23762097D01*
X210208700Y-23701210D01*
X210208700Y-22475990D01*
X210214697Y-22415103D01*
X210230670Y-22362447D01*
X210256600Y-22313935D01*
X210291504Y-22271404D01*
X210334035Y-22236500D01*
X210382547Y-22210570D01*
X210435203Y-22194597D01*
X210496090Y-22188600D01*
X211296310Y-22188600D01*
X211357197Y-22194597D01*
X211357197Y-22194597D01*
G37*
G36*
X209482197Y-22194597D02*
X209534853Y-22210570D01*
X209583365Y-22236500D01*
X209625896Y-22271404D01*
X209660800Y-22313935D01*
X209686730Y-22362447D01*
X209702703Y-22415103D01*
X209708700Y-22475990D01*
X209708700Y-23701210D01*
X209702703Y-23762097D01*
X209686730Y-23814753D01*
X209660800Y-23863265D01*
X209625896Y-23905796D01*
X209583365Y-23940700D01*
X209534853Y-23966630D01*
X209482197Y-23982603D01*
X209421310Y-23988600D01*
X208621090Y-23988600D01*
X208560203Y-23982603D01*
X208507547Y-23966630D01*
X208459035Y-23940700D01*
X208416504Y-23905796D01*
X208381600Y-23863265D01*
X208355670Y-23814753D01*
X208339697Y-23762097D01*
X208333700Y-23701210D01*
X208333700Y-22475990D01*
X208339697Y-22415103D01*
X208355670Y-22362447D01*
X208381600Y-22313935D01*
X208416504Y-22271404D01*
X208459035Y-22236500D01*
X208507547Y-22210570D01*
X208560203Y-22194597D01*
X208621090Y-22188600D01*
X209421310Y-22188600D01*
X209482197Y-22194597D01*
X209482197Y-22194597D01*
G37*
G36*
X207636097Y-22042197D02*
X207688753Y-22058170D01*
X207737265Y-22084100D01*
X207779796Y-22119004D01*
X207814700Y-22161535D01*
X207840630Y-22210047D01*
X207856603Y-22262703D01*
X207862600Y-22323590D01*
X207862600Y-23548810D01*
X207856603Y-23609697D01*
X207840630Y-23662353D01*
X207814700Y-23710865D01*
X207779796Y-23753396D01*
X207737265Y-23788300D01*
X207688753Y-23814230D01*
X207636097Y-23830203D01*
X207575210Y-23836200D01*
X206774990Y-23836200D01*
X206714103Y-23830203D01*
X206661447Y-23814230D01*
X206612935Y-23788300D01*
X206570404Y-23753396D01*
X206535500Y-23710865D01*
X206509570Y-23662353D01*
X206493597Y-23609697D01*
X206487600Y-23548810D01*
X206487600Y-22323590D01*
X206493597Y-22262703D01*
X206509570Y-22210047D01*
X206535500Y-22161535D01*
X206570404Y-22119004D01*
X206612935Y-22084100D01*
X206661447Y-22058170D01*
X206714103Y-22042197D01*
X206774990Y-22036200D01*
X207575210Y-22036200D01*
X207636097Y-22042197D01*
X207636097Y-22042197D01*
G37*
G36*
X205761097Y-22042197D02*
X205813753Y-22058170D01*
X205862265Y-22084100D01*
X205904796Y-22119004D01*
X205939700Y-22161535D01*
X205965630Y-22210047D01*
X205981603Y-22262703D01*
X205987600Y-22323590D01*
X205987600Y-23548810D01*
X205981603Y-23609697D01*
X205965630Y-23662353D01*
X205939700Y-23710865D01*
X205904796Y-23753396D01*
X205862265Y-23788300D01*
X205813753Y-23814230D01*
X205761097Y-23830203D01*
X205700210Y-23836200D01*
X204899990Y-23836200D01*
X204839103Y-23830203D01*
X204786447Y-23814230D01*
X204737935Y-23788300D01*
X204695404Y-23753396D01*
X204660500Y-23710865D01*
X204634570Y-23662353D01*
X204618597Y-23609697D01*
X204612600Y-23548810D01*
X204612600Y-22323590D01*
X204618597Y-22262703D01*
X204634570Y-22210047D01*
X204660500Y-22161535D01*
X204695404Y-22119004D01*
X204737935Y-22084100D01*
X204786447Y-22058170D01*
X204839103Y-22042197D01*
X204899990Y-22036200D01*
X205700210Y-22036200D01*
X205761097Y-22042197D01*
X205761097Y-22042197D01*
G37*
M02*
