M48
;DRILL file {KiCad (5.0.1)-rc2} date 3/9/2019 2:30:13 AM
;FORMAT={-:-/ absolute / inch / decimal}
FMAT,2
INCH,TZ
T1C0.0118
T2C0.0157
T3C0.0276
T4C0.0394
T5C0.0400
T6C0.0433
%
G90
G05
M72
T1
X7.8764Y-1.4819
X7.8884Y-1.4512
X8.0227Y-2.4062
X8.1343Y-1.9067
X8.1531Y-1.9483
X8.1814Y-1.9874
X8.222Y-1.978
X8.23Y-2.42
X8.235Y-2.1591
X8.2835Y-1.5075
X8.3054Y-1.6161
X8.3327Y-1.6278
X8.358Y-1.6744
X8.4102Y-1.6874
X8.4181Y-1.5295
X8.4417Y-1.5543
X8.4654Y-1.5953
X8.57Y-1.32
X8.1243Y-2.3805
X8.1243Y-2.41
X8.1243Y-2.4395
X8.1557Y-2.3805
X8.1557Y-2.41
X8.1557Y-2.4395
T2
X7.68Y-2.18
X7.7Y-0.87
X7.7Y-1.79
X7.7Y-1.89
X7.77Y-1.29
X7.811Y-1.172
X7.84Y-0.94
X7.84Y-1.39
X7.84Y-2.05
X7.8446Y-1.0827
X7.93Y-1.243
X7.93Y-2.45
X7.94Y-2.54
X7.9433Y-2.15
X7.98Y-2.04
X8.0198Y-1.6002
X8.0319Y-1.3019
X8.04Y-1.39
X8.0623Y-1.5223
X8.0774Y-1.5565
X8.0978Y-1.3778
X8.1091Y-1.4858
X8.11Y-1.12
X8.1581Y-2.4862
X8.1602Y-2.5236
X8.17Y-1.44
X8.1849Y-1.6622
X8.22Y-1.42
X8.25Y-2.3
X8.27Y-1.1
X8.27Y-1.22
X8.27Y-1.41
X8.29Y-1.8371
X8.35Y-2.56
X8.36Y-2.32
X8.3751Y-2.4703
X8.3882Y-1.3443
X8.4Y-0.99
X8.4008Y-2.2248
X8.4087Y-1.7209
X8.4406Y-2.38
X8.47Y-1.87
X8.48Y-1.69
X8.51Y-2.25
X8.54Y-1.5
X8.58Y-1.14
X8.6378Y-1.8219
X8.64Y-1.24
X8.64Y-1.91
X8.69Y-1.91
X8.7077Y-1.8238
X8.74Y-1.91
X8.7805Y-2.002
X8.7835Y-1.8238
X8.7835Y-1.9144
X8.7864Y-1.9596
X8.79Y-2.05
X8.83Y-1.83
X8.87Y-1.83
X8.87Y-1.87
X8.87Y-1.92
X8.87Y-1.97
X8.87Y-2.06
X8.89Y-1.5
T4
X7.7465Y-0.947
X7.9434Y-0.947
T5
X8.694Y-2.486
X8.794Y-2.486
X8.894Y-2.486
X7.796Y-1.704
X7.796Y-1.804
X7.796Y-1.904
T6
X7.7037Y-1.2866
X7.7037Y-1.3866
X7.7037Y-1.4866
X7.7037Y-1.5866
T3
X7.7479Y-2.2341G85X7.7676Y-2.2341
G05
X7.7479Y-2.5176G85X7.7676Y-2.5176
G05
X7.868Y-2.2343G85X7.868Y-2.254
G05
X7.868Y-2.4942G85X7.868Y-2.5138
G05
T0
M30
