G04 #@! TF.GenerationSoftware,KiCad,Pcbnew,(5.0.1)-rc2*
G04 #@! TF.CreationDate,2019-03-09T02:30:10-07:00*
G04 #@! TF.ProjectId,GPSLogger,4750534C6F676765722E6B696361645F,rev?*
G04 #@! TF.SameCoordinates,Original*
G04 #@! TF.FileFunction,Paste,Top*
G04 #@! TF.FilePolarity,Positive*
%FSLAX46Y46*%
G04 Gerber Fmt 4.6, Leading zero omitted, Abs format (unit mm)*
G04 Created by KiCad (PCBNEW (5.0.1)-rc2) date 3/9/2019 2:30:10 AM*
%MOMM*%
%LPD*%
G01*
G04 APERTURE LIST*
%ADD10C,0.100000*%
%ADD11C,0.975000*%
%ADD12R,0.700000X2.000000*%
%ADD13R,2.000000X0.700000*%
%ADD14R,2.000000X1.000000*%
%ADD15R,0.900000X0.900000*%
%ADD16R,0.680000X0.250000*%
%ADD17R,0.250000X0.680000*%
%ADD18R,2.000000X0.500000*%
%ADD19C,0.875000*%
%ADD20R,1.800000X0.800000*%
%ADD21R,1.600000X1.000000*%
%ADD22C,0.590000*%
%ADD23R,2.500000X1.430000*%
%ADD24R,2.250000X0.400000*%
%ADD25C,0.950000*%
%ADD26R,0.700000X0.250000*%
%ADD27R,1.650000X2.380000*%
%ADD28R,1.300000X1.800000*%
G04 APERTURE END LIST*
D10*
G04 #@! TO.C,C29*
G36*
X211046142Y-56506674D02*
X211069803Y-56510184D01*
X211093007Y-56515996D01*
X211115529Y-56524054D01*
X211137153Y-56534282D01*
X211157670Y-56546579D01*
X211176883Y-56560829D01*
X211194607Y-56576893D01*
X211210671Y-56594617D01*
X211224921Y-56613830D01*
X211237218Y-56634347D01*
X211247446Y-56655971D01*
X211255504Y-56678493D01*
X211261316Y-56701697D01*
X211264826Y-56725358D01*
X211266000Y-56749250D01*
X211266000Y-57236750D01*
X211264826Y-57260642D01*
X211261316Y-57284303D01*
X211255504Y-57307507D01*
X211247446Y-57330029D01*
X211237218Y-57351653D01*
X211224921Y-57372170D01*
X211210671Y-57391383D01*
X211194607Y-57409107D01*
X211176883Y-57425171D01*
X211157670Y-57439421D01*
X211137153Y-57451718D01*
X211115529Y-57461946D01*
X211093007Y-57470004D01*
X211069803Y-57475816D01*
X211046142Y-57479326D01*
X211022250Y-57480500D01*
X210109750Y-57480500D01*
X210085858Y-57479326D01*
X210062197Y-57475816D01*
X210038993Y-57470004D01*
X210016471Y-57461946D01*
X209994847Y-57451718D01*
X209974330Y-57439421D01*
X209955117Y-57425171D01*
X209937393Y-57409107D01*
X209921329Y-57391383D01*
X209907079Y-57372170D01*
X209894782Y-57351653D01*
X209884554Y-57330029D01*
X209876496Y-57307507D01*
X209870684Y-57284303D01*
X209867174Y-57260642D01*
X209866000Y-57236750D01*
X209866000Y-56749250D01*
X209867174Y-56725358D01*
X209870684Y-56701697D01*
X209876496Y-56678493D01*
X209884554Y-56655971D01*
X209894782Y-56634347D01*
X209907079Y-56613830D01*
X209921329Y-56594617D01*
X209937393Y-56576893D01*
X209955117Y-56560829D01*
X209974330Y-56546579D01*
X209994847Y-56534282D01*
X210016471Y-56524054D01*
X210038993Y-56515996D01*
X210062197Y-56510184D01*
X210085858Y-56506674D01*
X210109750Y-56505500D01*
X211022250Y-56505500D01*
X211046142Y-56506674D01*
X211046142Y-56506674D01*
G37*
D11*
X210566000Y-56993000D03*
D10*
G36*
X211046142Y-54631674D02*
X211069803Y-54635184D01*
X211093007Y-54640996D01*
X211115529Y-54649054D01*
X211137153Y-54659282D01*
X211157670Y-54671579D01*
X211176883Y-54685829D01*
X211194607Y-54701893D01*
X211210671Y-54719617D01*
X211224921Y-54738830D01*
X211237218Y-54759347D01*
X211247446Y-54780971D01*
X211255504Y-54803493D01*
X211261316Y-54826697D01*
X211264826Y-54850358D01*
X211266000Y-54874250D01*
X211266000Y-55361750D01*
X211264826Y-55385642D01*
X211261316Y-55409303D01*
X211255504Y-55432507D01*
X211247446Y-55455029D01*
X211237218Y-55476653D01*
X211224921Y-55497170D01*
X211210671Y-55516383D01*
X211194607Y-55534107D01*
X211176883Y-55550171D01*
X211157670Y-55564421D01*
X211137153Y-55576718D01*
X211115529Y-55586946D01*
X211093007Y-55595004D01*
X211069803Y-55600816D01*
X211046142Y-55604326D01*
X211022250Y-55605500D01*
X210109750Y-55605500D01*
X210085858Y-55604326D01*
X210062197Y-55600816D01*
X210038993Y-55595004D01*
X210016471Y-55586946D01*
X209994847Y-55576718D01*
X209974330Y-55564421D01*
X209955117Y-55550171D01*
X209937393Y-55534107D01*
X209921329Y-55516383D01*
X209907079Y-55497170D01*
X209894782Y-55476653D01*
X209884554Y-55455029D01*
X209876496Y-55432507D01*
X209870684Y-55409303D01*
X209867174Y-55385642D01*
X209866000Y-55361750D01*
X209866000Y-54874250D01*
X209867174Y-54850358D01*
X209870684Y-54826697D01*
X209876496Y-54803493D01*
X209884554Y-54780971D01*
X209894782Y-54759347D01*
X209907079Y-54738830D01*
X209921329Y-54719617D01*
X209937393Y-54701893D01*
X209955117Y-54685829D01*
X209974330Y-54671579D01*
X209994847Y-54659282D01*
X210016471Y-54649054D01*
X210038993Y-54640996D01*
X210062197Y-54635184D01*
X210085858Y-54631674D01*
X210109750Y-54630500D01*
X211022250Y-54630500D01*
X211046142Y-54631674D01*
X211046142Y-54631674D01*
G37*
D11*
X210566000Y-55118000D03*
G04 #@! TD*
D12*
G04 #@! TO.C,U1*
X219065000Y-37164800D03*
X220065000Y-37164800D03*
X221065000Y-37164800D03*
X222065000Y-37164800D03*
X218065000Y-37164800D03*
D13*
X224865000Y-36364800D03*
X224865000Y-35364800D03*
X224865000Y-34364800D03*
X224865000Y-33364800D03*
X224865000Y-32364800D03*
X224865000Y-31364800D03*
X224865000Y-30364800D03*
X224865000Y-29364800D03*
X224865000Y-28364800D03*
X224865000Y-27364800D03*
X215265000Y-25364800D03*
X215265000Y-26364800D03*
X215265000Y-27364800D03*
X215265000Y-28364800D03*
X215265000Y-29364800D03*
X215265000Y-30364800D03*
X215265000Y-31364800D03*
X215265000Y-32364800D03*
X215265000Y-33364800D03*
X215265000Y-34364800D03*
X215265000Y-35364800D03*
X215265000Y-36364800D03*
X224865000Y-26364800D03*
X224865000Y-25364800D03*
D14*
X215265000Y-24214800D03*
X224865000Y-24214800D03*
G04 #@! TD*
D10*
G04 #@! TO.C,C1*
G36*
X202250142Y-52441174D02*
X202273803Y-52444684D01*
X202297007Y-52450496D01*
X202319529Y-52458554D01*
X202341153Y-52468782D01*
X202361670Y-52481079D01*
X202380883Y-52495329D01*
X202398607Y-52511393D01*
X202414671Y-52529117D01*
X202428921Y-52548330D01*
X202441218Y-52568847D01*
X202451446Y-52590471D01*
X202459504Y-52612993D01*
X202465316Y-52636197D01*
X202468826Y-52659858D01*
X202470000Y-52683750D01*
X202470000Y-53596250D01*
X202468826Y-53620142D01*
X202465316Y-53643803D01*
X202459504Y-53667007D01*
X202451446Y-53689529D01*
X202441218Y-53711153D01*
X202428921Y-53731670D01*
X202414671Y-53750883D01*
X202398607Y-53768607D01*
X202380883Y-53784671D01*
X202361670Y-53798921D01*
X202341153Y-53811218D01*
X202319529Y-53821446D01*
X202297007Y-53829504D01*
X202273803Y-53835316D01*
X202250142Y-53838826D01*
X202226250Y-53840000D01*
X201738750Y-53840000D01*
X201714858Y-53838826D01*
X201691197Y-53835316D01*
X201667993Y-53829504D01*
X201645471Y-53821446D01*
X201623847Y-53811218D01*
X201603330Y-53798921D01*
X201584117Y-53784671D01*
X201566393Y-53768607D01*
X201550329Y-53750883D01*
X201536079Y-53731670D01*
X201523782Y-53711153D01*
X201513554Y-53689529D01*
X201505496Y-53667007D01*
X201499684Y-53643803D01*
X201496174Y-53620142D01*
X201495000Y-53596250D01*
X201495000Y-52683750D01*
X201496174Y-52659858D01*
X201499684Y-52636197D01*
X201505496Y-52612993D01*
X201513554Y-52590471D01*
X201523782Y-52568847D01*
X201536079Y-52548330D01*
X201550329Y-52529117D01*
X201566393Y-52511393D01*
X201584117Y-52495329D01*
X201603330Y-52481079D01*
X201623847Y-52468782D01*
X201645471Y-52458554D01*
X201667993Y-52450496D01*
X201691197Y-52444684D01*
X201714858Y-52441174D01*
X201738750Y-52440000D01*
X202226250Y-52440000D01*
X202250142Y-52441174D01*
X202250142Y-52441174D01*
G37*
D11*
X201982500Y-53140000D03*
D10*
G36*
X204125142Y-52441174D02*
X204148803Y-52444684D01*
X204172007Y-52450496D01*
X204194529Y-52458554D01*
X204216153Y-52468782D01*
X204236670Y-52481079D01*
X204255883Y-52495329D01*
X204273607Y-52511393D01*
X204289671Y-52529117D01*
X204303921Y-52548330D01*
X204316218Y-52568847D01*
X204326446Y-52590471D01*
X204334504Y-52612993D01*
X204340316Y-52636197D01*
X204343826Y-52659858D01*
X204345000Y-52683750D01*
X204345000Y-53596250D01*
X204343826Y-53620142D01*
X204340316Y-53643803D01*
X204334504Y-53667007D01*
X204326446Y-53689529D01*
X204316218Y-53711153D01*
X204303921Y-53731670D01*
X204289671Y-53750883D01*
X204273607Y-53768607D01*
X204255883Y-53784671D01*
X204236670Y-53798921D01*
X204216153Y-53811218D01*
X204194529Y-53821446D01*
X204172007Y-53829504D01*
X204148803Y-53835316D01*
X204125142Y-53838826D01*
X204101250Y-53840000D01*
X203613750Y-53840000D01*
X203589858Y-53838826D01*
X203566197Y-53835316D01*
X203542993Y-53829504D01*
X203520471Y-53821446D01*
X203498847Y-53811218D01*
X203478330Y-53798921D01*
X203459117Y-53784671D01*
X203441393Y-53768607D01*
X203425329Y-53750883D01*
X203411079Y-53731670D01*
X203398782Y-53711153D01*
X203388554Y-53689529D01*
X203380496Y-53667007D01*
X203374684Y-53643803D01*
X203371174Y-53620142D01*
X203370000Y-53596250D01*
X203370000Y-52683750D01*
X203371174Y-52659858D01*
X203374684Y-52636197D01*
X203380496Y-52612993D01*
X203388554Y-52590471D01*
X203398782Y-52568847D01*
X203411079Y-52548330D01*
X203425329Y-52529117D01*
X203441393Y-52511393D01*
X203459117Y-52495329D01*
X203478330Y-52481079D01*
X203498847Y-52468782D01*
X203520471Y-52458554D01*
X203542993Y-52450496D01*
X203566197Y-52444684D01*
X203589858Y-52441174D01*
X203613750Y-52440000D01*
X204101250Y-52440000D01*
X204125142Y-52441174D01*
X204125142Y-52441174D01*
G37*
D11*
X203857500Y-53140000D03*
G04 #@! TD*
D10*
G04 #@! TO.C,C7*
G36*
X206931342Y-40610874D02*
X206955003Y-40614384D01*
X206978207Y-40620196D01*
X207000729Y-40628254D01*
X207022353Y-40638482D01*
X207042870Y-40650779D01*
X207062083Y-40665029D01*
X207079807Y-40681093D01*
X207095871Y-40698817D01*
X207110121Y-40718030D01*
X207122418Y-40738547D01*
X207132646Y-40760171D01*
X207140704Y-40782693D01*
X207146516Y-40805897D01*
X207150026Y-40829558D01*
X207151200Y-40853450D01*
X207151200Y-41340950D01*
X207150026Y-41364842D01*
X207146516Y-41388503D01*
X207140704Y-41411707D01*
X207132646Y-41434229D01*
X207122418Y-41455853D01*
X207110121Y-41476370D01*
X207095871Y-41495583D01*
X207079807Y-41513307D01*
X207062083Y-41529371D01*
X207042870Y-41543621D01*
X207022353Y-41555918D01*
X207000729Y-41566146D01*
X206978207Y-41574204D01*
X206955003Y-41580016D01*
X206931342Y-41583526D01*
X206907450Y-41584700D01*
X205994950Y-41584700D01*
X205971058Y-41583526D01*
X205947397Y-41580016D01*
X205924193Y-41574204D01*
X205901671Y-41566146D01*
X205880047Y-41555918D01*
X205859530Y-41543621D01*
X205840317Y-41529371D01*
X205822593Y-41513307D01*
X205806529Y-41495583D01*
X205792279Y-41476370D01*
X205779982Y-41455853D01*
X205769754Y-41434229D01*
X205761696Y-41411707D01*
X205755884Y-41388503D01*
X205752374Y-41364842D01*
X205751200Y-41340950D01*
X205751200Y-40853450D01*
X205752374Y-40829558D01*
X205755884Y-40805897D01*
X205761696Y-40782693D01*
X205769754Y-40760171D01*
X205779982Y-40738547D01*
X205792279Y-40718030D01*
X205806529Y-40698817D01*
X205822593Y-40681093D01*
X205840317Y-40665029D01*
X205859530Y-40650779D01*
X205880047Y-40638482D01*
X205901671Y-40628254D01*
X205924193Y-40620196D01*
X205947397Y-40614384D01*
X205971058Y-40610874D01*
X205994950Y-40609700D01*
X206907450Y-40609700D01*
X206931342Y-40610874D01*
X206931342Y-40610874D01*
G37*
D11*
X206451200Y-41097200D03*
D10*
G36*
X206931342Y-42485874D02*
X206955003Y-42489384D01*
X206978207Y-42495196D01*
X207000729Y-42503254D01*
X207022353Y-42513482D01*
X207042870Y-42525779D01*
X207062083Y-42540029D01*
X207079807Y-42556093D01*
X207095871Y-42573817D01*
X207110121Y-42593030D01*
X207122418Y-42613547D01*
X207132646Y-42635171D01*
X207140704Y-42657693D01*
X207146516Y-42680897D01*
X207150026Y-42704558D01*
X207151200Y-42728450D01*
X207151200Y-43215950D01*
X207150026Y-43239842D01*
X207146516Y-43263503D01*
X207140704Y-43286707D01*
X207132646Y-43309229D01*
X207122418Y-43330853D01*
X207110121Y-43351370D01*
X207095871Y-43370583D01*
X207079807Y-43388307D01*
X207062083Y-43404371D01*
X207042870Y-43418621D01*
X207022353Y-43430918D01*
X207000729Y-43441146D01*
X206978207Y-43449204D01*
X206955003Y-43455016D01*
X206931342Y-43458526D01*
X206907450Y-43459700D01*
X205994950Y-43459700D01*
X205971058Y-43458526D01*
X205947397Y-43455016D01*
X205924193Y-43449204D01*
X205901671Y-43441146D01*
X205880047Y-43430918D01*
X205859530Y-43418621D01*
X205840317Y-43404371D01*
X205822593Y-43388307D01*
X205806529Y-43370583D01*
X205792279Y-43351370D01*
X205779982Y-43330853D01*
X205769754Y-43309229D01*
X205761696Y-43286707D01*
X205755884Y-43263503D01*
X205752374Y-43239842D01*
X205751200Y-43215950D01*
X205751200Y-42728450D01*
X205752374Y-42704558D01*
X205755884Y-42680897D01*
X205761696Y-42657693D01*
X205769754Y-42635171D01*
X205779982Y-42613547D01*
X205792279Y-42593030D01*
X205806529Y-42573817D01*
X205822593Y-42556093D01*
X205840317Y-42540029D01*
X205859530Y-42525779D01*
X205880047Y-42513482D01*
X205901671Y-42503254D01*
X205924193Y-42495196D01*
X205947397Y-42489384D01*
X205971058Y-42485874D01*
X205994950Y-42484700D01*
X206907450Y-42484700D01*
X206931342Y-42485874D01*
X206931342Y-42485874D01*
G37*
D11*
X206451200Y-42972200D03*
G04 #@! TD*
D10*
G04 #@! TO.C,C8*
G36*
X222360642Y-44513174D02*
X222384303Y-44516684D01*
X222407507Y-44522496D01*
X222430029Y-44530554D01*
X222451653Y-44540782D01*
X222472170Y-44553079D01*
X222491383Y-44567329D01*
X222509107Y-44583393D01*
X222525171Y-44601117D01*
X222539421Y-44620330D01*
X222551718Y-44640847D01*
X222561946Y-44662471D01*
X222570004Y-44684993D01*
X222575816Y-44708197D01*
X222579326Y-44731858D01*
X222580500Y-44755750D01*
X222580500Y-45668250D01*
X222579326Y-45692142D01*
X222575816Y-45715803D01*
X222570004Y-45739007D01*
X222561946Y-45761529D01*
X222551718Y-45783153D01*
X222539421Y-45803670D01*
X222525171Y-45822883D01*
X222509107Y-45840607D01*
X222491383Y-45856671D01*
X222472170Y-45870921D01*
X222451653Y-45883218D01*
X222430029Y-45893446D01*
X222407507Y-45901504D01*
X222384303Y-45907316D01*
X222360642Y-45910826D01*
X222336750Y-45912000D01*
X221849250Y-45912000D01*
X221825358Y-45910826D01*
X221801697Y-45907316D01*
X221778493Y-45901504D01*
X221755971Y-45893446D01*
X221734347Y-45883218D01*
X221713830Y-45870921D01*
X221694617Y-45856671D01*
X221676893Y-45840607D01*
X221660829Y-45822883D01*
X221646579Y-45803670D01*
X221634282Y-45783153D01*
X221624054Y-45761529D01*
X221615996Y-45739007D01*
X221610184Y-45715803D01*
X221606674Y-45692142D01*
X221605500Y-45668250D01*
X221605500Y-44755750D01*
X221606674Y-44731858D01*
X221610184Y-44708197D01*
X221615996Y-44684993D01*
X221624054Y-44662471D01*
X221634282Y-44640847D01*
X221646579Y-44620330D01*
X221660829Y-44601117D01*
X221676893Y-44583393D01*
X221694617Y-44567329D01*
X221713830Y-44553079D01*
X221734347Y-44540782D01*
X221755971Y-44530554D01*
X221778493Y-44522496D01*
X221801697Y-44516684D01*
X221825358Y-44513174D01*
X221849250Y-44512000D01*
X222336750Y-44512000D01*
X222360642Y-44513174D01*
X222360642Y-44513174D01*
G37*
D11*
X222093000Y-45212000D03*
D10*
G36*
X220485642Y-44513174D02*
X220509303Y-44516684D01*
X220532507Y-44522496D01*
X220555029Y-44530554D01*
X220576653Y-44540782D01*
X220597170Y-44553079D01*
X220616383Y-44567329D01*
X220634107Y-44583393D01*
X220650171Y-44601117D01*
X220664421Y-44620330D01*
X220676718Y-44640847D01*
X220686946Y-44662471D01*
X220695004Y-44684993D01*
X220700816Y-44708197D01*
X220704326Y-44731858D01*
X220705500Y-44755750D01*
X220705500Y-45668250D01*
X220704326Y-45692142D01*
X220700816Y-45715803D01*
X220695004Y-45739007D01*
X220686946Y-45761529D01*
X220676718Y-45783153D01*
X220664421Y-45803670D01*
X220650171Y-45822883D01*
X220634107Y-45840607D01*
X220616383Y-45856671D01*
X220597170Y-45870921D01*
X220576653Y-45883218D01*
X220555029Y-45893446D01*
X220532507Y-45901504D01*
X220509303Y-45907316D01*
X220485642Y-45910826D01*
X220461750Y-45912000D01*
X219974250Y-45912000D01*
X219950358Y-45910826D01*
X219926697Y-45907316D01*
X219903493Y-45901504D01*
X219880971Y-45893446D01*
X219859347Y-45883218D01*
X219838830Y-45870921D01*
X219819617Y-45856671D01*
X219801893Y-45840607D01*
X219785829Y-45822883D01*
X219771579Y-45803670D01*
X219759282Y-45783153D01*
X219749054Y-45761529D01*
X219740996Y-45739007D01*
X219735184Y-45715803D01*
X219731674Y-45692142D01*
X219730500Y-45668250D01*
X219730500Y-44755750D01*
X219731674Y-44731858D01*
X219735184Y-44708197D01*
X219740996Y-44684993D01*
X219749054Y-44662471D01*
X219759282Y-44640847D01*
X219771579Y-44620330D01*
X219785829Y-44601117D01*
X219801893Y-44583393D01*
X219819617Y-44567329D01*
X219838830Y-44553079D01*
X219859347Y-44540782D01*
X219880971Y-44530554D01*
X219903493Y-44522496D01*
X219926697Y-44516684D01*
X219950358Y-44513174D01*
X219974250Y-44512000D01*
X220461750Y-44512000D01*
X220485642Y-44513174D01*
X220485642Y-44513174D01*
G37*
D11*
X220218000Y-45212000D03*
G04 #@! TD*
D10*
G04 #@! TO.C,C9*
G36*
X225819642Y-42989174D02*
X225843303Y-42992684D01*
X225866507Y-42998496D01*
X225889029Y-43006554D01*
X225910653Y-43016782D01*
X225931170Y-43029079D01*
X225950383Y-43043329D01*
X225968107Y-43059393D01*
X225984171Y-43077117D01*
X225998421Y-43096330D01*
X226010718Y-43116847D01*
X226020946Y-43138471D01*
X226029004Y-43160993D01*
X226034816Y-43184197D01*
X226038326Y-43207858D01*
X226039500Y-43231750D01*
X226039500Y-44144250D01*
X226038326Y-44168142D01*
X226034816Y-44191803D01*
X226029004Y-44215007D01*
X226020946Y-44237529D01*
X226010718Y-44259153D01*
X225998421Y-44279670D01*
X225984171Y-44298883D01*
X225968107Y-44316607D01*
X225950383Y-44332671D01*
X225931170Y-44346921D01*
X225910653Y-44359218D01*
X225889029Y-44369446D01*
X225866507Y-44377504D01*
X225843303Y-44383316D01*
X225819642Y-44386826D01*
X225795750Y-44388000D01*
X225308250Y-44388000D01*
X225284358Y-44386826D01*
X225260697Y-44383316D01*
X225237493Y-44377504D01*
X225214971Y-44369446D01*
X225193347Y-44359218D01*
X225172830Y-44346921D01*
X225153617Y-44332671D01*
X225135893Y-44316607D01*
X225119829Y-44298883D01*
X225105579Y-44279670D01*
X225093282Y-44259153D01*
X225083054Y-44237529D01*
X225074996Y-44215007D01*
X225069184Y-44191803D01*
X225065674Y-44168142D01*
X225064500Y-44144250D01*
X225064500Y-43231750D01*
X225065674Y-43207858D01*
X225069184Y-43184197D01*
X225074996Y-43160993D01*
X225083054Y-43138471D01*
X225093282Y-43116847D01*
X225105579Y-43096330D01*
X225119829Y-43077117D01*
X225135893Y-43059393D01*
X225153617Y-43043329D01*
X225172830Y-43029079D01*
X225193347Y-43016782D01*
X225214971Y-43006554D01*
X225237493Y-42998496D01*
X225260697Y-42992684D01*
X225284358Y-42989174D01*
X225308250Y-42988000D01*
X225795750Y-42988000D01*
X225819642Y-42989174D01*
X225819642Y-42989174D01*
G37*
D11*
X225552000Y-43688000D03*
D10*
G36*
X223944642Y-42989174D02*
X223968303Y-42992684D01*
X223991507Y-42998496D01*
X224014029Y-43006554D01*
X224035653Y-43016782D01*
X224056170Y-43029079D01*
X224075383Y-43043329D01*
X224093107Y-43059393D01*
X224109171Y-43077117D01*
X224123421Y-43096330D01*
X224135718Y-43116847D01*
X224145946Y-43138471D01*
X224154004Y-43160993D01*
X224159816Y-43184197D01*
X224163326Y-43207858D01*
X224164500Y-43231750D01*
X224164500Y-44144250D01*
X224163326Y-44168142D01*
X224159816Y-44191803D01*
X224154004Y-44215007D01*
X224145946Y-44237529D01*
X224135718Y-44259153D01*
X224123421Y-44279670D01*
X224109171Y-44298883D01*
X224093107Y-44316607D01*
X224075383Y-44332671D01*
X224056170Y-44346921D01*
X224035653Y-44359218D01*
X224014029Y-44369446D01*
X223991507Y-44377504D01*
X223968303Y-44383316D01*
X223944642Y-44386826D01*
X223920750Y-44388000D01*
X223433250Y-44388000D01*
X223409358Y-44386826D01*
X223385697Y-44383316D01*
X223362493Y-44377504D01*
X223339971Y-44369446D01*
X223318347Y-44359218D01*
X223297830Y-44346921D01*
X223278617Y-44332671D01*
X223260893Y-44316607D01*
X223244829Y-44298883D01*
X223230579Y-44279670D01*
X223218282Y-44259153D01*
X223208054Y-44237529D01*
X223199996Y-44215007D01*
X223194184Y-44191803D01*
X223190674Y-44168142D01*
X223189500Y-44144250D01*
X223189500Y-43231750D01*
X223190674Y-43207858D01*
X223194184Y-43184197D01*
X223199996Y-43160993D01*
X223208054Y-43138471D01*
X223218282Y-43116847D01*
X223230579Y-43096330D01*
X223244829Y-43077117D01*
X223260893Y-43059393D01*
X223278617Y-43043329D01*
X223297830Y-43029079D01*
X223318347Y-43016782D01*
X223339971Y-43006554D01*
X223362493Y-42998496D01*
X223385697Y-42992684D01*
X223409358Y-42989174D01*
X223433250Y-42988000D01*
X223920750Y-42988000D01*
X223944642Y-42989174D01*
X223944642Y-42989174D01*
G37*
D11*
X223677000Y-43688000D03*
G04 #@! TD*
D10*
G04 #@! TO.C,C10*
G36*
X208450142Y-37183674D02*
X208473803Y-37187184D01*
X208497007Y-37192996D01*
X208519529Y-37201054D01*
X208541153Y-37211282D01*
X208561670Y-37223579D01*
X208580883Y-37237829D01*
X208598607Y-37253893D01*
X208614671Y-37271617D01*
X208628921Y-37290830D01*
X208641218Y-37311347D01*
X208651446Y-37332971D01*
X208659504Y-37355493D01*
X208665316Y-37378697D01*
X208668826Y-37402358D01*
X208670000Y-37426250D01*
X208670000Y-37913750D01*
X208668826Y-37937642D01*
X208665316Y-37961303D01*
X208659504Y-37984507D01*
X208651446Y-38007029D01*
X208641218Y-38028653D01*
X208628921Y-38049170D01*
X208614671Y-38068383D01*
X208598607Y-38086107D01*
X208580883Y-38102171D01*
X208561670Y-38116421D01*
X208541153Y-38128718D01*
X208519529Y-38138946D01*
X208497007Y-38147004D01*
X208473803Y-38152816D01*
X208450142Y-38156326D01*
X208426250Y-38157500D01*
X207513750Y-38157500D01*
X207489858Y-38156326D01*
X207466197Y-38152816D01*
X207442993Y-38147004D01*
X207420471Y-38138946D01*
X207398847Y-38128718D01*
X207378330Y-38116421D01*
X207359117Y-38102171D01*
X207341393Y-38086107D01*
X207325329Y-38068383D01*
X207311079Y-38049170D01*
X207298782Y-38028653D01*
X207288554Y-38007029D01*
X207280496Y-37984507D01*
X207274684Y-37961303D01*
X207271174Y-37937642D01*
X207270000Y-37913750D01*
X207270000Y-37426250D01*
X207271174Y-37402358D01*
X207274684Y-37378697D01*
X207280496Y-37355493D01*
X207288554Y-37332971D01*
X207298782Y-37311347D01*
X207311079Y-37290830D01*
X207325329Y-37271617D01*
X207341393Y-37253893D01*
X207359117Y-37237829D01*
X207378330Y-37223579D01*
X207398847Y-37211282D01*
X207420471Y-37201054D01*
X207442993Y-37192996D01*
X207466197Y-37187184D01*
X207489858Y-37183674D01*
X207513750Y-37182500D01*
X208426250Y-37182500D01*
X208450142Y-37183674D01*
X208450142Y-37183674D01*
G37*
D11*
X207970000Y-37670000D03*
D10*
G36*
X208450142Y-39058674D02*
X208473803Y-39062184D01*
X208497007Y-39067996D01*
X208519529Y-39076054D01*
X208541153Y-39086282D01*
X208561670Y-39098579D01*
X208580883Y-39112829D01*
X208598607Y-39128893D01*
X208614671Y-39146617D01*
X208628921Y-39165830D01*
X208641218Y-39186347D01*
X208651446Y-39207971D01*
X208659504Y-39230493D01*
X208665316Y-39253697D01*
X208668826Y-39277358D01*
X208670000Y-39301250D01*
X208670000Y-39788750D01*
X208668826Y-39812642D01*
X208665316Y-39836303D01*
X208659504Y-39859507D01*
X208651446Y-39882029D01*
X208641218Y-39903653D01*
X208628921Y-39924170D01*
X208614671Y-39943383D01*
X208598607Y-39961107D01*
X208580883Y-39977171D01*
X208561670Y-39991421D01*
X208541153Y-40003718D01*
X208519529Y-40013946D01*
X208497007Y-40022004D01*
X208473803Y-40027816D01*
X208450142Y-40031326D01*
X208426250Y-40032500D01*
X207513750Y-40032500D01*
X207489858Y-40031326D01*
X207466197Y-40027816D01*
X207442993Y-40022004D01*
X207420471Y-40013946D01*
X207398847Y-40003718D01*
X207378330Y-39991421D01*
X207359117Y-39977171D01*
X207341393Y-39961107D01*
X207325329Y-39943383D01*
X207311079Y-39924170D01*
X207298782Y-39903653D01*
X207288554Y-39882029D01*
X207280496Y-39859507D01*
X207274684Y-39836303D01*
X207271174Y-39812642D01*
X207270000Y-39788750D01*
X207270000Y-39301250D01*
X207271174Y-39277358D01*
X207274684Y-39253697D01*
X207280496Y-39230493D01*
X207288554Y-39207971D01*
X207298782Y-39186347D01*
X207311079Y-39165830D01*
X207325329Y-39146617D01*
X207341393Y-39128893D01*
X207359117Y-39112829D01*
X207378330Y-39098579D01*
X207398847Y-39086282D01*
X207420471Y-39076054D01*
X207442993Y-39067996D01*
X207466197Y-39062184D01*
X207489858Y-39058674D01*
X207513750Y-39057500D01*
X208426250Y-39057500D01*
X208450142Y-39058674D01*
X208450142Y-39058674D01*
G37*
D11*
X207970000Y-39545000D03*
G04 #@! TD*
D10*
G04 #@! TO.C,D1*
G36*
X211163842Y-22389774D02*
X211187503Y-22393284D01*
X211210707Y-22399096D01*
X211233229Y-22407154D01*
X211254853Y-22417382D01*
X211275370Y-22429679D01*
X211294583Y-22443929D01*
X211312307Y-22459993D01*
X211328371Y-22477717D01*
X211342621Y-22496930D01*
X211354918Y-22517447D01*
X211365146Y-22539071D01*
X211373204Y-22561593D01*
X211379016Y-22584797D01*
X211382526Y-22608458D01*
X211383700Y-22632350D01*
X211383700Y-23544850D01*
X211382526Y-23568742D01*
X211379016Y-23592403D01*
X211373204Y-23615607D01*
X211365146Y-23638129D01*
X211354918Y-23659753D01*
X211342621Y-23680270D01*
X211328371Y-23699483D01*
X211312307Y-23717207D01*
X211294583Y-23733271D01*
X211275370Y-23747521D01*
X211254853Y-23759818D01*
X211233229Y-23770046D01*
X211210707Y-23778104D01*
X211187503Y-23783916D01*
X211163842Y-23787426D01*
X211139950Y-23788600D01*
X210652450Y-23788600D01*
X210628558Y-23787426D01*
X210604897Y-23783916D01*
X210581693Y-23778104D01*
X210559171Y-23770046D01*
X210537547Y-23759818D01*
X210517030Y-23747521D01*
X210497817Y-23733271D01*
X210480093Y-23717207D01*
X210464029Y-23699483D01*
X210449779Y-23680270D01*
X210437482Y-23659753D01*
X210427254Y-23638129D01*
X210419196Y-23615607D01*
X210413384Y-23592403D01*
X210409874Y-23568742D01*
X210408700Y-23544850D01*
X210408700Y-22632350D01*
X210409874Y-22608458D01*
X210413384Y-22584797D01*
X210419196Y-22561593D01*
X210427254Y-22539071D01*
X210437482Y-22517447D01*
X210449779Y-22496930D01*
X210464029Y-22477717D01*
X210480093Y-22459993D01*
X210497817Y-22443929D01*
X210517030Y-22429679D01*
X210537547Y-22417382D01*
X210559171Y-22407154D01*
X210581693Y-22399096D01*
X210604897Y-22393284D01*
X210628558Y-22389774D01*
X210652450Y-22388600D01*
X211139950Y-22388600D01*
X211163842Y-22389774D01*
X211163842Y-22389774D01*
G37*
D11*
X210896200Y-23088600D03*
D10*
G36*
X209288842Y-22389774D02*
X209312503Y-22393284D01*
X209335707Y-22399096D01*
X209358229Y-22407154D01*
X209379853Y-22417382D01*
X209400370Y-22429679D01*
X209419583Y-22443929D01*
X209437307Y-22459993D01*
X209453371Y-22477717D01*
X209467621Y-22496930D01*
X209479918Y-22517447D01*
X209490146Y-22539071D01*
X209498204Y-22561593D01*
X209504016Y-22584797D01*
X209507526Y-22608458D01*
X209508700Y-22632350D01*
X209508700Y-23544850D01*
X209507526Y-23568742D01*
X209504016Y-23592403D01*
X209498204Y-23615607D01*
X209490146Y-23638129D01*
X209479918Y-23659753D01*
X209467621Y-23680270D01*
X209453371Y-23699483D01*
X209437307Y-23717207D01*
X209419583Y-23733271D01*
X209400370Y-23747521D01*
X209379853Y-23759818D01*
X209358229Y-23770046D01*
X209335707Y-23778104D01*
X209312503Y-23783916D01*
X209288842Y-23787426D01*
X209264950Y-23788600D01*
X208777450Y-23788600D01*
X208753558Y-23787426D01*
X208729897Y-23783916D01*
X208706693Y-23778104D01*
X208684171Y-23770046D01*
X208662547Y-23759818D01*
X208642030Y-23747521D01*
X208622817Y-23733271D01*
X208605093Y-23717207D01*
X208589029Y-23699483D01*
X208574779Y-23680270D01*
X208562482Y-23659753D01*
X208552254Y-23638129D01*
X208544196Y-23615607D01*
X208538384Y-23592403D01*
X208534874Y-23568742D01*
X208533700Y-23544850D01*
X208533700Y-22632350D01*
X208534874Y-22608458D01*
X208538384Y-22584797D01*
X208544196Y-22561593D01*
X208552254Y-22539071D01*
X208562482Y-22517447D01*
X208574779Y-22496930D01*
X208589029Y-22477717D01*
X208605093Y-22459993D01*
X208622817Y-22443929D01*
X208642030Y-22429679D01*
X208662547Y-22417382D01*
X208684171Y-22407154D01*
X208706693Y-22399096D01*
X208729897Y-22393284D01*
X208753558Y-22389774D01*
X208777450Y-22388600D01*
X209264950Y-22388600D01*
X209288842Y-22389774D01*
X209288842Y-22389774D01*
G37*
D11*
X209021200Y-23088600D03*
G04 #@! TD*
D10*
G04 #@! TO.C,D2*
G36*
X207442742Y-22237374D02*
X207466403Y-22240884D01*
X207489607Y-22246696D01*
X207512129Y-22254754D01*
X207533753Y-22264982D01*
X207554270Y-22277279D01*
X207573483Y-22291529D01*
X207591207Y-22307593D01*
X207607271Y-22325317D01*
X207621521Y-22344530D01*
X207633818Y-22365047D01*
X207644046Y-22386671D01*
X207652104Y-22409193D01*
X207657916Y-22432397D01*
X207661426Y-22456058D01*
X207662600Y-22479950D01*
X207662600Y-23392450D01*
X207661426Y-23416342D01*
X207657916Y-23440003D01*
X207652104Y-23463207D01*
X207644046Y-23485729D01*
X207633818Y-23507353D01*
X207621521Y-23527870D01*
X207607271Y-23547083D01*
X207591207Y-23564807D01*
X207573483Y-23580871D01*
X207554270Y-23595121D01*
X207533753Y-23607418D01*
X207512129Y-23617646D01*
X207489607Y-23625704D01*
X207466403Y-23631516D01*
X207442742Y-23635026D01*
X207418850Y-23636200D01*
X206931350Y-23636200D01*
X206907458Y-23635026D01*
X206883797Y-23631516D01*
X206860593Y-23625704D01*
X206838071Y-23617646D01*
X206816447Y-23607418D01*
X206795930Y-23595121D01*
X206776717Y-23580871D01*
X206758993Y-23564807D01*
X206742929Y-23547083D01*
X206728679Y-23527870D01*
X206716382Y-23507353D01*
X206706154Y-23485729D01*
X206698096Y-23463207D01*
X206692284Y-23440003D01*
X206688774Y-23416342D01*
X206687600Y-23392450D01*
X206687600Y-22479950D01*
X206688774Y-22456058D01*
X206692284Y-22432397D01*
X206698096Y-22409193D01*
X206706154Y-22386671D01*
X206716382Y-22365047D01*
X206728679Y-22344530D01*
X206742929Y-22325317D01*
X206758993Y-22307593D01*
X206776717Y-22291529D01*
X206795930Y-22277279D01*
X206816447Y-22264982D01*
X206838071Y-22254754D01*
X206860593Y-22246696D01*
X206883797Y-22240884D01*
X206907458Y-22237374D01*
X206931350Y-22236200D01*
X207418850Y-22236200D01*
X207442742Y-22237374D01*
X207442742Y-22237374D01*
G37*
D11*
X207175100Y-22936200D03*
D10*
G36*
X205567742Y-22237374D02*
X205591403Y-22240884D01*
X205614607Y-22246696D01*
X205637129Y-22254754D01*
X205658753Y-22264982D01*
X205679270Y-22277279D01*
X205698483Y-22291529D01*
X205716207Y-22307593D01*
X205732271Y-22325317D01*
X205746521Y-22344530D01*
X205758818Y-22365047D01*
X205769046Y-22386671D01*
X205777104Y-22409193D01*
X205782916Y-22432397D01*
X205786426Y-22456058D01*
X205787600Y-22479950D01*
X205787600Y-23392450D01*
X205786426Y-23416342D01*
X205782916Y-23440003D01*
X205777104Y-23463207D01*
X205769046Y-23485729D01*
X205758818Y-23507353D01*
X205746521Y-23527870D01*
X205732271Y-23547083D01*
X205716207Y-23564807D01*
X205698483Y-23580871D01*
X205679270Y-23595121D01*
X205658753Y-23607418D01*
X205637129Y-23617646D01*
X205614607Y-23625704D01*
X205591403Y-23631516D01*
X205567742Y-23635026D01*
X205543850Y-23636200D01*
X205056350Y-23636200D01*
X205032458Y-23635026D01*
X205008797Y-23631516D01*
X204985593Y-23625704D01*
X204963071Y-23617646D01*
X204941447Y-23607418D01*
X204920930Y-23595121D01*
X204901717Y-23580871D01*
X204883993Y-23564807D01*
X204867929Y-23547083D01*
X204853679Y-23527870D01*
X204841382Y-23507353D01*
X204831154Y-23485729D01*
X204823096Y-23463207D01*
X204817284Y-23440003D01*
X204813774Y-23416342D01*
X204812600Y-23392450D01*
X204812600Y-22479950D01*
X204813774Y-22456058D01*
X204817284Y-22432397D01*
X204823096Y-22409193D01*
X204831154Y-22386671D01*
X204841382Y-22365047D01*
X204853679Y-22344530D01*
X204867929Y-22325317D01*
X204883993Y-22307593D01*
X204901717Y-22291529D01*
X204920930Y-22277279D01*
X204941447Y-22264982D01*
X204963071Y-22254754D01*
X204985593Y-22246696D01*
X205008797Y-22240884D01*
X205032458Y-22237374D01*
X205056350Y-22236200D01*
X205543850Y-22236200D01*
X205567742Y-22237374D01*
X205567742Y-22237374D01*
G37*
D11*
X205300100Y-22936200D03*
G04 #@! TD*
D10*
G04 #@! TO.C,D5*
G36*
X196669742Y-28139474D02*
X196693403Y-28142984D01*
X196716607Y-28148796D01*
X196739129Y-28156854D01*
X196760753Y-28167082D01*
X196781270Y-28179379D01*
X196800483Y-28193629D01*
X196818207Y-28209693D01*
X196834271Y-28227417D01*
X196848521Y-28246630D01*
X196860818Y-28267147D01*
X196871046Y-28288771D01*
X196879104Y-28311293D01*
X196884916Y-28334497D01*
X196888426Y-28358158D01*
X196889600Y-28382050D01*
X196889600Y-28869550D01*
X196888426Y-28893442D01*
X196884916Y-28917103D01*
X196879104Y-28940307D01*
X196871046Y-28962829D01*
X196860818Y-28984453D01*
X196848521Y-29004970D01*
X196834271Y-29024183D01*
X196818207Y-29041907D01*
X196800483Y-29057971D01*
X196781270Y-29072221D01*
X196760753Y-29084518D01*
X196739129Y-29094746D01*
X196716607Y-29102804D01*
X196693403Y-29108616D01*
X196669742Y-29112126D01*
X196645850Y-29113300D01*
X195733350Y-29113300D01*
X195709458Y-29112126D01*
X195685797Y-29108616D01*
X195662593Y-29102804D01*
X195640071Y-29094746D01*
X195618447Y-29084518D01*
X195597930Y-29072221D01*
X195578717Y-29057971D01*
X195560993Y-29041907D01*
X195544929Y-29024183D01*
X195530679Y-29004970D01*
X195518382Y-28984453D01*
X195508154Y-28962829D01*
X195500096Y-28940307D01*
X195494284Y-28917103D01*
X195490774Y-28893442D01*
X195489600Y-28869550D01*
X195489600Y-28382050D01*
X195490774Y-28358158D01*
X195494284Y-28334497D01*
X195500096Y-28311293D01*
X195508154Y-28288771D01*
X195518382Y-28267147D01*
X195530679Y-28246630D01*
X195544929Y-28227417D01*
X195560993Y-28209693D01*
X195578717Y-28193629D01*
X195597930Y-28179379D01*
X195618447Y-28167082D01*
X195640071Y-28156854D01*
X195662593Y-28148796D01*
X195685797Y-28142984D01*
X195709458Y-28139474D01*
X195733350Y-28138300D01*
X196645850Y-28138300D01*
X196669742Y-28139474D01*
X196669742Y-28139474D01*
G37*
D11*
X196189600Y-28625800D03*
D10*
G36*
X196669742Y-30014474D02*
X196693403Y-30017984D01*
X196716607Y-30023796D01*
X196739129Y-30031854D01*
X196760753Y-30042082D01*
X196781270Y-30054379D01*
X196800483Y-30068629D01*
X196818207Y-30084693D01*
X196834271Y-30102417D01*
X196848521Y-30121630D01*
X196860818Y-30142147D01*
X196871046Y-30163771D01*
X196879104Y-30186293D01*
X196884916Y-30209497D01*
X196888426Y-30233158D01*
X196889600Y-30257050D01*
X196889600Y-30744550D01*
X196888426Y-30768442D01*
X196884916Y-30792103D01*
X196879104Y-30815307D01*
X196871046Y-30837829D01*
X196860818Y-30859453D01*
X196848521Y-30879970D01*
X196834271Y-30899183D01*
X196818207Y-30916907D01*
X196800483Y-30932971D01*
X196781270Y-30947221D01*
X196760753Y-30959518D01*
X196739129Y-30969746D01*
X196716607Y-30977804D01*
X196693403Y-30983616D01*
X196669742Y-30987126D01*
X196645850Y-30988300D01*
X195733350Y-30988300D01*
X195709458Y-30987126D01*
X195685797Y-30983616D01*
X195662593Y-30977804D01*
X195640071Y-30969746D01*
X195618447Y-30959518D01*
X195597930Y-30947221D01*
X195578717Y-30932971D01*
X195560993Y-30916907D01*
X195544929Y-30899183D01*
X195530679Y-30879970D01*
X195518382Y-30859453D01*
X195508154Y-30837829D01*
X195500096Y-30815307D01*
X195494284Y-30792103D01*
X195490774Y-30768442D01*
X195489600Y-30744550D01*
X195489600Y-30257050D01*
X195490774Y-30233158D01*
X195494284Y-30209497D01*
X195500096Y-30186293D01*
X195508154Y-30163771D01*
X195518382Y-30142147D01*
X195530679Y-30121630D01*
X195544929Y-30102417D01*
X195560993Y-30084693D01*
X195578717Y-30068629D01*
X195597930Y-30054379D01*
X195618447Y-30042082D01*
X195640071Y-30031854D01*
X195662593Y-30023796D01*
X195685797Y-30017984D01*
X195709458Y-30014474D01*
X195733350Y-30013300D01*
X196645850Y-30013300D01*
X196669742Y-30014474D01*
X196669742Y-30014474D01*
G37*
D11*
X196189600Y-30500800D03*
G04 #@! TD*
D15*
G04 #@! TO.C,U2*
X208638926Y-44720526D03*
X208638926Y-45870526D03*
X208638926Y-47020526D03*
X208638926Y-48170526D03*
X209788926Y-44720526D03*
X209788926Y-45870526D03*
X209788926Y-47020526D03*
X209788926Y-48170526D03*
X210938926Y-44720526D03*
X210938926Y-45870526D03*
X210938926Y-47020526D03*
X210938926Y-48170526D03*
X212088926Y-44720526D03*
X212088926Y-45870526D03*
X212088926Y-47020526D03*
X212088926Y-48170526D03*
D16*
X207503926Y-44245526D03*
X207503926Y-44645526D03*
X207503926Y-45045526D03*
X207503926Y-45445526D03*
X207503926Y-45845526D03*
X207503926Y-46245526D03*
X207503926Y-46645526D03*
X207503926Y-47045526D03*
X207503926Y-47445526D03*
X207503926Y-47845526D03*
X207503926Y-48245526D03*
X207503926Y-48645526D03*
D17*
X208163926Y-49305526D03*
X208563926Y-49305526D03*
X208963926Y-49305526D03*
X209363926Y-49305526D03*
X209763926Y-49305526D03*
X210163926Y-49305526D03*
X210563926Y-49305526D03*
X210963926Y-49305526D03*
X211363926Y-49305526D03*
X211763926Y-49305526D03*
X212163926Y-49305526D03*
X212563926Y-49305526D03*
D16*
X213223926Y-48645526D03*
X213223926Y-48245526D03*
X213223926Y-47845526D03*
X213223926Y-47445526D03*
X213223926Y-47045526D03*
X213223926Y-46645526D03*
X213223926Y-46245526D03*
X213223926Y-45845526D03*
X213223926Y-45445526D03*
X213223926Y-45045526D03*
X213223926Y-44645526D03*
X213223926Y-44245526D03*
D17*
X212563926Y-43585526D03*
X212163926Y-43585526D03*
X211763926Y-43585526D03*
X211363926Y-43585526D03*
X210963926Y-43585526D03*
X210563926Y-43585526D03*
X210163926Y-43585526D03*
X209763926Y-43585526D03*
X209363926Y-43585526D03*
X208963926Y-43585526D03*
X208563926Y-43585526D03*
X208163926Y-43585526D03*
G04 #@! TD*
D18*
G04 #@! TO.C,J2*
X214149526Y-50947926D03*
X217449526Y-50947926D03*
X214149526Y-51947926D03*
X217449526Y-51947926D03*
X214149526Y-52947926D03*
X217449526Y-52947926D03*
X214149526Y-53947926D03*
X217449526Y-53947926D03*
X214149526Y-54947926D03*
X217449526Y-54947926D03*
G04 #@! TD*
D10*
G04 #@! TO.C,C25*
G36*
X204849291Y-40965553D02*
X204870526Y-40968703D01*
X204891350Y-40973919D01*
X204911562Y-40981151D01*
X204930968Y-40990330D01*
X204949381Y-41001366D01*
X204966624Y-41014154D01*
X204982530Y-41028570D01*
X204996946Y-41044476D01*
X205009734Y-41061719D01*
X205020770Y-41080132D01*
X205029949Y-41099538D01*
X205037181Y-41119750D01*
X205042397Y-41140574D01*
X205045547Y-41161809D01*
X205046600Y-41183250D01*
X205046600Y-41620750D01*
X205045547Y-41642191D01*
X205042397Y-41663426D01*
X205037181Y-41684250D01*
X205029949Y-41704462D01*
X205020770Y-41723868D01*
X205009734Y-41742281D01*
X204996946Y-41759524D01*
X204982530Y-41775430D01*
X204966624Y-41789846D01*
X204949381Y-41802634D01*
X204930968Y-41813670D01*
X204911562Y-41822849D01*
X204891350Y-41830081D01*
X204870526Y-41835297D01*
X204849291Y-41838447D01*
X204827850Y-41839500D01*
X204315350Y-41839500D01*
X204293909Y-41838447D01*
X204272674Y-41835297D01*
X204251850Y-41830081D01*
X204231638Y-41822849D01*
X204212232Y-41813670D01*
X204193819Y-41802634D01*
X204176576Y-41789846D01*
X204160670Y-41775430D01*
X204146254Y-41759524D01*
X204133466Y-41742281D01*
X204122430Y-41723868D01*
X204113251Y-41704462D01*
X204106019Y-41684250D01*
X204100803Y-41663426D01*
X204097653Y-41642191D01*
X204096600Y-41620750D01*
X204096600Y-41183250D01*
X204097653Y-41161809D01*
X204100803Y-41140574D01*
X204106019Y-41119750D01*
X204113251Y-41099538D01*
X204122430Y-41080132D01*
X204133466Y-41061719D01*
X204146254Y-41044476D01*
X204160670Y-41028570D01*
X204176576Y-41014154D01*
X204193819Y-41001366D01*
X204212232Y-40990330D01*
X204231638Y-40981151D01*
X204251850Y-40973919D01*
X204272674Y-40968703D01*
X204293909Y-40965553D01*
X204315350Y-40964500D01*
X204827850Y-40964500D01*
X204849291Y-40965553D01*
X204849291Y-40965553D01*
G37*
D19*
X204571600Y-41402000D03*
D10*
G36*
X204849291Y-42540553D02*
X204870526Y-42543703D01*
X204891350Y-42548919D01*
X204911562Y-42556151D01*
X204930968Y-42565330D01*
X204949381Y-42576366D01*
X204966624Y-42589154D01*
X204982530Y-42603570D01*
X204996946Y-42619476D01*
X205009734Y-42636719D01*
X205020770Y-42655132D01*
X205029949Y-42674538D01*
X205037181Y-42694750D01*
X205042397Y-42715574D01*
X205045547Y-42736809D01*
X205046600Y-42758250D01*
X205046600Y-43195750D01*
X205045547Y-43217191D01*
X205042397Y-43238426D01*
X205037181Y-43259250D01*
X205029949Y-43279462D01*
X205020770Y-43298868D01*
X205009734Y-43317281D01*
X204996946Y-43334524D01*
X204982530Y-43350430D01*
X204966624Y-43364846D01*
X204949381Y-43377634D01*
X204930968Y-43388670D01*
X204911562Y-43397849D01*
X204891350Y-43405081D01*
X204870526Y-43410297D01*
X204849291Y-43413447D01*
X204827850Y-43414500D01*
X204315350Y-43414500D01*
X204293909Y-43413447D01*
X204272674Y-43410297D01*
X204251850Y-43405081D01*
X204231638Y-43397849D01*
X204212232Y-43388670D01*
X204193819Y-43377634D01*
X204176576Y-43364846D01*
X204160670Y-43350430D01*
X204146254Y-43334524D01*
X204133466Y-43317281D01*
X204122430Y-43298868D01*
X204113251Y-43279462D01*
X204106019Y-43259250D01*
X204100803Y-43238426D01*
X204097653Y-43217191D01*
X204096600Y-43195750D01*
X204096600Y-42758250D01*
X204097653Y-42736809D01*
X204100803Y-42715574D01*
X204106019Y-42694750D01*
X204113251Y-42674538D01*
X204122430Y-42655132D01*
X204133466Y-42636719D01*
X204146254Y-42619476D01*
X204160670Y-42603570D01*
X204176576Y-42589154D01*
X204193819Y-42576366D01*
X204212232Y-42565330D01*
X204231638Y-42556151D01*
X204251850Y-42548919D01*
X204272674Y-42543703D01*
X204293909Y-42540553D01*
X204315350Y-42539500D01*
X204827850Y-42539500D01*
X204849291Y-42540553D01*
X204849291Y-42540553D01*
G37*
D19*
X204571600Y-42977000D03*
G04 #@! TD*
D10*
G04 #@! TO.C,C26*
G36*
X202715691Y-41067153D02*
X202736926Y-41070303D01*
X202757750Y-41075519D01*
X202777962Y-41082751D01*
X202797368Y-41091930D01*
X202815781Y-41102966D01*
X202833024Y-41115754D01*
X202848930Y-41130170D01*
X202863346Y-41146076D01*
X202876134Y-41163319D01*
X202887170Y-41181732D01*
X202896349Y-41201138D01*
X202903581Y-41221350D01*
X202908797Y-41242174D01*
X202911947Y-41263409D01*
X202913000Y-41284850D01*
X202913000Y-41722350D01*
X202911947Y-41743791D01*
X202908797Y-41765026D01*
X202903581Y-41785850D01*
X202896349Y-41806062D01*
X202887170Y-41825468D01*
X202876134Y-41843881D01*
X202863346Y-41861124D01*
X202848930Y-41877030D01*
X202833024Y-41891446D01*
X202815781Y-41904234D01*
X202797368Y-41915270D01*
X202777962Y-41924449D01*
X202757750Y-41931681D01*
X202736926Y-41936897D01*
X202715691Y-41940047D01*
X202694250Y-41941100D01*
X202181750Y-41941100D01*
X202160309Y-41940047D01*
X202139074Y-41936897D01*
X202118250Y-41931681D01*
X202098038Y-41924449D01*
X202078632Y-41915270D01*
X202060219Y-41904234D01*
X202042976Y-41891446D01*
X202027070Y-41877030D01*
X202012654Y-41861124D01*
X201999866Y-41843881D01*
X201988830Y-41825468D01*
X201979651Y-41806062D01*
X201972419Y-41785850D01*
X201967203Y-41765026D01*
X201964053Y-41743791D01*
X201963000Y-41722350D01*
X201963000Y-41284850D01*
X201964053Y-41263409D01*
X201967203Y-41242174D01*
X201972419Y-41221350D01*
X201979651Y-41201138D01*
X201988830Y-41181732D01*
X201999866Y-41163319D01*
X202012654Y-41146076D01*
X202027070Y-41130170D01*
X202042976Y-41115754D01*
X202060219Y-41102966D01*
X202078632Y-41091930D01*
X202098038Y-41082751D01*
X202118250Y-41075519D01*
X202139074Y-41070303D01*
X202160309Y-41067153D01*
X202181750Y-41066100D01*
X202694250Y-41066100D01*
X202715691Y-41067153D01*
X202715691Y-41067153D01*
G37*
D19*
X202438000Y-41503600D03*
D10*
G36*
X202715691Y-42642153D02*
X202736926Y-42645303D01*
X202757750Y-42650519D01*
X202777962Y-42657751D01*
X202797368Y-42666930D01*
X202815781Y-42677966D01*
X202833024Y-42690754D01*
X202848930Y-42705170D01*
X202863346Y-42721076D01*
X202876134Y-42738319D01*
X202887170Y-42756732D01*
X202896349Y-42776138D01*
X202903581Y-42796350D01*
X202908797Y-42817174D01*
X202911947Y-42838409D01*
X202913000Y-42859850D01*
X202913000Y-43297350D01*
X202911947Y-43318791D01*
X202908797Y-43340026D01*
X202903581Y-43360850D01*
X202896349Y-43381062D01*
X202887170Y-43400468D01*
X202876134Y-43418881D01*
X202863346Y-43436124D01*
X202848930Y-43452030D01*
X202833024Y-43466446D01*
X202815781Y-43479234D01*
X202797368Y-43490270D01*
X202777962Y-43499449D01*
X202757750Y-43506681D01*
X202736926Y-43511897D01*
X202715691Y-43515047D01*
X202694250Y-43516100D01*
X202181750Y-43516100D01*
X202160309Y-43515047D01*
X202139074Y-43511897D01*
X202118250Y-43506681D01*
X202098038Y-43499449D01*
X202078632Y-43490270D01*
X202060219Y-43479234D01*
X202042976Y-43466446D01*
X202027070Y-43452030D01*
X202012654Y-43436124D01*
X201999866Y-43418881D01*
X201988830Y-43400468D01*
X201979651Y-43381062D01*
X201972419Y-43360850D01*
X201967203Y-43340026D01*
X201964053Y-43318791D01*
X201963000Y-43297350D01*
X201963000Y-42859850D01*
X201964053Y-42838409D01*
X201967203Y-42817174D01*
X201972419Y-42796350D01*
X201979651Y-42776138D01*
X201988830Y-42756732D01*
X201999866Y-42738319D01*
X202012654Y-42721076D01*
X202027070Y-42705170D01*
X202042976Y-42690754D01*
X202060219Y-42677966D01*
X202078632Y-42666930D01*
X202098038Y-42657751D01*
X202118250Y-42650519D01*
X202139074Y-42645303D01*
X202160309Y-42642153D01*
X202181750Y-42641100D01*
X202694250Y-42641100D01*
X202715691Y-42642153D01*
X202715691Y-42642153D01*
G37*
D19*
X202438000Y-43078600D03*
G04 #@! TD*
D10*
G04 #@! TO.C,R2*
G36*
X209751891Y-25446753D02*
X209773126Y-25449903D01*
X209793950Y-25455119D01*
X209814162Y-25462351D01*
X209833568Y-25471530D01*
X209851981Y-25482566D01*
X209869224Y-25495354D01*
X209885130Y-25509770D01*
X209899546Y-25525676D01*
X209912334Y-25542919D01*
X209923370Y-25561332D01*
X209932549Y-25580738D01*
X209939781Y-25600950D01*
X209944997Y-25621774D01*
X209948147Y-25643009D01*
X209949200Y-25664450D01*
X209949200Y-26176950D01*
X209948147Y-26198391D01*
X209944997Y-26219626D01*
X209939781Y-26240450D01*
X209932549Y-26260662D01*
X209923370Y-26280068D01*
X209912334Y-26298481D01*
X209899546Y-26315724D01*
X209885130Y-26331630D01*
X209869224Y-26346046D01*
X209851981Y-26358834D01*
X209833568Y-26369870D01*
X209814162Y-26379049D01*
X209793950Y-26386281D01*
X209773126Y-26391497D01*
X209751891Y-26394647D01*
X209730450Y-26395700D01*
X209292950Y-26395700D01*
X209271509Y-26394647D01*
X209250274Y-26391497D01*
X209229450Y-26386281D01*
X209209238Y-26379049D01*
X209189832Y-26369870D01*
X209171419Y-26358834D01*
X209154176Y-26346046D01*
X209138270Y-26331630D01*
X209123854Y-26315724D01*
X209111066Y-26298481D01*
X209100030Y-26280068D01*
X209090851Y-26260662D01*
X209083619Y-26240450D01*
X209078403Y-26219626D01*
X209075253Y-26198391D01*
X209074200Y-26176950D01*
X209074200Y-25664450D01*
X209075253Y-25643009D01*
X209078403Y-25621774D01*
X209083619Y-25600950D01*
X209090851Y-25580738D01*
X209100030Y-25561332D01*
X209111066Y-25542919D01*
X209123854Y-25525676D01*
X209138270Y-25509770D01*
X209154176Y-25495354D01*
X209171419Y-25482566D01*
X209189832Y-25471530D01*
X209209238Y-25462351D01*
X209229450Y-25455119D01*
X209250274Y-25449903D01*
X209271509Y-25446753D01*
X209292950Y-25445700D01*
X209730450Y-25445700D01*
X209751891Y-25446753D01*
X209751891Y-25446753D01*
G37*
D19*
X209511700Y-25920700D03*
D10*
G36*
X211326891Y-25446753D02*
X211348126Y-25449903D01*
X211368950Y-25455119D01*
X211389162Y-25462351D01*
X211408568Y-25471530D01*
X211426981Y-25482566D01*
X211444224Y-25495354D01*
X211460130Y-25509770D01*
X211474546Y-25525676D01*
X211487334Y-25542919D01*
X211498370Y-25561332D01*
X211507549Y-25580738D01*
X211514781Y-25600950D01*
X211519997Y-25621774D01*
X211523147Y-25643009D01*
X211524200Y-25664450D01*
X211524200Y-26176950D01*
X211523147Y-26198391D01*
X211519997Y-26219626D01*
X211514781Y-26240450D01*
X211507549Y-26260662D01*
X211498370Y-26280068D01*
X211487334Y-26298481D01*
X211474546Y-26315724D01*
X211460130Y-26331630D01*
X211444224Y-26346046D01*
X211426981Y-26358834D01*
X211408568Y-26369870D01*
X211389162Y-26379049D01*
X211368950Y-26386281D01*
X211348126Y-26391497D01*
X211326891Y-26394647D01*
X211305450Y-26395700D01*
X210867950Y-26395700D01*
X210846509Y-26394647D01*
X210825274Y-26391497D01*
X210804450Y-26386281D01*
X210784238Y-26379049D01*
X210764832Y-26369870D01*
X210746419Y-26358834D01*
X210729176Y-26346046D01*
X210713270Y-26331630D01*
X210698854Y-26315724D01*
X210686066Y-26298481D01*
X210675030Y-26280068D01*
X210665851Y-26260662D01*
X210658619Y-26240450D01*
X210653403Y-26219626D01*
X210650253Y-26198391D01*
X210649200Y-26176950D01*
X210649200Y-25664450D01*
X210650253Y-25643009D01*
X210653403Y-25621774D01*
X210658619Y-25600950D01*
X210665851Y-25580738D01*
X210675030Y-25561332D01*
X210686066Y-25542919D01*
X210698854Y-25525676D01*
X210713270Y-25509770D01*
X210729176Y-25495354D01*
X210746419Y-25482566D01*
X210764832Y-25471530D01*
X210784238Y-25462351D01*
X210804450Y-25455119D01*
X210825274Y-25449903D01*
X210846509Y-25446753D01*
X210867950Y-25445700D01*
X211305450Y-25445700D01*
X211326891Y-25446753D01*
X211326891Y-25446753D01*
G37*
D19*
X211086700Y-25920700D03*
G04 #@! TD*
D10*
G04 #@! TO.C,R3*
G36*
X207923291Y-25903953D02*
X207944526Y-25907103D01*
X207965350Y-25912319D01*
X207985562Y-25919551D01*
X208004968Y-25928730D01*
X208023381Y-25939766D01*
X208040624Y-25952554D01*
X208056530Y-25966970D01*
X208070946Y-25982876D01*
X208083734Y-26000119D01*
X208094770Y-26018532D01*
X208103949Y-26037938D01*
X208111181Y-26058150D01*
X208116397Y-26078974D01*
X208119547Y-26100209D01*
X208120600Y-26121650D01*
X208120600Y-26634150D01*
X208119547Y-26655591D01*
X208116397Y-26676826D01*
X208111181Y-26697650D01*
X208103949Y-26717862D01*
X208094770Y-26737268D01*
X208083734Y-26755681D01*
X208070946Y-26772924D01*
X208056530Y-26788830D01*
X208040624Y-26803246D01*
X208023381Y-26816034D01*
X208004968Y-26827070D01*
X207985562Y-26836249D01*
X207965350Y-26843481D01*
X207944526Y-26848697D01*
X207923291Y-26851847D01*
X207901850Y-26852900D01*
X207464350Y-26852900D01*
X207442909Y-26851847D01*
X207421674Y-26848697D01*
X207400850Y-26843481D01*
X207380638Y-26836249D01*
X207361232Y-26827070D01*
X207342819Y-26816034D01*
X207325576Y-26803246D01*
X207309670Y-26788830D01*
X207295254Y-26772924D01*
X207282466Y-26755681D01*
X207271430Y-26737268D01*
X207262251Y-26717862D01*
X207255019Y-26697650D01*
X207249803Y-26676826D01*
X207246653Y-26655591D01*
X207245600Y-26634150D01*
X207245600Y-26121650D01*
X207246653Y-26100209D01*
X207249803Y-26078974D01*
X207255019Y-26058150D01*
X207262251Y-26037938D01*
X207271430Y-26018532D01*
X207282466Y-26000119D01*
X207295254Y-25982876D01*
X207309670Y-25966970D01*
X207325576Y-25952554D01*
X207342819Y-25939766D01*
X207361232Y-25928730D01*
X207380638Y-25919551D01*
X207400850Y-25912319D01*
X207421674Y-25907103D01*
X207442909Y-25903953D01*
X207464350Y-25902900D01*
X207901850Y-25902900D01*
X207923291Y-25903953D01*
X207923291Y-25903953D01*
G37*
D19*
X207683100Y-26377900D03*
D10*
G36*
X206348291Y-25903953D02*
X206369526Y-25907103D01*
X206390350Y-25912319D01*
X206410562Y-25919551D01*
X206429968Y-25928730D01*
X206448381Y-25939766D01*
X206465624Y-25952554D01*
X206481530Y-25966970D01*
X206495946Y-25982876D01*
X206508734Y-26000119D01*
X206519770Y-26018532D01*
X206528949Y-26037938D01*
X206536181Y-26058150D01*
X206541397Y-26078974D01*
X206544547Y-26100209D01*
X206545600Y-26121650D01*
X206545600Y-26634150D01*
X206544547Y-26655591D01*
X206541397Y-26676826D01*
X206536181Y-26697650D01*
X206528949Y-26717862D01*
X206519770Y-26737268D01*
X206508734Y-26755681D01*
X206495946Y-26772924D01*
X206481530Y-26788830D01*
X206465624Y-26803246D01*
X206448381Y-26816034D01*
X206429968Y-26827070D01*
X206410562Y-26836249D01*
X206390350Y-26843481D01*
X206369526Y-26848697D01*
X206348291Y-26851847D01*
X206326850Y-26852900D01*
X205889350Y-26852900D01*
X205867909Y-26851847D01*
X205846674Y-26848697D01*
X205825850Y-26843481D01*
X205805638Y-26836249D01*
X205786232Y-26827070D01*
X205767819Y-26816034D01*
X205750576Y-26803246D01*
X205734670Y-26788830D01*
X205720254Y-26772924D01*
X205707466Y-26755681D01*
X205696430Y-26737268D01*
X205687251Y-26717862D01*
X205680019Y-26697650D01*
X205674803Y-26676826D01*
X205671653Y-26655591D01*
X205670600Y-26634150D01*
X205670600Y-26121650D01*
X205671653Y-26100209D01*
X205674803Y-26078974D01*
X205680019Y-26058150D01*
X205687251Y-26037938D01*
X205696430Y-26018532D01*
X205707466Y-26000119D01*
X205720254Y-25982876D01*
X205734670Y-25966970D01*
X205750576Y-25952554D01*
X205767819Y-25939766D01*
X205786232Y-25928730D01*
X205805638Y-25919551D01*
X205825850Y-25912319D01*
X205846674Y-25907103D01*
X205867909Y-25903953D01*
X205889350Y-25902900D01*
X206326850Y-25902900D01*
X206348291Y-25903953D01*
X206348291Y-25903953D01*
G37*
D19*
X206108100Y-26377900D03*
G04 #@! TD*
D10*
G04 #@! TO.C,R6*
G36*
X203465391Y-29142453D02*
X203486626Y-29145603D01*
X203507450Y-29150819D01*
X203527662Y-29158051D01*
X203547068Y-29167230D01*
X203565481Y-29178266D01*
X203582724Y-29191054D01*
X203598630Y-29205470D01*
X203613046Y-29221376D01*
X203625834Y-29238619D01*
X203636870Y-29257032D01*
X203646049Y-29276438D01*
X203653281Y-29296650D01*
X203658497Y-29317474D01*
X203661647Y-29338709D01*
X203662700Y-29360150D01*
X203662700Y-29872650D01*
X203661647Y-29894091D01*
X203658497Y-29915326D01*
X203653281Y-29936150D01*
X203646049Y-29956362D01*
X203636870Y-29975768D01*
X203625834Y-29994181D01*
X203613046Y-30011424D01*
X203598630Y-30027330D01*
X203582724Y-30041746D01*
X203565481Y-30054534D01*
X203547068Y-30065570D01*
X203527662Y-30074749D01*
X203507450Y-30081981D01*
X203486626Y-30087197D01*
X203465391Y-30090347D01*
X203443950Y-30091400D01*
X203006450Y-30091400D01*
X202985009Y-30090347D01*
X202963774Y-30087197D01*
X202942950Y-30081981D01*
X202922738Y-30074749D01*
X202903332Y-30065570D01*
X202884919Y-30054534D01*
X202867676Y-30041746D01*
X202851770Y-30027330D01*
X202837354Y-30011424D01*
X202824566Y-29994181D01*
X202813530Y-29975768D01*
X202804351Y-29956362D01*
X202797119Y-29936150D01*
X202791903Y-29915326D01*
X202788753Y-29894091D01*
X202787700Y-29872650D01*
X202787700Y-29360150D01*
X202788753Y-29338709D01*
X202791903Y-29317474D01*
X202797119Y-29296650D01*
X202804351Y-29276438D01*
X202813530Y-29257032D01*
X202824566Y-29238619D01*
X202837354Y-29221376D01*
X202851770Y-29205470D01*
X202867676Y-29191054D01*
X202884919Y-29178266D01*
X202903332Y-29167230D01*
X202922738Y-29158051D01*
X202942950Y-29150819D01*
X202963774Y-29145603D01*
X202985009Y-29142453D01*
X203006450Y-29141400D01*
X203443950Y-29141400D01*
X203465391Y-29142453D01*
X203465391Y-29142453D01*
G37*
D19*
X203225200Y-29616400D03*
D10*
G36*
X205040391Y-29142453D02*
X205061626Y-29145603D01*
X205082450Y-29150819D01*
X205102662Y-29158051D01*
X205122068Y-29167230D01*
X205140481Y-29178266D01*
X205157724Y-29191054D01*
X205173630Y-29205470D01*
X205188046Y-29221376D01*
X205200834Y-29238619D01*
X205211870Y-29257032D01*
X205221049Y-29276438D01*
X205228281Y-29296650D01*
X205233497Y-29317474D01*
X205236647Y-29338709D01*
X205237700Y-29360150D01*
X205237700Y-29872650D01*
X205236647Y-29894091D01*
X205233497Y-29915326D01*
X205228281Y-29936150D01*
X205221049Y-29956362D01*
X205211870Y-29975768D01*
X205200834Y-29994181D01*
X205188046Y-30011424D01*
X205173630Y-30027330D01*
X205157724Y-30041746D01*
X205140481Y-30054534D01*
X205122068Y-30065570D01*
X205102662Y-30074749D01*
X205082450Y-30081981D01*
X205061626Y-30087197D01*
X205040391Y-30090347D01*
X205018950Y-30091400D01*
X204581450Y-30091400D01*
X204560009Y-30090347D01*
X204538774Y-30087197D01*
X204517950Y-30081981D01*
X204497738Y-30074749D01*
X204478332Y-30065570D01*
X204459919Y-30054534D01*
X204442676Y-30041746D01*
X204426770Y-30027330D01*
X204412354Y-30011424D01*
X204399566Y-29994181D01*
X204388530Y-29975768D01*
X204379351Y-29956362D01*
X204372119Y-29936150D01*
X204366903Y-29915326D01*
X204363753Y-29894091D01*
X204362700Y-29872650D01*
X204362700Y-29360150D01*
X204363753Y-29338709D01*
X204366903Y-29317474D01*
X204372119Y-29296650D01*
X204379351Y-29276438D01*
X204388530Y-29257032D01*
X204399566Y-29238619D01*
X204412354Y-29221376D01*
X204426770Y-29205470D01*
X204442676Y-29191054D01*
X204459919Y-29178266D01*
X204478332Y-29167230D01*
X204497738Y-29158051D01*
X204517950Y-29150819D01*
X204538774Y-29145603D01*
X204560009Y-29142453D01*
X204581450Y-29141400D01*
X205018950Y-29141400D01*
X205040391Y-29142453D01*
X205040391Y-29142453D01*
G37*
D19*
X204800200Y-29616400D03*
G04 #@! TD*
D10*
G04 #@! TO.C,R10*
G36*
X202703691Y-48040053D02*
X202724926Y-48043203D01*
X202745750Y-48048419D01*
X202765962Y-48055651D01*
X202785368Y-48064830D01*
X202803781Y-48075866D01*
X202821024Y-48088654D01*
X202836930Y-48103070D01*
X202851346Y-48118976D01*
X202864134Y-48136219D01*
X202875170Y-48154632D01*
X202884349Y-48174038D01*
X202891581Y-48194250D01*
X202896797Y-48215074D01*
X202899947Y-48236309D01*
X202901000Y-48257750D01*
X202901000Y-48770250D01*
X202899947Y-48791691D01*
X202896797Y-48812926D01*
X202891581Y-48833750D01*
X202884349Y-48853962D01*
X202875170Y-48873368D01*
X202864134Y-48891781D01*
X202851346Y-48909024D01*
X202836930Y-48924930D01*
X202821024Y-48939346D01*
X202803781Y-48952134D01*
X202785368Y-48963170D01*
X202765962Y-48972349D01*
X202745750Y-48979581D01*
X202724926Y-48984797D01*
X202703691Y-48987947D01*
X202682250Y-48989000D01*
X202244750Y-48989000D01*
X202223309Y-48987947D01*
X202202074Y-48984797D01*
X202181250Y-48979581D01*
X202161038Y-48972349D01*
X202141632Y-48963170D01*
X202123219Y-48952134D01*
X202105976Y-48939346D01*
X202090070Y-48924930D01*
X202075654Y-48909024D01*
X202062866Y-48891781D01*
X202051830Y-48873368D01*
X202042651Y-48853962D01*
X202035419Y-48833750D01*
X202030203Y-48812926D01*
X202027053Y-48791691D01*
X202026000Y-48770250D01*
X202026000Y-48257750D01*
X202027053Y-48236309D01*
X202030203Y-48215074D01*
X202035419Y-48194250D01*
X202042651Y-48174038D01*
X202051830Y-48154632D01*
X202062866Y-48136219D01*
X202075654Y-48118976D01*
X202090070Y-48103070D01*
X202105976Y-48088654D01*
X202123219Y-48075866D01*
X202141632Y-48064830D01*
X202161038Y-48055651D01*
X202181250Y-48048419D01*
X202202074Y-48043203D01*
X202223309Y-48040053D01*
X202244750Y-48039000D01*
X202682250Y-48039000D01*
X202703691Y-48040053D01*
X202703691Y-48040053D01*
G37*
D19*
X202463500Y-48514000D03*
D10*
G36*
X201128691Y-48040053D02*
X201149926Y-48043203D01*
X201170750Y-48048419D01*
X201190962Y-48055651D01*
X201210368Y-48064830D01*
X201228781Y-48075866D01*
X201246024Y-48088654D01*
X201261930Y-48103070D01*
X201276346Y-48118976D01*
X201289134Y-48136219D01*
X201300170Y-48154632D01*
X201309349Y-48174038D01*
X201316581Y-48194250D01*
X201321797Y-48215074D01*
X201324947Y-48236309D01*
X201326000Y-48257750D01*
X201326000Y-48770250D01*
X201324947Y-48791691D01*
X201321797Y-48812926D01*
X201316581Y-48833750D01*
X201309349Y-48853962D01*
X201300170Y-48873368D01*
X201289134Y-48891781D01*
X201276346Y-48909024D01*
X201261930Y-48924930D01*
X201246024Y-48939346D01*
X201228781Y-48952134D01*
X201210368Y-48963170D01*
X201190962Y-48972349D01*
X201170750Y-48979581D01*
X201149926Y-48984797D01*
X201128691Y-48987947D01*
X201107250Y-48989000D01*
X200669750Y-48989000D01*
X200648309Y-48987947D01*
X200627074Y-48984797D01*
X200606250Y-48979581D01*
X200586038Y-48972349D01*
X200566632Y-48963170D01*
X200548219Y-48952134D01*
X200530976Y-48939346D01*
X200515070Y-48924930D01*
X200500654Y-48909024D01*
X200487866Y-48891781D01*
X200476830Y-48873368D01*
X200467651Y-48853962D01*
X200460419Y-48833750D01*
X200455203Y-48812926D01*
X200452053Y-48791691D01*
X200451000Y-48770250D01*
X200451000Y-48257750D01*
X200452053Y-48236309D01*
X200455203Y-48215074D01*
X200460419Y-48194250D01*
X200467651Y-48174038D01*
X200476830Y-48154632D01*
X200487866Y-48136219D01*
X200500654Y-48118976D01*
X200515070Y-48103070D01*
X200530976Y-48088654D01*
X200548219Y-48075866D01*
X200566632Y-48064830D01*
X200586038Y-48055651D01*
X200606250Y-48048419D01*
X200627074Y-48043203D01*
X200648309Y-48040053D01*
X200669750Y-48039000D01*
X201107250Y-48039000D01*
X201128691Y-48040053D01*
X201128691Y-48040053D01*
G37*
D19*
X200888500Y-48514000D03*
G04 #@! TD*
D10*
G04 #@! TO.C,R11*
G36*
X203237191Y-49818053D02*
X203258426Y-49821203D01*
X203279250Y-49826419D01*
X203299462Y-49833651D01*
X203318868Y-49842830D01*
X203337281Y-49853866D01*
X203354524Y-49866654D01*
X203370430Y-49881070D01*
X203384846Y-49896976D01*
X203397634Y-49914219D01*
X203408670Y-49932632D01*
X203417849Y-49952038D01*
X203425081Y-49972250D01*
X203430297Y-49993074D01*
X203433447Y-50014309D01*
X203434500Y-50035750D01*
X203434500Y-50548250D01*
X203433447Y-50569691D01*
X203430297Y-50590926D01*
X203425081Y-50611750D01*
X203417849Y-50631962D01*
X203408670Y-50651368D01*
X203397634Y-50669781D01*
X203384846Y-50687024D01*
X203370430Y-50702930D01*
X203354524Y-50717346D01*
X203337281Y-50730134D01*
X203318868Y-50741170D01*
X203299462Y-50750349D01*
X203279250Y-50757581D01*
X203258426Y-50762797D01*
X203237191Y-50765947D01*
X203215750Y-50767000D01*
X202778250Y-50767000D01*
X202756809Y-50765947D01*
X202735574Y-50762797D01*
X202714750Y-50757581D01*
X202694538Y-50750349D01*
X202675132Y-50741170D01*
X202656719Y-50730134D01*
X202639476Y-50717346D01*
X202623570Y-50702930D01*
X202609154Y-50687024D01*
X202596366Y-50669781D01*
X202585330Y-50651368D01*
X202576151Y-50631962D01*
X202568919Y-50611750D01*
X202563703Y-50590926D01*
X202560553Y-50569691D01*
X202559500Y-50548250D01*
X202559500Y-50035750D01*
X202560553Y-50014309D01*
X202563703Y-49993074D01*
X202568919Y-49972250D01*
X202576151Y-49952038D01*
X202585330Y-49932632D01*
X202596366Y-49914219D01*
X202609154Y-49896976D01*
X202623570Y-49881070D01*
X202639476Y-49866654D01*
X202656719Y-49853866D01*
X202675132Y-49842830D01*
X202694538Y-49833651D01*
X202714750Y-49826419D01*
X202735574Y-49821203D01*
X202756809Y-49818053D01*
X202778250Y-49817000D01*
X203215750Y-49817000D01*
X203237191Y-49818053D01*
X203237191Y-49818053D01*
G37*
D19*
X202997000Y-50292000D03*
D10*
G36*
X201662191Y-49818053D02*
X201683426Y-49821203D01*
X201704250Y-49826419D01*
X201724462Y-49833651D01*
X201743868Y-49842830D01*
X201762281Y-49853866D01*
X201779524Y-49866654D01*
X201795430Y-49881070D01*
X201809846Y-49896976D01*
X201822634Y-49914219D01*
X201833670Y-49932632D01*
X201842849Y-49952038D01*
X201850081Y-49972250D01*
X201855297Y-49993074D01*
X201858447Y-50014309D01*
X201859500Y-50035750D01*
X201859500Y-50548250D01*
X201858447Y-50569691D01*
X201855297Y-50590926D01*
X201850081Y-50611750D01*
X201842849Y-50631962D01*
X201833670Y-50651368D01*
X201822634Y-50669781D01*
X201809846Y-50687024D01*
X201795430Y-50702930D01*
X201779524Y-50717346D01*
X201762281Y-50730134D01*
X201743868Y-50741170D01*
X201724462Y-50750349D01*
X201704250Y-50757581D01*
X201683426Y-50762797D01*
X201662191Y-50765947D01*
X201640750Y-50767000D01*
X201203250Y-50767000D01*
X201181809Y-50765947D01*
X201160574Y-50762797D01*
X201139750Y-50757581D01*
X201119538Y-50750349D01*
X201100132Y-50741170D01*
X201081719Y-50730134D01*
X201064476Y-50717346D01*
X201048570Y-50702930D01*
X201034154Y-50687024D01*
X201021366Y-50669781D01*
X201010330Y-50651368D01*
X201001151Y-50631962D01*
X200993919Y-50611750D01*
X200988703Y-50590926D01*
X200985553Y-50569691D01*
X200984500Y-50548250D01*
X200984500Y-50035750D01*
X200985553Y-50014309D01*
X200988703Y-49993074D01*
X200993919Y-49972250D01*
X201001151Y-49952038D01*
X201010330Y-49932632D01*
X201021366Y-49914219D01*
X201034154Y-49896976D01*
X201048570Y-49881070D01*
X201064476Y-49866654D01*
X201081719Y-49853866D01*
X201100132Y-49842830D01*
X201119538Y-49833651D01*
X201139750Y-49826419D01*
X201160574Y-49821203D01*
X201181809Y-49818053D01*
X201203250Y-49817000D01*
X201640750Y-49817000D01*
X201662191Y-49818053D01*
X201662191Y-49818053D01*
G37*
D19*
X201422000Y-50292000D03*
G04 #@! TD*
D20*
G04 #@! TO.C,Y1*
X217726000Y-41680000D03*
X220726000Y-41680000D03*
X217726000Y-43180000D03*
X220726000Y-43180000D03*
G04 #@! TD*
D10*
G04 #@! TO.C,C2*
G36*
X207531642Y-31813174D02*
X207555303Y-31816684D01*
X207578507Y-31822496D01*
X207601029Y-31830554D01*
X207622653Y-31840782D01*
X207643170Y-31853079D01*
X207662383Y-31867329D01*
X207680107Y-31883393D01*
X207696171Y-31901117D01*
X207710421Y-31920330D01*
X207722718Y-31940847D01*
X207732946Y-31962471D01*
X207741004Y-31984993D01*
X207746816Y-32008197D01*
X207750326Y-32031858D01*
X207751500Y-32055750D01*
X207751500Y-32968250D01*
X207750326Y-32992142D01*
X207746816Y-33015803D01*
X207741004Y-33039007D01*
X207732946Y-33061529D01*
X207722718Y-33083153D01*
X207710421Y-33103670D01*
X207696171Y-33122883D01*
X207680107Y-33140607D01*
X207662383Y-33156671D01*
X207643170Y-33170921D01*
X207622653Y-33183218D01*
X207601029Y-33193446D01*
X207578507Y-33201504D01*
X207555303Y-33207316D01*
X207531642Y-33210826D01*
X207507750Y-33212000D01*
X207020250Y-33212000D01*
X206996358Y-33210826D01*
X206972697Y-33207316D01*
X206949493Y-33201504D01*
X206926971Y-33193446D01*
X206905347Y-33183218D01*
X206884830Y-33170921D01*
X206865617Y-33156671D01*
X206847893Y-33140607D01*
X206831829Y-33122883D01*
X206817579Y-33103670D01*
X206805282Y-33083153D01*
X206795054Y-33061529D01*
X206786996Y-33039007D01*
X206781184Y-33015803D01*
X206777674Y-32992142D01*
X206776500Y-32968250D01*
X206776500Y-32055750D01*
X206777674Y-32031858D01*
X206781184Y-32008197D01*
X206786996Y-31984993D01*
X206795054Y-31962471D01*
X206805282Y-31940847D01*
X206817579Y-31920330D01*
X206831829Y-31901117D01*
X206847893Y-31883393D01*
X206865617Y-31867329D01*
X206884830Y-31853079D01*
X206905347Y-31840782D01*
X206926971Y-31830554D01*
X206949493Y-31822496D01*
X206972697Y-31816684D01*
X206996358Y-31813174D01*
X207020250Y-31812000D01*
X207507750Y-31812000D01*
X207531642Y-31813174D01*
X207531642Y-31813174D01*
G37*
D11*
X207264000Y-32512000D03*
D10*
G36*
X205656642Y-31813174D02*
X205680303Y-31816684D01*
X205703507Y-31822496D01*
X205726029Y-31830554D01*
X205747653Y-31840782D01*
X205768170Y-31853079D01*
X205787383Y-31867329D01*
X205805107Y-31883393D01*
X205821171Y-31901117D01*
X205835421Y-31920330D01*
X205847718Y-31940847D01*
X205857946Y-31962471D01*
X205866004Y-31984993D01*
X205871816Y-32008197D01*
X205875326Y-32031858D01*
X205876500Y-32055750D01*
X205876500Y-32968250D01*
X205875326Y-32992142D01*
X205871816Y-33015803D01*
X205866004Y-33039007D01*
X205857946Y-33061529D01*
X205847718Y-33083153D01*
X205835421Y-33103670D01*
X205821171Y-33122883D01*
X205805107Y-33140607D01*
X205787383Y-33156671D01*
X205768170Y-33170921D01*
X205747653Y-33183218D01*
X205726029Y-33193446D01*
X205703507Y-33201504D01*
X205680303Y-33207316D01*
X205656642Y-33210826D01*
X205632750Y-33212000D01*
X205145250Y-33212000D01*
X205121358Y-33210826D01*
X205097697Y-33207316D01*
X205074493Y-33201504D01*
X205051971Y-33193446D01*
X205030347Y-33183218D01*
X205009830Y-33170921D01*
X204990617Y-33156671D01*
X204972893Y-33140607D01*
X204956829Y-33122883D01*
X204942579Y-33103670D01*
X204930282Y-33083153D01*
X204920054Y-33061529D01*
X204911996Y-33039007D01*
X204906184Y-33015803D01*
X204902674Y-32992142D01*
X204901500Y-32968250D01*
X204901500Y-32055750D01*
X204902674Y-32031858D01*
X204906184Y-32008197D01*
X204911996Y-31984993D01*
X204920054Y-31962471D01*
X204930282Y-31940847D01*
X204942579Y-31920330D01*
X204956829Y-31901117D01*
X204972893Y-31883393D01*
X204990617Y-31867329D01*
X205009830Y-31853079D01*
X205030347Y-31840782D01*
X205051971Y-31830554D01*
X205074493Y-31822496D01*
X205097697Y-31816684D01*
X205121358Y-31813174D01*
X205145250Y-31812000D01*
X205632750Y-31812000D01*
X205656642Y-31813174D01*
X205656642Y-31813174D01*
G37*
D11*
X205389000Y-32512000D03*
G04 #@! TD*
D10*
G04 #@! TO.C,C3*
G36*
X225016142Y-41012674D02*
X225039803Y-41016184D01*
X225063007Y-41021996D01*
X225085529Y-41030054D01*
X225107153Y-41040282D01*
X225127670Y-41052579D01*
X225146883Y-41066829D01*
X225164607Y-41082893D01*
X225180671Y-41100617D01*
X225194921Y-41119830D01*
X225207218Y-41140347D01*
X225217446Y-41161971D01*
X225225504Y-41184493D01*
X225231316Y-41207697D01*
X225234826Y-41231358D01*
X225236000Y-41255250D01*
X225236000Y-41742750D01*
X225234826Y-41766642D01*
X225231316Y-41790303D01*
X225225504Y-41813507D01*
X225217446Y-41836029D01*
X225207218Y-41857653D01*
X225194921Y-41878170D01*
X225180671Y-41897383D01*
X225164607Y-41915107D01*
X225146883Y-41931171D01*
X225127670Y-41945421D01*
X225107153Y-41957718D01*
X225085529Y-41967946D01*
X225063007Y-41976004D01*
X225039803Y-41981816D01*
X225016142Y-41985326D01*
X224992250Y-41986500D01*
X224079750Y-41986500D01*
X224055858Y-41985326D01*
X224032197Y-41981816D01*
X224008993Y-41976004D01*
X223986471Y-41967946D01*
X223964847Y-41957718D01*
X223944330Y-41945421D01*
X223925117Y-41931171D01*
X223907393Y-41915107D01*
X223891329Y-41897383D01*
X223877079Y-41878170D01*
X223864782Y-41857653D01*
X223854554Y-41836029D01*
X223846496Y-41813507D01*
X223840684Y-41790303D01*
X223837174Y-41766642D01*
X223836000Y-41742750D01*
X223836000Y-41255250D01*
X223837174Y-41231358D01*
X223840684Y-41207697D01*
X223846496Y-41184493D01*
X223854554Y-41161971D01*
X223864782Y-41140347D01*
X223877079Y-41119830D01*
X223891329Y-41100617D01*
X223907393Y-41082893D01*
X223925117Y-41066829D01*
X223944330Y-41052579D01*
X223964847Y-41040282D01*
X223986471Y-41030054D01*
X224008993Y-41021996D01*
X224032197Y-41016184D01*
X224055858Y-41012674D01*
X224079750Y-41011500D01*
X224992250Y-41011500D01*
X225016142Y-41012674D01*
X225016142Y-41012674D01*
G37*
D11*
X224536000Y-41499000D03*
D10*
G36*
X225016142Y-39137674D02*
X225039803Y-39141184D01*
X225063007Y-39146996D01*
X225085529Y-39155054D01*
X225107153Y-39165282D01*
X225127670Y-39177579D01*
X225146883Y-39191829D01*
X225164607Y-39207893D01*
X225180671Y-39225617D01*
X225194921Y-39244830D01*
X225207218Y-39265347D01*
X225217446Y-39286971D01*
X225225504Y-39309493D01*
X225231316Y-39332697D01*
X225234826Y-39356358D01*
X225236000Y-39380250D01*
X225236000Y-39867750D01*
X225234826Y-39891642D01*
X225231316Y-39915303D01*
X225225504Y-39938507D01*
X225217446Y-39961029D01*
X225207218Y-39982653D01*
X225194921Y-40003170D01*
X225180671Y-40022383D01*
X225164607Y-40040107D01*
X225146883Y-40056171D01*
X225127670Y-40070421D01*
X225107153Y-40082718D01*
X225085529Y-40092946D01*
X225063007Y-40101004D01*
X225039803Y-40106816D01*
X225016142Y-40110326D01*
X224992250Y-40111500D01*
X224079750Y-40111500D01*
X224055858Y-40110326D01*
X224032197Y-40106816D01*
X224008993Y-40101004D01*
X223986471Y-40092946D01*
X223964847Y-40082718D01*
X223944330Y-40070421D01*
X223925117Y-40056171D01*
X223907393Y-40040107D01*
X223891329Y-40022383D01*
X223877079Y-40003170D01*
X223864782Y-39982653D01*
X223854554Y-39961029D01*
X223846496Y-39938507D01*
X223840684Y-39915303D01*
X223837174Y-39891642D01*
X223836000Y-39867750D01*
X223836000Y-39380250D01*
X223837174Y-39356358D01*
X223840684Y-39332697D01*
X223846496Y-39309493D01*
X223854554Y-39286971D01*
X223864782Y-39265347D01*
X223877079Y-39244830D01*
X223891329Y-39225617D01*
X223907393Y-39207893D01*
X223925117Y-39191829D01*
X223944330Y-39177579D01*
X223964847Y-39165282D01*
X223986471Y-39155054D01*
X224008993Y-39146996D01*
X224032197Y-39141184D01*
X224055858Y-39137674D01*
X224079750Y-39136500D01*
X224992250Y-39136500D01*
X225016142Y-39137674D01*
X225016142Y-39137674D01*
G37*
D11*
X224536000Y-39624000D03*
G04 #@! TD*
D10*
G04 #@! TO.C,C5*
G36*
X217437642Y-39179174D02*
X217461303Y-39182684D01*
X217484507Y-39188496D01*
X217507029Y-39196554D01*
X217528653Y-39206782D01*
X217549170Y-39219079D01*
X217568383Y-39233329D01*
X217586107Y-39249393D01*
X217602171Y-39267117D01*
X217616421Y-39286330D01*
X217628718Y-39306847D01*
X217638946Y-39328471D01*
X217647004Y-39350993D01*
X217652816Y-39374197D01*
X217656326Y-39397858D01*
X217657500Y-39421750D01*
X217657500Y-40334250D01*
X217656326Y-40358142D01*
X217652816Y-40381803D01*
X217647004Y-40405007D01*
X217638946Y-40427529D01*
X217628718Y-40449153D01*
X217616421Y-40469670D01*
X217602171Y-40488883D01*
X217586107Y-40506607D01*
X217568383Y-40522671D01*
X217549170Y-40536921D01*
X217528653Y-40549218D01*
X217507029Y-40559446D01*
X217484507Y-40567504D01*
X217461303Y-40573316D01*
X217437642Y-40576826D01*
X217413750Y-40578000D01*
X216926250Y-40578000D01*
X216902358Y-40576826D01*
X216878697Y-40573316D01*
X216855493Y-40567504D01*
X216832971Y-40559446D01*
X216811347Y-40549218D01*
X216790830Y-40536921D01*
X216771617Y-40522671D01*
X216753893Y-40506607D01*
X216737829Y-40488883D01*
X216723579Y-40469670D01*
X216711282Y-40449153D01*
X216701054Y-40427529D01*
X216692996Y-40405007D01*
X216687184Y-40381803D01*
X216683674Y-40358142D01*
X216682500Y-40334250D01*
X216682500Y-39421750D01*
X216683674Y-39397858D01*
X216687184Y-39374197D01*
X216692996Y-39350993D01*
X216701054Y-39328471D01*
X216711282Y-39306847D01*
X216723579Y-39286330D01*
X216737829Y-39267117D01*
X216753893Y-39249393D01*
X216771617Y-39233329D01*
X216790830Y-39219079D01*
X216811347Y-39206782D01*
X216832971Y-39196554D01*
X216855493Y-39188496D01*
X216878697Y-39182684D01*
X216902358Y-39179174D01*
X216926250Y-39178000D01*
X217413750Y-39178000D01*
X217437642Y-39179174D01*
X217437642Y-39179174D01*
G37*
D11*
X217170000Y-39878000D03*
D10*
G36*
X219312642Y-39179174D02*
X219336303Y-39182684D01*
X219359507Y-39188496D01*
X219382029Y-39196554D01*
X219403653Y-39206782D01*
X219424170Y-39219079D01*
X219443383Y-39233329D01*
X219461107Y-39249393D01*
X219477171Y-39267117D01*
X219491421Y-39286330D01*
X219503718Y-39306847D01*
X219513946Y-39328471D01*
X219522004Y-39350993D01*
X219527816Y-39374197D01*
X219531326Y-39397858D01*
X219532500Y-39421750D01*
X219532500Y-40334250D01*
X219531326Y-40358142D01*
X219527816Y-40381803D01*
X219522004Y-40405007D01*
X219513946Y-40427529D01*
X219503718Y-40449153D01*
X219491421Y-40469670D01*
X219477171Y-40488883D01*
X219461107Y-40506607D01*
X219443383Y-40522671D01*
X219424170Y-40536921D01*
X219403653Y-40549218D01*
X219382029Y-40559446D01*
X219359507Y-40567504D01*
X219336303Y-40573316D01*
X219312642Y-40576826D01*
X219288750Y-40578000D01*
X218801250Y-40578000D01*
X218777358Y-40576826D01*
X218753697Y-40573316D01*
X218730493Y-40567504D01*
X218707971Y-40559446D01*
X218686347Y-40549218D01*
X218665830Y-40536921D01*
X218646617Y-40522671D01*
X218628893Y-40506607D01*
X218612829Y-40488883D01*
X218598579Y-40469670D01*
X218586282Y-40449153D01*
X218576054Y-40427529D01*
X218567996Y-40405007D01*
X218562184Y-40381803D01*
X218558674Y-40358142D01*
X218557500Y-40334250D01*
X218557500Y-39421750D01*
X218558674Y-39397858D01*
X218562184Y-39374197D01*
X218567996Y-39350993D01*
X218576054Y-39328471D01*
X218586282Y-39306847D01*
X218598579Y-39286330D01*
X218612829Y-39267117D01*
X218628893Y-39249393D01*
X218646617Y-39233329D01*
X218665830Y-39219079D01*
X218686347Y-39206782D01*
X218707971Y-39196554D01*
X218730493Y-39188496D01*
X218753697Y-39182684D01*
X218777358Y-39179174D01*
X218801250Y-39178000D01*
X219288750Y-39178000D01*
X219312642Y-39179174D01*
X219312642Y-39179174D01*
G37*
D11*
X219045000Y-39878000D03*
G04 #@! TD*
D21*
G04 #@! TO.C,ANT1*
X224370900Y-57937380D03*
X224370900Y-55237380D03*
G04 #@! TD*
D10*
G04 #@! TO.C,C24*
G36*
X216427318Y-46152290D02*
X216441636Y-46154414D01*
X216455677Y-46157931D01*
X216469306Y-46162808D01*
X216482391Y-46168997D01*
X216494807Y-46176438D01*
X216506433Y-46185061D01*
X216517158Y-46194782D01*
X216526879Y-46205507D01*
X216535502Y-46217133D01*
X216542943Y-46229549D01*
X216549132Y-46242634D01*
X216554009Y-46256263D01*
X216557526Y-46270304D01*
X216559650Y-46284622D01*
X216560360Y-46299080D01*
X216560360Y-46594080D01*
X216559650Y-46608538D01*
X216557526Y-46622856D01*
X216554009Y-46636897D01*
X216549132Y-46650526D01*
X216542943Y-46663611D01*
X216535502Y-46676027D01*
X216526879Y-46687653D01*
X216517158Y-46698378D01*
X216506433Y-46708099D01*
X216494807Y-46716722D01*
X216482391Y-46724163D01*
X216469306Y-46730352D01*
X216455677Y-46735229D01*
X216441636Y-46738746D01*
X216427318Y-46740870D01*
X216412860Y-46741580D01*
X216067860Y-46741580D01*
X216053402Y-46740870D01*
X216039084Y-46738746D01*
X216025043Y-46735229D01*
X216011414Y-46730352D01*
X215998329Y-46724163D01*
X215985913Y-46716722D01*
X215974287Y-46708099D01*
X215963562Y-46698378D01*
X215953841Y-46687653D01*
X215945218Y-46676027D01*
X215937777Y-46663611D01*
X215931588Y-46650526D01*
X215926711Y-46636897D01*
X215923194Y-46622856D01*
X215921070Y-46608538D01*
X215920360Y-46594080D01*
X215920360Y-46299080D01*
X215921070Y-46284622D01*
X215923194Y-46270304D01*
X215926711Y-46256263D01*
X215931588Y-46242634D01*
X215937777Y-46229549D01*
X215945218Y-46217133D01*
X215953841Y-46205507D01*
X215963562Y-46194782D01*
X215974287Y-46185061D01*
X215985913Y-46176438D01*
X215998329Y-46168997D01*
X216011414Y-46162808D01*
X216025043Y-46157931D01*
X216039084Y-46154414D01*
X216053402Y-46152290D01*
X216067860Y-46151580D01*
X216412860Y-46151580D01*
X216427318Y-46152290D01*
X216427318Y-46152290D01*
G37*
D22*
X216240360Y-46446580D03*
D10*
G36*
X216427318Y-47122290D02*
X216441636Y-47124414D01*
X216455677Y-47127931D01*
X216469306Y-47132808D01*
X216482391Y-47138997D01*
X216494807Y-47146438D01*
X216506433Y-47155061D01*
X216517158Y-47164782D01*
X216526879Y-47175507D01*
X216535502Y-47187133D01*
X216542943Y-47199549D01*
X216549132Y-47212634D01*
X216554009Y-47226263D01*
X216557526Y-47240304D01*
X216559650Y-47254622D01*
X216560360Y-47269080D01*
X216560360Y-47564080D01*
X216559650Y-47578538D01*
X216557526Y-47592856D01*
X216554009Y-47606897D01*
X216549132Y-47620526D01*
X216542943Y-47633611D01*
X216535502Y-47646027D01*
X216526879Y-47657653D01*
X216517158Y-47668378D01*
X216506433Y-47678099D01*
X216494807Y-47686722D01*
X216482391Y-47694163D01*
X216469306Y-47700352D01*
X216455677Y-47705229D01*
X216441636Y-47708746D01*
X216427318Y-47710870D01*
X216412860Y-47711580D01*
X216067860Y-47711580D01*
X216053402Y-47710870D01*
X216039084Y-47708746D01*
X216025043Y-47705229D01*
X216011414Y-47700352D01*
X215998329Y-47694163D01*
X215985913Y-47686722D01*
X215974287Y-47678099D01*
X215963562Y-47668378D01*
X215953841Y-47657653D01*
X215945218Y-47646027D01*
X215937777Y-47633611D01*
X215931588Y-47620526D01*
X215926711Y-47606897D01*
X215923194Y-47592856D01*
X215921070Y-47578538D01*
X215920360Y-47564080D01*
X215920360Y-47269080D01*
X215921070Y-47254622D01*
X215923194Y-47240304D01*
X215926711Y-47226263D01*
X215931588Y-47212634D01*
X215937777Y-47199549D01*
X215945218Y-47187133D01*
X215953841Y-47175507D01*
X215963562Y-47164782D01*
X215974287Y-47155061D01*
X215985913Y-47146438D01*
X215998329Y-47138997D01*
X216011414Y-47132808D01*
X216025043Y-47127931D01*
X216039084Y-47124414D01*
X216053402Y-47122290D01*
X216067860Y-47121580D01*
X216412860Y-47121580D01*
X216427318Y-47122290D01*
X216427318Y-47122290D01*
G37*
D22*
X216240360Y-47416580D03*
G04 #@! TD*
D10*
G04 #@! TO.C,C27*
G36*
X224441018Y-49735950D02*
X224455336Y-49738074D01*
X224469377Y-49741591D01*
X224483006Y-49746468D01*
X224496091Y-49752657D01*
X224508507Y-49760098D01*
X224520133Y-49768721D01*
X224530858Y-49778442D01*
X224540579Y-49789167D01*
X224549202Y-49800793D01*
X224556643Y-49813209D01*
X224562832Y-49826294D01*
X224567709Y-49839923D01*
X224571226Y-49853964D01*
X224573350Y-49868282D01*
X224574060Y-49882740D01*
X224574060Y-50177740D01*
X224573350Y-50192198D01*
X224571226Y-50206516D01*
X224567709Y-50220557D01*
X224562832Y-50234186D01*
X224556643Y-50247271D01*
X224549202Y-50259687D01*
X224540579Y-50271313D01*
X224530858Y-50282038D01*
X224520133Y-50291759D01*
X224508507Y-50300382D01*
X224496091Y-50307823D01*
X224483006Y-50314012D01*
X224469377Y-50318889D01*
X224455336Y-50322406D01*
X224441018Y-50324530D01*
X224426560Y-50325240D01*
X224081560Y-50325240D01*
X224067102Y-50324530D01*
X224052784Y-50322406D01*
X224038743Y-50318889D01*
X224025114Y-50314012D01*
X224012029Y-50307823D01*
X223999613Y-50300382D01*
X223987987Y-50291759D01*
X223977262Y-50282038D01*
X223967541Y-50271313D01*
X223958918Y-50259687D01*
X223951477Y-50247271D01*
X223945288Y-50234186D01*
X223940411Y-50220557D01*
X223936894Y-50206516D01*
X223934770Y-50192198D01*
X223934060Y-50177740D01*
X223934060Y-49882740D01*
X223934770Y-49868282D01*
X223936894Y-49853964D01*
X223940411Y-49839923D01*
X223945288Y-49826294D01*
X223951477Y-49813209D01*
X223958918Y-49800793D01*
X223967541Y-49789167D01*
X223977262Y-49778442D01*
X223987987Y-49768721D01*
X223999613Y-49760098D01*
X224012029Y-49752657D01*
X224025114Y-49746468D01*
X224038743Y-49741591D01*
X224052784Y-49738074D01*
X224067102Y-49735950D01*
X224081560Y-49735240D01*
X224426560Y-49735240D01*
X224441018Y-49735950D01*
X224441018Y-49735950D01*
G37*
D22*
X224254060Y-50030240D03*
D10*
G36*
X224441018Y-48765950D02*
X224455336Y-48768074D01*
X224469377Y-48771591D01*
X224483006Y-48776468D01*
X224496091Y-48782657D01*
X224508507Y-48790098D01*
X224520133Y-48798721D01*
X224530858Y-48808442D01*
X224540579Y-48819167D01*
X224549202Y-48830793D01*
X224556643Y-48843209D01*
X224562832Y-48856294D01*
X224567709Y-48869923D01*
X224571226Y-48883964D01*
X224573350Y-48898282D01*
X224574060Y-48912740D01*
X224574060Y-49207740D01*
X224573350Y-49222198D01*
X224571226Y-49236516D01*
X224567709Y-49250557D01*
X224562832Y-49264186D01*
X224556643Y-49277271D01*
X224549202Y-49289687D01*
X224540579Y-49301313D01*
X224530858Y-49312038D01*
X224520133Y-49321759D01*
X224508507Y-49330382D01*
X224496091Y-49337823D01*
X224483006Y-49344012D01*
X224469377Y-49348889D01*
X224455336Y-49352406D01*
X224441018Y-49354530D01*
X224426560Y-49355240D01*
X224081560Y-49355240D01*
X224067102Y-49354530D01*
X224052784Y-49352406D01*
X224038743Y-49348889D01*
X224025114Y-49344012D01*
X224012029Y-49337823D01*
X223999613Y-49330382D01*
X223987987Y-49321759D01*
X223977262Y-49312038D01*
X223967541Y-49301313D01*
X223958918Y-49289687D01*
X223951477Y-49277271D01*
X223945288Y-49264186D01*
X223940411Y-49250557D01*
X223936894Y-49236516D01*
X223934770Y-49222198D01*
X223934060Y-49207740D01*
X223934060Y-48912740D01*
X223934770Y-48898282D01*
X223936894Y-48883964D01*
X223940411Y-48869923D01*
X223945288Y-48856294D01*
X223951477Y-48843209D01*
X223958918Y-48830793D01*
X223967541Y-48819167D01*
X223977262Y-48808442D01*
X223987987Y-48798721D01*
X223999613Y-48790098D01*
X224012029Y-48782657D01*
X224025114Y-48776468D01*
X224038743Y-48771591D01*
X224052784Y-48768074D01*
X224067102Y-48765950D01*
X224081560Y-48765240D01*
X224426560Y-48765240D01*
X224441018Y-48765950D01*
X224441018Y-48765950D01*
G37*
D22*
X224254060Y-49060240D03*
G04 #@! TD*
D10*
G04 #@! TO.C,L3*
G36*
X217502138Y-47110130D02*
X217516456Y-47112254D01*
X217530497Y-47115771D01*
X217544126Y-47120648D01*
X217557211Y-47126837D01*
X217569627Y-47134278D01*
X217581253Y-47142901D01*
X217591978Y-47152622D01*
X217601699Y-47163347D01*
X217610322Y-47174973D01*
X217617763Y-47187389D01*
X217623952Y-47200474D01*
X217628829Y-47214103D01*
X217632346Y-47228144D01*
X217634470Y-47242462D01*
X217635180Y-47256920D01*
X217635180Y-47601920D01*
X217634470Y-47616378D01*
X217632346Y-47630696D01*
X217628829Y-47644737D01*
X217623952Y-47658366D01*
X217617763Y-47671451D01*
X217610322Y-47683867D01*
X217601699Y-47695493D01*
X217591978Y-47706218D01*
X217581253Y-47715939D01*
X217569627Y-47724562D01*
X217557211Y-47732003D01*
X217544126Y-47738192D01*
X217530497Y-47743069D01*
X217516456Y-47746586D01*
X217502138Y-47748710D01*
X217487680Y-47749420D01*
X217192680Y-47749420D01*
X217178222Y-47748710D01*
X217163904Y-47746586D01*
X217149863Y-47743069D01*
X217136234Y-47738192D01*
X217123149Y-47732003D01*
X217110733Y-47724562D01*
X217099107Y-47715939D01*
X217088382Y-47706218D01*
X217078661Y-47695493D01*
X217070038Y-47683867D01*
X217062597Y-47671451D01*
X217056408Y-47658366D01*
X217051531Y-47644737D01*
X217048014Y-47630696D01*
X217045890Y-47616378D01*
X217045180Y-47601920D01*
X217045180Y-47256920D01*
X217045890Y-47242462D01*
X217048014Y-47228144D01*
X217051531Y-47214103D01*
X217056408Y-47200474D01*
X217062597Y-47187389D01*
X217070038Y-47174973D01*
X217078661Y-47163347D01*
X217088382Y-47152622D01*
X217099107Y-47142901D01*
X217110733Y-47134278D01*
X217123149Y-47126837D01*
X217136234Y-47120648D01*
X217149863Y-47115771D01*
X217163904Y-47112254D01*
X217178222Y-47110130D01*
X217192680Y-47109420D01*
X217487680Y-47109420D01*
X217502138Y-47110130D01*
X217502138Y-47110130D01*
G37*
D22*
X217340180Y-47429420D03*
D10*
G36*
X218472138Y-47110130D02*
X218486456Y-47112254D01*
X218500497Y-47115771D01*
X218514126Y-47120648D01*
X218527211Y-47126837D01*
X218539627Y-47134278D01*
X218551253Y-47142901D01*
X218561978Y-47152622D01*
X218571699Y-47163347D01*
X218580322Y-47174973D01*
X218587763Y-47187389D01*
X218593952Y-47200474D01*
X218598829Y-47214103D01*
X218602346Y-47228144D01*
X218604470Y-47242462D01*
X218605180Y-47256920D01*
X218605180Y-47601920D01*
X218604470Y-47616378D01*
X218602346Y-47630696D01*
X218598829Y-47644737D01*
X218593952Y-47658366D01*
X218587763Y-47671451D01*
X218580322Y-47683867D01*
X218571699Y-47695493D01*
X218561978Y-47706218D01*
X218551253Y-47715939D01*
X218539627Y-47724562D01*
X218527211Y-47732003D01*
X218514126Y-47738192D01*
X218500497Y-47743069D01*
X218486456Y-47746586D01*
X218472138Y-47748710D01*
X218457680Y-47749420D01*
X218162680Y-47749420D01*
X218148222Y-47748710D01*
X218133904Y-47746586D01*
X218119863Y-47743069D01*
X218106234Y-47738192D01*
X218093149Y-47732003D01*
X218080733Y-47724562D01*
X218069107Y-47715939D01*
X218058382Y-47706218D01*
X218048661Y-47695493D01*
X218040038Y-47683867D01*
X218032597Y-47671451D01*
X218026408Y-47658366D01*
X218021531Y-47644737D01*
X218018014Y-47630696D01*
X218015890Y-47616378D01*
X218015180Y-47601920D01*
X218015180Y-47256920D01*
X218015890Y-47242462D01*
X218018014Y-47228144D01*
X218021531Y-47214103D01*
X218026408Y-47200474D01*
X218032597Y-47187389D01*
X218040038Y-47174973D01*
X218048661Y-47163347D01*
X218058382Y-47152622D01*
X218069107Y-47142901D01*
X218080733Y-47134278D01*
X218093149Y-47126837D01*
X218106234Y-47120648D01*
X218119863Y-47115771D01*
X218133904Y-47112254D01*
X218148222Y-47110130D01*
X218162680Y-47109420D01*
X218457680Y-47109420D01*
X218472138Y-47110130D01*
X218472138Y-47110130D01*
G37*
D22*
X218310180Y-47429420D03*
G04 #@! TD*
D10*
G04 #@! TO.C,L4*
G36*
X224468958Y-52192270D02*
X224483276Y-52194394D01*
X224497317Y-52197911D01*
X224510946Y-52202788D01*
X224524031Y-52208977D01*
X224536447Y-52216418D01*
X224548073Y-52225041D01*
X224558798Y-52234762D01*
X224568519Y-52245487D01*
X224577142Y-52257113D01*
X224584583Y-52269529D01*
X224590772Y-52282614D01*
X224595649Y-52296243D01*
X224599166Y-52310284D01*
X224601290Y-52324602D01*
X224602000Y-52339060D01*
X224602000Y-52634060D01*
X224601290Y-52648518D01*
X224599166Y-52662836D01*
X224595649Y-52676877D01*
X224590772Y-52690506D01*
X224584583Y-52703591D01*
X224577142Y-52716007D01*
X224568519Y-52727633D01*
X224558798Y-52738358D01*
X224548073Y-52748079D01*
X224536447Y-52756702D01*
X224524031Y-52764143D01*
X224510946Y-52770332D01*
X224497317Y-52775209D01*
X224483276Y-52778726D01*
X224468958Y-52780850D01*
X224454500Y-52781560D01*
X224109500Y-52781560D01*
X224095042Y-52780850D01*
X224080724Y-52778726D01*
X224066683Y-52775209D01*
X224053054Y-52770332D01*
X224039969Y-52764143D01*
X224027553Y-52756702D01*
X224015927Y-52748079D01*
X224005202Y-52738358D01*
X223995481Y-52727633D01*
X223986858Y-52716007D01*
X223979417Y-52703591D01*
X223973228Y-52690506D01*
X223968351Y-52676877D01*
X223964834Y-52662836D01*
X223962710Y-52648518D01*
X223962000Y-52634060D01*
X223962000Y-52339060D01*
X223962710Y-52324602D01*
X223964834Y-52310284D01*
X223968351Y-52296243D01*
X223973228Y-52282614D01*
X223979417Y-52269529D01*
X223986858Y-52257113D01*
X223995481Y-52245487D01*
X224005202Y-52234762D01*
X224015927Y-52225041D01*
X224027553Y-52216418D01*
X224039969Y-52208977D01*
X224053054Y-52202788D01*
X224066683Y-52197911D01*
X224080724Y-52194394D01*
X224095042Y-52192270D01*
X224109500Y-52191560D01*
X224454500Y-52191560D01*
X224468958Y-52192270D01*
X224468958Y-52192270D01*
G37*
D22*
X224282000Y-52486560D03*
D10*
G36*
X224468958Y-53162270D02*
X224483276Y-53164394D01*
X224497317Y-53167911D01*
X224510946Y-53172788D01*
X224524031Y-53178977D01*
X224536447Y-53186418D01*
X224548073Y-53195041D01*
X224558798Y-53204762D01*
X224568519Y-53215487D01*
X224577142Y-53227113D01*
X224584583Y-53239529D01*
X224590772Y-53252614D01*
X224595649Y-53266243D01*
X224599166Y-53280284D01*
X224601290Y-53294602D01*
X224602000Y-53309060D01*
X224602000Y-53604060D01*
X224601290Y-53618518D01*
X224599166Y-53632836D01*
X224595649Y-53646877D01*
X224590772Y-53660506D01*
X224584583Y-53673591D01*
X224577142Y-53686007D01*
X224568519Y-53697633D01*
X224558798Y-53708358D01*
X224548073Y-53718079D01*
X224536447Y-53726702D01*
X224524031Y-53734143D01*
X224510946Y-53740332D01*
X224497317Y-53745209D01*
X224483276Y-53748726D01*
X224468958Y-53750850D01*
X224454500Y-53751560D01*
X224109500Y-53751560D01*
X224095042Y-53750850D01*
X224080724Y-53748726D01*
X224066683Y-53745209D01*
X224053054Y-53740332D01*
X224039969Y-53734143D01*
X224027553Y-53726702D01*
X224015927Y-53718079D01*
X224005202Y-53708358D01*
X223995481Y-53697633D01*
X223986858Y-53686007D01*
X223979417Y-53673591D01*
X223973228Y-53660506D01*
X223968351Y-53646877D01*
X223964834Y-53632836D01*
X223962710Y-53618518D01*
X223962000Y-53604060D01*
X223962000Y-53309060D01*
X223962710Y-53294602D01*
X223964834Y-53280284D01*
X223968351Y-53266243D01*
X223973228Y-53252614D01*
X223979417Y-53239529D01*
X223986858Y-53227113D01*
X223995481Y-53215487D01*
X224005202Y-53204762D01*
X224015927Y-53195041D01*
X224027553Y-53186418D01*
X224039969Y-53178977D01*
X224053054Y-53172788D01*
X224066683Y-53167911D01*
X224080724Y-53164394D01*
X224095042Y-53162270D01*
X224109500Y-53161560D01*
X224454500Y-53161560D01*
X224468958Y-53162270D01*
X224468958Y-53162270D01*
G37*
D22*
X224282000Y-53456560D03*
G04 #@! TD*
D10*
G04 #@! TO.C,L5*
G36*
X224434078Y-50907430D02*
X224448396Y-50909554D01*
X224462437Y-50913071D01*
X224476066Y-50917948D01*
X224489151Y-50924137D01*
X224501567Y-50931578D01*
X224513193Y-50940201D01*
X224523918Y-50949922D01*
X224533639Y-50960647D01*
X224542262Y-50972273D01*
X224549703Y-50984689D01*
X224555892Y-50997774D01*
X224560769Y-51011403D01*
X224564286Y-51025444D01*
X224566410Y-51039762D01*
X224567120Y-51054220D01*
X224567120Y-51399220D01*
X224566410Y-51413678D01*
X224564286Y-51427996D01*
X224560769Y-51442037D01*
X224555892Y-51455666D01*
X224549703Y-51468751D01*
X224542262Y-51481167D01*
X224533639Y-51492793D01*
X224523918Y-51503518D01*
X224513193Y-51513239D01*
X224501567Y-51521862D01*
X224489151Y-51529303D01*
X224476066Y-51535492D01*
X224462437Y-51540369D01*
X224448396Y-51543886D01*
X224434078Y-51546010D01*
X224419620Y-51546720D01*
X224124620Y-51546720D01*
X224110162Y-51546010D01*
X224095844Y-51543886D01*
X224081803Y-51540369D01*
X224068174Y-51535492D01*
X224055089Y-51529303D01*
X224042673Y-51521862D01*
X224031047Y-51513239D01*
X224020322Y-51503518D01*
X224010601Y-51492793D01*
X224001978Y-51481167D01*
X223994537Y-51468751D01*
X223988348Y-51455666D01*
X223983471Y-51442037D01*
X223979954Y-51427996D01*
X223977830Y-51413678D01*
X223977120Y-51399220D01*
X223977120Y-51054220D01*
X223977830Y-51039762D01*
X223979954Y-51025444D01*
X223983471Y-51011403D01*
X223988348Y-50997774D01*
X223994537Y-50984689D01*
X224001978Y-50972273D01*
X224010601Y-50960647D01*
X224020322Y-50949922D01*
X224031047Y-50940201D01*
X224042673Y-50931578D01*
X224055089Y-50924137D01*
X224068174Y-50917948D01*
X224081803Y-50913071D01*
X224095844Y-50909554D01*
X224110162Y-50907430D01*
X224124620Y-50906720D01*
X224419620Y-50906720D01*
X224434078Y-50907430D01*
X224434078Y-50907430D01*
G37*
D22*
X224272120Y-51226720D03*
D10*
G36*
X225404078Y-50907430D02*
X225418396Y-50909554D01*
X225432437Y-50913071D01*
X225446066Y-50917948D01*
X225459151Y-50924137D01*
X225471567Y-50931578D01*
X225483193Y-50940201D01*
X225493918Y-50949922D01*
X225503639Y-50960647D01*
X225512262Y-50972273D01*
X225519703Y-50984689D01*
X225525892Y-50997774D01*
X225530769Y-51011403D01*
X225534286Y-51025444D01*
X225536410Y-51039762D01*
X225537120Y-51054220D01*
X225537120Y-51399220D01*
X225536410Y-51413678D01*
X225534286Y-51427996D01*
X225530769Y-51442037D01*
X225525892Y-51455666D01*
X225519703Y-51468751D01*
X225512262Y-51481167D01*
X225503639Y-51492793D01*
X225493918Y-51503518D01*
X225483193Y-51513239D01*
X225471567Y-51521862D01*
X225459151Y-51529303D01*
X225446066Y-51535492D01*
X225432437Y-51540369D01*
X225418396Y-51543886D01*
X225404078Y-51546010D01*
X225389620Y-51546720D01*
X225094620Y-51546720D01*
X225080162Y-51546010D01*
X225065844Y-51543886D01*
X225051803Y-51540369D01*
X225038174Y-51535492D01*
X225025089Y-51529303D01*
X225012673Y-51521862D01*
X225001047Y-51513239D01*
X224990322Y-51503518D01*
X224980601Y-51492793D01*
X224971978Y-51481167D01*
X224964537Y-51468751D01*
X224958348Y-51455666D01*
X224953471Y-51442037D01*
X224949954Y-51427996D01*
X224947830Y-51413678D01*
X224947120Y-51399220D01*
X224947120Y-51054220D01*
X224947830Y-51039762D01*
X224949954Y-51025444D01*
X224953471Y-51011403D01*
X224958348Y-50997774D01*
X224964537Y-50984689D01*
X224971978Y-50972273D01*
X224980601Y-50960647D01*
X224990322Y-50949922D01*
X225001047Y-50940201D01*
X225012673Y-50931578D01*
X225025089Y-50924137D01*
X225038174Y-50917948D01*
X225051803Y-50913071D01*
X225065844Y-50909554D01*
X225080162Y-50907430D01*
X225094620Y-50906720D01*
X225389620Y-50906720D01*
X225404078Y-50907430D01*
X225404078Y-50907430D01*
G37*
D22*
X225242120Y-51226720D03*
G04 #@! TD*
D10*
G04 #@! TO.C,C28*
G36*
X202082642Y-55011174D02*
X202106303Y-55014684D01*
X202129507Y-55020496D01*
X202152029Y-55028554D01*
X202173653Y-55038782D01*
X202194170Y-55051079D01*
X202213383Y-55065329D01*
X202231107Y-55081393D01*
X202247171Y-55099117D01*
X202261421Y-55118330D01*
X202273718Y-55138847D01*
X202283946Y-55160471D01*
X202292004Y-55182993D01*
X202297816Y-55206197D01*
X202301326Y-55229858D01*
X202302500Y-55253750D01*
X202302500Y-56166250D01*
X202301326Y-56190142D01*
X202297816Y-56213803D01*
X202292004Y-56237007D01*
X202283946Y-56259529D01*
X202273718Y-56281153D01*
X202261421Y-56301670D01*
X202247171Y-56320883D01*
X202231107Y-56338607D01*
X202213383Y-56354671D01*
X202194170Y-56368921D01*
X202173653Y-56381218D01*
X202152029Y-56391446D01*
X202129507Y-56399504D01*
X202106303Y-56405316D01*
X202082642Y-56408826D01*
X202058750Y-56410000D01*
X201571250Y-56410000D01*
X201547358Y-56408826D01*
X201523697Y-56405316D01*
X201500493Y-56399504D01*
X201477971Y-56391446D01*
X201456347Y-56381218D01*
X201435830Y-56368921D01*
X201416617Y-56354671D01*
X201398893Y-56338607D01*
X201382829Y-56320883D01*
X201368579Y-56301670D01*
X201356282Y-56281153D01*
X201346054Y-56259529D01*
X201337996Y-56237007D01*
X201332184Y-56213803D01*
X201328674Y-56190142D01*
X201327500Y-56166250D01*
X201327500Y-55253750D01*
X201328674Y-55229858D01*
X201332184Y-55206197D01*
X201337996Y-55182993D01*
X201346054Y-55160471D01*
X201356282Y-55138847D01*
X201368579Y-55118330D01*
X201382829Y-55099117D01*
X201398893Y-55081393D01*
X201416617Y-55065329D01*
X201435830Y-55051079D01*
X201456347Y-55038782D01*
X201477971Y-55028554D01*
X201500493Y-55020496D01*
X201523697Y-55014684D01*
X201547358Y-55011174D01*
X201571250Y-55010000D01*
X202058750Y-55010000D01*
X202082642Y-55011174D01*
X202082642Y-55011174D01*
G37*
D11*
X201815000Y-55710000D03*
D10*
G36*
X203957642Y-55011174D02*
X203981303Y-55014684D01*
X204004507Y-55020496D01*
X204027029Y-55028554D01*
X204048653Y-55038782D01*
X204069170Y-55051079D01*
X204088383Y-55065329D01*
X204106107Y-55081393D01*
X204122171Y-55099117D01*
X204136421Y-55118330D01*
X204148718Y-55138847D01*
X204158946Y-55160471D01*
X204167004Y-55182993D01*
X204172816Y-55206197D01*
X204176326Y-55229858D01*
X204177500Y-55253750D01*
X204177500Y-56166250D01*
X204176326Y-56190142D01*
X204172816Y-56213803D01*
X204167004Y-56237007D01*
X204158946Y-56259529D01*
X204148718Y-56281153D01*
X204136421Y-56301670D01*
X204122171Y-56320883D01*
X204106107Y-56338607D01*
X204088383Y-56354671D01*
X204069170Y-56368921D01*
X204048653Y-56381218D01*
X204027029Y-56391446D01*
X204004507Y-56399504D01*
X203981303Y-56405316D01*
X203957642Y-56408826D01*
X203933750Y-56410000D01*
X203446250Y-56410000D01*
X203422358Y-56408826D01*
X203398697Y-56405316D01*
X203375493Y-56399504D01*
X203352971Y-56391446D01*
X203331347Y-56381218D01*
X203310830Y-56368921D01*
X203291617Y-56354671D01*
X203273893Y-56338607D01*
X203257829Y-56320883D01*
X203243579Y-56301670D01*
X203231282Y-56281153D01*
X203221054Y-56259529D01*
X203212996Y-56237007D01*
X203207184Y-56213803D01*
X203203674Y-56190142D01*
X203202500Y-56166250D01*
X203202500Y-55253750D01*
X203203674Y-55229858D01*
X203207184Y-55206197D01*
X203212996Y-55182993D01*
X203221054Y-55160471D01*
X203231282Y-55138847D01*
X203243579Y-55118330D01*
X203257829Y-55099117D01*
X203273893Y-55081393D01*
X203291617Y-55065329D01*
X203310830Y-55051079D01*
X203331347Y-55038782D01*
X203352971Y-55028554D01*
X203375493Y-55020496D01*
X203398697Y-55014684D01*
X203422358Y-55011174D01*
X203446250Y-55010000D01*
X203933750Y-55010000D01*
X203957642Y-55011174D01*
X203957642Y-55011174D01*
G37*
D11*
X203690000Y-55710000D03*
G04 #@! TD*
D10*
G04 #@! TO.C,C30*
G36*
X204483642Y-63309174D02*
X204507303Y-63312684D01*
X204530507Y-63318496D01*
X204553029Y-63326554D01*
X204574653Y-63336782D01*
X204595170Y-63349079D01*
X204614383Y-63363329D01*
X204632107Y-63379393D01*
X204648171Y-63397117D01*
X204662421Y-63416330D01*
X204674718Y-63436847D01*
X204684946Y-63458471D01*
X204693004Y-63480993D01*
X204698816Y-63504197D01*
X204702326Y-63527858D01*
X204703500Y-63551750D01*
X204703500Y-64464250D01*
X204702326Y-64488142D01*
X204698816Y-64511803D01*
X204693004Y-64535007D01*
X204684946Y-64557529D01*
X204674718Y-64579153D01*
X204662421Y-64599670D01*
X204648171Y-64618883D01*
X204632107Y-64636607D01*
X204614383Y-64652671D01*
X204595170Y-64666921D01*
X204574653Y-64679218D01*
X204553029Y-64689446D01*
X204530507Y-64697504D01*
X204507303Y-64703316D01*
X204483642Y-64706826D01*
X204459750Y-64708000D01*
X203972250Y-64708000D01*
X203948358Y-64706826D01*
X203924697Y-64703316D01*
X203901493Y-64697504D01*
X203878971Y-64689446D01*
X203857347Y-64679218D01*
X203836830Y-64666921D01*
X203817617Y-64652671D01*
X203799893Y-64636607D01*
X203783829Y-64618883D01*
X203769579Y-64599670D01*
X203757282Y-64579153D01*
X203747054Y-64557529D01*
X203738996Y-64535007D01*
X203733184Y-64511803D01*
X203729674Y-64488142D01*
X203728500Y-64464250D01*
X203728500Y-63551750D01*
X203729674Y-63527858D01*
X203733184Y-63504197D01*
X203738996Y-63480993D01*
X203747054Y-63458471D01*
X203757282Y-63436847D01*
X203769579Y-63416330D01*
X203783829Y-63397117D01*
X203799893Y-63379393D01*
X203817617Y-63363329D01*
X203836830Y-63349079D01*
X203857347Y-63336782D01*
X203878971Y-63326554D01*
X203901493Y-63318496D01*
X203924697Y-63312684D01*
X203948358Y-63309174D01*
X203972250Y-63308000D01*
X204459750Y-63308000D01*
X204483642Y-63309174D01*
X204483642Y-63309174D01*
G37*
D11*
X204216000Y-64008000D03*
D10*
G36*
X206358642Y-63309174D02*
X206382303Y-63312684D01*
X206405507Y-63318496D01*
X206428029Y-63326554D01*
X206449653Y-63336782D01*
X206470170Y-63349079D01*
X206489383Y-63363329D01*
X206507107Y-63379393D01*
X206523171Y-63397117D01*
X206537421Y-63416330D01*
X206549718Y-63436847D01*
X206559946Y-63458471D01*
X206568004Y-63480993D01*
X206573816Y-63504197D01*
X206577326Y-63527858D01*
X206578500Y-63551750D01*
X206578500Y-64464250D01*
X206577326Y-64488142D01*
X206573816Y-64511803D01*
X206568004Y-64535007D01*
X206559946Y-64557529D01*
X206549718Y-64579153D01*
X206537421Y-64599670D01*
X206523171Y-64618883D01*
X206507107Y-64636607D01*
X206489383Y-64652671D01*
X206470170Y-64666921D01*
X206449653Y-64679218D01*
X206428029Y-64689446D01*
X206405507Y-64697504D01*
X206382303Y-64703316D01*
X206358642Y-64706826D01*
X206334750Y-64708000D01*
X205847250Y-64708000D01*
X205823358Y-64706826D01*
X205799697Y-64703316D01*
X205776493Y-64697504D01*
X205753971Y-64689446D01*
X205732347Y-64679218D01*
X205711830Y-64666921D01*
X205692617Y-64652671D01*
X205674893Y-64636607D01*
X205658829Y-64618883D01*
X205644579Y-64599670D01*
X205632282Y-64579153D01*
X205622054Y-64557529D01*
X205613996Y-64535007D01*
X205608184Y-64511803D01*
X205604674Y-64488142D01*
X205603500Y-64464250D01*
X205603500Y-63551750D01*
X205604674Y-63527858D01*
X205608184Y-63504197D01*
X205613996Y-63480993D01*
X205622054Y-63458471D01*
X205632282Y-63436847D01*
X205644579Y-63416330D01*
X205658829Y-63397117D01*
X205674893Y-63379393D01*
X205692617Y-63363329D01*
X205711830Y-63349079D01*
X205732347Y-63336782D01*
X205753971Y-63326554D01*
X205776493Y-63318496D01*
X205799697Y-63312684D01*
X205823358Y-63309174D01*
X205847250Y-63308000D01*
X206334750Y-63308000D01*
X206358642Y-63309174D01*
X206358642Y-63309174D01*
G37*
D11*
X206091000Y-64008000D03*
G04 #@! TD*
D10*
G04 #@! TO.C,D3*
G36*
X218121142Y-62242374D02*
X218144803Y-62245884D01*
X218168007Y-62251696D01*
X218190529Y-62259754D01*
X218212153Y-62269982D01*
X218232670Y-62282279D01*
X218251883Y-62296529D01*
X218269607Y-62312593D01*
X218285671Y-62330317D01*
X218299921Y-62349530D01*
X218312218Y-62370047D01*
X218322446Y-62391671D01*
X218330504Y-62414193D01*
X218336316Y-62437397D01*
X218339826Y-62461058D01*
X218341000Y-62484950D01*
X218341000Y-63397450D01*
X218339826Y-63421342D01*
X218336316Y-63445003D01*
X218330504Y-63468207D01*
X218322446Y-63490729D01*
X218312218Y-63512353D01*
X218299921Y-63532870D01*
X218285671Y-63552083D01*
X218269607Y-63569807D01*
X218251883Y-63585871D01*
X218232670Y-63600121D01*
X218212153Y-63612418D01*
X218190529Y-63622646D01*
X218168007Y-63630704D01*
X218144803Y-63636516D01*
X218121142Y-63640026D01*
X218097250Y-63641200D01*
X217609750Y-63641200D01*
X217585858Y-63640026D01*
X217562197Y-63636516D01*
X217538993Y-63630704D01*
X217516471Y-63622646D01*
X217494847Y-63612418D01*
X217474330Y-63600121D01*
X217455117Y-63585871D01*
X217437393Y-63569807D01*
X217421329Y-63552083D01*
X217407079Y-63532870D01*
X217394782Y-63512353D01*
X217384554Y-63490729D01*
X217376496Y-63468207D01*
X217370684Y-63445003D01*
X217367174Y-63421342D01*
X217366000Y-63397450D01*
X217366000Y-62484950D01*
X217367174Y-62461058D01*
X217370684Y-62437397D01*
X217376496Y-62414193D01*
X217384554Y-62391671D01*
X217394782Y-62370047D01*
X217407079Y-62349530D01*
X217421329Y-62330317D01*
X217437393Y-62312593D01*
X217455117Y-62296529D01*
X217474330Y-62282279D01*
X217494847Y-62269982D01*
X217516471Y-62259754D01*
X217538993Y-62251696D01*
X217562197Y-62245884D01*
X217585858Y-62242374D01*
X217609750Y-62241200D01*
X218097250Y-62241200D01*
X218121142Y-62242374D01*
X218121142Y-62242374D01*
G37*
D11*
X217853500Y-62941200D03*
D10*
G36*
X216246142Y-62242374D02*
X216269803Y-62245884D01*
X216293007Y-62251696D01*
X216315529Y-62259754D01*
X216337153Y-62269982D01*
X216357670Y-62282279D01*
X216376883Y-62296529D01*
X216394607Y-62312593D01*
X216410671Y-62330317D01*
X216424921Y-62349530D01*
X216437218Y-62370047D01*
X216447446Y-62391671D01*
X216455504Y-62414193D01*
X216461316Y-62437397D01*
X216464826Y-62461058D01*
X216466000Y-62484950D01*
X216466000Y-63397450D01*
X216464826Y-63421342D01*
X216461316Y-63445003D01*
X216455504Y-63468207D01*
X216447446Y-63490729D01*
X216437218Y-63512353D01*
X216424921Y-63532870D01*
X216410671Y-63552083D01*
X216394607Y-63569807D01*
X216376883Y-63585871D01*
X216357670Y-63600121D01*
X216337153Y-63612418D01*
X216315529Y-63622646D01*
X216293007Y-63630704D01*
X216269803Y-63636516D01*
X216246142Y-63640026D01*
X216222250Y-63641200D01*
X215734750Y-63641200D01*
X215710858Y-63640026D01*
X215687197Y-63636516D01*
X215663993Y-63630704D01*
X215641471Y-63622646D01*
X215619847Y-63612418D01*
X215599330Y-63600121D01*
X215580117Y-63585871D01*
X215562393Y-63569807D01*
X215546329Y-63552083D01*
X215532079Y-63532870D01*
X215519782Y-63512353D01*
X215509554Y-63490729D01*
X215501496Y-63468207D01*
X215495684Y-63445003D01*
X215492174Y-63421342D01*
X215491000Y-63397450D01*
X215491000Y-62484950D01*
X215492174Y-62461058D01*
X215495684Y-62437397D01*
X215501496Y-62414193D01*
X215509554Y-62391671D01*
X215519782Y-62370047D01*
X215532079Y-62349530D01*
X215546329Y-62330317D01*
X215562393Y-62312593D01*
X215580117Y-62296529D01*
X215599330Y-62282279D01*
X215619847Y-62269982D01*
X215641471Y-62259754D01*
X215663993Y-62251696D01*
X215687197Y-62245884D01*
X215710858Y-62242374D01*
X215734750Y-62241200D01*
X216222250Y-62241200D01*
X216246142Y-62242374D01*
X216246142Y-62242374D01*
G37*
D11*
X215978500Y-62941200D03*
G04 #@! TD*
D23*
G04 #@! TO.C,J4*
X196777200Y-62201600D03*
D24*
X199927200Y-59051600D03*
X199927200Y-59701600D03*
X199927200Y-60351600D03*
X199927200Y-61001600D03*
X199927200Y-61651600D03*
D23*
X196777200Y-58516600D03*
G04 #@! TD*
D10*
G04 #@! TO.C,R1*
G36*
X206508779Y-54848144D02*
X206531834Y-54851563D01*
X206554443Y-54857227D01*
X206576387Y-54865079D01*
X206597457Y-54875044D01*
X206617448Y-54887026D01*
X206636168Y-54900910D01*
X206653438Y-54916562D01*
X206669090Y-54933832D01*
X206682974Y-54952552D01*
X206694956Y-54972543D01*
X206704921Y-54993613D01*
X206712773Y-55015557D01*
X206718437Y-55038166D01*
X206721856Y-55061221D01*
X206723000Y-55084500D01*
X206723000Y-55659500D01*
X206721856Y-55682779D01*
X206718437Y-55705834D01*
X206712773Y-55728443D01*
X206704921Y-55750387D01*
X206694956Y-55771457D01*
X206682974Y-55791448D01*
X206669090Y-55810168D01*
X206653438Y-55827438D01*
X206636168Y-55843090D01*
X206617448Y-55856974D01*
X206597457Y-55868956D01*
X206576387Y-55878921D01*
X206554443Y-55886773D01*
X206531834Y-55892437D01*
X206508779Y-55895856D01*
X206485500Y-55897000D01*
X206010500Y-55897000D01*
X205987221Y-55895856D01*
X205964166Y-55892437D01*
X205941557Y-55886773D01*
X205919613Y-55878921D01*
X205898543Y-55868956D01*
X205878552Y-55856974D01*
X205859832Y-55843090D01*
X205842562Y-55827438D01*
X205826910Y-55810168D01*
X205813026Y-55791448D01*
X205801044Y-55771457D01*
X205791079Y-55750387D01*
X205783227Y-55728443D01*
X205777563Y-55705834D01*
X205774144Y-55682779D01*
X205773000Y-55659500D01*
X205773000Y-55084500D01*
X205774144Y-55061221D01*
X205777563Y-55038166D01*
X205783227Y-55015557D01*
X205791079Y-54993613D01*
X205801044Y-54972543D01*
X205813026Y-54952552D01*
X205826910Y-54933832D01*
X205842562Y-54916562D01*
X205859832Y-54900910D01*
X205878552Y-54887026D01*
X205898543Y-54875044D01*
X205919613Y-54865079D01*
X205941557Y-54857227D01*
X205964166Y-54851563D01*
X205987221Y-54848144D01*
X206010500Y-54847000D01*
X206485500Y-54847000D01*
X206508779Y-54848144D01*
X206508779Y-54848144D01*
G37*
D25*
X206248000Y-55372000D03*
D10*
G36*
X206508779Y-56598144D02*
X206531834Y-56601563D01*
X206554443Y-56607227D01*
X206576387Y-56615079D01*
X206597457Y-56625044D01*
X206617448Y-56637026D01*
X206636168Y-56650910D01*
X206653438Y-56666562D01*
X206669090Y-56683832D01*
X206682974Y-56702552D01*
X206694956Y-56722543D01*
X206704921Y-56743613D01*
X206712773Y-56765557D01*
X206718437Y-56788166D01*
X206721856Y-56811221D01*
X206723000Y-56834500D01*
X206723000Y-57409500D01*
X206721856Y-57432779D01*
X206718437Y-57455834D01*
X206712773Y-57478443D01*
X206704921Y-57500387D01*
X206694956Y-57521457D01*
X206682974Y-57541448D01*
X206669090Y-57560168D01*
X206653438Y-57577438D01*
X206636168Y-57593090D01*
X206617448Y-57606974D01*
X206597457Y-57618956D01*
X206576387Y-57628921D01*
X206554443Y-57636773D01*
X206531834Y-57642437D01*
X206508779Y-57645856D01*
X206485500Y-57647000D01*
X206010500Y-57647000D01*
X205987221Y-57645856D01*
X205964166Y-57642437D01*
X205941557Y-57636773D01*
X205919613Y-57628921D01*
X205898543Y-57618956D01*
X205878552Y-57606974D01*
X205859832Y-57593090D01*
X205842562Y-57577438D01*
X205826910Y-57560168D01*
X205813026Y-57541448D01*
X205801044Y-57521457D01*
X205791079Y-57500387D01*
X205783227Y-57478443D01*
X205777563Y-57455834D01*
X205774144Y-57432779D01*
X205773000Y-57409500D01*
X205773000Y-56834500D01*
X205774144Y-56811221D01*
X205777563Y-56788166D01*
X205783227Y-56765557D01*
X205791079Y-56743613D01*
X205801044Y-56722543D01*
X205813026Y-56702552D01*
X205826910Y-56683832D01*
X205842562Y-56666562D01*
X205859832Y-56650910D01*
X205878552Y-56637026D01*
X205898543Y-56625044D01*
X205919613Y-56615079D01*
X205941557Y-56607227D01*
X205964166Y-56601563D01*
X205987221Y-56598144D01*
X206010500Y-56597000D01*
X206485500Y-56597000D01*
X206508779Y-56598144D01*
X206508779Y-56598144D01*
G37*
D25*
X206248000Y-57122000D03*
G04 #@! TD*
D10*
G04 #@! TO.C,R7*
G36*
X208286779Y-54622144D02*
X208309834Y-54625563D01*
X208332443Y-54631227D01*
X208354387Y-54639079D01*
X208375457Y-54649044D01*
X208395448Y-54661026D01*
X208414168Y-54674910D01*
X208431438Y-54690562D01*
X208447090Y-54707832D01*
X208460974Y-54726552D01*
X208472956Y-54746543D01*
X208482921Y-54767613D01*
X208490773Y-54789557D01*
X208496437Y-54812166D01*
X208499856Y-54835221D01*
X208501000Y-54858500D01*
X208501000Y-55433500D01*
X208499856Y-55456779D01*
X208496437Y-55479834D01*
X208490773Y-55502443D01*
X208482921Y-55524387D01*
X208472956Y-55545457D01*
X208460974Y-55565448D01*
X208447090Y-55584168D01*
X208431438Y-55601438D01*
X208414168Y-55617090D01*
X208395448Y-55630974D01*
X208375457Y-55642956D01*
X208354387Y-55652921D01*
X208332443Y-55660773D01*
X208309834Y-55666437D01*
X208286779Y-55669856D01*
X208263500Y-55671000D01*
X207788500Y-55671000D01*
X207765221Y-55669856D01*
X207742166Y-55666437D01*
X207719557Y-55660773D01*
X207697613Y-55652921D01*
X207676543Y-55642956D01*
X207656552Y-55630974D01*
X207637832Y-55617090D01*
X207620562Y-55601438D01*
X207604910Y-55584168D01*
X207591026Y-55565448D01*
X207579044Y-55545457D01*
X207569079Y-55524387D01*
X207561227Y-55502443D01*
X207555563Y-55479834D01*
X207552144Y-55456779D01*
X207551000Y-55433500D01*
X207551000Y-54858500D01*
X207552144Y-54835221D01*
X207555563Y-54812166D01*
X207561227Y-54789557D01*
X207569079Y-54767613D01*
X207579044Y-54746543D01*
X207591026Y-54726552D01*
X207604910Y-54707832D01*
X207620562Y-54690562D01*
X207637832Y-54674910D01*
X207656552Y-54661026D01*
X207676543Y-54649044D01*
X207697613Y-54639079D01*
X207719557Y-54631227D01*
X207742166Y-54625563D01*
X207765221Y-54622144D01*
X207788500Y-54621000D01*
X208263500Y-54621000D01*
X208286779Y-54622144D01*
X208286779Y-54622144D01*
G37*
D25*
X208026000Y-55146000D03*
D10*
G36*
X208286779Y-56372144D02*
X208309834Y-56375563D01*
X208332443Y-56381227D01*
X208354387Y-56389079D01*
X208375457Y-56399044D01*
X208395448Y-56411026D01*
X208414168Y-56424910D01*
X208431438Y-56440562D01*
X208447090Y-56457832D01*
X208460974Y-56476552D01*
X208472956Y-56496543D01*
X208482921Y-56517613D01*
X208490773Y-56539557D01*
X208496437Y-56562166D01*
X208499856Y-56585221D01*
X208501000Y-56608500D01*
X208501000Y-57183500D01*
X208499856Y-57206779D01*
X208496437Y-57229834D01*
X208490773Y-57252443D01*
X208482921Y-57274387D01*
X208472956Y-57295457D01*
X208460974Y-57315448D01*
X208447090Y-57334168D01*
X208431438Y-57351438D01*
X208414168Y-57367090D01*
X208395448Y-57380974D01*
X208375457Y-57392956D01*
X208354387Y-57402921D01*
X208332443Y-57410773D01*
X208309834Y-57416437D01*
X208286779Y-57419856D01*
X208263500Y-57421000D01*
X207788500Y-57421000D01*
X207765221Y-57419856D01*
X207742166Y-57416437D01*
X207719557Y-57410773D01*
X207697613Y-57402921D01*
X207676543Y-57392956D01*
X207656552Y-57380974D01*
X207637832Y-57367090D01*
X207620562Y-57351438D01*
X207604910Y-57334168D01*
X207591026Y-57315448D01*
X207579044Y-57295457D01*
X207569079Y-57274387D01*
X207561227Y-57252443D01*
X207555563Y-57229834D01*
X207552144Y-57206779D01*
X207551000Y-57183500D01*
X207551000Y-56608500D01*
X207552144Y-56585221D01*
X207555563Y-56562166D01*
X207561227Y-56539557D01*
X207569079Y-56517613D01*
X207579044Y-56496543D01*
X207591026Y-56476552D01*
X207604910Y-56457832D01*
X207620562Y-56440562D01*
X207637832Y-56424910D01*
X207656552Y-56411026D01*
X207676543Y-56399044D01*
X207697613Y-56389079D01*
X207719557Y-56381227D01*
X207742166Y-56375563D01*
X207765221Y-56372144D01*
X207788500Y-56371000D01*
X208263500Y-56371000D01*
X208286779Y-56372144D01*
X208286779Y-56372144D01*
G37*
D25*
X208026000Y-56896000D03*
G04 #@! TD*
D10*
G04 #@! TO.C,R8*
G36*
X211595642Y-60007174D02*
X211619303Y-60010684D01*
X211642507Y-60016496D01*
X211665029Y-60024554D01*
X211686653Y-60034782D01*
X211707170Y-60047079D01*
X211726383Y-60061329D01*
X211744107Y-60077393D01*
X211760171Y-60095117D01*
X211774421Y-60114330D01*
X211786718Y-60134847D01*
X211796946Y-60156471D01*
X211805004Y-60178993D01*
X211810816Y-60202197D01*
X211814326Y-60225858D01*
X211815500Y-60249750D01*
X211815500Y-61162250D01*
X211814326Y-61186142D01*
X211810816Y-61209803D01*
X211805004Y-61233007D01*
X211796946Y-61255529D01*
X211786718Y-61277153D01*
X211774421Y-61297670D01*
X211760171Y-61316883D01*
X211744107Y-61334607D01*
X211726383Y-61350671D01*
X211707170Y-61364921D01*
X211686653Y-61377218D01*
X211665029Y-61387446D01*
X211642507Y-61395504D01*
X211619303Y-61401316D01*
X211595642Y-61404826D01*
X211571750Y-61406000D01*
X211084250Y-61406000D01*
X211060358Y-61404826D01*
X211036697Y-61401316D01*
X211013493Y-61395504D01*
X210990971Y-61387446D01*
X210969347Y-61377218D01*
X210948830Y-61364921D01*
X210929617Y-61350671D01*
X210911893Y-61334607D01*
X210895829Y-61316883D01*
X210881579Y-61297670D01*
X210869282Y-61277153D01*
X210859054Y-61255529D01*
X210850996Y-61233007D01*
X210845184Y-61209803D01*
X210841674Y-61186142D01*
X210840500Y-61162250D01*
X210840500Y-60249750D01*
X210841674Y-60225858D01*
X210845184Y-60202197D01*
X210850996Y-60178993D01*
X210859054Y-60156471D01*
X210869282Y-60134847D01*
X210881579Y-60114330D01*
X210895829Y-60095117D01*
X210911893Y-60077393D01*
X210929617Y-60061329D01*
X210948830Y-60047079D01*
X210969347Y-60034782D01*
X210990971Y-60024554D01*
X211013493Y-60016496D01*
X211036697Y-60010684D01*
X211060358Y-60007174D01*
X211084250Y-60006000D01*
X211571750Y-60006000D01*
X211595642Y-60007174D01*
X211595642Y-60007174D01*
G37*
D11*
X211328000Y-60706000D03*
D10*
G36*
X213470642Y-60007174D02*
X213494303Y-60010684D01*
X213517507Y-60016496D01*
X213540029Y-60024554D01*
X213561653Y-60034782D01*
X213582170Y-60047079D01*
X213601383Y-60061329D01*
X213619107Y-60077393D01*
X213635171Y-60095117D01*
X213649421Y-60114330D01*
X213661718Y-60134847D01*
X213671946Y-60156471D01*
X213680004Y-60178993D01*
X213685816Y-60202197D01*
X213689326Y-60225858D01*
X213690500Y-60249750D01*
X213690500Y-61162250D01*
X213689326Y-61186142D01*
X213685816Y-61209803D01*
X213680004Y-61233007D01*
X213671946Y-61255529D01*
X213661718Y-61277153D01*
X213649421Y-61297670D01*
X213635171Y-61316883D01*
X213619107Y-61334607D01*
X213601383Y-61350671D01*
X213582170Y-61364921D01*
X213561653Y-61377218D01*
X213540029Y-61387446D01*
X213517507Y-61395504D01*
X213494303Y-61401316D01*
X213470642Y-61404826D01*
X213446750Y-61406000D01*
X212959250Y-61406000D01*
X212935358Y-61404826D01*
X212911697Y-61401316D01*
X212888493Y-61395504D01*
X212865971Y-61387446D01*
X212844347Y-61377218D01*
X212823830Y-61364921D01*
X212804617Y-61350671D01*
X212786893Y-61334607D01*
X212770829Y-61316883D01*
X212756579Y-61297670D01*
X212744282Y-61277153D01*
X212734054Y-61255529D01*
X212725996Y-61233007D01*
X212720184Y-61209803D01*
X212716674Y-61186142D01*
X212715500Y-61162250D01*
X212715500Y-60249750D01*
X212716674Y-60225858D01*
X212720184Y-60202197D01*
X212725996Y-60178993D01*
X212734054Y-60156471D01*
X212744282Y-60134847D01*
X212756579Y-60114330D01*
X212770829Y-60095117D01*
X212786893Y-60077393D01*
X212804617Y-60061329D01*
X212823830Y-60047079D01*
X212844347Y-60034782D01*
X212865971Y-60024554D01*
X212888493Y-60016496D01*
X212911697Y-60010684D01*
X212935358Y-60007174D01*
X212959250Y-60006000D01*
X213446750Y-60006000D01*
X213470642Y-60007174D01*
X213470642Y-60007174D01*
G37*
D11*
X213203000Y-60706000D03*
G04 #@! TD*
D26*
G04 #@! TO.C,U5*
X208156000Y-60989000D03*
X208156000Y-60539000D03*
X208156000Y-60089000D03*
X208156000Y-61439000D03*
X208156000Y-61889000D03*
X208156000Y-62339000D03*
X205356000Y-62339000D03*
X205356000Y-61889000D03*
X205356000Y-61439000D03*
X205356000Y-60089000D03*
X205356000Y-60539000D03*
X205356000Y-60989000D03*
D27*
X206756000Y-61214000D03*
G04 #@! TD*
D28*
G04 #@! TO.C,Y2*
X202381200Y-45059600D03*
X205181200Y-45059600D03*
G04 #@! TD*
M02*
